<?xml version="1.0" encoding="utf-8" standalone="no"?>
<!DOCTYPE svg PUBLIC "-//W3C//DTD SVG 1.1//EN"
  "http://www.w3.org/Graphics/SVG/1.1/DTD/svg11.dtd">
<svg xmlns:xlink="http://www.w3.org/1999/xlink" width="405pt" height="310.312344pt" viewBox="0 0 405 310.312344" xmlns="http://www.w3.org/2000/svg" version="1.1">
 <metadata>
  <rdf:RDF xmlns:dc="http://purl.org/dc/elements/1.1/" xmlns:cc="http://creativecommons.org/ns#" xmlns:rdf="http://www.w3.org/1999/02/22-rdf-syntax-ns#">
   <cc:Work>
    <dc:type rdf:resource="http://purl.org/dc/dcmitype/StillImage"/>
    <dc:date>2026-03-29T00:53:41.981793</dc:date>
    <dc:format>image/svg+xml</dc:format>
    <dc:creator>
     <cc:Agent>
      <dc:title>Matplotlib v3.10.8, https://matplotlib.org/</dc:title>
     </cc:Agent>
    </dc:creator>
   </cc:Work>
  </rdf:RDF>
 </metadata>
 <defs>
  <style type="text/css">*{stroke-linejoin: round; stroke-linecap: butt}</style>
 </defs>
 <g id="figure_1">
  <g id="patch_1">
   <path d="M 0 310.312344 
L 405 310.312344 
L 405 0 
L 0 0 
z
" style="fill: #ffffff"/>
  </g>
  <g id="axes_1">
   <g id="patch_2">
    <path d="M 104.85 268.462344 
C 125.567666 268.462344 145.43958 257.509516 160.089182 238.016094 
C 174.738784 218.522671 182.97 192.080206 182.97 164.512344 
C 182.97 136.944482 174.738784 110.502016 160.089182 91.008594 
C 145.43958 71.515172 125.567666 60.562344 104.85 60.562344 
C 84.132334 60.562344 64.26042 71.515172 49.610818 91.008594 
C 34.961216 110.502016 26.73 136.944482 26.73 164.512344 
C 26.73 192.080206 34.961216 218.522671 49.610818 238.016094 
C 64.26042 257.509516 84.132334 268.462344 104.85 268.462344 
z
" clip-path="url(#pba23b2af1c)" style="fill: #eaf4fb; stroke: #2980b9; stroke-width: 2; stroke-linejoin: miter"/>
   </g>
   <g id="patch_3">
    <path d="M 300.15 268.462344 
C 320.867666 268.462344 340.73958 257.509516 355.389182 238.016094 
C 370.038784 218.522671 378.27 192.080206 378.27 164.512344 
C 378.27 136.944482 370.038784 110.502016 355.389182 91.008594 
C 340.73958 71.515172 320.867666 60.562344 300.15 60.562344 
C 279.432334 60.562344 259.56042 71.515172 244.910818 91.008594 
C 230.261216 110.502016 222.03 136.944482 222.03 164.512344 
C 222.03 192.080206 230.261216 218.522671 244.910818 238.016094 
C 259.56042 257.509516 279.432334 268.462344 300.15 268.462344 
z
" clip-path="url(#pba23b2af1c)" style="fill: #eafaf1; stroke: #27ae60; stroke-width: 2; stroke-linejoin: miter"/>
   </g>
   <g id="patch_4">
    <path d="M 300.15 229.192344 
C 311.544716 229.192344 322.474269 223.350836 330.53155 212.954344 
C 338.588831 202.557852 343.116 188.455204 343.116 173.752344 
C 343.116 159.049484 338.588831 144.946836 330.53155 134.550344 
C 322.474269 124.153852 311.544716 118.312344 300.15 118.312344 
C 288.755284 118.312344 277.825731 124.153852 269.76845 134.550344 
C 261.711169 144.946836 257.184 159.049484 257.184 173.752344 
C 257.184 188.455204 261.711169 202.557852 269.76845 212.954344 
C 277.825731 223.350836 288.755284 229.192344 300.15 229.192344 
z
" clip-path="url(#pba23b2af1c)" style="fill: #a9dfbf; opacity: 0.8; stroke: #1e8449; stroke-width: 1.5; stroke-linejoin: miter"/>
   </g>
   <g id="patch_5">
    <path d="M 104.85 229.192344 
C 116.244716 229.192344 127.174269 223.350836 135.23155 212.954344 
C 143.288831 202.557852 147.816 188.455204 147.816 173.752344 
C 147.816 159.049484 143.288831 144.946836 135.23155 134.550344 
C 127.174269 124.153852 116.244716 118.312344 104.85 118.312344 
C 93.455284 118.312344 82.525731 124.153852 74.46845 134.550344 
C 66.411169 144.946836 61.884 159.049484 61.884 173.752344 
C 61.884 188.455204 66.411169 202.557852 74.46845 212.954344 
C 82.525731 223.350836 93.455284 229.192344 104.85 229.192344 
z
" clip-path="url(#pba23b2af1c)" style="fill: #a9dfbf; opacity: 0.8; stroke: #1e8449; stroke-width: 1.5; stroke-linejoin: miter"/>
   </g>
   <g id="text_1">
    <!-- $(X, \mathcal{M})$ -->
    <g style="fill: #2980b9" transform="translate(87.525 62.872344) scale(0.11 -0.11)">
     <defs>
      <path id="DejaVuSans-28" d="M 1984 4856 
Q 1566 4138 1362 3434 
Q 1159 2731 1159 2009 
Q 1159 1288 1364 580 
Q 1569 -128 1984 -844 
L 1484 -844 
Q 1016 -109 783 600 
Q 550 1309 550 2009 
Q 550 2706 781 3412 
Q 1013 4119 1484 4856 
L 1984 4856 
z
" transform="scale(0.015625)"/>
      <path id="DejaVuSans-Oblique-58" d="M 878 4666 
L 1516 4666 
L 2316 2981 
L 3763 4666 
L 4500 4666 
L 2578 2438 
L 3738 0 
L 3103 0 
L 2163 1966 
L 459 0 
L -275 0 
L 1906 2509 
L 878 4666 
z
" transform="scale(0.015625)"/>
      <path id="DejaVuSans-2c" d="M 750 794 
L 1409 794 
L 1409 256 
L 897 -744 
L 494 -744 
L 750 256 
L 750 794 
z
" transform="scale(0.015625)"/>
      <path id="STIXNonUnicode-Italic-e239" d="M 7123 346 
L 7219 224 
Q 6912 -205 6310 -205 
Q 6208 -205 6096 -169 
Q 5984 -134 5865 -12 
Q 5747 109 5747 307 
Q 5747 384 5779 653 
L 6061 3181 
L 6042 3181 
L 3405 51 
L 3309 51 
Q 2682 1382 2413 2650 
L 2406 2650 
Q 2400 2611 2345 2390 
Q 2291 2170 2265 2061 
Q 2240 1952 2179 1725 
Q 2118 1498 2060 1338 
Q 2003 1178 1926 976 
Q 1850 774 1760 592 
Q 1670 410 1568 250 
Q 1229 -288 813 -288 
Q 576 -288 416 -131 
Q 256 26 256 250 
Q 256 422 345 528 
Q 435 634 595 634 
Q 698 634 768 576 
Q 838 518 867 451 
Q 896 384 947 326 
Q 998 269 1062 269 
Q 1274 269 1446 570 
Q 1555 762 1673 1088 
Q 1792 1414 1881 1731 
Q 1971 2048 2076 2483 
Q 2182 2918 2236 3187 
Q 2291 3456 2371 3840 
Q 2451 4224 2464 4294 
L 2656 4294 
Q 2931 3136 3168 2329 
Q 3405 1523 3738 838 
L 6662 4294 
L 6835 4294 
L 6445 730 
Q 6432 614 6432 544 
Q 6432 173 6714 173 
Q 6950 173 7123 346 
z
" transform="scale(0.015625)"/>
      <path id="DejaVuSans-29" d="M 513 4856 
L 1013 4856 
Q 1481 4119 1714 3412 
Q 1947 2706 1947 2009 
Q 1947 1309 1714 600 
Q 1481 -109 1013 -844 
L 513 -844 
Q 928 -128 1133 580 
Q 1338 1288 1338 2009 
Q 1338 2731 1133 3434 
Q 928 4138 513 4856 
z
" transform="scale(0.015625)"/>
     </defs>
     <use xlink:href="#DejaVuSans-28" transform="translate(0 0.125)"/>
     <use xlink:href="#DejaVuSans-Oblique-58" transform="translate(39.013672 0.125)"/>
     <use xlink:href="#DejaVuSans-2c" transform="translate(107.519531 0.125)"/>
     <use xlink:href="#STIXNonUnicode-Italic-e239" transform="translate(158.789062 0.125)"/>
     <use xlink:href="#DejaVuSans-29" transform="translate(275.389053 0.125)"/>
    </g>
   </g>
   <g id="text_2">
    <!-- $(\mathbb{R}, \mathcal{B}(\mathbb{R}))$ -->
    <g style="fill: #27ae60" transform="translate(277.16 62.872344) scale(0.11 -0.11)">
     <defs>
      <path id="STIXGeneral-Italic-211d" d="M 1229 4179 
L 3360 4179 
Q 3827 4179 4108 3894 
Q 4390 3610 4390 3142 
Q 4390 2554 4060 2186 
Q 3731 1818 3149 1715 
L 4026 0 
L 2925 0 
L 2125 1690 
L 1549 1690 
L 1094 0 
L 109 0 
L 1229 4179 
z
M 3866 3821 
L 3392 2022 
Q 3770 2144 3962 2438 
Q 4154 2733 4154 3136 
Q 4154 3584 3866 3821 
z
M 3142 1978 
L 3648 3872 
Q 3450 3942 3296 3942 
L 2150 3942 
L 1613 1926 
L 2630 1926 
Q 2957 1926 3142 1978 
z
M 3629 237 
L 2899 1696 
Q 2829 1683 2682 1683 
Q 2630 1683 2531 1686 
Q 2432 1690 2387 1690 
L 3072 237 
L 3629 237 
z
M 1907 3942 
L 1408 3942 
L 416 237 
L 915 237 
L 1907 3942 
z
" transform="scale(0.015625)"/>
      <path id="STIXNonUnicode-Italic-e22e" d="M 2080 3341 
L 2099 3328 
Q 2810 4288 3853 4288 
Q 4154 4288 4346 4102 
Q 4538 3917 4538 3622 
Q 4538 3213 4173 2893 
Q 3808 2573 3430 2451 
Q 3866 2406 4144 2169 
Q 4422 1933 4422 1485 
Q 4422 1152 4211 857 
Q 4000 563 3677 377 
Q 3354 192 2986 86 
Q 2618 -19 2291 -19 
Q 1792 -19 1517 186 
L 1587 326 
Q 1843 198 2272 198 
Q 2854 198 3296 595 
Q 3738 992 3738 1478 
Q 3738 1798 3459 2003 
Q 3181 2208 2630 2208 
L 2208 2208 
L 2278 2451 
L 2400 2451 
Q 2611 2451 2867 2508 
Q 3123 2566 3385 2681 
Q 3648 2797 3824 3008 
Q 4000 3219 4000 3482 
Q 4000 3987 3456 3987 
Q 3245 3987 3008 3865 
Q 2771 3744 2624 3590 
Q 2349 3315 2144 2908 
Q 1939 2502 1715 1728 
L 1478 909 
Q 1344 448 1193 253 
Q 1043 58 666 13 
Q 544 0 224 0 
L 282 154 
Q 474 154 576 333 
Q 678 512 870 1190 
L 1536 3514 
Q 1555 3571 1555 3667 
Q 1555 3859 1286 3859 
L 1146 3859 
L 1171 4013 
Q 1875 4077 2355 4237 
L 2080 3341 
z
" transform="scale(0.015625)"/>
     </defs>
     <use xlink:href="#DejaVuSans-28" transform="translate(0 0.125)"/>
     <use xlink:href="#STIXGeneral-Italic-211d" transform="translate(39.013672 0.125)"/>
     <use xlink:href="#DejaVuSans-2c" transform="translate(107.713654 0.125)"/>
     <use xlink:href="#STIXNonUnicode-Italic-e22e" transform="translate(158.983185 0.125)"/>
     <use xlink:href="#DejaVuSans-28" transform="translate(231.383179 0.125)"/>
     <use xlink:href="#STIXGeneral-Italic-211d" transform="translate(270.396851 0.125)"/>
     <use xlink:href="#DejaVuSans-29" transform="translate(339.096832 0.125)"/>
     <use xlink:href="#DejaVuSans-29" transform="translate(378.110504 0.125)"/>
    </g>
   </g>
   <g id="text_3">
    <!-- $B \in \mathcal{B}(\mathbb{R})$ -->
    <g style="fill: #145a32" transform="translate(281.52 176.299063) scale(0.09 -0.09)">
     <defs>
      <path id="DejaVuSans-Oblique-42" d="M 1081 4666 
L 2694 4666 
Q 3350 4666 3675 4422 
Q 4000 4178 4000 3688 
Q 4000 3238 3720 2911 
Q 3441 2584 2988 2516 
Q 3375 2428 3569 2181 
Q 3763 1934 3763 1522 
Q 3763 819 3242 409 
Q 2722 0 1819 0 
L 172 0 
L 1081 4666 
z
M 1234 2228 
L 903 519 
L 1919 519 
Q 2491 519 2800 781 
Q 3109 1044 3109 1522 
Q 3109 1891 2904 2059 
Q 2700 2228 2247 2228 
L 1234 2228 
z
M 1606 4147 
L 1331 2741 
L 2272 2741 
Q 2775 2741 3058 2959 
Q 3341 3178 3341 3566 
Q 3341 3869 3150 4008 
Q 2959 4147 2541 4147 
L 1606 4147 
z
" transform="scale(0.015625)"/>
      <path id="DejaVuSans-2208" d="M 1072 1959 
Q 1094 1728 1291 1353 
Q 1522 919 1959 675 
Q 2388 438 2850 434 
L 5028 434 
L 5028 -63 
L 2850 -63 
Q 2250 -63 1695 246 
Q 1141 556 844 1106 
Q 547 1656 547 2241 
Q 547 2819 844 3369 
Q 1141 3919 1695 4231 
Q 2250 4544 2850 4544 
L 5028 4544 
L 5028 4047 
L 2850 4047 
Q 2388 4044 1959 3803 
Q 1525 3556 1291 3125 
Q 1091 2750 1063 2459 
L 5028 2459 
L 5028 1959 
L 1072 1959 
z
" transform="scale(0.015625)"/>
     </defs>
     <use xlink:href="#DejaVuSans-Oblique-42" transform="translate(0 0.125)"/>
     <use xlink:href="#DejaVuSans-2208" transform="translate(88.085938 0.125)"/>
     <use xlink:href="#STIXNonUnicode-Italic-e22e" transform="translate(194.677734 0.125)"/>
     <use xlink:href="#DejaVuSans-28" transform="translate(267.077728 0.125)"/>
     <use xlink:href="#STIXGeneral-Italic-211d" transform="translate(306.0914 0.125)"/>
     <use xlink:href="#DejaVuSans-29" transform="translate(374.791382 0.125)"/>
    </g>
   </g>
   <g id="text_4">
    <!-- $f^{-1}(B) \in \mathcal{M}$ -->
    <g style="fill: #145a32" transform="translate(80.64 176.587344) scale(0.09 -0.09)">
     <defs>
      <path id="DejaVuSans-Oblique-66" d="M 3059 4863 
L 2969 4384 
L 2419 4384 
Q 2106 4384 1964 4261 
Q 1822 4138 1753 3809 
L 1691 3500 
L 2638 3500 
L 2553 3053 
L 1606 3053 
L 1013 0 
L 434 0 
L 1031 3053 
L 481 3053 
L 563 3500 
L 1113 3500 
L 1159 3744 
Q 1278 4363 1576 4613 
Q 1875 4863 2516 4863 
L 3059 4863 
z
" transform="scale(0.015625)"/>
      <path id="DejaVuSans-2212" d="M 678 2272 
L 4684 2272 
L 4684 1741 
L 678 1741 
L 678 2272 
z
" transform="scale(0.015625)"/>
      <path id="DejaVuSans-31" d="M 794 531 
L 1825 531 
L 1825 4091 
L 703 3866 
L 703 4441 
L 1819 4666 
L 2450 4666 
L 2450 531 
L 3481 531 
L 3481 0 
L 794 0 
L 794 531 
z
" transform="scale(0.015625)"/>
     </defs>
     <use xlink:href="#DejaVuSans-Oblique-66" transform="translate(0 0.684375)"/>
     <use xlink:href="#DejaVuSans-2212" transform="translate(42.652786 38.965625) scale(0.7)"/>
     <use xlink:href="#DejaVuSans-31" transform="translate(101.30513 38.965625) scale(0.7)"/>
     <use xlink:href="#DejaVuSans-28" transform="translate(148.575638 0.684375)"/>
     <use xlink:href="#DejaVuSans-Oblique-42" transform="translate(187.58931 0.684375)"/>
     <use xlink:href="#DejaVuSans-29" transform="translate(256.192826 0.684375)"/>
     <use xlink:href="#DejaVuSans-2208" transform="translate(314.688919 0.684375)"/>
     <use xlink:href="#STIXNonUnicode-Italic-e239" transform="translate(421.280716 0.684375)"/>
    </g>
   </g>
   <g id="patch_6">
    <path d="M 192.781727 141.412344 
Q 202.498963 141.412344 209.980132 141.412344 
" style="fill: none; stroke: #444444; stroke-width: 2; stroke-linecap: round"/>
    <path d="M 205.980132 139.412344 
L 209.980132 141.412344 
L 205.980132 143.412344 
" style="fill: none; stroke: #444444; stroke-width: 2; stroke-linecap: round"/>
   </g>
   <g id="text_5">
    <!-- $f$ -->
    <g style="fill: #444444" transform="translate(200.34 125.242344) scale(0.12 -0.12)">
     <use xlink:href="#DejaVuSans-Oblique-66" transform="translate(0 0.015625)"/>
    </g>
   </g>
   <g id="patch_7">
    <path d="M 212.218273 187.612344 
Q 202.501037 187.612344 194.460851 187.612344 
" style="fill: none; stroke-dasharray: 5.55,2.4; stroke-dashoffset: 0; stroke: #888888; stroke-width: 1.5; stroke-linecap: round"/>
    <path d="M 198.460851 189.612344 
L 194.460851 187.612344 
L 198.460851 185.612344 
" style="fill: none; stroke-dasharray: 5.55,2.4; stroke-dashoffset: 0; stroke: #888888; stroke-width: 1.5; stroke-linecap: round"/>
   </g>
   <g id="text_6">
    <!-- $f^{-1}$ -->
    <g style="fill: #888888" transform="translate(195.05 206.092344) scale(0.1 -0.1)">
     <use xlink:href="#DejaVuSans-Oblique-66" transform="translate(0 0.684375)"/>
     <use xlink:href="#DejaVuSans-2212" transform="translate(42.652786 38.965625) scale(0.7)"/>
     <use xlink:href="#DejaVuSans-31" transform="translate(101.30513 38.965625) scale(0.7)"/>
    </g>
   </g>
   <g id="text_7">
    <!-- 可測関数：逆像がσ-代数に属する写像 -->
    <g style="fill: #1a1a2e" transform="translate(106.568828 15.912344) scale(0.11 -0.11)">
     <defs>
      <path id="HiraginoSans-W7-53ef" d="M 4608 4390 
L 4608 486 
C 4608 320 4557 288 4314 288 
C 4064 288 3744 307 3379 352 
C 3494 115 3565 -173 3597 -486 
C 3840 -499 4102 -506 4269 -506 
C 5261 -506 5459 -371 5459 301 
L 5459 4390 
C 5766 4384 5920 4371 6144 4352 
L 6144 5203 
C 5869 5178 5606 5165 5306 5165 
L 1165 5165 
C 851 5165 589 5178 339 5203 
L 339 4352 
C 640 4378 890 4390 1178 4390 
L 4608 4390 
z
M 3872 3270 
C 3872 3539 3878 3648 3898 3821 
C 3718 3802 3539 3795 3283 3795 
L 1549 3795 
C 1293 3795 1120 3802 954 3821 
C 979 3635 986 3469 986 3219 
L 986 1197 
C 986 998 973 819 947 602 
L 1811 602 
L 1811 1101 
L 3309 1101 
C 3475 1101 3770 1088 3898 1075 
C 3878 1261 3872 1408 3872 1613 
L 3872 3270 
z
M 1805 3053 
L 3059 3053 
L 3059 1843 
L 1805 1843 
L 1805 3053 
z
" transform="scale(0.015625)"/>
      <path id="HiraginoSans-W7-6e2c" d="M 262 4787 
C 678 4486 902 4294 1210 3930 
L 1779 4563 
C 1498 4890 1293 5062 838 5376 
L 262 4787 
z
M 141 3168 
C 557 2906 806 2688 1139 2323 
L 1645 3002 
C 1325 3328 1075 3520 653 3776 
L 141 3168 
z
M 960 2010 
C 730 1088 486 486 186 64 
L 890 -518 
C 1331 422 1434 710 1645 1536 
L 960 2010 
z
M 3546 1011 
C 3654 1011 3814 1005 3936 998 
C 3923 1146 3917 1280 3917 1536 
L 3917 4685 
C 3917 4947 3923 5075 3936 5242 
C 3802 5229 3642 5222 3456 5216 
L 2310 5216 
C 2080 5216 1946 5222 1811 5242 
C 1818 5024 1824 4909 1824 4717 
L 1824 1555 
C 1824 1293 1818 1158 1811 992 
C 1952 1005 2042 1011 2202 1011 
L 3546 1011 
z
M 2541 4525 
L 3200 4525 
L 3200 4032 
L 2541 4032 
L 2541 4525 
z
M 2541 3366 
L 3200 3366 
L 3200 2886 
L 2541 2886 
L 2541 3366 
z
M 2541 2221 
L 3200 2221 
L 3200 1702 
L 2541 1702 
L 2541 2221 
z
M 5005 1043 
C 4986 1171 4979 1318 4979 1536 
L 4979 4442 
C 4979 4672 4986 4819 5005 4954 
L 4198 4954 
C 4218 4819 4224 4672 4224 4461 
L 4224 1536 
C 4224 1325 4218 1190 4198 1043 
L 5005 1043 
z
M 2182 992 
C 1952 525 1779 307 1363 6 
C 1581 -154 1709 -288 1939 -570 
C 2355 -160 2547 102 2803 614 
L 2182 992 
z
M 2880 621 
C 3155 154 3379 -154 3731 -525 
C 3987 -243 4115 -122 4333 32 
C 3962 333 3763 570 3501 1005 
L 2880 621 
z
M 6035 4589 
C 6035 4947 6042 5120 6067 5312 
L 5242 5312 
C 5261 5088 5274 4870 5274 4582 
L 5274 474 
C 5274 333 5235 307 5037 307 
C 4800 307 4634 320 4397 346 
C 4506 51 4544 -96 4582 -454 
C 4787 -461 4845 -461 5056 -461 
C 5850 -461 6035 -320 6035 294 
L 6035 4589 
z
" transform="scale(0.015625)"/>
      <path id="HiraginoSans-W7-95a2" d="M 4371 992 
C 4589 992 4710 986 4870 966 
L 4870 1645 
C 4742 1626 4608 1619 4378 1619 
L 3507 1619 
C 3514 1728 3520 1773 3526 1920 
L 4352 1920 
C 4538 1920 4653 1914 4768 1901 
L 4768 2554 
C 4646 2534 4538 2528 4346 2528 
L 4186 2528 
C 4294 2707 4339 2778 4422 2950 
L 3680 3078 
C 3584 2829 3533 2720 3424 2528 
L 2982 2528 
C 2867 2758 2784 2893 2650 3085 
L 1946 2931 
C 2080 2752 2138 2669 2221 2528 
L 2054 2528 
C 1862 2528 1766 2534 1651 2554 
L 1651 1901 
C 1773 1914 1882 1920 2074 1920 
L 2771 1920 
C 2771 1754 2765 1715 2758 1619 
L 2029 1619 
C 1805 1619 1677 1626 1542 1645 
L 1542 960 
C 1709 979 1888 992 2086 992 
L 2598 992 
C 2477 800 2355 678 2144 557 
C 1952 435 1779 378 1395 275 
C 1574 70 1677 -96 1811 -384 
C 2509 -160 2893 109 3194 582 
C 3494 237 3923 -51 4384 -218 
C 4429 -64 4442 -19 4493 102 
C 4550 -96 4582 -230 4608 -486 
C 4851 -493 4851 -493 4922 -493 
C 5792 -493 5952 -371 5952 314 
L 5952 4531 
C 5952 4858 5958 5018 5978 5254 
C 5805 5235 5651 5229 5325 5229 
L 4000 5229 
C 3667 5229 3520 5235 3347 5254 
C 3360 5069 3366 4896 3366 4659 
L 3366 3693 
C 3366 3398 3366 3283 3354 3123 
C 3552 3130 3706 3136 3910 3136 
L 5146 3136 
L 5146 429 
C 5146 288 5114 269 4902 269 
C 4806 269 4730 275 4576 294 
C 4621 390 4640 422 4698 525 
C 4237 627 3974 749 3686 992 
L 4371 992 
z
M 4128 4678 
L 5146 4678 
L 5146 4422 
L 4128 4422 
L 4128 4678 
z
M 4128 3923 
L 5146 3923 
L 5146 3674 
L 4128 3674 
L 4128 3923 
z
M 1280 3142 
L 2438 3142 
C 2637 3142 2848 3136 2995 3130 
C 2989 3251 2982 3386 2982 3693 
L 2982 4659 
C 2982 4915 2989 5069 3002 5254 
C 2835 5235 2688 5229 2349 5229 
L 1101 5229 
C 781 5229 621 5235 448 5254 
C 467 5050 474 4870 474 4525 
L 474 294 
C 474 -122 461 -333 435 -531 
L 1318 -531 
C 1293 -339 1280 -115 1280 275 
L 1280 3142 
z
M 1280 4678 
L 2234 4678 
L 2234 4422 
L 1280 4422 
L 1280 4678 
z
M 1280 3923 
L 2234 3923 
L 2234 3674 
L 1280 3674 
L 1280 3923 
z
" transform="scale(0.015625)"/>
      <path id="HiraginoSans-W7-6570" d="M 6246 4403 
C 6099 4378 5952 4371 5638 4371 
L 4621 4371 
C 4678 4582 4691 4614 4723 4749 
C 4813 5114 4845 5235 4858 5280 
L 4026 5440 
C 4026 5344 3994 5094 3949 4883 
C 3757 3910 3456 3219 3002 2707 
C 3168 2554 3277 2432 3430 2208 
C 3328 2195 3200 2189 3021 2189 
L 2080 2189 
C 2125 2291 2144 2330 2202 2458 
L 1408 2598 
C 1338 2400 1312 2323 1261 2189 
L 806 2189 
C 563 2189 429 2195 282 2221 
L 282 1459 
C 435 1485 576 1491 806 1491 
L 928 1491 
C 787 1254 717 1146 499 864 
C 954 704 1120 634 1427 499 
C 1062 294 762 198 230 122 
C 397 -109 512 -307 621 -582 
C 1286 -422 1722 -218 2150 141 
C 2451 -26 2528 -77 2765 -262 
L 2976 77 
C 3149 -102 3283 -294 3411 -576 
C 3910 -307 4339 26 4730 461 
C 5075 32 5459 -301 5901 -563 
C 6035 -237 6157 -19 6342 243 
C 5894 467 5530 755 5216 1139 
C 5606 1843 5779 2509 5862 3635 
C 6074 3629 6125 3629 6246 3610 
L 6246 4403 
z
M 3206 454 
C 2963 589 2874 640 2675 730 
C 2842 986 2925 1171 3021 1491 
C 3238 1491 3392 1478 3514 1466 
L 3514 2099 
C 3654 2266 3686 2310 3789 2477 
C 3904 1946 4032 1587 4275 1139 
C 3942 749 3571 461 3046 198 
L 3206 454 
z
M 5069 3635 
C 5037 2938 4934 2400 4736 1907 
C 4486 2451 4397 2771 4294 3437 
C 4326 3520 4339 3552 4371 3635 
L 5069 3635 
z
M 2234 1491 
C 2170 1299 2118 1184 2003 1024 
C 1862 1082 1779 1107 1542 1190 
C 1638 1344 1664 1389 1722 1491 
L 2234 1491 
z
M 2995 4269 
L 2342 4269 
L 2342 4992 
C 2342 5184 2349 5293 2368 5408 
L 1555 5408 
C 1574 5286 1581 5178 1581 4979 
L 1581 4269 
L 851 4269 
C 602 4269 461 4275 301 4294 
L 301 3590 
C 454 3610 621 3616 851 3616 
L 1120 3616 
C 864 3322 595 3130 154 2925 
C 384 2682 467 2566 614 2304 
C 1069 2605 1229 2758 1587 3213 
C 1581 3110 1574 3002 1574 2950 
L 1574 2765 
C 1574 2707 1568 2643 1555 2579 
L 2355 2579 
C 2342 2650 2342 2726 2342 2797 
L 2342 2976 
C 2342 3014 2330 3142 2323 3213 
C 2502 2944 2541 2906 2854 2643 
C 2989 2906 3078 3040 3245 3245 
C 3014 3366 2874 3469 2733 3616 
L 3091 3616 
C 3290 3616 3411 3610 3494 3597 
L 3494 4288 
C 3418 4275 3296 4269 3098 4269 
L 3053 4269 
C 3238 4550 3309 4685 3520 5107 
L 2842 5382 
C 2733 5082 2598 4838 2394 4544 
L 2995 4269 
z
M 397 5094 
C 602 4832 723 4627 870 4282 
L 1523 4563 
C 1376 4883 1280 5043 1037 5363 
L 397 5094 
z
" transform="scale(0.015625)"/>
      <path id="HiraginoSans-W7-ff1a" d="M 3757 4326 
L 2650 4326 
L 2650 3219 
L 3757 3219 
L 3757 4326 
z
M 3757 538 
L 3757 1645 
L 2650 1645 
L 2650 538 
L 3757 538 
z
" transform="scale(0.015625)"/>
      <path id="HiraginoSans-W7-9006" d="M 3680 3744 
L 3680 3072 
C 3680 2822 3667 2611 3642 2330 
L 3008 2330 
L 3008 3091 
C 3008 3264 3014 3386 3027 3469 
L 2189 3469 
C 2202 3347 2214 3194 2214 3059 
L 2214 2029 
C 2214 1856 2208 1709 2195 1574 
C 2317 1587 2451 1594 2624 1594 
L 3450 1594 
C 3270 1318 3014 1133 2522 922 
C 2746 749 2931 563 3078 358 
C 2707 378 2566 397 2413 442 
C 2112 531 1952 646 1811 896 
L 1811 2304 
C 1811 2675 1811 2816 1837 3014 
C 1677 2995 1542 2989 1344 2989 
L 794 2989 
C 550 2989 442 2995 275 3021 
L 275 2195 
C 442 2221 525 2227 691 2227 
L 1005 2227 
L 1005 934 
C 730 704 326 442 128 371 
L 493 -506 
C 570 -442 602 -416 691 -352 
C 1114 -45 1178 0 1395 211 
C 1626 -70 1824 -218 2112 -307 
C 2381 -390 2944 -448 3533 -448 
C 4250 -448 5587 -429 6093 -410 
C 6150 -19 6195 173 6304 486 
C 5562 390 4736 346 3501 346 
C 3437 346 3366 346 3290 352 
C 3859 704 4154 1062 4326 1594 
L 5472 1594 
C 5645 1594 5779 1587 5920 1574 
C 5907 1677 5901 1837 5901 2022 
L 5901 3053 
C 5901 3238 5907 3347 5920 3475 
L 5075 3475 
C 5094 3347 5101 3238 5101 3085 
L 5101 2330 
L 4454 2330 
C 4474 2618 4486 2816 4486 3098 
L 4486 3744 
L 5504 3744 
C 5792 3744 5958 3738 6131 3712 
L 6131 4518 
C 5958 4493 5818 4486 5498 4486 
L 5114 4486 
C 5261 4710 5318 4813 5555 5286 
L 4691 5466 
C 4550 5056 4435 4819 4237 4486 
L 3821 4486 
C 3686 4851 3552 5114 3315 5472 
L 2528 5222 
C 2733 4934 2848 4736 2950 4486 
L 2534 4486 
C 2272 4486 2150 4493 1984 4518 
L 1984 4198 
C 1683 4576 1331 4934 858 5331 
L 250 4749 
C 755 4307 979 4070 1382 3539 
L 1984 4134 
L 1984 3718 
C 2170 3738 2310 3744 2611 3744 
L 3680 3744 
z
" transform="scale(0.015625)"/>
      <path id="HiraginoSans-W7-50cf" d="M 1946 3091 
C 1946 2867 1939 2758 1926 2618 
C 2093 2630 2259 2637 2445 2637 
L 3078 2637 
C 2662 2426 2195 2278 1574 2170 
C 1741 1946 1786 1862 1901 1587 
C 2406 1728 2797 1875 3219 2099 
C 3302 2003 3322 1978 3373 1907 
C 2867 1613 2259 1382 1574 1216 
C 1741 1011 1805 896 1901 640 
C 2758 960 3136 1133 3635 1446 
C 3674 1350 3686 1312 3718 1210 
C 3085 787 2413 480 1562 230 
C 1754 -32 1824 -166 1901 -403 
C 2381 -218 2630 -102 2989 90 
C 3078 -109 3123 -294 3155 -538 
C 3437 -550 3462 -550 3526 -550 
C 3872 -550 4154 -499 4288 -410 
C 4480 -282 4582 19 4582 435 
C 4582 947 4448 1478 4205 1901 
C 4083 2112 3981 2253 3802 2445 
C 3930 2534 3968 2560 4077 2637 
L 4250 2637 
C 4403 1888 4576 1389 4826 915 
C 5101 403 5395 64 5926 -358 
C 6042 0 6138 192 6285 416 
C 5792 774 5536 1056 5306 1498 
C 5536 1658 5766 1837 6144 2163 
L 5555 2630 
C 5376 2419 5293 2342 5043 2138 
C 4979 2330 4960 2419 4915 2637 
L 5446 2637 
C 5709 2637 5818 2630 5958 2618 
C 5946 2765 5939 2886 5939 3149 
L 5939 3654 
C 5939 3885 5946 4032 5965 4179 
C 5811 4160 5683 4154 5446 4154 
L 4813 4154 
C 5011 4384 5011 4384 5139 4544 
C 5286 4742 5286 4742 5331 4781 
L 4966 5146 
C 4813 5126 4646 5120 4410 5120 
L 3680 5120 
C 3706 5165 3706 5165 3731 5203 
C 3770 5267 3782 5286 3827 5363 
L 2963 5466 
C 2854 5165 2643 4864 2304 4512 
C 2048 4256 1862 4102 1581 3930 
C 1594 3962 1600 3968 1632 4045 
C 1722 4230 1882 4653 2022 5062 
C 2035 5107 2048 5146 2048 5152 
C 2086 5242 2086 5242 2099 5280 
L 1222 5478 
C 1190 5254 1126 5011 998 4659 
C 762 4019 454 3488 77 3066 
C 218 2733 282 2515 378 2106 
C 512 2272 659 2477 762 2643 
C 749 2163 749 2067 749 1882 
L 749 198 
C 749 -115 742 -262 710 -550 
L 1587 -550 
C 1562 -275 1555 -109 1555 205 
L 1555 3846 
L 1574 3917 
C 1754 3738 1818 3661 1946 3475 
L 1946 3091 
z
M 2995 4154 
C 3091 4262 3136 4314 3258 4486 
L 4166 4486 
C 4045 4314 4006 4262 3904 4154 
L 2995 4154 
z
M 3808 589 
C 3814 557 3814 538 3814 525 
C 3814 166 3744 83 3443 83 
C 3334 83 3309 83 3040 115 
C 3341 275 3590 429 3808 589 
z
M 2720 3590 
L 3514 3590 
L 3514 3181 
L 2720 3181 
L 2720 3590 
z
M 4282 3590 
L 5139 3590 
L 5139 3181 
L 4282 3181 
L 4282 3590 
z
" transform="scale(0.015625)"/>
      <path id="HiraginoSans-W7-304c" d="M 4038 4768 
C 4250 4544 4461 4230 4634 3904 
L 5190 4186 
C 5005 4538 4858 4749 4602 5030 
L 4038 4768 
z
M 4826 5107 
C 5050 4851 5222 4602 5408 4269 
L 5958 4557 
C 5792 4864 5600 5126 5370 5370 
L 4826 5107 
z
M 4442 3616 
C 4614 3373 4704 3206 4890 2797 
C 5126 2278 5254 1882 5363 1350 
L 6246 1779 
C 6016 2643 5728 3277 5229 3987 
L 4442 3616 
z
M 410 2829 
C 595 2880 1030 2957 1485 3021 
C 1216 1952 672 666 237 96 
L 1126 -384 
C 1165 -301 1171 -288 1229 -166 
C 1824 1075 2176 2048 2400 3091 
C 2541 3104 2611 3110 2720 3110 
C 2950 3110 3053 3085 3136 3002 
C 3251 2899 3296 2733 3296 2426 
C 3296 1939 3219 1274 3123 966 
C 3046 710 2950 608 2790 608 
C 2579 608 2208 710 1882 851 
C 1946 550 1965 390 1965 166 
C 1965 70 1965 19 1952 -122 
C 2387 -250 2656 -301 2931 -301 
C 3283 -301 3488 -224 3680 -13 
C 4006 339 4198 1229 4198 2374 
C 4198 2976 4115 3290 3898 3552 
C 3686 3802 3354 3923 2899 3923 
C 2803 3923 2714 3917 2560 3910 
C 2579 3987 2579 3994 2605 4128 
C 2694 4653 2746 4928 2752 4954 
C 2765 5024 2778 5075 2797 5139 
L 1805 5235 
C 1811 5190 1811 5158 1811 5139 
C 1811 4896 1766 4518 1651 3846 
C 1325 3795 557 3725 365 3725 
C 352 3725 339 3725 326 3725 
L 410 2829 
z
" transform="scale(0.015625)"/>
      <path id="HiraginoSans-W7-3c3" d="M 5638 3680 
C 5382 3642 5165 3629 4723 3629 
L 3987 3629 
C 3744 3718 3514 3757 3283 3757 
C 2662 3757 2150 3584 1760 3245 
C 1286 2829 1005 2150 1005 1427 
C 1005 845 1203 390 1587 70 
C 1869 -160 2291 -288 2771 -288 
C 3437 -288 4064 -6 4454 467 
C 4787 870 4986 1434 4986 2003 
C 4986 2304 4934 2509 4787 2765 
C 5088 2758 5203 2752 5382 2720 
L 5638 3680 
z
M 3994 2099 
C 3994 1235 3450 544 2765 544 
C 2298 544 2010 877 2010 1408 
C 2010 1882 2189 2349 2490 2643 
C 2694 2848 2938 2944 3245 2944 
C 3706 2944 3994 2618 3994 2099 
z
" transform="scale(0.015625)"/>
      <path id="HiraginoSans-W7-2d" d="M 237 1338 
C 448 1363 602 1376 851 1376 
L 1971 1376 
C 2221 1376 2374 1363 2586 1338 
L 2586 2355 
C 2400 2330 2227 2317 1971 2317 
L 851 2317 
C 595 2317 422 2330 237 2355 
L 237 1338 
z
" transform="scale(0.015625)"/>
      <path id="HiraginoSans-W7-4ee3" d="M 5414 3014 
C 5638 3027 5734 3034 5862 3034 
C 5946 3034 5984 3034 6086 3027 
L 6074 3878 
C 5882 3840 5722 3821 5344 3795 
L 4045 3699 
C 4013 4186 4000 4448 4000 4813 
C 4000 5062 4006 5190 4026 5331 
L 3104 5318 
C 3117 5184 3136 4966 3136 4806 
C 3155 4141 3155 4141 3187 3642 
L 2720 3610 
C 2573 3597 2374 3590 2259 3590 
C 2195 3590 2144 3590 2022 3597 
L 2035 2752 
C 2253 2790 2381 2803 2682 2822 
L 3270 2867 
C 3450 1664 3789 794 4339 109 
C 4698 -326 5018 -538 5338 -538 
C 5837 -538 6086 -83 6227 1088 
C 5914 1235 5786 1325 5498 1568 
C 5446 858 5363 480 5254 480 
C 5229 480 5107 570 5043 640 
C 4870 838 4710 1088 4570 1376 
C 4358 1824 4211 2336 4128 2925 
L 5414 3014 
z
M 979 243 
C 979 -109 966 -333 941 -550 
L 1856 -550 
C 1830 -301 1818 -90 1818 230 
L 1818 3846 
C 2182 4634 2195 4672 2362 5158 
L 1504 5440 
C 1478 5216 1389 4928 1267 4614 
C 973 3898 621 3354 58 2765 
C 237 2458 301 2298 422 1856 
C 678 2112 736 2182 992 2547 
C 986 2323 979 2170 979 1830 
L 979 243 
z
M 4198 4858 
C 4518 4550 4838 4179 5114 3814 
L 5760 4339 
C 5389 4787 5171 5018 4819 5331 
L 4198 4858 
z
" transform="scale(0.015625)"/>
      <path id="HiraginoSans-W7-306b" d="M 992 5158 
C 973 4973 966 4915 890 4518 
C 717 3584 640 2810 640 2016 
C 640 1395 685 877 806 64 
C 826 -83 832 -134 838 -250 
L 1766 -205 
C 1760 -115 1760 -83 1760 -19 
C 1760 486 1946 1165 2285 1907 
L 1722 2138 
L 1600 1830 
C 1568 1754 1568 1754 1485 1504 
C 1504 2861 1709 4301 1990 5062 
L 992 5158 
z
M 2573 3610 
C 2669 3603 2720 3603 2752 3597 
C 3149 3558 3379 3546 3782 3546 
C 4314 3546 4954 3590 5478 3661 
C 5549 3667 5555 3667 5613 3667 
L 5568 4595 
C 5158 4486 4518 4422 3814 4422 
C 3232 4422 2899 4448 2586 4531 
L 2573 3610 
z
M 2995 2656 
C 2598 2150 2400 1690 2400 1286 
C 2400 1050 2470 806 2592 634 
C 2880 230 3411 38 4224 38 
C 4666 38 5005 70 5568 160 
C 5709 179 5747 186 5850 198 
L 5786 1165 
C 5344 1005 4787 915 4230 915 
C 3642 915 3315 1094 3315 1414 
C 3315 1651 3462 1939 3763 2317 
L 2995 2656 
z
" transform="scale(0.015625)"/>
      <path id="HiraginoSans-W7-5c5e" d="M 3315 518 
C 2925 506 2726 499 2707 499 
C 2605 499 2528 499 2432 512 
L 2509 -166 
C 2560 -160 2598 -154 2662 -147 
C 2976 -122 2995 -115 3085 -109 
C 3430 -83 3430 -83 3578 -70 
C 4218 -13 4218 -13 4582 38 
C 4602 -45 4602 -51 4621 -154 
L 4870 -77 
C 4915 -269 4928 -339 4928 -518 
C 5082 -531 5152 -531 5222 -531 
C 5760 -531 5978 -352 5978 83 
L 5978 954 
C 5978 1210 5984 1344 6003 1510 
C 5818 1498 5677 1491 5370 1491 
L 4051 1491 
L 4051 1702 
L 5139 1702 
C 5427 1702 5504 1702 5677 1690 
C 5651 1907 5651 1914 5651 2112 
L 5651 2534 
C 5651 2739 5651 2797 5677 2989 
C 5504 2976 5357 2970 5094 2970 
L 4051 2970 
L 4051 3194 
C 4717 3232 4890 3251 5632 3366 
L 5197 3802 
C 5491 3802 5728 3795 5920 3782 
C 5901 4006 5894 4096 5894 4333 
L 5894 4755 
C 5894 4992 5901 5114 5920 5286 
C 5709 5261 5485 5254 5146 5254 
L 1581 5254 
C 1197 5254 973 5261 710 5286 
C 742 5050 749 4883 749 4582 
C 749 2029 614 1069 141 160 
C 410 -64 563 -224 813 -544 
C 1350 550 1517 1530 1549 3802 
L 4979 3802 
C 4397 3674 3270 3590 2170 3590 
C 2042 3590 1901 3597 1645 3603 
C 1792 3405 1837 3322 1907 3117 
C 2611 3130 2938 3142 3315 3155 
L 3315 2970 
L 2374 2970 
C 1997 2970 1914 2970 1779 2982 
C 1786 2842 1792 2701 1792 2560 
L 1792 2112 
C 1792 1971 1792 1888 1786 1837 
C 1779 1741 1779 1741 1779 1690 
C 1920 1702 2022 1702 2310 1702 
L 3315 1702 
L 3315 1491 
L 2061 1491 
C 1722 1491 1651 1491 1491 1510 
C 1504 1382 1510 1229 1510 998 
L 1510 134 
C 1510 -192 1504 -358 1485 -557 
L 2310 -557 
C 2298 -390 2291 -243 2291 13 
L 2291 890 
L 3315 890 
L 3315 518 
z
M 4051 890 
L 4794 890 
L 4358 762 
C 4390 691 4397 666 4429 595 
C 4205 570 4205 570 4051 557 
L 4051 890 
z
M 3315 2470 
L 3315 2202 
L 2554 2202 
L 2554 2470 
L 3315 2470 
z
M 4051 2470 
L 4864 2470 
L 4864 2202 
L 4051 2202 
L 4051 2470 
z
M 5203 890 
L 5203 179 
C 5203 96 5184 70 5126 58 
C 5037 454 5005 531 4845 890 
L 5203 890 
z
M 1549 4378 
L 1549 4634 
L 5101 4634 
L 5101 4378 
L 1549 4378 
z
" transform="scale(0.015625)"/>
      <path id="HiraginoSans-W7-3059" d="M 416 3590 
C 966 3667 1798 3712 3322 3757 
C 3322 3398 3322 3398 3322 3366 
C 3328 3290 3328 3290 3328 3264 
C 3181 3354 2976 3405 2726 3405 
C 1933 3405 1370 2906 1370 2208 
C 1370 1843 1510 1555 1798 1331 
C 2022 1165 2278 1075 2566 1075 
C 2970 1075 3245 1184 3469 1434 
C 3424 1229 3322 1075 3123 909 
C 2803 634 2355 461 1677 346 
C 1939 58 2022 -83 2208 -518 
C 2778 -346 3104 -205 3424 6 
C 4096 442 4435 1037 4435 1773 
C 4435 2138 4365 2419 4198 2739 
C 4198 2816 4198 2861 4198 2886 
L 4205 3411 
L 4205 3622 
L 4198 3770 
C 4525 3776 4576 3776 4915 3776 
C 5600 3776 5754 3770 6029 3750 
L 6022 4634 
C 5766 4608 5274 4595 4192 4589 
C 4198 5011 4198 5024 4230 5299 
L 3264 5299 
C 3296 5082 3296 5050 3309 4570 
C 1504 4518 864 4499 723 4499 
C 608 4499 544 4499 390 4512 
L 416 3590 
z
M 2822 2707 
C 3123 2707 3322 2547 3322 2317 
C 3322 2048 3078 1837 2765 1837 
C 2483 1837 2278 2016 2278 2259 
C 2278 2515 2509 2707 2822 2707 
z
" transform="scale(0.015625)"/>
      <path id="HiraginoSans-W7-308b" d="M 1286 4090 
C 1478 4115 1536 4115 1741 4128 
C 2682 4173 2790 4179 3315 4224 
C 2413 3322 1075 2259 474 1971 
L 986 1146 
C 1779 1856 2656 2221 3597 2221 
C 4333 2221 4806 1920 4806 1453 
C 4806 1050 4621 806 4166 621 
C 4070 883 4000 1018 3872 1171 
C 3603 1504 3200 1690 2746 1690 
C 2067 1690 1568 1274 1568 723 
C 1568 410 1709 128 1958 -58 
C 2227 -262 2701 -378 3258 -378 
C 3872 -378 4435 -243 4864 6 
C 5440 339 5741 838 5741 1459 
C 5741 1907 5587 2259 5274 2522 
C 4928 2810 4480 2957 3936 2957 
C 3565 2957 3245 2912 2880 2803 
C 3398 3168 3603 3334 4269 3930 
C 4768 4371 4774 4371 4909 4448 
L 4454 5114 
C 4346 5062 4269 5050 4019 5030 
C 3424 4986 2630 4954 2080 4954 
C 1696 4954 1485 4966 1248 4998 
L 1286 4090 
z
M 3347 390 
C 3200 358 3174 358 3078 358 
C 2662 358 2419 486 2419 710 
C 2419 864 2547 966 2739 966 
C 3040 966 3251 768 3347 390 
z
" transform="scale(0.015625)"/>
      <path id="HiraginoSans-W7-5199" d="M 4531 3270 
C 4845 3270 5024 3264 5210 3245 
L 5210 3686 
L 6035 3686 
C 6016 3866 6003 4026 6003 4256 
L 6003 4646 
C 6003 4858 6010 5011 6029 5190 
C 5843 5171 5696 5165 5389 5165 
L 1056 5165 
C 717 5165 563 5171 384 5190 
C 403 5018 410 4864 410 4627 
L 410 4205 
C 410 3949 403 3802 378 3616 
L 1216 3616 
L 1216 4422 
L 1856 4422 
C 1728 3731 1491 2944 1146 2112 
C 1363 2125 1664 2138 1875 2138 
L 4192 2138 
C 4173 1926 4166 1850 4154 1696 
L 1050 1696 
C 710 1696 493 1709 294 1734 
L 294 896 
C 499 922 730 934 1050 934 
L 4026 934 
C 3898 314 3846 262 3309 262 
C 3066 262 2893 275 2483 333 
L 2189 365 
C 2336 6 2381 -122 2432 -442 
C 2810 -474 3213 -493 3418 -493 
C 4058 -493 4352 -397 4538 -122 
C 4685 83 4794 422 4890 934 
L 5382 934 
C 5690 934 5914 922 6138 896 
L 6138 1734 
C 5933 1709 5728 1696 5382 1696 
L 4992 1696 
C 5005 1786 5005 1830 5011 1920 
C 5037 2176 5050 2342 5056 2394 
C 5062 2477 5069 2534 5069 2560 
C 5075 2733 5075 2733 5088 2810 
C 5094 2816 5094 2835 5101 2854 
C 4922 2835 4813 2829 4493 2829 
L 2246 2829 
C 2278 2899 2298 2963 2387 3270 
L 4531 3270 
z
M 2579 3981 
C 2637 4237 2675 4384 2682 4422 
L 5197 4422 
L 5197 4006 
C 5030 3987 4922 3981 4531 3981 
L 2579 3981 
z
" transform="scale(0.015625)"/>
     </defs>
     <use xlink:href="#HiraginoSans-W7-53ef"/>
     <use xlink:href="#HiraginoSans-W7-6e2c" transform="translate(99.999985 0)"/>
     <use xlink:href="#HiraginoSans-W7-95a2" transform="translate(199.999969 0)"/>
     <use xlink:href="#HiraginoSans-W7-6570" transform="translate(299.999954 0)"/>
     <use xlink:href="#HiraginoSans-W7-ff1a" transform="translate(399.999939 0)"/>
     <use xlink:href="#HiraginoSans-W7-9006" transform="translate(499.999924 0)"/>
     <use xlink:href="#HiraginoSans-W7-50cf" transform="translate(599.999908 0)"/>
     <use xlink:href="#HiraginoSans-W7-304c" transform="translate(699.999893 0)"/>
     <use xlink:href="#HiraginoSans-W7-3c3" transform="translate(799.999878 0)"/>
     <use xlink:href="#HiraginoSans-W7-2d" transform="translate(899.999863 0)"/>
     <use xlink:href="#HiraginoSans-W7-4ee3" transform="translate(944.19986 0)"/>
     <use xlink:href="#HiraginoSans-W7-6570" transform="translate(1044.199844 0)"/>
     <use xlink:href="#HiraginoSans-W7-306b" transform="translate(1144.199829 0)"/>
     <use xlink:href="#HiraginoSans-W7-5c5e" transform="translate(1244.199814 0)"/>
     <use xlink:href="#HiraginoSans-W7-3059" transform="translate(1344.199799 0)"/>
     <use xlink:href="#HiraginoSans-W7-308b" transform="translate(1444.199783 0)"/>
     <use xlink:href="#HiraginoSans-W7-5199" transform="translate(1544.199768 0)"/>
     <use xlink:href="#HiraginoSans-W7-50cf" transform="translate(1644.199753 0)"/>
    </g>
   </g>
  </g>
 </g>
 <defs>
  <clipPath id="pba23b2af1c">
   <rect x="7.2" y="25.912344" width="390.6" height="277.2"/>
  </clipPath>
 </defs>
</svg>
