<?xml version="1.0" encoding="utf-8" standalone="no"?>
<!DOCTYPE svg PUBLIC "-//W3C//DTD SVG 1.1//EN"
  "http://www.w3.org/Graphics/SVG/1.1/DTD/svg11.dtd">
<svg xmlns:xlink="http://www.w3.org/1999/xlink" width="516.6pt" height="311.84875pt" viewBox="0 0 516.6 311.84875" xmlns="http://www.w3.org/2000/svg" version="1.1">
 <metadata>
  <rdf:RDF xmlns:dc="http://purl.org/dc/elements/1.1/" xmlns:cc="http://creativecommons.org/ns#" xmlns:rdf="http://www.w3.org/1999/02/22-rdf-syntax-ns#">
   <cc:Work>
    <dc:type rdf:resource="http://purl.org/dc/dcmitype/StillImage"/>
    <dc:date>2026-03-29T01:01:11.792361</dc:date>
    <dc:format>image/svg+xml</dc:format>
    <dc:creator>
     <cc:Agent>
      <dc:title>Matplotlib v3.10.8, https://matplotlib.org/</dc:title>
     </cc:Agent>
    </dc:creator>
   </cc:Work>
  </rdf:RDF>
 </metadata>
 <defs>
  <style type="text/css">*{stroke-linejoin: round; stroke-linecap: butt}</style>
 </defs>
 <g id="figure_1">
  <g id="patch_1">
   <path d="M 0 311.84875 
L 516.6 311.84875 
L 516.6 0 
L 0 0 
z
" style="fill: #ffffff"/>
  </g>
  <g id="axes_1">
   <g id="patch_2">
    <path d="M 9.711 182.21875 
L 155.349 182.21875 
Q 160.371 182.21875 160.371 177.59875 
L 160.371 108.29875 
Q 160.371 103.67875 155.349 103.67875 
L 9.711 103.67875 
Q 4.689 103.67875 4.689 108.29875 
L 4.689 177.59875 
Q 4.689 182.21875 9.711 182.21875 
z
" clip-path="url(#p5e59f9dbfc)" style="fill: #d6eaf8; stroke: #2980b9; stroke-width: 1.8; stroke-linejoin: miter"/>
   </g>
   <g id="patch_3">
    <path d="M 185.481 182.21875 
L 331.119 182.21875 
Q 336.141 182.21875 336.141 177.59875 
L 336.141 108.29875 
Q 336.141 103.67875 331.119 103.67875 
L 185.481 103.67875 
Q 180.459 103.67875 180.459 108.29875 
L 180.459 177.59875 
Q 180.459 182.21875 185.481 182.21875 
z
" clip-path="url(#p5e59f9dbfc)" style="fill: #d5f5e3; stroke: #27ae60; stroke-width: 1.8; stroke-linejoin: miter"/>
   </g>
   <g id="patch_4">
    <path d="M 361.251 182.21875 
L 506.889 182.21875 
Q 511.911 182.21875 511.911 177.59875 
L 511.911 108.29875 
Q 511.911 103.67875 506.889 103.67875 
L 361.251 103.67875 
Q 356.229 103.67875 356.229 108.29875 
L 356.229 177.59875 
Q 356.229 182.21875 361.251 182.21875 
z
" clip-path="url(#p5e59f9dbfc)" style="fill: #fde8d8; stroke: #e67e22; stroke-width: 1.8; stroke-linejoin: miter"/>
   </g>
   <g id="patch_5">
    <path d="M 57.42 293.09875 
L 459.18 293.09875 
Q 466.713 293.09875 466.713 286.16875 
L 466.713 235.34875 
Q 466.713 228.41875 459.18 228.41875 
L 57.42 228.41875 
Q 49.887 228.41875 49.887 235.34875 
L 49.887 286.16875 
Q 49.887 293.09875 57.42 293.09875 
z
" clip-path="url(#p5e59f9dbfc)" style="fill: #f8f9fa; stroke: #bbbbbb; stroke-width: 1.2; stroke-linejoin: miter"/>
   </g>
   <g id="text_1">
    <!-- 非負可測関数 -->
    <g style="fill: #1a1a2e" transform="translate(55.53 135.408109) scale(0.09 -0.09)">
     <defs>
      <path id="HiraginoSans-W7-975e" d="M 2074 3776 
L 2074 3219 
L 1190 3219 
C 832 3219 691 3226 512 3245 
L 512 2458 
C 691 2477 864 2483 1190 2483 
L 2061 2483 
C 2048 2285 2042 2182 2022 2022 
C 1062 1824 550 1741 192 1734 
L 339 858 
C 499 909 678 947 1133 1043 
C 1427 1107 1427 1107 1837 1216 
C 1722 979 1600 813 1395 640 
C 1152 435 934 307 486 109 
C 768 -154 896 -314 1062 -621 
C 1594 -333 1946 -77 2202 230 
C 2490 557 2688 979 2784 1466 
C 2925 1504 2989 1523 3181 1581 
L 3187 2336 
C 3034 2285 3008 2278 2880 2240 
C 2899 2509 2906 2682 2906 2918 
L 2906 4646 
C 2906 5075 2912 5222 2938 5408 
L 2022 5408 
C 2061 5178 2074 4966 2074 4685 
L 2074 4544 
L 1050 4544 
C 704 4544 544 4550 365 4576 
L 365 3750 
C 518 3770 704 3776 1050 3776 
L 2074 3776 
z
M 4326 826 
L 5446 826 
C 5786 826 5952 819 6138 794 
L 6138 1626 
C 5952 1600 5798 1594 5446 1594 
L 4326 1594 
L 4326 2349 
L 5242 2349 
C 5574 2349 5734 2342 5920 2323 
L 5920 3123 
C 5747 3104 5581 3098 5242 3098 
L 4326 3098 
L 4326 3770 
L 5363 3770 
C 5696 3770 5894 3763 6048 3744 
L 6048 4570 
C 5875 4544 5715 4538 5363 4538 
L 4326 4538 
L 4326 4602 
C 4326 4998 4333 5184 4365 5402 
L 3462 5402 
C 3494 5178 3501 5011 3501 4602 
L 3501 256 
C 3501 -166 3494 -333 3462 -550 
L 4365 -550 
C 4333 -320 4326 -160 4326 256 
L 4326 826 
z
" transform="scale(0.015625)"/>
      <path id="HiraginoSans-W7-8ca0" d="M 4288 4038 
C 4397 4141 4448 4205 4570 4352 
C 4838 4678 4870 4717 4922 4768 
L 4512 5126 
C 4378 5107 4211 5101 3872 5101 
L 2675 5101 
C 2739 5190 2765 5222 2790 5261 
C 2835 5331 2835 5331 2874 5376 
L 1946 5517 
C 1747 5005 1011 4326 198 3904 
C 365 3667 474 3456 582 3142 
C 755 3258 800 3290 998 3424 
L 998 1299 
C 998 934 992 768 973 589 
C 1190 608 1389 614 1670 614 
L 2016 614 
C 1517 358 1062 243 237 134 
C 435 -115 544 -288 685 -608 
C 1747 -390 2157 -237 2912 237 
L 2458 614 
L 4006 614 
L 3565 237 
C 3962 -6 4141 -96 4499 -237 
C 4954 -410 5235 -486 5837 -589 
C 5971 -269 6074 -83 6234 166 
C 5453 256 4915 390 4442 614 
L 4870 614 
C 5146 614 5357 608 5562 589 
C 5542 736 5536 909 5536 1299 
L 5536 3392 
C 5536 3757 5542 3878 5562 4064 
C 5325 4045 5203 4038 4851 4038 
L 4288 4038 
z
M 1766 4038 
C 1933 4198 2010 4275 2144 4416 
L 3635 4416 
C 3526 4256 3475 4198 3341 4038 
L 1766 4038 
z
M 1805 3366 
L 4730 3366 
L 4730 3078 
L 1805 3078 
L 1805 3366 
z
M 1805 2483 
L 4730 2483 
L 4730 2189 
L 1805 2189 
L 1805 2483 
z
M 1805 1581 
L 4730 1581 
L 4730 1286 
L 1805 1286 
L 1805 1581 
z
" transform="scale(0.015625)"/>
      <path id="HiraginoSans-W7-53ef" d="M 4608 4390 
L 4608 486 
C 4608 320 4557 288 4314 288 
C 4064 288 3744 307 3379 352 
C 3494 115 3565 -173 3597 -486 
C 3840 -499 4102 -506 4269 -506 
C 5261 -506 5459 -371 5459 301 
L 5459 4390 
C 5766 4384 5920 4371 6144 4352 
L 6144 5203 
C 5869 5178 5606 5165 5306 5165 
L 1165 5165 
C 851 5165 589 5178 339 5203 
L 339 4352 
C 640 4378 890 4390 1178 4390 
L 4608 4390 
z
M 3872 3270 
C 3872 3539 3878 3648 3898 3821 
C 3718 3802 3539 3795 3283 3795 
L 1549 3795 
C 1293 3795 1120 3802 954 3821 
C 979 3635 986 3469 986 3219 
L 986 1197 
C 986 998 973 819 947 602 
L 1811 602 
L 1811 1101 
L 3309 1101 
C 3475 1101 3770 1088 3898 1075 
C 3878 1261 3872 1408 3872 1613 
L 3872 3270 
z
M 1805 3053 
L 3059 3053 
L 3059 1843 
L 1805 1843 
L 1805 3053 
z
" transform="scale(0.015625)"/>
      <path id="HiraginoSans-W7-6e2c" d="M 262 4787 
C 678 4486 902 4294 1210 3930 
L 1779 4563 
C 1498 4890 1293 5062 838 5376 
L 262 4787 
z
M 141 3168 
C 557 2906 806 2688 1139 2323 
L 1645 3002 
C 1325 3328 1075 3520 653 3776 
L 141 3168 
z
M 960 2010 
C 730 1088 486 486 186 64 
L 890 -518 
C 1331 422 1434 710 1645 1536 
L 960 2010 
z
M 3546 1011 
C 3654 1011 3814 1005 3936 998 
C 3923 1146 3917 1280 3917 1536 
L 3917 4685 
C 3917 4947 3923 5075 3936 5242 
C 3802 5229 3642 5222 3456 5216 
L 2310 5216 
C 2080 5216 1946 5222 1811 5242 
C 1818 5024 1824 4909 1824 4717 
L 1824 1555 
C 1824 1293 1818 1158 1811 992 
C 1952 1005 2042 1011 2202 1011 
L 3546 1011 
z
M 2541 4525 
L 3200 4525 
L 3200 4032 
L 2541 4032 
L 2541 4525 
z
M 2541 3366 
L 3200 3366 
L 3200 2886 
L 2541 2886 
L 2541 3366 
z
M 2541 2221 
L 3200 2221 
L 3200 1702 
L 2541 1702 
L 2541 2221 
z
M 5005 1043 
C 4986 1171 4979 1318 4979 1536 
L 4979 4442 
C 4979 4672 4986 4819 5005 4954 
L 4198 4954 
C 4218 4819 4224 4672 4224 4461 
L 4224 1536 
C 4224 1325 4218 1190 4198 1043 
L 5005 1043 
z
M 2182 992 
C 1952 525 1779 307 1363 6 
C 1581 -154 1709 -288 1939 -570 
C 2355 -160 2547 102 2803 614 
L 2182 992 
z
M 2880 621 
C 3155 154 3379 -154 3731 -525 
C 3987 -243 4115 -122 4333 32 
C 3962 333 3763 570 3501 1005 
L 2880 621 
z
M 6035 4589 
C 6035 4947 6042 5120 6067 5312 
L 5242 5312 
C 5261 5088 5274 4870 5274 4582 
L 5274 474 
C 5274 333 5235 307 5037 307 
C 4800 307 4634 320 4397 346 
C 4506 51 4544 -96 4582 -454 
C 4787 -461 4845 -461 5056 -461 
C 5850 -461 6035 -320 6035 294 
L 6035 4589 
z
" transform="scale(0.015625)"/>
      <path id="HiraginoSans-W7-95a2" d="M 4371 992 
C 4589 992 4710 986 4870 966 
L 4870 1645 
C 4742 1626 4608 1619 4378 1619 
L 3507 1619 
C 3514 1728 3520 1773 3526 1920 
L 4352 1920 
C 4538 1920 4653 1914 4768 1901 
L 4768 2554 
C 4646 2534 4538 2528 4346 2528 
L 4186 2528 
C 4294 2707 4339 2778 4422 2950 
L 3680 3078 
C 3584 2829 3533 2720 3424 2528 
L 2982 2528 
C 2867 2758 2784 2893 2650 3085 
L 1946 2931 
C 2080 2752 2138 2669 2221 2528 
L 2054 2528 
C 1862 2528 1766 2534 1651 2554 
L 1651 1901 
C 1773 1914 1882 1920 2074 1920 
L 2771 1920 
C 2771 1754 2765 1715 2758 1619 
L 2029 1619 
C 1805 1619 1677 1626 1542 1645 
L 1542 960 
C 1709 979 1888 992 2086 992 
L 2598 992 
C 2477 800 2355 678 2144 557 
C 1952 435 1779 378 1395 275 
C 1574 70 1677 -96 1811 -384 
C 2509 -160 2893 109 3194 582 
C 3494 237 3923 -51 4384 -218 
C 4429 -64 4442 -19 4493 102 
C 4550 -96 4582 -230 4608 -486 
C 4851 -493 4851 -493 4922 -493 
C 5792 -493 5952 -371 5952 314 
L 5952 4531 
C 5952 4858 5958 5018 5978 5254 
C 5805 5235 5651 5229 5325 5229 
L 4000 5229 
C 3667 5229 3520 5235 3347 5254 
C 3360 5069 3366 4896 3366 4659 
L 3366 3693 
C 3366 3398 3366 3283 3354 3123 
C 3552 3130 3706 3136 3910 3136 
L 5146 3136 
L 5146 429 
C 5146 288 5114 269 4902 269 
C 4806 269 4730 275 4576 294 
C 4621 390 4640 422 4698 525 
C 4237 627 3974 749 3686 992 
L 4371 992 
z
M 4128 4678 
L 5146 4678 
L 5146 4422 
L 4128 4422 
L 4128 4678 
z
M 4128 3923 
L 5146 3923 
L 5146 3674 
L 4128 3674 
L 4128 3923 
z
M 1280 3142 
L 2438 3142 
C 2637 3142 2848 3136 2995 3130 
C 2989 3251 2982 3386 2982 3693 
L 2982 4659 
C 2982 4915 2989 5069 3002 5254 
C 2835 5235 2688 5229 2349 5229 
L 1101 5229 
C 781 5229 621 5235 448 5254 
C 467 5050 474 4870 474 4525 
L 474 294 
C 474 -122 461 -333 435 -531 
L 1318 -531 
C 1293 -339 1280 -115 1280 275 
L 1280 3142 
z
M 1280 4678 
L 2234 4678 
L 2234 4422 
L 1280 4422 
L 1280 4678 
z
M 1280 3923 
L 2234 3923 
L 2234 3674 
L 1280 3674 
L 1280 3923 
z
" transform="scale(0.015625)"/>
      <path id="HiraginoSans-W7-6570" d="M 6246 4403 
C 6099 4378 5952 4371 5638 4371 
L 4621 4371 
C 4678 4582 4691 4614 4723 4749 
C 4813 5114 4845 5235 4858 5280 
L 4026 5440 
C 4026 5344 3994 5094 3949 4883 
C 3757 3910 3456 3219 3002 2707 
C 3168 2554 3277 2432 3430 2208 
C 3328 2195 3200 2189 3021 2189 
L 2080 2189 
C 2125 2291 2144 2330 2202 2458 
L 1408 2598 
C 1338 2400 1312 2323 1261 2189 
L 806 2189 
C 563 2189 429 2195 282 2221 
L 282 1459 
C 435 1485 576 1491 806 1491 
L 928 1491 
C 787 1254 717 1146 499 864 
C 954 704 1120 634 1427 499 
C 1062 294 762 198 230 122 
C 397 -109 512 -307 621 -582 
C 1286 -422 1722 -218 2150 141 
C 2451 -26 2528 -77 2765 -262 
L 2976 77 
C 3149 -102 3283 -294 3411 -576 
C 3910 -307 4339 26 4730 461 
C 5075 32 5459 -301 5901 -563 
C 6035 -237 6157 -19 6342 243 
C 5894 467 5530 755 5216 1139 
C 5606 1843 5779 2509 5862 3635 
C 6074 3629 6125 3629 6246 3610 
L 6246 4403 
z
M 3206 454 
C 2963 589 2874 640 2675 730 
C 2842 986 2925 1171 3021 1491 
C 3238 1491 3392 1478 3514 1466 
L 3514 2099 
C 3654 2266 3686 2310 3789 2477 
C 3904 1946 4032 1587 4275 1139 
C 3942 749 3571 461 3046 198 
L 3206 454 
z
M 5069 3635 
C 5037 2938 4934 2400 4736 1907 
C 4486 2451 4397 2771 4294 3437 
C 4326 3520 4339 3552 4371 3635 
L 5069 3635 
z
M 2234 1491 
C 2170 1299 2118 1184 2003 1024 
C 1862 1082 1779 1107 1542 1190 
C 1638 1344 1664 1389 1722 1491 
L 2234 1491 
z
M 2995 4269 
L 2342 4269 
L 2342 4992 
C 2342 5184 2349 5293 2368 5408 
L 1555 5408 
C 1574 5286 1581 5178 1581 4979 
L 1581 4269 
L 851 4269 
C 602 4269 461 4275 301 4294 
L 301 3590 
C 454 3610 621 3616 851 3616 
L 1120 3616 
C 864 3322 595 3130 154 2925 
C 384 2682 467 2566 614 2304 
C 1069 2605 1229 2758 1587 3213 
C 1581 3110 1574 3002 1574 2950 
L 1574 2765 
C 1574 2707 1568 2643 1555 2579 
L 2355 2579 
C 2342 2650 2342 2726 2342 2797 
L 2342 2976 
C 2342 3014 2330 3142 2323 3213 
C 2502 2944 2541 2906 2854 2643 
C 2989 2906 3078 3040 3245 3245 
C 3014 3366 2874 3469 2733 3616 
L 3091 3616 
C 3290 3616 3411 3610 3494 3597 
L 3494 4288 
C 3418 4275 3296 4269 3098 4269 
L 3053 4269 
C 3238 4550 3309 4685 3520 5107 
L 2842 5382 
C 2733 5082 2598 4838 2394 4544 
L 2995 4269 
z
M 397 5094 
C 602 4832 723 4627 870 4282 
L 1523 4563 
C 1376 4883 1280 5043 1037 5363 
L 397 5094 
z
" transform="scale(0.015625)"/>
     </defs>
     <use xlink:href="#HiraginoSans-W7-975e"/>
     <use xlink:href="#HiraginoSans-W7-8ca0" transform="translate(99.999985 0)"/>
     <use xlink:href="#HiraginoSans-W7-53ef" transform="translate(199.999969 0)"/>
     <use xlink:href="#HiraginoSans-W7-6e2c" transform="translate(299.999954 0)"/>
     <use xlink:href="#HiraginoSans-W7-95a2" transform="translate(399.999939 0)"/>
     <use xlink:href="#HiraginoSans-W7-6570" transform="translate(499.999924 0)"/>
    </g>
   </g>
   <g id="text_2">
    <!-- $f : X \to \mathbb{R}_{\geq 0}$ -->
    <g style="fill: #1a1a2e" transform="translate(61.195 158.289984) scale(0.085 -0.085)">
     <defs>
      <path id="DejaVuSans-Oblique-66" d="M 3059 4863 
L 2969 4384 
L 2419 4384 
Q 2106 4384 1964 4261 
Q 1822 4138 1753 3809 
L 1691 3500 
L 2638 3500 
L 2553 3053 
L 1606 3053 
L 1013 0 
L 434 0 
L 1031 3053 
L 481 3053 
L 563 3500 
L 1113 3500 
L 1159 3744 
Q 1278 4363 1576 4613 
Q 1875 4863 2516 4863 
L 3059 4863 
z
" transform="scale(0.015625)"/>
      <path id="DejaVuSans-3a" d="M 750 794 
L 1409 794 
L 1409 0 
L 750 0 
L 750 794 
z
M 750 3309 
L 1409 3309 
L 1409 2516 
L 750 2516 
L 750 3309 
z
" transform="scale(0.015625)"/>
      <path id="DejaVuSans-Oblique-58" d="M 878 4666 
L 1516 4666 
L 2316 2981 
L 3763 4666 
L 4500 4666 
L 2578 2438 
L 3738 0 
L 3103 0 
L 2163 1966 
L 459 0 
L -275 0 
L 1906 2509 
L 878 4666 
z
" transform="scale(0.015625)"/>
      <path id="DejaVuSans-2192" d="M 5050 2147 
L 5050 1866 
L 3822 638 
L 3447 1013 
L 4175 1741 
L 366 1741 
L 366 2272 
L 4175 2272 
L 3447 3000 
L 3822 3375 
L 5050 2147 
z
" transform="scale(0.015625)"/>
      <path id="STIXGeneral-Italic-211d" d="M 1229 4179 
L 3360 4179 
Q 3827 4179 4108 3894 
Q 4390 3610 4390 3142 
Q 4390 2554 4060 2186 
Q 3731 1818 3149 1715 
L 4026 0 
L 2925 0 
L 2125 1690 
L 1549 1690 
L 1094 0 
L 109 0 
L 1229 4179 
z
M 3866 3821 
L 3392 2022 
Q 3770 2144 3962 2438 
Q 4154 2733 4154 3136 
Q 4154 3584 3866 3821 
z
M 3142 1978 
L 3648 3872 
Q 3450 3942 3296 3942 
L 2150 3942 
L 1613 1926 
L 2630 1926 
Q 2957 1926 3142 1978 
z
M 3629 237 
L 2899 1696 
Q 2829 1683 2682 1683 
Q 2630 1683 2531 1686 
Q 2432 1690 2387 1690 
L 3072 237 
L 3629 237 
z
M 1907 3942 
L 1408 3942 
L 416 237 
L 915 237 
L 1907 3942 
z
" transform="scale(0.015625)"/>
      <path id="DejaVuSans-2265" d="M 678 3175 
L 678 3725 
L 4684 2578 
L 4684 2047 
L 678 897 
L 678 1453 
L 3681 2309 
L 678 3175 
z
M 4684 531 
L 4684 0 
L 678 0 
L 678 531 
L 4684 531 
z
" transform="scale(0.015625)"/>
      <path id="DejaVuSans-30" d="M 2034 4250 
Q 1547 4250 1301 3770 
Q 1056 3291 1056 2328 
Q 1056 1369 1301 889 
Q 1547 409 2034 409 
Q 2525 409 2770 889 
Q 3016 1369 3016 2328 
Q 3016 3291 2770 3770 
Q 2525 4250 2034 4250 
z
M 2034 4750 
Q 2819 4750 3233 4129 
Q 3647 3509 3647 2328 
Q 3647 1150 3233 529 
Q 2819 -91 2034 -91 
Q 1250 -91 836 529 
Q 422 1150 422 2328 
Q 422 3509 836 4129 
Q 1250 4750 2034 4750 
z
" transform="scale(0.015625)"/>
     </defs>
     <use xlink:href="#DejaVuSans-Oblique-66" transform="translate(0 0.015625)"/>
     <use xlink:href="#DejaVuSans-3a" transform="translate(54.6875 0.015625)"/>
     <use xlink:href="#DejaVuSans-Oblique-58" transform="translate(107.861328 0.015625)"/>
     <use xlink:href="#DejaVuSans-2192" transform="translate(195.849609 0.015625)"/>
     <use xlink:href="#STIXGeneral-Italic-211d" transform="translate(299.121094 0.015625)"/>
     <use xlink:href="#DejaVuSans-2265" transform="translate(381.458771 -16.390625) scale(0.7)"/>
     <use xlink:href="#DejaVuSans-30" transform="translate(453.74881 -16.390625) scale(0.7)"/>
    </g>
   </g>
   <g id="text_3">
    <!-- lintegral -->
    <g style="fill: #1a1a2e" transform="translate(237.645703 135.403891) scale(0.09 -0.09)">
     <defs>
      <path id="HiraginoSans-W7-6c" d="M 371 5069 
C 410 4819 422 4589 422 4173 
L 422 762 
C 422 339 410 147 371 -134 
L 1491 -134 
C 1459 166 1446 397 1446 762 
L 1446 4173 
C 1446 4582 1459 4813 1491 5069 
L 371 5069 
z
" transform="scale(0.015625)"/>
      <path id="HiraginoSans-W7-69" d="M 384 5069 
L 384 4186 
L 1498 4186 
L 1498 5069 
L 384 5069 
z
M 371 3654 
C 410 3392 422 3149 422 2758 
L 422 762 
C 422 384 410 186 371 -134 
L 1504 -134 
C 1466 134 1453 390 1453 768 
L 1453 2752 
C 1453 3174 1466 3411 1504 3654 
L 371 3654 
z
" transform="scale(0.015625)"/>
      <path id="HiraginoSans-W7-6e" d="M 1485 -134 
C 1446 179 1434 416 1434 762 
L 1434 2061 
C 1709 2541 2106 2835 2483 2835 
C 2637 2835 2765 2797 2861 2726 
C 3014 2611 3066 2464 3066 2131 
L 3066 762 
C 3066 403 3053 166 3014 -134 
L 4134 -134 
C 4096 128 4083 371 4083 762 
L 4083 2374 
C 4083 3245 3610 3731 2758 3731 
C 2214 3731 1811 3552 1414 3142 
C 1421 3264 1427 3347 1427 3398 
L 1427 3654 
L 371 3654 
C 410 3411 422 3168 422 2758 
L 422 762 
C 422 390 410 154 371 -134 
L 1485 -134 
z
" transform="scale(0.015625)"/>
      <path id="HiraginoSans-W7-74" d="M 813 4646 
C 851 4352 864 4141 864 3821 
L 864 3654 
L 627 3654 
C 371 3654 237 3661 51 3693 
L 51 2790 
C 250 2822 378 2829 614 2829 
L 864 2829 
L 864 768 
C 864 58 1197 -224 2022 -224 
C 2355 -224 2586 -186 2842 -96 
L 2739 742 
C 2573 646 2445 614 2272 614 
C 1971 614 1862 723 1862 1024 
L 1862 2829 
L 2144 2829 
C 2419 2829 2541 2822 2752 2790 
L 2752 3686 
C 2554 3661 2406 3654 2112 3654 
L 1862 3654 
L 1862 3821 
C 1862 4122 1882 4403 1914 4646 
L 813 4646 
z
" transform="scale(0.015625)"/>
      <path id="HiraginoSans-W7-65" d="M 4032 1485 
C 4019 1606 4019 1613 4019 1638 
C 3994 2118 3962 2323 3846 2637 
C 3571 3373 2963 3782 2125 3782 
C 973 3782 211 2976 211 1760 
C 211 1139 410 595 774 237 
C 1107 -96 1587 -269 2163 -269 
C 2746 -269 3232 -90 3571 250 
C 3744 416 3840 563 3981 870 
L 3053 1146 
C 2918 755 2611 544 2163 544 
C 1856 544 1606 653 1434 864 
C 1306 1024 1248 1184 1216 1485 
L 4032 1485 
z
M 1235 2227 
C 1357 2726 1664 2982 2138 2982 
C 2432 2982 2675 2874 2829 2675 
C 2925 2547 2970 2432 3008 2227 
L 1235 2227 
z
" transform="scale(0.015625)"/>
      <path id="HiraginoSans-W7-67" d="M 294 -659 
C 736 -1152 1229 -1344 2035 -1344 
C 2701 -1344 3258 -1197 3590 -928 
C 3974 -614 4147 -134 4147 640 
L 4147 2810 
C 4147 3174 4160 3366 4198 3654 
L 3155 3654 
L 3155 3443 
C 3155 3373 3155 3328 3162 3277 
C 2867 3590 2496 3731 1965 3731 
C 1549 3731 1203 3622 902 3405 
C 442 3066 205 2547 205 1882 
C 205 768 877 58 1926 58 
C 2464 58 2854 218 3162 563 
C 3136 128 3091 -58 2963 -243 
C 2803 -467 2470 -595 2048 -595 
C 1626 -595 1299 -442 1069 -141 
L 294 -659 
z
M 1229 1882 
C 1229 2534 1587 2963 2138 2963 
C 2707 2963 3123 2515 3123 1901 
C 3123 1498 2957 1171 2656 992 
C 2496 890 2285 832 2106 832 
C 1888 832 1651 928 1504 1075 
C 1318 1261 1229 1530 1229 1882 
z
" transform="scale(0.015625)"/>
      <path id="HiraginoSans-W7-72" d="M 3277 3654 
C 3002 3712 2867 3725 2675 3725 
C 2106 3725 1696 3533 1427 3130 
L 1427 3654 
L 371 3654 
C 410 3386 422 3187 422 2758 
L 422 762 
C 422 384 410 186 371 -134 
L 1472 -134 
C 1440 141 1427 378 1427 762 
L 1427 1869 
C 1459 2170 1517 2317 1651 2477 
C 1830 2682 2080 2778 2419 2778 
C 2624 2778 2746 2758 3014 2669 
L 3277 3654 
z
" transform="scale(0.015625)"/>
      <path id="HiraginoSans-W7-61" d="M 2842 -134 
L 3878 -134 
C 3846 154 3834 346 3834 717 
L 3834 2451 
C 3834 2912 3750 3162 3533 3366 
C 3251 3635 2822 3763 2195 3763 
C 1594 3763 1133 3642 813 3392 
C 589 3219 467 3046 333 2675 
L 1344 2509 
C 1414 2688 1472 2778 1587 2861 
C 1709 2950 1939 3008 2189 3008 
C 2624 3008 2842 2854 2842 2541 
L 2842 2285 
C 2029 2259 1837 2240 1466 2163 
C 672 1984 237 1549 237 928 
C 237 589 365 294 602 96 
C 832 -109 1158 -205 1613 -205 
C 2131 -205 2458 -96 2842 198 
L 2842 -134 
z
M 2842 1357 
C 2842 1133 2765 973 2579 813 
C 2381 646 2067 538 1792 538 
C 1446 538 1254 685 1254 954 
C 1254 1197 1408 1370 1702 1459 
C 1990 1549 2259 1581 2842 1600 
L 2842 1357 
z
" transform="scale(0.015625)"/>
     </defs>
     <use xlink:href="#HiraginoSans-W7-6c"/>
     <use xlink:href="#HiraginoSans-W7-69" transform="translate(29.099991 0)"/>
     <use xlink:href="#HiraginoSans-W7-6e" transform="translate(58.299988 0)"/>
     <use xlink:href="#HiraginoSans-W7-74" transform="translate(128.499969 0)"/>
     <use xlink:href="#HiraginoSans-W7-65" transform="translate(173.999954 0)"/>
     <use xlink:href="#HiraginoSans-W7-67" transform="translate(240.099945 0)"/>
     <use xlink:href="#HiraginoSans-W7-72" transform="translate(311.399933 0)"/>
     <use xlink:href="#HiraginoSans-W7-61" transform="translate(363.499924 0)"/>
     <use xlink:href="#HiraginoSans-W7-6c" transform="translate(429.899918 0)"/>
    </g>
   </g>
   <g id="text_4">
    <!-- $\int^- f \, d\mu \in [0, +\infty]$ -->
    <g style="fill: #1a1a2e" transform="translate(221.0275 159.28475) scale(0.085 -0.085)">
     <defs>
      <path id="DejaVuSansDisplay-222b" d="M 2134 5525 
Q 2172 6263 2528 6556 
Q 2884 6850 3218 6850 
Q 3553 6850 3833 6575 
Q 4113 6300 4200 5678 
L 3544 5613 
Q 3469 6188 3219 6188 
Q 2906 6188 2869 5413 
L 2581 -597 
Q 2547 -1334 2187 -1628 
Q 1828 -1922 1497 -1922 
Q 1163 -1922 883 -1647 
Q 603 -1372 516 -750 
L 1172 -684 
Q 1247 -1259 1497 -1259 
Q 1809 -1259 1847 -488 
L 2134 5525 
z
" transform="scale(0.015625)"/>
      <path id="DejaVuSans-2212" d="M 678 2272 
L 4684 2272 
L 4684 1741 
L 678 1741 
L 678 2272 
z
" transform="scale(0.015625)"/>
      <path id="DejaVuSans-Oblique-64" d="M 2675 525 
Q 2444 222 2128 65 
Q 1813 -91 1428 -91 
Q 903 -91 598 267 
Q 294 625 294 1247 
Q 294 1766 478 2236 
Q 663 2706 1013 3078 
Q 1244 3325 1534 3454 
Q 1825 3584 2144 3584 
Q 2481 3584 2739 3421 
Q 2997 3259 3138 2956 
L 3513 4863 
L 4091 4863 
L 3144 0 
L 2566 0 
L 2675 525 
z
M 891 1350 
Q 891 897 1095 644 
Q 1300 391 1663 391 
Q 1931 391 2161 520 
Q 2391 650 2566 903 
Q 2750 1166 2856 1509 
Q 2963 1853 2963 2188 
Q 2963 2622 2758 2865 
Q 2553 3109 2194 3109 
Q 1922 3109 1687 2981 
Q 1453 2853 1288 2613 
Q 1106 2353 998 2009 
Q 891 1666 891 1350 
z
" transform="scale(0.015625)"/>
      <path id="DejaVuSans-Oblique-3bc" d="M -84 -1331 
L 856 3500 
L 1434 3500 
L 1009 1322 
Q 997 1256 987 1175 
Q 978 1094 978 1013 
Q 978 722 1161 565 
Q 1344 409 1684 409 
Q 2147 409 2431 671 
Q 2716 934 2816 1459 
L 3213 3500 
L 3788 3500 
L 3266 809 
Q 3253 750 3248 706 
Q 3244 663 3244 628 
Q 3244 531 3283 486 
Q 3322 441 3406 441 
Q 3438 441 3492 456 
Q 3547 472 3647 513 
L 3559 50 
Q 3422 -19 3297 -55 
Q 3172 -91 3053 -91 
Q 2847 -91 2730 40 
Q 2613 172 2613 403 
Q 2438 153 2195 31 
Q 1953 -91 1625 -91 
Q 1334 -91 1117 43 
Q 900 178 831 397 
L 494 -1331 
L -84 -1331 
z
" transform="scale(0.015625)"/>
      <path id="DejaVuSans-2208" d="M 1072 1959 
Q 1094 1728 1291 1353 
Q 1522 919 1959 675 
Q 2388 438 2850 434 
L 5028 434 
L 5028 -63 
L 2850 -63 
Q 2250 -63 1695 246 
Q 1141 556 844 1106 
Q 547 1656 547 2241 
Q 547 2819 844 3369 
Q 1141 3919 1695 4231 
Q 2250 4544 2850 4544 
L 5028 4544 
L 5028 4047 
L 2850 4047 
Q 2388 4044 1959 3803 
Q 1525 3556 1291 3125 
Q 1091 2750 1063 2459 
L 5028 2459 
L 5028 1959 
L 1072 1959 
z
" transform="scale(0.015625)"/>
      <path id="DejaVuSans-5b" d="M 550 4863 
L 1875 4863 
L 1875 4416 
L 1125 4416 
L 1125 -397 
L 1875 -397 
L 1875 -844 
L 550 -844 
L 550 4863 
z
" transform="scale(0.015625)"/>
      <path id="DejaVuSans-2c" d="M 750 794 
L 1409 794 
L 1409 256 
L 897 -744 
L 494 -744 
L 750 256 
L 750 794 
z
" transform="scale(0.015625)"/>
      <path id="DejaVuSans-2b" d="M 2944 4013 
L 2944 2272 
L 4684 2272 
L 4684 1741 
L 2944 1741 
L 2944 0 
L 2419 0 
L 2419 1741 
L 678 1741 
L 678 2272 
L 2419 2272 
L 2419 4013 
L 2944 4013 
z
" transform="scale(0.015625)"/>
      <path id="DejaVuSans-221e" d="M 2916 1091 
Q 2819 1203 2666 1466 
Q 2456 1091 2272 925 
Q 2041 725 1681 725 
Q 1259 725 981 1041 
Q 688 1372 688 1919 
Q 688 2444 981 2800 
Q 1244 3116 1688 3116 
Q 1916 3116 2084 3022 
Q 2281 2919 2416 2741 
Q 2541 2581 2666 2366 
Q 2875 2741 3059 2906 
Q 3291 3106 3650 3106 
Q 4072 3106 4350 2791 
Q 4644 2459 4644 1913 
Q 4644 1388 4350 1031 
Q 4088 716 3644 716 
Q 3416 716 3247 809 
Q 3078 894 2916 1091 
z
M 1647 1134 
Q 2163 1134 2472 1884 
Q 2075 2703 1647 2703 
Q 1334 2703 1175 2478 
Q 1003 2238 1003 1919 
Q 1003 1569 1175 1353 
Q 1350 1134 1647 1134 
z
M 3684 2697 
Q 3219 2697 2859 1947 
Q 3253 1128 3684 1128 
Q 3997 1128 4156 1353 
Q 4328 1594 4328 1913 
Q 4328 2263 4156 2478 
Q 3981 2697 3684 2697 
z
" transform="scale(0.015625)"/>
      <path id="DejaVuSans-5d" d="M 1947 4863 
L 1947 -844 
L 622 -844 
L 622 -397 
L 1369 -397 
L 1369 4416 
L 622 4416 
L 622 4863 
L 1947 4863 
z
" transform="scale(0.015625)"/>
     </defs>
     <use xlink:href="#DejaVuSansDisplay-222b" transform="translate(0 0.99375)"/>
     <use xlink:href="#DejaVuSans-2212" transform="translate(100.381836 86.15) scale(0.7)"/>
     <use xlink:href="#DejaVuSans-Oblique-66" transform="translate(172.671875 0.99375)"/>
     <use xlink:href="#DejaVuSans-Oblique-64" transform="translate(224.112629 0.99375)"/>
     <use xlink:href="#DejaVuSans-Oblique-3bc" transform="translate(287.589192 0.99375)"/>
     <use xlink:href="#DejaVuSans-2208" transform="translate(370.694661 0.99375)"/>
     <use xlink:href="#DejaVuSans-5b" transform="translate(477.286458 0.99375)"/>
     <use xlink:href="#DejaVuSans-30" transform="translate(516.300129 0.99375)"/>
     <use xlink:href="#DejaVuSans-2c" transform="translate(579.923176 0.99375)"/>
     <use xlink:href="#DejaVuSans-2b" transform="translate(650.675129 0.99375)"/>
     <use xlink:href="#DejaVuSans-221e" transform="translate(753.946614 0.99375)"/>
     <use xlink:href="#DejaVuSans-5d" transform="translate(837.247395 0.99375)"/>
    </g>
   </g>
   <g id="text_5">
    <!-- integral -->
    <g style="fill: #1a1a2e" transform="translate(414.724922 135.403891) scale(0.09 -0.09)">
     <use xlink:href="#HiraginoSans-W7-69"/>
     <use xlink:href="#HiraginoSans-W7-6e" transform="translate(29.199997 0)"/>
     <use xlink:href="#HiraginoSans-W7-74" transform="translate(99.399979 0)"/>
     <use xlink:href="#HiraginoSans-W7-65" transform="translate(144.899963 0)"/>
     <use xlink:href="#HiraginoSans-W7-67" transform="translate(210.999954 0)"/>
     <use xlink:href="#HiraginoSans-W7-72" transform="translate(282.299942 0)"/>
     <use xlink:href="#HiraginoSans-W7-61" transform="translate(334.399933 0)"/>
     <use xlink:href="#HiraginoSans-W7-6c" transform="translate(400.799927 0)"/>
    </g>
   </g>
   <g id="text_6">
    <!-- $\int f \, d\mu \in \mathbb{R}$ -->
    <g style="fill: #1a1a2e" transform="translate(415.0725 159.15725) scale(0.085 -0.085)">
     <use xlink:href="#DejaVuSansDisplay-222b" transform="translate(0 0.96875)"/>
     <use xlink:href="#DejaVuSans-Oblique-66" transform="translate(73.632812 0.96875)"/>
     <use xlink:href="#DejaVuSans-Oblique-64" transform="translate(125.073567 0.96875)"/>
     <use xlink:href="#DejaVuSans-Oblique-3bc" transform="translate(188.550129 0.96875)"/>
     <use xlink:href="#DejaVuSans-2208" transform="translate(271.655598 0.96875)"/>
     <use xlink:href="#STIXGeneral-Italic-211d" transform="translate(378.247395 0.96875)"/>
    </g>
   </g>
   <g id="patch_6">
    <path d="M 157.346275 142.94875 
Q 170.412506 142.94875 181.242668 142.94875 
" style="fill: none; stroke: #555555; stroke-width: 2; stroke-linecap: round"/>
    <path d="M 177.242668 140.94875 
L 181.242668 142.94875 
L 177.242668 144.94875 
" style="fill: none; stroke: #555555; stroke-width: 2; stroke-linecap: round"/>
   </g>
   <g id="patch_7">
    <path d="M 333.116275 142.94875 
Q 346.182506 142.94875 357.012668 142.94875 
" style="fill: none; stroke: #555555; stroke-width: 2; stroke-linecap: round"/>
    <path d="M 353.012668 140.94875 
L 357.012668 142.94875 
L 353.012668 144.94875 
" style="fill: none; stroke: #555555; stroke-width: 2; stroke-linecap: round"/>
   </g>
   <g id="text_7">
    <!-- integral_eq_lintegral_of_nonneg -->
    <g style="fill: #555555" transform="translate(198.178125 89.81875) scale(0.075 -0.075)">
     <defs>
      <path id="HiraginoSans-W4-69" d="M 442 4934 
L 442 4294 
L 1152 4294 
L 1152 4934 
L 442 4934 
z
M 454 3520 
C 486 3296 499 3085 499 2765 
L 499 755 
C 499 461 486 282 454 0 
L 1133 0 
C 1101 269 1088 448 1088 755 
L 1088 2758 
C 1088 3104 1101 3290 1133 3520 
L 454 3520 
z
" transform="scale(0.015625)"/>
      <path id="HiraginoSans-W4-6e" d="M 1114 0 
C 1082 256 1069 474 1069 755 
L 1069 2010 
C 1139 2272 1222 2426 1395 2630 
C 1658 2944 1933 3085 2266 3085 
C 2752 3085 3002 2797 3002 2234 
L 3002 755 
C 3002 454 2989 269 2957 0 
L 3629 0 
C 3597 218 3584 416 3584 749 
L 3584 2323 
C 3584 2662 3520 2912 3392 3110 
C 3181 3418 2816 3584 2349 3584 
C 1779 3584 1376 3360 1056 2867 
C 1069 3027 1069 3059 1069 3142 
L 1069 3520 
L 442 3520 
C 480 3264 493 3078 493 2765 
L 493 755 
C 493 429 480 256 442 0 
L 1114 0 
z
" transform="scale(0.015625)"/>
      <path id="HiraginoSans-W4-74" d="M 851 4480 
C 877 4262 896 4006 896 3750 
L 896 3520 
L 646 3520 
C 378 3520 250 3526 70 3558 
L 70 2995 
C 275 3021 416 3034 640 3034 
L 896 3034 
L 896 787 
C 896 461 954 269 1094 134 
C 1235 6 1466 -64 1773 -64 
C 2042 -64 2246 -26 2515 83 
L 2374 602 
C 2176 486 2048 448 1875 448 
C 1741 448 1632 486 1568 544 
C 1504 608 1478 698 1478 883 
L 1478 3034 
L 1779 3034 
C 2074 3034 2221 3027 2426 2995 
L 2426 3558 
C 2214 3526 2074 3520 1773 3520 
L 1478 3520 
L 1478 3750 
C 1478 4026 1498 4275 1523 4480 
L 851 4480 
z
" transform="scale(0.015625)"/>
      <path id="HiraginoSans-W4-65" d="M 3578 1651 
C 3558 1971 3546 2106 3533 2170 
C 3405 3066 2797 3610 1933 3610 
C 934 3610 282 2880 282 1760 
C 282 621 941 -96 1978 -96 
C 2470 -96 2880 64 3187 371 
C 3341 518 3424 646 3546 915 
L 3008 1114 
C 2944 928 2899 845 2803 742 
C 2605 512 2323 390 1984 390 
C 1613 390 1312 531 1114 800 
C 947 1024 883 1235 858 1651 
L 3578 1651 
z
M 877 2118 
C 915 2349 947 2451 1037 2605 
C 1229 2944 1542 3130 1920 3130 
C 2221 3130 2464 3040 2656 2854 
C 2842 2669 2938 2451 2976 2118 
L 877 2118 
z
" transform="scale(0.015625)"/>
      <path id="HiraginoSans-W4-67" d="M 416 -678 
C 838 -1146 1261 -1325 1920 -1325 
C 2509 -1325 3014 -1152 3290 -858 
C 3578 -557 3699 -147 3699 531 
L 3699 2778 
C 3699 3091 3712 3258 3744 3520 
L 3142 3520 
L 3142 3194 
C 3142 3123 3142 3078 3155 2976 
C 2886 3373 2477 3578 1939 3578 
C 928 3578 288 2880 288 1792 
C 288 710 915 26 1907 26 
C 2285 26 2630 134 2880 326 
C 2989 416 3053 493 3155 659 
C 3142 237 3098 -38 3027 -218 
C 2861 -627 2470 -851 1933 -851 
C 1485 -851 1165 -698 896 -346 
L 416 -678 
z
M 883 1779 
C 883 2592 1306 3098 1990 3098 
C 2675 3098 3130 2592 3130 1830 
C 3130 1037 2650 499 1952 499 
C 1293 499 883 992 883 1779 
z
" transform="scale(0.015625)"/>
      <path id="HiraginoSans-W4-72" d="M 2784 3520 
C 2522 3565 2394 3578 2195 3578 
C 1862 3578 1568 3488 1350 3315 
C 1242 3238 1165 3142 1056 2976 
C 1062 3027 1062 3040 1069 3085 
C 1069 3104 1069 3117 1069 3130 
C 1069 3162 1069 3181 1069 3187 
L 1069 3520 
L 442 3520 
C 474 3283 486 3104 486 2765 
L 486 755 
C 486 467 480 314 442 0 
L 1114 0 
C 1082 262 1069 448 1069 755 
L 1069 2022 
C 1101 2317 1158 2470 1312 2669 
C 1504 2912 1760 3034 2093 3034 
C 2259 3034 2381 3014 2618 2938 
L 2784 3520 
z
" transform="scale(0.015625)"/>
      <path id="HiraginoSans-W4-61" d="M 2765 0 
L 3373 0 
C 3334 269 3322 422 3322 736 
L 3322 2515 
C 3322 2867 3238 3110 3046 3290 
C 2816 3514 2464 3622 1978 3622 
C 1485 3622 1094 3507 813 3270 
C 627 3123 531 2976 416 2656 
L 1011 2541 
C 1069 2714 1114 2797 1197 2886 
C 1370 3066 1626 3155 1971 3155 
C 2515 3155 2765 2950 2765 2515 
L 2765 2182 
C 1933 2163 1581 2118 1197 1997 
C 646 1818 333 1434 333 941 
C 333 320 774 -58 1491 -58 
C 1741 -58 1978 -19 2195 64 
C 2406 141 2522 218 2765 429 
L 2765 0 
z
M 2765 1363 
C 2765 1126 2707 973 2554 813 
C 2304 557 1920 397 1568 397 
C 1165 397 915 608 915 941 
C 915 1235 1075 1440 1395 1568 
C 1677 1683 2035 1728 2765 1747 
L 2765 1363 
z
" transform="scale(0.015625)"/>
      <path id="HiraginoSans-W4-6c" d="M 442 4934 
C 474 4704 486 4518 486 4179 
L 486 755 
C 486 429 474 250 442 0 
L 1120 0 
C 1088 262 1075 448 1075 755 
L 1075 4179 
C 1075 4512 1088 4698 1120 4934 
L 442 4934 
z
" transform="scale(0.015625)"/>
      <path id="HiraginoSans-W4-5f" d="M 0 -608 
L 0 -902 
L 3213 -902 
L 3213 -608 
L 0 -608 
z
" transform="scale(0.015625)"/>
      <path id="HiraginoSans-W4-71" d="M 3808 -1312 
C 3776 -1056 3763 -851 3763 -557 
L 3763 2752 
C 3763 3085 3776 3270 3808 3520 
L 3200 3520 
L 3200 3194 
C 3200 3110 3200 3059 3213 2944 
C 2906 3379 2483 3590 1907 3590 
C 915 3590 282 2874 282 1766 
C 282 640 902 -51 1920 -51 
C 2464 -51 2893 154 3213 570 
C 3200 390 3194 314 3194 128 
L 3194 -550 
C 3194 -864 3181 -1062 3149 -1312 
L 3808 -1312 
z
M 877 1754 
C 877 2598 1293 3091 1997 3091 
C 2707 3091 3187 2560 3187 1773 
C 3187 979 2701 442 1978 442 
C 1286 442 877 934 877 1754 
z
" transform="scale(0.015625)"/>
      <path id="HiraginoSans-W4-6f" d="M 2054 -90 
C 3110 -90 3802 640 3802 1766 
C 3802 2893 3117 3610 2042 3610 
C 966 3610 282 2886 282 1760 
C 282 627 966 -90 2054 -90 
z
M 2054 3130 
C 2771 3130 3213 2605 3213 1754 
C 3213 909 2771 397 2042 397 
C 1318 397 870 922 870 1766 
C 870 2611 1325 3130 2054 3130 
z
" transform="scale(0.015625)"/>
      <path id="HiraginoSans-W4-66" d="M 922 3034 
L 922 755 
C 922 467 909 237 877 0 
L 1549 0 
C 1517 224 1504 429 1504 755 
L 1504 3034 
L 1818 3034 
C 2131 3034 2291 3021 2509 2995 
L 2509 3558 
C 2266 3533 2080 3520 1818 3520 
L 1504 3520 
L 1504 3846 
C 1504 4198 1542 4333 1670 4429 
C 1760 4493 1882 4518 2048 4518 
C 2227 4518 2394 4474 2566 4378 
L 2714 4870 
C 2470 4960 2259 4998 2010 4998 
C 1626 4998 1318 4890 1152 4691 
C 986 4506 922 4282 922 3885 
L 922 3520 
L 659 3520 
C 416 3520 243 3533 70 3558 
L 70 2995 
C 269 3021 435 3034 659 3034 
L 922 3034 
z
" transform="scale(0.015625)"/>
     </defs>
     <use xlink:href="#HiraginoSans-W4-69"/>
     <use xlink:href="#HiraginoSans-W4-6e" transform="translate(24.799988 0)"/>
     <use xlink:href="#HiraginoSans-W4-74" transform="translate(88.199982 0)"/>
     <use xlink:href="#HiraginoSans-W4-65" transform="translate(128.699966 0)"/>
     <use xlink:href="#HiraginoSans-W4-67" transform="translate(188.899963 0)"/>
     <use xlink:href="#HiraginoSans-W4-72" transform="translate(254.199951 0)"/>
     <use xlink:href="#HiraginoSans-W4-61" transform="translate(298.899948 0)"/>
     <use xlink:href="#HiraginoSans-W4-6c" transform="translate(358.099945 0)"/>
     <use xlink:href="#HiraginoSans-W4-5f" transform="translate(382.399933 0)"/>
     <use xlink:href="#HiraginoSans-W4-65" transform="translate(432.59993 0)"/>
     <use xlink:href="#HiraginoSans-W4-71" transform="translate(492.799927 0)"/>
     <use xlink:href="#HiraginoSans-W4-5f" transform="translate(559.199921 0)"/>
     <use xlink:href="#HiraginoSans-W4-6c" transform="translate(609.399918 0)"/>
     <use xlink:href="#HiraginoSans-W4-69" transform="translate(633.699905 0)"/>
     <use xlink:href="#HiraginoSans-W4-6e" transform="translate(658.499893 0)"/>
     <use xlink:href="#HiraginoSans-W4-74" transform="translate(721.899887 0)"/>
     <use xlink:href="#HiraginoSans-W4-65" transform="translate(762.399872 0)"/>
     <use xlink:href="#HiraginoSans-W4-67" transform="translate(822.599869 0)"/>
     <use xlink:href="#HiraginoSans-W4-72" transform="translate(887.899857 0)"/>
     <use xlink:href="#HiraginoSans-W4-61" transform="translate(932.599854 0)"/>
     <use xlink:href="#HiraginoSans-W4-6c" transform="translate(991.79985 0)"/>
     <use xlink:href="#HiraginoSans-W4-5f" transform="translate(1016.099838 0)"/>
     <use xlink:href="#HiraginoSans-W4-6f" transform="translate(1066.299835 0)"/>
     <use xlink:href="#HiraginoSans-W4-66" transform="translate(1130.099823 0)"/>
     <use xlink:href="#HiraginoSans-W4-5f" transform="translate(1173.499817 0)"/>
     <use xlink:href="#HiraginoSans-W4-6e" transform="translate(1223.699814 0)"/>
     <use xlink:href="#HiraginoSans-W4-6f" transform="translate(1287.099808 0)"/>
     <use xlink:href="#HiraginoSans-W4-6e" transform="translate(1350.899796 0)"/>
     <use xlink:href="#HiraginoSans-W4-6e" transform="translate(1414.299789 0)"/>
     <use xlink:href="#HiraginoSans-W4-65" transform="translate(1477.699783 0)"/>
     <use xlink:href="#HiraginoSans-W4-67" transform="translate(1537.89978 0)"/>
    </g>
   </g>
   <g id="patch_8">
    <path d="M 157.142976 102.789577 
Q 258.301586 53.091644 358.256036 102.199529 
" style="fill: none; stroke: #aaaaaa; stroke-width: 1.2; stroke-linecap: round"/>
    <path d="M 355.547841 98.640642 
L 358.256036 102.199529 
L 353.784009 102.230753 
" style="fill: none; stroke: #aaaaaa; stroke-width: 1.2; stroke-linecap: round"/>
   </g>
   <g id="text_8">
    <!-- 補足：一般の $f$ に対しては $f = f^+ - f^-$ に分解して定義 -->
    <g style="fill: #555555" transform="translate(145.26 263.305469) scale(0.09 -0.09)">
     <defs>
      <path id="HiraginoSans-W4-88dc" d="M 2131 3027 
C 1978 2707 1882 2534 1722 2310 
C 1613 2438 1574 2496 1491 2618 
C 1741 2976 1869 3206 2106 3725 
C 2227 3987 2227 3994 2253 4032 
L 2048 4288 
C 1984 4275 1926 4269 1741 4269 
L 1504 4269 
L 1504 4870 
C 1504 5037 1517 5210 1536 5350 
L 1011 5350 
C 1037 5216 1043 5069 1043 4858 
L 1043 4269 
L 851 4269 
C 595 4269 480 4275 358 4301 
L 358 3808 
C 506 3827 672 3840 877 3840 
L 1677 3840 
C 1350 3014 877 2362 211 1830 
C 333 1651 378 1562 435 1376 
C 717 1638 864 1786 1062 2029 
C 1056 1952 1050 1638 1050 1555 
L 1050 173 
C 1050 -83 1037 -326 1005 -512 
L 1542 -512 
C 1517 -346 1504 -96 1504 173 
L 1504 1632 
C 1504 1786 1504 1786 1498 2016 
C 1690 1760 1843 1587 2118 1331 
C 2208 1510 2234 1549 2368 1709 
C 2176 1850 2118 1894 1965 2048 
C 2131 2259 2253 2445 2451 2771 
L 2131 3027 
z
M 2944 960 
L 3872 960 
L 3872 141 
C 3872 -154 3866 -301 3846 -429 
L 4346 -429 
C 4326 -269 4320 -134 4320 141 
L 4320 960 
L 5370 960 
L 5370 218 
C 5370 90 5344 64 5210 64 
C 5030 64 4979 70 4672 109 
C 4755 -77 4774 -160 4794 -378 
C 4966 -384 5056 -390 5190 -390 
C 5498 -390 5600 -371 5690 -301 
C 5779 -224 5818 -109 5818 96 
L 5818 2970 
C 5818 3277 5824 3450 5843 3597 
C 5709 3578 5517 3571 5248 3571 
L 4320 3571 
L 4320 4160 
L 5434 4160 
C 5683 4160 5862 4154 6010 4134 
L 6010 4634 
C 5843 4608 5664 4595 5440 4595 
L 4320 4595 
L 4320 4774 
C 4320 5024 4326 5171 4358 5350 
L 3834 5350 
C 3859 5171 3872 5011 3872 4781 
L 3872 4595 
L 2848 4595 
C 2598 4595 2445 4608 2298 4627 
L 2298 4134 
C 2464 4154 2611 4160 2816 4160 
L 3872 4160 
L 3872 3571 
L 3091 3571 
C 2829 3571 2643 3578 2477 3597 
C 2490 3450 2496 3328 2496 2982 
L 2496 154 
C 2496 -128 2483 -320 2458 -512 
L 2970 -512 
C 2950 -365 2944 -166 2944 160 
L 2944 960 
z
M 2944 1363 
L 2944 2080 
L 3872 2080 
L 3872 1363 
L 2944 1363 
z
M 2944 2477 
L 2944 3168 
L 3872 3168 
L 3872 2477 
L 2944 2477 
z
M 4320 1363 
L 4320 2080 
L 5370 2080 
L 5370 1363 
L 4320 1363 
z
M 4320 2477 
L 4320 3168 
L 5370 3168 
L 5370 2477 
L 4320 2477 
z
M 4582 5133 
C 4883 4979 5075 4845 5350 4614 
L 5664 4896 
C 5344 5146 5299 5171 4890 5395 
L 4582 5133 
z
" transform="scale(0.015625)"/>
      <path id="HiraginoSans-W4-8db3" d="M 2995 371 
C 2458 582 2061 973 1754 1606 
C 1811 1786 1837 1901 1894 2157 
C 1939 2336 1958 2406 1990 2509 
L 1472 2618 
C 1453 2227 1318 1696 1120 1229 
C 896 691 653 320 237 -102 
C 410 -205 493 -275 640 -442 
C 1037 0 1286 410 1555 1056 
C 2163 32 3046 -352 4768 -352 
C 5101 -352 5562 -346 5875 -333 
C 5914 -90 5939 -6 6035 192 
C 5574 160 5050 141 4710 141 
C 4275 141 3878 173 3488 243 
L 3488 1498 
L 5011 1498 
C 5312 1498 5446 1491 5638 1466 
L 5638 1978 
C 5485 1952 5338 1946 5011 1946 
L 3488 1946 
L 3488 2970 
L 4659 2970 
C 4954 2970 5126 2963 5325 2944 
C 5306 3123 5299 3238 5299 3437 
L 5299 4582 
C 5299 4787 5306 4915 5325 5075 
C 5158 5050 4966 5043 4602 5043 
L 1837 5043 
C 1536 5043 1312 5050 1120 5075 
C 1139 4909 1146 4774 1146 4582 
L 1146 3437 
C 1146 3245 1139 3110 1120 2944 
C 1312 2963 1504 2970 1792 2970 
L 2995 2970 
L 2995 371 
z
M 4813 4595 
L 4813 3405 
L 1632 3405 
L 1632 4595 
L 4813 4595 
z
" transform="scale(0.015625)"/>
      <path id="HiraginoSans-W4-ff1a" d="M 3565 4192 
L 2842 4192 
L 2842 3469 
L 3565 3469 
L 3565 4192 
z
M 3565 672 
L 3565 1395 
L 2842 1395 
L 2842 672 
L 3565 672 
z
" transform="scale(0.015625)"/>
      <path id="HiraginoSans-W4-4e00" d="M 6035 2835 
C 5824 2803 5549 2790 5158 2790 
L 1254 2790 
C 864 2790 595 2803 365 2835 
L 365 2202 
C 595 2234 896 2246 1254 2246 
L 5158 2246 
C 5549 2246 5786 2234 6035 2202 
L 6035 2835 
z
" transform="scale(0.015625)"/>
      <path id="HiraginoSans-W4-822c" d="M 1434 3904 
C 1600 3610 1696 3366 1811 2957 
L 2182 3142 
C 2035 3558 1965 3731 1779 4064 
L 1434 3904 
z
M 1606 1235 
C 1606 934 1600 819 1574 627 
L 2022 627 
C 2003 781 1997 941 1997 1235 
L 1997 2266 
C 2240 2304 2240 2304 2419 2342 
L 2419 218 
C 2419 83 2400 64 2285 64 
C 2093 64 1869 90 1568 141 
C 1638 -90 1651 -141 1664 -339 
C 2080 -378 2080 -378 2285 -378 
C 2701 -378 2848 -250 2848 128 
L 2848 2426 
C 2944 2445 2976 2451 3104 2483 
L 3098 2893 
L 2848 2842 
L 2848 4307 
C 2848 4493 2854 4602 2874 4749 
C 2752 4730 2579 4717 2349 4717 
L 1920 4717 
C 2010 4883 2125 5120 2227 5350 
L 1734 5453 
C 1696 5254 1581 4973 1446 4717 
L 1299 4717 
C 1094 4717 941 4723 774 4749 
C 813 4544 819 4346 819 3712 
C 819 3277 813 2944 794 2534 
C 608 2515 448 2509 352 2509 
C 326 2509 326 2509 218 2509 
L 294 2010 
C 378 2035 416 2042 774 2086 
C 710 1030 563 435 218 -77 
C 403 -211 480 -275 621 -442 
C 986 230 1146 928 1210 2144 
C 1344 2163 1357 2163 1606 2202 
L 1606 1235 
z
M 2419 2758 
C 1882 2669 1626 2630 1229 2579 
C 1242 3162 1248 3597 1248 3891 
L 1248 4320 
L 2419 4320 
L 2419 2758 
z
M 5562 2656 
C 5478 2637 5306 2624 5094 2624 
L 3693 2624 
C 3437 2624 3290 2630 3194 2650 
L 3194 2189 
C 3334 2208 3334 2208 3405 2208 
C 3654 1517 3846 1165 4179 774 
C 3808 442 3501 256 2912 0 
C 3110 -211 3142 -250 3232 -422 
C 3789 -128 4109 90 4499 448 
C 4947 45 5363 -224 5882 -454 
C 5965 -262 6061 -96 6163 19 
C 5619 218 5190 461 4819 781 
C 5203 1216 5478 1645 5702 2170 
C 5741 2259 5766 2317 5805 2374 
L 5562 2656 
z
M 5222 2214 
C 5037 1773 4826 1440 4506 1088 
C 4192 1434 4045 1690 3859 2214 
L 5222 2214 
z
M 4813 4710 
L 4813 3437 
C 4813 3123 4902 3066 5427 3066 
C 6042 3066 6106 3142 6202 4038 
C 6035 4090 5965 4122 5805 4230 
C 5786 3866 5760 3654 5728 3578 
C 5696 3488 5651 3469 5472 3469 
C 5267 3469 5254 3475 5254 3584 
L 5254 4557 
C 5254 4819 5261 4986 5280 5146 
C 5126 5126 4954 5120 4723 5120 
L 4077 5120 
C 3904 5120 3738 5126 3546 5146 
C 3571 5024 3578 4934 3578 4659 
C 3578 4314 3507 3936 3392 3706 
C 3302 3526 3213 3418 3021 3264 
C 3181 3155 3270 3066 3373 2912 
C 3597 3110 3731 3315 3834 3584 
C 3949 3885 3994 4160 4013 4710 
L 4813 4710 
z
" transform="scale(0.015625)"/>
      <path id="HiraginoSans-W4-306e" d="M 3053 422 
C 3200 243 3245 160 3328 -96 
C 3821 6 4090 90 4397 237 
C 5293 666 5798 1459 5798 2451 
C 5798 3802 4832 4698 3379 4698 
C 2509 4698 1792 4403 1274 3834 
C 832 3347 589 2707 589 2042 
C 589 1107 1062 422 1709 422 
C 2189 422 2573 806 2938 1645 
C 3238 2323 3469 3264 3578 4205 
C 3891 4186 4070 4141 4294 4032 
C 4902 3738 5242 3174 5242 2477 
C 5242 1734 4870 1107 4230 768 
C 3917 602 3610 512 3053 422 
z
M 3027 4192 
C 2944 3398 2714 2483 2458 1888 
C 2195 1286 1952 992 1702 992 
C 1370 992 1114 1453 1114 2035 
C 1114 2797 1491 3501 2112 3891 
C 2394 4077 2656 4160 3027 4192 
z
" transform="scale(0.015625)"/>
      <path id="HiraginoSans-W4-20" transform="scale(0.015625)"/>
      <path id="HiraginoSans-W4-306b" d="M 1382 838 
C 1382 947 1376 973 1376 1114 
C 1370 1286 1363 1594 1363 1722 
C 1363 2451 1414 3117 1510 3680 
C 1600 4179 1715 4653 1830 4954 
L 1222 5037 
C 1210 4877 1197 4813 1133 4493 
C 928 3546 851 2854 851 1958 
C 851 1312 896 838 1018 134 
C 1037 6 1043 -32 1056 -134 
L 1613 -96 
C 1606 -45 1606 0 1606 26 
C 1606 416 1824 1152 2144 1830 
L 1760 2010 
C 1555 1504 1453 1197 1389 838 
L 1382 838 
z
M 2592 3763 
C 2643 3757 2656 3757 2694 3750 
C 2790 3738 2790 3738 2810 3738 
C 3136 3706 3341 3693 3667 3693 
C 4141 3693 4640 3725 5030 3776 
C 5306 3814 5453 3834 5472 3834 
L 5440 4378 
C 5050 4269 4435 4205 3686 4205 
C 3194 4205 2899 4230 2605 4301 
L 2592 3763 
z
M 3053 2566 
C 2656 2106 2483 1734 2483 1357 
C 2483 1126 2554 902 2675 742 
C 2944 397 3424 237 4179 237 
C 4608 237 5037 275 5498 358 
C 5632 384 5645 384 5728 397 
L 5670 979 
C 5306 838 4755 755 4179 755 
C 3405 755 3008 973 3008 1408 
C 3008 1690 3155 1984 3488 2349 
L 3053 2566 
z
" transform="scale(0.015625)"/>
      <path id="HiraginoSans-W4-5bfe" d="M 1600 4256 
L 928 4256 
C 685 4256 518 4269 326 4294 
L 326 3789 
C 493 3814 646 3821 902 3821 
L 2195 3821 
C 2163 3251 2061 2720 1901 2240 
C 1459 2765 1280 2970 902 3354 
L 557 3034 
C 1011 2586 1325 2240 1696 1760 
C 1350 1069 915 563 262 64 
C 435 -70 512 -147 627 -326 
C 1267 218 1632 672 2003 1350 
C 2317 922 2547 563 2778 141 
L 3155 518 
C 2842 1011 2592 1370 2234 1824 
C 2490 2438 2637 3098 2688 3821 
C 2944 3821 3098 3814 3245 3795 
L 3245 4294 
C 3059 4269 2899 4256 2650 4256 
L 2080 4256 
L 2080 4666 
C 2080 4934 2093 5101 2118 5299 
L 1562 5299 
C 1594 5133 1600 5005 1600 4666 
L 1600 4256 
z
M 4877 3437 
L 4877 224 
C 4877 96 4826 70 4544 70 
C 4339 70 4013 96 3725 141 
C 3802 -26 3840 -141 3878 -365 
C 4134 -384 4320 -390 4550 -390 
C 5229 -390 5363 -294 5363 198 
L 5363 3437 
L 5498 3437 
C 5734 3437 5888 3430 6054 3405 
C 6067 3405 6093 3405 6118 3398 
L 6118 3923 
C 5958 3898 5760 3885 5498 3885 
L 5363 3885 
L 5363 4544 
C 5363 4851 5376 5056 5402 5254 
L 4832 5254 
C 4864 5082 4877 4883 4877 4544 
L 4877 3885 
L 3936 3885 
C 3654 3885 3488 3891 3328 3917 
L 3328 3398 
C 3501 3424 3674 3437 3930 3437 
L 4877 3437 
z
M 3130 2714 
C 3526 2234 3757 1869 4045 1222 
L 4474 1504 
C 4173 2093 3968 2413 3539 2950 
L 3130 2714 
z
" transform="scale(0.015625)"/>
      <path id="HiraginoSans-W4-3057" d="M 1440 5030 
C 1453 4890 1459 4813 1459 4672 
C 1459 4576 1459 4429 1453 4243 
C 1408 2234 1402 2035 1402 1645 
C 1402 1306 1434 992 1491 800 
C 1574 525 1747 275 1965 115 
C 2208 -58 2592 -160 3034 -160 
C 3776 -160 4390 109 4851 640 
C 5139 973 5325 1363 5574 2144 
C 5331 2266 5242 2323 5030 2509 
C 4947 2061 4870 1798 4717 1485 
C 4378 768 3789 371 3072 371 
C 2630 371 2304 506 2138 749 
C 2003 960 1958 1203 1958 1786 
C 1958 2214 1997 3763 2022 4230 
C 2042 4685 2061 4858 2093 5024 
L 1440 5030 
z
" transform="scale(0.015625)"/>
      <path id="HiraginoSans-W4-3066" d="M 621 3693 
C 960 3763 1485 3814 2726 3898 
C 3418 3942 3725 3974 4134 4038 
C 3053 3552 2419 2714 2419 1786 
C 2419 1210 2688 717 3181 403 
C 3558 160 3936 38 4595 -70 
C 4698 -90 4723 -90 4800 -109 
L 4890 512 
C 4582 512 4250 570 3930 672 
C 3290 883 2970 1274 2970 1837 
C 2970 2438 3334 3021 3981 3462 
C 4486 3808 5094 4013 5613 4013 
C 5626 4013 5658 4013 5690 4013 
L 5645 4582 
C 5542 4557 5286 4531 4896 4518 
C 3840 4467 2086 4371 1190 4307 
C 992 4294 909 4288 819 4288 
C 781 4288 723 4288 589 4294 
L 621 3693 
z
" transform="scale(0.015625)"/>
      <path id="HiraginoSans-W4-306f" d="M 2381 3270 
C 2394 3277 2400 3277 2406 3277 
C 2419 3277 2438 3277 2470 3270 
C 2483 3270 2522 3270 2586 3264 
C 2605 3264 2675 3258 2778 3251 
C 3008 3232 3245 3226 3501 3226 
C 3738 3226 3898 3232 4205 3245 
C 4237 2208 4250 1805 4269 1664 
C 4102 1734 3859 1779 3603 1779 
C 2874 1779 2355 1382 2355 826 
C 2355 243 2829 -122 3590 -122 
C 4141 -122 4557 77 4710 416 
C 4762 531 4787 672 4787 858 
C 4787 909 4787 934 4781 992 
C 4813 973 4813 966 4838 954 
C 4890 922 4902 915 4909 909 
C 5370 627 5376 621 5574 454 
C 5658 384 5702 339 5766 269 
L 5997 813 
C 5920 851 5901 864 5830 922 
C 5434 1210 5229 1331 4781 1536 
C 4717 2618 4717 2694 4710 3283 
C 5101 3328 5382 3373 5722 3450 
C 5773 3462 5786 3462 5824 3469 
L 5798 3981 
C 5613 3898 5184 3808 4710 3750 
C 4710 3910 4710 4026 4710 4109 
C 4710 4589 4723 4883 4749 5043 
L 4179 5043 
C 4186 4979 4192 4883 4192 4768 
C 4198 4326 4198 4326 4198 3712 
C 3987 3706 3840 3699 3590 3699 
C 2995 3699 2707 3725 2387 3795 
L 2381 3270 
z
M 4282 1190 
C 4282 1184 4282 1043 4282 1005 
C 4282 787 4243 646 4173 557 
C 4058 429 3827 346 3565 346 
C 3149 346 2867 538 2867 826 
C 2867 1126 3168 1318 3629 1318 
C 3866 1318 4026 1286 4282 1190 
z
M 1331 845 
C 1331 922 1331 934 1331 998 
C 1331 1101 1331 1101 1325 1158 
C 1318 1453 1312 1766 1312 1914 
C 1312 2963 1536 4352 1811 4973 
L 1203 5056 
C 1203 4966 1190 4883 1133 4627 
C 890 3501 813 2867 813 2003 
C 813 1331 864 762 992 58 
C 1024 -122 1024 -134 1024 -179 
L 1581 -134 
C 1568 -58 1568 -26 1568 6 
C 1568 397 1843 1267 2144 1862 
L 1741 2042 
C 1722 1984 1715 1965 1683 1888 
C 1510 1440 1466 1306 1350 838 
L 1331 845 
z
" transform="scale(0.015625)"/>
      <path id="DejaVuSans-3d" d="M 678 2906 
L 4684 2906 
L 4684 2381 
L 678 2381 
L 678 2906 
z
M 678 1631 
L 4684 1631 
L 4684 1100 
L 678 1100 
L 678 1631 
z
" transform="scale(0.015625)"/>
      <path id="HiraginoSans-W4-5206" d="M 2458 2598 
C 2413 2054 2323 1722 2112 1331 
C 1811 762 1274 301 518 -32 
C 685 -198 755 -294 851 -467 
C 2003 115 2630 870 2880 1952 
C 2925 2163 2944 2272 2970 2598 
L 4390 2598 
C 4390 1715 4333 954 4243 538 
C 4173 205 4128 166 3853 166 
C 3622 166 3328 198 2982 269 
C 3059 51 3085 -70 3110 -269 
C 3488 -301 3706 -314 3898 -314 
C 4326 -314 4499 -243 4614 -26 
C 4781 288 4890 1299 4902 2618 
C 4902 2925 4902 2963 4922 3085 
C 4736 3059 4544 3053 4250 3053 
L 2067 3053 
C 1824 3053 1619 3066 1440 3085 
L 1440 2560 
C 1619 2586 1824 2598 2067 2598 
L 2458 2598 
z
M 2189 5299 
C 2157 5114 2080 4922 1926 4634 
C 1517 3885 973 3296 192 2771 
C 358 2624 467 2496 557 2342 
C 1446 3002 2099 3795 2573 4774 
C 2656 4954 2694 5018 2752 5101 
L 2189 5299 
z
M 3629 5082 
C 3667 5018 3718 4922 3770 4819 
C 4294 3763 4909 3034 5882 2317 
C 6003 2528 6099 2656 6234 2790 
C 5389 3341 4838 3923 4384 4742 
C 4243 4986 4186 5114 4134 5286 
L 3629 5082 
z
" transform="scale(0.015625)"/>
      <path id="HiraginoSans-W4-89e3" d="M 2227 3776 
C 2317 3923 2438 4147 2515 4288 
C 2637 4525 2669 4582 2733 4678 
L 2515 4928 
C 2432 4915 2368 4909 2163 4909 
L 1574 4909 
C 1664 5139 1722 5274 1741 5312 
L 1254 5421 
C 1216 5254 1178 5133 1094 4928 
C 883 4403 614 4000 224 3616 
C 352 3488 365 3475 518 3213 
C 602 3315 608 3328 678 3411 
C 685 3245 685 3130 685 3040 
C 685 1958 672 1568 627 1120 
C 570 550 480 243 282 -115 
C 467 -224 486 -243 685 -442 
C 915 70 998 403 1062 1178 
L 2528 1178 
L 2528 186 
C 2528 77 2477 51 2272 51 
C 2150 51 1965 64 1696 102 
C 1754 -64 1779 -186 1792 -365 
C 2163 -378 2182 -378 2266 -378 
C 2803 -378 2950 -275 2950 96 
L 2950 3251 
C 2950 3514 2957 3654 2970 3808 
C 2797 3782 2630 3776 2374 3776 
L 2227 3776 
z
M 1318 3776 
C 1114 3776 1037 3776 954 3782 
C 1139 4051 1261 4250 1382 4506 
L 2150 4506 
C 2016 4224 1901 4000 1760 3776 
L 1318 3776 
z
M 1088 1574 
C 1101 1843 1101 1843 1101 2304 
L 1626 2304 
L 1626 1574 
L 1088 1574 
z
M 2528 1574 
L 2010 1574 
L 2010 2304 
L 2528 2304 
L 2528 1574 
z
M 2528 2688 
L 2010 2688 
L 2010 3373 
L 2528 3373 
L 2528 2688 
z
M 1626 3373 
L 1626 2688 
L 1107 2688 
L 1114 2963 
L 1114 3373 
L 1626 3373 
z
M 4006 4659 
C 3949 4339 3904 4198 3795 4032 
C 3642 3802 3424 3635 3008 3437 
C 3155 3302 3245 3194 3322 3053 
C 3795 3341 4006 3533 4205 3859 
C 4352 4102 4410 4262 4480 4659 
L 5350 4659 
C 5312 4230 5286 4045 5235 3859 
C 5197 3731 5133 3693 4947 3693 
C 4819 3693 4627 3718 4403 3763 
C 4474 3578 4493 3494 4499 3322 
C 4794 3290 4922 3283 5062 3283 
C 5363 3283 5504 3341 5587 3494 
C 5696 3686 5779 4160 5830 4877 
C 5843 4986 5843 5005 5850 5094 
C 5696 5075 5517 5069 5267 5069 
L 3776 5069 
C 3469 5069 3290 5082 3130 5107 
L 3130 4621 
C 3270 4646 3450 4659 3725 4659 
L 4006 4659 
z
M 4435 2086 
L 4435 1363 
L 3686 1363 
C 3443 1363 3283 1376 3117 1395 
L 3117 902 
C 3296 928 3450 934 3674 934 
L 4435 934 
L 4435 115 
C 4435 -128 4422 -282 4397 -467 
L 4915 -467 
C 4883 -288 4877 -134 4877 115 
L 4877 934 
L 5517 934 
C 5792 934 5933 928 6099 909 
L 6099 1395 
C 5914 1370 5754 1363 5498 1363 
L 4877 1363 
L 4877 2086 
L 5344 2086 
C 5606 2086 5773 2080 5939 2054 
L 5939 2547 
C 5811 2522 5645 2509 5344 2509 
L 4877 2509 
L 4877 2637 
C 4877 2816 4883 2976 4902 3136 
L 4397 3136 
C 4422 2982 4435 2829 4435 2637 
L 4435 2509 
L 3910 2509 
C 3942 2618 3942 2618 4032 2918 
L 3578 3021 
C 3578 2957 3558 2867 3520 2714 
C 3424 2310 3315 2067 3085 1728 
C 3226 1683 3322 1632 3488 1523 
C 3635 1779 3686 1882 3763 2086 
L 4435 2086 
z
" transform="scale(0.015625)"/>
      <path id="HiraginoSans-W4-5b9a" d="M 3008 410 
C 2445 627 2144 902 1869 1440 
C 1939 1683 2029 2003 2042 2093 
C 2099 2342 2099 2342 2125 2438 
L 1600 2541 
C 1600 2522 1600 2509 1600 2496 
C 1600 2150 1414 1466 1197 1030 
C 979 589 781 326 352 -83 
C 570 -230 621 -282 749 -448 
C 1203 38 1440 384 1696 954 
C 2163 102 3040 -262 4608 -262 
C 5216 -262 5370 -262 5850 -243 
C 5888 -19 5920 90 6003 282 
C 5440 237 4998 218 4518 218 
C 4096 218 3789 237 3482 282 
L 3482 1613 
L 4704 1613 
C 4973 1613 5139 1606 5325 1581 
L 5325 2086 
C 5165 2061 4979 2048 4704 2048 
L 3482 2048 
L 3482 3034 
L 4518 3034 
C 4800 3034 4986 3021 5158 2995 
L 5158 3507 
C 4986 3482 4794 3469 4518 3469 
L 1926 3469 
C 1651 3469 1459 3482 1293 3507 
L 1293 2995 
C 1466 3021 1651 3034 1926 3034 
L 3008 3034 
L 3008 410 
z
M 2906 4621 
L 1184 4621 
C 934 4621 736 4627 525 4646 
C 538 4531 550 4365 550 4205 
L 550 3776 
C 550 3565 544 3462 518 3302 
L 1024 3302 
L 1024 4173 
L 5402 4173 
L 5402 3302 
L 5894 3302 
C 5875 3443 5869 3584 5869 3770 
L 5869 4205 
C 5869 4378 5875 4506 5894 4646 
C 5677 4627 5485 4621 5235 4621 
L 3405 4621 
L 3405 4909 
C 3405 5062 3411 5178 3443 5312 
L 2861 5312 
C 2893 5152 2906 5062 2906 4909 
L 2906 4621 
z
" transform="scale(0.015625)"/>
      <path id="HiraginoSans-W4-7fa9" d="M 5050 1446 
C 4947 1280 4742 1082 4422 845 
C 4275 1075 4186 1261 4096 1530 
L 5382 1549 
C 5491 1555 5568 1555 5651 1555 
C 5875 1555 5946 1549 6074 1530 
L 6067 1984 
C 5901 1952 5773 1939 5376 1933 
L 4006 1914 
C 3962 2150 3942 2355 3942 2534 
C 3942 2605 3942 2650 3949 2707 
L 3437 2707 
C 3450 2656 3462 2566 3475 2464 
C 3507 2202 3520 2106 3552 1907 
L 2176 1888 
L 2176 2291 
C 2547 2362 2784 2413 3117 2509 
L 2778 2829 
C 2739 2816 2688 2797 2688 2797 
C 2202 2618 1523 2515 570 2477 
C 678 2355 710 2304 774 2131 
C 1466 2195 1478 2195 1722 2227 
L 1722 1882 
L 915 1869 
L 794 1862 
C 646 1862 480 1875 320 1901 
L 326 1446 
C 512 1472 653 1485 922 1485 
L 1722 1498 
L 1722 998 
C 1229 947 826 915 582 915 
C 538 915 493 915 416 922 
L 506 448 
C 563 467 595 474 627 474 
C 723 486 723 486 794 493 
C 826 499 998 518 1280 550 
C 1414 570 1517 582 1722 608 
L 1722 58 
C 1722 -32 1683 -64 1581 -64 
C 1363 -64 1139 -45 826 0 
C 890 -141 922 -250 947 -429 
C 1203 -448 1440 -461 1594 -461 
C 2048 -461 2176 -358 2176 6 
L 2176 672 
C 2534 723 2778 768 3232 864 
L 3232 1242 
C 2733 1139 2566 1114 2176 1056 
L 2176 1504 
L 3635 1523 
C 3744 1178 3872 890 4058 602 
C 3622 333 3174 147 2598 0 
C 2726 -122 2803 -230 2874 -397 
C 3450 -192 3846 -6 4301 282 
C 4723 -179 5152 -442 5485 -442 
C 5805 -442 5965 -205 6170 550 
C 6029 627 5926 710 5811 851 
C 5670 218 5574 13 5434 13 
C 5293 13 4928 269 4666 538 
C 4922 730 5088 870 5286 1056 
C 5363 1133 5389 1152 5421 1184 
L 5050 1446 
z
M 1344 4781 
C 1018 4781 851 4787 685 4819 
L 685 4378 
C 877 4403 1062 4410 1344 4410 
L 2918 4410 
L 2918 4026 
L 1632 4026 
C 1318 4026 1171 4032 1018 4058 
L 1018 3629 
C 1165 3654 1331 3661 1632 3661 
L 2918 3661 
L 2918 3264 
L 998 3264 
C 685 3264 506 3277 326 3302 
L 326 2848 
C 486 2867 678 2880 998 2880 
L 5395 2880 
C 5715 2880 5894 2874 6067 2842 
L 6067 3302 
C 5894 3277 5715 3264 5395 3264 
L 3366 3264 
L 3366 3661 
L 4730 3661 
C 5030 3661 5190 3654 5344 3629 
L 5344 4058 
C 5203 4032 5056 4026 4730 4026 
L 3366 4026 
L 3366 4410 
L 5030 4410 
C 5331 4410 5491 4403 5690 4378 
L 5690 4819 
C 5530 4787 5382 4781 5030 4781 
L 4166 4781 
C 4314 4934 4448 5088 4582 5274 
L 4096 5414 
C 3968 5184 3821 4979 3635 4781 
L 2630 4781 
C 2464 5018 2336 5178 2125 5395 
L 1702 5248 
C 1914 5037 1990 4947 2118 4781 
L 1344 4781 
z
M 4294 2547 
C 4646 2362 4941 2182 5146 2010 
L 5414 2323 
C 5139 2522 4896 2662 4563 2816 
L 4294 2547 
z
" transform="scale(0.015625)"/>
     </defs>
     <use xlink:href="#HiraginoSans-W4-88dc" transform="translate(0 0.796875)"/>
     <use xlink:href="#HiraginoSans-W4-8db3" transform="translate(99.999985 0.796875)"/>
     <use xlink:href="#HiraginoSans-W4-ff1a" transform="translate(199.999969 0.796875)"/>
     <use xlink:href="#HiraginoSans-W4-4e00" transform="translate(299.999954 0.796875)"/>
     <use xlink:href="#HiraginoSans-W4-822c" transform="translate(399.999939 0.796875)"/>
     <use xlink:href="#HiraginoSans-W4-306e" transform="translate(499.999924 0.796875)"/>
     <use xlink:href="#HiraginoSans-W4-20" transform="translate(599.999908 0.796875)"/>
     <use xlink:href="#DejaVuSans-Oblique-66" transform="translate(633.299896 0.796875)"/>
     <use xlink:href="#HiraginoSans-W4-20" transform="translate(668.504974 0.796875)"/>
     <use xlink:href="#HiraginoSans-W4-306b" transform="translate(701.804962 0.796875)"/>
     <use xlink:href="#HiraginoSans-W4-5bfe" transform="translate(801.804947 0.796875)"/>
     <use xlink:href="#HiraginoSans-W4-3057" transform="translate(901.804932 0.796875)"/>
     <use xlink:href="#HiraginoSans-W4-3066" transform="translate(1001.804916 0.796875)"/>
     <use xlink:href="#HiraginoSans-W4-306f" transform="translate(1101.804901 0.796875)"/>
     <use xlink:href="#HiraginoSans-W4-20" transform="translate(1201.804886 0.796875)"/>
     <use xlink:href="#DejaVuSans-Oblique-66" transform="translate(1235.104874 0.796875)"/>
     <use xlink:href="#DejaVuSans-3d" transform="translate(1289.792374 0.796875)"/>
     <use xlink:href="#DejaVuSans-Oblique-66" transform="translate(1393.063858 0.796875)"/>
     <use xlink:href="#DejaVuSans-2b" transform="translate(1449.35434 39.078125) scale(0.7)"/>
     <use xlink:href="#DejaVuSans-2212" transform="translate(1543.861176 0.796875)"/>
     <use xlink:href="#DejaVuSans-Oblique-66" transform="translate(1647.13266 0.796875)"/>
     <use xlink:href="#DejaVuSans-2212" transform="translate(1703.423142 39.078125) scale(0.7)"/>
     <use xlink:href="#HiraginoSans-W4-20" transform="translate(1778.447556 0.796875)"/>
     <use xlink:href="#HiraginoSans-W4-306b" transform="translate(1811.747544 0.796875)"/>
     <use xlink:href="#HiraginoSans-W4-5206" transform="translate(1911.747528 0.796875)"/>
     <use xlink:href="#HiraginoSans-W4-89e3" transform="translate(2011.747513 0.796875)"/>
     <use xlink:href="#HiraginoSans-W4-3057" transform="translate(2111.747498 0.796875)"/>
     <use xlink:href="#HiraginoSans-W4-3066" transform="translate(2211.747483 0.796875)"/>
     <use xlink:href="#HiraginoSans-W4-5b9a" transform="translate(2311.747467 0.796875)"/>
     <use xlink:href="#HiraginoSans-W4-7fa9" transform="translate(2411.747452 0.796875)"/>
    </g>
   </g>
   <g id="text_9">
    <!-- lintegral から integral への変換フロー -->
    <g style="fill: #1a1a2e" transform="translate(144.974063 17.44875) scale(0.12 -0.12)">
     <defs>
      <path id="HiraginoSans-W7-20" transform="scale(0.015625)"/>
      <path id="HiraginoSans-W7-304b" d="M 422 2886 
C 608 2938 1043 3014 1498 3078 
C 1229 2010 685 730 250 154 
L 1139 -326 
C 1178 -243 1184 -230 1242 -109 
C 1837 1133 2189 2106 2413 3155 
C 2554 3162 2624 3168 2733 3168 
C 2963 3168 3066 3142 3149 3059 
C 3264 2957 3309 2790 3309 2483 
C 3309 1997 3232 1331 3136 1024 
C 3059 768 2963 666 2803 666 
C 2592 666 2221 768 1894 915 
C 1958 614 1978 448 1978 224 
C 1978 134 1978 77 1965 -64 
C 2400 -192 2669 -243 2944 -243 
C 3296 -243 3501 -166 3693 45 
C 4019 397 4211 1286 4211 2432 
C 4211 3034 4128 3347 3910 3610 
C 3699 3859 3366 3981 2912 3981 
C 2816 3981 2726 3974 2573 3968 
C 2592 4051 2592 4051 2618 4186 
C 2707 4710 2758 4992 2765 5011 
C 2778 5082 2790 5133 2810 5197 
L 1818 5293 
C 1824 5254 1824 5222 1824 5197 
C 1824 4954 1779 4576 1664 3904 
C 1338 3853 570 3782 378 3782 
C 365 3782 352 3782 339 3782 
L 422 2886 
z
M 4147 4070 
C 4736 3411 5158 2490 5376 1408 
L 6253 1837 
C 5990 2861 5581 3667 4947 4442 
L 4147 4070 
z
" transform="scale(0.015625)"/>
      <path id="HiraginoSans-W7-3089" d="M 1734 4506 
C 2477 4166 3245 3930 4358 3686 
L 4666 4570 
C 3923 4672 2643 5043 2182 5293 
L 1734 4506 
z
M 1242 4019 
C 1229 3872 1222 3789 1203 3635 
C 1075 2790 966 1984 909 1510 
C 896 1427 896 1421 883 1338 
L 1811 1306 
C 1939 1453 1997 1504 2138 1594 
C 2573 1869 3104 2022 3654 2022 
C 4269 2022 4634 1792 4634 1402 
C 4634 896 4032 557 3136 557 
C 2630 557 2086 659 1453 864 
C 1542 474 1562 301 1568 -109 
C 2246 -262 2656 -314 3194 -314 
C 3936 -314 4486 -173 4941 141 
C 5376 442 5632 922 5632 1434 
C 5632 2298 4902 2854 3763 2854 
C 2995 2854 2445 2688 1894 2298 
C 1971 2880 2118 3712 2189 3962 
L 1242 4019 
z
" transform="scale(0.015625)"/>
      <path id="HiraginoSans-W7-3078" d="M 813 1190 
C 877 1274 896 1299 973 1382 
C 1306 1754 1658 2182 1958 2579 
C 2477 3277 2477 3277 2586 3277 
C 2675 3277 2739 3238 2854 3110 
C 3053 2880 3053 2880 3123 2797 
C 3558 2291 3558 2291 3699 2131 
C 4320 1446 5030 723 5562 250 
C 5677 147 5702 122 5773 45 
L 6246 1120 
C 6016 1248 5824 1402 5453 1754 
C 4768 2387 4256 2931 3597 3706 
C 3418 3917 3277 4064 3181 4141 
C 2995 4288 2797 4365 2592 4365 
C 2259 4365 1971 4186 1651 3782 
C 762 2656 493 2349 205 2144 
L 813 1190 
z
" transform="scale(0.015625)"/>
      <path id="HiraginoSans-W7-306e" d="M 3776 4038 
C 4032 4006 4186 3955 4371 3834 
C 4806 3546 5056 3066 5056 2496 
C 5056 1818 4723 1222 4173 922 
C 3872 762 3475 659 2906 614 
C 3155 282 3245 109 3379 -294 
C 3834 -218 4090 -154 4397 -32 
C 5421 371 6003 1274 6003 2438 
C 6003 3936 4979 4896 3373 4896 
C 2458 4896 1670 4576 1120 3974 
C 653 3469 403 2803 403 2074 
C 403 973 966 198 1760 198 
C 2310 198 2733 576 3091 1389 
C 3424 2131 3648 2982 3776 4038 
z
M 2842 4026 
C 2765 3341 2566 2534 2330 1965 
C 2125 1446 1926 1197 1741 1197 
C 1491 1197 1286 1587 1286 2067 
C 1286 2707 1587 3328 2074 3706 
C 2323 3898 2534 3987 2842 4026 
z
" transform="scale(0.015625)"/>
      <path id="HiraginoSans-W7-5909" d="M 2266 4179 
C 2266 3840 2221 3603 2112 3366 
C 1984 3085 1766 2893 1350 2675 
C 1574 2522 1728 2387 1958 2150 
C 2355 2400 2630 2682 2797 2989 
C 2963 3309 3040 3642 3059 4179 
L 3558 4179 
L 3558 3226 
C 3558 3136 3533 3117 3424 3117 
C 3283 3117 3149 3130 2970 3155 
C 3098 2899 3155 2720 3200 2426 
C 3341 2419 3405 2419 3526 2419 
C 3866 2419 3981 2432 4102 2483 
C 4269 2554 4339 2688 4339 2938 
L 4339 4179 
L 5286 4179 
C 5606 4179 5830 4166 6061 4141 
L 6061 4947 
C 5850 4922 5594 4909 5261 4909 
L 3622 4909 
L 3622 5018 
C 3622 5178 3629 5274 3654 5402 
L 2707 5402 
C 2726 5280 2733 5171 2733 5011 
L 2733 4909 
L 1114 4909 
C 755 4909 525 4922 333 4947 
L 333 4141 
C 544 4173 723 4179 1050 4179 
L 2266 4179 
z
M 4787 2112 
C 4672 2086 4512 2074 4237 2074 
L 3206 2074 
C 3302 2189 3315 2202 3398 2310 
L 2643 2560 
C 2483 2278 2285 2093 1875 1843 
C 1434 1568 1037 1408 467 1286 
C 698 1024 806 877 941 602 
C 1363 730 1594 826 1914 998 
C 2099 819 2214 717 2438 557 
C 1715 314 1107 230 154 230 
C 339 -38 435 -224 557 -557 
C 1715 -448 2413 -282 3251 83 
C 3955 -243 4704 -442 5818 -582 
C 5914 -275 6029 -32 6221 269 
C 5254 294 4723 365 4070 563 
C 4429 832 4691 1056 5030 1382 
C 5133 1485 5158 1510 5254 1600 
L 4787 2112 
z
M 2547 1440 
L 3955 1440 
C 3693 1197 3533 1075 3232 909 
C 2950 1062 2720 1222 2509 1408 
L 2547 1440 
z
M 1261 4115 
C 1120 3782 1018 3610 794 3354 
C 627 3168 506 3053 237 2842 
C 538 2637 538 2637 736 2464 
C 768 2432 813 2394 877 2342 
C 1165 2605 1293 2733 1491 3002 
C 1696 3270 1798 3437 1971 3789 
L 1261 4115 
z
M 4352 3654 
C 4870 3136 5069 2886 5408 2330 
L 6106 2848 
C 5709 3328 5395 3667 4973 4045 
L 4352 3654 
z
" transform="scale(0.015625)"/>
      <path id="HiraginoSans-W7-63db" d="M 5581 896 
C 5869 896 6035 890 6208 864 
L 6208 1626 
C 6118 1613 6054 1606 5901 1600 
L 5901 3392 
C 5901 3674 5907 3859 5920 4019 
C 5766 4006 5651 4000 5357 4000 
L 4870 4000 
C 5011 4179 5146 4365 5235 4506 
C 5312 4621 5350 4672 5408 4742 
L 5005 5139 
C 4877 5120 4768 5114 4550 5114 
L 3789 5114 
C 3814 5171 3814 5171 3872 5293 
C 3878 5312 3891 5344 3917 5389 
L 3085 5466 
C 2963 4998 2630 4525 2125 4077 
L 2125 4282 
C 2022 4269 1933 4262 1818 4262 
L 1696 4262 
L 1696 4749 
C 1696 5075 1702 5222 1728 5402 
L 864 5402 
C 896 5222 902 5069 902 4742 
L 902 4262 
L 704 4262 
C 544 4262 416 4269 262 4294 
L 262 3488 
C 429 3507 557 3514 698 3514 
L 902 3514 
L 902 2413 
C 518 2317 378 2285 205 2272 
L 294 1446 
C 461 1510 467 1510 627 1555 
C 742 1587 755 1594 902 1638 
L 902 416 
C 902 262 870 230 736 230 
C 563 230 435 237 218 262 
C 326 -26 365 -186 390 -506 
C 570 -518 659 -525 755 -525 
C 1517 -525 1696 -390 1696 179 
L 1696 1907 
C 1824 1952 1894 1978 2080 2054 
L 2080 2803 
C 1888 2733 1818 2707 1696 2662 
L 1696 3514 
L 1837 3514 
C 1933 3514 2035 3507 2112 3494 
C 2189 3405 2208 3379 2266 3296 
L 2266 1600 
C 2099 1606 2042 1606 1946 1619 
L 1946 870 
C 2144 890 2272 896 2547 896 
L 3392 896 
C 3104 480 2605 262 1734 160 
C 1907 -128 1984 -294 2074 -589 
C 3027 -384 3642 -38 4026 512 
C 4243 224 4461 32 4794 -154 
C 5158 -365 5472 -480 5978 -582 
C 6048 -294 6125 -96 6272 192 
C 5370 307 4941 486 4550 896 
L 5581 896 
z
M 2982 1600 
L 2982 2125 
C 3136 2016 3226 1933 3379 1766 
C 3827 2195 3936 2477 3962 3328 
L 4198 3328 
L 4198 2496 
C 4198 2182 4378 2067 4845 2067 
C 4902 2067 4973 2067 5178 2080 
L 5178 1600 
L 4397 1600 
C 4416 1760 4422 1818 4435 2022 
L 3661 2035 
C 3661 1824 3661 1779 3635 1600 
L 2982 1600 
z
M 3085 4000 
C 3206 4154 3283 4256 3398 4429 
L 4314 4429 
C 4211 4269 4109 4128 4000 4000 
L 3085 4000 
z
M 3373 3328 
C 3354 2707 3290 2541 2982 2253 
L 2982 3328 
L 3373 3328 
z
M 5178 2682 
L 5101 2682 
C 5043 2675 5011 2675 4992 2675 
C 4813 2675 4781 2701 4781 2829 
L 4781 3328 
L 5178 3328 
L 5178 2682 
z
" transform="scale(0.015625)"/>
      <path id="HiraginoSans-W7-30d5" d="M 5242 4819 
C 5069 4762 4941 4749 4659 4749 
L 1728 4749 
C 1197 4749 998 4755 723 4794 
L 723 3814 
C 986 3846 1190 3853 1715 3853 
L 4518 3853 
C 4224 2688 3597 1811 2611 1184 
C 2144 890 1792 723 1235 550 
C 1600 186 1702 45 1914 -365 
C 3014 128 3738 627 4326 1318 
C 4941 2029 5318 2829 5619 4019 
C 5664 4198 5683 4237 5741 4339 
L 5242 4819 
z
" transform="scale(0.015625)"/>
      <path id="HiraginoSans-W7-30ed" d="M 4659 269 
L 4659 -166 
L 5645 -166 
C 5619 58 5613 307 5613 768 
L 5613 3859 
C 5613 4230 5619 4512 5638 4736 
C 5376 4717 5216 4710 4678 4710 
L 1690 4710 
C 1133 4710 1030 4710 768 4736 
C 794 4422 794 4346 794 3891 
L 794 730 
C 794 346 781 77 762 -173 
L 1747 -173 
L 1747 269 
L 4659 269 
z
M 4659 1133 
L 1741 1133 
L 1741 3846 
L 4659 3846 
L 4659 1133 
z
" transform="scale(0.015625)"/>
      <path id="HiraginoSans-W7-30fc" d="M 410 1914 
C 659 1939 1024 1952 1581 1952 
L 4813 1952 
C 5312 1952 5734 1939 5990 1920 
L 5990 2970 
C 5696 2931 5466 2925 4819 2925 
L 1581 2925 
C 928 2925 698 2938 410 2976 
L 410 1914 
z
" transform="scale(0.015625)"/>
     </defs>
     <use xlink:href="#HiraginoSans-W7-6c"/>
     <use xlink:href="#HiraginoSans-W7-69" transform="translate(29.099991 0)"/>
     <use xlink:href="#HiraginoSans-W7-6e" transform="translate(58.299988 0)"/>
     <use xlink:href="#HiraginoSans-W7-74" transform="translate(128.499969 0)"/>
     <use xlink:href="#HiraginoSans-W7-65" transform="translate(173.999954 0)"/>
     <use xlink:href="#HiraginoSans-W7-67" transform="translate(240.099945 0)"/>
     <use xlink:href="#HiraginoSans-W7-72" transform="translate(311.399933 0)"/>
     <use xlink:href="#HiraginoSans-W7-61" transform="translate(363.499924 0)"/>
     <use xlink:href="#HiraginoSans-W7-6c" transform="translate(429.899918 0)"/>
     <use xlink:href="#HiraginoSans-W7-20" transform="translate(458.999908 0)"/>
     <use xlink:href="#HiraginoSans-W7-304b" transform="translate(492.299896 0)"/>
     <use xlink:href="#HiraginoSans-W7-3089" transform="translate(592.299881 0)"/>
     <use xlink:href="#HiraginoSans-W7-20" transform="translate(692.299866 0)"/>
     <use xlink:href="#HiraginoSans-W7-69" transform="translate(725.599854 0)"/>
     <use xlink:href="#HiraginoSans-W7-6e" transform="translate(754.79985 0)"/>
     <use xlink:href="#HiraginoSans-W7-74" transform="translate(824.999832 0)"/>
     <use xlink:href="#HiraginoSans-W7-65" transform="translate(870.499817 0)"/>
     <use xlink:href="#HiraginoSans-W7-67" transform="translate(936.599808 0)"/>
     <use xlink:href="#HiraginoSans-W7-72" transform="translate(1007.899796 0)"/>
     <use xlink:href="#HiraginoSans-W7-61" transform="translate(1059.999786 0)"/>
     <use xlink:href="#HiraginoSans-W7-6c" transform="translate(1126.39978 0)"/>
     <use xlink:href="#HiraginoSans-W7-20" transform="translate(1155.499771 0)"/>
     <use xlink:href="#HiraginoSans-W7-3078" transform="translate(1188.799759 0)"/>
     <use xlink:href="#HiraginoSans-W7-306e" transform="translate(1288.799744 0)"/>
     <use xlink:href="#HiraginoSans-W7-5909" transform="translate(1388.799728 0)"/>
     <use xlink:href="#HiraginoSans-W7-63db" transform="translate(1488.799713 0)"/>
     <use xlink:href="#HiraginoSans-W7-30d5" transform="translate(1588.799698 0)"/>
     <use xlink:href="#HiraginoSans-W7-30ed" transform="translate(1688.799683 0)"/>
     <use xlink:href="#HiraginoSans-W7-30fc" transform="translate(1788.799667 0)"/>
    </g>
   </g>
  </g>
 </g>
 <defs>
  <clipPath id="p5e59f9dbfc">
   <rect x="7.2" y="27.44875" width="502.2" height="277.2"/>
  </clipPath>
 </defs>
</svg>
