<?xml version="1.0" encoding="utf-8" standalone="no"?>
<!DOCTYPE svg PUBLIC "-//W3C//DTD SVG 1.1//EN"
  "http://www.w3.org/Graphics/SVG/1.1/DTD/svg11.dtd">
<svg xmlns:xlink="http://www.w3.org/1999/xlink" width="349.2pt" height="311.104375pt" viewBox="0 0 349.2 311.104375" xmlns="http://www.w3.org/2000/svg" version="1.1">
 <metadata>
  <rdf:RDF xmlns:dc="http://purl.org/dc/elements/1.1/" xmlns:cc="http://creativecommons.org/ns#" xmlns:rdf="http://www.w3.org/1999/02/22-rdf-syntax-ns#">
   <cc:Work>
    <dc:type rdf:resource="http://purl.org/dc/dcmitype/StillImage"/>
    <dc:date>2026-03-29T00:53:41.751244</dc:date>
    <dc:format>image/svg+xml</dc:format>
    <dc:creator>
     <cc:Agent>
      <dc:title>Matplotlib v3.10.8, https://matplotlib.org/</dc:title>
     </cc:Agent>
    </dc:creator>
   </cc:Work>
  </rdf:RDF>
 </metadata>
 <defs>
  <style type="text/css">*{stroke-linejoin: round; stroke-linecap: butt}</style>
 </defs>
 <g id="figure_1">
  <g id="patch_1">
   <path d="M 0 311.104375 
L 349.2 311.104375 
L 349.2 0 
L 0 0 
z
" style="fill: #ffffff"/>
  </g>
  <g id="axes_1">
   <g id="patch_2">
    <path d="M 174.6 277.916875 
C 211.595832 277.916875 247.081392 266.051312 273.241396 244.933437 
C 299.4014 223.815563 314.1 195.169559 314.1 165.304375 
C 314.1 135.439191 299.4014 106.793187 273.241396 85.675313 
C 247.081392 64.557438 211.595832 52.691875 174.6 52.691875 
C 137.604168 52.691875 102.118608 64.557438 75.958604 85.675313 
C 49.7986 106.793187 35.1 135.439191 35.1 165.304375 
C 35.1 195.169559 49.7986 223.815563 75.958604 244.933437 
C 102.118608 266.051312 137.604168 277.916875 174.6 277.916875 
z
" clip-path="url(#pcb392eae22)" style="fill: #f0f7ff; stroke: #2c6e9e; stroke-width: 2; stroke-linejoin: miter"/>
   </g>
   <g id="patch_3">
    <path d="M 160.65 241.534375 
C 182.847499 241.534375 204.138835 234.23249 219.834838 221.236875 
C 235.53084 208.24126 244.35 190.61295 244.35 172.234375 
C 244.35 153.8558 235.53084 136.22749 219.834838 123.231875 
C 204.138835 110.23626 182.847499 102.934375 160.65 102.934375 
C 138.452501 102.934375 117.161165 110.23626 101.465162 123.231875 
C 85.76916 136.22749 76.95 153.8558 76.95 172.234375 
C 76.95 190.61295 85.76916 208.24126 101.465162 221.236875 
C 117.161165 234.23249 138.452501 241.534375 160.65 241.534375 
z
" clip-path="url(#pcb392eae22)" style="fill: #cce4f7; stroke: #1565c0; stroke-width: 2; stroke-linejoin: miter"/>
   </g>
   <g id="line2d_1">
    <defs>
     <path id="m8447c00bca" d="M 0 2.5 
C 0.663008 2.5 1.29895 2.236584 1.767767 1.767767 
C 2.236584 1.29895 2.5 0.663008 2.5 0 
C 2.5 -0.663008 2.236584 -1.29895 1.767767 -1.767767 
C 1.29895 -2.236584 0.663008 -2.5 0 -2.5 
C -0.663008 -2.5 -1.29895 -2.236584 -1.767767 -1.767767 
C -2.236584 -1.29895 -2.5 -0.663008 -2.5 0 
C -2.5 0.663008 -2.236584 1.29895 -1.767767 1.767767 
C -1.29895 2.236584 -0.663008 2.5 0 2.5 
z
" style="stroke: #1565c0"/>
    </defs>
    <g clip-path="url(#pcb392eae22)">
     <use xlink:href="#m8447c00bca" x="118.8" y="151.444375" style="fill: #1565c0; stroke: #1565c0"/>
    </g>
   </g>
   <g id="line2d_2">
    <g clip-path="url(#pcb392eae22)">
     <use xlink:href="#m8447c00bca" x="188.55" y="151.444375" style="fill: #1565c0; stroke: #1565c0"/>
    </g>
   </g>
   <g id="line2d_3">
    <g clip-path="url(#pcb392eae22)">
     <use xlink:href="#m8447c00bca" x="118.8" y="199.954375" style="fill: #1565c0; stroke: #1565c0"/>
    </g>
   </g>
   <g id="line2d_4">
    <g clip-path="url(#pcb392eae22)">
     <use xlink:href="#m8447c00bca" x="188.55" y="199.954375" style="fill: #1565c0; stroke: #1565c0"/>
    </g>
   </g>
   <g id="line2d_5">
    <g clip-path="url(#pcb392eae22)">
     <use xlink:href="#m8447c00bca" x="160.65" y="231.139375" style="fill: #1565c0; stroke: #1565c0"/>
    </g>
   </g>
   <g id="line2d_6">
    <defs>
     <path id="m089153c2ea" d="M -3 3 
L 3 -3 
M -3 -3 
L 3 3 
" style="stroke: #e74c3c; stroke-width: 1.5"/>
    </defs>
    <g clip-path="url(#pcb392eae22)">
     <use xlink:href="#m089153c2ea" x="190.778339" y="248.974086" style="fill: #e74c3c; stroke: #e74c3c; stroke-width: 1.5"/>
    </g>
   </g>
   <g id="line2d_7">
    <g clip-path="url(#pcb392eae22)">
     <use xlink:href="#m089153c2ea" x="248.253127" y="236.404921" style="fill: #e74c3c; stroke: #e74c3c; stroke-width: 1.5"/>
    </g>
   </g>
   <g id="line2d_8">
    <g clip-path="url(#pcb392eae22)">
     <use xlink:href="#m089153c2ea" x="279.495568" y="110.007826" style="fill: #e74c3c; stroke: #e74c3c; stroke-width: 1.5"/>
    </g>
   </g>
   <g id="line2d_9">
    <g clip-path="url(#pcb392eae22)">
     <use xlink:href="#m089153c2ea" x="182.981967" y="259.084152" style="fill: #e74c3c; stroke: #e74c3c; stroke-width: 1.5"/>
    </g>
   </g>
   <g id="line2d_10">
    <g clip-path="url(#pcb392eae22)">
     <use xlink:href="#m089153c2ea" x="249.657388" y="104.081019" style="fill: #e74c3c; stroke: #e74c3c; stroke-width: 1.5"/>
    </g>
   </g>
   <g id="line2d_11">
    <g clip-path="url(#pcb392eae22)">
     <use xlink:href="#m089153c2ea" x="88.781856" y="94.33863" style="fill: #e74c3c; stroke: #e74c3c; stroke-width: 1.5"/>
    </g>
   </g>
   <g id="line2d_12">
    <g clip-path="url(#pcb392eae22)">
     <use xlink:href="#m089153c2ea" x="99.686026" y="239.953402" style="fill: #e74c3c; stroke: #e74c3c; stroke-width: 1.5"/>
    </g>
   </g>
   <g id="line2d_13">
    <g clip-path="url(#pcb392eae22)">
     <use xlink:href="#m089153c2ea" x="80.29411" y="137.837327" style="fill: #e74c3c; stroke: #e74c3c; stroke-width: 1.5"/>
    </g>
   </g>
   <g id="line2d_14">
    <g clip-path="url(#pcb392eae22)">
     <use xlink:href="#m089153c2ea" x="228.27655" y="244.664549" style="fill: #e74c3c; stroke: #e74c3c; stroke-width: 1.5"/>
    </g>
   </g>
   <g id="line2d_15">
    <g clip-path="url(#pcb392eae22)">
     <use xlink:href="#m089153c2ea" x="179.932613" y="247.544847" style="fill: #e74c3c; stroke: #e74c3c; stroke-width: 1.5"/>
    </g>
   </g>
   <g id="line2d_16">
    <g clip-path="url(#pcb392eae22)">
     <use xlink:href="#m089153c2ea" x="296.053433" y="183.044613" style="fill: #e74c3c; stroke: #e74c3c; stroke-width: 1.5"/>
    </g>
   </g>
   <g id="text_1">
    <!-- $2^X$ -->
    <g style="fill: #2c6e9e" transform="translate(300.15 68.284375) scale(0.13 -0.13)">
     <defs>
      <path id="DejaVuSans-32" d="M 1228 531 
L 3431 531 
L 3431 0 
L 469 0 
L 469 531 
Q 828 903 1448 1529 
Q 2069 2156 2228 2338 
Q 2531 2678 2651 2914 
Q 2772 3150 2772 3378 
Q 2772 3750 2511 3984 
Q 2250 4219 1831 4219 
Q 1534 4219 1204 4116 
Q 875 4013 500 3803 
L 500 4441 
Q 881 4594 1212 4672 
Q 1544 4750 1819 4750 
Q 2544 4750 2975 4387 
Q 3406 4025 3406 3419 
Q 3406 3131 3298 2873 
Q 3191 2616 2906 2266 
Q 2828 2175 2409 1742 
Q 1991 1309 1228 531 
z
" transform="scale(0.015625)"/>
      <path id="DejaVuSans-Oblique-58" d="M 878 4666 
L 1516 4666 
L 2316 2981 
L 3763 4666 
L 4500 4666 
L 2578 2438 
L 3738 0 
L 3103 0 
L 2163 1966 
L 459 0 
L -275 0 
L 1906 2509 
L 878 4666 
z
" transform="scale(0.015625)"/>
     </defs>
     <use xlink:href="#DejaVuSans-32" transform="translate(0 0.684375)"/>
     <use xlink:href="#DejaVuSans-Oblique-58" transform="translate(64.580078 38.965625) scale(0.7)"/>
    </g>
   </g>
   <g id="text_2">
    <!-- $\mathcal{M}$（σ-代数） -->
    <g style="fill: #1565c0" transform="translate(124.295 113.329375) scale(0.11 -0.11)">
     <defs>
      <path id="STIXNonUnicode-Italic-e239" d="M 7123 346 
L 7219 224 
Q 6912 -205 6310 -205 
Q 6208 -205 6096 -169 
Q 5984 -134 5865 -12 
Q 5747 109 5747 307 
Q 5747 384 5779 653 
L 6061 3181 
L 6042 3181 
L 3405 51 
L 3309 51 
Q 2682 1382 2413 2650 
L 2406 2650 
Q 2400 2611 2345 2390 
Q 2291 2170 2265 2061 
Q 2240 1952 2179 1725 
Q 2118 1498 2060 1338 
Q 2003 1178 1926 976 
Q 1850 774 1760 592 
Q 1670 410 1568 250 
Q 1229 -288 813 -288 
Q 576 -288 416 -131 
Q 256 26 256 250 
Q 256 422 345 528 
Q 435 634 595 634 
Q 698 634 768 576 
Q 838 518 867 451 
Q 896 384 947 326 
Q 998 269 1062 269 
Q 1274 269 1446 570 
Q 1555 762 1673 1088 
Q 1792 1414 1881 1731 
Q 1971 2048 2076 2483 
Q 2182 2918 2236 3187 
Q 2291 3456 2371 3840 
Q 2451 4224 2464 4294 
L 2656 4294 
Q 2931 3136 3168 2329 
Q 3405 1523 3738 838 
L 6662 4294 
L 6835 4294 
L 6445 730 
Q 6432 614 6432 544 
Q 6432 173 6714 173 
Q 6950 173 7123 346 
z
" transform="scale(0.015625)"/>
      <path id="HiraginoSans-W7-ff08" d="M 6240 -589 
C 5830 -26 5658 256 5491 666 
C 5274 1197 5152 1837 5152 2432 
C 5152 3027 5274 3667 5491 4198 
C 5658 4608 5830 4890 6240 5453 
L 5197 5453 
C 4845 4902 4691 4621 4538 4211 
C 4320 3648 4205 3034 4205 2432 
C 4205 1830 4320 1216 4538 653 
C 4691 243 4845 -38 5197 -589 
L 6240 -589 
z
" transform="scale(0.015625)"/>
      <path id="HiraginoSans-W7-3c3" d="M 5638 3680 
C 5382 3642 5165 3629 4723 3629 
L 3987 3629 
C 3744 3718 3514 3757 3283 3757 
C 2662 3757 2150 3584 1760 3245 
C 1286 2829 1005 2150 1005 1427 
C 1005 845 1203 390 1587 70 
C 1869 -160 2291 -288 2771 -288 
C 3437 -288 4064 -6 4454 467 
C 4787 870 4986 1434 4986 2003 
C 4986 2304 4934 2509 4787 2765 
C 5088 2758 5203 2752 5382 2720 
L 5638 3680 
z
M 3994 2099 
C 3994 1235 3450 544 2765 544 
C 2298 544 2010 877 2010 1408 
C 2010 1882 2189 2349 2490 2643 
C 2694 2848 2938 2944 3245 2944 
C 3706 2944 3994 2618 3994 2099 
z
" transform="scale(0.015625)"/>
      <path id="HiraginoSans-W7-2d" d="M 237 1338 
C 448 1363 602 1376 851 1376 
L 1971 1376 
C 2221 1376 2374 1363 2586 1338 
L 2586 2355 
C 2400 2330 2227 2317 1971 2317 
L 851 2317 
C 595 2317 422 2330 237 2355 
L 237 1338 
z
" transform="scale(0.015625)"/>
      <path id="HiraginoSans-W7-4ee3" d="M 5414 3014 
C 5638 3027 5734 3034 5862 3034 
C 5946 3034 5984 3034 6086 3027 
L 6074 3878 
C 5882 3840 5722 3821 5344 3795 
L 4045 3699 
C 4013 4186 4000 4448 4000 4813 
C 4000 5062 4006 5190 4026 5331 
L 3104 5318 
C 3117 5184 3136 4966 3136 4806 
C 3155 4141 3155 4141 3187 3642 
L 2720 3610 
C 2573 3597 2374 3590 2259 3590 
C 2195 3590 2144 3590 2022 3597 
L 2035 2752 
C 2253 2790 2381 2803 2682 2822 
L 3270 2867 
C 3450 1664 3789 794 4339 109 
C 4698 -326 5018 -538 5338 -538 
C 5837 -538 6086 -83 6227 1088 
C 5914 1235 5786 1325 5498 1568 
C 5446 858 5363 480 5254 480 
C 5229 480 5107 570 5043 640 
C 4870 838 4710 1088 4570 1376 
C 4358 1824 4211 2336 4128 2925 
L 5414 3014 
z
M 979 243 
C 979 -109 966 -333 941 -550 
L 1856 -550 
C 1830 -301 1818 -90 1818 230 
L 1818 3846 
C 2182 4634 2195 4672 2362 5158 
L 1504 5440 
C 1478 5216 1389 4928 1267 4614 
C 973 3898 621 3354 58 2765 
C 237 2458 301 2298 422 1856 
C 678 2112 736 2182 992 2547 
C 986 2323 979 2170 979 1830 
L 979 243 
z
M 4198 4858 
C 4518 4550 4838 4179 5114 3814 
L 5760 4339 
C 5389 4787 5171 5018 4819 5331 
L 4198 4858 
z
" transform="scale(0.015625)"/>
      <path id="HiraginoSans-W7-6570" d="M 6246 4403 
C 6099 4378 5952 4371 5638 4371 
L 4621 4371 
C 4678 4582 4691 4614 4723 4749 
C 4813 5114 4845 5235 4858 5280 
L 4026 5440 
C 4026 5344 3994 5094 3949 4883 
C 3757 3910 3456 3219 3002 2707 
C 3168 2554 3277 2432 3430 2208 
C 3328 2195 3200 2189 3021 2189 
L 2080 2189 
C 2125 2291 2144 2330 2202 2458 
L 1408 2598 
C 1338 2400 1312 2323 1261 2189 
L 806 2189 
C 563 2189 429 2195 282 2221 
L 282 1459 
C 435 1485 576 1491 806 1491 
L 928 1491 
C 787 1254 717 1146 499 864 
C 954 704 1120 634 1427 499 
C 1062 294 762 198 230 122 
C 397 -109 512 -307 621 -582 
C 1286 -422 1722 -218 2150 141 
C 2451 -26 2528 -77 2765 -262 
L 2976 77 
C 3149 -102 3283 -294 3411 -576 
C 3910 -307 4339 26 4730 461 
C 5075 32 5459 -301 5901 -563 
C 6035 -237 6157 -19 6342 243 
C 5894 467 5530 755 5216 1139 
C 5606 1843 5779 2509 5862 3635 
C 6074 3629 6125 3629 6246 3610 
L 6246 4403 
z
M 3206 454 
C 2963 589 2874 640 2675 730 
C 2842 986 2925 1171 3021 1491 
C 3238 1491 3392 1478 3514 1466 
L 3514 2099 
C 3654 2266 3686 2310 3789 2477 
C 3904 1946 4032 1587 4275 1139 
C 3942 749 3571 461 3046 198 
L 3206 454 
z
M 5069 3635 
C 5037 2938 4934 2400 4736 1907 
C 4486 2451 4397 2771 4294 3437 
C 4326 3520 4339 3552 4371 3635 
L 5069 3635 
z
M 2234 1491 
C 2170 1299 2118 1184 2003 1024 
C 1862 1082 1779 1107 1542 1190 
C 1638 1344 1664 1389 1722 1491 
L 2234 1491 
z
M 2995 4269 
L 2342 4269 
L 2342 4992 
C 2342 5184 2349 5293 2368 5408 
L 1555 5408 
C 1574 5286 1581 5178 1581 4979 
L 1581 4269 
L 851 4269 
C 602 4269 461 4275 301 4294 
L 301 3590 
C 454 3610 621 3616 851 3616 
L 1120 3616 
C 864 3322 595 3130 154 2925 
C 384 2682 467 2566 614 2304 
C 1069 2605 1229 2758 1587 3213 
C 1581 3110 1574 3002 1574 2950 
L 1574 2765 
C 1574 2707 1568 2643 1555 2579 
L 2355 2579 
C 2342 2650 2342 2726 2342 2797 
L 2342 2976 
C 2342 3014 2330 3142 2323 3213 
C 2502 2944 2541 2906 2854 2643 
C 2989 2906 3078 3040 3245 3245 
C 3014 3366 2874 3469 2733 3616 
L 3091 3616 
C 3290 3616 3411 3610 3494 3597 
L 3494 4288 
C 3418 4275 3296 4269 3098 4269 
L 3053 4269 
C 3238 4550 3309 4685 3520 5107 
L 2842 5382 
C 2733 5082 2598 4838 2394 4544 
L 2995 4269 
z
M 397 5094 
C 602 4832 723 4627 870 4282 
L 1523 4563 
C 1376 4883 1280 5043 1037 5363 
L 397 5094 
z
" transform="scale(0.015625)"/>
      <path id="HiraginoSans-W7-ff09" d="M 1203 -589 
C 1555 -38 1709 243 1862 653 
C 2080 1216 2195 1824 2195 2432 
C 2195 3040 2080 3648 1862 4211 
C 1709 4621 1555 4902 1203 5453 
L 160 5453 
C 570 4890 742 4608 909 4198 
C 1126 3667 1248 3027 1248 2432 
C 1248 1837 1126 1197 909 666 
C 742 256 570 -26 160 -589 
L 1203 -589 
z
" transform="scale(0.015625)"/>
     </defs>
     <use xlink:href="#STIXNonUnicode-Italic-e239" transform="translate(0 0.796875)"/>
     <use xlink:href="#HiraginoSans-W7-ff08" transform="translate(116.599991 0.796875)"/>
     <use xlink:href="#HiraginoSans-W7-3c3" transform="translate(216.599976 0.796875)"/>
     <use xlink:href="#HiraginoSans-W7-2d" transform="translate(316.59996 0.796875)"/>
     <use xlink:href="#HiraginoSans-W7-4ee3" transform="translate(360.799957 0.796875)"/>
     <use xlink:href="#HiraginoSans-W7-6570" transform="translate(460.799942 0.796875)"/>
     <use xlink:href="#HiraginoSans-W7-ff09" transform="translate(560.799927 0.796875)"/>
    </g>
   </g>
   <g id="text_3">
    <!-- $\emptyset$ -->
    <g style="fill: #1565c0" transform="translate(124.38 153.991094) scale(0.09 -0.09)">
     <defs>
      <path id="DejaVuSans-2205" d="M 4025 4184 
L 4303 4528 
L 4634 4528 
L 4234 4038 
Q 4563 3778 4778 3397 
Q 5091 2841 5091 2241 
Q 5091 1641 4778 1086 
Q 4466 531 3916 234 
Q 3366 -63 2788 -63 
Q 2203 -63 1653 234 
Q 1478 328 1328 450 
L 934 -38 
L 606 -38 
L 1138 619 
Q 941 825 794 1088 
Q 484 1641 484 2241 
Q 484 2841 793 3395 
Q 1103 3950 1653 4247 
Q 2203 4544 2788 4544 
Q 3366 4544 3916 4247 
Q 3972 4216 4025 4184 
z
M 1400 944 
L 3763 3859 
L 3719 3884 
Q 3266 4128 2788 4128 
Q 2306 4128 1851 3883 
Q 1397 3638 1141 3178 
Q 888 2725 884 2241 
Q 888 1756 1141 1303 
Q 1253 1103 1400 944 
z
M 3975 3716 
L 1591 772 
Q 1713 675 1853 600 
Q 2306 353 2788 353 
Q 3266 353 3719 598 
Q 4172 844 4431 1303 
Q 4688 1756 4691 2241 
Q 4688 2725 4431 3178 
Q 4250 3500 3975 3716 
z
" transform="scale(0.015625)"/>
     </defs>
     <use xlink:href="#DejaVuSans-2205"/>
    </g>
   </g>
   <g id="text_4">
    <!-- $X$ -->
    <g style="fill: #1565c0" transform="translate(194.13 153.991094) scale(0.09 -0.09)">
     <use xlink:href="#DejaVuSans-Oblique-58" transform="translate(0 0.09375)"/>
    </g>
   </g>
   <g id="text_5">
    <!-- $A_1$ -->
    <g style="fill: #1565c0" transform="translate(124.38 202.501094) scale(0.09 -0.09)">
     <defs>
      <path id="DejaVuSans-Oblique-41" d="M 2356 4666 
L 3072 4666 
L 3938 0 
L 3278 0 
L 3084 1197 
L 984 1197 
L 325 0 
L -341 0 
L 2356 4666 
z
M 2584 4044 
L 1275 1722 
L 2988 1722 
L 2584 4044 
z
" transform="scale(0.015625)"/>
      <path id="DejaVuSans-31" d="M 794 531 
L 1825 531 
L 1825 4091 
L 703 3866 
L 703 4441 
L 1819 4666 
L 2450 4666 
L 2450 531 
L 3481 531 
L 3481 0 
L 794 0 
L 794 531 
z
" transform="scale(0.015625)"/>
     </defs>
     <use xlink:href="#DejaVuSans-Oblique-41" transform="translate(0 0.09375)"/>
     <use xlink:href="#DejaVuSans-31" transform="translate(68.408203 -16.3125) scale(0.7)"/>
    </g>
   </g>
   <g id="text_6">
    <!-- $A_2$ -->
    <g style="fill: #1565c0" transform="translate(194.13 202.501094) scale(0.09 -0.09)">
     <use xlink:href="#DejaVuSans-Oblique-41" transform="translate(0 0.09375)"/>
     <use xlink:href="#DejaVuSans-32" transform="translate(68.408203 -16.3125) scale(0.7)"/>
    </g>
   </g>
   <g id="text_7">
    <!-- $A^c$ -->
    <g style="fill: #1565c0" transform="translate(166.23 233.686094) scale(0.09 -0.09)">
     <defs>
      <path id="DejaVuSans-Oblique-63" d="M 3431 3366 
L 3316 2797 
Q 3109 2947 2876 3022 
Q 2644 3097 2394 3097 
Q 2119 3097 1870 3000 
Q 1622 2903 1453 2725 
Q 1184 2453 1037 2087 
Q 891 1722 891 1331 
Q 891 859 1127 628 
Q 1363 397 1844 397 
Q 2081 397 2348 469 
Q 2616 541 2906 684 
L 2797 116 
Q 2547 13 2283 -39 
Q 2019 -91 1741 -91 
Q 1044 -91 669 257 
Q 294 606 294 1253 
Q 294 1797 489 2255 
Q 684 2713 1069 3078 
Q 1331 3328 1684 3456 
Q 2038 3584 2456 3584 
Q 2700 3584 2940 3529 
Q 3181 3475 3431 3366 
z
" transform="scale(0.015625)"/>
     </defs>
     <use xlink:href="#DejaVuSans-Oblique-41" transform="translate(0 0.51875)"/>
     <use xlink:href="#DejaVuSans-Oblique-63" transform="translate(75.424974 38.8) scale(0.7)"/>
    </g>
   </g>
   <g id="text_8">
    <!-- 非可測集合 -->
    <g style="fill: #e74c3c" transform="translate(258.3 234.604375) scale(0.08 -0.08)">
     <defs>
      <path id="HiraginoSans-W4-975e" d="M 2285 3866 
L 2285 3046 
L 1203 3046 
C 858 3046 730 3053 589 3078 
L 589 2579 
C 736 2605 909 2611 1203 2611 
L 2278 2611 
C 2266 2298 2246 2131 2214 1869 
C 1370 1638 608 1485 269 1466 
L 416 934 
C 493 966 634 1005 755 1037 
C 1683 1267 1747 1280 2112 1389 
C 2010 1075 1882 851 1677 621 
C 1408 326 1133 141 589 -102 
C 736 -237 845 -371 947 -531 
C 1990 13 2445 563 2656 1549 
C 2931 1632 2931 1632 3155 1702 
L 3149 2150 
L 2726 2016 
C 2752 2310 2771 2618 2771 2970 
L 2771 4582 
C 2771 5018 2778 5146 2803 5312 
L 2240 5312 
C 2272 5114 2285 4947 2285 4595 
L 2285 4314 
L 1024 4314 
C 723 4314 576 4320 416 4352 
L 416 3834 
C 538 3859 730 3866 1024 3866 
L 2285 3866 
z
M 4096 1088 
L 5421 1088 
C 5683 1088 5869 1075 6048 1050 
L 6048 1574 
C 5888 1549 5728 1542 5421 1542 
L 4096 1542 
L 4096 2522 
L 5254 2522 
C 5542 2522 5709 2515 5862 2490 
L 5862 2995 
C 5722 2970 5594 2963 5254 2963 
L 4096 2963 
L 4096 3853 
L 5376 3853 
C 5690 3853 5850 3846 5990 3821 
L 5990 4339 
C 5830 4307 5696 4301 5376 4301 
L 4096 4301 
L 4096 4570 
C 4096 4934 4102 5126 4134 5312 
L 3584 5312 
C 3610 5107 3616 4947 3616 4570 
L 3616 294 
C 3616 -122 3610 -275 3578 -474 
L 4134 -474 
C 4102 -282 4096 -115 4096 294 
L 4096 1088 
z
" transform="scale(0.015625)"/>
      <path id="HiraginoSans-W4-53ef" d="M 4813 4576 
L 4813 198 
C 4813 51 4762 19 4525 19 
C 4256 19 3904 45 3526 90 
C 3597 -83 3635 -243 3654 -422 
C 3974 -442 4230 -448 4461 -448 
C 5158 -448 5318 -346 5318 122 
L 5318 4576 
L 5402 4576 
C 5638 4576 5888 4563 6086 4538 
L 6086 5069 
C 5882 5043 5658 5030 5382 5030 
L 1120 5030 
C 832 5030 608 5043 416 5069 
L 416 4538 
C 634 4563 864 4576 1120 4576 
L 4813 4576 
z
M 3718 3226 
C 3718 3488 3725 3616 3750 3770 
C 3571 3750 3411 3744 3142 3744 
L 1747 3744 
C 1478 3744 1318 3750 1152 3770 
C 1178 3603 1184 3456 1184 3200 
L 1184 1178 
C 1184 1005 1171 838 1146 653 
L 1677 653 
L 1677 1216 
L 3194 1216 
C 3373 1216 3622 1203 3744 1197 
C 3725 1338 3718 1472 3718 1683 
L 3718 3226 
z
M 1677 3296 
L 3226 3296 
L 3226 1670 
L 1677 1670 
L 1677 3296 
z
" transform="scale(0.015625)"/>
      <path id="HiraginoSans-W4-6e2c" d="M 474 4941 
C 877 4659 1120 4442 1408 4090 
L 1741 4448 
C 1453 4781 1229 4979 800 5274 
L 474 4941 
z
M 256 3354 
C 672 3098 922 2893 1267 2522 
L 1574 2918 
C 1235 3245 979 3437 557 3699 
L 256 3354 
z
M 1222 1875 
C 941 960 627 288 326 -38 
L 755 -410 
C 794 -326 813 -282 896 -128 
C 1197 416 1402 902 1619 1594 
L 1222 1875 
z
M 3328 1146 
C 3526 1146 3648 1139 3866 1126 
C 3853 1261 3846 1472 3846 1728 
L 3846 4538 
C 3846 4813 3853 4986 3872 5158 
C 3680 5146 3558 5139 3360 5139 
L 2438 5139 
C 2202 5139 2061 5146 1926 5158 
C 1939 4973 1946 4806 1946 4595 
L 1946 1766 
C 1946 1414 1946 1312 1926 1126 
C 2061 1139 2214 1146 2438 1146 
L 3328 1146 
z
M 2387 4730 
L 3411 4730 
L 3411 3955 
L 2387 3955 
L 2387 4730 
z
M 2387 3552 
L 3411 3552 
L 3411 2778 
L 2387 2778 
L 2387 3552 
z
M 2387 2374 
L 3411 2374 
L 3411 1555 
L 2387 1555 
L 2387 2374 
z
M 3034 755 
C 3309 269 3501 6 3878 -390 
C 4038 -218 4109 -147 4237 -58 
C 3859 269 3674 499 3411 973 
L 3034 755 
z
M 4890 1088 
C 4864 1248 4858 1408 4858 1715 
L 4858 4314 
C 4858 4614 4864 4749 4890 4941 
L 4365 4941 
C 4390 4768 4397 4602 4397 4320 
L 4397 1715 
C 4397 1434 4384 1254 4365 1088 
L 4890 1088 
z
M 2323 979 
C 2099 480 1926 250 1485 -115 
C 1619 -218 1696 -288 1837 -448 
C 2266 -38 2464 237 2714 768 
L 2323 979 
z
M 5914 4512 
C 5914 4870 5926 5082 5952 5261 
L 5408 5261 
C 5434 5024 5446 4826 5446 4512 
L 5446 269 
C 5446 128 5402 102 5146 102 
C 4947 102 4749 122 4499 154 
C 4570 -13 4589 -109 4621 -333 
C 5011 -352 5024 -352 5152 -352 
C 5773 -352 5914 -250 5914 186 
L 5914 4512 
z
" transform="scale(0.015625)"/>
      <path id="HiraginoSans-W4-96c6" d="M 3526 2778 
L 4864 2778 
C 5165 2778 5299 2771 5453 2746 
L 5453 3174 
C 5254 3149 5146 3142 4864 3142 
L 3526 3142 
L 3526 3565 
L 4864 3565 
C 5165 3565 5280 3558 5453 3533 
L 5453 3962 
C 5261 3936 5139 3930 4864 3930 
L 3526 3930 
L 3526 4352 
L 5190 4352 
C 5446 4352 5574 4346 5734 4326 
L 5734 4774 
C 5555 4749 5421 4742 5139 4742 
L 3584 4742 
C 3693 4890 3802 5056 3962 5338 
L 3450 5434 
C 3373 5184 3277 5005 3085 4742 
L 1766 4742 
C 1837 4832 1971 5030 2176 5338 
L 1645 5446 
C 1600 5306 1523 5158 1427 5005 
C 1094 4486 723 4109 205 3744 
C 339 3597 384 3539 486 3341 
C 781 3571 941 3725 1158 3974 
C 1139 3789 1133 3584 1133 3366 
L 1133 2374 
C 1133 2195 1126 2042 1114 1920 
C 1242 1933 1338 1933 1581 1933 
L 2950 1933 
L 2950 1498 
L 1069 1498 
C 704 1498 531 1504 365 1536 
L 365 1050 
C 576 1075 774 1088 1069 1088 
L 2554 1088 
C 2330 890 2093 730 1766 563 
C 1299 326 877 192 262 83 
C 403 -77 467 -186 550 -378 
C 1005 -262 1389 -122 1741 45 
C 2253 294 2598 531 2970 915 
C 2957 819 2950 557 2950 448 
L 2950 -19 
C 2950 -237 2938 -346 2912 -486 
L 3456 -486 
C 3424 -365 3418 -275 3418 -13 
L 3418 448 
C 3418 576 3411 678 3398 922 
C 3789 544 4051 358 4486 128 
C 4915 -96 5286 -243 5843 -403 
C 5946 -179 5990 -109 6125 64 
C 5197 250 4384 608 3802 1088 
L 5325 1088 
C 5626 1088 5830 1075 6048 1050 
L 6048 1536 
C 5875 1504 5696 1498 5325 1498 
L 3418 1498 
L 3418 1933 
L 5165 1933 
C 5453 1933 5581 1926 5760 1901 
L 5760 2336 
C 5587 2310 5446 2304 5165 2304 
L 3526 2304 
L 3526 2778 
z
M 3078 2778 
L 3078 2304 
L 1600 2304 
L 1600 2778 
L 3078 2778 
z
M 3078 3142 
L 1600 3142 
L 1600 3565 
L 3078 3565 
L 3078 3142 
z
M 3078 3930 
L 1600 3930 
L 1600 4352 
L 3078 4352 
L 3078 3930 
z
" transform="scale(0.015625)"/>
      <path id="HiraginoSans-W4-5408" d="M 1677 2899 
C 1824 2918 1990 2925 2189 2925 
L 4186 2925 
C 4429 2925 4595 2918 4736 2899 
L 4736 3411 
C 5178 3104 5498 2918 5958 2701 
C 6042 2899 6112 3014 6234 3187 
C 5626 3424 5056 3750 4518 4186 
C 4019 4582 3731 4890 3456 5318 
L 2893 5318 
C 2630 4883 2381 4595 1926 4211 
C 1402 3763 832 3424 198 3162 
C 358 2989 422 2893 493 2720 
C 966 2938 1203 3078 1677 3398 
L 1677 2899 
z
M 2195 3386 
C 1971 3386 1811 3392 1690 3411 
C 2355 3878 2733 4256 3187 4890 
C 3597 4320 4032 3898 4730 3411 
C 4595 3392 4435 3386 4186 3386 
L 2195 3386 
z
M 1690 -435 
L 1690 -77 
L 4698 -77 
L 4698 -435 
L 5242 -435 
C 5216 -243 5203 -58 5203 205 
L 5203 1645 
C 5203 1901 5210 2067 5235 2240 
C 5101 2221 4960 2214 4723 2214 
L 1664 2214 
C 1427 2214 1286 2221 1152 2240 
C 1178 2061 1184 1888 1184 1645 
L 1184 205 
C 1184 -51 1171 -230 1146 -435 
L 1690 -435 
z
M 1690 1766 
L 4698 1766 
L 4698 371 
L 1690 371 
L 1690 1766 
z
" transform="scale(0.015625)"/>
     </defs>
     <use xlink:href="#HiraginoSans-W4-975e"/>
     <use xlink:href="#HiraginoSans-W4-53ef" transform="translate(99.999985 0)"/>
     <use xlink:href="#HiraginoSans-W4-6e2c" transform="translate(199.999969 0)"/>
     <use xlink:href="#HiraginoSans-W4-96c6" transform="translate(299.999954 0)"/>
     <use xlink:href="#HiraginoSans-W4-5408" transform="translate(399.999939 0)"/>
    </g>
   </g>
   <g id="text_9">
    <!-- σ-代数によるフィルタリング -->
    <g style="fill: #1a1a2e" transform="translate(93.947812 16.704375) scale(0.12 -0.12)">
     <defs>
      <path id="HiraginoSans-W7-306b" d="M 992 5158 
C 973 4973 966 4915 890 4518 
C 717 3584 640 2810 640 2016 
C 640 1395 685 877 806 64 
C 826 -83 832 -134 838 -250 
L 1766 -205 
C 1760 -115 1760 -83 1760 -19 
C 1760 486 1946 1165 2285 1907 
L 1722 2138 
L 1600 1830 
C 1568 1754 1568 1754 1485 1504 
C 1504 2861 1709 4301 1990 5062 
L 992 5158 
z
M 2573 3610 
C 2669 3603 2720 3603 2752 3597 
C 3149 3558 3379 3546 3782 3546 
C 4314 3546 4954 3590 5478 3661 
C 5549 3667 5555 3667 5613 3667 
L 5568 4595 
C 5158 4486 4518 4422 3814 4422 
C 3232 4422 2899 4448 2586 4531 
L 2573 3610 
z
M 2995 2656 
C 2598 2150 2400 1690 2400 1286 
C 2400 1050 2470 806 2592 634 
C 2880 230 3411 38 4224 38 
C 4666 38 5005 70 5568 160 
C 5709 179 5747 186 5850 198 
L 5786 1165 
C 5344 1005 4787 915 4230 915 
C 3642 915 3315 1094 3315 1414 
C 3315 1651 3462 1939 3763 2317 
L 2995 2656 
z
" transform="scale(0.015625)"/>
      <path id="HiraginoSans-W7-3088" d="M 2669 5293 
C 2688 5101 2694 5030 2701 4710 
C 2707 3859 2752 2394 2784 1946 
C 2573 1978 2445 1990 2278 1990 
C 1888 1990 1562 1920 1286 1779 
C 832 1555 602 1203 602 762 
C 602 6 1184 -442 2182 -442 
C 3181 -442 3725 -45 3725 685 
C 3725 717 3725 781 3725 851 
C 4070 678 4262 563 4557 339 
C 4838 122 4998 -19 5133 -186 
L 5722 672 
C 5651 717 5619 736 5530 800 
C 4678 1382 4371 1549 3706 1773 
C 3654 2592 3648 2675 3642 3072 
C 4026 3085 4403 3110 4685 3136 
C 5222 3187 5510 3219 5562 3219 
L 5491 4128 
C 5088 4006 4371 3930 3622 3930 
C 3616 4179 3616 4192 3616 4230 
C 3616 4678 3629 5037 3661 5286 
L 2669 5293 
z
M 2803 1094 
C 2803 1094 2810 992 2810 915 
C 2810 762 2797 685 2752 614 
C 2669 474 2438 384 2176 384 
C 1811 384 1568 531 1568 755 
C 1568 1005 1850 1171 2272 1171 
C 2490 1171 2592 1158 2803 1094 
z
" transform="scale(0.015625)"/>
      <path id="HiraginoSans-W7-308b" d="M 1286 4090 
C 1478 4115 1536 4115 1741 4128 
C 2682 4173 2790 4179 3315 4224 
C 2413 3322 1075 2259 474 1971 
L 986 1146 
C 1779 1856 2656 2221 3597 2221 
C 4333 2221 4806 1920 4806 1453 
C 4806 1050 4621 806 4166 621 
C 4070 883 4000 1018 3872 1171 
C 3603 1504 3200 1690 2746 1690 
C 2067 1690 1568 1274 1568 723 
C 1568 410 1709 128 1958 -58 
C 2227 -262 2701 -378 3258 -378 
C 3872 -378 4435 -243 4864 6 
C 5440 339 5741 838 5741 1459 
C 5741 1907 5587 2259 5274 2522 
C 4928 2810 4480 2957 3936 2957 
C 3565 2957 3245 2912 2880 2803 
C 3398 3168 3603 3334 4269 3930 
C 4768 4371 4774 4371 4909 4448 
L 4454 5114 
C 4346 5062 4269 5050 4019 5030 
C 3424 4986 2630 4954 2080 4954 
C 1696 4954 1485 4966 1248 4998 
L 1286 4090 
z
M 3347 390 
C 3200 358 3174 358 3078 358 
C 2662 358 2419 486 2419 710 
C 2419 864 2547 966 2739 966 
C 3040 966 3251 768 3347 390 
z
" transform="scale(0.015625)"/>
      <path id="HiraginoSans-W7-30d5" d="M 5242 4819 
C 5069 4762 4941 4749 4659 4749 
L 1728 4749 
C 1197 4749 998 4755 723 4794 
L 723 3814 
C 986 3846 1190 3853 1715 3853 
L 4518 3853 
C 4224 2688 3597 1811 2611 1184 
C 2144 890 1792 723 1235 550 
C 1600 186 1702 45 1914 -365 
C 3014 128 3738 627 4326 1318 
C 4941 2029 5318 2829 5619 4019 
C 5664 4198 5683 4237 5741 4339 
L 5242 4819 
z
" transform="scale(0.015625)"/>
      <path id="HiraginoSans-W7-30a3" d="M 4518 4211 
C 4333 3904 3898 3488 3354 3085 
C 2605 2534 1747 2131 768 1862 
C 998 1562 1069 1446 1235 1082 
C 2118 1408 2528 1587 2976 1869 
L 2976 333 
C 2976 -32 2970 -173 2938 -410 
L 3917 -410 
C 3891 -218 3878 -13 3878 333 
L 3878 2413 
C 4307 2714 4736 3098 5069 3456 
C 5203 3603 5203 3603 5286 3674 
L 4518 4211 
z
" transform="scale(0.015625)"/>
      <path id="HiraginoSans-W7-30eb" d="M 1376 5069 
C 1395 4902 1402 4781 1402 4422 
C 1402 4077 1389 3642 1376 3328 
C 1338 2650 1280 2278 1146 1856 
C 954 1235 678 826 186 390 
C 531 147 653 32 960 -358 
C 1376 64 1613 397 1837 864 
C 2176 1562 2298 2227 2342 3558 
C 2387 4819 2387 4819 2413 5011 
L 1376 5069 
z
M 3130 5114 
C 3149 4954 3155 4806 3155 4525 
C 3155 4467 3155 4410 3155 4346 
L 3130 749 
C 3123 442 3110 314 3066 134 
L 3539 -371 
C 3622 -320 3674 -301 3834 -243 
C 4486 0 4813 186 5184 506 
C 5638 902 5978 1395 6246 2061 
C 5894 2342 5792 2445 5530 2778 
C 5395 2323 5222 1978 4960 1645 
C 4717 1338 4480 1146 4083 928 
L 4115 4333 
C 4122 4768 4128 4845 4166 5107 
L 3130 5114 
z
" transform="scale(0.015625)"/>
      <path id="HiraginoSans-W7-30bf" d="M 2374 5376 
C 2310 5114 2189 4819 2003 4480 
C 1606 3750 1133 3213 403 2643 
C 787 2426 915 2330 1178 2035 
C 1818 2586 2266 3110 2656 3750 
L 4531 3770 
C 4371 3270 4179 2861 3904 2438 
C 3539 2720 3238 2918 2675 3232 
L 2093 2547 
C 2573 2285 2912 2054 3347 1690 
C 3027 1344 2765 1133 2336 858 
C 1958 627 1645 474 1114 262 
C 1421 -26 1530 -160 1747 -544 
C 2656 -128 3354 346 3917 928 
C 4595 1632 5088 2496 5510 3731 
C 5619 4051 5626 4064 5715 4166 
L 5216 4659 
C 5069 4595 4960 4582 4736 4576 
L 3046 4563 
C 3110 4678 3130 4723 3187 4838 
C 3270 5024 3290 5056 3354 5165 
L 2374 5376 
z
" transform="scale(0.015625)"/>
      <path id="HiraginoSans-W7-30ea" d="M 1203 5094 
C 1229 4864 1235 4717 1235 4224 
L 1235 2982 
C 1235 2560 1222 2323 1197 2086 
L 2246 2086 
C 2227 2259 2214 2573 2214 2970 
L 2214 4224 
C 2214 4646 2227 4883 2253 5094 
L 1203 5094 
z
M 4128 5088 
C 4160 4826 4166 4710 4166 4224 
L 4166 3616 
C 4166 2989 4141 2458 4096 2202 
C 3994 1606 3706 1235 3117 922 
C 2765 736 2432 627 1869 512 
C 2182 147 2266 6 2419 -403 
C 3008 -237 3347 -102 3706 102 
C 4416 506 4845 1024 5024 1715 
C 5126 2106 5152 2496 5152 3558 
L 5152 4237 
C 5152 4723 5158 4858 5184 5088 
L 4128 5088 
z
" transform="scale(0.015625)"/>
      <path id="HiraginoSans-W7-30f3" d="M 678 4083 
C 1293 3744 1830 3322 2362 2758 
L 3008 3597 
C 2496 4070 2131 4339 1306 4838 
L 678 4083 
z
M 986 -179 
C 1120 -134 1158 -122 1306 -90 
C 1427 -64 1427 -64 1587 -32 
C 2202 102 2938 365 3450 634 
C 4563 1222 5318 2067 5952 3437 
C 5555 3718 5440 3827 5139 4179 
C 4954 3680 4781 3334 4493 2906 
C 3994 2157 3424 1677 2611 1338 
C 2022 1082 1293 909 704 870 
L 986 -179 
z
" transform="scale(0.015625)"/>
      <path id="HiraginoSans-W7-30b0" d="M 5222 4365 
L 5510 4461 
C 5370 4813 5274 4992 5056 5286 
L 4506 5107 
C 4672 4870 4768 4691 4877 4435 
C 4781 4429 4717 4422 4646 4422 
L 2982 4403 
C 3053 4544 3078 4595 3136 4723 
C 3226 4934 3290 5062 3322 5107 
L 2291 5306 
C 2259 5075 2170 4832 1984 4493 
C 1562 3686 1056 3110 307 2592 
C 685 2362 800 2266 1069 1939 
C 1658 2400 2157 2944 2547 3565 
L 4365 3590 
C 3840 1978 2842 966 1114 301 
C 1453 -6 1562 -141 1773 -525 
C 2790 -58 3520 454 4096 1114 
C 4653 1754 5101 2611 5408 3616 
C 5485 3866 5504 3923 5568 4019 
L 5222 4365 
z
M 5306 5318 
C 5472 5075 5619 4800 5747 4480 
L 6291 4685 
C 6182 4973 6042 5229 5837 5498 
L 5306 5318 
z
" transform="scale(0.015625)"/>
     </defs>
     <use xlink:href="#HiraginoSans-W7-3c3"/>
     <use xlink:href="#HiraginoSans-W7-2d" transform="translate(99.999985 0)"/>
     <use xlink:href="#HiraginoSans-W7-4ee3" transform="translate(144.199982 0)"/>
     <use xlink:href="#HiraginoSans-W7-6570" transform="translate(244.199966 0)"/>
     <use xlink:href="#HiraginoSans-W7-306b" transform="translate(344.199951 0)"/>
     <use xlink:href="#HiraginoSans-W7-3088" transform="translate(444.199936 0)"/>
     <use xlink:href="#HiraginoSans-W7-308b" transform="translate(544.199921 0)"/>
     <use xlink:href="#HiraginoSans-W7-30d5" transform="translate(644.199905 0)"/>
     <use xlink:href="#HiraginoSans-W7-30a3" transform="translate(744.19989 0)"/>
     <use xlink:href="#HiraginoSans-W7-30eb" transform="translate(844.199875 0)"/>
     <use xlink:href="#HiraginoSans-W7-30bf" transform="translate(944.19986 0)"/>
     <use xlink:href="#HiraginoSans-W7-30ea" transform="translate(1044.199844 0)"/>
     <use xlink:href="#HiraginoSans-W7-30f3" transform="translate(1144.199829 0)"/>
     <use xlink:href="#HiraginoSans-W7-30b0" transform="translate(1244.199814 0)"/>
    </g>
   </g>
  </g>
 </g>
 <defs>
  <clipPath id="pcb392eae22">
   <rect x="7.2" y="26.704375" width="334.8" height="277.2"/>
  </clipPath>
 </defs>
</svg>
