<?xml version="1.0" encoding="utf-8" standalone="no"?>
<!DOCTYPE svg PUBLIC "-//W3C//DTD SVG 1.1//EN"
  "http://www.w3.org/Graphics/SVG/1.1/DTD/svg11.dtd">
<svg xmlns:xlink="http://www.w3.org/1999/xlink" width="784.31875pt" height="285.19875pt" viewBox="0 0 784.31875 285.19875" xmlns="http://www.w3.org/2000/svg" version="1.1">
 <metadata>
  <rdf:RDF xmlns:dc="http://purl.org/dc/elements/1.1/" xmlns:cc="http://creativecommons.org/ns#" xmlns:rdf="http://www.w3.org/1999/02/22-rdf-syntax-ns#">
   <cc:Work>
    <dc:type rdf:resource="http://purl.org/dc/dcmitype/StillImage"/>
    <dc:date>2026-03-29T01:14:59.404381</dc:date>
    <dc:format>image/svg+xml</dc:format>
    <dc:creator>
     <cc:Agent>
      <dc:title>Matplotlib v3.10.8, https://matplotlib.org/</dc:title>
     </cc:Agent>
    </dc:creator>
   </cc:Work>
  </rdf:RDF>
 </metadata>
 <defs>
  <style type="text/css">*{stroke-linejoin: round; stroke-linecap: butt}</style>
 </defs>
 <g id="figure_1">
  <g id="patch_1">
   <path d="M 0 285.19875 
L 784.31875 285.19875 
L 784.31875 0 
L 0 0 
z
" style="fill: #ffffff"/>
  </g>
  <g id="axes_1">
   <g id="patch_2">
    <path d="M 43.939063 247.48 
L 248.339062 247.48 
L 248.339062 52.8 
L 43.939063 52.8 
z
" style="fill: #ffffff"/>
   </g>
   <g id="patch_3">
    <path d="M 43.939063 247.48 
L 248.339062 247.48 
L 248.339062 137.352361 
L 43.939063 137.352361 
z
" clip-path="url(#p10cb6b8b43)" style="fill: #93c5fd; opacity: 0.85; stroke: #000000; stroke-width: 1.5; stroke-linejoin: miter"/>
   </g>
   <g id="matplotlib.axis_1">
    <g id="xtick_1">
     <g id="line2d_1">
      <defs>
       <path id="m1e789a70ec" d="M 0 0 
L 0 3.5 
" style="stroke: #000000; stroke-width: 0.8"/>
      </defs>
      <g>
       <use xlink:href="#m1e789a70ec" x="43.939063" y="247.48" style="stroke: #000000; stroke-width: 0.8"/>
      </g>
     </g>
     <g id="text_1">
      <!-- 0.0 -->
      <g transform="translate(35.959375 262.189375) scale(0.1 -0.1)">
       <defs>
        <path id="HiraginoSans-W4-30" d="M 2144 -90 
C 2758 -90 3232 141 3565 602 
C 3846 998 4019 1696 4019 2464 
C 4019 3002 3936 3501 3770 3949 
C 3693 4160 3558 4371 3379 4550 
C 3078 4858 2650 5024 2157 5024 
C 1498 5024 986 4742 666 4205 
C 435 3834 288 3142 288 2458 
C 288 1939 371 1434 538 986 
C 614 768 749 563 928 384 
C 1242 70 1651 -90 2144 -90 
z
M 2144 4499 
C 2592 4499 2918 4307 3123 3923 
C 3283 3629 3398 3014 3398 2470 
C 3398 2022 3341 1619 3213 1235 
C 3155 1043 3046 870 2912 730 
C 2726 538 2458 435 2150 435 
C 1734 435 1414 614 1197 973 
C 1024 1261 902 1875 902 2451 
C 902 2906 966 3328 1088 3699 
C 1139 3866 1235 4026 1370 4173 
C 1568 4397 1818 4499 2144 4499 
z
" transform="scale(0.015625)"/>
        <path id="HiraginoSans-W4-2e" d="M 442 723 
L 442 0 
L 1165 0 
L 1165 723 
L 442 723 
z
" transform="scale(0.015625)"/>
       </defs>
       <use xlink:href="#HiraginoSans-W4-30"/>
       <use xlink:href="#HiraginoSans-W4-2e" transform="translate(67.299988 0)"/>
       <use xlink:href="#HiraginoSans-W4-30" transform="translate(92.299973 0)"/>
      </g>
     </g>
    </g>
    <g id="xtick_2">
     <g id="line2d_2">
      <g>
       <use xlink:href="#m1e789a70ec" x="84.819063" y="247.48" style="stroke: #000000; stroke-width: 0.8"/>
      </g>
     </g>
     <g id="text_2">
      <!-- 0.2 -->
      <g transform="translate(76.839375 262.189375) scale(0.1 -0.1)">
       <defs>
        <path id="HiraginoSans-W4-32" d="M 3078 0 
C 3424 0 3642 -6 3917 -32 
L 3917 589 
C 3693 557 3430 544 3091 544 
L 1114 544 
C 1280 1114 1606 1478 2451 2042 
C 3181 2528 3341 2656 3546 2912 
C 3738 3142 3846 3443 3846 3744 
C 3846 4525 3200 5030 2202 5030 
C 1613 5030 1158 4858 858 4518 
C 640 4269 531 4026 442 3565 
L 1088 3469 
C 1139 3782 1190 3936 1306 4102 
C 1491 4371 1792 4506 2208 4506 
C 2816 4506 3206 4211 3206 3744 
C 3206 3360 2995 3085 2387 2675 
C 1754 2246 1600 2138 1389 1952 
C 979 1594 710 1229 544 806 
C 448 563 429 461 365 -26 
C 576 -6 678 0 1107 0 
L 3078 0 
z
" transform="scale(0.015625)"/>
       </defs>
       <use xlink:href="#HiraginoSans-W4-30"/>
       <use xlink:href="#HiraginoSans-W4-2e" transform="translate(67.299988 0)"/>
       <use xlink:href="#HiraginoSans-W4-32" transform="translate(92.299973 0)"/>
      </g>
     </g>
    </g>
    <g id="xtick_3">
     <g id="line2d_3">
      <g>
       <use xlink:href="#m1e789a70ec" x="125.699062" y="247.48" style="stroke: #000000; stroke-width: 0.8"/>
      </g>
     </g>
     <g id="text_3">
      <!-- 0.4 -->
      <g transform="translate(117.709219 262.189375) scale(0.1 -0.1)">
       <defs>
        <path id="HiraginoSans-W4-34" d="M 179 1210 
C 403 1229 589 1235 954 1235 
L 2688 1235 
L 2688 710 
C 2688 410 2675 218 2630 0 
L 3309 0 
C 3270 230 3258 390 3258 704 
L 3258 1235 
L 3494 1235 
C 3763 1235 3910 1222 4154 1190 
L 4154 1798 
C 3917 1766 3750 1754 3494 1754 
L 3258 1754 
L 3258 3853 
C 3258 4358 3264 4544 3296 4934 
L 2701 4934 
C 2560 4704 2445 4550 2214 4269 
L 621 2298 
C 467 2099 326 1939 179 1773 
L 179 1210 
z
M 2688 1747 
L 858 1747 
L 2259 3514 
C 2464 3763 2592 3936 2720 4128 
C 2694 3814 2688 3622 2688 3283 
L 2688 1747 
z
" transform="scale(0.015625)"/>
       </defs>
       <use xlink:href="#HiraginoSans-W4-30"/>
       <use xlink:href="#HiraginoSans-W4-2e" transform="translate(67.299988 0)"/>
       <use xlink:href="#HiraginoSans-W4-34" transform="translate(92.299973 0)"/>
      </g>
     </g>
    </g>
    <g id="xtick_4">
     <g id="line2d_4">
      <g>
       <use xlink:href="#m1e789a70ec" x="166.579063" y="247.48" style="stroke: #000000; stroke-width: 0.8"/>
      </g>
     </g>
     <g id="text_4">
      <!-- 0.6 -->
      <g transform="translate(158.599375 262.189375) scale(0.1 -0.1)">
       <defs>
        <path id="HiraginoSans-W4-36" d="M 3846 3994 
C 3706 4301 3616 4442 3462 4602 
C 3187 4877 2784 5024 2304 5024 
C 1683 5024 1222 4794 864 4307 
C 557 3891 371 3162 371 2355 
C 371 1446 614 704 1043 320 
C 1331 58 1773 -90 2253 -90 
C 3277 -90 3968 589 3968 1587 
C 3968 2586 3334 3213 2323 3213 
C 1894 3213 1568 3104 1274 2854 
C 1133 2739 1062 2656 941 2458 
C 979 3085 1043 3392 1210 3763 
C 1434 4262 1798 4518 2285 4518 
C 2765 4518 3040 4314 3238 3821 
L 3846 3994 
z
M 2266 2714 
C 2950 2714 3366 2285 3366 1574 
C 3366 1325 3309 1088 3206 922 
C 3008 614 2643 422 2234 422 
C 1568 422 1069 915 1069 1574 
C 1069 2234 1574 2714 2266 2714 
z
" transform="scale(0.015625)"/>
       </defs>
       <use xlink:href="#HiraginoSans-W4-30"/>
       <use xlink:href="#HiraginoSans-W4-2e" transform="translate(67.299988 0)"/>
       <use xlink:href="#HiraginoSans-W4-36" transform="translate(92.299973 0)"/>
      </g>
     </g>
    </g>
    <g id="xtick_5">
     <g id="line2d_5">
      <g>
       <use xlink:href="#m1e789a70ec" x="207.459062" y="247.48" style="stroke: #000000; stroke-width: 0.8"/>
      </g>
     </g>
     <g id="text_5">
      <!-- 0.8 -->
      <g transform="translate(199.479375 262.189375) scale(0.1 -0.1)">
       <defs>
        <path id="HiraginoSans-W4-38" d="M 1446 2586 
C 1203 2547 1056 2490 851 2355 
C 480 2106 294 1754 294 1299 
C 294 397 966 -102 2163 -102 
C 3347 -102 4006 397 4006 1299 
C 4006 1728 3853 2061 3539 2304 
C 3322 2470 3136 2547 2867 2586 
C 3437 2714 3789 3162 3789 3757 
C 3789 4550 3162 5043 2150 5043 
C 1146 5043 512 4544 512 3750 
C 512 3162 877 2701 1446 2586 
z
M 2150 4538 
C 2784 4538 3187 4211 3187 3699 
C 3187 3155 2797 2829 2157 2829 
C 1510 2829 1114 3162 1114 3699 
C 1114 4211 1523 4538 2150 4538 
z
M 2157 2304 
C 2912 2304 3373 1939 3373 1344 
C 3373 749 2925 410 2144 410 
C 1376 410 928 749 928 1338 
C 928 1939 1389 2304 2157 2304 
z
" transform="scale(0.015625)"/>
       </defs>
       <use xlink:href="#HiraginoSans-W4-30"/>
       <use xlink:href="#HiraginoSans-W4-2e" transform="translate(67.299988 0)"/>
       <use xlink:href="#HiraginoSans-W4-38" transform="translate(92.299973 0)"/>
      </g>
     </g>
    </g>
    <g id="xtick_6">
     <g id="line2d_6">
      <g>
       <use xlink:href="#m1e789a70ec" x="248.339062" y="247.48" style="stroke: #000000; stroke-width: 0.8"/>
      </g>
     </g>
     <g id="text_6">
      <!-- 1.0 -->
      <g transform="translate(240.359375 262.189375) scale(0.1 -0.1)">
       <defs>
        <path id="HiraginoSans-W4-31" d="M 1018 4371 
C 1222 4397 1389 4410 1606 4410 
L 1939 4410 
L 1939 755 
C 1939 454 1926 237 1888 0 
L 2598 0 
C 2560 250 2547 448 2547 755 
L 2547 3904 
C 2547 4256 2566 4582 2605 4966 
C 2387 4941 2278 4934 2035 4934 
L 1581 4934 
C 1325 4934 1197 4941 1018 4966 
L 1018 4371 
z
" transform="scale(0.015625)"/>
       </defs>
       <use xlink:href="#HiraginoSans-W4-31"/>
       <use xlink:href="#HiraginoSans-W4-2e" transform="translate(67.299988 0)"/>
       <use xlink:href="#HiraginoSans-W4-30" transform="translate(92.299973 0)"/>
      </g>
     </g>
    </g>
    <g id="text_7">
     <!-- x -->
     <g transform="translate(143.34375 275.94875) scale(0.1 -0.1)">
      <defs>
       <path id="HiraginoSans-W4-78" d="M 3469 0 
C 3238 294 3078 512 3008 614 
L 2138 1824 
L 2963 2982 
C 3021 3072 3168 3270 3206 3322 
C 3315 3462 3315 3462 3354 3520 
L 2630 3520 
C 2566 3386 2483 3238 2368 3072 
L 1792 2227 
L 1203 3072 
C 1088 3238 1024 3360 947 3520 
L 211 3520 
C 474 3174 557 3072 608 3002 
L 1440 1830 
L 531 563 
C 422 410 237 160 109 0 
L 858 0 
C 966 205 1018 294 1114 435 
L 1786 1421 
L 2426 486 
C 2566 288 2624 192 2720 0 
L 3469 0 
z
" transform="scale(0.015625)"/>
      </defs>
      <use xlink:href="#HiraginoSans-W4-78"/>
     </g>
    </g>
   </g>
   <g id="matplotlib.axis_2">
    <g id="ytick_1">
     <g id="line2d_7">
      <defs>
       <path id="m6804c60f45" d="M 0 0 
L -3.5 0 
" style="stroke: #000000; stroke-width: 0.8"/>
      </defs>
      <g>
       <use xlink:href="#m6804c60f45" x="43.939063" y="247.48" style="stroke: #000000; stroke-width: 0.8"/>
      </g>
     </g>
     <g id="text_8">
      <!-- 0.0 -->
      <g transform="translate(20.979688 251.334687) scale(0.1 -0.1)">
       <use xlink:href="#HiraginoSans-W4-30"/>
       <use xlink:href="#HiraginoSans-W4-2e" transform="translate(67.299988 0)"/>
       <use xlink:href="#HiraginoSans-W4-30" transform="translate(92.299973 0)"/>
      </g>
     </g>
    </g>
    <g id="ytick_2">
     <g id="line2d_8">
      <g>
       <use xlink:href="#m6804c60f45" x="43.939063" y="216.3312" style="stroke: #000000; stroke-width: 0.8"/>
      </g>
     </g>
     <g id="text_9">
      <!-- 0.2 -->
      <g transform="translate(20.979688 220.185887) scale(0.1 -0.1)">
       <use xlink:href="#HiraginoSans-W4-30"/>
       <use xlink:href="#HiraginoSans-W4-2e" transform="translate(67.299988 0)"/>
       <use xlink:href="#HiraginoSans-W4-32" transform="translate(92.299973 0)"/>
      </g>
     </g>
    </g>
    <g id="ytick_3">
     <g id="line2d_9">
      <g>
       <use xlink:href="#m6804c60f45" x="43.939063" y="185.1824" style="stroke: #000000; stroke-width: 0.8"/>
      </g>
     </g>
     <g id="text_10">
      <!-- 0.4 -->
      <g transform="translate(20.959375 189.037087) scale(0.1 -0.1)">
       <use xlink:href="#HiraginoSans-W4-30"/>
       <use xlink:href="#HiraginoSans-W4-2e" transform="translate(67.299988 0)"/>
       <use xlink:href="#HiraginoSans-W4-34" transform="translate(92.299973 0)"/>
      </g>
     </g>
    </g>
    <g id="ytick_4">
     <g id="line2d_10">
      <g>
       <use xlink:href="#m6804c60f45" x="43.939063" y="154.0336" style="stroke: #000000; stroke-width: 0.8"/>
      </g>
     </g>
     <g id="text_11">
      <!-- 0.6 -->
      <g transform="translate(20.979688 157.888287) scale(0.1 -0.1)">
       <use xlink:href="#HiraginoSans-W4-30"/>
       <use xlink:href="#HiraginoSans-W4-2e" transform="translate(67.299988 0)"/>
       <use xlink:href="#HiraginoSans-W4-36" transform="translate(92.299973 0)"/>
      </g>
     </g>
    </g>
    <g id="ytick_5">
     <g id="line2d_11">
      <g>
       <use xlink:href="#m6804c60f45" x="43.939063" y="122.8848" style="stroke: #000000; stroke-width: 0.8"/>
      </g>
     </g>
     <g id="text_12">
      <!-- 0.8 -->
      <g transform="translate(20.979688 126.739487) scale(0.1 -0.1)">
       <use xlink:href="#HiraginoSans-W4-30"/>
       <use xlink:href="#HiraginoSans-W4-2e" transform="translate(67.299988 0)"/>
       <use xlink:href="#HiraginoSans-W4-38" transform="translate(92.299973 0)"/>
      </g>
     </g>
    </g>
    <g id="ytick_6">
     <g id="line2d_12">
      <g>
       <use xlink:href="#m6804c60f45" x="43.939063" y="91.736" style="stroke: #000000; stroke-width: 0.8"/>
      </g>
     </g>
     <g id="text_13">
      <!-- 1.0 -->
      <g transform="translate(20.979688 95.590687) scale(0.1 -0.1)">
       <use xlink:href="#HiraginoSans-W4-31"/>
       <use xlink:href="#HiraginoSans-W4-2e" transform="translate(67.299988 0)"/>
       <use xlink:href="#HiraginoSans-W4-30" transform="translate(92.299973 0)"/>
      </g>
     </g>
    </g>
    <g id="ytick_7">
     <g id="line2d_13">
      <g>
       <use xlink:href="#m6804c60f45" x="43.939063" y="60.5872" style="stroke: #000000; stroke-width: 0.8"/>
      </g>
     </g>
     <g id="text_14">
      <!-- 1.2 -->
      <g transform="translate(20.979688 64.441887) scale(0.1 -0.1)">
       <use xlink:href="#HiraginoSans-W4-31"/>
       <use xlink:href="#HiraginoSans-W4-2e" transform="translate(67.299988 0)"/>
       <use xlink:href="#HiraginoSans-W4-32" transform="translate(92.299973 0)"/>
      </g>
     </g>
    </g>
    <g id="text_15">
     <!-- y -->
     <g transform="translate(14.859375 153.010312) rotate(-90) scale(0.1 -0.1)">
      <defs>
       <path id="HiraginoSans-W4-79" d="M 1600 154 
L 1325 -486 
C 1229 -710 1069 -832 858 -832 
C 730 -832 621 -800 442 -717 
L 301 -1274 
C 550 -1325 710 -1344 864 -1344 
C 1357 -1344 1664 -1146 1843 -717 
L 3283 2758 
C 3462 3181 3571 3437 3603 3520 
L 2912 3520 
C 2880 3334 2829 3168 2694 2816 
L 1901 768 
L 1011 2822 
C 902 3072 819 3341 787 3520 
L 64 3520 
C 134 3386 134 3386 422 2758 
L 1600 154 
z
" transform="scale(0.015625)"/>
      </defs>
      <use xlink:href="#HiraginoSans-W4-79"/>
     </g>
    </g>
   </g>
   <g id="patch_4">
    <path d="M 43.939063 247.48 
L 43.939063 52.8 
" style="fill: none; stroke: #000000; stroke-width: 0.8; stroke-linejoin: miter; stroke-linecap: square"/>
   </g>
   <g id="patch_5">
    <path d="M 43.939063 247.48 
L 248.339062 247.48 
" style="fill: none; stroke: #000000; stroke-width: 0.8; stroke-linejoin: miter; stroke-linecap: square"/>
   </g>
   <g id="text_16">
    <!-- n = 1 -->
    <g style="fill: #1a1a2e" transform="translate(130.695234 46.8) scale(0.11 -0.11)">
     <defs>
      <path id="HiraginoSans-W7-6e" d="M 1485 -134 
C 1446 179 1434 416 1434 762 
L 1434 2061 
C 1709 2541 2106 2835 2483 2835 
C 2637 2835 2765 2797 2861 2726 
C 3014 2611 3066 2464 3066 2131 
L 3066 762 
C 3066 403 3053 166 3014 -134 
L 4134 -134 
C 4096 128 4083 371 4083 762 
L 4083 2374 
C 4083 3245 3610 3731 2758 3731 
C 2214 3731 1811 3552 1414 3142 
C 1421 3264 1427 3347 1427 3398 
L 1427 3654 
L 371 3654 
C 410 3411 422 3168 422 2758 
L 422 762 
C 422 390 410 154 371 -134 
L 1485 -134 
z
" transform="scale(0.015625)"/>
      <path id="HiraginoSans-W7-20" transform="scale(0.015625)"/>
      <path id="HiraginoSans-W7-3d" d="M 294 3008 
L 294 2112 
L 4173 2112 
L 4173 3008 
L 294 3008 
z
M 294 1427 
L 294 531 
L 4173 531 
L 4173 1427 
L 294 1427 
z
" transform="scale(0.015625)"/>
      <path id="HiraginoSans-W7-31" d="M 947 4122 
C 1216 4154 1414 4166 1664 4166 
L 1946 4166 
L 1946 762 
C 1946 410 1926 122 1894 -134 
L 3066 -134 
C 3027 160 3014 403 3014 762 
L 3014 4058 
C 3014 4461 3027 4736 3066 5094 
C 2816 5075 2726 5069 2342 5069 
L 1645 5069 
C 1318 5069 1158 5075 947 5107 
L 947 4122 
z
" transform="scale(0.015625)"/>
     </defs>
     <use xlink:href="#HiraginoSans-W7-6e"/>
     <use xlink:href="#HiraginoSans-W7-20" transform="translate(70.199982 0)"/>
     <use xlink:href="#HiraginoSans-W7-3d" transform="translate(103.499969 0)"/>
     <use xlink:href="#HiraginoSans-W7-20" transform="translate(173.399963 0)"/>
     <use xlink:href="#HiraginoSans-W7-31" transform="translate(206.699951 0)"/>
    </g>
   </g>
   <g id="line2d_14">
    <path d="M 43.939063 247.48 
L 44.348682 240.507941 
L 45.16792 235.40404 
L 45.987159 231.890002 
L 47.216016 227.760039 
L 48.444874 224.356296 
L 50.083351 220.477332 
L 52.131447 216.300004 
L 54.179543 212.619705 
L 56.637259 208.661219 
L 59.504594 204.501342 
L 62.781547 200.193195 
L 66.058501 196.246039 
L 69.745075 192.140998 
L 73.841267 187.910702 
L 78.347079 183.580024 
L 83.262509 179.168052 
L 88.587559 174.689567 
L 94.322229 170.156125 
L 100.466517 165.576852 
L 107.020425 160.959024 
L 114.393572 156.042304 
L 122.176337 151.124228 
L 130.368722 146.204994 
L 139.380345 141.056139 
L 148.801588 135.927056 
L 159.042069 130.606995 
L 170.101788 125.120862 
L 181.571127 119.680048 
L 193.859704 114.096658 
L 206.967519 108.38786 
L 220.894574 102.568476 
L 235.640866 96.651303 
L 248.339062 91.736 
L 248.339062 91.736 
" clip-path="url(#p10cb6b8b43)" style="fill: none; stroke: #c0392b; stroke-width: 2.2; stroke-linecap: square"/>
   </g>
   <g id="legend_1">
    <g id="patch_6">
     <path d="M 49.539063 83.1675 
L 110.659063 83.1675 
Q 112.259062 83.1675 112.259062 81.5675 
L 112.259062 58.4 
Q 112.259062 56.8 110.659063 56.8 
L 49.539063 56.8 
Q 47.939063 56.8 47.939063 58.4 
L 47.939063 81.5675 
Q 47.939063 83.1675 49.539063 83.1675 
z
" style="fill: #ffffff; opacity: 0.8; stroke: #cccccc; stroke-linejoin: miter"/>
    </g>
    <g id="patch_7">
     <path d="M 51.139063 66.1675 
L 67.139063 66.1675 
L 67.139063 60.5675 
L 51.139063 60.5675 
z
" style="fill: #93c5fd; opacity: 0.85; stroke: #000000; stroke-width: 1.5; stroke-linejoin: miter"/>
    </g>
    <g id="text_17">
     <!-- 単関数 -->
     <g transform="translate(73.539062 66.1675) scale(0.08 -0.08)">
      <defs>
       <path id="HiraginoSans-W4-5358" d="M 2912 1651 
L 2912 1094 
L 1030 1094 
C 736 1094 557 1107 365 1133 
L 365 608 
C 550 634 768 646 1062 646 
L 2912 646 
L 2912 109 
C 2912 -198 2906 -326 2874 -499 
L 3437 -499 
C 3398 -314 3392 -186 3392 109 
L 3392 646 
L 5338 646 
C 5632 646 5850 634 6042 608 
L 6042 1133 
C 5862 1107 5677 1094 5376 1094 
L 3392 1094 
L 3392 1651 
L 4787 1651 
C 5030 1651 5203 1645 5434 1626 
C 5414 1792 5408 1958 5408 2266 
L 5408 3456 
C 5408 3776 5414 3942 5434 4115 
C 5286 4096 5107 4090 4787 4090 
L 4653 4090 
C 4883 4378 5043 4621 5318 5088 
L 4787 5267 
C 4614 4838 4435 4531 4115 4090 
L 1658 4090 
L 2106 4294 
C 1869 4698 1766 4845 1453 5210 
L 1011 5011 
C 1325 4659 1434 4499 1645 4090 
C 1293 4090 1133 4096 973 4115 
C 992 3936 998 3770 998 3456 
L 998 2246 
C 998 1965 992 1850 973 1626 
C 1171 1645 1350 1651 1619 1651 
L 2912 1651 
z
M 3392 3098 
L 3392 3680 
L 4934 3680 
L 4934 3098 
L 3392 3098 
z
M 2912 3098 
L 1472 3098 
L 1472 3680 
L 2912 3680 
L 2912 3098 
z
M 3392 2067 
L 3392 2694 
L 4934 2694 
L 4934 2067 
L 3392 2067 
z
M 2912 2067 
L 1472 2067 
L 1472 2694 
L 2912 2694 
L 2912 2067 
z
M 3603 4397 
C 3398 4832 3328 4960 3053 5357 
L 2592 5210 
C 2880 4794 2957 4659 3130 4205 
L 3603 4397 
z
" transform="scale(0.015625)"/>
       <path id="HiraginoSans-W4-95a2" d="M 4365 1216 
C 4614 1216 4774 1210 4922 1184 
L 4922 1619 
C 4762 1594 4634 1587 4365 1587 
L 3322 1587 
C 3347 1766 3354 1862 3366 2112 
L 4275 2112 
C 4499 2112 4666 2106 4794 2086 
L 4794 2509 
C 4640 2483 4512 2477 4269 2477 
L 3949 2477 
C 4083 2669 4166 2803 4282 3014 
L 3853 3130 
C 3725 2848 3654 2714 3494 2477 
L 2874 2477 
C 2758 2694 2637 2874 2458 3123 
L 2054 2982 
C 2234 2771 2317 2650 2419 2477 
L 2125 2477 
C 1875 2477 1760 2483 1606 2509 
L 1606 2086 
C 1747 2106 1894 2112 2131 2112 
L 2925 2112 
C 2918 1862 2912 1773 2893 1587 
L 2022 1587 
C 1754 1587 1613 1594 1466 1619 
L 1466 1184 
C 1638 1210 1792 1216 2042 1216 
L 2803 1216 
C 2682 909 2541 723 2272 544 
C 2042 384 1811 294 1357 166 
C 1472 45 1542 -64 1632 -230 
C 2125 -58 2387 77 2650 294 
C 2886 486 3034 691 3155 973 
C 3494 499 3910 186 4499 -32 
C 4570 147 4614 230 4723 390 
C 4115 563 3750 800 3430 1216 
L 4365 1216 
z
M 1056 3245 
L 2253 3245 
C 2515 3245 2714 3238 2886 3226 
C 2874 3379 2867 3539 2867 3814 
L 2867 4576 
C 2867 4826 2874 5011 2886 5178 
C 2707 5158 2554 5152 2234 5152 
L 1222 5152 
C 902 5152 736 5158 557 5178 
C 576 4973 582 4794 582 4474 
L 582 269 
C 582 -90 570 -288 544 -467 
L 1094 -467 
C 1069 -307 1056 -96 1056 262 
L 1056 3245 
z
M 1056 4800 
L 2426 4800 
L 2426 4384 
L 1056 4384 
L 1056 4800 
z
M 1056 4038 
L 2426 4038 
L 2426 3603 
L 1056 3603 
L 1056 4038 
z
M 5830 4474 
C 5830 4762 5837 4928 5862 5178 
C 5677 5158 5517 5152 5190 5152 
L 4064 5152 
C 3744 5152 3590 5158 3411 5178 
C 3424 4973 3430 4806 3430 4576 
L 3430 3814 
C 3430 3565 3424 3405 3411 3226 
C 3590 3238 3770 3245 4045 3245 
L 5357 3245 
L 5357 205 
C 5357 64 5312 26 5126 26 
C 4928 26 4838 32 4550 77 
C 4621 -83 4640 -173 4659 -397 
C 4806 -403 4928 -410 5011 -410 
C 5357 -410 5510 -397 5606 -352 
C 5779 -275 5830 -147 5830 166 
L 5830 4474 
z
M 3872 4800 
L 5357 4800 
L 5357 4384 
L 3872 4384 
L 3872 4800 
z
M 3872 4038 
L 5357 4038 
L 5357 3603 
L 3872 3603 
L 3872 4038 
z
" transform="scale(0.015625)"/>
       <path id="HiraginoSans-W4-6570" d="M 6170 4173 
C 6003 4141 5862 4134 5568 4134 
L 4288 4134 
C 4365 4384 4435 4627 4512 4947 
C 4557 5126 4563 5152 4595 5235 
L 4077 5344 
C 4070 5158 4032 4934 3974 4672 
C 3782 3853 3437 3130 2995 2598 
C 3142 2509 3226 2438 3354 2291 
C 3526 2515 3610 2643 3770 2931 
C 3904 2176 4070 1702 4397 1158 
C 4013 653 3526 275 2803 -77 
C 2944 -218 3021 -326 3110 -506 
C 3776 -141 4256 250 4666 755 
C 5069 230 5485 -141 6035 -467 
C 6138 -237 6202 -128 6317 13 
C 5747 314 5338 653 4954 1158 
C 5171 1523 5325 1875 5440 2304 
C 5562 2739 5613 3078 5651 3699 
C 5920 3699 6035 3693 6170 3667 
L 6170 4173 
z
M 5184 3699 
C 5133 2797 4992 2214 4672 1600 
C 4358 2170 4192 2707 4064 3539 
C 4096 3610 4102 3629 4128 3699 
L 5184 3699 
z
M 3046 339 
C 2752 512 2656 570 2419 685 
C 2643 992 2746 1190 2880 1626 
L 2963 1626 
C 3187 1626 3309 1619 3443 1594 
L 3443 2067 
C 3328 2042 3206 2035 2989 2035 
L 1862 2035 
C 1926 2176 1958 2234 2029 2426 
L 1562 2528 
C 1485 2285 1453 2202 1382 2035 
L 832 2035 
C 608 2035 493 2042 365 2067 
L 365 1594 
C 499 1619 614 1626 832 1626 
L 1165 1626 
C 1005 1344 941 1248 723 954 
C 1203 774 1402 691 1702 550 
C 1376 294 902 83 326 -58 
C 429 -205 493 -314 563 -480 
C 1325 -224 1715 -19 2112 346 
C 2432 173 2502 122 2778 -77 
L 3046 339 
z
M 2419 1626 
C 2310 1306 2214 1120 2022 870 
C 1818 960 1709 1005 1357 1146 
C 1504 1370 1549 1440 1651 1626 
L 2419 1626 
z
M 2163 4070 
L 2163 4902 
C 2163 5075 2170 5203 2189 5325 
L 1696 5325 
C 1722 5184 1728 5075 1728 4896 
L 1728 4070 
L 915 4070 
C 666 4070 531 4077 390 4102 
L 390 3642 
C 518 3667 678 3674 902 3674 
L 1434 3674 
C 1133 3258 864 3034 269 2688 
C 410 2566 486 2477 589 2317 
C 1184 2739 1408 2963 1747 3494 
C 1734 3366 1728 3258 1728 3162 
L 1728 2835 
C 1728 2752 1722 2662 1702 2586 
L 2182 2586 
C 2170 2662 2163 2758 2163 2848 
L 2163 3168 
C 2163 3258 2157 3347 2138 3494 
C 2355 3162 2490 3014 2848 2739 
C 2989 2970 3002 2982 3130 3110 
C 2816 3277 2566 3469 2406 3674 
L 2989 3674 
C 3200 3674 3309 3667 3418 3648 
L 3418 4096 
C 3322 4077 3200 4070 2995 4070 
L 2163 4070 
z
M 570 5056 
C 774 4768 896 4550 1024 4211 
L 1427 4371 
C 1286 4704 1190 4883 960 5210 
L 570 5056 
z
M 2918 5235 
C 2784 4883 2643 4634 2406 4333 
L 2790 4147 
C 3008 4442 3104 4608 3328 5050 
L 2918 5235 
z
" transform="scale(0.015625)"/>
      </defs>
      <use xlink:href="#HiraginoSans-W4-5358"/>
      <use xlink:href="#HiraginoSans-W4-95a2" transform="translate(99.999985 0)"/>
      <use xlink:href="#HiraginoSans-W4-6570" transform="translate(199.999969 0)"/>
     </g>
    </g>
    <g id="line2d_15">
     <path d="M 51.139063 75.5275 
L 59.139063 75.5275 
L 67.139063 75.5275 
" style="fill: none; stroke: #c0392b; stroke-width: 2.2; stroke-linecap: square"/>
    </g>
    <g id="text_18">
     <!-- $f(x)=\sqrt{x}$ -->
     <g transform="translate(73.539062 78.3275) scale(0.08 -0.08)">
      <defs>
       <path id="DejaVuSans-Oblique-66" d="M 3059 4863 
L 2969 4384 
L 2419 4384 
Q 2106 4384 1964 4261 
Q 1822 4138 1753 3809 
L 1691 3500 
L 2638 3500 
L 2553 3053 
L 1606 3053 
L 1013 0 
L 434 0 
L 1031 3053 
L 481 3053 
L 563 3500 
L 1113 3500 
L 1159 3744 
Q 1278 4363 1576 4613 
Q 1875 4863 2516 4863 
L 3059 4863 
z
" transform="scale(0.015625)"/>
       <path id="DejaVuSans-28" d="M 1984 4856 
Q 1566 4138 1362 3434 
Q 1159 2731 1159 2009 
Q 1159 1288 1364 580 
Q 1569 -128 1984 -844 
L 1484 -844 
Q 1016 -109 783 600 
Q 550 1309 550 2009 
Q 550 2706 781 3412 
Q 1013 4119 1484 4856 
L 1984 4856 
z
" transform="scale(0.015625)"/>
       <path id="DejaVuSans-Oblique-78" d="M 3841 3500 
L 2234 1784 
L 3219 0 
L 2559 0 
L 1819 1388 
L 531 0 
L -166 0 
L 1556 1844 
L 641 3500 
L 1300 3500 
L 1972 2234 
L 3144 3500 
L 3841 3500 
z
" transform="scale(0.015625)"/>
       <path id="DejaVuSans-29" d="M 513 4856 
L 1013 4856 
Q 1481 4119 1714 3412 
Q 1947 2706 1947 2009 
Q 1947 1309 1714 600 
Q 1481 -109 1013 -844 
L 513 -844 
Q 928 -128 1133 580 
Q 1338 1288 1338 2009 
Q 1338 2731 1133 3434 
Q 928 4138 513 4856 
z
" transform="scale(0.015625)"/>
       <path id="DejaVuSans-3d" d="M 678 2906 
L 4684 2906 
L 4684 2381 
L 678 2381 
L 678 2906 
z
M 678 1631 
L 4684 1631 
L 4684 1100 
L 678 1100 
L 678 1631 
z
" transform="scale(0.015625)"/>
       <path id="DejaVuSans-221a" d="M 3488 5191 
L 4078 5191 
L 4078 4891 
L 3719 4891 
L 1863 -128 
L 1656 -128 
L 659 2631 
L 269 2491 
L 191 2741 
L 1075 3047 
L 1875 831 
L 3488 5191 
z
" transform="scale(0.015625)"/>
      </defs>
      <use xlink:href="#DejaVuSans-Oblique-66" transform="translate(0 0.890625)"/>
      <use xlink:href="#DejaVuSans-28" transform="translate(35.205078 0.890625)"/>
      <use xlink:href="#DejaVuSans-Oblique-78" transform="translate(74.21875 0.890625)"/>
      <use xlink:href="#DejaVuSans-29" transform="translate(133.398438 0.890625)"/>
      <use xlink:href="#DejaVuSans-3d" transform="translate(191.894531 0.890625)"/>
      <use xlink:href="#DejaVuSans-221a" transform="translate(295.166016 0.890625)"/>
      <use xlink:href="#DejaVuSans-Oblique-78" transform="translate(371.386719 1.0625)"/>
      <path d="M 358.886719 75.5 
L 358.886719 81.75 
L 443.066406 81.75 
L 443.066406 75.5 
L 358.886719 75.5 
z
"/>
     </g>
    </g>
   </g>
  </g>
  <g id="axes_2">
   <g id="patch_8">
    <path d="M 304.339062 247.48 
L 508.739062 247.48 
L 508.739062 52.8 
L 304.339062 52.8 
z
" style="fill: #ffffff"/>
   </g>
   <g id="patch_9">
    <path d="M 304.339062 247.48 
L 406.539062 247.48 
L 406.539062 169.608 
L 304.339062 169.608 
z
" clip-path="url(#p33fc603b9d)" style="fill: #93c5fd; opacity: 0.85; stroke: #000000; stroke-width: 1.5; stroke-linejoin: miter"/>
   </g>
   <g id="patch_10">
    <path d="M 406.539062 247.48 
L 508.739062 247.48 
L 508.739062 112.60174 
L 406.539062 112.60174 
z
" clip-path="url(#p33fc603b9d)" style="fill: #93c5fd; opacity: 0.85; stroke: #000000; stroke-width: 1.5; stroke-linejoin: miter"/>
   </g>
   <g id="matplotlib.axis_3">
    <g id="xtick_7">
     <g id="line2d_16">
      <g>
       <use xlink:href="#m1e789a70ec" x="304.339062" y="247.48" style="stroke: #000000; stroke-width: 0.8"/>
      </g>
     </g>
     <g id="text_19">
      <!-- 0.0 -->
      <g transform="translate(296.359375 262.189375) scale(0.1 -0.1)">
       <use xlink:href="#HiraginoSans-W4-30"/>
       <use xlink:href="#HiraginoSans-W4-2e" transform="translate(67.299988 0)"/>
       <use xlink:href="#HiraginoSans-W4-30" transform="translate(92.299973 0)"/>
      </g>
     </g>
    </g>
    <g id="xtick_8">
     <g id="line2d_17">
      <g>
       <use xlink:href="#m1e789a70ec" x="345.219062" y="247.48" style="stroke: #000000; stroke-width: 0.8"/>
      </g>
     </g>
     <g id="text_20">
      <!-- 0.2 -->
      <g transform="translate(337.239375 262.189375) scale(0.1 -0.1)">
       <use xlink:href="#HiraginoSans-W4-30"/>
       <use xlink:href="#HiraginoSans-W4-2e" transform="translate(67.299988 0)"/>
       <use xlink:href="#HiraginoSans-W4-32" transform="translate(92.299973 0)"/>
      </g>
     </g>
    </g>
    <g id="xtick_9">
     <g id="line2d_18">
      <g>
       <use xlink:href="#m1e789a70ec" x="386.099062" y="247.48" style="stroke: #000000; stroke-width: 0.8"/>
      </g>
     </g>
     <g id="text_21">
      <!-- 0.4 -->
      <g transform="translate(378.109219 262.189375) scale(0.1 -0.1)">
       <use xlink:href="#HiraginoSans-W4-30"/>
       <use xlink:href="#HiraginoSans-W4-2e" transform="translate(67.299988 0)"/>
       <use xlink:href="#HiraginoSans-W4-34" transform="translate(92.299973 0)"/>
      </g>
     </g>
    </g>
    <g id="xtick_10">
     <g id="line2d_19">
      <g>
       <use xlink:href="#m1e789a70ec" x="426.979062" y="247.48" style="stroke: #000000; stroke-width: 0.8"/>
      </g>
     </g>
     <g id="text_22">
      <!-- 0.6 -->
      <g transform="translate(418.999375 262.189375) scale(0.1 -0.1)">
       <use xlink:href="#HiraginoSans-W4-30"/>
       <use xlink:href="#HiraginoSans-W4-2e" transform="translate(67.299988 0)"/>
       <use xlink:href="#HiraginoSans-W4-36" transform="translate(92.299973 0)"/>
      </g>
     </g>
    </g>
    <g id="xtick_11">
     <g id="line2d_20">
      <g>
       <use xlink:href="#m1e789a70ec" x="467.859062" y="247.48" style="stroke: #000000; stroke-width: 0.8"/>
      </g>
     </g>
     <g id="text_23">
      <!-- 0.8 -->
      <g transform="translate(459.879375 262.189375) scale(0.1 -0.1)">
       <use xlink:href="#HiraginoSans-W4-30"/>
       <use xlink:href="#HiraginoSans-W4-2e" transform="translate(67.299988 0)"/>
       <use xlink:href="#HiraginoSans-W4-38" transform="translate(92.299973 0)"/>
      </g>
     </g>
    </g>
    <g id="xtick_12">
     <g id="line2d_21">
      <g>
       <use xlink:href="#m1e789a70ec" x="508.739062" y="247.48" style="stroke: #000000; stroke-width: 0.8"/>
      </g>
     </g>
     <g id="text_24">
      <!-- 1.0 -->
      <g transform="translate(500.759375 262.189375) scale(0.1 -0.1)">
       <use xlink:href="#HiraginoSans-W4-31"/>
       <use xlink:href="#HiraginoSans-W4-2e" transform="translate(67.299988 0)"/>
       <use xlink:href="#HiraginoSans-W4-30" transform="translate(92.299973 0)"/>
      </g>
     </g>
    </g>
    <g id="text_25">
     <!-- x -->
     <g transform="translate(403.74375 275.94875) scale(0.1 -0.1)">
      <use xlink:href="#HiraginoSans-W4-78"/>
     </g>
    </g>
   </g>
   <g id="matplotlib.axis_4">
    <g id="ytick_8">
     <g id="line2d_22">
      <g>
       <use xlink:href="#m6804c60f45" x="304.339062" y="247.48" style="stroke: #000000; stroke-width: 0.8"/>
      </g>
     </g>
     <g id="text_26">
      <!-- 0.0 -->
      <g transform="translate(281.379687 251.334687) scale(0.1 -0.1)">
       <use xlink:href="#HiraginoSans-W4-30"/>
       <use xlink:href="#HiraginoSans-W4-2e" transform="translate(67.299988 0)"/>
       <use xlink:href="#HiraginoSans-W4-30" transform="translate(92.299973 0)"/>
      </g>
     </g>
    </g>
    <g id="ytick_9">
     <g id="line2d_23">
      <g>
       <use xlink:href="#m6804c60f45" x="304.339062" y="216.3312" style="stroke: #000000; stroke-width: 0.8"/>
      </g>
     </g>
     <g id="text_27">
      <!-- 0.2 -->
      <g transform="translate(281.379687 220.185887) scale(0.1 -0.1)">
       <use xlink:href="#HiraginoSans-W4-30"/>
       <use xlink:href="#HiraginoSans-W4-2e" transform="translate(67.299988 0)"/>
       <use xlink:href="#HiraginoSans-W4-32" transform="translate(92.299973 0)"/>
      </g>
     </g>
    </g>
    <g id="ytick_10">
     <g id="line2d_24">
      <g>
       <use xlink:href="#m6804c60f45" x="304.339062" y="185.1824" style="stroke: #000000; stroke-width: 0.8"/>
      </g>
     </g>
     <g id="text_28">
      <!-- 0.4 -->
      <g transform="translate(281.359375 189.037087) scale(0.1 -0.1)">
       <use xlink:href="#HiraginoSans-W4-30"/>
       <use xlink:href="#HiraginoSans-W4-2e" transform="translate(67.299988 0)"/>
       <use xlink:href="#HiraginoSans-W4-34" transform="translate(92.299973 0)"/>
      </g>
     </g>
    </g>
    <g id="ytick_11">
     <g id="line2d_25">
      <g>
       <use xlink:href="#m6804c60f45" x="304.339062" y="154.0336" style="stroke: #000000; stroke-width: 0.8"/>
      </g>
     </g>
     <g id="text_29">
      <!-- 0.6 -->
      <g transform="translate(281.379687 157.888287) scale(0.1 -0.1)">
       <use xlink:href="#HiraginoSans-W4-30"/>
       <use xlink:href="#HiraginoSans-W4-2e" transform="translate(67.299988 0)"/>
       <use xlink:href="#HiraginoSans-W4-36" transform="translate(92.299973 0)"/>
      </g>
     </g>
    </g>
    <g id="ytick_12">
     <g id="line2d_26">
      <g>
       <use xlink:href="#m6804c60f45" x="304.339062" y="122.8848" style="stroke: #000000; stroke-width: 0.8"/>
      </g>
     </g>
     <g id="text_30">
      <!-- 0.8 -->
      <g transform="translate(281.379687 126.739487) scale(0.1 -0.1)">
       <use xlink:href="#HiraginoSans-W4-30"/>
       <use xlink:href="#HiraginoSans-W4-2e" transform="translate(67.299988 0)"/>
       <use xlink:href="#HiraginoSans-W4-38" transform="translate(92.299973 0)"/>
      </g>
     </g>
    </g>
    <g id="ytick_13">
     <g id="line2d_27">
      <g>
       <use xlink:href="#m6804c60f45" x="304.339062" y="91.736" style="stroke: #000000; stroke-width: 0.8"/>
      </g>
     </g>
     <g id="text_31">
      <!-- 1.0 -->
      <g transform="translate(281.379687 95.590687) scale(0.1 -0.1)">
       <use xlink:href="#HiraginoSans-W4-31"/>
       <use xlink:href="#HiraginoSans-W4-2e" transform="translate(67.299988 0)"/>
       <use xlink:href="#HiraginoSans-W4-30" transform="translate(92.299973 0)"/>
      </g>
     </g>
    </g>
    <g id="ytick_14">
     <g id="line2d_28">
      <g>
       <use xlink:href="#m6804c60f45" x="304.339062" y="60.5872" style="stroke: #000000; stroke-width: 0.8"/>
      </g>
     </g>
     <g id="text_32">
      <!-- 1.2 -->
      <g transform="translate(281.379687 64.441887) scale(0.1 -0.1)">
       <use xlink:href="#HiraginoSans-W4-31"/>
       <use xlink:href="#HiraginoSans-W4-2e" transform="translate(67.299988 0)"/>
       <use xlink:href="#HiraginoSans-W4-32" transform="translate(92.299973 0)"/>
      </g>
     </g>
    </g>
    <g id="text_33">
     <!-- y -->
     <g transform="translate(275.259375 153.010312) rotate(-90) scale(0.1 -0.1)">
      <use xlink:href="#HiraginoSans-W4-79"/>
     </g>
    </g>
   </g>
   <g id="patch_11">
    <path d="M 304.339062 247.48 
L 304.339062 52.8 
" style="fill: none; stroke: #000000; stroke-width: 0.8; stroke-linejoin: miter; stroke-linecap: square"/>
   </g>
   <g id="patch_12">
    <path d="M 304.339062 247.48 
L 508.739062 247.48 
" style="fill: none; stroke: #000000; stroke-width: 0.8; stroke-linejoin: miter; stroke-linecap: square"/>
   </g>
   <g id="text_34">
    <!-- n = 2 -->
    <g style="fill: #1a1a2e" transform="translate(391.095234 46.8) scale(0.11 -0.11)">
     <defs>
      <path id="HiraginoSans-W7-32" d="M 3354 -134 
C 3782 -134 4045 -147 4384 -179 
L 4384 845 
C 4147 806 3846 794 3405 794 
L 1786 794 
C 1869 998 1939 1107 2086 1267 
C 2234 1421 2528 1670 2790 1856 
C 3546 2381 3597 2419 3750 2560 
C 4122 2893 4314 3283 4314 3712 
C 4314 4608 3565 5178 2387 5178 
C 1696 5178 1158 4966 813 4570 
C 570 4275 454 4006 358 3488 
L 1491 3360 
C 1530 3648 1568 3789 1664 3930 
C 1818 4154 2074 4275 2406 4275 
C 2867 4275 3187 4032 3187 3680 
C 3187 3347 3046 3168 2458 2771 
C 1792 2317 1600 2176 1363 1958 
C 941 1574 640 1126 474 627 
C 390 397 352 179 320 -160 
C 563 -134 666 -134 1210 -134 
L 3354 -134 
z
" transform="scale(0.015625)"/>
     </defs>
     <use xlink:href="#HiraginoSans-W7-6e"/>
     <use xlink:href="#HiraginoSans-W7-20" transform="translate(70.199982 0)"/>
     <use xlink:href="#HiraginoSans-W7-3d" transform="translate(103.499969 0)"/>
     <use xlink:href="#HiraginoSans-W7-20" transform="translate(173.399963 0)"/>
     <use xlink:href="#HiraginoSans-W7-32" transform="translate(206.699951 0)"/>
    </g>
   </g>
   <g id="line2d_29">
    <path d="M 304.339062 247.48 
L 304.748682 240.507941 
L 305.56792 235.40404 
L 306.387159 231.890002 
L 307.616016 227.760039 
L 308.844874 224.356296 
L 310.483351 220.477332 
L 312.531447 216.300004 
L 314.579543 212.619705 
L 317.037259 208.661219 
L 319.904594 204.501342 
L 323.181547 200.193195 
L 326.458501 196.246039 
L 330.145075 192.140998 
L 334.241267 187.910702 
L 338.747079 183.580024 
L 343.662509 179.168052 
L 348.987559 174.689567 
L 354.722229 170.156125 
L 360.866517 165.576852 
L 367.420425 160.959024 
L 374.793572 156.042304 
L 382.576337 151.124228 
L 390.768722 146.204994 
L 399.780345 141.056139 
L 409.201588 135.927056 
L 419.442069 130.606995 
L 430.501788 125.120862 
L 441.971127 119.680048 
L 454.259704 114.096658 
L 467.367519 108.38786 
L 481.294574 102.568476 
L 496.040866 96.651303 
L 508.739062 91.736 
L 508.739062 91.736 
" clip-path="url(#p33fc603b9d)" style="fill: none; stroke: #c0392b; stroke-width: 2.2; stroke-linecap: square"/>
   </g>
   <g id="legend_2">
    <g id="patch_13">
     <path d="M 309.939062 83.1675 
L 371.059062 83.1675 
Q 372.659062 83.1675 372.659062 81.5675 
L 372.659062 58.4 
Q 372.659062 56.8 371.059062 56.8 
L 309.939062 56.8 
Q 308.339062 56.8 308.339062 58.4 
L 308.339062 81.5675 
Q 308.339062 83.1675 309.939062 83.1675 
z
" style="fill: #ffffff; opacity: 0.8; stroke: #cccccc; stroke-linejoin: miter"/>
    </g>
    <g id="patch_14">
     <path d="M 311.539062 66.1675 
L 327.539062 66.1675 
L 327.539062 60.5675 
L 311.539062 60.5675 
z
" style="fill: #93c5fd; opacity: 0.85; stroke: #000000; stroke-width: 1.5; stroke-linejoin: miter"/>
    </g>
    <g id="text_35">
     <!-- 単関数 -->
     <g transform="translate(333.939062 66.1675) scale(0.08 -0.08)">
      <use xlink:href="#HiraginoSans-W4-5358"/>
      <use xlink:href="#HiraginoSans-W4-95a2" transform="translate(99.999985 0)"/>
      <use xlink:href="#HiraginoSans-W4-6570" transform="translate(199.999969 0)"/>
     </g>
    </g>
    <g id="line2d_30">
     <path d="M 311.539062 75.5275 
L 319.539062 75.5275 
L 327.539062 75.5275 
" style="fill: none; stroke: #c0392b; stroke-width: 2.2; stroke-linecap: square"/>
    </g>
    <g id="text_36">
     <!-- $f(x)=\sqrt{x}$ -->
     <g transform="translate(333.939062 78.3275) scale(0.08 -0.08)">
      <use xlink:href="#DejaVuSans-Oblique-66" transform="translate(0 0.890625)"/>
      <use xlink:href="#DejaVuSans-28" transform="translate(35.205078 0.890625)"/>
      <use xlink:href="#DejaVuSans-Oblique-78" transform="translate(74.21875 0.890625)"/>
      <use xlink:href="#DejaVuSans-29" transform="translate(133.398438 0.890625)"/>
      <use xlink:href="#DejaVuSans-3d" transform="translate(191.894531 0.890625)"/>
      <use xlink:href="#DejaVuSans-221a" transform="translate(295.166016 0.890625)"/>
      <use xlink:href="#DejaVuSans-Oblique-78" transform="translate(371.386719 1.0625)"/>
      <path d="M 358.886719 75.5 
L 358.886719 81.75 
L 443.066406 81.75 
L 443.066406 75.5 
L 358.886719 75.5 
z
"/>
     </g>
    </g>
   </g>
  </g>
  <g id="axes_3">
   <g id="patch_15">
    <path d="M 564.739062 247.48 
L 769.139062 247.48 
L 769.139062 52.8 
L 564.739062 52.8 
z
" style="fill: #ffffff"/>
   </g>
   <g id="patch_16">
    <path d="M 564.739062 247.48 
L 615.839062 247.48 
L 615.839062 192.416181 
L 564.739062 192.416181 
z
" clip-path="url(#p2f6c3b1b51)" style="fill: #93c5fd; opacity: 0.85; stroke: #000000; stroke-width: 1.5; stroke-linejoin: miter"/>
   </g>
   <g id="patch_17">
    <path d="M 615.839062 247.48 
L 666.939062 247.48 
L 666.939062 152.106667 
L 615.839062 152.106667 
z
" clip-path="url(#p2f6c3b1b51)" style="fill: #93c5fd; opacity: 0.85; stroke: #000000; stroke-width: 1.5; stroke-linejoin: miter"/>
   </g>
   <g id="patch_18">
    <path d="M 666.939062 247.48 
L 718.039062 247.48 
L 718.039062 124.353557 
L 666.939062 124.353557 
z
" clip-path="url(#p2f6c3b1b51)" style="fill: #93c5fd; opacity: 0.85; stroke: #000000; stroke-width: 1.5; stroke-linejoin: miter"/>
   </g>
   <g id="patch_19">
    <path d="M 718.039062 247.48 
L 769.139062 247.48 
L 769.139062 101.794828 
L 718.039062 101.794828 
z
" clip-path="url(#p2f6c3b1b51)" style="fill: #93c5fd; opacity: 0.85; stroke: #000000; stroke-width: 1.5; stroke-linejoin: miter"/>
   </g>
   <g id="matplotlib.axis_5">
    <g id="xtick_13">
     <g id="line2d_31">
      <g>
       <use xlink:href="#m1e789a70ec" x="564.739062" y="247.48" style="stroke: #000000; stroke-width: 0.8"/>
      </g>
     </g>
     <g id="text_37">
      <!-- 0.0 -->
      <g transform="translate(556.759375 262.189375) scale(0.1 -0.1)">
       <use xlink:href="#HiraginoSans-W4-30"/>
       <use xlink:href="#HiraginoSans-W4-2e" transform="translate(67.299988 0)"/>
       <use xlink:href="#HiraginoSans-W4-30" transform="translate(92.299973 0)"/>
      </g>
     </g>
    </g>
    <g id="xtick_14">
     <g id="line2d_32">
      <g>
       <use xlink:href="#m1e789a70ec" x="605.619062" y="247.48" style="stroke: #000000; stroke-width: 0.8"/>
      </g>
     </g>
     <g id="text_38">
      <!-- 0.2 -->
      <g transform="translate(597.639375 262.189375) scale(0.1 -0.1)">
       <use xlink:href="#HiraginoSans-W4-30"/>
       <use xlink:href="#HiraginoSans-W4-2e" transform="translate(67.299988 0)"/>
       <use xlink:href="#HiraginoSans-W4-32" transform="translate(92.299973 0)"/>
      </g>
     </g>
    </g>
    <g id="xtick_15">
     <g id="line2d_33">
      <g>
       <use xlink:href="#m1e789a70ec" x="646.499062" y="247.48" style="stroke: #000000; stroke-width: 0.8"/>
      </g>
     </g>
     <g id="text_39">
      <!-- 0.4 -->
      <g transform="translate(638.509219 262.189375) scale(0.1 -0.1)">
       <use xlink:href="#HiraginoSans-W4-30"/>
       <use xlink:href="#HiraginoSans-W4-2e" transform="translate(67.299988 0)"/>
       <use xlink:href="#HiraginoSans-W4-34" transform="translate(92.299973 0)"/>
      </g>
     </g>
    </g>
    <g id="xtick_16">
     <g id="line2d_34">
      <g>
       <use xlink:href="#m1e789a70ec" x="687.379062" y="247.48" style="stroke: #000000; stroke-width: 0.8"/>
      </g>
     </g>
     <g id="text_40">
      <!-- 0.6 -->
      <g transform="translate(679.399375 262.189375) scale(0.1 -0.1)">
       <use xlink:href="#HiraginoSans-W4-30"/>
       <use xlink:href="#HiraginoSans-W4-2e" transform="translate(67.299988 0)"/>
       <use xlink:href="#HiraginoSans-W4-36" transform="translate(92.299973 0)"/>
      </g>
     </g>
    </g>
    <g id="xtick_17">
     <g id="line2d_35">
      <g>
       <use xlink:href="#m1e789a70ec" x="728.259062" y="247.48" style="stroke: #000000; stroke-width: 0.8"/>
      </g>
     </g>
     <g id="text_41">
      <!-- 0.8 -->
      <g transform="translate(720.279375 262.189375) scale(0.1 -0.1)">
       <use xlink:href="#HiraginoSans-W4-30"/>
       <use xlink:href="#HiraginoSans-W4-2e" transform="translate(67.299988 0)"/>
       <use xlink:href="#HiraginoSans-W4-38" transform="translate(92.299973 0)"/>
      </g>
     </g>
    </g>
    <g id="xtick_18">
     <g id="line2d_36">
      <g>
       <use xlink:href="#m1e789a70ec" x="769.139062" y="247.48" style="stroke: #000000; stroke-width: 0.8"/>
      </g>
     </g>
     <g id="text_42">
      <!-- 1.0 -->
      <g transform="translate(761.159375 262.189375) scale(0.1 -0.1)">
       <use xlink:href="#HiraginoSans-W4-31"/>
       <use xlink:href="#HiraginoSans-W4-2e" transform="translate(67.299988 0)"/>
       <use xlink:href="#HiraginoSans-W4-30" transform="translate(92.299973 0)"/>
      </g>
     </g>
    </g>
    <g id="text_43">
     <!-- x -->
     <g transform="translate(664.14375 275.94875) scale(0.1 -0.1)">
      <use xlink:href="#HiraginoSans-W4-78"/>
     </g>
    </g>
   </g>
   <g id="matplotlib.axis_6">
    <g id="ytick_15">
     <g id="line2d_37">
      <g>
       <use xlink:href="#m6804c60f45" x="564.739062" y="247.48" style="stroke: #000000; stroke-width: 0.8"/>
      </g>
     </g>
     <g id="text_44">
      <!-- 0.0 -->
      <g transform="translate(541.779687 251.334687) scale(0.1 -0.1)">
       <use xlink:href="#HiraginoSans-W4-30"/>
       <use xlink:href="#HiraginoSans-W4-2e" transform="translate(67.299988 0)"/>
       <use xlink:href="#HiraginoSans-W4-30" transform="translate(92.299973 0)"/>
      </g>
     </g>
    </g>
    <g id="ytick_16">
     <g id="line2d_38">
      <g>
       <use xlink:href="#m6804c60f45" x="564.739062" y="216.3312" style="stroke: #000000; stroke-width: 0.8"/>
      </g>
     </g>
     <g id="text_45">
      <!-- 0.2 -->
      <g transform="translate(541.779687 220.185887) scale(0.1 -0.1)">
       <use xlink:href="#HiraginoSans-W4-30"/>
       <use xlink:href="#HiraginoSans-W4-2e" transform="translate(67.299988 0)"/>
       <use xlink:href="#HiraginoSans-W4-32" transform="translate(92.299973 0)"/>
      </g>
     </g>
    </g>
    <g id="ytick_17">
     <g id="line2d_39">
      <g>
       <use xlink:href="#m6804c60f45" x="564.739062" y="185.1824" style="stroke: #000000; stroke-width: 0.8"/>
      </g>
     </g>
     <g id="text_46">
      <!-- 0.4 -->
      <g transform="translate(541.759375 189.037087) scale(0.1 -0.1)">
       <use xlink:href="#HiraginoSans-W4-30"/>
       <use xlink:href="#HiraginoSans-W4-2e" transform="translate(67.299988 0)"/>
       <use xlink:href="#HiraginoSans-W4-34" transform="translate(92.299973 0)"/>
      </g>
     </g>
    </g>
    <g id="ytick_18">
     <g id="line2d_40">
      <g>
       <use xlink:href="#m6804c60f45" x="564.739062" y="154.0336" style="stroke: #000000; stroke-width: 0.8"/>
      </g>
     </g>
     <g id="text_47">
      <!-- 0.6 -->
      <g transform="translate(541.779687 157.888287) scale(0.1 -0.1)">
       <use xlink:href="#HiraginoSans-W4-30"/>
       <use xlink:href="#HiraginoSans-W4-2e" transform="translate(67.299988 0)"/>
       <use xlink:href="#HiraginoSans-W4-36" transform="translate(92.299973 0)"/>
      </g>
     </g>
    </g>
    <g id="ytick_19">
     <g id="line2d_41">
      <g>
       <use xlink:href="#m6804c60f45" x="564.739062" y="122.8848" style="stroke: #000000; stroke-width: 0.8"/>
      </g>
     </g>
     <g id="text_48">
      <!-- 0.8 -->
      <g transform="translate(541.779687 126.739487) scale(0.1 -0.1)">
       <use xlink:href="#HiraginoSans-W4-30"/>
       <use xlink:href="#HiraginoSans-W4-2e" transform="translate(67.299988 0)"/>
       <use xlink:href="#HiraginoSans-W4-38" transform="translate(92.299973 0)"/>
      </g>
     </g>
    </g>
    <g id="ytick_20">
     <g id="line2d_42">
      <g>
       <use xlink:href="#m6804c60f45" x="564.739062" y="91.736" style="stroke: #000000; stroke-width: 0.8"/>
      </g>
     </g>
     <g id="text_49">
      <!-- 1.0 -->
      <g transform="translate(541.779687 95.590687) scale(0.1 -0.1)">
       <use xlink:href="#HiraginoSans-W4-31"/>
       <use xlink:href="#HiraginoSans-W4-2e" transform="translate(67.299988 0)"/>
       <use xlink:href="#HiraginoSans-W4-30" transform="translate(92.299973 0)"/>
      </g>
     </g>
    </g>
    <g id="ytick_21">
     <g id="line2d_43">
      <g>
       <use xlink:href="#m6804c60f45" x="564.739062" y="60.5872" style="stroke: #000000; stroke-width: 0.8"/>
      </g>
     </g>
     <g id="text_50">
      <!-- 1.2 -->
      <g transform="translate(541.779687 64.441887) scale(0.1 -0.1)">
       <use xlink:href="#HiraginoSans-W4-31"/>
       <use xlink:href="#HiraginoSans-W4-2e" transform="translate(67.299988 0)"/>
       <use xlink:href="#HiraginoSans-W4-32" transform="translate(92.299973 0)"/>
      </g>
     </g>
    </g>
    <g id="text_51">
     <!-- y -->
     <g transform="translate(535.659375 153.010312) rotate(-90) scale(0.1 -0.1)">
      <use xlink:href="#HiraginoSans-W4-79"/>
     </g>
    </g>
   </g>
   <g id="patch_20">
    <path d="M 564.739062 247.48 
L 564.739062 52.8 
" style="fill: none; stroke: #000000; stroke-width: 0.8; stroke-linejoin: miter; stroke-linecap: square"/>
   </g>
   <g id="patch_21">
    <path d="M 564.739062 247.48 
L 769.139062 247.48 
" style="fill: none; stroke: #000000; stroke-width: 0.8; stroke-linejoin: miter; stroke-linecap: square"/>
   </g>
   <g id="text_52">
    <!-- n = 4 -->
    <g style="fill: #1a1a2e" transform="translate(651.495234 46.8) scale(0.11 -0.11)">
     <defs>
      <path id="HiraginoSans-W7-34" d="M 141 992 
C 352 1011 570 1018 954 1018 
L 2739 1018 
L 2739 634 
C 2739 301 2726 96 2688 -134 
L 3802 -134 
C 3763 102 3750 282 3750 621 
L 3750 1011 
L 3930 1011 
C 4173 1011 4384 998 4595 973 
L 4595 1958 
C 4358 1920 4160 1907 3930 1907 
L 3750 1907 
L 3750 3994 
C 3750 4461 3763 4698 3795 5069 
L 2714 5069 
C 2560 4826 2451 4691 2157 4333 
L 704 2592 
C 582 2451 397 2234 141 1946 
L 141 992 
z
M 2752 1901 
L 1280 1901 
L 2394 3270 
C 2560 3475 2688 3635 2784 3776 
C 2758 3424 2752 3270 2752 3078 
L 2752 1901 
z
" transform="scale(0.015625)"/>
     </defs>
     <use xlink:href="#HiraginoSans-W7-6e"/>
     <use xlink:href="#HiraginoSans-W7-20" transform="translate(70.199982 0)"/>
     <use xlink:href="#HiraginoSans-W7-3d" transform="translate(103.499969 0)"/>
     <use xlink:href="#HiraginoSans-W7-20" transform="translate(173.399963 0)"/>
     <use xlink:href="#HiraginoSans-W7-34" transform="translate(206.699951 0)"/>
    </g>
   </g>
   <g id="line2d_44">
    <path d="M 564.739062 247.48 
L 565.148682 240.507941 
L 565.96792 235.40404 
L 566.787159 231.890002 
L 568.016016 227.760039 
L 569.244874 224.356296 
L 570.883351 220.477332 
L 572.931447 216.300004 
L 574.979543 212.619705 
L 577.437259 208.661219 
L 580.304594 204.501342 
L 583.581547 200.193195 
L 586.858501 196.246039 
L 590.545075 192.140998 
L 594.641267 187.910702 
L 599.147079 183.580024 
L 604.062509 179.168052 
L 609.387559 174.689567 
L 615.122229 170.156125 
L 621.266517 165.576852 
L 627.820425 160.959024 
L 635.193572 156.042304 
L 642.976337 151.124228 
L 651.168722 146.204994 
L 660.180345 141.056139 
L 669.601588 135.927056 
L 679.842069 130.606995 
L 690.901788 125.120862 
L 702.371127 119.680048 
L 714.659704 114.096658 
L 727.767519 108.38786 
L 741.694574 102.568476 
L 756.440866 96.651303 
L 769.139062 91.736 
L 769.139062 91.736 
" clip-path="url(#p2f6c3b1b51)" style="fill: none; stroke: #c0392b; stroke-width: 2.2; stroke-linecap: square"/>
   </g>
   <g id="legend_3">
    <g id="patch_22">
     <path d="M 570.339062 83.1675 
L 631.459062 83.1675 
Q 633.059062 83.1675 633.059062 81.5675 
L 633.059062 58.4 
Q 633.059062 56.8 631.459062 56.8 
L 570.339062 56.8 
Q 568.739062 56.8 568.739062 58.4 
L 568.739062 81.5675 
Q 568.739062 83.1675 570.339062 83.1675 
z
" style="fill: #ffffff; opacity: 0.8; stroke: #cccccc; stroke-linejoin: miter"/>
    </g>
    <g id="patch_23">
     <path d="M 571.939062 66.1675 
L 587.939062 66.1675 
L 587.939062 60.5675 
L 571.939062 60.5675 
z
" style="fill: #93c5fd; opacity: 0.85; stroke: #000000; stroke-width: 1.5; stroke-linejoin: miter"/>
    </g>
    <g id="text_53">
     <!-- 単関数 -->
     <g transform="translate(594.339062 66.1675) scale(0.08 -0.08)">
      <use xlink:href="#HiraginoSans-W4-5358"/>
      <use xlink:href="#HiraginoSans-W4-95a2" transform="translate(99.999985 0)"/>
      <use xlink:href="#HiraginoSans-W4-6570" transform="translate(199.999969 0)"/>
     </g>
    </g>
    <g id="line2d_45">
     <path d="M 571.939062 75.5275 
L 579.939062 75.5275 
L 587.939062 75.5275 
" style="fill: none; stroke: #c0392b; stroke-width: 2.2; stroke-linecap: square"/>
    </g>
    <g id="text_54">
     <!-- $f(x)=\sqrt{x}$ -->
     <g transform="translate(594.339062 78.3275) scale(0.08 -0.08)">
      <use xlink:href="#DejaVuSans-Oblique-66" transform="translate(0 0.890625)"/>
      <use xlink:href="#DejaVuSans-28" transform="translate(35.205078 0.890625)"/>
      <use xlink:href="#DejaVuSans-Oblique-78" transform="translate(74.21875 0.890625)"/>
      <use xlink:href="#DejaVuSans-29" transform="translate(133.398438 0.890625)"/>
      <use xlink:href="#DejaVuSans-3d" transform="translate(191.894531 0.890625)"/>
      <use xlink:href="#DejaVuSans-221a" transform="translate(295.166016 0.890625)"/>
      <use xlink:href="#DejaVuSans-Oblique-78" transform="translate(371.386719 1.0625)"/>
      <path d="M 358.886719 75.5 
L 358.886719 81.75 
L 443.066406 81.75 
L 443.066406 75.5 
L 358.886719 75.5 
z
"/>
     </g>
    </g>
   </g>
  </g>
  <g id="text_55">
   <!-- 単関数列による $f(x)=\sqrt{x}$ の近似（中点近似） -->
   <g style="fill: #1a1a2e" transform="translate(265.349062 16.93125) scale(0.12 -0.12)">
    <defs>
     <path id="HiraginoSans-W7-5358" d="M 2746 1549 
L 2746 1203 
L 1005 1203 
C 672 1203 474 1210 275 1235 
L 275 403 
C 486 429 742 442 1082 442 
L 2746 442 
L 2746 102 
C 2746 -218 2739 -371 2707 -570 
L 3603 -570 
C 3571 -352 3565 -230 3565 102 
L 3565 442 
L 5286 442 
C 5626 442 5920 429 6106 403 
L 6106 1235 
C 5920 1216 5722 1203 5376 1203 
L 3565 1203 
L 3565 1549 
L 4896 1549 
C 5178 1549 5382 1542 5606 1530 
C 5581 1728 5574 1888 5574 2202 
L 5574 3597 
C 5574 3942 5581 4128 5606 4294 
C 5504 4282 5299 4275 4986 4269 
C 5184 4531 5312 4730 5549 5114 
L 4678 5389 
C 4531 5005 4320 4627 4064 4269 
L 3034 4269 
L 3750 4518 
C 3565 4954 3494 5088 3258 5453 
L 2458 5254 
C 2726 4806 2797 4672 2931 4269 
L 1670 4269 
L 2176 4467 
C 1984 4819 1856 5005 1568 5357 
L 794 5069 
C 1050 4762 1184 4557 1325 4269 
C 1120 4269 941 4275 781 4294 
C 806 4115 813 3923 813 3597 
L 813 2189 
C 813 1901 806 1741 781 1530 
C 1005 1542 1190 1549 1485 1549 
L 2746 1549 
z
M 3565 3232 
L 3565 3590 
L 4755 3590 
L 4755 3232 
L 3565 3232 
z
M 2746 3232 
L 1632 3232 
L 1632 3590 
L 2746 3590 
L 2746 3232 
z
M 3565 2227 
L 3565 2586 
L 4755 2586 
L 4755 2227 
L 3565 2227 
z
M 2746 2227 
L 1632 2227 
L 1632 2586 
L 2746 2586 
L 2746 2227 
z
" transform="scale(0.015625)"/>
     <path id="HiraginoSans-W7-95a2" d="M 4371 992 
C 4589 992 4710 986 4870 966 
L 4870 1645 
C 4742 1626 4608 1619 4378 1619 
L 3507 1619 
C 3514 1728 3520 1773 3526 1920 
L 4352 1920 
C 4538 1920 4653 1914 4768 1901 
L 4768 2554 
C 4646 2534 4538 2528 4346 2528 
L 4186 2528 
C 4294 2707 4339 2778 4422 2950 
L 3680 3078 
C 3584 2829 3533 2720 3424 2528 
L 2982 2528 
C 2867 2758 2784 2893 2650 3085 
L 1946 2931 
C 2080 2752 2138 2669 2221 2528 
L 2054 2528 
C 1862 2528 1766 2534 1651 2554 
L 1651 1901 
C 1773 1914 1882 1920 2074 1920 
L 2771 1920 
C 2771 1754 2765 1715 2758 1619 
L 2029 1619 
C 1805 1619 1677 1626 1542 1645 
L 1542 960 
C 1709 979 1888 992 2086 992 
L 2598 992 
C 2477 800 2355 678 2144 557 
C 1952 435 1779 378 1395 275 
C 1574 70 1677 -96 1811 -384 
C 2509 -160 2893 109 3194 582 
C 3494 237 3923 -51 4384 -218 
C 4429 -64 4442 -19 4493 102 
C 4550 -96 4582 -230 4608 -486 
C 4851 -493 4851 -493 4922 -493 
C 5792 -493 5952 -371 5952 314 
L 5952 4531 
C 5952 4858 5958 5018 5978 5254 
C 5805 5235 5651 5229 5325 5229 
L 4000 5229 
C 3667 5229 3520 5235 3347 5254 
C 3360 5069 3366 4896 3366 4659 
L 3366 3693 
C 3366 3398 3366 3283 3354 3123 
C 3552 3130 3706 3136 3910 3136 
L 5146 3136 
L 5146 429 
C 5146 288 5114 269 4902 269 
C 4806 269 4730 275 4576 294 
C 4621 390 4640 422 4698 525 
C 4237 627 3974 749 3686 992 
L 4371 992 
z
M 4128 4678 
L 5146 4678 
L 5146 4422 
L 4128 4422 
L 4128 4678 
z
M 4128 3923 
L 5146 3923 
L 5146 3674 
L 4128 3674 
L 4128 3923 
z
M 1280 3142 
L 2438 3142 
C 2637 3142 2848 3136 2995 3130 
C 2989 3251 2982 3386 2982 3693 
L 2982 4659 
C 2982 4915 2989 5069 3002 5254 
C 2835 5235 2688 5229 2349 5229 
L 1101 5229 
C 781 5229 621 5235 448 5254 
C 467 5050 474 4870 474 4525 
L 474 294 
C 474 -122 461 -333 435 -531 
L 1318 -531 
C 1293 -339 1280 -115 1280 275 
L 1280 3142 
z
M 1280 4678 
L 2234 4678 
L 2234 4422 
L 1280 4422 
L 1280 4678 
z
M 1280 3923 
L 2234 3923 
L 2234 3674 
L 1280 3674 
L 1280 3923 
z
" transform="scale(0.015625)"/>
     <path id="HiraginoSans-W7-6570" d="M 6246 4403 
C 6099 4378 5952 4371 5638 4371 
L 4621 4371 
C 4678 4582 4691 4614 4723 4749 
C 4813 5114 4845 5235 4858 5280 
L 4026 5440 
C 4026 5344 3994 5094 3949 4883 
C 3757 3910 3456 3219 3002 2707 
C 3168 2554 3277 2432 3430 2208 
C 3328 2195 3200 2189 3021 2189 
L 2080 2189 
C 2125 2291 2144 2330 2202 2458 
L 1408 2598 
C 1338 2400 1312 2323 1261 2189 
L 806 2189 
C 563 2189 429 2195 282 2221 
L 282 1459 
C 435 1485 576 1491 806 1491 
L 928 1491 
C 787 1254 717 1146 499 864 
C 954 704 1120 634 1427 499 
C 1062 294 762 198 230 122 
C 397 -109 512 -307 621 -582 
C 1286 -422 1722 -218 2150 141 
C 2451 -26 2528 -77 2765 -262 
L 2976 77 
C 3149 -102 3283 -294 3411 -576 
C 3910 -307 4339 26 4730 461 
C 5075 32 5459 -301 5901 -563 
C 6035 -237 6157 -19 6342 243 
C 5894 467 5530 755 5216 1139 
C 5606 1843 5779 2509 5862 3635 
C 6074 3629 6125 3629 6246 3610 
L 6246 4403 
z
M 3206 454 
C 2963 589 2874 640 2675 730 
C 2842 986 2925 1171 3021 1491 
C 3238 1491 3392 1478 3514 1466 
L 3514 2099 
C 3654 2266 3686 2310 3789 2477 
C 3904 1946 4032 1587 4275 1139 
C 3942 749 3571 461 3046 198 
L 3206 454 
z
M 5069 3635 
C 5037 2938 4934 2400 4736 1907 
C 4486 2451 4397 2771 4294 3437 
C 4326 3520 4339 3552 4371 3635 
L 5069 3635 
z
M 2234 1491 
C 2170 1299 2118 1184 2003 1024 
C 1862 1082 1779 1107 1542 1190 
C 1638 1344 1664 1389 1722 1491 
L 2234 1491 
z
M 2995 4269 
L 2342 4269 
L 2342 4992 
C 2342 5184 2349 5293 2368 5408 
L 1555 5408 
C 1574 5286 1581 5178 1581 4979 
L 1581 4269 
L 851 4269 
C 602 4269 461 4275 301 4294 
L 301 3590 
C 454 3610 621 3616 851 3616 
L 1120 3616 
C 864 3322 595 3130 154 2925 
C 384 2682 467 2566 614 2304 
C 1069 2605 1229 2758 1587 3213 
C 1581 3110 1574 3002 1574 2950 
L 1574 2765 
C 1574 2707 1568 2643 1555 2579 
L 2355 2579 
C 2342 2650 2342 2726 2342 2797 
L 2342 2976 
C 2342 3014 2330 3142 2323 3213 
C 2502 2944 2541 2906 2854 2643 
C 2989 2906 3078 3040 3245 3245 
C 3014 3366 2874 3469 2733 3616 
L 3091 3616 
C 3290 3616 3411 3610 3494 3597 
L 3494 4288 
C 3418 4275 3296 4269 3098 4269 
L 3053 4269 
C 3238 4550 3309 4685 3520 5107 
L 2842 5382 
C 2733 5082 2598 4838 2394 4544 
L 2995 4269 
z
M 397 5094 
C 602 4832 723 4627 870 4282 
L 1523 4563 
C 1376 4883 1280 5043 1037 5363 
L 397 5094 
z
" transform="scale(0.015625)"/>
     <path id="HiraginoSans-W7-5217" d="M 1907 3840 
C 1965 4058 1984 4141 2035 4429 
L 2784 4429 
C 3053 4429 3251 4422 3482 4403 
L 3482 5197 
C 3277 5171 3072 5158 2765 5158 
L 1062 5158 
C 742 5158 570 5165 358 5197 
L 358 4390 
C 570 4416 755 4429 960 4429 
L 1235 4429 
C 1171 4006 1069 3680 864 3302 
C 653 2912 474 2675 173 2400 
C 371 2138 474 1958 602 1606 
C 832 1850 915 1939 1069 2138 
C 1338 1939 1619 1677 1837 1434 
C 1690 1210 1581 1075 1414 915 
C 1107 614 832 416 384 166 
C 646 -96 736 -218 902 -544 
C 1357 -237 1485 -141 1651 0 
C 1984 282 2291 634 2522 986 
C 2931 1619 3168 2374 3296 3482 
C 3328 3802 3328 3802 3341 3859 
C 3162 3846 3066 3840 2797 3840 
L 1907 3840 
z
M 2451 3130 
C 2381 2675 2336 2483 2202 2157 
C 1926 2413 1792 2522 1466 2752 
C 1542 2893 1581 2970 1651 3130 
L 2451 3130 
z
M 3718 4896 
C 3744 4678 3750 4467 3750 4096 
L 3750 1734 
C 3750 1325 3744 1152 3718 979 
L 4595 979 
C 4570 1165 4563 1331 4563 1754 
L 4563 4096 
C 4563 4499 4570 4685 4595 4896 
L 3718 4896 
z
M 5082 5306 
C 5107 5030 5120 4685 5120 4403 
L 5120 493 
C 5120 333 5075 307 4762 307 
C 4486 307 4250 320 3949 358 
C 4064 102 4115 -115 4154 -486 
C 4531 -499 4634 -499 4742 -499 
C 5734 -499 5933 -358 5933 326 
L 5933 4403 
C 5933 4787 5946 5062 5971 5306 
L 5082 5306 
z
" transform="scale(0.015625)"/>
     <path id="HiraginoSans-W7-306b" d="M 992 5158 
C 973 4973 966 4915 890 4518 
C 717 3584 640 2810 640 2016 
C 640 1395 685 877 806 64 
C 826 -83 832 -134 838 -250 
L 1766 -205 
C 1760 -115 1760 -83 1760 -19 
C 1760 486 1946 1165 2285 1907 
L 1722 2138 
L 1600 1830 
C 1568 1754 1568 1754 1485 1504 
C 1504 2861 1709 4301 1990 5062 
L 992 5158 
z
M 2573 3610 
C 2669 3603 2720 3603 2752 3597 
C 3149 3558 3379 3546 3782 3546 
C 4314 3546 4954 3590 5478 3661 
C 5549 3667 5555 3667 5613 3667 
L 5568 4595 
C 5158 4486 4518 4422 3814 4422 
C 3232 4422 2899 4448 2586 4531 
L 2573 3610 
z
M 2995 2656 
C 2598 2150 2400 1690 2400 1286 
C 2400 1050 2470 806 2592 634 
C 2880 230 3411 38 4224 38 
C 4666 38 5005 70 5568 160 
C 5709 179 5747 186 5850 198 
L 5786 1165 
C 5344 1005 4787 915 4230 915 
C 3642 915 3315 1094 3315 1414 
C 3315 1651 3462 1939 3763 2317 
L 2995 2656 
z
" transform="scale(0.015625)"/>
     <path id="HiraginoSans-W7-3088" d="M 2669 5293 
C 2688 5101 2694 5030 2701 4710 
C 2707 3859 2752 2394 2784 1946 
C 2573 1978 2445 1990 2278 1990 
C 1888 1990 1562 1920 1286 1779 
C 832 1555 602 1203 602 762 
C 602 6 1184 -442 2182 -442 
C 3181 -442 3725 -45 3725 685 
C 3725 717 3725 781 3725 851 
C 4070 678 4262 563 4557 339 
C 4838 122 4998 -19 5133 -186 
L 5722 672 
C 5651 717 5619 736 5530 800 
C 4678 1382 4371 1549 3706 1773 
C 3654 2592 3648 2675 3642 3072 
C 4026 3085 4403 3110 4685 3136 
C 5222 3187 5510 3219 5562 3219 
L 5491 4128 
C 5088 4006 4371 3930 3622 3930 
C 3616 4179 3616 4192 3616 4230 
C 3616 4678 3629 5037 3661 5286 
L 2669 5293 
z
M 2803 1094 
C 2803 1094 2810 992 2810 915 
C 2810 762 2797 685 2752 614 
C 2669 474 2438 384 2176 384 
C 1811 384 1568 531 1568 755 
C 1568 1005 1850 1171 2272 1171 
C 2490 1171 2592 1158 2803 1094 
z
" transform="scale(0.015625)"/>
     <path id="HiraginoSans-W7-308b" d="M 1286 4090 
C 1478 4115 1536 4115 1741 4128 
C 2682 4173 2790 4179 3315 4224 
C 2413 3322 1075 2259 474 1971 
L 986 1146 
C 1779 1856 2656 2221 3597 2221 
C 4333 2221 4806 1920 4806 1453 
C 4806 1050 4621 806 4166 621 
C 4070 883 4000 1018 3872 1171 
C 3603 1504 3200 1690 2746 1690 
C 2067 1690 1568 1274 1568 723 
C 1568 410 1709 128 1958 -58 
C 2227 -262 2701 -378 3258 -378 
C 3872 -378 4435 -243 4864 6 
C 5440 339 5741 838 5741 1459 
C 5741 1907 5587 2259 5274 2522 
C 4928 2810 4480 2957 3936 2957 
C 3565 2957 3245 2912 2880 2803 
C 3398 3168 3603 3334 4269 3930 
C 4768 4371 4774 4371 4909 4448 
L 4454 5114 
C 4346 5062 4269 5050 4019 5030 
C 3424 4986 2630 4954 2080 4954 
C 1696 4954 1485 4966 1248 4998 
L 1286 4090 
z
M 3347 390 
C 3200 358 3174 358 3078 358 
C 2662 358 2419 486 2419 710 
C 2419 864 2547 966 2739 966 
C 3040 966 3251 768 3347 390 
z
" transform="scale(0.015625)"/>
     <path id="HiraginoSans-W7-306e" d="M 3776 4038 
C 4032 4006 4186 3955 4371 3834 
C 4806 3546 5056 3066 5056 2496 
C 5056 1818 4723 1222 4173 922 
C 3872 762 3475 659 2906 614 
C 3155 282 3245 109 3379 -294 
C 3834 -218 4090 -154 4397 -32 
C 5421 371 6003 1274 6003 2438 
C 6003 3936 4979 4896 3373 4896 
C 2458 4896 1670 4576 1120 3974 
C 653 3469 403 2803 403 2074 
C 403 973 966 198 1760 198 
C 2310 198 2733 576 3091 1389 
C 3424 2131 3648 2982 3776 4038 
z
M 2842 4026 
C 2765 3341 2566 2534 2330 1965 
C 2125 1446 1926 1197 1741 1197 
C 1491 1197 1286 1587 1286 2067 
C 1286 2707 1587 3328 2074 3706 
C 2323 3898 2534 3987 2842 4026 
z
" transform="scale(0.015625)"/>
     <path id="HiraginoSans-W7-8fd1" d="M 4320 2842 
L 4320 1261 
C 4320 915 4314 736 4288 550 
L 5203 550 
C 5178 704 5165 896 5165 1261 
L 5165 2842 
L 5459 2842 
C 5702 2842 5920 2829 6131 2810 
L 6131 3648 
C 5907 3616 5741 3610 5434 3610 
L 3392 3610 
L 3392 4211 
C 4435 4294 5350 4461 5997 4685 
L 5382 5408 
C 5184 5286 4646 5146 4013 5050 
C 3712 5005 2976 4934 2797 4934 
C 2739 4934 2688 4941 2554 4947 
C 2579 4768 2586 4563 2586 4243 
C 2586 3002 2547 2522 2419 2042 
C 2323 1670 2195 1408 1984 1146 
C 2234 954 2394 806 2643 525 
C 3123 1165 3309 1747 3373 2842 
L 4320 2842 
z
M 294 4749 
C 794 4326 1043 4058 1440 3526 
L 2074 4154 
C 1645 4666 1472 4845 922 5318 
L 294 4749 
z
M 269 2150 
C 448 2176 544 2182 698 2182 
L 1075 2182 
L 1075 941 
C 813 717 397 442 256 390 
C 198 365 198 365 166 352 
L 525 -531 
C 781 -352 954 -218 1011 -166 
C 1312 83 1312 83 1478 218 
C 1997 -326 2451 -454 3885 -454 
C 4410 -454 5594 -429 6093 -410 
C 6138 -77 6189 128 6310 467 
C 5626 390 4877 358 3840 358 
C 2970 358 2637 397 2394 518 
C 2163 627 2029 742 1869 954 
L 1869 2285 
C 1869 2643 1875 2803 1894 2995 
C 1741 2976 1594 2970 1408 2970 
L 794 2970 
C 550 2970 454 2976 269 3002 
L 269 2150 
z
" transform="scale(0.015625)"/>
     <path id="HiraginoSans-W7-4f3c" d="M 4986 5274 
C 4998 5178 5005 5043 5005 4883 
C 5005 4288 4966 3578 4915 3187 
C 4768 2106 4474 1485 3853 966 
C 3443 627 3059 403 2451 147 
C 2707 -115 2816 -262 2982 -563 
C 3757 -198 4269 173 4723 685 
C 5005 198 5312 -154 5837 -582 
C 5990 -243 6093 -77 6330 218 
C 5766 589 5510 858 5210 1376 
C 5613 2118 5754 2874 5824 4698 
C 5837 4928 5850 5126 5869 5261 
L 4986 5274 
z
M 2195 1402 
C 1958 1318 1920 1306 1747 1261 
L 1869 352 
C 1971 410 2080 467 2202 525 
C 3091 928 3398 1082 4160 1523 
L 4128 2323 
C 3674 2054 3514 1971 2995 1734 
L 2995 4518 
C 2995 4883 3002 5037 3034 5229 
L 2157 5229 
C 2189 5024 2195 4870 2195 4518 
L 2195 1402 
z
M 768 218 
C 768 -90 755 -282 730 -538 
L 1587 -538 
C 1568 -301 1555 -83 1555 218 
L 1555 3878 
C 1766 4442 1766 4448 1862 4781 
C 1869 4813 1875 4838 1882 4845 
C 1907 4934 1907 4934 1926 5005 
C 1946 5062 1952 5088 1971 5146 
L 1184 5402 
C 1101 4941 998 4576 800 4128 
C 595 3642 384 3296 109 2970 
C 256 2656 301 2528 416 2029 
C 576 2234 646 2342 781 2592 
C 774 2381 768 2182 768 1914 
L 768 218 
z
M 4704 3290 
C 4390 3936 4205 4262 3795 4858 
L 3123 4410 
C 3533 3834 3699 3526 3994 2816 
L 4704 3290 
z
" transform="scale(0.015625)"/>
     <path id="HiraginoSans-W7-ff08" d="M 6240 -589 
C 5830 -26 5658 256 5491 666 
C 5274 1197 5152 1837 5152 2432 
C 5152 3027 5274 3667 5491 4198 
C 5658 4608 5830 4890 6240 5453 
L 5197 5453 
C 4845 4902 4691 4621 4538 4211 
C 4320 3648 4205 3034 4205 2432 
C 4205 1830 4320 1216 4538 653 
C 4691 243 4845 -38 5197 -589 
L 6240 -589 
z
" transform="scale(0.015625)"/>
     <path id="HiraginoSans-W7-4e2d" d="M 2733 4378 
L 1094 4378 
C 813 4378 691 4384 480 4403 
C 499 4198 506 4083 506 3821 
L 506 1786 
C 506 1498 499 1318 474 1120 
L 1357 1120 
L 1357 1478 
L 2733 1478 
L 2733 262 
C 2733 -102 2720 -320 2688 -563 
L 3654 -563 
C 3622 -346 3610 -134 3610 262 
L 3610 1478 
L 5050 1478 
L 5050 1120 
L 5933 1120 
C 5907 1306 5901 1459 5901 1786 
L 5901 3814 
C 5901 4090 5907 4224 5926 4403 
C 5747 4384 5606 4378 5299 4378 
L 3610 4378 
L 3610 4736 
C 3610 5056 3622 5222 3648 5414 
L 2694 5414 
C 2726 5203 2733 5050 2733 4704 
L 2733 4378 
z
M 2733 3578 
L 2733 2278 
L 1357 2278 
L 1357 3578 
L 2733 3578 
z
M 3610 2278 
L 3610 3578 
L 5050 3578 
L 5050 2278 
L 3610 2278 
z
" transform="scale(0.015625)"/>
     <path id="HiraginoSans-W7-70b9" d="M 3520 4064 
L 5197 4064 
C 5478 4064 5683 4051 5907 4026 
L 5907 4845 
C 5709 4819 5504 4806 5197 4806 
L 3520 4806 
L 3520 4858 
C 3520 5107 3533 5248 3558 5402 
L 2618 5402 
C 2643 5222 2656 5030 2656 4781 
L 2656 3533 
L 1670 3533 
C 1344 3533 1133 3539 941 3558 
C 960 3373 966 3238 966 3008 
L 966 1722 
C 966 1523 960 1389 947 1229 
C 1120 1242 1293 1248 1530 1248 
L 4845 1248 
C 5082 1248 5254 1242 5440 1229 
C 5427 1363 5421 1510 5421 1734 
L 5421 3008 
C 5421 3238 5427 3398 5446 3558 
C 5280 3539 5069 3533 4717 3533 
L 3520 3533 
L 3520 4064 
z
M 4595 2790 
L 4595 1997 
L 1798 1997 
L 1798 2790 
L 4595 2790 
z
M 947 -563 
C 1318 -32 1434 211 1658 941 
L 909 1190 
C 742 627 563 288 192 -154 
L 947 -563 
z
M 2912 -461 
C 2893 122 2880 275 2758 998 
L 2016 922 
C 2067 493 2093 160 2093 -218 
C 2093 -352 2093 -378 2086 -557 
L 2912 -461 
z
M 4474 -333 
C 4326 198 4224 525 4000 1075 
L 3290 915 
C 3469 403 3571 -6 3674 -570 
L 4474 -333 
z
M 6112 -186 
C 5779 499 5670 691 5344 1203 
L 4627 928 
C 4947 390 5062 147 5306 -544 
L 6112 -186 
z
" transform="scale(0.015625)"/>
     <path id="HiraginoSans-W7-ff09" d="M 1203 -589 
C 1555 -38 1709 243 1862 653 
C 2080 1216 2195 1824 2195 2432 
C 2195 3040 2080 3648 1862 4211 
C 1709 4621 1555 4902 1203 5453 
L 160 5453 
C 570 4890 742 4608 909 4198 
C 1126 3667 1248 3027 1248 2432 
C 1248 1837 1126 1197 909 666 
C 742 256 570 -26 160 -589 
L 1203 -589 
z
" transform="scale(0.015625)"/>
    </defs>
    <use xlink:href="#HiraginoSans-W7-5358" transform="translate(0 0.890625)"/>
    <use xlink:href="#HiraginoSans-W7-95a2" transform="translate(99.999985 0.890625)"/>
    <use xlink:href="#HiraginoSans-W7-6570" transform="translate(199.999969 0.890625)"/>
    <use xlink:href="#HiraginoSans-W7-5217" transform="translate(299.999954 0.890625)"/>
    <use xlink:href="#HiraginoSans-W7-306b" transform="translate(399.999939 0.890625)"/>
    <use xlink:href="#HiraginoSans-W7-3088" transform="translate(499.999924 0.890625)"/>
    <use xlink:href="#HiraginoSans-W7-308b" transform="translate(599.999908 0.890625)"/>
    <use xlink:href="#HiraginoSans-W7-20" transform="translate(699.999893 0.890625)"/>
    <use xlink:href="#DejaVuSans-Oblique-66" transform="translate(733.299881 0.890625)"/>
    <use xlink:href="#DejaVuSans-28" transform="translate(768.504959 0.890625)"/>
    <use xlink:href="#DejaVuSans-Oblique-78" transform="translate(807.518631 0.890625)"/>
    <use xlink:href="#DejaVuSans-29" transform="translate(866.698318 0.890625)"/>
    <use xlink:href="#DejaVuSans-3d" transform="translate(925.194412 0.890625)"/>
    <use xlink:href="#DejaVuSans-221a" transform="translate(1028.465897 0.890625)"/>
    <use xlink:href="#DejaVuSans-Oblique-78" transform="translate(1104.6866 1.0625)"/>
    <use xlink:href="#HiraginoSans-W7-20" transform="translate(1176.366287 0.890625)"/>
    <use xlink:href="#HiraginoSans-W7-306e" transform="translate(1209.666275 0.890625)"/>
    <use xlink:href="#HiraginoSans-W7-8fd1" transform="translate(1309.66626 0.890625)"/>
    <use xlink:href="#HiraginoSans-W7-4f3c" transform="translate(1409.666245 0.890625)"/>
    <use xlink:href="#HiraginoSans-W7-ff08" transform="translate(1509.666229 0.890625)"/>
    <use xlink:href="#HiraginoSans-W7-4e2d" transform="translate(1609.666214 0.890625)"/>
    <use xlink:href="#HiraginoSans-W7-70b9" transform="translate(1709.666199 0.890625)"/>
    <use xlink:href="#HiraginoSans-W7-8fd1" transform="translate(1809.666183 0.890625)"/>
    <use xlink:href="#HiraginoSans-W7-4f3c" transform="translate(1909.666168 0.890625)"/>
    <use xlink:href="#HiraginoSans-W7-ff09" transform="translate(2009.666153 0.890625)"/>
    <path d="M 1092.1866 75.5 
L 1092.1866 81.75 
L 1176.366287 81.75 
L 1176.366287 75.5 
L 1092.1866 75.5 
z
"/>
   </g>
  </g>
 </g>
 <defs>
  <clipPath id="p10cb6b8b43">
   <rect x="43.939063" y="52.8" width="204.4" height="194.68"/>
  </clipPath>
  <clipPath id="p33fc603b9d">
   <rect x="304.339062" y="52.8" width="204.4" height="194.68"/>
  </clipPath>
  <clipPath id="p2f6c3b1b51">
   <rect x="564.739062" y="52.8" width="204.4" height="194.68"/>
  </clipPath>
 </defs>
</svg>
