<?xml version="1.0" encoding="utf-8" standalone="no"?>
<!DOCTYPE svg PUBLIC "-//W3C//DTD SVG 1.1//EN"
  "http://www.w3.org/Graphics/SVG/1.1/DTD/svg11.dtd">
<svg xmlns:xlink="http://www.w3.org/1999/xlink" width="349.2pt" height="311.104375pt" viewBox="0 0 349.2 311.104375" xmlns="http://www.w3.org/2000/svg" version="1.1">
 <metadata>
  <rdf:RDF xmlns:dc="http://purl.org/dc/elements/1.1/" xmlns:cc="http://creativecommons.org/ns#" xmlns:rdf="http://www.w3.org/1999/02/22-rdf-syntax-ns#">
   <cc:Work>
    <dc:type rdf:resource="http://purl.org/dc/dcmitype/StillImage"/>
    <dc:date>2026-03-29T00:53:42.942569</dc:date>
    <dc:format>image/svg+xml</dc:format>
    <dc:creator>
     <cc:Agent>
      <dc:title>Matplotlib v3.10.8, https://matplotlib.org/</dc:title>
     </cc:Agent>
    </dc:creator>
   </cc:Work>
  </rdf:RDF>
 </metadata>
 <defs>
  <style type="text/css">*{stroke-linejoin: round; stroke-linecap: butt}</style>
 </defs>
 <g id="figure_1">
  <g id="patch_1">
   <path d="M 0 311.104375 
L 349.2 311.104375 
L 349.2 0 
L 0 0 
z
" style="fill: #ffffff"/>
  </g>
  <g id="axes_1">
   <g id="patch_2">
    <path d="M 174.6 225.941875 
C 190.13825 225.941875 205.042185 221.378197 216.029386 213.255937 
C 227.016588 205.133678 233.19 194.115984 233.19 182.629375 
C 233.19 171.142766 227.016588 160.125072 216.029386 152.002813 
C 205.042185 143.880553 190.13825 139.316875 174.6 139.316875 
C 159.06175 139.316875 144.157815 143.880553 133.170614 152.002813 
C 122.183412 160.125072 116.01 171.142766 116.01 182.629375 
C 116.01 194.115984 122.183412 205.133678 133.170614 213.255937 
C 144.157815 221.378197 159.06175 225.941875 174.6 225.941875 
z
" clip-path="url(#pe3ae75d3ce)" style="fill: #1d4ed8; opacity: 0.7; stroke: #1e3a8a; stroke-width: 2; stroke-linejoin: miter"/>
   </g>
   <g id="patch_3">
    <path d="M 174.6 251.929375 
C 203.456749 251.929375 231.135486 244.62749 251.540289 231.631875 
C 271.945092 218.63626 283.41 201.00795 283.41 182.629375 
C 283.41 164.2508 271.945092 146.62249 251.540289 133.626875 
C 231.135486 120.63126 203.456749 113.329375 174.6 113.329375 
C 145.743251 113.329375 118.064514 120.63126 97.659711 133.626875 
C 77.254908 146.62249 65.79 164.2508 65.79 182.629375 
C 65.79 201.00795 77.254908 218.63626 97.659711 231.631875 
C 118.064514 244.62749 145.743251 251.929375 174.6 251.929375 
z
" clip-path="url(#pe3ae75d3ce)" style="fill: #93c5fd; opacity: 0.7; stroke: #1d4ed8; stroke-width: 2; stroke-linejoin: miter"/>
   </g>
   <g id="patch_4">
    <path d="M 174.6 277.916875 
C 214.555499 277.916875 252.879903 267.876783 281.132708 250.007812 
C 309.385512 232.138842 325.26 207.899915 325.26 182.629375 
C 325.26 157.358835 309.385512 133.119908 281.132708 115.250938 
C 252.879903 97.381967 214.555499 87.341875 174.6 87.341875 
C 134.644501 87.341875 96.320097 97.381967 68.067292 115.250938 
C 39.814488 133.119908 23.94 157.358835 23.94 182.629375 
C 23.94 207.899915 39.814488 232.138842 68.067292 250.007812 
C 96.320097 267.876783 134.644501 277.916875 174.6 277.916875 
z
" clip-path="url(#pe3ae75d3ce)" style="fill: #dbeafe; opacity: 0.7; stroke: #2563eb; stroke-width: 2; stroke-linejoin: miter"/>
   </g>
   <g id="text_1">
    <!-- $L^\infty$ -->
    <g style="fill: #ffffff" transform="translate(167.16 196.522187) scale(0.12 -0.12)">
     <defs>
      <path id="DejaVuSans-Oblique-4c" d="M 1075 4666 
L 1709 4666 
L 909 525 
L 3181 525 
L 3078 0 
L 172 0 
L 1075 4666 
z
" transform="scale(0.015625)"/>
      <path id="DejaVuSans-221e" d="M 2916 1091 
Q 2819 1203 2666 1466 
Q 2456 1091 2272 925 
Q 2041 725 1681 725 
Q 1259 725 981 1041 
Q 688 1372 688 1919 
Q 688 2444 981 2800 
Q 1244 3116 1688 3116 
Q 1916 3116 2084 3022 
Q 2281 2919 2416 2741 
Q 2541 2581 2666 2366 
Q 2875 2741 3059 2906 
Q 3291 3106 3650 3106 
Q 4072 3106 4350 2791 
Q 4644 2459 4644 1913 
Q 4644 1388 4350 1031 
Q 4088 716 3644 716 
Q 3416 716 3247 809 
Q 3078 894 2916 1091 
z
M 1647 1134 
Q 2163 1134 2472 1884 
Q 2075 2703 1647 2703 
Q 1334 2703 1175 2478 
Q 1003 2238 1003 1919 
Q 1003 1569 1175 1353 
Q 1350 1134 1647 1134 
z
M 3684 2697 
Q 3219 2697 2859 1947 
Q 3253 1128 3684 1128 
Q 3997 1128 4156 1353 
Q 4328 1594 4328 1913 
Q 4328 2263 4156 2478 
Q 3981 2697 3684 2697 
z
" transform="scale(0.015625)"/>
     </defs>
     <use xlink:href="#DejaVuSans-Oblique-4c" transform="translate(0 0.09375)"/>
     <use xlink:href="#DejaVuSans-221e" transform="translate(62.729661 38.375) scale(0.7)"/>
    </g>
   </g>
   <g id="text_2">
    <!-- $\|f\|_\infty = \text{ess\,sup}|f|$ -->
    <g style="fill: #ffffff" transform="translate(144.6 214.069375) scale(0.075 -0.075)">
     <defs>
      <path id="DejaVuSans-2016" d="M 1344 4891 
L 1344 -1509 
L 813 -1509 
L 813 4891 
L 1344 4891 
z
M 2376 4891 
L 2376 -1509 
L 1845 -1509 
L 1845 4891 
L 2376 4891 
z
" transform="scale(0.015625)"/>
      <path id="DejaVuSans-Oblique-66" d="M 3059 4863 
L 2969 4384 
L 2419 4384 
Q 2106 4384 1964 4261 
Q 1822 4138 1753 3809 
L 1691 3500 
L 2638 3500 
L 2553 3053 
L 1606 3053 
L 1013 0 
L 434 0 
L 1031 3053 
L 481 3053 
L 563 3500 
L 1113 3500 
L 1159 3744 
Q 1278 4363 1576 4613 
Q 1875 4863 2516 4863 
L 3059 4863 
z
" transform="scale(0.015625)"/>
      <path id="DejaVuSans-3d" d="M 678 2906 
L 4684 2906 
L 4684 2381 
L 678 2381 
L 678 2906 
z
M 678 1631 
L 4684 1631 
L 4684 1100 
L 678 1100 
L 678 1631 
z
" transform="scale(0.015625)"/>
      <path id="DejaVuSans-65" d="M 3597 1894 
L 3597 1613 
L 953 1613 
Q 991 1019 1311 708 
Q 1631 397 2203 397 
Q 2534 397 2845 478 
Q 3156 559 3463 722 
L 3463 178 
Q 3153 47 2828 -22 
Q 2503 -91 2169 -91 
Q 1331 -91 842 396 
Q 353 884 353 1716 
Q 353 2575 817 3079 
Q 1281 3584 2069 3584 
Q 2775 3584 3186 3129 
Q 3597 2675 3597 1894 
z
M 3022 2063 
Q 3016 2534 2758 2815 
Q 2500 3097 2075 3097 
Q 1594 3097 1305 2825 
Q 1016 2553 972 2059 
L 3022 2063 
z
" transform="scale(0.015625)"/>
      <path id="DejaVuSans-73" d="M 2834 3397 
L 2834 2853 
Q 2591 2978 2328 3040 
Q 2066 3103 1784 3103 
Q 1356 3103 1142 2972 
Q 928 2841 928 2578 
Q 928 2378 1081 2264 
Q 1234 2150 1697 2047 
L 1894 2003 
Q 2506 1872 2764 1633 
Q 3022 1394 3022 966 
Q 3022 478 2636 193 
Q 2250 -91 1575 -91 
Q 1294 -91 989 -36 
Q 684 19 347 128 
L 347 722 
Q 666 556 975 473 
Q 1284 391 1588 391 
Q 1994 391 2212 530 
Q 2431 669 2431 922 
Q 2431 1156 2273 1281 
Q 2116 1406 1581 1522 
L 1381 1569 
Q 847 1681 609 1914 
Q 372 2147 372 2553 
Q 372 3047 722 3315 
Q 1072 3584 1716 3584 
Q 2034 3584 2315 3537 
Q 2597 3491 2834 3397 
z
" transform="scale(0.015625)"/>
      <path id="DejaVuSans-2c" d="M 750 794 
L 1409 794 
L 1409 256 
L 897 -744 
L 494 -744 
L 750 256 
L 750 794 
z
" transform="scale(0.015625)"/>
      <path id="DejaVuSans-75" d="M 544 1381 
L 544 3500 
L 1119 3500 
L 1119 1403 
Q 1119 906 1312 657 
Q 1506 409 1894 409 
Q 2359 409 2629 706 
Q 2900 1003 2900 1516 
L 2900 3500 
L 3475 3500 
L 3475 0 
L 2900 0 
L 2900 538 
Q 2691 219 2414 64 
Q 2138 -91 1772 -91 
Q 1169 -91 856 284 
Q 544 659 544 1381 
z
M 1991 3584 
L 1991 3584 
z
" transform="scale(0.015625)"/>
      <path id="DejaVuSans-70" d="M 1159 525 
L 1159 -1331 
L 581 -1331 
L 581 3500 
L 1159 3500 
L 1159 2969 
Q 1341 3281 1617 3432 
Q 1894 3584 2278 3584 
Q 2916 3584 3314 3078 
Q 3713 2572 3713 1747 
Q 3713 922 3314 415 
Q 2916 -91 2278 -91 
Q 1894 -91 1617 61 
Q 1341 213 1159 525 
z
M 3116 1747 
Q 3116 2381 2855 2742 
Q 2594 3103 2138 3103 
Q 1681 3103 1420 2742 
Q 1159 2381 1159 1747 
Q 1159 1113 1420 752 
Q 1681 391 2138 391 
Q 2594 391 2855 752 
Q 3116 1113 3116 1747 
z
" transform="scale(0.015625)"/>
      <path id="DejaVuSans-7c" d="M 1344 4891 
L 1344 -1509 
L 813 -1509 
L 813 4891 
L 1344 4891 
z
" transform="scale(0.015625)"/>
     </defs>
     <use xlink:href="#DejaVuSans-2016" transform="translate(0 0.578125)"/>
     <use xlink:href="#DejaVuSans-Oblique-66" transform="translate(50 0.578125)"/>
     <use xlink:href="#DejaVuSans-2016" transform="translate(85.205078 0.578125)"/>
     <use xlink:href="#DejaVuSans-221e" transform="translate(136.162109 -15.828125) scale(0.7)"/>
     <use xlink:href="#DejaVuSans-3d" transform="translate(216.689453 0.578125)"/>
     <use xlink:href="#DejaVuSans-65" transform="translate(319.960938 0.578125)"/>
     <use xlink:href="#DejaVuSans-73" transform="translate(381.484375 0.578125)"/>
     <use xlink:href="#DejaVuSans-73" transform="translate(433.583984 0.578125)"/>
     <use xlink:href="#DejaVuSans-2c" transform="translate(485.683594 0.578125)"/>
     <use xlink:href="#DejaVuSans-73" transform="translate(517.470703 0.578125)"/>
     <use xlink:href="#DejaVuSans-75" transform="translate(569.570312 0.578125)"/>
     <use xlink:href="#DejaVuSans-70" transform="translate(632.949219 0.578125)"/>
     <use xlink:href="#DejaVuSans-7c" transform="translate(696.425781 0.578125)"/>
     <use xlink:href="#DejaVuSans-Oblique-66" transform="translate(730.117188 0.578125)"/>
     <use xlink:href="#DejaVuSans-7c" transform="translate(765.322266 0.578125)"/>
    </g>
   </g>
   <g id="text_3">
    <!-- $L^2$ -->
    <g style="fill: #1a1a2e" transform="translate(167.94 134.152187) scale(0.12 -0.12)">
     <defs>
      <path id="DejaVuSans-32" d="M 1228 531 
L 3431 531 
L 3431 0 
L 469 0 
L 469 531 
Q 828 903 1448 1529 
Q 2069 2156 2228 2338 
Q 2531 2678 2651 2914 
Q 2772 3150 2772 3378 
Q 2772 3750 2511 3984 
Q 2250 4219 1831 4219 
Q 1534 4219 1204 4116 
Q 875 4013 500 3803 
L 500 4441 
Q 881 4594 1212 4672 
Q 1544 4750 1819 4750 
Q 2544 4750 2975 4387 
Q 3406 4025 3406 3419 
Q 3406 3131 3298 2873 
Q 3191 2616 2906 2266 
Q 2828 2175 2409 1742 
Q 1991 1309 1228 531 
z
" transform="scale(0.015625)"/>
     </defs>
     <use xlink:href="#DejaVuSans-Oblique-4c" transform="translate(0 0.765625)"/>
     <use xlink:href="#DejaVuSans-32" transform="translate(62.729661 39.046875) scale(0.7)"/>
    </g>
   </g>
   <g id="text_4">
    <!-- $\|f\|_2 = \left(\int |f|^2\right)^{1/2}$ -->
    <g style="fill: #1a1a2e" transform="translate(147.075 152.599375) scale(0.075 -0.075)">
     <defs>
      <path id="STIXSizeTwoSym-Regular-28" d="M 3219 -1555 
L 3219 -1786 
Q 2144 -774 1517 730 
Q 890 2234 890 4115 
Q 890 6003 1533 7593 
Q 2176 9184 3219 10022 
L 3219 9811 
Q 2490 9062 1994 7606 
Q 1498 6150 1498 4115 
Q 1498 563 3219 -1555 
z
" transform="scale(0.015625)"/>
      <path id="DejaVuSansDisplay-222b" d="M 2134 5525 
Q 2172 6263 2528 6556 
Q 2884 6850 3218 6850 
Q 3553 6850 3833 6575 
Q 4113 6300 4200 5678 
L 3544 5613 
Q 3469 6188 3219 6188 
Q 2906 6188 2869 5413 
L 2581 -597 
Q 2547 -1334 2187 -1628 
Q 1828 -1922 1497 -1922 
Q 1163 -1922 883 -1647 
Q 603 -1372 516 -750 
L 1172 -684 
Q 1247 -1259 1497 -1259 
Q 1809 -1259 1847 -488 
L 2134 5525 
z
" transform="scale(0.015625)"/>
      <path id="STIXSizeTwoSym-Regular-29" d="M 730 9792 
L 730 10022 
Q 1805 9011 2432 7507 
Q 3059 6003 3059 4115 
Q 3059 2234 2416 643 
Q 1773 -947 730 -1786 
L 730 -1574 
Q 1459 -826 1955 633 
Q 2451 2093 2451 4115 
Q 2451 7674 730 9792 
z
" transform="scale(0.015625)"/>
      <path id="DejaVuSans-31" d="M 794 531 
L 1825 531 
L 1825 4091 
L 703 3866 
L 703 4441 
L 1819 4666 
L 2450 4666 
L 2450 531 
L 3481 531 
L 3481 0 
L 794 0 
L 794 531 
z
" transform="scale(0.015625)"/>
      <path id="DejaVuSans-2f" d="M 1625 4666 
L 2156 4666 
L 531 -594 
L 0 -594 
L 1625 4666 
z
" transform="scale(0.015625)"/>
     </defs>
     <use xlink:href="#DejaVuSans-2016" transform="translate(0 0.96875)"/>
     <use xlink:href="#DejaVuSans-Oblique-66" transform="translate(50 0.96875)"/>
     <use xlink:href="#DejaVuSans-2016" transform="translate(85.205078 0.96875)"/>
     <use xlink:href="#DejaVuSans-32" transform="translate(136.162109 -15.4375) scale(0.7)"/>
     <use xlink:href="#DejaVuSans-3d" transform="translate(202.915039 0.96875)"/>
     <use xlink:href="#STIXSizeTwoSym-Regular-28" transform="translate(306.186523 -8.421875) scale(0.742886)"/>
     <use xlink:href="#DejaVuSansDisplay-222b" transform="translate(349.919769 0.96875)"/>
     <use xlink:href="#DejaVuSans-7c" transform="translate(423.552582 0.96875)"/>
     <use xlink:href="#DejaVuSans-Oblique-66" transform="translate(457.243988 0.96875)"/>
     <use xlink:href="#DejaVuSans-7c" transform="translate(492.449066 0.96875)"/>
     <use xlink:href="#DejaVuSans-32" transform="translate(527.097504 39.25) scale(0.7)"/>
     <use xlink:href="#STIXSizeTwoSym-Regular-29" transform="translate(574.368011 -8.421875) scale(0.742886)"/>
     <use xlink:href="#DejaVuSans-31" transform="translate(620.46904 39.25) scale(0.7)"/>
     <use xlink:href="#DejaVuSans-2f" transform="translate(665.005173 39.25) scale(0.7)"/>
     <use xlink:href="#DejaVuSans-32" transform="translate(686.051657 39.25) scale(0.7)"/>
    </g>
   </g>
   <g id="text_5">
    <!-- $L^1$ -->
    <g style="fill: #1a1a2e" transform="translate(167.94 64.852187) scale(0.12 -0.12)">
     <use xlink:href="#DejaVuSans-Oblique-4c" transform="translate(0 0.684375)"/>
     <use xlink:href="#DejaVuSans-31" transform="translate(62.729661 38.965625) scale(0.7)"/>
    </g>
   </g>
   <g id="text_6">
    <!-- $\|f\|_1 = \int |f| \, d\mu$ -->
    <g style="fill: #1a1a2e" transform="translate(151.125 83.299375) scale(0.075 -0.075)">
     <defs>
      <path id="DejaVuSans-Oblique-64" d="M 2675 525 
Q 2444 222 2128 65 
Q 1813 -91 1428 -91 
Q 903 -91 598 267 
Q 294 625 294 1247 
Q 294 1766 478 2236 
Q 663 2706 1013 3078 
Q 1244 3325 1534 3454 
Q 1825 3584 2144 3584 
Q 2481 3584 2739 3421 
Q 2997 3259 3138 2956 
L 3513 4863 
L 4091 4863 
L 3144 0 
L 2566 0 
L 2675 525 
z
M 891 1350 
Q 891 897 1095 644 
Q 1300 391 1663 391 
Q 1931 391 2161 520 
Q 2391 650 2566 903 
Q 2750 1166 2856 1509 
Q 2963 1853 2963 2188 
Q 2963 2622 2758 2865 
Q 2553 3109 2194 3109 
Q 1922 3109 1687 2981 
Q 1453 2853 1288 2613 
Q 1106 2353 998 2009 
Q 891 1666 891 1350 
z
" transform="scale(0.015625)"/>
      <path id="DejaVuSans-Oblique-3bc" d="M -84 -1331 
L 856 3500 
L 1434 3500 
L 1009 1322 
Q 997 1256 987 1175 
Q 978 1094 978 1013 
Q 978 722 1161 565 
Q 1344 409 1684 409 
Q 2147 409 2431 671 
Q 2716 934 2816 1459 
L 3213 3500 
L 3788 3500 
L 3266 809 
Q 3253 750 3248 706 
Q 3244 663 3244 628 
Q 3244 531 3283 486 
Q 3322 441 3406 441 
Q 3438 441 3492 456 
Q 3547 472 3647 513 
L 3559 50 
Q 3422 -19 3297 -55 
Q 3172 -91 3053 -91 
Q 2847 -91 2730 40 
Q 2613 172 2613 403 
Q 2438 153 2195 31 
Q 1953 -91 1625 -91 
Q 1334 -91 1117 43 
Q 900 178 831 397 
L 494 -1331 
L -84 -1331 
z
" transform="scale(0.015625)"/>
     </defs>
     <use xlink:href="#DejaVuSans-2016" transform="translate(0 0.96875)"/>
     <use xlink:href="#DejaVuSans-Oblique-66" transform="translate(50 0.96875)"/>
     <use xlink:href="#DejaVuSans-2016" transform="translate(85.205078 0.96875)"/>
     <use xlink:href="#DejaVuSans-31" transform="translate(136.162109 -15.4375) scale(0.7)"/>
     <use xlink:href="#DejaVuSans-3d" transform="translate(202.915039 0.96875)"/>
     <use xlink:href="#DejaVuSansDisplay-222b" transform="translate(306.186523 0.96875)"/>
     <use xlink:href="#DejaVuSans-7c" transform="translate(379.819336 0.96875)"/>
     <use xlink:href="#DejaVuSans-Oblique-66" transform="translate(413.510742 0.96875)"/>
     <use xlink:href="#DejaVuSans-7c" transform="translate(448.71582 0.96875)"/>
     <use xlink:href="#DejaVuSans-Oblique-64" transform="translate(498.642903 0.96875)"/>
     <use xlink:href="#DejaVuSans-Oblique-3bc" transform="translate(562.119465 0.96875)"/>
    </g>
   </g>
   <g id="text_7">
    <!-- 有限測度の場合：$L^\infty \subset L^2 \subset L^1$ -->
    <g style="fill: #1a1a2e" transform="translate(105.1 286.579375) scale(0.1 -0.1)">
     <defs>
      <path id="HiraginoSans-W7-6709" d="M 1466 314 
C 1466 -45 1453 -307 1427 -531 
L 2323 -531 
C 2298 -307 2285 -51 2285 301 
L 2285 787 
L 4525 787 
L 4525 429 
C 4525 282 4480 256 4237 256 
C 4058 256 3834 275 3488 314 
C 3610 19 3654 -154 3686 -480 
C 3981 -493 4115 -499 4269 -499 
C 4685 -499 4922 -467 5062 -384 
C 5254 -282 5344 -96 5344 186 
L 5344 2906 
C 5344 3226 5350 3430 5376 3629 
C 5203 3610 5018 3603 4710 3603 
L 2541 3603 
C 2662 3795 2707 3866 2810 4051 
L 5344 4051 
C 5664 4051 5907 4038 6125 4013 
L 6125 4845 
C 5920 4819 5677 4806 5344 4806 
L 3174 4806 
C 3219 4915 3226 4922 3245 4986 
C 3328 5210 3347 5248 3392 5344 
L 2451 5446 
C 2419 5242 2362 5030 2278 4806 
L 1114 4806 
C 781 4806 538 4819 320 4845 
L 320 4013 
C 544 4038 781 4051 1107 4051 
L 1914 4051 
C 1504 3366 934 2797 141 2291 
C 358 2054 474 1882 640 1530 
C 979 1798 1222 2016 1466 2266 
L 1466 314 
z
M 4525 1837 
L 4525 1453 
L 2285 1453 
L 2285 1837 
L 4525 1837 
z
M 4525 2502 
L 2285 2502 
L 2285 2874 
L 4525 2874 
L 4525 2502 
z
" transform="scale(0.015625)"/>
      <path id="HiraginoSans-W7-9650" d="M 5638 2259 
C 5715 2259 5722 2259 5875 2253 
C 5856 2490 5850 2605 5850 2950 
L 5850 4499 
C 5850 4883 5856 5075 5875 5210 
C 5683 5190 5600 5184 5286 5184 
L 3366 5184 
C 3040 5184 2899 5190 2758 5216 
C 2778 4960 2784 4806 2784 4525 
L 2784 397 
C 2451 339 2208 307 2074 307 
L 2221 -550 
C 2285 -531 2355 -512 2483 -480 
L 3334 -294 
C 3955 -147 4122 -102 4595 32 
L 4589 614 
C 4698 461 4781 358 4896 230 
C 5197 -96 5446 -301 5869 -563 
C 6016 -198 6125 -6 6317 224 
C 5875 448 5568 678 5274 1024 
C 5504 1190 5741 1376 5869 1491 
C 6131 1715 6176 1760 6214 1779 
L 5638 2259 
z
M 5408 2266 
C 5434 2266 5472 2266 5555 2266 
C 5446 2125 5197 1901 4877 1658 
C 4781 1869 4742 1997 4685 2266 
L 5408 2266 
z
M 3578 2266 
L 3942 2266 
C 4070 1626 4211 1248 4486 781 
C 4192 691 4032 653 3578 557 
L 3578 2266 
z
M 3578 4454 
L 5062 4454 
L 5062 4051 
L 3578 4051 
L 3578 4454 
z
M 3578 3373 
L 5062 3373 
L 5062 2944 
L 3578 2944 
L 3578 3373 
z
M 474 256 
C 474 -64 461 -339 435 -544 
L 1306 -544 
C 1280 -282 1274 -32 1274 256 
L 1274 4480 
L 1875 4480 
C 1677 3834 1587 3590 1338 3110 
C 1562 2848 1645 2714 1728 2509 
C 1818 2304 1862 2080 1862 1869 
C 1862 1677 1792 1619 1568 1619 
C 1498 1619 1446 1626 1338 1638 
C 1446 1408 1478 1235 1491 845 
C 1805 851 2048 883 2202 947 
C 2490 1056 2650 1331 2650 1696 
C 2650 2234 2528 2566 2131 3155 
C 2374 3654 2470 3891 2694 4506 
C 2726 4595 2752 4672 2778 4730 
L 2381 5254 
C 2298 5229 2176 5222 1901 5222 
L 934 5222 
C 691 5222 582 5229 448 5248 
C 474 4883 474 4819 474 4602 
L 474 256 
z
" transform="scale(0.015625)"/>
      <path id="HiraginoSans-W7-6e2c" d="M 262 4787 
C 678 4486 902 4294 1210 3930 
L 1779 4563 
C 1498 4890 1293 5062 838 5376 
L 262 4787 
z
M 141 3168 
C 557 2906 806 2688 1139 2323 
L 1645 3002 
C 1325 3328 1075 3520 653 3776 
L 141 3168 
z
M 960 2010 
C 730 1088 486 486 186 64 
L 890 -518 
C 1331 422 1434 710 1645 1536 
L 960 2010 
z
M 3546 1011 
C 3654 1011 3814 1005 3936 998 
C 3923 1146 3917 1280 3917 1536 
L 3917 4685 
C 3917 4947 3923 5075 3936 5242 
C 3802 5229 3642 5222 3456 5216 
L 2310 5216 
C 2080 5216 1946 5222 1811 5242 
C 1818 5024 1824 4909 1824 4717 
L 1824 1555 
C 1824 1293 1818 1158 1811 992 
C 1952 1005 2042 1011 2202 1011 
L 3546 1011 
z
M 2541 4525 
L 3200 4525 
L 3200 4032 
L 2541 4032 
L 2541 4525 
z
M 2541 3366 
L 3200 3366 
L 3200 2886 
L 2541 2886 
L 2541 3366 
z
M 2541 2221 
L 3200 2221 
L 3200 1702 
L 2541 1702 
L 2541 2221 
z
M 5005 1043 
C 4986 1171 4979 1318 4979 1536 
L 4979 4442 
C 4979 4672 4986 4819 5005 4954 
L 4198 4954 
C 4218 4819 4224 4672 4224 4461 
L 4224 1536 
C 4224 1325 4218 1190 4198 1043 
L 5005 1043 
z
M 2182 992 
C 1952 525 1779 307 1363 6 
C 1581 -154 1709 -288 1939 -570 
C 2355 -160 2547 102 2803 614 
L 2182 992 
z
M 2880 621 
C 3155 154 3379 -154 3731 -525 
C 3987 -243 4115 -122 4333 32 
C 3962 333 3763 570 3501 1005 
L 2880 621 
z
M 6035 4589 
C 6035 4947 6042 5120 6067 5312 
L 5242 5312 
C 5261 5088 5274 4870 5274 4582 
L 5274 474 
C 5274 333 5235 307 5037 307 
C 4800 307 4634 320 4397 346 
C 4506 51 4544 -96 4582 -454 
C 4787 -461 4845 -461 5056 -461 
C 5850 -461 6035 -320 6035 294 
L 6035 4589 
z
" transform="scale(0.015625)"/>
      <path id="HiraginoSans-W7-5ea6" d="M 2272 3226 
L 2272 2662 
C 2272 2515 2266 2355 2253 2246 
C 2387 2253 2426 2253 2682 2253 
L 4640 2253 
C 4890 2253 4890 2253 5050 2246 
C 5037 2362 5030 2490 5030 2662 
L 5030 3226 
L 5568 3226 
C 5862 3226 5984 3219 6125 3200 
L 6125 3942 
C 5952 3923 5818 3917 5562 3917 
L 5030 3917 
L 5030 4160 
C 5030 4211 5030 4230 5030 4275 
L 5440 4275 
C 5741 4275 5888 4269 6112 4250 
L 6112 5011 
C 5920 4986 5670 4973 5312 4973 
L 3795 4973 
L 3795 5082 
C 3795 5235 3802 5338 3827 5434 
L 2918 5434 
C 2938 5325 2950 5229 2950 5088 
L 2950 4973 
L 1408 4973 
C 1114 4973 883 4986 646 5005 
C 666 4755 672 4538 672 4160 
C 672 1786 563 1018 122 173 
C 384 -58 538 -237 749 -550 
C 1043 -38 1190 378 1312 1005 
C 1421 1581 1472 2278 1485 3226 
L 2272 3226 
z
M 3078 3251 
L 4224 3251 
L 4224 2874 
L 3078 2874 
L 3078 3251 
z
M 4224 3917 
L 3072 3917 
L 3072 4147 
L 3085 4275 
L 4224 4275 
C 4224 4224 4224 4205 4224 4154 
L 4224 3917 
z
M 2272 3917 
L 1491 3917 
L 1491 4275 
L 2266 4275 
C 2272 4192 2272 4160 2272 4128 
L 2272 3917 
z
M 2701 1312 
L 2003 1037 
C 2093 966 2093 966 2419 704 
C 2541 602 2624 538 2752 454 
C 2285 307 1850 237 1158 211 
C 1318 -122 1376 -275 1446 -570 
C 2368 -448 2899 -307 3565 -6 
C 4230 -320 4864 -474 5888 -570 
C 5971 -230 6054 6 6195 288 
C 6125 288 6067 288 6035 288 
C 5446 288 4928 352 4435 493 
C 4755 717 5050 986 5318 1299 
C 5485 1491 5485 1491 5542 1549 
L 5133 1978 
C 4973 1965 4845 1958 4563 1958 
L 2336 1958 
C 1978 1958 1798 1965 1626 1984 
L 1626 1286 
C 1798 1306 2003 1312 2278 1312 
L 2701 1312 
z
M 4294 1312 
C 4045 1075 3904 966 3610 800 
C 3296 954 3130 1062 2835 1312 
L 4294 1312 
z
" transform="scale(0.015625)"/>
      <path id="HiraginoSans-W7-306e" d="M 3776 4038 
C 4032 4006 4186 3955 4371 3834 
C 4806 3546 5056 3066 5056 2496 
C 5056 1818 4723 1222 4173 922 
C 3872 762 3475 659 2906 614 
C 3155 282 3245 109 3379 -294 
C 3834 -218 4090 -154 4397 -32 
C 5421 371 6003 1274 6003 2438 
C 6003 3936 4979 4896 3373 4896 
C 2458 4896 1670 4576 1120 3974 
C 653 3469 403 2803 403 2074 
C 403 973 966 198 1760 198 
C 2310 198 2733 576 3091 1389 
C 3424 2131 3648 2982 3776 4038 
z
M 2842 4026 
C 2765 3341 2566 2534 2330 1965 
C 2125 1446 1926 1197 1741 1197 
C 1491 1197 1286 1587 1286 2067 
C 1286 2707 1587 3328 2074 3706 
C 2323 3898 2534 3987 2842 4026 
z
" transform="scale(0.015625)"/>
      <path id="HiraginoSans-W7-5834" d="M 3200 1408 
C 2874 1056 2477 832 1754 602 
C 1965 416 2067 288 2189 77 
C 3034 410 3546 794 3981 1408 
L 4301 1408 
C 4090 1037 3878 787 3590 570 
C 3245 301 2950 141 2438 -64 
C 2669 -250 2784 -371 2944 -608 
C 3430 -384 3744 -192 4090 109 
C 4179 -96 4224 -256 4250 -499 
C 4525 -512 4614 -518 4749 -518 
C 5318 -518 5568 -435 5715 -198 
C 5882 64 5990 742 6016 1651 
C 6022 1856 6022 1920 6042 2035 
C 5856 2022 5728 2016 5421 2016 
L 3386 2016 
C 3456 2106 3475 2138 3539 2240 
L 5498 2240 
C 5779 2240 5984 2234 6170 2208 
L 6170 2931 
C 5997 2912 5792 2899 5491 2899 
L 2669 2899 
C 2374 2899 2202 2906 2054 2931 
L 2054 2208 
C 2208 2234 2381 2240 2656 2240 
L 2739 2240 
C 2566 2022 2400 1888 2061 1690 
L 2061 2125 
C 1843 2016 1792 1990 1664 1920 
L 1664 3136 
L 1766 3136 
C 1933 3136 2029 3130 2176 3117 
L 2176 3898 
C 2074 3885 1952 3878 1760 3878 
L 1664 3878 
L 1664 4627 
C 1664 4973 1670 5139 1702 5344 
L 826 5344 
C 851 5146 864 4966 864 4627 
L 864 3878 
L 723 3878 
C 531 3878 384 3885 250 3904 
L 250 3104 
C 410 3130 550 3136 723 3136 
L 864 3136 
L 864 1562 
C 518 1434 346 1376 198 1344 
L 371 454 
C 486 518 493 525 525 538 
C 1197 851 1453 979 1843 1222 
C 1939 1101 1965 1062 2035 928 
C 2374 1101 2541 1203 2797 1408 
L 3200 1408 
z
M 5235 1408 
C 5197 960 5178 774 5139 582 
C 5075 288 5018 237 4774 237 
C 4634 237 4467 243 4262 262 
C 4608 614 4806 890 5062 1408 
L 5235 1408 
z
M 5126 3130 
C 5382 3130 5574 3123 5702 3117 
C 5683 3277 5677 3462 5677 3738 
L 5677 4602 
C 5677 4941 5683 5075 5702 5254 
C 5510 5229 5344 5222 5011 5222 
L 3066 5222 
C 2739 5222 2598 5229 2400 5254 
C 2419 5069 2426 4922 2426 4659 
L 2426 3744 
C 2426 3475 2419 3309 2400 3110 
C 2547 3123 2746 3130 2989 3130 
L 5126 3130 
z
M 3194 4614 
L 4909 4614 
L 4909 4384 
L 3194 4384 
L 3194 4614 
z
M 3194 3891 
L 4909 3891 
L 4909 3674 
L 3194 3674 
L 3194 3891 
z
" transform="scale(0.015625)"/>
      <path id="HiraginoSans-W7-5408" d="M 1498 2790 
C 1670 2810 1856 2816 2074 2816 
L 4333 2816 
C 4595 2816 4755 2810 4922 2790 
L 4922 3187 
C 5274 2976 5466 2880 5882 2701 
C 6010 3059 6093 3232 6278 3546 
C 5670 3750 5216 3981 4710 4339 
C 4186 4710 3904 4986 3622 5389 
L 2726 5389 
C 2458 4986 2163 4691 1696 4339 
C 1190 3968 691 3699 134 3507 
C 346 3213 422 3059 557 2720 
C 960 2893 1133 2976 1498 3194 
L 1498 2790 
z
M 2099 3584 
C 2579 3930 2835 4186 3187 4659 
C 3539 4218 3834 3949 4326 3584 
L 2099 3584 
z
M 1856 -518 
L 1856 -224 
L 4538 -224 
L 4538 -518 
L 5427 -518 
C 5395 -307 5389 -141 5389 166 
L 5389 1722 
C 5389 2010 5395 2189 5421 2368 
C 5267 2355 5107 2349 4838 2349 
L 1555 2349 
C 1286 2349 1120 2355 973 2368 
C 998 2182 1005 1997 1005 1722 
L 1005 173 
C 1005 -122 992 -301 966 -518 
L 1856 -518 
z
M 1856 1587 
L 4538 1587 
L 4538 525 
L 1856 525 
L 1856 1587 
z
" transform="scale(0.015625)"/>
      <path id="HiraginoSans-W7-ff1a" d="M 3757 4326 
L 2650 4326 
L 2650 3219 
L 3757 3219 
L 3757 4326 
z
M 3757 538 
L 3757 1645 
L 2650 1645 
L 2650 538 
L 3757 538 
z
" transform="scale(0.015625)"/>
      <path id="DejaVuSans-2282" d="M 4725 509 
L 2131 509 
Q 1500 509 1069 943 
Q 638 1378 638 2003 
Q 638 2622 1069 3063 
Q 1500 3497 2125 3497 
L 4725 3497 
L 4725 3028 
L 2125 3028 
Q 1700 3028 1403 2728 
Q 1106 2428 1106 2003 
Q 1106 1572 1400 1278 
Q 1700 978 2125 978 
L 4725 978 
L 4725 509 
z
" transform="scale(0.015625)"/>
     </defs>
     <use xlink:href="#HiraginoSans-W7-6709" transform="translate(0 0.765625)"/>
     <use xlink:href="#HiraginoSans-W7-9650" transform="translate(99.999985 0.765625)"/>
     <use xlink:href="#HiraginoSans-W7-6e2c" transform="translate(199.999969 0.765625)"/>
     <use xlink:href="#HiraginoSans-W7-5ea6" transform="translate(299.999954 0.765625)"/>
     <use xlink:href="#HiraginoSans-W7-306e" transform="translate(399.999939 0.765625)"/>
     <use xlink:href="#HiraginoSans-W7-5834" transform="translate(499.999924 0.765625)"/>
     <use xlink:href="#HiraginoSans-W7-5408" transform="translate(599.999908 0.765625)"/>
     <use xlink:href="#HiraginoSans-W7-ff1a" transform="translate(699.999893 0.765625)"/>
     <use xlink:href="#DejaVuSans-Oblique-4c" transform="translate(799.999878 0.765625)"/>
     <use xlink:href="#DejaVuSans-221e" transform="translate(862.729539 39.046875) scale(0.7)"/>
     <use xlink:href="#DejaVuSans-2282" transform="translate(943.256883 0.765625)"/>
     <use xlink:href="#DejaVuSans-Oblique-4c" transform="translate(1046.528368 0.765625)"/>
     <use xlink:href="#DejaVuSans-32" transform="translate(1109.258029 39.046875) scale(0.7)"/>
     <use xlink:href="#DejaVuSans-2282" transform="translate(1176.010959 0.765625)"/>
     <use xlink:href="#DejaVuSans-Oblique-4c" transform="translate(1279.282443 0.765625)"/>
     <use xlink:href="#DejaVuSans-31" transform="translate(1342.012104 39.046875) scale(0.7)"/>
    </g>
   </g>
   <g id="text_8">
    <!-- $L^p$ 空間の包含関係（有限測度） -->
    <g style="fill: #1a1a2e" transform="translate(87.96 16.704375) scale(0.12 -0.12)">
     <defs>
      <path id="DejaVuSans-Oblique-70" d="M 3175 2156 
Q 3175 2616 2975 2859 
Q 2775 3103 2400 3103 
Q 2144 3103 1911 2972 
Q 1678 2841 1497 2591 
Q 1319 2344 1212 1994 
Q 1106 1644 1106 1300 
Q 1106 863 1306 627 
Q 1506 391 1875 391 
Q 2147 391 2380 519 
Q 2613 647 2778 891 
Q 2956 1147 3065 1494 
Q 3175 1841 3175 2156 
z
M 1394 2969 
Q 1625 3272 1939 3428 
Q 2253 3584 2638 3584 
Q 3175 3584 3472 3232 
Q 3769 2881 3769 2247 
Q 3769 1728 3584 1258 
Q 3400 788 3053 416 
Q 2822 169 2531 39 
Q 2241 -91 1919 -91 
Q 1547 -91 1294 64 
Q 1041 219 916 525 
L 556 -1331 
L -19 -1331 
L 922 3500 
L 1497 3500 
L 1394 2969 
z
" transform="scale(0.015625)"/>
      <path id="HiraginoSans-W7-20" transform="scale(0.015625)"/>
      <path id="HiraginoSans-W7-7a7a" d="M 2726 4851 
L 1094 4851 
C 768 4851 582 4858 358 4877 
C 378 4723 384 4608 384 4390 
L 384 3795 
C 384 3603 371 3450 352 3277 
L 1197 3277 
L 1197 4109 
L 2080 4109 
C 2029 3648 1914 3437 1581 3206 
C 1274 2989 954 2880 333 2765 
C 538 2534 685 2310 813 2048 
C 1178 2150 1344 2208 1536 2291 
C 1901 2451 2202 2643 2400 2854 
C 2688 3168 2848 3578 2880 4109 
L 3392 4109 
L 3392 2918 
C 3392 2445 3558 2355 4461 2355 
C 5702 2355 5850 2445 5901 3264 
C 5555 3309 5357 3366 5114 3488 
C 5114 3206 5094 3142 5018 3110 
C 4973 3091 4755 3072 4608 3072 
C 4608 3072 4602 3072 4589 3072 
C 4525 3078 4461 3078 4390 3078 
C 4224 3085 4186 3117 4186 3232 
L 4186 4109 
L 5203 4109 
L 5203 3514 
L 6042 3514 
C 6016 3674 6010 3814 6010 4006 
L 6010 4390 
C 6010 4608 6016 4736 6035 4877 
C 5818 4858 5619 4851 5299 4851 
L 3584 4851 
L 3584 5030 
C 3584 5190 3597 5306 3616 5421 
L 2694 5421 
C 2720 5293 2726 5190 2726 5024 
L 2726 4851 
z
M 2739 1222 
L 2739 422 
L 1133 422 
C 819 422 454 442 294 461 
L 294 -378 
C 499 -352 774 -339 1133 -339 
L 5274 -339 
C 5626 -339 5901 -352 6106 -378 
L 6106 461 
C 5926 435 5651 422 5274 422 
L 3584 422 
L 3584 1222 
L 4813 1222 
C 5158 1222 5408 1210 5606 1184 
L 5606 2022 
C 5408 1990 5120 1978 4806 1978 
L 1491 1978 
C 1178 1978 1005 1990 794 2016 
L 794 1184 
C 986 1210 1222 1222 1574 1222 
L 2739 1222 
z
" transform="scale(0.015625)"/>
      <path id="HiraginoSans-W7-9593" d="M 4525 2125 
C 4525 2368 4531 2528 4544 2682 
C 4346 2669 4230 2662 3968 2662 
L 2419 2662 
C 2163 2662 2035 2669 1843 2682 
C 1856 2522 1862 2349 1862 2125 
L 1862 493 
C 1862 243 1856 13 1837 -173 
L 2605 -173 
L 2605 147 
L 3955 147 
C 4070 147 4128 147 4250 141 
C 4314 -45 4346 -192 4384 -467 
C 4730 -480 4749 -480 4845 -480 
C 5242 -480 5478 -454 5619 -390 
C 5850 -288 5933 -96 5933 333 
L 5933 4512 
C 5933 4832 5939 4998 5958 5229 
C 5766 5210 5626 5203 5306 5203 
L 4000 5203 
C 3667 5203 3533 5210 3341 5229 
C 3354 5024 3360 4864 3360 4640 
L 3360 3565 
C 3360 3251 3360 3187 3347 2995 
C 3494 3002 3706 3008 3904 3008 
L 5133 3008 
L 5133 454 
C 5133 320 5088 294 4864 294 
C 4781 294 4698 301 4531 314 
C 4525 442 4525 538 4525 678 
L 4525 2125 
z
M 4122 4614 
L 5133 4614 
L 5133 4352 
L 4122 4352 
L 4122 4614 
z
M 4122 3834 
L 5133 3834 
L 5133 3571 
L 4122 3571 
L 4122 3834 
z
M 2605 2029 
L 3789 2029 
L 3789 1702 
L 2605 1702 
L 2605 2029 
z
M 2605 1101 
L 3789 1101 
L 3789 781 
L 2605 781 
L 2605 1101 
z
M 1280 3008 
L 2419 3008 
C 2618 3008 2829 3002 2976 2995 
C 2963 3142 2963 3251 2963 3565 
L 2963 4640 
C 2963 4896 2970 5043 2982 5229 
C 2816 5210 2669 5203 2330 5203 
L 1101 5203 
C 787 5203 640 5210 448 5229 
C 467 5024 474 4851 474 4506 
L 474 294 
C 474 -122 461 -333 435 -531 
L 1318 -531 
C 1293 -352 1280 -109 1280 288 
L 1280 3008 
z
M 1280 4614 
L 2214 4614 
L 2214 4352 
L 1280 4352 
L 1280 4614 
z
M 1280 3834 
L 2214 3834 
L 2214 3571 
L 1280 3571 
L 1280 3834 
z
" transform="scale(0.015625)"/>
      <path id="HiraginoSans-W7-5305" d="M 2253 4832 
C 2304 4947 2330 5005 2368 5088 
C 2426 5216 2426 5216 2509 5389 
L 1568 5510 
C 1536 5344 1485 5190 1382 4973 
C 1133 4435 730 3930 179 3443 
C 378 3219 538 2982 678 2707 
C 960 2970 1075 3098 1280 3341 
L 1280 2803 
C 1472 2822 1651 2829 1990 2829 
L 3238 2829 
L 3238 2208 
L 1626 2208 
C 1350 2208 1190 2214 1024 2234 
C 1043 2048 1050 1914 1050 1690 
L 1050 384 
C 1050 -314 1382 -461 2963 -461 
C 3053 -461 3699 -454 3789 -454 
C 4909 -442 5274 -410 5523 -294 
C 5856 -141 6016 250 6074 1056 
C 5773 1114 5523 1178 5254 1280 
C 5434 1427 5498 1587 5562 2067 
C 5632 2605 5702 3674 5715 4333 
C 5722 4589 5728 4730 5741 4864 
C 5555 4838 5376 4832 5062 4832 
L 2253 4832 
z
M 1862 1459 
L 3469 1459 
C 3763 1459 3917 1453 4083 1434 
C 4070 1562 4064 1709 4064 1971 
L 4064 3059 
C 4064 3296 4070 3424 4090 3603 
C 3891 3584 3744 3578 3482 3578 
L 1990 3578 
C 1792 3578 1728 3578 1478 3590 
C 1626 3789 1715 3917 1818 4070 
L 4877 4070 
C 4864 3347 4819 2656 4768 2291 
C 4723 1997 4646 1926 4352 1926 
C 4282 1926 4224 1933 4115 1946 
C 4237 1613 4275 1434 4301 1114 
C 4390 1107 4435 1107 4474 1107 
C 4838 1107 5062 1158 5248 1274 
C 5229 634 5178 474 4979 397 
C 4832 339 4256 307 3392 307 
C 2592 307 2202 326 2022 365 
C 1901 397 1862 448 1862 582 
L 1862 1459 
z
" transform="scale(0.015625)"/>
      <path id="HiraginoSans-W7-542b" d="M 1965 3347 
C 2138 3366 2298 3373 2515 3373 
L 3942 3373 
C 4166 3373 4314 3366 4480 3347 
L 4480 3667 
C 4973 3334 5338 3149 5926 2912 
C 6086 3334 6144 3450 6317 3725 
C 5734 3904 5325 4090 4819 4403 
C 4294 4723 3987 4979 3622 5402 
L 2726 5402 
C 2426 5024 2118 4755 1664 4461 
C 1146 4128 704 3917 122 3712 
C 320 3430 403 3277 531 2918 
C 1190 3219 1466 3366 1965 3693 
L 1965 3347 
z
M 2470 4058 
C 2746 4269 2899 4416 3187 4723 
C 3456 4442 3597 4320 3930 4058 
L 2470 4058 
z
M 4454 1798 
L 5133 2445 
C 5318 2624 5338 2643 5382 2688 
L 4915 3110 
C 4762 3091 4634 3085 4320 3085 
L 1421 3085 
C 1229 3085 1043 3098 947 3110 
L 947 2336 
C 1133 2355 1299 2362 1581 2362 
L 4013 2362 
L 3354 1798 
L 1510 1798 
C 1267 1798 1107 1805 941 1818 
C 966 1670 979 1536 979 1318 
L 979 19 
C 979 -224 966 -352 934 -538 
L 1818 -538 
L 1818 -307 
L 4614 -307 
L 4614 -538 
L 5485 -538 
C 5459 -365 5453 -230 5453 6 
L 5453 1286 
C 5453 1523 5459 1645 5478 1818 
C 5325 1805 5178 1798 4947 1798 
L 4454 1798 
z
M 1818 1056 
L 4614 1056 
L 4614 435 
L 1818 435 
L 1818 1056 
z
" transform="scale(0.015625)"/>
      <path id="HiraginoSans-W7-95a2" d="M 4371 992 
C 4589 992 4710 986 4870 966 
L 4870 1645 
C 4742 1626 4608 1619 4378 1619 
L 3507 1619 
C 3514 1728 3520 1773 3526 1920 
L 4352 1920 
C 4538 1920 4653 1914 4768 1901 
L 4768 2554 
C 4646 2534 4538 2528 4346 2528 
L 4186 2528 
C 4294 2707 4339 2778 4422 2950 
L 3680 3078 
C 3584 2829 3533 2720 3424 2528 
L 2982 2528 
C 2867 2758 2784 2893 2650 3085 
L 1946 2931 
C 2080 2752 2138 2669 2221 2528 
L 2054 2528 
C 1862 2528 1766 2534 1651 2554 
L 1651 1901 
C 1773 1914 1882 1920 2074 1920 
L 2771 1920 
C 2771 1754 2765 1715 2758 1619 
L 2029 1619 
C 1805 1619 1677 1626 1542 1645 
L 1542 960 
C 1709 979 1888 992 2086 992 
L 2598 992 
C 2477 800 2355 678 2144 557 
C 1952 435 1779 378 1395 275 
C 1574 70 1677 -96 1811 -384 
C 2509 -160 2893 109 3194 582 
C 3494 237 3923 -51 4384 -218 
C 4429 -64 4442 -19 4493 102 
C 4550 -96 4582 -230 4608 -486 
C 4851 -493 4851 -493 4922 -493 
C 5792 -493 5952 -371 5952 314 
L 5952 4531 
C 5952 4858 5958 5018 5978 5254 
C 5805 5235 5651 5229 5325 5229 
L 4000 5229 
C 3667 5229 3520 5235 3347 5254 
C 3360 5069 3366 4896 3366 4659 
L 3366 3693 
C 3366 3398 3366 3283 3354 3123 
C 3552 3130 3706 3136 3910 3136 
L 5146 3136 
L 5146 429 
C 5146 288 5114 269 4902 269 
C 4806 269 4730 275 4576 294 
C 4621 390 4640 422 4698 525 
C 4237 627 3974 749 3686 992 
L 4371 992 
z
M 4128 4678 
L 5146 4678 
L 5146 4422 
L 4128 4422 
L 4128 4678 
z
M 4128 3923 
L 5146 3923 
L 5146 3674 
L 4128 3674 
L 4128 3923 
z
M 1280 3142 
L 2438 3142 
C 2637 3142 2848 3136 2995 3130 
C 2989 3251 2982 3386 2982 3693 
L 2982 4659 
C 2982 4915 2989 5069 3002 5254 
C 2835 5235 2688 5229 2349 5229 
L 1101 5229 
C 781 5229 621 5235 448 5254 
C 467 5050 474 4870 474 4525 
L 474 294 
C 474 -122 461 -333 435 -531 
L 1318 -531 
C 1293 -339 1280 -115 1280 275 
L 1280 3142 
z
M 1280 4678 
L 2234 4678 
L 2234 4422 
L 1280 4422 
L 1280 4678 
z
M 1280 3923 
L 2234 3923 
L 2234 3674 
L 1280 3674 
L 1280 3923 
z
" transform="scale(0.015625)"/>
      <path id="HiraginoSans-W7-4fc2" d="M 2406 2394 
L 2272 2387 
C 2048 2387 1946 2394 1818 2413 
L 1862 1613 
C 1939 1626 1978 1632 2061 1632 
C 2349 1645 3283 1677 3514 1683 
L 3514 134 
C 3514 -211 3507 -371 3475 -570 
L 4358 -570 
C 4326 -365 4320 -218 4320 134 
L 4320 1728 
C 4781 1760 4781 1760 5357 1824 
C 5434 1658 5453 1606 5549 1370 
L 6246 1728 
C 5894 2419 5709 2726 5338 3245 
L 4691 2957 
C 4845 2733 4883 2675 4992 2496 
C 4672 2458 4672 2458 3936 2419 
C 4384 2784 4960 3341 5306 3750 
C 5472 3949 5472 3949 5523 3994 
L 4762 4390 
C 4627 4115 4211 3629 3699 3149 
C 3590 3238 3539 3277 3354 3411 
C 3667 3693 3885 3936 4218 4358 
C 4704 4410 5331 4506 5677 4576 
C 5894 4621 5894 4621 6035 4646 
L 5645 5389 
C 5504 5312 5235 5248 4666 5158 
C 3981 5050 2854 4960 2195 4960 
C 2182 4960 2131 4960 2067 4960 
C 2054 4960 2035 4960 2003 4960 
C 2048 5082 2061 5133 2118 5280 
L 1248 5478 
C 1216 5248 1133 4954 998 4602 
C 762 3974 474 3482 115 3072 
C 269 2701 339 2458 416 2106 
C 595 2323 627 2368 800 2656 
C 794 2189 787 1933 787 1888 
L 787 179 
C 787 -134 781 -282 749 -570 
L 1613 -570 
C 1587 -294 1581 -128 1581 186 
L 1581 3866 
C 1805 4429 1946 4787 2003 4941 
C 2144 4550 2144 4550 2208 4211 
C 2688 4224 2880 4237 3187 4262 
C 3040 4083 2906 3930 2765 3808 
C 2630 3891 2586 3917 2426 4013 
L 1946 3430 
C 2394 3168 2746 2925 3104 2630 
C 2982 2541 2950 2515 2778 2394 
L 2406 2394 
z
M 2554 1574 
C 2304 915 2112 602 1658 109 
C 1933 -51 2086 -160 2317 -365 
C 2554 -77 2643 45 2842 397 
C 3034 742 3104 890 3258 1261 
L 2554 1574 
z
M 4589 1280 
C 4941 512 5133 198 5594 -371 
C 5805 -179 5990 -38 6246 128 
C 5792 602 5562 954 5261 1613 
L 4589 1280 
z
" transform="scale(0.015625)"/>
      <path id="HiraginoSans-W7-ff08" d="M 6240 -589 
C 5830 -26 5658 256 5491 666 
C 5274 1197 5152 1837 5152 2432 
C 5152 3027 5274 3667 5491 4198 
C 5658 4608 5830 4890 6240 5453 
L 5197 5453 
C 4845 4902 4691 4621 4538 4211 
C 4320 3648 4205 3034 4205 2432 
C 4205 1830 4320 1216 4538 653 
C 4691 243 4845 -38 5197 -589 
L 6240 -589 
z
" transform="scale(0.015625)"/>
      <path id="HiraginoSans-W7-ff09" d="M 1203 -589 
C 1555 -38 1709 243 1862 653 
C 2080 1216 2195 1824 2195 2432 
C 2195 3040 2080 3648 1862 4211 
C 1709 4621 1555 4902 1203 5453 
L 160 5453 
C 570 4890 742 4608 909 4198 
C 1126 3667 1248 3027 1248 2432 
C 1248 1837 1126 1197 909 666 
C 742 256 570 -26 160 -589 
L 1203 -589 
z
" transform="scale(0.015625)"/>
     </defs>
     <use xlink:href="#DejaVuSans-Oblique-4c" transform="translate(0 0.90625)"/>
     <use xlink:href="#DejaVuSans-Oblique-70" transform="translate(62.729661 39.1875) scale(0.7)"/>
     <use xlink:href="#HiraginoSans-W7-20" transform="translate(109.89763 0.90625)"/>
     <use xlink:href="#HiraginoSans-W7-7a7a" transform="translate(143.197618 0.90625)"/>
     <use xlink:href="#HiraginoSans-W7-9593" transform="translate(243.197603 0.90625)"/>
     <use xlink:href="#HiraginoSans-W7-306e" transform="translate(343.197587 0.90625)"/>
     <use xlink:href="#HiraginoSans-W7-5305" transform="translate(443.197572 0.90625)"/>
     <use xlink:href="#HiraginoSans-W7-542b" transform="translate(543.197557 0.90625)"/>
     <use xlink:href="#HiraginoSans-W7-95a2" transform="translate(643.197542 0.90625)"/>
     <use xlink:href="#HiraginoSans-W7-4fc2" transform="translate(743.197526 0.90625)"/>
     <use xlink:href="#HiraginoSans-W7-ff08" transform="translate(843.197511 0.90625)"/>
     <use xlink:href="#HiraginoSans-W7-6709" transform="translate(943.197496 0.90625)"/>
     <use xlink:href="#HiraginoSans-W7-9650" transform="translate(1043.197481 0.90625)"/>
     <use xlink:href="#HiraginoSans-W7-6e2c" transform="translate(1143.197465 0.90625)"/>
     <use xlink:href="#HiraginoSans-W7-5ea6" transform="translate(1243.19745 0.90625)"/>
     <use xlink:href="#HiraginoSans-W7-ff09" transform="translate(1343.197435 0.90625)"/>
    </g>
   </g>
  </g>
 </g>
 <defs>
  <clipPath id="pe3ae75d3ce">
   <rect x="7.2" y="26.704375" width="334.8" height="277.2"/>
  </clipPath>
 </defs>
</svg>
