<?xml version="1.0" encoding="utf-8" standalone="no"?>
<!DOCTYPE svg PUBLIC "-//W3C//DTD SVG 1.1//EN"
  "http://www.w3.org/Graphics/SVG/1.1/DTD/svg11.dtd">
<svg xmlns:xlink="http://www.w3.org/1999/xlink" width="460.8pt" height="311.704375pt" viewBox="0 0 460.8 311.704375" xmlns="http://www.w3.org/2000/svg" version="1.1">
 <metadata>
  <rdf:RDF xmlns:dc="http://purl.org/dc/elements/1.1/" xmlns:cc="http://creativecommons.org/ns#" xmlns:rdf="http://www.w3.org/1999/02/22-rdf-syntax-ns#">
   <cc:Work>
    <dc:type rdf:resource="http://purl.org/dc/dcmitype/StillImage"/>
    <dc:date>2026-03-29T00:53:42.249350</dc:date>
    <dc:format>image/svg+xml</dc:format>
    <dc:creator>
     <cc:Agent>
      <dc:title>Matplotlib v3.10.8, https://matplotlib.org/</dc:title>
     </cc:Agent>
    </dc:creator>
   </cc:Work>
  </rdf:RDF>
 </metadata>
 <defs>
  <style type="text/css">*{stroke-linejoin: round; stroke-linecap: butt}</style>
 </defs>
 <g id="figure_1">
  <g id="patch_1">
   <path d="M 0 311.704375 
L 460.8 311.704375 
L 460.8 0 
L 0 0 
z
" style="fill: #ffffff"/>
  </g>
  <g id="axes_1">
   <g id="patch_2">
    <path d="M 29.52 90.664375 
L 208.08 90.664375 
Q 212.544 90.664375 212.544 86.704375 
L 212.544 51.064375 
Q 212.544 47.104375 208.08 47.104375 
L 29.52 47.104375 
Q 25.056 47.104375 25.056 51.064375 
L 25.056 86.704375 
Q 25.056 90.664375 29.52 90.664375 
z
" clip-path="url(#pf7593e9bb3)" style="fill: #2980b9"/>
   </g>
   <g id="patch_3">
    <path d="M 252.72 90.664375 
L 431.28 90.664375 
Q 435.744 90.664375 435.744 86.704375 
L 435.744 51.064375 
Q 435.744 47.104375 431.28 47.104375 
L 252.72 47.104375 
Q 248.256 47.104375 248.256 51.064375 
L 248.256 86.704375 
Q 248.256 90.664375 252.72 90.664375 
z
" clip-path="url(#pf7593e9bb3)" style="fill: #e67e22"/>
   </g>
   <g id="patch_4">
    <path d="M 51.84 143.332375 
L 208.08 143.332375 
Q 210.312 143.332375 210.312 141.352375 
L 210.312 111.256375 
Q 210.312 109.276375 208.08 109.276375 
L 51.84 109.276375 
Q 49.608 109.276375 49.608 111.256375 
L 49.608 141.352375 
Q 49.608 143.332375 51.84 143.332375 
z
" clip-path="url(#pf7593e9bb3)" style="fill: #d6eaf8; stroke: #2980b9; stroke-width: 0.8; stroke-linejoin: miter"/>
   </g>
   <g id="patch_5">
    <path d="M 252.72 143.332375 
L 408.96 143.332375 
Q 411.192 143.332375 411.192 141.352375 
L 411.192 111.256375 
Q 411.192 109.276375 408.96 109.276375 
L 252.72 109.276375 
Q 250.488 109.276375 250.488 111.256375 
L 250.488 141.352375 
Q 250.488 143.332375 252.72 143.332375 
z
" clip-path="url(#pf7593e9bb3)" style="fill: #fde8d8; stroke: #e67e22; stroke-width: 0.8; stroke-linejoin: miter"/>
   </g>
   <g id="patch_6">
    <path d="M 51.84 186.892375 
L 208.08 186.892375 
Q 210.312 186.892375 210.312 184.912375 
L 210.312 154.816375 
Q 210.312 152.836375 208.08 152.836375 
L 51.84 152.836375 
Q 49.608 152.836375 49.608 154.816375 
L 49.608 184.912375 
Q 49.608 186.892375 51.84 186.892375 
z
" clip-path="url(#pf7593e9bb3)" style="fill: #d6eaf8; stroke: #2980b9; stroke-width: 0.8; stroke-linejoin: miter"/>
   </g>
   <g id="patch_7">
    <path d="M 252.72 186.892375 
L 408.96 186.892375 
Q 411.192 186.892375 411.192 184.912375 
L 411.192 154.816375 
Q 411.192 152.836375 408.96 152.836375 
L 252.72 152.836375 
Q 250.488 152.836375 250.488 154.816375 
L 250.488 184.912375 
Q 250.488 186.892375 252.72 186.892375 
z
" clip-path="url(#pf7593e9bb3)" style="fill: #fde8d8; stroke: #e67e22; stroke-width: 0.8; stroke-linejoin: miter"/>
   </g>
   <g id="patch_8">
    <path d="M 51.84 230.452375 
L 208.08 230.452375 
Q 210.312 230.452375 210.312 228.472375 
L 210.312 198.376375 
Q 210.312 196.396375 208.08 196.396375 
L 51.84 196.396375 
Q 49.608 196.396375 49.608 198.376375 
L 49.608 228.472375 
Q 49.608 230.452375 51.84 230.452375 
z
" clip-path="url(#pf7593e9bb3)" style="fill: #d6eaf8; stroke: #2980b9; stroke-width: 0.8; stroke-linejoin: miter"/>
   </g>
   <g id="patch_9">
    <path d="M 252.72 230.452375 
L 408.96 230.452375 
Q 411.192 230.452375 411.192 228.472375 
L 411.192 198.376375 
Q 411.192 196.396375 408.96 196.396375 
L 252.72 196.396375 
Q 250.488 196.396375 250.488 198.376375 
L 250.488 228.472375 
Q 250.488 230.452375 252.72 230.452375 
z
" clip-path="url(#pf7593e9bb3)" style="fill: #fde8d8; stroke: #e67e22; stroke-width: 0.8; stroke-linejoin: miter"/>
   </g>
   <g id="patch_10">
    <path d="M 51.84 274.012375 
L 208.08 274.012375 
Q 210.312 274.012375 210.312 272.032375 
L 210.312 241.936375 
Q 210.312 239.956375 208.08 239.956375 
L 51.84 239.956375 
Q 49.608 239.956375 49.608 241.936375 
L 49.608 272.032375 
Q 49.608 274.012375 51.84 274.012375 
z
" clip-path="url(#pf7593e9bb3)" style="fill: #d6eaf8; stroke: #2980b9; stroke-width: 0.8; stroke-linejoin: miter"/>
   </g>
   <g id="patch_11">
    <path d="M 252.72 274.012375 
L 408.96 274.012375 
Q 411.192 274.012375 411.192 272.032375 
L 411.192 241.936375 
Q 411.192 239.956375 408.96 239.956375 
L 252.72 239.956375 
Q 250.488 239.956375 250.488 241.936375 
L 250.488 272.032375 
Q 250.488 274.012375 252.72 274.012375 
z
" clip-path="url(#pf7593e9bb3)" style="fill: #fde8d8; stroke: #e67e22; stroke-width: 0.8; stroke-linejoin: miter"/>
   </g>
   <g id="line2d_1">
    <path d="M 230.4 290.644375 
L 230.4 55.024375 
" clip-path="url(#pf7593e9bb3)" style="fill: none; stroke: #cccccc; stroke-width: 1.5; stroke-linecap: square"/>
   </g>
   <g id="text_1">
    <!-- lintegral -->
    <g style="fill: #ffffff" transform="translate(91.260937 72.376563) scale(0.12 -0.12)">
     <defs>
      <path id="HiraginoSans-W7-6c" d="M 371 5069 
C 410 4819 422 4589 422 4173 
L 422 762 
C 422 339 410 147 371 -134 
L 1491 -134 
C 1459 166 1446 397 1446 762 
L 1446 4173 
C 1446 4582 1459 4813 1491 5069 
L 371 5069 
z
" transform="scale(0.015625)"/>
      <path id="HiraginoSans-W7-69" d="M 384 5069 
L 384 4186 
L 1498 4186 
L 1498 5069 
L 384 5069 
z
M 371 3654 
C 410 3392 422 3149 422 2758 
L 422 762 
C 422 384 410 186 371 -134 
L 1504 -134 
C 1466 134 1453 390 1453 768 
L 1453 2752 
C 1453 3174 1466 3411 1504 3654 
L 371 3654 
z
" transform="scale(0.015625)"/>
      <path id="HiraginoSans-W7-6e" d="M 1485 -134 
C 1446 179 1434 416 1434 762 
L 1434 2061 
C 1709 2541 2106 2835 2483 2835 
C 2637 2835 2765 2797 2861 2726 
C 3014 2611 3066 2464 3066 2131 
L 3066 762 
C 3066 403 3053 166 3014 -134 
L 4134 -134 
C 4096 128 4083 371 4083 762 
L 4083 2374 
C 4083 3245 3610 3731 2758 3731 
C 2214 3731 1811 3552 1414 3142 
C 1421 3264 1427 3347 1427 3398 
L 1427 3654 
L 371 3654 
C 410 3411 422 3168 422 2758 
L 422 762 
C 422 390 410 154 371 -134 
L 1485 -134 
z
" transform="scale(0.015625)"/>
      <path id="HiraginoSans-W7-74" d="M 813 4646 
C 851 4352 864 4141 864 3821 
L 864 3654 
L 627 3654 
C 371 3654 237 3661 51 3693 
L 51 2790 
C 250 2822 378 2829 614 2829 
L 864 2829 
L 864 768 
C 864 58 1197 -224 2022 -224 
C 2355 -224 2586 -186 2842 -96 
L 2739 742 
C 2573 646 2445 614 2272 614 
C 1971 614 1862 723 1862 1024 
L 1862 2829 
L 2144 2829 
C 2419 2829 2541 2822 2752 2790 
L 2752 3686 
C 2554 3661 2406 3654 2112 3654 
L 1862 3654 
L 1862 3821 
C 1862 4122 1882 4403 1914 4646 
L 813 4646 
z
" transform="scale(0.015625)"/>
      <path id="HiraginoSans-W7-65" d="M 4032 1485 
C 4019 1606 4019 1613 4019 1638 
C 3994 2118 3962 2323 3846 2637 
C 3571 3373 2963 3782 2125 3782 
C 973 3782 211 2976 211 1760 
C 211 1139 410 595 774 237 
C 1107 -96 1587 -269 2163 -269 
C 2746 -269 3232 -90 3571 250 
C 3744 416 3840 563 3981 870 
L 3053 1146 
C 2918 755 2611 544 2163 544 
C 1856 544 1606 653 1434 864 
C 1306 1024 1248 1184 1216 1485 
L 4032 1485 
z
M 1235 2227 
C 1357 2726 1664 2982 2138 2982 
C 2432 2982 2675 2874 2829 2675 
C 2925 2547 2970 2432 3008 2227 
L 1235 2227 
z
" transform="scale(0.015625)"/>
      <path id="HiraginoSans-W7-67" d="M 294 -659 
C 736 -1152 1229 -1344 2035 -1344 
C 2701 -1344 3258 -1197 3590 -928 
C 3974 -614 4147 -134 4147 640 
L 4147 2810 
C 4147 3174 4160 3366 4198 3654 
L 3155 3654 
L 3155 3443 
C 3155 3373 3155 3328 3162 3277 
C 2867 3590 2496 3731 1965 3731 
C 1549 3731 1203 3622 902 3405 
C 442 3066 205 2547 205 1882 
C 205 768 877 58 1926 58 
C 2464 58 2854 218 3162 563 
C 3136 128 3091 -58 2963 -243 
C 2803 -467 2470 -595 2048 -595 
C 1626 -595 1299 -442 1069 -141 
L 294 -659 
z
M 1229 1882 
C 1229 2534 1587 2963 2138 2963 
C 2707 2963 3123 2515 3123 1901 
C 3123 1498 2957 1171 2656 992 
C 2496 890 2285 832 2106 832 
C 1888 832 1651 928 1504 1075 
C 1318 1261 1229 1530 1229 1882 
z
" transform="scale(0.015625)"/>
      <path id="HiraginoSans-W7-72" d="M 3277 3654 
C 3002 3712 2867 3725 2675 3725 
C 2106 3725 1696 3533 1427 3130 
L 1427 3654 
L 371 3654 
C 410 3386 422 3187 422 2758 
L 422 762 
C 422 384 410 186 371 -134 
L 1472 -134 
C 1440 141 1427 378 1427 762 
L 1427 1869 
C 1459 2170 1517 2317 1651 2477 
C 1830 2682 2080 2778 2419 2778 
C 2624 2778 2746 2758 3014 2669 
L 3277 3654 
z
" transform="scale(0.015625)"/>
      <path id="HiraginoSans-W7-61" d="M 2842 -134 
L 3878 -134 
C 3846 154 3834 346 3834 717 
L 3834 2451 
C 3834 2912 3750 3162 3533 3366 
C 3251 3635 2822 3763 2195 3763 
C 1594 3763 1133 3642 813 3392 
C 589 3219 467 3046 333 2675 
L 1344 2509 
C 1414 2688 1472 2778 1587 2861 
C 1709 2950 1939 3008 2189 3008 
C 2624 3008 2842 2854 2842 2541 
L 2842 2285 
C 2029 2259 1837 2240 1466 2163 
C 672 1984 237 1549 237 928 
C 237 589 365 294 602 96 
C 832 -109 1158 -205 1613 -205 
C 2131 -205 2458 -96 2842 198 
L 2842 -134 
z
M 2842 1357 
C 2842 1133 2765 973 2579 813 
C 2381 646 2067 538 1792 538 
C 1446 538 1254 685 1254 954 
C 1254 1197 1408 1370 1702 1459 
C 1990 1549 2259 1581 2842 1600 
L 2842 1357 
z
" transform="scale(0.015625)"/>
     </defs>
     <use xlink:href="#HiraginoSans-W7-6c"/>
     <use xlink:href="#HiraginoSans-W7-69" transform="translate(29.099991 0)"/>
     <use xlink:href="#HiraginoSans-W7-6e" transform="translate(58.299988 0)"/>
     <use xlink:href="#HiraginoSans-W7-74" transform="translate(128.499969 0)"/>
     <use xlink:href="#HiraginoSans-W7-65" transform="translate(173.999954 0)"/>
     <use xlink:href="#HiraginoSans-W7-67" transform="translate(240.099945 0)"/>
     <use xlink:href="#HiraginoSans-W7-72" transform="translate(311.399933 0)"/>
     <use xlink:href="#HiraginoSans-W7-61" transform="translate(363.499924 0)"/>
     <use xlink:href="#HiraginoSans-W7-6c" transform="translate(429.899918 0)"/>
    </g>
   </g>
   <g id="text_2">
    <!-- integral -->
    <g style="fill: #ffffff" transform="translate(316.206563 72.376563) scale(0.12 -0.12)">
     <use xlink:href="#HiraginoSans-W7-69"/>
     <use xlink:href="#HiraginoSans-W7-6e" transform="translate(29.199997 0)"/>
     <use xlink:href="#HiraginoSans-W7-74" transform="translate(99.399979 0)"/>
     <use xlink:href="#HiraginoSans-W7-65" transform="translate(144.899963 0)"/>
     <use xlink:href="#HiraginoSans-W7-67" transform="translate(210.999954 0)"/>
     <use xlink:href="#HiraginoSans-W7-72" transform="translate(282.299942 0)"/>
     <use xlink:href="#HiraginoSans-W7-61" transform="translate(334.399933 0)"/>
     <use xlink:href="#HiraginoSans-W7-6c" transform="translate(400.799927 0)"/>
    </g>
   </g>
   <g id="text_3">
    <!-- 表記 -->
    <g style="fill: #555555" transform="translate(20.592 128.927734) scale(0.09 -0.09)">
     <defs>
      <path id="HiraginoSans-W7-8868" d="M 4032 736 
C 4499 211 5018 -147 5811 -493 
C 5933 -186 6054 26 6291 314 
C 5747 493 5440 640 5011 941 
C 5267 1152 5549 1402 5702 1555 
C 5805 1664 5805 1664 5850 1709 
L 5101 2163 
C 4979 1978 4710 1709 4435 1491 
C 4230 1760 4109 1952 4006 2182 
L 5376 2182 
C 5664 2182 5907 2170 6125 2144 
L 6125 2925 
C 5939 2899 5747 2893 5376 2893 
L 3597 2893 
L 3597 3226 
L 4909 3226 
C 5267 3226 5440 3219 5632 3200 
L 5632 3904 
C 5453 3885 5286 3878 4909 3878 
L 3597 3878 
L 3597 4205 
L 5184 4205 
C 5549 4205 5734 4198 5920 4173 
L 5920 4941 
C 5722 4915 5491 4902 5133 4902 
L 3597 4902 
C 3597 5126 3610 5248 3635 5395 
L 2714 5395 
C 2739 5254 2752 5133 2752 4902 
L 1299 4902 
C 966 4902 730 4915 525 4941 
L 525 4173 
C 710 4198 890 4205 1254 4205 
L 2752 4205 
L 2752 3878 
L 1523 3878 
C 1165 3878 998 3885 806 3904 
L 806 3200 
C 998 3219 1171 3226 1523 3226 
L 2752 3226 
L 2752 2893 
L 1043 2893 
C 653 2893 493 2899 294 2925 
L 294 2144 
C 512 2170 755 2182 1056 2182 
L 2112 2182 
C 1619 1773 922 1434 173 1242 
C 384 947 474 800 621 448 
C 1178 672 1523 845 1920 1101 
L 1920 371 
C 1504 320 1312 307 1062 301 
L 1242 -550 
C 1306 -538 1427 -512 1542 -493 
C 2675 -326 3290 -211 4038 -19 
L 4032 736 
z
M 2746 1722 
C 2970 1926 3066 2022 3187 2170 
C 3392 1645 3693 1133 4013 755 
C 3354 595 3315 589 2746 486 
L 2746 1722 
z
" transform="scale(0.015625)"/>
      <path id="HiraginoSans-W7-8a18" d="M 480 4582 
C 653 4595 794 4602 1037 4602 
L 2170 4602 
C 2419 4602 2560 4595 2726 4582 
L 2726 5267 
C 2547 5248 2445 5242 2170 5242 
L 1037 5242 
C 762 5242 659 5248 480 5267 
L 480 4582 
z
M 262 3597 
C 416 3616 563 3622 781 3622 
L 2445 3622 
C 2726 3622 2810 3616 2938 3603 
L 2938 4352 
C 2784 4333 2688 4326 2419 4326 
L 781 4326 
C 538 4326 416 4333 262 4358 
L 262 3597 
z
M 499 2688 
C 621 2707 691 2707 902 2707 
L 2342 2707 
C 2541 2707 2586 2707 2733 2688 
L 2733 3354 
C 2630 3341 2541 3334 2342 3334 
L 902 3334 
C 698 3334 627 3334 499 3354 
L 499 2688 
z
M 499 1786 
C 621 1798 704 1805 896 1805 
L 2330 1805 
C 2541 1805 2598 1805 2733 1786 
L 2733 2451 
C 2624 2438 2547 2432 2342 2432 
L 902 2432 
C 698 2432 627 2432 499 2451 
L 499 1786 
z
M 1274 -576 
L 1274 -262 
L 1990 -262 
L 1990 -486 
L 2771 -486 
C 2765 -416 2752 -166 2752 -64 
L 2752 1088 
C 2752 1312 2752 1402 2765 1530 
C 2662 1510 2592 1510 2355 1510 
L 960 1510 
C 704 1510 634 1510 480 1530 
C 499 1370 506 1235 506 1037 
L 506 51 
C 506 -166 493 -371 474 -576 
L 1274 -576 
z
M 1254 896 
L 1997 896 
L 1997 397 
L 1254 397 
L 1254 896 
z
M 3898 2426 
L 5274 2426 
C 5568 2426 5709 2419 5920 2394 
C 5901 2598 5894 2765 5894 3040 
L 5894 4557 
C 5894 4845 5901 4941 5920 5216 
C 5722 5190 5549 5184 5242 5184 
L 3693 5184 
C 3405 5184 3200 5197 2989 5222 
L 2989 4371 
C 3200 4397 3398 4410 3693 4410 
L 5056 4410 
L 5056 3181 
L 3680 3181 
C 3392 3181 3238 3187 3034 3206 
C 3053 2995 3059 2899 3059 2573 
L 3059 269 
C 3059 -307 3302 -429 4474 -429 
C 5344 -429 5696 -358 5875 -147 
C 6074 90 6150 448 6202 1261 
C 5920 1312 5664 1389 5363 1523 
C 5350 826 5318 563 5235 480 
C 5139 384 4979 352 4538 352 
C 4326 352 4160 365 4070 384 
C 3923 410 3898 442 3898 576 
L 3898 2426 
z
" transform="scale(0.015625)"/>
     </defs>
     <use xlink:href="#HiraginoSans-W7-8868"/>
     <use xlink:href="#HiraginoSans-W7-8a18" transform="translate(99.999985 0)"/>
    </g>
   </g>
   <g id="text_4">
    <!-- $\int^- f \, \partial\mu$ -->
    <g style="fill: #1a1a2e" transform="translate(114.66 129.904375) scale(0.09 -0.09)">
     <defs>
      <path id="DejaVuSansDisplay-222b" d="M 2134 5525 
Q 2172 6263 2528 6556 
Q 2884 6850 3218 6850 
Q 3553 6850 3833 6575 
Q 4113 6300 4200 5678 
L 3544 5613 
Q 3469 6188 3219 6188 
Q 2906 6188 2869 5413 
L 2581 -597 
Q 2547 -1334 2187 -1628 
Q 1828 -1922 1497 -1922 
Q 1163 -1922 883 -1647 
Q 603 -1372 516 -750 
L 1172 -684 
Q 1247 -1259 1497 -1259 
Q 1809 -1259 1847 -488 
L 2134 5525 
z
" transform="scale(0.015625)"/>
      <path id="DejaVuSans-2212" d="M 678 2272 
L 4684 2272 
L 4684 1741 
L 678 1741 
L 678 2272 
z
" transform="scale(0.015625)"/>
      <path id="DejaVuSans-Oblique-66" d="M 3059 4863 
L 2969 4384 
L 2419 4384 
Q 2106 4384 1964 4261 
Q 1822 4138 1753 3809 
L 1691 3500 
L 2638 3500 
L 2553 3053 
L 1606 3053 
L 1013 0 
L 434 0 
L 1031 3053 
L 481 3053 
L 563 3500 
L 1113 3500 
L 1159 3744 
Q 1278 4363 1576 4613 
Q 1875 4863 2516 4863 
L 3059 4863 
z
" transform="scale(0.015625)"/>
      <path id="DejaVuSans-2202" d="M 1366 -91 
Q 925 -91 638 175 
Q 297 491 297 1063 
Q 297 1656 597 2119 
Q 906 2594 1463 2594 
Q 1828 2594 2116 2366 
Q 2284 2231 2400 2006 
Q 2441 2259 2441 2547 
Q 2441 2969 2341 3213 
Q 2119 3753 1531 3753 
Q 1309 3753 966 3616 
L 966 4141 
Q 1328 4238 1653 4238 
Q 2491 4238 2847 3469 
Q 3013 3106 3013 2566 
Q 3013 2213 2934 1803 
Q 2738 778 2228 291 
Q 1828 -91 1366 -91 
z
M 831 969 
Q 831 656 969 488 
Q 1116 309 1341 309 
Q 1541 309 1700 450 
Q 1925 644 2091 959 
Q 2228 1219 2297 1497 
Q 2019 2169 1538 2169 
Q 1125 2169 944 1625 
Q 831 1288 831 969 
z
" transform="scale(0.015625)"/>
      <path id="DejaVuSans-Oblique-3bc" d="M -84 -1331 
L 856 3500 
L 1434 3500 
L 1009 1322 
Q 997 1256 987 1175 
Q 978 1094 978 1013 
Q 978 722 1161 565 
Q 1344 409 1684 409 
Q 2147 409 2431 671 
Q 2716 934 2816 1459 
L 3213 3500 
L 3788 3500 
L 3266 809 
Q 3253 750 3248 706 
Q 3244 663 3244 628 
Q 3244 531 3283 486 
Q 3322 441 3406 441 
Q 3438 441 3492 456 
Q 3547 472 3647 513 
L 3559 50 
Q 3422 -19 3297 -55 
Q 3172 -91 3053 -91 
Q 2847 -91 2730 40 
Q 2613 172 2613 403 
Q 2438 153 2195 31 
Q 1953 -91 1625 -91 
Q 1334 -91 1117 43 
Q 900 178 831 397 
L 494 -1331 
L -84 -1331 
z
" transform="scale(0.015625)"/>
     </defs>
     <use xlink:href="#DejaVuSansDisplay-222b" transform="translate(0 0.99375)"/>
     <use xlink:href="#DejaVuSans-2212" transform="translate(100.381836 86.15) scale(0.7)"/>
     <use xlink:href="#DejaVuSans-Oblique-66" transform="translate(172.671875 0.99375)"/>
     <use xlink:href="#DejaVuSans-2202" transform="translate(224.112629 0.99375)"/>
     <use xlink:href="#DejaVuSans-Oblique-3bc" transform="translate(275.821614 0.99375)"/>
    </g>
   </g>
   <g id="text_5">
    <!-- $\int f \, \partial\mu$ -->
    <g style="fill: #1a1a2e" transform="translate(319.995 129.769375) scale(0.09 -0.09)">
     <use xlink:href="#DejaVuSansDisplay-222b" transform="translate(0 0.96875)"/>
     <use xlink:href="#DejaVuSans-Oblique-66" transform="translate(73.632812 0.96875)"/>
     <use xlink:href="#DejaVuSans-2202" transform="translate(125.073567 0.96875)"/>
     <use xlink:href="#DejaVuSans-Oblique-3bc" transform="translate(176.782551 0.96875)"/>
    </g>
   </g>
   <g id="text_6">
    <!-- 型 -->
    <g style="fill: #555555" transform="translate(20.592 172.487734) scale(0.09 -0.09)">
     <defs>
      <path id="HiraginoSans-W7-578b" d="M 800 826 
C 992 845 1248 858 1549 858 
L 2733 858 
L 2733 397 
L 1056 397 
C 742 397 493 410 307 429 
L 307 -390 
C 531 -365 768 -352 1120 -352 
L 5254 -352 
C 5613 -352 5856 -365 6086 -390 
L 6086 429 
C 5907 410 5664 397 5325 397 
L 3578 397 
L 3578 858 
L 4832 858 
C 5152 858 5408 845 5594 826 
L 5594 1645 
C 5421 1626 5171 1613 4819 1613 
L 3578 1613 
L 3578 1798 
C 3578 1971 3584 2061 3610 2170 
L 3066 2170 
C 3059 2317 3059 2458 3059 2688 
L 3059 3194 
C 3360 3194 3462 3187 3648 3168 
L 3648 3962 
C 3488 3942 3386 3936 3059 3936 
L 3059 4499 
C 3322 4493 3379 4493 3552 4474 
L 3552 5261 
C 3360 5229 3200 5222 2835 5222 
L 1126 5222 
C 838 5222 627 5235 422 5261 
L 422 4474 
C 595 4493 685 4499 1011 4499 
C 1005 4352 1005 4352 1005 4160 
C 1005 4019 1005 4019 1005 3936 
L 922 3936 
C 653 3936 474 3942 288 3968 
L 288 3162 
C 474 3187 634 3194 896 3194 
L 934 3194 
C 826 2739 634 2458 243 2189 
C 454 2048 627 1869 800 1632 
L 800 826 
z
M 2266 3194 
L 2266 2682 
C 2266 2406 2253 2144 2227 1939 
L 2726 1939 
C 2726 1850 2733 1837 2733 1792 
L 2733 1613 
L 1446 1613 
C 1197 1613 1069 1619 890 1632 
C 1171 1869 1318 2035 1466 2285 
C 1613 2547 1709 2842 1760 3194 
L 2266 3194 
z
M 1811 4499 
L 2266 4499 
L 2266 3936 
L 1811 3936 
L 1811 4499 
z
M 4653 4627 
C 4653 4819 4659 4947 4678 5082 
L 3821 5082 
C 3834 4941 3846 4787 3846 4576 
L 3846 3014 
C 3846 2816 3834 2662 3821 2528 
L 4371 2528 
C 4442 2368 4486 2176 4518 1894 
C 4806 1888 4813 1888 4883 1888 
C 5267 1888 5498 1914 5632 1971 
C 5856 2074 5939 2240 5939 2624 
L 5939 4794 
C 5939 5062 5946 5242 5971 5376 
L 5075 5376 
C 5094 5210 5107 5094 5107 4858 
L 5107 2758 
C 5107 2624 5088 2618 4838 2618 
C 4819 2618 4787 2618 4723 2624 
C 4710 2624 4685 2624 4659 2624 
C 4653 2739 4653 2829 4653 2950 
L 4653 4627 
z
" transform="scale(0.015625)"/>
     </defs>
     <use xlink:href="#HiraginoSans-W7-578b"/>
    </g>
   </g>
   <g id="text_7">
    <!-- $\mathbb{R}_{\geq 0}^\infty$（ENNReal） -->
    <g style="fill: #1a1a2e" transform="translate(92.07 172.384375) scale(0.09 -0.09)">
     <defs>
      <path id="STIXGeneral-Italic-211d" d="M 1229 4179 
L 3360 4179 
Q 3827 4179 4108 3894 
Q 4390 3610 4390 3142 
Q 4390 2554 4060 2186 
Q 3731 1818 3149 1715 
L 4026 0 
L 2925 0 
L 2125 1690 
L 1549 1690 
L 1094 0 
L 109 0 
L 1229 4179 
z
M 3866 3821 
L 3392 2022 
Q 3770 2144 3962 2438 
Q 4154 2733 4154 3136 
Q 4154 3584 3866 3821 
z
M 3142 1978 
L 3648 3872 
Q 3450 3942 3296 3942 
L 2150 3942 
L 1613 1926 
L 2630 1926 
Q 2957 1926 3142 1978 
z
M 3629 237 
L 2899 1696 
Q 2829 1683 2682 1683 
Q 2630 1683 2531 1686 
Q 2432 1690 2387 1690 
L 3072 237 
L 3629 237 
z
M 1907 3942 
L 1408 3942 
L 416 237 
L 915 237 
L 1907 3942 
z
" transform="scale(0.015625)"/>
      <path id="DejaVuSans-221e" d="M 2916 1091 
Q 2819 1203 2666 1466 
Q 2456 1091 2272 925 
Q 2041 725 1681 725 
Q 1259 725 981 1041 
Q 688 1372 688 1919 
Q 688 2444 981 2800 
Q 1244 3116 1688 3116 
Q 1916 3116 2084 3022 
Q 2281 2919 2416 2741 
Q 2541 2581 2666 2366 
Q 2875 2741 3059 2906 
Q 3291 3106 3650 3106 
Q 4072 3106 4350 2791 
Q 4644 2459 4644 1913 
Q 4644 1388 4350 1031 
Q 4088 716 3644 716 
Q 3416 716 3247 809 
Q 3078 894 2916 1091 
z
M 1647 1134 
Q 2163 1134 2472 1884 
Q 2075 2703 1647 2703 
Q 1334 2703 1175 2478 
Q 1003 2238 1003 1919 
Q 1003 1569 1175 1353 
Q 1350 1134 1647 1134 
z
M 3684 2697 
Q 3219 2697 2859 1947 
Q 3253 1128 3684 1128 
Q 3997 1128 4156 1353 
Q 4328 1594 4328 1913 
Q 4328 2263 4156 2478 
Q 3981 2697 3684 2697 
z
" transform="scale(0.015625)"/>
      <path id="DejaVuSans-2265" d="M 678 3175 
L 678 3725 
L 4684 2578 
L 4684 2047 
L 678 897 
L 678 1453 
L 3681 2309 
L 678 3175 
z
M 4684 531 
L 4684 0 
L 678 0 
L 678 531 
L 4684 531 
z
" transform="scale(0.015625)"/>
      <path id="DejaVuSans-30" d="M 2034 4250 
Q 1547 4250 1301 3770 
Q 1056 3291 1056 2328 
Q 1056 1369 1301 889 
Q 1547 409 2034 409 
Q 2525 409 2770 889 
Q 3016 1369 3016 2328 
Q 3016 3291 2770 3770 
Q 2525 4250 2034 4250 
z
M 2034 4750 
Q 2819 4750 3233 4129 
Q 3647 3509 3647 2328 
Q 3647 1150 3233 529 
Q 2819 -91 2034 -91 
Q 1250 -91 836 529 
Q 422 1150 422 2328 
Q 422 3509 836 4129 
Q 1250 4750 2034 4750 
z
" transform="scale(0.015625)"/>
      <path id="HiraginoSans-W4-ff08" d="M 6170 -531 
C 5690 -26 5491 256 5280 698 
C 5024 1235 4902 1805 4902 2432 
C 4902 3059 5024 3629 5280 4166 
C 5491 4608 5690 4890 6170 5395 
L 5517 5395 
C 5139 4947 4966 4685 4774 4275 
C 4499 3686 4365 3085 4365 2432 
C 4365 1779 4499 1178 4774 589 
C 4966 179 5139 -83 5517 -531 
L 6170 -531 
z
" transform="scale(0.015625)"/>
      <path id="HiraginoSans-W4-45" d="M 3872 582 
C 3629 550 3450 538 3130 538 
L 1133 538 
L 1133 2323 
L 2778 2323 
C 3130 2323 3302 2310 3533 2278 
L 3533 2899 
C 3283 2867 3078 2854 2778 2854 
L 1133 2854 
L 1133 4397 
L 3066 4397 
C 3405 4397 3597 4384 3814 4352 
L 3814 4979 
C 3603 4947 3366 4934 3066 4934 
L 1210 4934 
C 896 4934 698 4941 480 4954 
C 518 4659 531 4486 531 4192 
L 531 768 
C 531 429 518 224 480 -13 
C 717 0 870 0 1210 0 
L 3130 0 
C 3482 0 3654 -6 3872 -38 
L 3872 582 
z
" transform="scale(0.015625)"/>
      <path id="HiraginoSans-W4-4e" d="M 480 4934 
C 518 4698 531 4493 531 4186 
L 531 819 
C 531 454 518 198 480 0 
L 1171 0 
C 1133 218 1120 454 1120 819 
L 1120 3078 
C 1120 3347 1107 3795 1082 4186 
C 1190 3974 1389 3635 1459 3526 
L 3392 608 
C 3578 326 3654 205 3750 0 
L 4538 0 
C 4499 218 4486 416 4486 749 
L 4486 4154 
C 4486 4499 4499 4698 4538 4934 
L 3846 4934 
C 3885 4704 3898 4486 3898 4160 
L 3898 1843 
C 3898 1638 3910 1248 3936 736 
C 3795 992 3603 1306 3494 1466 
L 1587 4326 
C 1395 4621 1299 4794 1248 4934 
L 480 4934 
z
" transform="scale(0.015625)"/>
      <path id="HiraginoSans-W4-52" d="M 4512 0 
C 4422 154 4307 390 4218 608 
C 4013 1082 3859 1414 3718 1690 
C 3488 2138 3328 2310 3072 2394 
C 3418 2477 3578 2554 3763 2726 
C 4006 2957 4122 3258 4122 3667 
C 4122 4486 3603 4934 2656 4934 
L 1216 4934 
C 902 4934 704 4941 480 4954 
C 518 4685 531 4486 531 4192 
L 531 755 
C 531 416 518 243 480 0 
L 1178 0 
C 1139 230 1126 416 1126 755 
L 1126 2202 
L 2234 2202 
C 2739 2202 2989 1952 3354 1075 
C 3616 442 3699 205 3725 0 
L 4512 0 
z
M 1126 2726 
L 1126 4410 
L 2611 4410 
C 3194 4410 3501 4134 3501 3610 
C 3501 3347 3424 3142 3270 2989 
C 3098 2822 2848 2726 2579 2726 
L 1126 2726 
z
" transform="scale(0.015625)"/>
      <path id="HiraginoSans-W4-65" d="M 3578 1651 
C 3558 1971 3546 2106 3533 2170 
C 3405 3066 2797 3610 1933 3610 
C 934 3610 282 2880 282 1760 
C 282 621 941 -96 1978 -96 
C 2470 -96 2880 64 3187 371 
C 3341 518 3424 646 3546 915 
L 3008 1114 
C 2944 928 2899 845 2803 742 
C 2605 512 2323 390 1984 390 
C 1613 390 1312 531 1114 800 
C 947 1024 883 1235 858 1651 
L 3578 1651 
z
M 877 2118 
C 915 2349 947 2451 1037 2605 
C 1229 2944 1542 3130 1920 3130 
C 2221 3130 2464 3040 2656 2854 
C 2842 2669 2938 2451 2976 2118 
L 877 2118 
z
" transform="scale(0.015625)"/>
      <path id="HiraginoSans-W4-61" d="M 2765 0 
L 3373 0 
C 3334 269 3322 422 3322 736 
L 3322 2515 
C 3322 2867 3238 3110 3046 3290 
C 2816 3514 2464 3622 1978 3622 
C 1485 3622 1094 3507 813 3270 
C 627 3123 531 2976 416 2656 
L 1011 2541 
C 1069 2714 1114 2797 1197 2886 
C 1370 3066 1626 3155 1971 3155 
C 2515 3155 2765 2950 2765 2515 
L 2765 2182 
C 1933 2163 1581 2118 1197 1997 
C 646 1818 333 1434 333 941 
C 333 320 774 -58 1491 -58 
C 1741 -58 1978 -19 2195 64 
C 2406 141 2522 218 2765 429 
L 2765 0 
z
M 2765 1363 
C 2765 1126 2707 973 2554 813 
C 2304 557 1920 397 1568 397 
C 1165 397 915 608 915 941 
C 915 1235 1075 1440 1395 1568 
C 1677 1683 2035 1728 2765 1747 
L 2765 1363 
z
" transform="scale(0.015625)"/>
      <path id="HiraginoSans-W4-6c" d="M 442 4934 
C 474 4704 486 4518 486 4179 
L 486 755 
C 486 429 474 250 442 0 
L 1120 0 
C 1088 262 1075 448 1075 755 
L 1075 4179 
C 1075 4512 1088 4698 1120 4934 
L 442 4934 
z
" transform="scale(0.015625)"/>
      <path id="HiraginoSans-W4-ff09" d="M 890 -531 
C 1261 -83 1434 179 1626 589 
C 1901 1178 2035 1773 2035 2432 
C 2035 3091 1901 3686 1626 4275 
C 1434 4685 1261 4947 890 5395 
L 230 5395 
C 710 4890 909 4608 1120 4166 
C 1376 3629 1498 3072 1498 2432 
C 1498 1792 1376 1235 1120 698 
C 909 256 710 -26 230 -531 
L 890 -531 
z
" transform="scale(0.015625)"/>
     </defs>
     <use xlink:href="#STIXGeneral-Italic-211d" transform="translate(0 0.703125)"/>
     <use xlink:href="#DejaVuSans-221e" transform="translate(74.65144 38.984375) scale(0.7)"/>
     <use xlink:href="#DejaVuSans-2265" transform="translate(82.337677 -26.640625) scale(0.7)"/>
     <use xlink:href="#DejaVuSans-30" transform="translate(154.627716 -26.640625) scale(0.7)"/>
     <use xlink:href="#HiraginoSans-W4-ff08" transform="translate(201.898224 0.703125)"/>
     <use xlink:href="#HiraginoSans-W4-45" transform="translate(301.898209 0.703125)"/>
     <use xlink:href="#HiraginoSans-W4-4e" transform="translate(367.398193 0.703125)"/>
     <use xlink:href="#HiraginoSans-W4-4e" transform="translate(445.898178 0.703125)"/>
     <use xlink:href="#HiraginoSans-W4-52" transform="translate(524.398163 0.703125)"/>
     <use xlink:href="#HiraginoSans-W4-65" transform="translate(598.198151 0.703125)"/>
     <use xlink:href="#HiraginoSans-W4-61" transform="translate(658.398148 0.703125)"/>
     <use xlink:href="#HiraginoSans-W4-6c" transform="translate(717.598145 0.703125)"/>
     <use xlink:href="#HiraginoSans-W4-ff09" transform="translate(741.898132 0.703125)"/>
    </g>
   </g>
   <g id="text_8">
    <!-- $\mathbb{R}$（実数） -->
    <g style="fill: #1a1a2e" transform="translate(309.735 172.411094) scale(0.09 -0.09)">
     <defs>
      <path id="HiraginoSans-W4-5b9f" d="M 5376 1382 
C 5626 1382 5798 1370 6003 1344 
L 6003 1843 
C 5837 1811 5677 1805 5395 1805 
L 3245 1805 
C 3290 1997 3302 2099 3328 2355 
L 4614 2355 
C 4896 2355 5011 2349 5171 2323 
L 5171 2784 
C 5005 2758 4909 2752 4614 2752 
L 3360 2752 
C 3373 2893 3373 3008 3386 3258 
L 4666 3258 
C 4947 3258 5094 3251 5280 3226 
L 5280 3693 
C 5120 3667 4954 3661 4666 3661 
L 3392 3661 
C 3398 3942 3405 4045 3430 4147 
L 2880 4147 
C 2906 4013 2912 3923 2912 3661 
L 1734 3661 
C 1453 3661 1286 3667 1126 3693 
L 1126 3226 
C 1299 3251 1459 3258 1734 3258 
L 2912 3258 
C 2906 3059 2899 2995 2886 2752 
L 1747 2752 
C 1453 2752 1350 2758 1184 2784 
L 1184 2323 
C 1338 2349 1466 2355 1747 2355 
L 2861 2355 
C 2835 2118 2816 1978 2771 1805 
L 1043 1805 
C 762 1805 602 1811 435 1843 
L 435 1344 
C 634 1370 826 1382 1062 1382 
L 2624 1382 
C 2432 979 2150 691 1722 454 
C 1325 243 966 128 346 19 
C 493 -186 531 -250 608 -461 
C 1242 -314 1658 -147 2093 128 
C 2547 416 2861 774 3078 1280 
C 3686 384 4454 -109 5824 -467 
C 5901 -275 5978 -128 6093 26 
C 5357 160 4858 333 4397 602 
C 4038 813 3808 1024 3533 1382 
L 5376 1382 
z
M 2899 4736 
L 1171 4736 
C 877 4736 710 4742 506 4762 
C 525 4608 531 4486 531 4314 
L 531 3917 
C 531 3718 525 3603 506 3462 
L 1005 3462 
L 1005 4314 
L 5414 4314 
L 5414 3462 
L 5907 3462 
C 5888 3590 5882 3731 5882 3917 
L 5882 4320 
C 5882 4493 5888 4608 5907 4762 
C 5702 4742 5542 4736 5248 4736 
L 3398 4736 
L 3398 4954 
C 3398 5101 3411 5216 3437 5350 
L 2861 5350 
C 2886 5210 2899 5101 2899 4947 
L 2899 4736 
z
" transform="scale(0.015625)"/>
      <path id="HiraginoSans-W4-6570" d="M 6170 4173 
C 6003 4141 5862 4134 5568 4134 
L 4288 4134 
C 4365 4384 4435 4627 4512 4947 
C 4557 5126 4563 5152 4595 5235 
L 4077 5344 
C 4070 5158 4032 4934 3974 4672 
C 3782 3853 3437 3130 2995 2598 
C 3142 2509 3226 2438 3354 2291 
C 3526 2515 3610 2643 3770 2931 
C 3904 2176 4070 1702 4397 1158 
C 4013 653 3526 275 2803 -77 
C 2944 -218 3021 -326 3110 -506 
C 3776 -141 4256 250 4666 755 
C 5069 230 5485 -141 6035 -467 
C 6138 -237 6202 -128 6317 13 
C 5747 314 5338 653 4954 1158 
C 5171 1523 5325 1875 5440 2304 
C 5562 2739 5613 3078 5651 3699 
C 5920 3699 6035 3693 6170 3667 
L 6170 4173 
z
M 5184 3699 
C 5133 2797 4992 2214 4672 1600 
C 4358 2170 4192 2707 4064 3539 
C 4096 3610 4102 3629 4128 3699 
L 5184 3699 
z
M 3046 339 
C 2752 512 2656 570 2419 685 
C 2643 992 2746 1190 2880 1626 
L 2963 1626 
C 3187 1626 3309 1619 3443 1594 
L 3443 2067 
C 3328 2042 3206 2035 2989 2035 
L 1862 2035 
C 1926 2176 1958 2234 2029 2426 
L 1562 2528 
C 1485 2285 1453 2202 1382 2035 
L 832 2035 
C 608 2035 493 2042 365 2067 
L 365 1594 
C 499 1619 614 1626 832 1626 
L 1165 1626 
C 1005 1344 941 1248 723 954 
C 1203 774 1402 691 1702 550 
C 1376 294 902 83 326 -58 
C 429 -205 493 -314 563 -480 
C 1325 -224 1715 -19 2112 346 
C 2432 173 2502 122 2778 -77 
L 3046 339 
z
M 2419 1626 
C 2310 1306 2214 1120 2022 870 
C 1818 960 1709 1005 1357 1146 
C 1504 1370 1549 1440 1651 1626 
L 2419 1626 
z
M 2163 4070 
L 2163 4902 
C 2163 5075 2170 5203 2189 5325 
L 1696 5325 
C 1722 5184 1728 5075 1728 4896 
L 1728 4070 
L 915 4070 
C 666 4070 531 4077 390 4102 
L 390 3642 
C 518 3667 678 3674 902 3674 
L 1434 3674 
C 1133 3258 864 3034 269 2688 
C 410 2566 486 2477 589 2317 
C 1184 2739 1408 2963 1747 3494 
C 1734 3366 1728 3258 1728 3162 
L 1728 2835 
C 1728 2752 1722 2662 1702 2586 
L 2182 2586 
C 2170 2662 2163 2758 2163 2848 
L 2163 3168 
C 2163 3258 2157 3347 2138 3494 
C 2355 3162 2490 3014 2848 2739 
C 2989 2970 3002 2982 3130 3110 
C 2816 3277 2566 3469 2406 3674 
L 2989 3674 
C 3200 3674 3309 3667 3418 3648 
L 3418 4096 
C 3322 4077 3200 4070 2995 4070 
L 2163 4070 
z
M 570 5056 
C 774 4768 896 4550 1024 4211 
L 1427 4371 
C 1286 4704 1190 4883 960 5210 
L 570 5056 
z
M 2918 5235 
C 2784 4883 2643 4634 2406 4333 
L 2790 4147 
C 3008 4442 3104 4608 3328 5050 
L 2918 5235 
z
" transform="scale(0.015625)"/>
     </defs>
     <use xlink:href="#STIXGeneral-Italic-211d" transform="translate(0 0.703125)"/>
     <use xlink:href="#HiraginoSans-W4-ff08" transform="translate(68.699982 0.703125)"/>
     <use xlink:href="#HiraginoSans-W4-5b9f" transform="translate(168.699966 0.703125)"/>
     <use xlink:href="#HiraginoSans-W4-6570" transform="translate(268.699951 0.703125)"/>
     <use xlink:href="#HiraginoSans-W4-ff09" transform="translate(368.699936 0.703125)"/>
    </g>
   </g>
   <g id="text_9">
    <!-- 値域 -->
    <g style="fill: #555555" transform="translate(20.592 216.047734) scale(0.09 -0.09)">
     <defs>
      <path id="HiraginoSans-W7-5024" d="M 4403 3872 
C 4442 4019 4442 4019 4480 4211 
L 5574 4211 
C 5798 4211 5984 4205 6170 4186 
L 6170 4973 
C 5952 4941 5792 4934 5472 4934 
L 4614 4934 
C 4634 5037 4634 5037 4691 5376 
L 3859 5421 
C 3846 5190 3840 5107 3814 4934 
L 2746 4934 
C 2406 4934 2221 4941 2042 4966 
L 2042 4186 
C 2253 4205 2381 4211 2643 4211 
L 3699 4211 
C 3674 4083 3674 4077 3622 3872 
L 3539 3872 
C 3270 3872 3181 3872 3034 3885 
C 3046 3757 3053 3635 3053 3379 
L 3053 1203 
C 3053 992 3046 864 3040 704 
C 3283 717 3379 717 3565 717 
L 5293 717 
C 5478 717 5587 717 5830 704 
C 5811 896 5805 1024 5805 1286 
L 5805 3258 
C 5805 3533 5811 3686 5830 3885 
C 5702 3878 5594 3872 5293 3872 
L 4403 3872 
z
M 3808 3277 
L 5050 3277 
L 5050 2995 
L 3808 2995 
L 3808 3277 
z
M 3808 2438 
L 5050 2438 
L 5050 2163 
L 3808 2163 
L 3808 2438 
z
M 3808 1606 
L 5050 1606 
L 5050 1318 
L 3808 1318 
L 3808 1606 
z
M 736 186 
C 736 -109 730 -282 698 -557 
L 1581 -557 
C 1549 -288 1542 -102 1542 179 
L 1542 3821 
C 1786 4365 1824 4474 2074 5261 
L 1210 5459 
C 1178 5190 1107 4928 960 4544 
C 736 3936 467 3482 70 3046 
C 205 2733 301 2432 371 2093 
C 493 2240 538 2304 749 2630 
C 736 2298 736 2163 736 1952 
L 736 186 
z
M 2694 -563 
L 2694 -288 
L 5395 -288 
C 5709 -288 5901 -301 6131 -326 
L 6131 474 
C 5926 448 5734 442 5408 442 
L 2694 442 
L 2694 3046 
C 2694 3392 2701 3590 2726 3795 
L 1875 3795 
C 1901 3590 1907 3386 1907 3046 
L 1907 237 
C 1907 -147 1901 -346 1875 -563 
L 2694 -563 
z
" transform="scale(0.015625)"/>
      <path id="HiraginoSans-W7-57df" d="M 5357 3405 
C 5331 3117 5216 2707 5043 2304 
C 4973 2733 4922 3264 4896 3808 
L 5466 3808 
C 5734 3808 6010 3795 6176 3776 
L 6176 4608 
C 6003 4582 5888 4576 5581 4576 
L 6029 4774 
C 5888 5043 5779 5203 5581 5446 
L 5005 5203 
C 5184 4998 5267 4851 5395 4576 
L 4890 4576 
C 4890 5133 4896 5197 4928 5382 
L 4064 5382 
C 4090 5210 4096 5082 4102 4806 
C 4102 4698 4102 4685 4102 4576 
L 2707 4576 
C 2387 4576 2112 4589 1939 4614 
L 1939 3776 
C 2106 3795 2400 3808 2688 3808 
L 4128 3808 
C 4186 2784 4288 2048 4474 1306 
C 4352 1139 4256 1024 4115 870 
L 4115 1402 
C 3187 1184 2752 1101 2022 1011 
L 2022 1760 
C 1798 1638 1741 1613 1594 1536 
L 1594 2982 
C 1792 2982 1882 2976 2016 2957 
L 2016 3744 
C 1901 3731 1805 3725 1594 3725 
L 1594 4602 
C 1594 4960 1600 5114 1632 5325 
L 762 5325 
C 794 5107 800 4947 800 4602 
L 800 3725 
L 691 3725 
C 506 3725 390 3731 243 3750 
L 243 2950 
C 384 2970 506 2982 685 2982 
L 800 2982 
L 800 1184 
C 429 1043 282 998 160 973 
L 320 96 
C 410 147 442 160 589 230 
C 1235 525 1235 525 1734 781 
L 1830 154 
C 1939 192 2144 237 2528 314 
C 3027 416 3443 512 3853 627 
C 3469 320 3283 198 2925 6 
C 3213 -192 3373 -326 3571 -576 
C 4058 -262 4384 26 4749 448 
C 5011 -166 5350 -531 5664 -531 
C 5811 -531 5946 -442 6042 -282 
C 6163 -83 6227 205 6298 800 
C 6080 941 5952 1056 5754 1286 
C 5722 864 5664 506 5626 506 
C 5581 506 5408 890 5299 1216 
C 5568 1670 5747 2061 5946 2618 
C 6035 2867 6080 2995 6080 3002 
C 6118 3085 6118 3085 6131 3117 
L 5357 3405 
z
M 2195 1869 
C 2195 1722 2189 1613 2182 1491 
C 2266 1498 2406 1504 2560 1504 
L 3603 1504 
C 3744 1504 3885 1498 3981 1491 
C 3974 1549 3968 1728 3968 1875 
L 3968 3213 
C 3968 3302 3974 3405 3981 3456 
C 3898 3450 3757 3443 3648 3443 
L 2592 3443 
C 2432 3443 2253 3450 2182 3456 
C 2182 3405 2189 3270 2195 3059 
L 2195 1869 
z
M 2842 2778 
L 3309 2778 
L 3309 2170 
L 2842 2170 
L 2842 2778 
z
" transform="scale(0.015625)"/>
     </defs>
     <use xlink:href="#HiraginoSans-W7-5024"/>
     <use xlink:href="#HiraginoSans-W7-57df" transform="translate(99.999985 0)"/>
    </g>
   </g>
   <g id="text_10">
    <!-- $[0, +\infty]$ -->
    <g style="fill: #1a1a2e" transform="translate(112.005 215.971094) scale(0.09 -0.09)">
     <defs>
      <path id="DejaVuSans-5b" d="M 550 4863 
L 1875 4863 
L 1875 4416 
L 1125 4416 
L 1125 -397 
L 1875 -397 
L 1875 -844 
L 550 -844 
L 550 4863 
z
" transform="scale(0.015625)"/>
      <path id="DejaVuSans-2c" d="M 750 794 
L 1409 794 
L 1409 256 
L 897 -744 
L 494 -744 
L 750 256 
L 750 794 
z
" transform="scale(0.015625)"/>
      <path id="DejaVuSans-2b" d="M 2944 4013 
L 2944 2272 
L 4684 2272 
L 4684 1741 
L 2944 1741 
L 2944 0 
L 2419 0 
L 2419 1741 
L 678 1741 
L 678 2272 
L 2419 2272 
L 2419 4013 
L 2944 4013 
z
" transform="scale(0.015625)"/>
      <path id="DejaVuSans-5d" d="M 1947 4863 
L 1947 -844 
L 622 -844 
L 622 -397 
L 1369 -397 
L 1369 4416 
L 622 4416 
L 622 4863 
L 1947 4863 
z
" transform="scale(0.015625)"/>
     </defs>
     <use xlink:href="#DejaVuSans-5b" transform="translate(0 0.015625)"/>
     <use xlink:href="#DejaVuSans-30" transform="translate(39.013672 0.015625)"/>
     <use xlink:href="#DejaVuSans-2c" transform="translate(102.636719 0.015625)"/>
     <use xlink:href="#DejaVuSans-2b" transform="translate(173.388672 0.015625)"/>
     <use xlink:href="#DejaVuSans-221e" transform="translate(276.660156 0.015625)"/>
     <use xlink:href="#DejaVuSans-5d" transform="translate(359.960938 0.015625)"/>
    </g>
   </g>
   <g id="text_11">
    <!-- $(-\infty, +\infty)$ -->
    <g style="fill: #1a1a2e" transform="translate(308.205 215.971094) scale(0.09 -0.09)">
     <defs>
      <path id="DejaVuSans-28" d="M 1984 4856 
Q 1566 4138 1362 3434 
Q 1159 2731 1159 2009 
Q 1159 1288 1364 580 
Q 1569 -128 1984 -844 
L 1484 -844 
Q 1016 -109 783 600 
Q 550 1309 550 2009 
Q 550 2706 781 3412 
Q 1013 4119 1484 4856 
L 1984 4856 
z
" transform="scale(0.015625)"/>
      <path id="DejaVuSans-29" d="M 513 4856 
L 1013 4856 
Q 1481 4119 1714 3412 
Q 1947 2706 1947 2009 
Q 1947 1309 1714 600 
Q 1481 -109 1013 -844 
L 513 -844 
Q 928 -128 1133 580 
Q 1338 1288 1338 2009 
Q 1338 2731 1133 3434 
Q 928 4138 513 4856 
z
" transform="scale(0.015625)"/>
     </defs>
     <use xlink:href="#DejaVuSans-28" transform="translate(0 0.125)"/>
     <use xlink:href="#DejaVuSans-2212" transform="translate(39.013672 0.125)"/>
     <use xlink:href="#DejaVuSans-221e" transform="translate(122.802734 0.125)"/>
     <use xlink:href="#DejaVuSans-2c" transform="translate(206.103516 0.125)"/>
     <use xlink:href="#DejaVuSans-2b" transform="translate(276.855469 0.125)"/>
     <use xlink:href="#DejaVuSans-221e" transform="translate(380.126953 0.125)"/>
     <use xlink:href="#DejaVuSans-29" transform="translate(463.427734 0.125)"/>
    </g>
   </g>
   <g id="text_12">
    <!-- 対象 -->
    <g style="fill: #555555" transform="translate(20.592 259.607734) scale(0.09 -0.09)">
     <defs>
      <path id="HiraginoSans-W7-5bfe" d="M 1434 4480 
L 909 4480 
C 653 4480 454 4493 256 4518 
L 256 3699 
C 454 3725 627 3731 864 3731 
L 1971 3731 
C 1946 3296 1875 2880 1760 2515 
C 1498 2810 1498 2810 909 3405 
L 365 2829 
C 710 2509 1056 2138 1421 1696 
C 1126 1114 774 691 179 224 
C 435 -13 557 -179 742 -506 
C 1325 70 1606 416 1965 1005 
C 2298 563 2381 442 2669 -26 
L 3251 666 
C 2886 1171 2688 1421 2362 1818 
C 2592 2419 2733 3059 2784 3731 
C 3002 3731 3104 3725 3238 3712 
L 3238 4512 
C 3034 4486 2893 4480 2611 4480 
L 2240 4480 
L 2240 4806 
C 2240 5056 2246 5229 2272 5389 
L 1395 5389 
C 1421 5203 1434 5069 1434 4806 
L 1434 4480 
z
M 4742 3398 
L 4742 435 
C 4742 307 4691 288 4384 288 
C 4205 288 3846 320 3590 358 
C 3712 83 3770 -115 3827 -474 
C 4006 -480 4090 -480 4198 -480 
C 4314 -480 4448 -474 4672 -467 
C 5030 -448 5171 -429 5280 -365 
C 5498 -237 5568 -77 5568 352 
L 5568 3398 
L 5613 3398 
C 5786 3398 5971 3392 6042 3379 
C 6131 3366 6131 3366 6189 3366 
L 6189 4211 
C 6029 4186 5869 4173 5606 4173 
L 5568 4173 
L 5568 4576 
C 5568 4934 5574 5158 5600 5363 
L 4698 5363 
C 4730 5165 4742 4966 4742 4576 
L 4742 4173 
L 3974 4173 
C 3693 4173 3533 4179 3366 4205 
L 3366 3366 
C 3546 3392 3680 3398 3968 3398 
L 4742 3398 
z
M 2995 2701 
C 3379 2195 3590 1811 3872 1114 
L 4570 1562 
C 4275 2182 4115 2445 3686 3066 
L 2995 2701 
z
" transform="scale(0.015625)"/>
      <path id="HiraginoSans-W7-8c61" d="M 5152 2611 
C 5421 2611 5574 2605 5715 2598 
C 5696 2784 5690 2938 5690 3168 
L 5690 3680 
C 5690 3910 5696 4058 5715 4256 
C 5549 4237 5382 4230 5062 4230 
L 4173 4230 
C 4333 4365 4448 4474 4570 4595 
C 4717 4749 4717 4749 4774 4800 
L 4346 5184 
C 4256 5171 3968 5158 3712 5158 
L 2720 5158 
C 2758 5203 2758 5203 2925 5402 
L 2010 5517 
C 1843 5267 1715 5126 1427 4890 
C 960 4499 634 4294 160 4090 
C 333 3827 403 3686 512 3360 
C 698 3462 755 3494 896 3578 
L 896 3168 
C 896 2893 890 2752 870 2586 
C 1082 2605 1222 2611 1472 2611 
L 2202 2611 
C 1638 2387 1120 2259 320 2144 
C 512 1882 563 1798 659 1549 
C 1318 1670 1920 1869 2560 2170 
C 2611 2106 2630 2080 2688 2003 
C 1978 1645 1350 1440 307 1229 
C 454 1050 550 896 646 640 
C 1562 864 2330 1158 2957 1523 
C 2989 1440 3002 1408 3027 1325 
C 2227 845 1280 480 218 243 
C 403 38 512 -141 640 -422 
C 1274 -237 1581 -122 2214 173 
C 2317 -45 2374 -256 2394 -538 
C 2573 -550 2650 -557 2816 -557 
C 3667 -557 3930 -314 3930 480 
C 3930 1261 3648 2035 3194 2515 
C 3264 2560 3283 2573 3341 2611 
L 3622 2611 
C 3840 1907 4109 1318 4422 851 
C 4774 314 5222 -83 5798 -384 
C 5926 -83 6074 166 6291 442 
C 6010 531 5818 634 5549 832 
C 5293 1018 5126 1184 4960 1421 
C 5197 1581 5370 1715 5664 1965 
C 5773 2061 5773 2061 5843 2112 
L 5126 2611 
C 5018 2464 4864 2310 4589 2093 
C 4493 2323 4454 2419 4403 2611 
L 5152 2611 
z
M 1818 4230 
C 1971 4358 2048 4429 2170 4550 
L 3539 4550 
C 3430 4422 3418 4410 3219 4230 
L 1818 4230 
z
M 2253 192 
C 2579 346 2874 512 3149 685 
C 3149 659 3149 634 3149 621 
C 3149 218 3104 166 2733 166 
C 2592 166 2534 166 2336 186 
C 2304 192 2291 192 2253 192 
z
M 1702 3245 
L 1702 3584 
L 2854 3584 
L 2854 3245 
L 1702 3245 
z
M 3642 3245 
L 3642 3584 
L 4877 3584 
L 4877 3245 
L 3642 3245 
z
" transform="scale(0.015625)"/>
     </defs>
     <use xlink:href="#HiraginoSans-W7-5bfe"/>
     <use xlink:href="#HiraginoSans-W7-8c61" transform="translate(99.999985 0)"/>
    </g>
   </g>
   <g id="text_13">
    <!-- 非負可測関数 -->
    <g style="fill: #1a1a2e" transform="translate(102.96 259.531094) scale(0.09 -0.09)">
     <defs>
      <path id="HiraginoSans-W4-975e" d="M 2285 3866 
L 2285 3046 
L 1203 3046 
C 858 3046 730 3053 589 3078 
L 589 2579 
C 736 2605 909 2611 1203 2611 
L 2278 2611 
C 2266 2298 2246 2131 2214 1869 
C 1370 1638 608 1485 269 1466 
L 416 934 
C 493 966 634 1005 755 1037 
C 1683 1267 1747 1280 2112 1389 
C 2010 1075 1882 851 1677 621 
C 1408 326 1133 141 589 -102 
C 736 -237 845 -371 947 -531 
C 1990 13 2445 563 2656 1549 
C 2931 1632 2931 1632 3155 1702 
L 3149 2150 
L 2726 2016 
C 2752 2310 2771 2618 2771 2970 
L 2771 4582 
C 2771 5018 2778 5146 2803 5312 
L 2240 5312 
C 2272 5114 2285 4947 2285 4595 
L 2285 4314 
L 1024 4314 
C 723 4314 576 4320 416 4352 
L 416 3834 
C 538 3859 730 3866 1024 3866 
L 2285 3866 
z
M 4096 1088 
L 5421 1088 
C 5683 1088 5869 1075 6048 1050 
L 6048 1574 
C 5888 1549 5728 1542 5421 1542 
L 4096 1542 
L 4096 2522 
L 5254 2522 
C 5542 2522 5709 2515 5862 2490 
L 5862 2995 
C 5722 2970 5594 2963 5254 2963 
L 4096 2963 
L 4096 3853 
L 5376 3853 
C 5690 3853 5850 3846 5990 3821 
L 5990 4339 
C 5830 4307 5696 4301 5376 4301 
L 4096 4301 
L 4096 4570 
C 4096 4934 4102 5126 4134 5312 
L 3584 5312 
C 3610 5107 3616 4947 3616 4570 
L 3616 294 
C 3616 -122 3610 -275 3578 -474 
L 4134 -474 
C 4102 -282 4096 -115 4096 294 
L 4096 1088 
z
" transform="scale(0.015625)"/>
      <path id="HiraginoSans-W4-8ca0" d="M 3878 3878 
C 4019 4032 4090 4115 4237 4314 
C 4480 4627 4506 4666 4557 4723 
L 4314 4960 
C 4179 4941 4026 4934 3712 4934 
L 2502 4934 
C 2547 4998 2560 5018 2579 5050 
C 2720 5280 2739 5306 2771 5344 
L 2227 5466 
C 2118 5178 1933 4902 1626 4563 
C 1254 4160 877 3866 365 3584 
C 486 3462 563 3354 640 3194 
C 915 3366 1018 3437 1222 3597 
C 1229 3437 1229 3373 1229 3232 
L 1229 1402 
C 1229 992 1222 832 1197 640 
C 1427 666 1632 672 1888 672 
L 2317 672 
C 2061 486 1965 422 1798 346 
C 1389 141 1043 38 448 -70 
C 602 -224 672 -320 768 -506 
C 1299 -378 1549 -294 1901 -134 
C 2195 6 2362 109 2701 358 
L 2342 672 
L 4717 672 
C 4973 672 5178 666 5408 640 
C 5382 806 5376 1018 5376 1402 
L 5376 3232 
C 5376 3558 5382 3693 5408 3898 
C 5197 3885 5062 3878 4685 3878 
L 3878 3878 
z
M 1920 3878 
C 1786 3878 1715 3878 1562 3878 
C 1888 4179 1997 4294 2189 4525 
L 3814 4525 
C 3622 4250 3514 4102 3309 3878 
L 1920 3878 
z
M 1696 3469 
L 4909 3469 
L 4909 2963 
L 1696 2963 
L 1696 3469 
z
M 1696 2554 
L 4909 2554 
L 4909 2035 
L 1696 2035 
L 1696 2554 
z
M 1696 1626 
L 4909 1626 
L 4909 1094 
L 1696 1094 
L 1696 1626 
z
M 3802 346 
C 4160 115 4320 32 4640 -109 
C 5050 -282 5312 -365 5862 -493 
C 5946 -301 6010 -205 6131 -38 
C 5626 45 5402 102 4979 256 
C 4634 384 4493 454 4173 659 
L 3802 346 
z
" transform="scale(0.015625)"/>
      <path id="HiraginoSans-W4-53ef" d="M 4813 4576 
L 4813 198 
C 4813 51 4762 19 4525 19 
C 4256 19 3904 45 3526 90 
C 3597 -83 3635 -243 3654 -422 
C 3974 -442 4230 -448 4461 -448 
C 5158 -448 5318 -346 5318 122 
L 5318 4576 
L 5402 4576 
C 5638 4576 5888 4563 6086 4538 
L 6086 5069 
C 5882 5043 5658 5030 5382 5030 
L 1120 5030 
C 832 5030 608 5043 416 5069 
L 416 4538 
C 634 4563 864 4576 1120 4576 
L 4813 4576 
z
M 3718 3226 
C 3718 3488 3725 3616 3750 3770 
C 3571 3750 3411 3744 3142 3744 
L 1747 3744 
C 1478 3744 1318 3750 1152 3770 
C 1178 3603 1184 3456 1184 3200 
L 1184 1178 
C 1184 1005 1171 838 1146 653 
L 1677 653 
L 1677 1216 
L 3194 1216 
C 3373 1216 3622 1203 3744 1197 
C 3725 1338 3718 1472 3718 1683 
L 3718 3226 
z
M 1677 3296 
L 3226 3296 
L 3226 1670 
L 1677 1670 
L 1677 3296 
z
" transform="scale(0.015625)"/>
      <path id="HiraginoSans-W4-6e2c" d="M 474 4941 
C 877 4659 1120 4442 1408 4090 
L 1741 4448 
C 1453 4781 1229 4979 800 5274 
L 474 4941 
z
M 256 3354 
C 672 3098 922 2893 1267 2522 
L 1574 2918 
C 1235 3245 979 3437 557 3699 
L 256 3354 
z
M 1222 1875 
C 941 960 627 288 326 -38 
L 755 -410 
C 794 -326 813 -282 896 -128 
C 1197 416 1402 902 1619 1594 
L 1222 1875 
z
M 3328 1146 
C 3526 1146 3648 1139 3866 1126 
C 3853 1261 3846 1472 3846 1728 
L 3846 4538 
C 3846 4813 3853 4986 3872 5158 
C 3680 5146 3558 5139 3360 5139 
L 2438 5139 
C 2202 5139 2061 5146 1926 5158 
C 1939 4973 1946 4806 1946 4595 
L 1946 1766 
C 1946 1414 1946 1312 1926 1126 
C 2061 1139 2214 1146 2438 1146 
L 3328 1146 
z
M 2387 4730 
L 3411 4730 
L 3411 3955 
L 2387 3955 
L 2387 4730 
z
M 2387 3552 
L 3411 3552 
L 3411 2778 
L 2387 2778 
L 2387 3552 
z
M 2387 2374 
L 3411 2374 
L 3411 1555 
L 2387 1555 
L 2387 2374 
z
M 3034 755 
C 3309 269 3501 6 3878 -390 
C 4038 -218 4109 -147 4237 -58 
C 3859 269 3674 499 3411 973 
L 3034 755 
z
M 4890 1088 
C 4864 1248 4858 1408 4858 1715 
L 4858 4314 
C 4858 4614 4864 4749 4890 4941 
L 4365 4941 
C 4390 4768 4397 4602 4397 4320 
L 4397 1715 
C 4397 1434 4384 1254 4365 1088 
L 4890 1088 
z
M 2323 979 
C 2099 480 1926 250 1485 -115 
C 1619 -218 1696 -288 1837 -448 
C 2266 -38 2464 237 2714 768 
L 2323 979 
z
M 5914 4512 
C 5914 4870 5926 5082 5952 5261 
L 5408 5261 
C 5434 5024 5446 4826 5446 4512 
L 5446 269 
C 5446 128 5402 102 5146 102 
C 4947 102 4749 122 4499 154 
C 4570 -13 4589 -109 4621 -333 
C 5011 -352 5024 -352 5152 -352 
C 5773 -352 5914 -250 5914 186 
L 5914 4512 
z
" transform="scale(0.015625)"/>
      <path id="HiraginoSans-W4-95a2" d="M 4365 1216 
C 4614 1216 4774 1210 4922 1184 
L 4922 1619 
C 4762 1594 4634 1587 4365 1587 
L 3322 1587 
C 3347 1766 3354 1862 3366 2112 
L 4275 2112 
C 4499 2112 4666 2106 4794 2086 
L 4794 2509 
C 4640 2483 4512 2477 4269 2477 
L 3949 2477 
C 4083 2669 4166 2803 4282 3014 
L 3853 3130 
C 3725 2848 3654 2714 3494 2477 
L 2874 2477 
C 2758 2694 2637 2874 2458 3123 
L 2054 2982 
C 2234 2771 2317 2650 2419 2477 
L 2125 2477 
C 1875 2477 1760 2483 1606 2509 
L 1606 2086 
C 1747 2106 1894 2112 2131 2112 
L 2925 2112 
C 2918 1862 2912 1773 2893 1587 
L 2022 1587 
C 1754 1587 1613 1594 1466 1619 
L 1466 1184 
C 1638 1210 1792 1216 2042 1216 
L 2803 1216 
C 2682 909 2541 723 2272 544 
C 2042 384 1811 294 1357 166 
C 1472 45 1542 -64 1632 -230 
C 2125 -58 2387 77 2650 294 
C 2886 486 3034 691 3155 973 
C 3494 499 3910 186 4499 -32 
C 4570 147 4614 230 4723 390 
C 4115 563 3750 800 3430 1216 
L 4365 1216 
z
M 1056 3245 
L 2253 3245 
C 2515 3245 2714 3238 2886 3226 
C 2874 3379 2867 3539 2867 3814 
L 2867 4576 
C 2867 4826 2874 5011 2886 5178 
C 2707 5158 2554 5152 2234 5152 
L 1222 5152 
C 902 5152 736 5158 557 5178 
C 576 4973 582 4794 582 4474 
L 582 269 
C 582 -90 570 -288 544 -467 
L 1094 -467 
C 1069 -307 1056 -96 1056 262 
L 1056 3245 
z
M 1056 4800 
L 2426 4800 
L 2426 4384 
L 1056 4384 
L 1056 4800 
z
M 1056 4038 
L 2426 4038 
L 2426 3603 
L 1056 3603 
L 1056 4038 
z
M 5830 4474 
C 5830 4762 5837 4928 5862 5178 
C 5677 5158 5517 5152 5190 5152 
L 4064 5152 
C 3744 5152 3590 5158 3411 5178 
C 3424 4973 3430 4806 3430 4576 
L 3430 3814 
C 3430 3565 3424 3405 3411 3226 
C 3590 3238 3770 3245 4045 3245 
L 5357 3245 
L 5357 205 
C 5357 64 5312 26 5126 26 
C 4928 26 4838 32 4550 77 
C 4621 -83 4640 -173 4659 -397 
C 4806 -403 4928 -410 5011 -410 
C 5357 -410 5510 -397 5606 -352 
C 5779 -275 5830 -147 5830 166 
L 5830 4474 
z
M 3872 4800 
L 5357 4800 
L 5357 4384 
L 3872 4384 
L 3872 4800 
z
M 3872 4038 
L 5357 4038 
L 5357 3603 
L 3872 3603 
L 3872 4038 
z
" transform="scale(0.015625)"/>
     </defs>
     <use xlink:href="#HiraginoSans-W4-975e"/>
     <use xlink:href="#HiraginoSans-W4-8ca0" transform="translate(99.999985 0)"/>
     <use xlink:href="#HiraginoSans-W4-53ef" transform="translate(199.999969 0)"/>
     <use xlink:href="#HiraginoSans-W4-6e2c" transform="translate(299.999954 0)"/>
     <use xlink:href="#HiraginoSans-W4-95a2" transform="translate(399.999939 0)"/>
     <use xlink:href="#HiraginoSans-W4-6570" transform="translate(499.999924 0)"/>
    </g>
   </g>
   <g id="text_14">
    <!-- 可積分関数 -->
    <g style="fill: #1a1a2e" transform="translate(308.34 259.531094) scale(0.09 -0.09)">
     <defs>
      <path id="HiraginoSans-W4-7a4d" d="M 2266 3091 
C 2445 3117 2605 3130 2854 3130 
L 5485 3130 
C 5741 3130 5882 3123 6080 3091 
L 6080 3539 
C 5914 3514 5747 3501 5485 3501 
L 4314 3501 
L 4314 3853 
L 5171 3853 
C 5440 3853 5568 3846 5728 3827 
L 5728 4224 
C 5581 4205 5434 4198 5165 4198 
L 4314 4198 
L 4314 4525 
L 5344 4525 
C 5619 4525 5728 4518 5920 4493 
L 5920 4928 
C 5728 4902 5568 4890 5325 4890 
L 4314 4890 
C 4314 5088 4320 5210 4352 5344 
L 3840 5344 
C 3866 5210 3878 5101 3878 4890 
L 3002 4890 
C 2739 4890 2579 4896 2432 4922 
L 2432 4493 
C 2605 4518 2714 4525 2976 4525 
L 3878 4525 
L 3878 4198 
L 3110 4198 
C 2874 4198 2726 4205 2586 4224 
L 2586 3827 
C 2733 3846 2861 3853 3117 3853 
L 3878 3853 
L 3878 3501 
L 2854 3501 
C 2598 3501 2438 3507 2310 3526 
L 2310 3744 
C 2182 3725 2080 3718 1869 3718 
L 1683 3718 
L 1683 4710 
C 1888 4781 2054 4838 2163 4890 
C 2272 4934 2272 4934 2368 4973 
L 2093 5363 
C 1792 5146 1075 4934 333 4838 
C 442 4666 474 4595 518 4422 
C 870 4493 1005 4518 1229 4576 
L 1229 3718 
L 896 3718 
C 640 3718 506 3725 358 3750 
L 358 3264 
C 518 3290 640 3296 883 3296 
L 1178 3296 
C 1030 2611 659 1843 224 1350 
C 365 1184 416 1107 506 941 
C 851 1395 1075 1856 1267 2560 
C 1242 2253 1229 1843 1229 1536 
L 1229 256 
C 1229 -58 1216 -294 1190 -480 
L 1722 -480 
C 1690 -301 1683 -109 1683 256 
L 1683 1805 
C 1683 2061 1664 2445 1645 2714 
C 1824 2272 1926 2080 2157 1792 
C 2234 1946 2304 2048 2400 2150 
C 2054 2502 1843 2848 1696 3296 
L 1862 3296 
C 2042 3296 2144 3290 2266 3277 
L 2266 3091 
z
M 5139 486 
C 5357 486 5498 480 5690 467 
C 5670 602 5664 736 5664 1069 
L 5664 2285 
C 5664 2618 5664 2726 5690 2867 
C 5523 2854 5408 2848 5126 2848 
L 3123 2848 
C 2861 2848 2720 2854 2573 2861 
C 2592 2733 2598 2611 2598 2304 
L 2598 1050 
C 2598 800 2586 602 2573 467 
C 2643 474 2835 480 3136 486 
L 5139 486 
z
M 3034 2490 
L 5222 2490 
L 5222 2176 
L 3034 2176 
L 3034 2490 
z
M 3034 1843 
L 5222 1843 
L 5222 1517 
L 3034 1517 
L 3034 1843 
z
M 3034 1184 
L 5222 1184 
L 5222 845 
L 3034 845 
L 3034 1184 
z
M 3392 467 
C 2906 141 2586 6 1971 -128 
C 2125 -314 2157 -358 2240 -531 
C 2886 -339 3232 -173 3699 179 
L 3392 467 
z
M 4531 179 
C 5011 -166 5357 -326 5978 -525 
C 6074 -333 6125 -250 6246 -102 
C 5658 45 5325 179 4813 474 
L 4531 179 
z
" transform="scale(0.015625)"/>
      <path id="HiraginoSans-W4-5206" d="M 2458 2598 
C 2413 2054 2323 1722 2112 1331 
C 1811 762 1274 301 518 -32 
C 685 -198 755 -294 851 -467 
C 2003 115 2630 870 2880 1952 
C 2925 2163 2944 2272 2970 2598 
L 4390 2598 
C 4390 1715 4333 954 4243 538 
C 4173 205 4128 166 3853 166 
C 3622 166 3328 198 2982 269 
C 3059 51 3085 -70 3110 -269 
C 3488 -301 3706 -314 3898 -314 
C 4326 -314 4499 -243 4614 -26 
C 4781 288 4890 1299 4902 2618 
C 4902 2925 4902 2963 4922 3085 
C 4736 3059 4544 3053 4250 3053 
L 2067 3053 
C 1824 3053 1619 3066 1440 3085 
L 1440 2560 
C 1619 2586 1824 2598 2067 2598 
L 2458 2598 
z
M 2189 5299 
C 2157 5114 2080 4922 1926 4634 
C 1517 3885 973 3296 192 2771 
C 358 2624 467 2496 557 2342 
C 1446 3002 2099 3795 2573 4774 
C 2656 4954 2694 5018 2752 5101 
L 2189 5299 
z
M 3629 5082 
C 3667 5018 3718 4922 3770 4819 
C 4294 3763 4909 3034 5882 2317 
C 6003 2528 6099 2656 6234 2790 
C 5389 3341 4838 3923 4384 4742 
C 4243 4986 4186 5114 4134 5286 
L 3629 5082 
z
" transform="scale(0.015625)"/>
     </defs>
     <use xlink:href="#HiraginoSans-W4-53ef"/>
     <use xlink:href="#HiraginoSans-W4-7a4d" transform="translate(99.999985 0)"/>
     <use xlink:href="#HiraginoSans-W4-5206" transform="translate(199.999969 0)"/>
     <use xlink:href="#HiraginoSans-W4-95a2" transform="translate(299.999954 0)"/>
     <use xlink:href="#HiraginoSans-W4-6570" transform="translate(399.999939 0)"/>
    </g>
   </g>
   <g id="text_15">
    <!-- lintegral と integral の型対比 -->
    <g style="fill: #1a1a2e" transform="translate(141.074062 17.304375) scale(0.12 -0.12)">
     <defs>
      <path id="HiraginoSans-W7-20" transform="scale(0.015625)"/>
      <path id="HiraginoSans-W7-3068" d="M 1850 5114 
C 1882 5024 1888 5005 1952 4698 
C 2106 3923 2208 3507 2362 2982 
C 1946 2778 1734 2643 1478 2426 
C 1107 2106 909 1683 909 1222 
C 909 909 1011 595 1190 371 
C 1530 -58 2240 -269 3347 -269 
C 3802 -269 4256 -237 4954 -166 
C 5318 -128 5350 -122 5491 -115 
L 5414 928 
C 4915 755 4058 646 3270 646 
C 2323 646 1901 832 1901 1254 
C 1901 1664 2349 2035 3226 2362 
C 3962 2630 4774 2854 5427 2963 
L 5107 3936 
C 5011 3891 4979 3878 4851 3840 
C 3853 3526 3584 3443 3232 3315 
C 3034 3987 2867 4838 2842 5267 
L 1850 5114 
z
" transform="scale(0.015625)"/>
      <path id="HiraginoSans-W7-306e" d="M 3776 4038 
C 4032 4006 4186 3955 4371 3834 
C 4806 3546 5056 3066 5056 2496 
C 5056 1818 4723 1222 4173 922 
C 3872 762 3475 659 2906 614 
C 3155 282 3245 109 3379 -294 
C 3834 -218 4090 -154 4397 -32 
C 5421 371 6003 1274 6003 2438 
C 6003 3936 4979 4896 3373 4896 
C 2458 4896 1670 4576 1120 3974 
C 653 3469 403 2803 403 2074 
C 403 973 966 198 1760 198 
C 2310 198 2733 576 3091 1389 
C 3424 2131 3648 2982 3776 4038 
z
M 2842 4026 
C 2765 3341 2566 2534 2330 1965 
C 2125 1446 1926 1197 1741 1197 
C 1491 1197 1286 1587 1286 2067 
C 1286 2707 1587 3328 2074 3706 
C 2323 3898 2534 3987 2842 4026 
z
" transform="scale(0.015625)"/>
      <path id="HiraginoSans-W7-6bd4" d="M 1734 2746 
L 2541 2746 
C 2861 2746 2989 2739 3168 2714 
L 3168 3578 
C 2995 3552 2861 3546 2541 3546 
L 1734 3546 
L 1734 4544 
C 1734 4915 1741 5082 1773 5299 
L 832 5299 
C 864 5069 870 4922 870 4544 
L 870 493 
C 570 429 435 410 218 397 
L 371 -531 
C 448 -499 602 -454 730 -416 
C 781 -403 781 -403 870 -378 
C 1338 -262 1338 -262 1542 -198 
C 2330 32 2669 147 3168 326 
L 3162 1126 
C 2618 947 2266 845 1734 704 
L 1734 2746 
z
M 4205 2381 
C 4832 2701 5555 3155 5958 3475 
C 6086 3578 6112 3597 6182 3642 
L 5606 4346 
C 5363 4032 4890 3674 4205 3277 
L 4205 4531 
C 4205 4922 4211 5082 4243 5293 
L 3322 5293 
C 3354 5082 3360 4915 3360 4531 
L 3360 256 
C 3360 -96 3450 -262 3686 -358 
C 3866 -429 4122 -454 4672 -454 
C 5350 -454 5638 -397 5830 -218 
C 6061 0 6131 333 6182 1440 
C 5805 1542 5658 1600 5363 1760 
C 5363 1005 5338 634 5274 486 
C 5222 365 5094 333 4710 333 
C 4269 333 4205 352 4205 486 
L 4205 2381 
z
" transform="scale(0.015625)"/>
     </defs>
     <use xlink:href="#HiraginoSans-W7-6c"/>
     <use xlink:href="#HiraginoSans-W7-69" transform="translate(29.099991 0)"/>
     <use xlink:href="#HiraginoSans-W7-6e" transform="translate(58.299988 0)"/>
     <use xlink:href="#HiraginoSans-W7-74" transform="translate(128.499969 0)"/>
     <use xlink:href="#HiraginoSans-W7-65" transform="translate(173.999954 0)"/>
     <use xlink:href="#HiraginoSans-W7-67" transform="translate(240.099945 0)"/>
     <use xlink:href="#HiraginoSans-W7-72" transform="translate(311.399933 0)"/>
     <use xlink:href="#HiraginoSans-W7-61" transform="translate(363.499924 0)"/>
     <use xlink:href="#HiraginoSans-W7-6c" transform="translate(429.899918 0)"/>
     <use xlink:href="#HiraginoSans-W7-20" transform="translate(458.999908 0)"/>
     <use xlink:href="#HiraginoSans-W7-3068" transform="translate(492.299896 0)"/>
     <use xlink:href="#HiraginoSans-W7-20" transform="translate(592.299881 0)"/>
     <use xlink:href="#HiraginoSans-W7-69" transform="translate(625.599869 0)"/>
     <use xlink:href="#HiraginoSans-W7-6e" transform="translate(654.799866 0)"/>
     <use xlink:href="#HiraginoSans-W7-74" transform="translate(724.999847 0)"/>
     <use xlink:href="#HiraginoSans-W7-65" transform="translate(770.499832 0)"/>
     <use xlink:href="#HiraginoSans-W7-67" transform="translate(836.599823 0)"/>
     <use xlink:href="#HiraginoSans-W7-72" transform="translate(907.899811 0)"/>
     <use xlink:href="#HiraginoSans-W7-61" transform="translate(959.999802 0)"/>
     <use xlink:href="#HiraginoSans-W7-6c" transform="translate(1026.399796 0)"/>
     <use xlink:href="#HiraginoSans-W7-20" transform="translate(1055.499786 0)"/>
     <use xlink:href="#HiraginoSans-W7-306e" transform="translate(1088.799774 0)"/>
     <use xlink:href="#HiraginoSans-W7-578b" transform="translate(1188.799759 0)"/>
     <use xlink:href="#HiraginoSans-W7-5bfe" transform="translate(1288.799744 0)"/>
     <use xlink:href="#HiraginoSans-W7-6bd4" transform="translate(1388.799728 0)"/>
    </g>
   </g>
  </g>
 </g>
 <defs>
  <clipPath id="pf7593e9bb3">
   <rect x="7.2" y="27.304375" width="446.4" height="277.2"/>
  </clipPath>
 </defs>
</svg>
