<?xml version="1.0" encoding="utf-8" standalone="no"?>
<!DOCTYPE svg PUBLIC "-//W3C//DTD SVG 1.1//EN"
  "http://www.w3.org/Graphics/SVG/1.1/DTD/svg11.dtd">
<svg xmlns:xlink="http://www.w3.org/1999/xlink" width="293.4pt" height="421.984375pt" viewBox="0 0 293.4 421.984375" xmlns="http://www.w3.org/2000/svg" version="1.1">
 <metadata>
  <rdf:RDF xmlns:dc="http://purl.org/dc/elements/1.1/" xmlns:cc="http://creativecommons.org/ns#" xmlns:rdf="http://www.w3.org/1999/02/22-rdf-syntax-ns#">
   <cc:Work>
    <dc:type rdf:resource="http://purl.org/dc/dcmitype/StillImage"/>
    <dc:date>2026-03-29T00:53:41.586856</dc:date>
    <dc:format>image/svg+xml</dc:format>
    <dc:creator>
     <cc:Agent>
      <dc:title>Matplotlib v3.10.8, https://matplotlib.org/</dc:title>
     </cc:Agent>
    </dc:creator>
   </cc:Work>
  </rdf:RDF>
 </metadata>
 <defs>
  <style type="text/css">*{stroke-linejoin: round; stroke-linecap: butt}</style>
 </defs>
 <g id="figure_1">
  <g id="patch_1">
   <path d="M 0 421.984375 
L 293.4 421.984375 
L 293.4 0 
L 0 0 
z
" style="fill: #ffffff"/>
  </g>
  <g id="axes_1">
   <g id="patch_2">
    <path d="M 49.05 105.937375 
L 244.35 105.937375 
Q 248.535 105.937375 248.535 101.086375 
L 248.535 49.342375 
Q 248.535 44.491375 244.35 44.491375 
L 49.05 44.491375 
Q 44.865 44.491375 44.865 49.342375 
L 44.865 101.086375 
Q 44.865 105.937375 49.05 105.937375 
z
" clip-path="url(#p758cfa4017)" style="fill: #e8f4f8; stroke: #5a8fa8; stroke-width: 1.5; stroke-linejoin: miter"/>
   </g>
   <g id="patch_3">
    <path d="M 49.05 170.617375 
L 244.35 170.617375 
Q 248.535 170.617375 248.535 165.766375 
L 248.535 114.022375 
Q 248.535 109.171375 244.35 109.171375 
L 49.05 109.171375 
Q 44.865 109.171375 44.865 114.022375 
L 44.865 165.766375 
Q 44.865 170.617375 49.05 170.617375 
z
" clip-path="url(#p758cfa4017)" style="fill: #d0e8f0; stroke: #5a8fa8; stroke-width: 1.5; stroke-linejoin: miter"/>
   </g>
   <g id="patch_4">
    <path d="M 49.05 235.297375 
L 244.35 235.297375 
Q 248.535 235.297375 248.535 230.446375 
L 248.535 178.702375 
Q 248.535 173.851375 244.35 173.851375 
L 49.05 173.851375 
Q 44.865 173.851375 44.865 178.702375 
L 44.865 230.446375 
Q 44.865 235.297375 49.05 235.297375 
z
" clip-path="url(#p758cfa4017)" style="fill: #b8dce8; stroke: #5a8fa8; stroke-width: 1.5; stroke-linejoin: miter"/>
   </g>
   <g id="patch_5">
    <path d="M 49.05 299.977375 
L 244.35 299.977375 
Q 248.535 299.977375 248.535 295.126375 
L 248.535 243.382375 
Q 248.535 238.531375 244.35 238.531375 
L 49.05 238.531375 
Q 44.865 238.531375 44.865 243.382375 
L 44.865 295.126375 
Q 44.865 299.977375 49.05 299.977375 
z
" clip-path="url(#p758cfa4017)" style="fill: #a0d0e0; stroke: #5a8fa8; stroke-width: 1.5; stroke-linejoin: miter"/>
   </g>
   <g id="patch_6">
    <path d="M 49.05 380.827375 
L 244.35 380.827375 
Q 248.535 380.827375 248.535 375.976375 
L 248.535 324.232375 
Q 248.535 319.381375 244.35 319.381375 
L 49.05 319.381375 
Q 44.865 319.381375 44.865 324.232375 
L 44.865 375.976375 
Q 44.865 380.827375 49.05 380.827375 
z
" clip-path="url(#p758cfa4017)" style="fill: #2980b9; stroke: #5a8fa8; stroke-width: 1.5; stroke-linejoin: miter"/>
   </g>
   <g id="text_1">
    <!-- Filter.Tendsto -->
    <g style="fill: #1a1a2e" transform="translate(107.815625 78.129219) scale(0.1 -0.1)">
     <defs>
      <path id="HiraginoSans-W7-46" d="M 1542 1997 
L 2854 1997 
C 3258 1997 3526 1984 3770 1952 
L 3770 2957 
C 3507 2925 3277 2912 2854 2912 
L 1542 2912 
L 1542 4128 
L 3174 4128 
C 3590 4128 3846 4115 4090 4083 
L 4090 5114 
C 3814 5082 3597 5069 3168 5069 
L 1306 5069 
C 864 5069 691 5075 435 5088 
C 474 4794 486 4595 486 4211 
L 486 813 
C 486 378 467 102 429 -134 
L 1594 -134 
C 1555 115 1542 352 1542 826 
L 1542 1997 
z
" transform="scale(0.015625)"/>
      <path id="HiraginoSans-W7-69" d="M 384 5069 
L 384 4186 
L 1498 4186 
L 1498 5069 
L 384 5069 
z
M 371 3654 
C 410 3392 422 3149 422 2758 
L 422 762 
C 422 384 410 186 371 -134 
L 1504 -134 
C 1466 134 1453 390 1453 768 
L 1453 2752 
C 1453 3174 1466 3411 1504 3654 
L 371 3654 
z
" transform="scale(0.015625)"/>
      <path id="HiraginoSans-W7-6c" d="M 371 5069 
C 410 4819 422 4589 422 4173 
L 422 762 
C 422 339 410 147 371 -134 
L 1491 -134 
C 1459 166 1446 397 1446 762 
L 1446 4173 
C 1446 4582 1459 4813 1491 5069 
L 371 5069 
z
" transform="scale(0.015625)"/>
      <path id="HiraginoSans-W7-74" d="M 813 4646 
C 851 4352 864 4141 864 3821 
L 864 3654 
L 627 3654 
C 371 3654 237 3661 51 3693 
L 51 2790 
C 250 2822 378 2829 614 2829 
L 864 2829 
L 864 768 
C 864 58 1197 -224 2022 -224 
C 2355 -224 2586 -186 2842 -96 
L 2739 742 
C 2573 646 2445 614 2272 614 
C 1971 614 1862 723 1862 1024 
L 1862 2829 
L 2144 2829 
C 2419 2829 2541 2822 2752 2790 
L 2752 3686 
C 2554 3661 2406 3654 2112 3654 
L 1862 3654 
L 1862 3821 
C 1862 4122 1882 4403 1914 4646 
L 813 4646 
z
" transform="scale(0.015625)"/>
      <path id="HiraginoSans-W7-65" d="M 4032 1485 
C 4019 1606 4019 1613 4019 1638 
C 3994 2118 3962 2323 3846 2637 
C 3571 3373 2963 3782 2125 3782 
C 973 3782 211 2976 211 1760 
C 211 1139 410 595 774 237 
C 1107 -96 1587 -269 2163 -269 
C 2746 -269 3232 -90 3571 250 
C 3744 416 3840 563 3981 870 
L 3053 1146 
C 2918 755 2611 544 2163 544 
C 1856 544 1606 653 1434 864 
C 1306 1024 1248 1184 1216 1485 
L 4032 1485 
z
M 1235 2227 
C 1357 2726 1664 2982 2138 2982 
C 2432 2982 2675 2874 2829 2675 
C 2925 2547 2970 2432 3008 2227 
L 1235 2227 
z
" transform="scale(0.015625)"/>
      <path id="HiraginoSans-W7-72" d="M 3277 3654 
C 3002 3712 2867 3725 2675 3725 
C 2106 3725 1696 3533 1427 3130 
L 1427 3654 
L 371 3654 
C 410 3386 422 3187 422 2758 
L 422 762 
C 422 384 410 186 371 -134 
L 1472 -134 
C 1440 141 1427 378 1427 762 
L 1427 1869 
C 1459 2170 1517 2317 1651 2477 
C 1830 2682 2080 2778 2419 2778 
C 2624 2778 2746 2758 3014 2669 
L 3277 3654 
z
" transform="scale(0.015625)"/>
      <path id="HiraginoSans-W7-2e" d="M 365 973 
L 365 -134 
L 1472 -134 
L 1472 973 
L 365 973 
z
" transform="scale(0.015625)"/>
      <path id="HiraginoSans-W7-54" d="M 2899 4128 
L 3667 4128 
C 4128 4128 4371 4115 4634 4083 
L 4634 5114 
C 4371 5082 4115 5069 3667 5069 
L 1005 5069 
C 634 5069 352 5082 96 5114 
L 96 4083 
C 352 4115 627 4128 1011 4128 
L 1824 4128 
L 1824 762 
C 1824 390 1811 141 1773 -134 
L 2950 -134 
C 2912 141 2899 397 2899 762 
L 2899 4128 
z
" transform="scale(0.015625)"/>
      <path id="HiraginoSans-W7-6e" d="M 1485 -134 
C 1446 179 1434 416 1434 762 
L 1434 2061 
C 1709 2541 2106 2835 2483 2835 
C 2637 2835 2765 2797 2861 2726 
C 3014 2611 3066 2464 3066 2131 
L 3066 762 
C 3066 403 3053 166 3014 -134 
L 4134 -134 
C 4096 128 4083 371 4083 762 
L 4083 2374 
C 4083 3245 3610 3731 2758 3731 
C 2214 3731 1811 3552 1414 3142 
C 1421 3264 1427 3347 1427 3398 
L 1427 3654 
L 371 3654 
C 410 3411 422 3168 422 2758 
L 422 762 
C 422 390 410 154 371 -134 
L 1485 -134 
z
" transform="scale(0.015625)"/>
      <path id="HiraginoSans-W7-64" d="M 3296 -134 
L 4339 -134 
C 4301 173 4288 390 4288 800 
L 4288 4147 
C 4288 4518 4301 4774 4339 5069 
L 3245 5069 
C 3283 4794 3296 4557 3296 4141 
L 3296 3597 
C 3296 3475 3296 3398 3302 3309 
L 3309 3219 
C 3168 3373 3091 3437 2925 3526 
C 2643 3680 2349 3750 2003 3750 
C 902 3750 211 2989 211 1766 
C 211 1114 403 576 768 211 
C 1075 -90 1485 -237 2003 -237 
C 2586 -237 2963 -83 3309 294 
C 3302 192 3296 173 3296 102 
L 3296 -134 
z
M 3277 1773 
C 3277 1402 3142 1050 2918 845 
C 2746 691 2464 589 2202 589 
C 1971 589 1722 685 1562 838 
C 1350 1037 1235 1370 1235 1760 
C 1235 2458 1613 2931 2176 2931 
C 2835 2931 3277 2470 3277 1773 
z
" transform="scale(0.015625)"/>
      <path id="HiraginoSans-W7-73" d="M 211 979 
C 275 685 339 531 461 365 
C 749 -38 1280 -243 2029 -243 
C 3117 -243 3757 224 3757 1018 
C 3757 1395 3590 1683 3270 1875 
C 3027 2022 2810 2093 2157 2234 
C 1824 2304 1690 2342 1574 2400 
C 1446 2458 1376 2547 1376 2656 
C 1376 2867 1613 2995 1997 2995 
C 2381 2995 2566 2867 2605 2566 
L 3635 2688 
C 3558 3021 3456 3206 3258 3386 
C 2982 3642 2547 3776 1984 3776 
C 992 3776 384 3328 384 2592 
C 384 2189 608 1850 986 1677 
C 1210 1574 1434 1510 2035 1389 
C 2400 1312 2528 1274 2618 1210 
C 2707 1146 2752 1062 2752 960 
C 2752 723 2490 576 2074 576 
C 1766 576 1536 653 1414 794 
C 1344 877 1312 947 1274 1107 
L 211 979 
z
" transform="scale(0.015625)"/>
      <path id="HiraginoSans-W7-6f" d="M 2208 -262 
C 3418 -262 4211 544 4211 1773 
C 4211 3002 3437 3782 2214 3782 
C 992 3782 211 2995 211 1760 
C 211 525 986 -262 2208 -262 
z
M 2221 2976 
C 2835 2976 3194 2522 3194 1754 
C 3194 1005 2829 557 2214 557 
C 1600 557 1229 1018 1229 1773 
C 1229 2522 1606 2976 2221 2976 
z
" transform="scale(0.015625)"/>
     </defs>
     <use xlink:href="#HiraginoSans-W7-46"/>
     <use xlink:href="#HiraginoSans-W7-69" transform="translate(66.499985 0)"/>
     <use xlink:href="#HiraginoSans-W7-6c" transform="translate(95.699982 0)"/>
     <use xlink:href="#HiraginoSans-W7-74" transform="translate(124.799973 0)"/>
     <use xlink:href="#HiraginoSans-W7-65" transform="translate(170.299957 0)"/>
     <use xlink:href="#HiraginoSans-W7-72" transform="translate(236.399948 0)"/>
     <use xlink:href="#HiraginoSans-W7-2e" transform="translate(288.499939 0)"/>
     <use xlink:href="#HiraginoSans-W7-54" transform="translate(317.199936 0)"/>
     <use xlink:href="#HiraginoSans-W7-65" transform="translate(391.09993 0)"/>
     <use xlink:href="#HiraginoSans-W7-6e" transform="translate(457.199921 0)"/>
     <use xlink:href="#HiraginoSans-W7-64" transform="translate(527.399902 0)"/>
     <use xlink:href="#HiraginoSans-W7-73" transform="translate(600.899887 0)"/>
     <use xlink:href="#HiraginoSans-W7-74" transform="translate(663.099884 0)"/>
     <use xlink:href="#HiraginoSans-W7-6f" transform="translate(708.599869 0)"/>
    </g>
   </g>
   <g id="text_2">
    <!-- MetricSpace -->
    <g style="fill: #1a1a2e" transform="translate(111.546094 142.90375) scale(0.1 -0.1)">
     <defs>
      <path id="HiraginoSans-W7-4d" d="M 3686 -134 
C 3718 70 3834 429 3962 762 
L 4768 2778 
C 4806 2874 4915 3219 4947 3328 
C 5018 3610 5018 3610 5050 3731 
C 5011 3123 4998 2867 4998 2714 
L 4998 832 
C 4998 384 4986 154 4947 -134 
L 6016 -134 
C 5978 109 5965 352 5965 832 
L 5965 4096 
C 5965 4525 5978 4762 6016 5069 
L 4595 5069 
C 4557 4826 4486 4570 4358 4243 
L 3226 1261 
L 2086 4243 
C 1965 4563 1888 4832 1850 5069 
L 429 5069 
C 467 4800 480 4499 480 4096 
L 480 832 
C 480 397 467 134 429 -134 
L 1498 -134 
C 1459 122 1446 384 1446 832 
L 1446 2694 
C 1446 2854 1434 3110 1395 3731 
C 1530 3251 1619 2957 1696 2758 
L 2477 768 
C 2630 384 2720 83 2752 -134 
L 3686 -134 
z
" transform="scale(0.015625)"/>
      <path id="HiraginoSans-W7-63" d="M 3917 2541 
C 3840 2765 3789 2886 3693 3034 
C 3373 3526 2835 3789 2150 3789 
C 1587 3789 1114 3610 774 3270 
C 416 2912 211 2368 211 1760 
C 211 1152 410 602 762 243 
C 1088 -90 1581 -269 2150 -269 
C 2835 -269 3360 -32 3686 429 
C 3808 602 3878 755 3962 1011 
L 2989 1184 
C 2950 1030 2925 954 2861 870 
C 2720 659 2477 544 2189 544 
C 1606 544 1242 1018 1242 1773 
C 1242 2528 1587 2982 2170 2982 
C 2426 2982 2630 2893 2778 2707 
C 2854 2611 2893 2528 2950 2330 
L 3917 2541 
z
" transform="scale(0.015625)"/>
      <path id="HiraginoSans-W7-53" d="M 269 1414 
C 339 915 429 672 640 410 
C 979 -19 1600 -250 2426 -250 
C 3706 -250 4435 346 4435 1389 
C 4435 1696 4371 1952 4243 2163 
C 4096 2406 3859 2605 3597 2720 
C 3341 2835 3034 2918 2336 3066 
C 2003 3142 1875 3187 1734 3277 
C 1594 3379 1517 3520 1517 3693 
C 1517 4058 1850 4301 2349 4301 
C 2656 4301 2912 4205 3059 4032 
C 3149 3917 3194 3821 3226 3622 
L 4352 3744 
C 4269 4122 4186 4307 4026 4525 
C 3693 4960 3117 5190 2355 5190 
C 1171 5190 422 4595 422 3654 
C 422 3181 614 2790 973 2522 
C 1216 2349 1427 2266 1971 2138 
C 2669 1978 2867 1914 3066 1786 
C 3232 1683 3315 1523 3315 1325 
C 3315 915 2963 659 2406 659 
C 2029 659 1728 781 1555 1005 
C 1446 1139 1408 1261 1382 1523 
L 269 1414 
z
" transform="scale(0.015625)"/>
      <path id="HiraginoSans-W7-70" d="M 1466 -1338 
C 1434 -1062 1421 -832 1421 -410 
L 1421 6 
C 1421 102 1414 134 1408 179 
C 1408 275 1408 275 1402 346 
C 1562 179 1664 102 1830 19 
C 2080 -96 2400 -166 2714 -166 
C 3226 -166 3667 0 3981 314 
C 4333 659 4512 1171 4512 1818 
C 4512 2458 4339 2950 4000 3283 
C 3686 3597 3258 3757 2720 3757 
C 2176 3757 1779 3603 1402 3245 
C 1408 3309 1414 3379 1414 3437 
L 1414 3654 
L 371 3654 
C 410 3360 422 3123 422 2726 
L 422 -416 
C 422 -787 403 -1050 371 -1338 
L 1466 -1338 
z
M 2502 646 
C 1882 646 1440 1126 1440 1798 
C 1440 2451 1888 2938 2502 2938 
C 3110 2938 3482 2515 3482 1818 
C 3482 1088 3110 646 2502 646 
z
" transform="scale(0.015625)"/>
      <path id="HiraginoSans-W7-61" d="M 2842 -134 
L 3878 -134 
C 3846 154 3834 346 3834 717 
L 3834 2451 
C 3834 2912 3750 3162 3533 3366 
C 3251 3635 2822 3763 2195 3763 
C 1594 3763 1133 3642 813 3392 
C 589 3219 467 3046 333 2675 
L 1344 2509 
C 1414 2688 1472 2778 1587 2861 
C 1709 2950 1939 3008 2189 3008 
C 2624 3008 2842 2854 2842 2541 
L 2842 2285 
C 2029 2259 1837 2240 1466 2163 
C 672 1984 237 1549 237 928 
C 237 589 365 294 602 96 
C 832 -109 1158 -205 1613 -205 
C 2131 -205 2458 -96 2842 198 
L 2842 -134 
z
M 2842 1357 
C 2842 1133 2765 973 2579 813 
C 2381 646 2067 538 1792 538 
C 1446 538 1254 685 1254 954 
C 1254 1197 1408 1370 1702 1459 
C 1990 1549 2259 1581 2842 1600 
L 2842 1357 
z
" transform="scale(0.015625)"/>
     </defs>
     <use xlink:href="#HiraginoSans-W7-4d"/>
     <use xlink:href="#HiraginoSans-W7-65" transform="translate(100.599991 0)"/>
     <use xlink:href="#HiraginoSans-W7-74" transform="translate(166.699982 0)"/>
     <use xlink:href="#HiraginoSans-W7-72" transform="translate(212.199966 0)"/>
     <use xlink:href="#HiraginoSans-W7-69" transform="translate(264.299957 0)"/>
     <use xlink:href="#HiraginoSans-W7-63" transform="translate(293.499954 0)"/>
     <use xlink:href="#HiraginoSans-W7-53" transform="translate(358.299942 0)"/>
     <use xlink:href="#HiraginoSans-W7-70" transform="translate(432.09993 0)"/>
     <use xlink:href="#HiraginoSans-W7-61" transform="translate(505.799911 0)"/>
     <use xlink:href="#HiraginoSans-W7-63" transform="translate(572.199905 0)"/>
     <use xlink:href="#HiraginoSans-W7-65" transform="translate(636.999893 0)"/>
    </g>
   </g>
   <g id="text_3">
    <!-- TopologicalSpace -->
    <g style="fill: #1a1a2e" transform="translate(97.221094 207.579062) scale(0.1 -0.1)">
     <defs>
      <path id="HiraginoSans-W7-67" d="M 294 -659 
C 736 -1152 1229 -1344 2035 -1344 
C 2701 -1344 3258 -1197 3590 -928 
C 3974 -614 4147 -134 4147 640 
L 4147 2810 
C 4147 3174 4160 3366 4198 3654 
L 3155 3654 
L 3155 3443 
C 3155 3373 3155 3328 3162 3277 
C 2867 3590 2496 3731 1965 3731 
C 1549 3731 1203 3622 902 3405 
C 442 3066 205 2547 205 1882 
C 205 768 877 58 1926 58 
C 2464 58 2854 218 3162 563 
C 3136 128 3091 -58 2963 -243 
C 2803 -467 2470 -595 2048 -595 
C 1626 -595 1299 -442 1069 -141 
L 294 -659 
z
M 1229 1882 
C 1229 2534 1587 2963 2138 2963 
C 2707 2963 3123 2515 3123 1901 
C 3123 1498 2957 1171 2656 992 
C 2496 890 2285 832 2106 832 
C 1888 832 1651 928 1504 1075 
C 1318 1261 1229 1530 1229 1882 
z
" transform="scale(0.015625)"/>
     </defs>
     <use xlink:href="#HiraginoSans-W7-54"/>
     <use xlink:href="#HiraginoSans-W7-6f" transform="translate(73.899994 0)"/>
     <use xlink:href="#HiraginoSans-W7-70" transform="translate(142.999985 0)"/>
     <use xlink:href="#HiraginoSans-W7-6f" transform="translate(216.699966 0)"/>
     <use xlink:href="#HiraginoSans-W7-6c" transform="translate(285.799957 0)"/>
     <use xlink:href="#HiraginoSans-W7-6f" transform="translate(314.899948 0)"/>
     <use xlink:href="#HiraginoSans-W7-67" transform="translate(383.999939 0)"/>
     <use xlink:href="#HiraginoSans-W7-69" transform="translate(455.299927 0)"/>
     <use xlink:href="#HiraginoSans-W7-63" transform="translate(484.499924 0)"/>
     <use xlink:href="#HiraginoSans-W7-61" transform="translate(549.299911 0)"/>
     <use xlink:href="#HiraginoSans-W7-6c" transform="translate(615.699905 0)"/>
     <use xlink:href="#HiraginoSans-W7-53" transform="translate(644.799896 0)"/>
     <use xlink:href="#HiraginoSans-W7-70" transform="translate(718.599884 0)"/>
     <use xlink:href="#HiraginoSans-W7-61" transform="translate(792.299866 0)"/>
     <use xlink:href="#HiraginoSans-W7-63" transform="translate(858.69986 0)"/>
     <use xlink:href="#HiraginoSans-W7-65" transform="translate(923.499847 0)"/>
    </g>
   </g>
   <g id="text_4">
    <!-- CompleteSpace -->
    <g style="fill: #1a1a2e" transform="translate(102.641406 272.26375) scale(0.1 -0.1)">
     <defs>
      <path id="HiraginoSans-W7-43" d="M 4928 3578 
C 4838 3923 4742 4128 4557 4371 
C 4154 4902 3533 5178 2733 5178 
C 2042 5178 1472 4973 1056 4576 
C 538 4077 262 3347 262 2477 
C 262 1632 518 896 986 416 
C 1402 -13 2022 -243 2752 -243 
C 3514 -243 4134 0 4512 454 
C 4742 730 4864 998 4992 1510 
L 3878 1690 
C 3834 1408 3782 1274 3680 1120 
C 3482 838 3149 685 2746 685 
C 1888 685 1370 1363 1370 2483 
C 1370 3098 1530 3590 1824 3898 
C 2048 4134 2362 4256 2726 4256 
C 3123 4256 3430 4115 3622 3834 
C 3718 3699 3770 3578 3834 3347 
L 4928 3578 
z
" transform="scale(0.015625)"/>
      <path id="HiraginoSans-W7-6d" d="M 1472 -134 
C 1440 166 1427 390 1427 762 
L 1427 2061 
C 1536 2323 1606 2438 1728 2566 
C 1901 2746 2118 2848 2330 2848 
C 2490 2848 2637 2784 2720 2669 
C 2810 2554 2848 2406 2848 2144 
L 2848 762 
C 2848 371 2835 141 2797 -134 
L 3910 -134 
C 3878 160 3866 390 3866 762 
L 3866 2061 
C 3962 2336 4032 2451 4166 2592 
C 4326 2765 4531 2854 4762 2854 
C 4947 2854 5101 2784 5184 2662 
C 5261 2547 5293 2413 5293 2144 
L 5293 762 
C 5293 358 5280 154 5242 -134 
L 6355 -134 
C 6323 147 6310 384 6310 762 
L 6310 2342 
C 6310 2784 6227 3078 6035 3315 
C 5811 3597 5446 3744 4986 3744 
C 4442 3744 4064 3571 3706 3162 
C 3616 3315 3558 3386 3469 3462 
C 3264 3648 2982 3744 2624 3744 
C 2106 3744 1754 3590 1414 3206 
C 1421 3232 1421 3232 1421 3296 
C 1421 3302 1421 3302 1427 3411 
L 1427 3654 
L 371 3654 
C 410 3418 422 3200 422 2758 
L 422 762 
C 422 390 410 147 371 -134 
L 1472 -134 
z
" transform="scale(0.015625)"/>
     </defs>
     <use xlink:href="#HiraginoSans-W7-43"/>
     <use xlink:href="#HiraginoSans-W7-6f" transform="translate(81.699982 0)"/>
     <use xlink:href="#HiraginoSans-W7-6d" transform="translate(150.799973 0)"/>
     <use xlink:href="#HiraginoSans-W7-70" transform="translate(255.899963 0)"/>
     <use xlink:href="#HiraginoSans-W7-6c" transform="translate(329.599945 0)"/>
     <use xlink:href="#HiraginoSans-W7-65" transform="translate(358.699936 0)"/>
     <use xlink:href="#HiraginoSans-W7-74" transform="translate(424.799927 0)"/>
     <use xlink:href="#HiraginoSans-W7-65" transform="translate(470.299911 0)"/>
     <use xlink:href="#HiraginoSans-W7-53" transform="translate(536.399902 0)"/>
     <use xlink:href="#HiraginoSans-W7-70" transform="translate(610.19989 0)"/>
     <use xlink:href="#HiraginoSans-W7-61" transform="translate(683.899872 0)"/>
     <use xlink:href="#HiraginoSans-W7-63" transform="translate(750.299866 0)"/>
     <use xlink:href="#HiraginoSans-W7-65" transform="translate(815.099854 0)"/>
    </g>
   </g>
   <g id="text_5">
    <!-- ContractingWith -->
    <g style="fill: #ffffff" transform="translate(105.340078 347.405219) scale(0.09 -0.09)">
     <defs>
      <path id="HiraginoSans-W7-57" d="M 5440 -134 
C 5459 -6 5517 230 5600 544 
L 6624 4294 
C 6714 4634 6797 4883 6867 5069 
L 5638 5069 
C 5632 4883 5594 4621 5536 4378 
L 5030 2182 
C 4986 2003 4960 1869 4883 1376 
C 4813 1747 4755 2016 4710 2176 
L 4083 4429 
C 4013 4691 3962 4902 3936 5069 
L 2982 5069 
C 2963 4896 2918 4678 2842 4410 
L 2214 2150 
C 2182 2022 2157 1920 2048 1376 
C 2016 1581 1939 1971 1901 2144 
L 1395 4371 
C 1331 4653 1306 4826 1293 5069 
L 58 5069 
C 134 4890 205 4659 307 4294 
L 1331 544 
C 1453 83 1466 38 1498 -134 
L 2547 -134 
C 2566 32 2611 237 2694 525 
L 3277 2675 
C 3354 2957 3418 3251 3462 3539 
C 3520 3226 3584 2899 3648 2675 
L 4237 531 
C 4301 314 4358 38 4384 -134 
L 5440 -134 
z
" transform="scale(0.015625)"/>
      <path id="HiraginoSans-W7-68" d="M 1485 -134 
C 1446 179 1434 416 1434 762 
L 1434 2061 
C 1734 2573 2099 2835 2490 2835 
C 2650 2835 2771 2803 2861 2733 
C 3014 2624 3066 2464 3066 2131 
L 3066 762 
C 3066 403 3053 166 3014 -134 
L 4134 -134 
C 4096 128 4083 371 4083 762 
L 4083 2374 
C 4083 3245 3610 3731 2758 3731 
C 2208 3731 1811 3552 1414 3142 
C 1421 3264 1427 3341 1427 3398 
L 1427 4173 
C 1427 4602 1440 4806 1478 5069 
L 371 5069 
C 410 4826 422 4582 422 4173 
L 422 762 
C 422 390 410 154 371 -134 
L 1485 -134 
z
" transform="scale(0.015625)"/>
     </defs>
     <use xlink:href="#HiraginoSans-W7-43"/>
     <use xlink:href="#HiraginoSans-W7-6f" transform="translate(81.699982 0)"/>
     <use xlink:href="#HiraginoSans-W7-6e" transform="translate(150.799973 0)"/>
     <use xlink:href="#HiraginoSans-W7-74" transform="translate(220.999954 0)"/>
     <use xlink:href="#HiraginoSans-W7-72" transform="translate(266.499939 0)"/>
     <use xlink:href="#HiraginoSans-W7-61" transform="translate(318.59993 0)"/>
     <use xlink:href="#HiraginoSans-W7-63" transform="translate(384.999924 0)"/>
     <use xlink:href="#HiraginoSans-W7-74" transform="translate(449.799911 0)"/>
     <use xlink:href="#HiraginoSans-W7-69" transform="translate(495.299896 0)"/>
     <use xlink:href="#HiraginoSans-W7-6e" transform="translate(524.499893 0)"/>
     <use xlink:href="#HiraginoSans-W7-67" transform="translate(594.699875 0)"/>
     <use xlink:href="#HiraginoSans-W7-57" transform="translate(665.999863 0)"/>
     <use xlink:href="#HiraginoSans-W7-69" transform="translate(774.199844 0)"/>
     <use xlink:href="#HiraginoSans-W7-74" transform="translate(803.399841 0)"/>
     <use xlink:href="#HiraginoSans-W7-68" transform="translate(848.899826 0)"/>
    </g>
    <!-- (Banach不動点定理) -->
    <g style="fill: #ffffff" transform="translate(101.681016 358.203531) scale(0.09 -0.09)">
     <defs>
      <path id="HiraginoSans-W7-28" d="M 2560 -640 
C 2176 -90 2016 205 1869 640 
C 1734 1043 1670 1491 1670 1978 
C 1670 2483 1741 2944 1882 3373 
C 2029 3814 2189 4102 2573 4646 
L 1798 5165 
C 1325 4512 1126 4147 947 3603 
C 781 3110 691 2560 691 2016 
C 691 1331 832 653 1101 13 
C 1280 -397 1427 -659 1798 -1171 
L 2560 -640 
z
" transform="scale(0.015625)"/>
      <path id="HiraginoSans-W7-42" d="M 2963 -134 
C 4058 -134 4666 378 4666 1299 
C 4666 1728 4531 2054 4262 2298 
C 4096 2445 3936 2522 3642 2598 
C 3878 2688 3994 2746 4122 2867 
C 4365 3085 4486 3379 4486 3782 
C 4486 4608 3910 5069 2893 5069 
L 1299 5069 
C 819 5069 749 5069 429 5088 
C 467 4800 480 4544 480 4224 
L 480 749 
C 480 314 467 128 429 -154 
C 698 -141 883 -134 1306 -134 
L 2963 -134 
z
M 1530 3002 
L 1530 4186 
L 2746 4186 
C 3187 4186 3424 3981 3424 3603 
C 3424 3232 3174 3002 2752 3002 
L 1530 3002 
z
M 1530 2138 
L 2790 2138 
C 3290 2138 3571 1894 3571 1453 
C 3571 1011 3290 755 2803 755 
L 1530 755 
L 1530 2138 
z
" transform="scale(0.015625)"/>
      <path id="HiraginoSans-W7-4e0d" d="M 3040 4307 
C 2784 3859 2566 3578 2195 3194 
C 1594 2573 986 2125 154 1702 
C 390 1427 544 1190 659 922 
C 1165 1222 1491 1453 1811 1702 
C 2208 2022 2509 2317 2726 2592 
C 2720 2298 2720 2240 2720 2061 
L 2720 314 
C 2720 0 2707 -294 2675 -550 
L 3635 -550 
C 3603 -294 3590 -19 3590 307 
L 3590 2726 
C 4198 2003 4858 1466 5786 915 
C 5946 1248 6086 1478 6291 1741 
C 5818 1952 5446 2189 4979 2560 
C 4614 2854 4365 3098 4058 3450 
L 3590 2912 
L 3590 3578 
C 3853 3942 3910 4038 4051 4307 
L 5216 4307 
C 5504 4307 5850 4294 6118 4269 
L 6118 5152 
C 5907 5120 5594 5107 5197 5107 
L 1210 5107 
C 864 5107 563 5120 282 5152 
L 282 4269 
C 570 4294 947 4307 1235 4307 
L 3040 4307 
z
" transform="scale(0.015625)"/>
      <path id="HiraginoSans-W7-52d5" d="M 1632 4365 
L 890 4365 
C 614 4365 467 4371 282 4397 
L 282 3731 
C 474 3750 614 3757 890 3757 
L 1632 3757 
L 1632 3520 
L 1101 3520 
C 819 3520 646 3526 461 3539 
C 480 3354 486 3251 486 2950 
L 486 2112 
C 486 1811 480 1677 461 1510 
C 646 1517 787 1523 1101 1523 
L 1632 1523 
L 1632 1280 
L 1005 1280 
C 710 1280 576 1286 390 1306 
L 390 653 
C 570 672 787 678 998 678 
L 1632 678 
L 1632 371 
C 1254 358 781 346 634 346 
C 442 346 358 346 230 358 
L 358 -422 
C 531 -403 646 -390 755 -384 
C 1882 -307 1914 -307 3430 -160 
C 3616 -339 3674 -410 3802 -589 
C 4064 -230 4160 -70 4314 256 
C 4397 19 4429 -154 4442 -448 
C 4538 -454 4742 -454 4973 -454 
C 5466 -454 5702 -326 5805 6 
C 5958 467 6029 1306 6054 2944 
C 6074 3898 6074 3917 6099 4173 
C 5920 4154 5773 4147 5485 4147 
L 4947 4147 
C 4947 4525 4954 4794 4954 4832 
C 4954 5120 4966 5242 4992 5382 
L 4122 5382 
C 4154 5203 4160 5120 4160 4544 
C 4160 4346 4160 4282 4160 4147 
L 4083 4147 
C 3885 4147 3789 4154 3680 4173 
L 3680 3354 
C 3827 3373 3917 3379 4141 3379 
C 4070 1926 3910 1197 3488 480 
C 2707 416 2707 416 2355 397 
L 2355 678 
L 3091 678 
C 3296 678 3392 672 3501 646 
L 3501 1299 
C 3334 1286 3213 1280 2886 1280 
L 2355 1280 
L 2355 1523 
L 2938 1523 
C 3251 1523 3392 1523 3507 1510 
C 3501 1658 3501 1658 3494 2086 
L 3494 2976 
C 3494 3296 3494 3405 3514 3533 
C 3366 3520 3290 3520 2989 3520 
L 2355 3520 
L 2355 3757 
L 3117 3757 
C 3392 3757 3456 3750 3552 3738 
L 3552 4390 
C 3392 4371 3258 4365 2950 4365 
L 2355 4365 
L 2355 4666 
C 3040 4749 3040 4749 3219 4774 
C 3277 4787 3309 4794 3322 4794 
C 3456 4813 3456 4813 3494 4819 
C 3539 4826 3546 4826 3584 4826 
L 3155 5446 
C 2752 5267 1638 5146 314 5139 
C 442 4909 499 4774 570 4557 
C 1018 4570 1184 4576 1632 4608 
L 1632 4365 
z
M 1632 3008 
L 1632 2765 
L 1184 2765 
L 1184 3008 
L 1632 3008 
z
M 2355 3008 
L 2810 3008 
L 2810 2765 
L 2355 2765 
L 2355 3008 
z
M 1632 2278 
L 1632 2035 
L 1184 2035 
L 1184 2278 
L 1632 2278 
z
M 2355 2278 
L 2810 2278 
L 2810 2035 
L 2355 2035 
L 2355 2278 
z
M 5306 3379 
C 5267 1696 5254 1440 5184 941 
C 5120 403 5062 320 4800 320 
C 4704 320 4550 333 4365 358 
C 4717 1171 4870 1971 4922 3379 
L 5306 3379 
z
" transform="scale(0.015625)"/>
      <path id="HiraginoSans-W7-70b9" d="M 3520 4064 
L 5197 4064 
C 5478 4064 5683 4051 5907 4026 
L 5907 4845 
C 5709 4819 5504 4806 5197 4806 
L 3520 4806 
L 3520 4858 
C 3520 5107 3533 5248 3558 5402 
L 2618 5402 
C 2643 5222 2656 5030 2656 4781 
L 2656 3533 
L 1670 3533 
C 1344 3533 1133 3539 941 3558 
C 960 3373 966 3238 966 3008 
L 966 1722 
C 966 1523 960 1389 947 1229 
C 1120 1242 1293 1248 1530 1248 
L 4845 1248 
C 5082 1248 5254 1242 5440 1229 
C 5427 1363 5421 1510 5421 1734 
L 5421 3008 
C 5421 3238 5427 3398 5446 3558 
C 5280 3539 5069 3533 4717 3533 
L 3520 3533 
L 3520 4064 
z
M 4595 2790 
L 4595 1997 
L 1798 1997 
L 1798 2790 
L 4595 2790 
z
M 947 -563 
C 1318 -32 1434 211 1658 941 
L 909 1190 
C 742 627 563 288 192 -154 
L 947 -563 
z
M 2912 -461 
C 2893 122 2880 275 2758 998 
L 2016 922 
C 2067 493 2093 160 2093 -218 
C 2093 -352 2093 -378 2086 -557 
L 2912 -461 
z
M 4474 -333 
C 4326 198 4224 525 4000 1075 
L 3290 915 
C 3469 403 3571 -6 3674 -570 
L 4474 -333 
z
M 6112 -186 
C 5779 499 5670 691 5344 1203 
L 4627 928 
C 4947 390 5062 147 5306 -544 
L 6112 -186 
z
" transform="scale(0.015625)"/>
      <path id="HiraginoSans-W7-5b9a" d="M 2893 608 
C 2490 787 2266 986 2016 1402 
C 2112 1715 2195 2010 2272 2330 
L 1434 2483 
C 1395 2086 1210 1498 998 1101 
C 781 698 563 403 218 70 
C 512 -141 666 -294 870 -563 
C 1235 -173 1453 147 1696 627 
C 1971 256 2291 13 2714 -160 
C 3149 -333 3795 -416 4698 -416 
C 5043 -416 5427 -410 5978 -397 
C 6016 -51 6061 134 6176 461 
C 5472 403 5062 384 4640 384 
C 4256 384 3987 397 3693 429 
L 3693 1376 
L 4870 1376 
C 5171 1376 5325 1370 5517 1344 
L 5517 2144 
C 5338 2118 5190 2112 4870 2112 
L 3693 2112 
L 3693 2816 
L 4646 2816 
C 4954 2816 5126 2810 5312 2784 
L 5312 3264 
L 6029 3264 
C 6003 3443 5997 3603 5997 3795 
L 5997 4346 
C 5997 4531 6003 4666 6022 4832 
C 5773 4813 5542 4806 5286 4806 
L 3603 4806 
L 3603 4998 
C 3603 5165 3610 5261 3635 5402 
L 2714 5402 
C 2739 5261 2746 5158 2746 4992 
L 2746 4806 
L 1126 4806 
C 870 4806 640 4813 390 4832 
C 410 4672 416 4512 416 4346 
L 416 3802 
C 416 3565 410 3424 384 3264 
L 1114 3264 
L 1114 2784 
C 1293 2810 1485 2816 1779 2816 
L 2893 2816 
L 2893 608 
z
M 5203 3571 
C 5043 3558 4883 3552 4646 3552 
L 1779 3552 
C 1536 3552 1376 3558 1222 3571 
L 1222 4051 
L 5203 4051 
L 5203 3571 
z
" transform="scale(0.015625)"/>
      <path id="HiraginoSans-W7-7406" d="M 3789 371 
L 2726 371 
C 2381 371 2240 378 2054 403 
L 2054 -403 
C 2291 -371 2470 -365 2835 -365 
L 5440 -365 
C 5805 -365 5990 -371 6202 -403 
L 6202 403 
C 6029 378 5856 371 5504 371 
L 4550 371 
L 4550 864 
L 5306 864 
C 5645 864 5805 858 5997 832 
L 5997 1619 
C 5818 1594 5670 1587 5299 1587 
L 4550 1587 
L 4550 2042 
L 5286 2042 
C 5664 2042 5760 2042 5952 2022 
C 5926 2221 5920 2438 5920 2899 
L 5920 4307 
C 5920 4710 5933 5030 5952 5216 
C 5792 5190 5600 5184 5120 5184 
L 3322 5184 
C 2899 5184 2707 5190 2432 5216 
C 2464 4998 2470 4794 2470 4333 
L 2470 2842 
C 2470 2432 2464 2170 2438 2022 
C 2618 2035 2778 2042 3200 2042 
L 3789 2042 
L 3789 1587 
L 3123 1587 
C 2720 1587 2592 1594 2438 1613 
L 2438 838 
C 2605 858 2739 864 3130 864 
L 3789 864 
L 3789 371 
z
M 3789 4448 
L 3789 3930 
L 3232 3930 
L 3232 4448 
L 3789 4448 
z
M 4550 4448 
L 5126 4448 
L 5126 3930 
L 4550 3930 
L 4550 4448 
z
M 3789 3283 
L 3789 2752 
L 3232 2752 
L 3232 3283 
L 3789 3283 
z
M 4550 3283 
L 5126 3283 
L 5126 2752 
L 4550 2752 
L 4550 3283 
z
M 915 4371 
L 915 3245 
L 787 3245 
C 582 3245 480 3251 326 3270 
L 326 2496 
C 467 2515 582 2522 768 2522 
L 915 2522 
L 915 1126 
C 467 966 397 947 179 902 
L 378 38 
C 435 70 467 83 512 102 
C 1389 461 1773 627 2298 890 
L 2285 1696 
C 2016 1562 1926 1523 1709 1434 
L 1709 2522 
L 1805 2522 
C 1952 2522 2080 2515 2208 2502 
L 2208 3270 
C 2067 3251 1971 3245 1805 3245 
L 1709 3245 
L 1709 4371 
L 1850 4371 
C 2022 4371 2157 4365 2310 4346 
L 2310 5146 
C 2150 5126 1978 5114 1722 5114 
L 845 5114 
C 589 5114 403 5126 250 5146 
L 250 4346 
C 410 4365 531 4371 710 4371 
L 915 4371 
z
" transform="scale(0.015625)"/>
      <path id="HiraginoSans-W7-29" d="M 147 4646 
C 531 4102 691 3814 838 3373 
C 979 2944 1050 2490 1050 1978 
C 1050 1485 986 1043 851 640 
C 704 205 544 -90 154 -640 
L 922 -1171 
C 1286 -659 1440 -397 1619 13 
C 1894 653 2029 1325 2029 2022 
C 2029 2566 1939 3110 1773 3603 
C 1594 4147 1395 4512 922 5165 
L 147 4646 
z
" transform="scale(0.015625)"/>
     </defs>
     <use xlink:href="#HiraginoSans-W7-28"/>
     <use xlink:href="#HiraginoSans-W7-42" transform="translate(42.499985 0)"/>
     <use xlink:href="#HiraginoSans-W7-61" transform="translate(119.899979 0)"/>
     <use xlink:href="#HiraginoSans-W7-6e" transform="translate(186.299973 0)"/>
     <use xlink:href="#HiraginoSans-W7-61" transform="translate(256.499954 0)"/>
     <use xlink:href="#HiraginoSans-W7-63" transform="translate(322.899948 0)"/>
     <use xlink:href="#HiraginoSans-W7-68" transform="translate(387.699936 0)"/>
     <use xlink:href="#HiraginoSans-W7-4e0d" transform="translate(457.899918 0)"/>
     <use xlink:href="#HiraginoSans-W7-52d5" transform="translate(557.899902 0)"/>
     <use xlink:href="#HiraginoSans-W7-70b9" transform="translate(657.899887 0)"/>
     <use xlink:href="#HiraginoSans-W7-5b9a" transform="translate(757.899872 0)"/>
     <use xlink:href="#HiraginoSans-W7-7406" transform="translate(857.899857 0)"/>
     <use xlink:href="#HiraginoSans-W7-29" transform="translate(957.899841 0)"/>
    </g>
   </g>
   <g id="patch_7">
    <path d="M 146.7 103.085518 
Q 146.7 107.553982 146.7 109.786379 
" style="fill: none; stroke: #5a8fa8; stroke-width: 2; stroke-linecap: round"/>
    <path d="M 148.7 105.786379 
L 146.7 109.786379 
L 144.7 105.786379 
" style="fill: none; stroke: #5a8fa8; stroke-width: 2; stroke-linecap: round"/>
   </g>
   <g id="patch_8">
    <path d="M 146.7 167.765518 
Q 146.7 172.233982 146.7 174.466379 
" style="fill: none; stroke: #5a8fa8; stroke-width: 2; stroke-linecap: round"/>
    <path d="M 148.7 170.466379 
L 146.7 174.466379 
L 144.7 170.466379 
" style="fill: none; stroke: #5a8fa8; stroke-width: 2; stroke-linecap: round"/>
   </g>
   <g id="patch_9">
    <path d="M 146.7 232.445518 
Q 146.7 236.913982 146.7 239.146379 
" style="fill: none; stroke: #5a8fa8; stroke-width: 2; stroke-linecap: round"/>
    <path d="M 148.7 235.146379 
L 146.7 239.146379 
L 144.7 235.146379 
" style="fill: none; stroke: #5a8fa8; stroke-width: 2; stroke-linecap: round"/>
   </g>
   <g id="patch_10">
    <path d="M 146.7 297.126702 
Q 146.7 309.678627 146.7 319.994484 
" style="fill: none; stroke: #5a8fa8; stroke-width: 2; stroke-linecap: round"/>
    <path d="M 148.7 315.994484 
L 146.7 319.994484 
L 144.7 315.994484 
" style="fill: none; stroke: #5a8fa8; stroke-width: 2; stroke-linecap: round"/>
   </g>
   <g id="text_6">
    <!-- 第2巻：Banach不動点定理への道 -->
    <g style="fill: #1a1a2e" transform="translate(51.329062 16.704375) scale(0.12 -0.12)">
     <defs>
      <path id="HiraginoSans-W7-7b2c" d="M 2822 147 
C 2829 109 2829 64 2829 -13 
C 2829 -269 2822 -397 2790 -576 
L 3674 -576 
C 3642 -371 3629 -198 3629 141 
L 3610 1158 
L 5101 1158 
C 5062 608 5037 570 4723 570 
C 4576 570 4288 589 4058 621 
C 4154 352 4198 179 4243 -128 
C 4461 -134 4557 -141 4698 -141 
C 5658 -141 5792 -6 5882 1075 
C 5907 1357 5939 1715 5958 1850 
C 5805 1837 5638 1830 5402 1830 
L 3603 1830 
L 3597 2150 
L 5062 2150 
C 5325 2150 5510 2144 5664 2131 
C 5645 2272 5638 2381 5638 2611 
L 5638 3366 
C 5638 3610 5645 3706 5664 3840 
C 5491 3827 5402 3821 5062 3821 
L 4698 3821 
L 5267 3974 
C 5203 4083 5152 4166 5050 4320 
L 5459 4320 
C 5754 4320 5939 4314 6131 4288 
L 6131 5056 
C 5920 5024 5779 5018 5421 5018 
L 4314 5018 
C 4365 5126 4365 5126 4454 5331 
L 3635 5459 
C 3539 5107 3392 4832 3155 4563 
L 3155 5056 
C 3002 5030 2842 5024 2534 5024 
L 1792 5024 
C 1856 5146 1875 5184 1952 5331 
L 1133 5459 
C 998 5011 685 4608 160 4224 
C 352 4032 486 3853 634 3597 
C 717 3667 742 3686 806 3744 
L 806 3123 
C 986 3142 1133 3149 1382 3149 
L 2778 3149 
L 2784 2822 
L 1466 2822 
C 1165 2822 973 2829 864 2842 
C 858 2714 813 2426 755 2112 
C 691 1754 614 1478 422 928 
L 1299 915 
C 1331 1024 1350 1101 1370 1158 
L 2234 1158 
C 1709 730 979 390 198 211 
C 422 -51 544 -230 691 -512 
C 1542 -237 2278 198 2816 749 
L 2822 147 
z
M 2797 1830 
L 1530 1830 
C 1568 2016 1594 2125 1600 2150 
L 2790 2150 
L 2797 1830 
z
M 3584 3149 
L 4838 3149 
L 4838 2822 
L 3590 2822 
L 3584 3149 
z
M 3494 3821 
C 3674 3987 3782 4122 3930 4320 
L 4224 4320 
C 4358 4109 4442 3949 4493 3821 
L 3494 3821 
z
M 1382 3821 
C 1152 3821 1069 3821 909 3834 
C 1075 3994 1197 4128 1344 4326 
L 1626 4326 
C 1734 4141 1792 4013 1862 3821 
L 1382 3821 
z
M 2080 3821 
L 2624 3974 
C 2477 4218 2470 4237 2413 4326 
L 2739 4326 
C 2784 4326 2822 4326 2906 4320 
C 2854 4282 2835 4269 2784 4224 
C 2976 4077 3085 3974 3213 3821 
L 2080 3821 
z
" transform="scale(0.015625)"/>
      <path id="HiraginoSans-W7-32" d="M 3354 -134 
C 3782 -134 4045 -147 4384 -179 
L 4384 845 
C 4147 806 3846 794 3405 794 
L 1786 794 
C 1869 998 1939 1107 2086 1267 
C 2234 1421 2528 1670 2790 1856 
C 3546 2381 3597 2419 3750 2560 
C 4122 2893 4314 3283 4314 3712 
C 4314 4608 3565 5178 2387 5178 
C 1696 5178 1158 4966 813 4570 
C 570 4275 454 4006 358 3488 
L 1491 3360 
C 1530 3648 1568 3789 1664 3930 
C 1818 4154 2074 4275 2406 4275 
C 2867 4275 3187 4032 3187 3680 
C 3187 3347 3046 3168 2458 2771 
C 1792 2317 1600 2176 1363 1958 
C 941 1574 640 1126 474 627 
C 390 397 352 179 320 -160 
C 563 -134 666 -134 1210 -134 
L 3354 -134 
z
" transform="scale(0.015625)"/>
      <path id="HiraginoSans-W7-5dfb" d="M 5382 2624 
C 5702 2624 5875 2618 6099 2592 
L 6099 3379 
C 5907 3354 5786 3347 5382 3347 
L 4461 3347 
C 4352 3507 4314 3590 4224 3782 
L 5107 3782 
C 5421 3782 5619 3776 5830 3757 
L 5830 4499 
C 5638 4474 5523 4467 5107 4467 
L 4870 4467 
C 5030 4678 5171 4902 5312 5158 
L 4454 5363 
C 4346 5082 4173 4762 3962 4467 
L 3405 4467 
C 3494 4768 3514 4838 3571 5056 
C 3610 5222 3622 5261 3667 5389 
L 2746 5459 
C 2739 5178 2688 4896 2566 4467 
L 2253 4467 
C 2093 4851 1984 5062 1786 5363 
L 979 5165 
C 1139 4941 1267 4730 1389 4467 
L 1299 4467 
C 896 4467 774 4474 589 4499 
L 589 3757 
C 794 3776 992 3782 1299 3782 
L 2310 3782 
C 2227 3616 2170 3501 2074 3347 
L 1018 3347 
C 627 3347 486 3354 301 3379 
L 301 2592 
C 499 2618 685 2624 1018 2624 
L 1517 2624 
C 1126 2221 749 1971 128 1696 
C 346 1408 474 1190 589 883 
C 1120 1210 1606 1594 1978 1984 
L 1978 1613 
C 2138 1626 2208 1632 2432 1632 
L 3776 1632 
L 3776 1312 
L 1798 1312 
C 1632 1312 1530 1318 1376 1338 
C 1389 1190 1389 1146 1389 998 
L 1389 96 
C 1389 -218 1517 -384 1798 -435 
C 2048 -486 2618 -506 3674 -506 
C 4973 -506 5242 -461 5434 -198 
C 5581 -6 5645 250 5670 787 
C 5402 838 5158 915 4883 1043 
L 4883 902 
C 4883 659 4858 454 4819 365 
C 4762 224 4589 205 3456 205 
C 2253 205 2202 211 2202 378 
L 2202 653 
L 4083 653 
C 4461 653 4461 653 4602 640 
C 4589 730 4582 819 4582 966 
L 4582 1120 
L 4589 1805 
C 4589 1875 4589 1914 4595 1990 
C 4979 1600 5280 1376 5792 1075 
C 5946 1376 6086 1594 6291 1843 
C 5741 2086 5446 2272 5062 2624 
L 5382 2624 
z
M 2656 2291 
C 2502 2291 2387 2291 2266 2298 
C 2394 2445 2445 2509 2528 2624 
L 4058 2624 
C 4154 2490 4205 2426 4307 2291 
C 4230 2291 4205 2291 4128 2291 
L 2656 2291 
z
M 2944 3347 
C 3021 3514 3046 3584 3123 3782 
L 3437 3782 
C 3533 3546 3565 3469 3629 3347 
L 2944 3347 
z
" transform="scale(0.015625)"/>
      <path id="HiraginoSans-W7-ff1a" d="M 3757 4326 
L 2650 4326 
L 2650 3219 
L 3757 3219 
L 3757 4326 
z
M 3757 538 
L 3757 1645 
L 2650 1645 
L 2650 538 
L 3757 538 
z
" transform="scale(0.015625)"/>
      <path id="HiraginoSans-W7-3078" d="M 813 1190 
C 877 1274 896 1299 973 1382 
C 1306 1754 1658 2182 1958 2579 
C 2477 3277 2477 3277 2586 3277 
C 2675 3277 2739 3238 2854 3110 
C 3053 2880 3053 2880 3123 2797 
C 3558 2291 3558 2291 3699 2131 
C 4320 1446 5030 723 5562 250 
C 5677 147 5702 122 5773 45 
L 6246 1120 
C 6016 1248 5824 1402 5453 1754 
C 4768 2387 4256 2931 3597 3706 
C 3418 3917 3277 4064 3181 4141 
C 2995 4288 2797 4365 2592 4365 
C 2259 4365 1971 4186 1651 3782 
C 762 2656 493 2349 205 2144 
L 813 1190 
z
" transform="scale(0.015625)"/>
      <path id="HiraginoSans-W7-306e" d="M 3776 4038 
C 4032 4006 4186 3955 4371 3834 
C 4806 3546 5056 3066 5056 2496 
C 5056 1818 4723 1222 4173 922 
C 3872 762 3475 659 2906 614 
C 3155 282 3245 109 3379 -294 
C 3834 -218 4090 -154 4397 -32 
C 5421 371 6003 1274 6003 2438 
C 6003 3936 4979 4896 3373 4896 
C 2458 4896 1670 4576 1120 3974 
C 653 3469 403 2803 403 2074 
C 403 973 966 198 1760 198 
C 2310 198 2733 576 3091 1389 
C 3424 2131 3648 2982 3776 4038 
z
M 2842 4026 
C 2765 3341 2566 2534 2330 1965 
C 2125 1446 1926 1197 1741 1197 
C 1491 1197 1286 1587 1286 2067 
C 1286 2707 1587 3328 2074 3706 
C 2323 3898 2534 3987 2842 4026 
z
" transform="scale(0.015625)"/>
      <path id="HiraginoSans-W7-9053" d="M 2682 4736 
C 2374 4736 2182 4749 2016 4774 
L 2016 4032 
C 2189 4045 2374 4051 2656 4051 
L 3552 4051 
C 3501 3930 3482 3891 3418 3776 
L 2925 3776 
C 2624 3776 2483 3782 2323 3795 
C 2336 3648 2349 3411 2349 3213 
L 2349 1274 
C 2349 1056 2342 806 2330 666 
C 2598 672 2790 678 2906 678 
L 5222 678 
C 5280 678 5510 672 5555 672 
C 5664 666 5664 666 5715 666 
C 5696 864 5690 1011 5690 1267 
L 5690 3206 
C 5690 3482 5696 3642 5715 3795 
C 5600 3782 5446 3776 5158 3776 
L 4269 3776 
C 4320 3872 4339 3910 4403 4051 
L 5440 4051 
C 5677 4051 5856 4045 6074 4026 
L 6074 4774 
C 5875 4742 5728 4736 5440 4736 
L 5114 4736 
C 5216 4877 5331 5062 5446 5261 
L 4614 5427 
C 4512 5171 4410 4973 4250 4736 
L 3738 4736 
C 3597 5011 3507 5171 3328 5427 
L 2560 5229 
C 2682 5069 2797 4890 2886 4736 
L 2682 4736 
z
M 3123 3174 
L 4902 3174 
L 4902 2906 
L 3123 2906 
L 3123 3174 
z
M 3123 2362 
L 4902 2362 
L 4902 2106 
L 3123 2106 
L 3123 2362 
z
M 3117 1568 
L 4896 1568 
L 4896 1299 
L 3117 1299 
L 3117 1568 
z
M 230 4762 
C 691 4365 966 4070 1357 3552 
L 1978 4154 
C 1664 4570 1357 4883 838 5325 
L 230 4762 
z
M 282 2182 
C 454 2208 538 2214 698 2214 
L 1011 2214 
L 1011 960 
C 608 627 384 486 147 403 
L 512 -467 
C 589 -397 614 -378 691 -326 
C 960 -141 1203 58 1408 275 
C 1645 6 1798 -109 2080 -218 
C 2419 -352 2874 -403 3814 -403 
C 4352 -403 4890 -397 6042 -365 
C 6093 13 6138 186 6266 506 
C 5613 422 4819 378 3923 378 
C 3091 378 2637 422 2298 531 
C 2080 602 1952 704 1798 934 
L 1798 2291 
C 1798 2669 1805 2810 1824 3002 
C 1677 2982 1542 2976 1338 2976 
L 800 2976 
C 538 2976 448 2982 282 3008 
L 282 2182 
z
" transform="scale(0.015625)"/>
     </defs>
     <use xlink:href="#HiraginoSans-W7-7b2c"/>
     <use xlink:href="#HiraginoSans-W7-32" transform="translate(99.999985 0)"/>
     <use xlink:href="#HiraginoSans-W7-5dfb" transform="translate(174.099976 0)"/>
     <use xlink:href="#HiraginoSans-W7-ff1a" transform="translate(274.09996 0)"/>
     <use xlink:href="#HiraginoSans-W7-42" transform="translate(374.099945 0)"/>
     <use xlink:href="#HiraginoSans-W7-61" transform="translate(451.499939 0)"/>
     <use xlink:href="#HiraginoSans-W7-6e" transform="translate(517.899933 0)"/>
     <use xlink:href="#HiraginoSans-W7-61" transform="translate(588.099915 0)"/>
     <use xlink:href="#HiraginoSans-W7-63" transform="translate(654.499908 0)"/>
     <use xlink:href="#HiraginoSans-W7-68" transform="translate(719.299896 0)"/>
     <use xlink:href="#HiraginoSans-W7-4e0d" transform="translate(789.499878 0)"/>
     <use xlink:href="#HiraginoSans-W7-52d5" transform="translate(889.499863 0)"/>
     <use xlink:href="#HiraginoSans-W7-70b9" transform="translate(989.499847 0)"/>
     <use xlink:href="#HiraginoSans-W7-5b9a" transform="translate(1089.499832 0)"/>
     <use xlink:href="#HiraginoSans-W7-7406" transform="translate(1189.499817 0)"/>
     <use xlink:href="#HiraginoSans-W7-3078" transform="translate(1289.499802 0)"/>
     <use xlink:href="#HiraginoSans-W7-306e" transform="translate(1389.499786 0)"/>
     <use xlink:href="#HiraginoSans-W7-9053" transform="translate(1489.499771 0)"/>
    </g>
   </g>
  </g>
 </g>
 <defs>
  <clipPath id="p758cfa4017">
   <rect x="7.2" y="26.704375" width="279" height="388.08"/>
  </clipPath>
 </defs>
</svg>
