<?xml version="1.0" encoding="utf-8" standalone="no"?>
<!DOCTYPE svg PUBLIC "-//W3C//DTD SVG 1.1//EN"
  "http://www.w3.org/Graphics/SVG/1.1/DTD/svg11.dtd">
<svg xmlns:xlink="http://www.w3.org/1999/xlink" width="572.4pt" height="339.664375pt" viewBox="0 0 572.4 339.664375" xmlns="http://www.w3.org/2000/svg" version="1.1">
 <metadata>
  <rdf:RDF xmlns:dc="http://purl.org/dc/elements/1.1/" xmlns:cc="http://creativecommons.org/ns#" xmlns:rdf="http://www.w3.org/1999/02/22-rdf-syntax-ns#">
   <cc:Work>
    <dc:type rdf:resource="http://purl.org/dc/dcmitype/StillImage"/>
    <dc:date>2026-03-29T01:01:11.698393</dc:date>
    <dc:format>image/svg+xml</dc:format>
    <dc:creator>
     <cc:Agent>
      <dc:title>Matplotlib v3.10.8, https://matplotlib.org/</dc:title>
     </cc:Agent>
    </dc:creator>
   </cc:Work>
  </rdf:RDF>
 </metadata>
 <defs>
  <style type="text/css">*{stroke-linejoin: round; stroke-linecap: butt}</style>
 </defs>
 <g id="figure_1">
  <g id="patch_1">
   <path d="M 0 339.664375 
L 572.4 339.664375 
L 572.4 0 
L 0 0 
z
" style="fill: #ffffff"/>
  </g>
  <g id="axes_1">
   <g id="patch_2">
    <path d="M 20.076923 116.842375 
L 88.753846 116.842375 
Q 93.046154 116.842375 93.046154 112.486375 
L 93.046154 73.282375 
Q 93.046154 68.926375 88.753846 68.926375 
L 20.076923 68.926375 
Q 15.784615 68.926375 15.784615 73.282375 
L 15.784615 112.486375 
Q 15.784615 116.842375 20.076923 116.842375 
z
" clip-path="url(#p37fd30d1ea)" style="fill: #d6eaf8; stroke: #2980b9; stroke-width: 1.5; stroke-linejoin: miter"/>
   </g>
   <g id="patch_3">
    <path d="M 20.076923 203.962375 
L 88.753846 203.962375 
Q 93.046154 203.962375 93.046154 199.606375 
L 93.046154 160.402375 
Q 93.046154 156.046375 88.753846 156.046375 
L 20.076923 156.046375 
Q 15.784615 156.046375 15.784615 160.402375 
L 15.784615 199.606375 
Q 15.784615 203.962375 20.076923 203.962375 
z
" clip-path="url(#p37fd30d1ea)" style="fill: #d6eaf8; stroke: #2980b9; stroke-width: 1.5; stroke-linejoin: miter"/>
   </g>
   <g id="patch_4">
    <path d="M 20.076923 291.082375 
L 88.753846 291.082375 
Q 93.046154 291.082375 93.046154 286.726375 
L 93.046154 247.522375 
Q 93.046154 243.166375 88.753846 243.166375 
L 20.076923 243.166375 
Q 15.784615 243.166375 15.784615 247.522375 
L 15.784615 286.726375 
Q 15.784615 291.082375 20.076923 291.082375 
z
" clip-path="url(#p37fd30d1ea)" style="fill: #d6eaf8; stroke: #2980b9; stroke-width: 1.5; stroke-linejoin: miter"/>
   </g>
   <g id="patch_5">
    <path d="M 144.553846 116.842375 
L 290.492308 116.842375 
Q 294.784615 116.842375 294.784615 112.486375 
L 294.784615 73.282375 
Q 294.784615 68.926375 290.492308 68.926375 
L 144.553846 68.926375 
Q 140.261538 68.926375 140.261538 73.282375 
L 140.261538 112.486375 
Q 140.261538 116.842375 144.553846 116.842375 
z
" clip-path="url(#p37fd30d1ea)" style="fill: #d5f5e3; stroke: #27ae60; stroke-width: 1.5; stroke-linejoin: miter"/>
   </g>
   <g id="patch_6">
    <path d="M 144.553846 203.962375 
L 290.492308 203.962375 
Q 294.784615 203.962375 294.784615 199.606375 
L 294.784615 160.402375 
Q 294.784615 156.046375 290.492308 156.046375 
L 144.553846 156.046375 
Q 140.261538 156.046375 140.261538 160.402375 
L 140.261538 199.606375 
Q 140.261538 203.962375 144.553846 203.962375 
z
" clip-path="url(#p37fd30d1ea)" style="fill: #d5f5e3; stroke: #27ae60; stroke-width: 1.5; stroke-linejoin: miter"/>
   </g>
   <g id="patch_7">
    <path d="M 144.553846 291.082375 
L 290.492308 291.082375 
Q 294.784615 291.082375 294.784615 286.726375 
L 294.784615 247.522375 
Q 294.784615 243.166375 290.492308 243.166375 
L 144.553846 243.166375 
Q 140.261538 243.166375 140.261538 247.522375 
L 140.261538 286.726375 
Q 140.261538 291.082375 144.553846 291.082375 
z
" clip-path="url(#p37fd30d1ea)" style="fill: #d5f5e3; stroke: #27ae60; stroke-width: 1.5; stroke-linejoin: miter"/>
   </g>
   <g id="patch_8">
    <path d="M 333.415385 116.842375 
L 496.523077 116.842375 
Q 500.815385 116.842375 500.815385 112.486375 
L 500.815385 73.282375 
Q 500.815385 68.926375 496.523077 68.926375 
L 333.415385 68.926375 
Q 329.123077 68.926375 329.123077 73.282375 
L 329.123077 112.486375 
Q 329.123077 116.842375 333.415385 116.842375 
z
" clip-path="url(#p37fd30d1ea)" style="fill: #fde8d8; stroke: #e67e22; stroke-width: 1.5; stroke-linejoin: miter"/>
   </g>
   <g id="patch_9">
    <path d="M 333.415385 203.962375 
L 496.523077 203.962375 
Q 500.815385 203.962375 500.815385 199.606375 
L 500.815385 160.402375 
Q 500.815385 156.046375 496.523077 156.046375 
L 333.415385 156.046375 
Q 329.123077 156.046375 329.123077 160.402375 
L 329.123077 199.606375 
Q 329.123077 203.962375 333.415385 203.962375 
z
" clip-path="url(#p37fd30d1ea)" style="fill: #fde8d8; stroke: #e67e22; stroke-width: 1.5; stroke-linejoin: miter"/>
   </g>
   <g id="patch_10">
    <path d="M 333.415385 291.082375 
L 496.523077 291.082375 
Q 500.815385 291.082375 500.815385 286.726375 
L 500.815385 247.522375 
Q 500.815385 243.166375 496.523077 243.166375 
L 333.415385 243.166375 
Q 329.123077 243.166375 329.123077 247.522375 
L 329.123077 286.726375 
Q 329.123077 291.082375 333.415385 291.082375 
z
" clip-path="url(#p37fd30d1ea)" style="fill: #fde8d8; stroke: #e67e22; stroke-width: 1.5; stroke-linejoin: miter"/>
   </g>
   <g id="patch_11">
    <path d="M 505.107692 212.674375 
L 552.323077 212.674375 
Q 556.615385 212.674375 556.615385 208.318375 
L 556.615385 129.910375 
Q 556.615385 125.554375 552.323077 125.554375 
L 505.107692 125.554375 
Q 500.815385 125.554375 500.815385 129.910375 
L 500.815385 208.318375 
Q 500.815385 212.674375 505.107692 212.674375 
z
" clip-path="url(#p37fd30d1ea)" style="fill: #2c3e50; stroke: #1a1a2e; stroke-width: 1.5; stroke-linejoin: miter"/>
   </g>
   <g id="text_1">
    <!-- $c_1$ -->
    <g style="fill: #1a1a2e" transform="translate(48.235385 96.382187) scale(0.12 -0.12)">
     <defs>
      <path id="DejaVuSans-Oblique-63" d="M 3431 3366 
L 3316 2797 
Q 3109 2947 2876 3022 
Q 2644 3097 2394 3097 
Q 2119 3097 1870 3000 
Q 1622 2903 1453 2725 
Q 1184 2453 1037 2087 
Q 891 1722 891 1331 
Q 891 859 1127 628 
Q 1363 397 1844 397 
Q 2081 397 2348 469 
Q 2616 541 2906 684 
L 2797 116 
Q 2547 13 2283 -39 
Q 2019 -91 1741 -91 
Q 1044 -91 669 257 
Q 294 606 294 1253 
Q 294 1797 489 2255 
Q 684 2713 1069 3078 
Q 1331 3328 1684 3456 
Q 2038 3584 2456 3584 
Q 2700 3584 2940 3529 
Q 3181 3475 3431 3366 
z
" transform="scale(0.015625)"/>
      <path id="DejaVuSans-31" d="M 794 531 
L 1825 531 
L 1825 4091 
L 703 3866 
L 703 4441 
L 1819 4666 
L 2450 4666 
L 2450 531 
L 3481 531 
L 3481 0 
L 794 0 
L 794 531 
z
" transform="scale(0.015625)"/>
     </defs>
     <use xlink:href="#DejaVuSans-Oblique-63"/>
     <use xlink:href="#DejaVuSans-31" transform="translate(54.980469 -16.40625) scale(0.7)"/>
    </g>
   </g>
   <g id="text_2">
    <!-- $c_2$ -->
    <g style="fill: #1a1a2e" transform="translate(48.235385 183.502187) scale(0.12 -0.12)">
     <defs>
      <path id="DejaVuSans-32" d="M 1228 531 
L 3431 531 
L 3431 0 
L 469 0 
L 469 531 
Q 828 903 1448 1529 
Q 2069 2156 2228 2338 
Q 2531 2678 2651 2914 
Q 2772 3150 2772 3378 
Q 2772 3750 2511 3984 
Q 2250 4219 1831 4219 
Q 1534 4219 1204 4116 
Q 875 4013 500 3803 
L 500 4441 
Q 881 4594 1212 4672 
Q 1544 4750 1819 4750 
Q 2544 4750 2975 4387 
Q 3406 4025 3406 3419 
Q 3406 3131 3298 2873 
Q 3191 2616 2906 2266 
Q 2828 2175 2409 1742 
Q 1991 1309 1228 531 
z
" transform="scale(0.015625)"/>
     </defs>
     <use xlink:href="#DejaVuSans-Oblique-63"/>
     <use xlink:href="#DejaVuSans-32" transform="translate(54.980469 -16.40625) scale(0.7)"/>
    </g>
   </g>
   <g id="text_3">
    <!-- $c_3$ -->
    <g style="fill: #1a1a2e" transform="translate(48.235385 270.622187) scale(0.12 -0.12)">
     <defs>
      <path id="DejaVuSans-33" d="M 2597 2516 
Q 3050 2419 3304 2112 
Q 3559 1806 3559 1356 
Q 3559 666 3084 287 
Q 2609 -91 1734 -91 
Q 1441 -91 1130 -33 
Q 819 25 488 141 
L 488 750 
Q 750 597 1062 519 
Q 1375 441 1716 441 
Q 2309 441 2620 675 
Q 2931 909 2931 1356 
Q 2931 1769 2642 2001 
Q 2353 2234 1838 2234 
L 1294 2234 
L 1294 2753 
L 1863 2753 
Q 2328 2753 2575 2939 
Q 2822 3125 2822 3475 
Q 2822 3834 2567 4026 
Q 2313 4219 1838 4219 
Q 1578 4219 1281 4162 
Q 984 4106 628 3988 
L 628 4550 
Q 988 4650 1302 4700 
Q 1616 4750 1894 4750 
Q 2613 4750 3031 4423 
Q 3450 4097 3450 3541 
Q 3450 3153 3228 2886 
Q 3006 2619 2597 2516 
z
" transform="scale(0.015625)"/>
     </defs>
     <use xlink:href="#DejaVuSans-Oblique-63"/>
     <use xlink:href="#DejaVuSans-33" transform="translate(54.980469 -16.40625) scale(0.7)"/>
    </g>
   </g>
   <g id="text_4">
    <!-- $\mu(\phi^{-1}\{c_1\})$ -->
    <g style="fill: #1a1a2e" transform="translate(189.973077 96.334375) scale(0.1 -0.1)">
     <defs>
      <path id="DejaVuSans-Oblique-3bc" d="M -84 -1331 
L 856 3500 
L 1434 3500 
L 1009 1322 
Q 997 1256 987 1175 
Q 978 1094 978 1013 
Q 978 722 1161 565 
Q 1344 409 1684 409 
Q 2147 409 2431 671 
Q 2716 934 2816 1459 
L 3213 3500 
L 3788 3500 
L 3266 809 
Q 3253 750 3248 706 
Q 3244 663 3244 628 
Q 3244 531 3283 486 
Q 3322 441 3406 441 
Q 3438 441 3492 456 
Q 3547 472 3647 513 
L 3559 50 
Q 3422 -19 3297 -55 
Q 3172 -91 3053 -91 
Q 2847 -91 2730 40 
Q 2613 172 2613 403 
Q 2438 153 2195 31 
Q 1953 -91 1625 -91 
Q 1334 -91 1117 43 
Q 900 178 831 397 
L 494 -1331 
L -84 -1331 
z
" transform="scale(0.015625)"/>
      <path id="DejaVuSans-28" d="M 1984 4856 
Q 1566 4138 1362 3434 
Q 1159 2731 1159 2009 
Q 1159 1288 1364 580 
Q 1569 -128 1984 -844 
L 1484 -844 
Q 1016 -109 783 600 
Q 550 1309 550 2009 
Q 550 2706 781 3412 
Q 1013 4119 1484 4856 
L 1984 4856 
z
" transform="scale(0.015625)"/>
      <path id="DejaVuSans-Oblique-3d5" d="M 2991 4863 
L 2738 3572 
Q 3363 3572 3684 3094 
Q 4016 2606 3850 1747 
Q 3681 888 3159 400 
Q 2653 -78 2028 -78 
L 1784 -1331 
L 1213 -1331 
L 1456 -78 
Q 834 -78 509 400 
Q 178 888 347 1747 
Q 513 2606 1034 3094 
Q 1544 3572 2166 3572 
L 2419 4863 
L 2991 4863 
z
M 2128 434 
Q 2481 434 2784 756 
Q 3116 1116 3244 1747 
Q 3369 2372 3169 2738 
Q 2991 3059 2638 3059 
L 2128 434 
z
M 1556 434 
L 2066 3059 
Q 1716 3059 1413 2738 
Q 1072 2372 953 1747 
Q 834 1116 1028 756 
Q 1203 434 1556 434 
z
" transform="scale(0.015625)"/>
      <path id="DejaVuSans-2212" d="M 678 2272 
L 4684 2272 
L 4684 1741 
L 678 1741 
L 678 2272 
z
" transform="scale(0.015625)"/>
      <path id="DejaVuSans-7b" d="M 3272 -594 
L 3272 -1044 
L 3078 -1044 
Q 2300 -1044 2036 -812 
Q 1772 -581 1772 109 
L 1772 856 
Q 1772 1328 1603 1509 
Q 1434 1691 991 1691 
L 800 1691 
L 800 2138 
L 991 2138 
Q 1438 2138 1605 2317 
Q 1772 2497 1772 2963 
L 1772 3713 
Q 1772 4403 2036 4633 
Q 2300 4863 3078 4863 
L 3272 4863 
L 3272 4416 
L 3059 4416 
Q 2619 4416 2484 4278 
Q 2350 4141 2350 3700 
L 2350 2925 
Q 2350 2434 2208 2212 
Q 2066 1991 1722 1913 
Q 2069 1828 2209 1606 
Q 2350 1384 2350 897 
L 2350 122 
Q 2350 -319 2484 -456 
Q 2619 -594 3059 -594 
L 3272 -594 
z
" transform="scale(0.015625)"/>
      <path id="DejaVuSans-7d" d="M 800 -594 
L 1019 -594 
Q 1456 -594 1589 -459 
Q 1722 -325 1722 122 
L 1722 897 
Q 1722 1384 1862 1606 
Q 2003 1828 2350 1913 
Q 2003 1991 1862 2212 
Q 1722 2434 1722 2925 
L 1722 3700 
Q 1722 4144 1589 4280 
Q 1456 4416 1019 4416 
L 800 4416 
L 800 4863 
L 997 4863 
Q 1775 4863 2036 4633 
Q 2297 4403 2297 3713 
L 2297 2963 
Q 2297 2497 2465 2317 
Q 2634 2138 3078 2138 
L 3272 2138 
L 3272 1691 
L 3078 1691 
Q 2634 1691 2465 1509 
Q 2297 1328 2297 856 
L 2297 109 
Q 2297 -581 2036 -812 
Q 1775 -1044 997 -1044 
L 800 -1044 
L 800 -594 
z
" transform="scale(0.015625)"/>
      <path id="DejaVuSans-29" d="M 513 4856 
L 1013 4856 
Q 1481 4119 1714 3412 
Q 1947 2706 1947 2009 
Q 1947 1309 1714 600 
Q 1481 -109 1013 -844 
L 513 -844 
Q 928 -128 1133 580 
Q 1338 1288 1338 2009 
Q 1338 2731 1133 3434 
Q 928 4138 513 4856 
z
" transform="scale(0.015625)"/>
     </defs>
     <use xlink:href="#DejaVuSans-Oblique-3bc" transform="translate(0 0.684375)"/>
     <use xlink:href="#DejaVuSans-28" transform="translate(63.623047 0.684375)"/>
     <use xlink:href="#DejaVuSans-Oblique-3d5" transform="translate(102.636719 0.684375)"/>
     <use xlink:href="#DejaVuSans-2212" transform="translate(176.051224 38.965625) scale(0.7)"/>
     <use xlink:href="#DejaVuSans-31" transform="translate(234.703568 38.965625) scale(0.7)"/>
     <use xlink:href="#DejaVuSans-7b" transform="translate(281.974076 0.684375)"/>
     <use xlink:href="#DejaVuSans-Oblique-63" transform="translate(345.597122 0.684375)"/>
     <use xlink:href="#DejaVuSans-31" transform="translate(400.577591 -15.721875) scale(0.7)"/>
     <use xlink:href="#DejaVuSans-7d" transform="translate(447.848099 0.684375)"/>
     <use xlink:href="#DejaVuSans-29" transform="translate(511.471146 0.684375)"/>
    </g>
   </g>
   <g id="patch_12">
    <path d="M 90.753028 92.884375 
Q 116.653538 92.884375 140.876997 92.884375 
" style="fill: none; stroke: #7f8c8d; stroke-width: 1.5; stroke-linecap: round"/>
    <path d="M 136.876997 90.884375 
L 140.876997 92.884375 
L 136.876997 94.884375 
" style="fill: none; stroke: #7f8c8d; stroke-width: 1.5; stroke-linecap: round"/>
   </g>
   <g id="text_5">
    <!-- $\mu(\phi^{-1}\{c_2\})$ -->
    <g style="fill: #1a1a2e" transform="translate(189.973077 183.454375) scale(0.1 -0.1)">
     <use xlink:href="#DejaVuSans-Oblique-3bc" transform="translate(0 0.684375)"/>
     <use xlink:href="#DejaVuSans-28" transform="translate(63.623047 0.684375)"/>
     <use xlink:href="#DejaVuSans-Oblique-3d5" transform="translate(102.636719 0.684375)"/>
     <use xlink:href="#DejaVuSans-2212" transform="translate(176.051224 38.965625) scale(0.7)"/>
     <use xlink:href="#DejaVuSans-31" transform="translate(234.703568 38.965625) scale(0.7)"/>
     <use xlink:href="#DejaVuSans-7b" transform="translate(281.974076 0.684375)"/>
     <use xlink:href="#DejaVuSans-Oblique-63" transform="translate(345.597122 0.684375)"/>
     <use xlink:href="#DejaVuSans-32" transform="translate(400.577591 -15.721875) scale(0.7)"/>
     <use xlink:href="#DejaVuSans-7d" transform="translate(447.848099 0.684375)"/>
     <use xlink:href="#DejaVuSans-29" transform="translate(511.471146 0.684375)"/>
    </g>
   </g>
   <g id="patch_13">
    <path d="M 90.753028 180.004375 
Q 116.653538 180.004375 140.876997 180.004375 
" style="fill: none; stroke: #7f8c8d; stroke-width: 1.5; stroke-linecap: round"/>
    <path d="M 136.876997 178.004375 
L 140.876997 180.004375 
L 136.876997 182.004375 
" style="fill: none; stroke: #7f8c8d; stroke-width: 1.5; stroke-linecap: round"/>
   </g>
   <g id="text_6">
    <!-- $\mu(\phi^{-1}\{c_3\})$ -->
    <g style="fill: #1a1a2e" transform="translate(189.973077 270.574375) scale(0.1 -0.1)">
     <use xlink:href="#DejaVuSans-Oblique-3bc" transform="translate(0 0.684375)"/>
     <use xlink:href="#DejaVuSans-28" transform="translate(63.623047 0.684375)"/>
     <use xlink:href="#DejaVuSans-Oblique-3d5" transform="translate(102.636719 0.684375)"/>
     <use xlink:href="#DejaVuSans-2212" transform="translate(176.051224 38.965625) scale(0.7)"/>
     <use xlink:href="#DejaVuSans-31" transform="translate(234.703568 38.965625) scale(0.7)"/>
     <use xlink:href="#DejaVuSans-7b" transform="translate(281.974076 0.684375)"/>
     <use xlink:href="#DejaVuSans-Oblique-63" transform="translate(345.597122 0.684375)"/>
     <use xlink:href="#DejaVuSans-33" transform="translate(400.577591 -15.721875) scale(0.7)"/>
     <use xlink:href="#DejaVuSans-7d" transform="translate(447.848099 0.684375)"/>
     <use xlink:href="#DejaVuSans-29" transform="translate(511.471146 0.684375)"/>
    </g>
   </g>
   <g id="patch_14">
    <path d="M 90.753028 267.124375 
Q 116.653538 267.124375 140.876997 267.124375 
" style="fill: none; stroke: #7f8c8d; stroke-width: 1.5; stroke-linecap: round"/>
    <path d="M 136.876997 265.124375 
L 140.876997 267.124375 
L 136.876997 269.124375 
" style="fill: none; stroke: #7f8c8d; stroke-width: 1.5; stroke-linecap: round"/>
   </g>
   <g id="text_7">
    <!-- $c_1 \cdot \mu(\phi^{-1}\{c_1\})$ -->
    <g style="fill: #1a1a2e" transform="translate(378.769231 96.334375) scale(0.1 -0.1)">
     <defs>
      <path id="DejaVuSans-22c5" d="M 684 2619 
L 1344 2619 
L 1344 1825 
L 684 1825 
L 684 2619 
z
" transform="scale(0.015625)"/>
     </defs>
     <use xlink:href="#DejaVuSans-Oblique-63" transform="translate(0 0.684375)"/>
     <use xlink:href="#DejaVuSans-31" transform="translate(54.980469 -15.721875) scale(0.7)"/>
     <use xlink:href="#DejaVuSans-22c5" transform="translate(121.733398 0.684375)"/>
     <use xlink:href="#DejaVuSans-Oblique-3bc" transform="translate(173.00293 0.684375)"/>
     <use xlink:href="#DejaVuSans-28" transform="translate(236.625977 0.684375)"/>
     <use xlink:href="#DejaVuSans-Oblique-3d5" transform="translate(275.639648 0.684375)"/>
     <use xlink:href="#DejaVuSans-2212" transform="translate(349.054154 38.965625) scale(0.7)"/>
     <use xlink:href="#DejaVuSans-31" transform="translate(407.706497 38.965625) scale(0.7)"/>
     <use xlink:href="#DejaVuSans-7b" transform="translate(454.977005 0.684375)"/>
     <use xlink:href="#DejaVuSans-Oblique-63" transform="translate(518.600052 0.684375)"/>
     <use xlink:href="#DejaVuSans-31" transform="translate(573.580521 -15.721875) scale(0.7)"/>
     <use xlink:href="#DejaVuSans-7d" transform="translate(620.851029 0.684375)"/>
     <use xlink:href="#DejaVuSans-29" transform="translate(684.474076 0.684375)"/>
    </g>
   </g>
   <g id="patch_15">
    <path d="M 292.491228 92.884375 
Q 311.951683 92.884375 329.735088 92.884375 
" style="fill: none; stroke: #7f8c8d; stroke-width: 1.5; stroke-linecap: round"/>
    <path d="M 325.735088 90.884375 
L 329.735088 92.884375 
L 325.735088 94.884375 
" style="fill: none; stroke: #7f8c8d; stroke-width: 1.5; stroke-linecap: round"/>
   </g>
   <g id="text_8">
    <!-- $\times$ -->
    <g style="fill: #555555" transform="translate(306.913846 80.687575) scale(0.12 -0.12)">
     <defs>
      <path id="DejaVuSans-d7" d="M 4488 3438 
L 3059 2003 
L 4488 575 
L 4116 197 
L 2681 1631 
L 1247 197 
L 878 575 
L 2303 2003 
L 878 3438 
L 1247 3816 
L 2681 2381 
L 4116 3816 
L 4488 3438 
z
" transform="scale(0.015625)"/>
     </defs>
     <use xlink:href="#DejaVuSans-d7" transform="translate(0 0.375)"/>
    </g>
   </g>
   <g id="text_9">
    <!-- $c_2 \cdot \mu(\phi^{-1}\{c_2\})$ -->
    <g style="fill: #1a1a2e" transform="translate(378.769231 183.454375) scale(0.1 -0.1)">
     <use xlink:href="#DejaVuSans-Oblique-63" transform="translate(0 0.684375)"/>
     <use xlink:href="#DejaVuSans-32" transform="translate(54.980469 -15.721875) scale(0.7)"/>
     <use xlink:href="#DejaVuSans-22c5" transform="translate(121.733398 0.684375)"/>
     <use xlink:href="#DejaVuSans-Oblique-3bc" transform="translate(173.00293 0.684375)"/>
     <use xlink:href="#DejaVuSans-28" transform="translate(236.625977 0.684375)"/>
     <use xlink:href="#DejaVuSans-Oblique-3d5" transform="translate(275.639648 0.684375)"/>
     <use xlink:href="#DejaVuSans-2212" transform="translate(349.054154 38.965625) scale(0.7)"/>
     <use xlink:href="#DejaVuSans-31" transform="translate(407.706497 38.965625) scale(0.7)"/>
     <use xlink:href="#DejaVuSans-7b" transform="translate(454.977005 0.684375)"/>
     <use xlink:href="#DejaVuSans-Oblique-63" transform="translate(518.600052 0.684375)"/>
     <use xlink:href="#DejaVuSans-32" transform="translate(573.580521 -15.721875) scale(0.7)"/>
     <use xlink:href="#DejaVuSans-7d" transform="translate(620.851029 0.684375)"/>
     <use xlink:href="#DejaVuSans-29" transform="translate(684.474076 0.684375)"/>
    </g>
   </g>
   <g id="patch_16">
    <path d="M 292.491228 180.004375 
Q 311.951683 180.004375 329.735088 180.004375 
" style="fill: none; stroke: #7f8c8d; stroke-width: 1.5; stroke-linecap: round"/>
    <path d="M 325.735088 178.004375 
L 329.735088 180.004375 
L 325.735088 182.004375 
" style="fill: none; stroke: #7f8c8d; stroke-width: 1.5; stroke-linecap: round"/>
   </g>
   <g id="text_10">
    <!-- $\times$ -->
    <g style="fill: #555555" transform="translate(306.913846 167.807575) scale(0.12 -0.12)">
     <use xlink:href="#DejaVuSans-d7" transform="translate(0 0.375)"/>
    </g>
   </g>
   <g id="text_11">
    <!-- $c_3 \cdot \mu(\phi^{-1}\{c_3\})$ -->
    <g style="fill: #1a1a2e" transform="translate(378.769231 270.574375) scale(0.1 -0.1)">
     <use xlink:href="#DejaVuSans-Oblique-63" transform="translate(0 0.684375)"/>
     <use xlink:href="#DejaVuSans-33" transform="translate(54.980469 -15.721875) scale(0.7)"/>
     <use xlink:href="#DejaVuSans-22c5" transform="translate(121.733398 0.684375)"/>
     <use xlink:href="#DejaVuSans-Oblique-3bc" transform="translate(173.00293 0.684375)"/>
     <use xlink:href="#DejaVuSans-28" transform="translate(236.625977 0.684375)"/>
     <use xlink:href="#DejaVuSans-Oblique-3d5" transform="translate(275.639648 0.684375)"/>
     <use xlink:href="#DejaVuSans-2212" transform="translate(349.054154 38.965625) scale(0.7)"/>
     <use xlink:href="#DejaVuSans-31" transform="translate(407.706497 38.965625) scale(0.7)"/>
     <use xlink:href="#DejaVuSans-7b" transform="translate(454.977005 0.684375)"/>
     <use xlink:href="#DejaVuSans-Oblique-63" transform="translate(518.600052 0.684375)"/>
     <use xlink:href="#DejaVuSans-33" transform="translate(573.580521 -15.721875) scale(0.7)"/>
     <use xlink:href="#DejaVuSans-7d" transform="translate(620.851029 0.684375)"/>
     <use xlink:href="#DejaVuSans-29" transform="translate(684.474076 0.684375)"/>
    </g>
   </g>
   <g id="patch_17">
    <path d="M 292.491228 267.124375 
Q 311.951683 267.124375 329.735088 267.124375 
" style="fill: none; stroke: #7f8c8d; stroke-width: 1.5; stroke-linecap: round"/>
    <path d="M 325.735088 265.124375 
L 329.735088 267.124375 
L 325.735088 269.124375 
" style="fill: none; stroke: #7f8c8d; stroke-width: 1.5; stroke-linecap: round"/>
   </g>
   <g id="text_12">
    <!-- $\times$ -->
    <g style="fill: #555555" transform="translate(306.913846 254.927575) scale(0.12 -0.12)">
     <use xlink:href="#DejaVuSans-d7" transform="translate(0 0.375)"/>
    </g>
   </g>
   <g id="text_13">
    <!-- $\Sigma$ -->
    <g style="fill: #ffffff" transform="translate(525.515385 163.819219) scale(0.1 -0.1)">
     <defs>
      <path id="DejaVuSans-3a3" d="M 1353 531 
L 3634 531 
L 3634 0 
L 628 0 
L 628 531 
L 2125 2481 
L 628 4134 
L 628 4666 
L 3578 4666 
L 3578 4134 
L 1353 4134 
L 2850 2494 
L 1353 531 
z
" transform="scale(0.015625)"/>
     </defs>
     <use xlink:href="#DejaVuSans-3a3" transform="translate(0 0.09375)"/>
    </g>
    <!-- $\int^-\!\phi\,\partial\mu$ -->
    <g style="fill: #ffffff" transform="translate(511.015385 179.229844) scale(0.1 -0.1)">
     <defs>
      <path id="DejaVuSansDisplay-222b" d="M 2134 5525 
Q 2172 6263 2528 6556 
Q 2884 6850 3218 6850 
Q 3553 6850 3833 6575 
Q 4113 6300 4200 5678 
L 3544 5613 
Q 3469 6188 3219 6188 
Q 2906 6188 2869 5413 
L 2581 -597 
Q 2547 -1334 2187 -1628 
Q 1828 -1922 1497 -1922 
Q 1163 -1922 883 -1647 
Q 603 -1372 516 -750 
L 1172 -684 
Q 1247 -1259 1497 -1259 
Q 1809 -1259 1847 -488 
L 2134 5525 
z
" transform="scale(0.015625)"/>
      <path id="DejaVuSans-2202" d="M 1366 -91 
Q 925 -91 638 175 
Q 297 491 297 1063 
Q 297 1656 597 2119 
Q 906 2594 1463 2594 
Q 1828 2594 2116 2366 
Q 2284 2231 2400 2006 
Q 2441 2259 2441 2547 
Q 2441 2969 2341 3213 
Q 2119 3753 1531 3753 
Q 1309 3753 966 3616 
L 966 4141 
Q 1328 4238 1653 4238 
Q 2491 4238 2847 3469 
Q 3013 3106 3013 2566 
Q 3013 2213 2934 1803 
Q 2738 778 2228 291 
Q 1828 -91 1366 -91 
z
M 831 969 
Q 831 656 969 488 
Q 1116 309 1341 309 
Q 1541 309 1700 450 
Q 1925 644 2091 959 
Q 2228 1219 2297 1497 
Q 2019 2169 1538 2169 
Q 1125 2169 944 1625 
Q 831 1288 831 969 
z
" transform="scale(0.015625)"/>
     </defs>
     <use xlink:href="#DejaVuSansDisplay-222b" transform="translate(0 0.99375)"/>
     <use xlink:href="#DejaVuSans-2212" transform="translate(100.381836 86.15) scale(0.7)"/>
     <use xlink:href="#DejaVuSans-Oblique-3d5" transform="translate(156.436199 0.99375)"/>
     <use xlink:href="#DejaVuSans-2202" transform="translate(238.638672 0.99375)"/>
     <use xlink:href="#DejaVuSans-Oblique-3bc" transform="translate(290.347656 0.99375)"/>
    </g>
   </g>
   <g id="patch_18">
    <path d="M 496.746809 94.871082 
Q 500.815238 130.998075 504.733528 165.791855 
" style="fill: none; stroke: #7f8c8d; stroke-width: 1.2; stroke-linecap: round"/>
    <path d="M 506.273336 161.593165 
L 504.733528 165.791855 
L 502.298461 162.040795 
" style="fill: none; stroke: #7f8c8d; stroke-width: 1.2; stroke-linecap: round"/>
   </g>
   <g id="patch_19">
    <path d="M 497.761726 178.433088 
Q 500.815073 174.559771 503.03784 171.740083 
" style="fill: none; stroke: #7f8c8d; stroke-width: 1.2; stroke-linecap: round"/>
    <path d="M 498.99087 173.643248 
L 503.03784 171.740083 
L 502.132189 176.119558 
" style="fill: none; stroke: #7f8c8d; stroke-width: 1.2; stroke-linecap: round"/>
   </g>
   <g id="patch_20">
    <path d="M 496.697819 265.129359 
Q 500.815623 218.116651 504.816363 172.440467 
" style="fill: none; stroke: #7f8c8d; stroke-width: 1.2; stroke-linecap: round"/>
    <path d="M 502.47497 176.250701 
L 504.816363 172.440467 
L 506.459714 176.599721 
" style="fill: none; stroke: #7f8c8d; stroke-width: 1.2; stroke-linecap: round"/>
   </g>
   <g id="text_14">
    <!-- 値域 (Finset) -->
    <g style="fill: #2980b9" transform="translate(26.834603 49.324375) scale(0.09 -0.09)">
     <defs>
      <path id="HiraginoSans-W4-5024" d="M 3840 4282 
C 3802 4090 3782 4013 3706 3725 
L 3565 3725 
C 3322 3725 3181 3731 3034 3744 
C 3040 3686 3046 3507 3059 3200 
L 3059 1216 
C 3059 1018 3053 851 3040 698 
C 3296 717 3386 717 3597 717 
L 5126 717 
C 5338 717 5421 717 5690 698 
C 5670 877 5670 1005 5670 1248 
L 5670 3136 
C 5670 3456 5670 3571 5690 3744 
C 5555 3731 5402 3725 5133 3725 
L 4166 3725 
C 4243 4032 4243 4032 4294 4282 
L 5568 4282 
C 5773 4282 5946 4275 6144 4250 
L 6144 4742 
C 5946 4710 5818 4704 5523 4704 
L 4378 4704 
C 4416 4928 4429 4992 4474 5286 
L 3974 5318 
C 3955 5030 3942 4934 3910 4704 
L 2662 4704 
C 2362 4704 2208 4710 2035 4736 
L 2035 4256 
C 2221 4275 2368 4282 2624 4282 
L 3840 4282 
z
M 3501 3334 
L 5229 3334 
L 5229 2861 
L 3501 2861 
L 3501 3334 
z
M 3501 2477 
L 5229 2477 
L 5229 2003 
L 3501 2003 
L 3501 2477 
z
M 3501 1619 
L 5229 1619 
L 5229 1107 
L 3501 1107 
L 3501 1619 
z
M 915 288 
C 915 -38 902 -243 877 -474 
L 1414 -474 
C 1389 -256 1382 -26 1382 275 
L 1382 3814 
C 1600 4288 1651 4429 1798 4883 
C 1843 5018 1869 5088 1920 5229 
L 1395 5363 
C 1357 5062 1299 4864 1152 4461 
C 896 3770 595 3258 122 2720 
C 218 2592 320 2419 390 2253 
C 640 2573 755 2765 934 3104 
C 915 2733 915 2656 915 2355 
L 915 288 
z
M 2451 -499 
L 2451 -154 
L 5408 -154 
C 5690 -154 5869 -166 6080 -192 
L 6080 314 
C 5907 288 5734 282 5408 282 
L 2451 282 
L 2451 3098 
C 2451 3398 2458 3622 2483 3795 
L 1952 3795 
C 1978 3603 1990 3398 1990 3104 
L 1990 288 
C 1990 -96 1984 -282 1958 -499 
L 2451 -499 
z
" transform="scale(0.015625)"/>
      <path id="HiraginoSans-W4-57df" d="M 4275 3853 
C 4326 2765 4422 2067 4627 1312 
C 4429 1024 4230 787 4038 614 
C 3770 371 3411 115 3014 -96 
C 3181 -211 3277 -307 3379 -454 
C 3994 -77 4397 282 4787 794 
C 5062 45 5421 -422 5709 -422 
C 5830 -422 5933 -346 6016 -198 
C 6112 -19 6163 192 6240 749 
C 6086 826 5990 896 5850 1043 
C 5824 582 5741 179 5670 179 
C 5632 179 5542 301 5440 493 
C 5306 742 5210 973 5114 1267 
C 5382 1715 5587 2163 5773 2694 
C 5837 2874 5837 2874 5914 3059 
L 5421 3219 
C 5376 2867 5216 2387 4960 1869 
C 4832 2451 4762 3059 4730 3853 
L 5318 3853 
C 5568 3853 5805 3840 5997 3821 
L 5997 4333 
C 5830 4307 5632 4294 5338 4294 
L 4717 4294 
C 4717 4499 4717 4582 4717 4736 
C 4717 4979 4730 5139 4755 5299 
L 4218 5299 
C 4243 5114 4250 5011 4256 4762 
L 4262 4294 
L 2726 4294 
C 2432 4294 2176 4307 2022 4333 
L 2022 3821 
C 2208 3840 2458 3853 2714 3853 
L 4275 3853 
z
M 998 3571 
L 838 3571 
C 627 3571 467 3578 301 3603 
L 301 3104 
C 467 3130 627 3136 826 3136 
L 998 3136 
L 998 1126 
C 576 934 365 851 211 826 
L 346 301 
C 435 352 499 384 806 525 
C 1376 800 1811 1024 2131 1216 
L 2106 1696 
C 1837 1530 1741 1478 1466 1338 
L 1466 3136 
L 1568 3136 
C 1792 3136 1939 3130 2074 3110 
L 2074 3597 
C 1939 3578 1798 3571 1568 3571 
L 1466 3571 
L 1466 4538 
C 1466 4858 1478 5037 1504 5248 
L 960 5248 
C 986 5056 998 4845 998 4544 
L 998 3571 
z
M 2310 1926 
C 2310 1779 2304 1658 2291 1536 
C 2394 1549 2522 1555 2707 1555 
L 3507 1555 
C 3680 1555 3802 1549 3955 1536 
C 3942 1606 3936 1741 3936 1914 
L 3936 3034 
C 3936 3181 3942 3264 3955 3347 
C 3846 3334 3686 3328 3539 3328 
L 2720 3328 
C 2528 3328 2368 3334 2291 3347 
C 2304 3238 2310 3078 2310 2950 
L 2310 1926 
z
M 2733 2925 
L 3514 2925 
L 3514 1958 
L 2733 1958 
L 2733 2925 
z
M 4102 1306 
C 3322 1062 2176 813 1856 813 
C 1843 813 1837 813 1818 813 
L 1926 294 
C 2042 333 2176 371 2330 403 
C 2842 512 3661 730 4109 877 
L 4102 1306 
z
M 5901 4653 
C 5645 4922 5466 5062 5152 5261 
L 4845 5005 
C 5184 4781 5363 4621 5581 4358 
L 5901 4653 
z
" transform="scale(0.015625)"/>
      <path id="HiraginoSans-W4-20" transform="scale(0.015625)"/>
      <path id="HiraginoSans-W4-28" d="M 2195 -749 
C 1830 -198 1683 90 1542 538 
C 1402 986 1331 1472 1331 1978 
C 1331 2483 1402 2963 1542 3411 
C 1683 3859 1830 4147 2195 4698 
L 1715 5018 
C 1350 4461 1197 4173 1037 3712 
C 838 3155 742 2579 742 1978 
C 742 1376 838 794 1037 243 
C 1197 -218 1350 -512 1715 -1062 
L 2195 -749 
z
" transform="scale(0.015625)"/>
      <path id="HiraginoSans-W4-46" d="M 1133 2285 
L 2598 2285 
C 2950 2285 3149 2272 3366 2240 
L 3366 2867 
C 3130 2835 2938 2822 2598 2822 
L 1133 2822 
L 1133 4390 
L 2944 4390 
C 3296 4390 3494 4378 3712 4346 
L 3712 4979 
C 3469 4947 3270 4934 2938 4934 
L 1210 4934 
C 896 4934 698 4941 480 4954 
C 518 4698 531 4493 531 4198 
L 531 794 
C 531 429 518 218 480 0 
L 1184 0 
C 1146 237 1133 429 1133 800 
L 1133 2285 
z
" transform="scale(0.015625)"/>
      <path id="HiraginoSans-W4-69" d="M 442 4934 
L 442 4294 
L 1152 4294 
L 1152 4934 
L 442 4934 
z
M 454 3520 
C 486 3296 499 3085 499 2765 
L 499 755 
C 499 461 486 282 454 0 
L 1133 0 
C 1101 269 1088 448 1088 755 
L 1088 2758 
C 1088 3104 1101 3290 1133 3520 
L 454 3520 
z
" transform="scale(0.015625)"/>
      <path id="HiraginoSans-W4-6e" d="M 1114 0 
C 1082 256 1069 474 1069 755 
L 1069 2010 
C 1139 2272 1222 2426 1395 2630 
C 1658 2944 1933 3085 2266 3085 
C 2752 3085 3002 2797 3002 2234 
L 3002 755 
C 3002 454 2989 269 2957 0 
L 3629 0 
C 3597 218 3584 416 3584 749 
L 3584 2323 
C 3584 2662 3520 2912 3392 3110 
C 3181 3418 2816 3584 2349 3584 
C 1779 3584 1376 3360 1056 2867 
C 1069 3027 1069 3059 1069 3142 
L 1069 3520 
L 442 3520 
C 480 3264 493 3078 493 2765 
L 493 755 
C 493 429 480 256 442 0 
L 1114 0 
z
" transform="scale(0.015625)"/>
      <path id="HiraginoSans-W4-73" d="M 262 973 
C 326 704 378 589 480 448 
C 730 109 1184 -70 1786 -70 
C 2707 -70 3270 339 3270 1011 
C 3270 1293 3136 1555 2912 1722 
C 2720 1862 2483 1946 1894 2074 
C 1510 2157 1357 2208 1210 2285 
C 1075 2355 998 2483 998 2624 
C 998 2944 1312 3162 1760 3162 
C 2042 3162 2259 3078 2400 2925 
C 2483 2835 2515 2758 2554 2598 
L 3155 2688 
C 3066 2982 2982 3136 2810 3283 
C 2573 3494 2208 3610 1754 3610 
C 1299 3610 941 3494 698 3258 
C 518 3091 416 2861 416 2618 
C 416 2310 557 2054 819 1888 
C 1043 1747 1261 1677 1760 1574 
C 2246 1466 2349 1440 2490 1350 
C 2618 1274 2682 1139 2682 973 
C 2682 621 2342 397 1818 397 
C 1504 397 1267 474 1107 614 
C 986 730 934 832 890 1069 
L 262 973 
z
" transform="scale(0.015625)"/>
      <path id="HiraginoSans-W4-65" d="M 3578 1651 
C 3558 1971 3546 2106 3533 2170 
C 3405 3066 2797 3610 1933 3610 
C 934 3610 282 2880 282 1760 
C 282 621 941 -96 1978 -96 
C 2470 -96 2880 64 3187 371 
C 3341 518 3424 646 3546 915 
L 3008 1114 
C 2944 928 2899 845 2803 742 
C 2605 512 2323 390 1984 390 
C 1613 390 1312 531 1114 800 
C 947 1024 883 1235 858 1651 
L 3578 1651 
z
M 877 2118 
C 915 2349 947 2451 1037 2605 
C 1229 2944 1542 3130 1920 3130 
C 2221 3130 2464 3040 2656 2854 
C 2842 2669 2938 2451 2976 2118 
L 877 2118 
z
" transform="scale(0.015625)"/>
      <path id="HiraginoSans-W4-74" d="M 851 4480 
C 877 4262 896 4006 896 3750 
L 896 3520 
L 646 3520 
C 378 3520 250 3526 70 3558 
L 70 2995 
C 275 3021 416 3034 640 3034 
L 896 3034 
L 896 787 
C 896 461 954 269 1094 134 
C 1235 6 1466 -64 1773 -64 
C 2042 -64 2246 -26 2515 83 
L 2374 602 
C 2176 486 2048 448 1875 448 
C 1741 448 1632 486 1568 544 
C 1504 608 1478 698 1478 883 
L 1478 3034 
L 1779 3034 
C 2074 3034 2221 3027 2426 2995 
L 2426 3558 
C 2214 3526 2074 3520 1773 3520 
L 1478 3520 
L 1478 3750 
C 1478 4026 1498 4275 1523 4480 
L 851 4480 
z
" transform="scale(0.015625)"/>
      <path id="HiraginoSans-W4-29" d="M 653 -1062 
C 1018 -512 1171 -218 1331 243 
C 1530 794 1626 1370 1626 1978 
C 1626 2579 1530 3155 1331 3712 
C 1171 4173 1018 4461 653 5018 
L 173 4698 
C 538 4147 685 3859 826 3411 
C 966 2963 1037 2490 1037 1978 
C 1037 1466 966 986 826 538 
C 685 90 538 -198 173 -749 
L 653 -1062 
z
" transform="scale(0.015625)"/>
     </defs>
     <use xlink:href="#HiraginoSans-W4-5024"/>
     <use xlink:href="#HiraginoSans-W4-57df" transform="translate(99.999985 0)"/>
     <use xlink:href="#HiraginoSans-W4-20" transform="translate(199.999969 0)"/>
     <use xlink:href="#HiraginoSans-W4-28" transform="translate(233.299957 0)"/>
     <use xlink:href="#HiraginoSans-W4-46" transform="translate(270.299942 0)"/>
     <use xlink:href="#HiraginoSans-W4-69" transform="translate(331.699936 0)"/>
     <use xlink:href="#HiraginoSans-W4-6e" transform="translate(356.499924 0)"/>
     <use xlink:href="#HiraginoSans-W4-73" transform="translate(419.899918 0)"/>
     <use xlink:href="#HiraginoSans-W4-65" transform="translate(475.199905 0)"/>
     <use xlink:href="#HiraginoSans-W4-74" transform="translate(535.399902 0)"/>
     <use xlink:href="#HiraginoSans-W4-29" transform="translate(575.899887 0)"/>
    </g>
   </g>
   <g id="text_15">
    <!-- 測度値 -->
    <g style="fill: #27ae60" transform="translate(204.023077 49.324375) scale(0.09 -0.09)">
     <defs>
      <path id="HiraginoSans-W4-6e2c" d="M 474 4941 
C 877 4659 1120 4442 1408 4090 
L 1741 4448 
C 1453 4781 1229 4979 800 5274 
L 474 4941 
z
M 256 3354 
C 672 3098 922 2893 1267 2522 
L 1574 2918 
C 1235 3245 979 3437 557 3699 
L 256 3354 
z
M 1222 1875 
C 941 960 627 288 326 -38 
L 755 -410 
C 794 -326 813 -282 896 -128 
C 1197 416 1402 902 1619 1594 
L 1222 1875 
z
M 3328 1146 
C 3526 1146 3648 1139 3866 1126 
C 3853 1261 3846 1472 3846 1728 
L 3846 4538 
C 3846 4813 3853 4986 3872 5158 
C 3680 5146 3558 5139 3360 5139 
L 2438 5139 
C 2202 5139 2061 5146 1926 5158 
C 1939 4973 1946 4806 1946 4595 
L 1946 1766 
C 1946 1414 1946 1312 1926 1126 
C 2061 1139 2214 1146 2438 1146 
L 3328 1146 
z
M 2387 4730 
L 3411 4730 
L 3411 3955 
L 2387 3955 
L 2387 4730 
z
M 2387 3552 
L 3411 3552 
L 3411 2778 
L 2387 2778 
L 2387 3552 
z
M 2387 2374 
L 3411 2374 
L 3411 1555 
L 2387 1555 
L 2387 2374 
z
M 3034 755 
C 3309 269 3501 6 3878 -390 
C 4038 -218 4109 -147 4237 -58 
C 3859 269 3674 499 3411 973 
L 3034 755 
z
M 4890 1088 
C 4864 1248 4858 1408 4858 1715 
L 4858 4314 
C 4858 4614 4864 4749 4890 4941 
L 4365 4941 
C 4390 4768 4397 4602 4397 4320 
L 4397 1715 
C 4397 1434 4384 1254 4365 1088 
L 4890 1088 
z
M 2323 979 
C 2099 480 1926 250 1485 -115 
C 1619 -218 1696 -288 1837 -448 
C 2266 -38 2464 237 2714 768 
L 2323 979 
z
M 5914 4512 
C 5914 4870 5926 5082 5952 5261 
L 5408 5261 
C 5434 5024 5446 4826 5446 4512 
L 5446 269 
C 5446 128 5402 102 5146 102 
C 4947 102 4749 122 4499 154 
C 4570 -13 4589 -109 4621 -333 
C 5011 -352 5024 -352 5152 -352 
C 5773 -352 5914 -250 5914 186 
L 5914 4512 
z
" transform="scale(0.015625)"/>
      <path id="HiraginoSans-W4-5ea6" d="M 2400 3379 
L 2400 2752 
C 2400 2624 2394 2483 2381 2362 
C 2464 2374 2579 2374 2835 2374 
L 4365 2374 
C 4602 2374 4672 2374 4774 2362 
C 4762 2477 4755 2605 4755 2752 
L 4755 3379 
L 5478 3379 
C 5760 3379 5920 3373 6061 3347 
L 6061 3821 
C 5901 3795 5760 3789 5485 3789 
L 4755 3789 
L 4755 3859 
C 4755 4026 4762 4141 4781 4256 
L 4262 4256 
C 4282 4141 4288 4013 4288 3866 
L 4288 3789 
L 2867 3789 
L 2867 3878 
C 2867 4006 2874 4115 2893 4256 
L 2374 4256 
C 2394 4147 2400 4032 2400 3872 
L 2400 3789 
L 1312 3789 
L 1312 4403 
L 5376 4403 
C 5677 4403 5837 4397 6048 4378 
L 6048 4864 
C 5875 4838 5677 4826 5325 4826 
L 3622 4826 
L 3622 4998 
C 3622 5171 3629 5280 3654 5402 
L 3098 5402 
C 3123 5274 3136 5152 3136 4998 
L 3136 4826 
L 1478 4826 
C 1222 4826 1011 4838 800 4858 
C 819 4672 826 4480 826 4051 
C 826 1670 698 845 198 -26 
C 358 -147 454 -237 595 -416 
C 1120 538 1267 1318 1306 3379 
L 2400 3379 
z
M 2867 3379 
L 4288 3379 
L 4288 2765 
L 2867 2765 
L 2867 3379 
z
M 5030 1933 
C 4896 1920 4787 1914 4570 1914 
L 2272 1914 
C 1939 1914 1766 1920 1613 1946 
L 1613 1491 
C 1766 1517 1907 1523 2195 1523 
C 2522 1056 2771 800 3187 493 
C 2598 224 1997 77 1126 -19 
C 1235 -218 1280 -320 1318 -493 
C 2291 -333 2931 -134 3610 224 
C 4256 -141 4902 -339 5882 -474 
C 5939 -275 6003 -128 6099 32 
C 5338 77 4653 230 4058 499 
C 4429 749 4774 1056 5069 1395 
C 5190 1536 5235 1587 5299 1651 
L 5030 1933 
z
M 4582 1523 
C 4230 1152 4013 973 3622 723 
C 3206 986 2957 1210 2733 1523 
L 4582 1523 
z
" transform="scale(0.015625)"/>
     </defs>
     <use xlink:href="#HiraginoSans-W4-6e2c"/>
     <use xlink:href="#HiraginoSans-W4-5ea6" transform="translate(99.999985 0)"/>
     <use xlink:href="#HiraginoSans-W4-5024" transform="translate(199.999969 0)"/>
    </g>
   </g>
   <g id="text_16">
    <!-- 積 -->
    <g style="fill: #e67e22" transform="translate(410.469231 49.324375) scale(0.09 -0.09)">
     <defs>
      <path id="HiraginoSans-W4-7a4d" d="M 2266 3091 
C 2445 3117 2605 3130 2854 3130 
L 5485 3130 
C 5741 3130 5882 3123 6080 3091 
L 6080 3539 
C 5914 3514 5747 3501 5485 3501 
L 4314 3501 
L 4314 3853 
L 5171 3853 
C 5440 3853 5568 3846 5728 3827 
L 5728 4224 
C 5581 4205 5434 4198 5165 4198 
L 4314 4198 
L 4314 4525 
L 5344 4525 
C 5619 4525 5728 4518 5920 4493 
L 5920 4928 
C 5728 4902 5568 4890 5325 4890 
L 4314 4890 
C 4314 5088 4320 5210 4352 5344 
L 3840 5344 
C 3866 5210 3878 5101 3878 4890 
L 3002 4890 
C 2739 4890 2579 4896 2432 4922 
L 2432 4493 
C 2605 4518 2714 4525 2976 4525 
L 3878 4525 
L 3878 4198 
L 3110 4198 
C 2874 4198 2726 4205 2586 4224 
L 2586 3827 
C 2733 3846 2861 3853 3117 3853 
L 3878 3853 
L 3878 3501 
L 2854 3501 
C 2598 3501 2438 3507 2310 3526 
L 2310 3744 
C 2182 3725 2080 3718 1869 3718 
L 1683 3718 
L 1683 4710 
C 1888 4781 2054 4838 2163 4890 
C 2272 4934 2272 4934 2368 4973 
L 2093 5363 
C 1792 5146 1075 4934 333 4838 
C 442 4666 474 4595 518 4422 
C 870 4493 1005 4518 1229 4576 
L 1229 3718 
L 896 3718 
C 640 3718 506 3725 358 3750 
L 358 3264 
C 518 3290 640 3296 883 3296 
L 1178 3296 
C 1030 2611 659 1843 224 1350 
C 365 1184 416 1107 506 941 
C 851 1395 1075 1856 1267 2560 
C 1242 2253 1229 1843 1229 1536 
L 1229 256 
C 1229 -58 1216 -294 1190 -480 
L 1722 -480 
C 1690 -301 1683 -109 1683 256 
L 1683 1805 
C 1683 2061 1664 2445 1645 2714 
C 1824 2272 1926 2080 2157 1792 
C 2234 1946 2304 2048 2400 2150 
C 2054 2502 1843 2848 1696 3296 
L 1862 3296 
C 2042 3296 2144 3290 2266 3277 
L 2266 3091 
z
M 5139 486 
C 5357 486 5498 480 5690 467 
C 5670 602 5664 736 5664 1069 
L 5664 2285 
C 5664 2618 5664 2726 5690 2867 
C 5523 2854 5408 2848 5126 2848 
L 3123 2848 
C 2861 2848 2720 2854 2573 2861 
C 2592 2733 2598 2611 2598 2304 
L 2598 1050 
C 2598 800 2586 602 2573 467 
C 2643 474 2835 480 3136 486 
L 5139 486 
z
M 3034 2490 
L 5222 2490 
L 5222 2176 
L 3034 2176 
L 3034 2490 
z
M 3034 1843 
L 5222 1843 
L 5222 1517 
L 3034 1517 
L 3034 1843 
z
M 3034 1184 
L 5222 1184 
L 5222 845 
L 3034 845 
L 3034 1184 
z
M 3392 467 
C 2906 141 2586 6 1971 -128 
C 2125 -314 2157 -358 2240 -531 
C 2886 -339 3232 -173 3699 179 
L 3392 467 
z
M 4531 179 
C 5011 -166 5357 -326 5978 -525 
C 6074 -333 6125 -250 6246 -102 
C 5658 45 5325 179 4813 474 
L 4531 179 
z
" transform="scale(0.015625)"/>
     </defs>
     <use xlink:href="#HiraginoSans-W4-7a4d"/>
    </g>
   </g>
   <g id="text_17">
    <!-- SimpleFunc.lintegral の計算構造 -->
    <g style="fill: #1a1a2e" transform="translate(186.019687 17.544375) scale(0.12 -0.12)">
     <defs>
      <path id="HiraginoSans-W7-53" d="M 269 1414 
C 339 915 429 672 640 410 
C 979 -19 1600 -250 2426 -250 
C 3706 -250 4435 346 4435 1389 
C 4435 1696 4371 1952 4243 2163 
C 4096 2406 3859 2605 3597 2720 
C 3341 2835 3034 2918 2336 3066 
C 2003 3142 1875 3187 1734 3277 
C 1594 3379 1517 3520 1517 3693 
C 1517 4058 1850 4301 2349 4301 
C 2656 4301 2912 4205 3059 4032 
C 3149 3917 3194 3821 3226 3622 
L 4352 3744 
C 4269 4122 4186 4307 4026 4525 
C 3693 4960 3117 5190 2355 5190 
C 1171 5190 422 4595 422 3654 
C 422 3181 614 2790 973 2522 
C 1216 2349 1427 2266 1971 2138 
C 2669 1978 2867 1914 3066 1786 
C 3232 1683 3315 1523 3315 1325 
C 3315 915 2963 659 2406 659 
C 2029 659 1728 781 1555 1005 
C 1446 1139 1408 1261 1382 1523 
L 269 1414 
z
" transform="scale(0.015625)"/>
      <path id="HiraginoSans-W7-69" d="M 384 5069 
L 384 4186 
L 1498 4186 
L 1498 5069 
L 384 5069 
z
M 371 3654 
C 410 3392 422 3149 422 2758 
L 422 762 
C 422 384 410 186 371 -134 
L 1504 -134 
C 1466 134 1453 390 1453 768 
L 1453 2752 
C 1453 3174 1466 3411 1504 3654 
L 371 3654 
z
" transform="scale(0.015625)"/>
      <path id="HiraginoSans-W7-6d" d="M 1472 -134 
C 1440 166 1427 390 1427 762 
L 1427 2061 
C 1536 2323 1606 2438 1728 2566 
C 1901 2746 2118 2848 2330 2848 
C 2490 2848 2637 2784 2720 2669 
C 2810 2554 2848 2406 2848 2144 
L 2848 762 
C 2848 371 2835 141 2797 -134 
L 3910 -134 
C 3878 160 3866 390 3866 762 
L 3866 2061 
C 3962 2336 4032 2451 4166 2592 
C 4326 2765 4531 2854 4762 2854 
C 4947 2854 5101 2784 5184 2662 
C 5261 2547 5293 2413 5293 2144 
L 5293 762 
C 5293 358 5280 154 5242 -134 
L 6355 -134 
C 6323 147 6310 384 6310 762 
L 6310 2342 
C 6310 2784 6227 3078 6035 3315 
C 5811 3597 5446 3744 4986 3744 
C 4442 3744 4064 3571 3706 3162 
C 3616 3315 3558 3386 3469 3462 
C 3264 3648 2982 3744 2624 3744 
C 2106 3744 1754 3590 1414 3206 
C 1421 3232 1421 3232 1421 3296 
C 1421 3302 1421 3302 1427 3411 
L 1427 3654 
L 371 3654 
C 410 3418 422 3200 422 2758 
L 422 762 
C 422 390 410 147 371 -134 
L 1472 -134 
z
" transform="scale(0.015625)"/>
      <path id="HiraginoSans-W7-70" d="M 1466 -1338 
C 1434 -1062 1421 -832 1421 -410 
L 1421 6 
C 1421 102 1414 134 1408 179 
C 1408 275 1408 275 1402 346 
C 1562 179 1664 102 1830 19 
C 2080 -96 2400 -166 2714 -166 
C 3226 -166 3667 0 3981 314 
C 4333 659 4512 1171 4512 1818 
C 4512 2458 4339 2950 4000 3283 
C 3686 3597 3258 3757 2720 3757 
C 2176 3757 1779 3603 1402 3245 
C 1408 3309 1414 3379 1414 3437 
L 1414 3654 
L 371 3654 
C 410 3360 422 3123 422 2726 
L 422 -416 
C 422 -787 403 -1050 371 -1338 
L 1466 -1338 
z
M 2502 646 
C 1882 646 1440 1126 1440 1798 
C 1440 2451 1888 2938 2502 2938 
C 3110 2938 3482 2515 3482 1818 
C 3482 1088 3110 646 2502 646 
z
" transform="scale(0.015625)"/>
      <path id="HiraginoSans-W7-6c" d="M 371 5069 
C 410 4819 422 4589 422 4173 
L 422 762 
C 422 339 410 147 371 -134 
L 1491 -134 
C 1459 166 1446 397 1446 762 
L 1446 4173 
C 1446 4582 1459 4813 1491 5069 
L 371 5069 
z
" transform="scale(0.015625)"/>
      <path id="HiraginoSans-W7-65" d="M 4032 1485 
C 4019 1606 4019 1613 4019 1638 
C 3994 2118 3962 2323 3846 2637 
C 3571 3373 2963 3782 2125 3782 
C 973 3782 211 2976 211 1760 
C 211 1139 410 595 774 237 
C 1107 -96 1587 -269 2163 -269 
C 2746 -269 3232 -90 3571 250 
C 3744 416 3840 563 3981 870 
L 3053 1146 
C 2918 755 2611 544 2163 544 
C 1856 544 1606 653 1434 864 
C 1306 1024 1248 1184 1216 1485 
L 4032 1485 
z
M 1235 2227 
C 1357 2726 1664 2982 2138 2982 
C 2432 2982 2675 2874 2829 2675 
C 2925 2547 2970 2432 3008 2227 
L 1235 2227 
z
" transform="scale(0.015625)"/>
      <path id="HiraginoSans-W7-46" d="M 1542 1997 
L 2854 1997 
C 3258 1997 3526 1984 3770 1952 
L 3770 2957 
C 3507 2925 3277 2912 2854 2912 
L 1542 2912 
L 1542 4128 
L 3174 4128 
C 3590 4128 3846 4115 4090 4083 
L 4090 5114 
C 3814 5082 3597 5069 3168 5069 
L 1306 5069 
C 864 5069 691 5075 435 5088 
C 474 4794 486 4595 486 4211 
L 486 813 
C 486 378 467 102 429 -134 
L 1594 -134 
C 1555 115 1542 352 1542 826 
L 1542 1997 
z
" transform="scale(0.015625)"/>
      <path id="HiraginoSans-W7-75" d="M 3008 3654 
C 3046 3341 3059 3104 3059 2758 
L 3059 1459 
C 2790 986 2381 678 2010 678 
C 1856 678 1728 717 1632 787 
C 1478 902 1427 1050 1427 1389 
L 1427 2758 
C 1427 3117 1440 3354 1478 3654 
L 358 3654 
C 397 3392 410 3149 410 2758 
L 410 1146 
C 410 698 525 371 755 134 
C 986 -96 1325 -218 1734 -218 
C 2278 -218 2682 -38 3072 378 
C 3066 256 3059 173 3059 122 
L 3059 -134 
L 4122 -134 
C 4083 109 4070 352 4070 762 
L 4070 2758 
C 4070 3130 4083 3366 4122 3654 
L 3008 3654 
z
" transform="scale(0.015625)"/>
      <path id="HiraginoSans-W7-6e" d="M 1485 -134 
C 1446 179 1434 416 1434 762 
L 1434 2061 
C 1709 2541 2106 2835 2483 2835 
C 2637 2835 2765 2797 2861 2726 
C 3014 2611 3066 2464 3066 2131 
L 3066 762 
C 3066 403 3053 166 3014 -134 
L 4134 -134 
C 4096 128 4083 371 4083 762 
L 4083 2374 
C 4083 3245 3610 3731 2758 3731 
C 2214 3731 1811 3552 1414 3142 
C 1421 3264 1427 3347 1427 3398 
L 1427 3654 
L 371 3654 
C 410 3411 422 3168 422 2758 
L 422 762 
C 422 390 410 154 371 -134 
L 1485 -134 
z
" transform="scale(0.015625)"/>
      <path id="HiraginoSans-W7-63" d="M 3917 2541 
C 3840 2765 3789 2886 3693 3034 
C 3373 3526 2835 3789 2150 3789 
C 1587 3789 1114 3610 774 3270 
C 416 2912 211 2368 211 1760 
C 211 1152 410 602 762 243 
C 1088 -90 1581 -269 2150 -269 
C 2835 -269 3360 -32 3686 429 
C 3808 602 3878 755 3962 1011 
L 2989 1184 
C 2950 1030 2925 954 2861 870 
C 2720 659 2477 544 2189 544 
C 1606 544 1242 1018 1242 1773 
C 1242 2528 1587 2982 2170 2982 
C 2426 2982 2630 2893 2778 2707 
C 2854 2611 2893 2528 2950 2330 
L 3917 2541 
z
" transform="scale(0.015625)"/>
      <path id="HiraginoSans-W7-2e" d="M 365 973 
L 365 -134 
L 1472 -134 
L 1472 973 
L 365 973 
z
" transform="scale(0.015625)"/>
      <path id="HiraginoSans-W7-74" d="M 813 4646 
C 851 4352 864 4141 864 3821 
L 864 3654 
L 627 3654 
C 371 3654 237 3661 51 3693 
L 51 2790 
C 250 2822 378 2829 614 2829 
L 864 2829 
L 864 768 
C 864 58 1197 -224 2022 -224 
C 2355 -224 2586 -186 2842 -96 
L 2739 742 
C 2573 646 2445 614 2272 614 
C 1971 614 1862 723 1862 1024 
L 1862 2829 
L 2144 2829 
C 2419 2829 2541 2822 2752 2790 
L 2752 3686 
C 2554 3661 2406 3654 2112 3654 
L 1862 3654 
L 1862 3821 
C 1862 4122 1882 4403 1914 4646 
L 813 4646 
z
" transform="scale(0.015625)"/>
      <path id="HiraginoSans-W7-67" d="M 294 -659 
C 736 -1152 1229 -1344 2035 -1344 
C 2701 -1344 3258 -1197 3590 -928 
C 3974 -614 4147 -134 4147 640 
L 4147 2810 
C 4147 3174 4160 3366 4198 3654 
L 3155 3654 
L 3155 3443 
C 3155 3373 3155 3328 3162 3277 
C 2867 3590 2496 3731 1965 3731 
C 1549 3731 1203 3622 902 3405 
C 442 3066 205 2547 205 1882 
C 205 768 877 58 1926 58 
C 2464 58 2854 218 3162 563 
C 3136 128 3091 -58 2963 -243 
C 2803 -467 2470 -595 2048 -595 
C 1626 -595 1299 -442 1069 -141 
L 294 -659 
z
M 1229 1882 
C 1229 2534 1587 2963 2138 2963 
C 2707 2963 3123 2515 3123 1901 
C 3123 1498 2957 1171 2656 992 
C 2496 890 2285 832 2106 832 
C 1888 832 1651 928 1504 1075 
C 1318 1261 1229 1530 1229 1882 
z
" transform="scale(0.015625)"/>
      <path id="HiraginoSans-W7-72" d="M 3277 3654 
C 3002 3712 2867 3725 2675 3725 
C 2106 3725 1696 3533 1427 3130 
L 1427 3654 
L 371 3654 
C 410 3386 422 3187 422 2758 
L 422 762 
C 422 384 410 186 371 -134 
L 1472 -134 
C 1440 141 1427 378 1427 762 
L 1427 1869 
C 1459 2170 1517 2317 1651 2477 
C 1830 2682 2080 2778 2419 2778 
C 2624 2778 2746 2758 3014 2669 
L 3277 3654 
z
" transform="scale(0.015625)"/>
      <path id="HiraginoSans-W7-61" d="M 2842 -134 
L 3878 -134 
C 3846 154 3834 346 3834 717 
L 3834 2451 
C 3834 2912 3750 3162 3533 3366 
C 3251 3635 2822 3763 2195 3763 
C 1594 3763 1133 3642 813 3392 
C 589 3219 467 3046 333 2675 
L 1344 2509 
C 1414 2688 1472 2778 1587 2861 
C 1709 2950 1939 3008 2189 3008 
C 2624 3008 2842 2854 2842 2541 
L 2842 2285 
C 2029 2259 1837 2240 1466 2163 
C 672 1984 237 1549 237 928 
C 237 589 365 294 602 96 
C 832 -109 1158 -205 1613 -205 
C 2131 -205 2458 -96 2842 198 
L 2842 -134 
z
M 2842 1357 
C 2842 1133 2765 973 2579 813 
C 2381 646 2067 538 1792 538 
C 1446 538 1254 685 1254 954 
C 1254 1197 1408 1370 1702 1459 
C 1990 1549 2259 1581 2842 1600 
L 2842 1357 
z
" transform="scale(0.015625)"/>
      <path id="HiraginoSans-W7-20" transform="scale(0.015625)"/>
      <path id="HiraginoSans-W7-306e" d="M 3776 4038 
C 4032 4006 4186 3955 4371 3834 
C 4806 3546 5056 3066 5056 2496 
C 5056 1818 4723 1222 4173 922 
C 3872 762 3475 659 2906 614 
C 3155 282 3245 109 3379 -294 
C 3834 -218 4090 -154 4397 -32 
C 5421 371 6003 1274 6003 2438 
C 6003 3936 4979 4896 3373 4896 
C 2458 4896 1670 4576 1120 3974 
C 653 3469 403 2803 403 2074 
C 403 973 966 198 1760 198 
C 2310 198 2733 576 3091 1389 
C 3424 2131 3648 2982 3776 4038 
z
M 2842 4026 
C 2765 3341 2566 2534 2330 1965 
C 2125 1446 1926 1197 1741 1197 
C 1491 1197 1286 1587 1286 2067 
C 1286 2707 1587 3328 2074 3706 
C 2323 3898 2534 3987 2842 4026 
z
" transform="scale(0.015625)"/>
      <path id="HiraginoSans-W7-8a08" d="M 4179 3501 
L 3853 3501 
C 3507 3501 3270 3514 3066 3539 
L 3066 2675 
C 3296 2701 3584 2714 3859 2714 
L 4179 2714 
L 4179 435 
C 4179 -45 4166 -314 4134 -557 
L 5075 -557 
C 5043 -282 5030 -19 5030 435 
L 5030 2714 
L 5402 2714 
C 5702 2714 5926 2701 6195 2675 
L 6195 3539 
C 5978 3514 5766 3501 5414 3501 
L 5030 3501 
L 5030 4595 
C 5030 4973 5043 5158 5069 5389 
L 4141 5389 
C 4173 5146 4179 4979 4179 4595 
L 4179 3501 
z
M 557 4576 
C 717 4589 883 4595 1126 4595 
L 2266 4595 
C 2515 4595 2662 4589 2829 4576 
L 2829 5254 
C 2656 5235 2541 5229 2266 5229 
L 1126 5229 
C 851 5229 723 5235 557 5254 
L 557 4576 
z
M 307 3610 
C 480 3629 627 3635 838 3635 
L 2541 3635 
C 2829 3635 2938 3629 3078 3610 
L 3078 4346 
C 2918 4326 2790 4320 2541 4320 
L 845 4320 
C 608 4320 461 4326 307 4352 
L 307 3610 
z
M 570 2707 
C 704 2726 774 2726 973 2726 
L 2432 2726 
C 2637 2726 2688 2726 2822 2707 
L 2822 3379 
C 2688 3360 2656 3360 2432 3360 
L 973 3360 
C 762 3360 710 3360 570 3379 
L 570 2707 
z
M 570 1792 
C 704 1811 768 1811 966 1811 
L 2419 1811 
C 2630 1811 2707 1805 2822 1792 
L 2822 2464 
C 2694 2445 2643 2445 2432 2445 
L 973 2445 
C 768 2445 678 2451 570 2464 
L 570 1792 
z
M 1344 -282 
L 2074 -282 
L 2074 -467 
L 2880 -467 
C 2854 -326 2848 -154 2848 96 
L 2848 1069 
C 2848 1274 2854 1414 2867 1555 
C 2752 1542 2662 1536 2470 1536 
L 998 1536 
C 749 1536 672 1536 544 1555 
C 563 1376 570 1267 570 1062 
L 570 51 
C 570 -186 563 -378 538 -557 
L 1344 -557 
L 1344 -282 
z
M 1325 890 
L 2080 890 
L 2080 378 
L 1325 378 
L 1325 890 
z
" transform="scale(0.015625)"/>
      <path id="HiraginoSans-W7-7b97" d="M 5523 4378 
C 5818 4378 6010 4371 6182 4352 
L 6182 5101 
C 6022 5082 5830 5069 5523 5069 
L 4416 5069 
C 4480 5197 4486 5210 4557 5357 
L 3744 5517 
C 3667 5222 3482 4890 3206 4557 
L 3206 5101 
C 3046 5075 2886 5069 2611 5069 
L 1894 5069 
C 1984 5248 1984 5248 2035 5344 
L 1229 5498 
C 1184 5325 1101 5158 941 4928 
C 749 4653 570 4467 262 4218 
C 454 4013 646 3770 768 3571 
C 947 3725 1005 3782 1107 3904 
C 1114 3814 1120 3725 1120 3590 
L 1120 1920 
C 1120 1594 1114 1440 1094 1280 
C 1312 1299 1402 1299 1754 1299 
L 2042 1299 
C 2035 1203 2035 1171 2029 1069 
L 1094 1069 
C 781 1069 576 1082 371 1107 
L 371 371 
C 582 390 826 403 1094 403 
L 1818 403 
C 1690 288 1555 218 1312 154 
C 1101 90 941 64 595 38 
C 819 -224 922 -358 1062 -627 
C 1568 -531 1856 -435 2118 -275 
C 2394 -109 2586 115 2694 403 
L 3910 403 
L 3910 0 
C 3910 -224 3898 -390 3872 -557 
L 4749 -557 
C 4717 -371 4710 -218 4710 6 
L 4710 403 
L 5408 403 
C 5715 403 5952 390 6170 365 
L 6170 1107 
C 5984 1082 5754 1069 5408 1069 
L 4710 1069 
L 4710 1299 
L 4838 1299 
C 5197 1299 5299 1299 5504 1280 
C 5485 1434 5478 1613 5478 1971 
L 5478 3264 
C 5478 3603 5485 3789 5498 3974 
C 5414 3968 5382 3962 5312 3962 
C 5178 4211 5152 4250 5069 4378 
L 5523 4378 
z
M 3693 3955 
C 3802 4083 3904 4211 4019 4378 
L 4288 4378 
C 4378 4243 4442 4122 4518 3955 
L 3693 3955 
z
M 1562 3955 
C 1338 3955 1299 3955 1165 3962 
C 1299 4128 1382 4230 1485 4378 
L 1754 4378 
C 1837 4224 1888 4115 1946 3955 
L 1562 3955 
z
M 2739 3955 
C 2662 4122 2630 4179 2509 4378 
L 2701 4378 
C 2816 4378 2899 4378 3027 4371 
L 2925 4275 
C 3130 4147 3206 4096 3354 3955 
L 2739 3955 
z
M 2822 1069 
C 2829 1152 2829 1152 2835 1299 
L 3910 1299 
L 3910 1069 
L 2822 1069 
z
M 1901 3411 
L 4698 3411 
L 4698 3206 
L 1901 3206 
L 1901 3411 
z
M 1901 2726 
L 4698 2726 
L 4698 2522 
L 1901 2522 
L 1901 2726 
z
M 1901 2048 
L 4698 2048 
L 4698 1850 
L 1901 1850 
L 1901 2048 
z
" transform="scale(0.015625)"/>
      <path id="HiraginoSans-W7-69cb" d="M 2317 1120 
C 2157 1120 2061 1126 1965 1139 
L 1965 429 
C 2067 448 2157 454 2317 454 
L 2317 262 
C 2317 -173 2310 -307 2285 -570 
L 3078 -570 
C 3059 -339 3053 -198 3053 262 
L 3053 454 
L 5024 454 
L 5024 224 
C 5024 109 4979 90 4768 90 
C 4634 90 4512 102 4262 134 
C 4352 -83 4384 -230 4403 -512 
C 4749 -525 4787 -525 4870 -525 
C 5606 -525 5754 -416 5754 115 
L 5754 454 
C 5946 448 6003 448 6144 429 
L 6144 1146 
C 6016 1126 5939 1120 5754 1120 
L 5754 2010 
C 5754 2298 5760 2445 5779 2630 
C 5626 2611 5472 2605 5197 2605 
L 4384 2605 
L 4384 2835 
L 5530 2835 
C 5792 2835 5933 2829 6125 2803 
L 6125 3469 
C 5933 3443 5779 3437 5536 3437 
L 5158 3437 
L 5158 3667 
L 5408 3667 
C 5645 3667 5734 3661 5869 3642 
L 5869 4205 
C 5741 4186 5555 4179 5402 4179 
L 5158 4179 
L 5158 4403 
L 5510 4403 
C 5760 4403 5875 4397 6035 4378 
L 6035 4992 
C 5856 4973 5702 4960 5510 4960 
L 5158 4960 
C 5158 5165 5165 5261 5197 5382 
L 4384 5382 
C 4416 5274 4422 5210 4422 4960 
L 3654 4960 
C 3654 5197 3661 5274 3699 5382 
L 2880 5382 
C 2912 5261 2918 5203 2918 4960 
L 2701 4960 
C 2490 4960 2349 4966 2189 4992 
L 2189 4378 
C 2349 4397 2502 4403 2714 4403 
L 2918 4403 
L 2918 4179 
L 2784 4179 
C 2598 4179 2464 4186 2317 4205 
L 2317 3648 
C 2432 3661 2566 3667 2778 3667 
L 2918 3667 
L 2918 3437 
L 2624 3437 
C 2381 3437 2227 3443 2093 3462 
L 2093 2867 
C 1933 3104 1830 3302 1747 3533 
L 1818 3533 
C 1952 3533 2042 3526 2163 3507 
L 2163 4294 
C 2035 4275 1965 4269 1798 4269 
L 1690 4269 
L 1690 4749 
C 1690 5043 1696 5235 1722 5414 
L 877 5414 
C 902 5242 915 5069 915 4742 
L 915 4269 
L 672 4269 
C 467 4269 378 4275 256 4301 
L 256 3501 
C 371 3526 486 3533 672 3533 
L 851 3533 
C 723 2899 435 2208 64 1677 
C 256 1408 358 1229 480 947 
C 672 1261 787 1510 960 2029 
C 934 1779 922 1478 922 1248 
L 922 230 
C 922 -83 909 -365 877 -576 
L 1728 -576 
C 1702 -358 1690 -102 1690 230 
L 1690 1696 
C 1683 2099 1677 2355 1664 2470 
C 1766 2214 1850 2067 1984 1888 
C 2080 2112 2176 2266 2310 2438 
C 2317 2298 2317 2234 2317 2048 
L 2317 1120 
z
M 3053 1075 
L 3053 1331 
L 3667 1331 
L 3667 1075 
L 3053 1075 
z
M 3053 1811 
L 3053 2061 
L 3667 2061 
L 3667 1811 
L 3053 1811 
z
M 4365 1075 
L 4365 1331 
L 5024 1331 
L 5024 1075 
L 4365 1075 
z
M 4365 1811 
L 4365 2061 
L 5024 2061 
L 5024 1811 
L 4365 1811 
z
M 3648 2835 
L 3648 2605 
L 2848 2605 
C 2630 2605 2451 2611 2310 2618 
C 2221 2701 2195 2726 2131 2810 
C 2266 2829 2464 2835 2662 2835 
L 3648 2835 
z
M 3654 3437 
L 3654 3667 
L 4422 3667 
L 4422 3437 
L 3654 3437 
z
M 3654 4179 
L 3654 4403 
L 4422 4403 
L 4422 4179 
L 3654 4179 
z
" transform="scale(0.015625)"/>
      <path id="HiraginoSans-W7-9020" d="M 2003 2778 
C 2189 2797 2342 2803 2534 2803 
L 5485 2803 
C 5709 2803 5875 2797 6080 2771 
L 6080 3539 
C 5926 3520 5779 3514 5485 3514 
L 4467 3514 
L 4467 3981 
L 5197 3981 
C 5510 3981 5683 3974 5882 3955 
L 5882 4730 
C 5690 4704 5498 4691 5165 4691 
L 4467 4691 
L 4467 4832 
C 4467 5133 4474 5261 4499 5395 
L 3654 5395 
C 3680 5248 3686 5120 3686 4832 
L 3686 4691 
L 3226 4691 
C 3264 4800 3347 5024 3360 5056 
C 3386 5133 3386 5133 3405 5178 
L 2605 5318 
C 2547 4909 2272 4390 1869 3923 
C 2176 3782 2298 3706 2554 3514 
C 2266 3514 2163 3520 2003 3539 
L 2003 2778 
z
M 2592 3514 
C 2752 3744 2784 3795 2893 3981 
L 3686 3981 
L 3686 3514 
L 2592 3514 
z
M 5107 646 
C 5414 646 5542 640 5728 627 
C 5709 781 5709 845 5709 1235 
L 5709 1862 
C 5709 2272 5709 2368 5728 2528 
C 5542 2509 5363 2502 5069 2502 
L 3046 2502 
C 2714 2502 2534 2509 2349 2528 
C 2362 2400 2362 2400 2368 1965 
L 2368 1498 
C 2368 781 2368 774 2349 627 
C 2502 640 2618 646 2886 646 
L 5107 646 
z
M 3136 1811 
L 4909 1811 
L 4909 1338 
L 3136 1338 
L 3136 1811 
z
M 250 4781 
C 627 4448 1030 4006 1325 3610 
L 1978 4230 
C 1670 4602 1312 4960 870 5344 
L 250 4781 
z
M 262 2170 
C 416 2189 544 2202 678 2202 
L 992 2202 
L 992 896 
C 774 723 685 659 480 531 
C 403 486 352 454 339 442 
C 275 403 205 371 128 339 
L 493 -531 
C 550 -486 640 -416 685 -384 
C 954 -205 1120 -70 1389 173 
C 1606 -96 1805 -230 2138 -333 
C 2477 -442 2880 -474 3936 -474 
C 4621 -474 5594 -454 6099 -435 
C 6150 -58 6170 32 6310 435 
C 5555 339 4704 301 3462 301 
C 2842 301 2496 346 2227 454 
C 2022 538 1926 621 1798 838 
L 1798 2278 
C 1798 2637 1805 2790 1824 2989 
C 1651 2970 1536 2963 1338 2963 
L 787 2963 
C 538 2963 435 2970 262 2995 
L 262 2170 
z
" transform="scale(0.015625)"/>
     </defs>
     <use xlink:href="#HiraginoSans-W7-53"/>
     <use xlink:href="#HiraginoSans-W7-69" transform="translate(73.799988 0)"/>
     <use xlink:href="#HiraginoSans-W7-6d" transform="translate(102.999985 0)"/>
     <use xlink:href="#HiraginoSans-W7-70" transform="translate(208.099976 0)"/>
     <use xlink:href="#HiraginoSans-W7-6c" transform="translate(281.799957 0)"/>
     <use xlink:href="#HiraginoSans-W7-65" transform="translate(310.899948 0)"/>
     <use xlink:href="#HiraginoSans-W7-46" transform="translate(376.999939 0)"/>
     <use xlink:href="#HiraginoSans-W7-75" transform="translate(443.499924 0)"/>
     <use xlink:href="#HiraginoSans-W7-6e" transform="translate(513.699905 0)"/>
     <use xlink:href="#HiraginoSans-W7-63" transform="translate(583.899887 0)"/>
     <use xlink:href="#HiraginoSans-W7-2e" transform="translate(648.699875 0)"/>
     <use xlink:href="#HiraginoSans-W7-6c" transform="translate(677.399872 0)"/>
     <use xlink:href="#HiraginoSans-W7-69" transform="translate(706.499863 0)"/>
     <use xlink:href="#HiraginoSans-W7-6e" transform="translate(735.69986 0)"/>
     <use xlink:href="#HiraginoSans-W7-74" transform="translate(805.899841 0)"/>
     <use xlink:href="#HiraginoSans-W7-65" transform="translate(851.399826 0)"/>
     <use xlink:href="#HiraginoSans-W7-67" transform="translate(917.499817 0)"/>
     <use xlink:href="#HiraginoSans-W7-72" transform="translate(988.799805 0)"/>
     <use xlink:href="#HiraginoSans-W7-61" transform="translate(1040.899796 0)"/>
     <use xlink:href="#HiraginoSans-W7-6c" transform="translate(1107.299789 0)"/>
     <use xlink:href="#HiraginoSans-W7-20" transform="translate(1136.39978 0)"/>
     <use xlink:href="#HiraginoSans-W7-306e" transform="translate(1169.699768 0)"/>
     <use xlink:href="#HiraginoSans-W7-8a08" transform="translate(1269.699753 0)"/>
     <use xlink:href="#HiraginoSans-W7-7b97" transform="translate(1369.699738 0)"/>
     <use xlink:href="#HiraginoSans-W7-69cb" transform="translate(1469.699722 0)"/>
     <use xlink:href="#HiraginoSans-W7-9020" transform="translate(1569.699707 0)"/>
    </g>
   </g>
  </g>
 </g>
 <defs>
  <clipPath id="p37fd30d1ea">
   <rect x="7.2" y="27.544375" width="558" height="304.92"/>
  </clipPath>
 </defs>
</svg>
