<?xml version="1.0" encoding="utf-8" standalone="no"?>
<!DOCTYPE svg PUBLIC "-//W3C//DTD SVG 1.1//EN"
  "http://www.w3.org/Graphics/SVG/1.1/DTD/svg11.dtd">
<svg xmlns:xlink="http://www.w3.org/1999/xlink" width="450.694687pt" height="340.974688pt" viewBox="0 0 450.694687 340.974688" xmlns="http://www.w3.org/2000/svg" version="1.1">
 <metadata>
  <rdf:RDF xmlns:dc="http://purl.org/dc/elements/1.1/" xmlns:cc="http://creativecommons.org/ns#" xmlns:rdf="http://www.w3.org/1999/02/22-rdf-syntax-ns#">
   <cc:Work>
    <dc:type rdf:resource="http://purl.org/dc/dcmitype/StillImage"/>
    <dc:date>2026-03-29T00:53:42.436828</dc:date>
    <dc:format>image/svg+xml</dc:format>
    <dc:creator>
     <cc:Agent>
      <dc:title>Matplotlib v3.10.8, https://matplotlib.org/</dc:title>
     </cc:Agent>
    </dc:creator>
   </cc:Work>
  </rdf:RDF>
 </metadata>
 <defs>
  <style type="text/css">*{stroke-linejoin: round; stroke-linecap: butt}</style>
 </defs>
 <g id="figure_1">
  <g id="patch_1">
   <path d="M 0 340.974688 
L 450.694687 340.974688 
L 450.694687 0 
L 0 0 
z
" style="fill: #ffffff"/>
  </g>
  <g id="axes_1">
   <g id="patch_2">
    <path d="M 44.915 302.28 
L 435.515 302.28 
L 435.515 25.08 
L 44.915 25.08 
z
" style="fill: #ffffff"/>
   </g>
   <g id="matplotlib.axis_1">
    <g id="xtick_1">
     <g id="line2d_1">
      <defs>
       <path id="mf695204199" d="M 0 0 
L 0 3.5 
" style="stroke: #000000; stroke-width: 0.8"/>
      </defs>
      <g>
       <use xlink:href="#mf695204199" x="44.915" y="302.28" style="stroke: #000000; stroke-width: 0.8"/>
      </g>
     </g>
     <g id="text_1">
      <!-- 0.0 -->
      <g transform="translate(36.935312 316.989375) scale(0.1 -0.1)">
       <defs>
        <path id="HiraginoSans-W4-30" d="M 2144 -90 
C 2758 -90 3232 141 3565 602 
C 3846 998 4019 1696 4019 2464 
C 4019 3002 3936 3501 3770 3949 
C 3693 4160 3558 4371 3379 4550 
C 3078 4858 2650 5024 2157 5024 
C 1498 5024 986 4742 666 4205 
C 435 3834 288 3142 288 2458 
C 288 1939 371 1434 538 986 
C 614 768 749 563 928 384 
C 1242 70 1651 -90 2144 -90 
z
M 2144 4499 
C 2592 4499 2918 4307 3123 3923 
C 3283 3629 3398 3014 3398 2470 
C 3398 2022 3341 1619 3213 1235 
C 3155 1043 3046 870 2912 730 
C 2726 538 2458 435 2150 435 
C 1734 435 1414 614 1197 973 
C 1024 1261 902 1875 902 2451 
C 902 2906 966 3328 1088 3699 
C 1139 3866 1235 4026 1370 4173 
C 1568 4397 1818 4499 2144 4499 
z
" transform="scale(0.015625)"/>
        <path id="HiraginoSans-W4-2e" d="M 442 723 
L 442 0 
L 1165 0 
L 1165 723 
L 442 723 
z
" transform="scale(0.015625)"/>
       </defs>
       <use xlink:href="#HiraginoSans-W4-30"/>
       <use xlink:href="#HiraginoSans-W4-2e" transform="translate(67.299988 0)"/>
       <use xlink:href="#HiraginoSans-W4-30" transform="translate(92.299973 0)"/>
      </g>
     </g>
    </g>
    <g id="xtick_2">
     <g id="line2d_2">
      <g>
       <use xlink:href="#mf695204199" x="123.035" y="302.28" style="stroke: #000000; stroke-width: 0.8"/>
      </g>
     </g>
     <g id="text_2">
      <!-- 0.2 -->
      <g transform="translate(115.055312 316.989375) scale(0.1 -0.1)">
       <defs>
        <path id="HiraginoSans-W4-32" d="M 3078 0 
C 3424 0 3642 -6 3917 -32 
L 3917 589 
C 3693 557 3430 544 3091 544 
L 1114 544 
C 1280 1114 1606 1478 2451 2042 
C 3181 2528 3341 2656 3546 2912 
C 3738 3142 3846 3443 3846 3744 
C 3846 4525 3200 5030 2202 5030 
C 1613 5030 1158 4858 858 4518 
C 640 4269 531 4026 442 3565 
L 1088 3469 
C 1139 3782 1190 3936 1306 4102 
C 1491 4371 1792 4506 2208 4506 
C 2816 4506 3206 4211 3206 3744 
C 3206 3360 2995 3085 2387 2675 
C 1754 2246 1600 2138 1389 1952 
C 979 1594 710 1229 544 806 
C 448 563 429 461 365 -26 
C 576 -6 678 0 1107 0 
L 3078 0 
z
" transform="scale(0.015625)"/>
       </defs>
       <use xlink:href="#HiraginoSans-W4-30"/>
       <use xlink:href="#HiraginoSans-W4-2e" transform="translate(67.299988 0)"/>
       <use xlink:href="#HiraginoSans-W4-32" transform="translate(92.299973 0)"/>
      </g>
     </g>
    </g>
    <g id="xtick_3">
     <g id="line2d_3">
      <g>
       <use xlink:href="#mf695204199" x="201.155" y="302.28" style="stroke: #000000; stroke-width: 0.8"/>
      </g>
     </g>
     <g id="text_3">
      <!-- 0.4 -->
      <g transform="translate(193.165156 316.989375) scale(0.1 -0.1)">
       <defs>
        <path id="HiraginoSans-W4-34" d="M 179 1210 
C 403 1229 589 1235 954 1235 
L 2688 1235 
L 2688 710 
C 2688 410 2675 218 2630 0 
L 3309 0 
C 3270 230 3258 390 3258 704 
L 3258 1235 
L 3494 1235 
C 3763 1235 3910 1222 4154 1190 
L 4154 1798 
C 3917 1766 3750 1754 3494 1754 
L 3258 1754 
L 3258 3853 
C 3258 4358 3264 4544 3296 4934 
L 2701 4934 
C 2560 4704 2445 4550 2214 4269 
L 621 2298 
C 467 2099 326 1939 179 1773 
L 179 1210 
z
M 2688 1747 
L 858 1747 
L 2259 3514 
C 2464 3763 2592 3936 2720 4128 
C 2694 3814 2688 3622 2688 3283 
L 2688 1747 
z
" transform="scale(0.015625)"/>
       </defs>
       <use xlink:href="#HiraginoSans-W4-30"/>
       <use xlink:href="#HiraginoSans-W4-2e" transform="translate(67.299988 0)"/>
       <use xlink:href="#HiraginoSans-W4-34" transform="translate(92.299973 0)"/>
      </g>
     </g>
    </g>
    <g id="xtick_4">
     <g id="line2d_4">
      <g>
       <use xlink:href="#mf695204199" x="279.275" y="302.28" style="stroke: #000000; stroke-width: 0.8"/>
      </g>
     </g>
     <g id="text_4">
      <!-- 0.6 -->
      <g transform="translate(271.295313 316.989375) scale(0.1 -0.1)">
       <defs>
        <path id="HiraginoSans-W4-36" d="M 3846 3994 
C 3706 4301 3616 4442 3462 4602 
C 3187 4877 2784 5024 2304 5024 
C 1683 5024 1222 4794 864 4307 
C 557 3891 371 3162 371 2355 
C 371 1446 614 704 1043 320 
C 1331 58 1773 -90 2253 -90 
C 3277 -90 3968 589 3968 1587 
C 3968 2586 3334 3213 2323 3213 
C 1894 3213 1568 3104 1274 2854 
C 1133 2739 1062 2656 941 2458 
C 979 3085 1043 3392 1210 3763 
C 1434 4262 1798 4518 2285 4518 
C 2765 4518 3040 4314 3238 3821 
L 3846 3994 
z
M 2266 2714 
C 2950 2714 3366 2285 3366 1574 
C 3366 1325 3309 1088 3206 922 
C 3008 614 2643 422 2234 422 
C 1568 422 1069 915 1069 1574 
C 1069 2234 1574 2714 2266 2714 
z
" transform="scale(0.015625)"/>
       </defs>
       <use xlink:href="#HiraginoSans-W4-30"/>
       <use xlink:href="#HiraginoSans-W4-2e" transform="translate(67.299988 0)"/>
       <use xlink:href="#HiraginoSans-W4-36" transform="translate(92.299973 0)"/>
      </g>
     </g>
    </g>
    <g id="xtick_5">
     <g id="line2d_5">
      <g>
       <use xlink:href="#mf695204199" x="357.395" y="302.28" style="stroke: #000000; stroke-width: 0.8"/>
      </g>
     </g>
     <g id="text_5">
      <!-- 0.8 -->
      <g transform="translate(349.415312 316.989375) scale(0.1 -0.1)">
       <defs>
        <path id="HiraginoSans-W4-38" d="M 1446 2586 
C 1203 2547 1056 2490 851 2355 
C 480 2106 294 1754 294 1299 
C 294 397 966 -102 2163 -102 
C 3347 -102 4006 397 4006 1299 
C 4006 1728 3853 2061 3539 2304 
C 3322 2470 3136 2547 2867 2586 
C 3437 2714 3789 3162 3789 3757 
C 3789 4550 3162 5043 2150 5043 
C 1146 5043 512 4544 512 3750 
C 512 3162 877 2701 1446 2586 
z
M 2150 4538 
C 2784 4538 3187 4211 3187 3699 
C 3187 3155 2797 2829 2157 2829 
C 1510 2829 1114 3162 1114 3699 
C 1114 4211 1523 4538 2150 4538 
z
M 2157 2304 
C 2912 2304 3373 1939 3373 1344 
C 3373 749 2925 410 2144 410 
C 1376 410 928 749 928 1338 
C 928 1939 1389 2304 2157 2304 
z
" transform="scale(0.015625)"/>
       </defs>
       <use xlink:href="#HiraginoSans-W4-30"/>
       <use xlink:href="#HiraginoSans-W4-2e" transform="translate(67.299988 0)"/>
       <use xlink:href="#HiraginoSans-W4-38" transform="translate(92.299973 0)"/>
      </g>
     </g>
    </g>
    <g id="xtick_6">
     <g id="line2d_6">
      <g>
       <use xlink:href="#mf695204199" x="435.515" y="302.28" style="stroke: #000000; stroke-width: 0.8"/>
      </g>
     </g>
     <g id="text_6">
      <!-- 1.0 -->
      <g transform="translate(427.535312 316.989375) scale(0.1 -0.1)">
       <defs>
        <path id="HiraginoSans-W4-31" d="M 1018 4371 
C 1222 4397 1389 4410 1606 4410 
L 1939 4410 
L 1939 755 
C 1939 454 1926 237 1888 0 
L 2598 0 
C 2560 250 2547 448 2547 755 
L 2547 3904 
C 2547 4256 2566 4582 2605 4966 
C 2387 4941 2278 4934 2035 4934 
L 1581 4934 
C 1325 4934 1197 4941 1018 4966 
L 1018 4371 
z
" transform="scale(0.015625)"/>
       </defs>
       <use xlink:href="#HiraginoSans-W4-31"/>
       <use xlink:href="#HiraginoSans-W4-2e" transform="translate(67.299988 0)"/>
       <use xlink:href="#HiraginoSans-W4-30" transform="translate(92.299973 0)"/>
      </g>
     </g>
    </g>
    <g id="text_7">
     <!-- x -->
     <g transform="translate(237.140156 331.519688) scale(0.11 -0.11)">
      <defs>
       <path id="HiraginoSans-W4-78" d="M 3469 0 
C 3238 294 3078 512 3008 614 
L 2138 1824 
L 2963 2982 
C 3021 3072 3168 3270 3206 3322 
C 3315 3462 3315 3462 3354 3520 
L 2630 3520 
C 2566 3386 2483 3238 2368 3072 
L 1792 2227 
L 1203 3072 
C 1088 3238 1024 3360 947 3520 
L 211 3520 
C 474 3174 557 3072 608 3002 
L 1440 1830 
L 531 563 
C 422 410 237 160 109 0 
L 858 0 
C 966 205 1018 294 1114 435 
L 1786 1421 
L 2426 486 
C 2566 288 2624 192 2720 0 
L 3469 0 
z
" transform="scale(0.015625)"/>
      </defs>
      <use xlink:href="#HiraginoSans-W4-78"/>
     </g>
    </g>
   </g>
   <g id="matplotlib.axis_2">
    <g id="ytick_1">
     <g id="line2d_7">
      <defs>
       <path id="mc9b2465566" d="M 0 0 
L -3.5 0 
" style="stroke: #000000; stroke-width: 0.8"/>
      </defs>
      <g>
       <use xlink:href="#mc9b2465566" x="44.915" y="302.28" style="stroke: #000000; stroke-width: 0.8"/>
      </g>
     </g>
     <g id="text_8">
      <!-- 0.0 -->
      <g transform="translate(21.955625 306.134688) scale(0.1 -0.1)">
       <use xlink:href="#HiraginoSans-W4-30"/>
       <use xlink:href="#HiraginoSans-W4-2e" transform="translate(67.299988 0)"/>
       <use xlink:href="#HiraginoSans-W4-30" transform="translate(92.299973 0)"/>
      </g>
     </g>
    </g>
    <g id="ytick_2">
     <g id="line2d_8">
      <g>
       <use xlink:href="#mc9b2465566" x="44.915" y="256.08" style="stroke: #000000; stroke-width: 0.8"/>
      </g>
     </g>
     <g id="text_9">
      <!-- 0.2 -->
      <g transform="translate(21.955625 259.934688) scale(0.1 -0.1)">
       <use xlink:href="#HiraginoSans-W4-30"/>
       <use xlink:href="#HiraginoSans-W4-2e" transform="translate(67.299988 0)"/>
       <use xlink:href="#HiraginoSans-W4-32" transform="translate(92.299973 0)"/>
      </g>
     </g>
    </g>
    <g id="ytick_3">
     <g id="line2d_9">
      <g>
       <use xlink:href="#mc9b2465566" x="44.915" y="209.88" style="stroke: #000000; stroke-width: 0.8"/>
      </g>
     </g>
     <g id="text_10">
      <!-- 0.4 -->
      <g transform="translate(21.935312 213.734688) scale(0.1 -0.1)">
       <use xlink:href="#HiraginoSans-W4-30"/>
       <use xlink:href="#HiraginoSans-W4-2e" transform="translate(67.299988 0)"/>
       <use xlink:href="#HiraginoSans-W4-34" transform="translate(92.299973 0)"/>
      </g>
     </g>
    </g>
    <g id="ytick_4">
     <g id="line2d_10">
      <g>
       <use xlink:href="#mc9b2465566" x="44.915" y="163.68" style="stroke: #000000; stroke-width: 0.8"/>
      </g>
     </g>
     <g id="text_11">
      <!-- 0.6 -->
      <g transform="translate(21.955625 167.534688) scale(0.1 -0.1)">
       <use xlink:href="#HiraginoSans-W4-30"/>
       <use xlink:href="#HiraginoSans-W4-2e" transform="translate(67.299988 0)"/>
       <use xlink:href="#HiraginoSans-W4-36" transform="translate(92.299973 0)"/>
      </g>
     </g>
    </g>
    <g id="ytick_5">
     <g id="line2d_11">
      <g>
       <use xlink:href="#mc9b2465566" x="44.915" y="117.48" style="stroke: #000000; stroke-width: 0.8"/>
      </g>
     </g>
     <g id="text_12">
      <!-- 0.8 -->
      <g transform="translate(21.955625 121.334688) scale(0.1 -0.1)">
       <use xlink:href="#HiraginoSans-W4-30"/>
       <use xlink:href="#HiraginoSans-W4-2e" transform="translate(67.299988 0)"/>
       <use xlink:href="#HiraginoSans-W4-38" transform="translate(92.299973 0)"/>
      </g>
     </g>
    </g>
    <g id="ytick_6">
     <g id="line2d_12">
      <g>
       <use xlink:href="#mc9b2465566" x="44.915" y="71.28" style="stroke: #000000; stroke-width: 0.8"/>
      </g>
     </g>
     <g id="text_13">
      <!-- 1.0 -->
      <g transform="translate(21.955625 75.134688) scale(0.1 -0.1)">
       <use xlink:href="#HiraginoSans-W4-31"/>
       <use xlink:href="#HiraginoSans-W4-2e" transform="translate(67.299988 0)"/>
       <use xlink:href="#HiraginoSans-W4-30" transform="translate(92.299973 0)"/>
      </g>
     </g>
    </g>
    <g id="ytick_7">
     <g id="line2d_13">
      <g>
       <use xlink:href="#mc9b2465566" x="44.915" y="25.08" style="stroke: #000000; stroke-width: 0.8"/>
      </g>
     </g>
     <g id="text_14">
      <!-- 1.2 -->
      <g transform="translate(21.955625 28.934687) scale(0.1 -0.1)">
       <use xlink:href="#HiraginoSans-W4-31"/>
       <use xlink:href="#HiraginoSans-W4-2e" transform="translate(67.299988 0)"/>
       <use xlink:href="#HiraginoSans-W4-32" transform="translate(92.299973 0)"/>
      </g>
     </g>
    </g>
    <g id="text_15">
     <!-- y -->
     <g transform="translate(15.625312 166.837344) rotate(-90) scale(0.11 -0.11)">
      <defs>
       <path id="HiraginoSans-W4-79" d="M 1600 154 
L 1325 -486 
C 1229 -710 1069 -832 858 -832 
C 730 -832 621 -800 442 -717 
L 301 -1274 
C 550 -1325 710 -1344 864 -1344 
C 1357 -1344 1664 -1146 1843 -717 
L 3283 2758 
C 3462 3181 3571 3437 3603 3520 
L 2912 3520 
C 2880 3334 2829 3168 2694 2816 
L 1901 768 
L 1011 2822 
C 902 3072 819 3341 787 3520 
L 64 3520 
C 134 3386 134 3386 422 2758 
L 1600 154 
z
" transform="scale(0.015625)"/>
      </defs>
      <use xlink:href="#HiraginoSans-W4-79"/>
     </g>
    </g>
   </g>
   <g id="line2d_14">
    <path d="M 44.915 302.28 
L 435.515 186.78 
L 435.515 186.78 
" clip-path="url(#pb67d55ec90)" style="fill: none; stroke: #cde8f7; stroke-opacity: 0.85; stroke-width: 2; stroke-linecap: square"/>
   </g>
   <g id="line2d_15">
    <path d="M 44.915 302.28 
L 435.515 148.28 
L 435.515 148.28 
" clip-path="url(#pb67d55ec90)" style="fill: none; stroke: #93c5fd; stroke-opacity: 0.85; stroke-width: 2; stroke-linecap: square"/>
   </g>
   <g id="line2d_16">
    <path d="M 44.915 302.28 
L 435.515 129.03 
L 435.515 129.03 
" clip-path="url(#pb67d55ec90)" style="fill: none; stroke: #3b82f6; stroke-opacity: 0.85; stroke-width: 2; stroke-linecap: square"/>
   </g>
   <g id="line2d_17">
    <path d="M 44.915 302.28 
L 435.515 109.78 
L 435.515 109.78 
" clip-path="url(#pb67d55ec90)" style="fill: none; stroke: #1d4ed8; stroke-opacity: 0.85; stroke-width: 2; stroke-linecap: square"/>
   </g>
   <g id="line2d_18">
    <path d="M 44.915 302.28 
L 435.515 71.28 
L 435.515 71.28 
" clip-path="url(#pb67d55ec90)" style="fill: none; stroke: #c0392b; stroke-width: 2.5; stroke-linecap: square"/>
   </g>
   <g id="patch_3">
    <path d="M 44.915 302.28 
L 44.915 25.08 
" style="fill: none; stroke: #000000; stroke-width: 0.8; stroke-linejoin: miter; stroke-linecap: square"/>
   </g>
   <g id="patch_4">
    <path d="M 44.915 302.28 
L 435.515 302.28 
" style="fill: none; stroke: #000000; stroke-width: 0.8; stroke-linejoin: miter; stroke-linecap: square"/>
   </g>
   <g id="patch_5">
    <path d="M 318.335 165.533094 
Q 318.335 154.057169 318.335 144.258294 
" style="fill: none; stroke: #555555; stroke-width: 1.5; stroke-linecap: round"/>
    <path d="M 316.335 148.258294 
L 318.335 144.258294 
L 320.335 148.258294 
" style="fill: none; stroke: #555555; stroke-width: 1.5; stroke-linecap: round"/>
   </g>
   <g id="text_16">
    <!-- $\int f_n \nearrow \int f$ -->
    <g style="fill: #555555" transform="translate(326.147 147.51) scale(0.09 -0.09)">
     <defs>
      <path id="DejaVuSansDisplay-222b" d="M 2134 5525 
Q 2172 6263 2528 6556 
Q 2884 6850 3218 6850 
Q 3553 6850 3833 6575 
Q 4113 6300 4200 5678 
L 3544 5613 
Q 3469 6188 3219 6188 
Q 2906 6188 2869 5413 
L 2581 -597 
Q 2547 -1334 2187 -1628 
Q 1828 -1922 1497 -1922 
Q 1163 -1922 883 -1647 
Q 603 -1372 516 -750 
L 1172 -684 
Q 1247 -1259 1497 -1259 
Q 1809 -1259 1847 -488 
L 2134 5525 
z
" transform="scale(0.015625)"/>
      <path id="DejaVuSans-Oblique-66" d="M 3059 4863 
L 2969 4384 
L 2419 4384 
Q 2106 4384 1964 4261 
Q 1822 4138 1753 3809 
L 1691 3500 
L 2638 3500 
L 2553 3053 
L 1606 3053 
L 1013 0 
L 434 0 
L 1031 3053 
L 481 3053 
L 563 3500 
L 1113 3500 
L 1159 3744 
Q 1278 4363 1576 4613 
Q 1875 4863 2516 4863 
L 3059 4863 
z
" transform="scale(0.015625)"/>
      <path id="DejaVuSans-Oblique-6e" d="M 3566 2113 
L 3156 0 
L 2578 0 
L 2988 2091 
Q 3016 2238 3031 2350 
Q 3047 2463 3047 2528 
Q 3047 2791 2881 2937 
Q 2716 3084 2419 3084 
Q 1956 3084 1622 2776 
Q 1288 2469 1184 1941 
L 800 0 
L 225 0 
L 903 3500 
L 1478 3500 
L 1363 2950 
Q 1603 3253 1940 3418 
Q 2278 3584 2650 3584 
Q 3113 3584 3367 3334 
Q 3622 3084 3622 2631 
Q 3622 2519 3608 2391 
Q 3594 2263 3566 2113 
z
" transform="scale(0.015625)"/>
      <path id="DejaVuSans-2197" d="M 4300 3759 
L 4497 3563 
L 4497 1825 
L 3969 1825 
L 3969 2856 
L 1275 163 
L 900 538 
L 3594 3231 
L 2563 3231 
L 2563 3759 
L 4300 3759 
z
" transform="scale(0.015625)"/>
     </defs>
     <use xlink:href="#DejaVuSansDisplay-222b" transform="translate(0 0.96875)"/>
     <use xlink:href="#DejaVuSans-Oblique-66" transform="translate(73.632812 0.96875)"/>
     <use xlink:href="#DejaVuSans-Oblique-6e" transform="translate(108.837891 -15.4375) scale(0.7)"/>
     <use xlink:href="#DejaVuSans-2197" transform="translate(175.419922 0.96875)"/>
     <use xlink:href="#DejaVuSansDisplay-222b" transform="translate(278.691406 0.96875)"/>
     <use xlink:href="#DejaVuSans-Oblique-66" transform="translate(352.324219 0.96875)"/>
    </g>
   </g>
   <g id="text_17">
    <!-- 単調収束定理：$f_n \nearrow f$ ならば $\int f_n \to \int f$ -->
    <g style="fill: #1a1a2e" transform="translate(146.99 19.08) scale(0.11 -0.11)">
     <defs>
      <path id="HiraginoSans-W7-5358" d="M 2746 1549 
L 2746 1203 
L 1005 1203 
C 672 1203 474 1210 275 1235 
L 275 403 
C 486 429 742 442 1082 442 
L 2746 442 
L 2746 102 
C 2746 -218 2739 -371 2707 -570 
L 3603 -570 
C 3571 -352 3565 -230 3565 102 
L 3565 442 
L 5286 442 
C 5626 442 5920 429 6106 403 
L 6106 1235 
C 5920 1216 5722 1203 5376 1203 
L 3565 1203 
L 3565 1549 
L 4896 1549 
C 5178 1549 5382 1542 5606 1530 
C 5581 1728 5574 1888 5574 2202 
L 5574 3597 
C 5574 3942 5581 4128 5606 4294 
C 5504 4282 5299 4275 4986 4269 
C 5184 4531 5312 4730 5549 5114 
L 4678 5389 
C 4531 5005 4320 4627 4064 4269 
L 3034 4269 
L 3750 4518 
C 3565 4954 3494 5088 3258 5453 
L 2458 5254 
C 2726 4806 2797 4672 2931 4269 
L 1670 4269 
L 2176 4467 
C 1984 4819 1856 5005 1568 5357 
L 794 5069 
C 1050 4762 1184 4557 1325 4269 
C 1120 4269 941 4275 781 4294 
C 806 4115 813 3923 813 3597 
L 813 2189 
C 813 1901 806 1741 781 1530 
C 1005 1542 1190 1549 1485 1549 
L 2746 1549 
z
M 3565 3232 
L 3565 3590 
L 4755 3590 
L 4755 3232 
L 3565 3232 
z
M 2746 3232 
L 1632 3232 
L 1632 3590 
L 2746 3590 
L 2746 3232 
z
M 3565 2227 
L 3565 2586 
L 4755 2586 
L 4755 2227 
L 3565 2227 
z
M 2746 2227 
L 1632 2227 
L 1632 2586 
L 2746 2586 
L 2746 2227 
z
" transform="scale(0.015625)"/>
      <path id="HiraginoSans-W7-8abf" d="M 5299 2490 
L 5299 371 
C 5299 243 5254 224 5024 224 
C 4870 224 4685 237 4512 256 
C 4608 38 4646 -122 4678 -486 
C 4768 -493 4845 -493 4890 -493 
C 4992 -493 5222 -480 5350 -474 
C 5600 -448 5702 -422 5824 -346 
C 5971 -250 6048 -58 6048 211 
L 6048 4480 
C 6048 4832 6054 5011 6080 5254 
C 5901 5229 5747 5222 5382 5222 
L 3328 5222 
C 2982 5222 2842 5229 2618 5254 
C 2650 4973 2656 4774 2656 4077 
C 2656 1888 2566 858 2317 237 
L 2317 1101 
C 2317 1357 2317 1434 2330 1549 
C 2253 1536 2253 1536 1952 1530 
L 845 1530 
C 589 1530 525 1530 403 1549 
C 422 1376 429 1261 429 1062 
L 429 70 
C 429 -134 416 -352 397 -550 
L 1139 -550 
L 1139 -256 
L 1645 -256 
L 1645 -435 
L 2330 -435 
C 2323 -320 2317 -250 2317 -109 
C 2483 -237 2592 -339 2816 -576 
C 3034 -115 3136 256 3219 877 
C 3290 1402 3334 1952 3341 2490 
L 5299 2490 
z
M 3987 3117 
L 3354 3117 
L 3360 3488 
L 3987 3488 
L 3987 3117 
z
M 4666 3117 
L 4666 3488 
L 5299 3488 
L 5299 3117 
L 4666 3117 
z
M 4666 4518 
L 5299 4518 
L 5299 4115 
L 4666 4115 
L 4666 4518 
z
M 3987 4518 
L 3987 4115 
L 3366 4115 
L 3366 4518 
L 3987 4518 
z
M 1114 922 
L 1651 922 
L 1651 397 
L 1114 397 
L 1114 922 
z
M 454 4570 
C 621 4582 755 4589 998 4589 
L 1779 4589 
C 2029 4589 2157 4582 2323 4570 
L 2323 5254 
C 2163 5235 2048 5229 1779 5229 
L 998 5229 
C 730 5229 614 5235 454 5254 
L 454 4570 
z
M 275 3597 
C 429 3616 570 3622 794 3622 
L 1952 3622 
C 2234 3622 2317 3616 2445 3603 
L 2445 4352 
C 2285 4333 2195 4326 1926 4326 
L 794 4326 
C 544 4326 422 4333 275 4352 
L 275 3597 
z
M 448 2701 
C 563 2720 634 2720 838 2720 
L 1914 2720 
C 2106 2720 2176 2714 2291 2701 
L 2291 3366 
C 2189 3347 2118 3347 1914 3347 
L 838 3347 
C 640 3347 570 3347 448 3366 
L 448 2701 
z
M 448 1798 
C 570 1811 646 1818 832 1818 
L 1894 1818 
C 2099 1818 2176 1811 2291 1798 
L 2291 2464 
C 2189 2451 2112 2445 1907 2445 
L 838 2445 
C 640 2445 570 2445 448 2464 
L 448 1798 
z
M 5030 1824 
C 5030 2029 5037 2131 5050 2259 
C 4966 2246 4838 2240 4634 2240 
L 3891 2240 
C 3718 2240 3590 2246 3475 2259 
C 3488 2131 3494 2022 3494 1811 
L 3494 531 
C 3494 282 3488 122 3469 -13 
L 4083 -13 
L 4083 442 
L 4634 442 
C 4646 442 4742 435 4922 429 
C 4979 429 4998 429 5043 422 
C 5037 499 5030 576 5030 762 
L 5030 1824 
z
M 4058 1594 
L 4467 1594 
L 4467 1101 
L 4058 1101 
L 4058 1594 
z
" transform="scale(0.015625)"/>
      <path id="HiraginoSans-W7-53ce" d="M 1357 4013 
C 1357 4378 1363 4557 1395 4781 
L 518 4781 
C 550 4531 557 4371 557 4013 
L 557 1389 
C 435 1357 390 1350 173 1318 
L 320 435 
C 454 486 486 499 627 550 
C 1094 710 1574 890 1882 1018 
L 1882 230 
C 1882 -128 1875 -288 1843 -544 
L 2746 -544 
C 2720 -333 2707 -179 2707 147 
C 2758 77 2758 77 2778 51 
C 2976 -218 3014 -282 3136 -570 
C 3674 -192 4064 179 4461 685 
C 4845 243 5338 -192 5882 -563 
C 6022 -179 6106 -6 6298 307 
C 5728 646 5357 960 4954 1427 
C 5517 2445 5824 3494 5952 4851 
C 5971 5037 5971 5037 5984 5126 
C 5805 5107 5664 5101 5459 5101 
L 3571 5101 
C 3270 5101 3085 5114 2848 5139 
L 2848 4288 
C 2995 4307 3142 4314 3494 4314 
L 3827 4314 
L 3021 4006 
C 3085 3795 3085 3795 3200 3322 
C 3398 2515 3629 1926 3962 1370 
C 3757 1094 3584 902 3315 659 
C 3078 448 2970 365 2707 211 
L 2707 4614 
C 2707 4979 2714 5158 2746 5382 
L 1843 5382 
C 1875 5126 1882 4966 1882 4614 
L 1882 1798 
C 1638 1702 1555 1677 1357 1613 
L 1357 4013 
z
M 5030 4314 
C 4922 3450 4762 2867 4448 2189 
C 4154 2771 4019 3258 3846 4314 
L 5030 4314 
z
" transform="scale(0.015625)"/>
      <path id="HiraginoSans-W7-675f" d="M 2726 4096 
L 2726 3725 
L 1472 3725 
C 1133 3725 922 3731 781 3744 
C 800 3533 806 3411 806 3104 
L 806 2278 
C 806 1946 800 1811 781 1632 
C 954 1658 1139 1664 1491 1664 
L 2266 1664 
C 1805 1101 1088 653 115 320 
C 326 64 429 -128 557 -454 
C 1542 -32 2189 442 2752 1139 
C 2739 1037 2726 768 2726 710 
L 2726 83 
C 2726 -205 2714 -352 2682 -557 
L 3590 -557 
C 3558 -384 3552 -211 3552 90 
L 3552 704 
C 3539 902 3533 1005 3533 1011 
C 3533 1069 3533 1075 3526 1139 
C 4134 390 4787 -70 5824 -480 
C 5984 -77 6061 64 6259 339 
C 5286 602 4538 1037 3994 1664 
L 4896 1664 
C 5203 1664 5421 1658 5600 1632 
C 5594 1690 5587 1907 5574 2278 
L 5574 3110 
C 5574 3354 5581 3507 5600 3744 
C 5434 3731 5434 3731 4902 3725 
L 3552 3725 
L 3552 4096 
L 5421 4096 
C 5651 4096 5888 4083 6112 4064 
L 6112 4915 
C 5894 4883 5747 4877 5402 4877 
L 3552 4877 
C 3552 5094 3558 5222 3590 5414 
L 2682 5414 
C 2714 5229 2726 5088 2726 4877 
L 979 4877 
C 646 4877 493 4883 282 4915 
L 282 4064 
C 499 4083 736 4096 960 4096 
L 2726 4096 
z
M 2726 2995 
L 2726 2368 
L 1600 2368 
L 1600 2995 
L 2726 2995 
z
M 3552 2995 
L 4781 2995 
L 4781 2368 
L 3552 2368 
L 3552 2995 
z
" transform="scale(0.015625)"/>
      <path id="HiraginoSans-W7-5b9a" d="M 2893 608 
C 2490 787 2266 986 2016 1402 
C 2112 1715 2195 2010 2272 2330 
L 1434 2483 
C 1395 2086 1210 1498 998 1101 
C 781 698 563 403 218 70 
C 512 -141 666 -294 870 -563 
C 1235 -173 1453 147 1696 627 
C 1971 256 2291 13 2714 -160 
C 3149 -333 3795 -416 4698 -416 
C 5043 -416 5427 -410 5978 -397 
C 6016 -51 6061 134 6176 461 
C 5472 403 5062 384 4640 384 
C 4256 384 3987 397 3693 429 
L 3693 1376 
L 4870 1376 
C 5171 1376 5325 1370 5517 1344 
L 5517 2144 
C 5338 2118 5190 2112 4870 2112 
L 3693 2112 
L 3693 2816 
L 4646 2816 
C 4954 2816 5126 2810 5312 2784 
L 5312 3264 
L 6029 3264 
C 6003 3443 5997 3603 5997 3795 
L 5997 4346 
C 5997 4531 6003 4666 6022 4832 
C 5773 4813 5542 4806 5286 4806 
L 3603 4806 
L 3603 4998 
C 3603 5165 3610 5261 3635 5402 
L 2714 5402 
C 2739 5261 2746 5158 2746 4992 
L 2746 4806 
L 1126 4806 
C 870 4806 640 4813 390 4832 
C 410 4672 416 4512 416 4346 
L 416 3802 
C 416 3565 410 3424 384 3264 
L 1114 3264 
L 1114 2784 
C 1293 2810 1485 2816 1779 2816 
L 2893 2816 
L 2893 608 
z
M 5203 3571 
C 5043 3558 4883 3552 4646 3552 
L 1779 3552 
C 1536 3552 1376 3558 1222 3571 
L 1222 4051 
L 5203 4051 
L 5203 3571 
z
" transform="scale(0.015625)"/>
      <path id="HiraginoSans-W7-7406" d="M 3789 371 
L 2726 371 
C 2381 371 2240 378 2054 403 
L 2054 -403 
C 2291 -371 2470 -365 2835 -365 
L 5440 -365 
C 5805 -365 5990 -371 6202 -403 
L 6202 403 
C 6029 378 5856 371 5504 371 
L 4550 371 
L 4550 864 
L 5306 864 
C 5645 864 5805 858 5997 832 
L 5997 1619 
C 5818 1594 5670 1587 5299 1587 
L 4550 1587 
L 4550 2042 
L 5286 2042 
C 5664 2042 5760 2042 5952 2022 
C 5926 2221 5920 2438 5920 2899 
L 5920 4307 
C 5920 4710 5933 5030 5952 5216 
C 5792 5190 5600 5184 5120 5184 
L 3322 5184 
C 2899 5184 2707 5190 2432 5216 
C 2464 4998 2470 4794 2470 4333 
L 2470 2842 
C 2470 2432 2464 2170 2438 2022 
C 2618 2035 2778 2042 3200 2042 
L 3789 2042 
L 3789 1587 
L 3123 1587 
C 2720 1587 2592 1594 2438 1613 
L 2438 838 
C 2605 858 2739 864 3130 864 
L 3789 864 
L 3789 371 
z
M 3789 4448 
L 3789 3930 
L 3232 3930 
L 3232 4448 
L 3789 4448 
z
M 4550 4448 
L 5126 4448 
L 5126 3930 
L 4550 3930 
L 4550 4448 
z
M 3789 3283 
L 3789 2752 
L 3232 2752 
L 3232 3283 
L 3789 3283 
z
M 4550 3283 
L 5126 3283 
L 5126 2752 
L 4550 2752 
L 4550 3283 
z
M 915 4371 
L 915 3245 
L 787 3245 
C 582 3245 480 3251 326 3270 
L 326 2496 
C 467 2515 582 2522 768 2522 
L 915 2522 
L 915 1126 
C 467 966 397 947 179 902 
L 378 38 
C 435 70 467 83 512 102 
C 1389 461 1773 627 2298 890 
L 2285 1696 
C 2016 1562 1926 1523 1709 1434 
L 1709 2522 
L 1805 2522 
C 1952 2522 2080 2515 2208 2502 
L 2208 3270 
C 2067 3251 1971 3245 1805 3245 
L 1709 3245 
L 1709 4371 
L 1850 4371 
C 2022 4371 2157 4365 2310 4346 
L 2310 5146 
C 2150 5126 1978 5114 1722 5114 
L 845 5114 
C 589 5114 403 5126 250 5146 
L 250 4346 
C 410 4365 531 4371 710 4371 
L 915 4371 
z
" transform="scale(0.015625)"/>
      <path id="HiraginoSans-W7-ff1a" d="M 3757 4326 
L 2650 4326 
L 2650 3219 
L 3757 3219 
L 3757 4326 
z
M 3757 538 
L 3757 1645 
L 2650 1645 
L 2650 538 
L 3757 538 
z
" transform="scale(0.015625)"/>
      <path id="HiraginoSans-W7-20" transform="scale(0.015625)"/>
      <path id="HiraginoSans-W7-306a" d="M 1862 5325 
C 1856 5050 1805 4736 1690 4256 
C 1568 4250 1446 4243 1408 4243 
C 1024 4243 742 4262 512 4307 
L 512 3437 
C 704 3437 730 3437 755 3437 
C 973 3424 973 3424 1043 3424 
C 1056 3424 1088 3424 1120 3424 
C 1274 3430 1274 3430 1466 3430 
C 1158 2458 723 1562 262 954 
L 1139 467 
C 1178 550 1178 550 1261 710 
C 1504 1171 1562 1286 1709 1600 
C 2003 2234 2157 2650 2406 3456 
C 2918 3501 3181 3526 3405 3558 
C 3507 3578 3533 3578 3603 3584 
L 3584 4467 
C 3354 4390 3034 4339 2618 4301 
C 2630 4365 2630 4365 2656 4461 
C 2701 4685 2733 4826 2746 4883 
C 2810 5165 2810 5165 2835 5229 
L 1862 5325 
z
M 6125 3712 
C 5542 4058 5030 4294 4262 4570 
L 3808 3827 
C 4550 3571 5133 3296 5715 2918 
L 6125 3712 
z
M 6086 806 
C 6035 845 6035 845 5978 890 
C 5869 979 5811 1024 5728 1082 
C 5414 1318 5165 1459 4762 1638 
C 4717 1990 4704 2214 4704 2502 
C 4704 2765 4717 2880 4787 3136 
L 3898 3181 
C 3859 2944 3846 2758 3846 2470 
C 3846 2285 3853 2106 3878 1850 
C 3706 1875 3597 1888 3411 1888 
C 3117 1888 2918 1862 2726 1792 
C 2221 1613 1914 1203 1914 717 
C 1914 32 2490 -422 3366 -422 
C 3891 -422 4326 -262 4550 13 
C 4704 205 4762 397 4768 698 
C 5120 486 5478 192 5677 -51 
L 6086 806 
z
M 3898 1037 
C 3904 1037 3910 915 3910 858 
C 3910 544 3725 384 3341 384 
C 3002 384 2803 525 2803 755 
C 2803 979 3040 1133 3392 1133 
C 3571 1133 3699 1107 3898 1037 
z
" transform="scale(0.015625)"/>
      <path id="HiraginoSans-W7-3089" d="M 1734 4506 
C 2477 4166 3245 3930 4358 3686 
L 4666 4570 
C 3923 4672 2643 5043 2182 5293 
L 1734 4506 
z
M 1242 4019 
C 1229 3872 1222 3789 1203 3635 
C 1075 2790 966 1984 909 1510 
C 896 1427 896 1421 883 1338 
L 1811 1306 
C 1939 1453 1997 1504 2138 1594 
C 2573 1869 3104 2022 3654 2022 
C 4269 2022 4634 1792 4634 1402 
C 4634 896 4032 557 3136 557 
C 2630 557 2086 659 1453 864 
C 1542 474 1562 301 1568 -109 
C 2246 -262 2656 -314 3194 -314 
C 3936 -314 4486 -173 4941 141 
C 5376 442 5632 922 5632 1434 
C 5632 2298 4902 2854 3763 2854 
C 2995 2854 2445 2688 1894 2298 
C 1971 2880 2118 3712 2189 3962 
L 1242 4019 
z
" transform="scale(0.015625)"/>
      <path id="HiraginoSans-W7-3070" d="M 5696 4326 
C 5594 4653 5491 4877 5325 5165 
L 4832 5005 
C 4992 4723 5101 4467 5197 4154 
L 5696 4326 
z
M 6381 4563 
C 6285 4858 6170 5107 6003 5382 
L 5530 5216 
C 5683 4941 5792 4691 5894 4384 
L 6381 4563 
z
M 2202 3104 
C 2221 3110 2234 3110 2240 3110 
C 2323 3110 2323 3110 2426 3104 
C 2701 3085 3270 3066 3501 3066 
C 3642 3066 3750 3066 3936 3072 
C 3955 2394 3968 2106 3974 1888 
C 3795 1926 3686 1939 3514 1939 
C 2669 1939 2112 1485 2112 794 
C 2112 102 2650 -320 3533 -320 
C 4346 -320 4858 38 4858 602 
C 4858 640 4858 653 4851 710 
C 5222 474 5530 230 5677 51 
L 6029 973 
C 5958 1018 5939 1030 5843 1094 
C 5523 1325 5338 1427 4864 1651 
C 4813 2470 4806 2611 4800 3130 
C 5139 3168 5389 3206 5613 3258 
C 5773 3290 5786 3290 5862 3296 
L 5830 4166 
C 5562 4077 5216 4006 4794 3955 
C 4794 4653 4800 4915 4838 5126 
L 3891 5126 
C 3910 5050 3917 4915 3917 4794 
C 3923 4365 3923 4365 3923 3891 
C 3706 3885 3590 3885 3411 3885 
C 2886 3885 2496 3917 2214 3981 
L 2202 3104 
z
M 3994 1062 
C 4000 1062 4000 986 4000 928 
C 4000 608 3840 467 3469 467 
C 3155 467 2963 595 2963 800 
C 2963 1018 3187 1158 3526 1158 
C 3699 1158 3808 1133 3994 1062 
z
M 870 5152 
C 864 5011 845 4870 794 4608 
C 666 3917 666 3917 640 3725 
C 557 3174 518 2605 518 2003 
C 518 1318 563 755 691 -96 
C 710 -230 710 -269 717 -352 
L 1632 -307 
C 1626 -198 1619 -128 1619 -102 
C 1619 384 1856 1178 2195 1850 
L 1651 2067 
C 1549 1862 1504 1747 1363 1402 
C 1363 1504 1370 1754 1370 1875 
C 1376 2253 1402 2701 1453 3117 
C 1549 3885 1741 4794 1875 5062 
L 870 5152 
z
" transform="scale(0.015625)"/>
      <path id="DejaVuSans-2192" d="M 5050 2147 
L 5050 1866 
L 3822 638 
L 3447 1013 
L 4175 1741 
L 366 1741 
L 366 2272 
L 4175 2272 
L 3447 3000 
L 3822 3375 
L 5050 2147 
z
" transform="scale(0.015625)"/>
     </defs>
     <use xlink:href="#HiraginoSans-W7-5358" transform="translate(0 0.96875)"/>
     <use xlink:href="#HiraginoSans-W7-8abf" transform="translate(99.999985 0.96875)"/>
     <use xlink:href="#HiraginoSans-W7-53ce" transform="translate(199.999969 0.96875)"/>
     <use xlink:href="#HiraginoSans-W7-675f" transform="translate(299.999954 0.96875)"/>
     <use xlink:href="#HiraginoSans-W7-5b9a" transform="translate(399.999939 0.96875)"/>
     <use xlink:href="#HiraginoSans-W7-7406" transform="translate(499.999924 0.96875)"/>
     <use xlink:href="#HiraginoSans-W7-ff1a" transform="translate(599.999908 0.96875)"/>
     <use xlink:href="#DejaVuSans-Oblique-66" transform="translate(699.999893 0.96875)"/>
     <use xlink:href="#DejaVuSans-Oblique-6e" transform="translate(735.204971 -15.4375) scale(0.7)"/>
     <use xlink:href="#DejaVuSans-2197" transform="translate(801.787003 0.96875)"/>
     <use xlink:href="#DejaVuSans-Oblique-66" transform="translate(905.058487 0.96875)"/>
     <use xlink:href="#HiraginoSans-W7-20" transform="translate(940.263565 0.96875)"/>
     <use xlink:href="#HiraginoSans-W7-306a" transform="translate(973.563553 0.96875)"/>
     <use xlink:href="#HiraginoSans-W7-3089" transform="translate(1073.563538 0.96875)"/>
     <use xlink:href="#HiraginoSans-W7-3070" transform="translate(1173.563522 0.96875)"/>
     <use xlink:href="#HiraginoSans-W7-20" transform="translate(1273.563507 0.96875)"/>
     <use xlink:href="#DejaVuSansDisplay-222b" transform="translate(1306.863495 0.96875)"/>
     <use xlink:href="#DejaVuSans-Oblique-66" transform="translate(1380.496307 0.96875)"/>
     <use xlink:href="#DejaVuSans-Oblique-6e" transform="translate(1415.701385 -15.4375) scale(0.7)"/>
     <use xlink:href="#DejaVuSans-2192" transform="translate(1482.283417 0.96875)"/>
     <use xlink:href="#DejaVuSansDisplay-222b" transform="translate(1585.554901 0.96875)"/>
     <use xlink:href="#DejaVuSans-Oblique-66" transform="translate(1659.187714 0.96875)"/>
    </g>
   </g>
   <g id="legend_1">
    <g id="patch_6">
     <path d="M 50.515 90.63 
L 136.515 90.63 
Q 138.115 90.63 138.115 89.03 
L 138.115 30.68 
Q 138.115 29.08 136.515 29.08 
L 50.515 29.08 
Q 48.915 29.08 48.915 30.68 
L 48.915 89.03 
Q 48.915 90.63 50.515 90.63 
z
" style="fill: #ffffff; opacity: 0.8; stroke: #cccccc; stroke-linejoin: miter"/>
    </g>
    <g id="line2d_19">
     <path d="M 52.115 35.6475 
L 60.115 35.6475 
L 68.115 35.6475 
" style="fill: none; stroke: #cde8f7; stroke-opacity: 0.85; stroke-width: 2; stroke-linecap: square"/>
    </g>
    <g id="text_18">
     <!-- $f_{1}(x) = x\cdot1/2$ -->
     <g transform="translate(74.515 38.4475) scale(0.08 -0.08)">
      <defs>
       <path id="DejaVuSans-31" d="M 794 531 
L 1825 531 
L 1825 4091 
L 703 3866 
L 703 4441 
L 1819 4666 
L 2450 4666 
L 2450 531 
L 3481 531 
L 3481 0 
L 794 0 
L 794 531 
z
" transform="scale(0.015625)"/>
       <path id="DejaVuSans-28" d="M 1984 4856 
Q 1566 4138 1362 3434 
Q 1159 2731 1159 2009 
Q 1159 1288 1364 580 
Q 1569 -128 1984 -844 
L 1484 -844 
Q 1016 -109 783 600 
Q 550 1309 550 2009 
Q 550 2706 781 3412 
Q 1013 4119 1484 4856 
L 1984 4856 
z
" transform="scale(0.015625)"/>
       <path id="DejaVuSans-Oblique-78" d="M 3841 3500 
L 2234 1784 
L 3219 0 
L 2559 0 
L 1819 1388 
L 531 0 
L -166 0 
L 1556 1844 
L 641 3500 
L 1300 3500 
L 1972 2234 
L 3144 3500 
L 3841 3500 
z
" transform="scale(0.015625)"/>
       <path id="DejaVuSans-29" d="M 513 4856 
L 1013 4856 
Q 1481 4119 1714 3412 
Q 1947 2706 1947 2009 
Q 1947 1309 1714 600 
Q 1481 -109 1013 -844 
L 513 -844 
Q 928 -128 1133 580 
Q 1338 1288 1338 2009 
Q 1338 2731 1133 3434 
Q 928 4138 513 4856 
z
" transform="scale(0.015625)"/>
       <path id="DejaVuSans-3d" d="M 678 2906 
L 4684 2906 
L 4684 2381 
L 678 2381 
L 678 2906 
z
M 678 1631 
L 4684 1631 
L 4684 1100 
L 678 1100 
L 678 1631 
z
" transform="scale(0.015625)"/>
       <path id="DejaVuSans-22c5" d="M 684 2619 
L 1344 2619 
L 1344 1825 
L 684 1825 
L 684 2619 
z
" transform="scale(0.015625)"/>
       <path id="DejaVuSans-2f" d="M 1625 4666 
L 2156 4666 
L 531 -594 
L 0 -594 
L 1625 4666 
z
" transform="scale(0.015625)"/>
       <path id="DejaVuSans-32" d="M 1228 531 
L 3431 531 
L 3431 0 
L 469 0 
L 469 531 
Q 828 903 1448 1529 
Q 2069 2156 2228 2338 
Q 2531 2678 2651 2914 
Q 2772 3150 2772 3378 
Q 2772 3750 2511 3984 
Q 2250 4219 1831 4219 
Q 1534 4219 1204 4116 
Q 875 4013 500 3803 
L 500 4441 
Q 881 4594 1212 4672 
Q 1544 4750 1819 4750 
Q 2544 4750 2975 4387 
Q 3406 4025 3406 3419 
Q 3406 3131 3298 2873 
Q 3191 2616 2906 2266 
Q 2828 2175 2409 1742 
Q 1991 1309 1228 531 
z
" transform="scale(0.015625)"/>
      </defs>
      <use xlink:href="#DejaVuSans-Oblique-66" transform="translate(0 0.015625)"/>
      <use xlink:href="#DejaVuSans-31" transform="translate(35.205078 -16.390625) scale(0.7)"/>
      <use xlink:href="#DejaVuSans-28" transform="translate(82.475586 0.015625)"/>
      <use xlink:href="#DejaVuSans-Oblique-78" transform="translate(121.489258 0.015625)"/>
      <use xlink:href="#DejaVuSans-29" transform="translate(180.668945 0.015625)"/>
      <use xlink:href="#DejaVuSans-3d" transform="translate(239.165039 0.015625)"/>
      <use xlink:href="#DejaVuSans-Oblique-78" transform="translate(342.436523 0.015625)"/>
      <use xlink:href="#DejaVuSans-22c5" transform="translate(421.098633 0.015625)"/>
      <use xlink:href="#DejaVuSans-31" transform="translate(472.368164 0.015625)"/>
      <use xlink:href="#DejaVuSans-2f" transform="translate(535.991211 0.015625)"/>
      <use xlink:href="#DejaVuSans-32" transform="translate(566.057617 0.015625)"/>
     </g>
    </g>
    <g id="line2d_20">
     <path d="M 52.115 47.455 
L 60.115 47.455 
L 68.115 47.455 
" style="fill: none; stroke: #93c5fd; stroke-opacity: 0.85; stroke-width: 2; stroke-linecap: square"/>
    </g>
    <g id="text_19">
     <!-- $f_{2}(x) = x\cdot2/3$ -->
     <g transform="translate(74.515 50.255) scale(0.08 -0.08)">
      <defs>
       <path id="DejaVuSans-33" d="M 2597 2516 
Q 3050 2419 3304 2112 
Q 3559 1806 3559 1356 
Q 3559 666 3084 287 
Q 2609 -91 1734 -91 
Q 1441 -91 1130 -33 
Q 819 25 488 141 
L 488 750 
Q 750 597 1062 519 
Q 1375 441 1716 441 
Q 2309 441 2620 675 
Q 2931 909 2931 1356 
Q 2931 1769 2642 2001 
Q 2353 2234 1838 2234 
L 1294 2234 
L 1294 2753 
L 1863 2753 
Q 2328 2753 2575 2939 
Q 2822 3125 2822 3475 
Q 2822 3834 2567 4026 
Q 2313 4219 1838 4219 
Q 1578 4219 1281 4162 
Q 984 4106 628 3988 
L 628 4550 
Q 988 4650 1302 4700 
Q 1616 4750 1894 4750 
Q 2613 4750 3031 4423 
Q 3450 4097 3450 3541 
Q 3450 3153 3228 2886 
Q 3006 2619 2597 2516 
z
" transform="scale(0.015625)"/>
      </defs>
      <use xlink:href="#DejaVuSans-Oblique-66" transform="translate(0 0.015625)"/>
      <use xlink:href="#DejaVuSans-32" transform="translate(35.205078 -16.390625) scale(0.7)"/>
      <use xlink:href="#DejaVuSans-28" transform="translate(82.475586 0.015625)"/>
      <use xlink:href="#DejaVuSans-Oblique-78" transform="translate(121.489258 0.015625)"/>
      <use xlink:href="#DejaVuSans-29" transform="translate(180.668945 0.015625)"/>
      <use xlink:href="#DejaVuSans-3d" transform="translate(239.165039 0.015625)"/>
      <use xlink:href="#DejaVuSans-Oblique-78" transform="translate(342.436523 0.015625)"/>
      <use xlink:href="#DejaVuSans-22c5" transform="translate(421.098633 0.015625)"/>
      <use xlink:href="#DejaVuSans-32" transform="translate(472.368164 0.015625)"/>
      <use xlink:href="#DejaVuSans-2f" transform="translate(535.991211 0.015625)"/>
      <use xlink:href="#DejaVuSans-33" transform="translate(569.682617 0.015625)"/>
     </g>
    </g>
    <g id="line2d_21">
     <path d="M 52.115 59.2625 
L 60.115 59.2625 
L 68.115 59.2625 
" style="fill: none; stroke: #3b82f6; stroke-opacity: 0.85; stroke-width: 2; stroke-linecap: square"/>
    </g>
    <g id="text_20">
     <!-- $f_{3}(x) = x\cdot3/4$ -->
     <g transform="translate(74.515 62.0625) scale(0.08 -0.08)">
      <defs>
       <path id="DejaVuSans-34" d="M 2419 4116 
L 825 1625 
L 2419 1625 
L 2419 4116 
z
M 2253 4666 
L 3047 4666 
L 3047 1625 
L 3713 1625 
L 3713 1100 
L 3047 1100 
L 3047 0 
L 2419 0 
L 2419 1100 
L 313 1100 
L 313 1709 
L 2253 4666 
z
" transform="scale(0.015625)"/>
      </defs>
      <use xlink:href="#DejaVuSans-Oblique-66" transform="translate(0 0.015625)"/>
      <use xlink:href="#DejaVuSans-33" transform="translate(35.205078 -16.390625) scale(0.7)"/>
      <use xlink:href="#DejaVuSans-28" transform="translate(82.475586 0.015625)"/>
      <use xlink:href="#DejaVuSans-Oblique-78" transform="translate(121.489258 0.015625)"/>
      <use xlink:href="#DejaVuSans-29" transform="translate(180.668945 0.015625)"/>
      <use xlink:href="#DejaVuSans-3d" transform="translate(239.165039 0.015625)"/>
      <use xlink:href="#DejaVuSans-Oblique-78" transform="translate(342.436523 0.015625)"/>
      <use xlink:href="#DejaVuSans-22c5" transform="translate(421.098633 0.015625)"/>
      <use xlink:href="#DejaVuSans-33" transform="translate(472.368164 0.015625)"/>
      <use xlink:href="#DejaVuSans-2f" transform="translate(535.991211 0.015625)"/>
      <use xlink:href="#DejaVuSans-34" transform="translate(569.682617 0.015625)"/>
     </g>
    </g>
    <g id="line2d_22">
     <path d="M 52.115 71.07 
L 60.115 71.07 
L 68.115 71.07 
" style="fill: none; stroke: #1d4ed8; stroke-opacity: 0.85; stroke-width: 2; stroke-linecap: square"/>
    </g>
    <g id="text_21">
     <!-- $f_{5}(x) = x\cdot5/6$ -->
     <g transform="translate(74.515 73.87) scale(0.08 -0.08)">
      <defs>
       <path id="DejaVuSans-35" d="M 691 4666 
L 3169 4666 
L 3169 4134 
L 1269 4134 
L 1269 2991 
Q 1406 3038 1543 3061 
Q 1681 3084 1819 3084 
Q 2600 3084 3056 2656 
Q 3513 2228 3513 1497 
Q 3513 744 3044 326 
Q 2575 -91 1722 -91 
Q 1428 -91 1123 -41 
Q 819 9 494 109 
L 494 744 
Q 775 591 1075 516 
Q 1375 441 1709 441 
Q 2250 441 2565 725 
Q 2881 1009 2881 1497 
Q 2881 1984 2565 2268 
Q 2250 2553 1709 2553 
Q 1456 2553 1204 2497 
Q 953 2441 691 2322 
L 691 4666 
z
" transform="scale(0.015625)"/>
       <path id="DejaVuSans-36" d="M 2113 2584 
Q 1688 2584 1439 2293 
Q 1191 2003 1191 1497 
Q 1191 994 1439 701 
Q 1688 409 2113 409 
Q 2538 409 2786 701 
Q 3034 994 3034 1497 
Q 3034 2003 2786 2293 
Q 2538 2584 2113 2584 
z
M 3366 4563 
L 3366 3988 
Q 3128 4100 2886 4159 
Q 2644 4219 2406 4219 
Q 1781 4219 1451 3797 
Q 1122 3375 1075 2522 
Q 1259 2794 1537 2939 
Q 1816 3084 2150 3084 
Q 2853 3084 3261 2657 
Q 3669 2231 3669 1497 
Q 3669 778 3244 343 
Q 2819 -91 2113 -91 
Q 1303 -91 875 529 
Q 447 1150 447 2328 
Q 447 3434 972 4092 
Q 1497 4750 2381 4750 
Q 2619 4750 2861 4703 
Q 3103 4656 3366 4563 
z
" transform="scale(0.015625)"/>
      </defs>
      <use xlink:href="#DejaVuSans-Oblique-66" transform="translate(0 0.015625)"/>
      <use xlink:href="#DejaVuSans-35" transform="translate(35.205078 -16.390625) scale(0.7)"/>
      <use xlink:href="#DejaVuSans-28" transform="translate(82.475586 0.015625)"/>
      <use xlink:href="#DejaVuSans-Oblique-78" transform="translate(121.489258 0.015625)"/>
      <use xlink:href="#DejaVuSans-29" transform="translate(180.668945 0.015625)"/>
      <use xlink:href="#DejaVuSans-3d" transform="translate(239.165039 0.015625)"/>
      <use xlink:href="#DejaVuSans-Oblique-78" transform="translate(342.436523 0.015625)"/>
      <use xlink:href="#DejaVuSans-22c5" transform="translate(421.098633 0.015625)"/>
      <use xlink:href="#DejaVuSans-35" transform="translate(472.368164 0.015625)"/>
      <use xlink:href="#DejaVuSans-2f" transform="translate(535.991211 0.015625)"/>
      <use xlink:href="#DejaVuSans-36" transform="translate(569.682617 0.015625)"/>
     </g>
    </g>
    <g id="line2d_23">
     <path d="M 52.115 82.99 
L 60.115 82.99 
L 68.115 82.99 
" style="fill: none; stroke: #c0392b; stroke-width: 2.5; stroke-linecap: square"/>
    </g>
    <g id="text_22">
     <!-- $f(x) = x$（極限） -->
     <g transform="translate(74.515 85.79) scale(0.08 -0.08)">
      <defs>
       <path id="HiraginoSans-W4-ff08" d="M 6170 -531 
C 5690 -26 5491 256 5280 698 
C 5024 1235 4902 1805 4902 2432 
C 4902 3059 5024 3629 5280 4166 
C 5491 4608 5690 4890 6170 5395 
L 5517 5395 
C 5139 4947 4966 4685 4774 4275 
C 4499 3686 4365 3085 4365 2432 
C 4365 1779 4499 1178 4774 589 
C 4966 179 5139 -83 5517 -531 
L 6170 -531 
z
" transform="scale(0.015625)"/>
       <path id="HiraginoSans-W4-6975" d="M 1037 4134 
L 749 4134 
C 563 4134 422 4141 314 4160 
L 314 3680 
C 448 3699 595 3712 749 3712 
L 992 3712 
C 915 3309 781 2861 640 2515 
C 467 2074 339 1830 122 1523 
C 243 1395 314 1293 410 1101 
C 717 1632 896 2093 1075 2848 
C 1050 2477 1043 2170 1043 1914 
L 1043 250 
C 1043 -77 1030 -320 1005 -506 
L 1523 -506 
C 1498 -333 1491 -115 1491 230 
L 1491 2176 
C 1491 2413 1485 2509 1459 3053 
C 1562 2733 1664 2515 1875 2182 
C 1971 2426 1971 2426 2074 2605 
C 1792 2944 1651 3219 1498 3712 
L 1626 3712 
C 1830 3712 1946 3706 2016 3686 
L 2016 4160 
C 1888 4141 1786 4134 1613 4134 
L 1491 4134 
L 1491 4704 
C 1491 5018 1498 5178 1523 5363 
L 1005 5363 
C 1030 5216 1037 5050 1037 4698 
L 1037 4134 
z
M 5344 4640 
C 5619 4640 5850 4627 6035 4608 
L 6035 5107 
C 5862 5082 5664 5069 5338 5069 
L 2592 5069 
C 2285 5069 2086 5082 1907 5107 
L 1907 4608 
C 2086 4627 2304 4640 2586 4640 
L 3283 4640 
C 3181 4294 3040 3974 2867 3686 
C 2944 3686 2944 3686 3066 3686 
L 3270 3693 
L 3814 3693 
C 3814 2688 3776 1952 3712 1395 
C 3642 845 3622 806 3398 806 
C 3232 806 3046 832 2778 890 
C 2835 736 2861 627 2874 429 
C 3046 410 3270 397 3392 397 
C 3846 397 3974 499 4064 928 
C 4154 1325 4218 2131 4243 3142 
C 4262 3885 4262 3885 4275 4102 
C 4179 4090 4070 4083 3776 4083 
L 3558 4083 
C 3648 4282 3674 4358 3763 4640 
L 5344 4640 
z
M 5786 3802 
C 5658 3795 5555 3789 5427 3789 
L 4890 3789 
C 4646 3789 4525 3795 4403 3814 
L 4403 3366 
C 4506 3379 4595 3386 4736 3386 
L 5498 3386 
C 5421 2854 5344 2560 5184 2176 
C 5005 2586 4941 2784 4832 3309 
L 4467 3200 
C 4595 2592 4730 2195 4960 1734 
C 4723 1350 4518 1126 4134 826 
C 4250 730 4320 634 4416 467 
C 4781 794 4947 979 5184 1344 
C 5421 986 5587 800 5920 493 
C 5990 659 6080 794 6182 902 
C 5824 1184 5690 1331 5414 1734 
C 5568 2022 5677 2310 5779 2701 
C 5818 2835 5882 3136 5971 3590 
L 5786 3802 
z
M 1811 -275 
C 1997 -256 2202 -243 2470 -243 
L 5408 -243 
C 5696 -243 5894 -256 6106 -275 
L 6106 224 
C 5933 198 5715 186 5414 186 
L 2477 186 
C 2182 186 2010 198 1811 224 
L 1811 -275 
z
M 3034 1222 
C 3149 1222 3194 1222 3379 1210 
C 3366 1344 3366 1427 3366 1530 
L 3366 3091 
C 3366 3264 3366 3322 3379 3424 
C 3258 3411 3162 3405 2976 3405 
L 2470 3405 
C 2330 3405 2202 3411 2099 3424 
C 2112 3302 2118 3206 2118 3078 
L 2118 1632 
C 2118 1459 2112 1318 2099 1210 
C 2234 1216 2310 1222 2445 1222 
L 3034 1222 
z
M 2509 3021 
L 2976 3021 
L 2976 1613 
L 2509 1613 
L 2509 3021 
z
" transform="scale(0.015625)"/>
       <path id="HiraginoSans-W4-9650" d="M 3866 2355 
C 4032 1696 4186 1325 4467 896 
C 4832 346 5242 -26 5946 -448 
C 6054 -237 6112 -154 6253 -6 
C 5632 301 5222 627 4890 1075 
C 5190 1280 5440 1466 5670 1645 
C 5914 1843 6042 1939 6054 1952 
L 5683 2298 
C 5542 2099 5107 1741 4653 1440 
C 4493 1741 4416 1946 4314 2355 
L 5146 2355 
C 5370 2355 5542 2349 5734 2336 
C 5715 2522 5709 2618 5709 3008 
L 5709 4384 
C 5709 4781 5715 4928 5728 5088 
C 5581 5062 5434 5056 5120 5056 
L 3411 5056 
C 3104 5056 2950 5062 2790 5082 
C 2810 4864 2816 4672 2816 4416 
L 2816 179 
C 2413 96 2189 58 1997 45 
L 2112 -467 
C 2189 -435 2259 -416 2413 -378 
C 3366 -154 3757 -51 4448 160 
L 4429 614 
C 4013 474 3866 435 3283 288 
L 3283 2355 
L 3866 2355 
z
M 3283 4627 
L 5261 4627 
L 5261 3923 
L 3283 3923 
L 3283 4627 
z
M 3283 3507 
L 5261 3507 
L 5261 2765 
L 3283 2765 
L 3283 3507 
z
M 608 160 
C 608 -102 595 -301 570 -474 
L 1114 -474 
C 1088 -262 1082 -83 1082 160 
L 1082 4698 
L 2074 4698 
C 1811 3994 1715 3776 1376 3149 
C 1677 2822 1792 2656 1901 2406 
C 1990 2195 2042 1958 2042 1734 
C 2042 1485 1958 1414 1670 1414 
C 1555 1414 1414 1427 1286 1446 
C 1350 1293 1382 1171 1395 966 
C 1510 966 1568 966 1638 966 
C 1850 966 2016 986 2157 1024 
C 2394 1094 2522 1318 2522 1664 
C 2522 1856 2502 2003 2464 2163 
C 2381 2522 2246 2765 1888 3194 
C 2125 3635 2298 4000 2445 4358 
C 2605 4749 2605 4749 2650 4838 
L 2387 5158 
C 2317 5133 2182 5126 1965 5126 
L 1030 5126 
C 819 5126 685 5133 589 5146 
C 602 4960 608 4813 608 4634 
L 608 160 
z
" transform="scale(0.015625)"/>
       <path id="HiraginoSans-W4-ff09" d="M 890 -531 
C 1261 -83 1434 179 1626 589 
C 1901 1178 2035 1773 2035 2432 
C 2035 3091 1901 3686 1626 4275 
C 1434 4685 1261 4947 890 5395 
L 230 5395 
C 710 4890 909 4608 1120 4166 
C 1376 3629 1498 3072 1498 2432 
C 1498 1792 1376 1235 1120 698 
C 909 256 710 -26 230 -531 
L 890 -531 
z
" transform="scale(0.015625)"/>
      </defs>
      <use xlink:href="#DejaVuSans-Oblique-66" transform="translate(0 0.703125)"/>
      <use xlink:href="#DejaVuSans-28" transform="translate(35.205078 0.703125)"/>
      <use xlink:href="#DejaVuSans-Oblique-78" transform="translate(74.21875 0.703125)"/>
      <use xlink:href="#DejaVuSans-29" transform="translate(133.398438 0.703125)"/>
      <use xlink:href="#DejaVuSans-3d" transform="translate(191.894531 0.703125)"/>
      <use xlink:href="#DejaVuSans-Oblique-78" transform="translate(295.166016 0.703125)"/>
      <use xlink:href="#HiraginoSans-W4-ff08" transform="translate(354.345703 0.703125)"/>
      <use xlink:href="#HiraginoSans-W4-6975" transform="translate(454.345688 0.703125)"/>
      <use xlink:href="#HiraginoSans-W4-9650" transform="translate(554.345673 0.703125)"/>
      <use xlink:href="#HiraginoSans-W4-ff09" transform="translate(654.345657 0.703125)"/>
     </g>
    </g>
   </g>
  </g>
 </g>
 <defs>
  <clipPath id="pb67d55ec90">
   <rect x="44.915" y="25.08" width="390.6" height="277.2"/>
  </clipPath>
 </defs>
</svg>
