<?xml version="1.0" encoding="utf-8" standalone="no"?>
<!DOCTYPE svg PUBLIC "-//W3C//DTD SVG 1.1//EN"
  "http://www.w3.org/Graphics/SVG/1.1/DTD/svg11.dtd">
<svg xmlns:xlink="http://www.w3.org/1999/xlink" width="405pt" height="535.656406pt" viewBox="0 0 405 535.656406" xmlns="http://www.w3.org/2000/svg" version="1.1">
 <metadata>
  <rdf:RDF xmlns:dc="http://purl.org/dc/elements/1.1/" xmlns:cc="http://creativecommons.org/ns#" xmlns:rdf="http://www.w3.org/1999/02/22-rdf-syntax-ns#">
   <cc:Work>
    <dc:type rdf:resource="http://purl.org/dc/dcmitype/StillImage"/>
    <dc:date>2026-03-29T01:20:39.851474</dc:date>
    <dc:format>image/svg+xml</dc:format>
    <dc:creator>
     <cc:Agent>
      <dc:title>Matplotlib v3.10.8, https://matplotlib.org/</dc:title>
     </cc:Agent>
    </dc:creator>
   </cc:Work>
  </rdf:RDF>
 </metadata>
 <defs>
  <style type="text/css">*{stroke-linejoin: round; stroke-linecap: butt}</style>
 </defs>
 <g id="figure_1">
  <g id="patch_1">
   <path d="M 0 535.656406 
L 405 535.656406 
L 405 0 
L 0 0 
z
" style="fill: #ffffff"/>
  </g>
  <g id="axes_1">
   <g id="patch_2">
    <path d="M 54.072 514.118475 
L 350.928 514.118475 
Q 352.881 514.118475 352.881 511.250889 
L 352.881 453.899165 
Q 352.881 451.031579 350.928 451.031579 
L 54.072 451.031579 
Q 52.119 451.031579 52.119 453.899165 
L 52.119 511.250889 
Q 52.119 514.118475 54.072 514.118475 
z
" clip-path="url(#pbcfe12e089)" style="fill: #dbeafe; stroke: #1e3a5f; stroke-width: 1.2; stroke-linejoin: miter"/>
   </g>
   <g id="patch_3">
    <path d="M 75.555 446.443441 
L 329.445 446.443441 
Q 331.398 446.443441 331.398 443.575855 
L 331.398 386.22413 
Q 331.398 383.356544 329.445 383.356544 
L 75.555 383.356544 
Q 73.602 383.356544 73.602 386.22413 
L 73.602 443.575855 
Q 73.602 446.443441 75.555 446.443441 
z
" clip-path="url(#pbcfe12e089)" style="fill: #bfdbfe; stroke: #1e3a5f; stroke-width: 1.2; stroke-linejoin: miter"/>
   </g>
   <g id="patch_4">
    <path d="M 97.038 378.768406 
L 307.962 378.768406 
Q 309.915 378.768406 309.915 375.90082 
L 309.915 318.549096 
Q 309.915 315.68151 307.962 315.68151 
L 97.038 315.68151 
Q 95.085 315.68151 95.085 318.549096 
L 95.085 375.90082 
Q 95.085 378.768406 97.038 378.768406 
z
" clip-path="url(#pbcfe12e089)" style="fill: #93c5fd; stroke: #1e3a5f; stroke-width: 1.2; stroke-linejoin: miter"/>
   </g>
   <g id="patch_5">
    <path d="M 118.521 311.093372 
L 286.479 311.093372 
Q 288.432 311.093372 288.432 308.225786 
L 288.432 250.874061 
Q 288.432 248.006475 286.479 248.006475 
L 118.521 248.006475 
Q 116.568 248.006475 116.568 250.874061 
L 116.568 308.225786 
Q 116.568 311.093372 118.521 311.093372 
z
" clip-path="url(#pbcfe12e089)" style="fill: #60a5fa; stroke: #1e3a5f; stroke-width: 1.2; stroke-linejoin: miter"/>
   </g>
   <g id="patch_6">
    <path d="M 140.004 243.418337 
L 264.996 243.418337 
Q 266.949 243.418337 266.949 240.550751 
L 266.949 183.199027 
Q 266.949 180.331441 264.996 180.331441 
L 140.004 180.331441 
Q 138.051 180.331441 138.051 183.199027 
L 138.051 240.550751 
Q 138.051 243.418337 140.004 243.418337 
z
" clip-path="url(#pbcfe12e089)" style="fill: #3b82f6; stroke: #1e3a5f; stroke-width: 1.2; stroke-linejoin: miter"/>
   </g>
   <g id="patch_7">
    <path d="M 161.487 175.743303 
L 243.513 175.743303 
Q 245.466 175.743303 245.466 172.875717 
L 245.466 115.523992 
Q 245.466 112.656406 243.513 112.656406 
L 161.487 112.656406 
Q 159.534 112.656406 159.534 115.523992 
L 159.534 172.875717 
Q 159.534 175.743303 161.487 175.743303 
z
" clip-path="url(#pbcfe12e089)" style="fill: #2563eb; stroke: #1e3a5f; stroke-width: 1.2; stroke-linejoin: miter"/>
   </g>
   <g id="patch_8">
    <path d="M 143.91 108.068268 
L 261.09 108.068268 
Q 263.043 108.068268 263.043 105.200682 
L 263.043 47.848958 
Q 263.043 44.981372 261.09 44.981372 
L 143.91 44.981372 
Q 141.957 44.981372 141.957 47.848958 
L 141.957 105.200682 
Q 141.957 108.068268 143.91 108.068268 
z
" clip-path="url(#pbcfe12e089)" style="fill: #1d4ed8; stroke: #1e3a5f; stroke-width: 1.2; stroke-linejoin: miter"/>
   </g>
   <g id="text_1">
    <!-- σ-代数 -->
    <g style="fill: #1a1a2e" transform="translate(186.150352 485.344129) scale(0.095 -0.095)">
     <defs>
      <path id="HiraginoSans-W7-3c3" d="M 5638 3680 
C 5382 3642 5165 3629 4723 3629 
L 3987 3629 
C 3744 3718 3514 3757 3283 3757 
C 2662 3757 2150 3584 1760 3245 
C 1286 2829 1005 2150 1005 1427 
C 1005 845 1203 390 1587 70 
C 1869 -160 2291 -288 2771 -288 
C 3437 -288 4064 -6 4454 467 
C 4787 870 4986 1434 4986 2003 
C 4986 2304 4934 2509 4787 2765 
C 5088 2758 5203 2752 5382 2720 
L 5638 3680 
z
M 3994 2099 
C 3994 1235 3450 544 2765 544 
C 2298 544 2010 877 2010 1408 
C 2010 1882 2189 2349 2490 2643 
C 2694 2848 2938 2944 3245 2944 
C 3706 2944 3994 2618 3994 2099 
z
" transform="scale(0.015625)"/>
      <path id="HiraginoSans-W7-2d" d="M 237 1338 
C 448 1363 602 1376 851 1376 
L 1971 1376 
C 2221 1376 2374 1363 2586 1338 
L 2586 2355 
C 2400 2330 2227 2317 1971 2317 
L 851 2317 
C 595 2317 422 2330 237 2355 
L 237 1338 
z
" transform="scale(0.015625)"/>
      <path id="HiraginoSans-W7-4ee3" d="M 5414 3014 
C 5638 3027 5734 3034 5862 3034 
C 5946 3034 5984 3034 6086 3027 
L 6074 3878 
C 5882 3840 5722 3821 5344 3795 
L 4045 3699 
C 4013 4186 4000 4448 4000 4813 
C 4000 5062 4006 5190 4026 5331 
L 3104 5318 
C 3117 5184 3136 4966 3136 4806 
C 3155 4141 3155 4141 3187 3642 
L 2720 3610 
C 2573 3597 2374 3590 2259 3590 
C 2195 3590 2144 3590 2022 3597 
L 2035 2752 
C 2253 2790 2381 2803 2682 2822 
L 3270 2867 
C 3450 1664 3789 794 4339 109 
C 4698 -326 5018 -538 5338 -538 
C 5837 -538 6086 -83 6227 1088 
C 5914 1235 5786 1325 5498 1568 
C 5446 858 5363 480 5254 480 
C 5229 480 5107 570 5043 640 
C 4870 838 4710 1088 4570 1376 
C 4358 1824 4211 2336 4128 2925 
L 5414 3014 
z
M 979 243 
C 979 -109 966 -333 941 -550 
L 1856 -550 
C 1830 -301 1818 -90 1818 230 
L 1818 3846 
C 2182 4634 2195 4672 2362 5158 
L 1504 5440 
C 1478 5216 1389 4928 1267 4614 
C 973 3898 621 3354 58 2765 
C 237 2458 301 2298 422 1856 
C 678 2112 736 2182 992 2547 
C 986 2323 979 2170 979 1830 
L 979 243 
z
M 4198 4858 
C 4518 4550 4838 4179 5114 3814 
L 5760 4339 
C 5389 4787 5171 5018 4819 5331 
L 4198 4858 
z
" transform="scale(0.015625)"/>
      <path id="HiraginoSans-W7-6570" d="M 6246 4403 
C 6099 4378 5952 4371 5638 4371 
L 4621 4371 
C 4678 4582 4691 4614 4723 4749 
C 4813 5114 4845 5235 4858 5280 
L 4026 5440 
C 4026 5344 3994 5094 3949 4883 
C 3757 3910 3456 3219 3002 2707 
C 3168 2554 3277 2432 3430 2208 
C 3328 2195 3200 2189 3021 2189 
L 2080 2189 
C 2125 2291 2144 2330 2202 2458 
L 1408 2598 
C 1338 2400 1312 2323 1261 2189 
L 806 2189 
C 563 2189 429 2195 282 2221 
L 282 1459 
C 435 1485 576 1491 806 1491 
L 928 1491 
C 787 1254 717 1146 499 864 
C 954 704 1120 634 1427 499 
C 1062 294 762 198 230 122 
C 397 -109 512 -307 621 -582 
C 1286 -422 1722 -218 2150 141 
C 2451 -26 2528 -77 2765 -262 
L 2976 77 
C 3149 -102 3283 -294 3411 -576 
C 3910 -307 4339 26 4730 461 
C 5075 32 5459 -301 5901 -563 
C 6035 -237 6157 -19 6342 243 
C 5894 467 5530 755 5216 1139 
C 5606 1843 5779 2509 5862 3635 
C 6074 3629 6125 3629 6246 3610 
L 6246 4403 
z
M 3206 454 
C 2963 589 2874 640 2675 730 
C 2842 986 2925 1171 3021 1491 
C 3238 1491 3392 1478 3514 1466 
L 3514 2099 
C 3654 2266 3686 2310 3789 2477 
C 3904 1946 4032 1587 4275 1139 
C 3942 749 3571 461 3046 198 
L 3206 454 
z
M 5069 3635 
C 5037 2938 4934 2400 4736 1907 
C 4486 2451 4397 2771 4294 3437 
C 4326 3520 4339 3552 4371 3635 
L 5069 3635 
z
M 2234 1491 
C 2170 1299 2118 1184 2003 1024 
C 1862 1082 1779 1107 1542 1190 
C 1638 1344 1664 1389 1722 1491 
L 2234 1491 
z
M 2995 4269 
L 2342 4269 
L 2342 4992 
C 2342 5184 2349 5293 2368 5408 
L 1555 5408 
C 1574 5286 1581 5178 1581 4979 
L 1581 4269 
L 851 4269 
C 602 4269 461 4275 301 4294 
L 301 3590 
C 454 3610 621 3616 851 3616 
L 1120 3616 
C 864 3322 595 3130 154 2925 
C 384 2682 467 2566 614 2304 
C 1069 2605 1229 2758 1587 3213 
C 1581 3110 1574 3002 1574 2950 
L 1574 2765 
C 1574 2707 1568 2643 1555 2579 
L 2355 2579 
C 2342 2650 2342 2726 2342 2797 
L 2342 2976 
C 2342 3014 2330 3142 2323 3213 
C 2502 2944 2541 2906 2854 2643 
C 2989 2906 3078 3040 3245 3245 
C 3014 3366 2874 3469 2733 3616 
L 3091 3616 
C 3290 3616 3411 3610 3494 3597 
L 3494 4288 
C 3418 4275 3296 4269 3098 4269 
L 3053 4269 
C 3238 4550 3309 4685 3520 5107 
L 2842 5382 
C 2733 5082 2598 4838 2394 4544 
L 2995 4269 
z
M 397 5094 
C 602 4832 723 4627 870 4282 
L 1523 4563 
C 1376 4883 1280 5043 1037 5363 
L 397 5094 
z
" transform="scale(0.015625)"/>
     </defs>
     <use xlink:href="#HiraginoSans-W7-3c3"/>
     <use xlink:href="#HiraginoSans-W7-2d" transform="translate(99.999985 0)"/>
     <use xlink:href="#HiraginoSans-W7-4ee3" transform="translate(144.199982 0)"/>
     <use xlink:href="#HiraginoSans-W7-6570" transform="translate(244.199966 0)"/>
    </g>
   </g>
   <g id="text_2">
    <!-- 測度 -->
    <g style="fill: #1a1a2e" transform="translate(193 417.669094) scale(0.095 -0.095)">
     <defs>
      <path id="HiraginoSans-W7-6e2c" d="M 262 4787 
C 678 4486 902 4294 1210 3930 
L 1779 4563 
C 1498 4890 1293 5062 838 5376 
L 262 4787 
z
M 141 3168 
C 557 2906 806 2688 1139 2323 
L 1645 3002 
C 1325 3328 1075 3520 653 3776 
L 141 3168 
z
M 960 2010 
C 730 1088 486 486 186 64 
L 890 -518 
C 1331 422 1434 710 1645 1536 
L 960 2010 
z
M 3546 1011 
C 3654 1011 3814 1005 3936 998 
C 3923 1146 3917 1280 3917 1536 
L 3917 4685 
C 3917 4947 3923 5075 3936 5242 
C 3802 5229 3642 5222 3456 5216 
L 2310 5216 
C 2080 5216 1946 5222 1811 5242 
C 1818 5024 1824 4909 1824 4717 
L 1824 1555 
C 1824 1293 1818 1158 1811 992 
C 1952 1005 2042 1011 2202 1011 
L 3546 1011 
z
M 2541 4525 
L 3200 4525 
L 3200 4032 
L 2541 4032 
L 2541 4525 
z
M 2541 3366 
L 3200 3366 
L 3200 2886 
L 2541 2886 
L 2541 3366 
z
M 2541 2221 
L 3200 2221 
L 3200 1702 
L 2541 1702 
L 2541 2221 
z
M 5005 1043 
C 4986 1171 4979 1318 4979 1536 
L 4979 4442 
C 4979 4672 4986 4819 5005 4954 
L 4198 4954 
C 4218 4819 4224 4672 4224 4461 
L 4224 1536 
C 4224 1325 4218 1190 4198 1043 
L 5005 1043 
z
M 2182 992 
C 1952 525 1779 307 1363 6 
C 1581 -154 1709 -288 1939 -570 
C 2355 -160 2547 102 2803 614 
L 2182 992 
z
M 2880 621 
C 3155 154 3379 -154 3731 -525 
C 3987 -243 4115 -122 4333 32 
C 3962 333 3763 570 3501 1005 
L 2880 621 
z
M 6035 4589 
C 6035 4947 6042 5120 6067 5312 
L 5242 5312 
C 5261 5088 5274 4870 5274 4582 
L 5274 474 
C 5274 333 5235 307 5037 307 
C 4800 307 4634 320 4397 346 
C 4506 51 4544 -96 4582 -454 
C 4787 -461 4845 -461 5056 -461 
C 5850 -461 6035 -320 6035 294 
L 6035 4589 
z
" transform="scale(0.015625)"/>
      <path id="HiraginoSans-W7-5ea6" d="M 2272 3226 
L 2272 2662 
C 2272 2515 2266 2355 2253 2246 
C 2387 2253 2426 2253 2682 2253 
L 4640 2253 
C 4890 2253 4890 2253 5050 2246 
C 5037 2362 5030 2490 5030 2662 
L 5030 3226 
L 5568 3226 
C 5862 3226 5984 3219 6125 3200 
L 6125 3942 
C 5952 3923 5818 3917 5562 3917 
L 5030 3917 
L 5030 4160 
C 5030 4211 5030 4230 5030 4275 
L 5440 4275 
C 5741 4275 5888 4269 6112 4250 
L 6112 5011 
C 5920 4986 5670 4973 5312 4973 
L 3795 4973 
L 3795 5082 
C 3795 5235 3802 5338 3827 5434 
L 2918 5434 
C 2938 5325 2950 5229 2950 5088 
L 2950 4973 
L 1408 4973 
C 1114 4973 883 4986 646 5005 
C 666 4755 672 4538 672 4160 
C 672 1786 563 1018 122 173 
C 384 -58 538 -237 749 -550 
C 1043 -38 1190 378 1312 1005 
C 1421 1581 1472 2278 1485 3226 
L 2272 3226 
z
M 3078 3251 
L 4224 3251 
L 4224 2874 
L 3078 2874 
L 3078 3251 
z
M 4224 3917 
L 3072 3917 
L 3072 4147 
L 3085 4275 
L 4224 4275 
C 4224 4224 4224 4205 4224 4154 
L 4224 3917 
z
M 2272 3917 
L 1491 3917 
L 1491 4275 
L 2266 4275 
C 2272 4192 2272 4160 2272 4128 
L 2272 3917 
z
M 2701 1312 
L 2003 1037 
C 2093 966 2093 966 2419 704 
C 2541 602 2624 538 2752 454 
C 2285 307 1850 237 1158 211 
C 1318 -122 1376 -275 1446 -570 
C 2368 -448 2899 -307 3565 -6 
C 4230 -320 4864 -474 5888 -570 
C 5971 -230 6054 6 6195 288 
C 6125 288 6067 288 6035 288 
C 5446 288 4928 352 4435 493 
C 4755 717 5050 986 5318 1299 
C 5485 1491 5485 1491 5542 1549 
L 5133 1978 
C 4973 1965 4845 1958 4563 1958 
L 2336 1958 
C 1978 1958 1798 1965 1626 1984 
L 1626 1286 
C 1798 1306 2003 1312 2278 1312 
L 2701 1312 
z
M 4294 1312 
C 4045 1075 3904 966 3610 800 
C 3296 954 3130 1062 2835 1312 
L 4294 1312 
z
" transform="scale(0.015625)"/>
     </defs>
     <use xlink:href="#HiraginoSans-W7-6e2c"/>
     <use xlink:href="#HiraginoSans-W7-5ea6" transform="translate(99.999985 0)"/>
    </g>
   </g>
   <g id="text_3">
    <!-- 可測関数 -->
    <g style="fill: #1a1a2e" transform="translate(183.5 349.99406) scale(0.095 -0.095)">
     <defs>
      <path id="HiraginoSans-W7-53ef" d="M 4608 4390 
L 4608 486 
C 4608 320 4557 288 4314 288 
C 4064 288 3744 307 3379 352 
C 3494 115 3565 -173 3597 -486 
C 3840 -499 4102 -506 4269 -506 
C 5261 -506 5459 -371 5459 301 
L 5459 4390 
C 5766 4384 5920 4371 6144 4352 
L 6144 5203 
C 5869 5178 5606 5165 5306 5165 
L 1165 5165 
C 851 5165 589 5178 339 5203 
L 339 4352 
C 640 4378 890 4390 1178 4390 
L 4608 4390 
z
M 3872 3270 
C 3872 3539 3878 3648 3898 3821 
C 3718 3802 3539 3795 3283 3795 
L 1549 3795 
C 1293 3795 1120 3802 954 3821 
C 979 3635 986 3469 986 3219 
L 986 1197 
C 986 998 973 819 947 602 
L 1811 602 
L 1811 1101 
L 3309 1101 
C 3475 1101 3770 1088 3898 1075 
C 3878 1261 3872 1408 3872 1613 
L 3872 3270 
z
M 1805 3053 
L 3059 3053 
L 3059 1843 
L 1805 1843 
L 1805 3053 
z
" transform="scale(0.015625)"/>
      <path id="HiraginoSans-W7-95a2" d="M 4371 992 
C 4589 992 4710 986 4870 966 
L 4870 1645 
C 4742 1626 4608 1619 4378 1619 
L 3507 1619 
C 3514 1728 3520 1773 3526 1920 
L 4352 1920 
C 4538 1920 4653 1914 4768 1901 
L 4768 2554 
C 4646 2534 4538 2528 4346 2528 
L 4186 2528 
C 4294 2707 4339 2778 4422 2950 
L 3680 3078 
C 3584 2829 3533 2720 3424 2528 
L 2982 2528 
C 2867 2758 2784 2893 2650 3085 
L 1946 2931 
C 2080 2752 2138 2669 2221 2528 
L 2054 2528 
C 1862 2528 1766 2534 1651 2554 
L 1651 1901 
C 1773 1914 1882 1920 2074 1920 
L 2771 1920 
C 2771 1754 2765 1715 2758 1619 
L 2029 1619 
C 1805 1619 1677 1626 1542 1645 
L 1542 960 
C 1709 979 1888 992 2086 992 
L 2598 992 
C 2477 800 2355 678 2144 557 
C 1952 435 1779 378 1395 275 
C 1574 70 1677 -96 1811 -384 
C 2509 -160 2893 109 3194 582 
C 3494 237 3923 -51 4384 -218 
C 4429 -64 4442 -19 4493 102 
C 4550 -96 4582 -230 4608 -486 
C 4851 -493 4851 -493 4922 -493 
C 5792 -493 5952 -371 5952 314 
L 5952 4531 
C 5952 4858 5958 5018 5978 5254 
C 5805 5235 5651 5229 5325 5229 
L 4000 5229 
C 3667 5229 3520 5235 3347 5254 
C 3360 5069 3366 4896 3366 4659 
L 3366 3693 
C 3366 3398 3366 3283 3354 3123 
C 3552 3130 3706 3136 3910 3136 
L 5146 3136 
L 5146 429 
C 5146 288 5114 269 4902 269 
C 4806 269 4730 275 4576 294 
C 4621 390 4640 422 4698 525 
C 4237 627 3974 749 3686 992 
L 4371 992 
z
M 4128 4678 
L 5146 4678 
L 5146 4422 
L 4128 4422 
L 4128 4678 
z
M 4128 3923 
L 5146 3923 
L 5146 3674 
L 4128 3674 
L 4128 3923 
z
M 1280 3142 
L 2438 3142 
C 2637 3142 2848 3136 2995 3130 
C 2989 3251 2982 3386 2982 3693 
L 2982 4659 
C 2982 4915 2989 5069 3002 5254 
C 2835 5235 2688 5229 2349 5229 
L 1101 5229 
C 781 5229 621 5235 448 5254 
C 467 5050 474 4870 474 4525 
L 474 294 
C 474 -122 461 -333 435 -531 
L 1318 -531 
C 1293 -339 1280 -115 1280 275 
L 1280 3142 
z
M 1280 4678 
L 2234 4678 
L 2234 4422 
L 1280 4422 
L 1280 4678 
z
M 1280 3923 
L 2234 3923 
L 2234 3674 
L 1280 3674 
L 1280 3923 
z
" transform="scale(0.015625)"/>
     </defs>
     <use xlink:href="#HiraginoSans-W7-53ef"/>
     <use xlink:href="#HiraginoSans-W7-6e2c" transform="translate(99.999985 0)"/>
     <use xlink:href="#HiraginoSans-W7-95a2" transform="translate(199.999969 0)"/>
     <use xlink:href="#HiraginoSans-W7-6570" transform="translate(299.999954 0)"/>
    </g>
   </g>
   <g id="text_4">
    <!-- 単関数 -->
    <g style="fill: #1a1a2e" transform="translate(188.25 282.319025) scale(0.095 -0.095)">
     <defs>
      <path id="HiraginoSans-W7-5358" d="M 2746 1549 
L 2746 1203 
L 1005 1203 
C 672 1203 474 1210 275 1235 
L 275 403 
C 486 429 742 442 1082 442 
L 2746 442 
L 2746 102 
C 2746 -218 2739 -371 2707 -570 
L 3603 -570 
C 3571 -352 3565 -230 3565 102 
L 3565 442 
L 5286 442 
C 5626 442 5920 429 6106 403 
L 6106 1235 
C 5920 1216 5722 1203 5376 1203 
L 3565 1203 
L 3565 1549 
L 4896 1549 
C 5178 1549 5382 1542 5606 1530 
C 5581 1728 5574 1888 5574 2202 
L 5574 3597 
C 5574 3942 5581 4128 5606 4294 
C 5504 4282 5299 4275 4986 4269 
C 5184 4531 5312 4730 5549 5114 
L 4678 5389 
C 4531 5005 4320 4627 4064 4269 
L 3034 4269 
L 3750 4518 
C 3565 4954 3494 5088 3258 5453 
L 2458 5254 
C 2726 4806 2797 4672 2931 4269 
L 1670 4269 
L 2176 4467 
C 1984 4819 1856 5005 1568 5357 
L 794 5069 
C 1050 4762 1184 4557 1325 4269 
C 1120 4269 941 4275 781 4294 
C 806 4115 813 3923 813 3597 
L 813 2189 
C 813 1901 806 1741 781 1530 
C 1005 1542 1190 1549 1485 1549 
L 2746 1549 
z
M 3565 3232 
L 3565 3590 
L 4755 3590 
L 4755 3232 
L 3565 3232 
z
M 2746 3232 
L 1632 3232 
L 1632 3590 
L 2746 3590 
L 2746 3232 
z
M 3565 2227 
L 3565 2586 
L 4755 2586 
L 4755 2227 
L 3565 2227 
z
M 2746 2227 
L 1632 2227 
L 1632 2586 
L 2746 2586 
L 2746 2227 
z
" transform="scale(0.015625)"/>
     </defs>
     <use xlink:href="#HiraginoSans-W7-5358"/>
     <use xlink:href="#HiraginoSans-W7-95a2" transform="translate(99.999985 0)"/>
     <use xlink:href="#HiraginoSans-W7-6570" transform="translate(199.999969 0)"/>
    </g>
   </g>
   <g id="text_5">
    <!-- lintegral / integral -->
    <g style="fill: #ffffff" transform="translate(154.530937 214.639537) scale(0.095 -0.095)">
     <defs>
      <path id="HiraginoSans-W7-6c" d="M 371 5069 
C 410 4819 422 4589 422 4173 
L 422 762 
C 422 339 410 147 371 -134 
L 1491 -134 
C 1459 166 1446 397 1446 762 
L 1446 4173 
C 1446 4582 1459 4813 1491 5069 
L 371 5069 
z
" transform="scale(0.015625)"/>
      <path id="HiraginoSans-W7-69" d="M 384 5069 
L 384 4186 
L 1498 4186 
L 1498 5069 
L 384 5069 
z
M 371 3654 
C 410 3392 422 3149 422 2758 
L 422 762 
C 422 384 410 186 371 -134 
L 1504 -134 
C 1466 134 1453 390 1453 768 
L 1453 2752 
C 1453 3174 1466 3411 1504 3654 
L 371 3654 
z
" transform="scale(0.015625)"/>
      <path id="HiraginoSans-W7-6e" d="M 1485 -134 
C 1446 179 1434 416 1434 762 
L 1434 2061 
C 1709 2541 2106 2835 2483 2835 
C 2637 2835 2765 2797 2861 2726 
C 3014 2611 3066 2464 3066 2131 
L 3066 762 
C 3066 403 3053 166 3014 -134 
L 4134 -134 
C 4096 128 4083 371 4083 762 
L 4083 2374 
C 4083 3245 3610 3731 2758 3731 
C 2214 3731 1811 3552 1414 3142 
C 1421 3264 1427 3347 1427 3398 
L 1427 3654 
L 371 3654 
C 410 3411 422 3168 422 2758 
L 422 762 
C 422 390 410 154 371 -134 
L 1485 -134 
z
" transform="scale(0.015625)"/>
      <path id="HiraginoSans-W7-74" d="M 813 4646 
C 851 4352 864 4141 864 3821 
L 864 3654 
L 627 3654 
C 371 3654 237 3661 51 3693 
L 51 2790 
C 250 2822 378 2829 614 2829 
L 864 2829 
L 864 768 
C 864 58 1197 -224 2022 -224 
C 2355 -224 2586 -186 2842 -96 
L 2739 742 
C 2573 646 2445 614 2272 614 
C 1971 614 1862 723 1862 1024 
L 1862 2829 
L 2144 2829 
C 2419 2829 2541 2822 2752 2790 
L 2752 3686 
C 2554 3661 2406 3654 2112 3654 
L 1862 3654 
L 1862 3821 
C 1862 4122 1882 4403 1914 4646 
L 813 4646 
z
" transform="scale(0.015625)"/>
      <path id="HiraginoSans-W7-65" d="M 4032 1485 
C 4019 1606 4019 1613 4019 1638 
C 3994 2118 3962 2323 3846 2637 
C 3571 3373 2963 3782 2125 3782 
C 973 3782 211 2976 211 1760 
C 211 1139 410 595 774 237 
C 1107 -96 1587 -269 2163 -269 
C 2746 -269 3232 -90 3571 250 
C 3744 416 3840 563 3981 870 
L 3053 1146 
C 2918 755 2611 544 2163 544 
C 1856 544 1606 653 1434 864 
C 1306 1024 1248 1184 1216 1485 
L 4032 1485 
z
M 1235 2227 
C 1357 2726 1664 2982 2138 2982 
C 2432 2982 2675 2874 2829 2675 
C 2925 2547 2970 2432 3008 2227 
L 1235 2227 
z
" transform="scale(0.015625)"/>
      <path id="HiraginoSans-W7-67" d="M 294 -659 
C 736 -1152 1229 -1344 2035 -1344 
C 2701 -1344 3258 -1197 3590 -928 
C 3974 -614 4147 -134 4147 640 
L 4147 2810 
C 4147 3174 4160 3366 4198 3654 
L 3155 3654 
L 3155 3443 
C 3155 3373 3155 3328 3162 3277 
C 2867 3590 2496 3731 1965 3731 
C 1549 3731 1203 3622 902 3405 
C 442 3066 205 2547 205 1882 
C 205 768 877 58 1926 58 
C 2464 58 2854 218 3162 563 
C 3136 128 3091 -58 2963 -243 
C 2803 -467 2470 -595 2048 -595 
C 1626 -595 1299 -442 1069 -141 
L 294 -659 
z
M 1229 1882 
C 1229 2534 1587 2963 2138 2963 
C 2707 2963 3123 2515 3123 1901 
C 3123 1498 2957 1171 2656 992 
C 2496 890 2285 832 2106 832 
C 1888 832 1651 928 1504 1075 
C 1318 1261 1229 1530 1229 1882 
z
" transform="scale(0.015625)"/>
      <path id="HiraginoSans-W7-72" d="M 3277 3654 
C 3002 3712 2867 3725 2675 3725 
C 2106 3725 1696 3533 1427 3130 
L 1427 3654 
L 371 3654 
C 410 3386 422 3187 422 2758 
L 422 762 
C 422 384 410 186 371 -134 
L 1472 -134 
C 1440 141 1427 378 1427 762 
L 1427 1869 
C 1459 2170 1517 2317 1651 2477 
C 1830 2682 2080 2778 2419 2778 
C 2624 2778 2746 2758 3014 2669 
L 3277 3654 
z
" transform="scale(0.015625)"/>
      <path id="HiraginoSans-W7-61" d="M 2842 -134 
L 3878 -134 
C 3846 154 3834 346 3834 717 
L 3834 2451 
C 3834 2912 3750 3162 3533 3366 
C 3251 3635 2822 3763 2195 3763 
C 1594 3763 1133 3642 813 3392 
C 589 3219 467 3046 333 2675 
L 1344 2509 
C 1414 2688 1472 2778 1587 2861 
C 1709 2950 1939 3008 2189 3008 
C 2624 3008 2842 2854 2842 2541 
L 2842 2285 
C 2029 2259 1837 2240 1466 2163 
C 672 1984 237 1549 237 928 
C 237 589 365 294 602 96 
C 832 -109 1158 -205 1613 -205 
C 2131 -205 2458 -96 2842 198 
L 2842 -134 
z
M 2842 1357 
C 2842 1133 2765 973 2579 813 
C 2381 646 2067 538 1792 538 
C 1446 538 1254 685 1254 954 
C 1254 1197 1408 1370 1702 1459 
C 1990 1549 2259 1581 2842 1600 
L 2842 1357 
z
" transform="scale(0.015625)"/>
      <path id="HiraginoSans-W7-20" transform="scale(0.015625)"/>
      <path id="HiraginoSans-W7-2f" d="M 2419 5069 
L 109 -1069 
L 1069 -1069 
L 3373 5069 
L 2419 5069 
z
" transform="scale(0.015625)"/>
     </defs>
     <use xlink:href="#HiraginoSans-W7-6c"/>
     <use xlink:href="#HiraginoSans-W7-69" transform="translate(29.099991 0)"/>
     <use xlink:href="#HiraginoSans-W7-6e" transform="translate(58.299988 0)"/>
     <use xlink:href="#HiraginoSans-W7-74" transform="translate(128.499969 0)"/>
     <use xlink:href="#HiraginoSans-W7-65" transform="translate(173.999954 0)"/>
     <use xlink:href="#HiraginoSans-W7-67" transform="translate(240.099945 0)"/>
     <use xlink:href="#HiraginoSans-W7-72" transform="translate(311.399933 0)"/>
     <use xlink:href="#HiraginoSans-W7-61" transform="translate(363.499924 0)"/>
     <use xlink:href="#HiraginoSans-W7-6c" transform="translate(429.899918 0)"/>
     <use xlink:href="#HiraginoSans-W7-20" transform="translate(458.999908 0)"/>
     <use xlink:href="#HiraginoSans-W7-2f" transform="translate(492.299896 0)"/>
     <use xlink:href="#HiraginoSans-W7-20" transform="translate(546.69989 0)"/>
     <use xlink:href="#HiraginoSans-W7-69" transform="translate(579.999878 0)"/>
     <use xlink:href="#HiraginoSans-W7-6e" transform="translate(609.199875 0)"/>
     <use xlink:href="#HiraginoSans-W7-74" transform="translate(679.399857 0)"/>
     <use xlink:href="#HiraginoSans-W7-65" transform="translate(724.899841 0)"/>
     <use xlink:href="#HiraginoSans-W7-67" transform="translate(790.999832 0)"/>
     <use xlink:href="#HiraginoSans-W7-72" transform="translate(862.29982 0)"/>
     <use xlink:href="#HiraginoSans-W7-61" transform="translate(914.399811 0)"/>
     <use xlink:href="#HiraginoSans-W7-6c" transform="translate(980.799805 0)"/>
    </g>
   </g>
   <g id="text_6">
    <!-- 収束定理 -->
    <g style="fill: #ffffff" transform="translate(183.5 146.968956) scale(0.095 -0.095)">
     <defs>
      <path id="HiraginoSans-W7-53ce" d="M 1357 4013 
C 1357 4378 1363 4557 1395 4781 
L 518 4781 
C 550 4531 557 4371 557 4013 
L 557 1389 
C 435 1357 390 1350 173 1318 
L 320 435 
C 454 486 486 499 627 550 
C 1094 710 1574 890 1882 1018 
L 1882 230 
C 1882 -128 1875 -288 1843 -544 
L 2746 -544 
C 2720 -333 2707 -179 2707 147 
C 2758 77 2758 77 2778 51 
C 2976 -218 3014 -282 3136 -570 
C 3674 -192 4064 179 4461 685 
C 4845 243 5338 -192 5882 -563 
C 6022 -179 6106 -6 6298 307 
C 5728 646 5357 960 4954 1427 
C 5517 2445 5824 3494 5952 4851 
C 5971 5037 5971 5037 5984 5126 
C 5805 5107 5664 5101 5459 5101 
L 3571 5101 
C 3270 5101 3085 5114 2848 5139 
L 2848 4288 
C 2995 4307 3142 4314 3494 4314 
L 3827 4314 
L 3021 4006 
C 3085 3795 3085 3795 3200 3322 
C 3398 2515 3629 1926 3962 1370 
C 3757 1094 3584 902 3315 659 
C 3078 448 2970 365 2707 211 
L 2707 4614 
C 2707 4979 2714 5158 2746 5382 
L 1843 5382 
C 1875 5126 1882 4966 1882 4614 
L 1882 1798 
C 1638 1702 1555 1677 1357 1613 
L 1357 4013 
z
M 5030 4314 
C 4922 3450 4762 2867 4448 2189 
C 4154 2771 4019 3258 3846 4314 
L 5030 4314 
z
" transform="scale(0.015625)"/>
      <path id="HiraginoSans-W7-675f" d="M 2726 4096 
L 2726 3725 
L 1472 3725 
C 1133 3725 922 3731 781 3744 
C 800 3533 806 3411 806 3104 
L 806 2278 
C 806 1946 800 1811 781 1632 
C 954 1658 1139 1664 1491 1664 
L 2266 1664 
C 1805 1101 1088 653 115 320 
C 326 64 429 -128 557 -454 
C 1542 -32 2189 442 2752 1139 
C 2739 1037 2726 768 2726 710 
L 2726 83 
C 2726 -205 2714 -352 2682 -557 
L 3590 -557 
C 3558 -384 3552 -211 3552 90 
L 3552 704 
C 3539 902 3533 1005 3533 1011 
C 3533 1069 3533 1075 3526 1139 
C 4134 390 4787 -70 5824 -480 
C 5984 -77 6061 64 6259 339 
C 5286 602 4538 1037 3994 1664 
L 4896 1664 
C 5203 1664 5421 1658 5600 1632 
C 5594 1690 5587 1907 5574 2278 
L 5574 3110 
C 5574 3354 5581 3507 5600 3744 
C 5434 3731 5434 3731 4902 3725 
L 3552 3725 
L 3552 4096 
L 5421 4096 
C 5651 4096 5888 4083 6112 4064 
L 6112 4915 
C 5894 4883 5747 4877 5402 4877 
L 3552 4877 
C 3552 5094 3558 5222 3590 5414 
L 2682 5414 
C 2714 5229 2726 5088 2726 4877 
L 979 4877 
C 646 4877 493 4883 282 4915 
L 282 4064 
C 499 4083 736 4096 960 4096 
L 2726 4096 
z
M 2726 2995 
L 2726 2368 
L 1600 2368 
L 1600 2995 
L 2726 2995 
z
M 3552 2995 
L 4781 2995 
L 4781 2368 
L 3552 2368 
L 3552 2995 
z
" transform="scale(0.015625)"/>
      <path id="HiraginoSans-W7-5b9a" d="M 2893 608 
C 2490 787 2266 986 2016 1402 
C 2112 1715 2195 2010 2272 2330 
L 1434 2483 
C 1395 2086 1210 1498 998 1101 
C 781 698 563 403 218 70 
C 512 -141 666 -294 870 -563 
C 1235 -173 1453 147 1696 627 
C 1971 256 2291 13 2714 -160 
C 3149 -333 3795 -416 4698 -416 
C 5043 -416 5427 -410 5978 -397 
C 6016 -51 6061 134 6176 461 
C 5472 403 5062 384 4640 384 
C 4256 384 3987 397 3693 429 
L 3693 1376 
L 4870 1376 
C 5171 1376 5325 1370 5517 1344 
L 5517 2144 
C 5338 2118 5190 2112 4870 2112 
L 3693 2112 
L 3693 2816 
L 4646 2816 
C 4954 2816 5126 2810 5312 2784 
L 5312 3264 
L 6029 3264 
C 6003 3443 5997 3603 5997 3795 
L 5997 4346 
C 5997 4531 6003 4666 6022 4832 
C 5773 4813 5542 4806 5286 4806 
L 3603 4806 
L 3603 4998 
C 3603 5165 3610 5261 3635 5402 
L 2714 5402 
C 2739 5261 2746 5158 2746 4992 
L 2746 4806 
L 1126 4806 
C 870 4806 640 4813 390 4832 
C 410 4672 416 4512 416 4346 
L 416 3802 
C 416 3565 410 3424 384 3264 
L 1114 3264 
L 1114 2784 
C 1293 2810 1485 2816 1779 2816 
L 2893 2816 
L 2893 608 
z
M 5203 3571 
C 5043 3558 4883 3552 4646 3552 
L 1779 3552 
C 1536 3552 1376 3558 1222 3571 
L 1222 4051 
L 5203 4051 
L 5203 3571 
z
" transform="scale(0.015625)"/>
      <path id="HiraginoSans-W7-7406" d="M 3789 371 
L 2726 371 
C 2381 371 2240 378 2054 403 
L 2054 -403 
C 2291 -371 2470 -365 2835 -365 
L 5440 -365 
C 5805 -365 5990 -371 6202 -403 
L 6202 403 
C 6029 378 5856 371 5504 371 
L 4550 371 
L 4550 864 
L 5306 864 
C 5645 864 5805 858 5997 832 
L 5997 1619 
C 5818 1594 5670 1587 5299 1587 
L 4550 1587 
L 4550 2042 
L 5286 2042 
C 5664 2042 5760 2042 5952 2022 
C 5926 2221 5920 2438 5920 2899 
L 5920 4307 
C 5920 4710 5933 5030 5952 5216 
C 5792 5190 5600 5184 5120 5184 
L 3322 5184 
C 2899 5184 2707 5190 2432 5216 
C 2464 4998 2470 4794 2470 4333 
L 2470 2842 
C 2470 2432 2464 2170 2438 2022 
C 2618 2035 2778 2042 3200 2042 
L 3789 2042 
L 3789 1587 
L 3123 1587 
C 2720 1587 2592 1594 2438 1613 
L 2438 838 
C 2605 858 2739 864 3130 864 
L 3789 864 
L 3789 371 
z
M 3789 4448 
L 3789 3930 
L 3232 3930 
L 3232 4448 
L 3789 4448 
z
M 4550 4448 
L 5126 4448 
L 5126 3930 
L 4550 3930 
L 4550 4448 
z
M 3789 3283 
L 3789 2752 
L 3232 2752 
L 3232 3283 
L 3789 3283 
z
M 4550 3283 
L 5126 3283 
L 5126 2752 
L 4550 2752 
L 4550 3283 
z
M 915 4371 
L 915 3245 
L 787 3245 
C 582 3245 480 3251 326 3270 
L 326 2496 
C 467 2515 582 2522 768 2522 
L 915 2522 
L 915 1126 
C 467 966 397 947 179 902 
L 378 38 
C 435 70 467 83 512 102 
C 1389 461 1773 627 2298 890 
L 2285 1696 
C 2016 1562 1926 1523 1709 1434 
L 1709 2522 
L 1805 2522 
C 1952 2522 2080 2515 2208 2502 
L 2208 3270 
C 2067 3251 1971 3245 1805 3245 
L 1709 3245 
L 1709 4371 
L 1850 4371 
C 2022 4371 2157 4365 2310 4346 
L 2310 5146 
C 2150 5126 1978 5114 1722 5114 
L 845 5114 
C 589 5114 403 5126 250 5146 
L 250 4346 
C 410 4365 531 4371 710 4371 
L 915 4371 
z
" transform="scale(0.015625)"/>
     </defs>
     <use xlink:href="#HiraginoSans-W7-53ce"/>
     <use xlink:href="#HiraginoSans-W7-675f" transform="translate(99.999985 0)"/>
     <use xlink:href="#HiraginoSans-W7-5b9a" transform="translate(199.999969 0)"/>
     <use xlink:href="#HiraginoSans-W7-7406" transform="translate(299.999954 0)"/>
    </g>
   </g>
   <g id="text_7">
    <!-- $L^p$ 空間 -->
    <g style="fill: #ffffff" transform="translate(183.58 68.260803) scale(0.11 -0.11)">
     <defs>
      <path id="DejaVuSans-Oblique-4c" d="M 1075 4666 
L 1709 4666 
L 909 525 
L 3181 525 
L 3078 0 
L 172 0 
L 1075 4666 
z
" transform="scale(0.015625)"/>
      <path id="DejaVuSans-Oblique-70" d="M 3175 2156 
Q 3175 2616 2975 2859 
Q 2775 3103 2400 3103 
Q 2144 3103 1911 2972 
Q 1678 2841 1497 2591 
Q 1319 2344 1212 1994 
Q 1106 1644 1106 1300 
Q 1106 863 1306 627 
Q 1506 391 1875 391 
Q 2147 391 2380 519 
Q 2613 647 2778 891 
Q 2956 1147 3065 1494 
Q 3175 1841 3175 2156 
z
M 1394 2969 
Q 1625 3272 1939 3428 
Q 2253 3584 2638 3584 
Q 3175 3584 3472 3232 
Q 3769 2881 3769 2247 
Q 3769 1728 3584 1258 
Q 3400 788 3053 416 
Q 2822 169 2531 39 
Q 2241 -91 1919 -91 
Q 1547 -91 1294 64 
Q 1041 219 916 525 
L 556 -1331 
L -19 -1331 
L 922 3500 
L 1497 3500 
L 1394 2969 
z
" transform="scale(0.015625)"/>
      <path id="HiraginoSans-W7-7a7a" d="M 2726 4851 
L 1094 4851 
C 768 4851 582 4858 358 4877 
C 378 4723 384 4608 384 4390 
L 384 3795 
C 384 3603 371 3450 352 3277 
L 1197 3277 
L 1197 4109 
L 2080 4109 
C 2029 3648 1914 3437 1581 3206 
C 1274 2989 954 2880 333 2765 
C 538 2534 685 2310 813 2048 
C 1178 2150 1344 2208 1536 2291 
C 1901 2451 2202 2643 2400 2854 
C 2688 3168 2848 3578 2880 4109 
L 3392 4109 
L 3392 2918 
C 3392 2445 3558 2355 4461 2355 
C 5702 2355 5850 2445 5901 3264 
C 5555 3309 5357 3366 5114 3488 
C 5114 3206 5094 3142 5018 3110 
C 4973 3091 4755 3072 4608 3072 
C 4608 3072 4602 3072 4589 3072 
C 4525 3078 4461 3078 4390 3078 
C 4224 3085 4186 3117 4186 3232 
L 4186 4109 
L 5203 4109 
L 5203 3514 
L 6042 3514 
C 6016 3674 6010 3814 6010 4006 
L 6010 4390 
C 6010 4608 6016 4736 6035 4877 
C 5818 4858 5619 4851 5299 4851 
L 3584 4851 
L 3584 5030 
C 3584 5190 3597 5306 3616 5421 
L 2694 5421 
C 2720 5293 2726 5190 2726 5024 
L 2726 4851 
z
M 2739 1222 
L 2739 422 
L 1133 422 
C 819 422 454 442 294 461 
L 294 -378 
C 499 -352 774 -339 1133 -339 
L 5274 -339 
C 5626 -339 5901 -352 6106 -378 
L 6106 461 
C 5926 435 5651 422 5274 422 
L 3584 422 
L 3584 1222 
L 4813 1222 
C 5158 1222 5408 1210 5606 1184 
L 5606 2022 
C 5408 1990 5120 1978 4806 1978 
L 1491 1978 
C 1178 1978 1005 1990 794 2016 
L 794 1184 
C 986 1210 1222 1222 1574 1222 
L 2739 1222 
z
" transform="scale(0.015625)"/>
      <path id="HiraginoSans-W7-9593" d="M 4525 2125 
C 4525 2368 4531 2528 4544 2682 
C 4346 2669 4230 2662 3968 2662 
L 2419 2662 
C 2163 2662 2035 2669 1843 2682 
C 1856 2522 1862 2349 1862 2125 
L 1862 493 
C 1862 243 1856 13 1837 -173 
L 2605 -173 
L 2605 147 
L 3955 147 
C 4070 147 4128 147 4250 141 
C 4314 -45 4346 -192 4384 -467 
C 4730 -480 4749 -480 4845 -480 
C 5242 -480 5478 -454 5619 -390 
C 5850 -288 5933 -96 5933 333 
L 5933 4512 
C 5933 4832 5939 4998 5958 5229 
C 5766 5210 5626 5203 5306 5203 
L 4000 5203 
C 3667 5203 3533 5210 3341 5229 
C 3354 5024 3360 4864 3360 4640 
L 3360 3565 
C 3360 3251 3360 3187 3347 2995 
C 3494 3002 3706 3008 3904 3008 
L 5133 3008 
L 5133 454 
C 5133 320 5088 294 4864 294 
C 4781 294 4698 301 4531 314 
C 4525 442 4525 538 4525 678 
L 4525 2125 
z
M 4122 4614 
L 5133 4614 
L 5133 4352 
L 4122 4352 
L 4122 4614 
z
M 4122 3834 
L 5133 3834 
L 5133 3571 
L 4122 3571 
L 4122 3834 
z
M 2605 2029 
L 3789 2029 
L 3789 1702 
L 2605 1702 
L 2605 2029 
z
M 2605 1101 
L 3789 1101 
L 3789 781 
L 2605 781 
L 2605 1101 
z
M 1280 3008 
L 2419 3008 
C 2618 3008 2829 3002 2976 2995 
C 2963 3142 2963 3251 2963 3565 
L 2963 4640 
C 2963 4896 2970 5043 2982 5229 
C 2816 5210 2669 5203 2330 5203 
L 1101 5203 
C 787 5203 640 5210 448 5229 
C 467 5024 474 4851 474 4506 
L 474 294 
C 474 -122 461 -333 435 -531 
L 1318 -531 
C 1293 -352 1280 -109 1280 288 
L 1280 3008 
z
M 1280 4614 
L 2214 4614 
L 2214 4352 
L 1280 4352 
L 1280 4614 
z
M 1280 3834 
L 2214 3834 
L 2214 3571 
L 1280 3571 
L 1280 3834 
z
" transform="scale(0.015625)"/>
     </defs>
     <use xlink:href="#DejaVuSans-Oblique-4c" transform="translate(0 0.296875)"/>
     <use xlink:href="#DejaVuSans-Oblique-70" transform="translate(62.729661 38.578125) scale(0.7)"/>
     <use xlink:href="#HiraginoSans-W7-20" transform="translate(109.89763 0.296875)"/>
     <use xlink:href="#HiraginoSans-W7-7a7a" transform="translate(143.197618 0.296875)"/>
     <use xlink:href="#HiraginoSans-W7-9593" transform="translate(243.197603 0.296875)"/>
    </g>
   </g>
   <g id="text_8">
    <!-- 確率空間 -->
    <g style="fill: #ffffff" transform="translate(180.5 92.348527) scale(0.11 -0.11)">
     <defs>
      <path id="HiraginoSans-W7-78ba" d="M 5338 4179 
L 5338 3590 
L 6125 3590 
C 6106 3731 6099 3840 6099 4045 
L 6099 4442 
C 6099 4685 6106 4813 6118 4928 
C 5978 4909 5811 4902 5587 4902 
L 4467 4902 
C 4538 5165 4563 5248 4608 5395 
L 3750 5491 
C 3718 5267 3693 5133 3635 4902 
L 2726 4902 
C 2534 4902 2464 4902 2381 4915 
L 2381 5242 
C 2176 5216 2003 5210 1728 5210 
L 966 5210 
C 704 5210 506 5222 326 5242 
L 326 4435 
C 512 4461 634 4467 870 4467 
L 973 4467 
C 864 3667 550 2918 109 2400 
C 237 2093 301 1843 358 1408 
C 518 1606 531 1619 659 1882 
C 646 1722 646 1606 646 1485 
L 646 237 
C 646 -19 634 -243 614 -442 
L 1350 -442 
L 1350 122 
L 1709 122 
L 1709 -141 
L 2406 -141 
C 2387 -32 2387 64 2387 339 
L 2387 2234 
C 2477 2086 2522 1978 2592 1792 
C 2643 1843 2733 1952 2810 2061 
C 2810 2029 2810 1907 2803 1702 
L 2803 166 
C 2803 -179 2790 -346 2765 -570 
L 3571 -570 
L 3571 -294 
L 5504 -294 
C 5728 -294 5907 -307 6125 -333 
L 6125 403 
C 5978 384 5818 378 5530 378 
L 4979 378 
L 4979 749 
L 5402 749 
C 5626 749 5741 742 5901 723 
L 5901 1370 
C 5766 1350 5670 1344 5395 1344 
L 4979 1344 
L 4979 1715 
L 5402 1715 
C 5613 1715 5760 1709 5901 1690 
L 5901 2336 
C 5766 2317 5677 2310 5395 2310 
L 4979 2310 
L 4979 2675 
L 5517 2675 
C 5696 2675 5843 2669 6003 2650 
L 6003 3366 
C 5850 3347 5773 3341 5504 3341 
L 5088 3341 
C 5178 3507 5235 3629 5318 3853 
L 4563 4013 
C 4499 3757 4410 3526 4307 3341 
L 3808 3341 
C 4000 3667 4083 3846 4218 4179 
L 5338 4179 
z
M 3430 4179 
C 3309 3885 3251 3763 3142 3571 
C 2918 3194 2656 2880 2387 2637 
L 2387 2733 
C 2387 2912 2394 3046 2406 3181 
C 2285 3168 2182 3162 2022 3162 
L 1402 3162 
C 1587 3648 1664 3923 1754 4467 
L 2042 4467 
C 2150 4467 2214 4461 2323 4448 
L 2323 3981 
C 2323 3834 2317 3693 2298 3552 
L 3040 3552 
L 3040 4179 
L 3430 4179 
z
M 3571 2310 
L 3571 2675 
L 4230 2675 
L 4230 2310 
L 3571 2310 
z
M 3571 1715 
L 4230 1715 
L 4230 1344 
L 3571 1344 
L 3571 1715 
z
M 3571 749 
L 4230 749 
L 4230 378 
L 3571 378 
L 3571 749 
z
M 1344 2426 
L 1715 2426 
L 1715 870 
L 1344 870 
L 1344 2426 
z
" transform="scale(0.015625)"/>
      <path id="HiraginoSans-W7-7387" d="M 1741 3603 
C 1434 3885 1274 4019 998 4224 
L 416 3699 
C 838 3398 1056 3200 1395 2803 
L 1952 3354 
C 2214 3149 2426 2970 2611 2778 
C 2445 2624 2381 2566 2170 2394 
C 2048 2394 2048 2394 1990 2394 
L 1779 2938 
C 1210 2605 736 2413 288 2323 
L 557 1517 
C 1197 1786 1350 1856 1728 2067 
L 1792 1683 
C 1869 1690 1869 1690 2752 1754 
L 2752 1357 
L 960 1357 
C 666 1357 422 1370 256 1395 
L 256 570 
C 544 595 762 608 1050 608 
L 2752 608 
L 2752 64 
C 2752 -192 2739 -378 2707 -589 
L 3635 -589 
C 3603 -384 3590 -205 3590 64 
L 3590 608 
L 5395 608 
C 5702 608 5946 595 6189 570 
L 6189 1395 
C 6010 1370 5805 1357 5517 1357 
L 3590 1357 
L 3590 1805 
C 3930 1830 3930 1830 4122 1850 
C 4160 1747 4173 1709 4218 1594 
L 4877 1837 
C 4672 2214 4672 2214 4582 2368 
C 5024 2074 5280 1856 5626 1491 
L 6163 2131 
C 5658 2534 5555 2605 4992 2938 
C 5082 3008 5158 3066 5203 3098 
C 5306 3174 5370 3226 5395 3245 
C 5581 3386 5690 3488 5926 3712 
L 5318 4224 
C 4973 3859 4717 3654 4243 3341 
L 4768 2765 
L 4525 2483 
C 4416 2656 4346 2758 4141 3046 
L 3597 2816 
C 3706 2637 3744 2579 3808 2470 
C 3520 2445 3277 2426 3091 2419 
C 3251 2547 3302 2592 3526 2803 
L 3629 2899 
C 3930 3174 4090 3334 4378 3667 
L 3770 4064 
C 3501 3706 3386 3558 3117 3277 
C 3040 3354 2982 3411 2899 3488 
C 3123 3738 3270 3936 3450 4237 
L 5453 4237 
C 5741 4237 5933 4230 6138 4211 
L 6138 5011 
C 5907 4986 5690 4973 5325 4973 
L 3603 4973 
L 3603 5043 
C 3603 5184 3616 5293 3642 5421 
L 2720 5421 
C 2746 5299 2758 5178 2758 5043 
L 2758 4973 
L 1139 4973 
C 787 4973 576 4986 339 5011 
L 339 4211 
C 544 4230 736 4237 1011 4237 
L 2624 4237 
C 2554 4109 2490 4013 2400 3904 
C 2317 3962 2285 3987 2176 4064 
L 1741 3603 
z
" transform="scale(0.015625)"/>
     </defs>
     <use xlink:href="#HiraginoSans-W7-78ba"/>
     <use xlink:href="#HiraginoSans-W7-7387" transform="translate(99.999985 0)"/>
     <use xlink:href="#HiraginoSans-W7-7a7a" transform="translate(199.999969 0)"/>
     <use xlink:href="#HiraginoSans-W7-9593" transform="translate(299.999954 0)"/>
    </g>
   </g>
   <g id="text_9">
    <!-- 第3巻：測度論の構造ピラミッド -->
    <g style="fill: #1a1a2e" transform="translate(106.683906 17.496406) scale(0.13 -0.13)">
     <defs>
      <path id="HiraginoSans-W7-7b2c" d="M 2822 147 
C 2829 109 2829 64 2829 -13 
C 2829 -269 2822 -397 2790 -576 
L 3674 -576 
C 3642 -371 3629 -198 3629 141 
L 3610 1158 
L 5101 1158 
C 5062 608 5037 570 4723 570 
C 4576 570 4288 589 4058 621 
C 4154 352 4198 179 4243 -128 
C 4461 -134 4557 -141 4698 -141 
C 5658 -141 5792 -6 5882 1075 
C 5907 1357 5939 1715 5958 1850 
C 5805 1837 5638 1830 5402 1830 
L 3603 1830 
L 3597 2150 
L 5062 2150 
C 5325 2150 5510 2144 5664 2131 
C 5645 2272 5638 2381 5638 2611 
L 5638 3366 
C 5638 3610 5645 3706 5664 3840 
C 5491 3827 5402 3821 5062 3821 
L 4698 3821 
L 5267 3974 
C 5203 4083 5152 4166 5050 4320 
L 5459 4320 
C 5754 4320 5939 4314 6131 4288 
L 6131 5056 
C 5920 5024 5779 5018 5421 5018 
L 4314 5018 
C 4365 5126 4365 5126 4454 5331 
L 3635 5459 
C 3539 5107 3392 4832 3155 4563 
L 3155 5056 
C 3002 5030 2842 5024 2534 5024 
L 1792 5024 
C 1856 5146 1875 5184 1952 5331 
L 1133 5459 
C 998 5011 685 4608 160 4224 
C 352 4032 486 3853 634 3597 
C 717 3667 742 3686 806 3744 
L 806 3123 
C 986 3142 1133 3149 1382 3149 
L 2778 3149 
L 2784 2822 
L 1466 2822 
C 1165 2822 973 2829 864 2842 
C 858 2714 813 2426 755 2112 
C 691 1754 614 1478 422 928 
L 1299 915 
C 1331 1024 1350 1101 1370 1158 
L 2234 1158 
C 1709 730 979 390 198 211 
C 422 -51 544 -230 691 -512 
C 1542 -237 2278 198 2816 749 
L 2822 147 
z
M 2797 1830 
L 1530 1830 
C 1568 2016 1594 2125 1600 2150 
L 2790 2150 
L 2797 1830 
z
M 3584 3149 
L 4838 3149 
L 4838 2822 
L 3590 2822 
L 3584 3149 
z
M 3494 3821 
C 3674 3987 3782 4122 3930 4320 
L 4224 4320 
C 4358 4109 4442 3949 4493 3821 
L 3494 3821 
z
M 1382 3821 
C 1152 3821 1069 3821 909 3834 
C 1075 3994 1197 4128 1344 4326 
L 1626 4326 
C 1734 4141 1792 4013 1862 3821 
L 1382 3821 
z
M 2080 3821 
L 2624 3974 
C 2477 4218 2470 4237 2413 4326 
L 2739 4326 
C 2784 4326 2822 4326 2906 4320 
C 2854 4282 2835 4269 2784 4224 
C 2976 4077 3085 3974 3213 3821 
L 2080 3821 
z
" transform="scale(0.015625)"/>
      <path id="HiraginoSans-W7-33" d="M 243 1158 
C 352 787 435 602 614 390 
C 979 -38 1568 -256 2349 -256 
C 3091 -256 3667 -70 4032 288 
C 4275 525 4422 877 4422 1229 
C 4422 1600 4326 1875 4122 2112 
C 3904 2349 3661 2470 3219 2554 
C 3654 2682 3821 2771 3994 2976 
C 4179 3187 4275 3475 4275 3808 
C 4275 4134 4141 4454 3917 4678 
C 3584 5011 3053 5190 2400 5190 
C 1715 5190 1190 5005 826 4640 
C 608 4422 506 4230 378 3840 
L 1517 3661 
C 1568 3840 1600 3917 1677 4013 
C 1818 4192 2054 4294 2349 4294 
C 2880 4294 3149 4090 3149 3674 
C 3149 3430 3046 3245 2854 3123 
C 2707 3027 2464 2976 2150 2976 
C 1952 2976 1734 2989 1542 3014 
L 1542 2074 
C 1779 2099 1997 2106 2317 2106 
C 2957 2106 3283 1856 3283 1376 
C 3283 922 2925 634 2362 634 
C 2054 634 1792 723 1606 902 
C 1472 1024 1421 1126 1370 1363 
L 243 1158 
z
" transform="scale(0.015625)"/>
      <path id="HiraginoSans-W7-5dfb" d="M 5382 2624 
C 5702 2624 5875 2618 6099 2592 
L 6099 3379 
C 5907 3354 5786 3347 5382 3347 
L 4461 3347 
C 4352 3507 4314 3590 4224 3782 
L 5107 3782 
C 5421 3782 5619 3776 5830 3757 
L 5830 4499 
C 5638 4474 5523 4467 5107 4467 
L 4870 4467 
C 5030 4678 5171 4902 5312 5158 
L 4454 5363 
C 4346 5082 4173 4762 3962 4467 
L 3405 4467 
C 3494 4768 3514 4838 3571 5056 
C 3610 5222 3622 5261 3667 5389 
L 2746 5459 
C 2739 5178 2688 4896 2566 4467 
L 2253 4467 
C 2093 4851 1984 5062 1786 5363 
L 979 5165 
C 1139 4941 1267 4730 1389 4467 
L 1299 4467 
C 896 4467 774 4474 589 4499 
L 589 3757 
C 794 3776 992 3782 1299 3782 
L 2310 3782 
C 2227 3616 2170 3501 2074 3347 
L 1018 3347 
C 627 3347 486 3354 301 3379 
L 301 2592 
C 499 2618 685 2624 1018 2624 
L 1517 2624 
C 1126 2221 749 1971 128 1696 
C 346 1408 474 1190 589 883 
C 1120 1210 1606 1594 1978 1984 
L 1978 1613 
C 2138 1626 2208 1632 2432 1632 
L 3776 1632 
L 3776 1312 
L 1798 1312 
C 1632 1312 1530 1318 1376 1338 
C 1389 1190 1389 1146 1389 998 
L 1389 96 
C 1389 -218 1517 -384 1798 -435 
C 2048 -486 2618 -506 3674 -506 
C 4973 -506 5242 -461 5434 -198 
C 5581 -6 5645 250 5670 787 
C 5402 838 5158 915 4883 1043 
L 4883 902 
C 4883 659 4858 454 4819 365 
C 4762 224 4589 205 3456 205 
C 2253 205 2202 211 2202 378 
L 2202 653 
L 4083 653 
C 4461 653 4461 653 4602 640 
C 4589 730 4582 819 4582 966 
L 4582 1120 
L 4589 1805 
C 4589 1875 4589 1914 4595 1990 
C 4979 1600 5280 1376 5792 1075 
C 5946 1376 6086 1594 6291 1843 
C 5741 2086 5446 2272 5062 2624 
L 5382 2624 
z
M 2656 2291 
C 2502 2291 2387 2291 2266 2298 
C 2394 2445 2445 2509 2528 2624 
L 4058 2624 
C 4154 2490 4205 2426 4307 2291 
C 4230 2291 4205 2291 4128 2291 
L 2656 2291 
z
M 2944 3347 
C 3021 3514 3046 3584 3123 3782 
L 3437 3782 
C 3533 3546 3565 3469 3629 3347 
L 2944 3347 
z
" transform="scale(0.015625)"/>
      <path id="HiraginoSans-W7-ff1a" d="M 3757 4326 
L 2650 4326 
L 2650 3219 
L 3757 3219 
L 3757 4326 
z
M 3757 538 
L 3757 1645 
L 2650 1645 
L 2650 538 
L 3757 538 
z
" transform="scale(0.015625)"/>
      <path id="HiraginoSans-W7-8ad6" d="M 3450 928 
L 3450 237 
C 3450 -128 3443 -269 3430 -397 
L 4058 -397 
C 4038 -250 4032 -147 4032 237 
L 4032 928 
L 4346 928 
L 4346 250 
C 4346 6 4339 -230 4326 -390 
L 4934 -390 
C 4922 -224 4915 -109 4915 179 
C 5011 -6 5043 -122 5088 -512 
C 5824 -493 6003 -371 6003 122 
L 6003 2310 
C 6003 2624 6010 2726 6029 2931 
C 5850 2912 5754 2906 5408 2906 
L 2925 2906 
C 2624 2906 2509 2912 2355 2931 
C 2368 2662 2374 2566 2374 2310 
L 2374 0 
C 2374 -243 2368 -410 2349 -544 
L 3136 -544 
C 3110 -397 3104 -256 3104 -6 
L 3104 928 
L 3450 928 
z
M 4915 928 
L 5267 928 
L 5267 358 
C 5267 269 5242 243 5152 243 
C 5120 243 4992 250 4915 250 
L 4915 928 
z
M 3450 1606 
L 3104 1606 
L 3104 2234 
L 3450 2234 
L 3450 1606 
z
M 4032 1606 
L 4032 2234 
L 4346 2234 
L 4346 1606 
L 4032 1606 
z
M 4915 1606 
L 4915 2234 
L 5267 2234 
L 5267 1606 
L 4915 1606 
z
M 2982 3187 
C 3130 3200 3226 3206 3488 3206 
L 4902 3206 
C 5165 3206 5261 3200 5402 3187 
L 5402 3558 
C 5651 3398 5754 3347 6022 3219 
C 6118 3578 6214 3821 6362 4064 
C 5926 4218 5594 4397 5235 4678 
C 4922 4928 4736 5126 4589 5382 
L 3642 5382 
C 3501 5107 3360 4922 3085 4666 
C 2810 4410 2541 4218 2208 4032 
L 2208 4378 
C 2061 4358 1958 4352 1702 4352 
L 698 4352 
C 461 4352 339 4358 192 4384 
L 192 3648 
C 346 3667 474 3674 698 3674 
L 1722 3674 
C 1997 3674 2074 3674 2189 3654 
C 2304 3501 2355 3424 2458 3206 
C 2669 3341 2739 3392 2982 3578 
L 2982 3187 
z
M 3488 3898 
L 3398 3898 
C 3782 4218 3904 4339 4141 4678 
C 4429 4314 4576 4160 4909 3898 
L 3488 3898 
z
M 384 4608 
C 538 4621 678 4627 934 4627 
L 1600 4627 
C 1862 4627 1971 4621 2150 4608 
L 2150 5274 
C 1984 5254 1869 5248 1600 5248 
L 934 5248 
C 666 5248 550 5254 384 5274 
L 384 4608 
z
M 410 2733 
C 544 2752 608 2752 806 2752 
L 1722 2752 
C 1914 2752 1965 2752 2099 2733 
L 2099 3392 
C 1990 3379 1920 3373 1722 3373 
L 806 3373 
C 602 3373 531 3373 410 3392 
L 410 2733 
z
M 410 1818 
C 538 1837 602 1837 794 1837 
L 1702 1837 
C 1907 1837 1978 1837 2099 1818 
L 2099 2477 
C 1990 2464 1914 2458 1715 2458 
L 806 2458 
C 602 2458 525 2464 410 2477 
L 410 1818 
z
M 1056 -269 
L 1472 -269 
L 1472 -442 
L 2144 -442 
C 2131 -333 2125 -179 2125 -26 
L 2125 1114 
C 2125 1376 2125 1453 2138 1574 
C 2048 1562 1958 1555 1747 1555 
L 800 1555 
C 595 1555 557 1555 346 1574 
C 365 1395 371 1274 371 1062 
L 371 70 
C 371 -147 358 -358 339 -544 
L 1056 -544 
L 1056 -269 
z
M 1037 947 
L 1478 947 
L 1478 371 
L 1037 371 
L 1037 947 
z
" transform="scale(0.015625)"/>
      <path id="HiraginoSans-W7-306e" d="M 3776 4038 
C 4032 4006 4186 3955 4371 3834 
C 4806 3546 5056 3066 5056 2496 
C 5056 1818 4723 1222 4173 922 
C 3872 762 3475 659 2906 614 
C 3155 282 3245 109 3379 -294 
C 3834 -218 4090 -154 4397 -32 
C 5421 371 6003 1274 6003 2438 
C 6003 3936 4979 4896 3373 4896 
C 2458 4896 1670 4576 1120 3974 
C 653 3469 403 2803 403 2074 
C 403 973 966 198 1760 198 
C 2310 198 2733 576 3091 1389 
C 3424 2131 3648 2982 3776 4038 
z
M 2842 4026 
C 2765 3341 2566 2534 2330 1965 
C 2125 1446 1926 1197 1741 1197 
C 1491 1197 1286 1587 1286 2067 
C 1286 2707 1587 3328 2074 3706 
C 2323 3898 2534 3987 2842 4026 
z
" transform="scale(0.015625)"/>
      <path id="HiraginoSans-W7-69cb" d="M 2317 1120 
C 2157 1120 2061 1126 1965 1139 
L 1965 429 
C 2067 448 2157 454 2317 454 
L 2317 262 
C 2317 -173 2310 -307 2285 -570 
L 3078 -570 
C 3059 -339 3053 -198 3053 262 
L 3053 454 
L 5024 454 
L 5024 224 
C 5024 109 4979 90 4768 90 
C 4634 90 4512 102 4262 134 
C 4352 -83 4384 -230 4403 -512 
C 4749 -525 4787 -525 4870 -525 
C 5606 -525 5754 -416 5754 115 
L 5754 454 
C 5946 448 6003 448 6144 429 
L 6144 1146 
C 6016 1126 5939 1120 5754 1120 
L 5754 2010 
C 5754 2298 5760 2445 5779 2630 
C 5626 2611 5472 2605 5197 2605 
L 4384 2605 
L 4384 2835 
L 5530 2835 
C 5792 2835 5933 2829 6125 2803 
L 6125 3469 
C 5933 3443 5779 3437 5536 3437 
L 5158 3437 
L 5158 3667 
L 5408 3667 
C 5645 3667 5734 3661 5869 3642 
L 5869 4205 
C 5741 4186 5555 4179 5402 4179 
L 5158 4179 
L 5158 4403 
L 5510 4403 
C 5760 4403 5875 4397 6035 4378 
L 6035 4992 
C 5856 4973 5702 4960 5510 4960 
L 5158 4960 
C 5158 5165 5165 5261 5197 5382 
L 4384 5382 
C 4416 5274 4422 5210 4422 4960 
L 3654 4960 
C 3654 5197 3661 5274 3699 5382 
L 2880 5382 
C 2912 5261 2918 5203 2918 4960 
L 2701 4960 
C 2490 4960 2349 4966 2189 4992 
L 2189 4378 
C 2349 4397 2502 4403 2714 4403 
L 2918 4403 
L 2918 4179 
L 2784 4179 
C 2598 4179 2464 4186 2317 4205 
L 2317 3648 
C 2432 3661 2566 3667 2778 3667 
L 2918 3667 
L 2918 3437 
L 2624 3437 
C 2381 3437 2227 3443 2093 3462 
L 2093 2867 
C 1933 3104 1830 3302 1747 3533 
L 1818 3533 
C 1952 3533 2042 3526 2163 3507 
L 2163 4294 
C 2035 4275 1965 4269 1798 4269 
L 1690 4269 
L 1690 4749 
C 1690 5043 1696 5235 1722 5414 
L 877 5414 
C 902 5242 915 5069 915 4742 
L 915 4269 
L 672 4269 
C 467 4269 378 4275 256 4301 
L 256 3501 
C 371 3526 486 3533 672 3533 
L 851 3533 
C 723 2899 435 2208 64 1677 
C 256 1408 358 1229 480 947 
C 672 1261 787 1510 960 2029 
C 934 1779 922 1478 922 1248 
L 922 230 
C 922 -83 909 -365 877 -576 
L 1728 -576 
C 1702 -358 1690 -102 1690 230 
L 1690 1696 
C 1683 2099 1677 2355 1664 2470 
C 1766 2214 1850 2067 1984 1888 
C 2080 2112 2176 2266 2310 2438 
C 2317 2298 2317 2234 2317 2048 
L 2317 1120 
z
M 3053 1075 
L 3053 1331 
L 3667 1331 
L 3667 1075 
L 3053 1075 
z
M 3053 1811 
L 3053 2061 
L 3667 2061 
L 3667 1811 
L 3053 1811 
z
M 4365 1075 
L 4365 1331 
L 5024 1331 
L 5024 1075 
L 4365 1075 
z
M 4365 1811 
L 4365 2061 
L 5024 2061 
L 5024 1811 
L 4365 1811 
z
M 3648 2835 
L 3648 2605 
L 2848 2605 
C 2630 2605 2451 2611 2310 2618 
C 2221 2701 2195 2726 2131 2810 
C 2266 2829 2464 2835 2662 2835 
L 3648 2835 
z
M 3654 3437 
L 3654 3667 
L 4422 3667 
L 4422 3437 
L 3654 3437 
z
M 3654 4179 
L 3654 4403 
L 4422 4403 
L 4422 4179 
L 3654 4179 
z
" transform="scale(0.015625)"/>
      <path id="HiraginoSans-W7-9020" d="M 2003 2778 
C 2189 2797 2342 2803 2534 2803 
L 5485 2803 
C 5709 2803 5875 2797 6080 2771 
L 6080 3539 
C 5926 3520 5779 3514 5485 3514 
L 4467 3514 
L 4467 3981 
L 5197 3981 
C 5510 3981 5683 3974 5882 3955 
L 5882 4730 
C 5690 4704 5498 4691 5165 4691 
L 4467 4691 
L 4467 4832 
C 4467 5133 4474 5261 4499 5395 
L 3654 5395 
C 3680 5248 3686 5120 3686 4832 
L 3686 4691 
L 3226 4691 
C 3264 4800 3347 5024 3360 5056 
C 3386 5133 3386 5133 3405 5178 
L 2605 5318 
C 2547 4909 2272 4390 1869 3923 
C 2176 3782 2298 3706 2554 3514 
C 2266 3514 2163 3520 2003 3539 
L 2003 2778 
z
M 2592 3514 
C 2752 3744 2784 3795 2893 3981 
L 3686 3981 
L 3686 3514 
L 2592 3514 
z
M 5107 646 
C 5414 646 5542 640 5728 627 
C 5709 781 5709 845 5709 1235 
L 5709 1862 
C 5709 2272 5709 2368 5728 2528 
C 5542 2509 5363 2502 5069 2502 
L 3046 2502 
C 2714 2502 2534 2509 2349 2528 
C 2362 2400 2362 2400 2368 1965 
L 2368 1498 
C 2368 781 2368 774 2349 627 
C 2502 640 2618 646 2886 646 
L 5107 646 
z
M 3136 1811 
L 4909 1811 
L 4909 1338 
L 3136 1338 
L 3136 1811 
z
M 250 4781 
C 627 4448 1030 4006 1325 3610 
L 1978 4230 
C 1670 4602 1312 4960 870 5344 
L 250 4781 
z
M 262 2170 
C 416 2189 544 2202 678 2202 
L 992 2202 
L 992 896 
C 774 723 685 659 480 531 
C 403 486 352 454 339 442 
C 275 403 205 371 128 339 
L 493 -531 
C 550 -486 640 -416 685 -384 
C 954 -205 1120 -70 1389 173 
C 1606 -96 1805 -230 2138 -333 
C 2477 -442 2880 -474 3936 -474 
C 4621 -474 5594 -454 6099 -435 
C 6150 -58 6170 32 6310 435 
C 5555 339 4704 301 3462 301 
C 2842 301 2496 346 2227 454 
C 2022 538 1926 621 1798 838 
L 1798 2278 
C 1798 2637 1805 2790 1824 2989 
C 1651 2970 1536 2963 1338 2963 
L 787 2963 
C 538 2963 435 2970 262 2995 
L 262 2170 
z
" transform="scale(0.015625)"/>
      <path id="HiraginoSans-W7-30d4" d="M 2022 4198 
C 2022 4634 2029 4774 2061 4998 
L 1030 4998 
C 1056 4781 1069 4602 1069 4205 
L 1069 1402 
C 1069 595 1146 301 1427 96 
C 1702 -102 2138 -179 2989 -179 
C 3482 -179 4237 -141 4806 -83 
C 5216 -45 5318 -32 5453 -32 
L 5414 979 
C 5056 870 4819 826 4352 781 
C 3974 736 3469 710 3123 710 
C 2566 710 2221 762 2125 858 
C 2029 947 2022 1011 2022 1523 
L 2022 2298 
C 3155 2509 4032 2803 5024 3290 
C 5235 3392 5235 3392 5331 3437 
L 4736 4288 
C 4269 3891 3053 3398 2022 3194 
L 2022 4198 
z
M 5408 5491 
C 5011 5491 4698 5171 4698 4781 
C 4698 4390 5018 4070 5408 4070 
C 5798 4070 6118 4390 6118 4781 
C 6118 5178 5798 5491 5408 5491 
z
M 5408 5094 
C 5581 5094 5722 4954 5722 4781 
C 5722 4608 5581 4467 5408 4467 
C 5235 4467 5094 4608 5094 4781 
C 5094 4954 5235 5094 5408 5094 
z
" transform="scale(0.015625)"/>
      <path id="HiraginoSans-W7-30e9" d="M 1222 4166 
C 1421 4186 1677 4198 2086 4198 
L 4218 4198 
C 4762 4198 4858 4192 5075 4166 
L 5075 5094 
C 4845 5050 4723 5043 4205 5043 
L 2106 5043 
C 1664 5043 1453 5056 1222 5094 
L 1222 4166 
z
M 685 2592 
C 922 2618 1114 2624 1638 2624 
L 4550 2624 
C 4294 2003 4006 1606 3539 1235 
C 3066 864 2579 640 1805 442 
C 2144 64 2234 -70 2406 -448 
C 3283 -102 3718 122 4154 474 
C 4787 986 5280 1722 5606 2662 
C 5690 2886 5715 2950 5786 3066 
L 5357 3539 
C 5171 3482 5107 3475 4736 3475 
L 1651 3475 
C 1082 3475 960 3482 685 3520 
L 685 2592 
z
" transform="scale(0.015625)"/>
      <path id="HiraginoSans-W7-30df" d="M 1338 4250 
C 2509 4141 3795 3878 4954 3514 
L 5248 4435 
C 3738 4832 3002 4973 1677 5120 
L 1338 4250 
z
M 1248 2477 
C 1952 2394 2374 2323 2918 2202 
C 3763 2010 4211 1882 4723 1677 
L 5005 2605 
C 3699 2995 2618 3226 1587 3341 
L 1248 2477 
z
M 717 666 
C 1440 576 1971 486 2765 307 
C 3770 77 4378 -109 5082 -410 
L 5395 563 
C 3866 1075 2637 1357 1075 1542 
L 717 666 
z
" transform="scale(0.015625)"/>
      <path id="HiraginoSans-W7-30c3" d="M 941 3526 
C 1222 2957 1344 2624 1517 1926 
L 2374 2189 
C 2150 2912 2022 3232 1741 3757 
L 941 3526 
z
M 2336 3802 
C 2586 3302 2790 2752 2912 2246 
L 3750 2502 
C 3590 3085 3469 3373 3130 4019 
L 2336 3802 
z
M 4538 3891 
C 4531 3680 4499 3469 4422 3155 
C 4160 2131 3738 1472 2995 934 
C 2630 678 2355 531 1869 346 
C 2189 38 2278 -77 2477 -416 
C 3488 96 4058 550 4512 1203 
C 4890 1754 5165 2458 5350 3322 
C 5402 3552 5408 3571 5446 3680 
L 4538 3891 
z
" transform="scale(0.015625)"/>
      <path id="HiraginoSans-W7-30c9" d="M 3776 4570 
C 4000 4288 4192 3968 4346 3622 
L 4902 3898 
C 4742 4256 4582 4506 4333 4813 
L 3776 4570 
z
M 4538 4909 
C 4762 4627 4941 4326 5101 4000 
L 5658 4275 
C 5459 4653 5350 4826 5075 5158 
L 4538 4909 
z
M 2554 -339 
C 2528 -96 2515 141 2515 550 
L 2515 2394 
C 2611 2342 2637 2330 2758 2278 
C 3494 1958 4333 1504 4902 1114 
L 5427 2035 
C 4384 2643 3507 3040 2515 3379 
L 2515 4352 
C 2515 4819 2522 4966 2554 5210 
L 1510 5210 
C 1542 4986 1549 4806 1549 4352 
L 1549 563 
C 1549 128 1542 -96 1510 -339 
L 2554 -339 
z
" transform="scale(0.015625)"/>
     </defs>
     <use xlink:href="#HiraginoSans-W7-7b2c"/>
     <use xlink:href="#HiraginoSans-W7-33" transform="translate(99.999985 0)"/>
     <use xlink:href="#HiraginoSans-W7-5dfb" transform="translate(174.099976 0)"/>
     <use xlink:href="#HiraginoSans-W7-ff1a" transform="translate(274.09996 0)"/>
     <use xlink:href="#HiraginoSans-W7-6e2c" transform="translate(374.099945 0)"/>
     <use xlink:href="#HiraginoSans-W7-5ea6" transform="translate(474.09993 0)"/>
     <use xlink:href="#HiraginoSans-W7-8ad6" transform="translate(574.099915 0)"/>
     <use xlink:href="#HiraginoSans-W7-306e" transform="translate(674.099899 0)"/>
     <use xlink:href="#HiraginoSans-W7-69cb" transform="translate(774.099884 0)"/>
     <use xlink:href="#HiraginoSans-W7-9020" transform="translate(874.099869 0)"/>
     <use xlink:href="#HiraginoSans-W7-30d4" transform="translate(974.099854 0)"/>
     <use xlink:href="#HiraginoSans-W7-30e9" transform="translate(1074.099838 0)"/>
     <use xlink:href="#HiraginoSans-W7-30df" transform="translate(1174.099823 0)"/>
     <use xlink:href="#HiraginoSans-W7-30c3" transform="translate(1274.099808 0)"/>
     <use xlink:href="#HiraginoSans-W7-30c9" transform="translate(1374.099792 0)"/>
    </g>
   </g>
  </g>
 </g>
 <defs>
  <clipPath id="pbcfe12e089">
   <rect x="7.2" y="29.496406" width="390.6" height="498.96"/>
  </clipPath>
 </defs>
</svg>
