<?xml version="1.0" encoding="utf-8" standalone="no"?>
<!DOCTYPE svg PUBLIC "-//W3C//DTD SVG 1.1//EN"
  "http://www.w3.org/Graphics/SVG/1.1/DTD/svg11.dtd">
<svg xmlns:xlink="http://www.w3.org/1999/xlink" width="516.6pt" height="311.104375pt" viewBox="0 0 516.6 311.104375" xmlns="http://www.w3.org/2000/svg" version="1.1">
 <metadata>
  <rdf:RDF xmlns:dc="http://purl.org/dc/elements/1.1/" xmlns:cc="http://creativecommons.org/ns#" xmlns:rdf="http://www.w3.org/1999/02/22-rdf-syntax-ns#">
   <cc:Work>
    <dc:type rdf:resource="http://purl.org/dc/dcmitype/StillImage"/>
    <dc:date>2026-03-29T00:53:43.029621</dc:date>
    <dc:format>image/svg+xml</dc:format>
    <dc:creator>
     <cc:Agent>
      <dc:title>Matplotlib v3.10.8, https://matplotlib.org/</dc:title>
     </cc:Agent>
    </dc:creator>
   </cc:Work>
  </rdf:RDF>
 </metadata>
 <defs>
  <style type="text/css">*{stroke-linejoin: round; stroke-linecap: butt}</style>
 </defs>
 <g id="figure_1">
  <g id="patch_1">
   <path d="M 0 311.104375 
L 516.6 311.104375 
L 516.6 0 
L 0 0 
z
" style="fill: #ffffff"/>
  </g>
  <g id="axes_1">
   <g id="patch_2">
    <path d="M 22.266 272.224375 
L 213.102 272.224375 
Q 223.146 272.224375 223.146 264.304375 
L 223.146 66.304375 
Q 223.146 58.384375 213.102 58.384375 
L 22.266 58.384375 
Q 12.222 58.384375 12.222 66.304375 
L 12.222 264.304375 
Q 12.222 272.224375 22.266 272.224375 
z
" clip-path="url(#p924a21e67a)" style="fill: #eaf4fb; stroke: #2980b9; stroke-width: 2; stroke-linejoin: miter"/>
   </g>
   <g id="patch_3">
    <path d="M 303.498 272.224375 
L 494.334 272.224375 
Q 504.378 272.224375 504.378 264.304375 
L 504.378 66.304375 
Q 504.378 58.384375 494.334 58.384375 
L 303.498 58.384375 
Q 293.454 58.384375 293.454 66.304375 
L 293.454 264.304375 
Q 293.454 272.224375 303.498 272.224375 
z
" clip-path="url(#p924a21e67a)" style="fill: #eafaf1; stroke: #27ae60; stroke-width: 2; stroke-linejoin: miter"/>
   </g>
   <g id="text_1">
    <!-- 数学の記法 -->
    <g style="fill: #2980b9" transform="translate(90.184 82.144375) scale(0.11 -0.11)">
     <defs>
      <path id="HiraginoSans-W7-6570" d="M 6246 4403 
C 6099 4378 5952 4371 5638 4371 
L 4621 4371 
C 4678 4582 4691 4614 4723 4749 
C 4813 5114 4845 5235 4858 5280 
L 4026 5440 
C 4026 5344 3994 5094 3949 4883 
C 3757 3910 3456 3219 3002 2707 
C 3168 2554 3277 2432 3430 2208 
C 3328 2195 3200 2189 3021 2189 
L 2080 2189 
C 2125 2291 2144 2330 2202 2458 
L 1408 2598 
C 1338 2400 1312 2323 1261 2189 
L 806 2189 
C 563 2189 429 2195 282 2221 
L 282 1459 
C 435 1485 576 1491 806 1491 
L 928 1491 
C 787 1254 717 1146 499 864 
C 954 704 1120 634 1427 499 
C 1062 294 762 198 230 122 
C 397 -109 512 -307 621 -582 
C 1286 -422 1722 -218 2150 141 
C 2451 -26 2528 -77 2765 -262 
L 2976 77 
C 3149 -102 3283 -294 3411 -576 
C 3910 -307 4339 26 4730 461 
C 5075 32 5459 -301 5901 -563 
C 6035 -237 6157 -19 6342 243 
C 5894 467 5530 755 5216 1139 
C 5606 1843 5779 2509 5862 3635 
C 6074 3629 6125 3629 6246 3610 
L 6246 4403 
z
M 3206 454 
C 2963 589 2874 640 2675 730 
C 2842 986 2925 1171 3021 1491 
C 3238 1491 3392 1478 3514 1466 
L 3514 2099 
C 3654 2266 3686 2310 3789 2477 
C 3904 1946 4032 1587 4275 1139 
C 3942 749 3571 461 3046 198 
L 3206 454 
z
M 5069 3635 
C 5037 2938 4934 2400 4736 1907 
C 4486 2451 4397 2771 4294 3437 
C 4326 3520 4339 3552 4371 3635 
L 5069 3635 
z
M 2234 1491 
C 2170 1299 2118 1184 2003 1024 
C 1862 1082 1779 1107 1542 1190 
C 1638 1344 1664 1389 1722 1491 
L 2234 1491 
z
M 2995 4269 
L 2342 4269 
L 2342 4992 
C 2342 5184 2349 5293 2368 5408 
L 1555 5408 
C 1574 5286 1581 5178 1581 4979 
L 1581 4269 
L 851 4269 
C 602 4269 461 4275 301 4294 
L 301 3590 
C 454 3610 621 3616 851 3616 
L 1120 3616 
C 864 3322 595 3130 154 2925 
C 384 2682 467 2566 614 2304 
C 1069 2605 1229 2758 1587 3213 
C 1581 3110 1574 3002 1574 2950 
L 1574 2765 
C 1574 2707 1568 2643 1555 2579 
L 2355 2579 
C 2342 2650 2342 2726 2342 2797 
L 2342 2976 
C 2342 3014 2330 3142 2323 3213 
C 2502 2944 2541 2906 2854 2643 
C 2989 2906 3078 3040 3245 3245 
C 3014 3366 2874 3469 2733 3616 
L 3091 3616 
C 3290 3616 3411 3610 3494 3597 
L 3494 4288 
C 3418 4275 3296 4269 3098 4269 
L 3053 4269 
C 3238 4550 3309 4685 3520 5107 
L 2842 5382 
C 2733 5082 2598 4838 2394 4544 
L 2995 4269 
z
M 397 5094 
C 602 4832 723 4627 870 4282 
L 1523 4563 
C 1376 4883 1280 5043 1037 5363 
L 397 5094 
z
" transform="scale(0.015625)"/>
      <path id="HiraginoSans-W7-5b66" d="M 1197 4461 
C 781 4461 666 4467 422 4486 
C 442 4326 448 4179 448 3955 
L 448 3309 
C 448 3091 442 2938 416 2797 
L 1248 2797 
L 1248 3750 
L 5261 3750 
L 5261 2797 
L 6086 2797 
C 6067 2957 6054 3110 6054 3302 
L 6054 3955 
C 6054 4198 6061 4326 6080 4486 
C 5869 4467 5702 4461 5286 4461 
L 5082 4461 
C 5197 4634 5395 4973 5498 5184 
L 4672 5382 
C 4557 5062 4410 4762 4205 4461 
L 3744 4461 
C 3622 4826 3558 4973 3334 5414 
L 2522 5235 
C 2682 4960 2797 4710 2880 4461 
L 2323 4461 
C 2138 4826 1984 5069 1779 5344 
L 992 5152 
C 1216 4858 1299 4717 1434 4461 
L 1197 4461 
z
M 3725 1171 
L 5267 1171 
C 5619 1171 5914 1158 6118 1133 
L 6118 1971 
C 5914 1939 5606 1926 5274 1926 
L 3846 1926 
C 4314 2246 4666 2522 4986 2816 
C 5056 2880 5082 2906 5152 2963 
L 4742 3418 
C 4621 3398 4499 3392 4250 3392 
L 2227 3392 
C 1939 3392 1754 3398 1562 3418 
L 1562 2662 
C 1773 2682 1933 2688 2221 2688 
L 3763 2688 
C 3552 2502 3386 2387 3174 2272 
L 2861 2272 
C 2874 2176 2880 2067 2880 1926 
L 1216 1926 
C 902 1926 634 1939 397 1971 
L 397 1133 
C 602 1158 883 1171 1222 1171 
L 2880 1171 
L 2880 384 
C 2880 269 2835 250 2566 250 
C 2374 250 2118 269 1779 301 
C 1907 13 1958 -147 2022 -506 
C 2310 -512 2515 -518 2682 -518 
C 3533 -518 3725 -397 3725 160 
L 3725 1171 
z
" transform="scale(0.015625)"/>
      <path id="HiraginoSans-W7-306e" d="M 3776 4038 
C 4032 4006 4186 3955 4371 3834 
C 4806 3546 5056 3066 5056 2496 
C 5056 1818 4723 1222 4173 922 
C 3872 762 3475 659 2906 614 
C 3155 282 3245 109 3379 -294 
C 3834 -218 4090 -154 4397 -32 
C 5421 371 6003 1274 6003 2438 
C 6003 3936 4979 4896 3373 4896 
C 2458 4896 1670 4576 1120 3974 
C 653 3469 403 2803 403 2074 
C 403 973 966 198 1760 198 
C 2310 198 2733 576 3091 1389 
C 3424 2131 3648 2982 3776 4038 
z
M 2842 4026 
C 2765 3341 2566 2534 2330 1965 
C 2125 1446 1926 1197 1741 1197 
C 1491 1197 1286 1587 1286 2067 
C 1286 2707 1587 3328 2074 3706 
C 2323 3898 2534 3987 2842 4026 
z
" transform="scale(0.015625)"/>
      <path id="HiraginoSans-W7-8a18" d="M 480 4582 
C 653 4595 794 4602 1037 4602 
L 2170 4602 
C 2419 4602 2560 4595 2726 4582 
L 2726 5267 
C 2547 5248 2445 5242 2170 5242 
L 1037 5242 
C 762 5242 659 5248 480 5267 
L 480 4582 
z
M 262 3597 
C 416 3616 563 3622 781 3622 
L 2445 3622 
C 2726 3622 2810 3616 2938 3603 
L 2938 4352 
C 2784 4333 2688 4326 2419 4326 
L 781 4326 
C 538 4326 416 4333 262 4358 
L 262 3597 
z
M 499 2688 
C 621 2707 691 2707 902 2707 
L 2342 2707 
C 2541 2707 2586 2707 2733 2688 
L 2733 3354 
C 2630 3341 2541 3334 2342 3334 
L 902 3334 
C 698 3334 627 3334 499 3354 
L 499 2688 
z
M 499 1786 
C 621 1798 704 1805 896 1805 
L 2330 1805 
C 2541 1805 2598 1805 2733 1786 
L 2733 2451 
C 2624 2438 2547 2432 2342 2432 
L 902 2432 
C 698 2432 627 2432 499 2451 
L 499 1786 
z
M 1274 -576 
L 1274 -262 
L 1990 -262 
L 1990 -486 
L 2771 -486 
C 2765 -416 2752 -166 2752 -64 
L 2752 1088 
C 2752 1312 2752 1402 2765 1530 
C 2662 1510 2592 1510 2355 1510 
L 960 1510 
C 704 1510 634 1510 480 1530 
C 499 1370 506 1235 506 1037 
L 506 51 
C 506 -166 493 -371 474 -576 
L 1274 -576 
z
M 1254 896 
L 1997 896 
L 1997 397 
L 1254 397 
L 1254 896 
z
M 3898 2426 
L 5274 2426 
C 5568 2426 5709 2419 5920 2394 
C 5901 2598 5894 2765 5894 3040 
L 5894 4557 
C 5894 4845 5901 4941 5920 5216 
C 5722 5190 5549 5184 5242 5184 
L 3693 5184 
C 3405 5184 3200 5197 2989 5222 
L 2989 4371 
C 3200 4397 3398 4410 3693 4410 
L 5056 4410 
L 5056 3181 
L 3680 3181 
C 3392 3181 3238 3187 3034 3206 
C 3053 2995 3059 2899 3059 2573 
L 3059 269 
C 3059 -307 3302 -429 4474 -429 
C 5344 -429 5696 -358 5875 -147 
C 6074 90 6150 448 6202 1261 
C 5920 1312 5664 1389 5363 1523 
C 5350 826 5318 563 5235 480 
C 5139 384 4979 352 4538 352 
C 4326 352 4160 365 4070 384 
C 3923 410 3898 442 3898 576 
L 3898 2426 
z
" transform="scale(0.015625)"/>
      <path id="HiraginoSans-W7-6cd5" d="M 1907 -397 
C 2138 -352 2266 -333 2950 -262 
C 3923 -160 4282 -109 5178 58 
C 5280 -147 5318 -230 5446 -506 
L 6208 -51 
C 5651 934 5478 1203 4954 1907 
L 4256 1549 
C 4525 1184 4627 1030 4806 730 
C 4352 653 4352 653 3334 557 
C 3667 1203 3757 1408 4019 2112 
L 5466 2112 
C 5728 2112 5978 2099 6170 2074 
L 6170 2938 
C 5958 2912 5734 2899 5459 2899 
L 4333 2899 
L 4333 3738 
L 5274 3738 
C 5594 3738 5779 3731 5958 3706 
L 5958 4550 
C 5754 4525 5555 4512 5267 4512 
L 4333 4512 
L 4333 4710 
C 4333 5075 4339 5222 4365 5402 
L 3456 5402 
C 3482 5229 3488 5075 3488 4710 
L 3488 4512 
L 2803 4512 
C 2490 4512 2266 4525 2093 4550 
L 2093 3706 
C 2310 3725 2534 3738 2797 3738 
L 3488 3738 
L 3488 2899 
L 2579 2899 
C 2266 2899 2042 2912 1850 2938 
L 1850 2074 
C 2067 2099 2304 2112 2573 2112 
L 3130 2112 
C 2944 1542 2707 1018 2406 493 
C 2202 486 2080 480 1971 480 
C 1907 480 1856 480 1754 486 
L 1907 -397 
z
M 429 4800 
C 870 4518 1190 4262 1555 3910 
L 2080 4576 
C 1664 4928 1408 5114 947 5389 
L 429 4800 
z
M 186 3174 
C 640 2906 909 2701 1350 2323 
L 1830 3027 
C 1363 3392 1120 3552 666 3808 
L 186 3174 
z
M 1114 2054 
C 800 1158 429 358 205 122 
L 947 -518 
C 986 -435 992 -429 1094 -198 
C 1107 -160 1158 -58 1222 90 
C 1453 595 1542 826 1811 1568 
L 1114 2054 
z
" transform="scale(0.015625)"/>
     </defs>
     <use xlink:href="#HiraginoSans-W7-6570"/>
     <use xlink:href="#HiraginoSans-W7-5b66" transform="translate(99.999985 0)"/>
     <use xlink:href="#HiraginoSans-W7-306e" transform="translate(199.999969 0)"/>
     <use xlink:href="#HiraginoSans-W7-8a18" transform="translate(299.999954 0)"/>
     <use xlink:href="#HiraginoSans-W7-6cd5" transform="translate(399.999939 0)"/>
    </g>
   </g>
   <g id="text_2">
    <!-- $(\Omega,\, \mathcal{F},\, P)$ -->
    <g style="fill: #1a1a2e" transform="translate(99.009 120.331094) scale(0.09 -0.09)">
     <defs>
      <path id="DejaVuSans-28" d="M 1984 4856 
Q 1566 4138 1362 3434 
Q 1159 2731 1159 2009 
Q 1159 1288 1364 580 
Q 1569 -128 1984 -844 
L 1484 -844 
Q 1016 -109 783 600 
Q 550 1309 550 2009 
Q 550 2706 781 3412 
Q 1013 4119 1484 4856 
L 1984 4856 
z
" transform="scale(0.015625)"/>
      <path id="DejaVuSans-3a9" d="M 4647 556 
L 4647 0 
L 2772 0 
L 2772 556 
Q 3325 859 3634 1378 
Q 3944 1897 3944 2528 
Q 3944 3278 3531 3731 
Q 3119 4184 2444 4184 
Q 1769 4184 1355 3729 
Q 941 3275 941 2528 
Q 941 1897 1250 1378 
Q 1563 859 2119 556 
L 2119 0 
L 244 0 
L 244 556 
L 1241 556 
Q 747 991 519 1456 
Q 294 1922 294 2497 
Q 294 3491 894 4106 
Q 1491 4722 2444 4722 
Q 3391 4722 3994 4106 
Q 4594 3494 4594 2528 
Q 4594 1922 4372 1459 
Q 4150 997 3647 556 
L 4647 556 
z
" transform="scale(0.015625)"/>
      <path id="DejaVuSans-2c" d="M 750 794 
L 1409 794 
L 1409 256 
L 897 -744 
L 494 -744 
L 750 256 
L 750 794 
z
" transform="scale(0.015625)"/>
      <path id="STIXNonUnicode-Italic-e232" d="M 378 3418 
L 275 3533 
Q 730 3955 1174 4096 
Q 1619 4237 2163 4237 
Q 2714 4237 3110 4208 
Q 3507 4179 3849 4099 
Q 4192 4019 4368 3868 
Q 4544 3718 4544 3488 
Q 4544 3270 4429 3123 
Q 4314 2976 4109 2976 
Q 3962 2976 3853 3062 
Q 3744 3149 3744 3277 
Q 3744 3398 3792 3465 
Q 3840 3533 3897 3549 
Q 3955 3565 4000 3593 
Q 4045 3622 4045 3680 
Q 4045 3808 3696 3894 
Q 3347 3981 2893 3981 
Q 2694 3981 2608 3920 
Q 2522 3859 2464 3667 
L 2099 2413 
L 3494 2413 
L 3411 2157 
L 2029 2157 
L 1747 1203 
Q 1626 787 1491 537 
Q 1357 288 1174 173 
Q 992 58 829 29 
Q 666 0 384 0 
L 435 154 
Q 608 154 726 288 
Q 845 422 934 742 
L 1690 3334 
Q 1754 3558 1754 3667 
Q 1754 3776 1690 3827 
Q 1626 3878 1459 3878 
Q 858 3878 378 3418 
z
" transform="scale(0.015625)"/>
      <path id="DejaVuSans-Oblique-50" d="M 1081 4666 
L 2541 4666 
Q 3178 4666 3512 4369 
Q 3847 4072 3847 3500 
Q 3847 2731 3353 2303 
Q 2859 1875 1966 1875 
L 1172 1875 
L 806 0 
L 172 0 
L 1081 4666 
z
M 1613 4147 
L 1275 2394 
L 2069 2394 
Q 2606 2394 2893 2669 
Q 3181 2944 3181 3456 
Q 3181 3784 2986 3965 
Q 2791 4147 2438 4147 
L 1613 4147 
z
" transform="scale(0.015625)"/>
      <path id="DejaVuSans-29" d="M 513 4856 
L 1013 4856 
Q 1481 4119 1714 3412 
Q 1947 2706 1947 2009 
Q 1947 1309 1714 600 
Q 1481 -109 1013 -844 
L 513 -844 
Q 928 -128 1133 580 
Q 1338 1288 1338 2009 
Q 1338 2731 1133 3434 
Q 928 4138 513 4856 
z
" transform="scale(0.015625)"/>
     </defs>
     <use xlink:href="#DejaVuSans-28" transform="translate(0 0.125)"/>
     <use xlink:href="#DejaVuSans-3a9" transform="translate(39.013672 0.125)"/>
     <use xlink:href="#DejaVuSans-2c" transform="translate(115.429688 0.125)"/>
     <use xlink:href="#STIXNonUnicode-Italic-e232" transform="translate(182.934895 0.125)"/>
     <use xlink:href="#DejaVuSans-2c" transform="translate(248.134892 0.125)"/>
     <use xlink:href="#DejaVuSans-Oblique-50" transform="translate(315.640099 0.125)"/>
     <use xlink:href="#DejaVuSans-29" transform="translate(375.942834 0.125)"/>
    </g>
   </g>
   <g id="text_3">
    <!-- $\Omega$：標本空間 -->
    <g style="fill: #1a1a2e" transform="translate(91.719 159.931094) scale(0.09 -0.09)">
     <defs>
      <path id="HiraginoSans-W4-ff1a" d="M 3565 4192 
L 2842 4192 
L 2842 3469 
L 3565 3469 
L 3565 4192 
z
M 3565 672 
L 3565 1395 
L 2842 1395 
L 2842 672 
L 3565 672 
z
" transform="scale(0.015625)"/>
      <path id="HiraginoSans-W4-6a19" d="M 4755 4230 
L 4755 4672 
L 5402 4672 
C 5690 4672 5914 4659 6074 4640 
L 6074 5120 
C 5888 5094 5664 5082 5376 5082 
L 2739 5082 
C 2458 5082 2246 5094 2061 5120 
L 2061 4634 
C 2227 4659 2458 4672 2746 4672 
L 3322 4672 
L 3322 4230 
L 2829 4230 
C 2566 4230 2394 4237 2246 4262 
C 2266 4134 2272 3994 2272 3808 
L 2272 3283 
C 2272 3085 2266 2957 2246 2810 
C 2426 2829 2592 2835 2848 2835 
L 5267 2835 
C 5530 2835 5683 2829 5862 2810 
C 5843 2957 5837 3078 5837 3309 
L 5837 3814 
C 5837 4032 5843 4134 5862 4262 
C 5696 4237 5510 4230 5274 4230 
L 4755 4230 
z
M 4352 4230 
L 3725 4230 
L 3725 4672 
L 4352 4672 
L 4352 4230 
z
M 3322 3859 
L 3322 3206 
L 2675 3206 
L 2675 3859 
L 3322 3859 
z
M 3725 3859 
L 4352 3859 
L 4352 3206 
L 3725 3206 
L 3725 3859 
z
M 4755 3859 
L 5427 3859 
L 5427 3206 
L 4755 3206 
L 4755 3859 
z
M 1037 4122 
L 736 4122 
C 531 4122 403 4128 294 4147 
L 294 3674 
C 410 3693 544 3699 736 3699 
L 979 3699 
C 806 2848 512 2099 147 1574 
C 256 1440 326 1312 410 1114 
C 691 1549 902 2118 1088 2925 
C 1056 2464 1037 2112 1037 1882 
L 1037 243 
C 1037 -90 1024 -320 998 -512 
L 1530 -512 
C 1504 -333 1491 -96 1491 243 
L 1491 2118 
C 1491 2362 1485 2560 1472 3098 
C 1626 2694 1722 2502 1946 2144 
C 2035 2323 2080 2394 2182 2541 
C 1875 2906 1651 3283 1510 3699 
L 1664 3699 
C 1811 3699 1933 3693 2061 3680 
L 2061 4147 
C 1946 4128 1843 4122 1658 4122 
L 1491 4122 
L 1491 4704 
C 1491 5005 1498 5190 1523 5363 
L 998 5363 
C 1024 5222 1037 5056 1037 4698 
L 1037 4122 
z
M 4262 1235 
L 5472 1235 
C 5741 1235 5914 1229 6086 1203 
L 6086 1677 
C 5907 1651 5722 1645 5466 1645 
L 2675 1645 
C 2394 1645 2221 1658 2042 1683 
L 2042 1203 
C 2214 1229 2406 1235 2682 1235 
L 3802 1235 
L 3802 141 
C 3802 32 3770 13 3584 13 
C 3450 13 3283 32 3072 70 
C 3130 -102 3149 -230 3155 -397 
C 3386 -410 3488 -416 3603 -416 
C 3904 -416 4045 -390 4134 -326 
C 4224 -262 4262 -147 4262 32 
L 4262 1235 
z
M 2413 2022 
C 2586 2048 2752 2054 3027 2054 
L 5069 2054 
C 5350 2054 5485 2048 5664 2022 
L 5664 2490 
C 5472 2464 5299 2458 5037 2458 
L 3040 2458 
C 2771 2458 2592 2470 2413 2490 
L 2413 2022 
z
M 4723 845 
C 5088 339 5389 64 5882 -243 
C 5990 -90 6093 26 6208 128 
C 5882 307 5722 416 5485 627 
C 5318 768 5248 851 5088 1056 
L 4723 845 
z
M 2848 1082 
C 2688 800 2598 678 2406 486 
C 2214 294 2086 198 1798 38 
C 1990 -90 2042 -134 2170 -275 
C 2656 70 2906 346 3251 896 
L 2848 1082 
z
" transform="scale(0.015625)"/>
      <path id="HiraginoSans-W4-672c" d="M 2656 3750 
C 2368 3181 2118 2810 1683 2298 
C 1216 1754 762 1363 218 1037 
C 384 864 442 787 550 576 
C 1005 890 1344 1190 1741 1626 
C 2278 2221 2611 2720 2925 3418 
C 2906 3091 2899 2848 2899 2624 
L 2899 1293 
L 2291 1293 
C 1965 1293 1830 1299 1670 1325 
L 1670 794 
C 1850 819 2029 832 2310 832 
L 2899 832 
L 2899 275 
C 2899 -26 2880 -256 2854 -480 
L 3437 -480 
C 3405 -269 3392 -32 3392 269 
L 3392 832 
L 4045 832 
C 4320 832 4499 819 4685 794 
L 4685 1325 
C 4518 1299 4384 1293 4070 1293 
L 3392 1293 
L 3392 2624 
C 3392 2816 3379 3085 3360 3437 
C 3526 3066 3610 2918 3782 2650 
C 4019 2285 4269 1971 4544 1677 
C 4954 1248 5338 922 5843 589 
C 5952 806 6016 902 6170 1088 
C 5619 1382 5158 1747 4685 2246 
C 4269 2688 3968 3117 3616 3750 
L 5242 3750 
C 5510 3750 5709 3738 5978 3712 
L 5978 4269 
C 5779 4237 5555 4224 5242 4224 
L 3392 4224 
L 3392 4749 
C 3392 4960 3405 5146 3430 5331 
L 2854 5331 
C 2886 5120 2899 4966 2899 4742 
L 2899 4224 
L 1146 4224 
C 858 4224 672 4237 429 4269 
L 429 3712 
C 666 3738 890 3750 1146 3750 
L 2656 3750 
z
" transform="scale(0.015625)"/>
      <path id="HiraginoSans-W4-7a7a" d="M 2918 4634 
L 1210 4634 
C 947 4634 794 4640 550 4666 
C 570 4525 576 4397 576 4211 
L 576 3827 
C 576 3642 570 3488 544 3322 
L 1050 3322 
L 1050 4192 
L 2291 4192 
C 2259 3744 2163 3488 1958 3264 
C 1664 2944 1216 2733 461 2554 
C 608 2400 691 2278 762 2118 
C 1619 2406 2016 2624 2330 2982 
C 2598 3290 2733 3642 2771 4192 
L 3488 4192 
L 3488 2893 
C 3488 2541 3642 2477 4506 2477 
C 5197 2477 5440 2509 5587 2618 
C 5715 2720 5773 2899 5805 3251 
C 5606 3296 5523 3322 5344 3411 
C 5325 2918 5312 2906 4538 2906 
C 4288 2906 4141 2912 4064 2938 
C 3987 2957 3968 2982 3968 3072 
L 3968 4192 
L 5402 4192 
L 5402 3533 
L 5907 3533 
C 5882 3680 5875 3814 5875 3987 
L 5875 4211 
C 5875 4403 5882 4525 5901 4666 
C 5658 4640 5504 4634 5242 4634 
L 3418 4634 
L 3418 4915 
C 3418 5101 3430 5235 3456 5363 
L 2880 5363 
C 2906 5216 2918 5101 2918 4915 
L 2918 4634 
z
M 2925 1408 
L 2925 243 
L 1158 243 
C 870 243 576 256 422 282 
L 422 -250 
C 640 -218 858 -205 1158 -205 
L 5299 -205 
C 5587 -205 5805 -218 6022 -250 
L 6022 282 
C 5862 256 5600 243 5299 243 
L 3424 243 
L 3424 1408 
L 4781 1408 
C 5062 1408 5267 1395 5459 1370 
L 5459 1888 
C 5274 1862 5050 1850 4768 1850 
L 1619 1850 
C 1312 1850 1171 1856 986 1888 
L 986 1370 
C 1165 1395 1338 1408 1645 1408 
L 2925 1408 
z
" transform="scale(0.015625)"/>
      <path id="HiraginoSans-W4-9593" d="M 1075 3104 
L 2240 3104 
C 2496 3104 2694 3098 2874 3085 
C 2861 3251 2854 3405 2854 3667 
L 2854 4518 
C 2854 4768 2861 4934 2874 5126 
C 2694 5107 2541 5101 2221 5101 
L 1242 5101 
C 922 5101 755 5107 576 5126 
C 595 4922 602 4736 602 4416 
L 602 275 
C 602 -90 589 -288 563 -467 
L 1114 -467 
C 1088 -301 1075 -96 1075 269 
L 1075 3104 
z
M 1075 4730 
L 2413 4730 
L 2413 4282 
L 1075 4282 
L 1075 4730 
z
M 1075 3917 
L 2413 3917 
L 2413 3462 
L 1075 3462 
L 1075 3917 
z
M 5818 4422 
C 5818 4710 5824 4870 5850 5126 
C 5664 5107 5510 5101 5178 5101 
L 4070 5101 
C 3750 5101 3597 5107 3418 5126 
C 3430 4934 3437 4742 3437 4518 
L 3437 3667 
C 3437 3424 3430 3264 3418 3085 
C 3584 3098 3802 3104 4051 3104 
L 5350 3104 
L 5350 243 
C 5350 96 5299 64 5043 64 
C 4909 64 4646 90 4339 128 
C 4410 -38 4442 -154 4474 -365 
C 4602 -371 4960 -384 5094 -384 
C 5670 -384 5818 -262 5818 198 
L 5818 4422 
z
M 3878 4730 
L 5350 4730 
L 5350 4282 
L 3878 4282 
L 3878 4730 
z
M 3878 3917 
L 5350 3917 
L 5350 3462 
L 3878 3462 
L 3878 3917 
z
M 4416 2042 
C 4416 2285 4422 2458 4435 2630 
C 4250 2611 4096 2605 3814 2605 
L 2573 2605 
C 2291 2605 2131 2611 1946 2630 
C 1958 2445 1965 2266 1965 2042 
L 1965 576 
C 1965 314 1958 141 1933 -38 
L 2413 -38 
L 2413 384 
L 3795 384 
C 4064 384 4237 378 4435 365 
C 4422 531 4416 698 4416 941 
L 4416 2042 
z
M 2413 2221 
L 3974 2221 
L 3974 1709 
L 2413 1709 
L 2413 2221 
z
M 2413 1325 
L 3974 1325 
L 3974 768 
L 2413 768 
L 2413 1325 
z
" transform="scale(0.015625)"/>
     </defs>
     <use xlink:href="#DejaVuSans-3a9" transform="translate(0 0.203125)"/>
     <use xlink:href="#HiraginoSans-W4-ff1a" transform="translate(76.416016 0.203125)"/>
     <use xlink:href="#HiraginoSans-W4-6a19" transform="translate(176.416 0.203125)"/>
     <use xlink:href="#HiraginoSans-W4-672c" transform="translate(276.415985 0.203125)"/>
     <use xlink:href="#HiraginoSans-W4-7a7a" transform="translate(376.41597 0.203125)"/>
     <use xlink:href="#HiraginoSans-W4-9593" transform="translate(476.415955 0.203125)"/>
    </g>
   </g>
   <g id="text_4">
    <!-- $\mathcal{F}$：σ-代数（事象の族） -->
    <g style="fill: #1a1a2e" transform="translate(68.049 199.531094) scale(0.09 -0.09)">
     <defs>
      <path id="HiraginoSans-W4-3c3" d="M 5338 3526 
C 5114 3494 4934 3482 4570 3482 
L 3955 3482 
C 3744 3539 3584 3565 3386 3565 
C 2784 3565 2246 3328 1888 2912 
C 1549 2515 1350 1958 1350 1389 
C 1350 461 1933 -128 2861 -128 
C 3462 -128 4006 115 4371 544 
C 4698 928 4896 1485 4896 2022 
C 4896 2426 4813 2675 4576 2970 
C 4883 2970 4992 2963 5178 2931 
L 5338 3526 
z
M 3366 3078 
C 3962 3078 4320 2694 4320 2061 
C 4320 1126 3680 371 2874 371 
C 2291 371 1933 762 1933 1395 
C 1933 2342 2560 3078 3366 3078 
z
" transform="scale(0.015625)"/>
      <path id="HiraginoSans-W4-2d" d="M 192 1581 
C 384 1606 525 1613 781 1613 
L 1606 1613 
C 1875 1613 2010 1606 2202 1581 
L 2202 2202 
C 2022 2176 1882 2170 1606 2170 
L 781 2170 
C 512 2170 371 2176 192 2202 
L 192 1581 
z
" transform="scale(0.015625)"/>
      <path id="HiraginoSans-W4-4ee3" d="M 5427 3238 
C 5645 3258 5824 3270 5946 3270 
C 5958 3270 5997 3270 6074 3264 
L 6042 3802 
C 5875 3757 5747 3738 5382 3699 
L 3910 3558 
C 3859 4058 3840 4416 3840 4781 
C 3840 4979 3846 5088 3866 5216 
L 3296 5210 
C 3315 5069 3328 4883 3334 4570 
C 3341 4275 3366 3878 3405 3514 
L 2650 3437 
C 2451 3418 2272 3411 2138 3411 
C 2099 3411 2061 3411 1990 3411 
L 2010 2880 
C 2208 2925 2374 2944 2650 2970 
L 3462 3046 
C 3571 2310 3750 1664 3994 1146 
C 4422 224 5056 -442 5504 -442 
C 5882 -442 6074 -90 6221 883 
C 6074 954 5958 1037 5773 1197 
C 5741 826 5690 525 5638 358 
C 5587 198 5542 141 5466 141 
C 5318 141 5005 461 4730 877 
C 4346 1459 4128 2112 3974 3098 
L 5427 3238 
z
M 1184 282 
C 1184 -77 1171 -282 1139 -499 
L 1715 -499 
C 1690 -269 1677 -38 1677 269 
L 1677 3706 
C 1894 4102 2054 4448 2240 4928 
C 2278 5024 2278 5024 2330 5152 
L 1798 5338 
C 1766 5107 1670 4800 1530 4480 
C 1203 3712 768 3098 134 2509 
C 275 2355 288 2330 422 2042 
C 826 2438 954 2598 1210 3002 
C 1190 2758 1184 2522 1184 2227 
L 1184 282 
z
M 4269 4915 
C 4640 4608 4998 4237 5248 3910 
L 5619 4256 
C 5184 4717 4992 4896 4602 5210 
L 4269 4915 
z
" transform="scale(0.015625)"/>
      <path id="HiraginoSans-W4-6570" d="M 6170 4173 
C 6003 4141 5862 4134 5568 4134 
L 4288 4134 
C 4365 4384 4435 4627 4512 4947 
C 4557 5126 4563 5152 4595 5235 
L 4077 5344 
C 4070 5158 4032 4934 3974 4672 
C 3782 3853 3437 3130 2995 2598 
C 3142 2509 3226 2438 3354 2291 
C 3526 2515 3610 2643 3770 2931 
C 3904 2176 4070 1702 4397 1158 
C 4013 653 3526 275 2803 -77 
C 2944 -218 3021 -326 3110 -506 
C 3776 -141 4256 250 4666 755 
C 5069 230 5485 -141 6035 -467 
C 6138 -237 6202 -128 6317 13 
C 5747 314 5338 653 4954 1158 
C 5171 1523 5325 1875 5440 2304 
C 5562 2739 5613 3078 5651 3699 
C 5920 3699 6035 3693 6170 3667 
L 6170 4173 
z
M 5184 3699 
C 5133 2797 4992 2214 4672 1600 
C 4358 2170 4192 2707 4064 3539 
C 4096 3610 4102 3629 4128 3699 
L 5184 3699 
z
M 3046 339 
C 2752 512 2656 570 2419 685 
C 2643 992 2746 1190 2880 1626 
L 2963 1626 
C 3187 1626 3309 1619 3443 1594 
L 3443 2067 
C 3328 2042 3206 2035 2989 2035 
L 1862 2035 
C 1926 2176 1958 2234 2029 2426 
L 1562 2528 
C 1485 2285 1453 2202 1382 2035 
L 832 2035 
C 608 2035 493 2042 365 2067 
L 365 1594 
C 499 1619 614 1626 832 1626 
L 1165 1626 
C 1005 1344 941 1248 723 954 
C 1203 774 1402 691 1702 550 
C 1376 294 902 83 326 -58 
C 429 -205 493 -314 563 -480 
C 1325 -224 1715 -19 2112 346 
C 2432 173 2502 122 2778 -77 
L 3046 339 
z
M 2419 1626 
C 2310 1306 2214 1120 2022 870 
C 1818 960 1709 1005 1357 1146 
C 1504 1370 1549 1440 1651 1626 
L 2419 1626 
z
M 2163 4070 
L 2163 4902 
C 2163 5075 2170 5203 2189 5325 
L 1696 5325 
C 1722 5184 1728 5075 1728 4896 
L 1728 4070 
L 915 4070 
C 666 4070 531 4077 390 4102 
L 390 3642 
C 518 3667 678 3674 902 3674 
L 1434 3674 
C 1133 3258 864 3034 269 2688 
C 410 2566 486 2477 589 2317 
C 1184 2739 1408 2963 1747 3494 
C 1734 3366 1728 3258 1728 3162 
L 1728 2835 
C 1728 2752 1722 2662 1702 2586 
L 2182 2586 
C 2170 2662 2163 2758 2163 2848 
L 2163 3168 
C 2163 3258 2157 3347 2138 3494 
C 2355 3162 2490 3014 2848 2739 
C 2989 2970 3002 2982 3130 3110 
C 2816 3277 2566 3469 2406 3674 
L 2989 3674 
C 3200 3674 3309 3667 3418 3648 
L 3418 4096 
C 3322 4077 3200 4070 2995 4070 
L 2163 4070 
z
M 570 5056 
C 774 4768 896 4550 1024 4211 
L 1427 4371 
C 1286 4704 1190 4883 960 5210 
L 570 5056 
z
M 2918 5235 
C 2784 4883 2643 4634 2406 4333 
L 2790 4147 
C 3008 4442 3104 4608 3328 5050 
L 2918 5235 
z
" transform="scale(0.015625)"/>
      <path id="HiraginoSans-W4-ff08" d="M 6170 -531 
C 5690 -26 5491 256 5280 698 
C 5024 1235 4902 1805 4902 2432 
C 4902 3059 5024 3629 5280 4166 
C 5491 4608 5690 4890 6170 5395 
L 5517 5395 
C 5139 4947 4966 4685 4774 4275 
C 4499 3686 4365 3085 4365 2432 
C 4365 1779 4499 1178 4774 589 
C 4966 179 5139 -83 5517 -531 
L 6170 -531 
z
" transform="scale(0.015625)"/>
      <path id="HiraginoSans-W4-4e8b" d="M 2925 1786 
L 1005 1786 
C 646 1786 474 1792 314 1824 
L 314 1363 
C 486 1389 659 1395 1011 1395 
L 2925 1395 
L 2925 979 
L 1363 979 
C 1043 979 934 986 749 1005 
L 749 550 
C 954 576 1088 582 1376 582 
L 2925 582 
L 2925 122 
C 2925 -13 2867 -45 2643 -45 
C 2394 -45 2176 -26 1830 19 
C 1920 -173 1946 -262 1965 -448 
C 2246 -467 2438 -474 2573 -474 
C 3238 -474 3379 -371 3379 102 
L 3379 582 
L 5011 582 
L 5011 326 
L 5510 326 
C 5478 493 5472 659 5472 979 
L 5472 1395 
C 5824 1395 5965 1389 6118 1363 
L 6118 1824 
C 5984 1798 5805 1786 5472 1786 
L 5472 2035 
C 5472 2342 5478 2451 5491 2592 
C 5325 2573 5158 2566 4787 2566 
L 3379 2566 
L 3379 2925 
L 4864 2925 
C 5069 2925 5229 2918 5376 2899 
C 5357 3059 5350 3149 5350 3334 
L 5350 3654 
C 5350 3840 5357 3936 5376 4096 
C 5222 4077 5075 4070 4851 4070 
L 3379 4070 
L 3379 4435 
L 5318 4435 
C 5619 4435 5830 4422 6042 4397 
L 6042 4877 
C 5869 4851 5670 4838 5293 4838 
L 3379 4838 
C 3379 5126 3386 5222 3424 5382 
L 2886 5382 
C 2918 5216 2925 5107 2925 4838 
L 1101 4838 
C 723 4838 525 4851 352 4877 
L 352 4397 
C 550 4422 781 4435 1082 4435 
L 2925 4435 
L 2925 4070 
L 1568 4070 
C 1344 4070 1190 4077 1037 4096 
C 1056 3936 1062 3827 1062 3654 
L 1062 3334 
C 1062 3162 1056 3046 1037 2899 
C 1184 2918 1350 2925 1562 2925 
L 2925 2925 
L 2925 2566 
L 1414 2566 
C 1114 2566 954 2573 800 2598 
L 800 2150 
C 986 2170 1152 2176 1402 2176 
L 2925 2176 
L 2925 1786 
z
M 3379 1786 
L 3379 2176 
L 5011 2176 
L 5011 1786 
L 3379 1786 
z
M 3379 1395 
L 5011 1395 
L 5011 979 
L 3379 979 
L 3379 1395 
z
M 2925 3699 
L 2925 3290 
L 1530 3290 
L 1530 3699 
L 2925 3699 
z
M 3379 3699 
L 4883 3699 
L 4883 3290 
L 3379 3290 
L 3379 3699 
z
" transform="scale(0.015625)"/>
      <path id="HiraginoSans-W4-8c61" d="M 4973 2643 
C 5242 2643 5478 2637 5638 2624 
C 5619 2771 5613 2912 5613 3162 
L 5613 3552 
C 5613 3795 5619 3936 5638 4090 
C 5472 4070 5274 4064 4934 4064 
L 3814 4064 
C 3981 4211 4128 4358 4256 4499 
C 4403 4666 4403 4666 4493 4755 
L 4230 5011 
C 4154 4992 3904 4979 3635 4979 
L 2490 4979 
C 2528 5024 2560 5056 2579 5075 
C 2618 5120 2643 5152 2656 5165 
C 2746 5274 2746 5274 2797 5325 
L 2259 5453 
C 2099 5184 2035 5107 1779 4838 
C 1331 4384 883 4064 294 3789 
C 422 3642 493 3539 550 3398 
C 794 3533 883 3590 1069 3718 
L 1069 3162 
C 1069 2880 1062 2739 1050 2624 
C 1242 2637 1446 2643 1728 2643 
L 2726 2643 
C 2157 2330 1382 2099 480 1971 
C 595 1830 653 1734 723 1568 
C 1530 1722 2061 1894 2669 2195 
C 2778 2080 2822 2022 2899 1901 
C 2208 1498 1446 1229 518 1062 
C 640 922 685 845 762 659 
C 1696 890 2387 1158 3085 1574 
C 3142 1440 3174 1357 3219 1222 
C 2464 723 1421 314 410 102 
C 512 -13 608 -160 685 -320 
C 1677 -51 2547 326 3309 826 
C 3322 717 3328 653 3328 563 
C 3328 307 3296 154 3226 70 
C 3155 -19 3066 -45 2816 -45 
C 2637 -45 2470 -32 2227 6 
C 2323 -198 2342 -269 2374 -486 
C 2534 -499 2643 -506 2765 -506 
C 3066 -506 3290 -474 3418 -416 
C 3667 -301 3802 6 3802 474 
C 3802 1222 3546 1862 3040 2394 
C 3200 2483 3264 2528 3424 2643 
L 3565 2643 
C 3808 1818 4192 1133 4730 570 
C 5069 218 5370 0 5875 -256 
C 5984 -45 6035 38 6202 218 
C 5779 384 5536 531 5203 832 
C 5018 992 4851 1178 4653 1414 
C 4922 1574 5146 1728 5350 1894 
C 5594 2093 5645 2131 5747 2202 
L 5331 2528 
C 5165 2298 4781 1978 4410 1773 
C 4243 2054 4166 2246 4038 2643 
L 4973 2643 
z
M 1549 4064 
C 1773 4243 1965 4416 2138 4595 
L 3770 4595 
C 3514 4307 3418 4205 3245 4064 
L 1549 4064 
z
M 1542 3034 
L 1542 3667 
L 3053 3667 
L 3053 3034 
L 1542 3034 
z
M 3514 3034 
L 3514 3667 
L 5139 3667 
L 5139 3034 
L 3514 3034 
z
" transform="scale(0.015625)"/>
      <path id="HiraginoSans-W4-306e" d="M 3053 422 
C 3200 243 3245 160 3328 -96 
C 3821 6 4090 90 4397 237 
C 5293 666 5798 1459 5798 2451 
C 5798 3802 4832 4698 3379 4698 
C 2509 4698 1792 4403 1274 3834 
C 832 3347 589 2707 589 2042 
C 589 1107 1062 422 1709 422 
C 2189 422 2573 806 2938 1645 
C 3238 2323 3469 3264 3578 4205 
C 3891 4186 4070 4141 4294 4032 
C 4902 3738 5242 3174 5242 2477 
C 5242 1734 4870 1107 4230 768 
C 3917 602 3610 512 3053 422 
z
M 3027 4192 
C 2944 3398 2714 2483 2458 1888 
C 2195 1286 1952 992 1702 992 
C 1370 992 1114 1453 1114 2035 
C 1114 2797 1491 3501 2112 3891 
C 2394 4077 2656 4160 3027 4192 
z
" transform="scale(0.015625)"/>
      <path id="HiraginoSans-W4-65cf" d="M 4147 2880 
C 4128 2330 4128 2330 4096 2042 
L 3341 2042 
C 3053 2042 2899 2048 2746 2074 
L 2746 1574 
C 2925 1600 3091 1606 3334 1606 
L 4013 1606 
C 3795 806 3322 320 2451 -13 
C 2579 -147 2656 -256 2726 -442 
C 3616 -26 4070 435 4352 1210 
C 4461 915 4563 736 4768 486 
C 5094 90 5427 -179 5939 -435 
C 6016 -224 6086 -109 6227 51 
C 5728 256 5446 435 5146 755 
C 4902 1018 4787 1203 4627 1606 
L 5446 1606 
C 5677 1606 5830 1594 6016 1568 
L 6016 2080 
C 5856 2054 5677 2042 5434 2042 
L 4557 2042 
C 4582 2278 4582 2278 4608 2880 
L 5261 2880 
C 5498 2880 5626 2874 5779 2848 
L 5779 3341 
C 5626 3309 5510 3302 5274 3302 
L 3904 3302 
C 3962 3424 4006 3520 4077 3674 
C 4115 3757 4122 3770 4154 3834 
L 3686 3955 
C 3654 3795 3616 3674 3526 3494 
C 3322 3091 3149 2854 2771 2502 
C 2944 2406 3027 2342 3130 2227 
C 3366 2464 3469 2586 3661 2880 
L 4147 2880 
z
M 1331 4352 
L 864 4352 
C 627 4352 467 4365 294 4390 
L 294 3885 
C 461 3910 589 3917 832 3917 
L 998 3917 
C 966 1510 819 838 147 -32 
C 288 -147 365 -237 499 -435 
C 864 38 1101 538 1235 1114 
C 1325 1536 1370 1914 1414 2662 
L 2054 2662 
C 2054 1914 2003 1210 1920 640 
C 1850 173 1811 115 1587 115 
C 1453 115 1299 141 1101 192 
C 1146 32 1165 -102 1178 -294 
C 1402 -320 1510 -333 1613 -333 
C 2093 -333 2202 -243 2310 243 
C 2413 685 2490 1562 2502 2381 
C 2515 2995 2515 2995 2528 3117 
C 2394 3098 2272 3091 2067 3091 
L 1440 3091 
C 1453 3392 1453 3392 1459 3917 
L 2099 3917 
C 2349 3917 2490 3910 2650 3891 
L 2650 4384 
C 2470 4365 2298 4352 2099 4352 
L 1805 4352 
L 1805 4723 
C 1805 4973 1818 5126 1843 5306 
L 1293 5306 
C 1318 5114 1331 4960 1331 4723 
L 1331 4352 
z
M 5402 4090 
C 5658 4090 5856 4083 6035 4064 
L 6035 4570 
C 5869 4544 5677 4531 5382 4531 
L 3635 4531 
C 3744 4768 3827 4954 3898 5133 
C 3917 5178 3917 5178 3949 5261 
L 3443 5357 
C 3411 5184 3392 5126 3322 4947 
C 3104 4371 2784 3878 2381 3456 
C 2547 3366 2637 3283 2746 3149 
C 3053 3507 3213 3731 3418 4090 
L 5402 4090 
z
" transform="scale(0.015625)"/>
      <path id="HiraginoSans-W4-ff09" d="M 890 -531 
C 1261 -83 1434 179 1626 589 
C 1901 1178 2035 1773 2035 2432 
C 2035 3091 1901 3686 1626 4275 
C 1434 4685 1261 4947 890 5395 
L 230 5395 
C 710 4890 909 4608 1120 4166 
C 1376 3629 1498 3072 1498 2432 
C 1498 1792 1376 1235 1120 698 
C 909 256 710 -26 230 -531 
L 890 -531 
z
" transform="scale(0.015625)"/>
     </defs>
     <use xlink:href="#STIXNonUnicode-Italic-e232" transform="translate(0 0.796875)"/>
     <use xlink:href="#HiraginoSans-W4-ff1a" transform="translate(65.199997 0.796875)"/>
     <use xlink:href="#HiraginoSans-W4-3c3" transform="translate(165.199982 0.796875)"/>
     <use xlink:href="#HiraginoSans-W4-2d" transform="translate(265.199966 0.796875)"/>
     <use xlink:href="#HiraginoSans-W4-4ee3" transform="translate(302.499954 0.796875)"/>
     <use xlink:href="#HiraginoSans-W4-6570" transform="translate(402.499939 0.796875)"/>
     <use xlink:href="#HiraginoSans-W4-ff08" transform="translate(502.499924 0.796875)"/>
     <use xlink:href="#HiraginoSans-W4-4e8b" transform="translate(602.499908 0.796875)"/>
     <use xlink:href="#HiraginoSans-W4-8c61" transform="translate(702.499893 0.796875)"/>
     <use xlink:href="#HiraginoSans-W4-306e" transform="translate(802.499878 0.796875)"/>
     <use xlink:href="#HiraginoSans-W4-65cf" transform="translate(902.499863 0.796875)"/>
     <use xlink:href="#HiraginoSans-W4-ff09" transform="translate(1002.499847 0.796875)"/>
    </g>
   </g>
   <g id="text_5">
    <!-- $P$：確率測度 $(P(\Omega)=1)$ -->
    <g style="fill: #1a1a2e" transform="translate(69.399 239.194375) scale(0.09 -0.09)">
     <defs>
      <path id="HiraginoSans-W4-78ba" d="M 2234 2355 
C 2342 2234 2419 2125 2496 1958 
C 2682 2150 2784 2278 2886 2438 
C 2880 2400 2874 2208 2867 1856 
L 2867 160 
C 2867 -154 2854 -320 2822 -518 
L 3302 -518 
L 3302 -211 
L 5402 -211 
C 5619 -211 5792 -224 6010 -250 
L 6010 230 
C 5830 205 5690 198 5402 198 
L 4659 198 
L 4659 870 
L 5229 870 
C 5440 870 5568 864 5786 838 
L 5786 1293 
C 5619 1267 5491 1261 5216 1261 
L 4659 1261 
L 4659 1888 
L 5229 1888 
C 5434 1888 5581 1882 5786 1856 
L 5786 2310 
C 5632 2285 5498 2278 5216 2278 
L 4659 2278 
L 4659 2912 
L 5325 2912 
C 5517 2912 5664 2906 5875 2886 
L 5875 3341 
C 5702 3315 5587 3309 5312 3309 
L 4774 3309 
C 4845 3437 4915 3603 4992 3808 
C 5005 3834 5018 3872 5037 3923 
L 4582 4026 
C 4525 3776 4435 3539 4320 3309 
L 3533 3309 
C 3757 3674 3872 3898 4026 4275 
L 5562 4275 
L 5562 3597 
L 6048 3597 
C 6029 3718 6022 3814 6022 3968 
L 6022 4301 
C 6022 4499 6029 4621 6042 4736 
C 5862 4710 5677 4704 5421 4704 
L 4179 4704 
C 4211 4794 4275 4998 4378 5318 
L 3878 5395 
C 3840 5165 3789 4960 3712 4704 
L 3002 4704 
C 2650 4704 2592 4704 2470 4723 
C 2477 4576 2483 4467 2483 4397 
L 2483 3968 
C 2483 3814 2477 3686 2458 3578 
L 2918 3578 
L 2918 4275 
L 3558 4275 
C 3373 3821 3226 3558 2963 3187 
C 2720 2835 2573 2669 2234 2368 
L 2234 2598 
C 2234 2816 2240 2957 2253 3104 
C 2131 3085 2022 3078 1862 3078 
L 1178 3078 
C 1389 3674 1485 4045 1587 4653 
L 1926 4653 
C 2099 4653 2189 4646 2368 4627 
L 2368 5120 
C 2182 5088 2042 5082 1805 5082 
L 966 5082 
C 723 5082 550 5094 378 5120 
L 378 4614 
C 557 4646 685 4653 928 4653 
L 1126 4653 
C 1062 4198 1005 3930 896 3571 
C 698 2950 474 2515 128 2080 
C 237 1926 269 1869 371 1613 
C 531 1830 627 1997 781 2342 
C 762 2138 749 1805 749 1709 
L 749 282 
C 749 13 736 -166 710 -339 
L 1190 -339 
L 1190 307 
L 1811 307 
L 1811 -45 
L 2253 -45 
C 2240 102 2234 230 2234 480 
L 2234 2355 
z
M 3302 2278 
L 3302 2912 
L 4237 2912 
L 4237 2278 
L 3302 2278 
z
M 3302 1888 
L 4237 1888 
L 4237 1261 
L 3302 1261 
L 3302 1888 
z
M 3302 870 
L 4237 870 
L 4237 198 
L 3302 198 
L 3302 870 
z
M 1190 2656 
L 1811 2656 
L 1811 736 
L 1190 736 
L 1190 2656 
z
" transform="scale(0.015625)"/>
      <path id="HiraginoSans-W4-7387" d="M 2074 2310 
C 2035 2304 2003 2304 1997 2304 
C 1894 2304 1728 2310 1645 2323 
L 1722 1862 
C 1798 1875 1888 1888 2061 1901 
C 3078 1984 3469 2029 4109 2144 
C 4198 2003 4230 1939 4333 1734 
L 4742 1926 
C 4371 2490 4250 2643 3872 3053 
L 3526 2886 
C 3718 2688 3776 2618 3898 2458 
C 3680 2426 3680 2426 2739 2342 
C 2925 2502 2925 2502 3315 2893 
L 3398 2970 
C 3814 3398 3872 3462 4147 3827 
L 3782 4083 
C 3520 3693 3398 3539 3091 3200 
C 2963 3341 2906 3405 2720 3571 
C 2970 3866 3117 4077 3302 4403 
L 5427 4403 
C 5696 4403 5888 4397 6074 4371 
L 6074 4883 
C 5882 4858 5677 4845 5376 4845 
L 3398 4845 
L 3398 4960 
C 3398 5126 3411 5235 3437 5382 
L 2886 5382 
C 2906 5248 2918 5114 2918 4960 
L 2918 4845 
L 1082 4845 
C 787 4845 589 4858 390 4883 
L 390 4371 
C 576 4397 774 4403 1030 4403 
L 2810 4403 
C 2714 4205 2592 4026 2432 3827 
C 2342 3904 2291 3942 2150 4045 
L 1856 3738 
C 2253 3456 2534 3206 2803 2899 
C 2573 2669 2458 2560 2170 2310 
L 2074 2310 
z
M 3379 928 
L 5402 928 
C 5683 928 5901 915 6093 890 
L 6093 1414 
C 5920 1389 5690 1370 5453 1370 
L 3379 1370 
L 3379 1453 
C 3379 1632 3386 1747 3405 1856 
L 2867 1856 
C 2886 1754 2893 1619 2893 1459 
L 2893 1370 
L 966 1370 
C 723 1370 474 1389 314 1414 
L 314 890 
C 538 915 730 928 998 928 
L 2893 928 
L 2893 32 
C 2893 -179 2880 -352 2848 -544 
L 3424 -544 
C 3392 -358 3379 -192 3379 32 
L 3379 928 
z
M 595 3898 
C 986 3597 1146 3443 1485 3040 
L 1837 3366 
C 1536 3693 1312 3891 941 4186 
L 595 3898 
z
M 563 1722 
C 678 1786 698 1792 787 1843 
C 954 1920 992 1946 1146 2029 
C 1478 2221 1651 2336 2035 2624 
L 1830 2995 
C 1350 2611 845 2336 352 2195 
L 563 1722 
z
M 5299 4205 
C 4973 3827 4717 3610 4275 3315 
L 4589 2995 
C 5024 3302 5312 3552 5658 3910 
L 5299 4205 
z
M 4499 2643 
C 4986 2323 5280 2080 5651 1690 
L 5978 2067 
C 5536 2451 5312 2618 4787 2944 
L 4499 2643 
z
" transform="scale(0.015625)"/>
      <path id="HiraginoSans-W4-6e2c" d="M 474 4941 
C 877 4659 1120 4442 1408 4090 
L 1741 4448 
C 1453 4781 1229 4979 800 5274 
L 474 4941 
z
M 256 3354 
C 672 3098 922 2893 1267 2522 
L 1574 2918 
C 1235 3245 979 3437 557 3699 
L 256 3354 
z
M 1222 1875 
C 941 960 627 288 326 -38 
L 755 -410 
C 794 -326 813 -282 896 -128 
C 1197 416 1402 902 1619 1594 
L 1222 1875 
z
M 3328 1146 
C 3526 1146 3648 1139 3866 1126 
C 3853 1261 3846 1472 3846 1728 
L 3846 4538 
C 3846 4813 3853 4986 3872 5158 
C 3680 5146 3558 5139 3360 5139 
L 2438 5139 
C 2202 5139 2061 5146 1926 5158 
C 1939 4973 1946 4806 1946 4595 
L 1946 1766 
C 1946 1414 1946 1312 1926 1126 
C 2061 1139 2214 1146 2438 1146 
L 3328 1146 
z
M 2387 4730 
L 3411 4730 
L 3411 3955 
L 2387 3955 
L 2387 4730 
z
M 2387 3552 
L 3411 3552 
L 3411 2778 
L 2387 2778 
L 2387 3552 
z
M 2387 2374 
L 3411 2374 
L 3411 1555 
L 2387 1555 
L 2387 2374 
z
M 3034 755 
C 3309 269 3501 6 3878 -390 
C 4038 -218 4109 -147 4237 -58 
C 3859 269 3674 499 3411 973 
L 3034 755 
z
M 4890 1088 
C 4864 1248 4858 1408 4858 1715 
L 4858 4314 
C 4858 4614 4864 4749 4890 4941 
L 4365 4941 
C 4390 4768 4397 4602 4397 4320 
L 4397 1715 
C 4397 1434 4384 1254 4365 1088 
L 4890 1088 
z
M 2323 979 
C 2099 480 1926 250 1485 -115 
C 1619 -218 1696 -288 1837 -448 
C 2266 -38 2464 237 2714 768 
L 2323 979 
z
M 5914 4512 
C 5914 4870 5926 5082 5952 5261 
L 5408 5261 
C 5434 5024 5446 4826 5446 4512 
L 5446 269 
C 5446 128 5402 102 5146 102 
C 4947 102 4749 122 4499 154 
C 4570 -13 4589 -109 4621 -333 
C 5011 -352 5024 -352 5152 -352 
C 5773 -352 5914 -250 5914 186 
L 5914 4512 
z
" transform="scale(0.015625)"/>
      <path id="HiraginoSans-W4-5ea6" d="M 2400 3379 
L 2400 2752 
C 2400 2624 2394 2483 2381 2362 
C 2464 2374 2579 2374 2835 2374 
L 4365 2374 
C 4602 2374 4672 2374 4774 2362 
C 4762 2477 4755 2605 4755 2752 
L 4755 3379 
L 5478 3379 
C 5760 3379 5920 3373 6061 3347 
L 6061 3821 
C 5901 3795 5760 3789 5485 3789 
L 4755 3789 
L 4755 3859 
C 4755 4026 4762 4141 4781 4256 
L 4262 4256 
C 4282 4141 4288 4013 4288 3866 
L 4288 3789 
L 2867 3789 
L 2867 3878 
C 2867 4006 2874 4115 2893 4256 
L 2374 4256 
C 2394 4147 2400 4032 2400 3872 
L 2400 3789 
L 1312 3789 
L 1312 4403 
L 5376 4403 
C 5677 4403 5837 4397 6048 4378 
L 6048 4864 
C 5875 4838 5677 4826 5325 4826 
L 3622 4826 
L 3622 4998 
C 3622 5171 3629 5280 3654 5402 
L 3098 5402 
C 3123 5274 3136 5152 3136 4998 
L 3136 4826 
L 1478 4826 
C 1222 4826 1011 4838 800 4858 
C 819 4672 826 4480 826 4051 
C 826 1670 698 845 198 -26 
C 358 -147 454 -237 595 -416 
C 1120 538 1267 1318 1306 3379 
L 2400 3379 
z
M 2867 3379 
L 4288 3379 
L 4288 2765 
L 2867 2765 
L 2867 3379 
z
M 5030 1933 
C 4896 1920 4787 1914 4570 1914 
L 2272 1914 
C 1939 1914 1766 1920 1613 1946 
L 1613 1491 
C 1766 1517 1907 1523 2195 1523 
C 2522 1056 2771 800 3187 493 
C 2598 224 1997 77 1126 -19 
C 1235 -218 1280 -320 1318 -493 
C 2291 -333 2931 -134 3610 224 
C 4256 -141 4902 -339 5882 -474 
C 5939 -275 6003 -128 6099 32 
C 5338 77 4653 230 4058 499 
C 4429 749 4774 1056 5069 1395 
C 5190 1536 5235 1587 5299 1651 
L 5030 1933 
z
M 4582 1523 
C 4230 1152 4013 973 3622 723 
C 3206 986 2957 1210 2733 1523 
L 4582 1523 
z
" transform="scale(0.015625)"/>
      <path id="HiraginoSans-W4-20" transform="scale(0.015625)"/>
      <path id="DejaVuSans-3d" d="M 678 2906 
L 4684 2906 
L 4684 2381 
L 678 2381 
L 678 2906 
z
M 678 1631 
L 4684 1631 
L 4684 1100 
L 678 1100 
L 678 1631 
z
" transform="scale(0.015625)"/>
      <path id="DejaVuSans-31" d="M 794 531 
L 1825 531 
L 1825 4091 
L 703 3866 
L 703 4441 
L 1819 4666 
L 2450 4666 
L 2450 531 
L 3481 531 
L 3481 0 
L 794 0 
L 794 531 
z
" transform="scale(0.015625)"/>
     </defs>
     <use xlink:href="#DejaVuSans-Oblique-50" transform="translate(0 0.59375)"/>
     <use xlink:href="#HiraginoSans-W4-ff1a" transform="translate(60.302734 0.59375)"/>
     <use xlink:href="#HiraginoSans-W4-78ba" transform="translate(160.302719 0.59375)"/>
     <use xlink:href="#HiraginoSans-W4-7387" transform="translate(260.302704 0.59375)"/>
     <use xlink:href="#HiraginoSans-W4-6e2c" transform="translate(360.302689 0.59375)"/>
     <use xlink:href="#HiraginoSans-W4-5ea6" transform="translate(460.302673 0.59375)"/>
     <use xlink:href="#HiraginoSans-W4-20" transform="translate(560.302658 0.59375)"/>
     <use xlink:href="#DejaVuSans-28" transform="translate(593.602646 0.59375)"/>
     <use xlink:href="#DejaVuSans-Oblique-50" transform="translate(632.616318 0.59375)"/>
     <use xlink:href="#DejaVuSans-28" transform="translate(692.919052 0.59375)"/>
     <use xlink:href="#DejaVuSans-3a9" transform="translate(731.932724 0.59375)"/>
     <use xlink:href="#DejaVuSans-29" transform="translate(808.34874 0.59375)"/>
     <use xlink:href="#DejaVuSans-3d" transform="translate(866.844833 0.59375)"/>
     <use xlink:href="#DejaVuSans-31" transform="translate(970.116318 0.59375)"/>
     <use xlink:href="#DejaVuSans-29" transform="translate(1033.739365 0.59375)"/>
    </g>
   </g>
   <g id="text_6">
    <!-- Lean の型クラス -->
    <g style="fill: #27ae60" transform="translate(354.789672 82.144375) scale(0.11 -0.11)">
     <defs>
      <path id="HiraginoSans-W7-4c" d="M 3258 -134 
C 3661 -134 4019 -154 4205 -179 
L 4205 858 
C 3923 826 3699 813 3258 813 
L 1542 813 
L 1542 4096 
C 1542 4595 1549 4678 1594 5069 
L 429 5069 
C 467 4774 480 4525 480 4083 
L 480 736 
C 480 333 467 83 429 -154 
C 666 -141 902 -134 1299 -134 
L 3258 -134 
z
" transform="scale(0.015625)"/>
      <path id="HiraginoSans-W7-65" d="M 4032 1485 
C 4019 1606 4019 1613 4019 1638 
C 3994 2118 3962 2323 3846 2637 
C 3571 3373 2963 3782 2125 3782 
C 973 3782 211 2976 211 1760 
C 211 1139 410 595 774 237 
C 1107 -96 1587 -269 2163 -269 
C 2746 -269 3232 -90 3571 250 
C 3744 416 3840 563 3981 870 
L 3053 1146 
C 2918 755 2611 544 2163 544 
C 1856 544 1606 653 1434 864 
C 1306 1024 1248 1184 1216 1485 
L 4032 1485 
z
M 1235 2227 
C 1357 2726 1664 2982 2138 2982 
C 2432 2982 2675 2874 2829 2675 
C 2925 2547 2970 2432 3008 2227 
L 1235 2227 
z
" transform="scale(0.015625)"/>
      <path id="HiraginoSans-W7-61" d="M 2842 -134 
L 3878 -134 
C 3846 154 3834 346 3834 717 
L 3834 2451 
C 3834 2912 3750 3162 3533 3366 
C 3251 3635 2822 3763 2195 3763 
C 1594 3763 1133 3642 813 3392 
C 589 3219 467 3046 333 2675 
L 1344 2509 
C 1414 2688 1472 2778 1587 2861 
C 1709 2950 1939 3008 2189 3008 
C 2624 3008 2842 2854 2842 2541 
L 2842 2285 
C 2029 2259 1837 2240 1466 2163 
C 672 1984 237 1549 237 928 
C 237 589 365 294 602 96 
C 832 -109 1158 -205 1613 -205 
C 2131 -205 2458 -96 2842 198 
L 2842 -134 
z
M 2842 1357 
C 2842 1133 2765 973 2579 813 
C 2381 646 2067 538 1792 538 
C 1446 538 1254 685 1254 954 
C 1254 1197 1408 1370 1702 1459 
C 1990 1549 2259 1581 2842 1600 
L 2842 1357 
z
" transform="scale(0.015625)"/>
      <path id="HiraginoSans-W7-6e" d="M 1485 -134 
C 1446 179 1434 416 1434 762 
L 1434 2061 
C 1709 2541 2106 2835 2483 2835 
C 2637 2835 2765 2797 2861 2726 
C 3014 2611 3066 2464 3066 2131 
L 3066 762 
C 3066 403 3053 166 3014 -134 
L 4134 -134 
C 4096 128 4083 371 4083 762 
L 4083 2374 
C 4083 3245 3610 3731 2758 3731 
C 2214 3731 1811 3552 1414 3142 
C 1421 3264 1427 3347 1427 3398 
L 1427 3654 
L 371 3654 
C 410 3411 422 3168 422 2758 
L 422 762 
C 422 390 410 154 371 -134 
L 1485 -134 
z
" transform="scale(0.015625)"/>
      <path id="HiraginoSans-W7-20" transform="scale(0.015625)"/>
      <path id="HiraginoSans-W7-578b" d="M 800 826 
C 992 845 1248 858 1549 858 
L 2733 858 
L 2733 397 
L 1056 397 
C 742 397 493 410 307 429 
L 307 -390 
C 531 -365 768 -352 1120 -352 
L 5254 -352 
C 5613 -352 5856 -365 6086 -390 
L 6086 429 
C 5907 410 5664 397 5325 397 
L 3578 397 
L 3578 858 
L 4832 858 
C 5152 858 5408 845 5594 826 
L 5594 1645 
C 5421 1626 5171 1613 4819 1613 
L 3578 1613 
L 3578 1798 
C 3578 1971 3584 2061 3610 2170 
L 3066 2170 
C 3059 2317 3059 2458 3059 2688 
L 3059 3194 
C 3360 3194 3462 3187 3648 3168 
L 3648 3962 
C 3488 3942 3386 3936 3059 3936 
L 3059 4499 
C 3322 4493 3379 4493 3552 4474 
L 3552 5261 
C 3360 5229 3200 5222 2835 5222 
L 1126 5222 
C 838 5222 627 5235 422 5261 
L 422 4474 
C 595 4493 685 4499 1011 4499 
C 1005 4352 1005 4352 1005 4160 
C 1005 4019 1005 4019 1005 3936 
L 922 3936 
C 653 3936 474 3942 288 3968 
L 288 3162 
C 474 3187 634 3194 896 3194 
L 934 3194 
C 826 2739 634 2458 243 2189 
C 454 2048 627 1869 800 1632 
L 800 826 
z
M 2266 3194 
L 2266 2682 
C 2266 2406 2253 2144 2227 1939 
L 2726 1939 
C 2726 1850 2733 1837 2733 1792 
L 2733 1613 
L 1446 1613 
C 1197 1613 1069 1619 890 1632 
C 1171 1869 1318 2035 1466 2285 
C 1613 2547 1709 2842 1760 3194 
L 2266 3194 
z
M 1811 4499 
L 2266 4499 
L 2266 3936 
L 1811 3936 
L 1811 4499 
z
M 4653 4627 
C 4653 4819 4659 4947 4678 5082 
L 3821 5082 
C 3834 4941 3846 4787 3846 4576 
L 3846 3014 
C 3846 2816 3834 2662 3821 2528 
L 4371 2528 
C 4442 2368 4486 2176 4518 1894 
C 4806 1888 4813 1888 4883 1888 
C 5267 1888 5498 1914 5632 1971 
C 5856 2074 5939 2240 5939 2624 
L 5939 4794 
C 5939 5062 5946 5242 5971 5376 
L 5075 5376 
C 5094 5210 5107 5094 5107 4858 
L 5107 2758 
C 5107 2624 5088 2618 4838 2618 
C 4819 2618 4787 2618 4723 2624 
C 4710 2624 4685 2624 4659 2624 
C 4653 2739 4653 2829 4653 2950 
L 4653 4627 
z
" transform="scale(0.015625)"/>
      <path id="HiraginoSans-W7-30af" d="M 2419 5357 
C 2387 5133 2298 4890 2112 4544 
C 1690 3738 1184 3162 435 2643 
C 813 2413 928 2317 1197 1990 
C 1786 2451 2285 3002 2675 3622 
L 4493 3642 
C 3968 2029 2970 1024 1242 352 
C 1581 45 1690 -83 1901 -474 
C 2918 -6 3648 512 4224 1171 
C 4781 1805 5229 2669 5536 3667 
C 5613 3923 5638 3981 5702 4083 
L 5235 4544 
C 5114 4499 4986 4480 4774 4474 
L 3110 4454 
C 3181 4595 3206 4653 3264 4781 
C 3354 4986 3418 5114 3450 5158 
L 2419 5357 
z
" transform="scale(0.015625)"/>
      <path id="HiraginoSans-W7-30e9" d="M 1222 4166 
C 1421 4186 1677 4198 2086 4198 
L 4218 4198 
C 4762 4198 4858 4192 5075 4166 
L 5075 5094 
C 4845 5050 4723 5043 4205 5043 
L 2106 5043 
C 1664 5043 1453 5056 1222 5094 
L 1222 4166 
z
M 685 2592 
C 922 2618 1114 2624 1638 2624 
L 4550 2624 
C 4294 2003 4006 1606 3539 1235 
C 3066 864 2579 640 1805 442 
C 2144 64 2234 -70 2406 -448 
C 3283 -102 3718 122 4154 474 
C 4787 986 5280 1722 5606 2662 
C 5690 2886 5715 2950 5786 3066 
L 5357 3539 
C 5171 3482 5107 3475 4736 3475 
L 1651 3475 
C 1082 3475 960 3482 685 3520 
L 685 2592 
z
" transform="scale(0.015625)"/>
      <path id="HiraginoSans-W7-30b9" d="M 6042 493 
C 4947 1536 4787 1677 3962 2266 
C 4333 2771 4621 3290 4928 4006 
C 5005 4192 5056 4275 5139 4365 
L 4646 4877 
C 4493 4806 4461 4800 4109 4800 
L 1926 4762 
C 1882 4762 1830 4762 1805 4762 
C 1408 4762 1229 4768 1024 4800 
L 1037 3827 
C 1280 3866 1402 3872 1933 3885 
L 3802 3917 
C 3654 3590 3546 3360 3462 3219 
C 3053 2502 2490 1882 1786 1370 
C 1306 1018 928 813 365 589 
C 678 262 768 141 979 -262 
C 1952 211 2797 845 3366 1523 
C 4083 966 4723 339 5267 -339 
L 6042 493 
z
" transform="scale(0.015625)"/>
     </defs>
     <use xlink:href="#HiraginoSans-W7-4c"/>
     <use xlink:href="#HiraginoSans-W7-65" transform="translate(66.299988 0)"/>
     <use xlink:href="#HiraginoSans-W7-61" transform="translate(132.399979 0)"/>
     <use xlink:href="#HiraginoSans-W7-6e" transform="translate(198.799973 0)"/>
     <use xlink:href="#HiraginoSans-W7-20" transform="translate(268.999954 0)"/>
     <use xlink:href="#HiraginoSans-W7-306e" transform="translate(302.299942 0)"/>
     <use xlink:href="#HiraginoSans-W7-578b" transform="translate(402.299927 0)"/>
     <use xlink:href="#HiraginoSans-W7-30af" transform="translate(502.299911 0)"/>
     <use xlink:href="#HiraginoSans-W7-30e9" transform="translate(602.299896 0)"/>
     <use xlink:href="#HiraginoSans-W7-30b9" transform="translate(702.299881 0)"/>
    </g>
   </g>
   <g id="text_7">
    <!-- $\Omega$ : Type* -->
    <g style="fill: #1a1a2e" transform="translate(378.441 120.349375) scale(0.09 -0.09)">
     <defs>
      <path id="HiraginoSans-W4-3a" d="M 1165 3520 
L 442 3520 
L 442 2797 
L 1165 2797 
L 1165 3520 
z
M 1165 0 
L 1165 723 
L 442 723 
L 442 0 
L 1165 0 
z
" transform="scale(0.015625)"/>
      <path id="HiraginoSans-W4-54" d="M 2419 4397 
L 3354 4397 
C 3744 4397 3949 4384 4166 4352 
L 4166 4979 
C 3955 4947 3763 4934 3354 4934 
L 851 4934 
C 499 4934 333 4947 83 4979 
L 83 4352 
C 294 4384 518 4397 858 4397 
L 1818 4397 
L 1818 755 
C 1818 435 1798 192 1766 0 
L 2470 0 
C 2432 237 2419 435 2419 755 
L 2419 4397 
z
" transform="scale(0.015625)"/>
      <path id="HiraginoSans-W4-79" d="M 1600 154 
L 1325 -486 
C 1229 -710 1069 -832 858 -832 
C 730 -832 621 -800 442 -717 
L 301 -1274 
C 550 -1325 710 -1344 864 -1344 
C 1357 -1344 1664 -1146 1843 -717 
L 3283 2758 
C 3462 3181 3571 3437 3603 3520 
L 2912 3520 
C 2880 3334 2829 3168 2694 2816 
L 1901 768 
L 1011 2822 
C 902 3072 819 3341 787 3520 
L 64 3520 
C 134 3386 134 3386 422 2758 
L 1600 154 
z
" transform="scale(0.015625)"/>
      <path id="HiraginoSans-W4-70" d="M 1101 -1312 
C 1069 -1075 1056 -877 1056 -550 
L 1056 128 
C 1056 301 1050 397 1037 570 
C 1363 154 1792 -51 2349 -51 
C 3334 -51 3968 659 3968 1773 
C 3968 2906 3354 3590 2336 3590 
C 1766 3590 1344 3379 1037 2944 
C 1050 3078 1050 3117 1050 3194 
L 1050 3520 
L 442 3520 
C 474 3277 486 3078 486 2752 
L 486 -557 
C 486 -845 474 -1056 442 -1312 
L 1101 -1312 
z
M 2272 442 
C 1952 442 1626 570 1421 781 
C 1197 1005 1062 1376 1062 1766 
C 1062 2547 1555 3091 2278 3091 
C 2976 3091 3373 2611 3373 1773 
C 3373 941 2957 442 2272 442 
z
" transform="scale(0.015625)"/>
      <path id="HiraginoSans-W4-65" d="M 3578 1651 
C 3558 1971 3546 2106 3533 2170 
C 3405 3066 2797 3610 1933 3610 
C 934 3610 282 2880 282 1760 
C 282 621 941 -96 1978 -96 
C 2470 -96 2880 64 3187 371 
C 3341 518 3424 646 3546 915 
L 3008 1114 
C 2944 928 2899 845 2803 742 
C 2605 512 2323 390 1984 390 
C 1613 390 1312 531 1114 800 
C 947 1024 883 1235 858 1651 
L 3578 1651 
z
M 877 2118 
C 915 2349 947 2451 1037 2605 
C 1229 2944 1542 3130 1920 3130 
C 2221 3130 2464 3040 2656 2854 
C 2842 2669 2938 2451 2976 2118 
L 877 2118 
z
" transform="scale(0.015625)"/>
      <path id="HiraginoSans-W4-2a" d="M 877 4934 
L 1043 4077 
L 378 4640 
L 109 4218 
L 941 3910 
L 128 3616 
L 384 3187 
L 1050 3757 
L 877 2886 
L 1408 2886 
L 1235 3757 
L 1901 3187 
L 2157 3616 
L 1344 3910 
L 2176 4218 
L 1907 4634 
L 1242 4077 
L 1408 4934 
L 877 4934 
z
" transform="scale(0.015625)"/>
     </defs>
     <use xlink:href="#DejaVuSans-3a9" transform="translate(0 0.203125)"/>
     <use xlink:href="#HiraginoSans-W4-20" transform="translate(76.416016 0.203125)"/>
     <use xlink:href="#HiraginoSans-W4-3a" transform="translate(109.716003 0.203125)"/>
     <use xlink:href="#HiraginoSans-W4-20" transform="translate(134.715988 0.203125)"/>
     <use xlink:href="#HiraginoSans-W4-54" transform="translate(168.015976 0.203125)"/>
     <use xlink:href="#HiraginoSans-W4-79" transform="translate(234.41597 0.203125)"/>
     <use xlink:href="#HiraginoSans-W4-70" transform="translate(291.815964 0.203125)"/>
     <use xlink:href="#HiraginoSans-W4-65" transform="translate(358.215958 0.203125)"/>
     <use xlink:href="#HiraginoSans-W4-2a" transform="translate(418.415955 0.203125)"/>
    </g>
   </g>
   <g id="text_8">
    <!-- $\Omega$：型 -->
    <g style="fill: #1a1a2e" transform="translate(386.451 159.931094) scale(0.09 -0.09)">
     <defs>
      <path id="HiraginoSans-W4-578b" d="M 1229 4672 
C 1222 4218 1222 3936 1216 3834 
L 992 3834 
C 717 3834 544 3840 378 3866 
L 378 3373 
C 538 3398 717 3405 979 3405 
L 1178 3405 
C 1139 3104 1094 2944 1011 2758 
C 877 2477 742 2317 384 2042 
C 550 1933 640 1843 755 1683 
C 1331 2170 1555 2611 1638 3405 
L 2490 3405 
L 2490 2560 
C 2490 2298 2477 2093 2451 1933 
L 2912 1933 
C 2918 1837 2925 1734 2925 1581 
L 2925 1434 
L 1651 1434 
C 1306 1434 1146 1440 979 1466 
L 979 966 
C 1178 992 1382 998 1690 998 
L 2925 998 
L 2925 205 
L 1126 205 
C 794 205 563 218 410 237 
L 410 -282 
C 614 -256 864 -243 1152 -243 
L 5293 -243 
C 5587 -243 5837 -256 6042 -282 
L 6042 237 
C 5875 211 5670 205 5318 205 
L 3405 205 
L 3405 998 
L 4774 998 
C 5082 998 5286 992 5485 966 
L 5485 1472 
C 5312 1446 5120 1434 4768 1434 
L 3405 1434 
L 3405 1581 
C 3405 1805 3411 1914 3437 2042 
L 2970 2042 
C 2957 2208 2950 2323 2950 2554 
L 2950 3405 
L 3149 3405 
C 3418 3405 3571 3398 3744 3373 
L 3744 3866 
C 3584 3840 3437 3834 3136 3834 
L 2950 3834 
L 2950 4672 
L 3027 4672 
C 3290 4672 3450 4666 3603 4646 
L 3603 5126 
C 3437 5101 3264 5094 2970 5094 
L 1184 5094 
C 909 5094 730 5101 544 5126 
L 544 4646 
C 698 4666 864 4672 1133 4672 
L 1229 4672 
z
M 2490 4672 
L 2490 3834 
L 1670 3834 
C 1683 4058 1683 4070 1683 4371 
C 1683 4435 1683 4544 1690 4672 
L 2490 4672 
z
M 4512 2797 
C 4493 2931 4486 3072 4486 3328 
L 4486 4480 
C 4486 4736 4493 4890 4518 5024 
L 3981 5024 
C 4000 4883 4013 4704 4013 4461 
L 4013 3360 
C 4013 3117 4000 2938 3981 2797 
L 4512 2797 
z
M 5805 4666 
C 5805 4960 5818 5158 5843 5293 
L 5286 5293 
C 5318 5114 5325 4966 5325 4691 
L 5325 2490 
C 5325 2368 5293 2342 5101 2342 
C 4845 2342 4621 2362 4339 2400 
C 4416 2240 4442 2131 4474 1901 
C 4710 1882 4902 1875 5094 1875 
C 5658 1875 5805 1990 5805 2413 
L 5805 4666 
z
" transform="scale(0.015625)"/>
     </defs>
     <use xlink:href="#DejaVuSans-3a9" transform="translate(0 0.296875)"/>
     <use xlink:href="#HiraginoSans-W4-ff1a" transform="translate(76.416016 0.296875)"/>
     <use xlink:href="#HiraginoSans-W4-578b" transform="translate(176.416 0.296875)"/>
    </g>
   </g>
   <g id="text_9">
    <!-- MeasurableSpace $\Omega$ -->
    <g style="fill: #1a1a2e" transform="translate(353.376 199.594375) scale(0.09 -0.09)">
     <defs>
      <path id="HiraginoSans-W4-4d" d="M 5018 806 
C 5018 480 4998 211 4966 0 
L 5638 0 
C 5600 230 5587 422 5587 806 
L 5587 4122 
C 5587 4486 5600 4672 5638 4934 
L 4774 4934 
C 4736 4723 4672 4531 4557 4262 
L 3059 838 
L 1562 4262 
C 1466 4486 1389 4730 1344 4934 
L 480 4934 
C 518 4691 531 4467 531 4122 
L 531 806 
C 531 442 518 243 480 0 
L 1152 0 
C 1114 224 1101 442 1101 806 
L 1101 3059 
C 1101 3251 1082 3776 1056 4243 
C 1242 3667 1293 3533 1478 3117 
L 2534 723 
C 2669 435 2752 186 2784 0 
L 3322 0 
C 3386 250 3443 422 3578 717 
L 4666 3155 
C 4883 3648 4960 3846 5062 4237 
C 5043 3949 5018 3334 5018 3104 
L 5018 806 
z
" transform="scale(0.015625)"/>
      <path id="HiraginoSans-W4-61" d="M 2765 0 
L 3373 0 
C 3334 269 3322 422 3322 736 
L 3322 2515 
C 3322 2867 3238 3110 3046 3290 
C 2816 3514 2464 3622 1978 3622 
C 1485 3622 1094 3507 813 3270 
C 627 3123 531 2976 416 2656 
L 1011 2541 
C 1069 2714 1114 2797 1197 2886 
C 1370 3066 1626 3155 1971 3155 
C 2515 3155 2765 2950 2765 2515 
L 2765 2182 
C 1933 2163 1581 2118 1197 1997 
C 646 1818 333 1434 333 941 
C 333 320 774 -58 1491 -58 
C 1741 -58 1978 -19 2195 64 
C 2406 141 2522 218 2765 429 
L 2765 0 
z
M 2765 1363 
C 2765 1126 2707 973 2554 813 
C 2304 557 1920 397 1568 397 
C 1165 397 915 608 915 941 
C 915 1235 1075 1440 1395 1568 
C 1677 1683 2035 1728 2765 1747 
L 2765 1363 
z
" transform="scale(0.015625)"/>
      <path id="HiraginoSans-W4-73" d="M 262 973 
C 326 704 378 589 480 448 
C 730 109 1184 -70 1786 -70 
C 2707 -70 3270 339 3270 1011 
C 3270 1293 3136 1555 2912 1722 
C 2720 1862 2483 1946 1894 2074 
C 1510 2157 1357 2208 1210 2285 
C 1075 2355 998 2483 998 2624 
C 998 2944 1312 3162 1760 3162 
C 2042 3162 2259 3078 2400 2925 
C 2483 2835 2515 2758 2554 2598 
L 3155 2688 
C 3066 2982 2982 3136 2810 3283 
C 2573 3494 2208 3610 1754 3610 
C 1299 3610 941 3494 698 3258 
C 518 3091 416 2861 416 2618 
C 416 2310 557 2054 819 1888 
C 1043 1747 1261 1677 1760 1574 
C 2246 1466 2349 1440 2490 1350 
C 2618 1274 2682 1139 2682 973 
C 2682 621 2342 397 1818 397 
C 1504 397 1267 474 1107 614 
C 986 730 934 832 890 1069 
L 262 973 
z
" transform="scale(0.015625)"/>
      <path id="HiraginoSans-W4-75" d="M 2944 3520 
C 2976 3264 2989 3046 2989 2765 
L 2989 1510 
C 2918 1248 2835 1094 2662 890 
C 2400 576 2125 435 1792 435 
C 1306 435 1056 723 1056 1286 
L 1056 2765 
C 1056 3066 1069 3251 1101 3520 
L 429 3520 
C 461 3302 474 3104 474 2771 
L 474 1197 
C 474 858 538 608 666 416 
C 877 109 1242 -58 1709 -58 
C 2272 -58 2682 166 3002 653 
C 2989 493 2989 461 2989 378 
L 2989 0 
L 3616 0 
C 3578 256 3565 442 3565 755 
L 3565 2765 
C 3565 3091 3578 3264 3616 3520 
L 2944 3520 
z
" transform="scale(0.015625)"/>
      <path id="HiraginoSans-W4-72" d="M 2784 3520 
C 2522 3565 2394 3578 2195 3578 
C 1862 3578 1568 3488 1350 3315 
C 1242 3238 1165 3142 1056 2976 
C 1062 3027 1062 3040 1069 3085 
C 1069 3104 1069 3117 1069 3130 
C 1069 3162 1069 3181 1069 3187 
L 1069 3520 
L 442 3520 
C 474 3283 486 3104 486 2765 
L 486 755 
C 486 467 480 314 442 0 
L 1114 0 
C 1082 262 1069 448 1069 755 
L 1069 2022 
C 1101 2317 1158 2470 1312 2669 
C 1504 2912 1760 3034 2093 3034 
C 2259 3034 2381 3014 2618 2938 
L 2784 3520 
z
" transform="scale(0.015625)"/>
      <path id="HiraginoSans-W4-62" d="M 1050 0 
L 1050 314 
C 1043 448 1043 448 1037 506 
C 1037 518 1037 538 1037 557 
C 1338 141 1766 -64 2317 -64 
C 3341 -64 3962 634 3962 1786 
C 3962 2918 3360 3597 2355 3597 
C 1779 3597 1344 3379 1037 2931 
C 1050 3078 1056 3206 1056 3386 
L 1056 4173 
C 1056 4499 1069 4691 1101 4934 
L 442 4934 
C 474 4666 486 4461 486 4173 
L 486 774 
C 486 442 474 243 442 0 
L 1050 0 
z
M 3366 1786 
C 3366 941 2950 429 2259 429 
C 1555 429 1062 986 1062 1779 
C 1062 2566 1562 3104 2285 3104 
C 2970 3104 3366 2618 3366 1786 
z
" transform="scale(0.015625)"/>
      <path id="HiraginoSans-W4-6c" d="M 442 4934 
C 474 4704 486 4518 486 4179 
L 486 755 
C 486 429 474 250 442 0 
L 1120 0 
C 1088 262 1075 448 1075 755 
L 1075 4179 
C 1075 4512 1088 4698 1120 4934 
L 442 4934 
z
" transform="scale(0.015625)"/>
      <path id="HiraginoSans-W4-53" d="M 333 1414 
C 397 966 474 755 659 518 
C 960 128 1510 -83 2234 -83 
C 3360 -83 4013 454 4013 1382 
C 4013 1805 3872 2118 3565 2355 
C 3347 2534 3027 2662 2534 2765 
C 1811 2918 1786 2931 1619 2995 
C 1274 3136 1101 3360 1101 3680 
C 1101 4166 1536 4499 2170 4499 
C 2566 4499 2880 4378 3078 4147 
C 3194 4006 3245 3885 3290 3642 
L 3936 3725 
C 3866 4051 3795 4224 3648 4416 
C 3354 4813 2842 5024 2182 5024 
C 1152 5024 486 4486 486 3661 
C 486 3213 678 2874 1056 2643 
C 1280 2502 1536 2413 1952 2317 
C 2765 2138 2822 2125 3027 2010 
C 3258 1882 3386 1651 3386 1350 
C 3386 787 2944 448 2221 448 
C 1760 448 1389 602 1184 870 
C 1062 1043 1011 1184 992 1485 
L 333 1414 
z
" transform="scale(0.015625)"/>
      <path id="HiraginoSans-W4-63" d="M 3475 2573 
C 3405 2758 3347 2867 3251 3002 
C 2970 3405 2522 3616 1965 3616 
C 947 3616 282 2874 282 1747 
C 282 627 954 -90 1990 -90 
C 2534 -90 2970 102 3258 480 
C 3366 621 3430 742 3520 986 
L 2950 1126 
C 2899 966 2867 890 2816 806 
C 2650 550 2362 410 2010 410 
C 1312 410 870 934 870 1760 
C 870 2598 1299 3130 1984 3130 
C 2438 3130 2739 2899 2912 2413 
L 3475 2573 
z
" transform="scale(0.015625)"/>
     </defs>
     <use xlink:href="#HiraginoSans-W4-4d" transform="translate(0 0.5)"/>
     <use xlink:href="#HiraginoSans-W4-65" transform="translate(95.699982 0.5)"/>
     <use xlink:href="#HiraginoSans-W4-61" transform="translate(155.899979 0.5)"/>
     <use xlink:href="#HiraginoSans-W4-73" transform="translate(215.099976 0.5)"/>
     <use xlink:href="#HiraginoSans-W4-75" transform="translate(270.399963 0.5)"/>
     <use xlink:href="#HiraginoSans-W4-72" transform="translate(333.799957 0.5)"/>
     <use xlink:href="#HiraginoSans-W4-61" transform="translate(378.499954 0.5)"/>
     <use xlink:href="#HiraginoSans-W4-62" transform="translate(437.699951 0.5)"/>
     <use xlink:href="#HiraginoSans-W4-6c" transform="translate(503.999939 0.5)"/>
     <use xlink:href="#HiraginoSans-W4-65" transform="translate(528.299927 0.5)"/>
     <use xlink:href="#HiraginoSans-W4-53" transform="translate(588.499924 0.5)"/>
     <use xlink:href="#HiraginoSans-W4-70" transform="translate(656.699905 0.5)"/>
     <use xlink:href="#HiraginoSans-W4-61" transform="translate(723.099899 0.5)"/>
     <use xlink:href="#HiraginoSans-W4-63" transform="translate(782.299896 0.5)"/>
     <use xlink:href="#HiraginoSans-W4-65" transform="translate(841.399887 0.5)"/>
     <use xlink:href="#HiraginoSans-W4-20" transform="translate(901.599884 0.5)"/>
     <use xlink:href="#DejaVuSans-3a9" transform="translate(934.899872 0.5)"/>
    </g>
   </g>
   <g id="text_10">
    <!-- IsProbabilityMeasure $P$ -->
    <g style="fill: #1a1a2e" transform="translate(346.986 239.149375) scale(0.09 -0.09)">
     <defs>
      <path id="HiraginoSans-W4-49" d="M 480 4934 
C 518 4698 531 4531 531 4186 
L 531 749 
C 531 410 518 243 480 0 
L 1190 0 
C 1152 224 1139 442 1139 749 
L 1139 4186 
C 1139 4486 1152 4704 1190 4934 
L 480 4934 
z
" transform="scale(0.015625)"/>
      <path id="HiraginoSans-W4-50" d="M 1178 0 
C 1139 230 1126 435 1126 755 
L 1126 1965 
L 2496 1965 
C 3533 1965 4128 2522 4128 3494 
C 4128 4416 3558 4934 2528 4934 
L 1210 4934 
C 909 4934 710 4941 480 4954 
C 518 4678 531 4480 531 4198 
L 531 749 
C 531 429 518 243 480 0 
L 1178 0 
z
M 1126 2490 
L 1126 4410 
L 2496 4410 
C 3162 4410 3507 4083 3507 3469 
C 3507 2842 3142 2490 2496 2490 
L 1126 2490 
z
" transform="scale(0.015625)"/>
      <path id="HiraginoSans-W4-6f" d="M 2054 -90 
C 3110 -90 3802 640 3802 1766 
C 3802 2893 3117 3610 2042 3610 
C 966 3610 282 2886 282 1760 
C 282 627 966 -90 2054 -90 
z
M 2054 3130 
C 2771 3130 3213 2605 3213 1754 
C 3213 909 2771 397 2042 397 
C 1318 397 870 922 870 1766 
C 870 2611 1325 3130 2054 3130 
z
" transform="scale(0.015625)"/>
      <path id="HiraginoSans-W4-69" d="M 442 4934 
L 442 4294 
L 1152 4294 
L 1152 4934 
L 442 4934 
z
M 454 3520 
C 486 3296 499 3085 499 2765 
L 499 755 
C 499 461 486 282 454 0 
L 1133 0 
C 1101 269 1088 448 1088 755 
L 1088 2758 
C 1088 3104 1101 3290 1133 3520 
L 454 3520 
z
" transform="scale(0.015625)"/>
      <path id="HiraginoSans-W4-74" d="M 851 4480 
C 877 4262 896 4006 896 3750 
L 896 3520 
L 646 3520 
C 378 3520 250 3526 70 3558 
L 70 2995 
C 275 3021 416 3034 640 3034 
L 896 3034 
L 896 787 
C 896 461 954 269 1094 134 
C 1235 6 1466 -64 1773 -64 
C 2042 -64 2246 -26 2515 83 
L 2374 602 
C 2176 486 2048 448 1875 448 
C 1741 448 1632 486 1568 544 
C 1504 608 1478 698 1478 883 
L 1478 3034 
L 1779 3034 
C 2074 3034 2221 3027 2426 2995 
L 2426 3558 
C 2214 3526 2074 3520 1773 3520 
L 1478 3520 
L 1478 3750 
C 1478 4026 1498 4275 1523 4480 
L 851 4480 
z
" transform="scale(0.015625)"/>
     </defs>
     <use xlink:href="#HiraginoSans-W4-49" transform="translate(0 0.59375)"/>
     <use xlink:href="#HiraginoSans-W4-73" transform="translate(26.099991 0.59375)"/>
     <use xlink:href="#HiraginoSans-W4-50" transform="translate(81.399979 0.59375)"/>
     <use xlink:href="#HiraginoSans-W4-72" transform="translate(148.999969 0.59375)"/>
     <use xlink:href="#HiraginoSans-W4-6f" transform="translate(193.699966 0.59375)"/>
     <use xlink:href="#HiraginoSans-W4-62" transform="translate(257.499954 0.59375)"/>
     <use xlink:href="#HiraginoSans-W4-61" transform="translate(323.799942 0.59375)"/>
     <use xlink:href="#HiraginoSans-W4-62" transform="translate(382.999939 0.59375)"/>
     <use xlink:href="#HiraginoSans-W4-69" transform="translate(449.299927 0.59375)"/>
     <use xlink:href="#HiraginoSans-W4-6c" transform="translate(474.099915 0.59375)"/>
     <use xlink:href="#HiraginoSans-W4-69" transform="translate(498.399902 0.59375)"/>
     <use xlink:href="#HiraginoSans-W4-74" transform="translate(523.19989 0.59375)"/>
     <use xlink:href="#HiraginoSans-W4-79" transform="translate(563.699875 0.59375)"/>
     <use xlink:href="#HiraginoSans-W4-4d" transform="translate(621.099869 0.59375)"/>
     <use xlink:href="#HiraginoSans-W4-65" transform="translate(716.79985 0.59375)"/>
     <use xlink:href="#HiraginoSans-W4-61" transform="translate(776.999847 0.59375)"/>
     <use xlink:href="#HiraginoSans-W4-73" transform="translate(836.199844 0.59375)"/>
     <use xlink:href="#HiraginoSans-W4-75" transform="translate(891.499832 0.59375)"/>
     <use xlink:href="#HiraginoSans-W4-72" transform="translate(954.899826 0.59375)"/>
     <use xlink:href="#HiraginoSans-W4-65" transform="translate(999.599823 0.59375)"/>
     <use xlink:href="#HiraginoSans-W4-20" transform="translate(1059.79982 0.59375)"/>
     <use xlink:href="#DejaVuSans-Oblique-50" transform="translate(1093.099808 0.59375)"/>
    </g>
   </g>
   <g id="patch_4">
    <path d="M 217.114495 117.784375 
Q 258.300545 117.784375 299.486594 117.784375 
" style="fill: none; stroke: #7f8c8d; stroke-width: 1.8; stroke-linecap: round"/>
    <path d="M 221.114495 119.784375 
L 217.114495 117.784375 
L 221.114495 115.784375 
" style="fill: none; stroke: #7f8c8d; stroke-width: 1.8; stroke-linecap: round"/>
    <path d="M 295.486594 115.784375 
L 299.486594 117.784375 
L 295.486594 119.784375 
" style="fill: none; stroke: #7f8c8d; stroke-width: 1.8; stroke-linecap: round"/>
   </g>
   <g id="patch_5">
    <path d="M 217.114495 157.384375 
Q 258.300545 157.384375 299.486594 157.384375 
" style="fill: none; stroke: #7f8c8d; stroke-width: 1.8; stroke-linecap: round"/>
    <path d="M 221.114495 159.384375 
L 217.114495 157.384375 
L 221.114495 155.384375 
" style="fill: none; stroke: #7f8c8d; stroke-width: 1.8; stroke-linecap: round"/>
    <path d="M 295.486594 155.384375 
L 299.486594 157.384375 
L 295.486594 159.384375 
" style="fill: none; stroke: #7f8c8d; stroke-width: 1.8; stroke-linecap: round"/>
   </g>
   <g id="patch_6">
    <path d="M 217.114495 196.984375 
Q 258.300545 196.984375 299.486594 196.984375 
" style="fill: none; stroke: #7f8c8d; stroke-width: 1.8; stroke-linecap: round"/>
    <path d="M 221.114495 198.984375 
L 217.114495 196.984375 
L 221.114495 194.984375 
" style="fill: none; stroke: #7f8c8d; stroke-width: 1.8; stroke-linecap: round"/>
    <path d="M 295.486594 194.984375 
L 299.486594 196.984375 
L 295.486594 198.984375 
" style="fill: none; stroke: #7f8c8d; stroke-width: 1.8; stroke-linecap: round"/>
   </g>
   <g id="patch_7">
    <path d="M 217.114495 236.584375 
Q 258.300545 236.584375 299.486594 236.584375 
" style="fill: none; stroke: #7f8c8d; stroke-width: 1.8; stroke-linecap: round"/>
    <path d="M 221.114495 238.584375 
L 217.114495 236.584375 
L 221.114495 234.584375 
" style="fill: none; stroke: #7f8c8d; stroke-width: 1.8; stroke-linecap: round"/>
    <path d="M 295.486594 234.584375 
L 299.486594 236.584375 
L 295.486594 238.584375 
" style="fill: none; stroke: #7f8c8d; stroke-width: 1.8; stroke-linecap: round"/>
   </g>
   <g id="text_11">
    <!-- 確率空間と Lean 型クラスの対応 -->
    <g style="fill: #1a1a2e" transform="translate(166.164375 16.704375) scale(0.12 -0.12)">
     <defs>
      <path id="HiraginoSans-W7-78ba" d="M 5338 4179 
L 5338 3590 
L 6125 3590 
C 6106 3731 6099 3840 6099 4045 
L 6099 4442 
C 6099 4685 6106 4813 6118 4928 
C 5978 4909 5811 4902 5587 4902 
L 4467 4902 
C 4538 5165 4563 5248 4608 5395 
L 3750 5491 
C 3718 5267 3693 5133 3635 4902 
L 2726 4902 
C 2534 4902 2464 4902 2381 4915 
L 2381 5242 
C 2176 5216 2003 5210 1728 5210 
L 966 5210 
C 704 5210 506 5222 326 5242 
L 326 4435 
C 512 4461 634 4467 870 4467 
L 973 4467 
C 864 3667 550 2918 109 2400 
C 237 2093 301 1843 358 1408 
C 518 1606 531 1619 659 1882 
C 646 1722 646 1606 646 1485 
L 646 237 
C 646 -19 634 -243 614 -442 
L 1350 -442 
L 1350 122 
L 1709 122 
L 1709 -141 
L 2406 -141 
C 2387 -32 2387 64 2387 339 
L 2387 2234 
C 2477 2086 2522 1978 2592 1792 
C 2643 1843 2733 1952 2810 2061 
C 2810 2029 2810 1907 2803 1702 
L 2803 166 
C 2803 -179 2790 -346 2765 -570 
L 3571 -570 
L 3571 -294 
L 5504 -294 
C 5728 -294 5907 -307 6125 -333 
L 6125 403 
C 5978 384 5818 378 5530 378 
L 4979 378 
L 4979 749 
L 5402 749 
C 5626 749 5741 742 5901 723 
L 5901 1370 
C 5766 1350 5670 1344 5395 1344 
L 4979 1344 
L 4979 1715 
L 5402 1715 
C 5613 1715 5760 1709 5901 1690 
L 5901 2336 
C 5766 2317 5677 2310 5395 2310 
L 4979 2310 
L 4979 2675 
L 5517 2675 
C 5696 2675 5843 2669 6003 2650 
L 6003 3366 
C 5850 3347 5773 3341 5504 3341 
L 5088 3341 
C 5178 3507 5235 3629 5318 3853 
L 4563 4013 
C 4499 3757 4410 3526 4307 3341 
L 3808 3341 
C 4000 3667 4083 3846 4218 4179 
L 5338 4179 
z
M 3430 4179 
C 3309 3885 3251 3763 3142 3571 
C 2918 3194 2656 2880 2387 2637 
L 2387 2733 
C 2387 2912 2394 3046 2406 3181 
C 2285 3168 2182 3162 2022 3162 
L 1402 3162 
C 1587 3648 1664 3923 1754 4467 
L 2042 4467 
C 2150 4467 2214 4461 2323 4448 
L 2323 3981 
C 2323 3834 2317 3693 2298 3552 
L 3040 3552 
L 3040 4179 
L 3430 4179 
z
M 3571 2310 
L 3571 2675 
L 4230 2675 
L 4230 2310 
L 3571 2310 
z
M 3571 1715 
L 4230 1715 
L 4230 1344 
L 3571 1344 
L 3571 1715 
z
M 3571 749 
L 4230 749 
L 4230 378 
L 3571 378 
L 3571 749 
z
M 1344 2426 
L 1715 2426 
L 1715 870 
L 1344 870 
L 1344 2426 
z
" transform="scale(0.015625)"/>
      <path id="HiraginoSans-W7-7387" d="M 1741 3603 
C 1434 3885 1274 4019 998 4224 
L 416 3699 
C 838 3398 1056 3200 1395 2803 
L 1952 3354 
C 2214 3149 2426 2970 2611 2778 
C 2445 2624 2381 2566 2170 2394 
C 2048 2394 2048 2394 1990 2394 
L 1779 2938 
C 1210 2605 736 2413 288 2323 
L 557 1517 
C 1197 1786 1350 1856 1728 2067 
L 1792 1683 
C 1869 1690 1869 1690 2752 1754 
L 2752 1357 
L 960 1357 
C 666 1357 422 1370 256 1395 
L 256 570 
C 544 595 762 608 1050 608 
L 2752 608 
L 2752 64 
C 2752 -192 2739 -378 2707 -589 
L 3635 -589 
C 3603 -384 3590 -205 3590 64 
L 3590 608 
L 5395 608 
C 5702 608 5946 595 6189 570 
L 6189 1395 
C 6010 1370 5805 1357 5517 1357 
L 3590 1357 
L 3590 1805 
C 3930 1830 3930 1830 4122 1850 
C 4160 1747 4173 1709 4218 1594 
L 4877 1837 
C 4672 2214 4672 2214 4582 2368 
C 5024 2074 5280 1856 5626 1491 
L 6163 2131 
C 5658 2534 5555 2605 4992 2938 
C 5082 3008 5158 3066 5203 3098 
C 5306 3174 5370 3226 5395 3245 
C 5581 3386 5690 3488 5926 3712 
L 5318 4224 
C 4973 3859 4717 3654 4243 3341 
L 4768 2765 
L 4525 2483 
C 4416 2656 4346 2758 4141 3046 
L 3597 2816 
C 3706 2637 3744 2579 3808 2470 
C 3520 2445 3277 2426 3091 2419 
C 3251 2547 3302 2592 3526 2803 
L 3629 2899 
C 3930 3174 4090 3334 4378 3667 
L 3770 4064 
C 3501 3706 3386 3558 3117 3277 
C 3040 3354 2982 3411 2899 3488 
C 3123 3738 3270 3936 3450 4237 
L 5453 4237 
C 5741 4237 5933 4230 6138 4211 
L 6138 5011 
C 5907 4986 5690 4973 5325 4973 
L 3603 4973 
L 3603 5043 
C 3603 5184 3616 5293 3642 5421 
L 2720 5421 
C 2746 5299 2758 5178 2758 5043 
L 2758 4973 
L 1139 4973 
C 787 4973 576 4986 339 5011 
L 339 4211 
C 544 4230 736 4237 1011 4237 
L 2624 4237 
C 2554 4109 2490 4013 2400 3904 
C 2317 3962 2285 3987 2176 4064 
L 1741 3603 
z
" transform="scale(0.015625)"/>
      <path id="HiraginoSans-W7-7a7a" d="M 2726 4851 
L 1094 4851 
C 768 4851 582 4858 358 4877 
C 378 4723 384 4608 384 4390 
L 384 3795 
C 384 3603 371 3450 352 3277 
L 1197 3277 
L 1197 4109 
L 2080 4109 
C 2029 3648 1914 3437 1581 3206 
C 1274 2989 954 2880 333 2765 
C 538 2534 685 2310 813 2048 
C 1178 2150 1344 2208 1536 2291 
C 1901 2451 2202 2643 2400 2854 
C 2688 3168 2848 3578 2880 4109 
L 3392 4109 
L 3392 2918 
C 3392 2445 3558 2355 4461 2355 
C 5702 2355 5850 2445 5901 3264 
C 5555 3309 5357 3366 5114 3488 
C 5114 3206 5094 3142 5018 3110 
C 4973 3091 4755 3072 4608 3072 
C 4608 3072 4602 3072 4589 3072 
C 4525 3078 4461 3078 4390 3078 
C 4224 3085 4186 3117 4186 3232 
L 4186 4109 
L 5203 4109 
L 5203 3514 
L 6042 3514 
C 6016 3674 6010 3814 6010 4006 
L 6010 4390 
C 6010 4608 6016 4736 6035 4877 
C 5818 4858 5619 4851 5299 4851 
L 3584 4851 
L 3584 5030 
C 3584 5190 3597 5306 3616 5421 
L 2694 5421 
C 2720 5293 2726 5190 2726 5024 
L 2726 4851 
z
M 2739 1222 
L 2739 422 
L 1133 422 
C 819 422 454 442 294 461 
L 294 -378 
C 499 -352 774 -339 1133 -339 
L 5274 -339 
C 5626 -339 5901 -352 6106 -378 
L 6106 461 
C 5926 435 5651 422 5274 422 
L 3584 422 
L 3584 1222 
L 4813 1222 
C 5158 1222 5408 1210 5606 1184 
L 5606 2022 
C 5408 1990 5120 1978 4806 1978 
L 1491 1978 
C 1178 1978 1005 1990 794 2016 
L 794 1184 
C 986 1210 1222 1222 1574 1222 
L 2739 1222 
z
" transform="scale(0.015625)"/>
      <path id="HiraginoSans-W7-9593" d="M 4525 2125 
C 4525 2368 4531 2528 4544 2682 
C 4346 2669 4230 2662 3968 2662 
L 2419 2662 
C 2163 2662 2035 2669 1843 2682 
C 1856 2522 1862 2349 1862 2125 
L 1862 493 
C 1862 243 1856 13 1837 -173 
L 2605 -173 
L 2605 147 
L 3955 147 
C 4070 147 4128 147 4250 141 
C 4314 -45 4346 -192 4384 -467 
C 4730 -480 4749 -480 4845 -480 
C 5242 -480 5478 -454 5619 -390 
C 5850 -288 5933 -96 5933 333 
L 5933 4512 
C 5933 4832 5939 4998 5958 5229 
C 5766 5210 5626 5203 5306 5203 
L 4000 5203 
C 3667 5203 3533 5210 3341 5229 
C 3354 5024 3360 4864 3360 4640 
L 3360 3565 
C 3360 3251 3360 3187 3347 2995 
C 3494 3002 3706 3008 3904 3008 
L 5133 3008 
L 5133 454 
C 5133 320 5088 294 4864 294 
C 4781 294 4698 301 4531 314 
C 4525 442 4525 538 4525 678 
L 4525 2125 
z
M 4122 4614 
L 5133 4614 
L 5133 4352 
L 4122 4352 
L 4122 4614 
z
M 4122 3834 
L 5133 3834 
L 5133 3571 
L 4122 3571 
L 4122 3834 
z
M 2605 2029 
L 3789 2029 
L 3789 1702 
L 2605 1702 
L 2605 2029 
z
M 2605 1101 
L 3789 1101 
L 3789 781 
L 2605 781 
L 2605 1101 
z
M 1280 3008 
L 2419 3008 
C 2618 3008 2829 3002 2976 2995 
C 2963 3142 2963 3251 2963 3565 
L 2963 4640 
C 2963 4896 2970 5043 2982 5229 
C 2816 5210 2669 5203 2330 5203 
L 1101 5203 
C 787 5203 640 5210 448 5229 
C 467 5024 474 4851 474 4506 
L 474 294 
C 474 -122 461 -333 435 -531 
L 1318 -531 
C 1293 -352 1280 -109 1280 288 
L 1280 3008 
z
M 1280 4614 
L 2214 4614 
L 2214 4352 
L 1280 4352 
L 1280 4614 
z
M 1280 3834 
L 2214 3834 
L 2214 3571 
L 1280 3571 
L 1280 3834 
z
" transform="scale(0.015625)"/>
      <path id="HiraginoSans-W7-3068" d="M 1850 5114 
C 1882 5024 1888 5005 1952 4698 
C 2106 3923 2208 3507 2362 2982 
C 1946 2778 1734 2643 1478 2426 
C 1107 2106 909 1683 909 1222 
C 909 909 1011 595 1190 371 
C 1530 -58 2240 -269 3347 -269 
C 3802 -269 4256 -237 4954 -166 
C 5318 -128 5350 -122 5491 -115 
L 5414 928 
C 4915 755 4058 646 3270 646 
C 2323 646 1901 832 1901 1254 
C 1901 1664 2349 2035 3226 2362 
C 3962 2630 4774 2854 5427 2963 
L 5107 3936 
C 5011 3891 4979 3878 4851 3840 
C 3853 3526 3584 3443 3232 3315 
C 3034 3987 2867 4838 2842 5267 
L 1850 5114 
z
" transform="scale(0.015625)"/>
      <path id="HiraginoSans-W7-5bfe" d="M 1434 4480 
L 909 4480 
C 653 4480 454 4493 256 4518 
L 256 3699 
C 454 3725 627 3731 864 3731 
L 1971 3731 
C 1946 3296 1875 2880 1760 2515 
C 1498 2810 1498 2810 909 3405 
L 365 2829 
C 710 2509 1056 2138 1421 1696 
C 1126 1114 774 691 179 224 
C 435 -13 557 -179 742 -506 
C 1325 70 1606 416 1965 1005 
C 2298 563 2381 442 2669 -26 
L 3251 666 
C 2886 1171 2688 1421 2362 1818 
C 2592 2419 2733 3059 2784 3731 
C 3002 3731 3104 3725 3238 3712 
L 3238 4512 
C 3034 4486 2893 4480 2611 4480 
L 2240 4480 
L 2240 4806 
C 2240 5056 2246 5229 2272 5389 
L 1395 5389 
C 1421 5203 1434 5069 1434 4806 
L 1434 4480 
z
M 4742 3398 
L 4742 435 
C 4742 307 4691 288 4384 288 
C 4205 288 3846 320 3590 358 
C 3712 83 3770 -115 3827 -474 
C 4006 -480 4090 -480 4198 -480 
C 4314 -480 4448 -474 4672 -467 
C 5030 -448 5171 -429 5280 -365 
C 5498 -237 5568 -77 5568 352 
L 5568 3398 
L 5613 3398 
C 5786 3398 5971 3392 6042 3379 
C 6131 3366 6131 3366 6189 3366 
L 6189 4211 
C 6029 4186 5869 4173 5606 4173 
L 5568 4173 
L 5568 4576 
C 5568 4934 5574 5158 5600 5363 
L 4698 5363 
C 4730 5165 4742 4966 4742 4576 
L 4742 4173 
L 3974 4173 
C 3693 4173 3533 4179 3366 4205 
L 3366 3366 
C 3546 3392 3680 3398 3968 3398 
L 4742 3398 
z
M 2995 2701 
C 3379 2195 3590 1811 3872 1114 
L 4570 1562 
C 4275 2182 4115 2445 3686 3066 
L 2995 2701 
z
" transform="scale(0.015625)"/>
      <path id="HiraginoSans-W7-5fdc" d="M 3232 4051 
L 2733 3616 
C 3437 3251 3866 2944 4339 2470 
L 4922 3091 
C 4371 3520 4096 3706 3475 4051 
L 5338 4051 
C 5677 4051 5888 4045 6118 4019 
L 6118 4864 
C 5920 4838 5690 4826 5338 4826 
L 3757 4826 
L 3757 5069 
C 3757 5235 3763 5325 3782 5421 
L 2874 5421 
C 2893 5312 2906 5216 2906 5082 
L 2906 4826 
L 1306 4826 
C 1011 4826 845 4832 621 4851 
C 640 4627 646 4371 646 3955 
C 646 2989 589 1862 512 1402 
C 435 922 326 576 115 147 
C 390 -64 550 -218 794 -525 
C 1043 13 1178 435 1280 1030 
C 1414 1754 1459 2470 1459 4051 
L 3232 4051 
z
M 2086 -141 
C 2387 691 2496 1248 2579 2483 
L 1811 2675 
C 1786 2138 1760 1888 1696 1472 
C 1613 973 1549 762 1350 301 
L 2086 -141 
z
M 2797 3002 
C 2822 2848 2835 2682 2835 2394 
L 2835 13 
C 2835 -211 2912 -339 3091 -410 
C 3226 -467 3507 -493 3942 -493 
C 4512 -493 4768 -416 4909 -211 
C 5043 -19 5094 301 5146 1171 
C 4890 1216 4691 1286 4384 1427 
C 4384 909 4365 576 4333 467 
C 4294 346 4218 314 3949 314 
C 3686 314 3642 339 3642 486 
L 3642 2387 
C 3642 2662 3648 2854 3674 3002 
L 2797 3002 
z
M 6240 346 
C 6022 1242 5843 1773 5421 2714 
L 4704 2368 
C 5107 1517 5274 979 5440 -38 
L 6240 346 
z
" transform="scale(0.015625)"/>
     </defs>
     <use xlink:href="#HiraginoSans-W7-78ba"/>
     <use xlink:href="#HiraginoSans-W7-7387" transform="translate(99.999985 0)"/>
     <use xlink:href="#HiraginoSans-W7-7a7a" transform="translate(199.999969 0)"/>
     <use xlink:href="#HiraginoSans-W7-9593" transform="translate(299.999954 0)"/>
     <use xlink:href="#HiraginoSans-W7-3068" transform="translate(399.999939 0)"/>
     <use xlink:href="#HiraginoSans-W7-20" transform="translate(499.999924 0)"/>
     <use xlink:href="#HiraginoSans-W7-4c" transform="translate(533.299911 0)"/>
     <use xlink:href="#HiraginoSans-W7-65" transform="translate(599.599899 0)"/>
     <use xlink:href="#HiraginoSans-W7-61" transform="translate(665.69989 0)"/>
     <use xlink:href="#HiraginoSans-W7-6e" transform="translate(732.099884 0)"/>
     <use xlink:href="#HiraginoSans-W7-20" transform="translate(802.299866 0)"/>
     <use xlink:href="#HiraginoSans-W7-578b" transform="translate(835.599854 0)"/>
     <use xlink:href="#HiraginoSans-W7-30af" transform="translate(935.599838 0)"/>
     <use xlink:href="#HiraginoSans-W7-30e9" transform="translate(1035.599823 0)"/>
     <use xlink:href="#HiraginoSans-W7-30b9" transform="translate(1135.599808 0)"/>
     <use xlink:href="#HiraginoSans-W7-306e" transform="translate(1235.599792 0)"/>
     <use xlink:href="#HiraginoSans-W7-5bfe" transform="translate(1335.599777 0)"/>
     <use xlink:href="#HiraginoSans-W7-5fdc" transform="translate(1435.599762 0)"/>
    </g>
   </g>
  </g>
 </g>
 <defs>
  <clipPath id="p924a21e67a">
   <rect x="7.2" y="26.704375" width="502.2" height="277.2"/>
  </clipPath>
 </defs>
</svg>
