<?xml version="1.0" encoding="utf-8" standalone="no"?>
<!DOCTYPE svg PUBLIC "-//W3C//DTD SVG 1.1//EN"
  "http://www.w3.org/Graphics/SVG/1.1/DTD/svg11.dtd">
<svg xmlns:xlink="http://www.w3.org/1999/xlink" width="405pt" height="338.824375pt" viewBox="0 0 405 338.824375" xmlns="http://www.w3.org/2000/svg" version="1.1">
 <metadata>
  <rdf:RDF xmlns:dc="http://purl.org/dc/elements/1.1/" xmlns:cc="http://creativecommons.org/ns#" xmlns:rdf="http://www.w3.org/1999/02/22-rdf-syntax-ns#">
   <cc:Work>
    <dc:type rdf:resource="http://purl.org/dc/dcmitype/StillImage"/>
    <dc:date>2026-03-29T00:53:43.130050</dc:date>
    <dc:format>image/svg+xml</dc:format>
    <dc:creator>
     <cc:Agent>
      <dc:title>Matplotlib v3.10.8, https://matplotlib.org/</dc:title>
     </cc:Agent>
    </dc:creator>
   </cc:Work>
  </rdf:RDF>
 </metadata>
 <defs>
  <style type="text/css">*{stroke-linejoin: round; stroke-linecap: butt}</style>
 </defs>
 <g id="figure_1">
  <g id="patch_1">
   <path d="M 0 338.824375 
L 405 338.824375 
L 405 0 
L 0 0 
z
" style="fill: #ffffff"/>
  </g>
  <g id="axes_1">
   <g id="patch_2">
    <path d="M 104.85 255.394375 
C 126.603549 255.394375 147.469058 245.067423 162.851141 226.687911 
C 178.233223 208.308398 186.876 183.376931 186.876 157.384375 
C 186.876 131.391819 178.233223 106.460352 162.851141 88.080839 
C 147.469058 69.701327 126.603549 59.374375 104.85 59.374375 
C 83.096451 59.374375 62.230942 69.701327 46.848859 88.080839 
C 31.466777 106.460352 22.824 131.391819 22.824 157.384375 
C 22.824 183.376931 31.466777 208.308398 46.848859 226.687911 
C 62.230942 245.067423 83.096451 255.394375 104.85 255.394375 
z
" clip-path="url(#p48b2c22f5e)" style="fill: #eaf4fb; stroke: #2980b9; stroke-width: 2; stroke-linejoin: miter"/>
   </g>
   <g id="patch_3">
    <path d="M 300.15 255.394375 
C 321.903549 255.394375 342.769058 245.067423 358.151141 226.687911 
C 373.533223 208.308398 382.176 183.376931 382.176 157.384375 
C 382.176 131.391819 373.533223 106.460352 358.151141 88.080839 
C 342.769058 69.701327 321.903549 59.374375 300.15 59.374375 
C 278.396451 59.374375 257.530942 69.701327 242.148859 88.080839 
C 226.766777 106.460352 218.124 131.391819 218.124 157.384375 
C 218.124 183.376931 226.766777 208.308398 242.148859 226.687911 
C 257.530942 245.067423 278.396451 255.394375 300.15 255.394375 
z
" clip-path="url(#p48b2c22f5e)" style="fill: #eafaf1; stroke: #27ae60; stroke-width: 2; stroke-linejoin: miter"/>
   </g>
   <g id="patch_4">
    <path d="M 300.15 222.724375 
C 311.544716 222.724375 322.474269 217.675643 330.53155 208.690104 
C 338.588831 199.704564 343.116 187.515847 343.116 174.808375 
C 343.116 162.100903 338.588831 149.912186 330.53155 140.926646 
C 322.474269 131.941107 311.544716 126.892375 300.15 126.892375 
C 288.755284 126.892375 277.825731 131.941107 269.76845 140.926646 
C 261.711169 149.912186 257.184 162.100903 257.184 174.808375 
C 257.184 187.515847 261.711169 199.704564 269.76845 208.690104 
C 277.825731 217.675643 288.755284 222.724375 300.15 222.724375 
z
" clip-path="url(#p48b2c22f5e)" style="fill: #a9dfbf; opacity: 0.85; stroke: #1e8449; stroke-width: 1.5; stroke-linejoin: miter"/>
   </g>
   <g id="patch_5">
    <path d="M 104.85 222.724375 
C 116.244716 222.724375 127.174269 217.675643 135.23155 208.690104 
C 143.288831 199.704564 147.816 187.515847 147.816 174.808375 
C 147.816 162.100903 143.288831 149.912186 135.23155 140.926646 
C 127.174269 131.941107 116.244716 126.892375 104.85 126.892375 
C 93.455284 126.892375 82.525731 131.941107 74.46845 140.926646 
C 66.411169 149.912186 61.884 162.100903 61.884 174.808375 
C 61.884 187.515847 66.411169 199.704564 74.46845 208.690104 
C 82.525731 217.675643 93.455284 222.724375 104.85 222.724375 
z
" clip-path="url(#p48b2c22f5e)" style="fill: #a9dfbf; opacity: 0.85; stroke: #1e8449; stroke-width: 1.5; stroke-linejoin: miter"/>
   </g>
   <g id="patch_6">
    <path d="M 26.73 327.268375 
L 378.27 327.268375 
Q 382.176 327.268375 382.176 322.912375 
L 382.176 283.708375 
Q 382.176 279.352375 378.27 279.352375 
L 26.73 279.352375 
Q 22.824 279.352375 22.824 283.708375 
L 22.824 322.912375 
Q 22.824 327.268375 26.73 327.268375 
z
" clip-path="url(#p48b2c22f5e)" style="fill: #2c3e50"/>
   </g>
   <g id="text_1">
    <!-- 確率空間 $(\Omega, \mathcal{F}, P)$ -->
    <g style="fill: #2980b9" transform="translate(64.05 74.620375) scale(0.1 -0.1)">
     <defs>
      <path id="HiraginoSans-W7-78ba" d="M 5338 4179 
L 5338 3590 
L 6125 3590 
C 6106 3731 6099 3840 6099 4045 
L 6099 4442 
C 6099 4685 6106 4813 6118 4928 
C 5978 4909 5811 4902 5587 4902 
L 4467 4902 
C 4538 5165 4563 5248 4608 5395 
L 3750 5491 
C 3718 5267 3693 5133 3635 4902 
L 2726 4902 
C 2534 4902 2464 4902 2381 4915 
L 2381 5242 
C 2176 5216 2003 5210 1728 5210 
L 966 5210 
C 704 5210 506 5222 326 5242 
L 326 4435 
C 512 4461 634 4467 870 4467 
L 973 4467 
C 864 3667 550 2918 109 2400 
C 237 2093 301 1843 358 1408 
C 518 1606 531 1619 659 1882 
C 646 1722 646 1606 646 1485 
L 646 237 
C 646 -19 634 -243 614 -442 
L 1350 -442 
L 1350 122 
L 1709 122 
L 1709 -141 
L 2406 -141 
C 2387 -32 2387 64 2387 339 
L 2387 2234 
C 2477 2086 2522 1978 2592 1792 
C 2643 1843 2733 1952 2810 2061 
C 2810 2029 2810 1907 2803 1702 
L 2803 166 
C 2803 -179 2790 -346 2765 -570 
L 3571 -570 
L 3571 -294 
L 5504 -294 
C 5728 -294 5907 -307 6125 -333 
L 6125 403 
C 5978 384 5818 378 5530 378 
L 4979 378 
L 4979 749 
L 5402 749 
C 5626 749 5741 742 5901 723 
L 5901 1370 
C 5766 1350 5670 1344 5395 1344 
L 4979 1344 
L 4979 1715 
L 5402 1715 
C 5613 1715 5760 1709 5901 1690 
L 5901 2336 
C 5766 2317 5677 2310 5395 2310 
L 4979 2310 
L 4979 2675 
L 5517 2675 
C 5696 2675 5843 2669 6003 2650 
L 6003 3366 
C 5850 3347 5773 3341 5504 3341 
L 5088 3341 
C 5178 3507 5235 3629 5318 3853 
L 4563 4013 
C 4499 3757 4410 3526 4307 3341 
L 3808 3341 
C 4000 3667 4083 3846 4218 4179 
L 5338 4179 
z
M 3430 4179 
C 3309 3885 3251 3763 3142 3571 
C 2918 3194 2656 2880 2387 2637 
L 2387 2733 
C 2387 2912 2394 3046 2406 3181 
C 2285 3168 2182 3162 2022 3162 
L 1402 3162 
C 1587 3648 1664 3923 1754 4467 
L 2042 4467 
C 2150 4467 2214 4461 2323 4448 
L 2323 3981 
C 2323 3834 2317 3693 2298 3552 
L 3040 3552 
L 3040 4179 
L 3430 4179 
z
M 3571 2310 
L 3571 2675 
L 4230 2675 
L 4230 2310 
L 3571 2310 
z
M 3571 1715 
L 4230 1715 
L 4230 1344 
L 3571 1344 
L 3571 1715 
z
M 3571 749 
L 4230 749 
L 4230 378 
L 3571 378 
L 3571 749 
z
M 1344 2426 
L 1715 2426 
L 1715 870 
L 1344 870 
L 1344 2426 
z
" transform="scale(0.015625)"/>
      <path id="HiraginoSans-W7-7387" d="M 1741 3603 
C 1434 3885 1274 4019 998 4224 
L 416 3699 
C 838 3398 1056 3200 1395 2803 
L 1952 3354 
C 2214 3149 2426 2970 2611 2778 
C 2445 2624 2381 2566 2170 2394 
C 2048 2394 2048 2394 1990 2394 
L 1779 2938 
C 1210 2605 736 2413 288 2323 
L 557 1517 
C 1197 1786 1350 1856 1728 2067 
L 1792 1683 
C 1869 1690 1869 1690 2752 1754 
L 2752 1357 
L 960 1357 
C 666 1357 422 1370 256 1395 
L 256 570 
C 544 595 762 608 1050 608 
L 2752 608 
L 2752 64 
C 2752 -192 2739 -378 2707 -589 
L 3635 -589 
C 3603 -384 3590 -205 3590 64 
L 3590 608 
L 5395 608 
C 5702 608 5946 595 6189 570 
L 6189 1395 
C 6010 1370 5805 1357 5517 1357 
L 3590 1357 
L 3590 1805 
C 3930 1830 3930 1830 4122 1850 
C 4160 1747 4173 1709 4218 1594 
L 4877 1837 
C 4672 2214 4672 2214 4582 2368 
C 5024 2074 5280 1856 5626 1491 
L 6163 2131 
C 5658 2534 5555 2605 4992 2938 
C 5082 3008 5158 3066 5203 3098 
C 5306 3174 5370 3226 5395 3245 
C 5581 3386 5690 3488 5926 3712 
L 5318 4224 
C 4973 3859 4717 3654 4243 3341 
L 4768 2765 
L 4525 2483 
C 4416 2656 4346 2758 4141 3046 
L 3597 2816 
C 3706 2637 3744 2579 3808 2470 
C 3520 2445 3277 2426 3091 2419 
C 3251 2547 3302 2592 3526 2803 
L 3629 2899 
C 3930 3174 4090 3334 4378 3667 
L 3770 4064 
C 3501 3706 3386 3558 3117 3277 
C 3040 3354 2982 3411 2899 3488 
C 3123 3738 3270 3936 3450 4237 
L 5453 4237 
C 5741 4237 5933 4230 6138 4211 
L 6138 5011 
C 5907 4986 5690 4973 5325 4973 
L 3603 4973 
L 3603 5043 
C 3603 5184 3616 5293 3642 5421 
L 2720 5421 
C 2746 5299 2758 5178 2758 5043 
L 2758 4973 
L 1139 4973 
C 787 4973 576 4986 339 5011 
L 339 4211 
C 544 4230 736 4237 1011 4237 
L 2624 4237 
C 2554 4109 2490 4013 2400 3904 
C 2317 3962 2285 3987 2176 4064 
L 1741 3603 
z
" transform="scale(0.015625)"/>
      <path id="HiraginoSans-W7-7a7a" d="M 2726 4851 
L 1094 4851 
C 768 4851 582 4858 358 4877 
C 378 4723 384 4608 384 4390 
L 384 3795 
C 384 3603 371 3450 352 3277 
L 1197 3277 
L 1197 4109 
L 2080 4109 
C 2029 3648 1914 3437 1581 3206 
C 1274 2989 954 2880 333 2765 
C 538 2534 685 2310 813 2048 
C 1178 2150 1344 2208 1536 2291 
C 1901 2451 2202 2643 2400 2854 
C 2688 3168 2848 3578 2880 4109 
L 3392 4109 
L 3392 2918 
C 3392 2445 3558 2355 4461 2355 
C 5702 2355 5850 2445 5901 3264 
C 5555 3309 5357 3366 5114 3488 
C 5114 3206 5094 3142 5018 3110 
C 4973 3091 4755 3072 4608 3072 
C 4608 3072 4602 3072 4589 3072 
C 4525 3078 4461 3078 4390 3078 
C 4224 3085 4186 3117 4186 3232 
L 4186 4109 
L 5203 4109 
L 5203 3514 
L 6042 3514 
C 6016 3674 6010 3814 6010 4006 
L 6010 4390 
C 6010 4608 6016 4736 6035 4877 
C 5818 4858 5619 4851 5299 4851 
L 3584 4851 
L 3584 5030 
C 3584 5190 3597 5306 3616 5421 
L 2694 5421 
C 2720 5293 2726 5190 2726 5024 
L 2726 4851 
z
M 2739 1222 
L 2739 422 
L 1133 422 
C 819 422 454 442 294 461 
L 294 -378 
C 499 -352 774 -339 1133 -339 
L 5274 -339 
C 5626 -339 5901 -352 6106 -378 
L 6106 461 
C 5926 435 5651 422 5274 422 
L 3584 422 
L 3584 1222 
L 4813 1222 
C 5158 1222 5408 1210 5606 1184 
L 5606 2022 
C 5408 1990 5120 1978 4806 1978 
L 1491 1978 
C 1178 1978 1005 1990 794 2016 
L 794 1184 
C 986 1210 1222 1222 1574 1222 
L 2739 1222 
z
" transform="scale(0.015625)"/>
      <path id="HiraginoSans-W7-9593" d="M 4525 2125 
C 4525 2368 4531 2528 4544 2682 
C 4346 2669 4230 2662 3968 2662 
L 2419 2662 
C 2163 2662 2035 2669 1843 2682 
C 1856 2522 1862 2349 1862 2125 
L 1862 493 
C 1862 243 1856 13 1837 -173 
L 2605 -173 
L 2605 147 
L 3955 147 
C 4070 147 4128 147 4250 141 
C 4314 -45 4346 -192 4384 -467 
C 4730 -480 4749 -480 4845 -480 
C 5242 -480 5478 -454 5619 -390 
C 5850 -288 5933 -96 5933 333 
L 5933 4512 
C 5933 4832 5939 4998 5958 5229 
C 5766 5210 5626 5203 5306 5203 
L 4000 5203 
C 3667 5203 3533 5210 3341 5229 
C 3354 5024 3360 4864 3360 4640 
L 3360 3565 
C 3360 3251 3360 3187 3347 2995 
C 3494 3002 3706 3008 3904 3008 
L 5133 3008 
L 5133 454 
C 5133 320 5088 294 4864 294 
C 4781 294 4698 301 4531 314 
C 4525 442 4525 538 4525 678 
L 4525 2125 
z
M 4122 4614 
L 5133 4614 
L 5133 4352 
L 4122 4352 
L 4122 4614 
z
M 4122 3834 
L 5133 3834 
L 5133 3571 
L 4122 3571 
L 4122 3834 
z
M 2605 2029 
L 3789 2029 
L 3789 1702 
L 2605 1702 
L 2605 2029 
z
M 2605 1101 
L 3789 1101 
L 3789 781 
L 2605 781 
L 2605 1101 
z
M 1280 3008 
L 2419 3008 
C 2618 3008 2829 3002 2976 2995 
C 2963 3142 2963 3251 2963 3565 
L 2963 4640 
C 2963 4896 2970 5043 2982 5229 
C 2816 5210 2669 5203 2330 5203 
L 1101 5203 
C 787 5203 640 5210 448 5229 
C 467 5024 474 4851 474 4506 
L 474 294 
C 474 -122 461 -333 435 -531 
L 1318 -531 
C 1293 -352 1280 -109 1280 288 
L 1280 3008 
z
M 1280 4614 
L 2214 4614 
L 2214 4352 
L 1280 4352 
L 1280 4614 
z
M 1280 3834 
L 2214 3834 
L 2214 3571 
L 1280 3571 
L 1280 3834 
z
" transform="scale(0.015625)"/>
      <path id="HiraginoSans-W7-20" transform="scale(0.015625)"/>
      <path id="DejaVuSans-28" d="M 1984 4856 
Q 1566 4138 1362 3434 
Q 1159 2731 1159 2009 
Q 1159 1288 1364 580 
Q 1569 -128 1984 -844 
L 1484 -844 
Q 1016 -109 783 600 
Q 550 1309 550 2009 
Q 550 2706 781 3412 
Q 1013 4119 1484 4856 
L 1984 4856 
z
" transform="scale(0.015625)"/>
      <path id="DejaVuSans-3a9" d="M 4647 556 
L 4647 0 
L 2772 0 
L 2772 556 
Q 3325 859 3634 1378 
Q 3944 1897 3944 2528 
Q 3944 3278 3531 3731 
Q 3119 4184 2444 4184 
Q 1769 4184 1355 3729 
Q 941 3275 941 2528 
Q 941 1897 1250 1378 
Q 1563 859 2119 556 
L 2119 0 
L 244 0 
L 244 556 
L 1241 556 
Q 747 991 519 1456 
Q 294 1922 294 2497 
Q 294 3491 894 4106 
Q 1491 4722 2444 4722 
Q 3391 4722 3994 4106 
Q 4594 3494 4594 2528 
Q 4594 1922 4372 1459 
Q 4150 997 3647 556 
L 4647 556 
z
" transform="scale(0.015625)"/>
      <path id="DejaVuSans-2c" d="M 750 794 
L 1409 794 
L 1409 256 
L 897 -744 
L 494 -744 
L 750 256 
L 750 794 
z
" transform="scale(0.015625)"/>
      <path id="STIXNonUnicode-Italic-e232" d="M 378 3418 
L 275 3533 
Q 730 3955 1174 4096 
Q 1619 4237 2163 4237 
Q 2714 4237 3110 4208 
Q 3507 4179 3849 4099 
Q 4192 4019 4368 3868 
Q 4544 3718 4544 3488 
Q 4544 3270 4429 3123 
Q 4314 2976 4109 2976 
Q 3962 2976 3853 3062 
Q 3744 3149 3744 3277 
Q 3744 3398 3792 3465 
Q 3840 3533 3897 3549 
Q 3955 3565 4000 3593 
Q 4045 3622 4045 3680 
Q 4045 3808 3696 3894 
Q 3347 3981 2893 3981 
Q 2694 3981 2608 3920 
Q 2522 3859 2464 3667 
L 2099 2413 
L 3494 2413 
L 3411 2157 
L 2029 2157 
L 1747 1203 
Q 1626 787 1491 537 
Q 1357 288 1174 173 
Q 992 58 829 29 
Q 666 0 384 0 
L 435 154 
Q 608 154 726 288 
Q 845 422 934 742 
L 1690 3334 
Q 1754 3558 1754 3667 
Q 1754 3776 1690 3827 
Q 1626 3878 1459 3878 
Q 858 3878 378 3418 
z
" transform="scale(0.015625)"/>
      <path id="DejaVuSans-Oblique-50" d="M 1081 4666 
L 2541 4666 
Q 3178 4666 3512 4369 
Q 3847 4072 3847 3500 
Q 3847 2731 3353 2303 
Q 2859 1875 1966 1875 
L 1172 1875 
L 806 0 
L 172 0 
L 1081 4666 
z
M 1613 4147 
L 1275 2394 
L 2069 2394 
Q 2606 2394 2893 2669 
Q 3181 2944 3181 3456 
Q 3181 3784 2986 3965 
Q 2791 4147 2438 4147 
L 1613 4147 
z
" transform="scale(0.015625)"/>
      <path id="DejaVuSans-29" d="M 513 4856 
L 1013 4856 
Q 1481 4119 1714 3412 
Q 1947 2706 1947 2009 
Q 1947 1309 1714 600 
Q 1481 -109 1013 -844 
L 513 -844 
Q 928 -128 1133 580 
Q 1338 1288 1338 2009 
Q 1338 2731 1133 3434 
Q 928 4138 513 4856 
z
" transform="scale(0.015625)"/>
     </defs>
     <use xlink:href="#HiraginoSans-W7-78ba" transform="translate(0 0.203125)"/>
     <use xlink:href="#HiraginoSans-W7-7387" transform="translate(99.999985 0.203125)"/>
     <use xlink:href="#HiraginoSans-W7-7a7a" transform="translate(199.999969 0.203125)"/>
     <use xlink:href="#HiraginoSans-W7-9593" transform="translate(299.999954 0.203125)"/>
     <use xlink:href="#HiraginoSans-W7-20" transform="translate(399.999939 0.203125)"/>
     <use xlink:href="#DejaVuSans-28" transform="translate(433.299927 0.203125)"/>
     <use xlink:href="#DejaVuSans-3a9" transform="translate(472.313599 0.203125)"/>
     <use xlink:href="#DejaVuSans-2c" transform="translate(548.729614 0.203125)"/>
     <use xlink:href="#STIXNonUnicode-Italic-e232" transform="translate(599.999146 0.203125)"/>
     <use xlink:href="#DejaVuSans-2c" transform="translate(665.199142 0.203125)"/>
     <use xlink:href="#DejaVuSans-Oblique-50" transform="translate(716.468674 0.203125)"/>
     <use xlink:href="#DejaVuSans-29" transform="translate(776.771408 0.203125)"/>
    </g>
   </g>
   <g id="text_2">
    <!-- 実数空間 $(\mathbb{R}, \mathcal{B}(\mathbb{R}))$ -->
    <g style="fill: #27ae60" transform="translate(257.6 74.620375) scale(0.1 -0.1)">
     <defs>
      <path id="HiraginoSans-W7-5b9f" d="M 2746 3187 
C 2746 3027 2746 3027 2739 2874 
L 1581 2874 
C 1248 2874 1139 2880 992 2899 
L 992 2182 
C 1146 2202 1254 2208 1581 2208 
L 2694 2208 
C 2675 2042 2669 2022 2643 1894 
L 1018 1894 
C 678 1894 518 1901 339 1926 
L 339 1158 
C 582 1184 806 1197 1069 1197 
L 2374 1197 
C 2202 934 1946 723 1613 563 
C 1235 371 883 282 230 211 
C 454 -109 512 -237 621 -582 
C 1325 -454 1747 -307 2202 -32 
C 2611 218 2874 486 3123 896 
C 3430 486 3789 179 4256 -64 
C 4723 -301 5075 -422 5818 -582 
C 5920 -269 6029 -32 6202 237 
C 5318 378 4845 512 4435 730 
C 4166 870 4038 979 3846 1197 
L 5344 1197 
C 5632 1197 5824 1184 6080 1158 
L 6080 1926 
C 5894 1901 5734 1894 5382 1894 
L 3475 1894 
C 3501 2035 3507 2086 3520 2208 
L 4794 2208 
C 5114 2208 5216 2202 5376 2182 
L 5376 2899 
C 5229 2880 5126 2874 4794 2874 
L 3558 2874 
C 3558 2989 3558 2989 3565 3187 
L 4832 3187 
C 5139 3187 5254 3181 5427 3162 
L 5427 3424 
L 6029 3424 
C 6010 3578 6003 3731 6003 3910 
L 6003 4448 
C 6003 4621 6010 4762 6029 4934 
C 5805 4915 5632 4909 5293 4909 
L 3584 4909 
L 3584 5011 
C 3584 5178 3597 5293 3616 5414 
L 2694 5414 
C 2720 5280 2726 5171 2726 5005 
L 2726 4909 
L 1114 4909 
C 774 4909 595 4915 378 4934 
C 397 4755 403 4595 403 4435 
L 403 3910 
C 403 3699 397 3571 371 3424 
L 973 3424 
L 973 3162 
C 1107 3181 1261 3187 1574 3187 
L 2746 3187 
z
M 5210 4192 
L 5210 3866 
C 5075 3859 5011 3859 4832 3859 
L 3571 3859 
C 3571 4109 3571 4109 3578 4192 
L 5210 4192 
z
M 2752 4192 
C 2752 4109 2752 4109 2752 3859 
L 1574 3859 
C 1395 3859 1299 3859 1203 3866 
L 1203 4192 
L 2752 4192 
z
" transform="scale(0.015625)"/>
      <path id="HiraginoSans-W7-6570" d="M 6246 4403 
C 6099 4378 5952 4371 5638 4371 
L 4621 4371 
C 4678 4582 4691 4614 4723 4749 
C 4813 5114 4845 5235 4858 5280 
L 4026 5440 
C 4026 5344 3994 5094 3949 4883 
C 3757 3910 3456 3219 3002 2707 
C 3168 2554 3277 2432 3430 2208 
C 3328 2195 3200 2189 3021 2189 
L 2080 2189 
C 2125 2291 2144 2330 2202 2458 
L 1408 2598 
C 1338 2400 1312 2323 1261 2189 
L 806 2189 
C 563 2189 429 2195 282 2221 
L 282 1459 
C 435 1485 576 1491 806 1491 
L 928 1491 
C 787 1254 717 1146 499 864 
C 954 704 1120 634 1427 499 
C 1062 294 762 198 230 122 
C 397 -109 512 -307 621 -582 
C 1286 -422 1722 -218 2150 141 
C 2451 -26 2528 -77 2765 -262 
L 2976 77 
C 3149 -102 3283 -294 3411 -576 
C 3910 -307 4339 26 4730 461 
C 5075 32 5459 -301 5901 -563 
C 6035 -237 6157 -19 6342 243 
C 5894 467 5530 755 5216 1139 
C 5606 1843 5779 2509 5862 3635 
C 6074 3629 6125 3629 6246 3610 
L 6246 4403 
z
M 3206 454 
C 2963 589 2874 640 2675 730 
C 2842 986 2925 1171 3021 1491 
C 3238 1491 3392 1478 3514 1466 
L 3514 2099 
C 3654 2266 3686 2310 3789 2477 
C 3904 1946 4032 1587 4275 1139 
C 3942 749 3571 461 3046 198 
L 3206 454 
z
M 5069 3635 
C 5037 2938 4934 2400 4736 1907 
C 4486 2451 4397 2771 4294 3437 
C 4326 3520 4339 3552 4371 3635 
L 5069 3635 
z
M 2234 1491 
C 2170 1299 2118 1184 2003 1024 
C 1862 1082 1779 1107 1542 1190 
C 1638 1344 1664 1389 1722 1491 
L 2234 1491 
z
M 2995 4269 
L 2342 4269 
L 2342 4992 
C 2342 5184 2349 5293 2368 5408 
L 1555 5408 
C 1574 5286 1581 5178 1581 4979 
L 1581 4269 
L 851 4269 
C 602 4269 461 4275 301 4294 
L 301 3590 
C 454 3610 621 3616 851 3616 
L 1120 3616 
C 864 3322 595 3130 154 2925 
C 384 2682 467 2566 614 2304 
C 1069 2605 1229 2758 1587 3213 
C 1581 3110 1574 3002 1574 2950 
L 1574 2765 
C 1574 2707 1568 2643 1555 2579 
L 2355 2579 
C 2342 2650 2342 2726 2342 2797 
L 2342 2976 
C 2342 3014 2330 3142 2323 3213 
C 2502 2944 2541 2906 2854 2643 
C 2989 2906 3078 3040 3245 3245 
C 3014 3366 2874 3469 2733 3616 
L 3091 3616 
C 3290 3616 3411 3610 3494 3597 
L 3494 4288 
C 3418 4275 3296 4269 3098 4269 
L 3053 4269 
C 3238 4550 3309 4685 3520 5107 
L 2842 5382 
C 2733 5082 2598 4838 2394 4544 
L 2995 4269 
z
M 397 5094 
C 602 4832 723 4627 870 4282 
L 1523 4563 
C 1376 4883 1280 5043 1037 5363 
L 397 5094 
z
" transform="scale(0.015625)"/>
      <path id="STIXGeneral-Italic-211d" d="M 1229 4179 
L 3360 4179 
Q 3827 4179 4108 3894 
Q 4390 3610 4390 3142 
Q 4390 2554 4060 2186 
Q 3731 1818 3149 1715 
L 4026 0 
L 2925 0 
L 2125 1690 
L 1549 1690 
L 1094 0 
L 109 0 
L 1229 4179 
z
M 3866 3821 
L 3392 2022 
Q 3770 2144 3962 2438 
Q 4154 2733 4154 3136 
Q 4154 3584 3866 3821 
z
M 3142 1978 
L 3648 3872 
Q 3450 3942 3296 3942 
L 2150 3942 
L 1613 1926 
L 2630 1926 
Q 2957 1926 3142 1978 
z
M 3629 237 
L 2899 1696 
Q 2829 1683 2682 1683 
Q 2630 1683 2531 1686 
Q 2432 1690 2387 1690 
L 3072 237 
L 3629 237 
z
M 1907 3942 
L 1408 3942 
L 416 237 
L 915 237 
L 1907 3942 
z
" transform="scale(0.015625)"/>
      <path id="STIXNonUnicode-Italic-e22e" d="M 2080 3341 
L 2099 3328 
Q 2810 4288 3853 4288 
Q 4154 4288 4346 4102 
Q 4538 3917 4538 3622 
Q 4538 3213 4173 2893 
Q 3808 2573 3430 2451 
Q 3866 2406 4144 2169 
Q 4422 1933 4422 1485 
Q 4422 1152 4211 857 
Q 4000 563 3677 377 
Q 3354 192 2986 86 
Q 2618 -19 2291 -19 
Q 1792 -19 1517 186 
L 1587 326 
Q 1843 198 2272 198 
Q 2854 198 3296 595 
Q 3738 992 3738 1478 
Q 3738 1798 3459 2003 
Q 3181 2208 2630 2208 
L 2208 2208 
L 2278 2451 
L 2400 2451 
Q 2611 2451 2867 2508 
Q 3123 2566 3385 2681 
Q 3648 2797 3824 3008 
Q 4000 3219 4000 3482 
Q 4000 3987 3456 3987 
Q 3245 3987 3008 3865 
Q 2771 3744 2624 3590 
Q 2349 3315 2144 2908 
Q 1939 2502 1715 1728 
L 1478 909 
Q 1344 448 1193 253 
Q 1043 58 666 13 
Q 544 0 224 0 
L 282 154 
Q 474 154 576 333 
Q 678 512 870 1190 
L 1536 3514 
Q 1555 3571 1555 3667 
Q 1555 3859 1286 3859 
L 1146 3859 
L 1171 4013 
Q 1875 4077 2355 4237 
L 2080 3341 
z
" transform="scale(0.015625)"/>
     </defs>
     <use xlink:href="#HiraginoSans-W7-5b9f"/>
     <use xlink:href="#HiraginoSans-W7-6570" transform="translate(99.999985 0)"/>
     <use xlink:href="#HiraginoSans-W7-7a7a" transform="translate(199.999969 0)"/>
     <use xlink:href="#HiraginoSans-W7-9593" transform="translate(299.999954 0)"/>
     <use xlink:href="#HiraginoSans-W7-20" transform="translate(399.999939 0)"/>
     <use xlink:href="#DejaVuSans-28" transform="translate(433.299927 0)"/>
     <use xlink:href="#STIXGeneral-Italic-211d" transform="translate(472.313599 0)"/>
     <use xlink:href="#DejaVuSans-2c" transform="translate(541.01358 0)"/>
     <use xlink:href="#STIXNonUnicode-Italic-e22e" transform="translate(592.283112 0)"/>
     <use xlink:href="#DejaVuSans-28" transform="translate(664.683105 0)"/>
     <use xlink:href="#STIXGeneral-Italic-211d" transform="translate(703.696777 0)"/>
     <use xlink:href="#DejaVuSans-29" transform="translate(772.396759 0)"/>
     <use xlink:href="#DejaVuSans-29" transform="translate(811.410431 0)"/>
    </g>
   </g>
   <g id="text_3">
    <!-- $B \in \mathcal{B}(\mathbb{R})$ -->
    <g style="fill: #145a32" transform="translate(281.52 177.355094) scale(0.09 -0.09)">
     <defs>
      <path id="DejaVuSans-Oblique-42" d="M 1081 4666 
L 2694 4666 
Q 3350 4666 3675 4422 
Q 4000 4178 4000 3688 
Q 4000 3238 3720 2911 
Q 3441 2584 2988 2516 
Q 3375 2428 3569 2181 
Q 3763 1934 3763 1522 
Q 3763 819 3242 409 
Q 2722 0 1819 0 
L 172 0 
L 1081 4666 
z
M 1234 2228 
L 903 519 
L 1919 519 
Q 2491 519 2800 781 
Q 3109 1044 3109 1522 
Q 3109 1891 2904 2059 
Q 2700 2228 2247 2228 
L 1234 2228 
z
M 1606 4147 
L 1331 2741 
L 2272 2741 
Q 2775 2741 3058 2959 
Q 3341 3178 3341 3566 
Q 3341 3869 3150 4008 
Q 2959 4147 2541 4147 
L 1606 4147 
z
" transform="scale(0.015625)"/>
      <path id="DejaVuSans-2208" d="M 1072 1959 
Q 1094 1728 1291 1353 
Q 1522 919 1959 675 
Q 2388 438 2850 434 
L 5028 434 
L 5028 -63 
L 2850 -63 
Q 2250 -63 1695 246 
Q 1141 556 844 1106 
Q 547 1656 547 2241 
Q 547 2819 844 3369 
Q 1141 3919 1695 4231 
Q 2250 4544 2850 4544 
L 5028 4544 
L 5028 4047 
L 2850 4047 
Q 2388 4044 1959 3803 
Q 1525 3556 1291 3125 
Q 1091 2750 1063 2459 
L 5028 2459 
L 5028 1959 
L 1072 1959 
z
" transform="scale(0.015625)"/>
     </defs>
     <use xlink:href="#DejaVuSans-Oblique-42" transform="translate(0 0.125)"/>
     <use xlink:href="#DejaVuSans-2208" transform="translate(88.085938 0.125)"/>
     <use xlink:href="#STIXNonUnicode-Italic-e22e" transform="translate(194.677734 0.125)"/>
     <use xlink:href="#DejaVuSans-28" transform="translate(267.077728 0.125)"/>
     <use xlink:href="#STIXGeneral-Italic-211d" transform="translate(306.0914 0.125)"/>
     <use xlink:href="#DejaVuSans-29" transform="translate(374.791382 0.125)"/>
    </g>
   </g>
   <g id="text_4">
    <!-- $X^{-1}(B) \in \mathcal{F}$ -->
    <g style="fill: #145a32" transform="translate(81.45 177.643375) scale(0.09 -0.09)">
     <defs>
      <path id="DejaVuSans-Oblique-58" d="M 878 4666 
L 1516 4666 
L 2316 2981 
L 3763 4666 
L 4500 4666 
L 2578 2438 
L 3738 0 
L 3103 0 
L 2163 1966 
L 459 0 
L -275 0 
L 1906 2509 
L 878 4666 
z
" transform="scale(0.015625)"/>
      <path id="DejaVuSans-2212" d="M 678 2272 
L 4684 2272 
L 4684 1741 
L 678 1741 
L 678 2272 
z
" transform="scale(0.015625)"/>
      <path id="DejaVuSans-31" d="M 794 531 
L 1825 531 
L 1825 4091 
L 703 3866 
L 703 4441 
L 1819 4666 
L 2450 4666 
L 2450 531 
L 3481 531 
L 3481 0 
L 794 0 
L 794 531 
z
" transform="scale(0.015625)"/>
     </defs>
     <use xlink:href="#DejaVuSans-Oblique-58" transform="translate(0 0.684375)"/>
     <use xlink:href="#DejaVuSans-2212" transform="translate(75.52263 38.965625) scale(0.7)"/>
     <use xlink:href="#DejaVuSans-31" transform="translate(134.174974 38.965625) scale(0.7)"/>
     <use xlink:href="#DejaVuSans-28" transform="translate(181.445482 0.684375)"/>
     <use xlink:href="#DejaVuSans-Oblique-42" transform="translate(220.459154 0.684375)"/>
     <use xlink:href="#DejaVuSans-29" transform="translate(289.062669 0.684375)"/>
     <use xlink:href="#DejaVuSans-2208" transform="translate(347.558763 0.684375)"/>
     <use xlink:href="#STIXNonUnicode-Italic-e232" transform="translate(454.15056 0.684375)"/>
    </g>
   </g>
   <g id="patch_7">
    <path d="M 181.063727 131.248375 
Q 202.498837 131.248375 221.474273 131.248375 
" style="fill: none; stroke: #444444; stroke-width: 2.2; stroke-linecap: round"/>
    <path d="M 217.474273 129.248375 
L 221.474273 131.248375 
L 217.474273 133.248375 
" style="fill: none; stroke: #444444; stroke-width: 2.2; stroke-linecap: round"/>
   </g>
   <g id="text_5">
    <!-- $X: \Omega \to \mathbb{R}$ -->
    <g style="fill: #444444" transform="translate(182 113.824375) scale(0.1 -0.1)">
     <defs>
      <path id="DejaVuSans-3a" d="M 750 794 
L 1409 794 
L 1409 0 
L 750 0 
L 750 794 
z
M 750 3309 
L 1409 3309 
L 1409 2516 
L 750 2516 
L 750 3309 
z
" transform="scale(0.015625)"/>
      <path id="DejaVuSans-2192" d="M 5050 2147 
L 5050 1866 
L 3822 638 
L 3447 1013 
L 4175 1741 
L 366 1741 
L 366 2272 
L 4175 2272 
L 3447 3000 
L 3822 3375 
L 5050 2147 
z
" transform="scale(0.015625)"/>
     </defs>
     <use xlink:href="#DejaVuSans-Oblique-58" transform="translate(0 0.21875)"/>
     <use xlink:href="#DejaVuSans-3a" transform="translate(87.988281 0.21875)"/>
     <use xlink:href="#DejaVuSans-3a9" transform="translate(141.162109 0.21875)"/>
     <use xlink:href="#DejaVuSans-2192" transform="translate(237.060547 0.21875)"/>
     <use xlink:href="#STIXGeneral-Italic-211d" transform="translate(340.332031 0.21875)"/>
    </g>
   </g>
   <g id="patch_8">
    <path d="M 223.936273 200.944375 
Q 202.501163 200.944375 182.743104 200.944375 
" style="fill: none; stroke-dasharray: 5.55,2.4; stroke-dashoffset: 0; stroke: #888888; stroke-width: 1.5; stroke-linecap: round"/>
    <path d="M 186.743104 202.944375 
L 182.743104 200.944375 
L 186.743104 198.944375 
" style="fill: none; stroke-dasharray: 5.55,2.4; stroke-dashoffset: 0; stroke: #888888; stroke-width: 1.5; stroke-linecap: round"/>
   </g>
   <g id="text_6">
    <!-- $X^{-1}$ -->
    <g style="fill: #888888" transform="translate(194.31 218.368375) scale(0.09 -0.09)">
     <use xlink:href="#DejaVuSans-Oblique-58" transform="translate(0 0.684375)"/>
     <use xlink:href="#DejaVuSans-2212" transform="translate(75.52263 38.965625) scale(0.7)"/>
     <use xlink:href="#DejaVuSans-31" transform="translate(134.174974 38.965625) scale(0.7)"/>
    </g>
   </g>
   <g id="text_7">
    <!-- $X$ が確率変数  $\Longleftrightarrow$  $X$ が可測関数 -->
    <g style="fill: #ffffff" transform="translate(126.5 306.225219) scale(0.1 -0.1)">
     <defs>
      <path id="HiraginoSans-W7-304c" d="M 4038 4768 
C 4250 4544 4461 4230 4634 3904 
L 5190 4186 
C 5005 4538 4858 4749 4602 5030 
L 4038 4768 
z
M 4826 5107 
C 5050 4851 5222 4602 5408 4269 
L 5958 4557 
C 5792 4864 5600 5126 5370 5370 
L 4826 5107 
z
M 4442 3616 
C 4614 3373 4704 3206 4890 2797 
C 5126 2278 5254 1882 5363 1350 
L 6246 1779 
C 6016 2643 5728 3277 5229 3987 
L 4442 3616 
z
M 410 2829 
C 595 2880 1030 2957 1485 3021 
C 1216 1952 672 666 237 96 
L 1126 -384 
C 1165 -301 1171 -288 1229 -166 
C 1824 1075 2176 2048 2400 3091 
C 2541 3104 2611 3110 2720 3110 
C 2950 3110 3053 3085 3136 3002 
C 3251 2899 3296 2733 3296 2426 
C 3296 1939 3219 1274 3123 966 
C 3046 710 2950 608 2790 608 
C 2579 608 2208 710 1882 851 
C 1946 550 1965 390 1965 166 
C 1965 70 1965 19 1952 -122 
C 2387 -250 2656 -301 2931 -301 
C 3283 -301 3488 -224 3680 -13 
C 4006 339 4198 1229 4198 2374 
C 4198 2976 4115 3290 3898 3552 
C 3686 3802 3354 3923 2899 3923 
C 2803 3923 2714 3917 2560 3910 
C 2579 3987 2579 3994 2605 4128 
C 2694 4653 2746 4928 2752 4954 
C 2765 5024 2778 5075 2797 5139 
L 1805 5235 
C 1811 5190 1811 5158 1811 5139 
C 1811 4896 1766 4518 1651 3846 
C 1325 3795 557 3725 365 3725 
C 352 3725 339 3725 326 3725 
L 410 2829 
z
" transform="scale(0.015625)"/>
      <path id="HiraginoSans-W7-5909" d="M 2266 4179 
C 2266 3840 2221 3603 2112 3366 
C 1984 3085 1766 2893 1350 2675 
C 1574 2522 1728 2387 1958 2150 
C 2355 2400 2630 2682 2797 2989 
C 2963 3309 3040 3642 3059 4179 
L 3558 4179 
L 3558 3226 
C 3558 3136 3533 3117 3424 3117 
C 3283 3117 3149 3130 2970 3155 
C 3098 2899 3155 2720 3200 2426 
C 3341 2419 3405 2419 3526 2419 
C 3866 2419 3981 2432 4102 2483 
C 4269 2554 4339 2688 4339 2938 
L 4339 4179 
L 5286 4179 
C 5606 4179 5830 4166 6061 4141 
L 6061 4947 
C 5850 4922 5594 4909 5261 4909 
L 3622 4909 
L 3622 5018 
C 3622 5178 3629 5274 3654 5402 
L 2707 5402 
C 2726 5280 2733 5171 2733 5011 
L 2733 4909 
L 1114 4909 
C 755 4909 525 4922 333 4947 
L 333 4141 
C 544 4173 723 4179 1050 4179 
L 2266 4179 
z
M 4787 2112 
C 4672 2086 4512 2074 4237 2074 
L 3206 2074 
C 3302 2189 3315 2202 3398 2310 
L 2643 2560 
C 2483 2278 2285 2093 1875 1843 
C 1434 1568 1037 1408 467 1286 
C 698 1024 806 877 941 602 
C 1363 730 1594 826 1914 998 
C 2099 819 2214 717 2438 557 
C 1715 314 1107 230 154 230 
C 339 -38 435 -224 557 -557 
C 1715 -448 2413 -282 3251 83 
C 3955 -243 4704 -442 5818 -582 
C 5914 -275 6029 -32 6221 269 
C 5254 294 4723 365 4070 563 
C 4429 832 4691 1056 5030 1382 
C 5133 1485 5158 1510 5254 1600 
L 4787 2112 
z
M 2547 1440 
L 3955 1440 
C 3693 1197 3533 1075 3232 909 
C 2950 1062 2720 1222 2509 1408 
L 2547 1440 
z
M 1261 4115 
C 1120 3782 1018 3610 794 3354 
C 627 3168 506 3053 237 2842 
C 538 2637 538 2637 736 2464 
C 768 2432 813 2394 877 2342 
C 1165 2605 1293 2733 1491 3002 
C 1696 3270 1798 3437 1971 3789 
L 1261 4115 
z
M 4352 3654 
C 4870 3136 5069 2886 5408 2330 
L 6106 2848 
C 5709 3328 5395 3667 4973 4045 
L 4352 3654 
z
" transform="scale(0.015625)"/>
      <path id="DejaVuSans-27fa" d="M 1250 1678 
L 7925 1678 
L 8253 2006 
L 7925 2334 
L 1250 2334 
L 922 2006 
L 1250 1678 
z
M 7550 1303 
L 1625 1303 
L 1916 1013 
L 1541 638 
L 313 1866 
L 313 2147 
L 1541 3375 
L 1916 3000 
L 1625 2709 
L 7550 2709 
L 7259 3000 
L 7634 3375 
L 8863 2147 
L 8863 1866 
L 7634 638 
L 7259 1013 
L 7550 1303 
z
" transform="scale(0.015625)"/>
      <path id="HiraginoSans-W7-53ef" d="M 4608 4390 
L 4608 486 
C 4608 320 4557 288 4314 288 
C 4064 288 3744 307 3379 352 
C 3494 115 3565 -173 3597 -486 
C 3840 -499 4102 -506 4269 -506 
C 5261 -506 5459 -371 5459 301 
L 5459 4390 
C 5766 4384 5920 4371 6144 4352 
L 6144 5203 
C 5869 5178 5606 5165 5306 5165 
L 1165 5165 
C 851 5165 589 5178 339 5203 
L 339 4352 
C 640 4378 890 4390 1178 4390 
L 4608 4390 
z
M 3872 3270 
C 3872 3539 3878 3648 3898 3821 
C 3718 3802 3539 3795 3283 3795 
L 1549 3795 
C 1293 3795 1120 3802 954 3821 
C 979 3635 986 3469 986 3219 
L 986 1197 
C 986 998 973 819 947 602 
L 1811 602 
L 1811 1101 
L 3309 1101 
C 3475 1101 3770 1088 3898 1075 
C 3878 1261 3872 1408 3872 1613 
L 3872 3270 
z
M 1805 3053 
L 3059 3053 
L 3059 1843 
L 1805 1843 
L 1805 3053 
z
" transform="scale(0.015625)"/>
      <path id="HiraginoSans-W7-6e2c" d="M 262 4787 
C 678 4486 902 4294 1210 3930 
L 1779 4563 
C 1498 4890 1293 5062 838 5376 
L 262 4787 
z
M 141 3168 
C 557 2906 806 2688 1139 2323 
L 1645 3002 
C 1325 3328 1075 3520 653 3776 
L 141 3168 
z
M 960 2010 
C 730 1088 486 486 186 64 
L 890 -518 
C 1331 422 1434 710 1645 1536 
L 960 2010 
z
M 3546 1011 
C 3654 1011 3814 1005 3936 998 
C 3923 1146 3917 1280 3917 1536 
L 3917 4685 
C 3917 4947 3923 5075 3936 5242 
C 3802 5229 3642 5222 3456 5216 
L 2310 5216 
C 2080 5216 1946 5222 1811 5242 
C 1818 5024 1824 4909 1824 4717 
L 1824 1555 
C 1824 1293 1818 1158 1811 992 
C 1952 1005 2042 1011 2202 1011 
L 3546 1011 
z
M 2541 4525 
L 3200 4525 
L 3200 4032 
L 2541 4032 
L 2541 4525 
z
M 2541 3366 
L 3200 3366 
L 3200 2886 
L 2541 2886 
L 2541 3366 
z
M 2541 2221 
L 3200 2221 
L 3200 1702 
L 2541 1702 
L 2541 2221 
z
M 5005 1043 
C 4986 1171 4979 1318 4979 1536 
L 4979 4442 
C 4979 4672 4986 4819 5005 4954 
L 4198 4954 
C 4218 4819 4224 4672 4224 4461 
L 4224 1536 
C 4224 1325 4218 1190 4198 1043 
L 5005 1043 
z
M 2182 992 
C 1952 525 1779 307 1363 6 
C 1581 -154 1709 -288 1939 -570 
C 2355 -160 2547 102 2803 614 
L 2182 992 
z
M 2880 621 
C 3155 154 3379 -154 3731 -525 
C 3987 -243 4115 -122 4333 32 
C 3962 333 3763 570 3501 1005 
L 2880 621 
z
M 6035 4589 
C 6035 4947 6042 5120 6067 5312 
L 5242 5312 
C 5261 5088 5274 4870 5274 4582 
L 5274 474 
C 5274 333 5235 307 5037 307 
C 4800 307 4634 320 4397 346 
C 4506 51 4544 -96 4582 -454 
C 4787 -461 4845 -461 5056 -461 
C 5850 -461 6035 -320 6035 294 
L 6035 4589 
z
" transform="scale(0.015625)"/>
      <path id="HiraginoSans-W7-95a2" d="M 4371 992 
C 4589 992 4710 986 4870 966 
L 4870 1645 
C 4742 1626 4608 1619 4378 1619 
L 3507 1619 
C 3514 1728 3520 1773 3526 1920 
L 4352 1920 
C 4538 1920 4653 1914 4768 1901 
L 4768 2554 
C 4646 2534 4538 2528 4346 2528 
L 4186 2528 
C 4294 2707 4339 2778 4422 2950 
L 3680 3078 
C 3584 2829 3533 2720 3424 2528 
L 2982 2528 
C 2867 2758 2784 2893 2650 3085 
L 1946 2931 
C 2080 2752 2138 2669 2221 2528 
L 2054 2528 
C 1862 2528 1766 2534 1651 2554 
L 1651 1901 
C 1773 1914 1882 1920 2074 1920 
L 2771 1920 
C 2771 1754 2765 1715 2758 1619 
L 2029 1619 
C 1805 1619 1677 1626 1542 1645 
L 1542 960 
C 1709 979 1888 992 2086 992 
L 2598 992 
C 2477 800 2355 678 2144 557 
C 1952 435 1779 378 1395 275 
C 1574 70 1677 -96 1811 -384 
C 2509 -160 2893 109 3194 582 
C 3494 237 3923 -51 4384 -218 
C 4429 -64 4442 -19 4493 102 
C 4550 -96 4582 -230 4608 -486 
C 4851 -493 4851 -493 4922 -493 
C 5792 -493 5952 -371 5952 314 
L 5952 4531 
C 5952 4858 5958 5018 5978 5254 
C 5805 5235 5651 5229 5325 5229 
L 4000 5229 
C 3667 5229 3520 5235 3347 5254 
C 3360 5069 3366 4896 3366 4659 
L 3366 3693 
C 3366 3398 3366 3283 3354 3123 
C 3552 3130 3706 3136 3910 3136 
L 5146 3136 
L 5146 429 
C 5146 288 5114 269 4902 269 
C 4806 269 4730 275 4576 294 
C 4621 390 4640 422 4698 525 
C 4237 627 3974 749 3686 992 
L 4371 992 
z
M 4128 4678 
L 5146 4678 
L 5146 4422 
L 4128 4422 
L 4128 4678 
z
M 4128 3923 
L 5146 3923 
L 5146 3674 
L 4128 3674 
L 4128 3923 
z
M 1280 3142 
L 2438 3142 
C 2637 3142 2848 3136 2995 3130 
C 2989 3251 2982 3386 2982 3693 
L 2982 4659 
C 2982 4915 2989 5069 3002 5254 
C 2835 5235 2688 5229 2349 5229 
L 1101 5229 
C 781 5229 621 5235 448 5254 
C 467 5050 474 4870 474 4525 
L 474 294 
C 474 -122 461 -333 435 -531 
L 1318 -531 
C 1293 -339 1280 -115 1280 275 
L 1280 3142 
z
M 1280 4678 
L 2234 4678 
L 2234 4422 
L 1280 4422 
L 1280 4678 
z
M 1280 3923 
L 2234 3923 
L 2234 3674 
L 1280 3674 
L 1280 3923 
z
" transform="scale(0.015625)"/>
     </defs>
     <use xlink:href="#DejaVuSans-Oblique-58" transform="translate(0 0.203125)"/>
     <use xlink:href="#HiraginoSans-W7-20" transform="translate(68.505859 0.203125)"/>
     <use xlink:href="#HiraginoSans-W7-304c" transform="translate(101.805847 0.203125)"/>
     <use xlink:href="#HiraginoSans-W7-78ba" transform="translate(201.805832 0.203125)"/>
     <use xlink:href="#HiraginoSans-W7-7387" transform="translate(301.805817 0.203125)"/>
     <use xlink:href="#HiraginoSans-W7-5909" transform="translate(401.805801 0.203125)"/>
     <use xlink:href="#HiraginoSans-W7-6570" transform="translate(501.805786 0.203125)"/>
     <use xlink:href="#HiraginoSans-W7-20" transform="translate(601.805771 0.203125)"/>
     <use xlink:href="#HiraginoSans-W7-20" transform="translate(635.105759 0.203125)"/>
     <use xlink:href="#DejaVuSans-27fa" transform="translate(687.888168 0.203125)"/>
     <use xlink:href="#HiraginoSans-W7-20" transform="translate(850.729965 0.203125)"/>
     <use xlink:href="#HiraginoSans-W7-20" transform="translate(884.029953 0.203125)"/>
     <use xlink:href="#DejaVuSans-Oblique-58" transform="translate(917.329941 0.203125)"/>
     <use xlink:href="#HiraginoSans-W7-20" transform="translate(985.8358 0.203125)"/>
     <use xlink:href="#HiraginoSans-W7-304c" transform="translate(1019.135788 0.203125)"/>
     <use xlink:href="#HiraginoSans-W7-53ef" transform="translate(1119.135773 0.203125)"/>
     <use xlink:href="#HiraginoSans-W7-6e2c" transform="translate(1219.135757 0.203125)"/>
     <use xlink:href="#HiraginoSans-W7-95a2" transform="translate(1319.135742 0.203125)"/>
     <use xlink:href="#HiraginoSans-W7-6570" transform="translate(1419.135727 0.203125)"/>
    </g>
   </g>
   <g id="text_8">
    <!-- 確率変数 = 可測関数としての構造 -->
    <g style="fill: #1a1a2e" transform="translate(110.31 16.704375) scale(0.12 -0.12)">
     <defs>
      <path id="HiraginoSans-W7-3d" d="M 294 3008 
L 294 2112 
L 4173 2112 
L 4173 3008 
L 294 3008 
z
M 294 1427 
L 294 531 
L 4173 531 
L 4173 1427 
L 294 1427 
z
" transform="scale(0.015625)"/>
      <path id="HiraginoSans-W7-3068" d="M 1850 5114 
C 1882 5024 1888 5005 1952 4698 
C 2106 3923 2208 3507 2362 2982 
C 1946 2778 1734 2643 1478 2426 
C 1107 2106 909 1683 909 1222 
C 909 909 1011 595 1190 371 
C 1530 -58 2240 -269 3347 -269 
C 3802 -269 4256 -237 4954 -166 
C 5318 -128 5350 -122 5491 -115 
L 5414 928 
C 4915 755 4058 646 3270 646 
C 2323 646 1901 832 1901 1254 
C 1901 1664 2349 2035 3226 2362 
C 3962 2630 4774 2854 5427 2963 
L 5107 3936 
C 5011 3891 4979 3878 4851 3840 
C 3853 3526 3584 3443 3232 3315 
C 3034 3987 2867 4838 2842 5267 
L 1850 5114 
z
" transform="scale(0.015625)"/>
      <path id="HiraginoSans-W7-3057" d="M 1210 5139 
C 1229 4960 1235 4870 1235 4659 
C 1235 4467 1229 4077 1210 3194 
C 1190 2349 1184 1933 1184 1645 
C 1184 1267 1222 934 1280 730 
C 1382 410 1587 134 1856 -45 
C 2144 -230 2566 -333 3040 -333 
C 3859 -333 4506 -58 4998 486 
C 5331 858 5530 1293 5786 2208 
C 5408 2374 5267 2464 4851 2790 
C 4794 2317 4717 2016 4582 1677 
C 4294 973 3770 589 3091 589 
C 2714 589 2426 704 2291 909 
C 2170 1088 2138 1306 2138 1926 
C 2138 3034 2214 4742 2278 5120 
L 1210 5139 
z
" transform="scale(0.015625)"/>
      <path id="HiraginoSans-W7-3066" d="M 506 3558 
C 749 3603 1094 3648 1446 3680 
C 2874 3789 2906 3789 3539 3859 
C 2650 3347 2189 2643 2189 1786 
C 2189 1050 2534 493 3200 147 
C 3584 -58 4032 -166 4749 -243 
C 4864 -256 4890 -262 4973 -282 
L 5107 755 
C 5030 749 4986 749 4947 749 
C 4710 749 4294 813 4000 896 
C 3462 1050 3168 1395 3168 1869 
C 3168 2458 3603 3046 4326 3462 
C 4755 3706 5274 3853 5690 3853 
C 5747 3853 5766 3853 5843 3840 
L 5792 4819 
C 5677 4794 5638 4787 5075 4762 
C 3315 4685 2214 4634 1773 4602 
C 864 4544 826 4544 704 4544 
C 678 4544 602 4544 454 4550 
L 506 3558 
z
" transform="scale(0.015625)"/>
      <path id="HiraginoSans-W7-306e" d="M 3776 4038 
C 4032 4006 4186 3955 4371 3834 
C 4806 3546 5056 3066 5056 2496 
C 5056 1818 4723 1222 4173 922 
C 3872 762 3475 659 2906 614 
C 3155 282 3245 109 3379 -294 
C 3834 -218 4090 -154 4397 -32 
C 5421 371 6003 1274 6003 2438 
C 6003 3936 4979 4896 3373 4896 
C 2458 4896 1670 4576 1120 3974 
C 653 3469 403 2803 403 2074 
C 403 973 966 198 1760 198 
C 2310 198 2733 576 3091 1389 
C 3424 2131 3648 2982 3776 4038 
z
M 2842 4026 
C 2765 3341 2566 2534 2330 1965 
C 2125 1446 1926 1197 1741 1197 
C 1491 1197 1286 1587 1286 2067 
C 1286 2707 1587 3328 2074 3706 
C 2323 3898 2534 3987 2842 4026 
z
" transform="scale(0.015625)"/>
      <path id="HiraginoSans-W7-69cb" d="M 2317 1120 
C 2157 1120 2061 1126 1965 1139 
L 1965 429 
C 2067 448 2157 454 2317 454 
L 2317 262 
C 2317 -173 2310 -307 2285 -570 
L 3078 -570 
C 3059 -339 3053 -198 3053 262 
L 3053 454 
L 5024 454 
L 5024 224 
C 5024 109 4979 90 4768 90 
C 4634 90 4512 102 4262 134 
C 4352 -83 4384 -230 4403 -512 
C 4749 -525 4787 -525 4870 -525 
C 5606 -525 5754 -416 5754 115 
L 5754 454 
C 5946 448 6003 448 6144 429 
L 6144 1146 
C 6016 1126 5939 1120 5754 1120 
L 5754 2010 
C 5754 2298 5760 2445 5779 2630 
C 5626 2611 5472 2605 5197 2605 
L 4384 2605 
L 4384 2835 
L 5530 2835 
C 5792 2835 5933 2829 6125 2803 
L 6125 3469 
C 5933 3443 5779 3437 5536 3437 
L 5158 3437 
L 5158 3667 
L 5408 3667 
C 5645 3667 5734 3661 5869 3642 
L 5869 4205 
C 5741 4186 5555 4179 5402 4179 
L 5158 4179 
L 5158 4403 
L 5510 4403 
C 5760 4403 5875 4397 6035 4378 
L 6035 4992 
C 5856 4973 5702 4960 5510 4960 
L 5158 4960 
C 5158 5165 5165 5261 5197 5382 
L 4384 5382 
C 4416 5274 4422 5210 4422 4960 
L 3654 4960 
C 3654 5197 3661 5274 3699 5382 
L 2880 5382 
C 2912 5261 2918 5203 2918 4960 
L 2701 4960 
C 2490 4960 2349 4966 2189 4992 
L 2189 4378 
C 2349 4397 2502 4403 2714 4403 
L 2918 4403 
L 2918 4179 
L 2784 4179 
C 2598 4179 2464 4186 2317 4205 
L 2317 3648 
C 2432 3661 2566 3667 2778 3667 
L 2918 3667 
L 2918 3437 
L 2624 3437 
C 2381 3437 2227 3443 2093 3462 
L 2093 2867 
C 1933 3104 1830 3302 1747 3533 
L 1818 3533 
C 1952 3533 2042 3526 2163 3507 
L 2163 4294 
C 2035 4275 1965 4269 1798 4269 
L 1690 4269 
L 1690 4749 
C 1690 5043 1696 5235 1722 5414 
L 877 5414 
C 902 5242 915 5069 915 4742 
L 915 4269 
L 672 4269 
C 467 4269 378 4275 256 4301 
L 256 3501 
C 371 3526 486 3533 672 3533 
L 851 3533 
C 723 2899 435 2208 64 1677 
C 256 1408 358 1229 480 947 
C 672 1261 787 1510 960 2029 
C 934 1779 922 1478 922 1248 
L 922 230 
C 922 -83 909 -365 877 -576 
L 1728 -576 
C 1702 -358 1690 -102 1690 230 
L 1690 1696 
C 1683 2099 1677 2355 1664 2470 
C 1766 2214 1850 2067 1984 1888 
C 2080 2112 2176 2266 2310 2438 
C 2317 2298 2317 2234 2317 2048 
L 2317 1120 
z
M 3053 1075 
L 3053 1331 
L 3667 1331 
L 3667 1075 
L 3053 1075 
z
M 3053 1811 
L 3053 2061 
L 3667 2061 
L 3667 1811 
L 3053 1811 
z
M 4365 1075 
L 4365 1331 
L 5024 1331 
L 5024 1075 
L 4365 1075 
z
M 4365 1811 
L 4365 2061 
L 5024 2061 
L 5024 1811 
L 4365 1811 
z
M 3648 2835 
L 3648 2605 
L 2848 2605 
C 2630 2605 2451 2611 2310 2618 
C 2221 2701 2195 2726 2131 2810 
C 2266 2829 2464 2835 2662 2835 
L 3648 2835 
z
M 3654 3437 
L 3654 3667 
L 4422 3667 
L 4422 3437 
L 3654 3437 
z
M 3654 4179 
L 3654 4403 
L 4422 4403 
L 4422 4179 
L 3654 4179 
z
" transform="scale(0.015625)"/>
      <path id="HiraginoSans-W7-9020" d="M 2003 2778 
C 2189 2797 2342 2803 2534 2803 
L 5485 2803 
C 5709 2803 5875 2797 6080 2771 
L 6080 3539 
C 5926 3520 5779 3514 5485 3514 
L 4467 3514 
L 4467 3981 
L 5197 3981 
C 5510 3981 5683 3974 5882 3955 
L 5882 4730 
C 5690 4704 5498 4691 5165 4691 
L 4467 4691 
L 4467 4832 
C 4467 5133 4474 5261 4499 5395 
L 3654 5395 
C 3680 5248 3686 5120 3686 4832 
L 3686 4691 
L 3226 4691 
C 3264 4800 3347 5024 3360 5056 
C 3386 5133 3386 5133 3405 5178 
L 2605 5318 
C 2547 4909 2272 4390 1869 3923 
C 2176 3782 2298 3706 2554 3514 
C 2266 3514 2163 3520 2003 3539 
L 2003 2778 
z
M 2592 3514 
C 2752 3744 2784 3795 2893 3981 
L 3686 3981 
L 3686 3514 
L 2592 3514 
z
M 5107 646 
C 5414 646 5542 640 5728 627 
C 5709 781 5709 845 5709 1235 
L 5709 1862 
C 5709 2272 5709 2368 5728 2528 
C 5542 2509 5363 2502 5069 2502 
L 3046 2502 
C 2714 2502 2534 2509 2349 2528 
C 2362 2400 2362 2400 2368 1965 
L 2368 1498 
C 2368 781 2368 774 2349 627 
C 2502 640 2618 646 2886 646 
L 5107 646 
z
M 3136 1811 
L 4909 1811 
L 4909 1338 
L 3136 1338 
L 3136 1811 
z
M 250 4781 
C 627 4448 1030 4006 1325 3610 
L 1978 4230 
C 1670 4602 1312 4960 870 5344 
L 250 4781 
z
M 262 2170 
C 416 2189 544 2202 678 2202 
L 992 2202 
L 992 896 
C 774 723 685 659 480 531 
C 403 486 352 454 339 442 
C 275 403 205 371 128 339 
L 493 -531 
C 550 -486 640 -416 685 -384 
C 954 -205 1120 -70 1389 173 
C 1606 -96 1805 -230 2138 -333 
C 2477 -442 2880 -474 3936 -474 
C 4621 -474 5594 -454 6099 -435 
C 6150 -58 6170 32 6310 435 
C 5555 339 4704 301 3462 301 
C 2842 301 2496 346 2227 454 
C 2022 538 1926 621 1798 838 
L 1798 2278 
C 1798 2637 1805 2790 1824 2989 
C 1651 2970 1536 2963 1338 2963 
L 787 2963 
C 538 2963 435 2970 262 2995 
L 262 2170 
z
" transform="scale(0.015625)"/>
     </defs>
     <use xlink:href="#HiraginoSans-W7-78ba"/>
     <use xlink:href="#HiraginoSans-W7-7387" transform="translate(99.999985 0)"/>
     <use xlink:href="#HiraginoSans-W7-5909" transform="translate(199.999969 0)"/>
     <use xlink:href="#HiraginoSans-W7-6570" transform="translate(299.999954 0)"/>
     <use xlink:href="#HiraginoSans-W7-20" transform="translate(399.999939 0)"/>
     <use xlink:href="#HiraginoSans-W7-3d" transform="translate(433.299927 0)"/>
     <use xlink:href="#HiraginoSans-W7-20" transform="translate(503.199921 0)"/>
     <use xlink:href="#HiraginoSans-W7-53ef" transform="translate(536.499908 0)"/>
     <use xlink:href="#HiraginoSans-W7-6e2c" transform="translate(636.499893 0)"/>
     <use xlink:href="#HiraginoSans-W7-95a2" transform="translate(736.499878 0)"/>
     <use xlink:href="#HiraginoSans-W7-6570" transform="translate(836.499863 0)"/>
     <use xlink:href="#HiraginoSans-W7-3068" transform="translate(936.499847 0)"/>
     <use xlink:href="#HiraginoSans-W7-3057" transform="translate(1036.499832 0)"/>
     <use xlink:href="#HiraginoSans-W7-3066" transform="translate(1136.499817 0)"/>
     <use xlink:href="#HiraginoSans-W7-306e" transform="translate(1236.499802 0)"/>
     <use xlink:href="#HiraginoSans-W7-69cb" transform="translate(1336.499786 0)"/>
     <use xlink:href="#HiraginoSans-W7-9020" transform="translate(1436.499771 0)"/>
    </g>
   </g>
  </g>
 </g>
 <defs>
  <clipPath id="p48b2c22f5e">
   <rect x="7.2" y="26.704375" width="390.6" height="304.92"/>
  </clipPath>
 </defs>
</svg>
