<?xml version="1.0" encoding="utf-8" standalone="no"?>
<!DOCTYPE svg PUBLIC "-//W3C//DTD SVG 1.1//EN"
  "http://www.w3.org/Graphics/SVG/1.1/DTD/svg11.dtd">
<svg xmlns:xlink="http://www.w3.org/1999/xlink" width="405pt" height="311.17pt" viewBox="0 0 405 311.17" xmlns="http://www.w3.org/2000/svg" version="1.1">
 <metadata>
  <rdf:RDF xmlns:dc="http://purl.org/dc/elements/1.1/" xmlns:cc="http://creativecommons.org/ns#" xmlns:rdf="http://www.w3.org/1999/02/22-rdf-syntax-ns#">
   <cc:Work>
    <dc:type rdf:resource="http://purl.org/dc/dcmitype/StillImage"/>
    <dc:date>2026-03-29T01:01:11.265211</dc:date>
    <dc:format>image/svg+xml</dc:format>
    <dc:creator>
     <cc:Agent>
      <dc:title>Matplotlib v3.10.8, https://matplotlib.org/</dc:title>
     </cc:Agent>
    </dc:creator>
   </cc:Work>
  </rdf:RDF>
 </metadata>
 <defs>
  <style type="text/css">*{stroke-linejoin: round; stroke-linecap: butt}</style>
 </defs>
 <g id="figure_1">
  <g id="patch_1">
   <path d="M 0 311.17 
L 405 311.17 
L 405 0 
L 0 0 
z
" style="fill: #ffffff"/>
  </g>
  <g id="axes_1">
   <g id="patch_2">
    <path d="M 26.73 121.48 
L 124.38 121.48 
Q 128.286 121.48 128.286 116.86 
L 128.286 75.28 
Q 128.286 70.66 124.38 70.66 
L 26.73 70.66 
Q 22.824 70.66 22.824 75.28 
L 22.824 116.86 
Q 22.824 121.48 26.73 121.48 
z
" clip-path="url(#p57e023f3cd)" style="fill: #d6eaf8; stroke: #2980b9; stroke-width: 1.5; stroke-linejoin: miter"/>
   </g>
   <g id="patch_3">
    <path d="M 26.73 190.78 
L 124.38 190.78 
Q 128.286 190.78 128.286 186.16 
L 128.286 144.58 
Q 128.286 139.96 124.38 139.96 
L 26.73 139.96 
Q 22.824 139.96 22.824 144.58 
L 22.824 186.16 
Q 22.824 190.78 26.73 190.78 
z
" clip-path="url(#p57e023f3cd)" style="fill: #d6eaf8; stroke: #2980b9; stroke-width: 1.5; stroke-linejoin: miter"/>
   </g>
   <g id="patch_4">
    <path d="M 26.73 260.08 
L 124.38 260.08 
Q 128.286 260.08 128.286 255.46 
L 128.286 213.88 
Q 128.286 209.26 124.38 209.26 
L 26.73 209.26 
Q 22.824 209.26 22.824 213.88 
L 22.824 255.46 
Q 22.824 260.08 26.73 260.08 
z
" clip-path="url(#p57e023f3cd)" style="fill: #d6eaf8; stroke: #2980b9; stroke-width: 1.5; stroke-linejoin: miter"/>
   </g>
   <g id="patch_5">
    <path d="M 280.62 121.48 
L 378.27 121.48 
Q 382.176 121.48 382.176 116.86 
L 382.176 75.28 
Q 382.176 70.66 378.27 70.66 
L 280.62 70.66 
Q 276.714 70.66 276.714 75.28 
L 276.714 116.86 
Q 276.714 121.48 280.62 121.48 
z
" clip-path="url(#p57e023f3cd)" style="fill: #d5f5e3; stroke: #27ae60; stroke-width: 1.5; stroke-linejoin: miter"/>
   </g>
   <g id="patch_6">
    <path d="M 280.62 190.78 
L 378.27 190.78 
Q 382.176 190.78 382.176 186.16 
L 382.176 144.58 
Q 382.176 139.96 378.27 139.96 
L 280.62 139.96 
Q 276.714 139.96 276.714 144.58 
L 276.714 186.16 
Q 276.714 190.78 280.62 190.78 
z
" clip-path="url(#p57e023f3cd)" style="fill: #d5f5e3; stroke: #27ae60; stroke-width: 1.5; stroke-linejoin: miter"/>
   </g>
   <g id="patch_7">
    <path d="M 280.62 260.08 
L 378.27 260.08 
Q 382.176 260.08 382.176 255.46 
L 382.176 213.88 
Q 382.176 209.26 378.27 209.26 
L 280.62 209.26 
Q 276.714 209.26 276.714 213.88 
L 276.714 255.46 
Q 276.714 260.08 280.62 260.08 
z
" clip-path="url(#p57e023f3cd)" style="fill: #d5f5e3; stroke: #27ae60; stroke-width: 1.5; stroke-linejoin: miter"/>
   </g>
   <g id="text_1">
    <!-- $A_1$ -->
    <g style="fill: #1a1a2e" transform="translate(68.595 99.567813) scale(0.12 -0.12)">
     <defs>
      <path id="DejaVuSans-Oblique-41" d="M 2356 4666 
L 3072 4666 
L 3938 0 
L 3278 0 
L 3084 1197 
L 984 1197 
L 325 0 
L -341 0 
L 2356 4666 
z
M 2584 4044 
L 1275 1722 
L 2988 1722 
L 2584 4044 
z
" transform="scale(0.015625)"/>
      <path id="DejaVuSans-31" d="M 794 531 
L 1825 531 
L 1825 4091 
L 703 3866 
L 703 4441 
L 1819 4666 
L 2450 4666 
L 2450 531 
L 3481 531 
L 3481 0 
L 794 0 
L 794 531 
z
" transform="scale(0.015625)"/>
     </defs>
     <use xlink:href="#DejaVuSans-Oblique-41" transform="translate(0 0.09375)"/>
     <use xlink:href="#DejaVuSans-31" transform="translate(68.408203 -16.3125) scale(0.7)"/>
    </g>
   </g>
   <g id="text_2">
    <!-- $A_2$ -->
    <g style="fill: #1a1a2e" transform="translate(68.595 168.867813) scale(0.12 -0.12)">
     <defs>
      <path id="DejaVuSans-32" d="M 1228 531 
L 3431 531 
L 3431 0 
L 469 0 
L 469 531 
Q 828 903 1448 1529 
Q 2069 2156 2228 2338 
Q 2531 2678 2651 2914 
Q 2772 3150 2772 3378 
Q 2772 3750 2511 3984 
Q 2250 4219 1831 4219 
Q 1534 4219 1204 4116 
Q 875 4013 500 3803 
L 500 4441 
Q 881 4594 1212 4672 
Q 1544 4750 1819 4750 
Q 2544 4750 2975 4387 
Q 3406 4025 3406 3419 
Q 3406 3131 3298 2873 
Q 3191 2616 2906 2266 
Q 2828 2175 2409 1742 
Q 1991 1309 1228 531 
z
" transform="scale(0.015625)"/>
     </defs>
     <use xlink:href="#DejaVuSans-Oblique-41" transform="translate(0 0.09375)"/>
     <use xlink:href="#DejaVuSans-32" transform="translate(68.408203 -16.3125) scale(0.7)"/>
    </g>
   </g>
   <g id="text_3">
    <!-- $A_3$ -->
    <g style="fill: #1a1a2e" transform="translate(68.595 238.167813) scale(0.12 -0.12)">
     <defs>
      <path id="DejaVuSans-33" d="M 2597 2516 
Q 3050 2419 3304 2112 
Q 3559 1806 3559 1356 
Q 3559 666 3084 287 
Q 2609 -91 1734 -91 
Q 1441 -91 1130 -33 
Q 819 25 488 141 
L 488 750 
Q 750 597 1062 519 
Q 1375 441 1716 441 
Q 2309 441 2620 675 
Q 2931 909 2931 1356 
Q 2931 1769 2642 2001 
Q 2353 2234 1838 2234 
L 1294 2234 
L 1294 2753 
L 1863 2753 
Q 2328 2753 2575 2939 
Q 2822 3125 2822 3475 
Q 2822 3834 2567 4026 
Q 2313 4219 1838 4219 
Q 1578 4219 1281 4162 
Q 984 4106 628 3988 
L 628 4550 
Q 988 4650 1302 4700 
Q 1616 4750 1894 4750 
Q 2613 4750 3031 4423 
Q 3450 4097 3450 3541 
Q 3450 3153 3228 2886 
Q 3006 2619 2597 2516 
z
" transform="scale(0.015625)"/>
     </defs>
     <use xlink:href="#DejaVuSans-Oblique-41" transform="translate(0 0.09375)"/>
     <use xlink:href="#DejaVuSans-33" transform="translate(68.408203 -16.3125) scale(0.7)"/>
    </g>
   </g>
   <g id="text_4">
    <!-- $\mu(A_1) = 2$ -->
    <g style="fill: #1a1a2e" transform="translate(307.245 98.975469) scale(0.1 -0.1)">
     <defs>
      <path id="DejaVuSans-Oblique-3bc" d="M -84 -1331 
L 856 3500 
L 1434 3500 
L 1009 1322 
Q 997 1256 987 1175 
Q 978 1094 978 1013 
Q 978 722 1161 565 
Q 1344 409 1684 409 
Q 2147 409 2431 671 
Q 2716 934 2816 1459 
L 3213 3500 
L 3788 3500 
L 3266 809 
Q 3253 750 3248 706 
Q 3244 663 3244 628 
Q 3244 531 3283 486 
Q 3322 441 3406 441 
Q 3438 441 3492 456 
Q 3547 472 3647 513 
L 3559 50 
Q 3422 -19 3297 -55 
Q 3172 -91 3053 -91 
Q 2847 -91 2730 40 
Q 2613 172 2613 403 
Q 2438 153 2195 31 
Q 1953 -91 1625 -91 
Q 1334 -91 1117 43 
Q 900 178 831 397 
L 494 -1331 
L -84 -1331 
z
" transform="scale(0.015625)"/>
      <path id="DejaVuSans-28" d="M 1984 4856 
Q 1566 4138 1362 3434 
Q 1159 2731 1159 2009 
Q 1159 1288 1364 580 
Q 1569 -128 1984 -844 
L 1484 -844 
Q 1016 -109 783 600 
Q 550 1309 550 2009 
Q 550 2706 781 3412 
Q 1013 4119 1484 4856 
L 1984 4856 
z
" transform="scale(0.015625)"/>
      <path id="DejaVuSans-29" d="M 513 4856 
L 1013 4856 
Q 1481 4119 1714 3412 
Q 1947 2706 1947 2009 
Q 1947 1309 1714 600 
Q 1481 -109 1013 -844 
L 513 -844 
Q 928 -128 1133 580 
Q 1338 1288 1338 2009 
Q 1338 2731 1133 3434 
Q 928 4138 513 4856 
z
" transform="scale(0.015625)"/>
      <path id="DejaVuSans-3d" d="M 678 2906 
L 4684 2906 
L 4684 2381 
L 678 2381 
L 678 2906 
z
M 678 1631 
L 4684 1631 
L 4684 1100 
L 678 1100 
L 678 1631 
z
" transform="scale(0.015625)"/>
     </defs>
     <use xlink:href="#DejaVuSans-Oblique-3bc" transform="translate(0 0.125)"/>
     <use xlink:href="#DejaVuSans-28" transform="translate(63.623047 0.125)"/>
     <use xlink:href="#DejaVuSans-Oblique-41" transform="translate(102.636719 0.125)"/>
     <use xlink:href="#DejaVuSans-31" transform="translate(171.044922 -16.28125) scale(0.7)"/>
     <use xlink:href="#DejaVuSans-29" transform="translate(218.31543 0.125)"/>
     <use xlink:href="#DejaVuSans-3d" transform="translate(276.811523 0.125)"/>
     <use xlink:href="#DejaVuSans-32" transform="translate(380.083008 0.125)"/>
    </g>
   </g>
   <g id="text_5">
    <!-- $\mu(A_2) = 0.5$ -->
    <g style="fill: #1a1a2e" transform="translate(302.445 168.275469) scale(0.1 -0.1)">
     <defs>
      <path id="DejaVuSans-30" d="M 2034 4250 
Q 1547 4250 1301 3770 
Q 1056 3291 1056 2328 
Q 1056 1369 1301 889 
Q 1547 409 2034 409 
Q 2525 409 2770 889 
Q 3016 1369 3016 2328 
Q 3016 3291 2770 3770 
Q 2525 4250 2034 4250 
z
M 2034 4750 
Q 2819 4750 3233 4129 
Q 3647 3509 3647 2328 
Q 3647 1150 3233 529 
Q 2819 -91 2034 -91 
Q 1250 -91 836 529 
Q 422 1150 422 2328 
Q 422 3509 836 4129 
Q 1250 4750 2034 4750 
z
" transform="scale(0.015625)"/>
      <path id="DejaVuSans-2e" d="M 684 794 
L 1344 794 
L 1344 0 
L 684 0 
L 684 794 
z
" transform="scale(0.015625)"/>
      <path id="DejaVuSans-35" d="M 691 4666 
L 3169 4666 
L 3169 4134 
L 1269 4134 
L 1269 2991 
Q 1406 3038 1543 3061 
Q 1681 3084 1819 3084 
Q 2600 3084 3056 2656 
Q 3513 2228 3513 1497 
Q 3513 744 3044 326 
Q 2575 -91 1722 -91 
Q 1428 -91 1123 -41 
Q 819 9 494 109 
L 494 744 
Q 775 591 1075 516 
Q 1375 441 1709 441 
Q 2250 441 2565 725 
Q 2881 1009 2881 1497 
Q 2881 1984 2565 2268 
Q 2250 2553 1709 2553 
Q 1456 2553 1204 2497 
Q 953 2441 691 2322 
L 691 4666 
z
" transform="scale(0.015625)"/>
     </defs>
     <use xlink:href="#DejaVuSans-Oblique-3bc" transform="translate(0 0.125)"/>
     <use xlink:href="#DejaVuSans-28" transform="translate(63.623047 0.125)"/>
     <use xlink:href="#DejaVuSans-Oblique-41" transform="translate(102.636719 0.125)"/>
     <use xlink:href="#DejaVuSans-32" transform="translate(171.044922 -16.28125) scale(0.7)"/>
     <use xlink:href="#DejaVuSans-29" transform="translate(218.31543 0.125)"/>
     <use xlink:href="#DejaVuSans-3d" transform="translate(276.811523 0.125)"/>
     <use xlink:href="#DejaVuSans-30" transform="translate(380.083008 0.125)"/>
     <use xlink:href="#DejaVuSans-2e" transform="translate(443.706055 0.125)"/>
     <use xlink:href="#DejaVuSans-35" transform="translate(475.493164 0.125)"/>
    </g>
   </g>
   <g id="text_6">
    <!-- $\mu(A_3) = +\infty$ -->
    <g style="fill: #1a1a2e" transform="translate(302.045 237.575469) scale(0.1 -0.1)">
     <defs>
      <path id="DejaVuSans-2b" d="M 2944 4013 
L 2944 2272 
L 4684 2272 
L 4684 1741 
L 2944 1741 
L 2944 0 
L 2419 0 
L 2419 1741 
L 678 1741 
L 678 2272 
L 2419 2272 
L 2419 4013 
L 2944 4013 
z
" transform="scale(0.015625)"/>
      <path id="DejaVuSans-221e" d="M 2916 1091 
Q 2819 1203 2666 1466 
Q 2456 1091 2272 925 
Q 2041 725 1681 725 
Q 1259 725 981 1041 
Q 688 1372 688 1919 
Q 688 2444 981 2800 
Q 1244 3116 1688 3116 
Q 1916 3116 2084 3022 
Q 2281 2919 2416 2741 
Q 2541 2581 2666 2366 
Q 2875 2741 3059 2906 
Q 3291 3106 3650 3106 
Q 4072 3106 4350 2791 
Q 4644 2459 4644 1913 
Q 4644 1388 4350 1031 
Q 4088 716 3644 716 
Q 3416 716 3247 809 
Q 3078 894 2916 1091 
z
M 1647 1134 
Q 2163 1134 2472 1884 
Q 2075 2703 1647 2703 
Q 1334 2703 1175 2478 
Q 1003 2238 1003 1919 
Q 1003 1569 1175 1353 
Q 1350 1134 1647 1134 
z
M 3684 2697 
Q 3219 2697 2859 1947 
Q 3253 1128 3684 1128 
Q 3997 1128 4156 1353 
Q 4328 1594 4328 1913 
Q 4328 2263 4156 2478 
Q 3981 2697 3684 2697 
z
" transform="scale(0.015625)"/>
     </defs>
     <use xlink:href="#DejaVuSans-Oblique-3bc" transform="translate(0 0.125)"/>
     <use xlink:href="#DejaVuSans-28" transform="translate(63.623047 0.125)"/>
     <use xlink:href="#DejaVuSans-Oblique-41" transform="translate(102.636719 0.125)"/>
     <use xlink:href="#DejaVuSans-33" transform="translate(171.044922 -16.28125) scale(0.7)"/>
     <use xlink:href="#DejaVuSans-29" transform="translate(218.31543 0.125)"/>
     <use xlink:href="#DejaVuSans-3d" transform="translate(276.811523 0.125)"/>
     <use xlink:href="#DejaVuSans-2b" transform="translate(380.083008 0.125)"/>
     <use xlink:href="#DejaVuSans-221e" transform="translate(463.87207 0.125)"/>
    </g>
   </g>
   <g id="patch_8">
    <path d="M 126.37782 96.07 
Q 202.498652 96.07 276.607022 96.07 
" style="fill: none; stroke: #7f8c8d; stroke-width: 1.8; stroke-linecap: round"/>
    <path d="M 272.607022 94.07 
L 276.607022 96.07 
L 272.607022 98.07 
" style="fill: none; stroke: #7f8c8d; stroke-width: 1.8; stroke-linecap: round"/>
   </g>
   <g id="patch_9">
    <path d="M 126.37782 165.37 
Q 202.498652 165.37 276.607022 165.37 
" style="fill: none; stroke: #7f8c8d; stroke-width: 1.8; stroke-linecap: round"/>
    <path d="M 272.607022 163.37 
L 276.607022 165.37 
L 272.607022 167.37 
" style="fill: none; stroke: #7f8c8d; stroke-width: 1.8; stroke-linecap: round"/>
   </g>
   <g id="patch_10">
    <path d="M 126.37782 234.67 
Q 202.498652 234.67 276.607022 234.67 
" style="fill: none; stroke: #7f8c8d; stroke-width: 1.8; stroke-linecap: round"/>
    <path d="M 272.607022 232.67 
L 276.607022 234.67 
L 272.607022 236.67 
" style="fill: none; stroke: #7f8c8d; stroke-width: 1.8; stroke-linecap: round"/>
   </g>
   <g id="text_7">
    <!-- $\mu : \mathcal{M} \to [0, +\infty]$ -->
    <g style="fill: #555555" transform="translate(159.875 68.35) scale(0.11 -0.11)">
     <defs>
      <path id="DejaVuSans-3a" d="M 750 794 
L 1409 794 
L 1409 0 
L 750 0 
L 750 794 
z
M 750 3309 
L 1409 3309 
L 1409 2516 
L 750 2516 
L 750 3309 
z
" transform="scale(0.015625)"/>
      <path id="STIXNonUnicode-Italic-e239" d="M 7123 346 
L 7219 224 
Q 6912 -205 6310 -205 
Q 6208 -205 6096 -169 
Q 5984 -134 5865 -12 
Q 5747 109 5747 307 
Q 5747 384 5779 653 
L 6061 3181 
L 6042 3181 
L 3405 51 
L 3309 51 
Q 2682 1382 2413 2650 
L 2406 2650 
Q 2400 2611 2345 2390 
Q 2291 2170 2265 2061 
Q 2240 1952 2179 1725 
Q 2118 1498 2060 1338 
Q 2003 1178 1926 976 
Q 1850 774 1760 592 
Q 1670 410 1568 250 
Q 1229 -288 813 -288 
Q 576 -288 416 -131 
Q 256 26 256 250 
Q 256 422 345 528 
Q 435 634 595 634 
Q 698 634 768 576 
Q 838 518 867 451 
Q 896 384 947 326 
Q 998 269 1062 269 
Q 1274 269 1446 570 
Q 1555 762 1673 1088 
Q 1792 1414 1881 1731 
Q 1971 2048 2076 2483 
Q 2182 2918 2236 3187 
Q 2291 3456 2371 3840 
Q 2451 4224 2464 4294 
L 2656 4294 
Q 2931 3136 3168 2329 
Q 3405 1523 3738 838 
L 6662 4294 
L 6835 4294 
L 6445 730 
Q 6432 614 6432 544 
Q 6432 173 6714 173 
Q 6950 173 7123 346 
z
" transform="scale(0.015625)"/>
      <path id="DejaVuSans-2192" d="M 5050 2147 
L 5050 1866 
L 3822 638 
L 3447 1013 
L 4175 1741 
L 366 1741 
L 366 2272 
L 4175 2272 
L 3447 3000 
L 3822 3375 
L 5050 2147 
z
" transform="scale(0.015625)"/>
      <path id="DejaVuSans-5b" d="M 550 4863 
L 1875 4863 
L 1875 4416 
L 1125 4416 
L 1125 -397 
L 1875 -397 
L 1875 -844 
L 550 -844 
L 550 4863 
z
" transform="scale(0.015625)"/>
      <path id="DejaVuSans-2c" d="M 750 794 
L 1409 794 
L 1409 256 
L 897 -744 
L 494 -744 
L 750 256 
L 750 794 
z
" transform="scale(0.015625)"/>
      <path id="DejaVuSans-5d" d="M 1947 4863 
L 1947 -844 
L 622 -844 
L 622 -397 
L 1369 -397 
L 1369 4416 
L 622 4416 
L 622 4863 
L 1947 4863 
z
" transform="scale(0.015625)"/>
     </defs>
     <use xlink:href="#DejaVuSans-Oblique-3bc" transform="translate(0 0.015625)"/>
     <use xlink:href="#DejaVuSans-3a" transform="translate(83.105469 0.015625)"/>
     <use xlink:href="#STIXNonUnicode-Italic-e239" transform="translate(136.279297 0.015625)"/>
     <use xlink:href="#DejaVuSans-2192" transform="translate(272.36171 0.015625)"/>
     <use xlink:href="#DejaVuSans-5b" transform="translate(375.633194 0.015625)"/>
     <use xlink:href="#DejaVuSans-30" transform="translate(414.646866 0.015625)"/>
     <use xlink:href="#DejaVuSans-2c" transform="translate(478.269913 0.015625)"/>
     <use xlink:href="#DejaVuSans-2b" transform="translate(549.021866 0.015625)"/>
     <use xlink:href="#DejaVuSans-221e" transform="translate(652.29335 0.015625)"/>
     <use xlink:href="#DejaVuSans-5d" transform="translate(735.594131 0.015625)"/>
    </g>
   </g>
   <g id="text_8">
    <!-- $\sigma$-代数 $\mathcal{M}$ -->
    <g style="fill: #2980b9" transform="translate(52.655 54.49) scale(0.1 -0.1)">
     <defs>
      <path id="DejaVuSans-Oblique-3c3" d="M 2219 3044 
Q 1744 3044 1422 2700 
Q 1081 2341 969 1747 
Q 844 1119 1044 756 
Q 1241 397 1706 397 
Q 2166 397 2503 759 
Q 2844 1122 2966 1747 
Q 3075 2319 2881 2700 
Q 2700 3044 2219 3044 
z
M 2309 3503 
L 4219 3500 
L 4106 2925 
L 3463 2925 
Q 3706 2438 3575 1747 
Q 3406 888 2884 400 
Q 2359 -91 1609 -91 
Q 856 -91 525 400 
Q 194 888 363 1747 
Q 528 2609 1050 3097 
Q 1484 3503 2309 3503 
z
" transform="scale(0.015625)"/>
      <path id="HiraginoSans-W7-2d" d="M 237 1338 
C 448 1363 602 1376 851 1376 
L 1971 1376 
C 2221 1376 2374 1363 2586 1338 
L 2586 2355 
C 2400 2330 2227 2317 1971 2317 
L 851 2317 
C 595 2317 422 2330 237 2355 
L 237 1338 
z
" transform="scale(0.015625)"/>
      <path id="HiraginoSans-W7-4ee3" d="M 5414 3014 
C 5638 3027 5734 3034 5862 3034 
C 5946 3034 5984 3034 6086 3027 
L 6074 3878 
C 5882 3840 5722 3821 5344 3795 
L 4045 3699 
C 4013 4186 4000 4448 4000 4813 
C 4000 5062 4006 5190 4026 5331 
L 3104 5318 
C 3117 5184 3136 4966 3136 4806 
C 3155 4141 3155 4141 3187 3642 
L 2720 3610 
C 2573 3597 2374 3590 2259 3590 
C 2195 3590 2144 3590 2022 3597 
L 2035 2752 
C 2253 2790 2381 2803 2682 2822 
L 3270 2867 
C 3450 1664 3789 794 4339 109 
C 4698 -326 5018 -538 5338 -538 
C 5837 -538 6086 -83 6227 1088 
C 5914 1235 5786 1325 5498 1568 
C 5446 858 5363 480 5254 480 
C 5229 480 5107 570 5043 640 
C 4870 838 4710 1088 4570 1376 
C 4358 1824 4211 2336 4128 2925 
L 5414 3014 
z
M 979 243 
C 979 -109 966 -333 941 -550 
L 1856 -550 
C 1830 -301 1818 -90 1818 230 
L 1818 3846 
C 2182 4634 2195 4672 2362 5158 
L 1504 5440 
C 1478 5216 1389 4928 1267 4614 
C 973 3898 621 3354 58 2765 
C 237 2458 301 2298 422 1856 
C 678 2112 736 2182 992 2547 
C 986 2323 979 2170 979 1830 
L 979 243 
z
M 4198 4858 
C 4518 4550 4838 4179 5114 3814 
L 5760 4339 
C 5389 4787 5171 5018 4819 5331 
L 4198 4858 
z
" transform="scale(0.015625)"/>
      <path id="HiraginoSans-W7-6570" d="M 6246 4403 
C 6099 4378 5952 4371 5638 4371 
L 4621 4371 
C 4678 4582 4691 4614 4723 4749 
C 4813 5114 4845 5235 4858 5280 
L 4026 5440 
C 4026 5344 3994 5094 3949 4883 
C 3757 3910 3456 3219 3002 2707 
C 3168 2554 3277 2432 3430 2208 
C 3328 2195 3200 2189 3021 2189 
L 2080 2189 
C 2125 2291 2144 2330 2202 2458 
L 1408 2598 
C 1338 2400 1312 2323 1261 2189 
L 806 2189 
C 563 2189 429 2195 282 2221 
L 282 1459 
C 435 1485 576 1491 806 1491 
L 928 1491 
C 787 1254 717 1146 499 864 
C 954 704 1120 634 1427 499 
C 1062 294 762 198 230 122 
C 397 -109 512 -307 621 -582 
C 1286 -422 1722 -218 2150 141 
C 2451 -26 2528 -77 2765 -262 
L 2976 77 
C 3149 -102 3283 -294 3411 -576 
C 3910 -307 4339 26 4730 461 
C 5075 32 5459 -301 5901 -563 
C 6035 -237 6157 -19 6342 243 
C 5894 467 5530 755 5216 1139 
C 5606 1843 5779 2509 5862 3635 
C 6074 3629 6125 3629 6246 3610 
L 6246 4403 
z
M 3206 454 
C 2963 589 2874 640 2675 730 
C 2842 986 2925 1171 3021 1491 
C 3238 1491 3392 1478 3514 1466 
L 3514 2099 
C 3654 2266 3686 2310 3789 2477 
C 3904 1946 4032 1587 4275 1139 
C 3942 749 3571 461 3046 198 
L 3206 454 
z
M 5069 3635 
C 5037 2938 4934 2400 4736 1907 
C 4486 2451 4397 2771 4294 3437 
C 4326 3520 4339 3552 4371 3635 
L 5069 3635 
z
M 2234 1491 
C 2170 1299 2118 1184 2003 1024 
C 1862 1082 1779 1107 1542 1190 
C 1638 1344 1664 1389 1722 1491 
L 2234 1491 
z
M 2995 4269 
L 2342 4269 
L 2342 4992 
C 2342 5184 2349 5293 2368 5408 
L 1555 5408 
C 1574 5286 1581 5178 1581 4979 
L 1581 4269 
L 851 4269 
C 602 4269 461 4275 301 4294 
L 301 3590 
C 454 3610 621 3616 851 3616 
L 1120 3616 
C 864 3322 595 3130 154 2925 
C 384 2682 467 2566 614 2304 
C 1069 2605 1229 2758 1587 3213 
C 1581 3110 1574 3002 1574 2950 
L 1574 2765 
C 1574 2707 1568 2643 1555 2579 
L 2355 2579 
C 2342 2650 2342 2726 2342 2797 
L 2342 2976 
C 2342 3014 2330 3142 2323 3213 
C 2502 2944 2541 2906 2854 2643 
C 2989 2906 3078 3040 3245 3245 
C 3014 3366 2874 3469 2733 3616 
L 3091 3616 
C 3290 3616 3411 3610 3494 3597 
L 3494 4288 
C 3418 4275 3296 4269 3098 4269 
L 3053 4269 
C 3238 4550 3309 4685 3520 5107 
L 2842 5382 
C 2733 5082 2598 4838 2394 4544 
L 2995 4269 
z
M 397 5094 
C 602 4832 723 4627 870 4282 
L 1523 4563 
C 1376 4883 1280 5043 1037 5363 
L 397 5094 
z
" transform="scale(0.015625)"/>
      <path id="HiraginoSans-W7-20" transform="scale(0.015625)"/>
     </defs>
     <use xlink:href="#DejaVuSans-Oblique-3c3"/>
     <use xlink:href="#HiraginoSans-W7-2d" transform="translate(63.378906 0)"/>
     <use xlink:href="#HiraginoSans-W7-4ee3" transform="translate(107.578903 0)"/>
     <use xlink:href="#HiraginoSans-W7-6570" transform="translate(207.578888 0)"/>
     <use xlink:href="#HiraginoSans-W7-20" transform="translate(307.578873 0)"/>
     <use xlink:href="#STIXNonUnicode-Italic-e239" transform="translate(340.87886 0)"/>
    </g>
   </g>
   <g id="text_9">
    <!-- $[0, +\infty]$ -->
    <g style="fill: #27ae60" transform="translate(309.495 54.49) scale(0.1 -0.1)">
     <use xlink:href="#DejaVuSans-5b" transform="translate(0 0.015625)"/>
     <use xlink:href="#DejaVuSans-30" transform="translate(39.013672 0.015625)"/>
     <use xlink:href="#DejaVuSans-2c" transform="translate(102.636719 0.015625)"/>
     <use xlink:href="#DejaVuSans-2b" transform="translate(173.388672 0.015625)"/>
     <use xlink:href="#DejaVuSans-221e" transform="translate(276.660156 0.015625)"/>
     <use xlink:href="#DejaVuSans-5d" transform="translate(359.960938 0.015625)"/>
    </g>
   </g>
   <g id="text_10">
    <!-- 測度 $\mu$：$\sigma$-代数から拡大非負実数への写像 -->
    <g style="fill: #1a1a2e" transform="translate(97.725 16.77) scale(0.11 -0.11)">
     <defs>
      <path id="HiraginoSans-W7-6e2c" d="M 262 4787 
C 678 4486 902 4294 1210 3930 
L 1779 4563 
C 1498 4890 1293 5062 838 5376 
L 262 4787 
z
M 141 3168 
C 557 2906 806 2688 1139 2323 
L 1645 3002 
C 1325 3328 1075 3520 653 3776 
L 141 3168 
z
M 960 2010 
C 730 1088 486 486 186 64 
L 890 -518 
C 1331 422 1434 710 1645 1536 
L 960 2010 
z
M 3546 1011 
C 3654 1011 3814 1005 3936 998 
C 3923 1146 3917 1280 3917 1536 
L 3917 4685 
C 3917 4947 3923 5075 3936 5242 
C 3802 5229 3642 5222 3456 5216 
L 2310 5216 
C 2080 5216 1946 5222 1811 5242 
C 1818 5024 1824 4909 1824 4717 
L 1824 1555 
C 1824 1293 1818 1158 1811 992 
C 1952 1005 2042 1011 2202 1011 
L 3546 1011 
z
M 2541 4525 
L 3200 4525 
L 3200 4032 
L 2541 4032 
L 2541 4525 
z
M 2541 3366 
L 3200 3366 
L 3200 2886 
L 2541 2886 
L 2541 3366 
z
M 2541 2221 
L 3200 2221 
L 3200 1702 
L 2541 1702 
L 2541 2221 
z
M 5005 1043 
C 4986 1171 4979 1318 4979 1536 
L 4979 4442 
C 4979 4672 4986 4819 5005 4954 
L 4198 4954 
C 4218 4819 4224 4672 4224 4461 
L 4224 1536 
C 4224 1325 4218 1190 4198 1043 
L 5005 1043 
z
M 2182 992 
C 1952 525 1779 307 1363 6 
C 1581 -154 1709 -288 1939 -570 
C 2355 -160 2547 102 2803 614 
L 2182 992 
z
M 2880 621 
C 3155 154 3379 -154 3731 -525 
C 3987 -243 4115 -122 4333 32 
C 3962 333 3763 570 3501 1005 
L 2880 621 
z
M 6035 4589 
C 6035 4947 6042 5120 6067 5312 
L 5242 5312 
C 5261 5088 5274 4870 5274 4582 
L 5274 474 
C 5274 333 5235 307 5037 307 
C 4800 307 4634 320 4397 346 
C 4506 51 4544 -96 4582 -454 
C 4787 -461 4845 -461 5056 -461 
C 5850 -461 6035 -320 6035 294 
L 6035 4589 
z
" transform="scale(0.015625)"/>
      <path id="HiraginoSans-W7-5ea6" d="M 2272 3226 
L 2272 2662 
C 2272 2515 2266 2355 2253 2246 
C 2387 2253 2426 2253 2682 2253 
L 4640 2253 
C 4890 2253 4890 2253 5050 2246 
C 5037 2362 5030 2490 5030 2662 
L 5030 3226 
L 5568 3226 
C 5862 3226 5984 3219 6125 3200 
L 6125 3942 
C 5952 3923 5818 3917 5562 3917 
L 5030 3917 
L 5030 4160 
C 5030 4211 5030 4230 5030 4275 
L 5440 4275 
C 5741 4275 5888 4269 6112 4250 
L 6112 5011 
C 5920 4986 5670 4973 5312 4973 
L 3795 4973 
L 3795 5082 
C 3795 5235 3802 5338 3827 5434 
L 2918 5434 
C 2938 5325 2950 5229 2950 5088 
L 2950 4973 
L 1408 4973 
C 1114 4973 883 4986 646 5005 
C 666 4755 672 4538 672 4160 
C 672 1786 563 1018 122 173 
C 384 -58 538 -237 749 -550 
C 1043 -38 1190 378 1312 1005 
C 1421 1581 1472 2278 1485 3226 
L 2272 3226 
z
M 3078 3251 
L 4224 3251 
L 4224 2874 
L 3078 2874 
L 3078 3251 
z
M 4224 3917 
L 3072 3917 
L 3072 4147 
L 3085 4275 
L 4224 4275 
C 4224 4224 4224 4205 4224 4154 
L 4224 3917 
z
M 2272 3917 
L 1491 3917 
L 1491 4275 
L 2266 4275 
C 2272 4192 2272 4160 2272 4128 
L 2272 3917 
z
M 2701 1312 
L 2003 1037 
C 2093 966 2093 966 2419 704 
C 2541 602 2624 538 2752 454 
C 2285 307 1850 237 1158 211 
C 1318 -122 1376 -275 1446 -570 
C 2368 -448 2899 -307 3565 -6 
C 4230 -320 4864 -474 5888 -570 
C 5971 -230 6054 6 6195 288 
C 6125 288 6067 288 6035 288 
C 5446 288 4928 352 4435 493 
C 4755 717 5050 986 5318 1299 
C 5485 1491 5485 1491 5542 1549 
L 5133 1978 
C 4973 1965 4845 1958 4563 1958 
L 2336 1958 
C 1978 1958 1798 1965 1626 1984 
L 1626 1286 
C 1798 1306 2003 1312 2278 1312 
L 2701 1312 
z
M 4294 1312 
C 4045 1075 3904 966 3610 800 
C 3296 954 3130 1062 2835 1312 
L 4294 1312 
z
" transform="scale(0.015625)"/>
      <path id="HiraginoSans-W7-ff1a" d="M 3757 4326 
L 2650 4326 
L 2650 3219 
L 3757 3219 
L 3757 4326 
z
M 3757 538 
L 3757 1645 
L 2650 1645 
L 2650 538 
L 3757 538 
z
" transform="scale(0.015625)"/>
      <path id="HiraginoSans-W7-304b" d="M 422 2886 
C 608 2938 1043 3014 1498 3078 
C 1229 2010 685 730 250 154 
L 1139 -326 
C 1178 -243 1184 -230 1242 -109 
C 1837 1133 2189 2106 2413 3155 
C 2554 3162 2624 3168 2733 3168 
C 2963 3168 3066 3142 3149 3059 
C 3264 2957 3309 2790 3309 2483 
C 3309 1997 3232 1331 3136 1024 
C 3059 768 2963 666 2803 666 
C 2592 666 2221 768 1894 915 
C 1958 614 1978 448 1978 224 
C 1978 134 1978 77 1965 -64 
C 2400 -192 2669 -243 2944 -243 
C 3296 -243 3501 -166 3693 45 
C 4019 397 4211 1286 4211 2432 
C 4211 3034 4128 3347 3910 3610 
C 3699 3859 3366 3981 2912 3981 
C 2816 3981 2726 3974 2573 3968 
C 2592 4051 2592 4051 2618 4186 
C 2707 4710 2758 4992 2765 5011 
C 2778 5082 2790 5133 2810 5197 
L 1818 5293 
C 1824 5254 1824 5222 1824 5197 
C 1824 4954 1779 4576 1664 3904 
C 1338 3853 570 3782 378 3782 
C 365 3782 352 3782 339 3782 
L 422 2886 
z
M 4147 4070 
C 4736 3411 5158 2490 5376 1408 
L 6253 1837 
C 5990 2861 5581 3667 4947 4442 
L 4147 4070 
z
" transform="scale(0.015625)"/>
      <path id="HiraginoSans-W7-3089" d="M 1734 4506 
C 2477 4166 3245 3930 4358 3686 
L 4666 4570 
C 3923 4672 2643 5043 2182 5293 
L 1734 4506 
z
M 1242 4019 
C 1229 3872 1222 3789 1203 3635 
C 1075 2790 966 1984 909 1510 
C 896 1427 896 1421 883 1338 
L 1811 1306 
C 1939 1453 1997 1504 2138 1594 
C 2573 1869 3104 2022 3654 2022 
C 4269 2022 4634 1792 4634 1402 
C 4634 896 4032 557 3136 557 
C 2630 557 2086 659 1453 864 
C 1542 474 1562 301 1568 -109 
C 2246 -262 2656 -314 3194 -314 
C 3936 -314 4486 -173 4941 141 
C 5376 442 5632 922 5632 1434 
C 5632 2298 4902 2854 3763 2854 
C 2995 2854 2445 2688 1894 2298 
C 1971 2880 2118 3712 2189 3962 
L 1242 4019 
z
" transform="scale(0.015625)"/>
      <path id="HiraginoSans-W7-62e1" d="M 3962 3520 
C 3962 3008 3597 1344 3302 512 
C 3104 493 3059 493 2931 493 
C 3162 1280 3251 2182 3258 3763 
L 5446 3763 
C 5677 3763 5920 3750 6144 3731 
L 6144 4544 
C 5939 4518 5760 4506 5446 4506 
L 4659 4506 
L 4659 4870 
C 4659 5094 4666 5216 4691 5350 
L 3789 5350 
C 3814 5197 3821 5082 3821 4864 
L 3821 4506 
L 3091 4506 
C 2778 4506 2630 4512 2419 4531 
C 2445 4320 2458 4032 2458 3597 
C 2458 1645 2304 813 1805 32 
C 2080 -173 2221 -294 2470 -563 
C 2682 -218 2765 -38 2874 307 
L 3002 -384 
C 3117 -352 3226 -333 3328 -320 
C 4416 -154 4678 -102 5139 6 
C 5286 45 5286 45 5370 64 
C 5414 -109 5440 -224 5498 -493 
L 6246 -198 
C 6029 723 5811 1363 5402 2304 
L 4698 2048 
C 4928 1485 5011 1261 5165 781 
C 4755 698 4480 646 4141 602 
C 4326 1126 4614 2234 4768 2976 
C 4806 3155 4826 3245 4864 3360 
L 3962 3520 
z
M 954 3514 
L 954 2458 
C 525 2355 397 2336 211 2323 
L 358 1491 
C 563 1568 691 1606 954 1683 
L 954 416 
C 954 250 915 218 742 218 
C 621 218 538 224 269 256 
C 378 -38 410 -192 442 -525 
C 614 -538 704 -544 781 -544 
C 1146 -544 1350 -512 1485 -442 
C 1690 -339 1766 -160 1766 173 
L 1766 1926 
C 2042 2022 2202 2074 2253 2093 
L 2253 2829 
C 2010 2746 1946 2726 1766 2675 
L 1766 3514 
L 1965 3514 
C 2074 3514 2150 3507 2272 3494 
L 2272 4269 
C 2163 4256 2093 4250 1958 4250 
L 1766 4250 
L 1766 4742 
C 1766 5062 1773 5197 1798 5389 
L 922 5389 
C 947 5203 954 5062 954 4736 
L 954 4250 
L 736 4250 
C 570 4250 435 4262 262 4282 
L 262 3488 
C 435 3507 576 3514 723 3514 
L 954 3514 
z
" transform="scale(0.015625)"/>
      <path id="HiraginoSans-W7-5927" d="M 5190 3085 
C 5562 3085 5760 3078 6035 3046 
L 6035 3974 
C 5798 3949 5562 3936 5184 3936 
L 3597 3936 
C 3603 4154 3610 4205 3610 4378 
C 3616 4998 3616 5050 3654 5286 
L 2656 5286 
C 2688 5107 2701 4915 2701 4602 
C 2701 4384 2694 4211 2688 3936 
L 1210 3936 
C 813 3936 582 3949 358 3974 
L 358 3046 
C 589 3078 774 3085 1210 3085 
L 2611 3085 
C 2477 2125 2067 1440 1267 864 
C 934 621 666 480 179 288 
C 422 6 570 -218 710 -525 
C 1402 -218 1862 96 2349 602 
C 2771 1043 3053 1491 3245 2042 
C 3456 1542 3712 1133 4077 723 
C 4538 198 5011 -160 5728 -525 
C 5914 -134 6035 58 6285 352 
C 5536 653 5050 973 4582 1478 
C 4128 1965 3808 2509 3642 3085 
L 5190 3085 
z
" transform="scale(0.015625)"/>
      <path id="HiraginoSans-W7-975e" d="M 2074 3776 
L 2074 3219 
L 1190 3219 
C 832 3219 691 3226 512 3245 
L 512 2458 
C 691 2477 864 2483 1190 2483 
L 2061 2483 
C 2048 2285 2042 2182 2022 2022 
C 1062 1824 550 1741 192 1734 
L 339 858 
C 499 909 678 947 1133 1043 
C 1427 1107 1427 1107 1837 1216 
C 1722 979 1600 813 1395 640 
C 1152 435 934 307 486 109 
C 768 -154 896 -314 1062 -621 
C 1594 -333 1946 -77 2202 230 
C 2490 557 2688 979 2784 1466 
C 2925 1504 2989 1523 3181 1581 
L 3187 2336 
C 3034 2285 3008 2278 2880 2240 
C 2899 2509 2906 2682 2906 2918 
L 2906 4646 
C 2906 5075 2912 5222 2938 5408 
L 2022 5408 
C 2061 5178 2074 4966 2074 4685 
L 2074 4544 
L 1050 4544 
C 704 4544 544 4550 365 4576 
L 365 3750 
C 518 3770 704 3776 1050 3776 
L 2074 3776 
z
M 4326 826 
L 5446 826 
C 5786 826 5952 819 6138 794 
L 6138 1626 
C 5952 1600 5798 1594 5446 1594 
L 4326 1594 
L 4326 2349 
L 5242 2349 
C 5574 2349 5734 2342 5920 2323 
L 5920 3123 
C 5747 3104 5581 3098 5242 3098 
L 4326 3098 
L 4326 3770 
L 5363 3770 
C 5696 3770 5894 3763 6048 3744 
L 6048 4570 
C 5875 4544 5715 4538 5363 4538 
L 4326 4538 
L 4326 4602 
C 4326 4998 4333 5184 4365 5402 
L 3462 5402 
C 3494 5178 3501 5011 3501 4602 
L 3501 256 
C 3501 -166 3494 -333 3462 -550 
L 4365 -550 
C 4333 -320 4326 -160 4326 256 
L 4326 826 
z
" transform="scale(0.015625)"/>
      <path id="HiraginoSans-W7-8ca0" d="M 4288 4038 
C 4397 4141 4448 4205 4570 4352 
C 4838 4678 4870 4717 4922 4768 
L 4512 5126 
C 4378 5107 4211 5101 3872 5101 
L 2675 5101 
C 2739 5190 2765 5222 2790 5261 
C 2835 5331 2835 5331 2874 5376 
L 1946 5517 
C 1747 5005 1011 4326 198 3904 
C 365 3667 474 3456 582 3142 
C 755 3258 800 3290 998 3424 
L 998 1299 
C 998 934 992 768 973 589 
C 1190 608 1389 614 1670 614 
L 2016 614 
C 1517 358 1062 243 237 134 
C 435 -115 544 -288 685 -608 
C 1747 -390 2157 -237 2912 237 
L 2458 614 
L 4006 614 
L 3565 237 
C 3962 -6 4141 -96 4499 -237 
C 4954 -410 5235 -486 5837 -589 
C 5971 -269 6074 -83 6234 166 
C 5453 256 4915 390 4442 614 
L 4870 614 
C 5146 614 5357 608 5562 589 
C 5542 736 5536 909 5536 1299 
L 5536 3392 
C 5536 3757 5542 3878 5562 4064 
C 5325 4045 5203 4038 4851 4038 
L 4288 4038 
z
M 1766 4038 
C 1933 4198 2010 4275 2144 4416 
L 3635 4416 
C 3526 4256 3475 4198 3341 4038 
L 1766 4038 
z
M 1805 3366 
L 4730 3366 
L 4730 3078 
L 1805 3078 
L 1805 3366 
z
M 1805 2483 
L 4730 2483 
L 4730 2189 
L 1805 2189 
L 1805 2483 
z
M 1805 1581 
L 4730 1581 
L 4730 1286 
L 1805 1286 
L 1805 1581 
z
" transform="scale(0.015625)"/>
      <path id="HiraginoSans-W7-5b9f" d="M 2746 3187 
C 2746 3027 2746 3027 2739 2874 
L 1581 2874 
C 1248 2874 1139 2880 992 2899 
L 992 2182 
C 1146 2202 1254 2208 1581 2208 
L 2694 2208 
C 2675 2042 2669 2022 2643 1894 
L 1018 1894 
C 678 1894 518 1901 339 1926 
L 339 1158 
C 582 1184 806 1197 1069 1197 
L 2374 1197 
C 2202 934 1946 723 1613 563 
C 1235 371 883 282 230 211 
C 454 -109 512 -237 621 -582 
C 1325 -454 1747 -307 2202 -32 
C 2611 218 2874 486 3123 896 
C 3430 486 3789 179 4256 -64 
C 4723 -301 5075 -422 5818 -582 
C 5920 -269 6029 -32 6202 237 
C 5318 378 4845 512 4435 730 
C 4166 870 4038 979 3846 1197 
L 5344 1197 
C 5632 1197 5824 1184 6080 1158 
L 6080 1926 
C 5894 1901 5734 1894 5382 1894 
L 3475 1894 
C 3501 2035 3507 2086 3520 2208 
L 4794 2208 
C 5114 2208 5216 2202 5376 2182 
L 5376 2899 
C 5229 2880 5126 2874 4794 2874 
L 3558 2874 
C 3558 2989 3558 2989 3565 3187 
L 4832 3187 
C 5139 3187 5254 3181 5427 3162 
L 5427 3424 
L 6029 3424 
C 6010 3578 6003 3731 6003 3910 
L 6003 4448 
C 6003 4621 6010 4762 6029 4934 
C 5805 4915 5632 4909 5293 4909 
L 3584 4909 
L 3584 5011 
C 3584 5178 3597 5293 3616 5414 
L 2694 5414 
C 2720 5280 2726 5171 2726 5005 
L 2726 4909 
L 1114 4909 
C 774 4909 595 4915 378 4934 
C 397 4755 403 4595 403 4435 
L 403 3910 
C 403 3699 397 3571 371 3424 
L 973 3424 
L 973 3162 
C 1107 3181 1261 3187 1574 3187 
L 2746 3187 
z
M 5210 4192 
L 5210 3866 
C 5075 3859 5011 3859 4832 3859 
L 3571 3859 
C 3571 4109 3571 4109 3578 4192 
L 5210 4192 
z
M 2752 4192 
C 2752 4109 2752 4109 2752 3859 
L 1574 3859 
C 1395 3859 1299 3859 1203 3866 
L 1203 4192 
L 2752 4192 
z
" transform="scale(0.015625)"/>
      <path id="HiraginoSans-W7-3078" d="M 813 1190 
C 877 1274 896 1299 973 1382 
C 1306 1754 1658 2182 1958 2579 
C 2477 3277 2477 3277 2586 3277 
C 2675 3277 2739 3238 2854 3110 
C 3053 2880 3053 2880 3123 2797 
C 3558 2291 3558 2291 3699 2131 
C 4320 1446 5030 723 5562 250 
C 5677 147 5702 122 5773 45 
L 6246 1120 
C 6016 1248 5824 1402 5453 1754 
C 4768 2387 4256 2931 3597 3706 
C 3418 3917 3277 4064 3181 4141 
C 2995 4288 2797 4365 2592 4365 
C 2259 4365 1971 4186 1651 3782 
C 762 2656 493 2349 205 2144 
L 813 1190 
z
" transform="scale(0.015625)"/>
      <path id="HiraginoSans-W7-306e" d="M 3776 4038 
C 4032 4006 4186 3955 4371 3834 
C 4806 3546 5056 3066 5056 2496 
C 5056 1818 4723 1222 4173 922 
C 3872 762 3475 659 2906 614 
C 3155 282 3245 109 3379 -294 
C 3834 -218 4090 -154 4397 -32 
C 5421 371 6003 1274 6003 2438 
C 6003 3936 4979 4896 3373 4896 
C 2458 4896 1670 4576 1120 3974 
C 653 3469 403 2803 403 2074 
C 403 973 966 198 1760 198 
C 2310 198 2733 576 3091 1389 
C 3424 2131 3648 2982 3776 4038 
z
M 2842 4026 
C 2765 3341 2566 2534 2330 1965 
C 2125 1446 1926 1197 1741 1197 
C 1491 1197 1286 1587 1286 2067 
C 1286 2707 1587 3328 2074 3706 
C 2323 3898 2534 3987 2842 4026 
z
" transform="scale(0.015625)"/>
      <path id="HiraginoSans-W7-5199" d="M 4531 3270 
C 4845 3270 5024 3264 5210 3245 
L 5210 3686 
L 6035 3686 
C 6016 3866 6003 4026 6003 4256 
L 6003 4646 
C 6003 4858 6010 5011 6029 5190 
C 5843 5171 5696 5165 5389 5165 
L 1056 5165 
C 717 5165 563 5171 384 5190 
C 403 5018 410 4864 410 4627 
L 410 4205 
C 410 3949 403 3802 378 3616 
L 1216 3616 
L 1216 4422 
L 1856 4422 
C 1728 3731 1491 2944 1146 2112 
C 1363 2125 1664 2138 1875 2138 
L 4192 2138 
C 4173 1926 4166 1850 4154 1696 
L 1050 1696 
C 710 1696 493 1709 294 1734 
L 294 896 
C 499 922 730 934 1050 934 
L 4026 934 
C 3898 314 3846 262 3309 262 
C 3066 262 2893 275 2483 333 
L 2189 365 
C 2336 6 2381 -122 2432 -442 
C 2810 -474 3213 -493 3418 -493 
C 4058 -493 4352 -397 4538 -122 
C 4685 83 4794 422 4890 934 
L 5382 934 
C 5690 934 5914 922 6138 896 
L 6138 1734 
C 5933 1709 5728 1696 5382 1696 
L 4992 1696 
C 5005 1786 5005 1830 5011 1920 
C 5037 2176 5050 2342 5056 2394 
C 5062 2477 5069 2534 5069 2560 
C 5075 2733 5075 2733 5088 2810 
C 5094 2816 5094 2835 5101 2854 
C 4922 2835 4813 2829 4493 2829 
L 2246 2829 
C 2278 2899 2298 2963 2387 3270 
L 4531 3270 
z
M 2579 3981 
C 2637 4237 2675 4384 2682 4422 
L 5197 4422 
L 5197 4006 
C 5030 3987 4922 3981 4531 3981 
L 2579 3981 
z
" transform="scale(0.015625)"/>
      <path id="HiraginoSans-W7-50cf" d="M 1946 3091 
C 1946 2867 1939 2758 1926 2618 
C 2093 2630 2259 2637 2445 2637 
L 3078 2637 
C 2662 2426 2195 2278 1574 2170 
C 1741 1946 1786 1862 1901 1587 
C 2406 1728 2797 1875 3219 2099 
C 3302 2003 3322 1978 3373 1907 
C 2867 1613 2259 1382 1574 1216 
C 1741 1011 1805 896 1901 640 
C 2758 960 3136 1133 3635 1446 
C 3674 1350 3686 1312 3718 1210 
C 3085 787 2413 480 1562 230 
C 1754 -32 1824 -166 1901 -403 
C 2381 -218 2630 -102 2989 90 
C 3078 -109 3123 -294 3155 -538 
C 3437 -550 3462 -550 3526 -550 
C 3872 -550 4154 -499 4288 -410 
C 4480 -282 4582 19 4582 435 
C 4582 947 4448 1478 4205 1901 
C 4083 2112 3981 2253 3802 2445 
C 3930 2534 3968 2560 4077 2637 
L 4250 2637 
C 4403 1888 4576 1389 4826 915 
C 5101 403 5395 64 5926 -358 
C 6042 0 6138 192 6285 416 
C 5792 774 5536 1056 5306 1498 
C 5536 1658 5766 1837 6144 2163 
L 5555 2630 
C 5376 2419 5293 2342 5043 2138 
C 4979 2330 4960 2419 4915 2637 
L 5446 2637 
C 5709 2637 5818 2630 5958 2618 
C 5946 2765 5939 2886 5939 3149 
L 5939 3654 
C 5939 3885 5946 4032 5965 4179 
C 5811 4160 5683 4154 5446 4154 
L 4813 4154 
C 5011 4384 5011 4384 5139 4544 
C 5286 4742 5286 4742 5331 4781 
L 4966 5146 
C 4813 5126 4646 5120 4410 5120 
L 3680 5120 
C 3706 5165 3706 5165 3731 5203 
C 3770 5267 3782 5286 3827 5363 
L 2963 5466 
C 2854 5165 2643 4864 2304 4512 
C 2048 4256 1862 4102 1581 3930 
C 1594 3962 1600 3968 1632 4045 
C 1722 4230 1882 4653 2022 5062 
C 2035 5107 2048 5146 2048 5152 
C 2086 5242 2086 5242 2099 5280 
L 1222 5478 
C 1190 5254 1126 5011 998 4659 
C 762 4019 454 3488 77 3066 
C 218 2733 282 2515 378 2106 
C 512 2272 659 2477 762 2643 
C 749 2163 749 2067 749 1882 
L 749 198 
C 749 -115 742 -262 710 -550 
L 1587 -550 
C 1562 -275 1555 -109 1555 205 
L 1555 3846 
L 1574 3917 
C 1754 3738 1818 3661 1946 3475 
L 1946 3091 
z
M 2995 4154 
C 3091 4262 3136 4314 3258 4486 
L 4166 4486 
C 4045 4314 4006 4262 3904 4154 
L 2995 4154 
z
M 3808 589 
C 3814 557 3814 538 3814 525 
C 3814 166 3744 83 3443 83 
C 3334 83 3309 83 3040 115 
C 3341 275 3590 429 3808 589 
z
M 2720 3590 
L 3514 3590 
L 3514 3181 
L 2720 3181 
L 2720 3590 
z
M 4282 3590 
L 5139 3590 
L 5139 3181 
L 4282 3181 
L 4282 3590 
z
" transform="scale(0.015625)"/>
     </defs>
     <use xlink:href="#HiraginoSans-W7-6e2c" transform="translate(0 0.796875)"/>
     <use xlink:href="#HiraginoSans-W7-5ea6" transform="translate(99.999985 0.796875)"/>
     <use xlink:href="#HiraginoSans-W7-20" transform="translate(199.999969 0.796875)"/>
     <use xlink:href="#DejaVuSans-Oblique-3bc" transform="translate(233.299957 0.796875)"/>
     <use xlink:href="#HiraginoSans-W7-ff1a" transform="translate(296.923004 0.796875)"/>
     <use xlink:href="#DejaVuSans-Oblique-3c3" transform="translate(396.922989 0.796875)"/>
     <use xlink:href="#HiraginoSans-W7-2d" transform="translate(460.301895 0.796875)"/>
     <use xlink:href="#HiraginoSans-W7-4ee3" transform="translate(504.501892 0.796875)"/>
     <use xlink:href="#HiraginoSans-W7-6570" transform="translate(604.501877 0.796875)"/>
     <use xlink:href="#HiraginoSans-W7-304b" transform="translate(704.501862 0.796875)"/>
     <use xlink:href="#HiraginoSans-W7-3089" transform="translate(804.501846 0.796875)"/>
     <use xlink:href="#HiraginoSans-W7-62e1" transform="translate(904.501831 0.796875)"/>
     <use xlink:href="#HiraginoSans-W7-5927" transform="translate(1004.501816 0.796875)"/>
     <use xlink:href="#HiraginoSans-W7-975e" transform="translate(1104.501801 0.796875)"/>
     <use xlink:href="#HiraginoSans-W7-8ca0" transform="translate(1204.501785 0.796875)"/>
     <use xlink:href="#HiraginoSans-W7-5b9f" transform="translate(1304.50177 0.796875)"/>
     <use xlink:href="#HiraginoSans-W7-6570" transform="translate(1404.501755 0.796875)"/>
     <use xlink:href="#HiraginoSans-W7-3078" transform="translate(1504.50174 0.796875)"/>
     <use xlink:href="#HiraginoSans-W7-306e" transform="translate(1604.501724 0.796875)"/>
     <use xlink:href="#HiraginoSans-W7-5199" transform="translate(1704.501709 0.796875)"/>
     <use xlink:href="#HiraginoSans-W7-50cf" transform="translate(1804.501694 0.796875)"/>
    </g>
   </g>
  </g>
 </g>
 <defs>
  <clipPath id="p57e023f3cd">
   <rect x="7.2" y="26.77" width="390.6" height="277.2"/>
  </clipPath>
 </defs>
</svg>
