<?xml version="1.0" encoding="utf-8" standalone="no"?>
<!DOCTYPE svg PUBLIC "-//W3C//DTD SVG 1.1//EN"
  "http://www.w3.org/Graphics/SVG/1.1/DTD/svg11.dtd">
<svg xmlns:xlink="http://www.w3.org/1999/xlink" width="628.2pt" height="430.2pt" viewBox="0 0 628.2 430.2" xmlns="http://www.w3.org/2000/svg" version="1.1">
 <metadata>
  <rdf:RDF xmlns:dc="http://purl.org/dc/elements/1.1/" xmlns:cc="http://creativecommons.org/ns#" xmlns:rdf="http://www.w3.org/1999/02/22-rdf-syntax-ns#">
   <cc:Work>
    <dc:type rdf:resource="http://purl.org/dc/dcmitype/StillImage"/>
    <dc:date>2026-03-29T22:58:45.026510</dc:date>
    <dc:format>image/svg+xml</dc:format>
    <dc:creator>
     <cc:Agent>
      <dc:title>Matplotlib v3.10.8, https://matplotlib.org/</dc:title>
     </cc:Agent>
    </dc:creator>
   </cc:Work>
  </rdf:RDF>
 </metadata>
 <defs>
  <style type="text/css">*{stroke-linejoin: round; stroke-linecap: butt}</style>
 </defs>
 <g id="figure_1">
  <g id="patch_1">
   <path d="M 0 430.2 
L 628.2 430.2 
L 628.2 0 
L 0 0 
z
" style="fill: #ffffff"/>
  </g>
  <g id="axes_1">
   <g id="patch_2">
    <path d="M 312.128064 108.433866 
Q 202.501416 126.950161 94.528398 145.187152 
" style="fill: none; stroke: #64748b; stroke-width: 1.5; stroke-linecap: round"/>
    <path d="M 98.805622 146.493043 
L 94.528398 145.187152 
L 98.139445 142.548907 
" style="fill: none; stroke: #64748b; stroke-width: 1.5; stroke-linecap: round"/>
   </g>
   <g id="patch_3">
    <path d="M 314.1 110.10265 
Q 314.1 126.951259 314.1 142.122817 
" style="fill: none; stroke: #64748b; stroke-width: 1.5; stroke-linecap: round"/>
    <path d="M 316.1 138.122817 
L 314.1 142.122817 
L 312.1 138.122817 
" style="fill: none; stroke: #64748b; stroke-width: 1.5; stroke-linecap: round"/>
   </g>
   <g id="patch_4">
    <path d="M 316.071936 108.433866 
Q 425.698584 126.950161 533.671602 145.187152 
" style="fill: none; stroke: #64748b; stroke-width: 1.5; stroke-linecap: round"/>
    <path d="M 530.060555 142.548907 
L 533.671602 145.187152 
L 529.394378 146.493043 
" style="fill: none; stroke: #64748b; stroke-width: 1.5; stroke-linecap: round"/>
   </g>
   <g id="patch_5">
    <path d="M 92.831067 251.654024 
Q 202.498225 281.073124 310.545601 310.057704 
" style="fill: none; stroke: #64748b; stroke-width: 1.5; stroke-linecap: round"/>
    <path d="M 307.200391 307.089612 
L 310.545601 310.057704 
L 306.164001 310.953017 
" style="fill: none; stroke: #64748b; stroke-width: 1.5; stroke-linecap: round"/>
   </g>
   <g id="patch_6">
    <path d="M 314.1 253.135007 
Q 314.1 281.071645 314.1 307.331231 
" style="fill: none; stroke: #64748b; stroke-width: 1.5; stroke-linecap: round"/>
    <path d="M 316.1 303.331231 
L 314.1 307.331231 
L 312.1 303.331231 
" style="fill: none; stroke: #64748b; stroke-width: 1.5; stroke-linecap: round"/>
   </g>
   <g id="patch_7">
    <path d="M 535.368933 251.654024 
Q 425.701775 281.073124 317.654399 310.057704 
" style="fill: none; stroke: #64748b; stroke-width: 1.5; stroke-linecap: round"/>
    <path d="M 322.035999 310.953017 
L 317.654399 310.057704 
L 320.999609 307.089612 
" style="fill: none; stroke: #64748b; stroke-width: 1.5; stroke-linecap: round"/>
   </g>
   <g id="text_1">
    <!-- 次元定理の証明構造図 -->
    <g style="fill: #1e293b" transform="translate(244.1 33.456781) scale(0.14 -0.14)">
     <defs>
      <path id="HiraginoSans-W7-6b21" d="M 3469 4493 
C 3501 4576 3514 4621 3539 4685 
C 3699 5107 3712 5139 3763 5254 
L 2861 5414 
C 2650 4429 2214 3667 1523 3053 
C 1798 2842 1952 2682 2150 2419 
C 2624 2918 2822 3194 3117 3738 
L 5094 3738 
C 4890 3238 4717 2970 4365 2579 
C 4627 2451 4794 2342 5088 2099 
C 5510 2682 5696 3034 6003 3834 
C 6054 3949 6067 3987 6112 4090 
L 5658 4525 
C 5517 4506 5325 4493 5043 4493 
L 3469 4493 
z
M 288 4621 
C 774 4230 986 4019 1376 3520 
L 2035 4141 
C 1645 4576 1414 4794 954 5171 
L 288 4621 
z
M 1677 2579 
C 1363 2125 1069 1779 723 1434 
C 480 1197 314 1050 179 979 
L 755 192 
C 813 256 845 288 954 403 
C 1459 896 1856 1376 2221 1920 
L 1677 2579 
z
M 3219 3494 
C 3238 3392 3245 3315 3245 3206 
C 3245 2240 2931 1446 2342 902 
C 1984 576 1690 390 1190 186 
C 1402 -32 1542 -243 1677 -544 
C 2246 -275 2611 -26 2944 326 
C 3264 666 3520 1094 3680 1562 
C 3872 1056 4141 672 4582 269 
C 4941 -64 5190 -237 5741 -531 
C 5888 -192 6035 58 6240 301 
C 5914 429 5760 499 5581 602 
C 5293 762 5011 979 4832 1178 
C 4646 1376 4390 1754 4294 1958 
C 4179 2214 4083 2797 4083 3264 
C 4083 3341 4090 3405 4102 3494 
L 3219 3494 
z
" transform="scale(0.015625)"/>
      <path id="HiraginoSans-W7-5143" d="M 1830 2758 
C 1824 2054 1747 1613 1568 1254 
C 1331 781 928 454 224 179 
C 410 -13 608 -294 762 -589 
C 1126 -410 1293 -320 1485 -179 
C 1875 102 2163 454 2355 890 
C 2566 1370 2669 1984 2675 2758 
L 3494 2758 
L 3494 179 
C 3494 -32 3526 -147 3616 -237 
C 3757 -378 4038 -435 4621 -435 
C 5491 -435 5786 -358 5939 -83 
C 6067 141 6112 378 6170 1229 
C 5862 1280 5670 1344 5363 1485 
C 5350 1133 5318 723 5286 595 
C 5242 397 5139 352 4755 352 
C 4390 352 4333 378 4333 538 
L 4333 2758 
L 5331 2758 
C 5632 2758 5850 2746 6067 2720 
L 6067 3597 
C 5843 3571 5645 3558 5331 3558 
L 1056 3558 
C 755 3558 557 3571 320 3597 
L 320 2720 
C 538 2746 755 2758 1056 2758 
L 1830 2758 
z
M 5472 5158 
C 5299 5133 5107 5120 4794 5120 
L 1619 5120 
C 1312 5120 1114 5133 934 5158 
L 934 4275 
C 1120 4294 1306 4307 1594 4307 
L 4813 4307 
C 5082 4307 5299 4294 5472 4275 
L 5472 5158 
z
" transform="scale(0.015625)"/>
      <path id="HiraginoSans-W7-5b9a" d="M 2893 608 
C 2490 787 2266 986 2016 1402 
C 2112 1715 2195 2010 2272 2330 
L 1434 2483 
C 1395 2086 1210 1498 998 1101 
C 781 698 563 403 218 70 
C 512 -141 666 -294 870 -563 
C 1235 -173 1453 147 1696 627 
C 1971 256 2291 13 2714 -160 
C 3149 -333 3795 -416 4698 -416 
C 5043 -416 5427 -410 5978 -397 
C 6016 -51 6061 134 6176 461 
C 5472 403 5062 384 4640 384 
C 4256 384 3987 397 3693 429 
L 3693 1376 
L 4870 1376 
C 5171 1376 5325 1370 5517 1344 
L 5517 2144 
C 5338 2118 5190 2112 4870 2112 
L 3693 2112 
L 3693 2816 
L 4646 2816 
C 4954 2816 5126 2810 5312 2784 
L 5312 3264 
L 6029 3264 
C 6003 3443 5997 3603 5997 3795 
L 5997 4346 
C 5997 4531 6003 4666 6022 4832 
C 5773 4813 5542 4806 5286 4806 
L 3603 4806 
L 3603 4998 
C 3603 5165 3610 5261 3635 5402 
L 2714 5402 
C 2739 5261 2746 5158 2746 4992 
L 2746 4806 
L 1126 4806 
C 870 4806 640 4813 390 4832 
C 410 4672 416 4512 416 4346 
L 416 3802 
C 416 3565 410 3424 384 3264 
L 1114 3264 
L 1114 2784 
C 1293 2810 1485 2816 1779 2816 
L 2893 2816 
L 2893 608 
z
M 5203 3571 
C 5043 3558 4883 3552 4646 3552 
L 1779 3552 
C 1536 3552 1376 3558 1222 3571 
L 1222 4051 
L 5203 4051 
L 5203 3571 
z
" transform="scale(0.015625)"/>
      <path id="HiraginoSans-W7-7406" d="M 3789 371 
L 2726 371 
C 2381 371 2240 378 2054 403 
L 2054 -403 
C 2291 -371 2470 -365 2835 -365 
L 5440 -365 
C 5805 -365 5990 -371 6202 -403 
L 6202 403 
C 6029 378 5856 371 5504 371 
L 4550 371 
L 4550 864 
L 5306 864 
C 5645 864 5805 858 5997 832 
L 5997 1619 
C 5818 1594 5670 1587 5299 1587 
L 4550 1587 
L 4550 2042 
L 5286 2042 
C 5664 2042 5760 2042 5952 2022 
C 5926 2221 5920 2438 5920 2899 
L 5920 4307 
C 5920 4710 5933 5030 5952 5216 
C 5792 5190 5600 5184 5120 5184 
L 3322 5184 
C 2899 5184 2707 5190 2432 5216 
C 2464 4998 2470 4794 2470 4333 
L 2470 2842 
C 2470 2432 2464 2170 2438 2022 
C 2618 2035 2778 2042 3200 2042 
L 3789 2042 
L 3789 1587 
L 3123 1587 
C 2720 1587 2592 1594 2438 1613 
L 2438 838 
C 2605 858 2739 864 3130 864 
L 3789 864 
L 3789 371 
z
M 3789 4448 
L 3789 3930 
L 3232 3930 
L 3232 4448 
L 3789 4448 
z
M 4550 4448 
L 5126 4448 
L 5126 3930 
L 4550 3930 
L 4550 4448 
z
M 3789 3283 
L 3789 2752 
L 3232 2752 
L 3232 3283 
L 3789 3283 
z
M 4550 3283 
L 5126 3283 
L 5126 2752 
L 4550 2752 
L 4550 3283 
z
M 915 4371 
L 915 3245 
L 787 3245 
C 582 3245 480 3251 326 3270 
L 326 2496 
C 467 2515 582 2522 768 2522 
L 915 2522 
L 915 1126 
C 467 966 397 947 179 902 
L 378 38 
C 435 70 467 83 512 102 
C 1389 461 1773 627 2298 890 
L 2285 1696 
C 2016 1562 1926 1523 1709 1434 
L 1709 2522 
L 1805 2522 
C 1952 2522 2080 2515 2208 2502 
L 2208 3270 
C 2067 3251 1971 3245 1805 3245 
L 1709 3245 
L 1709 4371 
L 1850 4371 
C 2022 4371 2157 4365 2310 4346 
L 2310 5146 
C 2150 5126 1978 5114 1722 5114 
L 845 5114 
C 589 5114 403 5126 250 5146 
L 250 4346 
C 410 4365 531 4371 710 4371 
L 915 4371 
z
" transform="scale(0.015625)"/>
      <path id="HiraginoSans-W7-306e" d="M 3776 4038 
C 4032 4006 4186 3955 4371 3834 
C 4806 3546 5056 3066 5056 2496 
C 5056 1818 4723 1222 4173 922 
C 3872 762 3475 659 2906 614 
C 3155 282 3245 109 3379 -294 
C 3834 -218 4090 -154 4397 -32 
C 5421 371 6003 1274 6003 2438 
C 6003 3936 4979 4896 3373 4896 
C 2458 4896 1670 4576 1120 3974 
C 653 3469 403 2803 403 2074 
C 403 973 966 198 1760 198 
C 2310 198 2733 576 3091 1389 
C 3424 2131 3648 2982 3776 4038 
z
M 2842 4026 
C 2765 3341 2566 2534 2330 1965 
C 2125 1446 1926 1197 1741 1197 
C 1491 1197 1286 1587 1286 2067 
C 1286 2707 1587 3328 2074 3706 
C 2323 3898 2534 3987 2842 4026 
z
" transform="scale(0.015625)"/>
      <path id="HiraginoSans-W7-8a3c" d="M 4224 435 
L 3725 435 
L 3725 2822 
C 3725 3187 3731 3366 3757 3565 
L 2906 3565 
C 2931 3334 2938 3168 2938 2822 
L 2938 435 
C 2778 442 2714 442 2605 461 
L 2605 -384 
C 2810 -358 3021 -346 3347 -346 
L 5446 -346 
C 5754 -346 5978 -358 6208 -384 
L 6208 474 
C 5978 448 5741 435 5466 435 
L 5024 435 
L 5024 2170 
L 5434 2170 
C 5728 2170 5869 2163 6061 2138 
L 6061 2982 
C 5862 2957 5747 2950 5434 2950 
L 5024 2950 
L 5024 4390 
L 5382 4390 
C 5690 4390 5933 4378 6144 4352 
L 6144 5210 
C 5939 5184 5702 5171 5376 5171 
L 3520 5171 
C 3187 5171 2957 5184 2752 5210 
L 2752 4352 
C 2963 4378 3200 4390 3520 4390 
L 4224 4390 
L 4224 435 
z
M 416 4608 
C 576 4621 717 4627 973 4627 
L 1926 4627 
C 2189 4627 2323 4621 2483 4608 
L 2483 5280 
C 2310 5261 2202 5254 1926 5254 
L 973 5254 
C 698 5254 589 5261 416 5280 
L 416 4608 
z
M 218 3616 
C 365 3635 512 3642 736 3642 
L 2131 3642 
C 2419 3642 2490 3642 2624 3622 
L 2624 4371 
C 2477 4352 2368 4346 2106 4346 
L 736 4346 
C 493 4346 371 4352 218 4378 
L 218 3616 
z
M 435 2701 
C 557 2714 640 2720 838 2720 
L 2067 2720 
C 2253 2720 2336 2714 2458 2701 
L 2458 3366 
C 2349 3354 2272 3347 2067 3347 
L 838 3347 
C 640 3347 544 3354 435 3366 
L 435 2701 
z
M 435 1805 
C 557 1818 640 1824 832 1824 
L 2054 1824 
C 2259 1824 2330 1824 2458 1805 
L 2458 2470 
C 2349 2451 2278 2451 2067 2451 
L 838 2451 
C 634 2451 563 2451 435 2470 
L 435 1805 
z
M 1152 -550 
L 1152 -269 
L 1722 -269 
L 1722 -461 
L 2451 -461 
C 2438 -339 2438 -250 2438 19 
L 2438 1107 
C 2438 1344 2438 1434 2451 1555 
C 2349 1536 2278 1536 2042 1536 
L 870 1536 
C 678 1536 525 1542 390 1555 
C 410 1382 416 1267 416 1062 
L 416 70 
C 416 -147 403 -358 384 -550 
L 1152 -550 
z
M 1139 915 
L 1722 915 
L 1722 384 
L 1139 384 
L 1139 915 
z
" transform="scale(0.015625)"/>
      <path id="HiraginoSans-W7-660e" d="M 2758 832 
C 2579 506 2419 307 2074 0 
C 2323 -160 2496 -320 2720 -595 
C 3328 -32 3642 550 3821 1440 
L 5139 1440 
L 5139 474 
C 5139 333 5088 294 4890 294 
C 4730 294 4544 314 4237 352 
C 4346 77 4403 -147 4442 -486 
C 4640 -493 4730 -493 4787 -493 
C 5299 -493 5536 -461 5690 -365 
C 5875 -243 5958 -45 5958 301 
L 5958 4448 
C 5958 4832 5965 5024 5984 5197 
C 5792 5171 5638 5165 5261 5165 
L 3878 5165 
C 3520 5165 3366 5171 3130 5197 
C 3155 4902 3168 4531 3168 3731 
C 3168 2278 3059 1466 2784 883 
C 2778 928 2771 1312 2771 1446 
L 2771 4467 
C 2771 4730 2778 4890 2790 5037 
C 2618 5024 2490 5018 2246 5018 
L 1088 5018 
C 755 5018 602 5024 435 5037 
C 454 4832 461 4672 461 4365 
L 461 1344 
C 461 998 448 755 422 544 
L 1254 544 
L 1254 1005 
L 2003 1005 
L 2003 832 
L 2758 832 
z
M 5139 2944 
L 5139 2189 
L 3923 2189 
C 3949 2470 3955 2534 3974 2944 
L 5139 2944 
z
M 5139 3674 
L 3987 3674 
L 3987 4397 
L 5139 4397 
L 5139 3674 
z
M 1248 4269 
L 2003 4269 
L 2003 3411 
L 1248 3411 
L 1248 4269 
z
M 1248 2694 
L 2003 2694 
L 2003 1741 
L 1248 1741 
L 1248 2694 
z
" transform="scale(0.015625)"/>
      <path id="HiraginoSans-W7-69cb" d="M 2317 1120 
C 2157 1120 2061 1126 1965 1139 
L 1965 429 
C 2067 448 2157 454 2317 454 
L 2317 262 
C 2317 -173 2310 -307 2285 -570 
L 3078 -570 
C 3059 -339 3053 -198 3053 262 
L 3053 454 
L 5024 454 
L 5024 224 
C 5024 109 4979 90 4768 90 
C 4634 90 4512 102 4262 134 
C 4352 -83 4384 -230 4403 -512 
C 4749 -525 4787 -525 4870 -525 
C 5606 -525 5754 -416 5754 115 
L 5754 454 
C 5946 448 6003 448 6144 429 
L 6144 1146 
C 6016 1126 5939 1120 5754 1120 
L 5754 2010 
C 5754 2298 5760 2445 5779 2630 
C 5626 2611 5472 2605 5197 2605 
L 4384 2605 
L 4384 2835 
L 5530 2835 
C 5792 2835 5933 2829 6125 2803 
L 6125 3469 
C 5933 3443 5779 3437 5536 3437 
L 5158 3437 
L 5158 3667 
L 5408 3667 
C 5645 3667 5734 3661 5869 3642 
L 5869 4205 
C 5741 4186 5555 4179 5402 4179 
L 5158 4179 
L 5158 4403 
L 5510 4403 
C 5760 4403 5875 4397 6035 4378 
L 6035 4992 
C 5856 4973 5702 4960 5510 4960 
L 5158 4960 
C 5158 5165 5165 5261 5197 5382 
L 4384 5382 
C 4416 5274 4422 5210 4422 4960 
L 3654 4960 
C 3654 5197 3661 5274 3699 5382 
L 2880 5382 
C 2912 5261 2918 5203 2918 4960 
L 2701 4960 
C 2490 4960 2349 4966 2189 4992 
L 2189 4378 
C 2349 4397 2502 4403 2714 4403 
L 2918 4403 
L 2918 4179 
L 2784 4179 
C 2598 4179 2464 4186 2317 4205 
L 2317 3648 
C 2432 3661 2566 3667 2778 3667 
L 2918 3667 
L 2918 3437 
L 2624 3437 
C 2381 3437 2227 3443 2093 3462 
L 2093 2867 
C 1933 3104 1830 3302 1747 3533 
L 1818 3533 
C 1952 3533 2042 3526 2163 3507 
L 2163 4294 
C 2035 4275 1965 4269 1798 4269 
L 1690 4269 
L 1690 4749 
C 1690 5043 1696 5235 1722 5414 
L 877 5414 
C 902 5242 915 5069 915 4742 
L 915 4269 
L 672 4269 
C 467 4269 378 4275 256 4301 
L 256 3501 
C 371 3526 486 3533 672 3533 
L 851 3533 
C 723 2899 435 2208 64 1677 
C 256 1408 358 1229 480 947 
C 672 1261 787 1510 960 2029 
C 934 1779 922 1478 922 1248 
L 922 230 
C 922 -83 909 -365 877 -576 
L 1728 -576 
C 1702 -358 1690 -102 1690 230 
L 1690 1696 
C 1683 2099 1677 2355 1664 2470 
C 1766 2214 1850 2067 1984 1888 
C 2080 2112 2176 2266 2310 2438 
C 2317 2298 2317 2234 2317 2048 
L 2317 1120 
z
M 3053 1075 
L 3053 1331 
L 3667 1331 
L 3667 1075 
L 3053 1075 
z
M 3053 1811 
L 3053 2061 
L 3667 2061 
L 3667 1811 
L 3053 1811 
z
M 4365 1075 
L 4365 1331 
L 5024 1331 
L 5024 1075 
L 4365 1075 
z
M 4365 1811 
L 4365 2061 
L 5024 2061 
L 5024 1811 
L 4365 1811 
z
M 3648 2835 
L 3648 2605 
L 2848 2605 
C 2630 2605 2451 2611 2310 2618 
C 2221 2701 2195 2726 2131 2810 
C 2266 2829 2464 2835 2662 2835 
L 3648 2835 
z
M 3654 3437 
L 3654 3667 
L 4422 3667 
L 4422 3437 
L 3654 3437 
z
M 3654 4179 
L 3654 4403 
L 4422 4403 
L 4422 4179 
L 3654 4179 
z
" transform="scale(0.015625)"/>
      <path id="HiraginoSans-W7-9020" d="M 2003 2778 
C 2189 2797 2342 2803 2534 2803 
L 5485 2803 
C 5709 2803 5875 2797 6080 2771 
L 6080 3539 
C 5926 3520 5779 3514 5485 3514 
L 4467 3514 
L 4467 3981 
L 5197 3981 
C 5510 3981 5683 3974 5882 3955 
L 5882 4730 
C 5690 4704 5498 4691 5165 4691 
L 4467 4691 
L 4467 4832 
C 4467 5133 4474 5261 4499 5395 
L 3654 5395 
C 3680 5248 3686 5120 3686 4832 
L 3686 4691 
L 3226 4691 
C 3264 4800 3347 5024 3360 5056 
C 3386 5133 3386 5133 3405 5178 
L 2605 5318 
C 2547 4909 2272 4390 1869 3923 
C 2176 3782 2298 3706 2554 3514 
C 2266 3514 2163 3520 2003 3539 
L 2003 2778 
z
M 2592 3514 
C 2752 3744 2784 3795 2893 3981 
L 3686 3981 
L 3686 3514 
L 2592 3514 
z
M 5107 646 
C 5414 646 5542 640 5728 627 
C 5709 781 5709 845 5709 1235 
L 5709 1862 
C 5709 2272 5709 2368 5728 2528 
C 5542 2509 5363 2502 5069 2502 
L 3046 2502 
C 2714 2502 2534 2509 2349 2528 
C 2362 2400 2362 2400 2368 1965 
L 2368 1498 
C 2368 781 2368 774 2349 627 
C 2502 640 2618 646 2886 646 
L 5107 646 
z
M 3136 1811 
L 4909 1811 
L 4909 1338 
L 3136 1338 
L 3136 1811 
z
M 250 4781 
C 627 4448 1030 4006 1325 3610 
L 1978 4230 
C 1670 4602 1312 4960 870 5344 
L 250 4781 
z
M 262 2170 
C 416 2189 544 2202 678 2202 
L 992 2202 
L 992 896 
C 774 723 685 659 480 531 
C 403 486 352 454 339 442 
C 275 403 205 371 128 339 
L 493 -531 
C 550 -486 640 -416 685 -384 
C 954 -205 1120 -70 1389 173 
C 1606 -96 1805 -230 2138 -333 
C 2477 -442 2880 -474 3936 -474 
C 4621 -474 5594 -454 6099 -435 
C 6150 -58 6170 32 6310 435 
C 5555 339 4704 301 3462 301 
C 2842 301 2496 346 2227 454 
C 2022 538 1926 621 1798 838 
L 1798 2278 
C 1798 2637 1805 2790 1824 2989 
C 1651 2970 1536 2963 1338 2963 
L 787 2963 
C 538 2963 435 2970 262 2995 
L 262 2170 
z
" transform="scale(0.015625)"/>
      <path id="HiraginoSans-W7-56f3" d="M 3910 3283 
C 3731 3750 3629 3968 3379 4358 
L 2720 4090 
C 2944 3712 3072 3437 3226 2995 
L 3910 3283 
z
M 1267 -525 
L 1267 -192 
L 5139 -192 
L 5139 -525 
L 5997 -525 
C 5971 -339 5958 -51 5958 333 
L 5958 4435 
C 5958 4762 5965 4934 5990 5197 
C 5754 5171 5568 5165 5242 5165 
L 1158 5165 
C 826 5165 640 5171 410 5197 
C 435 4954 442 4742 442 4435 
L 442 333 
C 442 -90 429 -320 403 -525 
L 1267 -525 
z
M 1267 550 
L 1267 4422 
L 5133 4422 
L 5133 550 
L 2042 550 
C 2560 794 2912 1024 3328 1382 
C 3814 1082 4006 947 4474 582 
L 4979 1280 
C 4614 1530 4288 1734 3910 1952 
C 4320 2419 4614 2867 4896 3482 
C 4979 3661 5011 3712 5094 3840 
L 4314 4186 
C 4269 4019 4262 3987 4211 3859 
C 4019 3373 3635 2790 3200 2336 
C 2784 2547 2618 2630 2253 2790 
L 2758 3027 
C 2560 3488 2464 3661 2170 4102 
L 1504 3808 
C 1747 3437 1843 3264 2003 2899 
L 1830 2970 
L 1376 2342 
C 1958 2118 2221 2003 2611 1798 
C 2272 1542 2074 1434 1510 1203 
C 1747 960 1843 826 1971 550 
L 1267 550 
z
" transform="scale(0.015625)"/>
     </defs>
     <use xlink:href="#HiraginoSans-W7-6b21"/>
     <use xlink:href="#HiraginoSans-W7-5143" transform="translate(99.999985 0)"/>
     <use xlink:href="#HiraginoSans-W7-5b9a" transform="translate(199.999969 0)"/>
     <use xlink:href="#HiraginoSans-W7-7406" transform="translate(299.999954 0)"/>
     <use xlink:href="#HiraginoSans-W7-306e" transform="translate(399.999939 0)"/>
     <use xlink:href="#HiraginoSans-W7-8a3c" transform="translate(499.999924 0)"/>
     <use xlink:href="#HiraginoSans-W7-660e" transform="translate(599.999908 0)"/>
     <use xlink:href="#HiraginoSans-W7-69cb" transform="translate(699.999893 0)"/>
     <use xlink:href="#HiraginoSans-W7-9020" transform="translate(799.999878 0)"/>
     <use xlink:href="#HiraginoSans-W7-56f3" transform="translate(899.999863 0)"/>
    </g>
   </g>
   <g id="patch_8">
    <path d="M 167.346 108.1008 
L 460.854 108.1008 
Q 464.76 108.1008 464.76 104.22 
L 464.76 65.412 
Q 464.76 61.5312 460.854 61.5312 
L 167.346 61.5312 
Q 163.44 61.5312 163.44 65.412 
L 163.44 104.22 
Q 163.44 108.1008 167.346 108.1008 
z
" clip-path="url(#p835b2f8e20)" style="fill: #2563eb"/>
   </g>
   <g id="patch_9">
    <path d="M 4.968 187.38 
L 176.832 187.38 
Q 180.18 187.38 180.18 184.0536 
L 180.18 149.1264 
Q 180.18 145.8 176.832 145.8 
L 4.968 145.8 
Q 1.62 145.8 1.62 149.1264 
L 1.62 184.0536 
Q 1.62 187.38 4.968 187.38 
z
" clip-path="url(#p835b2f8e20)" style="fill: #7c3aed"/>
   </g>
   <g id="patch_10">
    <path d="M 4.968 251.136 
L 176.832 251.136 
Q 180.18 251.136 180.18 247.8096 
L 180.18 193.4784 
Q 180.18 190.152 176.832 190.152 
L 4.968 190.152 
Q 1.62 190.152 1.62 193.4784 
L 1.62 247.8096 
Q 1.62 251.136 4.968 251.136 
z
" clip-path="url(#p835b2f8e20)" style="fill: #f5f3ff; stroke: #7c3aed; stroke-width: 1.5; stroke-linejoin: miter"/>
   </g>
   <g id="patch_11">
    <path d="M 228.168 187.38 
L 400.032 187.38 
Q 403.38 187.38 403.38 184.0536 
L 403.38 149.1264 
Q 403.38 145.8 400.032 145.8 
L 228.168 145.8 
Q 224.82 145.8 224.82 149.1264 
L 224.82 184.0536 
Q 224.82 187.38 228.168 187.38 
z
" clip-path="url(#p835b2f8e20)" style="fill: #059669"/>
   </g>
   <g id="patch_12">
    <path d="M 228.168 251.136 
L 400.032 251.136 
Q 403.38 251.136 403.38 247.8096 
L 403.38 193.4784 
Q 403.38 190.152 400.032 190.152 
L 228.168 190.152 
Q 224.82 190.152 224.82 193.4784 
L 224.82 247.8096 
Q 224.82 251.136 228.168 251.136 
z
" clip-path="url(#p835b2f8e20)" style="fill: #f0fdf4; stroke: #059669; stroke-width: 1.5; stroke-linejoin: miter"/>
   </g>
   <g id="patch_13">
    <path d="M 451.368 187.38 
L 623.232 187.38 
Q 626.58 187.38 626.58 184.0536 
L 626.58 149.1264 
Q 626.58 145.8 623.232 145.8 
L 451.368 145.8 
Q 448.02 145.8 448.02 149.1264 
L 448.02 184.0536 
Q 448.02 187.38 451.368 187.38 
z
" clip-path="url(#p835b2f8e20)" style="fill: #d97706"/>
   </g>
   <g id="patch_14">
    <path d="M 451.368 251.136 
L 623.232 251.136 
Q 626.58 251.136 626.58 247.8096 
L 626.58 193.4784 
Q 626.58 190.152 623.232 190.152 
L 451.368 190.152 
Q 448.02 190.152 448.02 193.4784 
L 448.02 247.8096 
Q 448.02 251.136 451.368 251.136 
z
" clip-path="url(#p835b2f8e20)" style="fill: #fffbeb; stroke: #d97706; stroke-width: 1.5; stroke-linejoin: miter"/>
   </g>
   <g id="patch_15">
    <path d="M 167.346 357.5808 
L 460.854 357.5808 
Q 464.76 357.5808 464.76 353.7 
L 464.76 314.892 
Q 464.76 311.0112 460.854 311.0112 
L 167.346 311.0112 
Q 163.44 311.0112 163.44 314.892 
L 163.44 353.7 
Q 163.44 357.5808 167.346 357.5808 
z
" clip-path="url(#p835b2f8e20)" style="fill: #dcfce7; stroke: #059669; stroke-width: 2; stroke-linejoin: miter"/>
   </g>
   <g id="text_2">
    <!-- 使用タクティク: have · exact · apply · simp · linarith · finrank_add_finrank_compl -->
    <g style="fill: #64748b" transform="translate(145.841172 381.329484) scale(0.085 -0.085)">
     <defs>
      <path id="HiraginoSans-W4-4f7f" d="M 3552 1875 
C 3488 1530 3424 1338 3302 1107 
C 3072 1318 2899 1523 2816 1702 
L 2400 1466 
C 2426 1434 2438 1421 2451 1408 
C 2547 1286 2618 1203 2662 1158 
C 2771 1024 2899 890 3046 755 
C 2733 422 2298 192 1568 -38 
C 1677 -160 1766 -288 1862 -467 
C 2618 -173 3034 90 3392 486 
C 4096 6 4883 -275 5926 -422 
C 5971 -256 6061 -70 6144 77 
C 5094 166 4307 410 3654 838 
C 3834 1146 3923 1421 4006 1875 
L 5120 1875 
C 5402 1875 5568 1869 5747 1850 
C 5728 1978 5728 2093 5728 2381 
L 5728 3168 
C 5728 3366 5734 3526 5747 3667 
C 5568 3654 5434 3648 5146 3648 
L 4128 3648 
C 4134 3885 4134 3885 4134 4230 
L 5478 4230 
C 5734 4230 5894 4224 6086 4198 
L 6086 4704 
C 5888 4678 5690 4666 5427 4666 
L 4134 4666 
C 4134 5050 4141 5197 4166 5376 
L 3629 5376 
C 3661 5171 3667 5043 3667 4666 
L 2541 4666 
C 2304 4666 2086 4678 1907 4704 
L 1907 4198 
C 2080 4224 2246 4230 2502 4230 
L 3674 4230 
L 3674 4083 
C 3674 3923 3674 3776 3674 3648 
L 2637 3648 
C 2323 3648 2221 3654 2054 3667 
C 2074 3520 2080 3437 2080 3194 
L 2080 2310 
C 2080 2138 2074 1997 2054 1850 
C 2227 1869 2381 1875 2605 1875 
L 3552 1875 
z
M 3661 3219 
C 3648 2816 3642 2656 3610 2304 
L 2541 2304 
L 2541 3219 
L 3661 3219 
z
M 5261 3219 
L 5261 2304 
L 4064 2304 
C 4096 2650 4102 2829 4115 3219 
L 5261 3219 
z
M 928 262 
C 928 -64 915 -256 890 -499 
L 1434 -499 
C 1408 -275 1402 -32 1402 250 
L 1402 3789 
C 1606 4250 1670 4422 1830 4902 
C 1875 5037 1894 5101 1946 5248 
L 1421 5382 
C 1376 5075 1318 4858 1184 4480 
C 922 3770 570 3149 141 2669 
C 262 2515 326 2400 410 2202 
C 672 2554 794 2746 947 3053 
C 928 2707 928 2573 928 2298 
L 928 262 
z
" transform="scale(0.015625)"/>
      <path id="HiraginoSans-W4-7528" d="M 3482 1606 
L 5267 1606 
L 5267 250 
C 5267 96 5216 64 4922 64 
C 4704 64 4403 90 4051 134 
C 4122 -64 4147 -179 4166 -352 
C 4416 -371 4710 -384 4915 -384 
C 5594 -384 5747 -282 5747 160 
L 5747 4429 
C 5747 4736 5754 4890 5773 5082 
C 5581 5062 5408 5056 5075 5056 
L 1594 5056 
C 1261 5056 1075 5062 883 5082 
C 902 4851 909 4659 909 4320 
C 909 1344 800 659 211 -134 
C 416 -262 480 -307 653 -474 
C 1075 192 1235 691 1325 1606 
L 3008 1606 
L 3008 435 
C 3008 90 3002 -90 2976 -275 
L 3514 -275 
C 3488 -109 3482 96 3482 442 
L 3482 1606 
z
M 3482 3558 
L 3482 4595 
L 5267 4595 
L 5267 3558 
L 3482 3558 
z
M 3008 3558 
L 1389 3558 
L 1395 3859 
L 1395 4595 
L 3008 4595 
L 3008 3558 
z
M 3482 3110 
L 5267 3110 
L 5267 2061 
L 3482 2061 
L 3482 3110 
z
M 3008 3110 
L 3008 2061 
L 1357 2061 
C 1370 2349 1370 2349 1376 2694 
C 1376 2784 1376 2931 1382 3110 
L 3008 3110 
z
" transform="scale(0.015625)"/>
      <path id="HiraginoSans-W4-30bf" d="M 2650 5299 
C 2592 5069 2470 4787 2272 4422 
C 1862 3693 1344 3110 646 2598 
C 864 2470 941 2413 1094 2234 
C 1728 2746 2176 3245 2611 3930 
L 4774 3955 
C 4563 3309 4288 2746 3942 2208 
C 3424 2630 3098 2854 2560 3162 
L 2208 2771 
C 2707 2496 3149 2176 3610 1766 
C 3290 1376 3008 1120 2522 787 
C 2099 506 1760 326 1216 109 
C 1395 -51 1459 -128 1594 -365 
C 2938 262 3802 973 4448 1984 
C 4736 2438 5069 3130 5299 3750 
C 5402 4045 5414 4064 5485 4173 
L 5158 4499 
C 5043 4454 4922 4435 4736 4435 
C 2944 4416 2944 4416 2848 4397 
C 2899 4486 2963 4595 3034 4736 
C 3174 5030 3174 5030 3245 5146 
L 2650 5299 
z
" transform="scale(0.015625)"/>
      <path id="HiraginoSans-W4-30af" d="M 2669 5229 
C 2637 5005 2522 4730 2285 4320 
C 1830 3520 1357 2995 666 2534 
C 890 2400 960 2336 1101 2144 
C 1709 2611 2208 3155 2618 3795 
L 4710 3827 
C 4480 3027 4096 2304 3616 1741 
C 3008 1024 2342 557 1376 166 
C 1574 0 1638 -77 1760 -301 
C 2707 128 3411 634 4000 1306 
C 4550 1939 5005 2790 5286 3731 
C 5363 3968 5370 3981 5427 4064 
L 5114 4371 
C 5011 4333 4973 4326 4742 4320 
C 4550 4314 4006 4307 3110 4294 
C 3072 4294 3072 4294 3034 4294 
C 2925 4288 2925 4288 2874 4275 
C 2950 4403 3002 4506 3155 4832 
C 3232 5005 3238 5005 3296 5082 
L 2669 5229 
z
" transform="scale(0.015625)"/>
      <path id="HiraginoSans-W4-30c6" d="M 5050 2707 
C 5389 2707 5632 2694 5837 2675 
L 5837 3251 
C 5613 3219 5421 3206 5043 3206 
L 1357 3206 
C 986 3206 806 3219 563 3251 
L 563 2675 
C 794 2701 960 2707 1344 2707 
L 3008 2707 
C 2989 2208 2893 1734 2746 1427 
C 2477 870 1971 480 1152 218 
C 1344 32 1402 -51 1517 -282 
C 2042 -70 2355 109 2643 352 
C 3110 749 3386 1261 3507 1971 
C 3558 2253 3584 2502 3590 2707 
L 5050 2707 
z
M 1210 4262 
C 1402 4288 1613 4294 1990 4294 
L 4422 4294 
C 4762 4294 5030 4282 5210 4262 
L 5210 4838 
C 4992 4800 4838 4794 4416 4794 
L 1997 4794 
C 1581 4794 1427 4800 1210 4838 
L 1210 4262 
z
" transform="scale(0.015625)"/>
      <path id="HiraginoSans-W4-30a3" d="M 4621 4000 
C 4525 3846 4454 3763 4256 3571 
C 3712 3034 3136 2618 2438 2253 
C 1939 1990 1542 1843 934 1683 
C 1082 1491 1126 1414 1210 1216 
C 1990 1466 2522 1702 3130 2080 
L 3130 269 
C 3130 -51 3123 -166 3098 -339 
L 3693 -339 
C 3667 -179 3661 -26 3661 275 
L 3661 2400 
C 4122 2746 4570 3136 4883 3469 
C 5011 3610 5011 3610 5088 3674 
L 4621 4000 
z
" transform="scale(0.015625)"/>
      <path id="HiraginoSans-W4-3a" d="M 1165 3520 
L 442 3520 
L 442 2797 
L 1165 2797 
L 1165 3520 
z
M 1165 0 
L 1165 723 
L 442 723 
L 442 0 
L 1165 0 
z
" transform="scale(0.015625)"/>
      <path id="HiraginoSans-W4-20" transform="scale(0.015625)"/>
      <path id="HiraginoSans-W4-68" d="M 1107 0 
C 1075 256 1062 474 1062 755 
L 1062 2003 
C 1139 2272 1229 2438 1402 2643 
C 1645 2931 1933 3078 2259 3078 
C 2490 3078 2682 3002 2810 2861 
C 2931 2726 2995 2522 2995 2240 
L 2995 755 
C 2995 422 2982 224 2944 0 
L 3622 0 
C 3590 230 3578 448 3578 749 
L 3578 2362 
C 3578 3130 3123 3584 2355 3584 
C 1773 3584 1357 3347 1043 2854 
C 1056 3046 1062 3066 1062 3168 
L 1062 4173 
C 1062 4512 1069 4691 1107 4934 
L 442 4934 
C 480 4691 493 4512 493 4179 
L 493 755 
C 493 422 480 250 442 0 
L 1107 0 
z
" transform="scale(0.015625)"/>
      <path id="HiraginoSans-W4-61" d="M 2765 0 
L 3373 0 
C 3334 269 3322 422 3322 736 
L 3322 2515 
C 3322 2867 3238 3110 3046 3290 
C 2816 3514 2464 3622 1978 3622 
C 1485 3622 1094 3507 813 3270 
C 627 3123 531 2976 416 2656 
L 1011 2541 
C 1069 2714 1114 2797 1197 2886 
C 1370 3066 1626 3155 1971 3155 
C 2515 3155 2765 2950 2765 2515 
L 2765 2182 
C 1933 2163 1581 2118 1197 1997 
C 646 1818 333 1434 333 941 
C 333 320 774 -58 1491 -58 
C 1741 -58 1978 -19 2195 64 
C 2406 141 2522 218 2765 429 
L 2765 0 
z
M 2765 1363 
C 2765 1126 2707 973 2554 813 
C 2304 557 1920 397 1568 397 
C 1165 397 915 608 915 941 
C 915 1235 1075 1440 1395 1568 
C 1677 1683 2035 1728 2765 1747 
L 2765 1363 
z
" transform="scale(0.015625)"/>
      <path id="HiraginoSans-W4-76" d="M 51 3520 
C 198 3213 262 3072 365 2822 
L 1280 589 
C 1408 275 1446 160 1485 0 
L 2112 0 
C 2150 186 2170 237 2310 589 
L 3232 2822 
C 3411 3270 3456 3366 3539 3520 
L 2829 3520 
C 2803 3341 2758 3200 2643 2899 
L 1939 1024 
C 1888 883 1843 755 1798 602 
C 1754 736 1690 934 1651 1024 
L 947 2899 
C 851 3142 787 3360 762 3520 
L 51 3520 
z
" transform="scale(0.015625)"/>
      <path id="HiraginoSans-W4-65" d="M 3578 1651 
C 3558 1971 3546 2106 3533 2170 
C 3405 3066 2797 3610 1933 3610 
C 934 3610 282 2880 282 1760 
C 282 621 941 -96 1978 -96 
C 2470 -96 2880 64 3187 371 
C 3341 518 3424 646 3546 915 
L 3008 1114 
C 2944 928 2899 845 2803 742 
C 2605 512 2323 390 1984 390 
C 1613 390 1312 531 1114 800 
C 947 1024 883 1235 858 1651 
L 3578 1651 
z
M 877 2118 
C 915 2349 947 2451 1037 2605 
C 1229 2944 1542 3130 1920 3130 
C 2221 3130 2464 3040 2656 2854 
C 2842 2669 2938 2451 2976 2118 
L 877 2118 
z
" transform="scale(0.015625)"/>
      <path id="HiraginoSans-W4-b7" d="M 442 2125 
L 442 1402 
L 1165 1402 
L 1165 2125 
L 442 2125 
z
" transform="scale(0.015625)"/>
      <path id="HiraginoSans-W4-78" d="M 3469 0 
C 3238 294 3078 512 3008 614 
L 2138 1824 
L 2963 2982 
C 3021 3072 3168 3270 3206 3322 
C 3315 3462 3315 3462 3354 3520 
L 2630 3520 
C 2566 3386 2483 3238 2368 3072 
L 1792 2227 
L 1203 3072 
C 1088 3238 1024 3360 947 3520 
L 211 3520 
C 474 3174 557 3072 608 3002 
L 1440 1830 
L 531 563 
C 422 410 237 160 109 0 
L 858 0 
C 966 205 1018 294 1114 435 
L 1786 1421 
L 2426 486 
C 2566 288 2624 192 2720 0 
L 3469 0 
z
" transform="scale(0.015625)"/>
      <path id="HiraginoSans-W4-63" d="M 3475 2573 
C 3405 2758 3347 2867 3251 3002 
C 2970 3405 2522 3616 1965 3616 
C 947 3616 282 2874 282 1747 
C 282 627 954 -90 1990 -90 
C 2534 -90 2970 102 3258 480 
C 3366 621 3430 742 3520 986 
L 2950 1126 
C 2899 966 2867 890 2816 806 
C 2650 550 2362 410 2010 410 
C 1312 410 870 934 870 1760 
C 870 2598 1299 3130 1984 3130 
C 2438 3130 2739 2899 2912 2413 
L 3475 2573 
z
" transform="scale(0.015625)"/>
      <path id="HiraginoSans-W4-74" d="M 851 4480 
C 877 4262 896 4006 896 3750 
L 896 3520 
L 646 3520 
C 378 3520 250 3526 70 3558 
L 70 2995 
C 275 3021 416 3034 640 3034 
L 896 3034 
L 896 787 
C 896 461 954 269 1094 134 
C 1235 6 1466 -64 1773 -64 
C 2042 -64 2246 -26 2515 83 
L 2374 602 
C 2176 486 2048 448 1875 448 
C 1741 448 1632 486 1568 544 
C 1504 608 1478 698 1478 883 
L 1478 3034 
L 1779 3034 
C 2074 3034 2221 3027 2426 2995 
L 2426 3558 
C 2214 3526 2074 3520 1773 3520 
L 1478 3520 
L 1478 3750 
C 1478 4026 1498 4275 1523 4480 
L 851 4480 
z
" transform="scale(0.015625)"/>
      <path id="HiraginoSans-W4-70" d="M 1101 -1312 
C 1069 -1075 1056 -877 1056 -550 
L 1056 128 
C 1056 301 1050 397 1037 570 
C 1363 154 1792 -51 2349 -51 
C 3334 -51 3968 659 3968 1773 
C 3968 2906 3354 3590 2336 3590 
C 1766 3590 1344 3379 1037 2944 
C 1050 3078 1050 3117 1050 3194 
L 1050 3520 
L 442 3520 
C 474 3277 486 3078 486 2752 
L 486 -557 
C 486 -845 474 -1056 442 -1312 
L 1101 -1312 
z
M 2272 442 
C 1952 442 1626 570 1421 781 
C 1197 1005 1062 1376 1062 1766 
C 1062 2547 1555 3091 2278 3091 
C 2976 3091 3373 2611 3373 1773 
C 3373 941 2957 442 2272 442 
z
" transform="scale(0.015625)"/>
      <path id="HiraginoSans-W4-6c" d="M 442 4934 
C 474 4704 486 4518 486 4179 
L 486 755 
C 486 429 474 250 442 0 
L 1120 0 
C 1088 262 1075 448 1075 755 
L 1075 4179 
C 1075 4512 1088 4698 1120 4934 
L 442 4934 
z
" transform="scale(0.015625)"/>
      <path id="HiraginoSans-W4-79" d="M 1600 154 
L 1325 -486 
C 1229 -710 1069 -832 858 -832 
C 730 -832 621 -800 442 -717 
L 301 -1274 
C 550 -1325 710 -1344 864 -1344 
C 1357 -1344 1664 -1146 1843 -717 
L 3283 2758 
C 3462 3181 3571 3437 3603 3520 
L 2912 3520 
C 2880 3334 2829 3168 2694 2816 
L 1901 768 
L 1011 2822 
C 902 3072 819 3341 787 3520 
L 64 3520 
C 134 3386 134 3386 422 2758 
L 1600 154 
z
" transform="scale(0.015625)"/>
      <path id="HiraginoSans-W4-73" d="M 262 973 
C 326 704 378 589 480 448 
C 730 109 1184 -70 1786 -70 
C 2707 -70 3270 339 3270 1011 
C 3270 1293 3136 1555 2912 1722 
C 2720 1862 2483 1946 1894 2074 
C 1510 2157 1357 2208 1210 2285 
C 1075 2355 998 2483 998 2624 
C 998 2944 1312 3162 1760 3162 
C 2042 3162 2259 3078 2400 2925 
C 2483 2835 2515 2758 2554 2598 
L 3155 2688 
C 3066 2982 2982 3136 2810 3283 
C 2573 3494 2208 3610 1754 3610 
C 1299 3610 941 3494 698 3258 
C 518 3091 416 2861 416 2618 
C 416 2310 557 2054 819 1888 
C 1043 1747 1261 1677 1760 1574 
C 2246 1466 2349 1440 2490 1350 
C 2618 1274 2682 1139 2682 973 
C 2682 621 2342 397 1818 397 
C 1504 397 1267 474 1107 614 
C 986 730 934 832 890 1069 
L 262 973 
z
" transform="scale(0.015625)"/>
      <path id="HiraginoSans-W4-69" d="M 442 4934 
L 442 4294 
L 1152 4294 
L 1152 4934 
L 442 4934 
z
M 454 3520 
C 486 3296 499 3085 499 2765 
L 499 755 
C 499 461 486 282 454 0 
L 1133 0 
C 1101 269 1088 448 1088 755 
L 1088 2758 
C 1088 3104 1101 3290 1133 3520 
L 454 3520 
z
" transform="scale(0.015625)"/>
      <path id="HiraginoSans-W4-6d" d="M 1107 0 
C 1075 262 1062 442 1062 755 
L 1062 2016 
C 1062 2144 1178 2464 1286 2624 
C 1485 2912 1786 3091 2074 3091 
C 2528 3091 2765 2803 2765 2246 
L 2765 755 
C 2765 422 2752 230 2720 0 
L 3392 0 
C 3360 230 3347 416 3347 749 
L 3347 2016 
C 3347 2176 3456 2483 3571 2650 
C 3763 2931 4045 3091 4346 3091 
C 4525 3091 4672 3053 4781 2976 
C 4973 2842 5043 2637 5043 2246 
L 5043 755 
C 5043 403 5037 256 4998 0 
L 5670 0 
C 5638 230 5626 416 5626 749 
L 5626 2336 
C 5626 2733 5555 2995 5382 3206 
C 5184 3462 4864 3590 4442 3590 
C 3898 3590 3552 3398 3232 2925 
C 3168 3104 3130 3181 3034 3277 
C 2842 3488 2566 3590 2202 3590 
C 1690 3590 1280 3373 1050 2970 
C 1050 3008 1050 3008 1056 3066 
C 1056 3085 1062 3181 1062 3200 
L 1062 3520 
L 442 3520 
C 474 3290 486 3117 486 2765 
L 486 755 
C 486 435 474 243 442 0 
L 1107 0 
z
" transform="scale(0.015625)"/>
      <path id="HiraginoSans-W4-6e" d="M 1114 0 
C 1082 256 1069 474 1069 755 
L 1069 2010 
C 1139 2272 1222 2426 1395 2630 
C 1658 2944 1933 3085 2266 3085 
C 2752 3085 3002 2797 3002 2234 
L 3002 755 
C 3002 454 2989 269 2957 0 
L 3629 0 
C 3597 218 3584 416 3584 749 
L 3584 2323 
C 3584 2662 3520 2912 3392 3110 
C 3181 3418 2816 3584 2349 3584 
C 1779 3584 1376 3360 1056 2867 
C 1069 3027 1069 3059 1069 3142 
L 1069 3520 
L 442 3520 
C 480 3264 493 3078 493 2765 
L 493 755 
C 493 429 480 256 442 0 
L 1114 0 
z
" transform="scale(0.015625)"/>
      <path id="HiraginoSans-W4-72" d="M 2784 3520 
C 2522 3565 2394 3578 2195 3578 
C 1862 3578 1568 3488 1350 3315 
C 1242 3238 1165 3142 1056 2976 
C 1062 3027 1062 3040 1069 3085 
C 1069 3104 1069 3117 1069 3130 
C 1069 3162 1069 3181 1069 3187 
L 1069 3520 
L 442 3520 
C 474 3283 486 3104 486 2765 
L 486 755 
C 486 467 480 314 442 0 
L 1114 0 
C 1082 262 1069 448 1069 755 
L 1069 2022 
C 1101 2317 1158 2470 1312 2669 
C 1504 2912 1760 3034 2093 3034 
C 2259 3034 2381 3014 2618 2938 
L 2784 3520 
z
" transform="scale(0.015625)"/>
      <path id="HiraginoSans-W4-66" d="M 922 3034 
L 922 755 
C 922 467 909 237 877 0 
L 1549 0 
C 1517 224 1504 429 1504 755 
L 1504 3034 
L 1818 3034 
C 2131 3034 2291 3021 2509 2995 
L 2509 3558 
C 2266 3533 2080 3520 1818 3520 
L 1504 3520 
L 1504 3846 
C 1504 4198 1542 4333 1670 4429 
C 1760 4493 1882 4518 2048 4518 
C 2227 4518 2394 4474 2566 4378 
L 2714 4870 
C 2470 4960 2259 4998 2010 4998 
C 1626 4998 1318 4890 1152 4691 
C 986 4506 922 4282 922 3885 
L 922 3520 
L 659 3520 
C 416 3520 243 3533 70 3558 
L 70 2995 
C 269 3021 435 3034 659 3034 
L 922 3034 
z
" transform="scale(0.015625)"/>
      <path id="HiraginoSans-W4-6b" d="M 442 4934 
C 474 4698 486 4518 486 4179 
L 486 755 
C 486 429 474 224 442 0 
L 1101 0 
C 1069 224 1056 442 1056 742 
L 1056 1254 
L 1600 1766 
L 2400 640 
C 2669 269 2733 166 2810 0 
L 3654 0 
C 3507 147 3482 179 3091 691 
L 2010 2112 
L 2906 2957 
C 2912 2963 2957 3008 3021 3066 
C 3110 3155 3187 3226 3251 3283 
C 3424 3437 3424 3437 3514 3520 
L 2624 3520 
C 2534 3373 2426 3258 2157 2995 
L 1056 1926 
L 1056 4179 
C 1056 4518 1069 4704 1101 4934 
L 442 4934 
z
" transform="scale(0.015625)"/>
      <path id="HiraginoSans-W4-5f" d="M 0 -608 
L 0 -902 
L 3213 -902 
L 3213 -608 
L 0 -608 
z
" transform="scale(0.015625)"/>
      <path id="HiraginoSans-W4-64" d="M 3187 0 
L 3802 0 
C 3770 250 3757 442 3757 774 
L 3757 4173 
C 3757 4467 3770 4666 3802 4934 
L 3142 4934 
C 3174 4691 3187 4486 3187 4173 
L 3187 3398 
C 3187 3296 3187 3194 3194 3149 
C 3200 3040 3200 3040 3206 2970 
C 2918 3379 2470 3597 1901 3597 
C 909 3597 282 2886 282 1766 
C 282 1171 461 672 794 339 
C 1069 70 1446 -64 1914 -64 
C 2483 -64 2880 128 3206 563 
C 3200 480 3187 365 3187 288 
L 3187 0 
z
M 1971 3098 
C 2310 3098 2618 2976 2842 2752 
C 3059 2541 3181 2189 3181 1786 
C 3181 966 2707 429 1978 429 
C 1709 429 1459 512 1274 672 
C 1024 890 883 1280 883 1786 
C 883 2598 1293 3098 1971 3098 
z
" transform="scale(0.015625)"/>
      <path id="HiraginoSans-W4-6f" d="M 2054 -90 
C 3110 -90 3802 640 3802 1766 
C 3802 2893 3117 3610 2042 3610 
C 966 3610 282 2886 282 1760 
C 282 627 966 -90 2054 -90 
z
M 2054 3130 
C 2771 3130 3213 2605 3213 1754 
C 3213 909 2771 397 2042 397 
C 1318 397 870 922 870 1766 
C 870 2611 1325 3130 2054 3130 
z
" transform="scale(0.015625)"/>
     </defs>
     <use xlink:href="#HiraginoSans-W4-4f7f"/>
     <use xlink:href="#HiraginoSans-W4-7528" transform="translate(99.999985 0)"/>
     <use xlink:href="#HiraginoSans-W4-30bf" transform="translate(199.999969 0)"/>
     <use xlink:href="#HiraginoSans-W4-30af" transform="translate(299.999954 0)"/>
     <use xlink:href="#HiraginoSans-W4-30c6" transform="translate(399.999939 0)"/>
     <use xlink:href="#HiraginoSans-W4-30a3" transform="translate(499.999924 0)"/>
     <use xlink:href="#HiraginoSans-W4-30af" transform="translate(599.999908 0)"/>
     <use xlink:href="#HiraginoSans-W4-3a" transform="translate(699.999893 0)"/>
     <use xlink:href="#HiraginoSans-W4-20" transform="translate(724.999878 0)"/>
     <use xlink:href="#HiraginoSans-W4-68" transform="translate(758.299866 0)"/>
     <use xlink:href="#HiraginoSans-W4-61" transform="translate(821.599854 0)"/>
     <use xlink:href="#HiraginoSans-W4-76" transform="translate(880.79985 0)"/>
     <use xlink:href="#HiraginoSans-W4-65" transform="translate(936.899841 0)"/>
     <use xlink:href="#HiraginoSans-W4-20" transform="translate(997.099838 0)"/>
     <use xlink:href="#HiraginoSans-W4-b7" transform="translate(1030.399826 0)"/>
     <use xlink:href="#HiraginoSans-W4-20" transform="translate(1055.399811 0)"/>
     <use xlink:href="#HiraginoSans-W4-65" transform="translate(1088.699799 0)"/>
     <use xlink:href="#HiraginoSans-W4-78" transform="translate(1148.899796 0)"/>
     <use xlink:href="#HiraginoSans-W4-61" transform="translate(1204.799789 0)"/>
     <use xlink:href="#HiraginoSans-W4-63" transform="translate(1263.999786 0)"/>
     <use xlink:href="#HiraginoSans-W4-74" transform="translate(1323.099777 0)"/>
     <use xlink:href="#HiraginoSans-W4-20" transform="translate(1363.599762 0)"/>
     <use xlink:href="#HiraginoSans-W4-b7" transform="translate(1396.89975 0)"/>
     <use xlink:href="#HiraginoSans-W4-20" transform="translate(1421.899734 0)"/>
     <use xlink:href="#HiraginoSans-W4-61" transform="translate(1455.199722 0)"/>
     <use xlink:href="#HiraginoSans-W4-70" transform="translate(1514.399719 0)"/>
     <use xlink:href="#HiraginoSans-W4-70" transform="translate(1580.799713 0)"/>
     <use xlink:href="#HiraginoSans-W4-6c" transform="translate(1647.199707 0)"/>
     <use xlink:href="#HiraginoSans-W4-79" transform="translate(1671.499695 0)"/>
     <use xlink:href="#HiraginoSans-W4-20" transform="translate(1728.899689 0)"/>
     <use xlink:href="#HiraginoSans-W4-b7" transform="translate(1762.199677 0)"/>
     <use xlink:href="#HiraginoSans-W4-20" transform="translate(1787.199661 0)"/>
     <use xlink:href="#HiraginoSans-W4-73" transform="translate(1820.499649 0)"/>
     <use xlink:href="#HiraginoSans-W4-69" transform="translate(1875.799637 0)"/>
     <use xlink:href="#HiraginoSans-W4-6d" transform="translate(1900.599625 0)"/>
     <use xlink:href="#HiraginoSans-W4-70" transform="translate(1995.999619 0)"/>
     <use xlink:href="#HiraginoSans-W4-20" transform="translate(2062.399612 0)"/>
     <use xlink:href="#HiraginoSans-W4-b7" transform="translate(2095.6996 0)"/>
     <use xlink:href="#HiraginoSans-W4-20" transform="translate(2120.699585 0)"/>
     <use xlink:href="#HiraginoSans-W4-6c" transform="translate(2153.999573 0)"/>
     <use xlink:href="#HiraginoSans-W4-69" transform="translate(2178.299561 0)"/>
     <use xlink:href="#HiraginoSans-W4-6e" transform="translate(2203.099548 0)"/>
     <use xlink:href="#HiraginoSans-W4-61" transform="translate(2266.499542 0)"/>
     <use xlink:href="#HiraginoSans-W4-72" transform="translate(2325.699539 0)"/>
     <use xlink:href="#HiraginoSans-W4-69" transform="translate(2370.399536 0)"/>
     <use xlink:href="#HiraginoSans-W4-74" transform="translate(2395.199524 0)"/>
     <use xlink:href="#HiraginoSans-W4-68" transform="translate(2435.699509 0)"/>
     <use xlink:href="#HiraginoSans-W4-20" transform="translate(2498.999496 0)"/>
     <use xlink:href="#HiraginoSans-W4-b7" transform="translate(2532.299484 0)"/>
     <use xlink:href="#HiraginoSans-W4-20" transform="translate(2557.299469 0)"/>
     <use xlink:href="#HiraginoSans-W4-66" transform="translate(2590.599457 0)"/>
     <use xlink:href="#HiraginoSans-W4-69" transform="translate(2633.999451 0)"/>
     <use xlink:href="#HiraginoSans-W4-6e" transform="translate(2658.799438 0)"/>
     <use xlink:href="#HiraginoSans-W4-72" transform="translate(2722.199432 0)"/>
     <use xlink:href="#HiraginoSans-W4-61" transform="translate(2766.899429 0)"/>
     <use xlink:href="#HiraginoSans-W4-6e" transform="translate(2826.099426 0)"/>
     <use xlink:href="#HiraginoSans-W4-6b" transform="translate(2889.49942 0)"/>
     <use xlink:href="#HiraginoSans-W4-5f" transform="translate(2949.099411 0)"/>
     <use xlink:href="#HiraginoSans-W4-61" transform="translate(2999.299408 0)"/>
     <use xlink:href="#HiraginoSans-W4-64" transform="translate(3058.499405 0)"/>
     <use xlink:href="#HiraginoSans-W4-64" transform="translate(3124.799393 0)"/>
     <use xlink:href="#HiraginoSans-W4-5f" transform="translate(3191.09938 0)"/>
     <use xlink:href="#HiraginoSans-W4-66" transform="translate(3241.299377 0)"/>
     <use xlink:href="#HiraginoSans-W4-69" transform="translate(3284.699371 0)"/>
     <use xlink:href="#HiraginoSans-W4-6e" transform="translate(3309.499359 0)"/>
     <use xlink:href="#HiraginoSans-W4-72" transform="translate(3372.899353 0)"/>
     <use xlink:href="#HiraginoSans-W4-61" transform="translate(3417.59935 0)"/>
     <use xlink:href="#HiraginoSans-W4-6e" transform="translate(3476.799347 0)"/>
     <use xlink:href="#HiraginoSans-W4-6b" transform="translate(3540.199341 0)"/>
     <use xlink:href="#HiraginoSans-W4-5f" transform="translate(3599.799332 0)"/>
     <use xlink:href="#HiraginoSans-W4-63" transform="translate(3649.999329 0)"/>
     <use xlink:href="#HiraginoSans-W4-6f" transform="translate(3709.099319 0)"/>
     <use xlink:href="#HiraginoSans-W4-6d" transform="translate(3772.899307 0)"/>
     <use xlink:href="#HiraginoSans-W4-70" transform="translate(3868.299301 0)"/>
     <use xlink:href="#HiraginoSans-W4-6c" transform="translate(3934.699295 0)"/>
    </g>
   </g>
   <g id="text_3">
    <!-- 次元定理 -->
    <g style="fill: #ffffff" transform="translate(294.1 81.838656) scale(0.1 -0.1)">
     <use xlink:href="#HiraginoSans-W7-6b21"/>
     <use xlink:href="#HiraginoSans-W7-5143" transform="translate(99.999985 0)"/>
     <use xlink:href="#HiraginoSans-W7-5b9a" transform="translate(199.999969 0)"/>
     <use xlink:href="#HiraginoSans-W7-7406" transform="translate(299.999954 0)"/>
    </g>
    <!-- (finrank_range_add_finrank_ker) -->
    <g style="fill: #ffffff" transform="translate(222.6875 93.613656) scale(0.1 -0.1)">
     <defs>
      <path id="HiraginoSans-W7-28" d="M 2560 -640 
C 2176 -90 2016 205 1869 640 
C 1734 1043 1670 1491 1670 1978 
C 1670 2483 1741 2944 1882 3373 
C 2029 3814 2189 4102 2573 4646 
L 1798 5165 
C 1325 4512 1126 4147 947 3603 
C 781 3110 691 2560 691 2016 
C 691 1331 832 653 1101 13 
C 1280 -397 1427 -659 1798 -1171 
L 2560 -640 
z
" transform="scale(0.015625)"/>
      <path id="HiraginoSans-W7-66" d="M 928 2829 
L 928 762 
C 928 390 915 166 877 -134 
L 2003 -134 
C 1965 160 1952 358 1952 762 
L 1952 2829 
L 2259 2829 
C 2579 2829 2739 2816 2982 2784 
L 2982 3699 
C 2682 3667 2470 3654 2240 3654 
L 1952 3654 
L 1952 3866 
C 1952 4256 2074 4397 2413 4397 
C 2637 4397 2822 4352 3021 4243 
L 3206 5037 
C 2874 5133 2637 5165 2317 5165 
C 1376 5165 928 4781 928 3974 
L 928 3654 
L 672 3654 
C 448 3654 205 3674 58 3693 
L 58 2784 
C 262 2816 416 2829 672 2829 
L 928 2829 
z
" transform="scale(0.015625)"/>
      <path id="HiraginoSans-W7-69" d="M 384 5069 
L 384 4186 
L 1498 4186 
L 1498 5069 
L 384 5069 
z
M 371 3654 
C 410 3392 422 3149 422 2758 
L 422 762 
C 422 384 410 186 371 -134 
L 1504 -134 
C 1466 134 1453 390 1453 768 
L 1453 2752 
C 1453 3174 1466 3411 1504 3654 
L 371 3654 
z
" transform="scale(0.015625)"/>
      <path id="HiraginoSans-W7-6e" d="M 1485 -134 
C 1446 179 1434 416 1434 762 
L 1434 2061 
C 1709 2541 2106 2835 2483 2835 
C 2637 2835 2765 2797 2861 2726 
C 3014 2611 3066 2464 3066 2131 
L 3066 762 
C 3066 403 3053 166 3014 -134 
L 4134 -134 
C 4096 128 4083 371 4083 762 
L 4083 2374 
C 4083 3245 3610 3731 2758 3731 
C 2214 3731 1811 3552 1414 3142 
C 1421 3264 1427 3347 1427 3398 
L 1427 3654 
L 371 3654 
C 410 3411 422 3168 422 2758 
L 422 762 
C 422 390 410 154 371 -134 
L 1485 -134 
z
" transform="scale(0.015625)"/>
      <path id="HiraginoSans-W7-72" d="M 3277 3654 
C 3002 3712 2867 3725 2675 3725 
C 2106 3725 1696 3533 1427 3130 
L 1427 3654 
L 371 3654 
C 410 3386 422 3187 422 2758 
L 422 762 
C 422 384 410 186 371 -134 
L 1472 -134 
C 1440 141 1427 378 1427 762 
L 1427 1869 
C 1459 2170 1517 2317 1651 2477 
C 1830 2682 2080 2778 2419 2778 
C 2624 2778 2746 2758 3014 2669 
L 3277 3654 
z
" transform="scale(0.015625)"/>
      <path id="HiraginoSans-W7-61" d="M 2842 -134 
L 3878 -134 
C 3846 154 3834 346 3834 717 
L 3834 2451 
C 3834 2912 3750 3162 3533 3366 
C 3251 3635 2822 3763 2195 3763 
C 1594 3763 1133 3642 813 3392 
C 589 3219 467 3046 333 2675 
L 1344 2509 
C 1414 2688 1472 2778 1587 2861 
C 1709 2950 1939 3008 2189 3008 
C 2624 3008 2842 2854 2842 2541 
L 2842 2285 
C 2029 2259 1837 2240 1466 2163 
C 672 1984 237 1549 237 928 
C 237 589 365 294 602 96 
C 832 -109 1158 -205 1613 -205 
C 2131 -205 2458 -96 2842 198 
L 2842 -134 
z
M 2842 1357 
C 2842 1133 2765 973 2579 813 
C 2381 646 2067 538 1792 538 
C 1446 538 1254 685 1254 954 
C 1254 1197 1408 1370 1702 1459 
C 1990 1549 2259 1581 2842 1600 
L 2842 1357 
z
" transform="scale(0.015625)"/>
      <path id="HiraginoSans-W7-6b" d="M 371 5069 
C 410 4826 422 4582 422 4179 
L 422 762 
C 422 371 410 147 371 -134 
L 1472 -134 
C 1434 115 1421 275 1421 742 
L 1421 1075 
L 1926 1562 
L 2515 653 
C 2739 307 2854 102 2938 -134 
L 4314 -134 
C 4122 90 4070 166 3731 646 
L 2650 2170 
L 3571 3046 
C 3885 3354 3923 3392 4224 3654 
L 2784 3654 
C 2675 3482 2554 3341 2259 3046 
L 1421 2214 
L 1421 4179 
C 1421 4570 1434 4819 1466 5069 
L 371 5069 
z
" transform="scale(0.015625)"/>
      <path id="HiraginoSans-W7-5f" d="M 0 -723 
L 0 -1126 
L 3213 -1126 
L 3213 -723 
L 0 -723 
z
" transform="scale(0.015625)"/>
      <path id="HiraginoSans-W7-67" d="M 294 -659 
C 736 -1152 1229 -1344 2035 -1344 
C 2701 -1344 3258 -1197 3590 -928 
C 3974 -614 4147 -134 4147 640 
L 4147 2810 
C 4147 3174 4160 3366 4198 3654 
L 3155 3654 
L 3155 3443 
C 3155 3373 3155 3328 3162 3277 
C 2867 3590 2496 3731 1965 3731 
C 1549 3731 1203 3622 902 3405 
C 442 3066 205 2547 205 1882 
C 205 768 877 58 1926 58 
C 2464 58 2854 218 3162 563 
C 3136 128 3091 -58 2963 -243 
C 2803 -467 2470 -595 2048 -595 
C 1626 -595 1299 -442 1069 -141 
L 294 -659 
z
M 1229 1882 
C 1229 2534 1587 2963 2138 2963 
C 2707 2963 3123 2515 3123 1901 
C 3123 1498 2957 1171 2656 992 
C 2496 890 2285 832 2106 832 
C 1888 832 1651 928 1504 1075 
C 1318 1261 1229 1530 1229 1882 
z
" transform="scale(0.015625)"/>
      <path id="HiraginoSans-W7-65" d="M 4032 1485 
C 4019 1606 4019 1613 4019 1638 
C 3994 2118 3962 2323 3846 2637 
C 3571 3373 2963 3782 2125 3782 
C 973 3782 211 2976 211 1760 
C 211 1139 410 595 774 237 
C 1107 -96 1587 -269 2163 -269 
C 2746 -269 3232 -90 3571 250 
C 3744 416 3840 563 3981 870 
L 3053 1146 
C 2918 755 2611 544 2163 544 
C 1856 544 1606 653 1434 864 
C 1306 1024 1248 1184 1216 1485 
L 4032 1485 
z
M 1235 2227 
C 1357 2726 1664 2982 2138 2982 
C 2432 2982 2675 2874 2829 2675 
C 2925 2547 2970 2432 3008 2227 
L 1235 2227 
z
" transform="scale(0.015625)"/>
      <path id="HiraginoSans-W7-64" d="M 3296 -134 
L 4339 -134 
C 4301 173 4288 390 4288 800 
L 4288 4147 
C 4288 4518 4301 4774 4339 5069 
L 3245 5069 
C 3283 4794 3296 4557 3296 4141 
L 3296 3597 
C 3296 3475 3296 3398 3302 3309 
L 3309 3219 
C 3168 3373 3091 3437 2925 3526 
C 2643 3680 2349 3750 2003 3750 
C 902 3750 211 2989 211 1766 
C 211 1114 403 576 768 211 
C 1075 -90 1485 -237 2003 -237 
C 2586 -237 2963 -83 3309 294 
C 3302 192 3296 173 3296 102 
L 3296 -134 
z
M 3277 1773 
C 3277 1402 3142 1050 2918 845 
C 2746 691 2464 589 2202 589 
C 1971 589 1722 685 1562 838 
C 1350 1037 1235 1370 1235 1760 
C 1235 2458 1613 2931 2176 2931 
C 2835 2931 3277 2470 3277 1773 
z
" transform="scale(0.015625)"/>
      <path id="HiraginoSans-W7-29" d="M 147 4646 
C 531 4102 691 3814 838 3373 
C 979 2944 1050 2490 1050 1978 
C 1050 1485 986 1043 851 640 
C 704 205 544 -90 154 -640 
L 922 -1171 
C 1286 -659 1440 -397 1619 13 
C 1894 653 2029 1325 2029 2022 
C 2029 2566 1939 3110 1773 3603 
C 1594 4147 1395 4512 922 5165 
L 147 4646 
z
" transform="scale(0.015625)"/>
     </defs>
     <use xlink:href="#HiraginoSans-W7-28"/>
     <use xlink:href="#HiraginoSans-W7-66" transform="translate(42.499985 0)"/>
     <use xlink:href="#HiraginoSans-W7-69" transform="translate(93.399979 0)"/>
     <use xlink:href="#HiraginoSans-W7-6e" transform="translate(122.599976 0)"/>
     <use xlink:href="#HiraginoSans-W7-72" transform="translate(192.799957 0)"/>
     <use xlink:href="#HiraginoSans-W7-61" transform="translate(244.899948 0)"/>
     <use xlink:href="#HiraginoSans-W7-6e" transform="translate(311.299942 0)"/>
     <use xlink:href="#HiraginoSans-W7-6b" transform="translate(381.499924 0)"/>
     <use xlink:href="#HiraginoSans-W7-5f" transform="translate(450.399918 0)"/>
     <use xlink:href="#HiraginoSans-W7-72" transform="translate(500.599915 0)"/>
     <use xlink:href="#HiraginoSans-W7-61" transform="translate(552.699905 0)"/>
     <use xlink:href="#HiraginoSans-W7-6e" transform="translate(619.099899 0)"/>
     <use xlink:href="#HiraginoSans-W7-67" transform="translate(689.299881 0)"/>
     <use xlink:href="#HiraginoSans-W7-65" transform="translate(760.599869 0)"/>
     <use xlink:href="#HiraginoSans-W7-5f" transform="translate(826.69986 0)"/>
     <use xlink:href="#HiraginoSans-W7-61" transform="translate(876.899857 0)"/>
     <use xlink:href="#HiraginoSans-W7-64" transform="translate(943.29985 0)"/>
     <use xlink:href="#HiraginoSans-W7-64" transform="translate(1016.799835 0)"/>
     <use xlink:href="#HiraginoSans-W7-5f" transform="translate(1090.29982 0)"/>
     <use xlink:href="#HiraginoSans-W7-66" transform="translate(1140.499817 0)"/>
     <use xlink:href="#HiraginoSans-W7-69" transform="translate(1191.399811 0)"/>
     <use xlink:href="#HiraginoSans-W7-6e" transform="translate(1220.599808 0)"/>
     <use xlink:href="#HiraginoSans-W7-72" transform="translate(1290.799789 0)"/>
     <use xlink:href="#HiraginoSans-W7-61" transform="translate(1342.89978 0)"/>
     <use xlink:href="#HiraginoSans-W7-6e" transform="translate(1409.299774 0)"/>
     <use xlink:href="#HiraginoSans-W7-6b" transform="translate(1479.499756 0)"/>
     <use xlink:href="#HiraginoSans-W7-5f" transform="translate(1548.39975 0)"/>
     <use xlink:href="#HiraginoSans-W7-6b" transform="translate(1598.599747 0)"/>
     <use xlink:href="#HiraginoSans-W7-65" transform="translate(1667.499741 0)"/>
     <use xlink:href="#HiraginoSans-W7-72" transform="translate(1733.599731 0)"/>
     <use xlink:href="#HiraginoSans-W7-29" transform="translate(1785.699722 0)"/>
    </g>
   </g>
   <g id="text_4">
    <!-- have h_ker -->
    <g style="fill: #ffffff" transform="translate(65.313672 169.094466) scale(0.085 -0.085)">
     <defs>
      <path id="DejaVuSansMono-Bold-68" d="M 3347 2272 
L 3347 0 
L 2438 0 
L 2438 2131 
Q 2438 2509 2330 2671 
Q 2222 2834 1978 2834 
Q 1728 2834 1587 2614 
Q 1447 2394 1447 2003 
L 1447 0 
L 538 0 
L 538 4863 
L 1447 4863 
L 1447 2975 
Q 1544 3266 1778 3425 
Q 2013 3584 2344 3584 
Q 2841 3584 3094 3254 
Q 3347 2925 3347 2272 
z
" transform="scale(0.015625)"/>
      <path id="DejaVuSansMono-Bold-61" d="M 2188 1644 
Q 1675 1644 1472 1512 
Q 1269 1381 1269 1063 
Q 1269 825 1409 684 
Q 1550 544 1791 544 
Q 2153 544 2353 817 
Q 2553 1091 2553 1581 
L 2553 1644 
L 2188 1644 
z
M 3463 1997 
L 3463 0 
L 2553 0 
L 2553 391 
Q 2388 159 2128 34 
Q 1869 -91 1556 -91 
Q 959 -91 626 225 
Q 294 541 294 1106 
Q 294 1719 691 2011 
Q 1088 2303 1919 2303 
L 2553 2303 
L 2553 2456 
Q 2553 2678 2392 2792 
Q 2231 2906 1919 2906 
Q 1591 2906 1283 2823 
Q 975 2741 641 2559 
L 641 3341 
Q 944 3466 1256 3525 
Q 1569 3584 1919 3584 
Q 2772 3584 3117 3237 
Q 3463 2891 3463 1997 
z
" transform="scale(0.015625)"/>
      <path id="DejaVuSansMono-Bold-76" d="M 3603 3500 
L 2491 0 
L 1363 0 
L 250 3500 
L 1178 3500 
L 1925 769 
L 2675 3500 
L 3603 3500 
z
" transform="scale(0.015625)"/>
      <path id="DejaVuSansMono-Bold-65" d="M 3444 172 
Q 3125 41 2794 -25 
Q 2463 -91 2094 -91 
Q 1216 -91 752 379 
Q 288 850 288 1734 
Q 288 2591 734 3087 
Q 1181 3584 1953 3584 
Q 2731 3584 3161 3123 
Q 3591 2663 3591 1825 
L 3591 1453 
L 1219 1453 
Q 1222 1041 1462 837 
Q 1703 634 2181 634 
Q 2497 634 2803 725 
Q 3109 816 3444 1013 
L 3444 172 
z
M 2669 2141 
Q 2663 2503 2483 2689 
Q 2303 2875 1953 2875 
Q 1638 2875 1450 2683 
Q 1263 2491 1228 2138 
L 2669 2141 
z
" transform="scale(0.015625)"/>
      <path id="DejaVuSansMono-Bold-20" transform="scale(0.015625)"/>
      <path id="DejaVuSansMono-Bold-5f" d="M 3853 -916 
L 3853 -1509 
L 0 -1509 
L 0 -916 
L 3853 -916 
z
" transform="scale(0.015625)"/>
      <path id="DejaVuSansMono-Bold-6b" d="M 544 4863 
L 1459 4863 
L 1459 2309 
L 2559 3500 
L 3669 3500 
L 2344 2194 
L 3744 0 
L 2731 0 
L 1772 1638 
L 1459 1338 
L 1459 0 
L 544 0 
L 544 4863 
z
" transform="scale(0.015625)"/>
      <path id="DejaVuSansMono-Bold-72" d="M 3597 2534 
Q 3447 2672 3245 2740 
Q 3044 2809 2803 2809 
Q 2513 2809 2295 2707 
Q 2078 2606 1959 2413 
Q 1884 2294 1854 2125 
Q 1825 1956 1825 1613 
L 1825 0 
L 909 0 
L 909 3500 
L 1825 3500 
L 1825 2956 
Q 1959 3256 2237 3420 
Q 2516 3584 2888 3584 
Q 3075 3584 3254 3539 
Q 3434 3494 3597 3406 
L 3597 2534 
z
" transform="scale(0.015625)"/>
     </defs>
     <use xlink:href="#DejaVuSansMono-Bold-68"/>
     <use xlink:href="#DejaVuSansMono-Bold-61" transform="translate(60.205078 0)"/>
     <use xlink:href="#DejaVuSansMono-Bold-76" transform="translate(120.410156 0)"/>
     <use xlink:href="#DejaVuSansMono-Bold-65" transform="translate(180.615234 0)"/>
     <use xlink:href="#DejaVuSansMono-Bold-20" transform="translate(240.820312 0)"/>
     <use xlink:href="#DejaVuSansMono-Bold-68" transform="translate(301.025391 0)"/>
     <use xlink:href="#DejaVuSansMono-Bold-5f" transform="translate(361.230469 0)"/>
     <use xlink:href="#DejaVuSansMono-Bold-6b" transform="translate(421.435547 0)"/>
     <use xlink:href="#DejaVuSansMono-Bold-65" transform="translate(481.640625 0)"/>
     <use xlink:href="#DejaVuSansMono-Bold-72" transform="translate(541.845703 0)"/>
    </g>
   </g>
   <g id="text_5">
    <!-- ker の -->
    <g style="fill: #1e293b" transform="translate(76.482422 202.526409) scale(0.09 -0.09)">
     <defs>
      <path id="HiraginoSans-W7-20" transform="scale(0.015625)"/>
     </defs>
     <use xlink:href="#HiraginoSans-W7-6b"/>
     <use xlink:href="#HiraginoSans-W7-65" transform="translate(68.899994 0)"/>
     <use xlink:href="#HiraginoSans-W7-72" transform="translate(134.999985 0)"/>
     <use xlink:href="#HiraginoSans-W7-20" transform="translate(187.099976 0)"/>
     <use xlink:href="#HiraginoSans-W7-306e" transform="translate(220.399963 0)"/>
    </g>
    <!-- 有限次元性 -->
    <g style="fill: #1e293b" transform="translate(68.4 212.961909) scale(0.09 -0.09)">
     <defs>
      <path id="HiraginoSans-W7-6709" d="M 1466 314 
C 1466 -45 1453 -307 1427 -531 
L 2323 -531 
C 2298 -307 2285 -51 2285 301 
L 2285 787 
L 4525 787 
L 4525 429 
C 4525 282 4480 256 4237 256 
C 4058 256 3834 275 3488 314 
C 3610 19 3654 -154 3686 -480 
C 3981 -493 4115 -499 4269 -499 
C 4685 -499 4922 -467 5062 -384 
C 5254 -282 5344 -96 5344 186 
L 5344 2906 
C 5344 3226 5350 3430 5376 3629 
C 5203 3610 5018 3603 4710 3603 
L 2541 3603 
C 2662 3795 2707 3866 2810 4051 
L 5344 4051 
C 5664 4051 5907 4038 6125 4013 
L 6125 4845 
C 5920 4819 5677 4806 5344 4806 
L 3174 4806 
C 3219 4915 3226 4922 3245 4986 
C 3328 5210 3347 5248 3392 5344 
L 2451 5446 
C 2419 5242 2362 5030 2278 4806 
L 1114 4806 
C 781 4806 538 4819 320 4845 
L 320 4013 
C 544 4038 781 4051 1107 4051 
L 1914 4051 
C 1504 3366 934 2797 141 2291 
C 358 2054 474 1882 640 1530 
C 979 1798 1222 2016 1466 2266 
L 1466 314 
z
M 4525 1837 
L 4525 1453 
L 2285 1453 
L 2285 1837 
L 4525 1837 
z
M 4525 2502 
L 2285 2502 
L 2285 2874 
L 4525 2874 
L 4525 2502 
z
" transform="scale(0.015625)"/>
      <path id="HiraginoSans-W7-9650" d="M 5638 2259 
C 5715 2259 5722 2259 5875 2253 
C 5856 2490 5850 2605 5850 2950 
L 5850 4499 
C 5850 4883 5856 5075 5875 5210 
C 5683 5190 5600 5184 5286 5184 
L 3366 5184 
C 3040 5184 2899 5190 2758 5216 
C 2778 4960 2784 4806 2784 4525 
L 2784 397 
C 2451 339 2208 307 2074 307 
L 2221 -550 
C 2285 -531 2355 -512 2483 -480 
L 3334 -294 
C 3955 -147 4122 -102 4595 32 
L 4589 614 
C 4698 461 4781 358 4896 230 
C 5197 -96 5446 -301 5869 -563 
C 6016 -198 6125 -6 6317 224 
C 5875 448 5568 678 5274 1024 
C 5504 1190 5741 1376 5869 1491 
C 6131 1715 6176 1760 6214 1779 
L 5638 2259 
z
M 5408 2266 
C 5434 2266 5472 2266 5555 2266 
C 5446 2125 5197 1901 4877 1658 
C 4781 1869 4742 1997 4685 2266 
L 5408 2266 
z
M 3578 2266 
L 3942 2266 
C 4070 1626 4211 1248 4486 781 
C 4192 691 4032 653 3578 557 
L 3578 2266 
z
M 3578 4454 
L 5062 4454 
L 5062 4051 
L 3578 4051 
L 3578 4454 
z
M 3578 3373 
L 5062 3373 
L 5062 2944 
L 3578 2944 
L 3578 3373 
z
M 474 256 
C 474 -64 461 -339 435 -544 
L 1306 -544 
C 1280 -282 1274 -32 1274 256 
L 1274 4480 
L 1875 4480 
C 1677 3834 1587 3590 1338 3110 
C 1562 2848 1645 2714 1728 2509 
C 1818 2304 1862 2080 1862 1869 
C 1862 1677 1792 1619 1568 1619 
C 1498 1619 1446 1626 1338 1638 
C 1446 1408 1478 1235 1491 845 
C 1805 851 2048 883 2202 947 
C 2490 1056 2650 1331 2650 1696 
C 2650 2234 2528 2566 2131 3155 
C 2374 3654 2470 3891 2694 4506 
C 2726 4595 2752 4672 2778 4730 
L 2381 5254 
C 2298 5229 2176 5222 1901 5222 
L 934 5222 
C 691 5222 582 5229 448 5248 
C 474 4883 474 4819 474 4602 
L 474 256 
z
" transform="scale(0.015625)"/>
      <path id="HiraginoSans-W7-6027" d="M 1773 4019 
C 1888 3750 1971 3488 2054 3085 
L 2310 3213 
C 2234 3040 2189 2957 2080 2784 
C 2464 2592 2464 2592 2803 2368 
C 2701 2374 2643 2381 2528 2394 
L 2528 1581 
C 2694 1600 2989 1613 3258 1613 
L 3789 1613 
L 3789 422 
L 2816 422 
C 2502 422 2214 435 2042 461 
L 2042 -390 
C 2259 -365 2509 -352 2816 -352 
L 5363 -352 
C 5677 -352 5920 -365 6138 -390 
L 6138 461 
C 5958 435 5690 422 5363 422 
L 4614 422 
L 4614 1613 
L 5152 1613 
C 5478 1613 5709 1600 5875 1581 
L 5875 2394 
C 5702 2368 5510 2362 5158 2362 
L 4614 2362 
L 4614 3373 
L 5274 3373 
C 5530 3373 5773 3360 5990 3334 
L 5990 4179 
C 5830 4154 5613 4141 5274 4141 
L 4614 4141 
L 4614 4717 
C 4614 5024 4627 5190 4653 5408 
L 3750 5408 
C 3776 5178 3789 5011 3789 4717 
L 3789 4141 
L 3354 4141 
C 3386 4339 3411 4506 3424 4602 
C 3443 4749 3456 4800 3475 4877 
L 2669 5024 
C 2669 4998 2669 4973 2669 4960 
C 2669 4627 2566 3994 2451 3610 
C 2355 3898 2278 4090 2170 4314 
L 1773 4122 
L 1773 4730 
C 1773 5043 1779 5197 1811 5427 
L 928 5427 
C 954 5210 966 5030 966 4730 
L 966 282 
C 966 -38 954 -314 928 -557 
L 1811 -557 
C 1779 -326 1773 -128 1773 224 
L 1773 4019 
z
M 3789 3373 
L 3789 2362 
L 3136 2362 
C 3008 2362 2931 2362 2810 2368 
C 3002 2746 3078 2938 3187 3373 
L 3789 3373 
z
M 666 2298 
C 787 2816 845 3328 858 4102 
L 333 4173 
C 333 4115 333 4070 333 4045 
C 333 3533 269 3034 134 2502 
L 666 2298 
z
" transform="scale(0.015625)"/>
     </defs>
     <use xlink:href="#HiraginoSans-W7-6709"/>
     <use xlink:href="#HiraginoSans-W7-9650" transform="translate(99.999985 0)"/>
     <use xlink:href="#HiraginoSans-W7-6b21" transform="translate(199.999969 0)"/>
     <use xlink:href="#HiraginoSans-W7-5143" transform="translate(299.999954 0)"/>
     <use xlink:href="#HiraginoSans-W7-6027" transform="translate(399.999939 0)"/>
    </g>
   </g>
   <g id="text_6">
    <!-- Submodule.finite -->
    <g style="fill: #7c3aed" transform="translate(54.778125 231.15727) scale(0.075 -0.075)">
     <defs>
      <path id="DejaVuSansMono-53" d="M 3163 4506 
L 3163 3866 
Q 2875 4050 2586 4144 
Q 2297 4238 2003 4238 
Q 1556 4238 1297 4030 
Q 1038 3822 1038 3469 
Q 1038 3159 1208 2996 
Q 1378 2834 1844 2725 
L 2175 2650 
Q 2831 2497 3131 2169 
Q 3431 1841 3431 1275 
Q 3431 609 3018 259 
Q 2606 -91 1819 -91 
Q 1491 -91 1159 -20 
Q 828 50 494 191 
L 494 863 
Q 853 634 1173 528 
Q 1494 422 1819 422 
Q 2297 422 2562 636 
Q 2828 850 2828 1234 
Q 2828 1584 2645 1768 
Q 2463 1953 2009 2053 
L 1672 2131 
Q 1022 2278 728 2575 
Q 434 2872 434 3372 
Q 434 3997 854 4373 
Q 1275 4750 1972 4750 
Q 2241 4750 2537 4689 
Q 2834 4628 3163 4506 
z
" transform="scale(0.015625)"/>
      <path id="DejaVuSansMono-75" d="M 609 1325 
L 609 3494 
L 1184 3494 
L 1184 1325 
Q 1184 853 1351 631 
Q 1519 409 1869 409 
Q 2275 409 2490 695 
Q 2706 981 2706 1516 
L 2706 3494 
L 3284 3494 
L 3284 0 
L 2706 0 
L 2706 525 
Q 2553 222 2289 65 
Q 2025 -91 1672 -91 
Q 1134 -91 871 261 
Q 609 613 609 1325 
z
" transform="scale(0.015625)"/>
      <path id="DejaVuSansMono-62" d="M 2869 1747 
Q 2869 2416 2656 2756 
Q 2444 3097 2028 3097 
Q 1609 3097 1393 2755 
Q 1178 2413 1178 1747 
Q 1178 1084 1393 740 
Q 1609 397 2028 397 
Q 2444 397 2656 737 
Q 2869 1078 2869 1747 
z
M 1178 3053 
Q 1316 3309 1558 3446 
Q 1800 3584 2119 3584 
Q 2750 3584 3112 3098 
Q 3475 2613 3475 1759 
Q 3475 894 3111 401 
Q 2747 -91 2113 -91 
Q 1800 -91 1561 45 
Q 1322 181 1178 441 
L 1178 0 
L 603 0 
L 603 4863 
L 1178 4863 
L 1178 3053 
z
" transform="scale(0.015625)"/>
      <path id="DejaVuSansMono-6d" d="M 2113 3144 
Q 2219 3369 2383 3476 
Q 2547 3584 2778 3584 
Q 3200 3584 3373 3257 
Q 3547 2931 3547 2028 
L 3547 0 
L 3022 0 
L 3022 2003 
Q 3022 2744 2939 2923 
Q 2856 3103 2638 3103 
Q 2388 3103 2295 2911 
Q 2203 2719 2203 2003 
L 2203 0 
L 1678 0 
L 1678 2003 
Q 1678 2753 1589 2928 
Q 1500 3103 1269 3103 
Q 1041 3103 952 2911 
Q 863 2719 863 2003 
L 863 0 
L 341 0 
L 341 3500 
L 863 3500 
L 863 3200 
Q 966 3388 1120 3486 
Q 1275 3584 1472 3584 
Q 1709 3584 1867 3475 
Q 2025 3366 2113 3144 
z
" transform="scale(0.015625)"/>
      <path id="DejaVuSansMono-6f" d="M 1925 3097 
Q 1488 3097 1263 2756 
Q 1038 2416 1038 1747 
Q 1038 1081 1263 739 
Q 1488 397 1925 397 
Q 2366 397 2591 739 
Q 2816 1081 2816 1747 
Q 2816 2416 2591 2756 
Q 2366 3097 1925 3097 
z
M 1925 3584 
Q 2653 3584 3039 3112 
Q 3425 2641 3425 1747 
Q 3425 850 3040 379 
Q 2656 -91 1925 -91 
Q 1197 -91 812 379 
Q 428 850 428 1747 
Q 428 2641 812 3112 
Q 1197 3584 1925 3584 
z
" transform="scale(0.015625)"/>
      <path id="DejaVuSansMono-64" d="M 2681 3053 
L 2681 4863 
L 3256 4863 
L 3256 0 
L 2681 0 
L 2681 441 
Q 2538 181 2298 45 
Q 2059 -91 1747 -91 
Q 1113 -91 748 401 
Q 384 894 384 1759 
Q 384 2613 750 3098 
Q 1116 3584 1747 3584 
Q 2063 3584 2303 3448 
Q 2544 3313 2681 3053 
z
M 991 1747 
Q 991 1078 1203 737 
Q 1416 397 1831 397 
Q 2247 397 2464 740 
Q 2681 1084 2681 1747 
Q 2681 2413 2464 2755 
Q 2247 3097 1831 3097 
Q 1416 3097 1203 2756 
Q 991 2416 991 1747 
z
" transform="scale(0.015625)"/>
      <path id="DejaVuSansMono-6c" d="M 1997 1269 
Q 1997 881 2139 684 
Q 2281 488 2559 488 
L 3231 488 
L 3231 0 
L 2503 0 
Q 1988 0 1705 331 
Q 1422 663 1422 1269 
L 1422 4447 
L 500 4447 
L 500 4897 
L 1997 4897 
L 1997 1269 
z
" transform="scale(0.015625)"/>
      <path id="DejaVuSansMono-65" d="M 3475 1894 
L 3475 1613 
L 984 1613 
L 984 1594 
Q 984 1022 1282 709 
Q 1581 397 2125 397 
Q 2400 397 2700 484 
Q 3000 572 3341 750 
L 3341 178 
Q 3013 44 2708 -23 
Q 2403 -91 2119 -91 
Q 1303 -91 843 398 
Q 384 888 384 1747 
Q 384 2584 834 3084 
Q 1284 3584 2034 3584 
Q 2703 3584 3089 3131 
Q 3475 2678 3475 1894 
z
M 2900 2063 
Q 2888 2569 2661 2833 
Q 2434 3097 2009 3097 
Q 1594 3097 1325 2822 
Q 1056 2547 1006 2059 
L 2900 2063 
z
" transform="scale(0.015625)"/>
      <path id="DejaVuSansMono-2e" d="M 1528 953 
L 2316 953 
L 2316 0 
L 1528 0 
L 1528 953 
z
" transform="scale(0.015625)"/>
      <path id="DejaVuSansMono-66" d="M 3322 4863 
L 3322 4384 
L 2669 4384 
Q 2359 4384 2239 4257 
Q 2119 4131 2119 3809 
L 2119 3500 
L 3322 3500 
L 3322 3053 
L 2119 3053 
L 2119 0 
L 1544 0 
L 1544 3053 
L 609 3053 
L 609 3500 
L 1544 3500 
L 1544 3744 
Q 1544 4319 1808 4591 
Q 2072 4863 2631 4863 
L 3322 4863 
z
" transform="scale(0.015625)"/>
      <path id="DejaVuSansMono-69" d="M 800 3500 
L 2272 3500 
L 2272 447 
L 3413 447 
L 3413 0 
L 556 0 
L 556 447 
L 1697 447 
L 1697 3053 
L 800 3053 
L 800 3500 
z
M 1697 4863 
L 2272 4863 
L 2272 4134 
L 1697 4134 
L 1697 4863 
z
" transform="scale(0.015625)"/>
      <path id="DejaVuSansMono-6e" d="M 3284 2169 
L 3284 0 
L 2706 0 
L 2706 2169 
Q 2706 2641 2540 2862 
Q 2375 3084 2022 3084 
Q 1619 3084 1401 2798 
Q 1184 2513 1184 1978 
L 1184 0 
L 609 0 
L 609 3500 
L 1184 3500 
L 1184 2975 
Q 1338 3275 1600 3429 
Q 1863 3584 2222 3584 
Q 2756 3584 3020 3232 
Q 3284 2881 3284 2169 
z
" transform="scale(0.015625)"/>
      <path id="DejaVuSansMono-74" d="M 1919 4494 
L 1919 3500 
L 3225 3500 
L 3225 3053 
L 1919 3053 
L 1919 1153 
Q 1919 766 2066 612 
Q 2213 459 2578 459 
L 3225 459 
L 3225 0 
L 2522 0 
Q 1875 0 1609 259 
Q 1344 519 1344 1153 
L 1344 3053 
L 409 3053 
L 409 3500 
L 1344 3500 
L 1344 4494 
L 1919 4494 
z
" transform="scale(0.015625)"/>
     </defs>
     <use xlink:href="#DejaVuSansMono-53"/>
     <use xlink:href="#DejaVuSansMono-75" transform="translate(60.205078 0)"/>
     <use xlink:href="#DejaVuSansMono-62" transform="translate(120.410156 0)"/>
     <use xlink:href="#DejaVuSansMono-6d" transform="translate(180.615234 0)"/>
     <use xlink:href="#DejaVuSansMono-6f" transform="translate(240.820312 0)"/>
     <use xlink:href="#DejaVuSansMono-64" transform="translate(301.025391 0)"/>
     <use xlink:href="#DejaVuSansMono-75" transform="translate(361.230469 0)"/>
     <use xlink:href="#DejaVuSansMono-6c" transform="translate(421.435547 0)"/>
     <use xlink:href="#DejaVuSansMono-65" transform="translate(481.640625 0)"/>
     <use xlink:href="#DejaVuSansMono-2e" transform="translate(541.845703 0)"/>
     <use xlink:href="#DejaVuSansMono-66" transform="translate(602.050781 0)"/>
     <use xlink:href="#DejaVuSansMono-69" transform="translate(662.255859 0)"/>
     <use xlink:href="#DejaVuSansMono-6e" transform="translate(722.460938 0)"/>
     <use xlink:href="#DejaVuSansMono-69" transform="translate(782.666016 0)"/>
     <use xlink:href="#DejaVuSansMono-74" transform="translate(842.871094 0)"/>
     <use xlink:href="#DejaVuSansMono-65" transform="translate(903.076172 0)"/>
    </g>
    <!-- Dimensional_of_le -->
    <g style="fill: #7c3aed" transform="translate(52.520508 239.603442) scale(0.075 -0.075)">
     <defs>
      <path id="DejaVuSansMono-44" d="M 1363 519 
Q 2159 519 2475 911 
Q 2791 1303 2791 2328 
Q 2791 3363 2477 3755 
Q 2163 4147 1363 4147 
L 1063 4147 
L 1063 519 
L 1363 519 
z
M 1375 4666 
Q 2444 4666 2950 4097 
Q 3456 3528 3456 2328 
Q 3456 1134 2950 567 
Q 2444 0 1375 0 
L 428 0 
L 428 4666 
L 1375 4666 
z
" transform="scale(0.015625)"/>
      <path id="DejaVuSansMono-73" d="M 3041 3378 
L 3041 2816 
Q 2794 2959 2544 3031 
Q 2294 3103 2034 3103 
Q 1644 3103 1451 2976 
Q 1259 2850 1259 2591 
Q 1259 2356 1403 2240 
Q 1547 2125 2119 2016 
L 2350 1972 
Q 2778 1891 2998 1647 
Q 3219 1403 3219 1013 
Q 3219 494 2850 201 
Q 2481 -91 1825 -91 
Q 1566 -91 1281 -36 
Q 997 19 666 128 
L 666 722 
Q 988 556 1281 473 
Q 1575 391 1838 391 
Q 2219 391 2428 545 
Q 2638 700 2638 978 
Q 2638 1378 1872 1531 
L 1847 1538 
L 1631 1581 
Q 1134 1678 906 1908 
Q 678 2138 678 2534 
Q 678 3038 1018 3311 
Q 1359 3584 1991 3584 
Q 2272 3584 2531 3532 
Q 2791 3481 3041 3378 
z
" transform="scale(0.015625)"/>
      <path id="DejaVuSansMono-61" d="M 2194 1759 
L 2003 1759 
Q 1500 1759 1245 1582 
Q 991 1406 991 1056 
Q 991 741 1181 566 
Q 1372 391 1709 391 
Q 2184 391 2456 720 
Q 2728 1050 2731 1631 
L 2731 1759 
L 2194 1759 
z
M 3309 1997 
L 3309 0 
L 2731 0 
L 2731 519 
Q 2547 206 2267 57 
Q 1988 -91 1588 -91 
Q 1053 -91 734 211 
Q 416 513 416 1019 
Q 416 1603 808 1906 
Q 1200 2209 1959 2209 
L 2731 2209 
L 2731 2300 
Q 2728 2719 2518 2908 
Q 2309 3097 1850 3097 
Q 1556 3097 1256 3012 
Q 956 2928 672 2766 
L 672 3341 
Q 991 3463 1283 3523 
Q 1575 3584 1850 3584 
Q 2284 3584 2592 3456 
Q 2900 3328 3091 3072 
Q 3209 2916 3259 2686 
Q 3309 2456 3309 1997 
z
" transform="scale(0.015625)"/>
      <path id="DejaVuSansMono-5f" d="M 3853 -1259 
L 3853 -1509 
L 0 -1509 
L 0 -1259 
L 3853 -1259 
z
" transform="scale(0.015625)"/>
     </defs>
     <use xlink:href="#DejaVuSansMono-44"/>
     <use xlink:href="#DejaVuSansMono-69" transform="translate(60.205078 0)"/>
     <use xlink:href="#DejaVuSansMono-6d" transform="translate(120.410156 0)"/>
     <use xlink:href="#DejaVuSansMono-65" transform="translate(180.615234 0)"/>
     <use xlink:href="#DejaVuSansMono-6e" transform="translate(240.820312 0)"/>
     <use xlink:href="#DejaVuSansMono-73" transform="translate(301.025391 0)"/>
     <use xlink:href="#DejaVuSansMono-69" transform="translate(361.230469 0)"/>
     <use xlink:href="#DejaVuSansMono-6f" transform="translate(421.435547 0)"/>
     <use xlink:href="#DejaVuSansMono-6e" transform="translate(481.640625 0)"/>
     <use xlink:href="#DejaVuSansMono-61" transform="translate(541.845703 0)"/>
     <use xlink:href="#DejaVuSansMono-6c" transform="translate(602.050781 0)"/>
     <use xlink:href="#DejaVuSansMono-5f" transform="translate(662.255859 0)"/>
     <use xlink:href="#DejaVuSansMono-6f" transform="translate(722.460938 0)"/>
     <use xlink:href="#DejaVuSansMono-66" transform="translate(782.666016 0)"/>
     <use xlink:href="#DejaVuSansMono-5f" transform="translate(842.871094 0)"/>
     <use xlink:href="#DejaVuSansMono-6c" transform="translate(903.076172 0)"/>
     <use xlink:href="#DejaVuSansMono-65" transform="translate(963.28125 0)"/>
    </g>
   </g>
   <g id="text_7">
    <!-- have h_range -->
    <g style="fill: #ffffff" transform="translate(283.396406 169.094466) scale(0.085 -0.085)">
     <defs>
      <path id="DejaVuSansMono-Bold-6e" d="M 3347 2272 
L 3347 0 
L 2438 0 
L 2438 2131 
Q 2438 2513 2330 2677 
Q 2222 2841 1978 2841 
Q 1731 2841 1589 2619 
Q 1447 2397 1447 2003 
L 1447 0 
L 538 0 
L 538 3500 
L 1447 3500 
L 1447 2975 
Q 1544 3266 1778 3425 
Q 2013 3584 2344 3584 
Q 2841 3584 3094 3254 
Q 3347 2925 3347 2272 
z
" transform="scale(0.015625)"/>
      <path id="DejaVuSansMono-Bold-67" d="M 2509 1806 
Q 2509 2275 2331 2558 
Q 2153 2841 1863 2841 
Q 1575 2841 1398 2559 
Q 1222 2278 1222 1806 
Q 1222 1331 1398 1050 
Q 1575 769 1863 769 
Q 2153 769 2331 1051 
Q 2509 1334 2509 1806 
z
M 3425 263 
Q 3425 -578 3045 -951 
Q 2666 -1325 1813 -1325 
Q 1525 -1325 1244 -1283 
Q 963 -1241 672 -1153 
L 672 -313 
Q 931 -456 1200 -525 
Q 1469 -594 1753 -594 
Q 2141 -594 2325 -411 
Q 2509 -228 2509 159 
L 2509 538 
Q 2375 288 2153 166 
Q 1931 44 1613 44 
Q 1013 44 659 512 
Q 306 981 306 1784 
Q 306 2616 659 3103 
Q 1013 3591 1606 3591 
Q 1906 3591 2140 3450 
Q 2375 3309 2509 3053 
L 2509 3500 
L 3425 3500 
L 3425 263 
z
" transform="scale(0.015625)"/>
     </defs>
     <use xlink:href="#DejaVuSansMono-Bold-68"/>
     <use xlink:href="#DejaVuSansMono-Bold-61" transform="translate(60.205078 0)"/>
     <use xlink:href="#DejaVuSansMono-Bold-76" transform="translate(120.410156 0)"/>
     <use xlink:href="#DejaVuSansMono-Bold-65" transform="translate(180.615234 0)"/>
     <use xlink:href="#DejaVuSansMono-Bold-20" transform="translate(240.820312 0)"/>
     <use xlink:href="#DejaVuSansMono-Bold-68" transform="translate(301.025391 0)"/>
     <use xlink:href="#DejaVuSansMono-Bold-5f" transform="translate(361.230469 0)"/>
     <use xlink:href="#DejaVuSansMono-Bold-72" transform="translate(421.435547 0)"/>
     <use xlink:href="#DejaVuSansMono-Bold-61" transform="translate(481.640625 0)"/>
     <use xlink:href="#DejaVuSansMono-Bold-6e" transform="translate(541.845703 0)"/>
     <use xlink:href="#DejaVuSansMono-Bold-67" transform="translate(602.050781 0)"/>
     <use xlink:href="#DejaVuSansMono-Bold-65" transform="translate(662.255859 0)"/>
    </g>
   </g>
   <g id="text_8">
    <!-- range の -->
    <g style="fill: #1e293b" transform="translate(293.427422 202.517972) scale(0.09 -0.09)">
     <use xlink:href="#HiraginoSans-W7-72"/>
     <use xlink:href="#HiraginoSans-W7-61" transform="translate(52.099991 0)"/>
     <use xlink:href="#HiraginoSans-W7-6e" transform="translate(118.499985 0)"/>
     <use xlink:href="#HiraginoSans-W7-67" transform="translate(188.699966 0)"/>
     <use xlink:href="#HiraginoSans-W7-65" transform="translate(259.999954 0)"/>
     <use xlink:href="#HiraginoSans-W7-20" transform="translate(326.099945 0)"/>
     <use xlink:href="#HiraginoSans-W7-306e" transform="translate(359.399933 0)"/>
    </g>
    <!-- 有限次元性 -->
    <g style="fill: #1e293b" transform="translate(291.6 212.961909) scale(0.09 -0.09)">
     <use xlink:href="#HiraginoSans-W7-6709"/>
     <use xlink:href="#HiraginoSans-W7-9650" transform="translate(99.999985 0)"/>
     <use xlink:href="#HiraginoSans-W7-6b21" transform="translate(199.999969 0)"/>
     <use xlink:href="#HiraginoSans-W7-5143" transform="translate(299.999954 0)"/>
     <use xlink:href="#HiraginoSans-W7-6027" transform="translate(399.999939 0)"/>
    </g>
   </g>
   <g id="text_9">
    <!-- LinearMap.finite -->
    <g style="fill: #059669" transform="translate(277.978125 231.15727) scale(0.075 -0.075)">
     <defs>
      <path id="DejaVuSansMono-4c" d="M 672 4666 
L 1306 4666 
L 1306 531 
L 3559 531 
L 3559 0 
L 672 0 
L 672 4666 
z
" transform="scale(0.015625)"/>
      <path id="DejaVuSansMono-72" d="M 3609 2778 
Q 3425 2922 3234 2987 
Q 3044 3053 2816 3053 
Q 2278 3053 1993 2715 
Q 1709 2378 1709 1741 
L 1709 0 
L 1131 0 
L 1131 3500 
L 1709 3500 
L 1709 2816 
Q 1853 3188 2151 3386 
Q 2450 3584 2859 3584 
Q 3072 3584 3256 3531 
Q 3441 3478 3609 3366 
L 3609 2778 
z
" transform="scale(0.015625)"/>
      <path id="DejaVuSansMono-4d" d="M 269 4666 
L 1113 4666 
L 1919 2291 
L 2731 4666 
L 3578 4666 
L 3578 0 
L 2994 0 
L 2994 4122 
L 2163 1663 
L 1684 1663 
L 850 4122 
L 850 0 
L 269 0 
L 269 4666 
z
" transform="scale(0.015625)"/>
      <path id="DejaVuSansMono-70" d="M 1172 441 
L 1172 -1331 
L 594 -1331 
L 594 3500 
L 1172 3500 
L 1172 3053 
Q 1316 3313 1555 3448 
Q 1794 3584 2106 3584 
Q 2741 3584 3102 3093 
Q 3463 2603 3463 1734 
Q 3463 881 3100 395 
Q 2738 -91 2106 -91 
Q 1788 -91 1548 45 
Q 1309 181 1172 441 
z
M 2859 1747 
Q 2859 2416 2648 2756 
Q 2438 3097 2022 3097 
Q 1603 3097 1387 2755 
Q 1172 2413 1172 1747 
Q 1172 1084 1387 740 
Q 1603 397 2022 397 
Q 2438 397 2648 737 
Q 2859 1078 2859 1747 
z
" transform="scale(0.015625)"/>
     </defs>
     <use xlink:href="#DejaVuSansMono-4c"/>
     <use xlink:href="#DejaVuSansMono-69" transform="translate(60.205078 0)"/>
     <use xlink:href="#DejaVuSansMono-6e" transform="translate(120.410156 0)"/>
     <use xlink:href="#DejaVuSansMono-65" transform="translate(180.615234 0)"/>
     <use xlink:href="#DejaVuSansMono-61" transform="translate(240.820312 0)"/>
     <use xlink:href="#DejaVuSansMono-72" transform="translate(301.025391 0)"/>
     <use xlink:href="#DejaVuSansMono-4d" transform="translate(361.230469 0)"/>
     <use xlink:href="#DejaVuSansMono-61" transform="translate(421.435547 0)"/>
     <use xlink:href="#DejaVuSansMono-70" transform="translate(481.640625 0)"/>
     <use xlink:href="#DejaVuSansMono-2e" transform="translate(541.845703 0)"/>
     <use xlink:href="#DejaVuSansMono-66" transform="translate(602.050781 0)"/>
     <use xlink:href="#DejaVuSansMono-69" transform="translate(662.255859 0)"/>
     <use xlink:href="#DejaVuSansMono-6e" transform="translate(722.460938 0)"/>
     <use xlink:href="#DejaVuSansMono-69" transform="translate(782.666016 0)"/>
     <use xlink:href="#DejaVuSansMono-74" transform="translate(842.871094 0)"/>
     <use xlink:href="#DejaVuSansMono-65" transform="translate(903.076172 0)"/>
    </g>
    <!-- Dimensional_range -->
    <g style="fill: #059669" transform="translate(275.720508 239.603442) scale(0.075 -0.075)">
     <defs>
      <path id="DejaVuSansMono-67" d="M 2681 1778 
Q 2681 2425 2470 2761 
Q 2259 3097 1856 3097 
Q 1434 3097 1212 2761 
Q 991 2425 991 1778 
Q 991 1131 1214 792 
Q 1438 453 1863 453 
Q 2259 453 2470 793 
Q 2681 1134 2681 1778 
z
M 3256 225 
Q 3256 -563 2884 -969 
Q 2513 -1375 1791 -1375 
Q 1553 -1375 1293 -1331 
Q 1034 -1288 775 -1203 
L 775 -634 
Q 1081 -778 1331 -847 
Q 1581 -916 1791 -916 
Q 2256 -916 2468 -662 
Q 2681 -409 2681 141 
L 2681 166 
L 2681 556 
Q 2544 263 2306 119 
Q 2069 -25 1728 -25 
Q 1116 -25 750 465 
Q 384 956 384 1778 
Q 384 2603 750 3093 
Q 1116 3584 1728 3584 
Q 2066 3584 2300 3450 
Q 2534 3316 2681 3034 
L 2681 3488 
L 3256 3488 
L 3256 225 
z
" transform="scale(0.015625)"/>
     </defs>
     <use xlink:href="#DejaVuSansMono-44"/>
     <use xlink:href="#DejaVuSansMono-69" transform="translate(60.205078 0)"/>
     <use xlink:href="#DejaVuSansMono-6d" transform="translate(120.410156 0)"/>
     <use xlink:href="#DejaVuSansMono-65" transform="translate(180.615234 0)"/>
     <use xlink:href="#DejaVuSansMono-6e" transform="translate(240.820312 0)"/>
     <use xlink:href="#DejaVuSansMono-73" transform="translate(301.025391 0)"/>
     <use xlink:href="#DejaVuSansMono-69" transform="translate(361.230469 0)"/>
     <use xlink:href="#DejaVuSansMono-6f" transform="translate(421.435547 0)"/>
     <use xlink:href="#DejaVuSansMono-6e" transform="translate(481.640625 0)"/>
     <use xlink:href="#DejaVuSansMono-61" transform="translate(541.845703 0)"/>
     <use xlink:href="#DejaVuSansMono-6c" transform="translate(602.050781 0)"/>
     <use xlink:href="#DejaVuSansMono-5f" transform="translate(662.255859 0)"/>
     <use xlink:href="#DejaVuSansMono-72" transform="translate(722.460938 0)"/>
     <use xlink:href="#DejaVuSansMono-61" transform="translate(782.666016 0)"/>
     <use xlink:href="#DejaVuSansMono-6e" transform="translate(842.871094 0)"/>
     <use xlink:href="#DejaVuSansMono-67" transform="translate(903.076172 0)"/>
     <use xlink:href="#DejaVuSansMono-65" transform="translate(963.28125 0)"/>
    </g>
   </g>
   <g id="text_10">
    <!-- have key -->
    <g style="fill: #ffffff" transform="translate(516.830938 169.212669) scale(0.085 -0.085)">
     <defs>
      <path id="DejaVuSansMono-Bold-79" d="M 2222 -378 
Q 2038 -872 1780 -1098 
Q 1522 -1325 1153 -1325 
L 397 -1325 
L 397 -628 
L 769 -628 
Q 1050 -628 1181 -533 
Q 1313 -438 1447 -91 
L 1516 97 
L 184 3500 
L 1147 3500 
L 1947 1228 
L 2713 3500 
L 3675 3500 
L 2222 -378 
z
" transform="scale(0.015625)"/>
     </defs>
     <use xlink:href="#DejaVuSansMono-Bold-68"/>
     <use xlink:href="#DejaVuSansMono-Bold-61" transform="translate(60.205078 0)"/>
     <use xlink:href="#DejaVuSansMono-Bold-76" transform="translate(120.410156 0)"/>
     <use xlink:href="#DejaVuSansMono-Bold-65" transform="translate(180.615234 0)"/>
     <use xlink:href="#DejaVuSansMono-Bold-20" transform="translate(240.820312 0)"/>
     <use xlink:href="#DejaVuSansMono-Bold-6b" transform="translate(301.025391 0)"/>
     <use xlink:href="#DejaVuSansMono-Bold-65" transform="translate(361.230469 0)"/>
     <use xlink:href="#DejaVuSansMono-Bold-79" transform="translate(421.435547 0)"/>
    </g>
   </g>
   <g id="text_11">
    <!-- dim ker + -->
    <g style="fill: #1e293b" transform="translate(513.387422 202.522191) scale(0.09 -0.09)">
     <defs>
      <path id="HiraginoSans-W7-6d" d="M 1472 -134 
C 1440 166 1427 390 1427 762 
L 1427 2061 
C 1536 2323 1606 2438 1728 2566 
C 1901 2746 2118 2848 2330 2848 
C 2490 2848 2637 2784 2720 2669 
C 2810 2554 2848 2406 2848 2144 
L 2848 762 
C 2848 371 2835 141 2797 -134 
L 3910 -134 
C 3878 160 3866 390 3866 762 
L 3866 2061 
C 3962 2336 4032 2451 4166 2592 
C 4326 2765 4531 2854 4762 2854 
C 4947 2854 5101 2784 5184 2662 
C 5261 2547 5293 2413 5293 2144 
L 5293 762 
C 5293 358 5280 154 5242 -134 
L 6355 -134 
C 6323 147 6310 384 6310 762 
L 6310 2342 
C 6310 2784 6227 3078 6035 3315 
C 5811 3597 5446 3744 4986 3744 
C 4442 3744 4064 3571 3706 3162 
C 3616 3315 3558 3386 3469 3462 
C 3264 3648 2982 3744 2624 3744 
C 2106 3744 1754 3590 1414 3206 
C 1421 3232 1421 3232 1421 3296 
C 1421 3302 1421 3302 1427 3411 
L 1427 3654 
L 371 3654 
C 410 3418 422 3200 422 2758 
L 422 762 
C 422 390 410 147 371 -134 
L 1472 -134 
z
" transform="scale(0.015625)"/>
      <path id="HiraginoSans-W7-2b" d="M 2688 1306 
L 4179 1306 
L 4179 2202 
L 2688 2202 
L 2688 3699 
L 1786 3699 
L 1786 2202 
L 288 2202 
L 288 1306 
L 1786 1306 
L 1786 -186 
L 2688 -186 
L 2688 1306 
z
" transform="scale(0.015625)"/>
     </defs>
     <use xlink:href="#HiraginoSans-W7-64"/>
     <use xlink:href="#HiraginoSans-W7-69" transform="translate(73.499985 0)"/>
     <use xlink:href="#HiraginoSans-W7-6d" transform="translate(102.699982 0)"/>
     <use xlink:href="#HiraginoSans-W7-20" transform="translate(207.799973 0)"/>
     <use xlink:href="#HiraginoSans-W7-6b" transform="translate(241.09996 0)"/>
     <use xlink:href="#HiraginoSans-W7-65" transform="translate(309.999954 0)"/>
     <use xlink:href="#HiraginoSans-W7-72" transform="translate(376.099945 0)"/>
     <use xlink:href="#HiraginoSans-W7-20" transform="translate(428.199936 0)"/>
     <use xlink:href="#HiraginoSans-W7-2b" transform="translate(461.499924 0)"/>
    </g>
    <!-- dim range = dim V -->
    <g style="fill: #1e293b" transform="translate(491.099063 212.957691) scale(0.09 -0.09)">
     <defs>
      <path id="HiraginoSans-W7-3d" d="M 294 3008 
L 294 2112 
L 4173 2112 
L 4173 3008 
L 294 3008 
z
M 294 1427 
L 294 531 
L 4173 531 
L 4173 1427 
L 294 1427 
z
" transform="scale(0.015625)"/>
      <path id="HiraginoSans-W7-56" d="M 1491 4390 
C 1414 4640 1370 4819 1331 5069 
L 58 5069 
C 147 4883 237 4672 371 4294 
L 1734 531 
C 1843 230 1907 26 1939 -134 
L 3309 -134 
C 3334 19 3398 224 3514 531 
L 4877 4294 
C 5030 4730 5101 4902 5184 5069 
L 3910 5069 
C 3872 4794 3859 4730 3750 4390 
L 2758 1242 
C 2707 1082 2662 934 2624 800 
C 2605 883 2554 1056 2496 1242 
L 1491 4390 
z
" transform="scale(0.015625)"/>
     </defs>
     <use xlink:href="#HiraginoSans-W7-64"/>
     <use xlink:href="#HiraginoSans-W7-69" transform="translate(73.499985 0)"/>
     <use xlink:href="#HiraginoSans-W7-6d" transform="translate(102.699982 0)"/>
     <use xlink:href="#HiraginoSans-W7-20" transform="translate(207.799973 0)"/>
     <use xlink:href="#HiraginoSans-W7-72" transform="translate(241.09996 0)"/>
     <use xlink:href="#HiraginoSans-W7-61" transform="translate(293.199951 0)"/>
     <use xlink:href="#HiraginoSans-W7-6e" transform="translate(359.599945 0)"/>
     <use xlink:href="#HiraginoSans-W7-67" transform="translate(429.799927 0)"/>
     <use xlink:href="#HiraginoSans-W7-65" transform="translate(501.099915 0)"/>
     <use xlink:href="#HiraginoSans-W7-20" transform="translate(567.199905 0)"/>
     <use xlink:href="#HiraginoSans-W7-3d" transform="translate(600.499893 0)"/>
     <use xlink:href="#HiraginoSans-W7-20" transform="translate(670.399887 0)"/>
     <use xlink:href="#HiraginoSans-W7-64" transform="translate(703.699875 0)"/>
     <use xlink:href="#HiraginoSans-W7-69" transform="translate(777.19986 0)"/>
     <use xlink:href="#HiraginoSans-W7-6d" transform="translate(806.399857 0)"/>
     <use xlink:href="#HiraginoSans-W7-20" transform="translate(911.499847 0)"/>
     <use xlink:href="#HiraginoSans-W7-56" transform="translate(944.799835 0)"/>
    </g>
   </g>
   <g id="text_12">
    <!-- finrank_add_finrank -->
    <g style="fill: #d97706" transform="translate(494.405273 231.033052) scale(0.075 -0.075)">
     <defs>
      <path id="DejaVuSansMono-6b" d="M 738 4863 
L 1331 4863 
L 1331 2047 
L 2841 3500 
L 3541 3500 
L 2163 2181 
L 3756 0 
L 3053 0 
L 1759 1806 
L 1331 1403 
L 1331 0 
L 738 0 
L 738 4863 
z
" transform="scale(0.015625)"/>
     </defs>
     <use xlink:href="#DejaVuSansMono-66"/>
     <use xlink:href="#DejaVuSansMono-69" transform="translate(60.205078 0)"/>
     <use xlink:href="#DejaVuSansMono-6e" transform="translate(120.410156 0)"/>
     <use xlink:href="#DejaVuSansMono-72" transform="translate(180.615234 0)"/>
     <use xlink:href="#DejaVuSansMono-61" transform="translate(240.820312 0)"/>
     <use xlink:href="#DejaVuSansMono-6e" transform="translate(301.025391 0)"/>
     <use xlink:href="#DejaVuSansMono-6b" transform="translate(361.230469 0)"/>
     <use xlink:href="#DejaVuSansMono-5f" transform="translate(421.435547 0)"/>
     <use xlink:href="#DejaVuSansMono-61" transform="translate(481.640625 0)"/>
     <use xlink:href="#DejaVuSansMono-64" transform="translate(541.845703 0)"/>
     <use xlink:href="#DejaVuSansMono-64" transform="translate(602.050781 0)"/>
     <use xlink:href="#DejaVuSansMono-5f" transform="translate(662.255859 0)"/>
     <use xlink:href="#DejaVuSansMono-66" transform="translate(722.460938 0)"/>
     <use xlink:href="#DejaVuSansMono-69" transform="translate(782.666016 0)"/>
     <use xlink:href="#DejaVuSansMono-6e" transform="translate(842.871094 0)"/>
     <use xlink:href="#DejaVuSansMono-72" transform="translate(903.076172 0)"/>
     <use xlink:href="#DejaVuSansMono-61" transform="translate(963.28125 0)"/>
     <use xlink:href="#DejaVuSansMono-6e" transform="translate(1023.486328 0)"/>
     <use xlink:href="#DejaVuSansMono-6b" transform="translate(1083.691406 0)"/>
    </g>
    <!-- _compl -->
    <g style="fill: #d97706" transform="translate(523.754297 239.687817) scale(0.075 -0.075)">
     <defs>
      <path id="DejaVuSansMono-63" d="M 3316 178 
Q 3084 44 2839 -23 
Q 2594 -91 2338 -91 
Q 1525 -91 1067 396 
Q 609 884 609 1747 
Q 609 2609 1067 3096 
Q 1525 3584 2338 3584 
Q 2591 3584 2831 3518 
Q 3072 3453 3316 3316 
L 3316 2713 
Q 3088 2916 2858 3006 
Q 2628 3097 2338 3097 
Q 1797 3097 1506 2747 
Q 1216 2397 1216 1747 
Q 1216 1100 1508 748 
Q 1800 397 2338 397 
Q 2638 397 2875 489 
Q 3113 581 3316 775 
L 3316 178 
z
" transform="scale(0.015625)"/>
     </defs>
     <use xlink:href="#DejaVuSansMono-5f"/>
     <use xlink:href="#DejaVuSansMono-63" transform="translate(60.205078 0)"/>
     <use xlink:href="#DejaVuSansMono-6f" transform="translate(120.410156 0)"/>
     <use xlink:href="#DejaVuSansMono-6d" transform="translate(180.615234 0)"/>
     <use xlink:href="#DejaVuSansMono-70" transform="translate(240.820312 0)"/>
     <use xlink:href="#DejaVuSansMono-6c" transform="translate(301.025391 0)"/>
    </g>
   </g>
   <g id="text_13">
    <!-- 証明完了  No goals ✓ -->
    <g style="fill: #059669" transform="translate(255.317891 337.793656) scale(0.11 -0.11)">
     <defs>
      <path id="HiraginoSans-W7-5b8c" d="M 2726 4845 
L 1120 4845 
C 781 4845 602 4851 384 4870 
C 403 4717 410 4576 410 4358 
L 410 3789 
C 410 3584 397 3430 378 3277 
L 1210 3277 
L 1210 4096 
L 5216 4096 
L 5216 3277 
L 6042 3277 
C 6016 3430 6010 3578 6010 3789 
L 6010 4358 
C 6010 4595 6016 4717 6035 4870 
C 5811 4851 5638 4845 5299 4845 
L 3584 4845 
L 3584 4966 
C 3584 5146 3597 5306 3616 5414 
L 2694 5414 
C 2714 5286 2726 5139 2726 4960 
L 2726 4845 
z
M 1926 1811 
C 1920 1728 1914 1702 1907 1651 
C 1843 1107 1594 749 1094 499 
C 838 371 646 307 198 192 
C 435 -96 544 -275 646 -582 
C 1178 -416 1421 -307 1734 -96 
C 2310 282 2637 813 2726 1510 
C 2739 1600 2739 1613 2758 1811 
L 3354 1811 
L 3354 134 
C 3354 -352 3546 -442 4538 -442 
C 5357 -442 5632 -403 5818 -256 
C 6054 -77 6144 224 6163 915 
C 5856 960 5690 1005 5382 1139 
C 5382 1082 5382 1043 5382 1018 
C 5382 819 5357 563 5325 486 
C 5286 365 5146 326 4742 326 
C 4269 326 4186 352 4186 506 
L 4186 1811 
L 5318 1811 
C 5645 1811 5830 1805 6016 1779 
L 6016 2586 
C 5830 2560 5664 2554 5325 2554 
L 1101 2554 
C 755 2554 582 2560 397 2586 
L 397 1779 
C 589 1805 768 1811 1101 1811 
L 1926 1811 
z
M 1338 2944 
C 1517 2963 1677 2970 1971 2970 
L 4454 2970 
C 4755 2970 4909 2963 5088 2944 
L 5088 3725 
C 4909 3706 4755 3699 4454 3699 
L 1971 3699 
C 1677 3699 1517 3706 1338 3725 
L 1338 2944 
z
" transform="scale(0.015625)"/>
      <path id="HiraginoSans-W7-4e86" d="M 4557 4314 
C 4160 3936 3872 3725 3443 3482 
L 2790 3482 
C 2816 3290 2822 3098 2822 2835 
L 2822 544 
C 2822 422 2752 390 2522 390 
C 2259 390 1958 416 1536 474 
C 1658 147 1709 -64 1760 -422 
C 2266 -448 2432 -454 2643 -454 
C 3443 -454 3706 -282 3706 237 
L 3706 2701 
C 4192 3008 4403 3155 4787 3462 
C 5165 3763 5242 3834 5747 4320 
C 5843 4416 5907 4480 6016 4576 
L 5491 5171 
C 5331 5146 5114 5133 4762 5133 
L 1530 5133 
C 1120 5133 845 5146 614 5171 
L 614 4275 
C 909 4301 1152 4314 1530 4314 
L 4557 4314 
z
" transform="scale(0.015625)"/>
      <path id="HiraginoSans-W7-4e" d="M 2035 4333 
C 1805 4672 1677 4902 1619 5069 
L 429 5069 
C 467 4787 480 4531 480 4179 
L 480 851 
C 480 397 467 96 429 -134 
L 1568 -134 
C 1530 115 1517 410 1517 845 
L 1517 2714 
C 1517 2842 1504 3110 1498 3219 
C 1478 3443 1478 3443 1472 3520 
C 1645 3187 1754 2995 1882 2803 
L 3354 614 
C 3558 301 3712 38 3789 -134 
L 4992 -134 
C 4954 102 4941 378 4941 755 
L 4941 4141 
C 4941 4550 4954 4800 4992 5069 
L 3846 5069 
C 3891 4794 3904 4563 3904 4147 
L 3904 2208 
C 3904 1971 3923 1632 3942 1408 
C 3808 1664 3654 1920 3507 2138 
L 2035 4333 
z
" transform="scale(0.015625)"/>
      <path id="HiraginoSans-W7-6f" d="M 2208 -262 
C 3418 -262 4211 544 4211 1773 
C 4211 3002 3437 3782 2214 3782 
C 992 3782 211 2995 211 1760 
C 211 525 986 -262 2208 -262 
z
M 2221 2976 
C 2835 2976 3194 2522 3194 1754 
C 3194 1005 2829 557 2214 557 
C 1600 557 1229 1018 1229 1773 
C 1229 2522 1606 2976 2221 2976 
z
" transform="scale(0.015625)"/>
      <path id="HiraginoSans-W7-6c" d="M 371 5069 
C 410 4819 422 4589 422 4173 
L 422 762 
C 422 339 410 147 371 -134 
L 1491 -134 
C 1459 166 1446 397 1446 762 
L 1446 4173 
C 1446 4582 1459 4813 1491 5069 
L 371 5069 
z
" transform="scale(0.015625)"/>
      <path id="HiraginoSans-W7-73" d="M 211 979 
C 275 685 339 531 461 365 
C 749 -38 1280 -243 2029 -243 
C 3117 -243 3757 224 3757 1018 
C 3757 1395 3590 1683 3270 1875 
C 3027 2022 2810 2093 2157 2234 
C 1824 2304 1690 2342 1574 2400 
C 1446 2458 1376 2547 1376 2656 
C 1376 2867 1613 2995 1997 2995 
C 2381 2995 2566 2867 2605 2566 
L 3635 2688 
C 3558 3021 3456 3206 3258 3386 
C 2982 3642 2547 3776 1984 3776 
C 992 3776 384 3328 384 2592 
C 384 2189 608 1850 986 1677 
C 1210 1574 1434 1510 2035 1389 
C 2400 1312 2528 1274 2618 1210 
C 2707 1146 2752 1062 2752 960 
C 2752 723 2490 576 2074 576 
C 1766 576 1536 653 1414 794 
C 1344 877 1312 947 1274 1107 
L 211 979 
z
" transform="scale(0.015625)"/>
      <path id="DejaVuSans-Bold-2713" d="M 1416 2044 
Q 1538 2044 1600 1844 
Q 1725 1469 1778 1469 
Q 1819 1469 1863 1531 
Q 2741 2938 3488 3806 
Q 3681 4031 4103 4031 
Q 4203 4031 4237 4012 
Q 4272 3994 4272 3966 
Q 4272 3922 4169 3794 
Q 2963 2344 1931 731 
Q 1859 619 1638 619 
Q 1413 619 1372 638 
Q 1266 684 1122 1116 
Q 959 1594 959 1716 
Q 959 1847 1178 1969 
Q 1313 2044 1416 2044 
z
" transform="scale(0.015625)"/>
     </defs>
     <use xlink:href="#HiraginoSans-W7-8a3c"/>
     <use xlink:href="#HiraginoSans-W7-660e" transform="translate(99.999985 0)"/>
     <use xlink:href="#HiraginoSans-W7-5b8c" transform="translate(199.999969 0)"/>
     <use xlink:href="#HiraginoSans-W7-4e86" transform="translate(299.999954 0)"/>
     <use xlink:href="#HiraginoSans-W7-20" transform="translate(399.999939 0)"/>
     <use xlink:href="#HiraginoSans-W7-20" transform="translate(433.299927 0)"/>
     <use xlink:href="#HiraginoSans-W7-4e" transform="translate(466.599915 0)"/>
     <use xlink:href="#HiraginoSans-W7-6f" transform="translate(551.199905 0)"/>
     <use xlink:href="#HiraginoSans-W7-20" transform="translate(620.299896 0)"/>
     <use xlink:href="#HiraginoSans-W7-67" transform="translate(653.599884 0)"/>
     <use xlink:href="#HiraginoSans-W7-6f" transform="translate(724.899872 0)"/>
     <use xlink:href="#HiraginoSans-W7-61" transform="translate(793.999863 0)"/>
     <use xlink:href="#HiraginoSans-W7-6c" transform="translate(860.399857 0)"/>
     <use xlink:href="#HiraginoSans-W7-73" transform="translate(889.499847 0)"/>
     <use xlink:href="#HiraginoSans-W7-20" transform="translate(951.699844 0)"/>
     <use xlink:href="#DejaVuSans-Bold-2713" transform="translate(984.999832 0)"/>
    </g>
   </g>
  </g>
 </g>
 <defs>
  <clipPath id="p835b2f8e20">
   <rect x="7.2" y="7.2" width="613.8" height="415.8"/>
  </clipPath>
 </defs>
</svg>
