<?xml version="1.0" encoding="utf-8" standalone="no"?>
<!DOCTYPE svg PUBLIC "-//W3C//DTD SVG 1.1//EN"
  "http://www.w3.org/Graphics/SVG/1.1/DTD/svg11.dtd">
<svg xmlns:xlink="http://www.w3.org/1999/xlink" width="516.6pt" height="568.8pt" viewBox="0 0 516.6 568.8" xmlns="http://www.w3.org/2000/svg" version="1.1">
 <metadata>
  <rdf:RDF xmlns:dc="http://purl.org/dc/elements/1.1/" xmlns:cc="http://creativecommons.org/ns#" xmlns:rdf="http://www.w3.org/1999/02/22-rdf-syntax-ns#">
   <cc:Work>
    <dc:type rdf:resource="http://purl.org/dc/dcmitype/StillImage"/>
    <dc:date>2026-03-29T22:58:45.239016</dc:date>
    <dc:format>image/svg+xml</dc:format>
    <dc:creator>
     <cc:Agent>
      <dc:title>Matplotlib v3.10.8, https://matplotlib.org/</dc:title>
     </cc:Agent>
    </dc:creator>
   </cc:Work>
  </rdf:RDF>
 </metadata>
 <defs>
  <style type="text/css">*{stroke-linejoin: round; stroke-linecap: butt}</style>
 </defs>
 <g id="figure_1">
  <g id="patch_1">
   <path d="M 0 568.8 
L 516.6 568.8 
L 516.6 0 
L 0 0 
z
" style="fill: #ffffff"/>
  </g>
  <g id="axes_1">
   <g id="text_1">
    <!-- Mathlib 探索フローチャート -->
    <g style="fill: #1e293b" transform="translate(163.954219 33.456781) scale(0.14 -0.14)">
     <defs>
      <path id="HiraginoSans-W7-4d" d="M 3686 -134 
C 3718 70 3834 429 3962 762 
L 4768 2778 
C 4806 2874 4915 3219 4947 3328 
C 5018 3610 5018 3610 5050 3731 
C 5011 3123 4998 2867 4998 2714 
L 4998 832 
C 4998 384 4986 154 4947 -134 
L 6016 -134 
C 5978 109 5965 352 5965 832 
L 5965 4096 
C 5965 4525 5978 4762 6016 5069 
L 4595 5069 
C 4557 4826 4486 4570 4358 4243 
L 3226 1261 
L 2086 4243 
C 1965 4563 1888 4832 1850 5069 
L 429 5069 
C 467 4800 480 4499 480 4096 
L 480 832 
C 480 397 467 134 429 -134 
L 1498 -134 
C 1459 122 1446 384 1446 832 
L 1446 2694 
C 1446 2854 1434 3110 1395 3731 
C 1530 3251 1619 2957 1696 2758 
L 2477 768 
C 2630 384 2720 83 2752 -134 
L 3686 -134 
z
" transform="scale(0.015625)"/>
      <path id="HiraginoSans-W7-61" d="M 2842 -134 
L 3878 -134 
C 3846 154 3834 346 3834 717 
L 3834 2451 
C 3834 2912 3750 3162 3533 3366 
C 3251 3635 2822 3763 2195 3763 
C 1594 3763 1133 3642 813 3392 
C 589 3219 467 3046 333 2675 
L 1344 2509 
C 1414 2688 1472 2778 1587 2861 
C 1709 2950 1939 3008 2189 3008 
C 2624 3008 2842 2854 2842 2541 
L 2842 2285 
C 2029 2259 1837 2240 1466 2163 
C 672 1984 237 1549 237 928 
C 237 589 365 294 602 96 
C 832 -109 1158 -205 1613 -205 
C 2131 -205 2458 -96 2842 198 
L 2842 -134 
z
M 2842 1357 
C 2842 1133 2765 973 2579 813 
C 2381 646 2067 538 1792 538 
C 1446 538 1254 685 1254 954 
C 1254 1197 1408 1370 1702 1459 
C 1990 1549 2259 1581 2842 1600 
L 2842 1357 
z
" transform="scale(0.015625)"/>
      <path id="HiraginoSans-W7-74" d="M 813 4646 
C 851 4352 864 4141 864 3821 
L 864 3654 
L 627 3654 
C 371 3654 237 3661 51 3693 
L 51 2790 
C 250 2822 378 2829 614 2829 
L 864 2829 
L 864 768 
C 864 58 1197 -224 2022 -224 
C 2355 -224 2586 -186 2842 -96 
L 2739 742 
C 2573 646 2445 614 2272 614 
C 1971 614 1862 723 1862 1024 
L 1862 2829 
L 2144 2829 
C 2419 2829 2541 2822 2752 2790 
L 2752 3686 
C 2554 3661 2406 3654 2112 3654 
L 1862 3654 
L 1862 3821 
C 1862 4122 1882 4403 1914 4646 
L 813 4646 
z
" transform="scale(0.015625)"/>
      <path id="HiraginoSans-W7-68" d="M 1485 -134 
C 1446 179 1434 416 1434 762 
L 1434 2061 
C 1734 2573 2099 2835 2490 2835 
C 2650 2835 2771 2803 2861 2733 
C 3014 2624 3066 2464 3066 2131 
L 3066 762 
C 3066 403 3053 166 3014 -134 
L 4134 -134 
C 4096 128 4083 371 4083 762 
L 4083 2374 
C 4083 3245 3610 3731 2758 3731 
C 2208 3731 1811 3552 1414 3142 
C 1421 3264 1427 3341 1427 3398 
L 1427 4173 
C 1427 4602 1440 4806 1478 5069 
L 371 5069 
C 410 4826 422 4582 422 4173 
L 422 762 
C 422 390 410 154 371 -134 
L 1485 -134 
z
" transform="scale(0.015625)"/>
      <path id="HiraginoSans-W7-6c" d="M 371 5069 
C 410 4819 422 4589 422 4173 
L 422 762 
C 422 339 410 147 371 -134 
L 1491 -134 
C 1459 166 1446 397 1446 762 
L 1446 4173 
C 1446 4582 1459 4813 1491 5069 
L 371 5069 
z
" transform="scale(0.015625)"/>
      <path id="HiraginoSans-W7-69" d="M 384 5069 
L 384 4186 
L 1498 4186 
L 1498 5069 
L 384 5069 
z
M 371 3654 
C 410 3392 422 3149 422 2758 
L 422 762 
C 422 384 410 186 371 -134 
L 1504 -134 
C 1466 134 1453 390 1453 768 
L 1453 2752 
C 1453 3174 1466 3411 1504 3654 
L 371 3654 
z
" transform="scale(0.015625)"/>
      <path id="HiraginoSans-W7-62" d="M 1408 -134 
L 1408 102 
C 1408 134 1402 250 1402 282 
C 1754 -83 2131 -237 2675 -237 
C 3206 -237 3629 -77 3942 243 
C 4301 614 4493 1146 4493 1805 
C 4493 3034 3834 3750 2720 3750 
C 2150 3750 1728 3571 1402 3206 
C 1408 3366 1414 3488 1414 3578 
L 1414 4141 
C 1414 4563 1421 4774 1459 5069 
L 371 5069 
C 410 4736 422 4506 422 4147 
L 422 800 
C 422 397 410 154 371 -134 
L 1408 -134 
z
M 3469 1805 
C 3469 1075 3066 589 2464 589 
C 2163 589 1862 730 1690 954 
C 1530 1165 1434 1478 1434 1779 
C 1434 2458 1875 2938 2502 2938 
C 3104 2938 3469 2509 3469 1805 
z
" transform="scale(0.015625)"/>
      <path id="HiraginoSans-W7-20" transform="scale(0.015625)"/>
      <path id="HiraginoSans-W7-63a2" d="M 4864 4461 
L 5254 4461 
L 5254 3910 
L 6061 3910 
C 6042 4051 6035 4166 6035 4384 
L 6035 4774 
C 6035 4979 6035 5088 6054 5216 
C 5894 5197 5722 5190 5395 5190 
L 2733 5190 
C 2432 5190 2259 5197 2099 5216 
C 2112 5075 2118 4941 2118 4762 
L 2118 4314 
L 2112 4256 
C 2048 4250 2010 4250 1933 4250 
L 1715 4250 
L 1715 4736 
C 1715 5050 1722 5184 1747 5382 
L 870 5382 
C 896 5190 909 5043 909 4730 
L 909 4250 
L 698 4250 
C 506 4250 390 4256 230 4282 
L 230 3475 
C 397 3494 518 3501 685 3501 
L 909 3501 
L 909 2458 
C 403 2336 358 2330 166 2310 
L 314 1466 
C 416 1510 480 1530 589 1562 
C 723 1600 723 1600 909 1658 
L 909 429 
C 909 269 870 230 710 230 
C 570 230 442 243 211 269 
C 320 -45 358 -198 390 -525 
C 576 -538 666 -544 768 -544 
C 1056 -544 1267 -512 1421 -442 
C 1632 -352 1715 -186 1715 166 
L 1715 384 
C 1926 134 2016 0 2182 -314 
C 2842 77 3226 429 3616 1011 
C 3603 890 3603 883 3603 742 
C 3603 723 3603 685 3603 640 
C 3603 582 3603 538 3603 506 
L 3603 -51 
C 3603 -205 3584 -390 3565 -570 
L 4435 -570 
C 4403 -397 4397 -237 4397 -70 
L 4397 461 
C 4397 646 4397 646 4384 1011 
C 4826 416 5286 19 5882 -294 
C 6035 96 6112 256 6272 506 
C 5664 749 5146 1120 4781 1574 
L 5421 1574 
C 5651 1574 5850 1568 6099 1542 
L 6099 2362 
C 5888 2336 5683 2323 5408 2323 
L 4397 2323 
L 4397 2598 
C 4397 2675 4397 2720 4403 2797 
C 4576 2758 4710 2746 4979 2746 
C 5952 2746 6042 2816 6144 3686 
C 5869 3725 5754 3750 5504 3840 
C 5485 3450 5478 3437 5126 3437 
C 4896 3437 4864 3456 4864 3571 
L 4864 4461 
z
M 3565 2944 
C 3590 2790 3597 2675 3597 2464 
L 3597 2323 
L 2810 2323 
C 2554 2323 2400 2330 2227 2342 
L 2214 2848 
C 1965 2758 1907 2739 1715 2682 
L 1715 3501 
L 1933 3501 
C 2054 3501 2144 3494 2253 3482 
L 2253 3866 
L 2829 3866 
L 2829 4461 
L 3187 4461 
C 3168 4070 3098 3814 2950 3648 
C 2752 3418 2534 3290 2086 3130 
C 2298 2938 2413 2790 2560 2528 
C 3027 2739 3334 2963 3539 3238 
C 3782 3558 3866 3834 3910 4461 
L 4128 4461 
L 4134 4378 
L 4134 3213 
C 4134 3091 4141 3021 4179 2944 
L 3565 2944 
z
M 1715 1920 
C 1901 1984 1901 1984 2093 2054 
L 2093 1542 
C 2278 1568 2470 1574 2771 1574 
L 3174 1574 
C 2842 1082 2323 659 1715 390 
L 1715 1920 
z
" transform="scale(0.015625)"/>
      <path id="HiraginoSans-W7-7d22" d="M 3834 3219 
C 3661 2918 3430 2643 3053 2272 
C 2912 2368 2867 2394 2720 2490 
C 2982 2771 3149 2970 3366 3264 
L 5184 3264 
L 5184 2566 
L 6048 2566 
C 6022 2707 6016 2848 6016 3034 
L 6016 3539 
C 6016 3782 6016 3840 6035 3974 
C 5843 3955 5658 3949 5325 3949 
L 3603 3949 
L 3603 4294 
L 5286 4294 
C 5632 4294 5907 4282 6093 4262 
L 6093 5043 
C 5901 5018 5626 5005 5274 5005 
L 3603 5005 
C 3603 5184 3610 5280 3629 5421 
L 2701 5421 
C 2726 5280 2739 5171 2739 5005 
L 1146 5005 
C 787 5005 512 5018 320 5043 
L 320 4262 
C 518 4288 749 4294 1133 4294 
L 2739 4294 
L 2739 3949 
L 1088 3949 
C 806 3949 627 3955 384 3974 
C 403 3827 410 3744 410 3501 
L 410 3027 
C 410 2861 403 2726 378 2566 
L 1235 2566 
L 1235 3264 
L 2419 3264 
C 2323 3123 2240 3021 2106 2867 
C 1965 2944 1914 2970 1715 3072 
L 1203 2509 
C 1709 2253 1984 2086 2387 1811 
C 1965 1805 1715 1798 1626 1798 
C 1037 1798 653 1811 448 1843 
L 550 1005 
C 710 1037 819 1043 1306 1050 
C 1562 1056 1862 1069 2733 1107 
L 2733 122 
C 2733 -186 2726 -352 2694 -550 
L 3635 -550 
C 3603 -358 3597 -198 3597 122 
L 3597 1146 
C 4019 1165 4166 1178 5203 1261 
C 5286 1133 5350 1043 5504 794 
L 6163 1293 
C 5843 1728 5427 2208 4986 2643 
L 4365 2234 
C 4538 2061 4602 1997 4698 1888 
C 4192 1862 3821 1843 3578 1837 
C 3885 2080 4147 2336 4467 2675 
C 4557 2771 4608 2822 4672 2867 
L 3834 3219 
z
M 1773 1043 
C 1421 653 986 403 275 186 
C 518 -6 666 -166 877 -467 
C 1568 -154 1997 147 2464 640 
L 1773 1043 
z
M 3859 653 
C 4480 141 5005 -186 5626 -448 
C 5792 -160 5914 6 6157 269 
C 5504 461 5005 723 4454 1146 
L 3859 653 
z
" transform="scale(0.015625)"/>
      <path id="HiraginoSans-W7-30d5" d="M 5242 4819 
C 5069 4762 4941 4749 4659 4749 
L 1728 4749 
C 1197 4749 998 4755 723 4794 
L 723 3814 
C 986 3846 1190 3853 1715 3853 
L 4518 3853 
C 4224 2688 3597 1811 2611 1184 
C 2144 890 1792 723 1235 550 
C 1600 186 1702 45 1914 -365 
C 3014 128 3738 627 4326 1318 
C 4941 2029 5318 2829 5619 4019 
C 5664 4198 5683 4237 5741 4339 
L 5242 4819 
z
" transform="scale(0.015625)"/>
      <path id="HiraginoSans-W7-30ed" d="M 4659 269 
L 4659 -166 
L 5645 -166 
C 5619 58 5613 307 5613 768 
L 5613 3859 
C 5613 4230 5619 4512 5638 4736 
C 5376 4717 5216 4710 4678 4710 
L 1690 4710 
C 1133 4710 1030 4710 768 4736 
C 794 4422 794 4346 794 3891 
L 794 730 
C 794 346 781 77 762 -173 
L 1747 -173 
L 1747 269 
L 4659 269 
z
M 4659 1133 
L 1741 1133 
L 1741 3846 
L 4659 3846 
L 4659 1133 
z
" transform="scale(0.015625)"/>
      <path id="HiraginoSans-W7-30fc" d="M 410 1914 
C 659 1939 1024 1952 1581 1952 
L 4813 1952 
C 5312 1952 5734 1939 5990 1920 
L 5990 2970 
C 5696 2931 5466 2925 4819 2925 
L 1581 2925 
C 928 2925 698 2938 410 2976 
L 410 1914 
z
" transform="scale(0.015625)"/>
      <path id="HiraginoSans-W7-30c1" d="M 4845 5267 
C 4614 5139 4416 5069 4051 4966 
C 3232 4749 2157 4608 1286 4608 
C 1190 4608 1082 4614 877 4621 
C 1050 4250 1088 4134 1158 3795 
C 2118 3840 2381 3859 2893 3923 
L 2893 3814 
C 2893 3578 2886 3251 2880 3085 
L 1408 3085 
C 928 3085 749 3091 486 3130 
L 486 2227 
C 736 2253 966 2259 1395 2259 
L 2797 2259 
C 2714 1626 2496 1248 1997 864 
C 1690 634 1459 512 1011 352 
C 1357 51 1466 -83 1683 -461 
C 1978 -326 2106 -256 2291 -141 
C 2739 147 3117 512 3341 883 
C 3565 1248 3699 1677 3770 2259 
L 5037 2259 
C 5446 2259 5677 2253 5926 2227 
L 5926 3130 
C 5670 3091 5478 3085 5018 3085 
L 3827 3085 
C 3834 3296 3840 3507 3846 4058 
C 4390 4160 4576 4211 5101 4378 
C 5312 4448 5312 4448 5453 4486 
L 4845 5267 
z
" transform="scale(0.015625)"/>
      <path id="HiraginoSans-W7-30e3" d="M 1901 3174 
L 1517 3117 
C 1152 3053 1024 3040 800 3034 
L 954 2189 
C 1184 2259 1286 2285 1626 2342 
L 2035 2413 
L 2419 262 
C 2477 -58 2502 -230 2522 -480 
L 3469 -314 
C 3386 -64 3360 38 3283 422 
L 2880 2554 
L 4461 2829 
C 4218 2381 3891 2035 3430 1741 
C 3744 1581 3859 1491 4134 1210 
C 4762 1728 5126 2227 5402 2950 
C 5472 3142 5504 3194 5562 3277 
L 5043 3750 
C 4922 3686 4845 3667 4576 3622 
L 2739 3315 
L 2662 3693 
C 2624 3891 2605 4064 2592 4275 
L 1690 4141 
C 1754 3968 1773 3878 1830 3571 
L 1901 3174 
z
" transform="scale(0.015625)"/>
      <path id="HiraginoSans-W7-30c8" d="M 2675 -339 
C 2650 -96 2637 141 2637 550 
L 2637 2394 
C 2733 2342 2758 2330 2880 2278 
C 3616 1958 4454 1504 5024 1114 
L 5549 2035 
C 4506 2643 3629 3040 2637 3379 
L 2637 4352 
C 2637 4819 2643 4966 2675 5210 
L 1632 5210 
C 1664 4986 1670 4806 1670 4352 
L 1670 563 
C 1670 128 1664 -96 1632 -339 
L 2675 -339 
z
" transform="scale(0.015625)"/>
     </defs>
     <use xlink:href="#HiraginoSans-W7-4d"/>
     <use xlink:href="#HiraginoSans-W7-61" transform="translate(100.599991 0)"/>
     <use xlink:href="#HiraginoSans-W7-74" transform="translate(166.999985 0)"/>
     <use xlink:href="#HiraginoSans-W7-68" transform="translate(212.499969 0)"/>
     <use xlink:href="#HiraginoSans-W7-6c" transform="translate(282.699951 0)"/>
     <use xlink:href="#HiraginoSans-W7-69" transform="translate(311.799942 0)"/>
     <use xlink:href="#HiraginoSans-W7-62" transform="translate(340.999939 0)"/>
     <use xlink:href="#HiraginoSans-W7-20" transform="translate(414.499924 0)"/>
     <use xlink:href="#HiraginoSans-W7-63a2" transform="translate(447.799911 0)"/>
     <use xlink:href="#HiraginoSans-W7-7d22" transform="translate(547.799896 0)"/>
     <use xlink:href="#HiraginoSans-W7-30d5" transform="translate(647.799881 0)"/>
     <use xlink:href="#HiraginoSans-W7-30ed" transform="translate(747.799866 0)"/>
     <use xlink:href="#HiraginoSans-W7-30fc" transform="translate(847.79985 0)"/>
     <use xlink:href="#HiraginoSans-W7-30c1" transform="translate(947.799835 0)"/>
     <use xlink:href="#HiraginoSans-W7-30e3" transform="translate(1047.79982 0)"/>
     <use xlink:href="#HiraginoSans-W7-30fc" transform="translate(1147.799805 0)"/>
     <use xlink:href="#HiraginoSans-W7-30c8" transform="translate(1247.799789 0)"/>
    </g>
   </g>
   <g id="patch_2">
    <path d="M 171.81 76.5 
L 344.79 76.5 
Q 347.58 76.5 347.58 73.728 
L 347.58 51.552 
Q 347.58 48.78 344.79 48.78 
L 171.81 48.78 
Q 169.02 48.78 169.02 51.552 
L 169.02 73.728 
Q 169.02 76.5 171.81 76.5 
z
" clip-path="url(#ped43609733)" style="fill: #2563eb; stroke: #2563eb; stroke-width: 1.5; stroke-linejoin: miter"/>
   </g>
   <g id="patch_3">
    <path d="M 258.3 78.498804 
Q 258.3 91.745427 258.3 103.314999 
" style="fill: none; stroke: #64748b; stroke-width: 1.5; stroke-linecap: round"/>
    <path d="M 260.3 99.314999 
L 258.3 103.314999 
L 256.3 99.314999 
" style="fill: none; stroke: #64748b; stroke-width: 1.5; stroke-linecap: round"/>
   </g>
   <g id="patch_4">
    <path d="M 188.55 139.7016 
L 328.05 139.7016 
Q 330.84 139.7016 330.84 136.9296 
L 330.84 110.3184 
Q 330.84 107.5464 328.05 107.5464 
L 188.55 107.5464 
Q 185.76 107.5464 185.76 110.3184 
L 185.76 136.9296 
Q 185.76 139.7016 188.55 139.7016 
z
" clip-path="url(#ped43609733)" style="fill: #dbeafe; stroke: #2563eb; stroke-width: 1.5; stroke-linejoin: miter"/>
   </g>
   <g id="patch_5">
    <path d="M 258.3 141.149591 
Q 258.3 153.562372 258.3 164.298102 
" style="fill: none; stroke: #64748b; stroke-width: 1.5; stroke-linecap: round"/>
    <path d="M 260.3 160.298102 
L 258.3 164.298102 
L 256.3 160.298102 
" style="fill: none; stroke: #64748b; stroke-width: 1.5; stroke-linecap: round"/>
   </g>
   <g id="patch_6">
    <path d="M 258.3 167.976 
L 330.84 184.608 
L 258.3 201.24 
L 185.76 184.608 
z
" clip-path="url(#ped43609733)" style="fill: #fffbeb; stroke: #d97706; stroke-width: 1.5; stroke-linejoin: miter"/>
   </g>
   <g id="patch_7">
    <path d="M 332.838501 184.608 
Q 364.318104 184.608 394.120657 184.608 
" style="fill: none; stroke: #64748b; stroke-width: 1.5; stroke-linecap: round"/>
    <path d="M 390.120657 182.608 
L 394.120657 184.608 
L 390.120657 186.608 
" style="fill: none; stroke: #64748b; stroke-width: 1.5; stroke-linecap: round"/>
   </g>
   <g id="text_2">
    <!-- Yes -->
    <g style="fill: #059669" transform="translate(354.078125 176.292) scale(0.08 -0.08)">
     <defs>
      <path id="HiraginoSans-W4-59" d="M 2624 0 
C 2586 230 2573 435 2573 749 
L 2573 2048 
L 4045 4352 
C 4198 4589 4358 4819 4454 4934 
L 3635 4934 
C 3584 4774 3507 4621 3328 4333 
L 2266 2611 
L 1210 4333 
C 1024 4640 954 4774 902 4934 
L 83 4934 
C 224 4742 358 4550 486 4352 
L 1965 2054 
L 1965 749 
C 1965 442 1946 237 1914 0 
L 2624 0 
z
" transform="scale(0.015625)"/>
      <path id="HiraginoSans-W4-65" d="M 3578 1651 
C 3558 1971 3546 2106 3533 2170 
C 3405 3066 2797 3610 1933 3610 
C 934 3610 282 2880 282 1760 
C 282 621 941 -96 1978 -96 
C 2470 -96 2880 64 3187 371 
C 3341 518 3424 646 3546 915 
L 3008 1114 
C 2944 928 2899 845 2803 742 
C 2605 512 2323 390 1984 390 
C 1613 390 1312 531 1114 800 
C 947 1024 883 1235 858 1651 
L 3578 1651 
z
M 877 2118 
C 915 2349 947 2451 1037 2605 
C 1229 2944 1542 3130 1920 3130 
C 2221 3130 2464 3040 2656 2854 
C 2842 2669 2938 2451 2976 2118 
L 877 2118 
z
" transform="scale(0.015625)"/>
      <path id="HiraginoSans-W4-73" d="M 262 973 
C 326 704 378 589 480 448 
C 730 109 1184 -70 1786 -70 
C 2707 -70 3270 339 3270 1011 
C 3270 1293 3136 1555 2912 1722 
C 2720 1862 2483 1946 1894 2074 
C 1510 2157 1357 2208 1210 2285 
C 1075 2355 998 2483 998 2624 
C 998 2944 1312 3162 1760 3162 
C 2042 3162 2259 3078 2400 2925 
C 2483 2835 2515 2758 2554 2598 
L 3155 2688 
C 3066 2982 2982 3136 2810 3283 
C 2573 3494 2208 3610 1754 3610 
C 1299 3610 941 3494 698 3258 
C 518 3091 416 2861 416 2618 
C 416 2310 557 2054 819 1888 
C 1043 1747 1261 1677 1760 1574 
C 2246 1466 2349 1440 2490 1350 
C 2618 1274 2682 1139 2682 973 
C 2682 621 2342 397 1818 397 
C 1504 397 1267 474 1107 614 
C 986 730 934 832 890 1069 
L 262 973 
z
" transform="scale(0.015625)"/>
     </defs>
     <use xlink:href="#HiraginoSans-W4-59"/>
     <use xlink:href="#HiraginoSans-W4-65" transform="translate(70.799988 0)"/>
     <use xlink:href="#HiraginoSans-W4-73" transform="translate(130.999985 0)"/>
    </g>
   </g>
   <g id="patch_8">
    <path d="M 361.53 200.1312 
L 489.87 200.1312 
Q 492.66 200.1312 492.66 197.3592 
L 492.66 171.8568 
Q 492.66 169.0848 489.87 169.0848 
L 361.53 169.0848 
Q 358.74 169.0848 358.74 171.8568 
L 358.74 197.3592 
Q 358.74 200.1312 361.53 200.1312 
z
" clip-path="url(#ped43609733)" style="fill: #dcfce7; stroke: #059669; stroke-width: 1.5; stroke-linejoin: miter"/>
   </g>
   <g id="patch_9">
    <path d="M 258.3 203.238804 
Q 258.3 216.485427 258.3 228.054999 
" style="fill: none; stroke: #64748b; stroke-width: 1.5; stroke-linecap: round"/>
    <path d="M 260.3 224.054999 
L 258.3 228.054999 
L 256.3 224.054999 
" style="fill: none; stroke: #64748b; stroke-width: 1.5; stroke-linecap: round"/>
   </g>
   <g id="text_3">
    <!-- No / -->
    <g style="fill: #64748b" transform="translate(272.25 214.647497) scale(0.075 -0.075)">
     <defs>
      <path id="HiraginoSans-W4-4e" d="M 480 4934 
C 518 4698 531 4493 531 4186 
L 531 819 
C 531 454 518 198 480 0 
L 1171 0 
C 1133 218 1120 454 1120 819 
L 1120 3078 
C 1120 3347 1107 3795 1082 4186 
C 1190 3974 1389 3635 1459 3526 
L 3392 608 
C 3578 326 3654 205 3750 0 
L 4538 0 
C 4499 218 4486 416 4486 749 
L 4486 4154 
C 4486 4499 4499 4698 4538 4934 
L 3846 4934 
C 3885 4704 3898 4486 3898 4160 
L 3898 1843 
C 3898 1638 3910 1248 3936 736 
C 3795 992 3603 1306 3494 1466 
L 1587 4326 
C 1395 4621 1299 4794 1248 4934 
L 480 4934 
z
" transform="scale(0.015625)"/>
      <path id="HiraginoSans-W4-6f" d="M 2054 -90 
C 3110 -90 3802 640 3802 1766 
C 3802 2893 3117 3610 2042 3610 
C 966 3610 282 2886 282 1760 
C 282 627 966 -90 2054 -90 
z
M 2054 3130 
C 2771 3130 3213 2605 3213 1754 
C 3213 909 2771 397 2042 397 
C 1318 397 870 922 870 1766 
C 870 2611 1325 3130 2054 3130 
z
" transform="scale(0.015625)"/>
      <path id="HiraginoSans-W4-20" transform="scale(0.015625)"/>
      <path id="HiraginoSans-W4-2f" d="M 2432 4934 
L 122 -979 
L 691 -979 
L 2995 4934 
L 2432 4934 
z
" transform="scale(0.015625)"/>
     </defs>
     <use xlink:href="#HiraginoSans-W4-4e"/>
     <use xlink:href="#HiraginoSans-W4-6f" transform="translate(78.499985 0)"/>
     <use xlink:href="#HiraginoSans-W4-20" transform="translate(142.299973 0)"/>
     <use xlink:href="#HiraginoSans-W4-2f" transform="translate(175.59996 0)"/>
    </g>
    <!-- タイムアウト -->
    <g style="fill: #64748b" transform="translate(272.25 223.123434) scale(0.075 -0.075)">
     <defs>
      <path id="HiraginoSans-W4-30bf" d="M 2650 5299 
C 2592 5069 2470 4787 2272 4422 
C 1862 3693 1344 3110 646 2598 
C 864 2470 941 2413 1094 2234 
C 1728 2746 2176 3245 2611 3930 
L 4774 3955 
C 4563 3309 4288 2746 3942 2208 
C 3424 2630 3098 2854 2560 3162 
L 2208 2771 
C 2707 2496 3149 2176 3610 1766 
C 3290 1376 3008 1120 2522 787 
C 2099 506 1760 326 1216 109 
C 1395 -51 1459 -128 1594 -365 
C 2938 262 3802 973 4448 1984 
C 4736 2438 5069 3130 5299 3750 
C 5402 4045 5414 4064 5485 4173 
L 5158 4499 
C 5043 4454 4922 4435 4736 4435 
C 2944 4416 2944 4416 2848 4397 
C 2899 4486 2963 4595 3034 4736 
C 3174 5030 3174 5030 3245 5146 
L 2650 5299 
z
" transform="scale(0.015625)"/>
      <path id="HiraginoSans-W4-30a4" d="M 4973 5114 
C 4794 4806 4346 4358 3763 3904 
C 2739 3110 1645 2566 429 2246 
C 589 2048 634 1971 730 1734 
C 1920 2144 2330 2330 3149 2829 
L 3149 525 
C 3149 122 3142 -26 3110 -224 
L 3763 -224 
C 3738 -45 3731 141 3731 531 
L 3731 3187 
C 4301 3597 4806 4038 5267 4525 
C 5370 4634 5402 4659 5498 4742 
L 4973 5114 
z
" transform="scale(0.015625)"/>
      <path id="HiraginoSans-W4-30e0" d="M 2637 5094 
C 2586 4717 2458 4237 2144 3270 
C 1818 2259 1587 1645 1190 723 
C 941 704 704 691 640 691 
C 608 691 563 691 467 704 
L 544 70 
C 666 102 787 115 1101 147 
C 2803 314 4058 474 4794 627 
C 4934 653 4934 653 5011 672 
C 5203 275 5261 134 5370 -173 
L 5914 115 
C 5491 1133 4890 2234 4333 3027 
L 3840 2797 
C 4134 2387 4499 1766 4800 1152 
C 4115 1011 2739 838 1824 768 
C 2246 1760 2701 3040 3136 4493 
C 3206 4723 3245 4826 3302 4947 
L 2637 5094 
z
" transform="scale(0.015625)"/>
      <path id="HiraginoSans-W4-30a2" d="M 5574 4768 
C 5446 4723 5408 4723 5011 4723 
L 1606 4723 
C 1216 4723 1030 4736 806 4768 
L 806 4186 
C 1043 4211 1210 4218 1594 4218 
L 5152 4218 
C 4973 3866 4755 3578 4467 3309 
C 4166 3034 3923 2886 3475 2707 
C 3680 2534 3738 2470 3866 2278 
C 4698 2688 5280 3270 5722 4147 
C 5798 4301 5818 4326 5882 4416 
L 5574 4768 
z
M 2714 3610 
C 2739 3482 2739 3437 2739 3258 
C 2739 2016 2502 1395 1830 851 
C 1504 589 1197 435 678 282 
C 858 90 915 13 1030 -237 
C 1811 70 2285 397 2675 883 
C 3110 1440 3283 2061 3309 3142 
C 3315 3494 3315 3494 3334 3610 
L 2714 3610 
z
" transform="scale(0.015625)"/>
      <path id="HiraginoSans-W4-30a6" d="M 3462 4122 
L 3462 4678 
C 3462 4877 3475 5037 3501 5165 
L 2854 5165 
C 2880 5011 2886 4909 2886 4672 
L 2886 4122 
L 1555 4122 
C 1267 4122 1133 4128 941 4147 
C 954 3987 960 3827 960 3603 
L 960 2784 
C 960 2554 954 2381 934 2227 
L 1555 2227 
C 1542 2362 1536 2554 1536 2771 
L 1536 3622 
L 4928 3622 
C 4800 2349 4333 1504 3430 902 
C 3008 621 2637 461 2029 307 
C 2227 90 2278 13 2381 -224 
C 4205 390 5190 1472 5466 3187 
C 5555 3770 5555 3770 5613 3878 
L 5318 4166 
C 5197 4122 5158 4122 4755 4122 
L 3462 4122 
z
" transform="scale(0.015625)"/>
      <path id="HiraginoSans-W4-30c8" d="M 2483 -224 
C 2458 -26 2451 179 2451 518 
L 2451 2189 
C 2451 2445 2445 2554 2426 2714 
C 2515 2656 2541 2650 2637 2605 
C 3546 2221 4429 1747 4992 1350 
L 5312 1907 
C 4224 2534 3354 2938 2451 3258 
L 2451 4397 
C 2451 4755 2458 4934 2483 5120 
L 1837 5120 
C 1869 4954 1875 4800 1875 4416 
L 1875 518 
C 1875 154 1869 -13 1837 -224 
L 2483 -224 
z
" transform="scale(0.015625)"/>
     </defs>
     <use xlink:href="#HiraginoSans-W4-30bf"/>
     <use xlink:href="#HiraginoSans-W4-30a4" transform="translate(99.999985 0)"/>
     <use xlink:href="#HiraginoSans-W4-30e0" transform="translate(199.999969 0)"/>
     <use xlink:href="#HiraginoSans-W4-30a2" transform="translate(299.999954 0)"/>
     <use xlink:href="#HiraginoSans-W4-30a6" transform="translate(399.999939 0)"/>
     <use xlink:href="#HiraginoSans-W4-30c8" transform="translate(499.999924 0)"/>
    </g>
   </g>
   <g id="patch_10">
    <path d="M 188.55 264.4416 
L 328.05 264.4416 
Q 330.84 264.4416 330.84 261.6696 
L 330.84 235.0584 
Q 330.84 232.2864 328.05 232.2864 
L 188.55 232.2864 
Q 185.76 232.2864 185.76 235.0584 
L 185.76 261.6696 
Q 185.76 264.4416 188.55 264.4416 
z
" clip-path="url(#ped43609733)" style="fill: #dbeafe; stroke: #2563eb; stroke-width: 1.5; stroke-linejoin: miter"/>
   </g>
   <g id="patch_11">
    <path d="M 258.3 265.889591 
Q 258.3 278.302372 258.3 289.038102 
" style="fill: none; stroke: #64748b; stroke-width: 1.5; stroke-linecap: round"/>
    <path d="M 260.3 285.038102 
L 258.3 289.038102 
L 256.3 285.038102 
" style="fill: none; stroke: #64748b; stroke-width: 1.5; stroke-linecap: round"/>
   </g>
   <g id="patch_12">
    <path d="M 258.3 292.716 
L 330.84 309.348 
L 258.3 325.98 
L 185.76 309.348 
z
" clip-path="url(#ped43609733)" style="fill: #fffbeb; stroke: #d97706; stroke-width: 1.5; stroke-linejoin: miter"/>
   </g>
   <g id="patch_13">
    <path d="M 332.838501 309.348 
Q 364.318104 309.348 394.120657 309.348 
" style="fill: none; stroke: #64748b; stroke-width: 1.5; stroke-linecap: round"/>
    <path d="M 390.120657 307.348 
L 394.120657 309.348 
L 390.120657 311.348 
" style="fill: none; stroke: #64748b; stroke-width: 1.5; stroke-linecap: round"/>
   </g>
   <g id="text_4">
    <!-- Yes -->
    <g style="fill: #059669" transform="translate(354.078125 301.032) scale(0.08 -0.08)">
     <use xlink:href="#HiraginoSans-W4-59"/>
     <use xlink:href="#HiraginoSans-W4-65" transform="translate(70.799988 0)"/>
     <use xlink:href="#HiraginoSans-W4-73" transform="translate(130.999985 0)"/>
    </g>
   </g>
   <g id="patch_14">
    <path d="M 361.53 324.8712 
L 489.87 324.8712 
Q 492.66 324.8712 492.66 322.0992 
L 492.66 296.5968 
Q 492.66 293.8248 489.87 293.8248 
L 361.53 293.8248 
Q 358.74 293.8248 358.74 296.5968 
L 358.74 322.0992 
Q 358.74 324.8712 361.53 324.8712 
z
" clip-path="url(#ped43609733)" style="fill: #dcfce7; stroke: #059669; stroke-width: 1.5; stroke-linejoin: miter"/>
   </g>
   <g id="patch_15">
    <path d="M 258.3 327.978804 
Q 258.3 341.225427 258.3 352.794999 
" style="fill: none; stroke: #64748b; stroke-width: 1.5; stroke-linecap: round"/>
    <path d="M 260.3 348.794999 
L 258.3 352.794999 
L 256.3 348.794999 
" style="fill: none; stroke: #64748b; stroke-width: 1.5; stroke-linecap: round"/>
   </g>
   <g id="text_5">
    <!-- No -->
    <g style="fill: #64748b" transform="translate(272.25 341.5032) scale(0.075 -0.075)">
     <use xlink:href="#HiraginoSans-W4-4e"/>
     <use xlink:href="#HiraginoSans-W4-6f" transform="translate(78.499985 0)"/>
    </g>
   </g>
   <g id="patch_16">
    <path d="M 166.23 389.1816 
L 350.37 389.1816 
Q 353.16 389.1816 353.16 386.4096 
L 353.16 359.7984 
Q 353.16 357.0264 350.37 357.0264 
L 166.23 357.0264 
Q 163.44 357.0264 163.44 359.7984 
L 163.44 386.4096 
Q 163.44 389.1816 166.23 389.1816 
z
" clip-path="url(#ped43609733)" style="fill: #fffbeb; stroke: #d97706; stroke-width: 1.5; stroke-linejoin: miter"/>
   </g>
   <g id="patch_17">
    <path d="M 258.3 390.629591 
Q 258.3 403.042372 258.3 413.778102 
" style="fill: none; stroke: #64748b; stroke-width: 1.5; stroke-linecap: round"/>
    <path d="M 260.3 409.778102 
L 258.3 413.778102 
L 256.3 409.778102 
" style="fill: none; stroke: #64748b; stroke-width: 1.5; stroke-linecap: round"/>
   </g>
   <g id="patch_18">
    <path d="M 258.3 417.456 
L 330.84 434.088 
L 258.3 450.72 
L 185.76 434.088 
z
" clip-path="url(#ped43609733)" style="fill: #fffbeb; stroke: #d97706; stroke-width: 1.5; stroke-linejoin: miter"/>
   </g>
   <g id="patch_19">
    <path d="M 332.83782 434.088 
Q 350.366801 434.088 366.218732 434.088 
" style="fill: none; stroke: #64748b; stroke-width: 1.5; stroke-linecap: round"/>
    <path d="M 362.218732 432.088 
L 366.218732 434.088 
L 362.218732 436.088 
" style="fill: none; stroke: #64748b; stroke-width: 1.5; stroke-linecap: round"/>
   </g>
   <g id="text_6">
    <!-- Yes -->
    <g style="fill: #059669" transform="translate(340.128125 425.772) scale(0.08 -0.08)">
     <use xlink:href="#HiraginoSans-W4-59"/>
     <use xlink:href="#HiraginoSans-W4-65" transform="translate(70.799988 0)"/>
     <use xlink:href="#HiraginoSans-W4-73" transform="translate(130.999985 0)"/>
    </g>
   </g>
   <g id="patch_20">
    <path d="M 350.37 450.1656 
L 478.71 450.1656 
Q 481.5 450.1656 481.5 447.3936 
L 481.5 420.7824 
Q 481.5 418.0104 478.71 418.0104 
L 350.37 418.0104 
Q 347.58 418.0104 347.58 420.7824 
L 347.58 447.3936 
Q 347.58 450.1656 350.37 450.1656 
z
" clip-path="url(#ped43609733)" style="fill: #dbeafe; stroke: #2563eb; stroke-width: 1.5; stroke-linejoin: miter"/>
   </g>
   <g id="patch_21">
    <path d="M 414.54 451.611019 
Q 414.54 463.471125 414.54 473.654179 
" style="fill: none; stroke: #64748b; stroke-width: 1.5; stroke-linecap: round"/>
    <path d="M 416.54 469.654179 
L 414.54 473.654179 
L 412.54 469.654179 
" style="fill: none; stroke: #64748b; stroke-width: 1.5; stroke-linecap: round"/>
   </g>
   <g id="patch_22">
    <path d="M 350.37 506.7144 
L 478.71 506.7144 
Q 481.5 506.7144 481.5 503.9424 
L 481.5 478.44 
Q 481.5 475.668 478.71 475.668 
L 350.37 475.668 
Q 347.58 475.668 347.58 478.44 
L 347.58 503.9424 
Q 347.58 506.7144 350.37 506.7144 
z
" clip-path="url(#ped43609733)" style="fill: #dcfce7; stroke: #059669; stroke-width: 1.5; stroke-linejoin: miter"/>
   </g>
   <g id="patch_23">
    <path d="M 258.3 452.718804 
Q 258.3 465.965427 258.3 477.534999 
" style="fill: none; stroke: #64748b; stroke-width: 1.5; stroke-linecap: round"/>
    <path d="M 260.3 473.534999 
L 258.3 477.534999 
L 256.3 473.534999 
" style="fill: none; stroke: #64748b; stroke-width: 1.5; stroke-linecap: round"/>
   </g>
   <g id="text_7">
    <!-- No -->
    <g style="fill: #64748b" transform="translate(272.25 466.2432) scale(0.075 -0.075)">
     <use xlink:href="#HiraginoSans-W4-4e"/>
     <use xlink:href="#HiraginoSans-W4-6f" transform="translate(78.499985 0)"/>
    </g>
   </g>
   <g id="patch_24">
    <path d="M 122.148 525.564 
L 394.452 525.564 
Q 397.8 525.564 397.8 522.2376 
L 397.8 492.8544 
Q 397.8 489.528 394.452 489.528 
L 122.148 489.528 
Q 118.8 489.528 118.8 492.8544 
L 118.8 522.2376 
Q 118.8 525.564 122.148 525.564 
z
" clip-path="url(#ped43609733)" style="fill: #ede9fe; stroke: #7c3aed; stroke-width: 1.5; stroke-linejoin: miter"/>
   </g>
   <g id="text_8">
    <!-- 目的の補題を探したい -->
    <g style="fill: #ffffff" transform="translate(213.3 65.186719) scale(0.09 -0.09)">
     <defs>
      <path id="HiraginoSans-W4-76ee" d="M 1728 5024 
C 1434 5024 1242 5030 1037 5056 
C 1062 4851 1069 4672 1069 4410 
L 1069 237 
C 1069 -45 1056 -243 1030 -442 
L 1581 -442 
L 1581 -32 
L 4800 -32 
L 4800 -442 
L 5350 -442 
C 5325 -237 5312 -45 5312 269 
L 5312 4454 
C 5312 4685 5318 4858 5344 5056 
C 5158 5030 4973 5024 4678 5024 
L 1728 5024 
z
M 1581 3533 
L 1581 4550 
L 4800 4550 
L 4800 3533 
L 1581 3533 
z
M 1581 3066 
L 4800 3066 
L 4800 2016 
L 1581 2016 
L 1581 3066 
z
M 1581 1549 
L 4800 1549 
L 4800 442 
L 1581 442 
L 1581 1549 
z
" transform="scale(0.015625)"/>
      <path id="HiraginoSans-W4-7684" d="M 1094 4365 
C 826 4365 653 4371 525 4390 
C 544 4230 550 4083 550 3763 
L 550 493 
C 550 109 544 -122 518 -294 
L 1024 -294 
L 1024 262 
L 2176 262 
L 2176 -141 
L 2675 -141 
C 2656 19 2643 243 2643 512 
L 2643 3155 
C 2771 3059 2880 2944 2989 2778 
C 3341 3232 3488 3462 3718 3923 
L 5459 3923 
C 5453 2957 5440 2502 5408 1978 
C 5363 1210 5286 640 5197 358 
C 5114 128 5050 83 4749 83 
C 4550 83 4230 122 3898 192 
C 3974 0 4006 -128 4026 -339 
C 4403 -378 4570 -384 4800 -384 
C 5280 -384 5498 -243 5632 141 
C 5824 723 5901 1664 5952 3974 
C 5958 4230 5958 4282 5978 4410 
C 5850 4390 5683 4384 5421 4384 
L 3923 4384 
C 4006 4589 4090 4813 4147 4986 
C 4211 5184 4218 5203 4243 5248 
L 3718 5344 
C 3693 5139 3571 4749 3424 4397 
C 3194 3872 2950 3482 2643 3155 
L 2643 3827 
C 2643 4058 2650 4224 2662 4390 
C 2611 4378 2426 4371 2106 4365 
L 1702 4365 
C 1843 4691 1914 4877 2029 5235 
L 1498 5325 
C 1440 4973 1363 4723 1222 4365 
L 1094 4365 
z
M 1024 3936 
L 2176 3936 
L 2176 2592 
L 1024 2592 
L 1024 3936 
z
M 1024 2163 
L 2176 2163 
L 2176 691 
L 1024 691 
L 1024 2163 
z
M 4762 1530 
C 4422 2234 4173 2637 3782 3117 
L 3386 2893 
C 3750 2445 3974 2048 4314 1267 
L 4762 1530 
z
" transform="scale(0.015625)"/>
      <path id="HiraginoSans-W4-306e" d="M 3053 422 
C 3200 243 3245 160 3328 -96 
C 3821 6 4090 90 4397 237 
C 5293 666 5798 1459 5798 2451 
C 5798 3802 4832 4698 3379 4698 
C 2509 4698 1792 4403 1274 3834 
C 832 3347 589 2707 589 2042 
C 589 1107 1062 422 1709 422 
C 2189 422 2573 806 2938 1645 
C 3238 2323 3469 3264 3578 4205 
C 3891 4186 4070 4141 4294 4032 
C 4902 3738 5242 3174 5242 2477 
C 5242 1734 4870 1107 4230 768 
C 3917 602 3610 512 3053 422 
z
M 3027 4192 
C 2944 3398 2714 2483 2458 1888 
C 2195 1286 1952 992 1702 992 
C 1370 992 1114 1453 1114 2035 
C 1114 2797 1491 3501 2112 3891 
C 2394 4077 2656 4160 3027 4192 
z
" transform="scale(0.015625)"/>
      <path id="HiraginoSans-W4-88dc" d="M 2131 3027 
C 1978 2707 1882 2534 1722 2310 
C 1613 2438 1574 2496 1491 2618 
C 1741 2976 1869 3206 2106 3725 
C 2227 3987 2227 3994 2253 4032 
L 2048 4288 
C 1984 4275 1926 4269 1741 4269 
L 1504 4269 
L 1504 4870 
C 1504 5037 1517 5210 1536 5350 
L 1011 5350 
C 1037 5216 1043 5069 1043 4858 
L 1043 4269 
L 851 4269 
C 595 4269 480 4275 358 4301 
L 358 3808 
C 506 3827 672 3840 877 3840 
L 1677 3840 
C 1350 3014 877 2362 211 1830 
C 333 1651 378 1562 435 1376 
C 717 1638 864 1786 1062 2029 
C 1056 1952 1050 1638 1050 1555 
L 1050 173 
C 1050 -83 1037 -326 1005 -512 
L 1542 -512 
C 1517 -346 1504 -96 1504 173 
L 1504 1632 
C 1504 1786 1504 1786 1498 2016 
C 1690 1760 1843 1587 2118 1331 
C 2208 1510 2234 1549 2368 1709 
C 2176 1850 2118 1894 1965 2048 
C 2131 2259 2253 2445 2451 2771 
L 2131 3027 
z
M 2944 960 
L 3872 960 
L 3872 141 
C 3872 -154 3866 -301 3846 -429 
L 4346 -429 
C 4326 -269 4320 -134 4320 141 
L 4320 960 
L 5370 960 
L 5370 218 
C 5370 90 5344 64 5210 64 
C 5030 64 4979 70 4672 109 
C 4755 -77 4774 -160 4794 -378 
C 4966 -384 5056 -390 5190 -390 
C 5498 -390 5600 -371 5690 -301 
C 5779 -224 5818 -109 5818 96 
L 5818 2970 
C 5818 3277 5824 3450 5843 3597 
C 5709 3578 5517 3571 5248 3571 
L 4320 3571 
L 4320 4160 
L 5434 4160 
C 5683 4160 5862 4154 6010 4134 
L 6010 4634 
C 5843 4608 5664 4595 5440 4595 
L 4320 4595 
L 4320 4774 
C 4320 5024 4326 5171 4358 5350 
L 3834 5350 
C 3859 5171 3872 5011 3872 4781 
L 3872 4595 
L 2848 4595 
C 2598 4595 2445 4608 2298 4627 
L 2298 4134 
C 2464 4154 2611 4160 2816 4160 
L 3872 4160 
L 3872 3571 
L 3091 3571 
C 2829 3571 2643 3578 2477 3597 
C 2490 3450 2496 3328 2496 2982 
L 2496 154 
C 2496 -128 2483 -320 2458 -512 
L 2970 -512 
C 2950 -365 2944 -166 2944 160 
L 2944 960 
z
M 2944 1363 
L 2944 2080 
L 3872 2080 
L 3872 1363 
L 2944 1363 
z
M 2944 2477 
L 2944 3168 
L 3872 3168 
L 3872 2477 
L 2944 2477 
z
M 4320 1363 
L 4320 2080 
L 5370 2080 
L 5370 1363 
L 4320 1363 
z
M 4320 2477 
L 4320 3168 
L 5370 3168 
L 5370 2477 
L 4320 2477 
z
M 4582 5133 
C 4883 4979 5075 4845 5350 4614 
L 5664 4896 
C 5344 5146 5299 5171 4890 5395 
L 4582 5133 
z
" transform="scale(0.015625)"/>
      <path id="HiraginoSans-W4-984c" d="M 1645 570 
C 1421 749 1229 947 1114 1133 
C 1146 1331 1146 1344 1178 1683 
C 1184 1760 1190 1798 1203 1894 
L 723 1965 
C 730 1901 730 1862 730 1792 
C 730 1536 672 1107 608 858 
C 518 506 378 211 141 -109 
C 307 -198 422 -294 531 -416 
C 755 -77 890 218 1011 659 
C 1267 301 1581 51 1965 -102 
C 2413 -282 3168 -358 4538 -358 
C 5062 -358 5754 -339 6112 -320 
C 6150 -96 6189 26 6272 198 
C 5741 134 5126 102 4314 102 
C 3885 102 3315 122 2995 147 
C 2547 179 2355 218 2086 320 
L 2086 1210 
L 2458 1210 
C 2675 1210 2835 1197 2976 1178 
L 2976 1638 
C 2797 1619 2669 1613 2458 1613 
L 2086 1613 
L 2086 2253 
L 2547 2253 
C 2803 2253 2944 2246 3142 2227 
L 3142 2701 
C 2957 2675 2829 2669 2579 2669 
L 909 2669 
C 621 2669 467 2675 288 2701 
L 288 2221 
C 442 2246 595 2253 909 2253 
L 1645 2253 
L 1645 570 
z
M 4346 4672 
C 4314 4531 4243 4333 4160 4134 
L 3910 4134 
C 3622 4134 3501 4141 3354 4154 
C 3373 3994 3379 3814 3379 3590 
L 3379 1818 
C 3379 1574 3373 1395 3354 1261 
C 3514 1274 3674 1280 3917 1280 
L 5267 1280 
C 5498 1280 5613 1274 5811 1261 
C 5792 1421 5786 1606 5786 1875 
L 5786 3584 
C 5786 3840 5792 4000 5811 4154 
C 5664 4141 5536 4134 5254 4134 
L 4608 4134 
C 4691 4326 4749 4493 4800 4672 
L 5491 4672 
C 5709 4672 5926 4659 6093 4640 
L 6093 5107 
C 5939 5082 5754 5069 5459 5069 
L 3776 5069 
C 3488 5069 3309 5082 3117 5101 
L 3117 4640 
C 3283 4666 3482 4672 3750 4672 
L 4346 4672 
z
M 3808 3757 
L 5350 3757 
L 5350 3302 
L 3808 3302 
L 3808 3757 
z
M 3808 2938 
L 5350 2938 
L 5350 2490 
L 3808 2490 
L 3808 2938 
z
M 3808 2125 
L 5350 2125 
L 5350 1658 
L 3808 1658 
L 3808 2125 
z
M 672 3565 
C 672 3309 666 3162 646 2995 
C 806 3014 966 3021 1229 3021 
L 2285 3021 
C 2547 3021 2701 3014 2867 2995 
C 2848 3168 2842 3277 2842 3552 
L 2842 4557 
C 2842 4845 2848 4966 2867 5133 
C 2707 5114 2592 5107 2278 5107 
L 1229 5107 
C 941 5107 787 5114 646 5133 
C 666 4966 672 4800 672 4563 
L 672 3565 
z
M 1107 4730 
L 2406 4730 
L 2406 4256 
L 1107 4256 
L 1107 4730 
z
M 1107 3872 
L 2406 3872 
L 2406 3386 
L 1107 3386 
L 1107 3872 
z
M 4762 966 
C 5184 582 5459 390 5914 173 
C 6003 339 6067 422 6195 550 
C 5741 736 5491 890 5107 1216 
L 4762 966 
z
M 3898 1222 
C 3584 877 3334 717 2810 506 
C 2950 397 3053 288 3149 147 
C 3603 371 3898 589 4269 979 
L 3898 1222 
z
" transform="scale(0.015625)"/>
      <path id="HiraginoSans-W4-3092" d="M 2189 4365 
C 1491 4365 1088 4390 813 4442 
L 800 3917 
C 864 3930 902 3930 934 3930 
C 966 3930 998 3930 1062 3923 
C 1197 3917 1830 3904 1958 3904 
C 1984 3904 2054 3910 2074 3910 
C 2035 3840 2035 3840 2016 3808 
C 1581 3046 1037 2362 614 2042 
L 1037 1619 
C 1152 1798 1293 1952 1549 2163 
C 2054 2598 2547 2835 2938 2835 
C 3226 2835 3373 2694 3411 2381 
C 2982 2189 2707 2042 2470 1869 
C 2016 1542 1792 1197 1792 832 
C 1792 499 1952 218 2227 64 
C 2534 -109 2944 -186 3539 -186 
C 4058 -186 4646 -141 5133 -64 
C 5267 -38 5293 -38 5395 -32 
L 5338 557 
C 4954 403 4250 301 3597 301 
C 2694 301 2330 467 2330 870 
C 2330 1088 2445 1267 2707 1472 
C 2874 1600 3085 1715 3475 1894 
C 3475 1818 3475 1798 3475 1696 
C 3475 1350 3456 973 3437 845 
L 3962 851 
C 3949 954 3949 1005 3949 1114 
C 3949 1165 3949 1254 3949 1376 
C 3955 1504 3955 1638 3955 1709 
C 3955 1850 3955 1869 3949 2080 
C 4800 2406 5299 2566 5645 2624 
L 5414 3149 
C 5312 3085 5293 3078 4966 2963 
C 4653 2854 4390 2758 3891 2566 
C 3802 3027 3507 3264 3027 3264 
C 2726 3264 2413 3174 2144 3002 
C 2080 2963 2042 2938 1926 2842 
C 1907 2829 1875 2810 1837 2778 
C 1837 2778 1830 2784 1824 2797 
C 1830 2803 1830 2803 1837 2810 
C 1837 2816 1862 2835 1901 2861 
C 1920 2874 2054 3021 2106 3098 
C 2310 3354 2438 3565 2624 3910 
C 3251 3930 4070 3987 4512 4045 
C 4883 4096 4883 4096 5005 4109 
L 4966 4621 
C 4627 4518 4032 4442 3238 4397 
C 2880 4378 2880 4378 2835 4371 
C 2874 4435 2944 4595 3027 4800 
C 3130 5050 3130 5050 3181 5126 
L 2579 5216 
C 2560 5011 2490 4813 2291 4365 
L 2189 4365 
z
" transform="scale(0.015625)"/>
      <path id="HiraginoSans-W4-63a2" d="M 3469 1824 
C 3040 1203 2451 710 1715 378 
C 1882 218 1926 160 2035 -38 
C 2810 422 3296 864 3738 1530 
C 3725 1350 3718 1190 3718 1018 
L 3718 83 
C 3718 -166 3706 -307 3674 -499 
L 4218 -499 
C 4186 -320 4179 -179 4179 77 
L 4179 992 
C 4179 1184 4173 1299 4154 1536 
C 4595 858 5146 365 5946 -58 
C 6054 160 6106 250 6227 403 
C 5472 717 4890 1178 4403 1824 
L 5466 1824 
C 5677 1824 5850 1818 6054 1792 
L 6054 2291 
C 5882 2266 5702 2253 5453 2253 
L 4179 2253 
L 4179 2515 
C 4179 2739 4186 2854 4211 3002 
L 3680 3002 
C 3712 2835 3718 2714 3718 2458 
L 3718 2253 
L 2733 2253 
C 2477 2253 2278 2259 2099 2285 
L 2099 1792 
C 2278 1818 2445 1824 2707 1824 
L 3469 1824 
z
M 1056 4058 
L 768 4058 
C 582 4058 448 4070 288 4096 
L 288 3603 
C 448 3622 582 3629 755 3629 
L 1056 3629 
L 1056 2310 
C 627 2144 461 2093 237 2048 
L 378 1536 
C 442 1574 666 1670 1056 1830 
L 1056 147 
C 1056 19 1005 -19 845 -19 
C 685 -19 563 -13 384 19 
C 454 -166 474 -262 493 -461 
C 653 -474 717 -474 787 -474 
C 1357 -474 1530 -352 1530 38 
L 1530 2035 
C 1792 2150 1862 2182 2112 2310 
L 2080 2752 
C 1837 2630 1766 2598 1530 2502 
L 1530 3629 
L 1664 3629 
C 1837 3629 1952 3622 2080 3603 
L 2080 4083 
C 1952 4064 1856 4058 1664 4058 
L 1530 4058 
L 1530 4659 
C 1530 4941 1542 5101 1574 5299 
L 1011 5299 
C 1043 5094 1056 4941 1056 4646 
L 1056 4058 
z
M 3309 4602 
C 3290 4160 3232 3917 3072 3674 
C 2893 3398 2611 3213 2170 3066 
C 2310 2944 2368 2874 2470 2688 
C 2925 2893 3238 3130 3424 3424 
C 3629 3738 3712 4026 3744 4602 
L 4250 4602 
L 4250 3354 
C 4250 3021 4397 2944 5069 2944 
C 5933 2944 6029 3021 6093 3757 
C 5920 3776 5850 3802 5690 3878 
C 5677 3366 5670 3360 5114 3360 
C 4762 3360 4685 3386 4685 3507 
L 4685 4602 
L 5472 4602 
L 5472 4013 
L 5952 4013 
C 5939 4134 5933 4211 5933 4390 
L 5933 4640 
C 5933 4838 5939 4934 5952 5050 
C 5805 5037 5645 5030 5363 5030 
L 2726 5030 
C 2451 5030 2298 5037 2150 5050 
C 2163 4928 2170 4819 2170 4640 
L 2170 4320 
C 2170 4141 2163 4038 2150 3910 
L 2611 3910 
L 2611 4602 
L 3309 4602 
z
" transform="scale(0.015625)"/>
      <path id="HiraginoSans-W4-3057" d="M 1440 5030 
C 1453 4890 1459 4813 1459 4672 
C 1459 4576 1459 4429 1453 4243 
C 1408 2234 1402 2035 1402 1645 
C 1402 1306 1434 992 1491 800 
C 1574 525 1747 275 1965 115 
C 2208 -58 2592 -160 3034 -160 
C 3776 -160 4390 109 4851 640 
C 5139 973 5325 1363 5574 2144 
C 5331 2266 5242 2323 5030 2509 
C 4947 2061 4870 1798 4717 1485 
C 4378 768 3789 371 3072 371 
C 2630 371 2304 506 2138 749 
C 2003 960 1958 1203 1958 1786 
C 1958 2214 1997 3763 2022 4230 
C 2042 4685 2061 4858 2093 5024 
L 1440 5030 
z
" transform="scale(0.015625)"/>
      <path id="HiraginoSans-W4-305f" d="M 672 3565 
C 768 3565 768 3565 787 3565 
C 800 3565 813 3565 832 3565 
C 1005 3558 1178 3552 1229 3552 
C 1440 3552 1677 3558 1760 3558 
C 1510 2259 1043 877 576 51 
L 1139 -186 
C 1485 640 1664 1133 1869 1818 
C 2048 2406 2214 3104 2304 3584 
C 2637 3610 3059 3667 3373 3731 
C 3507 3757 3507 3757 3558 3763 
L 3533 4288 
C 3219 4186 2880 4128 2394 4077 
C 2426 4243 2438 4314 2477 4531 
C 2554 4986 2554 4986 2592 5139 
L 1990 5203 
L 1990 5120 
C 1990 4922 1939 4550 1850 4045 
C 1677 4038 1600 4038 1498 4038 
C 1146 4038 890 4058 678 4096 
L 672 3565 
z
M 5574 3296 
C 5107 3315 5018 3315 4896 3315 
C 4307 3315 3910 3264 3142 3104 
L 3194 2592 
C 3795 2746 4224 2803 4813 2803 
C 5094 2803 5274 2790 5581 2752 
L 5574 3296 
z
M 3194 1926 
C 2854 1472 2752 1248 2752 954 
C 2752 301 3315 -38 4384 -38 
C 4736 -38 5062 -6 5536 70 
C 5754 109 5754 109 5830 122 
L 5779 691 
C 5414 557 4832 461 4358 461 
C 3667 461 3283 659 3283 1011 
C 3283 1114 3315 1248 3366 1357 
C 3411 1453 3450 1504 3635 1722 
L 3194 1926 
z
" transform="scale(0.015625)"/>
      <path id="HiraginoSans-W4-3044" d="M 819 4576 
C 832 4454 832 4429 838 4192 
C 870 2592 960 1805 1178 1165 
C 1395 518 1754 134 2144 134 
C 2630 134 2931 576 3258 1741 
C 3040 1907 2970 1978 2810 2170 
C 2733 1734 2624 1389 2477 1056 
C 2387 851 2278 749 2170 749 
C 1939 749 1696 1178 1562 1837 
C 1472 2246 1408 3091 1408 3763 
C 1408 4122 1421 4358 1453 4570 
L 819 4576 
z
M 4058 4013 
C 4813 3130 5280 1984 5382 781 
L 5933 998 
C 5728 2349 5325 3290 4525 4243 
L 4058 4013 
z
" transform="scale(0.015625)"/>
     </defs>
     <use xlink:href="#HiraginoSans-W4-76ee"/>
     <use xlink:href="#HiraginoSans-W4-7684" transform="translate(99.999985 0)"/>
     <use xlink:href="#HiraginoSans-W4-306e" transform="translate(199.999969 0)"/>
     <use xlink:href="#HiraginoSans-W4-88dc" transform="translate(299.999954 0)"/>
     <use xlink:href="#HiraginoSans-W4-984c" transform="translate(399.999939 0)"/>
     <use xlink:href="#HiraginoSans-W4-3092" transform="translate(499.999924 0)"/>
     <use xlink:href="#HiraginoSans-W4-63a2" transform="translate(599.999908 0)"/>
     <use xlink:href="#HiraginoSans-W4-3057" transform="translate(699.999893 0)"/>
     <use xlink:href="#HiraginoSans-W4-305f" transform="translate(799.999878 0)"/>
     <use xlink:href="#HiraginoSans-W4-3044" transform="translate(899.999863 0)"/>
    </g>
   </g>
   <g id="text_9">
    <!-- exact? を試す -->
    <g style="fill: #1e293b" transform="translate(228.302578 126.170719) scale(0.09 -0.09)">
     <defs>
      <path id="HiraginoSans-W4-78" d="M 3469 0 
C 3238 294 3078 512 3008 614 
L 2138 1824 
L 2963 2982 
C 3021 3072 3168 3270 3206 3322 
C 3315 3462 3315 3462 3354 3520 
L 2630 3520 
C 2566 3386 2483 3238 2368 3072 
L 1792 2227 
L 1203 3072 
C 1088 3238 1024 3360 947 3520 
L 211 3520 
C 474 3174 557 3072 608 3002 
L 1440 1830 
L 531 563 
C 422 410 237 160 109 0 
L 858 0 
C 966 205 1018 294 1114 435 
L 1786 1421 
L 2426 486 
C 2566 288 2624 192 2720 0 
L 3469 0 
z
" transform="scale(0.015625)"/>
      <path id="HiraginoSans-W4-61" d="M 2765 0 
L 3373 0 
C 3334 269 3322 422 3322 736 
L 3322 2515 
C 3322 2867 3238 3110 3046 3290 
C 2816 3514 2464 3622 1978 3622 
C 1485 3622 1094 3507 813 3270 
C 627 3123 531 2976 416 2656 
L 1011 2541 
C 1069 2714 1114 2797 1197 2886 
C 1370 3066 1626 3155 1971 3155 
C 2515 3155 2765 2950 2765 2515 
L 2765 2182 
C 1933 2163 1581 2118 1197 1997 
C 646 1818 333 1434 333 941 
C 333 320 774 -58 1491 -58 
C 1741 -58 1978 -19 2195 64 
C 2406 141 2522 218 2765 429 
L 2765 0 
z
M 2765 1363 
C 2765 1126 2707 973 2554 813 
C 2304 557 1920 397 1568 397 
C 1165 397 915 608 915 941 
C 915 1235 1075 1440 1395 1568 
C 1677 1683 2035 1728 2765 1747 
L 2765 1363 
z
" transform="scale(0.015625)"/>
      <path id="HiraginoSans-W4-63" d="M 3475 2573 
C 3405 2758 3347 2867 3251 3002 
C 2970 3405 2522 3616 1965 3616 
C 947 3616 282 2874 282 1747 
C 282 627 954 -90 1990 -90 
C 2534 -90 2970 102 3258 480 
C 3366 621 3430 742 3520 986 
L 2950 1126 
C 2899 966 2867 890 2816 806 
C 2650 550 2362 410 2010 410 
C 1312 410 870 934 870 1760 
C 870 2598 1299 3130 1984 3130 
C 2438 3130 2739 2899 2912 2413 
L 3475 2573 
z
" transform="scale(0.015625)"/>
      <path id="HiraginoSans-W4-74" d="M 851 4480 
C 877 4262 896 4006 896 3750 
L 896 3520 
L 646 3520 
C 378 3520 250 3526 70 3558 
L 70 2995 
C 275 3021 416 3034 640 3034 
L 896 3034 
L 896 787 
C 896 461 954 269 1094 134 
C 1235 6 1466 -64 1773 -64 
C 2042 -64 2246 -26 2515 83 
L 2374 602 
C 2176 486 2048 448 1875 448 
C 1741 448 1632 486 1568 544 
C 1504 608 1478 698 1478 883 
L 1478 3034 
L 1779 3034 
C 2074 3034 2221 3027 2426 2995 
L 2426 3558 
C 2214 3526 2074 3520 1773 3520 
L 1478 3520 
L 1478 3750 
C 1478 4026 1498 4275 1523 4480 
L 851 4480 
z
" transform="scale(0.015625)"/>
      <path id="HiraginoSans-W4-3f" d="M 2067 1267 
C 2048 1408 2042 1504 2042 1600 
C 2042 1850 2093 2022 2202 2170 
C 2291 2298 2374 2362 2784 2650 
C 3130 2893 3258 3021 3373 3219 
C 3475 3398 3520 3597 3520 3840 
C 3520 4173 3360 4480 3078 4704 
C 2784 4934 2413 5050 1939 5050 
C 1402 5050 979 4915 672 4646 
C 410 4422 282 4192 154 3731 
L 800 3642 
C 858 3898 909 4013 1018 4154 
C 1210 4403 1523 4538 1920 4538 
C 2502 4538 2893 4230 2893 3776 
C 2893 3603 2816 3424 2688 3290 
C 2592 3187 2477 3091 2259 2944 
C 1862 2675 1818 2637 1690 2464 
C 1510 2234 1446 2022 1446 1670 
C 1446 1478 1446 1434 1427 1267 
L 2067 1267 
z
M 1395 678 
L 1395 0 
L 2099 0 
L 2099 678 
L 1395 678 
z
" transform="scale(0.015625)"/>
      <path id="HiraginoSans-W4-8a66" d="M 4435 3731 
C 4486 2502 4576 1798 4768 1139 
C 5030 256 5427 -320 5773 -320 
C 5914 -320 6035 -224 6112 -38 
C 6195 147 6240 384 6298 890 
C 6125 973 6035 1037 5888 1178 
C 5875 646 5818 282 5747 282 
C 5728 282 5664 346 5606 416 
C 5466 614 5306 973 5203 1331 
C 5037 1907 4941 2682 4902 3731 
L 5510 3731 
C 5760 3731 5984 3718 6170 3693 
L 6170 4205 
C 6003 4186 5837 4173 5574 4173 
L 4890 4173 
C 4883 4499 4883 4614 4883 4838 
C 4883 5050 4890 5152 4915 5280 
L 4378 5280 
C 4397 5139 4403 5043 4403 4883 
C 4410 4595 4410 4506 4422 4173 
L 3245 4173 
C 2976 4173 2758 4186 2586 4211 
L 2586 3693 
C 2778 3718 3002 3731 3238 3731 
L 4435 3731 
z
M 3187 2464 
L 3187 768 
C 2797 678 2618 640 2406 621 
L 2522 122 
C 2637 160 2714 186 2886 230 
C 3488 384 3846 499 4544 774 
L 4525 1203 
C 4090 1037 3930 979 3642 896 
L 3642 2464 
L 3878 2464 
C 4032 2464 4166 2458 4326 2445 
L 4326 2912 
C 4198 2886 4058 2880 3846 2880 
L 3002 2880 
C 2797 2880 2662 2893 2490 2918 
L 2490 2438 
C 2637 2458 2778 2464 2982 2464 
L 3187 2464 
z
M 576 4659 
C 730 4678 851 4685 1056 4685 
L 1875 4685 
C 2080 4685 2227 4678 2355 4659 
L 2355 5126 
C 2208 5101 2099 5094 1875 5094 
L 1056 5094 
C 832 5094 723 5101 576 5126 
L 576 4659 
z
M 352 3750 
C 518 3770 640 3776 864 3776 
L 1946 3776 
C 2163 3776 2259 3770 2413 3757 
L 2413 4230 
C 2272 4211 2157 4205 1901 4205 
L 864 4205 
C 621 4205 499 4211 352 4237 
L 352 3750 
z
M 602 2874 
C 717 2886 826 2893 1030 2893 
L 1869 2893 
C 2074 2893 2138 2886 2285 2874 
L 2285 3322 
C 2170 3309 2086 3302 1869 3302 
L 1030 3302 
C 813 3302 736 3309 602 3322 
L 602 2874 
z
M 602 1984 
C 730 1997 826 2003 1024 2003 
L 1862 2003 
C 2061 2003 2144 1997 2285 1984 
L 2285 2432 
C 2170 2419 2080 2413 1869 2413 
L 1030 2413 
C 806 2413 736 2419 602 2432 
L 602 1984 
z
M 1037 -467 
L 1037 -141 
L 1875 -141 
L 1875 -384 
L 2317 -384 
C 2298 -237 2291 -77 2291 109 
L 2291 1062 
C 2291 1299 2298 1446 2310 1555 
C 2214 1542 2086 1536 1850 1536 
L 1101 1536 
C 851 1536 730 1542 589 1555 
C 608 1395 614 1261 614 1043 
L 614 154 
C 614 -64 602 -275 582 -467 
L 1037 -467 
z
M 1030 1158 
L 1875 1158 
L 1875 256 
L 1030 256 
L 1030 1158 
z
M 5024 5043 
C 5318 4787 5472 4608 5715 4243 
L 6054 4531 
C 5824 4845 5626 5062 5350 5299 
L 5024 5043 
z
" transform="scale(0.015625)"/>
      <path id="HiraginoSans-W4-3059" d="M 3507 4326 
C 2790 4307 2509 4301 1965 4282 
C 998 4243 960 4243 787 4243 
C 691 4243 640 4243 512 4250 
L 531 3699 
C 928 3763 2419 3846 3514 3866 
C 3514 3514 3520 3181 3526 3123 
L 3526 3078 
C 3366 3245 3117 3334 2816 3334 
C 2131 3334 1632 2874 1632 2246 
C 1632 1645 2093 1203 2720 1203 
C 3053 1203 3334 1318 3526 1536 
C 3597 1613 3635 1683 3699 1818 
C 3680 1562 3629 1376 3514 1171 
C 3238 672 2746 358 1920 134 
C 2074 -32 2118 -102 2246 -358 
C 2765 -166 3034 -32 3302 160 
C 3885 589 4179 1158 4179 1850 
C 4179 2157 4134 2368 4019 2643 
C 4019 3494 4019 3494 4019 3872 
C 4531 3878 4640 3878 4730 3878 
C 5434 3878 5664 3872 5907 3846 
L 5907 4384 
C 5696 4358 5210 4346 4013 4339 
C 4013 4883 4019 4979 4045 5178 
L 3469 5178 
C 3488 5043 3494 4979 3501 4806 
L 3507 4326 
z
M 2861 2906 
C 3059 2906 3238 2842 3366 2720 
C 3456 2630 3494 2534 3494 2381 
C 3494 1965 3200 1677 2784 1677 
C 2413 1677 2157 1926 2157 2285 
C 2157 2637 2458 2906 2861 2906 
z
" transform="scale(0.015625)"/>
     </defs>
     <use xlink:href="#HiraginoSans-W4-65"/>
     <use xlink:href="#HiraginoSans-W4-78" transform="translate(60.199997 0)"/>
     <use xlink:href="#HiraginoSans-W4-61" transform="translate(116.099991 0)"/>
     <use xlink:href="#HiraginoSans-W4-63" transform="translate(175.299988 0)"/>
     <use xlink:href="#HiraginoSans-W4-74" transform="translate(234.399979 0)"/>
     <use xlink:href="#HiraginoSans-W4-3f" transform="translate(274.899963 0)"/>
     <use xlink:href="#HiraginoSans-W4-20" transform="translate(333.299957 0)"/>
     <use xlink:href="#HiraginoSans-W4-3092" transform="translate(366.599945 0)"/>
     <use xlink:href="#HiraginoSans-W4-8a66" transform="translate(466.59993 0)"/>
     <use xlink:href="#HiraginoSans-W4-3059" transform="translate(566.599915 0)"/>
    </g>
   </g>
   <g id="text_10">
    <!-- 見つかった？ -->
    <g style="fill: #1e293b" transform="translate(232.8 187.013234) scale(0.085 -0.085)">
     <defs>
      <path id="HiraginoSans-W4-898b" d="M 2259 1382 
C 2170 896 2003 627 1645 371 
C 1318 141 979 26 314 -96 
C 442 -256 506 -358 582 -550 
C 1350 -378 1824 -160 2208 211 
C 2534 518 2701 858 2784 1382 
L 3507 1382 
L 3507 102 
C 3507 -314 3686 -390 4653 -390 
C 5882 -390 5958 -320 6093 845 
C 5926 890 5811 941 5613 1050 
C 5549 64 5549 64 4685 64 
C 4058 64 4000 83 4000 275 
L 4000 1382 
L 4557 1382 
C 4877 1382 5094 1376 5261 1363 
C 5235 1549 5229 1734 5229 2035 
L 5229 4250 
C 5229 4608 5242 4941 5261 5088 
C 5069 5069 4851 5056 4582 5056 
L 1818 5056 
C 1549 5056 1344 5062 1146 5088 
C 1165 4947 1178 4634 1178 4250 
L 1178 2035 
C 1178 1741 1171 1562 1146 1363 
C 1338 1376 1510 1382 1856 1382 
L 2259 1382 
z
M 1651 4608 
L 4755 4608 
L 4755 3987 
L 1651 3987 
L 1651 4608 
z
M 1651 3558 
L 4755 3558 
L 4755 2918 
L 1651 2918 
L 1651 3558 
z
M 1651 2490 
L 4755 2490 
L 4755 1811 
L 1651 1811 
L 1651 2490 
z
" transform="scale(0.015625)"/>
      <path id="HiraginoSans-W4-3064" d="M 659 3110 
C 787 3168 851 3187 1139 3270 
C 2234 3578 3066 3725 3738 3725 
C 4589 3725 5107 3302 5107 2605 
C 5107 1894 4608 1325 3712 1018 
C 3219 851 2669 762 1958 742 
C 2086 518 2125 429 2189 166 
C 3226 262 3757 384 4346 672 
C 5216 1094 5702 1786 5702 2605 
C 5702 3629 4941 4262 3718 4262 
C 3181 4262 2618 4192 1882 4032 
C 698 3763 698 3763 518 3757 
L 659 3110 
z
" transform="scale(0.015625)"/>
      <path id="HiraginoSans-W4-304b" d="M 582 3027 
C 864 3104 1133 3155 1824 3251 
C 1619 2438 1440 1920 1146 1286 
C 928 806 672 358 480 115 
L 1005 -186 
C 1197 173 1331 442 1421 621 
C 1843 1485 2118 2266 2362 3296 
C 2547 3315 2662 3322 2797 3322 
C 3366 3322 3546 3117 3546 2464 
C 3546 1754 3450 1101 3290 717 
C 3206 525 3085 429 2931 429 
C 2707 429 2342 544 1990 717 
C 2016 563 2022 480 2022 358 
C 2022 282 2022 250 2010 141 
C 2426 -26 2707 -96 2976 -96 
C 3283 -96 3469 -13 3629 198 
C 3904 563 4077 1421 4077 2438 
C 4077 2982 3994 3277 3770 3501 
C 3571 3699 3283 3789 2848 3789 
C 2707 3789 2611 3782 2458 3770 
C 2490 3923 2560 4326 2592 4499 
C 2650 4858 2669 4966 2707 5094 
L 2106 5158 
C 2106 5120 2106 5088 2106 5075 
C 2106 4813 2029 4256 1926 3731 
C 1389 3648 749 3578 518 3571 
L 582 3027 
z
M 4346 3942 
C 4954 3309 5395 2496 5632 1574 
L 6138 1843 
C 5850 2765 5446 3462 4806 4173 
L 4346 3942 
z
" transform="scale(0.015625)"/>
      <path id="HiraginoSans-W4-3063" d="M 1139 2138 
C 1344 2227 1446 2259 1843 2349 
C 2611 2534 3091 2605 3533 2605 
C 4275 2605 4666 2304 4666 1741 
C 4666 1184 4237 717 3514 480 
C 3142 365 2630 282 2240 282 
C 2214 282 2189 282 2144 282 
C 2266 58 2298 -26 2342 -243 
C 3155 -141 3290 -122 3680 6 
C 4621 314 5190 954 5190 1709 
C 5190 1984 5114 2259 4979 2470 
C 4730 2880 4256 3085 3584 3085 
C 3040 3085 2470 3002 1619 2803 
C 1184 2707 1178 2701 1011 2688 
L 1139 2138 
z
" transform="scale(0.015625)"/>
      <path id="HiraginoSans-W4-ff1f" d="M 3366 1229 
C 3347 1370 3341 1466 3341 1562 
C 3341 1811 3392 1984 3501 2131 
C 3590 2259 3674 2323 4083 2611 
C 4429 2854 4557 2982 4672 3181 
C 4774 3360 4819 3558 4819 3802 
C 4819 4134 4659 4442 4378 4666 
C 4083 4896 3712 5011 3238 5011 
C 2701 5011 2278 4877 1971 4608 
C 1709 4384 1581 4154 1453 3693 
L 2099 3603 
C 2157 3866 2208 3974 2317 4115 
C 2509 4365 2822 4499 3219 4499 
C 3802 4499 4192 4192 4192 3738 
C 4192 3565 4115 3386 3987 3251 
C 3891 3149 3776 3053 3558 2906 
C 3162 2637 3117 2598 2989 2426 
C 2810 2195 2746 1984 2746 1632 
C 2746 1440 2746 1395 2726 1229 
L 3366 1229 
z
M 2694 646 
L 2694 -32 
L 3398 -32 
L 3398 646 
L 2694 646 
z
" transform="scale(0.015625)"/>
     </defs>
     <use xlink:href="#HiraginoSans-W4-898b"/>
     <use xlink:href="#HiraginoSans-W4-3064" transform="translate(99.999985 0)"/>
     <use xlink:href="#HiraginoSans-W4-304b" transform="translate(199.999969 0)"/>
     <use xlink:href="#HiraginoSans-W4-3063" transform="translate(299.999954 0)"/>
     <use xlink:href="#HiraginoSans-W4-305f" transform="translate(399.999939 0)"/>
     <use xlink:href="#HiraginoSans-W4-ff1f" transform="translate(499.999924 0)"/>
    </g>
   </g>
   <g id="text_11">
    <!-- 完了 ✓ -->
    <g style="fill: #059669" transform="translate(411.430781 187.231359) scale(0.09 -0.09)">
     <defs>
      <path id="HiraginoSans-W7-5b8c" d="M 2726 4845 
L 1120 4845 
C 781 4845 602 4851 384 4870 
C 403 4717 410 4576 410 4358 
L 410 3789 
C 410 3584 397 3430 378 3277 
L 1210 3277 
L 1210 4096 
L 5216 4096 
L 5216 3277 
L 6042 3277 
C 6016 3430 6010 3578 6010 3789 
L 6010 4358 
C 6010 4595 6016 4717 6035 4870 
C 5811 4851 5638 4845 5299 4845 
L 3584 4845 
L 3584 4966 
C 3584 5146 3597 5306 3616 5414 
L 2694 5414 
C 2714 5286 2726 5139 2726 4960 
L 2726 4845 
z
M 1926 1811 
C 1920 1728 1914 1702 1907 1651 
C 1843 1107 1594 749 1094 499 
C 838 371 646 307 198 192 
C 435 -96 544 -275 646 -582 
C 1178 -416 1421 -307 1734 -96 
C 2310 282 2637 813 2726 1510 
C 2739 1600 2739 1613 2758 1811 
L 3354 1811 
L 3354 134 
C 3354 -352 3546 -442 4538 -442 
C 5357 -442 5632 -403 5818 -256 
C 6054 -77 6144 224 6163 915 
C 5856 960 5690 1005 5382 1139 
C 5382 1082 5382 1043 5382 1018 
C 5382 819 5357 563 5325 486 
C 5286 365 5146 326 4742 326 
C 4269 326 4186 352 4186 506 
L 4186 1811 
L 5318 1811 
C 5645 1811 5830 1805 6016 1779 
L 6016 2586 
C 5830 2560 5664 2554 5325 2554 
L 1101 2554 
C 755 2554 582 2560 397 2586 
L 397 1779 
C 589 1805 768 1811 1101 1811 
L 1926 1811 
z
M 1338 2944 
C 1517 2963 1677 2970 1971 2970 
L 4454 2970 
C 4755 2970 4909 2963 5088 2944 
L 5088 3725 
C 4909 3706 4755 3699 4454 3699 
L 1971 3699 
C 1677 3699 1517 3706 1338 3725 
L 1338 2944 
z
" transform="scale(0.015625)"/>
      <path id="HiraginoSans-W7-4e86" d="M 4557 4314 
C 4160 3936 3872 3725 3443 3482 
L 2790 3482 
C 2816 3290 2822 3098 2822 2835 
L 2822 544 
C 2822 422 2752 390 2522 390 
C 2259 390 1958 416 1536 474 
C 1658 147 1709 -64 1760 -422 
C 2266 -448 2432 -454 2643 -454 
C 3443 -454 3706 -282 3706 237 
L 3706 2701 
C 4192 3008 4403 3155 4787 3462 
C 5165 3763 5242 3834 5747 4320 
C 5843 4416 5907 4480 6016 4576 
L 5491 5171 
C 5331 5146 5114 5133 4762 5133 
L 1530 5133 
C 1120 5133 845 5146 614 5171 
L 614 4275 
C 909 4301 1152 4314 1530 4314 
L 4557 4314 
z
" transform="scale(0.015625)"/>
      <path id="DejaVuSans-Bold-2713" d="M 1416 2044 
Q 1538 2044 1600 1844 
Q 1725 1469 1778 1469 
Q 1819 1469 1863 1531 
Q 2741 2938 3488 3806 
Q 3681 4031 4103 4031 
Q 4203 4031 4237 4012 
Q 4272 3994 4272 3966 
Q 4272 3922 4169 3794 
Q 2963 2344 1931 731 
Q 1859 619 1638 619 
Q 1413 619 1372 638 
Q 1266 684 1122 1116 
Q 959 1594 959 1716 
Q 959 1847 1178 1969 
Q 1313 2044 1416 2044 
z
" transform="scale(0.015625)"/>
     </defs>
     <use xlink:href="#HiraginoSans-W7-5b8c"/>
     <use xlink:href="#HiraginoSans-W7-4e86" transform="translate(99.999985 0)"/>
     <use xlink:href="#HiraginoSans-W7-20" transform="translate(199.999969 0)"/>
     <use xlink:href="#DejaVuSans-Bold-2713" transform="translate(233.299957 0)"/>
    </g>
   </g>
   <g id="text_12">
    <!-- apply? を試す -->
    <g style="fill: #1e293b" transform="translate(228.356016 251.144859) scale(0.09 -0.09)">
     <defs>
      <path id="HiraginoSans-W4-70" d="M 1101 -1312 
C 1069 -1075 1056 -877 1056 -550 
L 1056 128 
C 1056 301 1050 397 1037 570 
C 1363 154 1792 -51 2349 -51 
C 3334 -51 3968 659 3968 1773 
C 3968 2906 3354 3590 2336 3590 
C 1766 3590 1344 3379 1037 2944 
C 1050 3078 1050 3117 1050 3194 
L 1050 3520 
L 442 3520 
C 474 3277 486 3078 486 2752 
L 486 -557 
C 486 -845 474 -1056 442 -1312 
L 1101 -1312 
z
M 2272 442 
C 1952 442 1626 570 1421 781 
C 1197 1005 1062 1376 1062 1766 
C 1062 2547 1555 3091 2278 3091 
C 2976 3091 3373 2611 3373 1773 
C 3373 941 2957 442 2272 442 
z
" transform="scale(0.015625)"/>
      <path id="HiraginoSans-W4-6c" d="M 442 4934 
C 474 4704 486 4518 486 4179 
L 486 755 
C 486 429 474 250 442 0 
L 1120 0 
C 1088 262 1075 448 1075 755 
L 1075 4179 
C 1075 4512 1088 4698 1120 4934 
L 442 4934 
z
" transform="scale(0.015625)"/>
      <path id="HiraginoSans-W4-79" d="M 1600 154 
L 1325 -486 
C 1229 -710 1069 -832 858 -832 
C 730 -832 621 -800 442 -717 
L 301 -1274 
C 550 -1325 710 -1344 864 -1344 
C 1357 -1344 1664 -1146 1843 -717 
L 3283 2758 
C 3462 3181 3571 3437 3603 3520 
L 2912 3520 
C 2880 3334 2829 3168 2694 2816 
L 1901 768 
L 1011 2822 
C 902 3072 819 3341 787 3520 
L 64 3520 
C 134 3386 134 3386 422 2758 
L 1600 154 
z
" transform="scale(0.015625)"/>
     </defs>
     <use xlink:href="#HiraginoSans-W4-61"/>
     <use xlink:href="#HiraginoSans-W4-70" transform="translate(59.199997 0)"/>
     <use xlink:href="#HiraginoSans-W4-70" transform="translate(125.599991 0)"/>
     <use xlink:href="#HiraginoSans-W4-6c" transform="translate(191.999985 0)"/>
     <use xlink:href="#HiraginoSans-W4-79" transform="translate(216.299973 0)"/>
     <use xlink:href="#HiraginoSans-W4-3f" transform="translate(273.699966 0)"/>
     <use xlink:href="#HiraginoSans-W4-20" transform="translate(332.09996 0)"/>
     <use xlink:href="#HiraginoSans-W4-3092" transform="translate(365.399948 0)"/>
     <use xlink:href="#HiraginoSans-W4-8a66" transform="translate(465.399933 0)"/>
     <use xlink:href="#HiraginoSans-W4-3059" transform="translate(565.399918 0)"/>
    </g>
   </g>
   <g id="text_13">
    <!-- 見つかった？ -->
    <g style="fill: #1e293b" transform="translate(232.8 311.753234) scale(0.085 -0.085)">
     <use xlink:href="#HiraginoSans-W4-898b"/>
     <use xlink:href="#HiraginoSans-W4-3064" transform="translate(99.999985 0)"/>
     <use xlink:href="#HiraginoSans-W4-304b" transform="translate(199.999969 0)"/>
     <use xlink:href="#HiraginoSans-W4-3063" transform="translate(299.999954 0)"/>
     <use xlink:href="#HiraginoSans-W4-305f" transform="translate(399.999939 0)"/>
     <use xlink:href="#HiraginoSans-W4-ff1f" transform="translate(499.999924 0)"/>
    </g>
   </g>
   <g id="text_14">
    <!-- 完了 ✓ -->
    <g style="fill: #059669" transform="translate(411.430781 311.971359) scale(0.09 -0.09)">
     <use xlink:href="#HiraginoSans-W7-5b8c"/>
     <use xlink:href="#HiraginoSans-W7-4e86" transform="translate(99.999985 0)"/>
     <use xlink:href="#HiraginoSans-W7-20" transform="translate(199.999969 0)"/>
     <use xlink:href="#DejaVuSans-Bold-2713" transform="translate(233.299957 0)"/>
    </g>
   </g>
   <g id="text_15">
    <!-- Mathlib4Docs / Loogle で検索 -->
    <g style="fill: #1e293b" transform="translate(191.512969 375.943219) scale(0.09 -0.09)">
     <defs>
      <path id="HiraginoSans-W4-4d" d="M 5018 806 
C 5018 480 4998 211 4966 0 
L 5638 0 
C 5600 230 5587 422 5587 806 
L 5587 4122 
C 5587 4486 5600 4672 5638 4934 
L 4774 4934 
C 4736 4723 4672 4531 4557 4262 
L 3059 838 
L 1562 4262 
C 1466 4486 1389 4730 1344 4934 
L 480 4934 
C 518 4691 531 4467 531 4122 
L 531 806 
C 531 442 518 243 480 0 
L 1152 0 
C 1114 224 1101 442 1101 806 
L 1101 3059 
C 1101 3251 1082 3776 1056 4243 
C 1242 3667 1293 3533 1478 3117 
L 2534 723 
C 2669 435 2752 186 2784 0 
L 3322 0 
C 3386 250 3443 422 3578 717 
L 4666 3155 
C 4883 3648 4960 3846 5062 4237 
C 5043 3949 5018 3334 5018 3104 
L 5018 806 
z
" transform="scale(0.015625)"/>
      <path id="HiraginoSans-W4-68" d="M 1107 0 
C 1075 256 1062 474 1062 755 
L 1062 2003 
C 1139 2272 1229 2438 1402 2643 
C 1645 2931 1933 3078 2259 3078 
C 2490 3078 2682 3002 2810 2861 
C 2931 2726 2995 2522 2995 2240 
L 2995 755 
C 2995 422 2982 224 2944 0 
L 3622 0 
C 3590 230 3578 448 3578 749 
L 3578 2362 
C 3578 3130 3123 3584 2355 3584 
C 1773 3584 1357 3347 1043 2854 
C 1056 3046 1062 3066 1062 3168 
L 1062 4173 
C 1062 4512 1069 4691 1107 4934 
L 442 4934 
C 480 4691 493 4512 493 4179 
L 493 755 
C 493 422 480 250 442 0 
L 1107 0 
z
" transform="scale(0.015625)"/>
      <path id="HiraginoSans-W4-69" d="M 442 4934 
L 442 4294 
L 1152 4294 
L 1152 4934 
L 442 4934 
z
M 454 3520 
C 486 3296 499 3085 499 2765 
L 499 755 
C 499 461 486 282 454 0 
L 1133 0 
C 1101 269 1088 448 1088 755 
L 1088 2758 
C 1088 3104 1101 3290 1133 3520 
L 454 3520 
z
" transform="scale(0.015625)"/>
      <path id="HiraginoSans-W4-62" d="M 1050 0 
L 1050 314 
C 1043 448 1043 448 1037 506 
C 1037 518 1037 538 1037 557 
C 1338 141 1766 -64 2317 -64 
C 3341 -64 3962 634 3962 1786 
C 3962 2918 3360 3597 2355 3597 
C 1779 3597 1344 3379 1037 2931 
C 1050 3078 1056 3206 1056 3386 
L 1056 4173 
C 1056 4499 1069 4691 1101 4934 
L 442 4934 
C 474 4666 486 4461 486 4173 
L 486 774 
C 486 442 474 243 442 0 
L 1050 0 
z
M 3366 1786 
C 3366 941 2950 429 2259 429 
C 1555 429 1062 986 1062 1779 
C 1062 2566 1562 3104 2285 3104 
C 2970 3104 3366 2618 3366 1786 
z
" transform="scale(0.015625)"/>
      <path id="HiraginoSans-W4-34" d="M 179 1210 
C 403 1229 589 1235 954 1235 
L 2688 1235 
L 2688 710 
C 2688 410 2675 218 2630 0 
L 3309 0 
C 3270 230 3258 390 3258 704 
L 3258 1235 
L 3494 1235 
C 3763 1235 3910 1222 4154 1190 
L 4154 1798 
C 3917 1766 3750 1754 3494 1754 
L 3258 1754 
L 3258 3853 
C 3258 4358 3264 4544 3296 4934 
L 2701 4934 
C 2560 4704 2445 4550 2214 4269 
L 621 2298 
C 467 2099 326 1939 179 1773 
L 179 1210 
z
M 2688 1747 
L 858 1747 
L 2259 3514 
C 2464 3763 2592 3936 2720 4128 
C 2694 3814 2688 3622 2688 3283 
L 2688 1747 
z
" transform="scale(0.015625)"/>
      <path id="HiraginoSans-W4-44" d="M 531 768 
C 531 429 518 237 480 -13 
C 710 0 870 0 1210 0 
L 2317 0 
C 2989 0 3520 192 3910 570 
C 4371 1018 4614 1683 4614 2515 
C 4614 3309 4390 3942 3949 4365 
C 3565 4749 3021 4934 2310 4934 
L 1210 4934 
C 883 4934 698 4941 480 4954 
C 518 4672 531 4493 531 4192 
L 531 768 
z
M 1126 538 
L 1126 4397 
L 2310 4397 
C 2848 4397 3226 4262 3507 3974 
C 3834 3642 3994 3155 3994 2502 
C 3994 1856 3814 1325 3475 979 
C 3187 678 2803 538 2291 538 
L 1126 538 
z
" transform="scale(0.015625)"/>
      <path id="HiraginoSans-W4-4c" d="M 3085 0 
C 3475 0 3661 -6 3878 -38 
L 3878 589 
C 3622 557 3437 544 3085 544 
L 1139 544 
L 1139 4128 
C 1139 4512 1152 4685 1190 4934 
L 480 4934 
C 518 4704 531 4493 531 4122 
L 531 768 
C 531 435 518 218 480 -13 
C 717 0 883 0 1216 0 
L 3085 0 
z
" transform="scale(0.015625)"/>
      <path id="HiraginoSans-W4-67" d="M 416 -678 
C 838 -1146 1261 -1325 1920 -1325 
C 2509 -1325 3014 -1152 3290 -858 
C 3578 -557 3699 -147 3699 531 
L 3699 2778 
C 3699 3091 3712 3258 3744 3520 
L 3142 3520 
L 3142 3194 
C 3142 3123 3142 3078 3155 2976 
C 2886 3373 2477 3578 1939 3578 
C 928 3578 288 2880 288 1792 
C 288 710 915 26 1907 26 
C 2285 26 2630 134 2880 326 
C 2989 416 3053 493 3155 659 
C 3142 237 3098 -38 3027 -218 
C 2861 -627 2470 -851 1933 -851 
C 1485 -851 1165 -698 896 -346 
L 416 -678 
z
M 883 1779 
C 883 2592 1306 3098 1990 3098 
C 2675 3098 3130 2592 3130 1830 
C 3130 1037 2650 499 1952 499 
C 1293 499 883 992 883 1779 
z
" transform="scale(0.015625)"/>
      <path id="HiraginoSans-W4-3067" d="M 576 3706 
C 915 3776 1440 3827 2682 3910 
C 3373 3955 3680 3987 4090 4051 
C 3008 3565 2374 2733 2374 1798 
C 2374 1222 2643 736 3136 416 
C 3514 179 3891 51 4550 -58 
C 4653 -70 4678 -77 4755 -96 
L 4845 525 
C 4538 525 4205 582 3885 691 
C 3245 902 2918 1286 2918 1850 
C 2918 2451 3283 3040 3936 3482 
C 4442 3821 5050 4026 5568 4026 
L 5645 4026 
L 5600 4595 
C 5498 4570 5242 4544 4851 4531 
C 3795 4486 2042 4384 1146 4320 
C 947 4307 864 4301 774 4301 
L 544 4307 
L 576 3706 
z
M 4506 3104 
C 4768 2810 4973 2490 5171 2093 
L 5549 2304 
C 5325 2720 5178 2938 4877 3296 
L 4506 3104 
z
M 5248 3450 
C 5530 3117 5722 2829 5907 2458 
L 6278 2669 
C 6048 3091 5907 3290 5606 3642 
L 5248 3450 
z
" transform="scale(0.015625)"/>
      <path id="HiraginoSans-W4-691c" d="M 2989 3347 
C 3181 3360 3283 3366 3546 3366 
L 3821 3366 
L 3821 2854 
L 2995 2854 
C 2675 2854 2605 2854 2438 2874 
C 2451 2739 2458 2637 2458 2451 
L 2458 1651 
C 2458 1510 2451 1376 2438 1254 
C 2624 1274 2771 1280 3021 1280 
L 3629 1280 
C 3494 909 3315 666 3002 442 
C 2694 224 2406 96 1933 -26 
C 2074 -173 2138 -262 2227 -467 
C 3245 -90 3757 352 4026 1088 
C 4390 384 5018 -134 5920 -467 
C 6022 -230 6067 -166 6189 6 
C 5325 237 4717 666 4358 1280 
L 5094 1280 
C 5376 1280 5542 1274 5715 1254 
C 5696 1395 5696 1504 5696 1734 
L 5696 2406 
C 5696 2560 5702 2701 5715 2874 
C 5555 2861 5402 2854 5139 2854 
L 4250 2854 
C 4256 2976 4256 2989 4256 3085 
L 4256 3366 
L 4621 3366 
C 4870 3366 5011 3360 5178 3347 
L 5178 3712 
C 5472 3501 5645 3392 5984 3206 
C 6074 3411 6138 3507 6253 3654 
C 5741 3878 5389 4096 4998 4442 
C 4666 4730 4467 4954 4269 5280 
L 3750 5280 
C 3386 4621 2906 4122 2240 3712 
L 2240 4154 
C 2118 4134 2029 4128 1850 4128 
L 1619 4128 
L 1619 4710 
C 1619 5024 1626 5203 1651 5363 
L 1126 5363 
C 1152 5216 1158 5056 1158 4704 
L 1158 4128 
L 781 4128 
C 582 4128 461 4134 346 4154 
L 346 3661 
C 448 3680 595 3686 781 3686 
L 1101 3686 
C 941 2899 589 2054 192 1504 
C 320 1363 371 1280 480 1050 
C 781 1562 909 1875 1120 2618 
C 1139 2675 1165 2765 1197 2880 
C 1178 2502 1165 2195 1165 1920 
L 1165 250 
C 1165 -83 1152 -320 1126 -506 
L 1658 -506 
C 1632 -320 1619 -96 1619 250 
L 1619 2112 
C 1619 2432 1606 2861 1587 3091 
C 1773 2630 1875 2426 2118 2042 
C 2202 2214 2259 2310 2374 2445 
C 2003 2893 1798 3245 1645 3686 
L 1856 3686 
C 1971 3686 2054 3680 2176 3674 
C 2118 3642 2086 3622 2003 3578 
C 2125 3450 2195 3354 2298 3187 
C 2573 3354 2746 3482 2989 3680 
L 2989 3347 
z
M 3546 3782 
C 3354 3782 3251 3782 3110 3795 
C 3494 4134 3725 4410 4026 4883 
C 4397 4371 4602 4160 5069 3795 
C 4934 3782 4826 3782 4621 3782 
L 3546 3782 
z
M 3808 2451 
C 3789 2093 3770 1920 3731 1677 
L 2899 1677 
L 2899 2451 
L 3808 2451 
z
M 5254 2451 
L 5254 1677 
L 4173 1677 
C 4218 1939 4224 2074 4243 2451 
L 5254 2451 
z
" transform="scale(0.015625)"/>
      <path id="HiraginoSans-W4-7d22" d="M 595 1184 
C 749 1203 851 1210 1101 1210 
C 1421 1216 2413 1248 2912 1274 
L 2912 109 
C 2912 -192 2906 -326 2874 -493 
L 3450 -493 
C 3418 -326 3405 -166 3405 109 
L 3405 1299 
C 4134 1331 4134 1331 5190 1414 
C 5318 1261 5395 1165 5606 896 
L 5984 1216 
C 5594 1683 5210 2061 4710 2483 
L 4352 2234 
C 4608 2016 4704 1926 4851 1779 
C 3846 1715 3821 1715 3066 1696 
C 3398 1920 3904 2362 4275 2746 
C 4358 2829 4410 2886 4486 2950 
L 3987 3187 
C 3821 2906 3520 2586 3040 2176 
C 2778 2374 2778 2381 2528 2554 
C 2822 2835 3027 3059 3302 3411 
L 5370 3411 
L 5370 2586 
L 5888 2586 
C 5869 2701 5862 2829 5862 3014 
L 5862 3469 
C 5862 3654 5869 3725 5888 3859 
C 5683 3840 5523 3834 5229 3834 
L 3386 3834 
L 3386 4390 
L 5235 4390 
C 5549 4390 5786 4378 5965 4358 
L 5965 4858 
C 5798 4832 5562 4819 5229 4819 
L 3386 4819 
L 3386 4909 
C 3386 5062 3398 5190 3430 5344 
L 2867 5344 
C 2899 5197 2912 5050 2912 4909 
L 2912 4819 
L 1197 4819 
C 864 4819 634 4832 467 4858 
L 467 4358 
C 653 4384 851 4390 1190 4390 
L 2912 4390 
L 2912 3834 
L 1178 3834 
C 922 3834 730 3840 531 3859 
C 550 3718 557 3635 557 3437 
L 557 3008 
C 557 2848 550 2733 531 2592 
L 1043 2592 
L 1043 3411 
L 2726 3411 
C 2566 3181 2458 3059 2176 2797 
C 2022 2893 1939 2944 1696 3091 
L 1395 2752 
C 1869 2470 2202 2253 2490 2035 
C 2618 1939 2618 1939 2682 1888 
C 2611 1830 2611 1830 2394 1677 
C 2144 1670 1741 1664 1376 1664 
C 954 1664 698 1677 518 1702 
L 595 1184 
z
M 1971 1069 
C 1754 813 1619 691 1338 506 
C 1050 326 832 224 461 96 
C 614 -26 717 -128 838 -314 
C 1542 26 1920 294 2394 806 
L 1971 1069 
z
M 3930 832 
C 4576 269 4960 13 5606 -288 
C 5722 -102 5792 -19 5946 141 
C 5248 410 4832 659 4288 1139 
L 3930 832 
z
" transform="scale(0.015625)"/>
     </defs>
     <use xlink:href="#HiraginoSans-W4-4d"/>
     <use xlink:href="#HiraginoSans-W4-61" transform="translate(95.699982 0)"/>
     <use xlink:href="#HiraginoSans-W4-74" transform="translate(154.899979 0)"/>
     <use xlink:href="#HiraginoSans-W4-68" transform="translate(195.399963 0)"/>
     <use xlink:href="#HiraginoSans-W4-6c" transform="translate(258.699951 0)"/>
     <use xlink:href="#HiraginoSans-W4-69" transform="translate(282.999939 0)"/>
     <use xlink:href="#HiraginoSans-W4-62" transform="translate(307.799927 0)"/>
     <use xlink:href="#HiraginoSans-W4-34" transform="translate(374.099915 0)"/>
     <use xlink:href="#HiraginoSans-W4-44" transform="translate(441.599899 0)"/>
     <use xlink:href="#HiraginoSans-W4-6f" transform="translate(518.69989 0)"/>
     <use xlink:href="#HiraginoSans-W4-63" transform="translate(582.499878 0)"/>
     <use xlink:href="#HiraginoSans-W4-73" transform="translate(641.599869 0)"/>
     <use xlink:href="#HiraginoSans-W4-20" transform="translate(696.899857 0)"/>
     <use xlink:href="#HiraginoSans-W4-2f" transform="translate(730.199844 0)"/>
     <use xlink:href="#HiraginoSans-W4-20" transform="translate(778.899841 0)"/>
     <use xlink:href="#HiraginoSans-W4-4c" transform="translate(812.199829 0)"/>
     <use xlink:href="#HiraginoSans-W4-6f" transform="translate(873.499817 0)"/>
     <use xlink:href="#HiraginoSans-W4-6f" transform="translate(937.299805 0)"/>
     <use xlink:href="#HiraginoSans-W4-67" transform="translate(1001.099792 0)"/>
     <use xlink:href="#HiraginoSans-W4-6c" transform="translate(1066.39978 0)"/>
     <use xlink:href="#HiraginoSans-W4-65" transform="translate(1090.699768 0)"/>
     <use xlink:href="#HiraginoSans-W4-20" transform="translate(1150.899765 0)"/>
     <use xlink:href="#HiraginoSans-W4-3067" transform="translate(1184.199753 0)"/>
     <use xlink:href="#HiraginoSans-W4-691c" transform="translate(1284.199738 0)"/>
     <use xlink:href="#HiraginoSans-W4-7d22" transform="translate(1384.199722 0)"/>
    </g>
   </g>
   <g id="text_16">
    <!-- 見つかった？ -->
    <g style="fill: #1e293b" transform="translate(232.8 436.493234) scale(0.085 -0.085)">
     <use xlink:href="#HiraginoSans-W4-898b"/>
     <use xlink:href="#HiraginoSans-W4-3064" transform="translate(99.999985 0)"/>
     <use xlink:href="#HiraginoSans-W4-304b" transform="translate(199.999969 0)"/>
     <use xlink:href="#HiraginoSans-W4-3063" transform="translate(299.999954 0)"/>
     <use xlink:href="#HiraginoSans-W4-305f" transform="translate(399.999939 0)"/>
     <use xlink:href="#HiraginoSans-W4-ff1f" transform="translate(499.999924 0)"/>
    </g>
   </g>
   <g id="text_17">
    <!-- #check で型確認 -->
    <g style="fill: #1e293b" transform="translate(378.446484 436.634719) scale(0.09 -0.09)">
     <defs>
      <path id="HiraginoSans-W4-23" d="M 1651 4934 
L 1427 3552 
L 576 3552 
L 576 3104 
L 1357 3104 
L 1178 1971 
L 326 1971 
L 326 1523 
L 1107 1523 
L 864 0 
L 1350 0 
L 1594 1523 
L 2419 1523 
L 2176 0 
L 2669 0 
L 2912 1523 
L 3738 1523 
L 3738 1971 
L 2982 1971 
L 3162 3104 
L 3987 3104 
L 3987 3552 
L 3232 3552 
L 3450 4934 
L 2963 4934 
L 2739 3552 
L 1920 3552 
L 2138 4934 
L 1651 4934 
z
M 1843 3104 
L 2669 3104 
L 2496 1971 
L 1670 1971 
L 1843 3104 
z
" transform="scale(0.015625)"/>
      <path id="HiraginoSans-W4-6b" d="M 442 4934 
C 474 4698 486 4518 486 4179 
L 486 755 
C 486 429 474 224 442 0 
L 1101 0 
C 1069 224 1056 442 1056 742 
L 1056 1254 
L 1600 1766 
L 2400 640 
C 2669 269 2733 166 2810 0 
L 3654 0 
C 3507 147 3482 179 3091 691 
L 2010 2112 
L 2906 2957 
C 2912 2963 2957 3008 3021 3066 
C 3110 3155 3187 3226 3251 3283 
C 3424 3437 3424 3437 3514 3520 
L 2624 3520 
C 2534 3373 2426 3258 2157 2995 
L 1056 1926 
L 1056 4179 
C 1056 4518 1069 4704 1101 4934 
L 442 4934 
z
" transform="scale(0.015625)"/>
      <path id="HiraginoSans-W4-578b" d="M 1229 4672 
C 1222 4218 1222 3936 1216 3834 
L 992 3834 
C 717 3834 544 3840 378 3866 
L 378 3373 
C 538 3398 717 3405 979 3405 
L 1178 3405 
C 1139 3104 1094 2944 1011 2758 
C 877 2477 742 2317 384 2042 
C 550 1933 640 1843 755 1683 
C 1331 2170 1555 2611 1638 3405 
L 2490 3405 
L 2490 2560 
C 2490 2298 2477 2093 2451 1933 
L 2912 1933 
C 2918 1837 2925 1734 2925 1581 
L 2925 1434 
L 1651 1434 
C 1306 1434 1146 1440 979 1466 
L 979 966 
C 1178 992 1382 998 1690 998 
L 2925 998 
L 2925 205 
L 1126 205 
C 794 205 563 218 410 237 
L 410 -282 
C 614 -256 864 -243 1152 -243 
L 5293 -243 
C 5587 -243 5837 -256 6042 -282 
L 6042 237 
C 5875 211 5670 205 5318 205 
L 3405 205 
L 3405 998 
L 4774 998 
C 5082 998 5286 992 5485 966 
L 5485 1472 
C 5312 1446 5120 1434 4768 1434 
L 3405 1434 
L 3405 1581 
C 3405 1805 3411 1914 3437 2042 
L 2970 2042 
C 2957 2208 2950 2323 2950 2554 
L 2950 3405 
L 3149 3405 
C 3418 3405 3571 3398 3744 3373 
L 3744 3866 
C 3584 3840 3437 3834 3136 3834 
L 2950 3834 
L 2950 4672 
L 3027 4672 
C 3290 4672 3450 4666 3603 4646 
L 3603 5126 
C 3437 5101 3264 5094 2970 5094 
L 1184 5094 
C 909 5094 730 5101 544 5126 
L 544 4646 
C 698 4666 864 4672 1133 4672 
L 1229 4672 
z
M 2490 4672 
L 2490 3834 
L 1670 3834 
C 1683 4058 1683 4070 1683 4371 
C 1683 4435 1683 4544 1690 4672 
L 2490 4672 
z
M 4512 2797 
C 4493 2931 4486 3072 4486 3328 
L 4486 4480 
C 4486 4736 4493 4890 4518 5024 
L 3981 5024 
C 4000 4883 4013 4704 4013 4461 
L 4013 3360 
C 4013 3117 4000 2938 3981 2797 
L 4512 2797 
z
M 5805 4666 
C 5805 4960 5818 5158 5843 5293 
L 5286 5293 
C 5318 5114 5325 4966 5325 4691 
L 5325 2490 
C 5325 2368 5293 2342 5101 2342 
C 4845 2342 4621 2362 4339 2400 
C 4416 2240 4442 2131 4474 1901 
C 4710 1882 4902 1875 5094 1875 
C 5658 1875 5805 1990 5805 2413 
L 5805 4666 
z
" transform="scale(0.015625)"/>
      <path id="HiraginoSans-W4-78ba" d="M 2234 2355 
C 2342 2234 2419 2125 2496 1958 
C 2682 2150 2784 2278 2886 2438 
C 2880 2400 2874 2208 2867 1856 
L 2867 160 
C 2867 -154 2854 -320 2822 -518 
L 3302 -518 
L 3302 -211 
L 5402 -211 
C 5619 -211 5792 -224 6010 -250 
L 6010 230 
C 5830 205 5690 198 5402 198 
L 4659 198 
L 4659 870 
L 5229 870 
C 5440 870 5568 864 5786 838 
L 5786 1293 
C 5619 1267 5491 1261 5216 1261 
L 4659 1261 
L 4659 1888 
L 5229 1888 
C 5434 1888 5581 1882 5786 1856 
L 5786 2310 
C 5632 2285 5498 2278 5216 2278 
L 4659 2278 
L 4659 2912 
L 5325 2912 
C 5517 2912 5664 2906 5875 2886 
L 5875 3341 
C 5702 3315 5587 3309 5312 3309 
L 4774 3309 
C 4845 3437 4915 3603 4992 3808 
C 5005 3834 5018 3872 5037 3923 
L 4582 4026 
C 4525 3776 4435 3539 4320 3309 
L 3533 3309 
C 3757 3674 3872 3898 4026 4275 
L 5562 4275 
L 5562 3597 
L 6048 3597 
C 6029 3718 6022 3814 6022 3968 
L 6022 4301 
C 6022 4499 6029 4621 6042 4736 
C 5862 4710 5677 4704 5421 4704 
L 4179 4704 
C 4211 4794 4275 4998 4378 5318 
L 3878 5395 
C 3840 5165 3789 4960 3712 4704 
L 3002 4704 
C 2650 4704 2592 4704 2470 4723 
C 2477 4576 2483 4467 2483 4397 
L 2483 3968 
C 2483 3814 2477 3686 2458 3578 
L 2918 3578 
L 2918 4275 
L 3558 4275 
C 3373 3821 3226 3558 2963 3187 
C 2720 2835 2573 2669 2234 2368 
L 2234 2598 
C 2234 2816 2240 2957 2253 3104 
C 2131 3085 2022 3078 1862 3078 
L 1178 3078 
C 1389 3674 1485 4045 1587 4653 
L 1926 4653 
C 2099 4653 2189 4646 2368 4627 
L 2368 5120 
C 2182 5088 2042 5082 1805 5082 
L 966 5082 
C 723 5082 550 5094 378 5120 
L 378 4614 
C 557 4646 685 4653 928 4653 
L 1126 4653 
C 1062 4198 1005 3930 896 3571 
C 698 2950 474 2515 128 2080 
C 237 1926 269 1869 371 1613 
C 531 1830 627 1997 781 2342 
C 762 2138 749 1805 749 1709 
L 749 282 
C 749 13 736 -166 710 -339 
L 1190 -339 
L 1190 307 
L 1811 307 
L 1811 -45 
L 2253 -45 
C 2240 102 2234 230 2234 480 
L 2234 2355 
z
M 3302 2278 
L 3302 2912 
L 4237 2912 
L 4237 2278 
L 3302 2278 
z
M 3302 1888 
L 4237 1888 
L 4237 1261 
L 3302 1261 
L 3302 1888 
z
M 3302 870 
L 4237 870 
L 4237 198 
L 3302 198 
L 3302 870 
z
M 1190 2656 
L 1811 2656 
L 1811 736 
L 1190 736 
L 1190 2656 
z
" transform="scale(0.015625)"/>
      <path id="HiraginoSans-W4-8a8d" d="M 2746 3930 
C 3149 3782 3315 3718 3571 3597 
C 3334 3136 2989 2816 2400 2515 
C 2541 2400 2618 2310 2726 2150 
C 3341 2534 3686 2886 3962 3398 
C 4173 3283 4269 3219 4538 3034 
L 4781 3405 
C 4467 3597 4346 3661 4122 3776 
C 4218 4051 4250 4192 4307 4602 
L 5382 4602 
C 5357 3930 5318 3546 5242 3194 
C 5184 2918 5114 2854 4883 2854 
C 4698 2854 4499 2880 4307 2925 
C 4378 2739 4403 2643 4422 2451 
C 4570 2438 4774 2426 4928 2426 
C 5357 2426 5504 2502 5613 2778 
C 5709 3034 5805 3706 5843 4371 
C 5875 4960 5875 4960 5888 5050 
C 5722 5030 5549 5024 5286 5024 
L 3309 5024 
C 3034 5024 2810 5037 2650 5062 
L 2650 4563 
C 2816 4595 2989 4602 3302 4602 
L 3853 4602 
C 3808 4275 3789 4173 3725 3968 
C 3482 4070 3334 4128 2957 4262 
L 2746 3930 
z
M 531 4634 
C 672 4653 800 4659 1011 4659 
L 1843 4659 
C 2048 4659 2163 4653 2323 4634 
L 2323 5107 
C 2176 5082 2074 5075 1843 5075 
L 1011 5075 
C 774 5075 678 5082 531 5107 
L 531 4634 
z
M 307 3738 
C 467 3757 595 3763 819 3763 
L 2003 3763 
C 2214 3763 2323 3757 2470 3744 
L 2470 4224 
C 2330 4198 2234 4192 1958 4192 
L 819 4192 
C 576 4192 442 4198 307 4224 
L 307 3738 
z
M 557 2848 
C 672 2867 787 2874 986 2874 
L 1894 2874 
C 2080 2874 2170 2867 2310 2848 
L 2310 3309 
C 2202 3290 2099 3283 1894 3283 
L 986 3283 
C 774 3283 678 3290 557 3309 
L 557 2848 
z
M 557 1958 
C 691 1978 774 1984 979 1984 
L 1888 1984 
C 2080 1984 2182 1978 2310 1958 
L 2310 2413 
C 2202 2400 2099 2394 1894 2394 
L 986 2394 
C 774 2394 685 2400 557 2413 
L 557 1958 
z
M 1024 -486 
L 1024 -141 
L 1850 -141 
L 1850 -403 
L 2298 -403 
C 2278 -275 2272 -115 2272 115 
L 2272 1056 
C 2272 1286 2278 1440 2291 1542 
C 2189 1530 2067 1523 1830 1523 
L 1082 1523 
C 832 1523 710 1530 563 1549 
C 582 1363 589 1248 589 1030 
L 589 134 
C 589 -83 576 -282 557 -486 
L 1024 -486 
z
M 1018 1139 
L 1850 1139 
L 1850 256 
L 1018 256 
L 1018 1139 
z
M 2765 1664 
C 2714 1037 2618 704 2349 186 
L 2758 -32 
C 3014 570 3085 845 3181 1574 
L 2765 1664 
z
M 3872 1293 
C 3872 1517 3878 1626 3904 1760 
L 3386 1760 
C 3411 1600 3424 1446 3424 1254 
L 3424 58 
C 3424 -294 3571 -365 4294 -365 
C 4934 -365 5146 -307 5254 -109 
C 5350 51 5395 307 5440 800 
C 5267 832 5171 870 5011 947 
C 4998 742 4986 563 4966 422 
C 4928 166 4883 109 4704 77 
C 4646 70 4352 58 4224 58 
C 3930 58 3872 83 3872 224 
L 3872 1293 
z
M 5197 1542 
C 5542 1062 5696 755 5933 109 
L 6330 358 
C 6054 998 5920 1242 5568 1747 
L 5197 1542 
z
M 3603 2291 
C 4070 1990 4288 1792 4602 1395 
L 4947 1702 
C 4570 2093 4403 2234 3923 2554 
L 3603 2291 
z
" transform="scale(0.015625)"/>
     </defs>
     <use xlink:href="#HiraginoSans-W4-23"/>
     <use xlink:href="#HiraginoSans-W4-63" transform="translate(67.499985 0)"/>
     <use xlink:href="#HiraginoSans-W4-68" transform="translate(126.599976 0)"/>
     <use xlink:href="#HiraginoSans-W4-65" transform="translate(189.899963 0)"/>
     <use xlink:href="#HiraginoSans-W4-63" transform="translate(250.09996 0)"/>
     <use xlink:href="#HiraginoSans-W4-6b" transform="translate(309.199951 0)"/>
     <use xlink:href="#HiraginoSans-W4-20" transform="translate(368.799942 0)"/>
     <use xlink:href="#HiraginoSans-W4-3067" transform="translate(402.09993 0)"/>
     <use xlink:href="#HiraginoSans-W4-578b" transform="translate(502.099915 0)"/>
     <use xlink:href="#HiraginoSans-W4-78ba" transform="translate(602.099899 0)"/>
     <use xlink:href="#HiraginoSans-W4-8a8d" transform="translate(702.099884 0)"/>
    </g>
   </g>
   <g id="text_18">
    <!-- 完了 ✓ -->
    <g style="fill: #059669" transform="translate(400.270781 493.814559) scale(0.09 -0.09)">
     <use xlink:href="#HiraginoSans-W7-5b8c"/>
     <use xlink:href="#HiraginoSans-W7-4e86" transform="translate(99.999985 0)"/>
     <use xlink:href="#HiraginoSans-W7-20" transform="translate(199.999969 0)"/>
     <use xlink:href="#DejaVuSans-Bold-2713" transform="translate(233.299957 0)"/>
    </g>
   </g>
   <g id="text_19">
    <!-- Claude に 3点セットで質問 -->
    <g style="fill: #7c3aed" transform="translate(198.554063 510.169359) scale(0.09 -0.09)">
     <defs>
      <path id="HiraginoSans-W7-43" d="M 4928 3578 
C 4838 3923 4742 4128 4557 4371 
C 4154 4902 3533 5178 2733 5178 
C 2042 5178 1472 4973 1056 4576 
C 538 4077 262 3347 262 2477 
C 262 1632 518 896 986 416 
C 1402 -13 2022 -243 2752 -243 
C 3514 -243 4134 0 4512 454 
C 4742 730 4864 998 4992 1510 
L 3878 1690 
C 3834 1408 3782 1274 3680 1120 
C 3482 838 3149 685 2746 685 
C 1888 685 1370 1363 1370 2483 
C 1370 3098 1530 3590 1824 3898 
C 2048 4134 2362 4256 2726 4256 
C 3123 4256 3430 4115 3622 3834 
C 3718 3699 3770 3578 3834 3347 
L 4928 3578 
z
" transform="scale(0.015625)"/>
      <path id="HiraginoSans-W7-75" d="M 3008 3654 
C 3046 3341 3059 3104 3059 2758 
L 3059 1459 
C 2790 986 2381 678 2010 678 
C 1856 678 1728 717 1632 787 
C 1478 902 1427 1050 1427 1389 
L 1427 2758 
C 1427 3117 1440 3354 1478 3654 
L 358 3654 
C 397 3392 410 3149 410 2758 
L 410 1146 
C 410 698 525 371 755 134 
C 986 -96 1325 -218 1734 -218 
C 2278 -218 2682 -38 3072 378 
C 3066 256 3059 173 3059 122 
L 3059 -134 
L 4122 -134 
C 4083 109 4070 352 4070 762 
L 4070 2758 
C 4070 3130 4083 3366 4122 3654 
L 3008 3654 
z
" transform="scale(0.015625)"/>
      <path id="HiraginoSans-W7-64" d="M 3296 -134 
L 4339 -134 
C 4301 173 4288 390 4288 800 
L 4288 4147 
C 4288 4518 4301 4774 4339 5069 
L 3245 5069 
C 3283 4794 3296 4557 3296 4141 
L 3296 3597 
C 3296 3475 3296 3398 3302 3309 
L 3309 3219 
C 3168 3373 3091 3437 2925 3526 
C 2643 3680 2349 3750 2003 3750 
C 902 3750 211 2989 211 1766 
C 211 1114 403 576 768 211 
C 1075 -90 1485 -237 2003 -237 
C 2586 -237 2963 -83 3309 294 
C 3302 192 3296 173 3296 102 
L 3296 -134 
z
M 3277 1773 
C 3277 1402 3142 1050 2918 845 
C 2746 691 2464 589 2202 589 
C 1971 589 1722 685 1562 838 
C 1350 1037 1235 1370 1235 1760 
C 1235 2458 1613 2931 2176 2931 
C 2835 2931 3277 2470 3277 1773 
z
" transform="scale(0.015625)"/>
      <path id="HiraginoSans-W7-65" d="M 4032 1485 
C 4019 1606 4019 1613 4019 1638 
C 3994 2118 3962 2323 3846 2637 
C 3571 3373 2963 3782 2125 3782 
C 973 3782 211 2976 211 1760 
C 211 1139 410 595 774 237 
C 1107 -96 1587 -269 2163 -269 
C 2746 -269 3232 -90 3571 250 
C 3744 416 3840 563 3981 870 
L 3053 1146 
C 2918 755 2611 544 2163 544 
C 1856 544 1606 653 1434 864 
C 1306 1024 1248 1184 1216 1485 
L 4032 1485 
z
M 1235 2227 
C 1357 2726 1664 2982 2138 2982 
C 2432 2982 2675 2874 2829 2675 
C 2925 2547 2970 2432 3008 2227 
L 1235 2227 
z
" transform="scale(0.015625)"/>
      <path id="HiraginoSans-W7-306b" d="M 992 5158 
C 973 4973 966 4915 890 4518 
C 717 3584 640 2810 640 2016 
C 640 1395 685 877 806 64 
C 826 -83 832 -134 838 -250 
L 1766 -205 
C 1760 -115 1760 -83 1760 -19 
C 1760 486 1946 1165 2285 1907 
L 1722 2138 
L 1600 1830 
C 1568 1754 1568 1754 1485 1504 
C 1504 2861 1709 4301 1990 5062 
L 992 5158 
z
M 2573 3610 
C 2669 3603 2720 3603 2752 3597 
C 3149 3558 3379 3546 3782 3546 
C 4314 3546 4954 3590 5478 3661 
C 5549 3667 5555 3667 5613 3667 
L 5568 4595 
C 5158 4486 4518 4422 3814 4422 
C 3232 4422 2899 4448 2586 4531 
L 2573 3610 
z
M 2995 2656 
C 2598 2150 2400 1690 2400 1286 
C 2400 1050 2470 806 2592 634 
C 2880 230 3411 38 4224 38 
C 4666 38 5005 70 5568 160 
C 5709 179 5747 186 5850 198 
L 5786 1165 
C 5344 1005 4787 915 4230 915 
C 3642 915 3315 1094 3315 1414 
C 3315 1651 3462 1939 3763 2317 
L 2995 2656 
z
" transform="scale(0.015625)"/>
      <path id="HiraginoSans-W7-33" d="M 243 1158 
C 352 787 435 602 614 390 
C 979 -38 1568 -256 2349 -256 
C 3091 -256 3667 -70 4032 288 
C 4275 525 4422 877 4422 1229 
C 4422 1600 4326 1875 4122 2112 
C 3904 2349 3661 2470 3219 2554 
C 3654 2682 3821 2771 3994 2976 
C 4179 3187 4275 3475 4275 3808 
C 4275 4134 4141 4454 3917 4678 
C 3584 5011 3053 5190 2400 5190 
C 1715 5190 1190 5005 826 4640 
C 608 4422 506 4230 378 3840 
L 1517 3661 
C 1568 3840 1600 3917 1677 4013 
C 1818 4192 2054 4294 2349 4294 
C 2880 4294 3149 4090 3149 3674 
C 3149 3430 3046 3245 2854 3123 
C 2707 3027 2464 2976 2150 2976 
C 1952 2976 1734 2989 1542 3014 
L 1542 2074 
C 1779 2099 1997 2106 2317 2106 
C 2957 2106 3283 1856 3283 1376 
C 3283 922 2925 634 2362 634 
C 2054 634 1792 723 1606 902 
C 1472 1024 1421 1126 1370 1363 
L 243 1158 
z
" transform="scale(0.015625)"/>
      <path id="HiraginoSans-W7-70b9" d="M 3520 4064 
L 5197 4064 
C 5478 4064 5683 4051 5907 4026 
L 5907 4845 
C 5709 4819 5504 4806 5197 4806 
L 3520 4806 
L 3520 4858 
C 3520 5107 3533 5248 3558 5402 
L 2618 5402 
C 2643 5222 2656 5030 2656 4781 
L 2656 3533 
L 1670 3533 
C 1344 3533 1133 3539 941 3558 
C 960 3373 966 3238 966 3008 
L 966 1722 
C 966 1523 960 1389 947 1229 
C 1120 1242 1293 1248 1530 1248 
L 4845 1248 
C 5082 1248 5254 1242 5440 1229 
C 5427 1363 5421 1510 5421 1734 
L 5421 3008 
C 5421 3238 5427 3398 5446 3558 
C 5280 3539 5069 3533 4717 3533 
L 3520 3533 
L 3520 4064 
z
M 4595 2790 
L 4595 1997 
L 1798 1997 
L 1798 2790 
L 4595 2790 
z
M 947 -563 
C 1318 -32 1434 211 1658 941 
L 909 1190 
C 742 627 563 288 192 -154 
L 947 -563 
z
M 2912 -461 
C 2893 122 2880 275 2758 998 
L 2016 922 
C 2067 493 2093 160 2093 -218 
C 2093 -352 2093 -378 2086 -557 
L 2912 -461 
z
M 4474 -333 
C 4326 198 4224 525 4000 1075 
L 3290 915 
C 3469 403 3571 -6 3674 -570 
L 4474 -333 
z
M 6112 -186 
C 5779 499 5670 691 5344 1203 
L 4627 928 
C 4947 390 5062 147 5306 -544 
L 6112 -186 
z
" transform="scale(0.015625)"/>
      <path id="HiraginoSans-W7-30bb" d="M 1722 3699 
L 1190 3642 
C 890 3610 672 3590 544 3590 
C 506 3590 435 3590 352 3597 
L 448 2656 
C 723 2720 749 2726 1286 2790 
L 1722 2848 
L 1722 1414 
C 1722 858 1728 755 1786 550 
C 1862 275 2093 38 2362 -45 
C 2598 -122 3008 -160 3539 -160 
C 3891 -160 4346 -134 4870 -83 
C 5440 -26 5440 -26 5581 -26 
L 5542 992 
C 5229 896 5037 858 4685 806 
C 4346 762 3853 730 3552 730 
C 3334 730 3136 742 2989 768 
C 2810 800 2726 877 2701 1030 
C 2682 1133 2682 1133 2675 1549 
L 2675 2950 
L 4672 3206 
C 4506 2912 4390 2765 4173 2560 
C 3936 2336 3738 2189 3443 2022 
C 3789 1818 3904 1728 4211 1395 
C 4672 1754 4883 1952 5114 2234 
C 5382 2573 5600 2918 5798 3341 
C 5894 3546 5907 3565 5990 3667 
L 5440 4173 
C 5306 4109 5254 4096 4966 4064 
L 2682 3802 
L 2682 4422 
C 2682 4781 2694 4947 2726 5146 
L 1677 5146 
C 1715 4915 1722 4768 1722 4403 
L 1722 3699 
z
" transform="scale(0.015625)"/>
      <path id="HiraginoSans-W7-30c3" d="M 941 3526 
C 1222 2957 1344 2624 1517 1926 
L 2374 2189 
C 2150 2912 2022 3232 1741 3757 
L 941 3526 
z
M 2336 3802 
C 2586 3302 2790 2752 2912 2246 
L 3750 2502 
C 3590 3085 3469 3373 3130 4019 
L 2336 3802 
z
M 4538 3891 
C 4531 3680 4499 3469 4422 3155 
C 4160 2131 3738 1472 2995 934 
C 2630 678 2355 531 1869 346 
C 2189 38 2278 -77 2477 -416 
C 3488 96 4058 550 4512 1203 
C 4890 1754 5165 2458 5350 3322 
C 5402 3552 5408 3571 5446 3680 
L 4538 3891 
z
" transform="scale(0.015625)"/>
      <path id="HiraginoSans-W7-3067" d="M 5434 2598 
C 5261 2976 5120 3194 4896 3462 
L 4352 3219 
C 4576 2925 4723 2688 4883 2330 
L 5434 2598 
z
M 6176 2950 
C 5971 3354 5882 3494 5645 3770 
L 5114 3539 
C 5331 3258 5472 3021 5632 2682 
L 6176 2950 
z
M 474 3571 
C 717 3616 1062 3661 1414 3686 
C 2842 3795 2867 3802 3507 3872 
C 2618 3360 2157 2656 2157 1792 
C 2157 1062 2502 506 3168 160 
C 3552 -45 4000 -154 4717 -237 
C 4832 -250 4858 -250 4941 -269 
L 5075 768 
C 4998 762 4954 762 4915 762 
C 4678 762 4262 826 3968 909 
C 3430 1062 3136 1408 3136 1882 
C 3136 2464 3571 3059 4294 3469 
C 4723 3712 5242 3859 5658 3859 
C 5715 3859 5734 3859 5811 3853 
L 5760 4832 
C 5645 4806 5606 4800 5043 4774 
C 3283 4698 2182 4646 1741 4614 
C 832 4557 794 4557 672 4557 
C 646 4557 570 4557 422 4563 
L 474 3571 
z
" transform="scale(0.015625)"/>
      <path id="HiraginoSans-W7-8cea" d="M 4083 4506 
L 4096 4678 
C 4762 4704 4762 4704 5939 4877 
L 5466 5504 
C 5158 5408 4915 5357 4570 5312 
C 4314 5280 3712 5242 3494 5242 
C 3430 5242 3386 5242 3290 5254 
C 3302 5158 3309 5107 3309 5011 
C 3309 4710 3270 4422 3206 4179 
C 3142 3923 3072 3789 2918 3610 
C 3130 3494 3206 3456 3315 3379 
L 2515 3379 
L 2515 3853 
L 2630 3853 
C 2803 3853 2931 3846 3066 3827 
L 3066 4538 
C 2931 4518 2810 4512 2611 4512 
L 1408 4512 
C 1408 4570 1414 4595 1414 4678 
C 2259 4717 2515 4749 3136 4890 
L 2688 5517 
C 2432 5421 2266 5376 1990 5338 
C 1683 5286 1107 5242 838 5242 
C 794 5242 774 5242 602 5248 
C 608 5171 621 5024 621 4973 
C 621 4128 493 3680 134 3315 
C 410 3123 544 2982 768 2656 
C 864 2778 902 2829 954 2912 
C 954 2816 954 2720 954 2560 
L 954 1248 
C 954 896 947 678 928 480 
C 1120 499 1312 506 1613 506 
L 1965 506 
C 1523 282 1120 192 224 128 
C 422 -160 499 -301 621 -627 
C 1536 -493 1926 -365 2778 70 
L 2189 506 
L 4160 506 
L 3584 109 
C 3962 -115 4147 -198 4467 -314 
C 4883 -461 5178 -531 5779 -627 
C 5939 -211 5984 -134 6157 128 
C 5325 186 4902 275 4378 506 
L 4800 506 
C 5114 506 5299 499 5478 480 
C 5459 621 5453 845 5453 1216 
L 5453 2560 
C 5453 3021 5459 3206 5478 3398 
C 5357 3392 5312 3386 5242 3386 
L 5242 3853 
L 5619 3853 
C 5811 3853 5939 3846 6099 3821 
L 6099 4531 
C 5952 4512 5811 4506 5613 4506 
L 4083 4506 
z
M 4467 3853 
L 4467 3379 
L 3789 3379 
C 3859 3520 3917 3661 3974 3853 
L 4467 3853 
z
M 1754 3379 
L 1574 3379 
C 1517 3379 1382 3379 1184 3386 
C 1254 3584 1286 3686 1325 3853 
L 1754 3853 
L 1754 3379 
z
M 1766 2784 
L 4640 2784 
L 4640 2541 
L 1766 2541 
L 1766 2784 
z
M 1766 2067 
L 4640 2067 
L 4640 1824 
L 1766 1824 
L 1766 2067 
z
M 1766 1344 
L 4640 1344 
L 4640 1107 
L 1766 1107 
L 1766 1344 
z
" transform="scale(0.015625)"/>
      <path id="HiraginoSans-W7-554f" d="M 1286 2963 
L 2426 2963 
C 2618 2963 2803 2957 2982 2950 
C 2970 3085 2970 3200 2970 3520 
L 2970 4646 
C 2970 4896 2976 5030 2989 5242 
C 2822 5222 2675 5216 2336 5216 
L 1107 5216 
C 794 5216 646 5222 454 5242 
C 474 5037 480 4858 480 4512 
L 480 301 
C 480 -115 467 -326 442 -525 
L 1325 -525 
C 1299 -346 1286 -90 1286 294 
L 1286 2963 
z
M 1286 4621 
L 2221 4621 
L 2221 4339 
L 1286 4339 
L 1286 4621 
z
M 1286 3808 
L 2221 3808 
L 2221 3526 
L 1286 3526 
L 1286 3808 
z
M 5933 4525 
C 5933 4851 5939 5037 5958 5242 
C 5766 5222 5626 5216 5306 5216 
L 4006 5216 
C 3680 5216 3546 5222 3354 5242 
C 3366 5056 3373 4883 3373 4646 
L 3373 3520 
C 3373 3226 3373 3110 3360 2950 
C 3507 2957 3718 2963 3917 2963 
L 5126 2963 
L 5126 454 
C 5126 326 5094 301 4922 301 
C 4710 301 4410 320 4154 352 
C 4269 77 4307 -83 4358 -454 
C 4787 -474 4851 -474 4941 -474 
C 5760 -474 5933 -333 5933 333 
L 5933 4525 
z
M 4134 4621 
L 5126 4621 
L 5126 4339 
L 4134 4339 
L 4134 4621 
z
M 4134 3808 
L 5126 3808 
L 5126 3526 
L 4134 3526 
L 4134 3808 
z
M 4493 2125 
C 4493 2323 4499 2458 4512 2592 
C 4371 2579 4224 2573 4006 2573 
L 2362 2573 
C 2157 2573 2016 2579 1869 2592 
C 1882 2451 1888 2304 1888 2118 
L 1888 685 
C 1888 448 1875 256 1856 58 
L 2656 58 
L 2656 512 
L 4032 512 
C 4224 512 4352 506 4512 493 
C 4499 621 4493 755 4493 954 
L 4493 2125 
z
M 2656 1894 
L 3718 1894 
L 3718 1203 
L 2656 1203 
L 2656 1894 
z
" transform="scale(0.015625)"/>
     </defs>
     <use xlink:href="#HiraginoSans-W7-43"/>
     <use xlink:href="#HiraginoSans-W7-6c" transform="translate(81.699982 0)"/>
     <use xlink:href="#HiraginoSans-W7-61" transform="translate(110.799973 0)"/>
     <use xlink:href="#HiraginoSans-W7-75" transform="translate(177.199966 0)"/>
     <use xlink:href="#HiraginoSans-W7-64" transform="translate(247.399948 0)"/>
     <use xlink:href="#HiraginoSans-W7-65" transform="translate(320.899933 0)"/>
     <use xlink:href="#HiraginoSans-W7-20" transform="translate(386.999924 0)"/>
     <use xlink:href="#HiraginoSans-W7-306b" transform="translate(420.299911 0)"/>
     <use xlink:href="#HiraginoSans-W7-20" transform="translate(520.299896 0)"/>
     <use xlink:href="#HiraginoSans-W7-33" transform="translate(553.599884 0)"/>
     <use xlink:href="#HiraginoSans-W7-70b9" transform="translate(627.699875 0)"/>
     <use xlink:href="#HiraginoSans-W7-30bb" transform="translate(727.69986 0)"/>
     <use xlink:href="#HiraginoSans-W7-30c3" transform="translate(827.699844 0)"/>
     <use xlink:href="#HiraginoSans-W7-30c8" transform="translate(927.699829 0)"/>
     <use xlink:href="#HiraginoSans-W7-3067" transform="translate(1027.699814 0)"/>
     <use xlink:href="#HiraginoSans-W7-8cea" transform="translate(1127.699799 0)"/>
     <use xlink:href="#HiraginoSans-W7-554f" transform="translate(1227.699783 0)"/>
    </g>
   </g>
  </g>
 </g>
 <defs>
  <clipPath id="ped43609733">
   <rect x="7.2" y="7.2" width="502.2" height="554.4"/>
  </clipPath>
 </defs>
</svg>
