<?xml version="1.0" encoding="utf-8" standalone="no"?>
<!DOCTYPE svg PUBLIC "-//W3C//DTD SVG 1.1//EN"
  "http://www.w3.org/Graphics/SVG/1.1/DTD/svg11.dtd">
<svg xmlns:xlink="http://www.w3.org/1999/xlink" width="628.2pt" height="402.48pt" viewBox="0 0 628.2 402.48" xmlns="http://www.w3.org/2000/svg" version="1.1">
 <metadata>
  <rdf:RDF xmlns:dc="http://purl.org/dc/elements/1.1/" xmlns:cc="http://creativecommons.org/ns#" xmlns:rdf="http://www.w3.org/1999/02/22-rdf-syntax-ns#">
   <cc:Work>
    <dc:type rdf:resource="http://purl.org/dc/dcmitype/StillImage"/>
    <dc:date>2026-03-29T22:58:44.916124</dc:date>
    <dc:format>image/svg+xml</dc:format>
    <dc:creator>
     <cc:Agent>
      <dc:title>Matplotlib v3.10.8, https://matplotlib.org/</dc:title>
     </cc:Agent>
    </dc:creator>
   </cc:Work>
  </rdf:RDF>
 </metadata>
 <defs>
  <style type="text/css">*{stroke-linejoin: round; stroke-linecap: butt}</style>
 </defs>
 <g id="figure_1">
  <g id="patch_1">
   <path d="M 0 402.48 
L 628.2 402.48 
L 628.2 -0 
L 0 -0 
z
" style="fill: #ffffff"/>
  </g>
  <g id="axes_1">
   <g id="patch_2">
    <path d="M 20.592 153.476308 
L 607.608 153.476308 
Q 609.84 153.476308 609.84 151.088123 
L 609.84 105.115569 
Q 609.84 102.727385 607.608 102.727385 
L 20.592 102.727385 
Q 18.36 102.727385 18.36 105.115569 
L 18.36 151.088123 
Q 18.36 153.476308 20.592 153.476308 
z
" clip-path="url(#p8649ca9e38)" style="fill: #eff6ff; stroke: #cbd5e1; stroke-width: 0.8; stroke-linejoin: miter"/>
   </g>
   <g id="patch_3">
    <path d="M 20.592 213.180923 
L 607.608 213.180923 
Q 609.84 213.180923 609.84 210.792738 
L 609.84 164.820185 
Q 609.84 162.432 607.608 162.432 
L 20.592 162.432 
Q 18.36 162.432 18.36 164.820185 
L 18.36 210.792738 
Q 18.36 213.180923 20.592 213.180923 
z
" clip-path="url(#p8649ca9e38)" style="fill: #f0fdf4; stroke: #cbd5e1; stroke-width: 0.8; stroke-linejoin: miter"/>
   </g>
   <g id="patch_4">
    <path d="M 20.592 272.885538 
L 607.608 272.885538 
Q 609.84 272.885538 609.84 270.497354 
L 609.84 224.5248 
Q 609.84 222.136615 607.608 222.136615 
L 20.592 222.136615 
Q 18.36 222.136615 18.36 224.5248 
L 18.36 270.497354 
Q 18.36 272.885538 20.592 272.885538 
z
" clip-path="url(#p8649ca9e38)" style="fill: #fffbeb; stroke: #cbd5e1; stroke-width: 0.8; stroke-linejoin: miter"/>
   </g>
   <g id="patch_5">
    <path d="M 20.592 332.590154 
L 607.608 332.590154 
Q 609.84 332.590154 609.84 330.201969 
L 609.84 284.229415 
Q 609.84 281.841231 607.608 281.841231 
L 20.592 281.841231 
Q 18.36 281.841231 18.36 284.229415 
L 18.36 330.201969 
Q 18.36 332.590154 20.592 332.590154 
z
" clip-path="url(#p8649ca9e38)" style="fill: #f5f3ff; stroke: #cbd5e1; stroke-width: 0.8; stroke-linejoin: miter"/>
   </g>
   <g id="patch_6">
    <path d="M 20.592 392.294769 
L 607.608 392.294769 
Q 609.84 392.294769 609.84 389.906585 
L 609.84 343.934031 
Q 609.84 341.545846 607.608 341.545846 
L 20.592 341.545846 
Q 18.36 341.545846 18.36 343.934031 
L 18.36 389.906585 
Q 18.36 392.294769 20.592 392.294769 
z
" clip-path="url(#p8649ca9e38)" style="fill: #fff1f2; stroke: #cbd5e1; stroke-width: 0.8; stroke-linejoin: miter"/>
   </g>
   <g id="text_1">
    <!-- 線形写像の　数学 ↔ Lean 対比 -->
    <g style="fill: #1e293b" transform="translate(212.411875 35.162627) scale(0.14 -0.14)">
     <defs>
      <path id="HiraginoSans-W7-7dda" d="M 333 1978 
C 467 1997 525 2003 704 2016 
C 877 2022 922 2029 1184 2042 
L 1184 128 
C 1184 -166 1171 -333 1146 -563 
L 1939 -563 
C 1907 -365 1901 -230 1901 122 
L 1901 2099 
C 2048 2112 2106 2118 2125 2118 
C 2253 2138 2253 2138 2323 2144 
C 2342 2054 2342 2054 2362 1965 
L 2586 2061 
L 2586 1402 
C 2688 1414 2765 1421 2925 1421 
L 3181 1421 
C 3078 1152 2957 928 2797 736 
C 2662 576 2522 454 2221 237 
C 2464 6 2598 -154 2739 -378 
C 3104 -19 3149 26 3296 211 
C 3373 19 3424 -173 3456 -480 
C 3565 -486 3770 -493 3904 -493 
C 4493 -493 4723 -320 4730 122 
L 4730 512 
C 4730 621 4717 858 4685 1203 
C 5030 454 5280 122 5850 -358 
C 6016 0 6125 166 6330 403 
C 5978 627 5734 851 5421 1229 
C 5664 1414 5907 1645 6208 1958 
L 5670 2432 
C 5421 2125 5286 1984 5037 1786 
C 4902 2022 4838 2176 4736 2477 
L 5299 2477 
C 5498 2477 5722 2470 5907 2458 
C 5888 2624 5882 2784 5882 3085 
L 5882 4301 
C 5882 4608 5888 4755 5907 4954 
C 5747 4934 5613 4928 5286 4928 
L 4621 4928 
C 4704 5114 4723 5165 4800 5370 
L 3949 5478 
C 3904 5286 3872 5184 3776 4928 
L 3430 4928 
C 3123 4928 2976 4934 2810 4954 
C 2829 4768 2835 4538 2835 4314 
L 2835 3085 
C 2835 2886 2829 2650 2816 2509 
C 2733 2829 2669 3027 2509 3462 
L 1997 3277 
C 2080 3053 2093 3021 2163 2771 
C 1971 2752 1862 2746 1568 2733 
C 1850 3091 2182 3571 2458 4006 
C 2662 4339 2662 4339 2714 4416 
L 2074 4768 
C 1984 4531 1773 4141 1491 3699 
C 1376 3846 1376 3846 1293 3955 
C 1504 4269 1709 4634 1862 4947 
C 1933 5107 1965 5158 2003 5222 
L 1267 5478 
C 1210 5235 1043 4851 832 4493 
L 621 4717 
L 237 4051 
C 570 3731 768 3507 1082 3104 
C 966 2938 928 2886 787 2707 
C 659 2701 646 2701 602 2701 
C 448 2701 390 2707 262 2726 
L 333 1978 
z
M 2893 2195 
C 2861 2323 2861 2330 2829 2458 
C 3040 2470 3245 2477 3443 2477 
L 3968 2477 
L 3968 1837 
L 3744 2138 
C 3674 2131 3597 2125 3456 2125 
L 2950 2125 
C 2822 2125 2810 2125 2739 2131 
L 2893 2195 
z
M 3968 378 
C 3968 256 3930 224 3770 224 
C 3642 224 3507 237 3334 269 
C 3558 576 3693 864 3853 1357 
C 3917 1542 3917 1549 3968 1702 
L 3968 378 
z
M 3584 4320 
L 5126 4320 
L 5126 4019 
L 3584 4019 
L 3584 4320 
z
M 3584 3418 
L 5126 3418 
L 5126 3098 
L 3584 3098 
L 3584 3418 
z
M 461 1786 
C 422 838 384 512 237 58 
L 800 -275 
C 941 237 992 640 1037 1715 
L 461 1786 
z
M 2010 1722 
C 2086 1248 2125 870 2131 467 
L 2650 595 
C 2566 1306 2566 1306 2464 1824 
L 2010 1722 
z
" transform="scale(0.015625)"/>
      <path id="HiraginoSans-W7-5f62" d="M 5491 3757 
C 5210 3328 4518 2778 3808 2426 
L 3808 3238 
C 3654 3213 3526 3206 3238 3206 
L 3168 3206 
L 3168 4416 
C 3494 4416 3565 4410 3731 4390 
L 3731 5235 
C 3501 5210 3315 5197 3034 5197 
L 1043 5197 
C 794 5197 576 5210 352 5235 
L 352 4384 
C 518 4410 627 4416 934 4416 
L 934 3206 
L 832 3206 
C 570 3206 429 3213 262 3238 
L 262 2394 
C 429 2419 576 2426 838 2426 
L 922 2426 
C 896 1792 845 1459 736 1126 
C 608 723 448 454 134 77 
C 429 -122 576 -275 781 -570 
C 1178 -64 1395 339 1542 864 
C 1664 1280 1722 1709 1760 2426 
L 2336 2426 
L 2336 256 
C 2336 -128 2330 -275 2298 -518 
L 3206 -512 
C 3174 -288 3168 -122 3168 262 
L 3168 2426 
L 3232 2426 
C 3482 2426 3616 2419 3757 2400 
C 3642 2349 3590 2323 3430 2259 
C 3642 2022 3757 1830 3904 1491 
C 4218 1645 4531 1830 4838 2042 
C 5152 2259 5632 2662 5882 2925 
C 5990 3040 6048 3091 6150 3174 
L 5491 3757 
z
M 1766 4416 
L 2336 4416 
L 2336 3206 
L 1766 3206 
L 1766 4416 
z
M 5677 2022 
C 5280 1370 4256 589 3290 186 
C 3546 -77 3686 -282 3808 -550 
C 4672 -102 5414 467 6061 1171 
C 6170 1286 6170 1286 6323 1427 
L 5677 2022 
z
M 5235 5427 
C 4986 5030 4102 4403 3405 4122 
C 3597 3910 3750 3654 3872 3360 
C 4563 3699 5082 4070 5773 4710 
C 5869 4800 5882 4813 5946 4870 
L 5235 5427 
z
" transform="scale(0.015625)"/>
      <path id="HiraginoSans-W7-5199" d="M 4531 3270 
C 4845 3270 5024 3264 5210 3245 
L 5210 3686 
L 6035 3686 
C 6016 3866 6003 4026 6003 4256 
L 6003 4646 
C 6003 4858 6010 5011 6029 5190 
C 5843 5171 5696 5165 5389 5165 
L 1056 5165 
C 717 5165 563 5171 384 5190 
C 403 5018 410 4864 410 4627 
L 410 4205 
C 410 3949 403 3802 378 3616 
L 1216 3616 
L 1216 4422 
L 1856 4422 
C 1728 3731 1491 2944 1146 2112 
C 1363 2125 1664 2138 1875 2138 
L 4192 2138 
C 4173 1926 4166 1850 4154 1696 
L 1050 1696 
C 710 1696 493 1709 294 1734 
L 294 896 
C 499 922 730 934 1050 934 
L 4026 934 
C 3898 314 3846 262 3309 262 
C 3066 262 2893 275 2483 333 
L 2189 365 
C 2336 6 2381 -122 2432 -442 
C 2810 -474 3213 -493 3418 -493 
C 4058 -493 4352 -397 4538 -122 
C 4685 83 4794 422 4890 934 
L 5382 934 
C 5690 934 5914 922 6138 896 
L 6138 1734 
C 5933 1709 5728 1696 5382 1696 
L 4992 1696 
C 5005 1786 5005 1830 5011 1920 
C 5037 2176 5050 2342 5056 2394 
C 5062 2477 5069 2534 5069 2560 
C 5075 2733 5075 2733 5088 2810 
C 5094 2816 5094 2835 5101 2854 
C 4922 2835 4813 2829 4493 2829 
L 2246 2829 
C 2278 2899 2298 2963 2387 3270 
L 4531 3270 
z
M 2579 3981 
C 2637 4237 2675 4384 2682 4422 
L 5197 4422 
L 5197 4006 
C 5030 3987 4922 3981 4531 3981 
L 2579 3981 
z
" transform="scale(0.015625)"/>
      <path id="HiraginoSans-W7-50cf" d="M 1946 3091 
C 1946 2867 1939 2758 1926 2618 
C 2093 2630 2259 2637 2445 2637 
L 3078 2637 
C 2662 2426 2195 2278 1574 2170 
C 1741 1946 1786 1862 1901 1587 
C 2406 1728 2797 1875 3219 2099 
C 3302 2003 3322 1978 3373 1907 
C 2867 1613 2259 1382 1574 1216 
C 1741 1011 1805 896 1901 640 
C 2758 960 3136 1133 3635 1446 
C 3674 1350 3686 1312 3718 1210 
C 3085 787 2413 480 1562 230 
C 1754 -32 1824 -166 1901 -403 
C 2381 -218 2630 -102 2989 90 
C 3078 -109 3123 -294 3155 -538 
C 3437 -550 3462 -550 3526 -550 
C 3872 -550 4154 -499 4288 -410 
C 4480 -282 4582 19 4582 435 
C 4582 947 4448 1478 4205 1901 
C 4083 2112 3981 2253 3802 2445 
C 3930 2534 3968 2560 4077 2637 
L 4250 2637 
C 4403 1888 4576 1389 4826 915 
C 5101 403 5395 64 5926 -358 
C 6042 0 6138 192 6285 416 
C 5792 774 5536 1056 5306 1498 
C 5536 1658 5766 1837 6144 2163 
L 5555 2630 
C 5376 2419 5293 2342 5043 2138 
C 4979 2330 4960 2419 4915 2637 
L 5446 2637 
C 5709 2637 5818 2630 5958 2618 
C 5946 2765 5939 2886 5939 3149 
L 5939 3654 
C 5939 3885 5946 4032 5965 4179 
C 5811 4160 5683 4154 5446 4154 
L 4813 4154 
C 5011 4384 5011 4384 5139 4544 
C 5286 4742 5286 4742 5331 4781 
L 4966 5146 
C 4813 5126 4646 5120 4410 5120 
L 3680 5120 
C 3706 5165 3706 5165 3731 5203 
C 3770 5267 3782 5286 3827 5363 
L 2963 5466 
C 2854 5165 2643 4864 2304 4512 
C 2048 4256 1862 4102 1581 3930 
C 1594 3962 1600 3968 1632 4045 
C 1722 4230 1882 4653 2022 5062 
C 2035 5107 2048 5146 2048 5152 
C 2086 5242 2086 5242 2099 5280 
L 1222 5478 
C 1190 5254 1126 5011 998 4659 
C 762 4019 454 3488 77 3066 
C 218 2733 282 2515 378 2106 
C 512 2272 659 2477 762 2643 
C 749 2163 749 2067 749 1882 
L 749 198 
C 749 -115 742 -262 710 -550 
L 1587 -550 
C 1562 -275 1555 -109 1555 205 
L 1555 3846 
L 1574 3917 
C 1754 3738 1818 3661 1946 3475 
L 1946 3091 
z
M 2995 4154 
C 3091 4262 3136 4314 3258 4486 
L 4166 4486 
C 4045 4314 4006 4262 3904 4154 
L 2995 4154 
z
M 3808 589 
C 3814 557 3814 538 3814 525 
C 3814 166 3744 83 3443 83 
C 3334 83 3309 83 3040 115 
C 3341 275 3590 429 3808 589 
z
M 2720 3590 
L 3514 3590 
L 3514 3181 
L 2720 3181 
L 2720 3590 
z
M 4282 3590 
L 5139 3590 
L 5139 3181 
L 4282 3181 
L 4282 3590 
z
" transform="scale(0.015625)"/>
      <path id="HiraginoSans-W7-306e" d="M 3776 4038 
C 4032 4006 4186 3955 4371 3834 
C 4806 3546 5056 3066 5056 2496 
C 5056 1818 4723 1222 4173 922 
C 3872 762 3475 659 2906 614 
C 3155 282 3245 109 3379 -294 
C 3834 -218 4090 -154 4397 -32 
C 5421 371 6003 1274 6003 2438 
C 6003 3936 4979 4896 3373 4896 
C 2458 4896 1670 4576 1120 3974 
C 653 3469 403 2803 403 2074 
C 403 973 966 198 1760 198 
C 2310 198 2733 576 3091 1389 
C 3424 2131 3648 2982 3776 4038 
z
M 2842 4026 
C 2765 3341 2566 2534 2330 1965 
C 2125 1446 1926 1197 1741 1197 
C 1491 1197 1286 1587 1286 2067 
C 1286 2707 1587 3328 2074 3706 
C 2323 3898 2534 3987 2842 4026 
z
" transform="scale(0.015625)"/>
      <path id="HiraginoSans-W7-3000" transform="scale(0.015625)"/>
      <path id="HiraginoSans-W7-6570" d="M 6246 4403 
C 6099 4378 5952 4371 5638 4371 
L 4621 4371 
C 4678 4582 4691 4614 4723 4749 
C 4813 5114 4845 5235 4858 5280 
L 4026 5440 
C 4026 5344 3994 5094 3949 4883 
C 3757 3910 3456 3219 3002 2707 
C 3168 2554 3277 2432 3430 2208 
C 3328 2195 3200 2189 3021 2189 
L 2080 2189 
C 2125 2291 2144 2330 2202 2458 
L 1408 2598 
C 1338 2400 1312 2323 1261 2189 
L 806 2189 
C 563 2189 429 2195 282 2221 
L 282 1459 
C 435 1485 576 1491 806 1491 
L 928 1491 
C 787 1254 717 1146 499 864 
C 954 704 1120 634 1427 499 
C 1062 294 762 198 230 122 
C 397 -109 512 -307 621 -582 
C 1286 -422 1722 -218 2150 141 
C 2451 -26 2528 -77 2765 -262 
L 2976 77 
C 3149 -102 3283 -294 3411 -576 
C 3910 -307 4339 26 4730 461 
C 5075 32 5459 -301 5901 -563 
C 6035 -237 6157 -19 6342 243 
C 5894 467 5530 755 5216 1139 
C 5606 1843 5779 2509 5862 3635 
C 6074 3629 6125 3629 6246 3610 
L 6246 4403 
z
M 3206 454 
C 2963 589 2874 640 2675 730 
C 2842 986 2925 1171 3021 1491 
C 3238 1491 3392 1478 3514 1466 
L 3514 2099 
C 3654 2266 3686 2310 3789 2477 
C 3904 1946 4032 1587 4275 1139 
C 3942 749 3571 461 3046 198 
L 3206 454 
z
M 5069 3635 
C 5037 2938 4934 2400 4736 1907 
C 4486 2451 4397 2771 4294 3437 
C 4326 3520 4339 3552 4371 3635 
L 5069 3635 
z
M 2234 1491 
C 2170 1299 2118 1184 2003 1024 
C 1862 1082 1779 1107 1542 1190 
C 1638 1344 1664 1389 1722 1491 
L 2234 1491 
z
M 2995 4269 
L 2342 4269 
L 2342 4992 
C 2342 5184 2349 5293 2368 5408 
L 1555 5408 
C 1574 5286 1581 5178 1581 4979 
L 1581 4269 
L 851 4269 
C 602 4269 461 4275 301 4294 
L 301 3590 
C 454 3610 621 3616 851 3616 
L 1120 3616 
C 864 3322 595 3130 154 2925 
C 384 2682 467 2566 614 2304 
C 1069 2605 1229 2758 1587 3213 
C 1581 3110 1574 3002 1574 2950 
L 1574 2765 
C 1574 2707 1568 2643 1555 2579 
L 2355 2579 
C 2342 2650 2342 2726 2342 2797 
L 2342 2976 
C 2342 3014 2330 3142 2323 3213 
C 2502 2944 2541 2906 2854 2643 
C 2989 2906 3078 3040 3245 3245 
C 3014 3366 2874 3469 2733 3616 
L 3091 3616 
C 3290 3616 3411 3610 3494 3597 
L 3494 4288 
C 3418 4275 3296 4269 3098 4269 
L 3053 4269 
C 3238 4550 3309 4685 3520 5107 
L 2842 5382 
C 2733 5082 2598 4838 2394 4544 
L 2995 4269 
z
M 397 5094 
C 602 4832 723 4627 870 4282 
L 1523 4563 
C 1376 4883 1280 5043 1037 5363 
L 397 5094 
z
" transform="scale(0.015625)"/>
      <path id="HiraginoSans-W7-5b66" d="M 1197 4461 
C 781 4461 666 4467 422 4486 
C 442 4326 448 4179 448 3955 
L 448 3309 
C 448 3091 442 2938 416 2797 
L 1248 2797 
L 1248 3750 
L 5261 3750 
L 5261 2797 
L 6086 2797 
C 6067 2957 6054 3110 6054 3302 
L 6054 3955 
C 6054 4198 6061 4326 6080 4486 
C 5869 4467 5702 4461 5286 4461 
L 5082 4461 
C 5197 4634 5395 4973 5498 5184 
L 4672 5382 
C 4557 5062 4410 4762 4205 4461 
L 3744 4461 
C 3622 4826 3558 4973 3334 5414 
L 2522 5235 
C 2682 4960 2797 4710 2880 4461 
L 2323 4461 
C 2138 4826 1984 5069 1779 5344 
L 992 5152 
C 1216 4858 1299 4717 1434 4461 
L 1197 4461 
z
M 3725 1171 
L 5267 1171 
C 5619 1171 5914 1158 6118 1133 
L 6118 1971 
C 5914 1939 5606 1926 5274 1926 
L 3846 1926 
C 4314 2246 4666 2522 4986 2816 
C 5056 2880 5082 2906 5152 2963 
L 4742 3418 
C 4621 3398 4499 3392 4250 3392 
L 2227 3392 
C 1939 3392 1754 3398 1562 3418 
L 1562 2662 
C 1773 2682 1933 2688 2221 2688 
L 3763 2688 
C 3552 2502 3386 2387 3174 2272 
L 2861 2272 
C 2874 2176 2880 2067 2880 1926 
L 1216 1926 
C 902 1926 634 1939 397 1971 
L 397 1133 
C 602 1158 883 1171 1222 1171 
L 2880 1171 
L 2880 384 
C 2880 269 2835 250 2566 250 
C 2374 250 2118 269 1779 301 
C 1907 13 1958 -147 2022 -506 
C 2310 -512 2515 -518 2682 -518 
C 3533 -518 3725 -397 3725 160 
L 3725 1171 
z
" transform="scale(0.015625)"/>
      <path id="HiraginoSans-W7-20" transform="scale(0.015625)"/>
      <path id="DejaVuSans-Bold-2194" d="M 313 1788 
L 313 2225 
L 1541 3453 
L 1994 3000 
L 1375 2381 
L 3988 2381 
L 3369 3000 
L 3822 3453 
L 5050 2225 
L 5050 1788 
L 3822 559 
L 3369 1013 
L 3988 1631 
L 1375 1631 
L 1994 1013 
L 1541 559 
L 313 1788 
z
" transform="scale(0.015625)"/>
      <path id="HiraginoSans-W7-4c" d="M 3258 -134 
C 3661 -134 4019 -154 4205 -179 
L 4205 858 
C 3923 826 3699 813 3258 813 
L 1542 813 
L 1542 4096 
C 1542 4595 1549 4678 1594 5069 
L 429 5069 
C 467 4774 480 4525 480 4083 
L 480 736 
C 480 333 467 83 429 -154 
C 666 -141 902 -134 1299 -134 
L 3258 -134 
z
" transform="scale(0.015625)"/>
      <path id="HiraginoSans-W7-65" d="M 4032 1485 
C 4019 1606 4019 1613 4019 1638 
C 3994 2118 3962 2323 3846 2637 
C 3571 3373 2963 3782 2125 3782 
C 973 3782 211 2976 211 1760 
C 211 1139 410 595 774 237 
C 1107 -96 1587 -269 2163 -269 
C 2746 -269 3232 -90 3571 250 
C 3744 416 3840 563 3981 870 
L 3053 1146 
C 2918 755 2611 544 2163 544 
C 1856 544 1606 653 1434 864 
C 1306 1024 1248 1184 1216 1485 
L 4032 1485 
z
M 1235 2227 
C 1357 2726 1664 2982 2138 2982 
C 2432 2982 2675 2874 2829 2675 
C 2925 2547 2970 2432 3008 2227 
L 1235 2227 
z
" transform="scale(0.015625)"/>
      <path id="HiraginoSans-W7-61" d="M 2842 -134 
L 3878 -134 
C 3846 154 3834 346 3834 717 
L 3834 2451 
C 3834 2912 3750 3162 3533 3366 
C 3251 3635 2822 3763 2195 3763 
C 1594 3763 1133 3642 813 3392 
C 589 3219 467 3046 333 2675 
L 1344 2509 
C 1414 2688 1472 2778 1587 2861 
C 1709 2950 1939 3008 2189 3008 
C 2624 3008 2842 2854 2842 2541 
L 2842 2285 
C 2029 2259 1837 2240 1466 2163 
C 672 1984 237 1549 237 928 
C 237 589 365 294 602 96 
C 832 -109 1158 -205 1613 -205 
C 2131 -205 2458 -96 2842 198 
L 2842 -134 
z
M 2842 1357 
C 2842 1133 2765 973 2579 813 
C 2381 646 2067 538 1792 538 
C 1446 538 1254 685 1254 954 
C 1254 1197 1408 1370 1702 1459 
C 1990 1549 2259 1581 2842 1600 
L 2842 1357 
z
" transform="scale(0.015625)"/>
      <path id="HiraginoSans-W7-6e" d="M 1485 -134 
C 1446 179 1434 416 1434 762 
L 1434 2061 
C 1709 2541 2106 2835 2483 2835 
C 2637 2835 2765 2797 2861 2726 
C 3014 2611 3066 2464 3066 2131 
L 3066 762 
C 3066 403 3053 166 3014 -134 
L 4134 -134 
C 4096 128 4083 371 4083 762 
L 4083 2374 
C 4083 3245 3610 3731 2758 3731 
C 2214 3731 1811 3552 1414 3142 
C 1421 3264 1427 3347 1427 3398 
L 1427 3654 
L 371 3654 
C 410 3411 422 3168 422 2758 
L 422 762 
C 422 390 410 154 371 -134 
L 1485 -134 
z
" transform="scale(0.015625)"/>
      <path id="HiraginoSans-W7-5bfe" d="M 1434 4480 
L 909 4480 
C 653 4480 454 4493 256 4518 
L 256 3699 
C 454 3725 627 3731 864 3731 
L 1971 3731 
C 1946 3296 1875 2880 1760 2515 
C 1498 2810 1498 2810 909 3405 
L 365 2829 
C 710 2509 1056 2138 1421 1696 
C 1126 1114 774 691 179 224 
C 435 -13 557 -179 742 -506 
C 1325 70 1606 416 1965 1005 
C 2298 563 2381 442 2669 -26 
L 3251 666 
C 2886 1171 2688 1421 2362 1818 
C 2592 2419 2733 3059 2784 3731 
C 3002 3731 3104 3725 3238 3712 
L 3238 4512 
C 3034 4486 2893 4480 2611 4480 
L 2240 4480 
L 2240 4806 
C 2240 5056 2246 5229 2272 5389 
L 1395 5389 
C 1421 5203 1434 5069 1434 4806 
L 1434 4480 
z
M 4742 3398 
L 4742 435 
C 4742 307 4691 288 4384 288 
C 4205 288 3846 320 3590 358 
C 3712 83 3770 -115 3827 -474 
C 4006 -480 4090 -480 4198 -480 
C 4314 -480 4448 -474 4672 -467 
C 5030 -448 5171 -429 5280 -365 
C 5498 -237 5568 -77 5568 352 
L 5568 3398 
L 5613 3398 
C 5786 3398 5971 3392 6042 3379 
C 6131 3366 6131 3366 6189 3366 
L 6189 4211 
C 6029 4186 5869 4173 5606 4173 
L 5568 4173 
L 5568 4576 
C 5568 4934 5574 5158 5600 5363 
L 4698 5363 
C 4730 5165 4742 4966 4742 4576 
L 4742 4173 
L 3974 4173 
C 3693 4173 3533 4179 3366 4205 
L 3366 3366 
C 3546 3392 3680 3398 3968 3398 
L 4742 3398 
z
M 2995 2701 
C 3379 2195 3590 1811 3872 1114 
L 4570 1562 
C 4275 2182 4115 2445 3686 3066 
L 2995 2701 
z
" transform="scale(0.015625)"/>
      <path id="HiraginoSans-W7-6bd4" d="M 1734 2746 
L 2541 2746 
C 2861 2746 2989 2739 3168 2714 
L 3168 3578 
C 2995 3552 2861 3546 2541 3546 
L 1734 3546 
L 1734 4544 
C 1734 4915 1741 5082 1773 5299 
L 832 5299 
C 864 5069 870 4922 870 4544 
L 870 493 
C 570 429 435 410 218 397 
L 371 -531 
C 448 -499 602 -454 730 -416 
C 781 -403 781 -403 870 -378 
C 1338 -262 1338 -262 1542 -198 
C 2330 32 2669 147 3168 326 
L 3162 1126 
C 2618 947 2266 845 1734 704 
L 1734 2746 
z
M 4205 2381 
C 4832 2701 5555 3155 5958 3475 
C 6086 3578 6112 3597 6182 3642 
L 5606 4346 
C 5363 4032 4890 3674 4205 3277 
L 4205 4531 
C 4205 4922 4211 5082 4243 5293 
L 3322 5293 
C 3354 5082 3360 4915 3360 4531 
L 3360 256 
C 3360 -96 3450 -262 3686 -358 
C 3866 -429 4122 -454 4672 -454 
C 5350 -454 5638 -397 5830 -218 
C 6061 0 6131 333 6182 1440 
C 5805 1542 5658 1600 5363 1760 
C 5363 1005 5338 634 5274 486 
C 5222 365 5094 333 4710 333 
C 4269 333 4205 352 4205 486 
L 4205 2381 
z
" transform="scale(0.015625)"/>
     </defs>
     <use xlink:href="#HiraginoSans-W7-7dda"/>
     <use xlink:href="#HiraginoSans-W7-5f62" transform="translate(99.999985 0)"/>
     <use xlink:href="#HiraginoSans-W7-5199" transform="translate(199.999969 0)"/>
     <use xlink:href="#HiraginoSans-W7-50cf" transform="translate(299.999954 0)"/>
     <use xlink:href="#HiraginoSans-W7-306e" transform="translate(399.999939 0)"/>
     <use xlink:href="#HiraginoSans-W7-3000" transform="translate(499.999924 0)"/>
     <use xlink:href="#HiraginoSans-W7-6570" transform="translate(599.999908 0)"/>
     <use xlink:href="#HiraginoSans-W7-5b66" transform="translate(699.999893 0)"/>
     <use xlink:href="#HiraginoSans-W7-20" transform="translate(799.999878 0)"/>
     <use xlink:href="#DejaVuSans-Bold-2194" transform="translate(833.299866 0)"/>
     <use xlink:href="#HiraginoSans-W7-20" transform="translate(917.088928 0)"/>
     <use xlink:href="#HiraginoSans-W7-4c" transform="translate(950.388916 0)"/>
     <use xlink:href="#HiraginoSans-W7-65" transform="translate(1016.688904 0)"/>
     <use xlink:href="#HiraginoSans-W7-61" transform="translate(1082.788895 0)"/>
     <use xlink:href="#HiraginoSans-W7-6e" transform="translate(1149.188889 0)"/>
     <use xlink:href="#HiraginoSans-W7-20" transform="translate(1219.38887 0)"/>
     <use xlink:href="#HiraginoSans-W7-5bfe" transform="translate(1252.688858 0)"/>
     <use xlink:href="#HiraginoSans-W7-6bd4" transform="translate(1352.688843 0)"/>
    </g>
   </g>
   <g id="patch_7">
    <path d="M 23.94 93.771692 
L 208.08 93.771692 
Q 210.87 93.771692 210.87 90.786462 
L 210.87 51.978462 
Q 210.87 48.993231 208.08 48.993231 
L 23.94 48.993231 
Q 21.15 48.993231 21.15 51.978462 
L 21.15 90.786462 
Q 21.15 93.771692 23.94 93.771692 
z
" clip-path="url(#p8649ca9e38)" style="fill: #2563eb"/>
   </g>
   <g id="patch_8">
    <path d="M 247.14 93.771692 
L 487.08 93.771692 
Q 489.87 93.771692 489.87 90.786462 
L 489.87 51.978462 
Q 489.87 48.993231 487.08 48.993231 
L 247.14 48.993231 
Q 244.35 48.993231 244.35 51.978462 
L 244.35 90.786462 
Q 244.35 93.771692 247.14 93.771692 
z
" clip-path="url(#p8649ca9e38)" style="fill: #059669"/>
   </g>
   <g id="patch_9">
    <path d="M 501.03 93.771692 
L 601.47 93.771692 
Q 604.26 93.771692 604.26 90.786462 
L 604.26 51.978462 
Q 604.26 48.993231 601.47 48.993231 
L 501.03 48.993231 
Q 498.24 48.993231 498.24 51.978462 
L 498.24 90.786462 
Q 498.24 93.771692 501.03 93.771692 
z
" clip-path="url(#p8649ca9e38)" style="fill: #d97706"/>
   </g>
   <g id="text_2">
    <!-- $f: V \to W$（線形） -->
    <g style="fill: #1e293b" transform="translate(78.9 131.827103) scale(0.1 -0.1)">
     <defs>
      <path id="DejaVuSans-Oblique-66" d="M 3059 4863 
L 2969 4384 
L 2419 4384 
Q 2106 4384 1964 4261 
Q 1822 4138 1753 3809 
L 1691 3500 
L 2638 3500 
L 2553 3053 
L 1606 3053 
L 1013 0 
L 434 0 
L 1031 3053 
L 481 3053 
L 563 3500 
L 1113 3500 
L 1159 3744 
Q 1278 4363 1576 4613 
Q 1875 4863 2516 4863 
L 3059 4863 
z
" transform="scale(0.015625)"/>
      <path id="DejaVuSans-3a" d="M 750 794 
L 1409 794 
L 1409 0 
L 750 0 
L 750 794 
z
M 750 3309 
L 1409 3309 
L 1409 2516 
L 750 2516 
L 750 3309 
z
" transform="scale(0.015625)"/>
      <path id="DejaVuSans-Oblique-56" d="M 1319 0 
L 500 4666 
L 1119 4666 
L 1797 653 
L 4063 4666 
L 4750 4666 
L 2053 0 
L 1319 0 
z
" transform="scale(0.015625)"/>
      <path id="DejaVuSans-2192" d="M 5050 2147 
L 5050 1866 
L 3822 638 
L 3447 1013 
L 4175 1741 
L 366 1741 
L 366 2272 
L 4175 2272 
L 3447 3000 
L 3822 3375 
L 5050 2147 
z
" transform="scale(0.015625)"/>
      <path id="DejaVuSans-Oblique-57" d="M 616 4666 
L 1228 4666 
L 1453 697 
L 3213 4666 
L 3916 4666 
L 4147 697 
L 5888 4666 
L 6528 4666 
L 4453 0 
L 3659 0 
L 3444 3891 
L 1697 0 
L 903 0 
L 616 4666 
z
" transform="scale(0.015625)"/>
      <path id="HiraginoSans-W4-ff08" d="M 6170 -531 
C 5690 -26 5491 256 5280 698 
C 5024 1235 4902 1805 4902 2432 
C 4902 3059 5024 3629 5280 4166 
C 5491 4608 5690 4890 6170 5395 
L 5517 5395 
C 5139 4947 4966 4685 4774 4275 
C 4499 3686 4365 3085 4365 2432 
C 4365 1779 4499 1178 4774 589 
C 4966 179 5139 -83 5517 -531 
L 6170 -531 
z
" transform="scale(0.015625)"/>
      <path id="HiraginoSans-W4-7dda" d="M 397 2125 
C 506 2144 570 2157 678 2163 
C 1222 2195 1222 2195 1370 2208 
L 1370 160 
C 1370 -102 1357 -288 1331 -493 
L 1850 -493 
C 1818 -307 1811 -134 1811 154 
L 1811 2246 
C 2003 2266 2074 2272 2170 2285 
C 2291 2304 2291 2304 2362 2310 
C 2381 2227 2400 2163 2432 2022 
L 2797 2195 
C 2650 2701 2579 2886 2362 3360 
L 2016 3213 
C 2131 2976 2170 2886 2240 2688 
C 1939 2650 1728 2630 1338 2605 
C 1709 3098 1920 3392 2125 3712 
C 2400 4147 2400 4147 2573 4403 
L 2138 4627 
C 2054 4390 1850 4026 1510 3507 
C 1370 3680 1312 3744 1165 3917 
C 1421 4288 1594 4589 1779 4954 
C 1850 5094 1882 5152 1926 5216 
L 1466 5395 
C 1408 5126 1216 4730 883 4211 
C 768 4326 742 4352 595 4499 
L 333 4128 
C 698 3808 934 3558 1267 3155 
C 1088 2899 1088 2899 845 2586 
C 691 2579 691 2579 582 2579 
C 480 2579 422 2586 333 2598 
L 397 2125 
z
M 3475 4826 
C 3181 4826 3027 4832 2867 4851 
C 2880 4685 2893 4486 2893 4243 
L 2893 3181 
C 2893 2938 2880 2739 2867 2579 
C 3040 2598 3226 2605 3482 2605 
L 4070 2605 
L 4070 186 
C 4070 77 4026 51 3859 51 
C 3693 51 3501 70 3264 102 
C 3334 -51 3366 -154 3398 -371 
C 3501 -384 3744 -390 3866 -390 
C 4358 -390 4525 -269 4525 96 
L 4525 832 
C 4518 1094 4506 1427 4461 1907 
C 4678 1280 4851 954 5190 512 
C 5427 211 5613 26 5952 -243 
C 6054 -32 6138 77 6266 198 
C 5805 506 5491 819 5158 1286 
C 5466 1549 5696 1766 6035 2131 
L 5702 2438 
C 5427 2093 5235 1888 4941 1632 
C 4723 2016 4640 2221 4544 2605 
L 5158 2605 
C 5414 2605 5581 2598 5760 2579 
C 5741 2752 5734 2899 5734 3174 
L 5734 4237 
C 5734 4525 5741 4672 5760 4851 
C 5600 4832 5446 4826 5152 4826 
L 4365 4826 
C 4448 4992 4506 5126 4582 5318 
L 4064 5408 
C 4032 5235 3987 5094 3872 4826 
L 3475 4826 
z
M 3334 4435 
L 5286 4435 
L 5286 3917 
L 3334 3917 
L 3334 4435 
z
M 3334 3526 
L 5286 3526 
L 5286 2989 
L 3334 2989 
L 3334 3526 
z
M 666 1818 
C 602 966 531 576 346 64 
L 742 -141 
C 928 422 947 538 1075 1754 
L 666 1818 
z
M 2029 1741 
C 2138 1325 2208 941 2253 480 
L 2630 602 
C 2566 1050 2502 1370 2374 1843 
L 2029 1741 
z
M 3750 2067 
C 3674 2054 3590 2048 3430 2048 
L 3072 2048 
C 2861 2048 2771 2054 2643 2080 
L 2643 1613 
C 2778 1632 2874 1638 3059 1638 
L 3437 1638 
C 3174 998 2829 563 2240 147 
C 2394 26 2483 -77 2560 -211 
C 2848 32 3027 211 3213 442 
C 3430 710 3654 1101 3782 1414 
C 3878 1677 3878 1677 3955 1837 
L 3750 2067 
z
" transform="scale(0.015625)"/>
      <path id="HiraginoSans-W4-5f62" d="M 1184 4602 
L 1184 3098 
L 954 3098 
C 691 3098 538 3110 371 3136 
L 371 2598 
C 531 2624 710 2637 947 2637 
L 1184 2637 
C 1158 1370 883 589 218 -83 
C 410 -218 486 -288 614 -442 
C 1350 410 1606 1171 1651 2637 
L 2554 2637 
L 2554 275 
C 2554 -32 2547 -192 2515 -410 
L 3072 -403 
C 3046 -224 3034 -32 3034 282 
L 3034 2637 
L 3206 2637 
C 3475 2637 3610 2630 3770 2605 
L 3770 3130 
C 3610 3104 3488 3098 3206 3098 
L 3034 3098 
L 3034 4602 
L 3149 4602 
C 3424 4602 3539 4595 3699 4570 
L 3699 5094 
C 3507 5069 3347 5056 3098 5056 
L 1088 5056 
C 851 5056 672 5069 486 5094 
L 486 4570 
C 659 4595 781 4602 1037 4602 
L 1184 4602 
z
M 1658 4602 
L 2554 4602 
L 2554 3098 
L 1658 3098 
L 1658 4602 
z
M 5850 2029 
C 5754 1850 5568 1613 5370 1408 
C 4755 774 4096 326 3328 13 
C 3469 -154 3558 -275 3635 -435 
C 4602 45 5299 582 6010 1395 
C 6106 1504 6138 1536 6272 1664 
L 5850 2029 
z
M 5395 5312 
C 5312 5178 5210 5069 4928 4813 
C 4480 4397 4032 4109 3501 3878 
C 3642 3725 3712 3622 3795 3437 
C 4403 3750 4858 4077 5446 4621 
C 5722 4877 5766 4915 5837 4973 
L 5395 5312 
z
M 5638 3693 
C 5536 3520 5357 3322 5146 3123 
C 4608 2637 4160 2342 3526 2074 
C 3648 1933 3712 1830 3821 1619 
C 4557 1990 5210 2483 5786 3085 
C 5907 3213 5971 3270 6061 3341 
L 5638 3693 
z
" transform="scale(0.015625)"/>
      <path id="HiraginoSans-W4-ff09" d="M 890 -531 
C 1261 -83 1434 179 1626 589 
C 1901 1178 2035 1773 2035 2432 
C 2035 3091 1901 3686 1626 4275 
C 1434 4685 1261 4947 890 5395 
L 230 5395 
C 710 4890 909 4608 1120 4166 
C 1376 3629 1498 3072 1498 2432 
C 1498 1792 1376 1235 1120 698 
C 909 256 710 -26 230 -531 
L 890 -531 
z
" transform="scale(0.015625)"/>
     </defs>
     <use xlink:href="#DejaVuSans-Oblique-66" transform="translate(0 0.5)"/>
     <use xlink:href="#DejaVuSans-3a" transform="translate(54.6875 0.5)"/>
     <use xlink:href="#DejaVuSans-Oblique-56" transform="translate(107.861328 0.5)"/>
     <use xlink:href="#DejaVuSans-2192" transform="translate(195.751953 0.5)"/>
     <use xlink:href="#DejaVuSans-Oblique-57" transform="translate(299.023438 0.5)"/>
     <use xlink:href="#HiraginoSans-W4-ff08" transform="translate(397.900391 0.5)"/>
     <use xlink:href="#HiraginoSans-W4-7dda" transform="translate(497.900375 0.5)"/>
     <use xlink:href="#HiraginoSans-W4-5f62" transform="translate(597.90036 0.5)"/>
     <use xlink:href="#HiraginoSans-W4-ff09" transform="translate(697.900345 0.5)"/>
    </g>
   </g>
   <g id="text_3">
    <!-- f : V →ₗ[K] W -->
    <g style="fill: #2563eb" transform="translate(334.681172 131.504759) scale(0.09 -0.09)">
     <defs>
      <path id="DejaVuSansMono-66" d="M 3322 4863 
L 3322 4384 
L 2669 4384 
Q 2359 4384 2239 4257 
Q 2119 4131 2119 3809 
L 2119 3500 
L 3322 3500 
L 3322 3053 
L 2119 3053 
L 2119 0 
L 1544 0 
L 1544 3053 
L 609 3053 
L 609 3500 
L 1544 3500 
L 1544 3744 
Q 1544 4319 1808 4591 
Q 2072 4863 2631 4863 
L 3322 4863 
z
" transform="scale(0.015625)"/>
      <path id="DejaVuSansMono-20" transform="scale(0.015625)"/>
      <path id="DejaVuSansMono-3a" d="M 1528 3322 
L 2316 3322 
L 2316 2375 
L 1528 2375 
L 1528 3322 
z
M 1528 953 
L 2316 953 
L 2316 0 
L 1528 0 
L 1528 953 
z
" transform="scale(0.015625)"/>
      <path id="DejaVuSansMono-56" d="M 1925 531 
L 3022 4666 
L 3675 4666 
L 2309 0 
L 1544 0 
L 178 4666 
L 831 4666 
L 1925 531 
z
" transform="scale(0.015625)"/>
      <path id="DejaVuSansMono-2192" d="M 3647 1625 
L 2738 716 
L 2456 997 
L 2956 1497 
L 206 1497 
L 206 2009 
L 2956 2009 
L 2456 2509 
L 2738 2791 
L 3647 1881 
L 3647 1625 
z
" transform="scale(0.015625)"/>
      <path id="DejaVuSansMono-2097" d="M 2013 685 
Q 2013 469 2100 358 
Q 2188 247 2363 247 
L 2788 247 
L 2788 -24 
L 2331 -24 
Q 2006 -24 1828 161 
Q 1650 347 1650 685 
L 1650 2466 
L 1069 2466 
L 1069 2719 
L 2013 2719 
L 2013 685 
z
" transform="scale(0.015625)"/>
      <path id="DejaVuSansMono-5b" d="M 1447 4863 
L 2772 4863 
L 2772 4416 
L 2022 4416 
L 2022 -397 
L 2772 -397 
L 2772 -844 
L 1447 -844 
L 1447 4863 
z
" transform="scale(0.015625)"/>
      <path id="DejaVuSansMono-4b" d="M 428 4666 
L 1063 4666 
L 1063 2591 
L 3034 4666 
L 3775 4666 
L 1959 2759 
L 3828 0 
L 3066 0 
L 1544 2338 
L 1063 1825 
L 1063 0 
L 428 0 
L 428 4666 
z
" transform="scale(0.015625)"/>
      <path id="DejaVuSansMono-5d" d="M 2406 4863 
L 2406 -844 
L 1081 -844 
L 1081 -397 
L 1831 -397 
L 1831 4416 
L 1081 4416 
L 1081 4863 
L 2406 4863 
z
" transform="scale(0.015625)"/>
      <path id="DejaVuSansMono-57" d="M 0 4666 
L 616 4666 
L 1063 878 
L 1594 3384 
L 2253 3384 
L 2791 872 
L 3238 4666 
L 3853 4666 
L 3156 0 
L 2559 0 
L 1925 2772 
L 1294 0 
L 697 0 
L 0 4666 
z
" transform="scale(0.015625)"/>
     </defs>
     <use xlink:href="#DejaVuSansMono-66"/>
     <use xlink:href="#DejaVuSansMono-20" transform="translate(60.205078 0)"/>
     <use xlink:href="#DejaVuSansMono-3a" transform="translate(120.410156 0)"/>
     <use xlink:href="#DejaVuSansMono-20" transform="translate(180.615234 0)"/>
     <use xlink:href="#DejaVuSansMono-56" transform="translate(240.820312 0)"/>
     <use xlink:href="#DejaVuSansMono-20" transform="translate(301.025391 0)"/>
     <use xlink:href="#DejaVuSansMono-2192" transform="translate(361.230469 0)"/>
     <use xlink:href="#DejaVuSansMono-2097" transform="translate(421.435547 0)"/>
     <use xlink:href="#DejaVuSansMono-5b" transform="translate(481.640625 0)"/>
     <use xlink:href="#DejaVuSansMono-4b" transform="translate(541.845703 0)"/>
     <use xlink:href="#DejaVuSansMono-5d" transform="translate(602.050781 0)"/>
     <use xlink:href="#DejaVuSansMono-20" transform="translate(662.255859 0)"/>
     <use xlink:href="#DejaVuSansMono-57" transform="translate(722.460938 0)"/>
    </g>
   </g>
   <g id="text_4">
    <!-- 写像の型 -->
    <g style="fill: #64748b" transform="translate(536.04 131.544134) scale(0.09 -0.09)">
     <defs>
      <path id="HiraginoSans-W4-5199" d="M 2323 3808 
C 2394 4102 2445 4282 2464 4358 
L 1926 4416 
C 1920 4301 1914 4205 1882 4045 
C 1734 3354 1555 2771 1242 2010 
L 1760 1971 
L 1869 2272 
L 4416 2272 
C 4378 1894 4365 1773 4333 1523 
L 1094 1523 
C 762 1523 557 1536 384 1562 
L 384 1030 
C 557 1056 762 1069 1094 1069 
L 4256 1069 
C 4166 627 4064 326 3955 186 
C 3878 90 3789 58 3590 58 
C 3290 58 2912 96 2394 186 
C 2483 -51 2502 -122 2534 -326 
C 3021 -384 3302 -403 3610 -403 
C 4096 -403 4301 -288 4474 70 
C 4582 294 4678 634 4755 1069 
L 5338 1069 
C 5638 1069 5850 1056 6061 1030 
L 6061 1562 
C 5869 1530 5696 1523 5338 1523 
L 4826 1523 
C 4870 1901 4890 2061 4902 2298 
C 4915 2432 4941 2637 4960 2720 
C 4787 2694 4608 2688 4320 2688 
L 2010 2688 
C 2099 2957 2138 3104 2214 3386 
L 4397 3386 
C 4723 3386 4909 3379 5088 3354 
L 5088 3840 
C 4909 3814 4768 3808 4397 3808 
L 2323 3808 
z
M 1011 3699 
L 1011 4595 
L 5389 4595 
L 5389 3699 
L 5907 3699 
C 5882 3853 5869 4026 5869 4237 
L 5869 4544 
C 5869 4762 5875 4915 5894 5050 
C 5741 5037 5574 5030 5280 5030 
L 1120 5030 
C 813 5030 653 5037 506 5050 
C 525 4915 531 4762 531 4531 
L 531 4243 
C 531 4026 518 3872 493 3699 
L 1011 3699 
z
" transform="scale(0.015625)"/>
      <path id="HiraginoSans-W4-50cf" d="M 2131 3117 
C 2131 2938 2125 2790 2112 2656 
C 2272 2669 2451 2675 2618 2675 
L 3334 2675 
C 2925 2368 2336 2131 1600 1965 
C 1690 1862 1747 1766 1824 1600 
C 2400 1766 2848 1952 3270 2208 
C 3392 2093 3437 2035 3539 1914 
C 2976 1530 2355 1261 1581 1050 
C 1728 838 1734 832 1811 666 
C 2650 960 3200 1222 3744 1600 
C 3821 1453 3853 1389 3904 1235 
C 3283 762 2496 378 1587 102 
C 1766 -173 1766 -173 1818 -307 
C 2758 45 3424 390 3994 845 
C 4013 710 4019 589 4019 467 
C 4019 64 3936 -32 3590 -32 
C 3411 -32 3258 -19 2995 26 
C 3072 -160 3098 -256 3123 -422 
C 3315 -442 3386 -442 3578 -442 
C 3942 -442 4115 -410 4237 -307 
C 4397 -186 4474 64 4474 435 
C 4474 864 4333 1370 4102 1779 
C 3962 2022 3821 2202 3590 2426 
C 3686 2496 3750 2541 3910 2675 
L 4186 2675 
C 4326 2099 4461 1754 4704 1299 
C 5024 723 5402 307 6016 -154 
C 6118 45 6182 154 6285 294 
C 5734 621 5389 960 5056 1510 
C 5434 1728 5677 1907 6106 2278 
L 5722 2605 
C 5498 2330 5216 2099 4864 1888 
C 4736 2170 4685 2323 4595 2675 
L 5376 2675 
C 5600 2675 5728 2669 5869 2656 
C 5856 2784 5856 2854 5856 3142 
L 5856 3558 
C 5856 3782 5862 3885 5875 4038 
C 5728 4026 5613 4019 5376 4019 
L 4442 4019 
C 4576 4160 4755 4365 4864 4499 
C 4992 4666 4998 4672 5050 4723 
L 4800 4941 
C 4666 4928 4512 4922 4294 4922 
L 3392 4922 
C 3424 4973 3424 4973 3462 5043 
C 3539 5165 3539 5165 3610 5274 
L 3091 5376 
C 2989 5101 2848 4877 2611 4595 
C 2310 4243 2016 3987 1530 3667 
C 1683 3539 1773 3430 1805 3334 
C 1984 3469 2022 3494 2131 3584 
L 2131 3117 
z
M 2643 4019 
C 2835 4198 2970 4346 3123 4544 
L 4339 4544 
C 4211 4352 4070 4186 3898 4019 
L 2643 4019 
z
M 2579 3667 
L 3686 3667 
L 3686 3021 
L 2579 3021 
L 2579 3667 
z
M 4128 3667 
L 5395 3667 
L 5395 3021 
L 4128 3021 
L 4128 3667 
z
M 915 294 
C 915 -58 909 -243 877 -486 
L 1414 -486 
C 1389 -275 1382 -64 1382 301 
L 1382 3744 
C 1549 4096 1690 4442 1837 4864 
C 1926 5107 1926 5114 1978 5248 
L 1446 5382 
C 1421 5158 1357 4915 1216 4550 
C 954 3834 589 3213 147 2714 
C 224 2624 250 2586 294 2483 
C 378 2291 378 2291 403 2234 
C 627 2522 781 2752 934 3059 
C 922 2669 915 2432 915 2144 
L 915 294 
z
" transform="scale(0.015625)"/>
      <path id="HiraginoSans-W4-306e" d="M 3053 422 
C 3200 243 3245 160 3328 -96 
C 3821 6 4090 90 4397 237 
C 5293 666 5798 1459 5798 2451 
C 5798 3802 4832 4698 3379 4698 
C 2509 4698 1792 4403 1274 3834 
C 832 3347 589 2707 589 2042 
C 589 1107 1062 422 1709 422 
C 2189 422 2573 806 2938 1645 
C 3238 2323 3469 3264 3578 4205 
C 3891 4186 4070 4141 4294 4032 
C 4902 3738 5242 3174 5242 2477 
C 5242 1734 4870 1107 4230 768 
C 3917 602 3610 512 3053 422 
z
M 3027 4192 
C 2944 3398 2714 2483 2458 1888 
C 2195 1286 1952 992 1702 992 
C 1370 992 1114 1453 1114 2035 
C 1114 2797 1491 3501 2112 3891 
C 2394 4077 2656 4160 3027 4192 
z
" transform="scale(0.015625)"/>
      <path id="HiraginoSans-W4-578b" d="M 1229 4672 
C 1222 4218 1222 3936 1216 3834 
L 992 3834 
C 717 3834 544 3840 378 3866 
L 378 3373 
C 538 3398 717 3405 979 3405 
L 1178 3405 
C 1139 3104 1094 2944 1011 2758 
C 877 2477 742 2317 384 2042 
C 550 1933 640 1843 755 1683 
C 1331 2170 1555 2611 1638 3405 
L 2490 3405 
L 2490 2560 
C 2490 2298 2477 2093 2451 1933 
L 2912 1933 
C 2918 1837 2925 1734 2925 1581 
L 2925 1434 
L 1651 1434 
C 1306 1434 1146 1440 979 1466 
L 979 966 
C 1178 992 1382 998 1690 998 
L 2925 998 
L 2925 205 
L 1126 205 
C 794 205 563 218 410 237 
L 410 -282 
C 614 -256 864 -243 1152 -243 
L 5293 -243 
C 5587 -243 5837 -256 6042 -282 
L 6042 237 
C 5875 211 5670 205 5318 205 
L 3405 205 
L 3405 998 
L 4774 998 
C 5082 998 5286 992 5485 966 
L 5485 1472 
C 5312 1446 5120 1434 4768 1434 
L 3405 1434 
L 3405 1581 
C 3405 1805 3411 1914 3437 2042 
L 2970 2042 
C 2957 2208 2950 2323 2950 2554 
L 2950 3405 
L 3149 3405 
C 3418 3405 3571 3398 3744 3373 
L 3744 3866 
C 3584 3840 3437 3834 3136 3834 
L 2950 3834 
L 2950 4672 
L 3027 4672 
C 3290 4672 3450 4666 3603 4646 
L 3603 5126 
C 3437 5101 3264 5094 2970 5094 
L 1184 5094 
C 909 5094 730 5101 544 5126 
L 544 4646 
C 698 4666 864 4672 1133 4672 
L 1229 4672 
z
M 2490 4672 
L 2490 3834 
L 1670 3834 
C 1683 4058 1683 4070 1683 4371 
C 1683 4435 1683 4544 1690 4672 
L 2490 4672 
z
M 4512 2797 
C 4493 2931 4486 3072 4486 3328 
L 4486 4480 
C 4486 4736 4493 4890 4518 5024 
L 3981 5024 
C 4000 4883 4013 4704 4013 4461 
L 4013 3360 
C 4013 3117 4000 2938 3981 2797 
L 4512 2797 
z
M 5805 4666 
C 5805 4960 5818 5158 5843 5293 
L 5286 5293 
C 5318 5114 5325 4966 5325 4691 
L 5325 2490 
C 5325 2368 5293 2342 5101 2342 
C 4845 2342 4621 2362 4339 2400 
C 4416 2240 4442 2131 4474 1901 
C 4710 1882 4902 1875 5094 1875 
C 5658 1875 5805 1990 5805 2413 
L 5805 4666 
z
" transform="scale(0.015625)"/>
     </defs>
     <use xlink:href="#HiraginoSans-W4-5199"/>
     <use xlink:href="#HiraginoSans-W4-50cf" transform="translate(99.999985 0)"/>
     <use xlink:href="#HiraginoSans-W4-306e" transform="translate(199.999969 0)"/>
     <use xlink:href="#HiraginoSans-W4-578b" transform="translate(299.999954 0)"/>
    </g>
   </g>
   <g id="text_5">
    <!-- $\ker f$ -->
    <g style="fill: #1e293b" transform="translate(108.2 191.531718) scale(0.1 -0.1)">
     <defs>
      <path id="DejaVuSans-6b" d="M 581 4863 
L 1159 4863 
L 1159 1991 
L 2875 3500 
L 3609 3500 
L 1753 1863 
L 3688 0 
L 2938 0 
L 1159 1709 
L 1159 0 
L 581 0 
L 581 4863 
z
" transform="scale(0.015625)"/>
      <path id="DejaVuSans-65" d="M 3597 1894 
L 3597 1613 
L 953 1613 
Q 991 1019 1311 708 
Q 1631 397 2203 397 
Q 2534 397 2845 478 
Q 3156 559 3463 722 
L 3463 178 
Q 3153 47 2828 -22 
Q 2503 -91 2169 -91 
Q 1331 -91 842 396 
Q 353 884 353 1716 
Q 353 2575 817 3079 
Q 1281 3584 2069 3584 
Q 2775 3584 3186 3129 
Q 3597 2675 3597 1894 
z
M 3022 2063 
Q 3016 2534 2758 2815 
Q 2500 3097 2075 3097 
Q 1594 3097 1305 2825 
Q 1016 2553 972 2059 
L 3022 2063 
z
" transform="scale(0.015625)"/>
      <path id="DejaVuSans-72" d="M 2631 2963 
Q 2534 3019 2420 3045 
Q 2306 3072 2169 3072 
Q 1681 3072 1420 2755 
Q 1159 2438 1159 1844 
L 1159 0 
L 581 0 
L 581 3500 
L 1159 3500 
L 1159 2956 
Q 1341 3275 1631 3429 
Q 1922 3584 2338 3584 
Q 2397 3584 2469 3576 
Q 2541 3569 2628 3553 
L 2631 2963 
z
" transform="scale(0.015625)"/>
     </defs>
     <use xlink:href="#DejaVuSans-6b" transform="translate(0 0.015625)"/>
     <use xlink:href="#DejaVuSans-65" transform="translate(57.910156 0.015625)"/>
     <use xlink:href="#DejaVuSans-72" transform="translate(119.433594 0.015625)"/>
     <use xlink:href="#DejaVuSans-Oblique-66" transform="translate(176.782551 0.015625)"/>
    </g>
   </g>
   <g id="text_6">
    <!-- LinearMap.ker f -->
    <g style="fill: #2563eb" transform="translate(329.262891 191.209375) scale(0.09 -0.09)">
     <defs>
      <path id="DejaVuSansMono-4c" d="M 672 4666 
L 1306 4666 
L 1306 531 
L 3559 531 
L 3559 0 
L 672 0 
L 672 4666 
z
" transform="scale(0.015625)"/>
      <path id="DejaVuSansMono-69" d="M 800 3500 
L 2272 3500 
L 2272 447 
L 3413 447 
L 3413 0 
L 556 0 
L 556 447 
L 1697 447 
L 1697 3053 
L 800 3053 
L 800 3500 
z
M 1697 4863 
L 2272 4863 
L 2272 4134 
L 1697 4134 
L 1697 4863 
z
" transform="scale(0.015625)"/>
      <path id="DejaVuSansMono-6e" d="M 3284 2169 
L 3284 0 
L 2706 0 
L 2706 2169 
Q 2706 2641 2540 2862 
Q 2375 3084 2022 3084 
Q 1619 3084 1401 2798 
Q 1184 2513 1184 1978 
L 1184 0 
L 609 0 
L 609 3500 
L 1184 3500 
L 1184 2975 
Q 1338 3275 1600 3429 
Q 1863 3584 2222 3584 
Q 2756 3584 3020 3232 
Q 3284 2881 3284 2169 
z
" transform="scale(0.015625)"/>
      <path id="DejaVuSansMono-65" d="M 3475 1894 
L 3475 1613 
L 984 1613 
L 984 1594 
Q 984 1022 1282 709 
Q 1581 397 2125 397 
Q 2400 397 2700 484 
Q 3000 572 3341 750 
L 3341 178 
Q 3013 44 2708 -23 
Q 2403 -91 2119 -91 
Q 1303 -91 843 398 
Q 384 888 384 1747 
Q 384 2584 834 3084 
Q 1284 3584 2034 3584 
Q 2703 3584 3089 3131 
Q 3475 2678 3475 1894 
z
M 2900 2063 
Q 2888 2569 2661 2833 
Q 2434 3097 2009 3097 
Q 1594 3097 1325 2822 
Q 1056 2547 1006 2059 
L 2900 2063 
z
" transform="scale(0.015625)"/>
      <path id="DejaVuSansMono-61" d="M 2194 1759 
L 2003 1759 
Q 1500 1759 1245 1582 
Q 991 1406 991 1056 
Q 991 741 1181 566 
Q 1372 391 1709 391 
Q 2184 391 2456 720 
Q 2728 1050 2731 1631 
L 2731 1759 
L 2194 1759 
z
M 3309 1997 
L 3309 0 
L 2731 0 
L 2731 519 
Q 2547 206 2267 57 
Q 1988 -91 1588 -91 
Q 1053 -91 734 211 
Q 416 513 416 1019 
Q 416 1603 808 1906 
Q 1200 2209 1959 2209 
L 2731 2209 
L 2731 2300 
Q 2728 2719 2518 2908 
Q 2309 3097 1850 3097 
Q 1556 3097 1256 3012 
Q 956 2928 672 2766 
L 672 3341 
Q 991 3463 1283 3523 
Q 1575 3584 1850 3584 
Q 2284 3584 2592 3456 
Q 2900 3328 3091 3072 
Q 3209 2916 3259 2686 
Q 3309 2456 3309 1997 
z
" transform="scale(0.015625)"/>
      <path id="DejaVuSansMono-72" d="M 3609 2778 
Q 3425 2922 3234 2987 
Q 3044 3053 2816 3053 
Q 2278 3053 1993 2715 
Q 1709 2378 1709 1741 
L 1709 0 
L 1131 0 
L 1131 3500 
L 1709 3500 
L 1709 2816 
Q 1853 3188 2151 3386 
Q 2450 3584 2859 3584 
Q 3072 3584 3256 3531 
Q 3441 3478 3609 3366 
L 3609 2778 
z
" transform="scale(0.015625)"/>
      <path id="DejaVuSansMono-4d" d="M 269 4666 
L 1113 4666 
L 1919 2291 
L 2731 4666 
L 3578 4666 
L 3578 0 
L 2994 0 
L 2994 4122 
L 2163 1663 
L 1684 1663 
L 850 4122 
L 850 0 
L 269 0 
L 269 4666 
z
" transform="scale(0.015625)"/>
      <path id="DejaVuSansMono-70" d="M 1172 441 
L 1172 -1331 
L 594 -1331 
L 594 3500 
L 1172 3500 
L 1172 3053 
Q 1316 3313 1555 3448 
Q 1794 3584 2106 3584 
Q 2741 3584 3102 3093 
Q 3463 2603 3463 1734 
Q 3463 881 3100 395 
Q 2738 -91 2106 -91 
Q 1788 -91 1548 45 
Q 1309 181 1172 441 
z
M 2859 1747 
Q 2859 2416 2648 2756 
Q 2438 3097 2022 3097 
Q 1603 3097 1387 2755 
Q 1172 2413 1172 1747 
Q 1172 1084 1387 740 
Q 1603 397 2022 397 
Q 2438 397 2648 737 
Q 2859 1078 2859 1747 
z
" transform="scale(0.015625)"/>
      <path id="DejaVuSansMono-2e" d="M 1528 953 
L 2316 953 
L 2316 0 
L 1528 0 
L 1528 953 
z
" transform="scale(0.015625)"/>
      <path id="DejaVuSansMono-6b" d="M 738 4863 
L 1331 4863 
L 1331 2047 
L 2841 3500 
L 3541 3500 
L 2163 2181 
L 3756 0 
L 3053 0 
L 1759 1806 
L 1331 1403 
L 1331 0 
L 738 0 
L 738 4863 
z
" transform="scale(0.015625)"/>
     </defs>
     <use xlink:href="#DejaVuSansMono-4c"/>
     <use xlink:href="#DejaVuSansMono-69" transform="translate(60.205078 0)"/>
     <use xlink:href="#DejaVuSansMono-6e" transform="translate(120.410156 0)"/>
     <use xlink:href="#DejaVuSansMono-65" transform="translate(180.615234 0)"/>
     <use xlink:href="#DejaVuSansMono-61" transform="translate(240.820312 0)"/>
     <use xlink:href="#DejaVuSansMono-72" transform="translate(301.025391 0)"/>
     <use xlink:href="#DejaVuSansMono-4d" transform="translate(361.230469 0)"/>
     <use xlink:href="#DejaVuSansMono-61" transform="translate(421.435547 0)"/>
     <use xlink:href="#DejaVuSansMono-70" transform="translate(481.640625 0)"/>
     <use xlink:href="#DejaVuSansMono-2e" transform="translate(541.845703 0)"/>
     <use xlink:href="#DejaVuSansMono-6b" transform="translate(602.050781 0)"/>
     <use xlink:href="#DejaVuSansMono-65" transform="translate(662.255859 0)"/>
     <use xlink:href="#DejaVuSansMono-72" transform="translate(722.460938 0)"/>
     <use xlink:href="#DejaVuSansMono-20" transform="translate(782.666016 0)"/>
     <use xlink:href="#DejaVuSansMono-66" transform="translate(842.871094 0)"/>
    </g>
   </g>
   <g id="text_7">
    <!-- 核 -->
    <g style="fill: #64748b" transform="translate(549.54 191.24875) scale(0.09 -0.09)">
     <defs>
      <path id="HiraginoSans-W4-6838" d="M 5402 2598 
C 5056 1888 4294 1114 3424 576 
C 2938 275 2566 102 2016 -64 
C 2170 -211 2234 -301 2330 -486 
C 3181 -160 3757 166 4358 666 
C 4806 173 5286 -198 5818 -480 
C 5933 -256 5946 -237 6106 -32 
C 5549 224 5165 493 4704 973 
C 5037 1286 5344 1645 5632 2048 
C 5766 2240 5786 2259 5837 2330 
L 5402 2598 
z
M 4832 3699 
C 4710 3366 4371 2899 3910 2419 
C 3699 2637 3629 2701 3424 2886 
C 3738 3251 3885 3482 4160 4026 
L 5408 4026 
C 5670 4026 5888 4013 6074 3987 
L 6074 4506 
C 5894 4480 5702 4467 5408 4467 
L 4275 4467 
L 4275 4819 
C 4275 5024 4282 5146 4314 5299 
L 3757 5299 
C 3789 5178 3795 5056 3795 4826 
L 3795 4467 
L 3014 4467 
C 2701 4467 2547 4474 2355 4499 
L 2355 3994 
C 2554 4019 2701 4026 3021 4026 
L 3629 4026 
C 3482 3680 3328 3430 3098 3162 
C 2982 3251 2912 3302 2733 3437 
L 2426 3098 
C 2944 2726 3219 2490 3565 2106 
C 3110 1722 2682 1466 2131 1254 
C 2278 1114 2336 1037 2445 851 
C 2925 1062 3309 1293 3706 1613 
C 4243 2042 4646 2496 5082 3155 
C 5178 3302 5222 3366 5286 3450 
L 4832 3699 
z
M 1901 3693 
C 2042 3693 2163 3686 2278 3674 
L 2278 4141 
C 2163 4122 2067 4115 1894 4115 
L 1683 4115 
L 1683 4710 
C 1683 5011 1696 5203 1715 5363 
L 1184 5363 
C 1210 5216 1216 5050 1216 4704 
L 1216 4115 
L 800 4115 
C 627 4115 493 4128 358 4147 
L 358 3661 
C 493 3680 640 3693 800 3693 
L 1152 3693 
C 979 2886 621 2080 198 1542 
C 314 1402 384 1286 480 1069 
C 845 1632 1043 2099 1261 2893 
C 1235 2502 1222 2125 1222 1920 
L 1222 250 
C 1222 -96 1210 -307 1178 -506 
L 1722 -506 
C 1696 -326 1683 -90 1683 250 
L 1683 2074 
C 1683 2310 1677 2541 1664 3072 
C 1830 2605 1946 2368 2208 1978 
C 2285 2170 2330 2240 2445 2419 
C 2112 2803 1869 3213 1702 3693 
L 1901 3693 
z
" transform="scale(0.015625)"/>
     </defs>
     <use xlink:href="#HiraginoSans-W4-6838"/>
    </g>
   </g>
   <g id="text_8">
    <!-- $\operatorname{im} f$ -->
    <g style="fill: #1e293b" transform="translate(109.95 251.236334) scale(0.1 -0.1)">
     <defs>
      <path id="DejaVuSans-69" d="M 603 3500 
L 1178 3500 
L 1178 0 
L 603 0 
L 603 3500 
z
M 603 4863 
L 1178 4863 
L 1178 4134 
L 603 4134 
L 603 4863 
z
" transform="scale(0.015625)"/>
      <path id="DejaVuSans-6d" d="M 3328 2828 
Q 3544 3216 3844 3400 
Q 4144 3584 4550 3584 
Q 5097 3584 5394 3201 
Q 5691 2819 5691 2113 
L 5691 0 
L 5113 0 
L 5113 2094 
Q 5113 2597 4934 2840 
Q 4756 3084 4391 3084 
Q 3944 3084 3684 2787 
Q 3425 2491 3425 1978 
L 3425 0 
L 2847 0 
L 2847 2094 
Q 2847 2600 2669 2842 
Q 2491 3084 2119 3084 
Q 1678 3084 1418 2786 
Q 1159 2488 1159 1978 
L 1159 0 
L 581 0 
L 581 3500 
L 1159 3500 
L 1159 2956 
Q 1356 3278 1631 3431 
Q 1906 3584 2284 3584 
Q 2666 3584 2933 3390 
Q 3200 3197 3328 2828 
z
" transform="scale(0.015625)"/>
     </defs>
     <use xlink:href="#DejaVuSans-69" transform="translate(0 0.015625)"/>
     <use xlink:href="#DejaVuSans-6d" transform="translate(27.783203 0.015625)"/>
     <use xlink:href="#DejaVuSans-Oblique-66" transform="translate(141.430989 0.015625)"/>
    </g>
   </g>
   <g id="text_9">
    <!-- LinearMap.range f -->
    <g style="fill: #2563eb" transform="translate(323.844609 250.859146) scale(0.09 -0.09)">
     <defs>
      <path id="DejaVuSansMono-67" d="M 2681 1778 
Q 2681 2425 2470 2761 
Q 2259 3097 1856 3097 
Q 1434 3097 1212 2761 
Q 991 2425 991 1778 
Q 991 1131 1214 792 
Q 1438 453 1863 453 
Q 2259 453 2470 793 
Q 2681 1134 2681 1778 
z
M 3256 225 
Q 3256 -563 2884 -969 
Q 2513 -1375 1791 -1375 
Q 1553 -1375 1293 -1331 
Q 1034 -1288 775 -1203 
L 775 -634 
Q 1081 -778 1331 -847 
Q 1581 -916 1791 -916 
Q 2256 -916 2468 -662 
Q 2681 -409 2681 141 
L 2681 166 
L 2681 556 
Q 2544 263 2306 119 
Q 2069 -25 1728 -25 
Q 1116 -25 750 465 
Q 384 956 384 1778 
Q 384 2603 750 3093 
Q 1116 3584 1728 3584 
Q 2066 3584 2300 3450 
Q 2534 3316 2681 3034 
L 2681 3488 
L 3256 3488 
L 3256 225 
z
" transform="scale(0.015625)"/>
     </defs>
     <use xlink:href="#DejaVuSansMono-4c"/>
     <use xlink:href="#DejaVuSansMono-69" transform="translate(60.205078 0)"/>
     <use xlink:href="#DejaVuSansMono-6e" transform="translate(120.410156 0)"/>
     <use xlink:href="#DejaVuSansMono-65" transform="translate(180.615234 0)"/>
     <use xlink:href="#DejaVuSansMono-61" transform="translate(240.820312 0)"/>
     <use xlink:href="#DejaVuSansMono-72" transform="translate(301.025391 0)"/>
     <use xlink:href="#DejaVuSansMono-4d" transform="translate(361.230469 0)"/>
     <use xlink:href="#DejaVuSansMono-61" transform="translate(421.435547 0)"/>
     <use xlink:href="#DejaVuSansMono-70" transform="translate(481.640625 0)"/>
     <use xlink:href="#DejaVuSansMono-2e" transform="translate(541.845703 0)"/>
     <use xlink:href="#DejaVuSansMono-72" transform="translate(602.050781 0)"/>
     <use xlink:href="#DejaVuSansMono-61" transform="translate(662.255859 0)"/>
     <use xlink:href="#DejaVuSansMono-6e" transform="translate(722.460938 0)"/>
     <use xlink:href="#DejaVuSansMono-67" transform="translate(782.666016 0)"/>
     <use xlink:href="#DejaVuSansMono-65" transform="translate(842.871094 0)"/>
     <use xlink:href="#DejaVuSansMono-20" transform="translate(903.076172 0)"/>
     <use xlink:href="#DejaVuSansMono-66" transform="translate(963.28125 0)"/>
    </g>
   </g>
   <g id="text_10">
    <!-- 像 -->
    <g style="fill: #64748b" transform="translate(549.54 250.953365) scale(0.09 -0.09)">
     <use xlink:href="#HiraginoSans-W4-50cf"/>
    </g>
   </g>
   <g id="text_11">
    <!-- $\dim V$ -->
    <g style="fill: #1e293b" transform="translate(105.1 310.940949) scale(0.1 -0.1)">
     <defs>
      <path id="DejaVuSans-64" d="M 2906 2969 
L 2906 4863 
L 3481 4863 
L 3481 0 
L 2906 0 
L 2906 525 
Q 2725 213 2448 61 
Q 2172 -91 1784 -91 
Q 1150 -91 751 415 
Q 353 922 353 1747 
Q 353 2572 751 3078 
Q 1150 3584 1784 3584 
Q 2172 3584 2448 3432 
Q 2725 3281 2906 2969 
z
M 947 1747 
Q 947 1113 1208 752 
Q 1469 391 1925 391 
Q 2381 391 2643 752 
Q 2906 1113 2906 1747 
Q 2906 2381 2643 2742 
Q 2381 3103 1925 3103 
Q 1469 3103 1208 2742 
Q 947 2381 947 1747 
z
" transform="scale(0.015625)"/>
     </defs>
     <use xlink:href="#DejaVuSans-64" transform="translate(0 0.015625)"/>
     <use xlink:href="#DejaVuSans-69" transform="translate(63.476562 0.015625)"/>
     <use xlink:href="#DejaVuSans-6d" transform="translate(91.259766 0.015625)"/>
     <use xlink:href="#DejaVuSans-Oblique-56" transform="translate(204.907551 0.015625)"/>
    </g>
   </g>
   <g id="text_12">
    <!-- Module.finrank K V -->
    <g style="fill: #2563eb" transform="translate(321.135469 310.618605) scale(0.09 -0.09)">
     <defs>
      <path id="DejaVuSansMono-6f" d="M 1925 3097 
Q 1488 3097 1263 2756 
Q 1038 2416 1038 1747 
Q 1038 1081 1263 739 
Q 1488 397 1925 397 
Q 2366 397 2591 739 
Q 2816 1081 2816 1747 
Q 2816 2416 2591 2756 
Q 2366 3097 1925 3097 
z
M 1925 3584 
Q 2653 3584 3039 3112 
Q 3425 2641 3425 1747 
Q 3425 850 3040 379 
Q 2656 -91 1925 -91 
Q 1197 -91 812 379 
Q 428 850 428 1747 
Q 428 2641 812 3112 
Q 1197 3584 1925 3584 
z
" transform="scale(0.015625)"/>
      <path id="DejaVuSansMono-64" d="M 2681 3053 
L 2681 4863 
L 3256 4863 
L 3256 0 
L 2681 0 
L 2681 441 
Q 2538 181 2298 45 
Q 2059 -91 1747 -91 
Q 1113 -91 748 401 
Q 384 894 384 1759 
Q 384 2613 750 3098 
Q 1116 3584 1747 3584 
Q 2063 3584 2303 3448 
Q 2544 3313 2681 3053 
z
M 991 1747 
Q 991 1078 1203 737 
Q 1416 397 1831 397 
Q 2247 397 2464 740 
Q 2681 1084 2681 1747 
Q 2681 2413 2464 2755 
Q 2247 3097 1831 3097 
Q 1416 3097 1203 2756 
Q 991 2416 991 1747 
z
" transform="scale(0.015625)"/>
      <path id="DejaVuSansMono-75" d="M 609 1325 
L 609 3494 
L 1184 3494 
L 1184 1325 
Q 1184 853 1351 631 
Q 1519 409 1869 409 
Q 2275 409 2490 695 
Q 2706 981 2706 1516 
L 2706 3494 
L 3284 3494 
L 3284 0 
L 2706 0 
L 2706 525 
Q 2553 222 2289 65 
Q 2025 -91 1672 -91 
Q 1134 -91 871 261 
Q 609 613 609 1325 
z
" transform="scale(0.015625)"/>
      <path id="DejaVuSansMono-6c" d="M 1997 1269 
Q 1997 881 2139 684 
Q 2281 488 2559 488 
L 3231 488 
L 3231 0 
L 2503 0 
Q 1988 0 1705 331 
Q 1422 663 1422 1269 
L 1422 4447 
L 500 4447 
L 500 4897 
L 1997 4897 
L 1997 1269 
z
" transform="scale(0.015625)"/>
     </defs>
     <use xlink:href="#DejaVuSansMono-4d"/>
     <use xlink:href="#DejaVuSansMono-6f" transform="translate(60.205078 0)"/>
     <use xlink:href="#DejaVuSansMono-64" transform="translate(120.410156 0)"/>
     <use xlink:href="#DejaVuSansMono-75" transform="translate(180.615234 0)"/>
     <use xlink:href="#DejaVuSansMono-6c" transform="translate(240.820312 0)"/>
     <use xlink:href="#DejaVuSansMono-65" transform="translate(301.025391 0)"/>
     <use xlink:href="#DejaVuSansMono-2e" transform="translate(361.230469 0)"/>
     <use xlink:href="#DejaVuSansMono-66" transform="translate(421.435547 0)"/>
     <use xlink:href="#DejaVuSansMono-69" transform="translate(481.640625 0)"/>
     <use xlink:href="#DejaVuSansMono-6e" transform="translate(541.845703 0)"/>
     <use xlink:href="#DejaVuSansMono-72" transform="translate(602.050781 0)"/>
     <use xlink:href="#DejaVuSansMono-61" transform="translate(662.255859 0)"/>
     <use xlink:href="#DejaVuSansMono-6e" transform="translate(722.460938 0)"/>
     <use xlink:href="#DejaVuSansMono-6b" transform="translate(782.666016 0)"/>
     <use xlink:href="#DejaVuSansMono-20" transform="translate(842.871094 0)"/>
     <use xlink:href="#DejaVuSansMono-4b" transform="translate(903.076172 0)"/>
     <use xlink:href="#DejaVuSansMono-20" transform="translate(963.28125 0)"/>
     <use xlink:href="#DejaVuSansMono-56" transform="translate(1023.486328 0)"/>
    </g>
   </g>
   <g id="text_13">
    <!-- 次元 -->
    <g style="fill: #64748b" transform="translate(545.04 310.65798) scale(0.09 -0.09)">
     <defs>
      <path id="HiraginoSans-W4-6b21" d="M 3194 4346 
C 3251 4512 3277 4582 3360 4800 
C 3437 5024 3462 5082 3501 5203 
L 2950 5312 
C 2899 4947 2797 4614 2605 4186 
C 2387 3693 2080 3251 1709 2893 
C 1901 2771 2010 2669 2099 2541 
C 2541 3072 2739 3366 2995 3904 
L 5350 3904 
C 5126 3386 4890 3059 4448 2656 
C 4646 2554 4742 2490 4877 2368 
C 5267 2797 5517 3168 5818 3789 
C 5907 3968 5920 3987 5971 4083 
L 5683 4384 
C 5517 4358 5338 4346 5050 4346 
L 3194 4346 
z
M 422 4659 
C 915 4288 1139 4070 1536 3597 
L 1920 3968 
C 1530 4390 1280 4614 806 4986 
L 422 4659 
z
M 1914 2336 
C 1517 1888 1299 1696 813 1331 
C 538 1120 403 1037 250 973 
L 589 467 
C 646 525 685 557 806 653 
C 1325 1056 1824 1510 2189 1914 
L 1914 2336 
z
M 3366 3558 
C 3386 3456 3392 3379 3392 3283 
C 3392 2355 3174 1626 2714 1024 
C 2355 557 1926 243 1267 -13 
C 1402 -154 1491 -275 1581 -442 
C 2246 -141 2701 205 3066 685 
C 3354 1069 3558 1536 3661 2074 
C 3795 1485 4045 1005 4448 570 
C 4813 173 5210 -115 5811 -429 
C 5901 -243 5990 -109 6125 51 
C 5408 339 4909 698 4525 1203 
C 4090 1773 3891 2419 3891 3251 
C 3891 3386 3898 3469 3917 3558 
L 3366 3558 
z
" transform="scale(0.015625)"/>
      <path id="HiraginoSans-W4-5143" d="M 2022 2938 
C 2003 1997 1926 1542 1715 1120 
C 1466 634 1062 294 307 -58 
C 454 -179 563 -314 678 -506 
C 986 -333 1126 -250 1286 -134 
C 1645 122 1907 410 2106 762 
C 2400 1299 2515 1875 2541 2938 
L 3642 2938 
L 3642 218 
C 3642 0 3674 -102 3776 -179 
C 3917 -282 4179 -326 4659 -326 
C 5926 -326 5971 -282 6106 1126 
C 5920 1165 5798 1210 5613 1312 
C 5587 819 5549 493 5498 358 
C 5434 192 5299 154 4736 154 
C 4243 154 4154 186 4154 365 
L 4154 2938 
L 5344 2938 
C 5619 2938 5824 2925 6022 2899 
L 6022 3450 
C 5824 3424 5638 3411 5344 3411 
L 1043 3411 
C 755 3411 570 3424 371 3450 
L 371 2899 
C 563 2925 768 2938 1043 2938 
L 2022 2938 
z
M 5434 4998 
C 5280 4973 5101 4960 4781 4960 
L 1645 4960 
C 1338 4960 1146 4973 998 4998 
L 998 4435 
C 1158 4461 1344 4474 1638 4474 
L 4794 4474 
C 5075 4474 5274 4461 5434 4435 
L 5434 4998 
z
" transform="scale(0.015625)"/>
     </defs>
     <use xlink:href="#HiraginoSans-W4-6b21"/>
     <use xlink:href="#HiraginoSans-W4-5143" transform="translate(99.999985 0)"/>
    </g>
   </g>
   <g id="text_14">
    <!-- $\dim(\ker f) + \dim(\operatorname{im} f)$ -->
    <g style="fill: #1e293b" transform="translate(66.55 364.994939) scale(0.1 -0.1)">
     <defs>
      <path id="DejaVuSans-28" d="M 1984 4856 
Q 1566 4138 1362 3434 
Q 1159 2731 1159 2009 
Q 1159 1288 1364 580 
Q 1569 -128 1984 -844 
L 1484 -844 
Q 1016 -109 783 600 
Q 550 1309 550 2009 
Q 550 2706 781 3412 
Q 1013 4119 1484 4856 
L 1984 4856 
z
" transform="scale(0.015625)"/>
      <path id="DejaVuSans-29" d="M 513 4856 
L 1013 4856 
Q 1481 4119 1714 3412 
Q 1947 2706 1947 2009 
Q 1947 1309 1714 600 
Q 1481 -109 1013 -844 
L 513 -844 
Q 928 -128 1133 580 
Q 1338 1288 1338 2009 
Q 1338 2731 1133 3434 
Q 928 4138 513 4856 
z
" transform="scale(0.015625)"/>
      <path id="DejaVuSans-2b" d="M 2944 4013 
L 2944 2272 
L 4684 2272 
L 4684 1741 
L 2944 1741 
L 2944 0 
L 2419 0 
L 2419 1741 
L 678 1741 
L 678 2272 
L 2419 2272 
L 2419 4013 
L 2944 4013 
z
" transform="scale(0.015625)"/>
     </defs>
     <use xlink:href="#DejaVuSans-64" transform="translate(0 0.015625)"/>
     <use xlink:href="#DejaVuSans-69" transform="translate(63.476562 0.015625)"/>
     <use xlink:href="#DejaVuSans-6d" transform="translate(91.259766 0.015625)"/>
     <use xlink:href="#DejaVuSans-28" transform="translate(188.671875 0.015625)"/>
     <use xlink:href="#DejaVuSans-6b" transform="translate(227.685547 0.015625)"/>
     <use xlink:href="#DejaVuSans-65" transform="translate(285.595703 0.015625)"/>
     <use xlink:href="#DejaVuSans-72" transform="translate(347.119141 0.015625)"/>
     <use xlink:href="#DejaVuSans-Oblique-66" transform="translate(404.468098 0.015625)"/>
     <use xlink:href="#DejaVuSans-29" transform="translate(439.673176 0.015625)"/>
     <use xlink:href="#DejaVuSans-2b" transform="translate(498.16927 0.015625)"/>
     <use xlink:href="#DejaVuSans-64" transform="translate(601.440754 0.015625)"/>
     <use xlink:href="#DejaVuSans-69" transform="translate(664.917317 0.015625)"/>
     <use xlink:href="#DejaVuSans-6d" transform="translate(692.70052 0.015625)"/>
     <use xlink:href="#DejaVuSans-28" transform="translate(790.112629 0.015625)"/>
     <use xlink:href="#DejaVuSans-69" transform="translate(829.126301 0.015625)"/>
     <use xlink:href="#DejaVuSans-6d" transform="translate(856.909504 0.015625)"/>
     <use xlink:href="#DejaVuSans-Oblique-66" transform="translate(970.55729 0.015625)"/>
     <use xlink:href="#DejaVuSans-29" transform="translate(1005.762368 0.015625)"/>
    </g>
    <!-- $= \dim V$ -->
    <g style="fill: #1e293b" transform="translate(98.95 376.296189) scale(0.1 -0.1)">
     <defs>
      <path id="DejaVuSans-3d" d="M 678 2906 
L 4684 2906 
L 4684 2381 
L 678 2381 
L 678 2906 
z
M 678 1631 
L 4684 1631 
L 4684 1100 
L 678 1100 
L 678 1631 
z
" transform="scale(0.015625)"/>
     </defs>
     <use xlink:href="#DejaVuSans-3d" transform="translate(19.482422 0.015625)"/>
     <use xlink:href="#DejaVuSans-64" transform="translate(122.753906 0.015625)"/>
     <use xlink:href="#DejaVuSans-69" transform="translate(186.230469 0.015625)"/>
     <use xlink:href="#DejaVuSans-6d" transform="translate(214.013672 0.015625)"/>
     <use xlink:href="#DejaVuSans-Oblique-56" transform="translate(327.661458 0.015625)"/>
    </g>
   </g>
   <g id="text_15">
    <!-- LinearMap.finrank_range_add -->
    <g style="fill: #2563eb" transform="translate(296.753203 364.981299) scale(0.09 -0.09)">
     <defs>
      <path id="DejaVuSansMono-5f" d="M 3853 -1259 
L 3853 -1509 
L 0 -1509 
L 0 -1259 
L 3853 -1259 
z
" transform="scale(0.015625)"/>
     </defs>
     <use xlink:href="#DejaVuSansMono-4c"/>
     <use xlink:href="#DejaVuSansMono-69" transform="translate(60.205078 0)"/>
     <use xlink:href="#DejaVuSansMono-6e" transform="translate(120.410156 0)"/>
     <use xlink:href="#DejaVuSansMono-65" transform="translate(180.615234 0)"/>
     <use xlink:href="#DejaVuSansMono-61" transform="translate(240.820312 0)"/>
     <use xlink:href="#DejaVuSansMono-72" transform="translate(301.025391 0)"/>
     <use xlink:href="#DejaVuSansMono-4d" transform="translate(361.230469 0)"/>
     <use xlink:href="#DejaVuSansMono-61" transform="translate(421.435547 0)"/>
     <use xlink:href="#DejaVuSansMono-70" transform="translate(481.640625 0)"/>
     <use xlink:href="#DejaVuSansMono-2e" transform="translate(541.845703 0)"/>
     <use xlink:href="#DejaVuSansMono-66" transform="translate(602.050781 0)"/>
     <use xlink:href="#DejaVuSansMono-69" transform="translate(662.255859 0)"/>
     <use xlink:href="#DejaVuSansMono-6e" transform="translate(722.460938 0)"/>
     <use xlink:href="#DejaVuSansMono-72" transform="translate(782.666016 0)"/>
     <use xlink:href="#DejaVuSansMono-61" transform="translate(842.871094 0)"/>
     <use xlink:href="#DejaVuSansMono-6e" transform="translate(903.076172 0)"/>
     <use xlink:href="#DejaVuSansMono-6b" transform="translate(963.28125 0)"/>
     <use xlink:href="#DejaVuSansMono-5f" transform="translate(1023.486328 0)"/>
     <use xlink:href="#DejaVuSansMono-72" transform="translate(1083.691406 0)"/>
     <use xlink:href="#DejaVuSansMono-61" transform="translate(1143.896484 0)"/>
     <use xlink:href="#DejaVuSansMono-6e" transform="translate(1204.101562 0)"/>
     <use xlink:href="#DejaVuSansMono-67" transform="translate(1264.306641 0)"/>
     <use xlink:href="#DejaVuSansMono-65" transform="translate(1324.511719 0)"/>
     <use xlink:href="#DejaVuSansMono-5f" transform="translate(1384.716797 0)"/>
     <use xlink:href="#DejaVuSansMono-61" transform="translate(1444.921875 0)"/>
     <use xlink:href="#DejaVuSansMono-64" transform="translate(1505.126953 0)"/>
     <use xlink:href="#DejaVuSansMono-64" transform="translate(1565.332031 0)"/>
    </g>
    <!-- _finrank_ker -->
    <g style="fill: #2563eb" transform="translate(337.390313 375.367018) scale(0.09 -0.09)">
     <use xlink:href="#DejaVuSansMono-5f"/>
     <use xlink:href="#DejaVuSansMono-66" transform="translate(60.205078 0)"/>
     <use xlink:href="#DejaVuSansMono-69" transform="translate(120.410156 0)"/>
     <use xlink:href="#DejaVuSansMono-6e" transform="translate(180.615234 0)"/>
     <use xlink:href="#DejaVuSansMono-72" transform="translate(240.820312 0)"/>
     <use xlink:href="#DejaVuSansMono-61" transform="translate(301.025391 0)"/>
     <use xlink:href="#DejaVuSansMono-6e" transform="translate(361.230469 0)"/>
     <use xlink:href="#DejaVuSansMono-6b" transform="translate(421.435547 0)"/>
     <use xlink:href="#DejaVuSansMono-5f" transform="translate(481.640625 0)"/>
     <use xlink:href="#DejaVuSansMono-6b" transform="translate(541.845703 0)"/>
     <use xlink:href="#DejaVuSansMono-65" transform="translate(602.050781 0)"/>
     <use xlink:href="#DejaVuSansMono-72" transform="translate(662.255859 0)"/>
    </g>
   </g>
   <g id="text_16">
    <!-- 次元定理 -->
    <g style="fill: #64748b" transform="translate(536.04 370.362596) scale(0.09 -0.09)">
     <defs>
      <path id="HiraginoSans-W4-5b9a" d="M 3008 410 
C 2445 627 2144 902 1869 1440 
C 1939 1683 2029 2003 2042 2093 
C 2099 2342 2099 2342 2125 2438 
L 1600 2541 
C 1600 2522 1600 2509 1600 2496 
C 1600 2150 1414 1466 1197 1030 
C 979 589 781 326 352 -83 
C 570 -230 621 -282 749 -448 
C 1203 38 1440 384 1696 954 
C 2163 102 3040 -262 4608 -262 
C 5216 -262 5370 -262 5850 -243 
C 5888 -19 5920 90 6003 282 
C 5440 237 4998 218 4518 218 
C 4096 218 3789 237 3482 282 
L 3482 1613 
L 4704 1613 
C 4973 1613 5139 1606 5325 1581 
L 5325 2086 
C 5165 2061 4979 2048 4704 2048 
L 3482 2048 
L 3482 3034 
L 4518 3034 
C 4800 3034 4986 3021 5158 2995 
L 5158 3507 
C 4986 3482 4794 3469 4518 3469 
L 1926 3469 
C 1651 3469 1459 3482 1293 3507 
L 1293 2995 
C 1466 3021 1651 3034 1926 3034 
L 3008 3034 
L 3008 410 
z
M 2906 4621 
L 1184 4621 
C 934 4621 736 4627 525 4646 
C 538 4531 550 4365 550 4205 
L 550 3776 
C 550 3565 544 3462 518 3302 
L 1024 3302 
L 1024 4173 
L 5402 4173 
L 5402 3302 
L 5894 3302 
C 5875 3443 5869 3584 5869 3770 
L 5869 4205 
C 5869 4378 5875 4506 5894 4646 
C 5677 4627 5485 4621 5235 4621 
L 3405 4621 
L 3405 4909 
C 3405 5062 3411 5178 3443 5312 
L 2861 5312 
C 2893 5152 2906 5062 2906 4909 
L 2906 4621 
z
" transform="scale(0.015625)"/>
      <path id="HiraginoSans-W4-7406" d="M 3936 179 
L 2656 179 
C 2342 179 2202 186 2035 211 
L 2035 -288 
C 2240 -262 2381 -256 2701 -256 
L 5517 -256 
C 5837 -256 5978 -262 6176 -288 
L 6176 211 
C 6010 186 5850 179 5536 179 
L 4390 179 
L 4390 1037 
L 5306 1037 
C 5613 1037 5760 1030 5939 1005 
L 5939 1498 
C 5760 1472 5619 1466 5306 1466 
L 4390 1466 
L 4390 2138 
L 5120 2138 
C 5485 2138 5638 2131 5869 2112 
C 5850 2291 5843 2522 5843 2944 
L 5843 4256 
C 5843 4634 5850 4896 5869 5082 
C 5696 5056 5510 5050 5050 5050 
L 3341 5050 
C 2912 5050 2707 5056 2502 5082 
C 2528 4877 2534 4672 2534 4256 
L 2534 2867 
C 2528 2259 2528 2259 2509 2112 
C 2688 2131 2893 2138 3296 2138 
L 3936 2138 
L 3936 1466 
L 3123 1466 
C 2803 1466 2656 1472 2502 1498 
L 2502 1005 
C 2669 1030 2810 1037 3130 1037 
L 3936 1037 
L 3936 179 
z
M 3936 4627 
L 3936 3795 
L 2982 3795 
L 2982 4627 
L 3936 4627 
z
M 4390 4627 
L 5389 4627 
L 5389 3795 
L 4390 3795 
L 4390 4627 
z
M 3936 3379 
L 3936 2560 
L 2982 2560 
L 2982 3379 
L 3936 3379 
z
M 4390 3379 
L 5389 3379 
L 5389 2560 
L 4390 2560 
L 4390 3379 
z
M 1107 4557 
L 1107 3123 
L 813 3123 
C 621 3123 518 3130 371 3155 
L 371 2675 
C 518 2701 634 2707 806 2707 
L 1107 2707 
L 1107 998 
C 672 838 474 774 250 730 
L 390 205 
C 467 243 493 256 646 314 
C 1517 659 1741 755 2317 1037 
L 2291 1517 
C 1952 1350 1837 1293 1574 1184 
L 1574 2707 
L 1798 2707 
C 1958 2707 2086 2701 2221 2682 
L 2221 3155 
C 2080 3130 1978 3123 1798 3123 
L 1574 3123 
L 1574 4557 
L 1856 4557 
C 2054 4557 2176 4550 2342 4531 
L 2342 5030 
C 2182 4998 2048 4992 1805 4992 
L 851 4992 
C 595 4992 448 5005 294 5030 
L 294 4525 
C 480 4550 550 4557 800 4557 
L 1107 4557 
z
" transform="scale(0.015625)"/>
     </defs>
     <use xlink:href="#HiraginoSans-W4-6b21"/>
     <use xlink:href="#HiraginoSans-W4-5143" transform="translate(99.999985 0)"/>
     <use xlink:href="#HiraginoSans-W4-5b9a" transform="translate(199.999969 0)"/>
     <use xlink:href="#HiraginoSans-W4-7406" transform="translate(299.999954 0)"/>
    </g>
   </g>
   <g id="text_17">
    <!-- 数学の記法 -->
    <g style="fill: #ffffff" transform="translate(92.55 74.443047) scale(0.105 -0.105)">
     <defs>
      <path id="HiraginoSans-W7-8a18" d="M 480 4582 
C 653 4595 794 4602 1037 4602 
L 2170 4602 
C 2419 4602 2560 4595 2726 4582 
L 2726 5267 
C 2547 5248 2445 5242 2170 5242 
L 1037 5242 
C 762 5242 659 5248 480 5267 
L 480 4582 
z
M 262 3597 
C 416 3616 563 3622 781 3622 
L 2445 3622 
C 2726 3622 2810 3616 2938 3603 
L 2938 4352 
C 2784 4333 2688 4326 2419 4326 
L 781 4326 
C 538 4326 416 4333 262 4358 
L 262 3597 
z
M 499 2688 
C 621 2707 691 2707 902 2707 
L 2342 2707 
C 2541 2707 2586 2707 2733 2688 
L 2733 3354 
C 2630 3341 2541 3334 2342 3334 
L 902 3334 
C 698 3334 627 3334 499 3354 
L 499 2688 
z
M 499 1786 
C 621 1798 704 1805 896 1805 
L 2330 1805 
C 2541 1805 2598 1805 2733 1786 
L 2733 2451 
C 2624 2438 2547 2432 2342 2432 
L 902 2432 
C 698 2432 627 2432 499 2451 
L 499 1786 
z
M 1274 -576 
L 1274 -262 
L 1990 -262 
L 1990 -486 
L 2771 -486 
C 2765 -416 2752 -166 2752 -64 
L 2752 1088 
C 2752 1312 2752 1402 2765 1530 
C 2662 1510 2592 1510 2355 1510 
L 960 1510 
C 704 1510 634 1510 480 1530 
C 499 1370 506 1235 506 1037 
L 506 51 
C 506 -166 493 -371 474 -576 
L 1274 -576 
z
M 1254 896 
L 1997 896 
L 1997 397 
L 1254 397 
L 1254 896 
z
M 3898 2426 
L 5274 2426 
C 5568 2426 5709 2419 5920 2394 
C 5901 2598 5894 2765 5894 3040 
L 5894 4557 
C 5894 4845 5901 4941 5920 5216 
C 5722 5190 5549 5184 5242 5184 
L 3693 5184 
C 3405 5184 3200 5197 2989 5222 
L 2989 4371 
C 3200 4397 3398 4410 3693 4410 
L 5056 4410 
L 5056 3181 
L 3680 3181 
C 3392 3181 3238 3187 3034 3206 
C 3053 2995 3059 2899 3059 2573 
L 3059 269 
C 3059 -307 3302 -429 4474 -429 
C 5344 -429 5696 -358 5875 -147 
C 6074 90 6150 448 6202 1261 
C 5920 1312 5664 1389 5363 1523 
C 5350 826 5318 563 5235 480 
C 5139 384 4979 352 4538 352 
C 4326 352 4160 365 4070 384 
C 3923 410 3898 442 3898 576 
L 3898 2426 
z
" transform="scale(0.015625)"/>
      <path id="HiraginoSans-W7-6cd5" d="M 1907 -397 
C 2138 -352 2266 -333 2950 -262 
C 3923 -160 4282 -109 5178 58 
C 5280 -147 5318 -230 5446 -506 
L 6208 -51 
C 5651 934 5478 1203 4954 1907 
L 4256 1549 
C 4525 1184 4627 1030 4806 730 
C 4352 653 4352 653 3334 557 
C 3667 1203 3757 1408 4019 2112 
L 5466 2112 
C 5728 2112 5978 2099 6170 2074 
L 6170 2938 
C 5958 2912 5734 2899 5459 2899 
L 4333 2899 
L 4333 3738 
L 5274 3738 
C 5594 3738 5779 3731 5958 3706 
L 5958 4550 
C 5754 4525 5555 4512 5267 4512 
L 4333 4512 
L 4333 4710 
C 4333 5075 4339 5222 4365 5402 
L 3456 5402 
C 3482 5229 3488 5075 3488 4710 
L 3488 4512 
L 2803 4512 
C 2490 4512 2266 4525 2093 4550 
L 2093 3706 
C 2310 3725 2534 3738 2797 3738 
L 3488 3738 
L 3488 2899 
L 2579 2899 
C 2266 2899 2042 2912 1850 2938 
L 1850 2074 
C 2067 2099 2304 2112 2573 2112 
L 3130 2112 
C 2944 1542 2707 1018 2406 493 
C 2202 486 2080 480 1971 480 
C 1907 480 1856 480 1754 486 
L 1907 -397 
z
M 429 4800 
C 870 4518 1190 4262 1555 3910 
L 2080 4576 
C 1664 4928 1408 5114 947 5389 
L 429 4800 
z
M 186 3174 
C 640 2906 909 2701 1350 2323 
L 1830 3027 
C 1363 3392 1120 3552 666 3808 
L 186 3174 
z
M 1114 2054 
C 800 1158 429 358 205 122 
L 947 -518 
C 986 -435 992 -429 1094 -198 
C 1107 -160 1158 -58 1222 90 
C 1453 595 1542 826 1811 1568 
L 1114 2054 
z
" transform="scale(0.015625)"/>
     </defs>
     <use xlink:href="#HiraginoSans-W7-6570"/>
     <use xlink:href="#HiraginoSans-W7-5b66" transform="translate(99.999985 0)"/>
     <use xlink:href="#HiraginoSans-W7-306e" transform="translate(199.999969 0)"/>
     <use xlink:href="#HiraginoSans-W7-8a18" transform="translate(299.999954 0)"/>
     <use xlink:href="#HiraginoSans-W7-6cd5" transform="translate(399.999939 0)"/>
    </g>
   </g>
   <g id="text_18">
    <!-- Lean の記法 -->
    <g style="fill: #ffffff" transform="translate(338.279414 74.443047) scale(0.105 -0.105)">
     <use xlink:href="#HiraginoSans-W7-4c"/>
     <use xlink:href="#HiraginoSans-W7-65" transform="translate(66.299988 0)"/>
     <use xlink:href="#HiraginoSans-W7-61" transform="translate(132.399979 0)"/>
     <use xlink:href="#HiraginoSans-W7-6e" transform="translate(198.799973 0)"/>
     <use xlink:href="#HiraginoSans-W7-20" transform="translate(268.999954 0)"/>
     <use xlink:href="#HiraginoSans-W7-306e" transform="translate(302.299942 0)"/>
     <use xlink:href="#HiraginoSans-W7-8a18" transform="translate(402.299927 0)"/>
     <use xlink:href="#HiraginoSans-W7-6cd5" transform="translate(502.299911 0)"/>
    </g>
   </g>
   <g id="text_19">
    <!-- 意味 -->
    <g style="fill: #ffffff" transform="translate(543.54 74.443047) scale(0.105 -0.105)">
     <defs>
      <path id="HiraginoSans-W7-610f" d="M 1363 5050 
C 1043 5050 851 5062 659 5088 
L 659 4378 
C 851 4397 973 4403 1331 4403 
L 1638 4403 
C 1702 4275 1741 4198 1792 4077 
L 1069 4077 
C 698 4077 499 4083 314 4115 
L 314 3398 
C 499 3424 672 3430 1037 3430 
L 5370 3430 
C 5741 3430 5920 3424 6106 3398 
L 6106 4115 
C 5914 4083 5747 4077 5382 4077 
L 4582 4077 
C 4646 4211 4672 4256 4736 4403 
L 5069 4403 
C 5434 4403 5549 4397 5760 4378 
L 5760 5088 
C 5574 5062 5389 5050 5075 5050 
L 3590 5050 
C 3590 5235 3597 5325 3629 5466 
L 2694 5466 
C 2720 5325 2733 5216 2733 5050 
L 1363 5050 
z
M 2650 4077 
C 2592 4224 2554 4314 2509 4403 
L 3853 4403 
C 3802 4275 3763 4192 3699 4077 
L 2650 4077 
z
M 3098 1216 
L 2720 902 
C 3194 634 3258 595 3539 365 
L 4045 826 
C 3782 992 3610 1094 3347 1216 
L 4954 1216 
C 4986 1216 5037 1216 5107 1210 
C 5165 1210 5216 1210 5248 1210 
C 5395 1203 5395 1203 5459 1203 
C 5440 1402 5434 1542 5434 1734 
L 5434 2650 
C 5434 2931 5440 3085 5459 3232 
C 5280 3213 5165 3213 4774 3213 
L 1626 3213 
C 1267 3213 1107 3219 941 3232 
C 960 3059 966 2912 966 2656 
L 966 1664 
C 966 1434 960 1331 947 1203 
C 1133 1216 1248 1216 1536 1216 
L 3098 1216 
z
M 1773 2682 
L 4627 2682 
L 4627 2458 
L 1773 2458 
L 1773 2682 
z
M 1773 1984 
L 4627 1984 
L 4627 1760 
L 1773 1760 
L 1773 1984 
z
M 2554 576 
C 2554 794 2560 896 2579 1043 
L 1715 1043 
C 1741 909 1747 781 1747 576 
L 1747 -38 
C 1747 -422 1984 -506 3098 -506 
C 4730 -506 4838 -448 4890 512 
C 5133 192 5261 0 5517 -429 
L 6214 45 
C 5933 474 5747 710 5312 1203 
L 4640 819 
C 4742 691 4768 666 4838 570 
C 4525 608 4384 640 4109 749 
C 4109 480 4090 346 4032 282 
C 3974 198 3795 179 3187 179 
C 2938 179 2720 192 2643 211 
C 2573 230 2554 256 2554 320 
L 2554 576 
z
M 877 -486 
C 1248 6 1408 307 1600 832 
L 864 1126 
C 691 653 544 410 173 -13 
L 877 -486 
z
" transform="scale(0.015625)"/>
      <path id="HiraginoSans-W7-5473" d="M 2080 563 
C 1978 493 1939 467 1811 390 
C 2061 160 2208 -13 2381 -269 
C 2707 -26 2918 173 3174 486 
C 3443 800 3552 973 3802 1466 
C 3789 1203 3789 1075 3789 838 
L 3789 77 
C 3789 -166 3776 -365 3750 -557 
L 4621 -557 
C 4595 -365 4589 -173 4589 77 
L 4589 832 
C 4589 1094 4582 1210 4576 1446 
C 4819 845 5248 314 5907 -218 
C 6035 102 6157 326 6342 621 
C 5626 1082 5107 1645 4787 2310 
L 5376 2310 
C 5690 2310 5990 2298 6163 2278 
L 6163 3130 
C 5946 3110 5709 3098 5376 3098 
L 4589 3098 
L 4589 3821 
L 5216 3821 
C 5498 3821 5741 3808 5958 3789 
L 5958 4627 
C 5754 4602 5562 4589 5229 4589 
L 4589 4589 
L 4589 4902 
C 4589 5120 4595 5254 4614 5395 
L 3757 5395 
C 3782 5242 3789 5114 3789 4902 
L 3789 4589 
L 3334 4589 
C 3021 4589 2822 4602 2611 4627 
L 2611 3795 
C 2803 3814 3027 3821 3334 3821 
L 3789 3821 
L 3789 3098 
L 2989 3098 
C 2758 3098 2669 3104 2477 3123 
L 2477 2285 
C 2643 2304 2778 2310 2976 2310 
L 3533 2310 
C 3245 1734 2835 1203 2368 787 
C 2362 1011 2362 1069 2362 1261 
L 2362 4320 
C 2362 4659 2362 4864 2374 4973 
C 2195 4954 2035 4947 1818 4947 
L 966 4947 
C 685 4947 550 4954 378 4973 
C 397 4787 403 4576 403 4294 
L 403 1030 
C 403 659 390 435 371 224 
L 1165 224 
L 1165 864 
L 1626 864 
L 1626 563 
L 2080 563 
z
M 1165 4154 
L 1626 4154 
L 1626 1613 
L 1165 1613 
L 1165 4154 
z
" transform="scale(0.015625)"/>
     </defs>
     <use xlink:href="#HiraginoSans-W7-610f"/>
     <use xlink:href="#HiraginoSans-W7-5473" transform="translate(99.999985 0)"/>
    </g>
   </g>
   <g id="patch_10">
    <path d="M 211.424229 128.997415 
Q 230.400678 128.997415 249.377128 128.997415 
" style="fill: none; stroke: #64748b; stroke-width: 1.2; stroke-linecap: round"/>
    <path d="M 215.424229 130.997415 
L 211.424229 128.997415 
L 215.424229 126.997415 
" style="fill: none; stroke: #64748b; stroke-width: 1.2; stroke-linecap: round"/>
    <path d="M 245.377128 126.997415 
L 249.377128 128.997415 
L 245.377128 130.997415 
" style="fill: none; stroke: #64748b; stroke-width: 1.2; stroke-linecap: round"/>
   </g>
   <g id="patch_11">
    <path d="M 211.424229 188.702031 
Q 230.400678 188.702031 249.377128 188.702031 
" style="fill: none; stroke: #64748b; stroke-width: 1.2; stroke-linecap: round"/>
    <path d="M 215.424229 190.702031 
L 211.424229 188.702031 
L 215.424229 186.702031 
" style="fill: none; stroke: #64748b; stroke-width: 1.2; stroke-linecap: round"/>
    <path d="M 245.377128 186.702031 
L 249.377128 188.702031 
L 245.377128 190.702031 
" style="fill: none; stroke: #64748b; stroke-width: 1.2; stroke-linecap: round"/>
   </g>
   <g id="patch_12">
    <path d="M 211.424229 248.406646 
Q 230.400678 248.406646 249.377128 248.406646 
" style="fill: none; stroke: #64748b; stroke-width: 1.2; stroke-linecap: round"/>
    <path d="M 215.424229 250.406646 
L 211.424229 248.406646 
L 215.424229 246.406646 
" style="fill: none; stroke: #64748b; stroke-width: 1.2; stroke-linecap: round"/>
    <path d="M 245.377128 246.406646 
L 249.377128 248.406646 
L 245.377128 250.406646 
" style="fill: none; stroke: #64748b; stroke-width: 1.2; stroke-linecap: round"/>
   </g>
   <g id="patch_13">
    <path d="M 211.424229 308.111262 
Q 230.400678 308.111262 249.377128 308.111262 
" style="fill: none; stroke: #64748b; stroke-width: 1.2; stroke-linecap: round"/>
    <path d="M 215.424229 310.111262 
L 211.424229 308.111262 
L 215.424229 306.111262 
" style="fill: none; stroke: #64748b; stroke-width: 1.2; stroke-linecap: round"/>
    <path d="M 245.377128 306.111262 
L 249.377128 308.111262 
L 245.377128 310.111262 
" style="fill: none; stroke: #64748b; stroke-width: 1.2; stroke-linecap: round"/>
   </g>
   <g id="patch_14">
    <path d="M 211.424229 367.815877 
Q 230.400678 367.815877 249.377128 367.815877 
" style="fill: none; stroke: #64748b; stroke-width: 1.2; stroke-linecap: round"/>
    <path d="M 215.424229 369.815877 
L 211.424229 367.815877 
L 215.424229 365.815877 
" style="fill: none; stroke: #64748b; stroke-width: 1.2; stroke-linecap: round"/>
    <path d="M 245.377128 365.815877 
L 249.377128 367.815877 
L 245.377128 369.815877 
" style="fill: none; stroke: #64748b; stroke-width: 1.2; stroke-linecap: round"/>
   </g>
  </g>
 </g>
 <defs>
  <clipPath id="p8649ca9e38">
   <rect x="7.2" y="7.2" width="613.8" height="388.08"/>
  </clipPath>
 </defs>
</svg>
