<?xml version="1.0" encoding="utf-8" standalone="no"?>
<!DOCTYPE svg PUBLIC "-//W3C//DTD SVG 1.1//EN"
  "http://www.w3.org/Graphics/SVG/1.1/DTD/svg11.dtd">
<svg xmlns:xlink="http://www.w3.org/1999/xlink" width="402.48pt" height="422.502187pt" viewBox="0 0 402.48 422.502187" xmlns="http://www.w3.org/2000/svg" version="1.1">
 <metadata>
  <rdf:RDF xmlns:dc="http://purl.org/dc/elements/1.1/" xmlns:cc="http://creativecommons.org/ns#" xmlns:rdf="http://www.w3.org/1999/02/22-rdf-syntax-ns#">
   <cc:Work>
    <dc:type rdf:resource="http://purl.org/dc/dcmitype/StillImage"/>
    <dc:date>2026-04-02T01:10:15.775151</dc:date>
    <dc:format>image/svg+xml</dc:format>
    <dc:creator>
     <cc:Agent>
      <dc:title>Matplotlib v3.10.8, https://matplotlib.org/</dc:title>
     </cc:Agent>
    </dc:creator>
   </cc:Work>
  </rdf:RDF>
 </metadata>
 <defs>
  <style type="text/css">*{stroke-linejoin: round; stroke-linecap: butt}</style>
 </defs>
 <g id="figure_1">
  <g id="patch_1">
   <path d="M 0 422.502187 
L 402.48 422.502187 
L 402.48 0 
L 0 0 
z
" style="fill: #ffffff"/>
  </g>
  <g id="axes_1">
   <g id="patch_2">
    <path d="M 201.24 376.494187 
C 242.408008 376.494187 281.895423 360.137965 311.0056 331.027787 
C 340.115777 301.91761 356.472 262.430195 356.472 221.262187 
C 356.472 180.09418 340.115777 140.606765 311.0056 111.496588 
C 281.895423 82.38641 242.408008 66.030187 201.24 66.030187 
C 160.071992 66.030187 120.584577 82.38641 91.4744 111.496588 
C 62.364223 140.606765 46.008 180.09418 46.008 221.262187 
C 46.008 262.430195 62.364223 301.91761 91.4744 331.027787 
C 120.584577 360.137965 160.071992 376.494187 201.24 376.494187 
z
" clip-path="url(#pb514a955d7)" style="fill: #bdd7ee; opacity: 0.5; stroke-dasharray: 5.55,2.4; stroke-dashoffset: 0; stroke: #2e75b6; stroke-width: 1.5; stroke-linejoin: miter"/>
   </g>
   <g id="patch_3">
    <path d="M 201.24 337.686187 
C 232.116006 337.686187 261.731567 325.41902 283.5642 303.586387 
C 305.396833 281.753754 317.664 252.138193 317.664 221.262187 
C 317.664 190.386182 305.396833 160.770621 283.5642 138.937988 
C 261.731567 117.105355 232.116006 104.838187 201.24 104.838187 
C 170.363994 104.838187 140.748433 117.105355 118.9158 138.937988 
C 97.083167 160.770621 84.816 190.386182 84.816 221.262187 
C 84.816 252.138193 97.083167 281.753754 118.9158 303.586387 
C 140.748433 325.41902 170.363994 337.686187 201.24 337.686187 
z
" clip-path="url(#pb514a955d7)" style="fill: #9dc3e6; opacity: 0.5; stroke-dasharray: 5.55,2.4; stroke-dashoffset: 0; stroke: #2e75b6; stroke-width: 1.5; stroke-linejoin: miter"/>
   </g>
   <g id="patch_4">
    <path d="M 201.24 298.878187 
C 221.824004 298.878187 241.567711 290.700076 256.1228 276.144987 
C 270.677889 261.589899 278.856 241.846191 278.856 221.262187 
C 278.856 200.678184 270.677889 180.934476 256.1228 166.379388 
C 241.567711 151.824299 221.824004 143.646187 201.24 143.646187 
C 180.655996 143.646187 160.912289 151.824299 146.3572 166.379388 
C 131.802111 180.934476 123.624 200.678184 123.624 221.262187 
C 123.624 241.846191 131.802111 261.589899 146.3572 276.144987 
C 160.912289 290.700076 180.655996 298.878187 201.24 298.878187 
z
" clip-path="url(#pb514a955d7)" style="fill: #5b9bd5; opacity: 0.5; stroke-dasharray: 5.55,2.4; stroke-dashoffset: 0; stroke: #2e75b6; stroke-width: 1.5; stroke-linejoin: miter"/>
   </g>
   <g id="patch_5">
    <path d="M 201.24 260.070187 
C 211.532002 260.070187 221.403856 255.981132 228.6814 248.703587 
C 235.958944 241.426043 240.048 231.554189 240.048 221.262187 
C 240.048 210.970186 235.958944 201.098332 228.6814 193.820788 
C 221.403856 186.543243 211.532002 182.454187 201.24 182.454187 
C 190.947998 182.454187 181.076144 186.543243 173.7986 193.820788 
C 166.521056 201.098332 162.432 210.970186 162.432 221.262187 
C 162.432 231.554189 166.521056 241.426043 173.7986 248.703587 
C 181.076144 255.981132 190.947998 260.070187 201.24 260.070187 
z
" clip-path="url(#pb514a955d7)" style="fill: #2e75b6; opacity: 0.5; stroke-dasharray: 5.55,2.4; stroke-dashoffset: 0; stroke: #2e75b6; stroke-width: 1.5; stroke-linejoin: miter"/>
   </g>
   <g id="text_1">
    <!-- U（開集合） -->
    <g style="fill: #1f4e79" transform="translate(313.00704 107.650147) scale(0.09 -0.09)">
     <defs>
      <path id="HiraginoSans-W4-55" d="M 3872 4934 
C 3910 4710 3923 4506 3923 4160 
L 3923 1843 
C 3923 934 3430 435 2528 435 
C 1626 435 1126 941 1126 1843 
L 1126 4160 
C 1126 4518 1139 4730 1178 4934 
L 474 4934 
C 512 4717 525 4506 525 4160 
L 525 1824 
C 525 589 1235 -96 2515 -96 
C 3155 -96 3686 90 4019 429 
C 4352 768 4525 1242 4525 1824 
L 4525 4173 
C 4525 4512 4538 4710 4576 4934 
L 3872 4934 
z
" transform="scale(0.015625)"/>
      <path id="HiraginoSans-W4-ff08" d="M 6170 -531 
C 5690 -26 5491 256 5280 698 
C 5024 1235 4902 1805 4902 2432 
C 4902 3059 5024 3629 5280 4166 
C 5491 4608 5690 4890 6170 5395 
L 5517 5395 
C 5139 4947 4966 4685 4774 4275 
C 4499 3686 4365 3085 4365 2432 
C 4365 1779 4499 1178 4774 589 
C 4966 179 5139 -83 5517 -531 
L 6170 -531 
z
" transform="scale(0.015625)"/>
      <path id="HiraginoSans-W4-958b" d="M 2342 2349 
C 2342 2022 2336 1920 2317 1613 
L 2118 1613 
C 1811 1613 1651 1619 1485 1645 
L 1485 1197 
C 1658 1222 1818 1229 2118 1229 
L 2285 1229 
C 2208 659 2016 339 1510 -38 
C 1677 -134 1766 -211 1888 -352 
C 2426 115 2630 512 2714 1229 
L 3610 1229 
L 3610 256 
C 3610 -13 3603 -160 3578 -294 
L 4077 -294 
C 4051 -173 4045 -32 4045 250 
L 4045 1229 
L 4301 1229 
C 4589 1229 4755 1222 4928 1197 
L 4928 1645 
C 4762 1619 4602 1613 4301 1613 
L 4045 1613 
L 4045 2349 
L 4218 2349 
C 4493 2349 4672 2342 4832 2323 
L 4832 2758 
C 4646 2733 4506 2726 4205 2726 
L 2227 2726 
C 1926 2726 1792 2733 1606 2758 
L 1606 2323 
C 1766 2342 1946 2349 2221 2349 
L 2342 2349 
z
M 3610 2349 
L 3610 1613 
L 2752 1613 
C 2771 1933 2771 1990 2771 2349 
L 3610 2349 
z
M 1062 3174 
L 2278 3174 
C 2554 3174 2726 3168 2912 3155 
C 2899 3322 2893 3475 2893 3744 
L 2893 4582 
C 2893 4826 2899 5005 2912 5190 
C 2733 5171 2579 5165 2259 5165 
L 1229 5165 
C 902 5165 736 5171 563 5190 
C 582 4986 589 4800 589 4480 
L 589 275 
C 589 -90 576 -288 550 -467 
L 1101 -467 
C 1075 -301 1062 -90 1062 269 
L 1062 3174 
z
M 1062 4800 
L 2451 4800 
L 2451 4358 
L 1062 4358 
L 1062 4800 
z
M 1062 4000 
L 2451 4000 
L 2451 3539 
L 1062 3539 
L 1062 4000 
z
M 5830 4480 
C 5830 4774 5837 4960 5862 5190 
C 5683 5171 5523 5165 5190 5165 
L 4090 5165 
C 3763 5165 3610 5171 3437 5190 
C 3450 4986 3456 4813 3456 4582 
L 3456 3744 
C 3456 3482 3450 3322 3437 3155 
C 3616 3168 3814 3174 4070 3174 
L 5357 3174 
L 5357 250 
C 5357 102 5312 70 5126 70 
C 4954 70 4672 96 4435 134 
C 4518 -45 4544 -154 4570 -352 
C 4851 -365 5011 -371 5152 -371 
C 5677 -371 5830 -243 5830 211 
L 5830 4480 
z
M 3898 4800 
L 5357 4800 
L 5357 4358 
L 3898 4358 
L 3898 4800 
z
M 3898 4000 
L 5357 4000 
L 5357 3539 
L 3898 3539 
L 3898 4000 
z
" transform="scale(0.015625)"/>
      <path id="HiraginoSans-W4-96c6" d="M 3526 2778 
L 4864 2778 
C 5165 2778 5299 2771 5453 2746 
L 5453 3174 
C 5254 3149 5146 3142 4864 3142 
L 3526 3142 
L 3526 3565 
L 4864 3565 
C 5165 3565 5280 3558 5453 3533 
L 5453 3962 
C 5261 3936 5139 3930 4864 3930 
L 3526 3930 
L 3526 4352 
L 5190 4352 
C 5446 4352 5574 4346 5734 4326 
L 5734 4774 
C 5555 4749 5421 4742 5139 4742 
L 3584 4742 
C 3693 4890 3802 5056 3962 5338 
L 3450 5434 
C 3373 5184 3277 5005 3085 4742 
L 1766 4742 
C 1837 4832 1971 5030 2176 5338 
L 1645 5446 
C 1600 5306 1523 5158 1427 5005 
C 1094 4486 723 4109 205 3744 
C 339 3597 384 3539 486 3341 
C 781 3571 941 3725 1158 3974 
C 1139 3789 1133 3584 1133 3366 
L 1133 2374 
C 1133 2195 1126 2042 1114 1920 
C 1242 1933 1338 1933 1581 1933 
L 2950 1933 
L 2950 1498 
L 1069 1498 
C 704 1498 531 1504 365 1536 
L 365 1050 
C 576 1075 774 1088 1069 1088 
L 2554 1088 
C 2330 890 2093 730 1766 563 
C 1299 326 877 192 262 83 
C 403 -77 467 -186 550 -378 
C 1005 -262 1389 -122 1741 45 
C 2253 294 2598 531 2970 915 
C 2957 819 2950 557 2950 448 
L 2950 -19 
C 2950 -237 2938 -346 2912 -486 
L 3456 -486 
C 3424 -365 3418 -275 3418 -13 
L 3418 448 
C 3418 576 3411 678 3398 922 
C 3789 544 4051 358 4486 128 
C 4915 -96 5286 -243 5843 -403 
C 5946 -179 5990 -109 6125 64 
C 5197 250 4384 608 3802 1088 
L 5325 1088 
C 5626 1088 5830 1075 6048 1050 
L 6048 1536 
C 5875 1504 5696 1498 5325 1498 
L 3418 1498 
L 3418 1933 
L 5165 1933 
C 5453 1933 5581 1926 5760 1901 
L 5760 2336 
C 5587 2310 5446 2304 5165 2304 
L 3526 2304 
L 3526 2778 
z
M 3078 2778 
L 3078 2304 
L 1600 2304 
L 1600 2778 
L 3078 2778 
z
M 3078 3142 
L 1600 3142 
L 1600 3565 
L 3078 3565 
L 3078 3142 
z
M 3078 3930 
L 1600 3930 
L 1600 4352 
L 3078 4352 
L 3078 3930 
z
" transform="scale(0.015625)"/>
      <path id="HiraginoSans-W4-5408" d="M 1677 2899 
C 1824 2918 1990 2925 2189 2925 
L 4186 2925 
C 4429 2925 4595 2918 4736 2899 
L 4736 3411 
C 5178 3104 5498 2918 5958 2701 
C 6042 2899 6112 3014 6234 3187 
C 5626 3424 5056 3750 4518 4186 
C 4019 4582 3731 4890 3456 5318 
L 2893 5318 
C 2630 4883 2381 4595 1926 4211 
C 1402 3763 832 3424 198 3162 
C 358 2989 422 2893 493 2720 
C 966 2938 1203 3078 1677 3398 
L 1677 2899 
z
M 2195 3386 
C 1971 3386 1811 3392 1690 3411 
C 2355 3878 2733 4256 3187 4890 
C 3597 4320 4032 3898 4730 3411 
C 4595 3392 4435 3386 4186 3386 
L 2195 3386 
z
M 1690 -435 
L 1690 -77 
L 4698 -77 
L 4698 -435 
L 5242 -435 
C 5216 -243 5203 -58 5203 205 
L 5203 1645 
C 5203 1901 5210 2067 5235 2240 
C 5101 2221 4960 2214 4723 2214 
L 1664 2214 
C 1427 2214 1286 2221 1152 2240 
C 1178 2061 1184 1888 1184 1645 
L 1184 205 
C 1184 -51 1171 -230 1146 -435 
L 1690 -435 
z
M 1690 1766 
L 4698 1766 
L 4698 371 
L 1690 371 
L 1690 1766 
z
" transform="scale(0.015625)"/>
      <path id="HiraginoSans-W4-ff09" d="M 890 -531 
C 1261 -83 1434 179 1626 589 
C 1901 1178 2035 1773 2035 2432 
C 2035 3091 1901 3686 1626 4275 
C 1434 4685 1261 4947 890 5395 
L 230 5395 
C 710 4890 909 4608 1120 4166 
C 1376 3629 1498 3072 1498 2432 
C 1498 1792 1376 1235 1120 698 
C 909 256 710 -26 230 -531 
L 890 -531 
z
" transform="scale(0.015625)"/>
     </defs>
     <use xlink:href="#HiraginoSans-W4-55"/>
     <use xlink:href="#HiraginoSans-W4-ff08" transform="translate(78.899994 0)"/>
     <use xlink:href="#HiraginoSans-W4-958b" transform="translate(178.899979 0)"/>
     <use xlink:href="#HiraginoSans-W4-96c6" transform="translate(278.899963 0)"/>
     <use xlink:href="#HiraginoSans-W4-5408" transform="translate(378.899948 0)"/>
     <use xlink:href="#HiraginoSans-W4-ff09" transform="translate(478.899933 0)"/>
    </g>
   </g>
   <g id="text_2">
    <!-- B(x, 2ε) -->
    <g style="fill: #1f4e79" transform="translate(285.06528 135.591907) scale(0.09 -0.09)">
     <defs>
      <path id="HiraginoSans-W4-42" d="M 1216 4934 
C 838 4934 672 4941 486 4947 
C 525 4710 538 4518 538 4237 
L 538 794 
C 538 410 525 250 480 -13 
C 717 0 896 0 1216 0 
L 2694 0 
C 3699 0 4269 493 4269 1363 
C 4269 1773 4134 2099 3878 2330 
C 3706 2483 3558 2547 3251 2605 
C 3507 2688 3616 2746 3750 2867 
C 3981 3078 4096 3360 4096 3731 
C 4096 4506 3565 4934 2624 4934 
L 1216 4934 
z
M 1133 2848 
L 1133 4416 
L 2586 4416 
C 3181 4416 3488 4160 3488 3667 
C 3488 3142 3162 2848 2592 2848 
L 1133 2848 
z
M 1133 2336 
L 2611 2336 
C 3296 2336 3648 2022 3648 1421 
C 3648 832 3290 518 2630 518 
L 1133 518 
L 1133 2336 
z
" transform="scale(0.015625)"/>
      <path id="HiraginoSans-W4-28" d="M 2195 -749 
C 1830 -198 1683 90 1542 538 
C 1402 986 1331 1472 1331 1978 
C 1331 2483 1402 2963 1542 3411 
C 1683 3859 1830 4147 2195 4698 
L 1715 5018 
C 1350 4461 1197 4173 1037 3712 
C 838 3155 742 2579 742 1978 
C 742 1376 838 794 1037 243 
C 1197 -218 1350 -512 1715 -1062 
L 2195 -749 
z
" transform="scale(0.015625)"/>
      <path id="HiraginoSans-W4-78" d="M 3469 0 
C 3238 294 3078 512 3008 614 
L 2138 1824 
L 2963 2982 
C 3021 3072 3168 3270 3206 3322 
C 3315 3462 3315 3462 3354 3520 
L 2630 3520 
C 2566 3386 2483 3238 2368 3072 
L 1792 2227 
L 1203 3072 
C 1088 3238 1024 3360 947 3520 
L 211 3520 
C 474 3174 557 3072 608 3002 
L 1440 1830 
L 531 563 
C 422 410 237 160 109 0 
L 858 0 
C 966 205 1018 294 1114 435 
L 1786 1421 
L 2426 486 
C 2566 288 2624 192 2720 0 
L 3469 0 
z
" transform="scale(0.015625)"/>
      <path id="HiraginoSans-W4-2c" d="M 1165 723 
L 435 723 
L 435 0 
L 858 0 
C 851 -403 800 -499 493 -614 
L 685 -864 
C 1062 -672 1165 -493 1165 0 
L 1165 723 
z
" transform="scale(0.015625)"/>
      <path id="HiraginoSans-W4-20" transform="scale(0.015625)"/>
      <path id="HiraginoSans-W4-32" d="M 3078 0 
C 3424 0 3642 -6 3917 -32 
L 3917 589 
C 3693 557 3430 544 3091 544 
L 1114 544 
C 1280 1114 1606 1478 2451 2042 
C 3181 2528 3341 2656 3546 2912 
C 3738 3142 3846 3443 3846 3744 
C 3846 4525 3200 5030 2202 5030 
C 1613 5030 1158 4858 858 4518 
C 640 4269 531 4026 442 3565 
L 1088 3469 
C 1139 3782 1190 3936 1306 4102 
C 1491 4371 1792 4506 2208 4506 
C 2816 4506 3206 4211 3206 3744 
C 3206 3360 2995 3085 2387 2675 
C 1754 2246 1600 2138 1389 1952 
C 979 1594 710 1229 544 806 
C 448 563 429 461 365 -26 
C 576 -6 678 0 1107 0 
L 3078 0 
z
" transform="scale(0.015625)"/>
      <path id="HiraginoSans-W4-3b5" d="M 4800 2976 
C 4506 3386 4096 3571 3475 3571 
C 2592 3571 1978 3136 1978 2509 
C 1978 2195 2106 1984 2387 1850 
C 2144 1773 2022 1709 1894 1587 
C 1696 1402 1594 1152 1594 858 
C 1594 570 1715 320 1946 134 
C 2157 -26 2541 -122 2982 -122 
C 3424 -122 3795 -26 4096 166 
C 4256 269 4352 365 4525 576 
L 4045 845 
C 3770 518 3418 358 2970 358 
C 2464 358 2170 570 2170 922 
C 2170 1094 2253 1274 2387 1395 
C 2541 1523 2720 1574 3027 1574 
C 3264 1574 3488 1555 3686 1523 
L 3840 2099 
C 3654 2074 3392 2054 3123 2054 
C 2886 2054 2771 2080 2675 2163 
C 2586 2234 2534 2355 2534 2483 
C 2534 2854 2893 3098 3437 3098 
C 3891 3098 4154 2976 4352 2675 
L 4800 2976 
z
" transform="scale(0.015625)"/>
      <path id="HiraginoSans-W4-29" d="M 653 -1062 
C 1018 -512 1171 -218 1331 243 
C 1530 794 1626 1370 1626 1978 
C 1626 2579 1530 3155 1331 3712 
C 1171 4173 1018 4461 653 5018 
L 173 4698 
C 538 4147 685 3859 826 3411 
C 966 2963 1037 2490 1037 1978 
C 1037 1466 966 986 826 538 
C 685 90 538 -198 173 -749 
L 653 -1062 
z
" transform="scale(0.015625)"/>
     </defs>
     <use xlink:href="#HiraginoSans-W4-42"/>
     <use xlink:href="#HiraginoSans-W4-28" transform="translate(72.099991 0)"/>
     <use xlink:href="#HiraginoSans-W4-78" transform="translate(109.099976 0)"/>
     <use xlink:href="#HiraginoSans-W4-2c" transform="translate(164.999969 0)"/>
     <use xlink:href="#HiraginoSans-W4-20" transform="translate(189.999954 0)"/>
     <use xlink:href="#HiraginoSans-W4-32" transform="translate(223.299942 0)"/>
     <use xlink:href="#HiraginoSans-W4-3b5" transform="translate(290.59993 0)"/>
     <use xlink:href="#HiraginoSans-W4-29" transform="translate(390.599915 0)"/>
    </g>
   </g>
   <g id="text_3">
    <!-- B(x, ε) -->
    <g style="fill: #1f4e79" transform="translate(257.12352 163.533667) scale(0.09 -0.09)">
     <use xlink:href="#HiraginoSans-W4-42"/>
     <use xlink:href="#HiraginoSans-W4-28" transform="translate(72.099991 0)"/>
     <use xlink:href="#HiraginoSans-W4-78" transform="translate(109.099976 0)"/>
     <use xlink:href="#HiraginoSans-W4-2c" transform="translate(164.999969 0)"/>
     <use xlink:href="#HiraginoSans-W4-20" transform="translate(189.999954 0)"/>
     <use xlink:href="#HiraginoSans-W4-3b5" transform="translate(223.299942 0)"/>
     <use xlink:href="#HiraginoSans-W4-29" transform="translate(323.299927 0)"/>
    </g>
   </g>
   <g id="text_4">
    <!-- B(x, ε/2) -->
    <g style="fill: #1f4e79" transform="translate(229.18176 191.475427) scale(0.09 -0.09)">
     <defs>
      <path id="HiraginoSans-W4-2f" d="M 2432 4934 
L 122 -979 
L 691 -979 
L 2995 4934 
L 2432 4934 
z
" transform="scale(0.015625)"/>
     </defs>
     <use xlink:href="#HiraginoSans-W4-42"/>
     <use xlink:href="#HiraginoSans-W4-28" transform="translate(72.099991 0)"/>
     <use xlink:href="#HiraginoSans-W4-78" transform="translate(109.099976 0)"/>
     <use xlink:href="#HiraginoSans-W4-2c" transform="translate(164.999969 0)"/>
     <use xlink:href="#HiraginoSans-W4-20" transform="translate(189.999954 0)"/>
     <use xlink:href="#HiraginoSans-W4-3b5" transform="translate(223.299942 0)"/>
     <use xlink:href="#HiraginoSans-W4-2f" transform="translate(323.299927 0)"/>
     <use xlink:href="#HiraginoSans-W4-32" transform="translate(371.999924 0)"/>
     <use xlink:href="#HiraginoSans-W4-29" transform="translate(439.299911 0)"/>
    </g>
   </g>
   <g id="text_5">
    <!-- x -->
    <g style="fill: #c00000" transform="translate(208.5165 213.985687) scale(0.14 -0.14)">
     <defs>
      <path id="HiraginoSans-W7-78" d="M 4154 -134 
C 4006 51 3846 256 3680 480 
L 2701 1856 
L 3584 3098 
C 3680 3232 3840 3443 4006 3654 
L 2810 3654 
C 2746 3501 2650 3328 2522 3142 
L 2118 2534 
L 1709 3142 
C 1606 3296 1510 3475 1434 3654 
L 218 3654 
C 442 3373 563 3219 640 3104 
L 1530 1856 
L 538 454 
C 416 288 218 32 77 -134 
L 1312 -134 
C 1427 90 1498 205 1619 390 
L 2112 1139 
L 2598 416 
C 2720 237 2784 122 2906 -134 
L 4154 -134 
z
" transform="scale(0.015625)"/>
     </defs>
     <use xlink:href="#HiraginoSans-W7-78"/>
    </g>
   </g>
   <g id="text_6">
    <g id="patch_6">
     <path d="M 113.254844 410.650187 
L 289.225156 410.650187 
Q 292.225156 410.650187 292.225156 407.650187 
L 292.225156 397.890812 
Q 292.225156 394.890812 289.225156 394.890812 
L 113.254844 394.890812 
Q 110.254844 394.890812 110.254844 397.890812 
L 110.254844 407.650187 
Q 110.254844 410.650187 113.254844 410.650187 
z
" style="fill: #deeaf1; stroke: #2e75b6; stroke-linejoin: miter"/>
    </g>
    <!-- nhds x = x を含むすべての開近傍の族 -->
    <g style="fill: #1f4e79" transform="translate(113.254844 405.600187) scale(0.1 -0.1)">
     <defs>
      <path id="HiraginoSans-W4-6e" d="M 1114 0 
C 1082 256 1069 474 1069 755 
L 1069 2010 
C 1139 2272 1222 2426 1395 2630 
C 1658 2944 1933 3085 2266 3085 
C 2752 3085 3002 2797 3002 2234 
L 3002 755 
C 3002 454 2989 269 2957 0 
L 3629 0 
C 3597 218 3584 416 3584 749 
L 3584 2323 
C 3584 2662 3520 2912 3392 3110 
C 3181 3418 2816 3584 2349 3584 
C 1779 3584 1376 3360 1056 2867 
C 1069 3027 1069 3059 1069 3142 
L 1069 3520 
L 442 3520 
C 480 3264 493 3078 493 2765 
L 493 755 
C 493 429 480 256 442 0 
L 1114 0 
z
" transform="scale(0.015625)"/>
      <path id="HiraginoSans-W4-68" d="M 1107 0 
C 1075 256 1062 474 1062 755 
L 1062 2003 
C 1139 2272 1229 2438 1402 2643 
C 1645 2931 1933 3078 2259 3078 
C 2490 3078 2682 3002 2810 2861 
C 2931 2726 2995 2522 2995 2240 
L 2995 755 
C 2995 422 2982 224 2944 0 
L 3622 0 
C 3590 230 3578 448 3578 749 
L 3578 2362 
C 3578 3130 3123 3584 2355 3584 
C 1773 3584 1357 3347 1043 2854 
C 1056 3046 1062 3066 1062 3168 
L 1062 4173 
C 1062 4512 1069 4691 1107 4934 
L 442 4934 
C 480 4691 493 4512 493 4179 
L 493 755 
C 493 422 480 250 442 0 
L 1107 0 
z
" transform="scale(0.015625)"/>
      <path id="HiraginoSans-W4-64" d="M 3187 0 
L 3802 0 
C 3770 250 3757 442 3757 774 
L 3757 4173 
C 3757 4467 3770 4666 3802 4934 
L 3142 4934 
C 3174 4691 3187 4486 3187 4173 
L 3187 3398 
C 3187 3296 3187 3194 3194 3149 
C 3200 3040 3200 3040 3206 2970 
C 2918 3379 2470 3597 1901 3597 
C 909 3597 282 2886 282 1766 
C 282 1171 461 672 794 339 
C 1069 70 1446 -64 1914 -64 
C 2483 -64 2880 128 3206 563 
C 3200 480 3187 365 3187 288 
L 3187 0 
z
M 1971 3098 
C 2310 3098 2618 2976 2842 2752 
C 3059 2541 3181 2189 3181 1786 
C 3181 966 2707 429 1978 429 
C 1709 429 1459 512 1274 672 
C 1024 890 883 1280 883 1786 
C 883 2598 1293 3098 1971 3098 
z
" transform="scale(0.015625)"/>
      <path id="HiraginoSans-W4-73" d="M 262 973 
C 326 704 378 589 480 448 
C 730 109 1184 -70 1786 -70 
C 2707 -70 3270 339 3270 1011 
C 3270 1293 3136 1555 2912 1722 
C 2720 1862 2483 1946 1894 2074 
C 1510 2157 1357 2208 1210 2285 
C 1075 2355 998 2483 998 2624 
C 998 2944 1312 3162 1760 3162 
C 2042 3162 2259 3078 2400 2925 
C 2483 2835 2515 2758 2554 2598 
L 3155 2688 
C 3066 2982 2982 3136 2810 3283 
C 2573 3494 2208 3610 1754 3610 
C 1299 3610 941 3494 698 3258 
C 518 3091 416 2861 416 2618 
C 416 2310 557 2054 819 1888 
C 1043 1747 1261 1677 1760 1574 
C 2246 1466 2349 1440 2490 1350 
C 2618 1274 2682 1139 2682 973 
C 2682 621 2342 397 1818 397 
C 1504 397 1267 474 1107 614 
C 986 730 934 832 890 1069 
L 262 973 
z
" transform="scale(0.015625)"/>
      <path id="HiraginoSans-W4-3d" d="M 333 2720 
L 333 2195 
L 3923 2195 
L 3923 2720 
L 333 2720 
z
M 333 1376 
L 333 851 
L 3923 851 
L 3923 1376 
L 333 1376 
z
" transform="scale(0.015625)"/>
      <path id="HiraginoSans-W4-3092" d="M 2189 4365 
C 1491 4365 1088 4390 813 4442 
L 800 3917 
C 864 3930 902 3930 934 3930 
C 966 3930 998 3930 1062 3923 
C 1197 3917 1830 3904 1958 3904 
C 1984 3904 2054 3910 2074 3910 
C 2035 3840 2035 3840 2016 3808 
C 1581 3046 1037 2362 614 2042 
L 1037 1619 
C 1152 1798 1293 1952 1549 2163 
C 2054 2598 2547 2835 2938 2835 
C 3226 2835 3373 2694 3411 2381 
C 2982 2189 2707 2042 2470 1869 
C 2016 1542 1792 1197 1792 832 
C 1792 499 1952 218 2227 64 
C 2534 -109 2944 -186 3539 -186 
C 4058 -186 4646 -141 5133 -64 
C 5267 -38 5293 -38 5395 -32 
L 5338 557 
C 4954 403 4250 301 3597 301 
C 2694 301 2330 467 2330 870 
C 2330 1088 2445 1267 2707 1472 
C 2874 1600 3085 1715 3475 1894 
C 3475 1818 3475 1798 3475 1696 
C 3475 1350 3456 973 3437 845 
L 3962 851 
C 3949 954 3949 1005 3949 1114 
C 3949 1165 3949 1254 3949 1376 
C 3955 1504 3955 1638 3955 1709 
C 3955 1850 3955 1869 3949 2080 
C 4800 2406 5299 2566 5645 2624 
L 5414 3149 
C 5312 3085 5293 3078 4966 2963 
C 4653 2854 4390 2758 3891 2566 
C 3802 3027 3507 3264 3027 3264 
C 2726 3264 2413 3174 2144 3002 
C 2080 2963 2042 2938 1926 2842 
C 1907 2829 1875 2810 1837 2778 
C 1837 2778 1830 2784 1824 2797 
C 1830 2803 1830 2803 1837 2810 
C 1837 2816 1862 2835 1901 2861 
C 1920 2874 2054 3021 2106 3098 
C 2310 3354 2438 3565 2624 3910 
C 3251 3930 4070 3987 4512 4045 
C 4883 4096 4883 4096 5005 4109 
L 4966 4621 
C 4627 4518 4032 4442 3238 4397 
C 2880 4378 2880 4378 2835 4371 
C 2874 4435 2944 4595 3027 4800 
C 3130 5050 3130 5050 3181 5126 
L 2579 5216 
C 2560 5011 2490 4813 2291 4365 
L 2189 4365 
z
" transform="scale(0.015625)"/>
      <path id="HiraginoSans-W4-542b" d="M 2080 3386 
C 2234 3405 2387 3411 2624 3411 
L 3827 3411 
C 4070 3411 4205 3405 4365 3386 
L 4365 3814 
C 4902 3430 5331 3181 5939 2912 
C 6035 3098 6112 3219 6246 3366 
C 5734 3546 5344 3738 4864 4045 
C 4230 4448 3853 4781 3437 5312 
L 2912 5312 
C 2304 4474 1357 3782 186 3328 
C 352 3155 390 3104 506 2893 
C 1088 3168 1536 3430 2080 3834 
L 2080 3386 
z
M 2618 3821 
C 2368 3821 2253 3827 2099 3846 
C 2502 4154 2778 4422 3181 4896 
C 3546 4474 3846 4192 4320 3846 
C 4192 3827 4058 3821 3834 3821 
L 2618 3821 
z
M 4064 1683 
L 4947 2458 
C 5107 2598 5107 2598 5120 2605 
C 5171 2650 5171 2650 5197 2669 
L 4896 2963 
C 4781 2944 4646 2938 4378 2938 
L 1651 2938 
C 1421 2938 1261 2944 1107 2970 
L 1107 2483 
C 1280 2509 1466 2515 1702 2515 
L 4378 2515 
L 3411 1683 
L 1562 1683 
C 1376 1683 1242 1690 1088 1709 
C 1107 1549 1120 1408 1120 1216 
L 1120 58 
C 1120 -134 1107 -294 1082 -486 
L 1606 -486 
L 1606 -198 
L 4819 -198 
L 4819 -486 
L 5344 -486 
C 5318 -314 5312 -141 5312 51 
L 5312 1203 
C 5312 1408 5318 1542 5338 1709 
C 5197 1690 5069 1683 4870 1683 
L 4064 1683 
z
M 1606 1254 
L 4819 1254 
L 4819 237 
L 1606 237 
L 1606 1254 
z
" transform="scale(0.015625)"/>
      <path id="HiraginoSans-W4-3080" d="M 672 3789 
C 710 3789 742 3789 762 3789 
C 787 3789 826 3789 877 3782 
C 1050 3776 1178 3770 1376 3770 
C 1594 3770 1594 3770 1850 3776 
C 1850 3590 1843 3526 1843 3462 
C 1837 3226 1837 3226 1837 3149 
C 1773 3162 1754 3162 1709 3162 
C 1126 3162 672 2701 672 2106 
C 672 1606 986 1235 1408 1235 
C 1549 1235 1626 1261 1722 1325 
L 1728 1318 
C 1555 1069 1485 877 1485 640 
C 1485 58 1990 -198 3162 -198 
C 3456 -198 3776 -179 4045 -141 
C 4486 -90 4742 -13 4973 128 
C 5248 288 5389 563 5389 922 
C 5389 1235 5293 1632 5101 2093 
C 4845 2112 4749 2131 4506 2202 
C 4710 1818 4858 1318 4858 998 
C 4858 749 4755 602 4499 493 
C 4243 384 3706 307 3187 307 
C 2758 307 2451 346 2259 416 
C 2093 486 2016 582 2016 736 
C 2016 922 2086 1114 2266 1402 
C 2413 1651 2445 1696 2483 1773 
C 2573 1965 2618 2144 2618 2349 
C 2618 2650 2534 2842 2336 3002 
C 2336 3066 2336 3328 2349 3795 
C 2643 3814 3002 3859 3354 3923 
C 3456 3942 3475 3949 3546 3955 
L 3520 4461 
C 3290 4371 2829 4288 2362 4250 
C 2381 4928 2381 4928 2426 5114 
L 1843 5120 
C 1862 4979 1869 4915 1869 4704 
C 1869 4646 1869 4486 1862 4230 
C 1664 4218 1587 4218 1485 4218 
C 1050 4218 845 4237 672 4282 
L 672 3789 
z
M 1715 2746 
C 1997 2726 2118 2592 2118 2304 
C 2118 1939 1875 1658 1562 1658 
C 1312 1658 1152 1843 1152 2138 
C 1152 2464 1402 2752 1690 2752 
C 1696 2752 1702 2752 1715 2746 
z
M 4083 4250 
C 4589 3923 5158 3360 5504 2854 
L 5933 3219 
C 5498 3763 5075 4160 4480 4570 
L 4083 4250 
z
" transform="scale(0.015625)"/>
      <path id="HiraginoSans-W4-3059" d="M 3507 4326 
C 2790 4307 2509 4301 1965 4282 
C 998 4243 960 4243 787 4243 
C 691 4243 640 4243 512 4250 
L 531 3699 
C 928 3763 2419 3846 3514 3866 
C 3514 3514 3520 3181 3526 3123 
L 3526 3078 
C 3366 3245 3117 3334 2816 3334 
C 2131 3334 1632 2874 1632 2246 
C 1632 1645 2093 1203 2720 1203 
C 3053 1203 3334 1318 3526 1536 
C 3597 1613 3635 1683 3699 1818 
C 3680 1562 3629 1376 3514 1171 
C 3238 672 2746 358 1920 134 
C 2074 -32 2118 -102 2246 -358 
C 2765 -166 3034 -32 3302 160 
C 3885 589 4179 1158 4179 1850 
C 4179 2157 4134 2368 4019 2643 
C 4019 3494 4019 3494 4019 3872 
C 4531 3878 4640 3878 4730 3878 
C 5434 3878 5664 3872 5907 3846 
L 5907 4384 
C 5696 4358 5210 4346 4013 4339 
C 4013 4883 4019 4979 4045 5178 
L 3469 5178 
C 3488 5043 3494 4979 3501 4806 
L 3507 4326 
z
M 2861 2906 
C 3059 2906 3238 2842 3366 2720 
C 3456 2630 3494 2534 3494 2381 
C 3494 1965 3200 1677 2784 1677 
C 2413 1677 2157 1926 2157 2285 
C 2157 2637 2458 2906 2861 2906 
z
" transform="scale(0.015625)"/>
      <path id="HiraginoSans-W4-3079" d="M 710 1453 
C 755 1517 774 1536 826 1594 
C 1344 2170 1568 2438 2042 3072 
C 2336 3456 2381 3501 2515 3501 
C 2618 3501 2714 3430 2874 3245 
C 3456 2579 3712 2291 4045 1952 
C 4454 1536 5242 813 5645 480 
C 5741 403 5754 384 5818 320 
L 6086 973 
C 5926 1043 5798 1139 5523 1363 
C 4890 1882 4128 2630 3520 3328 
C 3270 3622 3136 3770 3072 3834 
C 2874 4026 2701 4109 2509 4109 
C 2336 4109 2170 4032 1997 3878 
C 1907 3802 1837 3718 1658 3488 
C 1011 2656 589 2189 339 2022 
L 710 1453 
z
M 4160 4307 
C 4422 4013 4627 3693 4826 3296 
L 5203 3507 
C 4979 3923 4832 4141 4531 4499 
L 4160 4307 
z
M 4902 4653 
C 5184 4320 5376 4032 5562 3661 
L 5933 3872 
C 5702 4294 5562 4493 5261 4845 
L 4902 4653 
z
" transform="scale(0.015625)"/>
      <path id="HiraginoSans-W4-3066" d="M 621 3693 
C 960 3763 1485 3814 2726 3898 
C 3418 3942 3725 3974 4134 4038 
C 3053 3552 2419 2714 2419 1786 
C 2419 1210 2688 717 3181 403 
C 3558 160 3936 38 4595 -70 
C 4698 -90 4723 -90 4800 -109 
L 4890 512 
C 4582 512 4250 570 3930 672 
C 3290 883 2970 1274 2970 1837 
C 2970 2438 3334 3021 3981 3462 
C 4486 3808 5094 4013 5613 4013 
C 5626 4013 5658 4013 5690 4013 
L 5645 4582 
C 5542 4557 5286 4531 4896 4518 
C 3840 4467 2086 4371 1190 4307 
C 992 4294 909 4288 819 4288 
C 781 4288 723 4288 589 4294 
L 621 3693 
z
" transform="scale(0.015625)"/>
      <path id="HiraginoSans-W4-306e" d="M 3053 422 
C 3200 243 3245 160 3328 -96 
C 3821 6 4090 90 4397 237 
C 5293 666 5798 1459 5798 2451 
C 5798 3802 4832 4698 3379 4698 
C 2509 4698 1792 4403 1274 3834 
C 832 3347 589 2707 589 2042 
C 589 1107 1062 422 1709 422 
C 2189 422 2573 806 2938 1645 
C 3238 2323 3469 3264 3578 4205 
C 3891 4186 4070 4141 4294 4032 
C 4902 3738 5242 3174 5242 2477 
C 5242 1734 4870 1107 4230 768 
C 3917 602 3610 512 3053 422 
z
M 3027 4192 
C 2944 3398 2714 2483 2458 1888 
C 2195 1286 1952 992 1702 992 
C 1370 992 1114 1453 1114 2035 
C 1114 2797 1491 3501 2112 3891 
C 2394 4077 2656 4160 3027 4192 
z
" transform="scale(0.015625)"/>
      <path id="HiraginoSans-W4-8fd1" d="M 4506 3034 
L 4506 1094 
C 4506 774 4493 602 4467 442 
L 5030 442 
C 5005 595 4992 794 4992 1094 
L 4992 3034 
L 5466 3034 
C 5709 3034 5869 3027 6054 3002 
L 6054 3520 
C 5882 3494 5734 3488 5459 3488 
L 3219 3488 
C 3219 3539 3219 3539 3219 3642 
L 3219 4269 
C 3936 4352 4480 4461 5082 4627 
C 5357 4698 5357 4698 5843 4883 
L 5440 5318 
C 5280 5203 5075 5120 4659 5005 
C 4045 4832 3232 4691 2848 4691 
C 2842 4691 2822 4691 2790 4691 
C 2771 4691 2746 4691 2714 4691 
C 2733 4518 2739 4288 2739 3949 
C 2739 2125 2611 1485 2138 902 
C 2310 794 2381 723 2534 544 
C 2989 1158 3162 1786 3206 3034 
L 4506 3034 
z
M 512 4838 
C 954 4435 1165 4198 1555 3648 
L 1939 4000 
C 1562 4499 1299 4781 877 5165 
L 512 4838 
z
M 346 2285 
C 506 2310 614 2317 813 2317 
L 1318 2317 
L 1318 890 
C 960 544 557 243 307 141 
C 301 134 282 128 262 122 
L 506 -403 
C 595 -320 608 -314 730 -224 
C 1050 19 1274 205 1542 480 
C 1709 250 1856 109 2048 -6 
C 2464 -243 2906 -320 3923 -320 
C 4531 -320 5472 -301 6106 -275 
C 6144 -51 6170 38 6272 269 
C 5696 192 4954 154 3898 154 
C 2944 154 2541 211 2253 397 
C 2016 550 1888 685 1786 902 
L 1786 2118 
C 1786 2438 1792 2598 1818 2803 
C 1645 2778 1523 2771 1331 2771 
L 845 2771 
C 602 2771 512 2778 346 2803 
L 346 2285 
z
" transform="scale(0.015625)"/>
      <path id="HiraginoSans-W4-508d" d="M 5286 2061 
C 5562 2061 5805 2048 5952 2029 
L 5952 2515 
C 5792 2490 5626 2483 5306 2483 
L 4070 2483 
L 4070 2598 
C 4070 2797 4083 2906 4109 3002 
L 3571 3002 
C 3590 2899 3603 2758 3603 2598 
L 3603 2483 
L 2483 2483 
C 2163 2483 1990 2496 1843 2522 
L 1843 2029 
C 1990 2048 2240 2061 2528 2061 
L 3136 2061 
C 3072 1357 2938 986 2605 627 
C 2349 339 2061 141 1645 -38 
C 1798 -186 1869 -282 1958 -454 
C 2726 -64 3162 397 3430 1107 
L 4979 1107 
C 4954 730 4934 518 4896 320 
C 4851 128 4787 83 4531 83 
C 4262 83 4006 102 3712 147 
C 3776 -19 3808 -141 3821 -339 
C 4013 -358 4262 -371 4467 -371 
C 4947 -371 5165 -294 5267 -96 
C 5363 77 5434 531 5466 1165 
C 5478 1357 5485 1414 5504 1542 
C 5382 1530 5203 1523 4922 1523 
L 3558 1523 
C 3597 1715 3610 1798 3629 2061 
L 5286 2061 
z
M 4096 4794 
C 4096 5056 4109 5210 4128 5363 
L 3571 5363 
C 3597 5203 3610 5043 3610 4794 
L 2694 4794 
C 2400 4794 2170 4806 2003 4832 
L 2003 4346 
C 2170 4371 2394 4384 2682 4384 
L 2733 4384 
C 2835 4166 2925 3878 2976 3610 
L 2419 3610 
C 2170 3610 1971 3622 1798 3642 
C 1811 3514 1818 3437 1818 3334 
L 1818 3008 
C 1811 2854 1805 2752 1798 2688 
L 2285 2688 
L 2285 3200 
L 5504 3200 
L 5504 2682 
L 5997 2682 
C 5984 2765 5978 2899 5978 3027 
L 5978 3290 
C 5978 3430 5978 3507 5997 3642 
C 5805 3622 5594 3610 5331 3610 
L 4762 3610 
C 4883 3885 4973 4128 5050 4384 
L 5171 4384 
C 5453 4384 5670 4371 5850 4346 
L 5850 4832 
C 5690 4806 5427 4794 5139 4794 
L 4096 4794 
z
M 3450 3610 
C 3379 3942 3315 4141 3219 4384 
L 4557 4384 
C 4486 4096 4416 3898 4275 3610 
L 3450 3610 
z
M 1376 3808 
C 1581 4256 1677 4499 1798 4890 
C 1869 5133 1894 5190 1926 5274 
L 1402 5408 
C 1363 5082 1139 4416 890 3891 
C 646 3398 474 3123 115 2694 
C 237 2554 301 2458 397 2234 
C 653 2566 774 2758 922 3066 
C 909 2874 902 2624 902 2310 
L 902 282 
C 902 -58 890 -282 864 -512 
L 1408 -512 
C 1382 -282 1376 -38 1376 269 
L 1376 3808 
z
" transform="scale(0.015625)"/>
      <path id="HiraginoSans-W4-65cf" d="M 4147 2880 
C 4128 2330 4128 2330 4096 2042 
L 3341 2042 
C 3053 2042 2899 2048 2746 2074 
L 2746 1574 
C 2925 1600 3091 1606 3334 1606 
L 4013 1606 
C 3795 806 3322 320 2451 -13 
C 2579 -147 2656 -256 2726 -442 
C 3616 -26 4070 435 4352 1210 
C 4461 915 4563 736 4768 486 
C 5094 90 5427 -179 5939 -435 
C 6016 -224 6086 -109 6227 51 
C 5728 256 5446 435 5146 755 
C 4902 1018 4787 1203 4627 1606 
L 5446 1606 
C 5677 1606 5830 1594 6016 1568 
L 6016 2080 
C 5856 2054 5677 2042 5434 2042 
L 4557 2042 
C 4582 2278 4582 2278 4608 2880 
L 5261 2880 
C 5498 2880 5626 2874 5779 2848 
L 5779 3341 
C 5626 3309 5510 3302 5274 3302 
L 3904 3302 
C 3962 3424 4006 3520 4077 3674 
C 4115 3757 4122 3770 4154 3834 
L 3686 3955 
C 3654 3795 3616 3674 3526 3494 
C 3322 3091 3149 2854 2771 2502 
C 2944 2406 3027 2342 3130 2227 
C 3366 2464 3469 2586 3661 2880 
L 4147 2880 
z
M 1331 4352 
L 864 4352 
C 627 4352 467 4365 294 4390 
L 294 3885 
C 461 3910 589 3917 832 3917 
L 998 3917 
C 966 1510 819 838 147 -32 
C 288 -147 365 -237 499 -435 
C 864 38 1101 538 1235 1114 
C 1325 1536 1370 1914 1414 2662 
L 2054 2662 
C 2054 1914 2003 1210 1920 640 
C 1850 173 1811 115 1587 115 
C 1453 115 1299 141 1101 192 
C 1146 32 1165 -102 1178 -294 
C 1402 -320 1510 -333 1613 -333 
C 2093 -333 2202 -243 2310 243 
C 2413 685 2490 1562 2502 2381 
C 2515 2995 2515 2995 2528 3117 
C 2394 3098 2272 3091 2067 3091 
L 1440 3091 
C 1453 3392 1453 3392 1459 3917 
L 2099 3917 
C 2349 3917 2490 3910 2650 3891 
L 2650 4384 
C 2470 4365 2298 4352 2099 4352 
L 1805 4352 
L 1805 4723 
C 1805 4973 1818 5126 1843 5306 
L 1293 5306 
C 1318 5114 1331 4960 1331 4723 
L 1331 4352 
z
M 5402 4090 
C 5658 4090 5856 4083 6035 4064 
L 6035 4570 
C 5869 4544 5677 4531 5382 4531 
L 3635 4531 
C 3744 4768 3827 4954 3898 5133 
C 3917 5178 3917 5178 3949 5261 
L 3443 5357 
C 3411 5184 3392 5126 3322 4947 
C 3104 4371 2784 3878 2381 3456 
C 2547 3366 2637 3283 2746 3149 
C 3053 3507 3213 3731 3418 4090 
L 5402 4090 
z
" transform="scale(0.015625)"/>
     </defs>
     <use xlink:href="#HiraginoSans-W4-6e"/>
     <use xlink:href="#HiraginoSans-W4-68" transform="translate(63.399994 0)"/>
     <use xlink:href="#HiraginoSans-W4-64" transform="translate(126.699982 0)"/>
     <use xlink:href="#HiraginoSans-W4-73" transform="translate(192.999969 0)"/>
     <use xlink:href="#HiraginoSans-W4-20" transform="translate(248.299957 0)"/>
     <use xlink:href="#HiraginoSans-W4-78" transform="translate(281.599945 0)"/>
     <use xlink:href="#HiraginoSans-W4-20" transform="translate(337.499939 0)"/>
     <use xlink:href="#HiraginoSans-W4-3d" transform="translate(370.799927 0)"/>
     <use xlink:href="#HiraginoSans-W4-20" transform="translate(437.199921 0)"/>
     <use xlink:href="#HiraginoSans-W4-78" transform="translate(470.499908 0)"/>
     <use xlink:href="#HiraginoSans-W4-20" transform="translate(526.399902 0)"/>
     <use xlink:href="#HiraginoSans-W4-3092" transform="translate(559.69989 0)"/>
     <use xlink:href="#HiraginoSans-W4-542b" transform="translate(659.699875 0)"/>
     <use xlink:href="#HiraginoSans-W4-3080" transform="translate(759.69986 0)"/>
     <use xlink:href="#HiraginoSans-W4-3059" transform="translate(859.699844 0)"/>
     <use xlink:href="#HiraginoSans-W4-3079" transform="translate(959.699829 0)"/>
     <use xlink:href="#HiraginoSans-W4-3066" transform="translate(1059.699814 0)"/>
     <use xlink:href="#HiraginoSans-W4-306e" transform="translate(1159.699799 0)"/>
     <use xlink:href="#HiraginoSans-W4-958b" transform="translate(1259.699783 0)"/>
     <use xlink:href="#HiraginoSans-W4-8fd1" transform="translate(1359.699768 0)"/>
     <use xlink:href="#HiraginoSans-W4-508d" transform="translate(1459.699753 0)"/>
     <use xlink:href="#HiraginoSans-W4-306e" transform="translate(1559.699738 0)"/>
     <use xlink:href="#HiraginoSans-W4-65cf" transform="translate(1659.699722 0)"/>
    </g>
   </g>
   <g id="text_7">
    <!-- nhds x の同心円（距離空間） -->
    <g transform="translate(112.138203 17.222187) scale(0.13 -0.13)">
     <defs>
      <path id="HiraginoSans-W4-540c" d="M 627 230 
C 627 -45 614 -262 589 -474 
L 1171 -474 
C 1146 -275 1133 -109 1133 224 
L 1133 4602 
L 5286 4602 
L 5286 224 
C 5286 109 5229 83 4992 83 
C 4698 83 4410 102 4019 154 
C 4083 -19 4115 -147 4134 -333 
C 4429 -358 4685 -365 4934 -365 
C 5645 -365 5792 -275 5792 147 
L 5792 4454 
C 5792 4730 5798 4883 5818 5075 
C 5670 5056 5459 5050 5197 5050 
L 1242 5050 
C 979 5050 742 5056 602 5075 
C 621 4896 627 4730 627 4480 
L 627 230 
z
M 1530 3501 
C 1690 3526 1811 3533 2054 3533 
L 4410 3533 
C 4659 3533 4774 3526 4928 3501 
L 4928 4000 
C 4781 3974 4691 3968 4397 3968 
L 2061 3968 
C 1779 3968 1664 3974 1530 4000 
L 1530 3501 
z
M 4474 2496 
C 4474 2688 4480 2771 4493 2893 
C 4371 2880 4250 2874 4019 2874 
L 2368 2874 
C 2202 2874 2086 2880 1939 2893 
C 1952 2765 1958 2643 1958 2490 
L 1958 922 
C 1958 678 1952 525 1933 346 
L 2426 346 
L 2426 883 
L 4090 883 
C 4230 883 4358 877 4493 864 
C 4480 973 4474 1101 4474 1248 
L 4474 2496 
z
M 2426 2445 
L 4000 2445 
L 4000 1312 
L 2426 1312 
L 2426 2445 
z
" transform="scale(0.015625)"/>
      <path id="HiraginoSans-W4-5fc3" d="M 710 499 
C 960 986 1050 1216 1197 1709 
C 1338 2208 1408 2534 1523 3226 
L 1018 3347 
C 928 2720 864 2413 717 1920 
C 570 1453 480 1235 218 794 
L 710 499 
z
M 4454 4358 
C 3731 4794 3258 5011 2323 5350 
L 2029 4928 
C 3002 4570 3482 4333 4128 3898 
L 4454 4358 
z
M 6234 941 
C 5869 2042 5632 2573 5139 3424 
L 4672 3187 
C 5152 2387 5421 1754 5722 672 
L 6234 941 
z
M 2547 3360 
C 2547 3590 2560 3763 2592 3968 
L 1984 3968 
C 2016 3712 2029 3558 2029 3347 
L 2029 294 
C 2029 -211 2214 -294 3322 -294 
C 4320 -294 4570 -224 4730 77 
C 4858 326 4922 678 4979 1491 
C 4787 1536 4653 1587 4461 1683 
C 4448 966 4397 550 4294 378 
C 4218 237 3981 192 3366 192 
C 2688 192 2547 230 2547 416 
L 2547 3360 
z
" transform="scale(0.015625)"/>
      <path id="HiraginoSans-W4-5186" d="M 1165 2150 
L 5242 2150 
L 5242 282 
C 5242 154 5190 128 4915 128 
C 4666 128 4352 154 3917 205 
C 3987 13 4013 -102 4038 -294 
C 4333 -314 4691 -326 4941 -326 
C 5587 -326 5747 -224 5747 211 
L 5747 4384 
C 5747 4678 5754 4819 5773 5005 
C 5619 4986 5459 4979 5152 4979 
L 1261 4979 
C 973 4979 819 4986 634 5005 
C 653 4832 659 4672 659 4422 
L 659 282 
C 659 -58 646 -256 621 -435 
L 1197 -435 
C 1171 -288 1165 -147 1165 262 
L 1165 2150 
z
M 2906 2618 
L 1165 2618 
L 1165 4506 
L 2906 4506 
L 2906 2618 
z
M 3398 2618 
L 3398 4506 
L 5242 4506 
L 5242 2618 
L 3398 2618 
z
" transform="scale(0.015625)"/>
      <path id="HiraginoSans-W4-8ddd" d="M 1549 422 
C 1325 365 1325 365 1082 307 
L 1082 1990 
C 1082 2202 1088 2342 1107 2515 
L 614 2515 
C 634 2330 646 2163 646 1965 
L 646 218 
C 448 186 320 166 205 166 
L 320 -365 
C 416 -333 602 -282 768 -243 
C 1638 -26 2176 128 2886 365 
L 2874 819 
C 2509 691 2387 653 1997 538 
L 1997 1754 
L 2304 1754 
C 2534 1754 2669 1747 2848 1722 
L 2848 2214 
C 2694 2182 2560 2176 2310 2176 
L 1997 2176 
L 1997 3072 
L 2208 3072 
C 2445 3072 2598 3066 2726 3053 
C 2714 3181 2714 3296 2714 3674 
L 2714 4467 
C 2714 4749 2720 4954 2733 5101 
C 2541 5075 2374 5069 2125 5069 
L 1165 5069 
C 922 5069 755 5075 570 5101 
C 582 4934 595 4730 595 4448 
L 595 3680 
C 595 3386 589 3219 570 3046 
C 762 3066 902 3072 1107 3072 
L 1549 3072 
L 1549 422 
z
M 1050 4653 
L 2266 4653 
L 2266 3482 
L 1050 3482 
L 1050 4653 
z
M 3648 1485 
L 5235 1485 
C 5440 1485 5574 1478 5779 1466 
C 5766 1606 5766 1709 5766 2022 
L 5766 3046 
C 5766 3270 5773 3411 5786 3590 
C 5626 3571 5472 3565 5216 3565 
L 3648 3565 
L 3648 4608 
L 5414 4608 
C 5658 4608 5862 4595 6054 4570 
L 6054 5107 
C 5862 5075 5677 5062 5402 5062 
L 3757 5062 
C 3488 5062 3309 5069 3142 5082 
C 3155 4922 3168 4678 3168 4448 
L 3168 186 
C 3168 -83 3155 -320 3130 -525 
L 3648 -525 
L 3648 -160 
L 5485 -160 
C 5754 -160 5946 -173 6131 -198 
L 6131 339 
C 5933 307 5734 294 5478 294 
L 3648 294 
L 3648 1485 
z
M 3648 1926 
L 3648 3123 
L 5299 3123 
L 5299 1926 
L 3648 1926 
z
" transform="scale(0.015625)"/>
      <path id="HiraginoSans-W4-96e2" d="M 5178 2630 
L 5376 2630 
C 5632 2630 5818 2618 5946 2598 
L 5946 3072 
C 5811 3046 5683 3040 5376 3040 
L 5178 3040 
L 5178 3917 
L 5434 3917 
C 5766 3917 5952 3910 6086 3891 
L 6086 4378 
C 5933 4346 5779 4339 5434 4339 
L 5197 4339 
C 5312 4570 5421 4813 5523 5062 
C 5536 5101 5555 5152 5587 5222 
L 5126 5357 
C 5030 4960 4922 4672 4755 4339 
L 4070 4339 
C 4147 4525 4198 4646 4275 4858 
C 4390 5184 4390 5184 4435 5293 
L 3949 5421 
C 3821 4666 3456 3821 3027 3302 
L 3027 3846 
C 3027 4019 3034 4134 3053 4262 
L 2605 4262 
C 2624 4141 2630 4006 2630 3846 
L 2630 2861 
L 1043 2861 
L 1043 3846 
C 1043 4006 1050 4122 1069 4269 
L 608 4269 
C 634 4096 640 3955 640 3802 
L 640 2944 
C 640 2726 634 2598 614 2496 
C 819 2509 941 2509 1152 2509 
L 1651 2509 
C 1619 2323 1613 2298 1581 2131 
L 1056 2131 
C 819 2131 653 2138 461 2157 
C 480 1958 486 1779 486 1498 
L 486 218 
C 486 -83 474 -282 454 -461 
L 954 -461 
C 934 -320 928 -173 928 211 
L 928 1760 
L 1498 1760 
C 1408 1376 1344 1146 1242 845 
C 1146 838 1082 832 1037 832 
C 1024 832 998 832 960 838 
L 1050 410 
C 1114 429 1178 442 1267 454 
C 1677 518 1990 582 2304 659 
C 2342 538 2355 486 2400 326 
L 2752 486 
C 2592 954 2509 1158 2317 1517 
L 1990 1389 
C 2093 1197 2118 1146 2189 986 
C 2074 960 1946 934 1645 890 
C 1728 1146 1760 1248 1901 1760 
L 2778 1760 
L 2778 154 
C 2778 19 2739 -6 2554 -6 
C 2368 -6 2208 6 1939 51 
C 2003 -122 2022 -224 2035 -390 
C 2285 -410 2355 -410 2470 -410 
C 3066 -410 3206 -314 3206 96 
L 3206 1587 
C 3206 1818 3213 1984 3232 2157 
C 3066 2138 2925 2131 2624 2131 
L 1997 2131 
C 2022 2266 2029 2278 2074 2509 
L 2554 2509 
C 2707 2509 2829 2509 3040 2496 
C 3034 2630 3027 2752 3027 2899 
L 3027 3264 
C 3123 3181 3200 3085 3296 2938 
C 3430 3123 3482 3200 3616 3443 
C 3597 3174 3597 3142 3597 2912 
L 3597 243 
C 3597 -102 3584 -326 3558 -474 
L 4045 -474 
L 4045 -166 
L 5504 -166 
C 5754 -166 5990 -179 6138 -205 
L 6138 288 
C 5997 262 5824 256 5536 256 
L 5178 256 
L 5178 1331 
L 5376 1331 
C 5619 1331 5811 1318 5946 1293 
L 5946 1779 
C 5798 1754 5645 1741 5376 1741 
L 5178 1741 
L 5178 2630 
z
M 4755 2630 
L 4755 1741 
L 4045 1741 
L 4045 2630 
L 4755 2630 
z
M 4755 3040 
L 4045 3040 
L 4045 3917 
L 4755 3917 
L 4755 3040 
z
M 4045 1331 
L 4755 1331 
L 4755 256 
L 4045 256 
L 4045 1331 
z
M 1606 4832 
L 864 4832 
C 646 4832 493 4838 352 4864 
L 352 4410 
C 486 4429 627 4435 851 4435 
L 2790 4435 
C 2989 4435 3149 4429 3309 4410 
L 3309 4864 
C 3162 4845 2976 4832 2784 4832 
L 2067 4832 
L 2067 4928 
C 2067 5114 2074 5216 2099 5357 
L 1568 5357 
C 1594 5248 1606 5120 1606 4922 
L 1606 4832 
z
M 2522 3309 
C 2349 3475 2298 3520 2157 3648 
C 2323 3827 2381 3898 2534 4077 
L 2234 4326 
C 2099 4115 2035 4038 1882 3878 
C 1760 3981 1677 4045 1408 4243 
L 1158 3994 
C 1389 3834 1466 3770 1626 3635 
C 1427 3475 1338 3411 1075 3258 
C 1178 3181 1216 3136 1331 2982 
C 1626 3181 1734 3258 1894 3398 
C 2035 3264 2093 3206 2272 3014 
L 2522 3309 
z
" transform="scale(0.015625)"/>
      <path id="HiraginoSans-W4-7a7a" d="M 2918 4634 
L 1210 4634 
C 947 4634 794 4640 550 4666 
C 570 4525 576 4397 576 4211 
L 576 3827 
C 576 3642 570 3488 544 3322 
L 1050 3322 
L 1050 4192 
L 2291 4192 
C 2259 3744 2163 3488 1958 3264 
C 1664 2944 1216 2733 461 2554 
C 608 2400 691 2278 762 2118 
C 1619 2406 2016 2624 2330 2982 
C 2598 3290 2733 3642 2771 4192 
L 3488 4192 
L 3488 2893 
C 3488 2541 3642 2477 4506 2477 
C 5197 2477 5440 2509 5587 2618 
C 5715 2720 5773 2899 5805 3251 
C 5606 3296 5523 3322 5344 3411 
C 5325 2918 5312 2906 4538 2906 
C 4288 2906 4141 2912 4064 2938 
C 3987 2957 3968 2982 3968 3072 
L 3968 4192 
L 5402 4192 
L 5402 3533 
L 5907 3533 
C 5882 3680 5875 3814 5875 3987 
L 5875 4211 
C 5875 4403 5882 4525 5901 4666 
C 5658 4640 5504 4634 5242 4634 
L 3418 4634 
L 3418 4915 
C 3418 5101 3430 5235 3456 5363 
L 2880 5363 
C 2906 5216 2918 5101 2918 4915 
L 2918 4634 
z
M 2925 1408 
L 2925 243 
L 1158 243 
C 870 243 576 256 422 282 
L 422 -250 
C 640 -218 858 -205 1158 -205 
L 5299 -205 
C 5587 -205 5805 -218 6022 -250 
L 6022 282 
C 5862 256 5600 243 5299 243 
L 3424 243 
L 3424 1408 
L 4781 1408 
C 5062 1408 5267 1395 5459 1370 
L 5459 1888 
C 5274 1862 5050 1850 4768 1850 
L 1619 1850 
C 1312 1850 1171 1856 986 1888 
L 986 1370 
C 1165 1395 1338 1408 1645 1408 
L 2925 1408 
z
" transform="scale(0.015625)"/>
      <path id="HiraginoSans-W4-9593" d="M 1075 3104 
L 2240 3104 
C 2496 3104 2694 3098 2874 3085 
C 2861 3251 2854 3405 2854 3667 
L 2854 4518 
C 2854 4768 2861 4934 2874 5126 
C 2694 5107 2541 5101 2221 5101 
L 1242 5101 
C 922 5101 755 5107 576 5126 
C 595 4922 602 4736 602 4416 
L 602 275 
C 602 -90 589 -288 563 -467 
L 1114 -467 
C 1088 -301 1075 -96 1075 269 
L 1075 3104 
z
M 1075 4730 
L 2413 4730 
L 2413 4282 
L 1075 4282 
L 1075 4730 
z
M 1075 3917 
L 2413 3917 
L 2413 3462 
L 1075 3462 
L 1075 3917 
z
M 5818 4422 
C 5818 4710 5824 4870 5850 5126 
C 5664 5107 5510 5101 5178 5101 
L 4070 5101 
C 3750 5101 3597 5107 3418 5126 
C 3430 4934 3437 4742 3437 4518 
L 3437 3667 
C 3437 3424 3430 3264 3418 3085 
C 3584 3098 3802 3104 4051 3104 
L 5350 3104 
L 5350 243 
C 5350 96 5299 64 5043 64 
C 4909 64 4646 90 4339 128 
C 4410 -38 4442 -154 4474 -365 
C 4602 -371 4960 -384 5094 -384 
C 5670 -384 5818 -262 5818 198 
L 5818 4422 
z
M 3878 4730 
L 5350 4730 
L 5350 4282 
L 3878 4282 
L 3878 4730 
z
M 3878 3917 
L 5350 3917 
L 5350 3462 
L 3878 3462 
L 3878 3917 
z
M 4416 2042 
C 4416 2285 4422 2458 4435 2630 
C 4250 2611 4096 2605 3814 2605 
L 2573 2605 
C 2291 2605 2131 2611 1946 2630 
C 1958 2445 1965 2266 1965 2042 
L 1965 576 
C 1965 314 1958 141 1933 -38 
L 2413 -38 
L 2413 384 
L 3795 384 
C 4064 384 4237 378 4435 365 
C 4422 531 4416 698 4416 941 
L 4416 2042 
z
M 2413 2221 
L 3974 2221 
L 3974 1709 
L 2413 1709 
L 2413 2221 
z
M 2413 1325 
L 3974 1325 
L 3974 768 
L 2413 768 
L 2413 1325 
z
" transform="scale(0.015625)"/>
     </defs>
     <use xlink:href="#HiraginoSans-W4-6e"/>
     <use xlink:href="#HiraginoSans-W4-68" transform="translate(63.399994 0)"/>
     <use xlink:href="#HiraginoSans-W4-64" transform="translate(126.699982 0)"/>
     <use xlink:href="#HiraginoSans-W4-73" transform="translate(192.999969 0)"/>
     <use xlink:href="#HiraginoSans-W4-20" transform="translate(248.299957 0)"/>
     <use xlink:href="#HiraginoSans-W4-78" transform="translate(281.599945 0)"/>
     <use xlink:href="#HiraginoSans-W4-20" transform="translate(337.499939 0)"/>
     <use xlink:href="#HiraginoSans-W4-306e" transform="translate(370.799927 0)"/>
     <use xlink:href="#HiraginoSans-W4-540c" transform="translate(470.799911 0)"/>
     <use xlink:href="#HiraginoSans-W4-5fc3" transform="translate(570.799896 0)"/>
     <use xlink:href="#HiraginoSans-W4-5186" transform="translate(670.799881 0)"/>
     <use xlink:href="#HiraginoSans-W4-ff08" transform="translate(770.799866 0)"/>
     <use xlink:href="#HiraginoSans-W4-8ddd" transform="translate(870.79985 0)"/>
     <use xlink:href="#HiraginoSans-W4-96e2" transform="translate(970.799835 0)"/>
     <use xlink:href="#HiraginoSans-W4-7a7a" transform="translate(1070.79982 0)"/>
     <use xlink:href="#HiraginoSans-W4-9593" transform="translate(1170.799805 0)"/>
     <use xlink:href="#HiraginoSans-W4-ff09" transform="translate(1270.799789 0)"/>
    </g>
   </g>
   <g id="line2d_1">
    <defs>
     <path id="m23669829a5" d="M 0 4 
C 1.060812 4 2.078319 3.578535 2.828427 2.828427 
C 3.578535 2.078319 4 1.060812 4 0 
C 4 -1.060812 3.578535 -2.078319 2.828427 -2.828427 
C 2.078319 -3.578535 1.060812 -4 0 -4 
C -1.060812 -4 -2.078319 -3.578535 -2.828427 -2.828427 
C -3.578535 -2.078319 -4 -1.060812 -4 0 
C -4 1.060812 -3.578535 2.078319 -2.828427 2.828427 
C -2.078319 3.578535 -1.060812 4 0 4 
z
" style="stroke: #c00000"/>
    </defs>
    <g clip-path="url(#pb514a955d7)">
     <use xlink:href="#m23669829a5" x="201.24" y="221.262187" style="fill: #c00000; stroke: #c00000"/>
    </g>
   </g>
  </g>
 </g>
 <defs>
  <clipPath id="pb514a955d7">
   <rect x="7.2" y="27.222187" width="388.08" height="388.08"/>
  </clipPath>
 </defs>
</svg>
