<?xml version="1.0" encoding="utf-8" standalone="no"?>
<!DOCTYPE svg PUBLIC "-//W3C//DTD SVG 1.1//EN"
  "http://www.w3.org/Graphics/SVG/1.1/DTD/svg11.dtd">
<svg xmlns:xlink="http://www.w3.org/1999/xlink" width="684pt" height="311.622187pt" viewBox="0 0 684 311.622187" xmlns="http://www.w3.org/2000/svg" version="1.1">
 <metadata>
  <rdf:RDF xmlns:dc="http://purl.org/dc/elements/1.1/" xmlns:cc="http://creativecommons.org/ns#" xmlns:rdf="http://www.w3.org/1999/02/22-rdf-syntax-ns#">
   <cc:Work>
    <dc:type rdf:resource="http://purl.org/dc/dcmitype/StillImage"/>
    <dc:date>2026-04-02T01:10:17.047403</dc:date>
    <dc:format>image/svg+xml</dc:format>
    <dc:creator>
     <cc:Agent>
      <dc:title>Matplotlib v3.10.8, https://matplotlib.org/</dc:title>
     </cc:Agent>
    </dc:creator>
   </cc:Work>
  </rdf:RDF>
 </metadata>
 <defs>
  <style type="text/css">*{stroke-linejoin: round; stroke-linecap: butt}</style>
 </defs>
 <g id="figure_1">
  <g id="patch_1">
   <path d="M 0 311.622187 
L 684 311.622187 
L 684 0 
L 0 0 
z
" style="fill: #ffffff"/>
  </g>
  <g id="axes_1">
   <g id="patch_2">
    <path d="M 12.78 264.102188 
L 169.02 264.102188 
Q 180.18 264.102188 180.18 254.022188 
L 180.18 92.742187 
Q 180.18 82.662187 169.02 82.662187 
L 12.78 82.662187 
Q 1.62 82.662187 1.62 92.742187 
L 1.62 254.022188 
Q 1.62 264.102188 12.78 264.102188 
z
" clip-path="url(#p835dc942d5)" style="fill: #e2efda; stroke: #538135; stroke-width: 1.8; stroke-linejoin: miter"/>
   </g>
   <g id="patch_3">
    <path d="M 180.18 264.102188 
L 336.42 264.102188 
Q 347.58 264.102188 347.58 254.022188 
L 347.58 62.502187 
Q 347.58 52.422187 336.42 52.422187 
L 180.18 52.422187 
Q 169.02 52.422187 169.02 62.502187 
L 169.02 254.022188 
Q 169.02 264.102188 180.18 264.102188 
z
" clip-path="url(#p835dc942d5)" style="fill: #ffcccc; stroke: #c00000; stroke-width: 3.5; stroke-linejoin: miter"/>
   </g>
   <g id="patch_4">
    <path d="M 347.58 264.102188 
L 503.82 264.102188 
Q 514.98 264.102188 514.98 254.022188 
L 514.98 92.742187 
Q 514.98 82.662187 503.82 82.662187 
L 347.58 82.662187 
Q 336.42 82.662187 336.42 92.742187 
L 336.42 254.022188 
Q 336.42 264.102188 347.58 264.102188 
z
" clip-path="url(#p835dc942d5)" style="fill: #deeaf1; stroke: #2e75b6; stroke-width: 1.8; stroke-linejoin: miter"/>
   </g>
   <g id="patch_5">
    <path d="M 514.98 264.102188 
L 671.22 264.102188 
Q 682.38 264.102188 682.38 254.022188 
L 682.38 92.742187 
Q 682.38 82.662187 671.22 82.662187 
L 514.98 82.662187 
Q 503.82 82.662187 503.82 92.742187 
L 503.82 254.022188 
Q 503.82 264.102188 514.98 264.102188 
z
" clip-path="url(#p835dc942d5)" style="fill: #ead1f5; stroke: #7030a0; stroke-width: 1.8; stroke-linejoin: miter"/>
   </g>
   <g id="text_1">
    <!-- 第1巻 -->
    <g style="fill: #538135" transform="translate(75.824844 148.868516) scale(0.11 -0.11)">
     <defs>
      <path id="HiraginoSans-W7-7b2c" d="M 2822 147 
C 2829 109 2829 64 2829 -13 
C 2829 -269 2822 -397 2790 -576 
L 3674 -576 
C 3642 -371 3629 -198 3629 141 
L 3610 1158 
L 5101 1158 
C 5062 608 5037 570 4723 570 
C 4576 570 4288 589 4058 621 
C 4154 352 4198 179 4243 -128 
C 4461 -134 4557 -141 4698 -141 
C 5658 -141 5792 -6 5882 1075 
C 5907 1357 5939 1715 5958 1850 
C 5805 1837 5638 1830 5402 1830 
L 3603 1830 
L 3597 2150 
L 5062 2150 
C 5325 2150 5510 2144 5664 2131 
C 5645 2272 5638 2381 5638 2611 
L 5638 3366 
C 5638 3610 5645 3706 5664 3840 
C 5491 3827 5402 3821 5062 3821 
L 4698 3821 
L 5267 3974 
C 5203 4083 5152 4166 5050 4320 
L 5459 4320 
C 5754 4320 5939 4314 6131 4288 
L 6131 5056 
C 5920 5024 5779 5018 5421 5018 
L 4314 5018 
C 4365 5126 4365 5126 4454 5331 
L 3635 5459 
C 3539 5107 3392 4832 3155 4563 
L 3155 5056 
C 3002 5030 2842 5024 2534 5024 
L 1792 5024 
C 1856 5146 1875 5184 1952 5331 
L 1133 5459 
C 998 5011 685 4608 160 4224 
C 352 4032 486 3853 634 3597 
C 717 3667 742 3686 806 3744 
L 806 3123 
C 986 3142 1133 3149 1382 3149 
L 2778 3149 
L 2784 2822 
L 1466 2822 
C 1165 2822 973 2829 864 2842 
C 858 2714 813 2426 755 2112 
C 691 1754 614 1478 422 928 
L 1299 915 
C 1331 1024 1350 1101 1370 1158 
L 2234 1158 
C 1709 730 979 390 198 211 
C 422 -51 544 -230 691 -512 
C 1542 -237 2278 198 2816 749 
L 2822 147 
z
M 2797 1830 
L 1530 1830 
C 1568 2016 1594 2125 1600 2150 
L 2790 2150 
L 2797 1830 
z
M 3584 3149 
L 4838 3149 
L 4838 2822 
L 3590 2822 
L 3584 3149 
z
M 3494 3821 
C 3674 3987 3782 4122 3930 4320 
L 4224 4320 
C 4358 4109 4442 3949 4493 3821 
L 3494 3821 
z
M 1382 3821 
C 1152 3821 1069 3821 909 3834 
C 1075 3994 1197 4128 1344 4326 
L 1626 4326 
C 1734 4141 1792 4013 1862 3821 
L 1382 3821 
z
M 2080 3821 
L 2624 3974 
C 2477 4218 2470 4237 2413 4326 
L 2739 4326 
C 2784 4326 2822 4326 2906 4320 
C 2854 4282 2835 4269 2784 4224 
C 2976 4077 3085 3974 3213 3821 
L 2080 3821 
z
" transform="scale(0.015625)"/>
      <path id="HiraginoSans-W7-31" d="M 947 4122 
C 1216 4154 1414 4166 1664 4166 
L 1946 4166 
L 1946 762 
C 1946 410 1926 122 1894 -134 
L 3066 -134 
C 3027 160 3014 403 3014 762 
L 3014 4058 
C 3014 4461 3027 4736 3066 5094 
C 2816 5075 2726 5069 2342 5069 
L 1645 5069 
C 1318 5069 1158 5075 947 5107 
L 947 4122 
z
" transform="scale(0.015625)"/>
      <path id="HiraginoSans-W7-5dfb" d="M 5382 2624 
C 5702 2624 5875 2618 6099 2592 
L 6099 3379 
C 5907 3354 5786 3347 5382 3347 
L 4461 3347 
C 4352 3507 4314 3590 4224 3782 
L 5107 3782 
C 5421 3782 5619 3776 5830 3757 
L 5830 4499 
C 5638 4474 5523 4467 5107 4467 
L 4870 4467 
C 5030 4678 5171 4902 5312 5158 
L 4454 5363 
C 4346 5082 4173 4762 3962 4467 
L 3405 4467 
C 3494 4768 3514 4838 3571 5056 
C 3610 5222 3622 5261 3667 5389 
L 2746 5459 
C 2739 5178 2688 4896 2566 4467 
L 2253 4467 
C 2093 4851 1984 5062 1786 5363 
L 979 5165 
C 1139 4941 1267 4730 1389 4467 
L 1299 4467 
C 896 4467 774 4474 589 4499 
L 589 3757 
C 794 3776 992 3782 1299 3782 
L 2310 3782 
C 2227 3616 2170 3501 2074 3347 
L 1018 3347 
C 627 3347 486 3354 301 3379 
L 301 2592 
C 499 2618 685 2624 1018 2624 
L 1517 2624 
C 1126 2221 749 1971 128 1696 
C 346 1408 474 1190 589 883 
C 1120 1210 1606 1594 1978 1984 
L 1978 1613 
C 2138 1626 2208 1632 2432 1632 
L 3776 1632 
L 3776 1312 
L 1798 1312 
C 1632 1312 1530 1318 1376 1338 
C 1389 1190 1389 1146 1389 998 
L 1389 96 
C 1389 -218 1517 -384 1798 -435 
C 2048 -486 2618 -506 3674 -506 
C 4973 -506 5242 -461 5434 -198 
C 5581 -6 5645 250 5670 787 
C 5402 838 5158 915 4883 1043 
L 4883 902 
C 4883 659 4858 454 4819 365 
C 4762 224 4589 205 3456 205 
C 2253 205 2202 211 2202 378 
L 2202 653 
L 4083 653 
C 4461 653 4461 653 4602 640 
C 4589 730 4582 819 4582 966 
L 4582 1120 
L 4589 1805 
C 4589 1875 4589 1914 4595 1990 
C 4979 1600 5280 1376 5792 1075 
C 5946 1376 6086 1594 6291 1843 
C 5741 2086 5446 2272 5062 2624 
L 5382 2624 
z
M 2656 2291 
C 2502 2291 2387 2291 2266 2298 
C 2394 2445 2445 2509 2528 2624 
L 4058 2624 
C 4154 2490 4205 2426 4307 2291 
C 4230 2291 4205 2291 4128 2291 
L 2656 2291 
z
M 2944 3347 
C 3021 3514 3046 3584 3123 3782 
L 3437 3782 
C 3533 3546 3565 3469 3629 3347 
L 2944 3347 
z
" transform="scale(0.015625)"/>
     </defs>
     <use xlink:href="#HiraginoSans-W7-7b2c"/>
     <use xlink:href="#HiraginoSans-W7-31" transform="translate(99.999985 0)"/>
     <use xlink:href="#HiraginoSans-W7-5dfb" transform="translate(174.099976 0)"/>
    </g>
   </g>
   <g id="text_2">
    <!-- Lean 4 入門 -->
    <g style="fill: #538135" transform="translate(64.880859 175.928906) scale(0.09 -0.09)">
     <defs>
      <path id="HiraginoSans-W4-4c" d="M 3085 0 
C 3475 0 3661 -6 3878 -38 
L 3878 589 
C 3622 557 3437 544 3085 544 
L 1139 544 
L 1139 4128 
C 1139 4512 1152 4685 1190 4934 
L 480 4934 
C 518 4704 531 4493 531 4122 
L 531 768 
C 531 435 518 218 480 -13 
C 717 0 883 0 1216 0 
L 3085 0 
z
" transform="scale(0.015625)"/>
      <path id="HiraginoSans-W4-65" d="M 3578 1651 
C 3558 1971 3546 2106 3533 2170 
C 3405 3066 2797 3610 1933 3610 
C 934 3610 282 2880 282 1760 
C 282 621 941 -96 1978 -96 
C 2470 -96 2880 64 3187 371 
C 3341 518 3424 646 3546 915 
L 3008 1114 
C 2944 928 2899 845 2803 742 
C 2605 512 2323 390 1984 390 
C 1613 390 1312 531 1114 800 
C 947 1024 883 1235 858 1651 
L 3578 1651 
z
M 877 2118 
C 915 2349 947 2451 1037 2605 
C 1229 2944 1542 3130 1920 3130 
C 2221 3130 2464 3040 2656 2854 
C 2842 2669 2938 2451 2976 2118 
L 877 2118 
z
" transform="scale(0.015625)"/>
      <path id="HiraginoSans-W4-61" d="M 2765 0 
L 3373 0 
C 3334 269 3322 422 3322 736 
L 3322 2515 
C 3322 2867 3238 3110 3046 3290 
C 2816 3514 2464 3622 1978 3622 
C 1485 3622 1094 3507 813 3270 
C 627 3123 531 2976 416 2656 
L 1011 2541 
C 1069 2714 1114 2797 1197 2886 
C 1370 3066 1626 3155 1971 3155 
C 2515 3155 2765 2950 2765 2515 
L 2765 2182 
C 1933 2163 1581 2118 1197 1997 
C 646 1818 333 1434 333 941 
C 333 320 774 -58 1491 -58 
C 1741 -58 1978 -19 2195 64 
C 2406 141 2522 218 2765 429 
L 2765 0 
z
M 2765 1363 
C 2765 1126 2707 973 2554 813 
C 2304 557 1920 397 1568 397 
C 1165 397 915 608 915 941 
C 915 1235 1075 1440 1395 1568 
C 1677 1683 2035 1728 2765 1747 
L 2765 1363 
z
" transform="scale(0.015625)"/>
      <path id="HiraginoSans-W4-6e" d="M 1114 0 
C 1082 256 1069 474 1069 755 
L 1069 2010 
C 1139 2272 1222 2426 1395 2630 
C 1658 2944 1933 3085 2266 3085 
C 2752 3085 3002 2797 3002 2234 
L 3002 755 
C 3002 454 2989 269 2957 0 
L 3629 0 
C 3597 218 3584 416 3584 749 
L 3584 2323 
C 3584 2662 3520 2912 3392 3110 
C 3181 3418 2816 3584 2349 3584 
C 1779 3584 1376 3360 1056 2867 
C 1069 3027 1069 3059 1069 3142 
L 1069 3520 
L 442 3520 
C 480 3264 493 3078 493 2765 
L 493 755 
C 493 429 480 256 442 0 
L 1114 0 
z
" transform="scale(0.015625)"/>
      <path id="HiraginoSans-W4-20" transform="scale(0.015625)"/>
      <path id="HiraginoSans-W4-34" d="M 179 1210 
C 403 1229 589 1235 954 1235 
L 2688 1235 
L 2688 710 
C 2688 410 2675 218 2630 0 
L 3309 0 
C 3270 230 3258 390 3258 704 
L 3258 1235 
L 3494 1235 
C 3763 1235 3910 1222 4154 1190 
L 4154 1798 
C 3917 1766 3750 1754 3494 1754 
L 3258 1754 
L 3258 3853 
C 3258 4358 3264 4544 3296 4934 
L 2701 4934 
C 2560 4704 2445 4550 2214 4269 
L 621 2298 
C 467 2099 326 1939 179 1773 
L 179 1210 
z
M 2688 1747 
L 858 1747 
L 2259 3514 
C 2464 3763 2592 3936 2720 4128 
C 2694 3814 2688 3622 2688 3283 
L 2688 1747 
z
" transform="scale(0.015625)"/>
      <path id="HiraginoSans-W4-5165" d="M 2957 4493 
C 2925 3898 2880 3571 2746 3123 
C 2547 2438 2208 1811 1728 1254 
C 1299 755 947 461 301 70 
C 486 -77 582 -192 698 -397 
C 1427 109 1914 563 2342 1165 
C 2778 1760 3040 2355 3251 3200 
C 3424 2483 3648 1958 4026 1389 
C 4499 672 5018 147 5773 -378 
C 5933 -128 5990 -58 6189 122 
C 5651 442 5421 621 5062 979 
C 4653 1389 4333 1811 4083 2278 
C 3686 3008 3494 3770 3494 4595 
C 3494 4736 3501 4864 3520 5018 
C 3392 4986 3232 4979 2931 4979 
L 2035 4979 
C 1786 4979 1664 4986 1517 5011 
L 1517 4461 
C 1734 4480 1907 4493 2042 4493 
L 2957 4493 
z
" transform="scale(0.015625)"/>
      <path id="HiraginoSans-W4-9580" d="M 1114 2906 
L 2278 2906 
C 2534 2906 2771 2899 2912 2886 
C 2899 3053 2893 3194 2893 3469 
L 2893 4557 
C 2893 4813 2899 4979 2912 5158 
C 2733 5139 2579 5133 2253 5133 
L 1274 5133 
C 947 5133 781 5139 608 5158 
C 627 4954 634 4774 634 4448 
L 634 288 
C 634 -51 621 -269 595 -454 
L 1152 -454 
C 1126 -288 1114 -83 1114 282 
L 1114 2906 
z
M 1114 4742 
L 2445 4742 
L 2445 4224 
L 1114 4224 
L 1114 4742 
z
M 1114 3840 
L 2445 3840 
L 2445 3296 
L 1114 3296 
L 1114 3840 
z
M 5779 4454 
C 5779 4749 5786 4934 5811 5158 
C 5638 5139 5472 5133 5139 5133 
L 4083 5133 
C 3757 5133 3603 5139 3430 5158 
C 3443 4954 3450 4787 3450 4557 
L 3450 3469 
C 3450 3213 3443 3072 3430 2886 
C 3584 2899 3782 2906 4064 2906 
L 5299 2906 
L 5299 256 
C 5299 115 5242 90 4947 90 
C 4762 90 4486 115 4166 160 
C 4237 -19 4269 -134 4294 -346 
C 4602 -358 4774 -365 4998 -365 
C 5632 -365 5779 -250 5779 243 
L 5779 4454 
z
M 3898 4742 
L 5299 4742 
L 5299 4224 
L 3898 4224 
L 3898 4742 
z
M 3898 3840 
L 5299 3840 
L 5299 3296 
L 3898 3296 
L 3898 3840 
z
" transform="scale(0.015625)"/>
     </defs>
     <use xlink:href="#HiraginoSans-W4-4c"/>
     <use xlink:href="#HiraginoSans-W4-65" transform="translate(61.299988 0)"/>
     <use xlink:href="#HiraginoSans-W4-61" transform="translate(121.499985 0)"/>
     <use xlink:href="#HiraginoSans-W4-6e" transform="translate(180.699982 0)"/>
     <use xlink:href="#HiraginoSans-W4-20" transform="translate(244.099976 0)"/>
     <use xlink:href="#HiraginoSans-W4-34" transform="translate(277.399963 0)"/>
     <use xlink:href="#HiraginoSans-W4-20" transform="translate(344.899948 0)"/>
     <use xlink:href="#HiraginoSans-W4-5165" transform="translate(378.199936 0)"/>
     <use xlink:href="#HiraginoSans-W4-9580" transform="translate(478.199921 0)"/>
    </g>
   </g>
   <g id="text_3">
    <!-- 型・証明・Mathlib -->
    <g style="fill: #538135" transform="translate(51.565781 203.648906) scale(0.09 -0.09)">
     <defs>
      <path id="HiraginoSans-W4-578b" d="M 1229 4672 
C 1222 4218 1222 3936 1216 3834 
L 992 3834 
C 717 3834 544 3840 378 3866 
L 378 3373 
C 538 3398 717 3405 979 3405 
L 1178 3405 
C 1139 3104 1094 2944 1011 2758 
C 877 2477 742 2317 384 2042 
C 550 1933 640 1843 755 1683 
C 1331 2170 1555 2611 1638 3405 
L 2490 3405 
L 2490 2560 
C 2490 2298 2477 2093 2451 1933 
L 2912 1933 
C 2918 1837 2925 1734 2925 1581 
L 2925 1434 
L 1651 1434 
C 1306 1434 1146 1440 979 1466 
L 979 966 
C 1178 992 1382 998 1690 998 
L 2925 998 
L 2925 205 
L 1126 205 
C 794 205 563 218 410 237 
L 410 -282 
C 614 -256 864 -243 1152 -243 
L 5293 -243 
C 5587 -243 5837 -256 6042 -282 
L 6042 237 
C 5875 211 5670 205 5318 205 
L 3405 205 
L 3405 998 
L 4774 998 
C 5082 998 5286 992 5485 966 
L 5485 1472 
C 5312 1446 5120 1434 4768 1434 
L 3405 1434 
L 3405 1581 
C 3405 1805 3411 1914 3437 2042 
L 2970 2042 
C 2957 2208 2950 2323 2950 2554 
L 2950 3405 
L 3149 3405 
C 3418 3405 3571 3398 3744 3373 
L 3744 3866 
C 3584 3840 3437 3834 3136 3834 
L 2950 3834 
L 2950 4672 
L 3027 4672 
C 3290 4672 3450 4666 3603 4646 
L 3603 5126 
C 3437 5101 3264 5094 2970 5094 
L 1184 5094 
C 909 5094 730 5101 544 5126 
L 544 4646 
C 698 4666 864 4672 1133 4672 
L 1229 4672 
z
M 2490 4672 
L 2490 3834 
L 1670 3834 
C 1683 4058 1683 4070 1683 4371 
C 1683 4435 1683 4544 1690 4672 
L 2490 4672 
z
M 4512 2797 
C 4493 2931 4486 3072 4486 3328 
L 4486 4480 
C 4486 4736 4493 4890 4518 5024 
L 3981 5024 
C 4000 4883 4013 4704 4013 4461 
L 4013 3360 
C 4013 3117 4000 2938 3981 2797 
L 4512 2797 
z
M 5805 4666 
C 5805 4960 5818 5158 5843 5293 
L 5286 5293 
C 5318 5114 5325 4966 5325 4691 
L 5325 2490 
C 5325 2368 5293 2342 5101 2342 
C 4845 2342 4621 2362 4339 2400 
C 4416 2240 4442 2131 4474 1901 
C 4710 1882 4902 1875 5094 1875 
C 5658 1875 5805 1990 5805 2413 
L 5805 4666 
z
" transform="scale(0.015625)"/>
      <path id="HiraginoSans-W4-30fb" d="M 3206 3027 
C 2880 3027 2611 2758 2611 2432 
C 2611 2112 2880 1843 3206 1843 
C 3526 1843 3795 2112 3795 2438 
C 3795 2765 3533 3027 3206 3027 
z
" transform="scale(0.015625)"/>
      <path id="HiraginoSans-W4-8a3c" d="M 4237 262 
L 3501 262 
L 3501 2835 
C 3501 3142 3514 3315 3539 3501 
L 2995 3501 
C 3027 3290 3034 3123 3034 2835 
L 3034 262 
C 2784 262 2688 269 2554 288 
L 2554 -224 
C 2714 -205 2912 -192 3219 -192 
L 5498 -192 
C 5773 -192 5978 -205 6170 -230 
L 6170 301 
C 5978 275 5773 262 5504 262 
L 4710 262 
L 4710 2381 
L 5338 2381 
C 5613 2381 5792 2368 5965 2342 
L 5965 2867 
C 5792 2842 5619 2829 5338 2829 
L 4710 2829 
L 4710 4582 
L 5389 4582 
C 5664 4582 5869 4570 6061 4544 
L 6061 5069 
C 5882 5043 5670 5030 5382 5030 
L 3411 5030 
C 3123 5030 2912 5043 2733 5069 
L 2733 4544 
C 2925 4570 3136 4582 3411 4582 
L 4237 4582 
L 4237 262 
z
M 506 4678 
C 666 4698 794 4704 1005 4704 
L 1914 4704 
C 2118 4704 2259 4698 2413 4678 
L 2413 5146 
C 2246 5120 2144 5114 1914 5114 
L 1005 5114 
C 768 5114 672 5120 506 5146 
L 506 4678 
z
M 288 3770 
C 448 3789 576 3795 800 3795 
L 2106 3795 
C 2349 3795 2432 3789 2579 3770 
L 2579 4250 
C 2438 4230 2323 4224 2067 4224 
L 800 4224 
C 557 4224 435 4230 288 4256 
L 288 3770 
z
M 531 2874 
C 672 2893 768 2899 979 2899 
L 1939 2899 
C 2144 2899 2227 2893 2381 2874 
L 2381 3328 
C 2266 3309 2163 3302 1939 3302 
L 979 3302 
C 755 3302 659 3309 531 3328 
L 531 2874 
z
M 531 1984 
C 666 2003 768 2010 979 2010 
L 1933 2010 
C 2144 2010 2234 2003 2381 1984 
L 2381 2438 
C 2259 2419 2157 2413 1939 2413 
L 979 2413 
C 768 2413 646 2419 531 2438 
L 531 1984 
z
M 966 -493 
L 966 -160 
L 1907 -160 
L 1907 -410 
L 2355 -410 
C 2342 -282 2336 -147 2336 109 
L 2336 1043 
C 2336 1274 2342 1395 2355 1536 
C 2240 1517 2170 1517 1901 1517 
L 1005 1517 
C 819 1517 672 1523 499 1542 
C 525 1376 531 1222 531 1011 
L 531 128 
C 531 -122 518 -301 493 -493 
L 966 -493 
z
M 966 1120 
L 1907 1120 
L 1907 237 
L 966 237 
L 966 1120 
z
" transform="scale(0.015625)"/>
      <path id="HiraginoSans-W4-660e" d="M 5363 1600 
L 5363 288 
C 5363 115 5318 70 5146 70 
C 4941 70 4710 96 4390 147 
C 4461 -26 4493 -160 4518 -371 
C 4768 -384 4998 -397 5133 -397 
C 5690 -397 5850 -262 5850 198 
L 5850 4397 
C 5850 4698 5856 4890 5875 5043 
C 5702 5024 5555 5018 5242 5018 
L 3866 5018 
C 3571 5018 3405 5024 3226 5043 
C 3251 4851 3258 4486 3258 3802 
C 3258 2291 3187 1613 2970 1050 
C 2778 557 2522 224 2048 -147 
C 2227 -269 2317 -352 2445 -512 
C 2835 -173 3027 64 3226 442 
C 3411 794 3526 1152 3603 1600 
L 5363 1600 
z
M 5363 3123 
L 5363 2035 
L 3661 2035 
C 3693 2374 3712 2637 3725 3123 
L 5363 3123 
z
M 5363 3552 
L 3738 3552 
C 3738 3629 3738 3654 3738 3770 
L 3738 4576 
L 5363 4576 
L 5363 3552 
z
M 582 1389 
C 582 1107 570 883 544 685 
L 1056 685 
L 1056 1184 
L 2195 1184 
L 2195 896 
L 2675 896 
C 2662 1069 2656 1197 2656 1530 
L 2656 4294 
C 2656 4614 2662 4736 2675 4896 
C 2515 4883 2400 4877 2106 4877 
L 1325 4877 
C 909 4877 755 4883 557 4896 
C 576 4704 582 4557 582 4275 
L 582 1389 
z
M 1050 4442 
L 2195 4442 
L 2195 3302 
L 1050 3302 
L 1050 4442 
z
M 1050 2880 
L 2195 2880 
L 2195 1613 
L 1050 1613 
L 1050 2880 
z
" transform="scale(0.015625)"/>
      <path id="HiraginoSans-W4-4d" d="M 5018 806 
C 5018 480 4998 211 4966 0 
L 5638 0 
C 5600 230 5587 422 5587 806 
L 5587 4122 
C 5587 4486 5600 4672 5638 4934 
L 4774 4934 
C 4736 4723 4672 4531 4557 4262 
L 3059 838 
L 1562 4262 
C 1466 4486 1389 4730 1344 4934 
L 480 4934 
C 518 4691 531 4467 531 4122 
L 531 806 
C 531 442 518 243 480 0 
L 1152 0 
C 1114 224 1101 442 1101 806 
L 1101 3059 
C 1101 3251 1082 3776 1056 4243 
C 1242 3667 1293 3533 1478 3117 
L 2534 723 
C 2669 435 2752 186 2784 0 
L 3322 0 
C 3386 250 3443 422 3578 717 
L 4666 3155 
C 4883 3648 4960 3846 5062 4237 
C 5043 3949 5018 3334 5018 3104 
L 5018 806 
z
" transform="scale(0.015625)"/>
      <path id="HiraginoSans-W4-74" d="M 851 4480 
C 877 4262 896 4006 896 3750 
L 896 3520 
L 646 3520 
C 378 3520 250 3526 70 3558 
L 70 2995 
C 275 3021 416 3034 640 3034 
L 896 3034 
L 896 787 
C 896 461 954 269 1094 134 
C 1235 6 1466 -64 1773 -64 
C 2042 -64 2246 -26 2515 83 
L 2374 602 
C 2176 486 2048 448 1875 448 
C 1741 448 1632 486 1568 544 
C 1504 608 1478 698 1478 883 
L 1478 3034 
L 1779 3034 
C 2074 3034 2221 3027 2426 2995 
L 2426 3558 
C 2214 3526 2074 3520 1773 3520 
L 1478 3520 
L 1478 3750 
C 1478 4026 1498 4275 1523 4480 
L 851 4480 
z
" transform="scale(0.015625)"/>
      <path id="HiraginoSans-W4-68" d="M 1107 0 
C 1075 256 1062 474 1062 755 
L 1062 2003 
C 1139 2272 1229 2438 1402 2643 
C 1645 2931 1933 3078 2259 3078 
C 2490 3078 2682 3002 2810 2861 
C 2931 2726 2995 2522 2995 2240 
L 2995 755 
C 2995 422 2982 224 2944 0 
L 3622 0 
C 3590 230 3578 448 3578 749 
L 3578 2362 
C 3578 3130 3123 3584 2355 3584 
C 1773 3584 1357 3347 1043 2854 
C 1056 3046 1062 3066 1062 3168 
L 1062 4173 
C 1062 4512 1069 4691 1107 4934 
L 442 4934 
C 480 4691 493 4512 493 4179 
L 493 755 
C 493 422 480 250 442 0 
L 1107 0 
z
" transform="scale(0.015625)"/>
      <path id="HiraginoSans-W4-6c" d="M 442 4934 
C 474 4704 486 4518 486 4179 
L 486 755 
C 486 429 474 250 442 0 
L 1120 0 
C 1088 262 1075 448 1075 755 
L 1075 4179 
C 1075 4512 1088 4698 1120 4934 
L 442 4934 
z
" transform="scale(0.015625)"/>
      <path id="HiraginoSans-W4-69" d="M 442 4934 
L 442 4294 
L 1152 4294 
L 1152 4934 
L 442 4934 
z
M 454 3520 
C 486 3296 499 3085 499 2765 
L 499 755 
C 499 461 486 282 454 0 
L 1133 0 
C 1101 269 1088 448 1088 755 
L 1088 2758 
C 1088 3104 1101 3290 1133 3520 
L 454 3520 
z
" transform="scale(0.015625)"/>
      <path id="HiraginoSans-W4-62" d="M 1050 0 
L 1050 314 
C 1043 448 1043 448 1037 506 
C 1037 518 1037 538 1037 557 
C 1338 141 1766 -64 2317 -64 
C 3341 -64 3962 634 3962 1786 
C 3962 2918 3360 3597 2355 3597 
C 1779 3597 1344 3379 1037 2931 
C 1050 3078 1056 3206 1056 3386 
L 1056 4173 
C 1056 4499 1069 4691 1101 4934 
L 442 4934 
C 474 4666 486 4461 486 4173 
L 486 774 
C 486 442 474 243 442 0 
L 1050 0 
z
M 3366 1786 
C 3366 941 2950 429 2259 429 
C 1555 429 1062 986 1062 1779 
C 1062 2566 1562 3104 2285 3104 
C 2970 3104 3366 2618 3366 1786 
z
" transform="scale(0.015625)"/>
     </defs>
     <use xlink:href="#HiraginoSans-W4-578b"/>
     <use xlink:href="#HiraginoSans-W4-30fb" transform="translate(99.999985 0)"/>
     <use xlink:href="#HiraginoSans-W4-8a3c" transform="translate(199.999969 0)"/>
     <use xlink:href="#HiraginoSans-W4-660e" transform="translate(299.999954 0)"/>
     <use xlink:href="#HiraginoSans-W4-30fb" transform="translate(399.999939 0)"/>
     <use xlink:href="#HiraginoSans-W4-4d" transform="translate(499.999924 0)"/>
     <use xlink:href="#HiraginoSans-W4-61" transform="translate(595.699905 0)"/>
     <use xlink:href="#HiraginoSans-W4-74" transform="translate(654.899902 0)"/>
     <use xlink:href="#HiraginoSans-W4-68" transform="translate(695.399887 0)"/>
     <use xlink:href="#HiraginoSans-W4-6c" transform="translate(758.699875 0)"/>
     <use xlink:href="#HiraginoSans-W4-69" transform="translate(782.999863 0)"/>
     <use xlink:href="#HiraginoSans-W4-62" transform="translate(807.79985 0)"/>
    </g>
   </g>
   <g id="text_4">
    <!-- 第2巻 -->
    <g style="fill: #c00000" transform="translate(243.224844 119.888516) scale(0.11 -0.11)">
     <defs>
      <path id="HiraginoSans-W7-32" d="M 3354 -134 
C 3782 -134 4045 -147 4384 -179 
L 4384 845 
C 4147 806 3846 794 3405 794 
L 1786 794 
C 1869 998 1939 1107 2086 1267 
C 2234 1421 2528 1670 2790 1856 
C 3546 2381 3597 2419 3750 2560 
C 4122 2893 4314 3283 4314 3712 
C 4314 4608 3565 5178 2387 5178 
C 1696 5178 1158 4966 813 4570 
C 570 4275 454 4006 358 3488 
L 1491 3360 
C 1530 3648 1568 3789 1664 3930 
C 1818 4154 2074 4275 2406 4275 
C 2867 4275 3187 4032 3187 3680 
C 3187 3347 3046 3168 2458 2771 
C 1792 2317 1600 2176 1363 1958 
C 941 1574 640 1126 474 627 
C 390 397 352 179 320 -160 
C 563 -134 666 -134 1210 -134 
L 3354 -134 
z
" transform="scale(0.015625)"/>
     </defs>
     <use xlink:href="#HiraginoSans-W7-7b2c"/>
     <use xlink:href="#HiraginoSans-W7-32" transform="translate(99.999985 0)"/>
     <use xlink:href="#HiraginoSans-W7-5dfb" transform="translate(174.099976 0)"/>
    </g>
   </g>
   <g id="text_5">
    <!-- 位相空間・距離空間 -->
    <g style="fill: #c00000" transform="translate(213.3 147.231875) scale(0.1 -0.1)">
     <defs>
      <path id="HiraginoSans-W4-4f4d" d="M 3667 4141 
L 2707 4141 
C 2381 4141 2202 4147 2016 4179 
L 2016 3661 
C 2163 3680 2374 3693 2720 3693 
L 5280 3693 
C 5555 3693 5754 3680 5965 3661 
L 5965 4179 
C 5779 4154 5581 4141 5280 4141 
L 4154 4141 
L 4154 4806 
C 4154 5024 4166 5152 4192 5293 
L 3622 5293 
C 3654 5139 3667 4992 3667 4794 
L 3667 4141 
z
M 2560 301 
C 2234 301 2035 314 1856 339 
L 1856 -198 
C 2061 -166 2278 -154 2573 -154 
L 5440 -154 
C 5728 -154 5965 -166 6157 -198 
L 6157 339 
C 5971 314 5773 301 5453 301 
L 4531 301 
C 4787 954 5050 1734 5229 2406 
C 5376 2957 5376 2957 5453 3206 
L 4883 3360 
C 4800 2618 4435 1306 4038 301 
L 2560 301 
z
M 992 294 
C 992 -45 979 -243 947 -467 
L 1510 -467 
C 1485 -224 1472 -6 1472 282 
L 1472 3718 
C 1696 4192 1786 4416 1971 4915 
C 2022 5069 2022 5075 2093 5261 
L 1562 5414 
C 1530 5197 1440 4864 1318 4550 
C 1037 3827 640 3187 141 2650 
C 250 2509 358 2310 410 2170 
C 672 2477 800 2662 1018 3027 
C 998 2758 992 2522 992 2253 
L 992 294 
z
M 3533 781 
C 3309 1856 3149 2426 2829 3296 
L 2342 3130 
C 2656 2330 2835 1670 3027 634 
L 3533 781 
z
" transform="scale(0.015625)"/>
      <path id="HiraginoSans-W4-76f8" d="M 2272 3686 
C 2426 3686 2560 3680 2688 3667 
L 2688 4147 
C 2566 4128 2445 4122 2272 4122 
L 1830 4122 
L 1830 4710 
C 1830 5018 1843 5222 1862 5370 
L 1318 5370 
C 1350 5216 1357 5069 1357 4710 
L 1357 4122 
L 870 4122 
C 653 4122 512 4128 403 4147 
L 403 3661 
C 518 3680 666 3686 864 3686 
L 1286 3686 
C 1075 2842 653 1971 218 1491 
C 352 1325 403 1235 499 1024 
C 902 1581 1158 2131 1395 2957 
C 1363 2349 1357 2176 1357 1920 
L 1357 250 
C 1357 -77 1344 -320 1318 -506 
L 1869 -506 
C 1843 -326 1830 -83 1830 250 
L 1830 2112 
C 1830 2310 1824 2547 1805 3098 
C 2010 2573 2176 2272 2509 1830 
C 2592 2016 2630 2086 2771 2278 
C 2330 2746 2086 3117 1869 3686 
L 2272 3686 
z
M 3405 -480 
L 3405 -38 
L 5325 -38 
L 5325 -454 
L 5837 -454 
C 5818 -288 5805 -26 5805 326 
L 5805 4429 
C 5805 4749 5811 4922 5824 5069 
C 5683 5056 5600 5050 5318 5050 
L 3418 5050 
C 3130 5050 3059 5050 2899 5062 
C 2918 4768 2925 4589 2925 4378 
L 2925 320 
C 2925 -6 2912 -250 2893 -480 
L 3405 -480 
z
M 3405 4595 
L 5325 4595 
L 5325 3533 
L 3405 3533 
L 3405 4595 
z
M 3405 3085 
L 5325 3085 
L 5325 1997 
L 3405 1997 
L 3405 3085 
z
M 3405 1549 
L 5325 1549 
L 5325 410 
L 3405 410 
L 3405 1549 
z
" transform="scale(0.015625)"/>
      <path id="HiraginoSans-W4-7a7a" d="M 2918 4634 
L 1210 4634 
C 947 4634 794 4640 550 4666 
C 570 4525 576 4397 576 4211 
L 576 3827 
C 576 3642 570 3488 544 3322 
L 1050 3322 
L 1050 4192 
L 2291 4192 
C 2259 3744 2163 3488 1958 3264 
C 1664 2944 1216 2733 461 2554 
C 608 2400 691 2278 762 2118 
C 1619 2406 2016 2624 2330 2982 
C 2598 3290 2733 3642 2771 4192 
L 3488 4192 
L 3488 2893 
C 3488 2541 3642 2477 4506 2477 
C 5197 2477 5440 2509 5587 2618 
C 5715 2720 5773 2899 5805 3251 
C 5606 3296 5523 3322 5344 3411 
C 5325 2918 5312 2906 4538 2906 
C 4288 2906 4141 2912 4064 2938 
C 3987 2957 3968 2982 3968 3072 
L 3968 4192 
L 5402 4192 
L 5402 3533 
L 5907 3533 
C 5882 3680 5875 3814 5875 3987 
L 5875 4211 
C 5875 4403 5882 4525 5901 4666 
C 5658 4640 5504 4634 5242 4634 
L 3418 4634 
L 3418 4915 
C 3418 5101 3430 5235 3456 5363 
L 2880 5363 
C 2906 5216 2918 5101 2918 4915 
L 2918 4634 
z
M 2925 1408 
L 2925 243 
L 1158 243 
C 870 243 576 256 422 282 
L 422 -250 
C 640 -218 858 -205 1158 -205 
L 5299 -205 
C 5587 -205 5805 -218 6022 -250 
L 6022 282 
C 5862 256 5600 243 5299 243 
L 3424 243 
L 3424 1408 
L 4781 1408 
C 5062 1408 5267 1395 5459 1370 
L 5459 1888 
C 5274 1862 5050 1850 4768 1850 
L 1619 1850 
C 1312 1850 1171 1856 986 1888 
L 986 1370 
C 1165 1395 1338 1408 1645 1408 
L 2925 1408 
z
" transform="scale(0.015625)"/>
      <path id="HiraginoSans-W4-9593" d="M 1075 3104 
L 2240 3104 
C 2496 3104 2694 3098 2874 3085 
C 2861 3251 2854 3405 2854 3667 
L 2854 4518 
C 2854 4768 2861 4934 2874 5126 
C 2694 5107 2541 5101 2221 5101 
L 1242 5101 
C 922 5101 755 5107 576 5126 
C 595 4922 602 4736 602 4416 
L 602 275 
C 602 -90 589 -288 563 -467 
L 1114 -467 
C 1088 -301 1075 -96 1075 269 
L 1075 3104 
z
M 1075 4730 
L 2413 4730 
L 2413 4282 
L 1075 4282 
L 1075 4730 
z
M 1075 3917 
L 2413 3917 
L 2413 3462 
L 1075 3462 
L 1075 3917 
z
M 5818 4422 
C 5818 4710 5824 4870 5850 5126 
C 5664 5107 5510 5101 5178 5101 
L 4070 5101 
C 3750 5101 3597 5107 3418 5126 
C 3430 4934 3437 4742 3437 4518 
L 3437 3667 
C 3437 3424 3430 3264 3418 3085 
C 3584 3098 3802 3104 4051 3104 
L 5350 3104 
L 5350 243 
C 5350 96 5299 64 5043 64 
C 4909 64 4646 90 4339 128 
C 4410 -38 4442 -154 4474 -365 
C 4602 -371 4960 -384 5094 -384 
C 5670 -384 5818 -262 5818 198 
L 5818 4422 
z
M 3878 4730 
L 5350 4730 
L 5350 4282 
L 3878 4282 
L 3878 4730 
z
M 3878 3917 
L 5350 3917 
L 5350 3462 
L 3878 3462 
L 3878 3917 
z
M 4416 2042 
C 4416 2285 4422 2458 4435 2630 
C 4250 2611 4096 2605 3814 2605 
L 2573 2605 
C 2291 2605 2131 2611 1946 2630 
C 1958 2445 1965 2266 1965 2042 
L 1965 576 
C 1965 314 1958 141 1933 -38 
L 2413 -38 
L 2413 384 
L 3795 384 
C 4064 384 4237 378 4435 365 
C 4422 531 4416 698 4416 941 
L 4416 2042 
z
M 2413 2221 
L 3974 2221 
L 3974 1709 
L 2413 1709 
L 2413 2221 
z
M 2413 1325 
L 3974 1325 
L 3974 768 
L 2413 768 
L 2413 1325 
z
" transform="scale(0.015625)"/>
      <path id="HiraginoSans-W4-8ddd" d="M 1549 422 
C 1325 365 1325 365 1082 307 
L 1082 1990 
C 1082 2202 1088 2342 1107 2515 
L 614 2515 
C 634 2330 646 2163 646 1965 
L 646 218 
C 448 186 320 166 205 166 
L 320 -365 
C 416 -333 602 -282 768 -243 
C 1638 -26 2176 128 2886 365 
L 2874 819 
C 2509 691 2387 653 1997 538 
L 1997 1754 
L 2304 1754 
C 2534 1754 2669 1747 2848 1722 
L 2848 2214 
C 2694 2182 2560 2176 2310 2176 
L 1997 2176 
L 1997 3072 
L 2208 3072 
C 2445 3072 2598 3066 2726 3053 
C 2714 3181 2714 3296 2714 3674 
L 2714 4467 
C 2714 4749 2720 4954 2733 5101 
C 2541 5075 2374 5069 2125 5069 
L 1165 5069 
C 922 5069 755 5075 570 5101 
C 582 4934 595 4730 595 4448 
L 595 3680 
C 595 3386 589 3219 570 3046 
C 762 3066 902 3072 1107 3072 
L 1549 3072 
L 1549 422 
z
M 1050 4653 
L 2266 4653 
L 2266 3482 
L 1050 3482 
L 1050 4653 
z
M 3648 1485 
L 5235 1485 
C 5440 1485 5574 1478 5779 1466 
C 5766 1606 5766 1709 5766 2022 
L 5766 3046 
C 5766 3270 5773 3411 5786 3590 
C 5626 3571 5472 3565 5216 3565 
L 3648 3565 
L 3648 4608 
L 5414 4608 
C 5658 4608 5862 4595 6054 4570 
L 6054 5107 
C 5862 5075 5677 5062 5402 5062 
L 3757 5062 
C 3488 5062 3309 5069 3142 5082 
C 3155 4922 3168 4678 3168 4448 
L 3168 186 
C 3168 -83 3155 -320 3130 -525 
L 3648 -525 
L 3648 -160 
L 5485 -160 
C 5754 -160 5946 -173 6131 -198 
L 6131 339 
C 5933 307 5734 294 5478 294 
L 3648 294 
L 3648 1485 
z
M 3648 1926 
L 3648 3123 
L 5299 3123 
L 5299 1926 
L 3648 1926 
z
" transform="scale(0.015625)"/>
      <path id="HiraginoSans-W4-96e2" d="M 5178 2630 
L 5376 2630 
C 5632 2630 5818 2618 5946 2598 
L 5946 3072 
C 5811 3046 5683 3040 5376 3040 
L 5178 3040 
L 5178 3917 
L 5434 3917 
C 5766 3917 5952 3910 6086 3891 
L 6086 4378 
C 5933 4346 5779 4339 5434 4339 
L 5197 4339 
C 5312 4570 5421 4813 5523 5062 
C 5536 5101 5555 5152 5587 5222 
L 5126 5357 
C 5030 4960 4922 4672 4755 4339 
L 4070 4339 
C 4147 4525 4198 4646 4275 4858 
C 4390 5184 4390 5184 4435 5293 
L 3949 5421 
C 3821 4666 3456 3821 3027 3302 
L 3027 3846 
C 3027 4019 3034 4134 3053 4262 
L 2605 4262 
C 2624 4141 2630 4006 2630 3846 
L 2630 2861 
L 1043 2861 
L 1043 3846 
C 1043 4006 1050 4122 1069 4269 
L 608 4269 
C 634 4096 640 3955 640 3802 
L 640 2944 
C 640 2726 634 2598 614 2496 
C 819 2509 941 2509 1152 2509 
L 1651 2509 
C 1619 2323 1613 2298 1581 2131 
L 1056 2131 
C 819 2131 653 2138 461 2157 
C 480 1958 486 1779 486 1498 
L 486 218 
C 486 -83 474 -282 454 -461 
L 954 -461 
C 934 -320 928 -173 928 211 
L 928 1760 
L 1498 1760 
C 1408 1376 1344 1146 1242 845 
C 1146 838 1082 832 1037 832 
C 1024 832 998 832 960 838 
L 1050 410 
C 1114 429 1178 442 1267 454 
C 1677 518 1990 582 2304 659 
C 2342 538 2355 486 2400 326 
L 2752 486 
C 2592 954 2509 1158 2317 1517 
L 1990 1389 
C 2093 1197 2118 1146 2189 986 
C 2074 960 1946 934 1645 890 
C 1728 1146 1760 1248 1901 1760 
L 2778 1760 
L 2778 154 
C 2778 19 2739 -6 2554 -6 
C 2368 -6 2208 6 1939 51 
C 2003 -122 2022 -224 2035 -390 
C 2285 -410 2355 -410 2470 -410 
C 3066 -410 3206 -314 3206 96 
L 3206 1587 
C 3206 1818 3213 1984 3232 2157 
C 3066 2138 2925 2131 2624 2131 
L 1997 2131 
C 2022 2266 2029 2278 2074 2509 
L 2554 2509 
C 2707 2509 2829 2509 3040 2496 
C 3034 2630 3027 2752 3027 2899 
L 3027 3264 
C 3123 3181 3200 3085 3296 2938 
C 3430 3123 3482 3200 3616 3443 
C 3597 3174 3597 3142 3597 2912 
L 3597 243 
C 3597 -102 3584 -326 3558 -474 
L 4045 -474 
L 4045 -166 
L 5504 -166 
C 5754 -166 5990 -179 6138 -205 
L 6138 288 
C 5997 262 5824 256 5536 256 
L 5178 256 
L 5178 1331 
L 5376 1331 
C 5619 1331 5811 1318 5946 1293 
L 5946 1779 
C 5798 1754 5645 1741 5376 1741 
L 5178 1741 
L 5178 2630 
z
M 4755 2630 
L 4755 1741 
L 4045 1741 
L 4045 2630 
L 4755 2630 
z
M 4755 3040 
L 4045 3040 
L 4045 3917 
L 4755 3917 
L 4755 3040 
z
M 4045 1331 
L 4755 1331 
L 4755 256 
L 4045 256 
L 4045 1331 
z
M 1606 4832 
L 864 4832 
C 646 4832 493 4838 352 4864 
L 352 4410 
C 486 4429 627 4435 851 4435 
L 2790 4435 
C 2989 4435 3149 4429 3309 4410 
L 3309 4864 
C 3162 4845 2976 4832 2784 4832 
L 2067 4832 
L 2067 4928 
C 2067 5114 2074 5216 2099 5357 
L 1568 5357 
C 1594 5248 1606 5120 1606 4922 
L 1606 4832 
z
M 2522 3309 
C 2349 3475 2298 3520 2157 3648 
C 2323 3827 2381 3898 2534 4077 
L 2234 4326 
C 2099 4115 2035 4038 1882 3878 
C 1760 3981 1677 4045 1408 4243 
L 1158 3994 
C 1389 3834 1466 3770 1626 3635 
C 1427 3475 1338 3411 1075 3258 
C 1178 3181 1216 3136 1331 2982 
C 1626 3181 1734 3258 1894 3398 
C 2035 3264 2093 3206 2272 3014 
L 2522 3309 
z
" transform="scale(0.015625)"/>
     </defs>
     <use xlink:href="#HiraginoSans-W4-4f4d"/>
     <use xlink:href="#HiraginoSans-W4-76f8" transform="translate(99.999985 0)"/>
     <use xlink:href="#HiraginoSans-W4-7a7a" transform="translate(199.999969 0)"/>
     <use xlink:href="#HiraginoSans-W4-9593" transform="translate(299.999954 0)"/>
     <use xlink:href="#HiraginoSans-W4-30fb" transform="translate(399.999939 0)"/>
     <use xlink:href="#HiraginoSans-W4-8ddd" transform="translate(499.999924 0)"/>
     <use xlink:href="#HiraginoSans-W4-96e2" transform="translate(599.999908 0)"/>
     <use xlink:href="#HiraginoSans-W4-7a7a" transform="translate(699.999893 0)"/>
     <use xlink:href="#HiraginoSans-W4-9593" transform="translate(799.999878 0)"/>
    </g>
   </g>
   <g id="text_6">
    <!-- Filter・ε-δ -->
    <g style="fill: #c00000" transform="translate(228.639844 174.951875) scale(0.1 -0.1)">
     <defs>
      <path id="HiraginoSans-W4-46" d="M 1133 2285 
L 2598 2285 
C 2950 2285 3149 2272 3366 2240 
L 3366 2867 
C 3130 2835 2938 2822 2598 2822 
L 1133 2822 
L 1133 4390 
L 2944 4390 
C 3296 4390 3494 4378 3712 4346 
L 3712 4979 
C 3469 4947 3270 4934 2938 4934 
L 1210 4934 
C 896 4934 698 4941 480 4954 
C 518 4698 531 4493 531 4198 
L 531 794 
C 531 429 518 218 480 0 
L 1184 0 
C 1146 237 1133 429 1133 800 
L 1133 2285 
z
" transform="scale(0.015625)"/>
      <path id="HiraginoSans-W4-72" d="M 2784 3520 
C 2522 3565 2394 3578 2195 3578 
C 1862 3578 1568 3488 1350 3315 
C 1242 3238 1165 3142 1056 2976 
C 1062 3027 1062 3040 1069 3085 
C 1069 3104 1069 3117 1069 3130 
C 1069 3162 1069 3181 1069 3187 
L 1069 3520 
L 442 3520 
C 474 3283 486 3104 486 2765 
L 486 755 
C 486 467 480 314 442 0 
L 1114 0 
C 1082 262 1069 448 1069 755 
L 1069 2022 
C 1101 2317 1158 2470 1312 2669 
C 1504 2912 1760 3034 2093 3034 
C 2259 3034 2381 3014 2618 2938 
L 2784 3520 
z
" transform="scale(0.015625)"/>
      <path id="HiraginoSans-W4-3b5" d="M 4800 2976 
C 4506 3386 4096 3571 3475 3571 
C 2592 3571 1978 3136 1978 2509 
C 1978 2195 2106 1984 2387 1850 
C 2144 1773 2022 1709 1894 1587 
C 1696 1402 1594 1152 1594 858 
C 1594 570 1715 320 1946 134 
C 2157 -26 2541 -122 2982 -122 
C 3424 -122 3795 -26 4096 166 
C 4256 269 4352 365 4525 576 
L 4045 845 
C 3770 518 3418 358 2970 358 
C 2464 358 2170 570 2170 922 
C 2170 1094 2253 1274 2387 1395 
C 2541 1523 2720 1574 3027 1574 
C 3264 1574 3488 1555 3686 1523 
L 3840 2099 
C 3654 2074 3392 2054 3123 2054 
C 2886 2054 2771 2080 2675 2163 
C 2586 2234 2534 2355 2534 2483 
C 2534 2854 2893 3098 3437 3098 
C 3891 3098 4154 2976 4352 2675 
L 4800 2976 
z
" transform="scale(0.015625)"/>
      <path id="HiraginoSans-W4-2d" d="M 192 1581 
C 384 1606 525 1613 781 1613 
L 1606 1613 
C 1875 1613 2010 1606 2202 1581 
L 2202 2202 
C 2022 2176 1882 2170 1606 2170 
L 781 2170 
C 512 2170 371 2176 192 2202 
L 192 1581 
z
" transform="scale(0.015625)"/>
      <path id="HiraginoSans-W4-3b4" d="M 5062 4902 
C 4634 4960 4314 4979 3891 4979 
C 3546 4979 3373 4960 3245 4896 
C 3136 4845 3059 4742 3059 4640 
C 3059 4525 3091 4474 3334 4198 
C 3584 3917 3802 3610 3923 3373 
C 3699 3501 3501 3546 3213 3546 
C 2106 3546 1261 2624 1261 1408 
C 1261 474 1843 -115 2771 -115 
C 3443 -115 4045 192 4403 717 
C 4666 1094 4800 1600 4800 2182 
C 4800 2573 4736 2848 4531 3264 
C 4378 3590 4154 3930 3885 4230 
C 3744 4390 3706 4435 3706 4467 
C 3706 4499 3750 4518 3840 4518 
C 4186 4518 4506 4480 4909 4390 
L 5062 4902 
z
M 3277 3072 
C 3859 3072 4218 2694 4218 2080 
C 4218 1645 4077 1216 3827 896 
C 3571 557 3213 378 2797 378 
C 2195 378 1850 762 1850 1414 
C 1850 1760 1939 2099 2112 2387 
C 2374 2829 2784 3072 3277 3072 
z
" transform="scale(0.015625)"/>
     </defs>
     <use xlink:href="#HiraginoSans-W4-46"/>
     <use xlink:href="#HiraginoSans-W4-69" transform="translate(61.399994 0)"/>
     <use xlink:href="#HiraginoSans-W4-6c" transform="translate(86.199982 0)"/>
     <use xlink:href="#HiraginoSans-W4-74" transform="translate(110.499969 0)"/>
     <use xlink:href="#HiraginoSans-W4-65" transform="translate(150.999954 0)"/>
     <use xlink:href="#HiraginoSans-W4-72" transform="translate(211.199951 0)"/>
     <use xlink:href="#HiraginoSans-W4-30fb" transform="translate(255.899948 0)"/>
     <use xlink:href="#HiraginoSans-W4-3b5" transform="translate(355.899933 0)"/>
     <use xlink:href="#HiraginoSans-W4-2d" transform="translate(455.899918 0)"/>
     <use xlink:href="#HiraginoSans-W4-3b4" transform="translate(493.199905 0)"/>
    </g>
   </g>
   <g id="text_7">
    <!-- ≪ いまここ ≫ -->
    <g style="fill: #c00000" transform="translate(224.970313 202.757031) scale(0.1 -0.1)">
     <defs>
      <path id="HiraginoSans-W7-226a" d="M 4198 4499 
L 3661 5062 
L 429 2432 
L 3661 -198 
L 4198 365 
L 1587 2432 
L 4198 4499 
z
M 6067 4499 
L 5530 5062 
L 2298 2432 
L 5530 -198 
L 6067 365 
L 3456 2432 
L 6067 4499 
z
" transform="scale(0.015625)"/>
      <path id="HiraginoSans-W7-20" transform="scale(0.015625)"/>
      <path id="HiraginoSans-W7-3044" d="M 595 4781 
C 614 4634 614 4582 621 4352 
C 659 2413 749 1600 1011 947 
C 1280 282 1658 -58 2125 -58 
C 2714 -58 3130 512 3469 1766 
C 3104 2022 2976 2144 2714 2458 
C 2637 2054 2528 1670 2374 1318 
C 2304 1146 2227 1056 2144 1056 
C 1818 1056 1581 2189 1581 3718 
C 1581 4160 1600 4525 1638 4774 
L 595 4781 
z
M 3808 4134 
C 4205 3642 4512 3098 4730 2496 
C 4954 1888 5094 1197 5120 582 
L 6086 941 
C 5914 2394 5446 3533 4627 4518 
L 3808 4134 
z
" transform="scale(0.015625)"/>
      <path id="HiraginoSans-W7-307e" d="M 5830 742 
C 5734 800 5696 826 5594 896 
C 4883 1382 4442 1606 3840 1786 
C 3840 1882 3827 2106 3821 2451 
C 4077 2464 4493 2496 4800 2528 
C 5184 2566 5184 2566 5274 2579 
C 5331 2579 5370 2586 5382 2586 
C 5466 2598 5466 2598 5517 2598 
L 5491 3437 
C 5075 3328 4563 3264 3808 3219 
C 3808 3322 3808 3494 3802 3744 
C 4237 3763 4640 3802 5139 3866 
C 5517 3917 5517 3917 5670 3923 
L 5645 4762 
C 5203 4646 4672 4576 3808 4531 
C 3821 5024 3821 5075 3859 5254 
L 2893 5254 
C 2925 5030 2931 4979 2931 4499 
C 2765 4493 2566 4486 2490 4486 
C 1747 4486 1088 4538 736 4627 
L 723 3776 
C 768 3782 806 3782 826 3782 
C 851 3782 909 3782 986 3776 
C 1818 3731 2362 3712 2605 3712 
C 2701 3712 2778 3712 2944 3718 
C 2944 3680 2944 3629 2944 3558 
L 2950 3187 
C 2778 3181 2554 3181 2419 3181 
C 1824 3181 1216 3219 934 3283 
L 928 2464 
C 1037 2464 1094 2464 1184 2458 
C 1766 2426 1984 2419 2400 2419 
C 2534 2419 2784 2426 2963 2426 
L 2976 1914 
C 2842 1920 2765 1926 2656 1926 
C 1517 1926 832 1498 832 781 
C 832 90 1382 -301 2355 -301 
C 3379 -301 3866 51 3866 787 
C 3866 806 3866 845 3859 890 
C 4224 736 4646 461 5011 154 
C 5152 32 5184 0 5312 -141 
L 5830 742 
z
M 2982 1101 
C 2982 1101 2989 1024 2989 973 
C 2989 602 2829 467 2394 467 
C 2016 467 1792 589 1792 787 
C 1792 1018 2067 1158 2515 1158 
C 2694 1158 2797 1146 2982 1101 
z
" transform="scale(0.015625)"/>
      <path id="HiraginoSans-W7-3053" d="M 1299 4006 
C 1382 4006 1389 4006 1523 3987 
C 1888 3942 2413 3910 2848 3910 
C 3136 3910 3277 3917 3578 3949 
C 3392 3840 2957 3571 2733 3424 
L 3386 2938 
C 4000 3392 4749 3859 5133 4032 
L 5101 4877 
C 4755 4800 4198 4762 3424 4762 
C 2490 4762 1747 4819 1357 4922 
L 1299 4006 
z
M 1811 2650 
C 1203 2163 941 1715 941 1190 
C 941 666 1222 294 1798 77 
C 2157 -64 2714 -134 3482 -134 
C 3949 -134 4358 -109 4928 -32 
C 5350 19 5350 19 5504 26 
L 5434 1075 
C 5005 909 4141 794 3354 794 
C 2355 794 1914 960 1914 1331 
C 1914 1581 2099 1850 2490 2163 
L 1811 2650 
z
" transform="scale(0.015625)"/>
      <path id="HiraginoSans-W7-226b" d="M 2202 4499 
L 4813 2432 
L 2202 365 
L 2739 -198 
L 5971 2432 
L 2739 5062 
L 2202 4499 
z
M 333 4499 
L 2944 2432 
L 333 365 
L 870 -198 
L 4102 2432 
L 870 5062 
L 333 4499 
z
" transform="scale(0.015625)"/>
     </defs>
     <use xlink:href="#HiraginoSans-W7-226a"/>
     <use xlink:href="#HiraginoSans-W7-20" transform="translate(99.999985 0)"/>
     <use xlink:href="#HiraginoSans-W7-3044" transform="translate(133.299973 0)"/>
     <use xlink:href="#HiraginoSans-W7-307e" transform="translate(233.299957 0)"/>
     <use xlink:href="#HiraginoSans-W7-3053" transform="translate(333.299942 0)"/>
     <use xlink:href="#HiraginoSans-W7-3053" transform="translate(433.299927 0)"/>
     <use xlink:href="#HiraginoSans-W7-20" transform="translate(533.299911 0)"/>
     <use xlink:href="#HiraginoSans-W7-226b" transform="translate(566.599899 0)"/>
    </g>
   </g>
   <g id="text_8">
    <!-- 第3巻 -->
    <g style="fill: #2e75b6" transform="translate(410.624844 148.868516) scale(0.11 -0.11)">
     <defs>
      <path id="HiraginoSans-W7-33" d="M 243 1158 
C 352 787 435 602 614 390 
C 979 -38 1568 -256 2349 -256 
C 3091 -256 3667 -70 4032 288 
C 4275 525 4422 877 4422 1229 
C 4422 1600 4326 1875 4122 2112 
C 3904 2349 3661 2470 3219 2554 
C 3654 2682 3821 2771 3994 2976 
C 4179 3187 4275 3475 4275 3808 
C 4275 4134 4141 4454 3917 4678 
C 3584 5011 3053 5190 2400 5190 
C 1715 5190 1190 5005 826 4640 
C 608 4422 506 4230 378 3840 
L 1517 3661 
C 1568 3840 1600 3917 1677 4013 
C 1818 4192 2054 4294 2349 4294 
C 2880 4294 3149 4090 3149 3674 
C 3149 3430 3046 3245 2854 3123 
C 2707 3027 2464 2976 2150 2976 
C 1952 2976 1734 2989 1542 3014 
L 1542 2074 
C 1779 2099 1997 2106 2317 2106 
C 2957 2106 3283 1856 3283 1376 
C 3283 922 2925 634 2362 634 
C 2054 634 1792 723 1606 902 
C 1472 1024 1421 1126 1370 1363 
L 243 1158 
z
" transform="scale(0.015625)"/>
     </defs>
     <use xlink:href="#HiraginoSans-W7-7b2c"/>
     <use xlink:href="#HiraginoSans-W7-33" transform="translate(99.999985 0)"/>
     <use xlink:href="#HiraginoSans-W7-5dfb" transform="translate(174.099976 0)"/>
    </g>
   </g>
   <g id="text_9">
    <!-- Lebesgue 積分 -->
    <g style="fill: #2e75b6" transform="translate(393.0525 176.221406) scale(0.09 -0.09)">
     <defs>
      <path id="HiraginoSans-W4-73" d="M 262 973 
C 326 704 378 589 480 448 
C 730 109 1184 -70 1786 -70 
C 2707 -70 3270 339 3270 1011 
C 3270 1293 3136 1555 2912 1722 
C 2720 1862 2483 1946 1894 2074 
C 1510 2157 1357 2208 1210 2285 
C 1075 2355 998 2483 998 2624 
C 998 2944 1312 3162 1760 3162 
C 2042 3162 2259 3078 2400 2925 
C 2483 2835 2515 2758 2554 2598 
L 3155 2688 
C 3066 2982 2982 3136 2810 3283 
C 2573 3494 2208 3610 1754 3610 
C 1299 3610 941 3494 698 3258 
C 518 3091 416 2861 416 2618 
C 416 2310 557 2054 819 1888 
C 1043 1747 1261 1677 1760 1574 
C 2246 1466 2349 1440 2490 1350 
C 2618 1274 2682 1139 2682 973 
C 2682 621 2342 397 1818 397 
C 1504 397 1267 474 1107 614 
C 986 730 934 832 890 1069 
L 262 973 
z
" transform="scale(0.015625)"/>
      <path id="HiraginoSans-W4-67" d="M 416 -678 
C 838 -1146 1261 -1325 1920 -1325 
C 2509 -1325 3014 -1152 3290 -858 
C 3578 -557 3699 -147 3699 531 
L 3699 2778 
C 3699 3091 3712 3258 3744 3520 
L 3142 3520 
L 3142 3194 
C 3142 3123 3142 3078 3155 2976 
C 2886 3373 2477 3578 1939 3578 
C 928 3578 288 2880 288 1792 
C 288 710 915 26 1907 26 
C 2285 26 2630 134 2880 326 
C 2989 416 3053 493 3155 659 
C 3142 237 3098 -38 3027 -218 
C 2861 -627 2470 -851 1933 -851 
C 1485 -851 1165 -698 896 -346 
L 416 -678 
z
M 883 1779 
C 883 2592 1306 3098 1990 3098 
C 2675 3098 3130 2592 3130 1830 
C 3130 1037 2650 499 1952 499 
C 1293 499 883 992 883 1779 
z
" transform="scale(0.015625)"/>
      <path id="HiraginoSans-W4-75" d="M 2944 3520 
C 2976 3264 2989 3046 2989 2765 
L 2989 1510 
C 2918 1248 2835 1094 2662 890 
C 2400 576 2125 435 1792 435 
C 1306 435 1056 723 1056 1286 
L 1056 2765 
C 1056 3066 1069 3251 1101 3520 
L 429 3520 
C 461 3302 474 3104 474 2771 
L 474 1197 
C 474 858 538 608 666 416 
C 877 109 1242 -58 1709 -58 
C 2272 -58 2682 166 3002 653 
C 2989 493 2989 461 2989 378 
L 2989 0 
L 3616 0 
C 3578 256 3565 442 3565 755 
L 3565 2765 
C 3565 3091 3578 3264 3616 3520 
L 2944 3520 
z
" transform="scale(0.015625)"/>
      <path id="HiraginoSans-W4-7a4d" d="M 2266 3091 
C 2445 3117 2605 3130 2854 3130 
L 5485 3130 
C 5741 3130 5882 3123 6080 3091 
L 6080 3539 
C 5914 3514 5747 3501 5485 3501 
L 4314 3501 
L 4314 3853 
L 5171 3853 
C 5440 3853 5568 3846 5728 3827 
L 5728 4224 
C 5581 4205 5434 4198 5165 4198 
L 4314 4198 
L 4314 4525 
L 5344 4525 
C 5619 4525 5728 4518 5920 4493 
L 5920 4928 
C 5728 4902 5568 4890 5325 4890 
L 4314 4890 
C 4314 5088 4320 5210 4352 5344 
L 3840 5344 
C 3866 5210 3878 5101 3878 4890 
L 3002 4890 
C 2739 4890 2579 4896 2432 4922 
L 2432 4493 
C 2605 4518 2714 4525 2976 4525 
L 3878 4525 
L 3878 4198 
L 3110 4198 
C 2874 4198 2726 4205 2586 4224 
L 2586 3827 
C 2733 3846 2861 3853 3117 3853 
L 3878 3853 
L 3878 3501 
L 2854 3501 
C 2598 3501 2438 3507 2310 3526 
L 2310 3744 
C 2182 3725 2080 3718 1869 3718 
L 1683 3718 
L 1683 4710 
C 1888 4781 2054 4838 2163 4890 
C 2272 4934 2272 4934 2368 4973 
L 2093 5363 
C 1792 5146 1075 4934 333 4838 
C 442 4666 474 4595 518 4422 
C 870 4493 1005 4518 1229 4576 
L 1229 3718 
L 896 3718 
C 640 3718 506 3725 358 3750 
L 358 3264 
C 518 3290 640 3296 883 3296 
L 1178 3296 
C 1030 2611 659 1843 224 1350 
C 365 1184 416 1107 506 941 
C 851 1395 1075 1856 1267 2560 
C 1242 2253 1229 1843 1229 1536 
L 1229 256 
C 1229 -58 1216 -294 1190 -480 
L 1722 -480 
C 1690 -301 1683 -109 1683 256 
L 1683 1805 
C 1683 2061 1664 2445 1645 2714 
C 1824 2272 1926 2080 2157 1792 
C 2234 1946 2304 2048 2400 2150 
C 2054 2502 1843 2848 1696 3296 
L 1862 3296 
C 2042 3296 2144 3290 2266 3277 
L 2266 3091 
z
M 5139 486 
C 5357 486 5498 480 5690 467 
C 5670 602 5664 736 5664 1069 
L 5664 2285 
C 5664 2618 5664 2726 5690 2867 
C 5523 2854 5408 2848 5126 2848 
L 3123 2848 
C 2861 2848 2720 2854 2573 2861 
C 2592 2733 2598 2611 2598 2304 
L 2598 1050 
C 2598 800 2586 602 2573 467 
C 2643 474 2835 480 3136 486 
L 5139 486 
z
M 3034 2490 
L 5222 2490 
L 5222 2176 
L 3034 2176 
L 3034 2490 
z
M 3034 1843 
L 5222 1843 
L 5222 1517 
L 3034 1517 
L 3034 1843 
z
M 3034 1184 
L 5222 1184 
L 5222 845 
L 3034 845 
L 3034 1184 
z
M 3392 467 
C 2906 141 2586 6 1971 -128 
C 2125 -314 2157 -358 2240 -531 
C 2886 -339 3232 -173 3699 179 
L 3392 467 
z
M 4531 179 
C 5011 -166 5357 -326 5978 -525 
C 6074 -333 6125 -250 6246 -102 
C 5658 45 5325 179 4813 474 
L 4531 179 
z
" transform="scale(0.015625)"/>
      <path id="HiraginoSans-W4-5206" d="M 2458 2598 
C 2413 2054 2323 1722 2112 1331 
C 1811 762 1274 301 518 -32 
C 685 -198 755 -294 851 -467 
C 2003 115 2630 870 2880 1952 
C 2925 2163 2944 2272 2970 2598 
L 4390 2598 
C 4390 1715 4333 954 4243 538 
C 4173 205 4128 166 3853 166 
C 3622 166 3328 198 2982 269 
C 3059 51 3085 -70 3110 -269 
C 3488 -301 3706 -314 3898 -314 
C 4326 -314 4499 -243 4614 -26 
C 4781 288 4890 1299 4902 2618 
C 4902 2925 4902 2963 4922 3085 
C 4736 3059 4544 3053 4250 3053 
L 2067 3053 
C 1824 3053 1619 3066 1440 3085 
L 1440 2560 
C 1619 2586 1824 2598 2067 2598 
L 2458 2598 
z
M 2189 5299 
C 2157 5114 2080 4922 1926 4634 
C 1517 3885 973 3296 192 2771 
C 358 2624 467 2496 557 2342 
C 1446 3002 2099 3795 2573 4774 
C 2656 4954 2694 5018 2752 5101 
L 2189 5299 
z
M 3629 5082 
C 3667 5018 3718 4922 3770 4819 
C 4294 3763 4909 3034 5882 2317 
C 6003 2528 6099 2656 6234 2790 
C 5389 3341 4838 3923 4384 4742 
C 4243 4986 4186 5114 4134 5286 
L 3629 5082 
z
" transform="scale(0.015625)"/>
     </defs>
     <use xlink:href="#HiraginoSans-W4-4c"/>
     <use xlink:href="#HiraginoSans-W4-65" transform="translate(61.299988 0)"/>
     <use xlink:href="#HiraginoSans-W4-62" transform="translate(121.499985 0)"/>
     <use xlink:href="#HiraginoSans-W4-65" transform="translate(187.799973 0)"/>
     <use xlink:href="#HiraginoSans-W4-73" transform="translate(247.999969 0)"/>
     <use xlink:href="#HiraginoSans-W4-67" transform="translate(303.299957 0)"/>
     <use xlink:href="#HiraginoSans-W4-75" transform="translate(368.599945 0)"/>
     <use xlink:href="#HiraginoSans-W4-65" transform="translate(431.999939 0)"/>
     <use xlink:href="#HiraginoSans-W4-20" transform="translate(492.199936 0)"/>
     <use xlink:href="#HiraginoSans-W4-7a4d" transform="translate(525.499924 0)"/>
     <use xlink:href="#HiraginoSans-W4-5206" transform="translate(625.499908 0)"/>
    </g>
   </g>
   <g id="text_10">
    <!-- 測度論 -->
    <g style="fill: #2e75b6" transform="translate(412.2 203.648906) scale(0.09 -0.09)">
     <defs>
      <path id="HiraginoSans-W4-6e2c" d="M 474 4941 
C 877 4659 1120 4442 1408 4090 
L 1741 4448 
C 1453 4781 1229 4979 800 5274 
L 474 4941 
z
M 256 3354 
C 672 3098 922 2893 1267 2522 
L 1574 2918 
C 1235 3245 979 3437 557 3699 
L 256 3354 
z
M 1222 1875 
C 941 960 627 288 326 -38 
L 755 -410 
C 794 -326 813 -282 896 -128 
C 1197 416 1402 902 1619 1594 
L 1222 1875 
z
M 3328 1146 
C 3526 1146 3648 1139 3866 1126 
C 3853 1261 3846 1472 3846 1728 
L 3846 4538 
C 3846 4813 3853 4986 3872 5158 
C 3680 5146 3558 5139 3360 5139 
L 2438 5139 
C 2202 5139 2061 5146 1926 5158 
C 1939 4973 1946 4806 1946 4595 
L 1946 1766 
C 1946 1414 1946 1312 1926 1126 
C 2061 1139 2214 1146 2438 1146 
L 3328 1146 
z
M 2387 4730 
L 3411 4730 
L 3411 3955 
L 2387 3955 
L 2387 4730 
z
M 2387 3552 
L 3411 3552 
L 3411 2778 
L 2387 2778 
L 2387 3552 
z
M 2387 2374 
L 3411 2374 
L 3411 1555 
L 2387 1555 
L 2387 2374 
z
M 3034 755 
C 3309 269 3501 6 3878 -390 
C 4038 -218 4109 -147 4237 -58 
C 3859 269 3674 499 3411 973 
L 3034 755 
z
M 4890 1088 
C 4864 1248 4858 1408 4858 1715 
L 4858 4314 
C 4858 4614 4864 4749 4890 4941 
L 4365 4941 
C 4390 4768 4397 4602 4397 4320 
L 4397 1715 
C 4397 1434 4384 1254 4365 1088 
L 4890 1088 
z
M 2323 979 
C 2099 480 1926 250 1485 -115 
C 1619 -218 1696 -288 1837 -448 
C 2266 -38 2464 237 2714 768 
L 2323 979 
z
M 5914 4512 
C 5914 4870 5926 5082 5952 5261 
L 5408 5261 
C 5434 5024 5446 4826 5446 4512 
L 5446 269 
C 5446 128 5402 102 5146 102 
C 4947 102 4749 122 4499 154 
C 4570 -13 4589 -109 4621 -333 
C 5011 -352 5024 -352 5152 -352 
C 5773 -352 5914 -250 5914 186 
L 5914 4512 
z
" transform="scale(0.015625)"/>
      <path id="HiraginoSans-W4-5ea6" d="M 2400 3379 
L 2400 2752 
C 2400 2624 2394 2483 2381 2362 
C 2464 2374 2579 2374 2835 2374 
L 4365 2374 
C 4602 2374 4672 2374 4774 2362 
C 4762 2477 4755 2605 4755 2752 
L 4755 3379 
L 5478 3379 
C 5760 3379 5920 3373 6061 3347 
L 6061 3821 
C 5901 3795 5760 3789 5485 3789 
L 4755 3789 
L 4755 3859 
C 4755 4026 4762 4141 4781 4256 
L 4262 4256 
C 4282 4141 4288 4013 4288 3866 
L 4288 3789 
L 2867 3789 
L 2867 3878 
C 2867 4006 2874 4115 2893 4256 
L 2374 4256 
C 2394 4147 2400 4032 2400 3872 
L 2400 3789 
L 1312 3789 
L 1312 4403 
L 5376 4403 
C 5677 4403 5837 4397 6048 4378 
L 6048 4864 
C 5875 4838 5677 4826 5325 4826 
L 3622 4826 
L 3622 4998 
C 3622 5171 3629 5280 3654 5402 
L 3098 5402 
C 3123 5274 3136 5152 3136 4998 
L 3136 4826 
L 1478 4826 
C 1222 4826 1011 4838 800 4858 
C 819 4672 826 4480 826 4051 
C 826 1670 698 845 198 -26 
C 358 -147 454 -237 595 -416 
C 1120 538 1267 1318 1306 3379 
L 2400 3379 
z
M 2867 3379 
L 4288 3379 
L 4288 2765 
L 2867 2765 
L 2867 3379 
z
M 5030 1933 
C 4896 1920 4787 1914 4570 1914 
L 2272 1914 
C 1939 1914 1766 1920 1613 1946 
L 1613 1491 
C 1766 1517 1907 1523 2195 1523 
C 2522 1056 2771 800 3187 493 
C 2598 224 1997 77 1126 -19 
C 1235 -218 1280 -320 1318 -493 
C 2291 -333 2931 -134 3610 224 
C 4256 -141 4902 -339 5882 -474 
C 5939 -275 6003 -128 6099 32 
C 5338 77 4653 230 4058 499 
C 4429 749 4774 1056 5069 1395 
C 5190 1536 5235 1587 5299 1651 
L 5030 1933 
z
M 4582 1523 
C 4230 1152 4013 973 3622 723 
C 3206 986 2957 1210 2733 1523 
L 4582 1523 
z
" transform="scale(0.015625)"/>
      <path id="HiraginoSans-W4-8ad6" d="M 3469 1197 
L 3469 333 
C 3469 -13 3462 -179 3437 -339 
L 3910 -339 
C 3891 -173 3885 -13 3885 333 
L 3885 1197 
L 4442 1197 
L 4442 346 
C 4442 45 4435 -147 4410 -326 
L 4883 -326 
C 4864 -147 4858 64 4858 346 
L 4858 1197 
L 5504 1197 
L 5504 160 
C 5504 58 5478 32 5357 32 
C 5216 32 5139 38 4966 58 
C 5037 -77 5056 -147 5075 -397 
C 5158 -403 5197 -403 5261 -403 
C 5472 -403 5651 -384 5722 -358 
C 5882 -301 5946 -166 5946 96 
L 5946 2234 
C 5946 2528 5952 2656 5978 2874 
C 5843 2848 5677 2842 5318 2842 
L 3053 2842 
C 2726 2842 2566 2848 2413 2874 
C 2432 2662 2438 2534 2438 2202 
L 2438 160 
C 2438 -134 2426 -326 2406 -486 
L 2918 -486 
C 2893 -333 2880 -147 2880 160 
L 2880 1197 
L 3469 1197 
z
M 3469 1594 
L 2880 1594 
L 2880 2445 
L 3469 2445 
L 3469 1594 
z
M 3885 1594 
L 3885 2445 
L 4442 2445 
L 4442 1594 
L 3885 1594 
z
M 4858 1594 
L 4858 2445 
L 5504 2445 
L 5504 1594 
L 4858 1594 
z
M 2048 3776 
C 2182 3654 2259 3565 2362 3373 
C 2605 3501 2771 3610 2989 3776 
L 2989 3322 
C 3174 3341 3290 3347 3552 3347 
L 4755 3347 
C 5011 3347 5152 3341 5312 3322 
L 5312 3789 
C 5158 3770 5011 3763 4755 3763 
L 3552 3763 
C 3302 3763 3142 3770 3002 3782 
C 3501 4160 3782 4454 4096 4941 
C 4442 4486 4685 4250 5133 3930 
C 5421 3725 5658 3590 6086 3373 
C 6150 3558 6234 3712 6349 3853 
C 5888 4026 5562 4198 5190 4480 
C 4813 4762 4550 5037 4371 5331 
L 3782 5331 
C 3648 5056 3482 4838 3181 4550 
C 2861 4250 2573 4045 2176 3840 
L 2176 4269 
C 2048 4250 1939 4243 1690 4243 
L 762 4243 
C 531 4243 416 4250 269 4275 
L 269 3808 
C 422 3827 544 3834 762 3834 
L 1728 3834 
C 1933 3834 2029 3827 2125 3814 
L 2048 3776 
z
M 474 4704 
C 602 4723 749 4730 954 4730 
L 1619 4730 
C 1830 4730 1952 4723 2099 4704 
L 2099 5158 
C 1939 5133 1837 5126 1619 5126 
L 954 5126 
C 736 5126 627 5133 474 5158 
L 474 4704 
z
M 499 2918 
C 640 2938 736 2944 934 2944 
L 1619 2944 
C 1805 2944 1875 2938 2042 2918 
L 2042 3366 
C 1920 3347 1824 3341 1619 3341 
L 934 3341 
C 723 3341 621 3347 499 3366 
L 499 2918 
z
M 499 2029 
C 634 2042 730 2048 928 2048 
L 1613 2048 
C 1811 2048 1894 2042 2042 2029 
L 2042 2470 
C 1907 2451 1837 2445 1619 2445 
L 934 2445 
C 710 2445 621 2451 499 2470 
L 499 2029 
z
M 915 -134 
L 1638 -134 
L 1638 -352 
L 2061 -352 
C 2048 -211 2042 -83 2042 141 
L 2042 1056 
C 2042 1357 2042 1414 2061 1581 
C 1958 1562 1850 1555 1651 1555 
L 896 1555 
C 710 1555 640 1562 454 1574 
C 480 1414 486 1254 486 1018 
L 486 141 
C 486 -115 474 -326 454 -480 
L 915 -480 
L 915 -134 
z
M 902 1178 
L 1638 1178 
L 1638 250 
L 902 250 
L 902 1178 
z
" transform="scale(0.015625)"/>
     </defs>
     <use xlink:href="#HiraginoSans-W4-6e2c"/>
     <use xlink:href="#HiraginoSans-W4-5ea6" transform="translate(99.999985 0)"/>
     <use xlink:href="#HiraginoSans-W4-8ad6" transform="translate(199.999969 0)"/>
    </g>
   </g>
   <g id="text_11">
    <!-- 第4巻 -->
    <g style="fill: #7030a0" transform="translate(578.024844 148.868516) scale(0.11 -0.11)">
     <defs>
      <path id="HiraginoSans-W7-34" d="M 141 992 
C 352 1011 570 1018 954 1018 
L 2739 1018 
L 2739 634 
C 2739 301 2726 96 2688 -134 
L 3802 -134 
C 3763 102 3750 282 3750 621 
L 3750 1011 
L 3930 1011 
C 4173 1011 4384 998 4595 973 
L 4595 1958 
C 4358 1920 4160 1907 3930 1907 
L 3750 1907 
L 3750 3994 
C 3750 4461 3763 4698 3795 5069 
L 2714 5069 
C 2560 4826 2451 4691 2157 4333 
L 704 2592 
C 582 2451 397 2234 141 1946 
L 141 992 
z
M 2752 1901 
L 1280 1901 
L 2394 3270 
C 2560 3475 2688 3635 2784 3776 
C 2758 3424 2752 3270 2752 3078 
L 2752 1901 
z
" transform="scale(0.015625)"/>
     </defs>
     <use xlink:href="#HiraginoSans-W7-7b2c"/>
     <use xlink:href="#HiraginoSans-W7-34" transform="translate(99.999985 0)"/>
     <use xlink:href="#HiraginoSans-W7-5dfb" transform="translate(174.099976 0)"/>
    </g>
   </g>
   <g id="text_12">
    <!-- 確率微分方程式 -->
    <g style="fill: #7030a0" transform="translate(561.6 175.928906) scale(0.09 -0.09)">
     <defs>
      <path id="HiraginoSans-W4-78ba" d="M 2234 2355 
C 2342 2234 2419 2125 2496 1958 
C 2682 2150 2784 2278 2886 2438 
C 2880 2400 2874 2208 2867 1856 
L 2867 160 
C 2867 -154 2854 -320 2822 -518 
L 3302 -518 
L 3302 -211 
L 5402 -211 
C 5619 -211 5792 -224 6010 -250 
L 6010 230 
C 5830 205 5690 198 5402 198 
L 4659 198 
L 4659 870 
L 5229 870 
C 5440 870 5568 864 5786 838 
L 5786 1293 
C 5619 1267 5491 1261 5216 1261 
L 4659 1261 
L 4659 1888 
L 5229 1888 
C 5434 1888 5581 1882 5786 1856 
L 5786 2310 
C 5632 2285 5498 2278 5216 2278 
L 4659 2278 
L 4659 2912 
L 5325 2912 
C 5517 2912 5664 2906 5875 2886 
L 5875 3341 
C 5702 3315 5587 3309 5312 3309 
L 4774 3309 
C 4845 3437 4915 3603 4992 3808 
C 5005 3834 5018 3872 5037 3923 
L 4582 4026 
C 4525 3776 4435 3539 4320 3309 
L 3533 3309 
C 3757 3674 3872 3898 4026 4275 
L 5562 4275 
L 5562 3597 
L 6048 3597 
C 6029 3718 6022 3814 6022 3968 
L 6022 4301 
C 6022 4499 6029 4621 6042 4736 
C 5862 4710 5677 4704 5421 4704 
L 4179 4704 
C 4211 4794 4275 4998 4378 5318 
L 3878 5395 
C 3840 5165 3789 4960 3712 4704 
L 3002 4704 
C 2650 4704 2592 4704 2470 4723 
C 2477 4576 2483 4467 2483 4397 
L 2483 3968 
C 2483 3814 2477 3686 2458 3578 
L 2918 3578 
L 2918 4275 
L 3558 4275 
C 3373 3821 3226 3558 2963 3187 
C 2720 2835 2573 2669 2234 2368 
L 2234 2598 
C 2234 2816 2240 2957 2253 3104 
C 2131 3085 2022 3078 1862 3078 
L 1178 3078 
C 1389 3674 1485 4045 1587 4653 
L 1926 4653 
C 2099 4653 2189 4646 2368 4627 
L 2368 5120 
C 2182 5088 2042 5082 1805 5082 
L 966 5082 
C 723 5082 550 5094 378 5120 
L 378 4614 
C 557 4646 685 4653 928 4653 
L 1126 4653 
C 1062 4198 1005 3930 896 3571 
C 698 2950 474 2515 128 2080 
C 237 1926 269 1869 371 1613 
C 531 1830 627 1997 781 2342 
C 762 2138 749 1805 749 1709 
L 749 282 
C 749 13 736 -166 710 -339 
L 1190 -339 
L 1190 307 
L 1811 307 
L 1811 -45 
L 2253 -45 
C 2240 102 2234 230 2234 480 
L 2234 2355 
z
M 3302 2278 
L 3302 2912 
L 4237 2912 
L 4237 2278 
L 3302 2278 
z
M 3302 1888 
L 4237 1888 
L 4237 1261 
L 3302 1261 
L 3302 1888 
z
M 3302 870 
L 4237 870 
L 4237 198 
L 3302 198 
L 3302 870 
z
M 1190 2656 
L 1811 2656 
L 1811 736 
L 1190 736 
L 1190 2656 
z
" transform="scale(0.015625)"/>
      <path id="HiraginoSans-W4-7387" d="M 2074 2310 
C 2035 2304 2003 2304 1997 2304 
C 1894 2304 1728 2310 1645 2323 
L 1722 1862 
C 1798 1875 1888 1888 2061 1901 
C 3078 1984 3469 2029 4109 2144 
C 4198 2003 4230 1939 4333 1734 
L 4742 1926 
C 4371 2490 4250 2643 3872 3053 
L 3526 2886 
C 3718 2688 3776 2618 3898 2458 
C 3680 2426 3680 2426 2739 2342 
C 2925 2502 2925 2502 3315 2893 
L 3398 2970 
C 3814 3398 3872 3462 4147 3827 
L 3782 4083 
C 3520 3693 3398 3539 3091 3200 
C 2963 3341 2906 3405 2720 3571 
C 2970 3866 3117 4077 3302 4403 
L 5427 4403 
C 5696 4403 5888 4397 6074 4371 
L 6074 4883 
C 5882 4858 5677 4845 5376 4845 
L 3398 4845 
L 3398 4960 
C 3398 5126 3411 5235 3437 5382 
L 2886 5382 
C 2906 5248 2918 5114 2918 4960 
L 2918 4845 
L 1082 4845 
C 787 4845 589 4858 390 4883 
L 390 4371 
C 576 4397 774 4403 1030 4403 
L 2810 4403 
C 2714 4205 2592 4026 2432 3827 
C 2342 3904 2291 3942 2150 4045 
L 1856 3738 
C 2253 3456 2534 3206 2803 2899 
C 2573 2669 2458 2560 2170 2310 
L 2074 2310 
z
M 3379 928 
L 5402 928 
C 5683 928 5901 915 6093 890 
L 6093 1414 
C 5920 1389 5690 1370 5453 1370 
L 3379 1370 
L 3379 1453 
C 3379 1632 3386 1747 3405 1856 
L 2867 1856 
C 2886 1754 2893 1619 2893 1459 
L 2893 1370 
L 966 1370 
C 723 1370 474 1389 314 1414 
L 314 890 
C 538 915 730 928 998 928 
L 2893 928 
L 2893 32 
C 2893 -179 2880 -352 2848 -544 
L 3424 -544 
C 3392 -358 3379 -192 3379 32 
L 3379 928 
z
M 595 3898 
C 986 3597 1146 3443 1485 3040 
L 1837 3366 
C 1536 3693 1312 3891 941 4186 
L 595 3898 
z
M 563 1722 
C 678 1786 698 1792 787 1843 
C 954 1920 992 1946 1146 2029 
C 1478 2221 1651 2336 2035 2624 
L 1830 2995 
C 1350 2611 845 2336 352 2195 
L 563 1722 
z
M 5299 4205 
C 4973 3827 4717 3610 4275 3315 
L 4589 2995 
C 5024 3302 5312 3552 5658 3910 
L 5299 4205 
z
M 4499 2643 
C 4986 2323 5280 2080 5651 1690 
L 5978 2067 
C 5536 2451 5312 2618 4787 2944 
L 4499 2643 
z
" transform="scale(0.015625)"/>
      <path id="HiraginoSans-W4-5fae" d="M 6195 4320 
C 6054 4294 5901 4282 5645 4282 
L 4909 4282 
C 4986 4518 5030 4685 5069 4851 
C 5126 5114 5126 5114 5171 5254 
L 4672 5350 
C 4672 5146 4614 4826 4538 4506 
C 4365 3808 4115 3264 3770 2822 
C 3866 2752 3898 2720 4000 2605 
C 3866 2598 3757 2592 3571 2592 
L 2131 2592 
C 1882 2592 1773 2598 1626 2624 
L 1626 2138 
C 1786 2163 1862 2170 2150 2170 
C 2138 1126 1939 570 1376 51 
C 1542 -102 1587 -154 1690 -307 
C 1997 -13 2202 307 2355 717 
C 2496 1101 2560 1498 2586 2170 
L 3014 2170 
L 3014 717 
C 2842 627 2803 608 2701 576 
L 2854 90 
C 2957 166 3002 192 3181 314 
C 3622 602 4026 890 4237 1069 
L 4160 1485 
C 3891 1267 3699 1133 3443 973 
L 3443 2170 
L 3552 2170 
C 3782 2170 3930 2163 4077 2144 
L 4077 2502 
C 4179 2656 4205 2688 4282 2822 
C 4365 2221 4486 1798 4723 1280 
C 4410 742 4038 365 3437 -51 
C 3590 -179 3667 -269 3763 -435 
C 4301 -26 4646 339 4960 832 
C 5235 378 5542 13 5978 -397 
C 6099 -173 6125 -141 6291 58 
C 5811 442 5491 800 5210 1280 
C 5587 2061 5728 2682 5811 3853 
C 5984 3846 6067 3840 6195 3827 
L 6195 4320 
z
M 5357 3853 
C 5318 2970 5203 2368 4960 1779 
C 4755 2291 4646 2758 4582 3411 
C 4653 3578 4685 3648 4762 3853 
L 5357 3853 
z
M 2720 3584 
L 2304 3584 
L 2304 4410 
C 2304 4634 2310 4742 2323 4832 
L 1862 4832 
C 1882 4723 1888 4582 1888 4403 
L 1888 3507 
C 1888 3366 1882 3251 1869 3162 
C 1965 3168 2163 3174 2253 3174 
L 3610 3174 
C 3763 3174 3834 3174 4000 3162 
C 3987 3264 3981 3360 3981 3533 
L 3981 4397 
C 3981 4595 3987 4736 4006 4832 
L 3546 4832 
C 3558 4723 3565 4621 3565 4410 
L 3565 3584 
L 3142 3584 
L 3142 4813 
C 3142 5005 3149 5152 3168 5261 
L 2694 5261 
C 2714 5139 2720 5005 2720 4813 
L 2720 3584 
z
M 1408 5357 
C 1210 4909 768 4416 186 4006 
C 307 3872 378 3757 448 3590 
C 845 3898 1261 4320 1517 4659 
C 1734 4954 1734 4954 1837 5069 
L 1408 5357 
z
M 826 237 
C 826 -109 813 -307 787 -512 
L 1318 -512 
C 1293 -326 1280 -128 1280 230 
L 1280 2771 
C 1408 2944 1542 3149 1658 3341 
C 1760 3520 1760 3520 1824 3603 
L 1402 3872 
C 1216 3328 672 2643 90 2221 
C 192 2086 256 1965 320 1786 
C 570 1990 678 2106 845 2317 
C 832 2042 826 1869 826 1651 
L 826 237 
z
" transform="scale(0.015625)"/>
      <path id="HiraginoSans-W4-65b9" d="M 2893 4301 
L 1120 4301 
C 800 4301 589 4314 378 4346 
L 378 3782 
C 557 3808 800 3821 1120 3821 
L 2387 3821 
C 2336 2483 2093 1645 1568 979 
C 1222 538 870 262 307 -26 
C 499 -192 570 -269 678 -461 
C 1005 -269 1133 -179 1331 -13 
C 1670 269 1946 570 2150 883 
C 2458 1350 2630 1792 2771 2502 
L 4704 2502 
C 4666 1638 4621 1139 4518 653 
C 4422 192 4371 122 4090 122 
C 3814 122 3494 154 3136 218 
C 3213 19 3232 -77 3258 -320 
C 3590 -352 3917 -371 4128 -371 
C 4698 -371 4851 -237 4992 346 
C 5101 794 5203 1702 5235 2534 
C 5242 2835 5242 2835 5267 3002 
C 5107 2976 4947 2970 4602 2970 
L 2848 2970 
C 2893 3283 2906 3405 2931 3821 
L 5331 3821 
C 5709 3821 5894 3814 6067 3782 
L 6067 4346 
C 5869 4314 5651 4301 5318 4301 
L 3411 4301 
L 3411 4755 
C 3411 5005 3424 5178 3456 5312 
L 2848 5312 
C 2880 5152 2893 4973 2893 4755 
L 2893 4301 
z
" transform="scale(0.015625)"/>
      <path id="HiraginoSans-W4-7a0b" d="M 1299 3706 
L 838 3706 
C 608 3706 506 3712 346 3738 
L 346 3251 
C 518 3277 614 3283 819 3283 
L 1229 3283 
C 1171 3046 1030 2682 877 2374 
C 666 1939 435 1600 166 1318 
C 282 1184 352 1069 435 890 
C 890 1434 1146 1926 1331 2592 
C 1318 2317 1318 2317 1299 1670 
L 1299 250 
C 1299 -77 1286 -288 1261 -486 
L 1805 -486 
C 1779 -307 1766 -109 1766 250 
L 1766 1843 
C 1766 2016 1747 2490 1734 2707 
C 1914 2278 2042 2061 2317 1722 
C 2400 1888 2451 1971 2579 2112 
C 2189 2509 1984 2803 1792 3283 
L 2093 3283 
C 2266 3283 2387 3277 2515 3258 
L 2515 3731 
C 2406 3712 2285 3706 2099 3706 
L 1766 3706 
L 1766 4685 
C 1952 4736 2150 4813 2419 4922 
C 2477 4947 2502 4960 2560 4979 
L 2253 5382 
C 1946 5158 1254 4947 365 4826 
C 461 4691 512 4582 563 4403 
C 909 4467 1011 4493 1299 4563 
L 1299 3706 
z
M 3981 2131 
L 3981 1434 
L 3277 1434 
C 2950 1434 2771 1440 2618 1466 
L 2618 973 
C 2810 998 2976 1005 3277 1005 
L 3981 1005 
L 3981 205 
L 2925 205 
C 2586 205 2394 211 2221 237 
L 2221 -269 
C 2432 -243 2630 -230 2925 -230 
L 5402 -230 
C 5696 -230 5894 -243 6106 -269 
L 6106 243 
C 5920 218 5702 205 5402 205 
L 4448 205 
L 4448 1005 
L 5190 1005 
C 5491 1005 5696 998 5856 973 
L 5856 1466 
C 5696 1440 5510 1434 5190 1434 
L 4448 1434 
L 4448 2131 
L 5299 2131 
C 5587 2131 5779 2118 5990 2099 
L 5990 2592 
C 5792 2573 5594 2560 5299 2560 
L 3238 2560 
C 2925 2560 2758 2566 2592 2592 
L 2592 2099 
C 2765 2125 2938 2131 3226 2131 
L 3981 2131 
z
M 2797 3578 
C 2797 3341 2790 3200 2771 3053 
C 2931 3066 3110 3072 3347 3072 
L 5184 3072 
C 5434 3072 5606 3066 5766 3053 
C 5747 3174 5741 3334 5741 3584 
L 5741 4550 
C 5741 4774 5747 4922 5766 5069 
C 5594 5050 5453 5043 5203 5043 
L 3341 5043 
C 3098 5043 2944 5050 2771 5069 
C 2790 4909 2797 4755 2797 4550 
L 2797 3578 
z
M 3270 4608 
L 5261 4608 
L 5261 3494 
L 3270 3494 
L 3270 4608 
z
" transform="scale(0.015625)"/>
      <path id="HiraginoSans-W4-5f0f" d="M 4243 4128 
C 4230 4435 4224 4563 4224 4659 
C 4224 4864 4243 5120 4262 5242 
L 3693 5242 
C 3725 5018 3725 5018 3725 4890 
C 3731 4531 3731 4531 3744 4128 
L 1120 4128 
C 832 4128 614 4141 435 4166 
L 435 3635 
C 659 3661 864 3674 1120 3674 
L 3763 3674 
C 3789 3104 3827 2675 3898 2266 
C 4038 1421 4307 666 4614 211 
C 4877 -160 5171 -384 5408 -384 
C 5568 -384 5715 -294 5824 -115 
C 5958 96 6048 384 6157 941 
C 5958 1024 5882 1075 5709 1229 
C 5613 531 5510 192 5395 192 
C 5331 192 5178 320 5062 467 
C 4838 762 4608 1338 4486 1888 
C 4352 2502 4294 2950 4262 3674 
L 5344 3674 
C 5626 3674 5837 3661 6029 3635 
L 6029 4166 
C 5869 4141 5690 4128 5408 4128 
L 4243 4128 
z
M 1837 2310 
L 1837 570 
C 979 416 755 384 467 384 
L 570 -147 
C 634 -134 653 -128 736 -115 
C 1370 6 1715 70 1766 83 
C 2515 230 3027 346 3731 531 
L 3731 998 
C 3014 806 2765 749 2330 659 
L 2330 2310 
L 2925 2310 
C 3162 2310 3347 2298 3514 2278 
L 3514 2778 
C 3360 2752 3187 2746 2918 2746 
L 1286 2746 
C 1018 2746 838 2752 685 2778 
L 685 2278 
C 845 2298 1043 2310 1280 2310 
L 1837 2310 
z
M 5626 4506 
C 5370 4794 5222 4928 4864 5210 
L 4499 4966 
C 4832 4710 5005 4538 5248 4230 
L 5626 4506 
z
" transform="scale(0.015625)"/>
     </defs>
     <use xlink:href="#HiraginoSans-W4-78ba"/>
     <use xlink:href="#HiraginoSans-W4-7387" transform="translate(99.999985 0)"/>
     <use xlink:href="#HiraginoSans-W4-5fae" transform="translate(199.999969 0)"/>
     <use xlink:href="#HiraginoSans-W4-5206" transform="translate(299.999954 0)"/>
     <use xlink:href="#HiraginoSans-W4-65b9" transform="translate(399.999939 0)"/>
     <use xlink:href="#HiraginoSans-W4-7a0b" transform="translate(499.999924 0)"/>
     <use xlink:href="#HiraginoSans-W4-5f0f" transform="translate(599.999908 0)"/>
    </g>
   </g>
   <g id="text_13">
    <!-- SDE -->
    <g style="fill: #7030a0" transform="translate(583.614141 203.648906) scale(0.09 -0.09)">
     <defs>
      <path id="HiraginoSans-W4-53" d="M 333 1414 
C 397 966 474 755 659 518 
C 960 128 1510 -83 2234 -83 
C 3360 -83 4013 454 4013 1382 
C 4013 1805 3872 2118 3565 2355 
C 3347 2534 3027 2662 2534 2765 
C 1811 2918 1786 2931 1619 2995 
C 1274 3136 1101 3360 1101 3680 
C 1101 4166 1536 4499 2170 4499 
C 2566 4499 2880 4378 3078 4147 
C 3194 4006 3245 3885 3290 3642 
L 3936 3725 
C 3866 4051 3795 4224 3648 4416 
C 3354 4813 2842 5024 2182 5024 
C 1152 5024 486 4486 486 3661 
C 486 3213 678 2874 1056 2643 
C 1280 2502 1536 2413 1952 2317 
C 2765 2138 2822 2125 3027 2010 
C 3258 1882 3386 1651 3386 1350 
C 3386 787 2944 448 2221 448 
C 1760 448 1389 602 1184 870 
C 1062 1043 1011 1184 992 1485 
L 333 1414 
z
" transform="scale(0.015625)"/>
      <path id="HiraginoSans-W4-44" d="M 531 768 
C 531 429 518 237 480 -13 
C 710 0 870 0 1210 0 
L 2317 0 
C 2989 0 3520 192 3910 570 
C 4371 1018 4614 1683 4614 2515 
C 4614 3309 4390 3942 3949 4365 
C 3565 4749 3021 4934 2310 4934 
L 1210 4934 
C 883 4934 698 4941 480 4954 
C 518 4672 531 4493 531 4192 
L 531 768 
z
M 1126 538 
L 1126 4397 
L 2310 4397 
C 2848 4397 3226 4262 3507 3974 
C 3834 3642 3994 3155 3994 2502 
C 3994 1856 3814 1325 3475 979 
C 3187 678 2803 538 2291 538 
L 1126 538 
z
" transform="scale(0.015625)"/>
      <path id="HiraginoSans-W4-45" d="M 3872 582 
C 3629 550 3450 538 3130 538 
L 1133 538 
L 1133 2323 
L 2778 2323 
C 3130 2323 3302 2310 3533 2278 
L 3533 2899 
C 3283 2867 3078 2854 2778 2854 
L 1133 2854 
L 1133 4397 
L 3066 4397 
C 3405 4397 3597 4384 3814 4352 
L 3814 4979 
C 3603 4947 3366 4934 3066 4934 
L 1210 4934 
C 896 4934 698 4941 480 4954 
C 518 4659 531 4486 531 4192 
L 531 768 
C 531 429 518 224 480 -13 
C 717 0 870 0 1210 0 
L 3130 0 
C 3482 0 3654 -6 3872 -38 
L 3872 582 
z
" transform="scale(0.015625)"/>
     </defs>
     <use xlink:href="#HiraginoSans-W4-53"/>
     <use xlink:href="#HiraginoSans-W4-44" transform="translate(68.199982 0)"/>
     <use xlink:href="#HiraginoSans-W4-45" transform="translate(145.299973 0)"/>
    </g>
   </g>
   <g id="patch_6">
    <path d="M 165.442588 168.342187 
Q 169.021938 168.342187 170.36522 168.342187 
" style="fill: none; stroke: #777777; stroke-width: 2; stroke-linecap: round"/>
    <path d="M 166.36522 166.342187 
L 170.36522 168.342187 
L 166.36522 170.342187 
z
" style="fill: #777777; stroke: #777777; stroke-width: 2; stroke-linecap: round"/>
   </g>
   <g id="patch_7">
    <path d="M 332.842588 168.342187 
Q 336.421938 168.342187 337.76522 168.342187 
" style="fill: none; stroke: #777777; stroke-width: 2; stroke-linecap: round"/>
    <path d="M 333.76522 166.342187 
L 337.76522 168.342187 
L 333.76522 170.342187 
z
" style="fill: #777777; stroke: #777777; stroke-width: 2; stroke-linecap: round"/>
   </g>
   <g id="patch_8">
    <path d="M 500.242588 168.342187 
Q 503.821938 168.342187 505.16522 168.342187 
" style="fill: none; stroke: #777777; stroke-width: 2; stroke-linecap: round"/>
    <path d="M 501.16522 166.342187 
L 505.16522 168.342187 
L 501.16522 170.342187 
z
" style="fill: #777777; stroke: #777777; stroke-width: 2; stroke-linecap: round"/>
   </g>
   <g id="text_14">
    <!-- Lean 4 形式化シリーズ ロードマップ（第2巻） -->
    <g transform="translate(200.378203 17.222187) scale(0.13 -0.13)">
     <defs>
      <path id="HiraginoSans-W4-5f62" d="M 1184 4602 
L 1184 3098 
L 954 3098 
C 691 3098 538 3110 371 3136 
L 371 2598 
C 531 2624 710 2637 947 2637 
L 1184 2637 
C 1158 1370 883 589 218 -83 
C 410 -218 486 -288 614 -442 
C 1350 410 1606 1171 1651 2637 
L 2554 2637 
L 2554 275 
C 2554 -32 2547 -192 2515 -410 
L 3072 -403 
C 3046 -224 3034 -32 3034 282 
L 3034 2637 
L 3206 2637 
C 3475 2637 3610 2630 3770 2605 
L 3770 3130 
C 3610 3104 3488 3098 3206 3098 
L 3034 3098 
L 3034 4602 
L 3149 4602 
C 3424 4602 3539 4595 3699 4570 
L 3699 5094 
C 3507 5069 3347 5056 3098 5056 
L 1088 5056 
C 851 5056 672 5069 486 5094 
L 486 4570 
C 659 4595 781 4602 1037 4602 
L 1184 4602 
z
M 1658 4602 
L 2554 4602 
L 2554 3098 
L 1658 3098 
L 1658 4602 
z
M 5850 2029 
C 5754 1850 5568 1613 5370 1408 
C 4755 774 4096 326 3328 13 
C 3469 -154 3558 -275 3635 -435 
C 4602 45 5299 582 6010 1395 
C 6106 1504 6138 1536 6272 1664 
L 5850 2029 
z
M 5395 5312 
C 5312 5178 5210 5069 4928 4813 
C 4480 4397 4032 4109 3501 3878 
C 3642 3725 3712 3622 3795 3437 
C 4403 3750 4858 4077 5446 4621 
C 5722 4877 5766 4915 5837 4973 
L 5395 5312 
z
M 5638 3693 
C 5536 3520 5357 3322 5146 3123 
C 4608 2637 4160 2342 3526 2074 
C 3648 1933 3712 1830 3821 1619 
C 4557 1990 5210 2483 5786 3085 
C 5907 3213 5971 3270 6061 3341 
L 5638 3693 
z
" transform="scale(0.015625)"/>
      <path id="HiraginoSans-W4-5316" d="M 3578 2298 
C 4410 2752 5050 3194 5600 3699 
C 5882 3949 5882 3949 5958 4013 
L 5542 4422 
C 5325 4134 5094 3910 4691 3584 
C 4333 3302 3942 3046 3578 2861 
L 3578 4570 
C 3578 4858 3590 5101 3616 5280 
L 3040 5280 
C 3059 5114 3078 4851 3078 4570 
L 3078 333 
C 3078 -192 3251 -282 4294 -282 
C 5299 -282 5613 -224 5786 0 
C 5933 186 6016 570 6086 1306 
C 5926 1344 5805 1395 5600 1510 
C 5555 806 5498 486 5389 346 
C 5299 230 5056 192 4358 192 
C 3674 192 3578 224 3578 435 
L 3578 2298 
z
M 1318 314 
C 1318 19 1306 -224 1274 -486 
L 1856 -486 
C 1830 -230 1818 51 1818 301 
L 1818 3674 
C 2080 4256 2202 4550 2310 4845 
C 2413 5120 2413 5120 2451 5203 
L 1894 5363 
C 1862 5107 1818 4941 1683 4595 
C 1363 3795 915 3136 269 2490 
C 384 2349 480 2189 563 2010 
C 909 2387 1152 2701 1331 3021 
C 1318 2688 1318 2573 1318 2259 
L 1318 314 
z
" transform="scale(0.015625)"/>
      <path id="HiraginoSans-W4-30b7" d="M 1370 4506 
C 1856 4339 2496 4000 2982 3654 
L 3283 4154 
C 2733 4493 2291 4717 1664 4966 
L 1370 4506 
z
M 864 2970 
C 1472 2733 2048 2426 2528 2074 
L 2816 2586 
C 2272 2931 1779 3181 1171 3430 
L 864 2970 
z
M 1120 -102 
C 1216 -70 1242 -64 1376 -38 
C 1504 -13 1613 13 1722 32 
C 2246 141 2931 371 3386 595 
C 4518 1158 5299 2035 5862 3366 
C 5645 3520 5574 3578 5382 3776 
C 5190 3206 4979 2816 4621 2349 
C 4109 1677 3507 1222 2726 928 
C 2074 678 1408 525 966 525 
L 1120 -102 
z
" transform="scale(0.015625)"/>
      <path id="HiraginoSans-W4-30ea" d="M 1446 4960 
C 1472 4794 1478 4653 1478 4352 
L 1478 2790 
C 1478 2496 1472 2330 1446 2144 
L 2080 2144 
C 2061 2310 2054 2464 2054 2790 
L 2054 4358 
C 2054 4621 2061 4819 2080 4960 
L 1446 4960 
z
M 4301 4954 
C 4320 4800 4326 4710 4326 4320 
L 4326 3635 
C 4326 2912 4320 2771 4301 2496 
C 4224 1626 3994 1210 3373 794 
C 3008 544 2669 416 2003 275 
C 2195 45 2240 -32 2323 -256 
C 2886 -90 3200 32 3514 205 
C 4147 563 4557 1043 4736 1651 
C 4851 2029 4902 2592 4902 3603 
L 4902 4326 
C 4902 4672 4909 4787 4934 4954 
L 4301 4954 
z
" transform="scale(0.015625)"/>
      <path id="HiraginoSans-W4-30fc" d="M 531 2131 
C 755 2157 915 2163 1421 2163 
L 5005 2163 
C 5446 2163 5632 2157 5875 2131 
L 5875 2765 
C 5651 2733 5523 2726 5011 2726 
L 1414 2726 
C 973 2726 736 2739 531 2765 
L 531 2131 
z
" transform="scale(0.015625)"/>
      <path id="HiraginoSans-W4-30ba" d="M 4614 5082 
C 4877 4787 5082 4467 5280 4070 
L 5658 4282 
C 5434 4698 5286 4915 4986 5274 
L 4614 5082 
z
M 5357 5427 
C 5638 5094 5830 4806 6016 4435 
L 6387 4646 
C 6157 5069 6016 5267 5715 5619 
L 5357 5427 
z
M 5773 314 
C 5037 1082 4454 1594 3648 2195 
C 4064 2746 4352 3245 4634 3872 
C 4704 4032 4749 4115 4819 4192 
L 4448 4621 
C 4326 4576 4256 4563 3994 4563 
L 1882 4538 
C 1459 4538 1331 4544 1133 4570 
L 1152 3968 
C 1382 4000 1542 4013 1888 4019 
L 4064 4058 
L 4006 3917 
C 3706 3181 3187 2426 2586 1818 
C 1939 1171 1293 730 467 384 
C 659 192 717 115 838 -115 
C 1312 122 1645 320 2086 646 
C 2547 986 2880 1286 3302 1773 
C 4051 1190 4826 442 5318 -186 
L 5773 314 
z
" transform="scale(0.015625)"/>
      <path id="HiraginoSans-W4-30ed" d="M 4864 480 
L 4864 32 
L 5453 32 
C 5434 179 5427 371 5427 666 
L 5427 3994 
C 5427 4282 5434 4410 5453 4576 
C 5261 4557 5139 4550 4819 4550 
L 1587 4550 
C 1293 4550 1146 4557 947 4570 
C 966 4403 973 4282 973 3994 
L 973 659 
C 973 378 966 179 947 32 
L 1536 32 
L 1536 480 
L 4864 480 
z
M 4864 986 
L 1536 986 
L 1536 4045 
L 4864 4045 
L 4864 986 
z
" transform="scale(0.015625)"/>
      <path id="HiraginoSans-W4-30c9" d="M 2426 -224 
C 2400 -26 2394 179 2394 518 
L 2394 2189 
C 2394 2445 2387 2554 2368 2714 
C 2464 2662 2483 2650 2579 2611 
C 3488 2221 4371 1747 4934 1350 
L 5254 1907 
C 4166 2534 3296 2944 2394 3258 
L 2394 4403 
C 2394 4762 2400 4941 2426 5120 
L 1779 5120 
C 1811 4954 1818 4806 1818 4416 
L 1818 518 
C 1818 154 1811 -13 1779 -224 
L 2426 -224 
z
M 4006 4666 
C 4269 4371 4474 4051 4672 3654 
L 5050 3866 
C 4826 4282 4678 4499 4378 4858 
L 4006 4666 
z
M 4749 5011 
C 5030 4678 5222 4390 5408 4019 
L 5779 4230 
C 5549 4653 5408 4851 5107 5203 
L 4749 5011 
z
" transform="scale(0.015625)"/>
      <path id="HiraginoSans-W4-30de" d="M 2720 2214 
C 2458 2477 2227 2688 1843 3002 
L 1414 2675 
C 1888 2291 2221 1978 2688 1466 
C 3238 870 3578 429 3917 -109 
L 4390 282 
C 4013 781 3712 1158 3475 1421 
C 4275 2067 4973 2867 5581 3821 
C 5715 4032 5760 4090 5843 4173 
L 5523 4544 
C 5408 4506 5350 4499 5114 4499 
L 1466 4499 
C 1075 4499 896 4506 659 4544 
L 659 3942 
C 902 3968 1082 3974 1459 3974 
C 4896 3974 4896 3974 4992 3987 
C 4966 3949 4960 3942 4941 3904 
C 4461 3130 3866 2445 3110 1824 
L 2720 2214 
z
" transform="scale(0.015625)"/>
      <path id="HiraginoSans-W4-30c3" d="M 1120 3392 
C 1395 2925 1562 2509 1715 1933 
L 2234 2106 
C 1984 2810 1862 3098 1600 3552 
L 1120 3392 
z
M 2451 3661 
C 2726 3174 2918 2701 3040 2234 
L 3546 2406 
C 3379 2925 3264 3181 2925 3808 
L 2451 3661 
z
M 4666 3686 
C 4666 3443 4582 3046 4435 2630 
C 4019 1434 3277 672 2016 141 
C 2202 -32 2266 -102 2381 -294 
C 3206 115 3776 550 4224 1133 
C 4653 1696 4922 2317 5146 3270 
C 5178 3405 5190 3450 5229 3565 
L 4666 3686 
z
" transform="scale(0.015625)"/>
      <path id="HiraginoSans-W4-30d7" d="M 1613 4518 
C 1216 4518 1075 4525 819 4563 
L 819 3955 
C 1043 3981 1229 3994 1600 3994 
L 4762 3994 
C 4410 2618 3795 1702 2765 1018 
C 2285 698 1907 525 1331 346 
C 1536 147 1594 58 1715 -186 
C 2592 166 3149 499 3738 1043 
C 4512 1760 5005 2611 5338 3834 
L 5376 3968 
C 5440 3949 5517 3936 5587 3936 
C 5990 3936 6317 4262 6317 4666 
C 6317 5069 5990 5395 5587 5395 
C 5184 5395 4858 5069 4858 4666 
C 4858 4614 4864 4563 4870 4518 
L 1613 4518 
z
M 5587 5114 
C 5830 5114 6035 4909 6035 4666 
C 6035 4422 5830 4218 5587 4218 
C 5344 4218 5139 4422 5139 4666 
C 5139 4909 5344 5114 5587 5114 
z
" transform="scale(0.015625)"/>
      <path id="HiraginoSans-W4-ff08" d="M 6170 -531 
C 5690 -26 5491 256 5280 698 
C 5024 1235 4902 1805 4902 2432 
C 4902 3059 5024 3629 5280 4166 
C 5491 4608 5690 4890 6170 5395 
L 5517 5395 
C 5139 4947 4966 4685 4774 4275 
C 4499 3686 4365 3085 4365 2432 
C 4365 1779 4499 1178 4774 589 
C 4966 179 5139 -83 5517 -531 
L 6170 -531 
z
" transform="scale(0.015625)"/>
      <path id="HiraginoSans-W4-7b2c" d="M 2976 192 
C 2976 154 2976 102 2976 32 
C 2976 -218 2970 -314 2938 -512 
L 3488 -512 
C 3456 -326 3443 -141 3437 192 
L 3424 1306 
L 5306 1306 
C 5242 422 5222 365 4896 365 
C 4666 365 4397 390 4115 435 
C 4179 269 4205 166 4237 -26 
C 4499 -51 4685 -58 4909 -58 
C 5370 -58 5536 26 5626 294 
C 5690 480 5728 762 5792 1485 
C 5805 1606 5805 1638 5824 1734 
C 5683 1715 5542 1709 5293 1709 
L 3418 1709 
L 3411 2304 
L 4902 2304 
C 5158 2304 5331 2298 5498 2285 
C 5478 2406 5472 2528 5472 2733 
L 5472 3302 
C 5472 3494 5478 3597 5498 3718 
C 5331 3699 5210 3693 4902 3693 
L 1434 3693 
C 1120 3693 973 3699 826 3725 
L 826 3258 
C 998 3283 1190 3290 1434 3290 
L 2931 3290 
L 2938 2701 
L 1619 2701 
C 1299 2701 1126 2707 1018 2726 
C 1011 2579 979 2355 922 2086 
C 838 1702 736 1395 563 1018 
L 1088 979 
C 1146 1133 1165 1184 1203 1306 
L 2624 1306 
C 2349 1018 1965 742 1523 512 
C 1126 307 806 186 275 38 
C 416 -115 486 -218 576 -390 
C 1133 -198 1427 -64 1856 192 
C 2285 442 2662 749 2963 1069 
L 2976 192 
z
M 3405 2701 
L 3398 3290 
L 5005 3290 
L 5005 2701 
L 3405 2701 
z
M 2944 2304 
L 2957 1709 
L 1318 1709 
C 1382 1952 1414 2093 1453 2304 
L 2944 2304 
z
M 1734 4448 
C 1875 4230 1952 4064 2074 3770 
L 2502 3923 
C 2387 4141 2330 4237 2189 4448 
L 2598 4448 
C 2829 4448 3002 4442 3155 4422 
L 3155 4902 
C 3002 4877 2829 4864 2522 4864 
L 1587 4864 
C 1683 5024 1715 5082 1818 5267 
L 1325 5395 
C 1242 5152 1139 4960 960 4704 
C 774 4435 582 4243 275 4006 
C 397 3910 486 3814 595 3654 
C 934 3962 1088 4128 1318 4448 
L 1734 4448 
z
M 4269 4442 
C 4435 4198 4518 4045 4646 3770 
L 5088 3930 
C 4986 4109 4870 4275 4755 4442 
L 5402 4442 
C 5677 4442 5869 4435 6074 4410 
L 6074 4896 
C 5862 4864 5696 4858 5382 4858 
L 3994 4858 
C 4109 5094 4128 5120 4192 5274 
L 3718 5389 
C 3539 4819 3309 4467 2854 4051 
C 3008 3955 3078 3898 3194 3757 
C 3443 3994 3565 4147 3757 4442 
L 4269 4442 
z
" transform="scale(0.015625)"/>
      <path id="HiraginoSans-W4-32" d="M 3078 0 
C 3424 0 3642 -6 3917 -32 
L 3917 589 
C 3693 557 3430 544 3091 544 
L 1114 544 
C 1280 1114 1606 1478 2451 2042 
C 3181 2528 3341 2656 3546 2912 
C 3738 3142 3846 3443 3846 3744 
C 3846 4525 3200 5030 2202 5030 
C 1613 5030 1158 4858 858 4518 
C 640 4269 531 4026 442 3565 
L 1088 3469 
C 1139 3782 1190 3936 1306 4102 
C 1491 4371 1792 4506 2208 4506 
C 2816 4506 3206 4211 3206 3744 
C 3206 3360 2995 3085 2387 2675 
C 1754 2246 1600 2138 1389 1952 
C 979 1594 710 1229 544 806 
C 448 563 429 461 365 -26 
C 576 -6 678 0 1107 0 
L 3078 0 
z
" transform="scale(0.015625)"/>
      <path id="HiraginoSans-W4-5dfb" d="M 4096 2675 
C 4269 2451 4448 2253 4659 2054 
C 5037 1702 5293 1523 5882 1197 
C 5965 1338 6099 1517 6214 1638 
C 5530 1920 5139 2182 4659 2675 
L 5325 2675 
C 5626 2675 5818 2662 6035 2637 
L 6035 3142 
C 5850 3110 5702 3104 5325 3104 
L 4301 3104 
C 4109 3373 4032 3494 3872 3814 
L 5011 3814 
C 5331 3814 5530 3808 5722 3782 
L 5722 4256 
C 5542 4224 5389 4218 5011 4218 
L 4512 4218 
C 4723 4480 4896 4742 5082 5062 
L 4576 5216 
C 4365 4755 4269 4589 3981 4218 
L 3130 4218 
C 3213 4474 3226 4518 3328 4934 
C 3392 5184 3398 5197 3437 5312 
L 2880 5363 
C 2886 5338 2886 5325 2886 5306 
C 2886 5062 2803 4666 2656 4218 
L 2150 4218 
C 1984 4614 1837 4877 1600 5210 
L 1133 5056 
C 1363 4768 1498 4557 1670 4218 
L 1382 4218 
C 1018 4218 864 4224 691 4256 
L 691 3782 
C 877 3808 1075 3814 1382 3814 
L 2509 3814 
C 2387 3533 2291 3347 2131 3104 
L 1050 3104 
C 691 3104 518 3110 358 3142 
L 358 2637 
C 544 2669 723 2675 1050 2675 
L 1805 2675 
C 1382 2221 902 1882 224 1562 
C 358 1427 461 1274 518 1120 
C 1107 1459 1402 1670 1837 2080 
L 1837 1722 
C 1971 1741 2112 1747 2330 1747 
L 3981 1747 
L 3981 1222 
L 1933 1222 
C 1779 1222 1658 1229 1504 1242 
C 1517 1094 1523 1030 1523 883 
L 1523 115 
C 1523 -384 1664 -422 3462 -422 
C 4781 -422 5037 -384 5190 -160 
C 5299 -6 5350 230 5382 691 
C 5222 730 5062 794 4909 870 
C 4902 365 4870 179 4762 109 
C 4634 32 4410 19 2976 19 
C 2496 19 2208 38 2106 70 
C 2029 96 1997 154 1997 256 
L 1997 800 
L 4000 800 
C 4230 800 4333 794 4467 781 
C 4454 902 4454 986 4454 1203 
L 4454 1741 
C 4454 1914 4454 2010 4474 2176 
C 4314 2163 4192 2157 4006 2157 
L 2419 2157 
C 2227 2157 2112 2163 1926 2176 
C 2106 2355 2208 2477 2355 2675 
L 4096 2675 
z
M 2637 3104 
C 2790 3366 2842 3475 2982 3814 
L 3411 3814 
C 3597 3437 3648 3334 3795 3104 
L 2637 3104 
z
" transform="scale(0.015625)"/>
      <path id="HiraginoSans-W4-ff09" d="M 890 -531 
C 1261 -83 1434 179 1626 589 
C 1901 1178 2035 1773 2035 2432 
C 2035 3091 1901 3686 1626 4275 
C 1434 4685 1261 4947 890 5395 
L 230 5395 
C 710 4890 909 4608 1120 4166 
C 1376 3629 1498 3072 1498 2432 
C 1498 1792 1376 1235 1120 698 
C 909 256 710 -26 230 -531 
L 890 -531 
z
" transform="scale(0.015625)"/>
     </defs>
     <use xlink:href="#HiraginoSans-W4-4c"/>
     <use xlink:href="#HiraginoSans-W4-65" transform="translate(61.299988 0)"/>
     <use xlink:href="#HiraginoSans-W4-61" transform="translate(121.499985 0)"/>
     <use xlink:href="#HiraginoSans-W4-6e" transform="translate(180.699982 0)"/>
     <use xlink:href="#HiraginoSans-W4-20" transform="translate(244.099976 0)"/>
     <use xlink:href="#HiraginoSans-W4-34" transform="translate(277.399963 0)"/>
     <use xlink:href="#HiraginoSans-W4-20" transform="translate(344.899948 0)"/>
     <use xlink:href="#HiraginoSans-W4-5f62" transform="translate(378.199936 0)"/>
     <use xlink:href="#HiraginoSans-W4-5f0f" transform="translate(478.199921 0)"/>
     <use xlink:href="#HiraginoSans-W4-5316" transform="translate(578.199905 0)"/>
     <use xlink:href="#HiraginoSans-W4-30b7" transform="translate(678.19989 0)"/>
     <use xlink:href="#HiraginoSans-W4-30ea" transform="translate(778.199875 0)"/>
     <use xlink:href="#HiraginoSans-W4-30fc" transform="translate(878.19986 0)"/>
     <use xlink:href="#HiraginoSans-W4-30ba" transform="translate(978.199844 0)"/>
     <use xlink:href="#HiraginoSans-W4-20" transform="translate(1078.199829 0)"/>
     <use xlink:href="#HiraginoSans-W4-30ed" transform="translate(1111.499817 0)"/>
     <use xlink:href="#HiraginoSans-W4-30fc" transform="translate(1211.499802 0)"/>
     <use xlink:href="#HiraginoSans-W4-30c9" transform="translate(1311.499786 0)"/>
     <use xlink:href="#HiraginoSans-W4-30de" transform="translate(1411.499771 0)"/>
     <use xlink:href="#HiraginoSans-W4-30c3" transform="translate(1511.499756 0)"/>
     <use xlink:href="#HiraginoSans-W4-30d7" transform="translate(1611.499741 0)"/>
     <use xlink:href="#HiraginoSans-W4-ff08" transform="translate(1711.499725 0)"/>
     <use xlink:href="#HiraginoSans-W4-7b2c" transform="translate(1811.49971 0)"/>
     <use xlink:href="#HiraginoSans-W4-32" transform="translate(1911.499695 0)"/>
     <use xlink:href="#HiraginoSans-W4-5dfb" transform="translate(1978.799683 0)"/>
     <use xlink:href="#HiraginoSans-W4-ff09" transform="translate(2078.799667 0)"/>
    </g>
   </g>
  </g>
 </g>
 <defs>
  <clipPath id="p835dc942d5">
   <rect x="7.2" y="27.222187" width="669.6" height="277.2"/>
  </clipPath>
 </defs>
</svg>
