<?xml version="1.0" encoding="utf-8" standalone="no"?>
<!DOCTYPE svg PUBLIC "-//W3C//DTD SVG 1.1//EN"
  "http://www.w3.org/Graphics/SVG/1.1/DTD/svg11.dtd">
<svg xmlns:xlink="http://www.w3.org/1999/xlink" width="631.17pt" height="367.062188pt" viewBox="0 0 631.17 367.062188" xmlns="http://www.w3.org/2000/svg" version="1.1">
 <metadata>
  <rdf:RDF xmlns:dc="http://purl.org/dc/elements/1.1/" xmlns:cc="http://creativecommons.org/ns#" xmlns:rdf="http://www.w3.org/1999/02/22-rdf-syntax-ns#">
   <cc:Work>
    <dc:type rdf:resource="http://purl.org/dc/dcmitype/StillImage"/>
    <dc:date>2026-04-02T01:10:16.779873</dc:date>
    <dc:format>image/svg+xml</dc:format>
    <dc:creator>
     <cc:Agent>
      <dc:title>Matplotlib v3.10.8, https://matplotlib.org/</dc:title>
     </cc:Agent>
    </dc:creator>
   </cc:Work>
  </rdf:RDF>
 </metadata>
 <defs>
  <style type="text/css">*{stroke-linejoin: round; stroke-linecap: butt}</style>
 </defs>
 <g id="figure_1">
  <g id="patch_1">
   <path d="M 0 367.062188 
L 631.17 367.062188 
L 631.17 0 
L 0 0 
z
" style="fill: #ffffff"/>
  </g>
  <g id="axes_1">
   <g id="patch_2">
    <path d="M 38.07 103.254188 
L 289.17 103.254188 
Q 294.75 103.254188 294.75 98.502188 
L 294.75 41.478187 
Q 294.75 36.726187 289.17 36.726187 
L 38.07 36.726187 
Q 32.49 36.726187 32.49 41.478187 
L 32.49 98.502188 
Q 32.49 103.254188 38.07 103.254188 
z
" clip-path="url(#pd8e4562000)" style="fill: #deeaf1; stroke: #2e75b6; stroke-width: 2; stroke-linejoin: miter"/>
   </g>
   <g id="patch_3">
    <path d="M 344.97 103.254188 
L 596.07 103.254188 
Q 601.65 103.254188 601.65 98.502188 
L 601.65 41.478187 
Q 601.65 36.726187 596.07 36.726187 
L 344.97 36.726187 
Q 339.39 36.726187 339.39 41.478187 
L 339.39 98.502188 
Q 339.39 103.254188 344.97 103.254188 
z
" clip-path="url(#pd8e4562000)" style="fill: #e2efda; stroke: #538135; stroke-width: 2; stroke-linejoin: miter"/>
   </g>
   <g id="patch_4">
    <path d="M -6.57 174.534188 
L 65.97 174.534188 
L 65.97 127.014188 
L -6.57 127.014188 
z
" clip-path="url(#pd8e4562000)" style="fill: #f2f2f2; stroke: #999999; stroke-width: 0.5; stroke-linejoin: miter"/>
   </g>
   <g id="patch_5">
    <path d="M 65.97 174.534188 
L 289.17 174.534188 
L 289.17 127.014188 
L 65.97 127.014188 
z
" clip-path="url(#pd8e4562000)" style="fill: #deeaf1; stroke: #2e75b6; stroke-width: 0.5; stroke-linejoin: miter"/>
   </g>
   <g id="patch_6">
    <path d="M 317.07 174.534188 
L 596.07 174.534188 
L 596.07 127.014188 
L 317.07 127.014188 
z
" clip-path="url(#pd8e4562000)" style="fill: #e2efda; stroke: #538135; stroke-width: 0.5; stroke-linejoin: miter"/>
   </g>
   <g id="patch_7">
    <path d="M -6.57 226.806188 
L 65.97 226.806188 
L 65.97 179.286188 
L -6.57 179.286188 
z
" clip-path="url(#pd8e4562000)" style="fill: #f2f2f2; stroke: #999999; stroke-width: 0.5; stroke-linejoin: miter"/>
   </g>
   <g id="patch_8">
    <path d="M 65.97 226.806188 
L 289.17 226.806188 
L 289.17 179.286188 
L 65.97 179.286188 
z
" clip-path="url(#pd8e4562000)" style="fill: #e8f4fd; stroke: #2e75b6; stroke-width: 0.5; stroke-linejoin: miter"/>
   </g>
   <g id="patch_9">
    <path d="M 317.07 226.806188 
L 596.07 226.806188 
L 596.07 179.286188 
L 317.07 179.286188 
z
" clip-path="url(#pd8e4562000)" style="fill: #edf7e6; stroke: #538135; stroke-width: 0.5; stroke-linejoin: miter"/>
   </g>
   <g id="patch_10">
    <path d="M -6.57 279.078188 
L 65.97 279.078188 
L 65.97 231.558188 
L -6.57 231.558188 
z
" clip-path="url(#pd8e4562000)" style="fill: #f2f2f2; stroke: #999999; stroke-width: 0.5; stroke-linejoin: miter"/>
   </g>
   <g id="patch_11">
    <path d="M 65.97 279.078188 
L 289.17 279.078188 
L 289.17 231.558188 
L 65.97 231.558188 
z
" clip-path="url(#pd8e4562000)" style="fill: #deeaf1; stroke: #2e75b6; stroke-width: 0.5; stroke-linejoin: miter"/>
   </g>
   <g id="patch_12">
    <path d="M 317.07 279.078188 
L 596.07 279.078188 
L 596.07 231.558188 
L 317.07 231.558188 
z
" clip-path="url(#pd8e4562000)" style="fill: #e2efda; stroke: #538135; stroke-width: 0.5; stroke-linejoin: miter"/>
   </g>
   <g id="patch_13">
    <path d="M -6.57 331.350188 
L 65.97 331.350188 
L 65.97 283.830188 
L -6.57 283.830188 
z
" clip-path="url(#pd8e4562000)" style="fill: #f2f2f2; stroke: #999999; stroke-width: 0.5; stroke-linejoin: miter"/>
   </g>
   <g id="patch_14">
    <path d="M 65.97 331.350188 
L 289.17 331.350188 
L 289.17 283.830188 
L 65.97 283.830188 
z
" clip-path="url(#pd8e4562000)" style="fill: #e8f4fd; stroke: #2e75b6; stroke-width: 0.5; stroke-linejoin: miter"/>
   </g>
   <g id="patch_15">
    <path d="M 317.07 331.350188 
L 596.07 331.350188 
L 596.07 283.830188 
L 317.07 283.830188 
z
" clip-path="url(#pd8e4562000)" style="fill: #edf7e6; stroke: #538135; stroke-width: 0.5; stroke-linejoin: miter"/>
   </g>
   <g id="text_1">
    <!-- 有限次元（ℝⁿ） -->
    <g style="fill: #1f4e79" transform="translate(116.339609 73.779484) scale(0.13 -0.13)">
     <defs>
      <path id="HiraginoSans-W7-6709" d="M 1466 314 
C 1466 -45 1453 -307 1427 -531 
L 2323 -531 
C 2298 -307 2285 -51 2285 301 
L 2285 787 
L 4525 787 
L 4525 429 
C 4525 282 4480 256 4237 256 
C 4058 256 3834 275 3488 314 
C 3610 19 3654 -154 3686 -480 
C 3981 -493 4115 -499 4269 -499 
C 4685 -499 4922 -467 5062 -384 
C 5254 -282 5344 -96 5344 186 
L 5344 2906 
C 5344 3226 5350 3430 5376 3629 
C 5203 3610 5018 3603 4710 3603 
L 2541 3603 
C 2662 3795 2707 3866 2810 4051 
L 5344 4051 
C 5664 4051 5907 4038 6125 4013 
L 6125 4845 
C 5920 4819 5677 4806 5344 4806 
L 3174 4806 
C 3219 4915 3226 4922 3245 4986 
C 3328 5210 3347 5248 3392 5344 
L 2451 5446 
C 2419 5242 2362 5030 2278 4806 
L 1114 4806 
C 781 4806 538 4819 320 4845 
L 320 4013 
C 544 4038 781 4051 1107 4051 
L 1914 4051 
C 1504 3366 934 2797 141 2291 
C 358 2054 474 1882 640 1530 
C 979 1798 1222 2016 1466 2266 
L 1466 314 
z
M 4525 1837 
L 4525 1453 
L 2285 1453 
L 2285 1837 
L 4525 1837 
z
M 4525 2502 
L 2285 2502 
L 2285 2874 
L 4525 2874 
L 4525 2502 
z
" transform="scale(0.015625)"/>
      <path id="HiraginoSans-W7-9650" d="M 5638 2259 
C 5715 2259 5722 2259 5875 2253 
C 5856 2490 5850 2605 5850 2950 
L 5850 4499 
C 5850 4883 5856 5075 5875 5210 
C 5683 5190 5600 5184 5286 5184 
L 3366 5184 
C 3040 5184 2899 5190 2758 5216 
C 2778 4960 2784 4806 2784 4525 
L 2784 397 
C 2451 339 2208 307 2074 307 
L 2221 -550 
C 2285 -531 2355 -512 2483 -480 
L 3334 -294 
C 3955 -147 4122 -102 4595 32 
L 4589 614 
C 4698 461 4781 358 4896 230 
C 5197 -96 5446 -301 5869 -563 
C 6016 -198 6125 -6 6317 224 
C 5875 448 5568 678 5274 1024 
C 5504 1190 5741 1376 5869 1491 
C 6131 1715 6176 1760 6214 1779 
L 5638 2259 
z
M 5408 2266 
C 5434 2266 5472 2266 5555 2266 
C 5446 2125 5197 1901 4877 1658 
C 4781 1869 4742 1997 4685 2266 
L 5408 2266 
z
M 3578 2266 
L 3942 2266 
C 4070 1626 4211 1248 4486 781 
C 4192 691 4032 653 3578 557 
L 3578 2266 
z
M 3578 4454 
L 5062 4454 
L 5062 4051 
L 3578 4051 
L 3578 4454 
z
M 3578 3373 
L 5062 3373 
L 5062 2944 
L 3578 2944 
L 3578 3373 
z
M 474 256 
C 474 -64 461 -339 435 -544 
L 1306 -544 
C 1280 -282 1274 -32 1274 256 
L 1274 4480 
L 1875 4480 
C 1677 3834 1587 3590 1338 3110 
C 1562 2848 1645 2714 1728 2509 
C 1818 2304 1862 2080 1862 1869 
C 1862 1677 1792 1619 1568 1619 
C 1498 1619 1446 1626 1338 1638 
C 1446 1408 1478 1235 1491 845 
C 1805 851 2048 883 2202 947 
C 2490 1056 2650 1331 2650 1696 
C 2650 2234 2528 2566 2131 3155 
C 2374 3654 2470 3891 2694 4506 
C 2726 4595 2752 4672 2778 4730 
L 2381 5254 
C 2298 5229 2176 5222 1901 5222 
L 934 5222 
C 691 5222 582 5229 448 5248 
C 474 4883 474 4819 474 4602 
L 474 256 
z
" transform="scale(0.015625)"/>
      <path id="HiraginoSans-W7-6b21" d="M 3469 4493 
C 3501 4576 3514 4621 3539 4685 
C 3699 5107 3712 5139 3763 5254 
L 2861 5414 
C 2650 4429 2214 3667 1523 3053 
C 1798 2842 1952 2682 2150 2419 
C 2624 2918 2822 3194 3117 3738 
L 5094 3738 
C 4890 3238 4717 2970 4365 2579 
C 4627 2451 4794 2342 5088 2099 
C 5510 2682 5696 3034 6003 3834 
C 6054 3949 6067 3987 6112 4090 
L 5658 4525 
C 5517 4506 5325 4493 5043 4493 
L 3469 4493 
z
M 288 4621 
C 774 4230 986 4019 1376 3520 
L 2035 4141 
C 1645 4576 1414 4794 954 5171 
L 288 4621 
z
M 1677 2579 
C 1363 2125 1069 1779 723 1434 
C 480 1197 314 1050 179 979 
L 755 192 
C 813 256 845 288 954 403 
C 1459 896 1856 1376 2221 1920 
L 1677 2579 
z
M 3219 3494 
C 3238 3392 3245 3315 3245 3206 
C 3245 2240 2931 1446 2342 902 
C 1984 576 1690 390 1190 186 
C 1402 -32 1542 -243 1677 -544 
C 2246 -275 2611 -26 2944 326 
C 3264 666 3520 1094 3680 1562 
C 3872 1056 4141 672 4582 269 
C 4941 -64 5190 -237 5741 -531 
C 5888 -192 6035 58 6240 301 
C 5914 429 5760 499 5581 602 
C 5293 762 5011 979 4832 1178 
C 4646 1376 4390 1754 4294 1958 
C 4179 2214 4083 2797 4083 3264 
C 4083 3341 4090 3405 4102 3494 
L 3219 3494 
z
" transform="scale(0.015625)"/>
      <path id="HiraginoSans-W7-5143" d="M 1830 2758 
C 1824 2054 1747 1613 1568 1254 
C 1331 781 928 454 224 179 
C 410 -13 608 -294 762 -589 
C 1126 -410 1293 -320 1485 -179 
C 1875 102 2163 454 2355 890 
C 2566 1370 2669 1984 2675 2758 
L 3494 2758 
L 3494 179 
C 3494 -32 3526 -147 3616 -237 
C 3757 -378 4038 -435 4621 -435 
C 5491 -435 5786 -358 5939 -83 
C 6067 141 6112 378 6170 1229 
C 5862 1280 5670 1344 5363 1485 
C 5350 1133 5318 723 5286 595 
C 5242 397 5139 352 4755 352 
C 4390 352 4333 378 4333 538 
L 4333 2758 
L 5331 2758 
C 5632 2758 5850 2746 6067 2720 
L 6067 3597 
C 5843 3571 5645 3558 5331 3558 
L 1056 3558 
C 755 3558 557 3571 320 3597 
L 320 2720 
C 538 2746 755 2758 1056 2758 
L 1830 2758 
z
M 5472 5158 
C 5299 5133 5107 5120 4794 5120 
L 1619 5120 
C 1312 5120 1114 5133 934 5158 
L 934 4275 
C 1120 4294 1306 4307 1594 4307 
L 4813 4307 
C 5082 4307 5299 4294 5472 4275 
L 5472 5158 
z
" transform="scale(0.015625)"/>
      <path id="HiraginoSans-W7-ff08" d="M 6240 -589 
C 5830 -26 5658 256 5491 666 
C 5274 1197 5152 1837 5152 2432 
C 5152 3027 5274 3667 5491 4198 
C 5658 4608 5830 4890 6240 5453 
L 5197 5453 
C 4845 4902 4691 4621 4538 4211 
C 4320 3648 4205 3034 4205 2432 
C 4205 1830 4320 1216 4538 653 
C 4691 243 4845 -38 5197 -589 
L 6240 -589 
z
" transform="scale(0.015625)"/>
      <path id="STIXGeneral-Bold-211d" d="M 4851 0 
L 3226 0 
L 2163 1734 
L 1888 1734 
L 1888 0 
L 480 0 
L 480 4326 
L 2758 4326 
Q 3456 4326 3894 4016 
Q 4333 3706 4333 3040 
Q 4333 2240 3674 1914 
L 4851 0 
z
M 3373 3802 
L 3373 2253 
Q 3885 2451 3885 3027 
Q 3885 3302 3753 3520 
Q 3622 3738 3373 3802 
z
M 2925 2221 
L 2925 3840 
Q 2803 3878 2566 3878 
L 1888 3878 
L 1888 2182 
L 2573 2182 
Q 2822 2182 2925 2221 
z
M 4058 448 
L 3238 1773 
L 2675 1734 
L 3462 448 
L 4058 448 
z
M 1440 448 
L 1440 3878 
L 928 3878 
L 928 448 
L 1440 448 
z
" transform="scale(0.015625)"/>
      <path id="STIXGeneral-Bold-207f" d="M 3059 1760 
L 1741 1760 
L 1741 1888 
Q 1958 1926 1958 2202 
L 1958 3584 
Q 1958 3846 1900 3952 
Q 1843 4058 1709 4058 
Q 1555 4058 1402 3923 
Q 1229 3776 1229 3616 
L 1229 2202 
Q 1229 2061 1273 1984 
Q 1318 1907 1459 1888 
L 1459 1760 
L 96 1760 
L 96 1888 
Q 294 1933 355 2000 
Q 416 2067 416 2214 
L 416 3962 
Q 416 4115 352 4179 
Q 288 4243 96 4275 
L 96 4403 
L 1222 4403 
L 1222 3994 
L 1229 3994 
Q 1331 4224 1539 4352 
Q 1747 4480 1984 4480 
Q 2349 4480 2560 4246 
Q 2771 4013 2771 3648 
L 2771 2202 
Q 2771 2035 2832 1968 
Q 2893 1901 3059 1888 
L 3059 1760 
z
" transform="scale(0.015625)"/>
      <path id="HiraginoSans-W7-ff09" d="M 1203 -589 
C 1555 -38 1709 243 1862 653 
C 2080 1216 2195 1824 2195 2432 
C 2195 3040 2080 3648 1862 4211 
C 1709 4621 1555 4902 1203 5453 
L 160 5453 
C 570 4890 742 4608 909 4198 
C 1126 3667 1248 3027 1248 2432 
C 1248 1837 1126 1197 909 666 
C 742 256 570 -26 160 -589 
L 1203 -589 
z
" transform="scale(0.015625)"/>
     </defs>
     <use xlink:href="#HiraginoSans-W7-6709"/>
     <use xlink:href="#HiraginoSans-W7-9650" transform="translate(99.999985 0)"/>
     <use xlink:href="#HiraginoSans-W7-6b21" transform="translate(199.999969 0)"/>
     <use xlink:href="#HiraginoSans-W7-5143" transform="translate(299.999954 0)"/>
     <use xlink:href="#HiraginoSans-W7-ff08" transform="translate(399.999939 0)"/>
     <use xlink:href="#STIXGeneral-Bold-211d" transform="translate(499.999924 0)"/>
     <use xlink:href="#STIXGeneral-Bold-207f" transform="translate(578.299911 0)"/>
     <use xlink:href="#HiraginoSans-W7-ff09" transform="translate(627.399902 0)"/>
    </g>
   </g>
   <g id="text_2">
    <!-- 無限次元（ℓ²） -->
    <g style="fill: #375623" transform="translate(422.16 73.779484) scale(0.13 -0.13)">
     <defs>
      <path id="HiraginoSans-W7-7121" d="M 1222 3418 
L 934 3418 
C 621 3418 499 3424 307 3450 
L 307 2624 
C 493 2650 640 2656 934 2656 
L 1184 2656 
L 1184 1914 
L 1050 1914 
C 749 1914 595 1920 422 1946 
L 422 1133 
C 589 1158 730 1165 973 1165 
L 5274 1165 
L 4634 858 
C 5005 326 5171 26 5408 -512 
L 6138 -58 
C 5862 435 5670 723 5318 1165 
L 5421 1165 
C 5702 1165 5837 1158 6016 1133 
L 6016 1946 
C 5850 1920 5722 1914 5408 1914 
L 5318 1914 
L 5318 2656 
L 5530 2656 
C 5837 2656 5965 2650 6157 2624 
L 6157 3450 
C 5965 3424 5843 3418 5530 3418 
L 5318 3418 
L 5318 4147 
C 5600 4141 5715 4134 5920 4109 
L 5920 4934 
C 5715 4909 5485 4896 5101 4896 
L 2048 4896 
C 2138 5030 2189 5114 2259 5222 
C 2310 5312 2317 5325 2368 5395 
L 1491 5536 
C 1459 5446 1408 5338 1350 5235 
C 1101 4819 774 4493 192 4090 
C 403 3904 544 3750 717 3520 
C 979 3712 1075 3795 1222 3936 
L 1222 3418 
z
M 1933 4147 
L 2349 4147 
L 2349 3418 
L 1933 3418 
L 1933 4147 
z
M 3046 4147 
L 3450 4147 
L 3450 3418 
L 3046 3418 
L 3046 4147 
z
M 1933 2656 
L 2349 2656 
L 2349 1914 
L 1933 1914 
L 1933 2656 
z
M 3046 2656 
L 3450 2656 
L 3450 1914 
L 3046 1914 
L 3046 2656 
z
M 4147 1914 
L 4147 2656 
L 4570 2656 
L 4570 1914 
L 4147 1914 
z
M 4147 3418 
L 4147 4147 
L 4570 4147 
L 4570 3418 
L 4147 3418 
z
M 4467 -339 
C 4358 192 4275 493 4090 1024 
L 3341 858 
C 3501 294 3539 109 3629 -518 
L 4467 -339 
z
M 2963 -474 
C 2938 51 2906 346 2803 973 
L 2054 890 
C 2099 557 2131 38 2131 -275 
C 2131 -333 2131 -422 2125 -538 
L 2963 -474 
z
M 934 -557 
C 1331 -96 1491 173 1760 813 
L 1056 1158 
C 838 614 653 339 269 -38 
L 934 -557 
z
" transform="scale(0.015625)"/>
      <path id="HiraginoSans-W7-2113" d="M 3910 1357 
C 3558 768 3264 486 2995 486 
C 2899 486 2803 538 2752 627 
C 2720 678 2707 730 2688 851 
C 3386 1261 3770 1606 4147 2138 
C 4595 2784 4877 3622 4877 4314 
C 4877 4858 4608 5178 4147 5178 
C 3277 5178 2374 4166 1971 2739 
C 1830 2266 1792 1946 1792 1312 
C 1491 1190 1222 1094 794 973 
L 1158 211 
C 1466 314 1658 390 1907 493 
C 2003 160 2099 0 2310 -147 
C 2470 -269 2701 -333 2944 -333 
C 3296 -333 3616 -211 3930 45 
C 4147 224 4282 378 4525 742 
L 3910 1357 
z
M 2643 1728 
C 2701 2170 2714 2246 2810 2560 
C 2938 2950 3098 3315 3302 3648 
C 3565 4083 3853 4390 4000 4390 
C 4038 4390 4058 4358 4058 4294 
C 4058 3853 3770 3072 3405 2528 
C 3168 2176 2982 1978 2643 1728 
z
" transform="scale(0.015625)"/>
      <path id="HiraginoSans-W7-b2" d="M 1952 2118 
C 2144 2118 2298 2112 2515 2093 
L 2515 2784 
C 2355 2771 2214 2765 1984 2765 
L 1171 2765 
C 1274 2938 1350 3008 1792 3315 
C 2054 3501 2118 3552 2214 3648 
C 2400 3827 2490 4032 2490 4282 
C 2490 4800 2061 5133 1389 5133 
C 986 5133 678 5011 474 4774 
C 333 4614 269 4467 211 4173 
L 966 4096 
C 1005 4390 1126 4506 1389 4506 
C 1594 4506 1734 4410 1734 4262 
C 1734 4096 1638 3987 1318 3770 
C 928 3494 922 3494 813 3398 
C 653 3258 518 3098 416 2931 
C 301 2726 211 2432 198 2202 
C 192 2138 192 2138 192 2106 
C 358 2118 397 2118 698 2118 
L 1952 2118 
z
" transform="scale(0.015625)"/>
     </defs>
     <use xlink:href="#HiraginoSans-W7-7121"/>
     <use xlink:href="#HiraginoSans-W7-9650" transform="translate(99.999985 0)"/>
     <use xlink:href="#HiraginoSans-W7-6b21" transform="translate(199.999969 0)"/>
     <use xlink:href="#HiraginoSans-W7-5143" transform="translate(299.999954 0)"/>
     <use xlink:href="#HiraginoSans-W7-ff08" transform="translate(399.999939 0)"/>
     <use xlink:href="#HiraginoSans-W7-2113" transform="translate(499.999924 0)"/>
     <use xlink:href="#HiraginoSans-W7-b2" transform="translate(599.999908 0)"/>
     <use xlink:href="#HiraginoSans-W7-ff09" transform="translate(643.999893 0)"/>
    </g>
   </g>
   <g id="text_3">
    <!-- 有界閉集合 -->
    <g style="fill: #333333" transform="translate(7.2 153.320906) scale(0.09 -0.09)">
     <defs>
      <path id="HiraginoSans-W4-6709" d="M 1619 307 
C 1619 19 1606 -224 1581 -448 
L 2125 -448 
C 2099 -230 2093 -26 2093 307 
L 2093 941 
L 4717 941 
L 4717 256 
C 4717 90 4672 64 4403 64 
C 4154 64 3955 77 3616 122 
C 3686 -51 3712 -154 3731 -365 
C 3994 -378 4256 -384 4435 -384 
C 4749 -384 4896 -358 5005 -294 
C 5139 -205 5197 -64 5197 179 
L 5197 2739 
C 5197 3078 5203 3283 5222 3482 
C 5037 3462 4864 3456 4538 3456 
L 2259 3456 
C 2387 3654 2483 3814 2650 4134 
L 5338 4134 
C 5613 4134 5856 4122 6054 4096 
L 6054 4621 
C 5856 4595 5638 4582 5338 4582 
L 2854 4582 
C 2912 4710 2938 4787 2995 4941 
C 3085 5197 3091 5222 3130 5293 
L 2573 5370 
C 2534 5101 2477 4902 2349 4582 
L 1088 4582 
C 774 4582 563 4595 358 4621 
L 358 4096 
C 570 4122 787 4134 1088 4134 
L 2131 4134 
C 1914 3718 1709 3424 1402 3091 
C 1011 2669 640 2355 192 2074 
C 352 1926 416 1843 518 1658 
C 1005 2022 1267 2253 1619 2650 
L 1619 307 
z
M 4717 1990 
L 4717 1363 
L 2093 1363 
L 2093 1990 
L 4717 1990 
z
M 4717 2413 
L 2093 2413 
L 2093 3021 
L 4717 3021 
L 4717 2413 
z
" transform="scale(0.015625)"/>
      <path id="HiraginoSans-W4-754c" d="M 2227 2566 
C 1798 2035 1139 1658 243 1414 
C 390 1229 422 1178 518 966 
C 1235 1235 1658 1466 2125 1837 
C 2144 1715 2144 1664 2144 1549 
C 2144 627 1798 262 557 -109 
C 794 -397 794 -397 877 -544 
C 1536 -314 1901 -102 2182 205 
C 2470 525 2605 915 2637 1555 
C 2643 1709 2650 1766 2662 1837 
L 2131 1843 
C 2432 2093 2586 2259 2810 2566 
L 3584 2566 
C 3840 2246 3987 2093 4294 1850 
L 3872 1850 
C 3898 1709 3904 1613 3904 1350 
L 3904 173 
C 3904 -128 3891 -314 3866 -493 
L 4442 -493 
C 4416 -294 4403 -102 4403 173 
L 4403 1402 
C 4403 1562 4410 1632 4422 1754 
C 4838 1440 5274 1222 5952 979 
C 6029 1184 6086 1286 6208 1459 
C 5306 1677 4634 2042 4160 2566 
L 4902 2566 
C 5146 2566 5331 2560 5530 2541 
C 5510 2720 5504 2867 5504 3155 
L 5504 4493 
C 5504 4800 5510 4947 5530 5133 
C 5338 5107 5158 5101 4896 5101 
L 1542 5101 
C 1280 5101 1094 5107 909 5133 
C 928 4941 934 4781 934 4493 
L 934 3155 
C 934 2886 928 2720 909 2541 
C 1107 2560 1286 2566 1530 2566 
L 2227 2566 
z
M 1408 4691 
L 2957 4691 
L 2957 4026 
L 1408 4026 
L 1408 4691 
z
M 1408 3629 
L 2957 3629 
L 2957 2950 
L 1408 2950 
L 1408 3629 
z
M 3411 4691 
L 5030 4691 
L 5030 4026 
L 3411 4026 
L 3411 4691 
z
M 3411 3629 
L 5030 3629 
L 5030 2950 
L 3411 2950 
L 3411 3629 
z
" transform="scale(0.015625)"/>
      <path id="HiraginoSans-W4-9589" d="M 3162 2016 
C 2746 1434 2144 966 1331 570 
C 1485 416 1549 339 1638 186 
C 2445 634 3066 1184 3507 1837 
L 3526 410 
C 3526 250 3475 205 3277 205 
C 3066 205 2861 230 2618 282 
C 2688 83 2714 -6 2733 -198 
C 2957 -218 3117 -224 3270 -224 
C 3814 -224 3968 -109 3962 320 
L 3942 2016 
L 4307 2016 
C 4525 2016 4698 2010 4890 1984 
L 4890 2451 
C 4710 2426 4544 2419 4288 2419 
L 3942 2419 
L 3942 2470 
C 3942 2483 3942 2502 3942 2522 
C 3942 2682 3949 2797 3968 2918 
L 3462 2918 
C 3488 2765 3501 2675 3501 2470 
L 3501 2419 
L 2112 2419 
C 1856 2419 1683 2426 1504 2451 
L 1504 1984 
C 1696 2010 1862 2016 2093 2016 
L 3162 2016 
z
M 1062 3130 
L 2246 3130 
C 2509 3130 2707 3123 2880 3110 
C 2867 3283 2861 3418 2861 3693 
L 2861 4544 
C 2861 4806 2867 4973 2880 5152 
C 2701 5133 2547 5126 2227 5126 
L 1229 5126 
C 909 5126 742 5133 563 5152 
C 582 4947 589 4762 589 4442 
L 589 269 
C 589 -96 576 -294 550 -474 
L 1101 -474 
C 1075 -307 1062 -102 1062 262 
L 1062 3130 
z
M 1062 4755 
L 2419 4755 
L 2419 4307 
L 1062 4307 
L 1062 4755 
z
M 1062 3949 
L 2419 3949 
L 2419 3488 
L 1062 3488 
L 1062 3949 
z
M 5824 4442 
C 5824 4742 5830 4915 5856 5152 
C 5670 5133 5510 5126 5184 5126 
L 4128 5126 
C 3808 5126 3654 5133 3475 5152 
C 3488 4947 3494 4774 3494 4544 
L 3494 3693 
C 3494 3443 3488 3334 3475 3110 
C 3610 3123 3853 3130 4109 3130 
L 5350 3130 
L 5350 243 
C 5350 90 5306 64 5056 64 
C 4922 64 4736 83 4435 122 
C 4512 -51 4538 -160 4570 -365 
C 4768 -384 4928 -390 5101 -390 
C 5690 -390 5824 -282 5824 186 
L 5824 4442 
z
M 3936 4755 
L 5350 4755 
L 5350 4307 
L 3936 4307 
L 3936 4755 
z
M 3936 3949 
L 5350 3949 
L 5350 3488 
L 3936 3488 
L 3936 3949 
z
" transform="scale(0.015625)"/>
      <path id="HiraginoSans-W4-96c6" d="M 3526 2778 
L 4864 2778 
C 5165 2778 5299 2771 5453 2746 
L 5453 3174 
C 5254 3149 5146 3142 4864 3142 
L 3526 3142 
L 3526 3565 
L 4864 3565 
C 5165 3565 5280 3558 5453 3533 
L 5453 3962 
C 5261 3936 5139 3930 4864 3930 
L 3526 3930 
L 3526 4352 
L 5190 4352 
C 5446 4352 5574 4346 5734 4326 
L 5734 4774 
C 5555 4749 5421 4742 5139 4742 
L 3584 4742 
C 3693 4890 3802 5056 3962 5338 
L 3450 5434 
C 3373 5184 3277 5005 3085 4742 
L 1766 4742 
C 1837 4832 1971 5030 2176 5338 
L 1645 5446 
C 1600 5306 1523 5158 1427 5005 
C 1094 4486 723 4109 205 3744 
C 339 3597 384 3539 486 3341 
C 781 3571 941 3725 1158 3974 
C 1139 3789 1133 3584 1133 3366 
L 1133 2374 
C 1133 2195 1126 2042 1114 1920 
C 1242 1933 1338 1933 1581 1933 
L 2950 1933 
L 2950 1498 
L 1069 1498 
C 704 1498 531 1504 365 1536 
L 365 1050 
C 576 1075 774 1088 1069 1088 
L 2554 1088 
C 2330 890 2093 730 1766 563 
C 1299 326 877 192 262 83 
C 403 -77 467 -186 550 -378 
C 1005 -262 1389 -122 1741 45 
C 2253 294 2598 531 2970 915 
C 2957 819 2950 557 2950 448 
L 2950 -19 
C 2950 -237 2938 -346 2912 -486 
L 3456 -486 
C 3424 -365 3418 -275 3418 -13 
L 3418 448 
C 3418 576 3411 678 3398 922 
C 3789 544 4051 358 4486 128 
C 4915 -96 5286 -243 5843 -403 
C 5946 -179 5990 -109 6125 64 
C 5197 250 4384 608 3802 1088 
L 5325 1088 
C 5626 1088 5830 1075 6048 1050 
L 6048 1536 
C 5875 1504 5696 1498 5325 1498 
L 3418 1498 
L 3418 1933 
L 5165 1933 
C 5453 1933 5581 1926 5760 1901 
L 5760 2336 
C 5587 2310 5446 2304 5165 2304 
L 3526 2304 
L 3526 2778 
z
M 3078 2778 
L 3078 2304 
L 1600 2304 
L 1600 2778 
L 3078 2778 
z
M 3078 3142 
L 1600 3142 
L 1600 3565 
L 3078 3565 
L 3078 3142 
z
M 3078 3930 
L 1600 3930 
L 1600 4352 
L 3078 4352 
L 3078 3930 
z
" transform="scale(0.015625)"/>
      <path id="HiraginoSans-W4-5408" d="M 1677 2899 
C 1824 2918 1990 2925 2189 2925 
L 4186 2925 
C 4429 2925 4595 2918 4736 2899 
L 4736 3411 
C 5178 3104 5498 2918 5958 2701 
C 6042 2899 6112 3014 6234 3187 
C 5626 3424 5056 3750 4518 4186 
C 4019 4582 3731 4890 3456 5318 
L 2893 5318 
C 2630 4883 2381 4595 1926 4211 
C 1402 3763 832 3424 198 3162 
C 358 2989 422 2893 493 2720 
C 966 2938 1203 3078 1677 3398 
L 1677 2899 
z
M 2195 3386 
C 1971 3386 1811 3392 1690 3411 
C 2355 3878 2733 4256 3187 4890 
C 3597 4320 4032 3898 4730 3411 
C 4595 3392 4435 3386 4186 3386 
L 2195 3386 
z
M 1690 -435 
L 1690 -77 
L 4698 -77 
L 4698 -435 
L 5242 -435 
C 5216 -243 5203 -58 5203 205 
L 5203 1645 
C 5203 1901 5210 2067 5235 2240 
C 5101 2221 4960 2214 4723 2214 
L 1664 2214 
C 1427 2214 1286 2221 1152 2240 
C 1178 2061 1184 1888 1184 1645 
L 1184 205 
C 1184 -51 1171 -230 1146 -435 
L 1690 -435 
z
M 1690 1766 
L 4698 1766 
L 4698 371 
L 1690 371 
L 1690 1766 
z
" transform="scale(0.015625)"/>
     </defs>
     <use xlink:href="#HiraginoSans-W4-6709"/>
     <use xlink:href="#HiraginoSans-W4-754c" transform="translate(99.999985 0)"/>
     <use xlink:href="#HiraginoSans-W4-9589" transform="translate(199.999969 0)"/>
     <use xlink:href="#HiraginoSans-W4-96c6" transform="translate(299.999954 0)"/>
     <use xlink:href="#HiraginoSans-W4-5408" transform="translate(399.999939 0)"/>
    </g>
   </g>
   <g id="text_4">
    <!-- コンパクト -->
    <g style="fill: #1f4e79" transform="translate(152.57 153.603875) scale(0.1 -0.1)">
     <defs>
      <path id="HiraginoSans-W4-30b3" d="M 4736 416 
L 4736 32 
L 5350 32 
C 5325 192 5318 378 5318 666 
L 5318 3987 
C 5318 4230 5318 4339 5331 4493 
C 5171 4486 5075 4480 4998 4480 
L 1894 4480 
C 1440 4480 1338 4486 1101 4525 
L 1101 3917 
C 1331 3942 1466 3949 1888 3949 
L 4742 3949 
L 4742 947 
L 1760 947 
C 1338 947 1229 954 1005 992 
L 1005 390 
C 1197 410 1325 416 1754 416 
L 4736 416 
z
" transform="scale(0.015625)"/>
      <path id="HiraginoSans-W4-30f3" d="M 934 4160 
C 1504 3821 2016 3405 2496 2893 
L 2886 3373 
C 2419 3827 2022 4134 1312 4589 
L 934 4160 
z
M 1030 -19 
C 1171 26 1222 38 1427 83 
C 2458 314 3174 595 3827 1043 
C 4685 1626 5280 2368 5805 3507 
C 5581 3654 5510 3725 5331 3949 
C 4806 2573 3962 1645 2739 1101 
C 2144 838 1376 640 864 621 
L 1030 -19 
z
" transform="scale(0.015625)"/>
      <path id="HiraginoSans-W4-30d1" d="M 1920 4698 
C 1914 3981 1722 3040 1440 2304 
C 1133 1498 813 986 294 480 
C 518 352 582 301 794 83 
C 1709 1088 2195 2266 2470 4128 
C 2515 4448 2528 4499 2554 4582 
L 1920 4698 
z
M 3776 4582 
C 3808 4480 3827 4384 3859 4147 
C 3981 3322 4218 2483 4512 1798 
C 4826 1088 5152 557 5587 70 
C 5773 288 5850 352 6074 499 
C 5402 1171 4941 2022 4621 3174 
C 4467 3738 4352 4352 4339 4698 
L 3776 4582 
z
M 5581 5158 
C 5178 5158 4851 4832 4851 4429 
C 4851 4026 5178 3699 5581 3699 
C 5984 3699 6310 4026 6310 4429 
C 6310 4832 5984 5158 5581 5158 
z
M 5581 4877 
C 5824 4877 6029 4672 6029 4429 
C 6029 4186 5824 3981 5581 3981 
C 5338 3981 5133 4186 5133 4429 
C 5133 4672 5338 4877 5581 4877 
z
" transform="scale(0.015625)"/>
      <path id="HiraginoSans-W4-30af" d="M 2669 5229 
C 2637 5005 2522 4730 2285 4320 
C 1830 3520 1357 2995 666 2534 
C 890 2400 960 2336 1101 2144 
C 1709 2611 2208 3155 2618 3795 
L 4710 3827 
C 4480 3027 4096 2304 3616 1741 
C 3008 1024 2342 557 1376 166 
C 1574 0 1638 -77 1760 -301 
C 2707 128 3411 634 4000 1306 
C 4550 1939 5005 2790 5286 3731 
C 5363 3968 5370 3981 5427 4064 
L 5114 4371 
C 5011 4333 4973 4326 4742 4320 
C 4550 4314 4006 4307 3110 4294 
C 3072 4294 3072 4294 3034 4294 
C 2925 4288 2925 4288 2874 4275 
C 2950 4403 3002 4506 3155 4832 
C 3232 5005 3238 5005 3296 5082 
L 2669 5229 
z
" transform="scale(0.015625)"/>
      <path id="HiraginoSans-W4-30c8" d="M 2483 -224 
C 2458 -26 2451 179 2451 518 
L 2451 2189 
C 2451 2445 2445 2554 2426 2714 
C 2515 2656 2541 2650 2637 2605 
C 3546 2221 4429 1747 4992 1350 
L 5312 1907 
C 4224 2534 3354 2938 2451 3258 
L 2451 4397 
C 2451 4755 2458 4934 2483 5120 
L 1837 5120 
C 1869 4954 1875 4800 1875 4416 
L 1875 518 
C 1875 154 1869 -13 1837 -224 
L 2483 -224 
z
" transform="scale(0.015625)"/>
     </defs>
     <use xlink:href="#HiraginoSans-W4-30b3"/>
     <use xlink:href="#HiraginoSans-W4-30f3" transform="translate(99.999985 0)"/>
     <use xlink:href="#HiraginoSans-W4-30d1" transform="translate(199.999969 0)"/>
     <use xlink:href="#HiraginoSans-W4-30af" transform="translate(299.999954 0)"/>
     <use xlink:href="#HiraginoSans-W4-30c8" transform="translate(399.999939 0)"/>
    </g>
   </g>
   <g id="text_5">
    <!-- コンパクトとは限らない -->
    <g style="fill: #375623" transform="translate(401.57 153.603875) scale(0.1 -0.1)">
     <defs>
      <path id="HiraginoSans-W4-3068" d="M 1971 5056 
C 2010 4954 2016 4922 2074 4646 
C 2227 3885 2355 3392 2528 2874 
C 2131 2675 1926 2547 1683 2342 
C 1318 2042 1114 1651 1114 1261 
C 1114 826 1306 467 1651 269 
C 2035 51 2541 -38 3366 -38 
C 3834 -38 4160 -19 4826 51 
C 5178 90 5178 90 5312 90 
L 5254 723 
C 4845 582 4109 493 3373 493 
C 2938 493 2522 531 2304 589 
C 1894 698 1690 915 1690 1248 
C 1690 1498 1811 1741 2022 1933 
C 2298 2170 2707 2400 3206 2592 
C 3923 2867 4710 3117 5190 3219 
L 4973 3795 
C 4858 3731 4832 3725 4550 3622 
C 3424 3238 3424 3238 3034 3078 
C 2816 3725 2592 4723 2566 5165 
L 1971 5056 
z
" transform="scale(0.015625)"/>
      <path id="HiraginoSans-W4-306f" d="M 2381 3270 
C 2394 3277 2400 3277 2406 3277 
C 2419 3277 2438 3277 2470 3270 
C 2483 3270 2522 3270 2586 3264 
C 2605 3264 2675 3258 2778 3251 
C 3008 3232 3245 3226 3501 3226 
C 3738 3226 3898 3232 4205 3245 
C 4237 2208 4250 1805 4269 1664 
C 4102 1734 3859 1779 3603 1779 
C 2874 1779 2355 1382 2355 826 
C 2355 243 2829 -122 3590 -122 
C 4141 -122 4557 77 4710 416 
C 4762 531 4787 672 4787 858 
C 4787 909 4787 934 4781 992 
C 4813 973 4813 966 4838 954 
C 4890 922 4902 915 4909 909 
C 5370 627 5376 621 5574 454 
C 5658 384 5702 339 5766 269 
L 5997 813 
C 5920 851 5901 864 5830 922 
C 5434 1210 5229 1331 4781 1536 
C 4717 2618 4717 2694 4710 3283 
C 5101 3328 5382 3373 5722 3450 
C 5773 3462 5786 3462 5824 3469 
L 5798 3981 
C 5613 3898 5184 3808 4710 3750 
C 4710 3910 4710 4026 4710 4109 
C 4710 4589 4723 4883 4749 5043 
L 4179 5043 
C 4186 4979 4192 4883 4192 4768 
C 4198 4326 4198 4326 4198 3712 
C 3987 3706 3840 3699 3590 3699 
C 2995 3699 2707 3725 2387 3795 
L 2381 3270 
z
M 4282 1190 
C 4282 1184 4282 1043 4282 1005 
C 4282 787 4243 646 4173 557 
C 4058 429 3827 346 3565 346 
C 3149 346 2867 538 2867 826 
C 2867 1126 3168 1318 3629 1318 
C 3866 1318 4026 1286 4282 1190 
z
M 1331 845 
C 1331 922 1331 934 1331 998 
C 1331 1101 1331 1101 1325 1158 
C 1318 1453 1312 1766 1312 1914 
C 1312 2963 1536 4352 1811 4973 
L 1203 5056 
C 1203 4966 1190 4883 1133 4627 
C 890 3501 813 2867 813 2003 
C 813 1331 864 762 992 58 
C 1024 -122 1024 -134 1024 -179 
L 1581 -134 
C 1568 -58 1568 -26 1568 6 
C 1568 397 1843 1267 2144 1862 
L 1741 2042 
C 1722 1984 1715 1965 1683 1888 
C 1510 1440 1466 1306 1350 838 
L 1331 845 
z
" transform="scale(0.015625)"/>
      <path id="HiraginoSans-W4-9650" d="M 3866 2355 
C 4032 1696 4186 1325 4467 896 
C 4832 346 5242 -26 5946 -448 
C 6054 -237 6112 -154 6253 -6 
C 5632 301 5222 627 4890 1075 
C 5190 1280 5440 1466 5670 1645 
C 5914 1843 6042 1939 6054 1952 
L 5683 2298 
C 5542 2099 5107 1741 4653 1440 
C 4493 1741 4416 1946 4314 2355 
L 5146 2355 
C 5370 2355 5542 2349 5734 2336 
C 5715 2522 5709 2618 5709 3008 
L 5709 4384 
C 5709 4781 5715 4928 5728 5088 
C 5581 5062 5434 5056 5120 5056 
L 3411 5056 
C 3104 5056 2950 5062 2790 5082 
C 2810 4864 2816 4672 2816 4416 
L 2816 179 
C 2413 96 2189 58 1997 45 
L 2112 -467 
C 2189 -435 2259 -416 2413 -378 
C 3366 -154 3757 -51 4448 160 
L 4429 614 
C 4013 474 3866 435 3283 288 
L 3283 2355 
L 3866 2355 
z
M 3283 4627 
L 5261 4627 
L 5261 3923 
L 3283 3923 
L 3283 4627 
z
M 3283 3507 
L 5261 3507 
L 5261 2765 
L 3283 2765 
L 3283 3507 
z
M 608 160 
C 608 -102 595 -301 570 -474 
L 1114 -474 
C 1088 -262 1082 -83 1082 160 
L 1082 4698 
L 2074 4698 
C 1811 3994 1715 3776 1376 3149 
C 1677 2822 1792 2656 1901 2406 
C 1990 2195 2042 1958 2042 1734 
C 2042 1485 1958 1414 1670 1414 
C 1555 1414 1414 1427 1286 1446 
C 1350 1293 1382 1171 1395 966 
C 1510 966 1568 966 1638 966 
C 1850 966 2016 986 2157 1024 
C 2394 1094 2522 1318 2522 1664 
C 2522 1856 2502 2003 2464 2163 
C 2381 2522 2246 2765 1888 3194 
C 2125 3635 2298 4000 2445 4358 
C 2605 4749 2605 4749 2650 4838 
L 2387 5158 
C 2317 5133 2182 5126 1965 5126 
L 1030 5126 
C 819 5126 685 5133 589 5146 
C 602 4960 608 4813 608 4634 
L 608 160 
z
" transform="scale(0.015625)"/>
      <path id="HiraginoSans-W4-3089" d="M 1978 4627 
C 2541 4365 2541 4365 2989 4211 
C 3379 4083 3635 4006 4282 3846 
L 4486 4371 
C 3795 4480 2707 4826 2253 5082 
L 1978 4627 
z
M 1453 3968 
C 1446 3846 1440 3789 1408 3616 
C 1293 2893 1203 2310 1139 1824 
C 1114 1606 1107 1562 1088 1446 
L 1677 1427 
C 1773 1555 1830 1613 1939 1696 
C 2406 2029 3040 2227 3674 2227 
C 4422 2227 4870 1933 4870 1440 
C 4870 819 4205 403 3213 403 
C 2662 403 2067 518 1542 723 
C 1587 506 1600 416 1600 275 
L 1600 205 
C 1600 173 1600 147 1600 122 
C 2355 -70 2662 -115 3226 -115 
C 3910 -115 4429 19 4838 307 
C 5216 570 5446 1005 5446 1446 
C 5446 2208 4768 2714 3750 2714 
C 3040 2714 2342 2522 1907 2202 
C 1811 2131 1773 2099 1683 2003 
L 1677 2010 
C 1690 2067 1696 2080 1709 2157 
C 1824 2995 1946 3642 2029 3930 
L 1453 3968 
z
" transform="scale(0.015625)"/>
      <path id="HiraginoSans-W4-306a" d="M 2074 5229 
C 2054 4941 1971 4454 1862 4051 
C 1760 4045 1594 4045 1421 4045 
C 1062 4045 870 4058 646 4096 
L 646 3571 
C 678 3571 704 3571 717 3571 
C 755 3571 806 3571 870 3571 
C 1062 3565 1114 3565 1267 3565 
C 1536 3565 1562 3565 1728 3571 
C 1434 2586 922 1530 467 954 
L 986 653 
C 1018 710 1056 781 1114 877 
C 1357 1306 1414 1414 1568 1722 
C 1850 2310 2080 2925 2272 3590 
C 2707 3622 3072 3674 3315 3718 
C 3462 3744 3462 3744 3533 3750 
L 3514 4282 
C 3238 4192 2835 4122 2406 4083 
C 2483 4384 2522 4525 2566 4742 
C 2624 5018 2624 5037 2662 5152 
L 2074 5229 
z
M 5933 3488 
C 5408 3827 4954 4051 4211 4339 
L 3936 3904 
C 4627 3654 5133 3398 5670 3027 
L 5933 3488 
z
M 5939 640 
C 5901 672 5901 672 5843 717 
C 5786 774 5760 794 5664 870 
C 5280 1171 5050 1299 4576 1510 
C 4538 1792 4506 2182 4506 2451 
C 4506 2694 4525 2822 4595 3066 
L 4070 3110 
C 4026 2893 4006 2726 4006 2515 
C 4006 2304 4026 1958 4051 1645 
C 3782 1709 3622 1728 3405 1728 
C 2618 1728 2067 1312 2067 717 
C 2067 333 2304 6 2682 -122 
C 2886 -198 3142 -237 3379 -237 
C 3827 -237 4198 -96 4390 147 
C 4518 307 4602 563 4602 806 
C 4602 858 4602 890 4589 973 
C 5037 730 5434 422 5670 128 
L 5939 640 
z
M 4077 1152 
C 4083 1152 4096 966 4096 896 
C 4096 454 3853 243 3347 243 
C 2867 243 2579 429 2579 736 
C 2579 1062 2899 1274 3405 1274 
C 3648 1274 3821 1242 4077 1152 
z
" transform="scale(0.015625)"/>
      <path id="HiraginoSans-W4-3044" d="M 819 4576 
C 832 4454 832 4429 838 4192 
C 870 2592 960 1805 1178 1165 
C 1395 518 1754 134 2144 134 
C 2630 134 2931 576 3258 1741 
C 3040 1907 2970 1978 2810 2170 
C 2733 1734 2624 1389 2477 1056 
C 2387 851 2278 749 2170 749 
C 1939 749 1696 1178 1562 1837 
C 1472 2246 1408 3091 1408 3763 
C 1408 4122 1421 4358 1453 4570 
L 819 4576 
z
M 4058 4013 
C 4813 3130 5280 1984 5382 781 
L 5933 998 
C 5728 2349 5325 3290 4525 4243 
L 4058 4013 
z
" transform="scale(0.015625)"/>
     </defs>
     <use xlink:href="#HiraginoSans-W4-30b3"/>
     <use xlink:href="#HiraginoSans-W4-30f3" transform="translate(99.999985 0)"/>
     <use xlink:href="#HiraginoSans-W4-30d1" transform="translate(199.999969 0)"/>
     <use xlink:href="#HiraginoSans-W4-30af" transform="translate(299.999954 0)"/>
     <use xlink:href="#HiraginoSans-W4-30c8" transform="translate(399.999939 0)"/>
     <use xlink:href="#HiraginoSans-W4-3068" transform="translate(499.999924 0)"/>
     <use xlink:href="#HiraginoSans-W4-306f" transform="translate(599.999908 0)"/>
     <use xlink:href="#HiraginoSans-W4-9650" transform="translate(699.999893 0)"/>
     <use xlink:href="#HiraginoSans-W4-3089" transform="translate(799.999878 0)"/>
     <use xlink:href="#HiraginoSans-W4-306a" transform="translate(899.999863 0)"/>
     <use xlink:href="#HiraginoSans-W4-3044" transform="translate(999.999847 0)"/>
    </g>
   </g>
   <g id="text_6">
    <!-- 単位球 -->
    <g style="fill: #333333" transform="translate(16.2 205.592906) scale(0.09 -0.09)">
     <defs>
      <path id="HiraginoSans-W4-5358" d="M 2912 1651 
L 2912 1094 
L 1030 1094 
C 736 1094 557 1107 365 1133 
L 365 608 
C 550 634 768 646 1062 646 
L 2912 646 
L 2912 109 
C 2912 -198 2906 -326 2874 -499 
L 3437 -499 
C 3398 -314 3392 -186 3392 109 
L 3392 646 
L 5338 646 
C 5632 646 5850 634 6042 608 
L 6042 1133 
C 5862 1107 5677 1094 5376 1094 
L 3392 1094 
L 3392 1651 
L 4787 1651 
C 5030 1651 5203 1645 5434 1626 
C 5414 1792 5408 1958 5408 2266 
L 5408 3456 
C 5408 3776 5414 3942 5434 4115 
C 5286 4096 5107 4090 4787 4090 
L 4653 4090 
C 4883 4378 5043 4621 5318 5088 
L 4787 5267 
C 4614 4838 4435 4531 4115 4090 
L 1658 4090 
L 2106 4294 
C 1869 4698 1766 4845 1453 5210 
L 1011 5011 
C 1325 4659 1434 4499 1645 4090 
C 1293 4090 1133 4096 973 4115 
C 992 3936 998 3770 998 3456 
L 998 2246 
C 998 1965 992 1850 973 1626 
C 1171 1645 1350 1651 1619 1651 
L 2912 1651 
z
M 3392 3098 
L 3392 3680 
L 4934 3680 
L 4934 3098 
L 3392 3098 
z
M 2912 3098 
L 1472 3098 
L 1472 3680 
L 2912 3680 
L 2912 3098 
z
M 3392 2067 
L 3392 2694 
L 4934 2694 
L 4934 2067 
L 3392 2067 
z
M 2912 2067 
L 1472 2067 
L 1472 2694 
L 2912 2694 
L 2912 2067 
z
M 3603 4397 
C 3398 4832 3328 4960 3053 5357 
L 2592 5210 
C 2880 4794 2957 4659 3130 4205 
L 3603 4397 
z
" transform="scale(0.015625)"/>
      <path id="HiraginoSans-W4-4f4d" d="M 3667 4141 
L 2707 4141 
C 2381 4141 2202 4147 2016 4179 
L 2016 3661 
C 2163 3680 2374 3693 2720 3693 
L 5280 3693 
C 5555 3693 5754 3680 5965 3661 
L 5965 4179 
C 5779 4154 5581 4141 5280 4141 
L 4154 4141 
L 4154 4806 
C 4154 5024 4166 5152 4192 5293 
L 3622 5293 
C 3654 5139 3667 4992 3667 4794 
L 3667 4141 
z
M 2560 301 
C 2234 301 2035 314 1856 339 
L 1856 -198 
C 2061 -166 2278 -154 2573 -154 
L 5440 -154 
C 5728 -154 5965 -166 6157 -198 
L 6157 339 
C 5971 314 5773 301 5453 301 
L 4531 301 
C 4787 954 5050 1734 5229 2406 
C 5376 2957 5376 2957 5453 3206 
L 4883 3360 
C 4800 2618 4435 1306 4038 301 
L 2560 301 
z
M 992 294 
C 992 -45 979 -243 947 -467 
L 1510 -467 
C 1485 -224 1472 -6 1472 282 
L 1472 3718 
C 1696 4192 1786 4416 1971 4915 
C 2022 5069 2022 5075 2093 5261 
L 1562 5414 
C 1530 5197 1440 4864 1318 4550 
C 1037 3827 640 3187 141 2650 
C 250 2509 358 2310 410 2170 
C 672 2477 800 2662 1018 3027 
C 998 2758 992 2522 992 2253 
L 992 294 
z
M 3533 781 
C 3309 1856 3149 2426 2829 3296 
L 2342 3130 
C 2656 2330 2835 1670 3027 634 
L 3533 781 
z
" transform="scale(0.015625)"/>
      <path id="HiraginoSans-W4-7403" d="M 1088 4499 
L 1088 3123 
L 813 3123 
C 621 3123 518 3130 371 3155 
L 371 2669 
C 518 2694 627 2701 806 2701 
L 1088 2701 
L 1088 1171 
C 691 998 506 928 237 851 
L 397 320 
C 531 397 582 416 826 525 
C 1414 787 1875 1030 2330 1312 
L 2310 1798 
C 1971 1600 1843 1536 1555 1395 
L 1555 2701 
L 1766 2701 
C 1926 2701 2029 2694 2182 2675 
L 2182 3149 
C 2035 3130 1965 3123 1766 3123 
L 1555 3123 
L 1555 4499 
L 1850 4499 
C 2061 4499 2202 4493 2362 4474 
L 2362 4973 
C 2202 4947 2061 4934 1824 4934 
L 851 4934 
C 602 4934 454 4947 294 4973 
L 294 4467 
C 474 4493 570 4499 832 4499 
L 1088 4499 
z
M 3808 3731 
L 3808 147 
C 3808 19 3763 -13 3571 -13 
C 3360 -13 3110 13 2797 58 
C 2874 -115 2906 -230 2931 -435 
C 3232 -461 3360 -467 3514 -467 
C 4122 -467 4282 -371 4282 6 
L 4275 1562 
C 4275 1837 4256 2253 4224 2784 
C 4371 2093 4531 1702 4864 1178 
C 5171 698 5485 352 5926 6 
C 6029 211 6106 326 6240 474 
C 5677 864 5280 1312 4909 1965 
C 4589 2528 4301 3328 4275 3731 
L 5478 3731 
C 5702 3731 5894 3718 6080 3693 
L 6080 4198 
C 5901 4173 5709 4160 5459 4160 
L 4275 4160 
L 4275 4685 
C 4275 4922 4288 5101 4314 5293 
L 3763 5293 
C 3795 5075 3808 4877 3808 4646 
L 3808 4160 
L 2854 4160 
C 2598 4160 2413 4173 2234 4198 
L 2234 3693 
C 2426 3718 2605 3731 2842 3731 
L 3808 3731 
z
M 3456 2310 
C 3226 2784 3098 3002 2765 3450 
L 2381 3232 
C 2675 2854 2835 2566 3053 2061 
L 3456 2310 
z
M 5773 4627 
C 5472 4883 5248 5050 4864 5286 
L 4544 4998 
C 4915 4768 5126 4608 5459 4307 
L 5773 4627 
z
M 5171 2061 
C 5472 2451 5690 2778 5939 3206 
L 5523 3475 
C 5312 3014 5120 2707 4826 2362 
L 5171 2061 
z
M 3482 1709 
C 2848 1229 2272 870 1882 723 
L 2150 230 
C 2214 282 2310 352 2400 403 
C 2822 666 3104 864 3661 1299 
L 3482 1709 
z
" transform="scale(0.015625)"/>
     </defs>
     <use xlink:href="#HiraginoSans-W4-5358"/>
     <use xlink:href="#HiraginoSans-W4-4f4d" transform="translate(99.999985 0)"/>
     <use xlink:href="#HiraginoSans-W4-7403" transform="translate(199.999969 0)"/>
    </g>
   </g>
   <g id="text_7">
    <!-- コンパクト -->
    <g style="fill: #1f4e79" transform="translate(152.57 205.875875) scale(0.1 -0.1)">
     <use xlink:href="#HiraginoSans-W4-30b3"/>
     <use xlink:href="#HiraginoSans-W4-30f3" transform="translate(99.999985 0)"/>
     <use xlink:href="#HiraginoSans-W4-30d1" transform="translate(199.999969 0)"/>
     <use xlink:href="#HiraginoSans-W4-30af" transform="translate(299.999954 0)"/>
     <use xlink:href="#HiraginoSans-W4-30c8" transform="translate(399.999939 0)"/>
    </g>
   </g>
   <g id="text_8">
    <!-- コンパクトでない -->
    <g style="fill: #375623" transform="translate(416.57 205.875875) scale(0.1 -0.1)">
     <defs>
      <path id="HiraginoSans-W4-3067" d="M 576 3706 
C 915 3776 1440 3827 2682 3910 
C 3373 3955 3680 3987 4090 4051 
C 3008 3565 2374 2733 2374 1798 
C 2374 1222 2643 736 3136 416 
C 3514 179 3891 51 4550 -58 
C 4653 -70 4678 -77 4755 -96 
L 4845 525 
C 4538 525 4205 582 3885 691 
C 3245 902 2918 1286 2918 1850 
C 2918 2451 3283 3040 3936 3482 
C 4442 3821 5050 4026 5568 4026 
L 5645 4026 
L 5600 4595 
C 5498 4570 5242 4544 4851 4531 
C 3795 4486 2042 4384 1146 4320 
C 947 4307 864 4301 774 4301 
L 544 4307 
L 576 3706 
z
M 4506 3104 
C 4768 2810 4973 2490 5171 2093 
L 5549 2304 
C 5325 2720 5178 2938 4877 3296 
L 4506 3104 
z
M 5248 3450 
C 5530 3117 5722 2829 5907 2458 
L 6278 2669 
C 6048 3091 5907 3290 5606 3642 
L 5248 3450 
z
" transform="scale(0.015625)"/>
     </defs>
     <use xlink:href="#HiraginoSans-W4-30b3"/>
     <use xlink:href="#HiraginoSans-W4-30f3" transform="translate(99.999985 0)"/>
     <use xlink:href="#HiraginoSans-W4-30d1" transform="translate(199.999969 0)"/>
     <use xlink:href="#HiraginoSans-W4-30af" transform="translate(299.999954 0)"/>
     <use xlink:href="#HiraginoSans-W4-30c8" transform="translate(399.999939 0)"/>
     <use xlink:href="#HiraginoSans-W4-3067" transform="translate(499.999924 0)"/>
     <use xlink:href="#HiraginoSans-W4-306a" transform="translate(599.999908 0)"/>
     <use xlink:href="#HiraginoSans-W4-3044" transform="translate(699.999893 0)"/>
    </g>
   </g>
   <g id="text_9">
    <!-- 有界列 -->
    <g style="fill: #333333" transform="translate(16.2 257.864906) scale(0.09 -0.09)">
     <defs>
      <path id="HiraginoSans-W4-5217" d="M 1286 2336 
C 1638 2112 1850 1933 2163 1600 
C 1805 915 1344 454 531 -38 
C 698 -179 755 -256 870 -448 
C 1613 58 2054 493 2445 1126 
C 2822 1734 3034 2387 3181 3366 
C 3232 3693 3238 3750 3251 3795 
C 3110 3776 2982 3770 2714 3770 
L 1754 3770 
C 1843 4058 1882 4211 1939 4589 
L 2886 4589 
C 3142 4589 3341 4576 3533 4557 
L 3533 5043 
C 3354 5024 3155 5011 2880 5011 
L 1088 5011 
C 806 5011 646 5018 461 5043 
L 461 4557 
C 627 4576 813 4589 1043 4589 
L 1466 4589 
C 1318 3590 941 2842 250 2195 
C 390 2067 442 1990 563 1773 
C 1056 2291 1338 2714 1606 3360 
L 2701 3360 
C 2611 2803 2534 2509 2368 2054 
C 2138 2278 1882 2483 1530 2726 
L 1286 2336 
z
M 3846 4832 
C 3872 4640 3885 4448 3885 4090 
L 3885 1741 
C 3885 1318 3878 1171 3853 998 
L 4397 998 
C 4371 1178 4365 1312 4365 1747 
L 4365 4090 
C 4365 4474 4371 4659 4403 4832 
L 3846 4832 
z
M 5254 5235 
C 5286 5005 5299 4736 5299 4410 
L 5299 269 
C 5299 96 5280 90 4896 90 
C 4717 90 4390 115 4154 147 
C 4224 -38 4256 -173 4262 -371 
C 4595 -384 4845 -390 4986 -390 
C 5632 -390 5786 -275 5786 230 
L 5786 4410 
C 5786 4762 5798 5030 5830 5235 
L 5254 5235 
z
" transform="scale(0.015625)"/>
     </defs>
     <use xlink:href="#HiraginoSans-W4-6709"/>
     <use xlink:href="#HiraginoSans-W4-754c" transform="translate(99.999985 0)"/>
     <use xlink:href="#HiraginoSans-W4-5217" transform="translate(199.999969 0)"/>
    </g>
   </g>
   <g id="text_10">
    <!-- 収束部分列あり -->
    <g style="fill: #1f4e79" transform="translate(142.57 258.147875) scale(0.1 -0.1)">
     <defs>
      <path id="HiraginoSans-W4-53ce" d="M 1190 4026 
C 1190 4307 1203 4493 1229 4710 
L 672 4710 
C 704 4480 717 4301 717 4026 
L 717 1261 
C 499 1203 448 1190 250 1152 
L 358 640 
C 480 685 499 691 634 736 
C 1235 947 1606 1094 2035 1280 
L 2035 218 
C 2035 -58 2022 -243 1990 -467 
L 2560 -467 
C 2534 -243 2522 -64 2522 218 
L 2522 4614 
C 2522 4896 2534 5075 2560 5306 
L 1990 5306 
C 2022 5075 2035 4890 2035 4614 
L 2035 1741 
C 1754 1619 1606 1555 1190 1414 
L 1190 4026 
z
M 3322 4909 
C 3072 4909 2918 4915 2733 4947 
L 2733 4422 
C 2854 4442 2938 4448 3142 4454 
C 3238 3642 3290 3366 3437 2848 
C 3610 2259 3814 1805 4115 1325 
C 3674 736 3174 294 2554 -64 
C 2733 -250 2797 -346 2867 -512 
C 3514 -83 3962 326 4410 909 
C 4512 774 4589 685 4698 563 
C 5114 128 5427 -134 5933 -480 
C 6048 -230 6093 -160 6221 6 
C 5542 429 5158 762 4710 1338 
C 5306 2291 5658 3334 5856 4762 
C 5875 4870 5875 4870 5882 4934 
C 5696 4915 5568 4909 5395 4909 
L 3322 4909 
z
M 5306 4454 
C 5139 3341 4870 2534 4410 1760 
C 4173 2150 4006 2547 3853 3091 
C 3725 3552 3686 3782 3616 4454 
L 5306 4454 
z
" transform="scale(0.015625)"/>
      <path id="HiraginoSans-W4-675f" d="M 2880 4250 
L 2880 3667 
L 1638 3667 
C 1299 3667 1082 3680 934 3699 
C 954 3507 960 3360 960 3021 
L 960 2451 
C 960 2093 954 1965 934 1779 
C 1101 1798 1306 1811 1670 1811 
L 2592 1811 
C 2131 1158 1229 538 205 160 
C 358 -6 410 -96 499 -282 
C 1088 -32 1562 243 2016 608 
C 2406 922 2605 1126 2899 1523 
C 2880 1165 2880 1165 2880 1050 
L 2880 186 
C 2880 -134 2867 -294 2835 -493 
L 3405 -493 
C 3366 -301 3360 -160 3360 186 
L 3360 1050 
C 3360 1152 3354 1261 3341 1530 
C 3699 1056 3936 832 4410 493 
C 4832 192 5286 -45 5901 -294 
C 5997 -90 6080 38 6195 179 
C 5075 518 4198 1075 3629 1811 
L 4717 1811 
C 5062 1811 5280 1798 5440 1779 
C 5421 1952 5414 2176 5414 2451 
L 5414 3034 
C 5414 3360 5421 3482 5440 3699 
C 5274 3674 5082 3667 4723 3667 
L 3360 3667 
L 3360 4250 
L 5395 4250 
C 5626 4250 5843 4237 6042 4211 
L 6042 4749 
C 5862 4717 5709 4704 5382 4704 
L 3360 4704 
L 3360 4736 
C 3360 4979 3373 5152 3405 5338 
L 2835 5338 
C 2867 5158 2880 4992 2880 4736 
L 2880 4704 
L 973 4704 
C 678 4704 512 4717 326 4749 
L 326 4211 
C 518 4237 730 4250 966 4250 
L 2880 4250 
z
M 2880 3232 
L 2880 2240 
L 1427 2240 
L 1427 3232 
L 2880 3232 
z
M 3360 3232 
L 4947 3232 
L 4947 2240 
L 3360 2240 
L 3360 3232 
z
" transform="scale(0.015625)"/>
      <path id="HiraginoSans-W4-90e8" d="M 2298 4646 
L 2298 4864 
C 2298 5069 2310 5203 2336 5344 
L 1773 5344 
C 1798 5229 1811 5062 1811 4864 
L 1811 4646 
L 1069 4646 
C 768 4646 614 4653 467 4678 
L 467 4179 
C 621 4205 768 4211 1030 4211 
L 2982 4211 
C 3258 4211 3418 4205 3552 4179 
L 3552 4678 
C 3405 4653 3251 4646 2963 4646 
L 2298 4646 
z
M 2733 2912 
C 2944 3322 3034 3546 3168 3981 
L 2701 4122 
C 2592 3648 2496 3373 2278 2912 
L 928 2912 
C 621 2912 467 2918 307 2944 
L 307 2438 
C 467 2464 627 2470 928 2470 
L 3072 2470 
C 3328 2470 3501 2464 3635 2438 
L 3635 2944 
C 3507 2918 3341 2912 3053 2912 
L 2733 2912 
z
M 890 3974 
C 1075 3603 1171 3366 1267 2963 
L 1709 3110 
C 1581 3552 1498 3776 1312 4128 
L 890 3974 
z
M 1203 -70 
L 2746 -70 
L 2746 -454 
L 3245 -454 
C 3226 -307 3219 -186 3219 38 
L 3219 1466 
C 3219 1779 3219 1843 3238 1984 
C 3136 1971 3014 1965 2771 1965 
L 1222 1965 
C 986 1965 858 1971 710 1984 
C 723 1850 730 1734 730 1446 
L 730 128 
C 730 -160 723 -301 704 -461 
L 1203 -461 
L 1203 -70 
z
M 1203 1530 
L 2752 1530 
L 2752 365 
L 1203 365 
L 1203 1530 
z
M 5907 5171 
C 5786 5152 5658 5146 5408 5146 
L 4358 5146 
C 4128 5146 4000 5152 3840 5165 
C 3859 4960 3866 4787 3866 4595 
L 3866 198 
C 3866 -102 3853 -326 3827 -518 
L 4390 -518 
C 4358 -326 4346 -134 4346 205 
L 4346 4704 
L 5510 4704 
C 5286 4064 5075 3597 4691 2950 
C 5107 2573 5267 2374 5427 2048 
C 5562 1760 5632 1478 5632 1184 
C 5632 890 5517 787 5171 787 
C 4979 787 4819 800 4582 838 
C 4653 685 4678 557 4685 339 
C 4864 320 5011 314 5171 314 
C 5459 314 5664 352 5786 422 
C 6003 544 6118 800 6118 1152 
C 6118 1446 6054 1754 5933 2042 
C 5786 2387 5632 2605 5242 3021 
C 5485 3443 5709 3898 5882 4288 
C 6086 4774 6086 4774 6131 4858 
L 5907 5171 
z
" transform="scale(0.015625)"/>
      <path id="HiraginoSans-W4-5206" d="M 2458 2598 
C 2413 2054 2323 1722 2112 1331 
C 1811 762 1274 301 518 -32 
C 685 -198 755 -294 851 -467 
C 2003 115 2630 870 2880 1952 
C 2925 2163 2944 2272 2970 2598 
L 4390 2598 
C 4390 1715 4333 954 4243 538 
C 4173 205 4128 166 3853 166 
C 3622 166 3328 198 2982 269 
C 3059 51 3085 -70 3110 -269 
C 3488 -301 3706 -314 3898 -314 
C 4326 -314 4499 -243 4614 -26 
C 4781 288 4890 1299 4902 2618 
C 4902 2925 4902 2963 4922 3085 
C 4736 3059 4544 3053 4250 3053 
L 2067 3053 
C 1824 3053 1619 3066 1440 3085 
L 1440 2560 
C 1619 2586 1824 2598 2067 2598 
L 2458 2598 
z
M 2189 5299 
C 2157 5114 2080 4922 1926 4634 
C 1517 3885 973 3296 192 2771 
C 358 2624 467 2496 557 2342 
C 1446 3002 2099 3795 2573 4774 
C 2656 4954 2694 5018 2752 5101 
L 2189 5299 
z
M 3629 5082 
C 3667 5018 3718 4922 3770 4819 
C 4294 3763 4909 3034 5882 2317 
C 6003 2528 6099 2656 6234 2790 
C 5389 3341 4838 3923 4384 4742 
C 4243 4986 4186 5114 4134 5286 
L 3629 5082 
z
" transform="scale(0.015625)"/>
      <path id="HiraginoSans-W4-3042" d="M 851 3891 
C 902 3898 941 3898 966 3898 
C 979 3898 1024 3898 1082 3891 
C 1600 3872 1894 3866 1965 3866 
L 2176 3866 
C 2150 3418 2150 3418 2144 2957 
C 1210 2547 653 1824 653 1011 
C 653 422 1011 0 1517 0 
C 1978 0 2458 250 2963 755 
C 3482 1267 3840 1830 4211 2675 
C 4838 2502 5178 2138 5178 1626 
C 5178 1082 4781 634 4090 390 
C 3782 288 3520 243 3136 230 
C 3277 19 3315 -70 3379 -282 
C 3949 -218 4314 -115 4691 77 
C 5370 422 5722 941 5722 1594 
C 5722 2336 5216 2899 4365 3098 
C 4486 3398 4550 3558 4563 3584 
L 4038 3738 
C 4013 3565 3968 3386 3891 3187 
C 3731 3200 3654 3206 3533 3206 
C 3213 3206 2963 3174 2630 3091 
C 2630 3341 2637 3392 2669 3878 
C 3264 3898 4211 4000 4934 4122 
C 5050 4141 5075 4147 5165 4154 
L 5133 4685 
C 4646 4518 3731 4384 2701 4333 
C 2746 4813 2771 5024 2829 5197 
L 2246 5235 
C 2253 5184 2259 5152 2259 5133 
C 2259 5075 2246 4845 2240 4768 
C 2214 4454 2214 4454 2202 4314 
C 2093 4314 2067 4314 2048 4314 
C 1478 4314 1133 4339 858 4410 
L 851 3891 
z
M 2150 2458 
C 2150 1741 2189 1267 2272 806 
C 2010 589 1805 499 1587 499 
C 1325 499 1152 717 1152 1050 
C 1152 1357 1280 1670 1517 1952 
C 1683 2150 1850 2285 2150 2458 
z
M 2694 1126 
C 2694 1146 2694 1152 2694 1165 
C 2694 1190 2688 1248 2682 1312 
C 2637 1766 2630 1850 2618 2630 
C 2880 2726 3181 2778 3462 2778 
C 3590 2778 3622 2778 3738 2765 
C 3482 2170 3258 1805 2861 1325 
C 2752 1190 2752 1190 2707 1126 
L 2694 1126 
z
" transform="scale(0.015625)"/>
      <path id="HiraginoSans-W4-308a" d="M 1875 2963 
C 1894 3187 1907 3328 1965 3731 
C 2125 4851 2144 4941 2221 5165 
L 1632 5210 
C 1632 5133 1632 5101 1619 5005 
C 1453 3827 1408 3283 1408 2637 
C 1408 2560 1421 1875 1421 1811 
C 1427 1747 1427 1709 1427 1690 
C 1427 1677 1427 1651 1421 1619 
L 1971 1632 
C 1971 1715 1971 1754 1971 1786 
C 1971 2266 2086 2746 2323 3213 
C 2675 3923 3085 4282 3539 4282 
C 4141 4282 4486 3712 4486 2714 
C 4486 1702 4141 1050 3392 634 
C 3008 422 2675 326 2061 243 
C 2208 51 2253 -26 2349 -282 
C 2816 -186 3206 -58 3520 90 
C 4518 570 5050 1459 5050 2637 
C 5050 3347 4928 3827 4646 4237 
C 4384 4614 4026 4806 3590 4806 
C 3104 4806 2682 4544 2330 4032 
C 2150 3763 2029 3482 1946 3136 
C 1914 3008 1914 3008 1901 2963 
L 1875 2963 
z
" transform="scale(0.015625)"/>
     </defs>
     <use xlink:href="#HiraginoSans-W4-53ce"/>
     <use xlink:href="#HiraginoSans-W4-675f" transform="translate(99.999985 0)"/>
     <use xlink:href="#HiraginoSans-W4-90e8" transform="translate(199.999969 0)"/>
     <use xlink:href="#HiraginoSans-W4-5206" transform="translate(299.999954 0)"/>
     <use xlink:href="#HiraginoSans-W4-5217" transform="translate(399.999939 0)"/>
     <use xlink:href="#HiraginoSans-W4-3042" transform="translate(499.999924 0)"/>
     <use xlink:href="#HiraginoSans-W4-308a" transform="translate(599.999908 0)"/>
    </g>
   </g>
   <g id="text_11">
    <!-- 収束部分列なし -->
    <g style="fill: #375623" transform="translate(421.57 258.147875) scale(0.1 -0.1)">
     <defs>
      <path id="HiraginoSans-W4-3057" d="M 1440 5030 
C 1453 4890 1459 4813 1459 4672 
C 1459 4576 1459 4429 1453 4243 
C 1408 2234 1402 2035 1402 1645 
C 1402 1306 1434 992 1491 800 
C 1574 525 1747 275 1965 115 
C 2208 -58 2592 -160 3034 -160 
C 3776 -160 4390 109 4851 640 
C 5139 973 5325 1363 5574 2144 
C 5331 2266 5242 2323 5030 2509 
C 4947 2061 4870 1798 4717 1485 
C 4378 768 3789 371 3072 371 
C 2630 371 2304 506 2138 749 
C 2003 960 1958 1203 1958 1786 
C 1958 2214 1997 3763 2022 4230 
C 2042 4685 2061 4858 2093 5024 
L 1440 5030 
z
" transform="scale(0.015625)"/>
     </defs>
     <use xlink:href="#HiraginoSans-W4-53ce"/>
     <use xlink:href="#HiraginoSans-W4-675f" transform="translate(99.999985 0)"/>
     <use xlink:href="#HiraginoSans-W4-90e8" transform="translate(199.999969 0)"/>
     <use xlink:href="#HiraginoSans-W4-5206" transform="translate(299.999954 0)"/>
     <use xlink:href="#HiraginoSans-W4-5217" transform="translate(399.999939 0)"/>
     <use xlink:href="#HiraginoSans-W4-306a" transform="translate(499.999924 0)"/>
     <use xlink:href="#HiraginoSans-W4-3057" transform="translate(599.999908 0)"/>
    </g>
   </g>
   <g id="text_12">
    <!-- 具体例 -->
    <g style="fill: #333333" transform="translate(16.2 310.136906) scale(0.09 -0.09)">
     <defs>
      <path id="HiraginoSans-W4-5177" d="M 1914 5069 
C 1619 5069 1408 5075 1210 5101 
C 1235 4915 1242 4774 1242 4480 
L 1242 2368 
C 1242 2067 1229 1850 1210 1696 
C 1414 1715 1638 1728 1882 1728 
L 4531 1728 
C 4774 1728 4992 1715 5203 1696 
C 5184 1843 5171 2054 5171 2349 
L 5171 4454 
C 5171 4774 5178 4941 5203 5101 
C 4986 5075 4832 5069 4544 5069 
L 1914 5069 
z
M 4698 4646 
L 4698 4096 
L 1715 4096 
L 1715 4646 
L 4698 4646 
z
M 4698 3680 
L 4698 3130 
L 1715 3130 
L 1715 3680 
L 4698 3680 
z
M 4698 2714 
L 4698 2138 
L 1715 2138 
L 1715 2714 
L 4698 2714 
z
M 365 813 
C 550 838 781 851 1043 851 
L 5408 851 
C 5645 851 5882 838 6080 813 
L 6080 1344 
C 5907 1318 5664 1306 5395 1306 
L 1043 1306 
C 787 1306 544 1318 365 1344 
L 365 813 
z
M 2253 768 
C 1747 326 1389 160 448 -58 
C 614 -224 666 -294 768 -486 
C 1664 -237 2061 -32 2682 486 
L 2253 768 
z
M 3680 493 
C 4403 -26 4781 -205 5658 -474 
C 5773 -275 5811 -218 5984 -19 
C 5050 211 4672 365 4102 774 
L 3680 493 
z
" transform="scale(0.015625)"/>
      <path id="HiraginoSans-W4-4f53" d="M 3648 774 
L 3648 179 
C 3648 -51 3635 -262 3603 -486 
L 4147 -486 
C 4122 -256 4109 -51 4109 179 
L 4109 774 
L 4672 774 
C 4896 774 5018 768 5171 749 
L 5171 1242 
C 5030 1216 4896 1210 4666 1210 
L 4109 1210 
L 4109 2406 
C 4109 2669 4102 2893 4090 3187 
C 4416 2477 4659 2074 5050 1594 
C 5331 1242 5594 979 5952 685 
C 6074 883 6163 1005 6298 1126 
C 5389 1786 4883 2406 4307 3578 
L 5440 3578 
C 5683 3578 5920 3565 6112 3539 
L 6112 4064 
C 5920 4038 5709 4026 5434 4026 
L 4109 4026 
L 4109 4698 
C 4109 4922 4128 5158 4154 5318 
L 3597 5318 
C 3629 5126 3642 4902 3642 4698 
L 3642 4026 
L 2554 4026 
C 2298 4026 2067 4038 1894 4058 
L 1894 3539 
C 2099 3565 2310 3578 2541 3578 
L 3443 3578 
C 3264 3155 3098 2848 2835 2470 
C 2445 1901 2086 1530 1542 1126 
C 1734 947 1792 883 1888 717 
C 2323 1082 2624 1408 2918 1811 
C 3238 2259 3405 2560 3667 3181 
C 3654 2899 3648 2707 3648 2394 
L 3648 1210 
L 3149 1210 
C 2918 1210 2778 1216 2637 1242 
L 2637 749 
C 2790 768 2918 774 3136 774 
L 3648 774 
z
M 1011 275 
C 1011 -58 1005 -250 973 -486 
L 1523 -486 
C 1504 -269 1491 -45 1491 262 
L 1491 3706 
C 1696 4122 1754 4250 1952 4787 
C 2022 4973 2042 5024 2118 5216 
L 1594 5370 
C 1542 5062 1485 4864 1350 4525 
C 1075 3814 698 3219 154 2624 
C 294 2419 333 2355 416 2144 
C 691 2458 832 2662 1030 3008 
C 1018 2726 1011 2547 1011 2240 
L 1011 275 
z
" transform="scale(0.015625)"/>
      <path id="HiraginoSans-W4-4f8b" d="M 3462 3283 
C 3379 2701 3322 2451 3162 2029 
C 2976 2227 2854 2342 2554 2618 
L 2317 2240 
C 2618 1971 2746 1850 2963 1587 
C 2592 870 2182 410 1504 -64 
C 1651 -186 1741 -282 1856 -448 
C 2630 147 3155 826 3494 1651 
C 3712 2176 3795 2534 3923 3450 
L 3725 3725 
C 3610 3706 3475 3699 3226 3699 
L 2758 3699 
C 2829 3974 2848 4077 2912 4518 
L 3533 4518 
C 3776 4518 3923 4512 4090 4493 
L 4090 4979 
C 3930 4954 3757 4947 3469 4947 
L 2432 4947 
C 2163 4947 2003 4954 1843 4979 
L 1843 4486 
C 2022 4512 2125 4518 2368 4518 
L 2464 4518 
C 2323 3475 2022 2771 1427 2106 
C 1542 1984 1626 1869 1728 1696 
C 2150 2208 2413 2669 2630 3283 
L 3462 3283 
z
M 1293 3782 
C 1510 4250 1619 4538 1722 4890 
C 1747 4979 1792 5107 1818 5184 
L 1338 5350 
C 1171 4429 678 3386 70 2688 
C 179 2554 224 2477 333 2214 
C 570 2528 685 2707 851 3053 
C 838 2726 832 2502 832 2170 
L 832 352 
C 832 6 819 -192 794 -429 
L 1318 -429 
C 1299 -192 1293 -13 1293 358 
L 1293 3782 
z
M 4806 1082 
C 4787 1242 4781 1402 4781 1709 
L 4781 4288 
C 4781 4582 4787 4723 4813 4909 
L 4294 4909 
C 4320 4723 4326 4563 4326 4288 
L 4326 1709 
C 4326 1434 4314 1242 4294 1082 
L 4806 1082 
z
M 5869 4531 
C 5869 4870 5875 5056 5907 5242 
L 5370 5242 
C 5402 5018 5408 4858 5408 4531 
L 5408 230 
C 5408 90 5363 70 5088 70 
C 4890 70 4608 90 4275 128 
C 4346 -51 4371 -141 4403 -352 
C 4730 -365 4890 -371 5082 -371 
C 5715 -371 5869 -269 5869 160 
L 5869 4531 
z
" transform="scale(0.015625)"/>
     </defs>
     <use xlink:href="#HiraginoSans-W4-5177"/>
     <use xlink:href="#HiraginoSans-W4-4f53" transform="translate(99.999985 0)"/>
     <use xlink:href="#HiraginoSans-W4-4f8b" transform="translate(199.999969 0)"/>
    </g>
   </g>
   <g id="text_13">
    <!-- ℝ, ℝ², ℝ³, ... -->
    <g style="fill: #1f4e79" transform="translate(149.849687 310.419875) scale(0.1 -0.1)">
     <defs>
      <path id="STIXGeneral-Regular-211d" d="M 4557 0 
L 3232 0 
L 1984 1734 
L 1510 1734 
L 1510 0 
L 448 0 
L 448 4237 
L 2496 4237 
Q 3168 4237 3593 3933 
Q 4019 3629 4019 2982 
Q 4019 2554 3801 2250 
Q 3584 1946 3181 1824 
L 4557 0 
z
M 3142 3866 
L 3142 2054 
Q 3418 2170 3578 2419 
Q 3738 2669 3738 2970 
Q 3738 3597 3142 3866 
z
M 2861 2048 
L 2861 3904 
Q 2835 3904 2716 3929 
Q 2598 3955 2541 3955 
L 1510 3955 
L 1510 2016 
L 2509 2016 
Q 2573 2016 2861 2048 
z
M 4006 282 
L 2886 1760 
Q 2739 1734 2323 1734 
L 3379 282 
L 4006 282 
z
M 1229 282 
L 1229 3955 
L 730 3955 
L 730 282 
L 1229 282 
z
" transform="scale(0.015625)"/>
      <path id="HiraginoSans-W4-2c" d="M 1165 723 
L 435 723 
L 435 0 
L 858 0 
C 851 -403 800 -499 493 -614 
L 685 -864 
C 1062 -672 1165 -493 1165 0 
L 1165 723 
z
" transform="scale(0.015625)"/>
      <path id="HiraginoSans-W4-20" transform="scale(0.015625)"/>
      <path id="HiraginoSans-W4-b2" d="M 1805 2170 
C 1952 2170 2003 2170 2259 2150 
L 2259 2624 
C 2125 2611 1984 2605 1811 2605 
L 826 2605 
C 902 2861 1037 2995 1632 3405 
C 2099 3725 2240 3923 2240 4250 
C 2240 4704 1862 4998 1286 4998 
C 954 4998 685 4890 506 4685 
C 390 4550 333 4429 275 4179 
L 768 4102 
C 826 4442 979 4576 1286 4576 
C 1568 4576 1747 4448 1747 4250 
C 1747 4038 1658 3923 1274 3667 
C 864 3392 845 3373 717 3251 
C 518 3066 378 2854 307 2630 
C 262 2490 250 2387 237 2150 
C 371 2170 410 2170 653 2170 
L 1805 2170 
z
" transform="scale(0.015625)"/>
      <path id="HiraginoSans-W4-b3" d="M 186 2765 
C 262 2554 320 2451 422 2342 
C 608 2150 896 2048 1254 2048 
C 1882 2048 2278 2362 2278 2867 
C 2278 3098 2195 3290 2042 3411 
C 1914 3507 1798 3552 1574 3578 
C 1965 3642 2170 3872 2170 4243 
C 2170 4704 1818 4992 1254 4992 
C 915 4992 646 4890 467 4691 
C 378 4589 333 4506 269 4307 
L 762 4211 
C 813 4461 966 4576 1248 4576 
C 1542 4576 1702 4442 1702 4192 
C 1702 3930 1498 3776 1152 3776 
C 998 3776 928 3782 838 3795 
L 838 3354 
C 947 3373 1062 3379 1178 3379 
C 1606 3379 1811 3226 1811 2906 
C 1811 2643 1594 2470 1248 2470 
C 1082 2470 947 2515 838 2611 
C 768 2675 730 2733 691 2880 
L 186 2765 
z
" transform="scale(0.015625)"/>
      <path id="HiraginoSans-W4-2e" d="M 442 723 
L 442 0 
L 1165 0 
L 1165 723 
L 442 723 
z
" transform="scale(0.015625)"/>
     </defs>
     <use xlink:href="#STIXGeneral-Regular-211d"/>
     <use xlink:href="#HiraginoSans-W4-2c" transform="translate(74.699982 0)"/>
     <use xlink:href="#HiraginoSans-W4-20" transform="translate(99.699966 0)"/>
     <use xlink:href="#STIXGeneral-Regular-211d" transform="translate(132.999954 0)"/>
     <use xlink:href="#HiraginoSans-W4-b2" transform="translate(207.699936 0)"/>
     <use xlink:href="#HiraginoSans-W4-2c" transform="translate(247.899933 0)"/>
     <use xlink:href="#HiraginoSans-W4-20" transform="translate(272.899918 0)"/>
     <use xlink:href="#STIXGeneral-Regular-211d" transform="translate(306.199905 0)"/>
     <use xlink:href="#HiraginoSans-W4-b3" transform="translate(380.899887 0)"/>
     <use xlink:href="#HiraginoSans-W4-2c" transform="translate(421.099884 0)"/>
     <use xlink:href="#HiraginoSans-W4-20" transform="translate(446.099869 0)"/>
     <use xlink:href="#HiraginoSans-W4-2e" transform="translate(479.399857 0)"/>
     <use xlink:href="#HiraginoSans-W4-2e" transform="translate(504.399841 0)"/>
     <use xlink:href="#HiraginoSans-W4-2e" transform="translate(529.399826 0)"/>
    </g>
   </g>
   <g id="text_14">
    <!-- ℓ², L², C([0,1]) -->
    <g style="fill: #375623" transform="translate(419.516094 310.419875) scale(0.1 -0.1)">
     <defs>
      <path id="HiraginoSans-W4-2113" d="M 3942 1312 
C 3712 864 3558 653 3341 486 
C 3206 384 3072 333 2950 333 
C 2810 333 2701 397 2643 518 
C 2598 602 2579 678 2554 870 
C 3328 1395 3776 1875 4160 2573 
C 4474 3136 4653 3763 4653 4256 
C 4653 4723 4448 5005 4102 5005 
C 3622 5005 3091 4557 2656 3776 
C 2234 3034 2003 2144 2003 1280 
C 2003 1254 2003 1210 2003 1152 
C 1664 986 1440 890 1094 774 
L 1357 269 
C 1600 365 1651 390 2080 589 
C 2150 314 2227 166 2362 45 
C 2502 -90 2707 -160 2944 -160 
C 3251 -160 3501 -58 3757 160 
C 3987 358 4122 538 4378 966 
L 3942 1312 
z
M 2541 1498 
C 2598 2022 2618 2150 2720 2502 
C 2854 2963 3053 3418 3296 3808 
C 3565 4224 3866 4525 4032 4525 
C 4102 4525 4141 4435 4141 4275 
C 4141 3949 3994 3456 3744 2963 
C 3443 2362 3066 1901 2541 1498 
z
" transform="scale(0.015625)"/>
      <path id="HiraginoSans-W4-4c" d="M 3085 0 
C 3475 0 3661 -6 3878 -38 
L 3878 589 
C 3622 557 3437 544 3085 544 
L 1139 544 
L 1139 4128 
C 1139 4512 1152 4685 1190 4934 
L 480 4934 
C 518 4704 531 4493 531 4122 
L 531 768 
C 531 435 518 218 480 -13 
C 717 0 883 0 1216 0 
L 3085 0 
z
" transform="scale(0.015625)"/>
      <path id="HiraginoSans-W4-43" d="M 4544 3654 
C 4390 4064 4269 4269 4026 4506 
C 3661 4858 3174 5030 2560 5030 
C 1946 5030 1453 4845 1075 4480 
C 589 4006 320 3296 320 2458 
C 320 1651 570 947 1018 493 
C 1389 109 1920 -90 2554 -90 
C 3277 -90 3878 173 4237 640 
C 4403 858 4493 1062 4608 1459 
L 3968 1594 
C 3910 1306 3853 1152 3718 966 
C 3475 634 3066 448 2573 448 
C 1581 448 947 1235 947 2477 
C 947 3718 1568 4493 2573 4493 
C 3014 4493 3386 4339 3629 4051 
C 3763 3891 3834 3763 3923 3488 
L 4544 3654 
z
" transform="scale(0.015625)"/>
      <path id="HiraginoSans-W4-28" d="M 2195 -749 
C 1830 -198 1683 90 1542 538 
C 1402 986 1331 1472 1331 1978 
C 1331 2483 1402 2963 1542 3411 
C 1683 3859 1830 4147 2195 4698 
L 1715 5018 
C 1350 4461 1197 4173 1037 3712 
C 838 3155 742 2579 742 1978 
C 742 1376 838 794 1037 243 
C 1197 -218 1350 -512 1715 -1062 
L 2195 -749 
z
" transform="scale(0.015625)"/>
      <path id="HiraginoSans-W4-5b" d="M 2176 -480 
L 1382 -480 
L 1382 4435 
L 2176 4435 
L 2176 4934 
L 813 4934 
L 813 -979 
L 2176 -979 
L 2176 -480 
z
" transform="scale(0.015625)"/>
      <path id="HiraginoSans-W4-30" d="M 2144 -90 
C 2758 -90 3232 141 3565 602 
C 3846 998 4019 1696 4019 2464 
C 4019 3002 3936 3501 3770 3949 
C 3693 4160 3558 4371 3379 4550 
C 3078 4858 2650 5024 2157 5024 
C 1498 5024 986 4742 666 4205 
C 435 3834 288 3142 288 2458 
C 288 1939 371 1434 538 986 
C 614 768 749 563 928 384 
C 1242 70 1651 -90 2144 -90 
z
M 2144 4499 
C 2592 4499 2918 4307 3123 3923 
C 3283 3629 3398 3014 3398 2470 
C 3398 2022 3341 1619 3213 1235 
C 3155 1043 3046 870 2912 730 
C 2726 538 2458 435 2150 435 
C 1734 435 1414 614 1197 973 
C 1024 1261 902 1875 902 2451 
C 902 2906 966 3328 1088 3699 
C 1139 3866 1235 4026 1370 4173 
C 1568 4397 1818 4499 2144 4499 
z
" transform="scale(0.015625)"/>
      <path id="HiraginoSans-W4-31" d="M 1018 4371 
C 1222 4397 1389 4410 1606 4410 
L 1939 4410 
L 1939 755 
C 1939 454 1926 237 1888 0 
L 2598 0 
C 2560 250 2547 448 2547 755 
L 2547 3904 
C 2547 4256 2566 4582 2605 4966 
C 2387 4941 2278 4934 2035 4934 
L 1581 4934 
C 1325 4934 1197 4941 1018 4966 
L 1018 4371 
z
" transform="scale(0.015625)"/>
      <path id="HiraginoSans-W4-5d" d="M 141 -480 
L 141 -979 
L 1504 -979 
L 1504 4934 
L 141 4934 
L 141 4435 
L 934 4435 
L 934 -480 
L 141 -480 
z
" transform="scale(0.015625)"/>
      <path id="HiraginoSans-W4-29" d="M 653 -1062 
C 1018 -512 1171 -218 1331 243 
C 1530 794 1626 1370 1626 1978 
C 1626 2579 1530 3155 1331 3712 
C 1171 4173 1018 4461 653 5018 
L 173 4698 
C 538 4147 685 3859 826 3411 
C 966 2963 1037 2490 1037 1978 
C 1037 1466 966 986 826 538 
C 685 90 538 -198 173 -749 
L 653 -1062 
z
" transform="scale(0.015625)"/>
     </defs>
     <use xlink:href="#HiraginoSans-W4-2113"/>
     <use xlink:href="#HiraginoSans-W4-b2" transform="translate(99.999985 0)"/>
     <use xlink:href="#HiraginoSans-W4-2c" transform="translate(140.199982 0)"/>
     <use xlink:href="#HiraginoSans-W4-20" transform="translate(165.199966 0)"/>
     <use xlink:href="#HiraginoSans-W4-4c" transform="translate(198.499954 0)"/>
     <use xlink:href="#HiraginoSans-W4-b2" transform="translate(259.799942 0)"/>
     <use xlink:href="#HiraginoSans-W4-2c" transform="translate(299.999939 0)"/>
     <use xlink:href="#HiraginoSans-W4-20" transform="translate(324.999924 0)"/>
     <use xlink:href="#HiraginoSans-W4-43" transform="translate(358.299911 0)"/>
     <use xlink:href="#HiraginoSans-W4-28" transform="translate(434.899902 0)"/>
     <use xlink:href="#HiraginoSans-W4-5b" transform="translate(471.899887 0)"/>
     <use xlink:href="#HiraginoSans-W4-30" transform="translate(508.199875 0)"/>
     <use xlink:href="#HiraginoSans-W4-2c" transform="translate(575.499863 0)"/>
     <use xlink:href="#HiraginoSans-W4-31" transform="translate(600.499847 0)"/>
     <use xlink:href="#HiraginoSans-W4-5d" transform="translate(667.799835 0)"/>
     <use xlink:href="#HiraginoSans-W4-29" transform="translate(704.099823 0)"/>
    </g>
   </g>
   <g id="text_15">
    <!-- 有限次元 vs 無限次元の違い -->
    <g transform="translate(234.001016 17.222188) scale(0.13 -0.13)">
     <defs>
      <path id="HiraginoSans-W4-6b21" d="M 3194 4346 
C 3251 4512 3277 4582 3360 4800 
C 3437 5024 3462 5082 3501 5203 
L 2950 5312 
C 2899 4947 2797 4614 2605 4186 
C 2387 3693 2080 3251 1709 2893 
C 1901 2771 2010 2669 2099 2541 
C 2541 3072 2739 3366 2995 3904 
L 5350 3904 
C 5126 3386 4890 3059 4448 2656 
C 4646 2554 4742 2490 4877 2368 
C 5267 2797 5517 3168 5818 3789 
C 5907 3968 5920 3987 5971 4083 
L 5683 4384 
C 5517 4358 5338 4346 5050 4346 
L 3194 4346 
z
M 422 4659 
C 915 4288 1139 4070 1536 3597 
L 1920 3968 
C 1530 4390 1280 4614 806 4986 
L 422 4659 
z
M 1914 2336 
C 1517 1888 1299 1696 813 1331 
C 538 1120 403 1037 250 973 
L 589 467 
C 646 525 685 557 806 653 
C 1325 1056 1824 1510 2189 1914 
L 1914 2336 
z
M 3366 3558 
C 3386 3456 3392 3379 3392 3283 
C 3392 2355 3174 1626 2714 1024 
C 2355 557 1926 243 1267 -13 
C 1402 -154 1491 -275 1581 -442 
C 2246 -141 2701 205 3066 685 
C 3354 1069 3558 1536 3661 2074 
C 3795 1485 4045 1005 4448 570 
C 4813 173 5210 -115 5811 -429 
C 5901 -243 5990 -109 6125 51 
C 5408 339 4909 698 4525 1203 
C 4090 1773 3891 2419 3891 3251 
C 3891 3386 3898 3469 3917 3558 
L 3366 3558 
z
" transform="scale(0.015625)"/>
      <path id="HiraginoSans-W4-5143" d="M 2022 2938 
C 2003 1997 1926 1542 1715 1120 
C 1466 634 1062 294 307 -58 
C 454 -179 563 -314 678 -506 
C 986 -333 1126 -250 1286 -134 
C 1645 122 1907 410 2106 762 
C 2400 1299 2515 1875 2541 2938 
L 3642 2938 
L 3642 218 
C 3642 0 3674 -102 3776 -179 
C 3917 -282 4179 -326 4659 -326 
C 5926 -326 5971 -282 6106 1126 
C 5920 1165 5798 1210 5613 1312 
C 5587 819 5549 493 5498 358 
C 5434 192 5299 154 4736 154 
C 4243 154 4154 186 4154 365 
L 4154 2938 
L 5344 2938 
C 5619 2938 5824 2925 6022 2899 
L 6022 3450 
C 5824 3424 5638 3411 5344 3411 
L 1043 3411 
C 755 3411 570 3424 371 3450 
L 371 2899 
C 563 2925 768 2938 1043 2938 
L 2022 2938 
z
M 5434 4998 
C 5280 4973 5101 4960 4781 4960 
L 1645 4960 
C 1338 4960 1146 4973 998 4998 
L 998 4435 
C 1158 4461 1344 4474 1638 4474 
L 4794 4474 
C 5075 4474 5274 4461 5434 4435 
L 5434 4998 
z
" transform="scale(0.015625)"/>
      <path id="HiraginoSans-W4-76" d="M 51 3520 
C 198 3213 262 3072 365 2822 
L 1280 589 
C 1408 275 1446 160 1485 0 
L 2112 0 
C 2150 186 2170 237 2310 589 
L 3232 2822 
C 3411 3270 3456 3366 3539 3520 
L 2829 3520 
C 2803 3341 2758 3200 2643 2899 
L 1939 1024 
C 1888 883 1843 755 1798 602 
C 1754 736 1690 934 1651 1024 
L 947 2899 
C 851 3142 787 3360 762 3520 
L 51 3520 
z
" transform="scale(0.015625)"/>
      <path id="HiraginoSans-W4-73" d="M 262 973 
C 326 704 378 589 480 448 
C 730 109 1184 -70 1786 -70 
C 2707 -70 3270 339 3270 1011 
C 3270 1293 3136 1555 2912 1722 
C 2720 1862 2483 1946 1894 2074 
C 1510 2157 1357 2208 1210 2285 
C 1075 2355 998 2483 998 2624 
C 998 2944 1312 3162 1760 3162 
C 2042 3162 2259 3078 2400 2925 
C 2483 2835 2515 2758 2554 2598 
L 3155 2688 
C 3066 2982 2982 3136 2810 3283 
C 2573 3494 2208 3610 1754 3610 
C 1299 3610 941 3494 698 3258 
C 518 3091 416 2861 416 2618 
C 416 2310 557 2054 819 1888 
C 1043 1747 1261 1677 1760 1574 
C 2246 1466 2349 1440 2490 1350 
C 2618 1274 2682 1139 2682 973 
C 2682 621 2342 397 1818 397 
C 1504 397 1267 474 1107 614 
C 986 730 934 832 890 1069 
L 262 973 
z
" transform="scale(0.015625)"/>
      <path id="HiraginoSans-W4-7121" d="M 1299 3213 
L 986 3213 
C 698 3213 538 3219 358 3251 
L 358 2726 
C 557 2758 717 2765 986 2765 
L 1299 2765 
L 1299 1696 
L 1133 1696 
C 858 1696 691 1709 512 1734 
L 512 1222 
C 691 1248 858 1261 1107 1261 
L 5331 1261 
C 5594 1261 5766 1248 5939 1222 
L 5939 1734 
C 5779 1709 5613 1696 5325 1696 
L 5133 1696 
L 5133 2765 
L 5453 2765 
C 5728 2765 5888 2758 6074 2726 
L 6074 3251 
C 5894 3219 5734 3213 5453 3213 
L 5133 3213 
L 5133 4275 
C 5491 4269 5587 4262 5818 4243 
L 5818 4749 
C 5632 4723 5414 4710 5011 4710 
L 1773 4710 
C 1869 4851 1946 4966 2035 5133 
C 2138 5312 2138 5312 2182 5382 
L 1658 5491 
C 1638 5389 1594 5286 1536 5165 
C 1274 4640 934 4262 307 3789 
C 480 3680 576 3590 653 3462 
C 966 3731 1101 3866 1299 4096 
L 1299 3213 
z
M 1741 4275 
L 2426 4275 
L 2426 3213 
L 1741 3213 
L 1741 4275 
z
M 1741 2765 
L 2426 2765 
L 2426 1696 
L 1741 1696 
L 1741 2765 
z
M 2854 1696 
L 2854 2765 
L 3546 2765 
L 3546 1696 
L 2854 1696 
z
M 2854 3213 
L 2854 4275 
L 3546 4275 
L 3546 3213 
L 2854 3213 
z
M 3974 1696 
L 3974 2765 
L 4691 2765 
L 4691 1696 
L 3974 1696 
z
M 3974 3213 
L 3974 4275 
L 4691 4275 
L 4691 3213 
L 3974 3213 
z
M 5997 -122 
C 5747 346 5549 646 5178 1094 
L 4787 890 
C 5158 416 5331 134 5562 -390 
L 5997 -122 
z
M 4230 -275 
C 4090 358 4032 563 3846 1018 
L 3424 909 
C 3590 429 3667 134 3750 -397 
L 4230 -275 
z
M 2765 -352 
C 2726 179 2688 467 2579 992 
L 2144 928 
C 2227 506 2272 38 2272 -416 
L 2765 -352 
z
M 787 -429 
C 1171 -13 1357 282 1613 877 
L 1203 1094 
C 986 550 794 269 390 -102 
L 787 -429 
z
" transform="scale(0.015625)"/>
      <path id="HiraginoSans-W4-306e" d="M 3053 422 
C 3200 243 3245 160 3328 -96 
C 3821 6 4090 90 4397 237 
C 5293 666 5798 1459 5798 2451 
C 5798 3802 4832 4698 3379 4698 
C 2509 4698 1792 4403 1274 3834 
C 832 3347 589 2707 589 2042 
C 589 1107 1062 422 1709 422 
C 2189 422 2573 806 2938 1645 
C 3238 2323 3469 3264 3578 4205 
C 3891 4186 4070 4141 4294 4032 
C 4902 3738 5242 3174 5242 2477 
C 5242 1734 4870 1107 4230 768 
C 3917 602 3610 512 3053 422 
z
M 3027 4192 
C 2944 3398 2714 2483 2458 1888 
C 2195 1286 1952 992 1702 992 
C 1370 992 1114 1453 1114 2035 
C 1114 2797 1491 3501 2112 3891 
C 2394 4077 2656 4160 3027 4192 
z
" transform="scale(0.015625)"/>
      <path id="HiraginoSans-W4-9055" d="M 2419 4166 
C 2131 4166 2010 4173 1856 4198 
L 1856 3757 
C 2048 3782 2176 3789 2464 3789 
L 5472 3789 
C 5722 3789 5862 3782 6061 3757 
L 6061 4198 
C 5882 4173 5754 4166 5517 4166 
L 5331 4166 
L 5331 4384 
C 5331 4646 5338 4781 5357 4966 
C 5178 4947 5037 4941 4717 4941 
L 3802 4941 
C 3827 5011 3840 5037 3872 5107 
C 3904 5197 3942 5274 3968 5331 
L 3475 5408 
C 3437 5242 3411 5165 3315 4941 
L 2893 4941 
C 2624 4941 2490 4947 2304 4979 
L 2304 4544 
C 2477 4563 2630 4570 2848 4570 
L 3142 4570 
C 3053 4397 3014 4339 2912 4166 
L 2419 4166 
z
M 3411 4166 
C 3526 4365 3546 4397 3629 4570 
L 4877 4570 
L 4877 4166 
L 3411 4166 
z
M 4141 2381 
L 4141 2048 
L 2688 2048 
C 2394 2048 2278 2054 2131 2074 
L 2131 1664 
C 2304 1677 2394 1683 2630 1683 
L 2662 1683 
L 2662 1229 
L 2432 1229 
C 2189 1229 2054 1235 1933 1254 
L 1933 826 
C 2093 845 2227 851 2483 851 
L 4141 851 
C 4134 640 4128 499 4102 326 
L 4621 326 
C 4595 474 4589 570 4582 851 
L 5421 851 
C 5696 851 5843 845 6035 826 
L 6035 1261 
C 5862 1235 5702 1229 5421 1229 
L 4582 1229 
L 4582 1683 
L 5248 1683 
C 5510 1683 5658 1677 5818 1658 
L 5818 2074 
C 5658 2054 5549 2048 5242 2048 
L 4582 2048 
L 4582 2381 
L 5133 2381 
C 5280 2381 5421 2374 5600 2368 
C 5581 2579 5581 2618 5581 2797 
L 5581 3072 
C 5581 3264 5581 3290 5600 3494 
C 5472 3482 5357 3475 5114 3475 
L 2880 3475 
C 2637 3475 2528 3482 2394 3494 
C 2413 3386 2419 3251 2419 3066 
L 2419 2810 
C 2419 2586 2413 2496 2400 2368 
C 2534 2374 2714 2381 2880 2381 
L 4141 2381 
z
M 3110 1683 
L 4141 1683 
L 4141 1229 
L 3110 1229 
L 3110 1683 
z
M 2861 3123 
L 5126 3123 
L 5126 2726 
L 2861 2726 
L 2861 3123 
z
M 371 4890 
C 806 4493 998 4269 1389 3725 
L 1773 4077 
C 1414 4544 1203 4774 730 5210 
L 371 4890 
z
M 333 2330 
C 486 2355 595 2362 787 2362 
L 1190 2362 
L 1190 864 
C 845 525 480 256 198 134 
L 442 -371 
C 563 -269 602 -237 627 -218 
C 1043 109 1094 147 1414 467 
C 1613 179 1811 6 2074 -115 
C 2432 -288 2816 -333 3981 -333 
C 4640 -333 5440 -314 6080 -288 
C 6131 -26 6163 77 6240 243 
C 5530 154 4806 122 3699 122 
C 2637 122 2298 186 1965 448 
C 1805 570 1747 646 1664 851 
L 1664 2144 
C 1664 2483 1670 2637 1690 2822 
C 1530 2803 1414 2797 1203 2797 
L 832 2797 
C 595 2797 486 2803 333 2829 
L 333 2330 
z
" transform="scale(0.015625)"/>
     </defs>
     <use xlink:href="#HiraginoSans-W4-6709"/>
     <use xlink:href="#HiraginoSans-W4-9650" transform="translate(99.999985 0)"/>
     <use xlink:href="#HiraginoSans-W4-6b21" transform="translate(199.999969 0)"/>
     <use xlink:href="#HiraginoSans-W4-5143" transform="translate(299.999954 0)"/>
     <use xlink:href="#HiraginoSans-W4-20" transform="translate(399.999939 0)"/>
     <use xlink:href="#HiraginoSans-W4-76" transform="translate(433.299927 0)"/>
     <use xlink:href="#HiraginoSans-W4-73" transform="translate(489.399918 0)"/>
     <use xlink:href="#HiraginoSans-W4-20" transform="translate(544.699905 0)"/>
     <use xlink:href="#HiraginoSans-W4-7121" transform="translate(577.999893 0)"/>
     <use xlink:href="#HiraginoSans-W4-9650" transform="translate(677.999878 0)"/>
     <use xlink:href="#HiraginoSans-W4-6b21" transform="translate(777.999863 0)"/>
     <use xlink:href="#HiraginoSans-W4-5143" transform="translate(877.999847 0)"/>
     <use xlink:href="#HiraginoSans-W4-306e" transform="translate(977.999832 0)"/>
     <use xlink:href="#HiraginoSans-W4-9055" transform="translate(1077.999817 0)"/>
     <use xlink:href="#HiraginoSans-W4-3044" transform="translate(1177.999802 0)"/>
    </g>
   </g>
  </g>
 </g>
 <defs>
  <clipPath id="pd8e4562000">
   <rect x="10.17" y="27.222188" width="613.8" height="332.64"/>
  </clipPath>
 </defs>
</svg>
