<?xml version="1.0" encoding="utf-8" standalone="no"?>
<!DOCTYPE svg PUBLIC "-//W3C//DTD SVG 1.1//EN"
  "http://www.w3.org/Graphics/SVG/1.1/DTD/svg11.dtd">
<svg xmlns:xlink="http://www.w3.org/1999/xlink" width="460.8pt" height="478.892812pt" viewBox="0 0 460.8 478.892812" xmlns="http://www.w3.org/2000/svg" version="1.1">
 <metadata>
  <rdf:RDF xmlns:dc="http://purl.org/dc/elements/1.1/" xmlns:cc="http://creativecommons.org/ns#" xmlns:rdf="http://www.w3.org/1999/02/22-rdf-syntax-ns#">
   <cc:Work>
    <dc:type rdf:resource="http://purl.org/dc/dcmitype/StillImage"/>
    <dc:date>2026-04-02T01:10:16.066231</dc:date>
    <dc:format>image/svg+xml</dc:format>
    <dc:creator>
     <cc:Agent>
      <dc:title>Matplotlib v3.10.8, https://matplotlib.org/</dc:title>
     </cc:Agent>
    </dc:creator>
   </cc:Work>
  </rdf:RDF>
 </metadata>
 <defs>
  <style type="text/css">*{stroke-linejoin: round; stroke-linecap: butt}</style>
 </defs>
 <g id="figure_1">
  <g id="patch_1">
   <path d="M 0 478.892812 
L 460.8 478.892812 
L 460.8 0 
L 0 0 
z
" style="fill: #ffffff"/>
  </g>
  <g id="axes_1">
   <g id="patch_2">
    <path d="M 87.552 139.052812 
L 373.248 139.052812 
Q 379.944 139.052812 379.944 132.400012 
L 379.944 57.001612 
Q 379.944 50.348812 373.248 50.348812 
L 87.552 50.348812 
Q 80.856 50.348812 80.856 57.001612 
L 80.856 132.400012 
Q 80.856 139.052812 87.552 139.052812 
z
" clip-path="url(#p05cd57aa96)" style="fill: #ffcccc; stroke: #c00000; stroke-width: 2; stroke-linejoin: miter"/>
   </g>
   <g id="patch_3">
    <path d="M 87.552 241.062412 
L 373.248 241.062412 
Q 379.944 241.062412 379.944 234.409612 
L 379.944 159.011212 
Q 379.944 152.358412 373.248 152.358412 
L 87.552 152.358412 
Q 80.856 152.358412 80.856 159.011212 
L 80.856 234.409612 
Q 80.856 241.062412 87.552 241.062412 
z
" clip-path="url(#p05cd57aa96)" style="fill: #deeaf1; stroke: #2e75b6; stroke-width: 2; stroke-linejoin: miter"/>
   </g>
   <g id="patch_4">
    <path d="M 87.552 343.072012 
L 373.248 343.072012 
Q 379.944 343.072012 379.944 336.419212 
L 379.944 261.020812 
Q 379.944 254.368012 373.248 254.368012 
L 87.552 254.368012 
Q 80.856 254.368012 80.856 261.020812 
L 80.856 336.419212 
Q 80.856 343.072012 87.552 343.072012 
z
" clip-path="url(#p05cd57aa96)" style="fill: #e2efda; stroke: #538135; stroke-width: 2; stroke-linejoin: miter"/>
   </g>
   <g id="patch_5">
    <path d="M 87.552 445.081612 
L 373.248 445.081612 
Q 379.944 445.081612 379.944 438.428812 
L 379.944 363.030412 
Q 379.944 356.377612 373.248 356.377612 
L 87.552 356.377612 
Q 80.856 356.377612 80.856 363.030412 
L 80.856 438.428812 
Q 80.856 445.081612 87.552 445.081612 
z
" clip-path="url(#p05cd57aa96)" style="fill: #ead1f5; stroke: #7030a0; stroke-width: 2; stroke-linejoin: miter"/>
   </g>
   <g id="text_1">
    <!-- MetricSpace -->
    <g style="fill: #c00000" transform="translate(191.730703 86.923125) scale(0.11 -0.11)">
     <defs>
      <path id="HiraginoSans-W7-4d" d="M 3686 -134 
C 3718 70 3834 429 3962 762 
L 4768 2778 
C 4806 2874 4915 3219 4947 3328 
C 5018 3610 5018 3610 5050 3731 
C 5011 3123 4998 2867 4998 2714 
L 4998 832 
C 4998 384 4986 154 4947 -134 
L 6016 -134 
C 5978 109 5965 352 5965 832 
L 5965 4096 
C 5965 4525 5978 4762 6016 5069 
L 4595 5069 
C 4557 4826 4486 4570 4358 4243 
L 3226 1261 
L 2086 4243 
C 1965 4563 1888 4832 1850 5069 
L 429 5069 
C 467 4800 480 4499 480 4096 
L 480 832 
C 480 397 467 134 429 -134 
L 1498 -134 
C 1459 122 1446 384 1446 832 
L 1446 2694 
C 1446 2854 1434 3110 1395 3731 
C 1530 3251 1619 2957 1696 2758 
L 2477 768 
C 2630 384 2720 83 2752 -134 
L 3686 -134 
z
" transform="scale(0.015625)"/>
      <path id="HiraginoSans-W7-65" d="M 4032 1485 
C 4019 1606 4019 1613 4019 1638 
C 3994 2118 3962 2323 3846 2637 
C 3571 3373 2963 3782 2125 3782 
C 973 3782 211 2976 211 1760 
C 211 1139 410 595 774 237 
C 1107 -96 1587 -269 2163 -269 
C 2746 -269 3232 -90 3571 250 
C 3744 416 3840 563 3981 870 
L 3053 1146 
C 2918 755 2611 544 2163 544 
C 1856 544 1606 653 1434 864 
C 1306 1024 1248 1184 1216 1485 
L 4032 1485 
z
M 1235 2227 
C 1357 2726 1664 2982 2138 2982 
C 2432 2982 2675 2874 2829 2675 
C 2925 2547 2970 2432 3008 2227 
L 1235 2227 
z
" transform="scale(0.015625)"/>
      <path id="HiraginoSans-W7-74" d="M 813 4646 
C 851 4352 864 4141 864 3821 
L 864 3654 
L 627 3654 
C 371 3654 237 3661 51 3693 
L 51 2790 
C 250 2822 378 2829 614 2829 
L 864 2829 
L 864 768 
C 864 58 1197 -224 2022 -224 
C 2355 -224 2586 -186 2842 -96 
L 2739 742 
C 2573 646 2445 614 2272 614 
C 1971 614 1862 723 1862 1024 
L 1862 2829 
L 2144 2829 
C 2419 2829 2541 2822 2752 2790 
L 2752 3686 
C 2554 3661 2406 3654 2112 3654 
L 1862 3654 
L 1862 3821 
C 1862 4122 1882 4403 1914 4646 
L 813 4646 
z
" transform="scale(0.015625)"/>
      <path id="HiraginoSans-W7-72" d="M 3277 3654 
C 3002 3712 2867 3725 2675 3725 
C 2106 3725 1696 3533 1427 3130 
L 1427 3654 
L 371 3654 
C 410 3386 422 3187 422 2758 
L 422 762 
C 422 384 410 186 371 -134 
L 1472 -134 
C 1440 141 1427 378 1427 762 
L 1427 1869 
C 1459 2170 1517 2317 1651 2477 
C 1830 2682 2080 2778 2419 2778 
C 2624 2778 2746 2758 3014 2669 
L 3277 3654 
z
" transform="scale(0.015625)"/>
      <path id="HiraginoSans-W7-69" d="M 384 5069 
L 384 4186 
L 1498 4186 
L 1498 5069 
L 384 5069 
z
M 371 3654 
C 410 3392 422 3149 422 2758 
L 422 762 
C 422 384 410 186 371 -134 
L 1504 -134 
C 1466 134 1453 390 1453 768 
L 1453 2752 
C 1453 3174 1466 3411 1504 3654 
L 371 3654 
z
" transform="scale(0.015625)"/>
      <path id="HiraginoSans-W7-63" d="M 3917 2541 
C 3840 2765 3789 2886 3693 3034 
C 3373 3526 2835 3789 2150 3789 
C 1587 3789 1114 3610 774 3270 
C 416 2912 211 2368 211 1760 
C 211 1152 410 602 762 243 
C 1088 -90 1581 -269 2150 -269 
C 2835 -269 3360 -32 3686 429 
C 3808 602 3878 755 3962 1011 
L 2989 1184 
C 2950 1030 2925 954 2861 870 
C 2720 659 2477 544 2189 544 
C 1606 544 1242 1018 1242 1773 
C 1242 2528 1587 2982 2170 2982 
C 2426 2982 2630 2893 2778 2707 
C 2854 2611 2893 2528 2950 2330 
L 3917 2541 
z
" transform="scale(0.015625)"/>
      <path id="HiraginoSans-W7-53" d="M 269 1414 
C 339 915 429 672 640 410 
C 979 -19 1600 -250 2426 -250 
C 3706 -250 4435 346 4435 1389 
C 4435 1696 4371 1952 4243 2163 
C 4096 2406 3859 2605 3597 2720 
C 3341 2835 3034 2918 2336 3066 
C 2003 3142 1875 3187 1734 3277 
C 1594 3379 1517 3520 1517 3693 
C 1517 4058 1850 4301 2349 4301 
C 2656 4301 2912 4205 3059 4032 
C 3149 3917 3194 3821 3226 3622 
L 4352 3744 
C 4269 4122 4186 4307 4026 4525 
C 3693 4960 3117 5190 2355 5190 
C 1171 5190 422 4595 422 3654 
C 422 3181 614 2790 973 2522 
C 1216 2349 1427 2266 1971 2138 
C 2669 1978 2867 1914 3066 1786 
C 3232 1683 3315 1523 3315 1325 
C 3315 915 2963 659 2406 659 
C 2029 659 1728 781 1555 1005 
C 1446 1139 1408 1261 1382 1523 
L 269 1414 
z
" transform="scale(0.015625)"/>
      <path id="HiraginoSans-W7-70" d="M 1466 -1338 
C 1434 -1062 1421 -832 1421 -410 
L 1421 6 
C 1421 102 1414 134 1408 179 
C 1408 275 1408 275 1402 346 
C 1562 179 1664 102 1830 19 
C 2080 -96 2400 -166 2714 -166 
C 3226 -166 3667 0 3981 314 
C 4333 659 4512 1171 4512 1818 
C 4512 2458 4339 2950 4000 3283 
C 3686 3597 3258 3757 2720 3757 
C 2176 3757 1779 3603 1402 3245 
C 1408 3309 1414 3379 1414 3437 
L 1414 3654 
L 371 3654 
C 410 3360 422 3123 422 2726 
L 422 -416 
C 422 -787 403 -1050 371 -1338 
L 1466 -1338 
z
M 2502 646 
C 1882 646 1440 1126 1440 1798 
C 1440 2451 1888 2938 2502 2938 
C 3110 2938 3482 2515 3482 1818 
C 3482 1088 3110 646 2502 646 
z
" transform="scale(0.015625)"/>
      <path id="HiraginoSans-W7-61" d="M 2842 -134 
L 3878 -134 
C 3846 154 3834 346 3834 717 
L 3834 2451 
C 3834 2912 3750 3162 3533 3366 
C 3251 3635 2822 3763 2195 3763 
C 1594 3763 1133 3642 813 3392 
C 589 3219 467 3046 333 2675 
L 1344 2509 
C 1414 2688 1472 2778 1587 2861 
C 1709 2950 1939 3008 2189 3008 
C 2624 3008 2842 2854 2842 2541 
L 2842 2285 
C 2029 2259 1837 2240 1466 2163 
C 672 1984 237 1549 237 928 
C 237 589 365 294 602 96 
C 832 -109 1158 -205 1613 -205 
C 2131 -205 2458 -96 2842 198 
L 2842 -134 
z
M 2842 1357 
C 2842 1133 2765 973 2579 813 
C 2381 646 2067 538 1792 538 
C 1446 538 1254 685 1254 954 
C 1254 1197 1408 1370 1702 1459 
C 1990 1549 2259 1581 2842 1600 
L 2842 1357 
z
" transform="scale(0.015625)"/>
     </defs>
     <use xlink:href="#HiraginoSans-W7-4d"/>
     <use xlink:href="#HiraginoSans-W7-65" transform="translate(100.599991 0)"/>
     <use xlink:href="#HiraginoSans-W7-74" transform="translate(166.699982 0)"/>
     <use xlink:href="#HiraginoSans-W7-72" transform="translate(212.199966 0)"/>
     <use xlink:href="#HiraginoSans-W7-69" transform="translate(264.299957 0)"/>
     <use xlink:href="#HiraginoSans-W7-63" transform="translate(293.499954 0)"/>
     <use xlink:href="#HiraginoSans-W7-53" transform="translate(358.299942 0)"/>
     <use xlink:href="#HiraginoSans-W7-70" transform="translate(432.09993 0)"/>
     <use xlink:href="#HiraginoSans-W7-61" transform="translate(505.799911 0)"/>
     <use xlink:href="#HiraginoSans-W7-63" transform="translate(572.199905 0)"/>
     <use xlink:href="#HiraginoSans-W7-65" transform="translate(636.999893 0)"/>
    </g>
   </g>
   <g id="text_2">
    <!-- d(x,y)=0 ↔ x=y（分離公理） -->
    <g style="fill: #c00000" transform="translate(169.572656 110.873053) scale(0.09 -0.09)">
     <defs>
      <path id="HiraginoSans-W4-64" d="M 3187 0 
L 3802 0 
C 3770 250 3757 442 3757 774 
L 3757 4173 
C 3757 4467 3770 4666 3802 4934 
L 3142 4934 
C 3174 4691 3187 4486 3187 4173 
L 3187 3398 
C 3187 3296 3187 3194 3194 3149 
C 3200 3040 3200 3040 3206 2970 
C 2918 3379 2470 3597 1901 3597 
C 909 3597 282 2886 282 1766 
C 282 1171 461 672 794 339 
C 1069 70 1446 -64 1914 -64 
C 2483 -64 2880 128 3206 563 
C 3200 480 3187 365 3187 288 
L 3187 0 
z
M 1971 3098 
C 2310 3098 2618 2976 2842 2752 
C 3059 2541 3181 2189 3181 1786 
C 3181 966 2707 429 1978 429 
C 1709 429 1459 512 1274 672 
C 1024 890 883 1280 883 1786 
C 883 2598 1293 3098 1971 3098 
z
" transform="scale(0.015625)"/>
      <path id="HiraginoSans-W4-28" d="M 2195 -749 
C 1830 -198 1683 90 1542 538 
C 1402 986 1331 1472 1331 1978 
C 1331 2483 1402 2963 1542 3411 
C 1683 3859 1830 4147 2195 4698 
L 1715 5018 
C 1350 4461 1197 4173 1037 3712 
C 838 3155 742 2579 742 1978 
C 742 1376 838 794 1037 243 
C 1197 -218 1350 -512 1715 -1062 
L 2195 -749 
z
" transform="scale(0.015625)"/>
      <path id="HiraginoSans-W4-78" d="M 3469 0 
C 3238 294 3078 512 3008 614 
L 2138 1824 
L 2963 2982 
C 3021 3072 3168 3270 3206 3322 
C 3315 3462 3315 3462 3354 3520 
L 2630 3520 
C 2566 3386 2483 3238 2368 3072 
L 1792 2227 
L 1203 3072 
C 1088 3238 1024 3360 947 3520 
L 211 3520 
C 474 3174 557 3072 608 3002 
L 1440 1830 
L 531 563 
C 422 410 237 160 109 0 
L 858 0 
C 966 205 1018 294 1114 435 
L 1786 1421 
L 2426 486 
C 2566 288 2624 192 2720 0 
L 3469 0 
z
" transform="scale(0.015625)"/>
      <path id="HiraginoSans-W4-2c" d="M 1165 723 
L 435 723 
L 435 0 
L 858 0 
C 851 -403 800 -499 493 -614 
L 685 -864 
C 1062 -672 1165 -493 1165 0 
L 1165 723 
z
" transform="scale(0.015625)"/>
      <path id="HiraginoSans-W4-79" d="M 1600 154 
L 1325 -486 
C 1229 -710 1069 -832 858 -832 
C 730 -832 621 -800 442 -717 
L 301 -1274 
C 550 -1325 710 -1344 864 -1344 
C 1357 -1344 1664 -1146 1843 -717 
L 3283 2758 
C 3462 3181 3571 3437 3603 3520 
L 2912 3520 
C 2880 3334 2829 3168 2694 2816 
L 1901 768 
L 1011 2822 
C 902 3072 819 3341 787 3520 
L 64 3520 
C 134 3386 134 3386 422 2758 
L 1600 154 
z
" transform="scale(0.015625)"/>
      <path id="HiraginoSans-W4-29" d="M 653 -1062 
C 1018 -512 1171 -218 1331 243 
C 1530 794 1626 1370 1626 1978 
C 1626 2579 1530 3155 1331 3712 
C 1171 4173 1018 4461 653 5018 
L 173 4698 
C 538 4147 685 3859 826 3411 
C 966 2963 1037 2490 1037 1978 
C 1037 1466 966 986 826 538 
C 685 90 538 -198 173 -749 
L 653 -1062 
z
" transform="scale(0.015625)"/>
      <path id="HiraginoSans-W4-3d" d="M 333 2720 
L 333 2195 
L 3923 2195 
L 3923 2720 
L 333 2720 
z
M 333 1376 
L 333 851 
L 3923 851 
L 3923 1376 
L 333 1376 
z
" transform="scale(0.015625)"/>
      <path id="HiraginoSans-W4-30" d="M 2144 -90 
C 2758 -90 3232 141 3565 602 
C 3846 998 4019 1696 4019 2464 
C 4019 3002 3936 3501 3770 3949 
C 3693 4160 3558 4371 3379 4550 
C 3078 4858 2650 5024 2157 5024 
C 1498 5024 986 4742 666 4205 
C 435 3834 288 3142 288 2458 
C 288 1939 371 1434 538 986 
C 614 768 749 563 928 384 
C 1242 70 1651 -90 2144 -90 
z
M 2144 4499 
C 2592 4499 2918 4307 3123 3923 
C 3283 3629 3398 3014 3398 2470 
C 3398 2022 3341 1619 3213 1235 
C 3155 1043 3046 870 2912 730 
C 2726 538 2458 435 2150 435 
C 1734 435 1414 614 1197 973 
C 1024 1261 902 1875 902 2451 
C 902 2906 966 3328 1088 3699 
C 1139 3866 1235 4026 1370 4173 
C 1568 4397 1818 4499 2144 4499 
z
" transform="scale(0.015625)"/>
      <path id="HiraginoSans-W4-20" transform="scale(0.015625)"/>
      <path id="HiraginoSans-W4-2194" d="M 4787 1536 
L 4077 774 
L 4346 557 
C 4845 1056 5024 1222 5702 1760 
C 4998 2323 4800 2502 4346 2970 
L 4077 2746 
L 4787 1984 
L 1171 1984 
L 1875 2746 
L 1606 2970 
C 1158 2502 960 2317 256 1760 
C 934 1222 1107 1056 1606 557 
L 1875 774 
L 1171 1536 
L 4787 1536 
z
" transform="scale(0.015625)"/>
      <path id="HiraginoSans-W4-ff08" d="M 6170 -531 
C 5690 -26 5491 256 5280 698 
C 5024 1235 4902 1805 4902 2432 
C 4902 3059 5024 3629 5280 4166 
C 5491 4608 5690 4890 6170 5395 
L 5517 5395 
C 5139 4947 4966 4685 4774 4275 
C 4499 3686 4365 3085 4365 2432 
C 4365 1779 4499 1178 4774 589 
C 4966 179 5139 -83 5517 -531 
L 6170 -531 
z
" transform="scale(0.015625)"/>
      <path id="HiraginoSans-W4-5206" d="M 2458 2598 
C 2413 2054 2323 1722 2112 1331 
C 1811 762 1274 301 518 -32 
C 685 -198 755 -294 851 -467 
C 2003 115 2630 870 2880 1952 
C 2925 2163 2944 2272 2970 2598 
L 4390 2598 
C 4390 1715 4333 954 4243 538 
C 4173 205 4128 166 3853 166 
C 3622 166 3328 198 2982 269 
C 3059 51 3085 -70 3110 -269 
C 3488 -301 3706 -314 3898 -314 
C 4326 -314 4499 -243 4614 -26 
C 4781 288 4890 1299 4902 2618 
C 4902 2925 4902 2963 4922 3085 
C 4736 3059 4544 3053 4250 3053 
L 2067 3053 
C 1824 3053 1619 3066 1440 3085 
L 1440 2560 
C 1619 2586 1824 2598 2067 2598 
L 2458 2598 
z
M 2189 5299 
C 2157 5114 2080 4922 1926 4634 
C 1517 3885 973 3296 192 2771 
C 358 2624 467 2496 557 2342 
C 1446 3002 2099 3795 2573 4774 
C 2656 4954 2694 5018 2752 5101 
L 2189 5299 
z
M 3629 5082 
C 3667 5018 3718 4922 3770 4819 
C 4294 3763 4909 3034 5882 2317 
C 6003 2528 6099 2656 6234 2790 
C 5389 3341 4838 3923 4384 4742 
C 4243 4986 4186 5114 4134 5286 
L 3629 5082 
z
" transform="scale(0.015625)"/>
      <path id="HiraginoSans-W4-96e2" d="M 5178 2630 
L 5376 2630 
C 5632 2630 5818 2618 5946 2598 
L 5946 3072 
C 5811 3046 5683 3040 5376 3040 
L 5178 3040 
L 5178 3917 
L 5434 3917 
C 5766 3917 5952 3910 6086 3891 
L 6086 4378 
C 5933 4346 5779 4339 5434 4339 
L 5197 4339 
C 5312 4570 5421 4813 5523 5062 
C 5536 5101 5555 5152 5587 5222 
L 5126 5357 
C 5030 4960 4922 4672 4755 4339 
L 4070 4339 
C 4147 4525 4198 4646 4275 4858 
C 4390 5184 4390 5184 4435 5293 
L 3949 5421 
C 3821 4666 3456 3821 3027 3302 
L 3027 3846 
C 3027 4019 3034 4134 3053 4262 
L 2605 4262 
C 2624 4141 2630 4006 2630 3846 
L 2630 2861 
L 1043 2861 
L 1043 3846 
C 1043 4006 1050 4122 1069 4269 
L 608 4269 
C 634 4096 640 3955 640 3802 
L 640 2944 
C 640 2726 634 2598 614 2496 
C 819 2509 941 2509 1152 2509 
L 1651 2509 
C 1619 2323 1613 2298 1581 2131 
L 1056 2131 
C 819 2131 653 2138 461 2157 
C 480 1958 486 1779 486 1498 
L 486 218 
C 486 -83 474 -282 454 -461 
L 954 -461 
C 934 -320 928 -173 928 211 
L 928 1760 
L 1498 1760 
C 1408 1376 1344 1146 1242 845 
C 1146 838 1082 832 1037 832 
C 1024 832 998 832 960 838 
L 1050 410 
C 1114 429 1178 442 1267 454 
C 1677 518 1990 582 2304 659 
C 2342 538 2355 486 2400 326 
L 2752 486 
C 2592 954 2509 1158 2317 1517 
L 1990 1389 
C 2093 1197 2118 1146 2189 986 
C 2074 960 1946 934 1645 890 
C 1728 1146 1760 1248 1901 1760 
L 2778 1760 
L 2778 154 
C 2778 19 2739 -6 2554 -6 
C 2368 -6 2208 6 1939 51 
C 2003 -122 2022 -224 2035 -390 
C 2285 -410 2355 -410 2470 -410 
C 3066 -410 3206 -314 3206 96 
L 3206 1587 
C 3206 1818 3213 1984 3232 2157 
C 3066 2138 2925 2131 2624 2131 
L 1997 2131 
C 2022 2266 2029 2278 2074 2509 
L 2554 2509 
C 2707 2509 2829 2509 3040 2496 
C 3034 2630 3027 2752 3027 2899 
L 3027 3264 
C 3123 3181 3200 3085 3296 2938 
C 3430 3123 3482 3200 3616 3443 
C 3597 3174 3597 3142 3597 2912 
L 3597 243 
C 3597 -102 3584 -326 3558 -474 
L 4045 -474 
L 4045 -166 
L 5504 -166 
C 5754 -166 5990 -179 6138 -205 
L 6138 288 
C 5997 262 5824 256 5536 256 
L 5178 256 
L 5178 1331 
L 5376 1331 
C 5619 1331 5811 1318 5946 1293 
L 5946 1779 
C 5798 1754 5645 1741 5376 1741 
L 5178 1741 
L 5178 2630 
z
M 4755 2630 
L 4755 1741 
L 4045 1741 
L 4045 2630 
L 4755 2630 
z
M 4755 3040 
L 4045 3040 
L 4045 3917 
L 4755 3917 
L 4755 3040 
z
M 4045 1331 
L 4755 1331 
L 4755 256 
L 4045 256 
L 4045 1331 
z
M 1606 4832 
L 864 4832 
C 646 4832 493 4838 352 4864 
L 352 4410 
C 486 4429 627 4435 851 4435 
L 2790 4435 
C 2989 4435 3149 4429 3309 4410 
L 3309 4864 
C 3162 4845 2976 4832 2784 4832 
L 2067 4832 
L 2067 4928 
C 2067 5114 2074 5216 2099 5357 
L 1568 5357 
C 1594 5248 1606 5120 1606 4922 
L 1606 4832 
z
M 2522 3309 
C 2349 3475 2298 3520 2157 3648 
C 2323 3827 2381 3898 2534 4077 
L 2234 4326 
C 2099 4115 2035 4038 1882 3878 
C 1760 3981 1677 4045 1408 4243 
L 1158 3994 
C 1389 3834 1466 3770 1626 3635 
C 1427 3475 1338 3411 1075 3258 
C 1178 3181 1216 3136 1331 2982 
C 1626 3181 1734 3258 1894 3398 
C 2035 3264 2093 3206 2272 3014 
L 2522 3309 
z
" transform="scale(0.015625)"/>
      <path id="HiraginoSans-W4-516c" d="M 5734 -173 
C 5299 614 4800 1363 4160 2163 
L 3731 1914 
C 4166 1376 4371 1094 4646 646 
C 3674 506 3219 467 1971 403 
C 2355 1062 2854 2112 3206 3008 
C 3270 3174 3277 3194 3328 3296 
L 2739 3462 
C 2598 2784 1984 1382 1389 378 
C 1216 371 1139 371 1018 371 
C 864 371 723 378 550 384 
L 659 -205 
C 864 -166 896 -166 1395 -134 
C 2624 -70 3834 58 4896 224 
C 5069 -77 5114 -166 5261 -467 
L 5734 -173 
z
M 2189 5126 
C 2150 4915 2042 4653 1843 4320 
C 1440 3642 922 3110 192 2611 
C 339 2477 435 2355 550 2170 
C 973 2490 1210 2707 1510 3034 
C 1920 3475 2323 4064 2586 4589 
C 2662 4755 2714 4845 2758 4915 
L 2189 5126 
z
M 3616 4915 
C 3648 4870 3686 4794 3763 4640 
C 4038 4096 4339 3635 4710 3213 
C 5030 2848 5331 2573 5875 2150 
C 5984 2355 6067 2464 6227 2637 
C 5600 3053 5216 3398 4845 3872 
C 4506 4301 4224 4794 4122 5133 
L 3616 4915 
z
" transform="scale(0.015625)"/>
      <path id="HiraginoSans-W4-7406" d="M 3936 179 
L 2656 179 
C 2342 179 2202 186 2035 211 
L 2035 -288 
C 2240 -262 2381 -256 2701 -256 
L 5517 -256 
C 5837 -256 5978 -262 6176 -288 
L 6176 211 
C 6010 186 5850 179 5536 179 
L 4390 179 
L 4390 1037 
L 5306 1037 
C 5613 1037 5760 1030 5939 1005 
L 5939 1498 
C 5760 1472 5619 1466 5306 1466 
L 4390 1466 
L 4390 2138 
L 5120 2138 
C 5485 2138 5638 2131 5869 2112 
C 5850 2291 5843 2522 5843 2944 
L 5843 4256 
C 5843 4634 5850 4896 5869 5082 
C 5696 5056 5510 5050 5050 5050 
L 3341 5050 
C 2912 5050 2707 5056 2502 5082 
C 2528 4877 2534 4672 2534 4256 
L 2534 2867 
C 2528 2259 2528 2259 2509 2112 
C 2688 2131 2893 2138 3296 2138 
L 3936 2138 
L 3936 1466 
L 3123 1466 
C 2803 1466 2656 1472 2502 1498 
L 2502 1005 
C 2669 1030 2810 1037 3130 1037 
L 3936 1037 
L 3936 179 
z
M 3936 4627 
L 3936 3795 
L 2982 3795 
L 2982 4627 
L 3936 4627 
z
M 4390 4627 
L 5389 4627 
L 5389 3795 
L 4390 3795 
L 4390 4627 
z
M 3936 3379 
L 3936 2560 
L 2982 2560 
L 2982 3379 
L 3936 3379 
z
M 4390 3379 
L 5389 3379 
L 5389 2560 
L 4390 2560 
L 4390 3379 
z
M 1107 4557 
L 1107 3123 
L 813 3123 
C 621 3123 518 3130 371 3155 
L 371 2675 
C 518 2701 634 2707 806 2707 
L 1107 2707 
L 1107 998 
C 672 838 474 774 250 730 
L 390 205 
C 467 243 493 256 646 314 
C 1517 659 1741 755 2317 1037 
L 2291 1517 
C 1952 1350 1837 1293 1574 1184 
L 1574 2707 
L 1798 2707 
C 1958 2707 2086 2701 2221 2682 
L 2221 3155 
C 2080 3130 1978 3123 1798 3123 
L 1574 3123 
L 1574 4557 
L 1856 4557 
C 2054 4557 2176 4550 2342 4531 
L 2342 5030 
C 2182 4998 2048 4992 1805 4992 
L 851 4992 
C 595 4992 448 5005 294 5030 
L 294 4525 
C 480 4550 550 4557 800 4557 
L 1107 4557 
z
" transform="scale(0.015625)"/>
      <path id="HiraginoSans-W4-ff09" d="M 890 -531 
C 1261 -83 1434 179 1626 589 
C 1901 1178 2035 1773 2035 2432 
C 2035 3091 1901 3686 1626 4275 
C 1434 4685 1261 4947 890 5395 
L 230 5395 
C 710 4890 909 4608 1120 4166 
C 1376 3629 1498 3072 1498 2432 
C 1498 1792 1376 1235 1120 698 
C 909 256 710 -26 230 -531 
L 890 -531 
z
" transform="scale(0.015625)"/>
     </defs>
     <use xlink:href="#HiraginoSans-W4-64"/>
     <use xlink:href="#HiraginoSans-W4-28" transform="translate(66.299988 0)"/>
     <use xlink:href="#HiraginoSans-W4-78" transform="translate(103.299973 0)"/>
     <use xlink:href="#HiraginoSans-W4-2c" transform="translate(159.199966 0)"/>
     <use xlink:href="#HiraginoSans-W4-79" transform="translate(184.199951 0)"/>
     <use xlink:href="#HiraginoSans-W4-29" transform="translate(241.599945 0)"/>
     <use xlink:href="#HiraginoSans-W4-3d" transform="translate(278.59993 0)"/>
     <use xlink:href="#HiraginoSans-W4-30" transform="translate(344.999924 0)"/>
     <use xlink:href="#HiraginoSans-W4-20" transform="translate(412.299911 0)"/>
     <use xlink:href="#HiraginoSans-W4-2194" transform="translate(445.599899 0)"/>
     <use xlink:href="#HiraginoSans-W4-20" transform="translate(538.69989 0)"/>
     <use xlink:href="#HiraginoSans-W4-78" transform="translate(571.999878 0)"/>
     <use xlink:href="#HiraginoSans-W4-3d" transform="translate(627.899872 0)"/>
     <use xlink:href="#HiraginoSans-W4-79" transform="translate(694.299866 0)"/>
     <use xlink:href="#HiraginoSans-W4-ff08" transform="translate(751.69986 0)"/>
     <use xlink:href="#HiraginoSans-W4-5206" transform="translate(851.699844 0)"/>
     <use xlink:href="#HiraginoSans-W4-96e2" transform="translate(951.699829 0)"/>
     <use xlink:href="#HiraginoSans-W4-516c" transform="translate(1051.699814 0)"/>
     <use xlink:href="#HiraginoSans-W4-7406" transform="translate(1151.699799 0)"/>
     <use xlink:href="#HiraginoSans-W4-ff09" transform="translate(1251.699783 0)"/>
    </g>
   </g>
   <g id="text_3">
    <!-- PseudoMetricSpace -->
    <g style="fill: #2e75b6" transform="translate(168.922891 188.932725) scale(0.11 -0.11)">
     <defs>
      <path id="HiraginoSans-W7-50" d="M 1581 -134 
C 1542 122 1530 397 1530 762 
L 1530 1709 
L 2650 1709 
C 3270 1709 3744 1869 4070 2202 
C 4371 2502 4525 2925 4525 3437 
C 4525 3917 4378 4320 4109 4589 
C 3789 4909 3315 5069 2669 5069 
L 1306 5069 
C 928 5069 717 5075 429 5088 
C 467 4781 480 4538 480 4211 
L 480 749 
C 480 384 467 128 429 -134 
L 1581 -134 
z
M 1530 2611 
L 1530 4166 
L 2624 4166 
C 2912 4166 3110 4102 3245 3955 
C 3373 3827 3437 3635 3437 3405 
C 3437 2899 3142 2611 2624 2611 
L 1530 2611 
z
" transform="scale(0.015625)"/>
      <path id="HiraginoSans-W7-73" d="M 211 979 
C 275 685 339 531 461 365 
C 749 -38 1280 -243 2029 -243 
C 3117 -243 3757 224 3757 1018 
C 3757 1395 3590 1683 3270 1875 
C 3027 2022 2810 2093 2157 2234 
C 1824 2304 1690 2342 1574 2400 
C 1446 2458 1376 2547 1376 2656 
C 1376 2867 1613 2995 1997 2995 
C 2381 2995 2566 2867 2605 2566 
L 3635 2688 
C 3558 3021 3456 3206 3258 3386 
C 2982 3642 2547 3776 1984 3776 
C 992 3776 384 3328 384 2592 
C 384 2189 608 1850 986 1677 
C 1210 1574 1434 1510 2035 1389 
C 2400 1312 2528 1274 2618 1210 
C 2707 1146 2752 1062 2752 960 
C 2752 723 2490 576 2074 576 
C 1766 576 1536 653 1414 794 
C 1344 877 1312 947 1274 1107 
L 211 979 
z
" transform="scale(0.015625)"/>
      <path id="HiraginoSans-W7-75" d="M 3008 3654 
C 3046 3341 3059 3104 3059 2758 
L 3059 1459 
C 2790 986 2381 678 2010 678 
C 1856 678 1728 717 1632 787 
C 1478 902 1427 1050 1427 1389 
L 1427 2758 
C 1427 3117 1440 3354 1478 3654 
L 358 3654 
C 397 3392 410 3149 410 2758 
L 410 1146 
C 410 698 525 371 755 134 
C 986 -96 1325 -218 1734 -218 
C 2278 -218 2682 -38 3072 378 
C 3066 256 3059 173 3059 122 
L 3059 -134 
L 4122 -134 
C 4083 109 4070 352 4070 762 
L 4070 2758 
C 4070 3130 4083 3366 4122 3654 
L 3008 3654 
z
" transform="scale(0.015625)"/>
      <path id="HiraginoSans-W7-64" d="M 3296 -134 
L 4339 -134 
C 4301 173 4288 390 4288 800 
L 4288 4147 
C 4288 4518 4301 4774 4339 5069 
L 3245 5069 
C 3283 4794 3296 4557 3296 4141 
L 3296 3597 
C 3296 3475 3296 3398 3302 3309 
L 3309 3219 
C 3168 3373 3091 3437 2925 3526 
C 2643 3680 2349 3750 2003 3750 
C 902 3750 211 2989 211 1766 
C 211 1114 403 576 768 211 
C 1075 -90 1485 -237 2003 -237 
C 2586 -237 2963 -83 3309 294 
C 3302 192 3296 173 3296 102 
L 3296 -134 
z
M 3277 1773 
C 3277 1402 3142 1050 2918 845 
C 2746 691 2464 589 2202 589 
C 1971 589 1722 685 1562 838 
C 1350 1037 1235 1370 1235 1760 
C 1235 2458 1613 2931 2176 2931 
C 2835 2931 3277 2470 3277 1773 
z
" transform="scale(0.015625)"/>
      <path id="HiraginoSans-W7-6f" d="M 2208 -262 
C 3418 -262 4211 544 4211 1773 
C 4211 3002 3437 3782 2214 3782 
C 992 3782 211 2995 211 1760 
C 211 525 986 -262 2208 -262 
z
M 2221 2976 
C 2835 2976 3194 2522 3194 1754 
C 3194 1005 2829 557 2214 557 
C 1600 557 1229 1018 1229 1773 
C 1229 2522 1606 2976 2221 2976 
z
" transform="scale(0.015625)"/>
     </defs>
     <use xlink:href="#HiraginoSans-W7-50"/>
     <use xlink:href="#HiraginoSans-W7-73" transform="translate(73.599991 0)"/>
     <use xlink:href="#HiraginoSans-W7-65" transform="translate(135.799988 0)"/>
     <use xlink:href="#HiraginoSans-W7-75" transform="translate(201.899979 0)"/>
     <use xlink:href="#HiraginoSans-W7-64" transform="translate(272.09996 0)"/>
     <use xlink:href="#HiraginoSans-W7-6f" transform="translate(345.599945 0)"/>
     <use xlink:href="#HiraginoSans-W7-4d" transform="translate(414.699936 0)"/>
     <use xlink:href="#HiraginoSans-W7-65" transform="translate(515.299927 0)"/>
     <use xlink:href="#HiraginoSans-W7-74" transform="translate(581.399918 0)"/>
     <use xlink:href="#HiraginoSans-W7-72" transform="translate(626.899902 0)"/>
     <use xlink:href="#HiraginoSans-W7-69" transform="translate(678.999893 0)"/>
     <use xlink:href="#HiraginoSans-W7-63" transform="translate(708.19989 0)"/>
     <use xlink:href="#HiraginoSans-W7-53" transform="translate(772.999878 0)"/>
     <use xlink:href="#HiraginoSans-W7-70" transform="translate(846.799866 0)"/>
     <use xlink:href="#HiraginoSans-W7-61" transform="translate(920.499847 0)"/>
     <use xlink:href="#HiraginoSans-W7-63" transform="translate(986.899841 0)"/>
     <use xlink:href="#HiraginoSans-W7-65" transform="translate(1051.699829 0)"/>
    </g>
   </g>
   <g id="text_4">
    <!-- x≠y でも d(x,y)=0 を許す -->
    <g style="fill: #2e75b6" transform="translate(176.763516 212.869294) scale(0.09 -0.09)">
     <defs>
      <path id="HiraginoSans-W4-2260" d="M 2714 2720 
L 3034 3635 
L 2554 3802 
L 2176 2720 
L 333 2720 
L 333 2195 
L 1997 2195 
L 1709 1376 
L 333 1376 
L 333 851 
L 1530 851 
L 1210 -70 
L 1690 -230 
L 2067 851 
L 3923 851 
L 3923 1376 
L 2246 1376 
L 2534 2195 
L 3923 2195 
L 3923 2720 
L 2714 2720 
z
" transform="scale(0.015625)"/>
      <path id="HiraginoSans-W4-3067" d="M 576 3706 
C 915 3776 1440 3827 2682 3910 
C 3373 3955 3680 3987 4090 4051 
C 3008 3565 2374 2733 2374 1798 
C 2374 1222 2643 736 3136 416 
C 3514 179 3891 51 4550 -58 
C 4653 -70 4678 -77 4755 -96 
L 4845 525 
C 4538 525 4205 582 3885 691 
C 3245 902 2918 1286 2918 1850 
C 2918 2451 3283 3040 3936 3482 
C 4442 3821 5050 4026 5568 4026 
L 5645 4026 
L 5600 4595 
C 5498 4570 5242 4544 4851 4531 
C 3795 4486 2042 4384 1146 4320 
C 947 4307 864 4301 774 4301 
L 544 4307 
L 576 3706 
z
M 4506 3104 
C 4768 2810 4973 2490 5171 2093 
L 5549 2304 
C 5325 2720 5178 2938 4877 3296 
L 4506 3104 
z
M 5248 3450 
C 5530 3117 5722 2829 5907 2458 
L 6278 2669 
C 6048 3091 5907 3290 5606 3642 
L 5248 3450 
z
" transform="scale(0.015625)"/>
      <path id="HiraginoSans-W4-3082" d="M 762 2131 
C 845 2125 858 2118 973 2093 
C 1248 2022 1536 1978 1914 1933 
C 1882 1568 1882 1549 1882 1344 
C 1882 832 2022 461 2310 211 
C 2611 -45 3034 -179 3565 -179 
C 4704 -179 5491 448 5491 1357 
C 5491 1683 5389 1997 5190 2291 
C 5120 2394 5050 2483 4890 2656 
C 4678 2566 4589 2547 4333 2522 
C 4742 2170 4941 1805 4941 1414 
C 4941 755 4403 333 3558 333 
C 3181 333 2886 422 2682 595 
C 2496 762 2406 998 2406 1338 
C 2406 1440 2419 1645 2432 1773 
C 2438 1856 2438 1856 2438 1901 
C 2726 1882 2803 1882 2938 1882 
C 3232 1882 3571 1901 3866 1933 
C 3962 1946 3981 1946 4045 1952 
L 4064 2470 
C 3795 2400 3334 2355 2874 2355 
C 2771 2355 2707 2355 2477 2368 
C 2509 2656 2522 2765 2624 3450 
C 2950 3437 3027 3437 3123 3437 
C 3290 3437 3546 3450 3731 3462 
C 4077 3494 4077 3494 4198 3507 
L 4218 4038 
C 3917 3955 3475 3917 2950 3917 
C 2906 3917 2886 3917 2701 3923 
C 2720 4064 2733 4141 2758 4294 
C 2810 4621 2810 4621 2822 4678 
C 2861 4922 2880 4986 2918 5107 
L 2310 5171 
C 2310 5139 2310 5139 2310 5120 
L 2310 5082 
C 2310 4934 2253 4499 2163 3955 
C 1709 3994 1280 4083 1011 4198 
L 954 3693 
C 1050 3674 1094 3667 1158 3648 
C 1600 3552 1696 3533 2106 3482 
C 2054 3174 1990 2682 1958 2400 
C 1402 2470 1088 2541 819 2650 
L 762 2131 
z
" transform="scale(0.015625)"/>
      <path id="HiraginoSans-W4-3092" d="M 2189 4365 
C 1491 4365 1088 4390 813 4442 
L 800 3917 
C 864 3930 902 3930 934 3930 
C 966 3930 998 3930 1062 3923 
C 1197 3917 1830 3904 1958 3904 
C 1984 3904 2054 3910 2074 3910 
C 2035 3840 2035 3840 2016 3808 
C 1581 3046 1037 2362 614 2042 
L 1037 1619 
C 1152 1798 1293 1952 1549 2163 
C 2054 2598 2547 2835 2938 2835 
C 3226 2835 3373 2694 3411 2381 
C 2982 2189 2707 2042 2470 1869 
C 2016 1542 1792 1197 1792 832 
C 1792 499 1952 218 2227 64 
C 2534 -109 2944 -186 3539 -186 
C 4058 -186 4646 -141 5133 -64 
C 5267 -38 5293 -38 5395 -32 
L 5338 557 
C 4954 403 4250 301 3597 301 
C 2694 301 2330 467 2330 870 
C 2330 1088 2445 1267 2707 1472 
C 2874 1600 3085 1715 3475 1894 
C 3475 1818 3475 1798 3475 1696 
C 3475 1350 3456 973 3437 845 
L 3962 851 
C 3949 954 3949 1005 3949 1114 
C 3949 1165 3949 1254 3949 1376 
C 3955 1504 3955 1638 3955 1709 
C 3955 1850 3955 1869 3949 2080 
C 4800 2406 5299 2566 5645 2624 
L 5414 3149 
C 5312 3085 5293 3078 4966 2963 
C 4653 2854 4390 2758 3891 2566 
C 3802 3027 3507 3264 3027 3264 
C 2726 3264 2413 3174 2144 3002 
C 2080 2963 2042 2938 1926 2842 
C 1907 2829 1875 2810 1837 2778 
C 1837 2778 1830 2784 1824 2797 
C 1830 2803 1830 2803 1837 2810 
C 1837 2816 1862 2835 1901 2861 
C 1920 2874 2054 3021 2106 3098 
C 2310 3354 2438 3565 2624 3910 
C 3251 3930 4070 3987 4512 4045 
C 4883 4096 4883 4096 5005 4109 
L 4966 4621 
C 4627 4518 4032 4442 3238 4397 
C 2880 4378 2880 4378 2835 4371 
C 2874 4435 2944 4595 3027 4800 
C 3130 5050 3130 5050 3181 5126 
L 2579 5216 
C 2560 5011 2490 4813 2291 4365 
L 2189 4365 
z
" transform="scale(0.015625)"/>
      <path id="HiraginoSans-W4-8a31" d="M 4173 3994 
L 4173 2598 
L 3277 2598 
C 3027 2598 2822 2611 2669 2637 
L 2669 2112 
C 2893 2138 3072 2150 3334 2150 
L 4173 2150 
L 4173 224 
C 4173 -58 4160 -256 4128 -499 
L 4704 -499 
C 4666 -275 4653 -58 4653 224 
L 4653 2150 
L 5510 2150 
C 5766 2150 5984 2138 6170 2112 
L 6170 2637 
C 5990 2611 5792 2598 5510 2598 
L 4653 2598 
L 4653 3994 
L 5363 3994 
C 5645 3994 5843 3981 6016 3955 
L 6016 4474 
C 5837 4448 5638 4435 5357 4435 
L 3686 4435 
C 3782 4666 3942 5107 3994 5280 
L 3469 5402 
C 3443 5242 3392 5024 3315 4787 
C 3117 4179 2861 3718 2483 3290 
C 2630 3206 2739 3117 2880 2970 
C 3174 3373 3309 3597 3494 3994 
L 4173 3994 
z
M 518 4710 
C 659 4730 813 4736 1018 4736 
L 1914 4736 
C 2118 4736 2246 4730 2413 4710 
L 2413 5178 
C 2246 5152 2144 5146 1914 5146 
L 1018 5146 
C 787 5146 678 5152 518 5178 
L 518 4710 
z
M 282 3795 
C 429 3814 563 3821 794 3821 
L 2125 3821 
C 2368 3821 2458 3814 2592 3795 
L 2592 4282 
C 2458 4256 2342 4250 2080 4250 
L 794 4250 
C 550 4250 429 4256 282 4282 
L 282 3795 
z
M 550 2899 
C 685 2918 794 2925 998 2925 
L 1978 2925 
C 2182 2925 2278 2918 2419 2899 
L 2419 3354 
C 2278 3341 2202 3334 1978 3334 
L 998 3334 
C 781 3334 678 3341 550 3354 
L 550 2899 
z
M 550 2010 
C 685 2029 787 2035 998 2035 
L 1971 2035 
C 2182 2035 2272 2029 2419 2010 
L 2419 2464 
C 2291 2451 2202 2445 1978 2445 
L 998 2445 
C 768 2445 691 2451 550 2464 
L 550 2010 
z
M 1024 -467 
L 1024 -134 
L 1984 -134 
L 1984 -384 
L 2451 -384 
C 2426 -186 2419 -38 2419 147 
L 2419 1069 
C 2419 1286 2426 1427 2438 1562 
C 2317 1542 2240 1542 1971 1542 
L 1062 1542 
C 883 1542 710 1549 550 1568 
C 576 1382 582 1254 582 1037 
L 582 154 
C 582 -90 570 -288 544 -467 
L 1024 -467 
z
M 1024 1146 
L 1984 1146 
L 1984 262 
L 1024 262 
L 1024 1146 
z
" transform="scale(0.015625)"/>
      <path id="HiraginoSans-W4-3059" d="M 3507 4326 
C 2790 4307 2509 4301 1965 4282 
C 998 4243 960 4243 787 4243 
C 691 4243 640 4243 512 4250 
L 531 3699 
C 928 3763 2419 3846 3514 3866 
C 3514 3514 3520 3181 3526 3123 
L 3526 3078 
C 3366 3245 3117 3334 2816 3334 
C 2131 3334 1632 2874 1632 2246 
C 1632 1645 2093 1203 2720 1203 
C 3053 1203 3334 1318 3526 1536 
C 3597 1613 3635 1683 3699 1818 
C 3680 1562 3629 1376 3514 1171 
C 3238 672 2746 358 1920 134 
C 2074 -32 2118 -102 2246 -358 
C 2765 -166 3034 -32 3302 160 
C 3885 589 4179 1158 4179 1850 
C 4179 2157 4134 2368 4019 2643 
C 4019 3494 4019 3494 4019 3872 
C 4531 3878 4640 3878 4730 3878 
C 5434 3878 5664 3872 5907 3846 
L 5907 4384 
C 5696 4358 5210 4346 4013 4339 
C 4013 4883 4019 4979 4045 5178 
L 3469 5178 
C 3488 5043 3494 4979 3501 4806 
L 3507 4326 
z
M 2861 2906 
C 3059 2906 3238 2842 3366 2720 
C 3456 2630 3494 2534 3494 2381 
C 3494 1965 3200 1677 2784 1677 
C 2413 1677 2157 1926 2157 2285 
C 2157 2637 2458 2906 2861 2906 
z
" transform="scale(0.015625)"/>
     </defs>
     <use xlink:href="#HiraginoSans-W4-78"/>
     <use xlink:href="#HiraginoSans-W4-2260" transform="translate(55.899994 0)"/>
     <use xlink:href="#HiraginoSans-W4-79" transform="translate(122.299988 0)"/>
     <use xlink:href="#HiraginoSans-W4-20" transform="translate(179.699982 0)"/>
     <use xlink:href="#HiraginoSans-W4-3067" transform="translate(212.999969 0)"/>
     <use xlink:href="#HiraginoSans-W4-3082" transform="translate(312.999954 0)"/>
     <use xlink:href="#HiraginoSans-W4-20" transform="translate(412.999939 0)"/>
     <use xlink:href="#HiraginoSans-W4-64" transform="translate(446.299927 0)"/>
     <use xlink:href="#HiraginoSans-W4-28" transform="translate(512.599915 0)"/>
     <use xlink:href="#HiraginoSans-W4-78" transform="translate(549.599899 0)"/>
     <use xlink:href="#HiraginoSans-W4-2c" transform="translate(605.499893 0)"/>
     <use xlink:href="#HiraginoSans-W4-79" transform="translate(630.499878 0)"/>
     <use xlink:href="#HiraginoSans-W4-29" transform="translate(687.899872 0)"/>
     <use xlink:href="#HiraginoSans-W4-3d" transform="translate(724.899857 0)"/>
     <use xlink:href="#HiraginoSans-W4-30" transform="translate(791.29985 0)"/>
     <use xlink:href="#HiraginoSans-W4-20" transform="translate(858.599838 0)"/>
     <use xlink:href="#HiraginoSans-W4-3092" transform="translate(891.899826 0)"/>
     <use xlink:href="#HiraginoSans-W4-8a31" transform="translate(991.899811 0)"/>
     <use xlink:href="#HiraginoSans-W4-3059" transform="translate(1091.899796 0)"/>
    </g>
   </g>
   <g id="text_5">
    <!-- UniformSpace -->
    <g style="fill: #538135" transform="translate(186.009844 290.942325) scale(0.11 -0.11)">
     <defs>
      <path id="HiraginoSans-W7-55" d="M 3910 5069 
C 3949 4813 3962 4595 3962 4147 
L 3962 1920 
C 3962 1549 3891 1267 3744 1069 
C 3552 806 3194 659 2746 659 
C 2310 659 1984 781 1779 1024 
C 1600 1242 1523 1517 1523 1920 
L 1523 4147 
C 1523 4589 1536 4845 1574 5069 
L 416 5069 
C 454 4832 467 4570 467 4147 
L 467 1920 
C 467 1248 640 736 986 358 
C 1350 -38 1971 -256 2733 -256 
C 4186 -256 5018 531 5018 1914 
L 5018 4154 
C 5018 4576 5030 4813 5069 5069 
L 3910 5069 
z
" transform="scale(0.015625)"/>
      <path id="HiraginoSans-W7-6e" d="M 1485 -134 
C 1446 179 1434 416 1434 762 
L 1434 2061 
C 1709 2541 2106 2835 2483 2835 
C 2637 2835 2765 2797 2861 2726 
C 3014 2611 3066 2464 3066 2131 
L 3066 762 
C 3066 403 3053 166 3014 -134 
L 4134 -134 
C 4096 128 4083 371 4083 762 
L 4083 2374 
C 4083 3245 3610 3731 2758 3731 
C 2214 3731 1811 3552 1414 3142 
C 1421 3264 1427 3347 1427 3398 
L 1427 3654 
L 371 3654 
C 410 3411 422 3168 422 2758 
L 422 762 
C 422 390 410 154 371 -134 
L 1485 -134 
z
" transform="scale(0.015625)"/>
      <path id="HiraginoSans-W7-66" d="M 928 2829 
L 928 762 
C 928 390 915 166 877 -134 
L 2003 -134 
C 1965 160 1952 358 1952 762 
L 1952 2829 
L 2259 2829 
C 2579 2829 2739 2816 2982 2784 
L 2982 3699 
C 2682 3667 2470 3654 2240 3654 
L 1952 3654 
L 1952 3866 
C 1952 4256 2074 4397 2413 4397 
C 2637 4397 2822 4352 3021 4243 
L 3206 5037 
C 2874 5133 2637 5165 2317 5165 
C 1376 5165 928 4781 928 3974 
L 928 3654 
L 672 3654 
C 448 3654 205 3674 58 3693 
L 58 2784 
C 262 2816 416 2829 672 2829 
L 928 2829 
z
" transform="scale(0.015625)"/>
      <path id="HiraginoSans-W7-6d" d="M 1472 -134 
C 1440 166 1427 390 1427 762 
L 1427 2061 
C 1536 2323 1606 2438 1728 2566 
C 1901 2746 2118 2848 2330 2848 
C 2490 2848 2637 2784 2720 2669 
C 2810 2554 2848 2406 2848 2144 
L 2848 762 
C 2848 371 2835 141 2797 -134 
L 3910 -134 
C 3878 160 3866 390 3866 762 
L 3866 2061 
C 3962 2336 4032 2451 4166 2592 
C 4326 2765 4531 2854 4762 2854 
C 4947 2854 5101 2784 5184 2662 
C 5261 2547 5293 2413 5293 2144 
L 5293 762 
C 5293 358 5280 154 5242 -134 
L 6355 -134 
C 6323 147 6310 384 6310 762 
L 6310 2342 
C 6310 2784 6227 3078 6035 3315 
C 5811 3597 5446 3744 4986 3744 
C 4442 3744 4064 3571 3706 3162 
C 3616 3315 3558 3386 3469 3462 
C 3264 3648 2982 3744 2624 3744 
C 2106 3744 1754 3590 1414 3206 
C 1421 3232 1421 3232 1421 3296 
C 1421 3302 1421 3302 1427 3411 
L 1427 3654 
L 371 3654 
C 410 3418 422 3200 422 2758 
L 422 762 
C 422 390 410 147 371 -134 
L 1472 -134 
z
" transform="scale(0.015625)"/>
     </defs>
     <use xlink:href="#HiraginoSans-W7-55"/>
     <use xlink:href="#HiraginoSans-W7-6e" transform="translate(85.699982 0)"/>
     <use xlink:href="#HiraginoSans-W7-69" transform="translate(155.899963 0)"/>
     <use xlink:href="#HiraginoSans-W7-66" transform="translate(185.09996 0)"/>
     <use xlink:href="#HiraginoSans-W7-6f" transform="translate(235.999954 0)"/>
     <use xlink:href="#HiraginoSans-W7-72" transform="translate(305.099945 0)"/>
     <use xlink:href="#HiraginoSans-W7-6d" transform="translate(357.199936 0)"/>
     <use xlink:href="#HiraginoSans-W7-53" transform="translate(462.299927 0)"/>
     <use xlink:href="#HiraginoSans-W7-70" transform="translate(536.099915 0)"/>
     <use xlink:href="#HiraginoSans-W7-61" transform="translate(609.799896 0)"/>
     <use xlink:href="#HiraginoSans-W7-63" transform="translate(676.19989 0)"/>
     <use xlink:href="#HiraginoSans-W7-65" transform="translate(740.999878 0)"/>
    </g>
   </g>
   <g id="text_6">
    <!-- 一様連続性・Cauchy フィルター -->
    <g style="fill: #538135" transform="translate(162.346641 314.851472) scale(0.09 -0.09)">
     <defs>
      <path id="HiraginoSans-W4-4e00" d="M 6035 2835 
C 5824 2803 5549 2790 5158 2790 
L 1254 2790 
C 864 2790 595 2803 365 2835 
L 365 2202 
C 595 2234 896 2246 1254 2246 
L 5158 2246 
C 5549 2246 5786 2234 6035 2202 
L 6035 2835 
z
" transform="scale(0.015625)"/>
      <path id="HiraginoSans-W4-69d8" d="M 3770 2259 
L 3770 1408 
C 3168 998 2957 870 2496 653 
C 2259 531 2131 480 1939 429 
L 2150 -70 
C 2240 -6 2330 51 2432 109 
C 3162 506 3168 512 3770 941 
L 3770 115 
C 3770 -6 3731 -26 3533 -26 
C 3373 -26 3155 -6 2925 26 
C 3002 -128 3034 -243 3053 -442 
C 3238 -461 3398 -467 3558 -467 
C 4070 -467 4218 -371 4218 -19 
L 4218 1107 
C 4218 1222 4205 1408 4179 1677 
C 4429 1114 4634 800 4973 448 
C 5229 186 5491 -19 5869 -250 
C 5971 -64 6048 51 6182 198 
C 5683 435 5363 659 5011 1037 
C 5325 1306 5498 1498 5798 1882 
L 5414 2150 
C 5190 1805 4998 1574 4749 1357 
C 4512 1677 4397 1888 4256 2259 
L 5414 2259 
C 5645 2259 5843 2246 6022 2221 
L 6022 2701 
C 5843 2675 5651 2662 5408 2662 
L 4218 2662 
L 4218 3181 
L 5139 3181 
C 5427 3181 5568 3174 5734 3149 
L 5734 3616 
C 5568 3590 5402 3584 5133 3584 
L 4218 3584 
L 4218 4070 
L 5331 4070 
C 5587 4070 5760 4058 5933 4038 
L 5933 4512 
C 5754 4486 5574 4474 5325 4474 
L 4838 4474 
C 4947 4640 5094 4896 5242 5178 
L 4768 5325 
C 4653 5005 4557 4800 4346 4474 
L 3661 4474 
C 3520 4813 3424 4998 3213 5318 
L 2797 5152 
C 2995 4883 3085 4723 3194 4474 
L 2931 4474 
C 2669 4474 2515 4480 2355 4506 
L 2355 4038 
C 2522 4064 2650 4070 2925 4070 
L 3770 4070 
L 3770 3584 
L 3066 3584 
C 2803 3584 2669 3590 2515 3616 
L 2515 3149 
C 2701 3174 2778 3181 3085 3181 
L 3770 3181 
L 3770 2662 
L 2816 2662 
C 2573 2662 2381 2669 2240 2688 
C 1978 2989 1754 3379 1658 3686 
L 1856 3686 
C 2016 3686 2131 3680 2253 3667 
L 2253 4134 
C 2125 4115 2042 4109 1862 4109 
L 1638 4109 
L 1638 4698 
C 1638 5018 1645 5184 1670 5357 
L 1139 5357 
C 1165 5203 1171 5056 1171 4698 
L 1171 4109 
L 794 4109 
C 582 4109 467 4115 358 4134 
L 358 3661 
C 474 3680 595 3686 794 3686 
L 1107 3686 
C 1043 3373 915 2989 755 2611 
C 582 2208 416 1920 179 1638 
C 307 1453 378 1325 448 1133 
C 634 1421 710 1555 832 1818 
C 1018 2202 1094 2419 1216 2944 
C 1197 2573 1178 2118 1178 1914 
L 1178 243 
C 1178 -83 1165 -326 1139 -512 
L 1677 -512 
C 1645 -326 1638 -102 1638 243 
L 1638 2093 
C 1638 2291 1632 2566 1613 3091 
C 1728 2758 1824 2554 1997 2266 
C 2080 2426 2138 2534 2234 2662 
L 2234 2227 
C 2387 2253 2547 2259 2790 2259 
L 3770 2259 
z
M 2330 1894 
C 2611 1606 2726 1459 2938 1120 
L 3290 1376 
C 3085 1677 2918 1875 2669 2138 
L 2330 1894 
z
" transform="scale(0.015625)"/>
      <path id="HiraginoSans-W4-9023" d="M 3699 4371 
L 3699 3936 
L 2746 3936 
C 2541 3936 2394 3942 2240 3962 
C 2259 3795 2266 3706 2266 3533 
L 2266 2214 
C 2266 2042 2259 1946 2240 1786 
C 2419 1805 2566 1811 2752 1811 
L 3699 1811 
L 3699 1338 
L 2605 1338 
C 2272 1338 2106 1344 1965 1370 
L 1965 915 
C 2106 928 2349 941 2605 941 
L 3699 941 
L 3699 858 
C 3699 659 3686 486 3654 288 
L 4166 288 
C 4141 467 4128 666 4128 864 
L 4128 941 
L 5389 941 
C 5696 941 5888 934 6035 909 
L 6035 1370 
C 5894 1344 5709 1338 5389 1338 
L 4128 1338 
L 4128 1811 
L 5178 1811 
C 5376 1811 5542 1805 5690 1786 
C 5670 1920 5664 2042 5664 2214 
L 5664 3514 
C 5664 3693 5670 3821 5690 3962 
C 5510 3942 5395 3936 5178 3936 
L 4128 3936 
L 4128 4371 
L 5363 4371 
C 5677 4371 5856 4365 6010 4339 
L 6010 4806 
C 5850 4787 5626 4774 5325 4774 
L 4128 4774 
C 4128 4992 4141 5146 4173 5325 
L 3654 5325 
C 3680 5133 3693 4986 3699 4774 
L 2624 4774 
C 2304 4774 2099 4787 1939 4806 
L 1939 4339 
C 2054 4365 2227 4371 2522 4371 
L 3699 4371 
z
M 3699 3558 
L 3699 3072 
L 2707 3072 
L 2707 3558 
L 3699 3558 
z
M 4128 3558 
L 5216 3558 
L 5216 3072 
L 4128 3072 
L 4128 3558 
z
M 3699 2707 
L 3699 2189 
L 2707 2189 
L 2707 2707 
L 3699 2707 
z
M 4128 2707 
L 5216 2707 
L 5216 2189 
L 4128 2189 
L 4128 2707 
z
M 390 4915 
C 845 4499 1043 4269 1414 3744 
L 1798 4096 
C 1376 4627 1165 4851 749 5235 
L 390 4915 
z
M 326 2330 
C 486 2355 582 2362 781 2362 
L 1184 2362 
L 1184 858 
C 832 525 454 243 192 128 
L 435 -378 
C 531 -294 576 -256 685 -173 
C 960 32 1133 186 1408 461 
C 1587 211 1734 70 1952 -51 
C 2355 -275 2733 -333 3789 -333 
C 4589 -333 5453 -314 6035 -294 
C 6086 -32 6086 -19 6202 256 
C 5562 173 4819 134 3578 134 
C 2694 134 2323 211 1965 467 
C 1830 557 1754 653 1658 858 
L 1658 2144 
C 1658 2470 1664 2624 1683 2829 
C 1523 2803 1389 2797 1197 2797 
L 826 2797 
C 582 2797 486 2803 326 2829 
L 326 2330 
z
" transform="scale(0.015625)"/>
      <path id="HiraginoSans-W4-7d9a" d="M 339 2086 
C 448 2106 531 2118 755 2131 
C 864 2138 1024 2150 1293 2182 
L 1293 122 
C 1293 -134 1280 -326 1254 -518 
L 1773 -518 
C 1747 -333 1734 -154 1734 122 
L 1734 2227 
C 1978 2253 2035 2259 2189 2285 
C 2221 2170 2234 2131 2259 1997 
L 2605 2144 
C 2477 2630 2387 2880 2176 3309 
L 1856 3181 
C 1971 2944 2003 2867 2074 2662 
C 1869 2630 1747 2624 1242 2586 
C 1504 2925 1907 3514 2125 3872 
C 2368 4282 2368 4282 2445 4390 
L 2016 4627 
C 1933 4358 1824 4154 1421 3514 
C 1306 3654 1235 3738 1082 3910 
C 1293 4224 1446 4493 1677 4954 
C 1728 5056 1760 5107 1798 5171 
L 1344 5363 
C 1267 5056 1082 4653 806 4205 
C 723 4294 691 4326 518 4506 
L 275 4134 
C 672 3750 877 3520 1165 3130 
C 979 2861 979 2861 762 2560 
C 685 2560 544 2554 506 2554 
C 410 2554 365 2554 275 2566 
L 339 2086 
z
M 3981 4320 
L 3981 3712 
L 3341 3712 
C 3059 3712 2874 3725 2701 3744 
L 2701 3277 
C 2880 3296 3059 3309 3341 3309 
L 5197 3309 
C 5472 3309 5664 3296 5830 3277 
L 5830 3744 
C 5651 3725 5478 3712 5190 3712 
L 4435 3712 
L 4435 4320 
L 5357 4320 
C 5658 4320 5824 4314 6010 4288 
L 6010 4768 
C 5837 4742 5632 4730 5344 4730 
L 4435 4730 
L 4435 4838 
C 4435 5062 4448 5203 4474 5357 
L 3942 5357 
C 3968 5210 3981 5062 3981 4851 
L 3981 4730 
L 3245 4730 
C 2950 4730 2758 4742 2579 4768 
L 2579 4288 
C 2765 4314 2938 4320 3238 4320 
L 3981 4320 
z
M 595 1824 
C 538 934 486 627 288 83 
L 685 -128 
C 864 435 947 883 1011 1754 
L 595 1824 
z
M 1952 1760 
C 2074 1331 2150 928 2202 397 
L 2586 525 
C 2509 1107 2502 1158 2310 1869 
L 1952 1760 
z
M 3085 1683 
L 3085 2451 
L 5510 2451 
L 5510 1683 
L 5997 1683 
C 5978 1773 5971 1907 5971 2086 
L 5971 2464 
C 5971 2643 5978 2752 5990 2886 
C 5830 2861 5645 2854 5331 2854 
L 3226 2854 
C 2912 2854 2752 2861 2624 2874 
C 2643 2758 2650 2662 2650 2438 
L 2650 2112 
C 2650 1933 2643 1837 2624 1683 
L 3085 1683 
z
M 4429 2106 
C 4448 1965 4461 1811 4461 1594 
L 4461 90 
C 4461 -96 4512 -205 4621 -262 
C 4736 -326 4845 -339 5216 -339 
C 5696 -339 5856 -282 5971 -70 
C 6067 102 6112 346 6157 870 
C 5990 902 5875 947 5709 1050 
C 5696 512 5651 243 5562 160 
C 5517 115 5408 96 5210 96 
C 4973 96 4915 128 4915 243 
L 4915 1594 
C 4915 1818 4922 1952 4954 2106 
L 4429 2106 
z
M 3488 2106 
C 3507 1997 3514 1933 3514 1818 
C 3514 1350 3405 941 3213 653 
C 2995 333 2726 147 2208 -38 
C 2362 -166 2451 -275 2528 -448 
C 3078 -192 3328 0 3571 339 
C 3814 691 3936 1101 3974 1690 
C 3994 1958 3994 1990 4013 2106 
L 3488 2106 
z
" transform="scale(0.015625)"/>
      <path id="HiraginoSans-W4-6027" d="M 3840 3520 
L 3840 2246 
L 3123 2246 
C 2848 2246 2675 2259 2502 2285 
L 2502 1773 
C 2675 1798 2906 1811 3174 1811 
L 3840 1811 
L 3840 224 
L 2733 224 
C 2438 224 2221 237 2022 262 
L 2022 -269 
C 2240 -237 2464 -224 2733 -224 
L 5350 -224 
C 5619 -224 5843 -237 6061 -269 
L 6061 262 
C 5862 237 5645 224 5350 224 
L 4314 224 
L 4314 1811 
L 5120 1811 
C 5414 1811 5600 1798 5786 1773 
L 5786 2285 
C 5606 2259 5427 2246 5126 2246 
L 4314 2246 
L 4314 3520 
L 5248 3520 
C 5472 3520 5702 3507 5920 3482 
L 5920 4000 
C 5766 3974 5574 3962 5248 3962 
L 4314 3962 
L 4314 4698 
C 4314 4941 4326 5158 4358 5350 
L 3795 5350 
C 3827 5146 3840 4934 3840 4698 
L 3840 3962 
L 3098 3962 
C 3149 4166 3219 4499 3245 4646 
C 3264 4742 3264 4755 3283 4813 
L 2771 4909 
C 2771 4710 2752 4576 2707 4326 
C 2566 3610 2355 3098 1997 2592 
C 2259 2458 2259 2458 2419 2349 
C 2688 2771 2810 3046 2970 3520 
L 3840 3520 
z
M 608 2278 
C 774 2854 858 3328 902 4045 
L 506 4109 
C 480 3462 403 3027 218 2432 
L 608 2278 
z
M 1613 -512 
C 1587 -294 1574 -77 1574 211 
L 1574 4704 
C 1574 4973 1587 5146 1613 5363 
L 1043 5363 
C 1075 5152 1088 4954 1088 4704 
L 1088 243 
C 1088 -19 1075 -288 1043 -512 
L 1613 -512 
z
M 2330 3296 
C 2246 3667 2138 3994 2022 4256 
L 1690 4122 
C 1843 3763 1901 3565 1965 3142 
L 2330 3296 
z
" transform="scale(0.015625)"/>
      <path id="HiraginoSans-W4-30fb" d="M 3206 3027 
C 2880 3027 2611 2758 2611 2432 
C 2611 2112 2880 1843 3206 1843 
C 3526 1843 3795 2112 3795 2438 
C 3795 2765 3533 3027 3206 3027 
z
" transform="scale(0.015625)"/>
      <path id="HiraginoSans-W4-43" d="M 4544 3654 
C 4390 4064 4269 4269 4026 4506 
C 3661 4858 3174 5030 2560 5030 
C 1946 5030 1453 4845 1075 4480 
C 589 4006 320 3296 320 2458 
C 320 1651 570 947 1018 493 
C 1389 109 1920 -90 2554 -90 
C 3277 -90 3878 173 4237 640 
C 4403 858 4493 1062 4608 1459 
L 3968 1594 
C 3910 1306 3853 1152 3718 966 
C 3475 634 3066 448 2573 448 
C 1581 448 947 1235 947 2477 
C 947 3718 1568 4493 2573 4493 
C 3014 4493 3386 4339 3629 4051 
C 3763 3891 3834 3763 3923 3488 
L 4544 3654 
z
" transform="scale(0.015625)"/>
      <path id="HiraginoSans-W4-61" d="M 2765 0 
L 3373 0 
C 3334 269 3322 422 3322 736 
L 3322 2515 
C 3322 2867 3238 3110 3046 3290 
C 2816 3514 2464 3622 1978 3622 
C 1485 3622 1094 3507 813 3270 
C 627 3123 531 2976 416 2656 
L 1011 2541 
C 1069 2714 1114 2797 1197 2886 
C 1370 3066 1626 3155 1971 3155 
C 2515 3155 2765 2950 2765 2515 
L 2765 2182 
C 1933 2163 1581 2118 1197 1997 
C 646 1818 333 1434 333 941 
C 333 320 774 -58 1491 -58 
C 1741 -58 1978 -19 2195 64 
C 2406 141 2522 218 2765 429 
L 2765 0 
z
M 2765 1363 
C 2765 1126 2707 973 2554 813 
C 2304 557 1920 397 1568 397 
C 1165 397 915 608 915 941 
C 915 1235 1075 1440 1395 1568 
C 1677 1683 2035 1728 2765 1747 
L 2765 1363 
z
" transform="scale(0.015625)"/>
      <path id="HiraginoSans-W4-75" d="M 2944 3520 
C 2976 3264 2989 3046 2989 2765 
L 2989 1510 
C 2918 1248 2835 1094 2662 890 
C 2400 576 2125 435 1792 435 
C 1306 435 1056 723 1056 1286 
L 1056 2765 
C 1056 3066 1069 3251 1101 3520 
L 429 3520 
C 461 3302 474 3104 474 2771 
L 474 1197 
C 474 858 538 608 666 416 
C 877 109 1242 -58 1709 -58 
C 2272 -58 2682 166 3002 653 
C 2989 493 2989 461 2989 378 
L 2989 0 
L 3616 0 
C 3578 256 3565 442 3565 755 
L 3565 2765 
C 3565 3091 3578 3264 3616 3520 
L 2944 3520 
z
" transform="scale(0.015625)"/>
      <path id="HiraginoSans-W4-63" d="M 3475 2573 
C 3405 2758 3347 2867 3251 3002 
C 2970 3405 2522 3616 1965 3616 
C 947 3616 282 2874 282 1747 
C 282 627 954 -90 1990 -90 
C 2534 -90 2970 102 3258 480 
C 3366 621 3430 742 3520 986 
L 2950 1126 
C 2899 966 2867 890 2816 806 
C 2650 550 2362 410 2010 410 
C 1312 410 870 934 870 1760 
C 870 2598 1299 3130 1984 3130 
C 2438 3130 2739 2899 2912 2413 
L 3475 2573 
z
" transform="scale(0.015625)"/>
      <path id="HiraginoSans-W4-68" d="M 1107 0 
C 1075 256 1062 474 1062 755 
L 1062 2003 
C 1139 2272 1229 2438 1402 2643 
C 1645 2931 1933 3078 2259 3078 
C 2490 3078 2682 3002 2810 2861 
C 2931 2726 2995 2522 2995 2240 
L 2995 755 
C 2995 422 2982 224 2944 0 
L 3622 0 
C 3590 230 3578 448 3578 749 
L 3578 2362 
C 3578 3130 3123 3584 2355 3584 
C 1773 3584 1357 3347 1043 2854 
C 1056 3046 1062 3066 1062 3168 
L 1062 4173 
C 1062 4512 1069 4691 1107 4934 
L 442 4934 
C 480 4691 493 4512 493 4179 
L 493 755 
C 493 422 480 250 442 0 
L 1107 0 
z
" transform="scale(0.015625)"/>
      <path id="HiraginoSans-W4-30d5" d="M 5222 4595 
C 5082 4550 5024 4544 4736 4544 
L 1690 4544 
C 1293 4544 1146 4550 896 4589 
L 896 3981 
C 1120 4013 1306 4019 1677 4019 
L 4838 4019 
C 4486 2643 3872 1728 2842 1043 
C 2362 723 1984 550 1408 371 
C 1613 173 1670 90 1792 -160 
C 2669 192 3226 531 3814 1069 
C 4589 1786 5082 2637 5414 3859 
C 5510 4198 5510 4198 5555 4282 
L 5222 4595 
z
" transform="scale(0.015625)"/>
      <path id="HiraginoSans-W4-30a3" d="M 4621 4000 
C 4525 3846 4454 3763 4256 3571 
C 3712 3034 3136 2618 2438 2253 
C 1939 1990 1542 1843 934 1683 
C 1082 1491 1126 1414 1210 1216 
C 1990 1466 2522 1702 3130 2080 
L 3130 269 
C 3130 -51 3123 -166 3098 -339 
L 3693 -339 
C 3667 -179 3661 -26 3661 275 
L 3661 2400 
C 4122 2746 4570 3136 4883 3469 
C 5011 3610 5011 3610 5088 3674 
L 4621 4000 
z
" transform="scale(0.015625)"/>
      <path id="HiraginoSans-W4-30eb" d="M 1664 4909 
C 1683 4755 1683 4717 1683 4403 
C 1683 3091 1600 2272 1402 1709 
C 1190 1107 864 653 346 243 
C 570 96 640 26 806 -186 
C 1376 365 1690 819 1907 1427 
C 2144 2074 2195 2541 2246 4314 
C 2259 4710 2259 4717 2285 4877 
L 1664 4909 
z
M 3277 4960 
C 3302 4832 3309 4685 3309 4435 
C 3309 4390 3309 4346 3309 4294 
L 3270 672 
C 3270 371 3264 288 3226 166 
L 3526 -166 
C 3584 -134 3603 -128 3680 -96 
C 3744 -70 3808 -45 3885 -19 
C 4256 128 4512 256 4787 442 
C 5357 826 5779 1363 6106 2118 
C 5901 2291 5837 2355 5683 2560 
C 5530 2074 5299 1670 4960 1312 
C 4646 973 4339 774 3834 570 
L 3866 4288 
C 3872 4666 3878 4768 3910 4954 
L 3277 4960 
z
" transform="scale(0.015625)"/>
      <path id="HiraginoSans-W4-30bf" d="M 2650 5299 
C 2592 5069 2470 4787 2272 4422 
C 1862 3693 1344 3110 646 2598 
C 864 2470 941 2413 1094 2234 
C 1728 2746 2176 3245 2611 3930 
L 4774 3955 
C 4563 3309 4288 2746 3942 2208 
C 3424 2630 3098 2854 2560 3162 
L 2208 2771 
C 2707 2496 3149 2176 3610 1766 
C 3290 1376 3008 1120 2522 787 
C 2099 506 1760 326 1216 109 
C 1395 -51 1459 -128 1594 -365 
C 2938 262 3802 973 4448 1984 
C 4736 2438 5069 3130 5299 3750 
C 5402 4045 5414 4064 5485 4173 
L 5158 4499 
C 5043 4454 4922 4435 4736 4435 
C 2944 4416 2944 4416 2848 4397 
C 2899 4486 2963 4595 3034 4736 
C 3174 5030 3174 5030 3245 5146 
L 2650 5299 
z
" transform="scale(0.015625)"/>
      <path id="HiraginoSans-W4-30fc" d="M 531 2131 
C 755 2157 915 2163 1421 2163 
L 5005 2163 
C 5446 2163 5632 2157 5875 2131 
L 5875 2765 
C 5651 2733 5523 2726 5011 2726 
L 1414 2726 
C 973 2726 736 2739 531 2765 
L 531 2131 
z
" transform="scale(0.015625)"/>
     </defs>
     <use xlink:href="#HiraginoSans-W4-4e00"/>
     <use xlink:href="#HiraginoSans-W4-69d8" transform="translate(99.999985 0)"/>
     <use xlink:href="#HiraginoSans-W4-9023" transform="translate(199.999969 0)"/>
     <use xlink:href="#HiraginoSans-W4-7d9a" transform="translate(299.999954 0)"/>
     <use xlink:href="#HiraginoSans-W4-6027" transform="translate(399.999939 0)"/>
     <use xlink:href="#HiraginoSans-W4-30fb" transform="translate(499.999924 0)"/>
     <use xlink:href="#HiraginoSans-W4-43" transform="translate(599.999908 0)"/>
     <use xlink:href="#HiraginoSans-W4-61" transform="translate(676.599899 0)"/>
     <use xlink:href="#HiraginoSans-W4-75" transform="translate(735.799896 0)"/>
     <use xlink:href="#HiraginoSans-W4-63" transform="translate(799.19989 0)"/>
     <use xlink:href="#HiraginoSans-W4-68" transform="translate(858.299881 0)"/>
     <use xlink:href="#HiraginoSans-W4-79" transform="translate(921.599869 0)"/>
     <use xlink:href="#HiraginoSans-W4-20" transform="translate(978.999863 0)"/>
     <use xlink:href="#HiraginoSans-W4-30d5" transform="translate(1012.29985 0)"/>
     <use xlink:href="#HiraginoSans-W4-30a3" transform="translate(1112.299835 0)"/>
     <use xlink:href="#HiraginoSans-W4-30eb" transform="translate(1212.29982 0)"/>
     <use xlink:href="#HiraginoSans-W4-30bf" transform="translate(1312.299805 0)"/>
     <use xlink:href="#HiraginoSans-W4-30fc" transform="translate(1412.299789 0)"/>
    </g>
   </g>
   <g id="text_7">
    <!-- TopologicalSpace -->
    <g style="fill: #7030a0" transform="translate(175.973203 392.946769) scale(0.11 -0.11)">
     <defs>
      <path id="HiraginoSans-W7-54" d="M 2899 4128 
L 3667 4128 
C 4128 4128 4371 4115 4634 4083 
L 4634 5114 
C 4371 5082 4115 5069 3667 5069 
L 1005 5069 
C 634 5069 352 5082 96 5114 
L 96 4083 
C 352 4115 627 4128 1011 4128 
L 1824 4128 
L 1824 762 
C 1824 390 1811 141 1773 -134 
L 2950 -134 
C 2912 141 2899 397 2899 762 
L 2899 4128 
z
" transform="scale(0.015625)"/>
      <path id="HiraginoSans-W7-6c" d="M 371 5069 
C 410 4819 422 4589 422 4173 
L 422 762 
C 422 339 410 147 371 -134 
L 1491 -134 
C 1459 166 1446 397 1446 762 
L 1446 4173 
C 1446 4582 1459 4813 1491 5069 
L 371 5069 
z
" transform="scale(0.015625)"/>
      <path id="HiraginoSans-W7-67" d="M 294 -659 
C 736 -1152 1229 -1344 2035 -1344 
C 2701 -1344 3258 -1197 3590 -928 
C 3974 -614 4147 -134 4147 640 
L 4147 2810 
C 4147 3174 4160 3366 4198 3654 
L 3155 3654 
L 3155 3443 
C 3155 3373 3155 3328 3162 3277 
C 2867 3590 2496 3731 1965 3731 
C 1549 3731 1203 3622 902 3405 
C 442 3066 205 2547 205 1882 
C 205 768 877 58 1926 58 
C 2464 58 2854 218 3162 563 
C 3136 128 3091 -58 2963 -243 
C 2803 -467 2470 -595 2048 -595 
C 1626 -595 1299 -442 1069 -141 
L 294 -659 
z
M 1229 1882 
C 1229 2534 1587 2963 2138 2963 
C 2707 2963 3123 2515 3123 1901 
C 3123 1498 2957 1171 2656 992 
C 2496 890 2285 832 2106 832 
C 1888 832 1651 928 1504 1075 
C 1318 1261 1229 1530 1229 1882 
z
" transform="scale(0.015625)"/>
     </defs>
     <use xlink:href="#HiraginoSans-W7-54"/>
     <use xlink:href="#HiraginoSans-W7-6f" transform="translate(73.899994 0)"/>
     <use xlink:href="#HiraginoSans-W7-70" transform="translate(142.999985 0)"/>
     <use xlink:href="#HiraginoSans-W7-6f" transform="translate(216.699966 0)"/>
     <use xlink:href="#HiraginoSans-W7-6c" transform="translate(285.799957 0)"/>
     <use xlink:href="#HiraginoSans-W7-6f" transform="translate(314.899948 0)"/>
     <use xlink:href="#HiraginoSans-W7-67" transform="translate(383.999939 0)"/>
     <use xlink:href="#HiraginoSans-W7-69" transform="translate(455.299927 0)"/>
     <use xlink:href="#HiraginoSans-W7-63" transform="translate(484.499924 0)"/>
     <use xlink:href="#HiraginoSans-W7-61" transform="translate(549.299911 0)"/>
     <use xlink:href="#HiraginoSans-W7-6c" transform="translate(615.699905 0)"/>
     <use xlink:href="#HiraginoSans-W7-53" transform="translate(644.799896 0)"/>
     <use xlink:href="#HiraginoSans-W7-70" transform="translate(718.599884 0)"/>
     <use xlink:href="#HiraginoSans-W7-61" transform="translate(792.299866 0)"/>
     <use xlink:href="#HiraginoSans-W7-63" transform="translate(858.69986 0)"/>
     <use xlink:href="#HiraginoSans-W7-65" transform="translate(923.499847 0)"/>
    </g>
   </g>
   <g id="text_8">
    <!-- 開集合・nhds フィルター -->
    <g style="fill: #7030a0" transform="translate(177.228281 416.581931) scale(0.09 -0.09)">
     <defs>
      <path id="HiraginoSans-W4-958b" d="M 2342 2349 
C 2342 2022 2336 1920 2317 1613 
L 2118 1613 
C 1811 1613 1651 1619 1485 1645 
L 1485 1197 
C 1658 1222 1818 1229 2118 1229 
L 2285 1229 
C 2208 659 2016 339 1510 -38 
C 1677 -134 1766 -211 1888 -352 
C 2426 115 2630 512 2714 1229 
L 3610 1229 
L 3610 256 
C 3610 -13 3603 -160 3578 -294 
L 4077 -294 
C 4051 -173 4045 -32 4045 250 
L 4045 1229 
L 4301 1229 
C 4589 1229 4755 1222 4928 1197 
L 4928 1645 
C 4762 1619 4602 1613 4301 1613 
L 4045 1613 
L 4045 2349 
L 4218 2349 
C 4493 2349 4672 2342 4832 2323 
L 4832 2758 
C 4646 2733 4506 2726 4205 2726 
L 2227 2726 
C 1926 2726 1792 2733 1606 2758 
L 1606 2323 
C 1766 2342 1946 2349 2221 2349 
L 2342 2349 
z
M 3610 2349 
L 3610 1613 
L 2752 1613 
C 2771 1933 2771 1990 2771 2349 
L 3610 2349 
z
M 1062 3174 
L 2278 3174 
C 2554 3174 2726 3168 2912 3155 
C 2899 3322 2893 3475 2893 3744 
L 2893 4582 
C 2893 4826 2899 5005 2912 5190 
C 2733 5171 2579 5165 2259 5165 
L 1229 5165 
C 902 5165 736 5171 563 5190 
C 582 4986 589 4800 589 4480 
L 589 275 
C 589 -90 576 -288 550 -467 
L 1101 -467 
C 1075 -301 1062 -90 1062 269 
L 1062 3174 
z
M 1062 4800 
L 2451 4800 
L 2451 4358 
L 1062 4358 
L 1062 4800 
z
M 1062 4000 
L 2451 4000 
L 2451 3539 
L 1062 3539 
L 1062 4000 
z
M 5830 4480 
C 5830 4774 5837 4960 5862 5190 
C 5683 5171 5523 5165 5190 5165 
L 4090 5165 
C 3763 5165 3610 5171 3437 5190 
C 3450 4986 3456 4813 3456 4582 
L 3456 3744 
C 3456 3482 3450 3322 3437 3155 
C 3616 3168 3814 3174 4070 3174 
L 5357 3174 
L 5357 250 
C 5357 102 5312 70 5126 70 
C 4954 70 4672 96 4435 134 
C 4518 -45 4544 -154 4570 -352 
C 4851 -365 5011 -371 5152 -371 
C 5677 -371 5830 -243 5830 211 
L 5830 4480 
z
M 3898 4800 
L 5357 4800 
L 5357 4358 
L 3898 4358 
L 3898 4800 
z
M 3898 4000 
L 5357 4000 
L 5357 3539 
L 3898 3539 
L 3898 4000 
z
" transform="scale(0.015625)"/>
      <path id="HiraginoSans-W4-96c6" d="M 3526 2778 
L 4864 2778 
C 5165 2778 5299 2771 5453 2746 
L 5453 3174 
C 5254 3149 5146 3142 4864 3142 
L 3526 3142 
L 3526 3565 
L 4864 3565 
C 5165 3565 5280 3558 5453 3533 
L 5453 3962 
C 5261 3936 5139 3930 4864 3930 
L 3526 3930 
L 3526 4352 
L 5190 4352 
C 5446 4352 5574 4346 5734 4326 
L 5734 4774 
C 5555 4749 5421 4742 5139 4742 
L 3584 4742 
C 3693 4890 3802 5056 3962 5338 
L 3450 5434 
C 3373 5184 3277 5005 3085 4742 
L 1766 4742 
C 1837 4832 1971 5030 2176 5338 
L 1645 5446 
C 1600 5306 1523 5158 1427 5005 
C 1094 4486 723 4109 205 3744 
C 339 3597 384 3539 486 3341 
C 781 3571 941 3725 1158 3974 
C 1139 3789 1133 3584 1133 3366 
L 1133 2374 
C 1133 2195 1126 2042 1114 1920 
C 1242 1933 1338 1933 1581 1933 
L 2950 1933 
L 2950 1498 
L 1069 1498 
C 704 1498 531 1504 365 1536 
L 365 1050 
C 576 1075 774 1088 1069 1088 
L 2554 1088 
C 2330 890 2093 730 1766 563 
C 1299 326 877 192 262 83 
C 403 -77 467 -186 550 -378 
C 1005 -262 1389 -122 1741 45 
C 2253 294 2598 531 2970 915 
C 2957 819 2950 557 2950 448 
L 2950 -19 
C 2950 -237 2938 -346 2912 -486 
L 3456 -486 
C 3424 -365 3418 -275 3418 -13 
L 3418 448 
C 3418 576 3411 678 3398 922 
C 3789 544 4051 358 4486 128 
C 4915 -96 5286 -243 5843 -403 
C 5946 -179 5990 -109 6125 64 
C 5197 250 4384 608 3802 1088 
L 5325 1088 
C 5626 1088 5830 1075 6048 1050 
L 6048 1536 
C 5875 1504 5696 1498 5325 1498 
L 3418 1498 
L 3418 1933 
L 5165 1933 
C 5453 1933 5581 1926 5760 1901 
L 5760 2336 
C 5587 2310 5446 2304 5165 2304 
L 3526 2304 
L 3526 2778 
z
M 3078 2778 
L 3078 2304 
L 1600 2304 
L 1600 2778 
L 3078 2778 
z
M 3078 3142 
L 1600 3142 
L 1600 3565 
L 3078 3565 
L 3078 3142 
z
M 3078 3930 
L 1600 3930 
L 1600 4352 
L 3078 4352 
L 3078 3930 
z
" transform="scale(0.015625)"/>
      <path id="HiraginoSans-W4-5408" d="M 1677 2899 
C 1824 2918 1990 2925 2189 2925 
L 4186 2925 
C 4429 2925 4595 2918 4736 2899 
L 4736 3411 
C 5178 3104 5498 2918 5958 2701 
C 6042 2899 6112 3014 6234 3187 
C 5626 3424 5056 3750 4518 4186 
C 4019 4582 3731 4890 3456 5318 
L 2893 5318 
C 2630 4883 2381 4595 1926 4211 
C 1402 3763 832 3424 198 3162 
C 358 2989 422 2893 493 2720 
C 966 2938 1203 3078 1677 3398 
L 1677 2899 
z
M 2195 3386 
C 1971 3386 1811 3392 1690 3411 
C 2355 3878 2733 4256 3187 4890 
C 3597 4320 4032 3898 4730 3411 
C 4595 3392 4435 3386 4186 3386 
L 2195 3386 
z
M 1690 -435 
L 1690 -77 
L 4698 -77 
L 4698 -435 
L 5242 -435 
C 5216 -243 5203 -58 5203 205 
L 5203 1645 
C 5203 1901 5210 2067 5235 2240 
C 5101 2221 4960 2214 4723 2214 
L 1664 2214 
C 1427 2214 1286 2221 1152 2240 
C 1178 2061 1184 1888 1184 1645 
L 1184 205 
C 1184 -51 1171 -230 1146 -435 
L 1690 -435 
z
M 1690 1766 
L 4698 1766 
L 4698 371 
L 1690 371 
L 1690 1766 
z
" transform="scale(0.015625)"/>
      <path id="HiraginoSans-W4-6e" d="M 1114 0 
C 1082 256 1069 474 1069 755 
L 1069 2010 
C 1139 2272 1222 2426 1395 2630 
C 1658 2944 1933 3085 2266 3085 
C 2752 3085 3002 2797 3002 2234 
L 3002 755 
C 3002 454 2989 269 2957 0 
L 3629 0 
C 3597 218 3584 416 3584 749 
L 3584 2323 
C 3584 2662 3520 2912 3392 3110 
C 3181 3418 2816 3584 2349 3584 
C 1779 3584 1376 3360 1056 2867 
C 1069 3027 1069 3059 1069 3142 
L 1069 3520 
L 442 3520 
C 480 3264 493 3078 493 2765 
L 493 755 
C 493 429 480 256 442 0 
L 1114 0 
z
" transform="scale(0.015625)"/>
      <path id="HiraginoSans-W4-73" d="M 262 973 
C 326 704 378 589 480 448 
C 730 109 1184 -70 1786 -70 
C 2707 -70 3270 339 3270 1011 
C 3270 1293 3136 1555 2912 1722 
C 2720 1862 2483 1946 1894 2074 
C 1510 2157 1357 2208 1210 2285 
C 1075 2355 998 2483 998 2624 
C 998 2944 1312 3162 1760 3162 
C 2042 3162 2259 3078 2400 2925 
C 2483 2835 2515 2758 2554 2598 
L 3155 2688 
C 3066 2982 2982 3136 2810 3283 
C 2573 3494 2208 3610 1754 3610 
C 1299 3610 941 3494 698 3258 
C 518 3091 416 2861 416 2618 
C 416 2310 557 2054 819 1888 
C 1043 1747 1261 1677 1760 1574 
C 2246 1466 2349 1440 2490 1350 
C 2618 1274 2682 1139 2682 973 
C 2682 621 2342 397 1818 397 
C 1504 397 1267 474 1107 614 
C 986 730 934 832 890 1069 
L 262 973 
z
" transform="scale(0.015625)"/>
     </defs>
     <use xlink:href="#HiraginoSans-W4-958b"/>
     <use xlink:href="#HiraginoSans-W4-96c6" transform="translate(99.999985 0)"/>
     <use xlink:href="#HiraginoSans-W4-5408" transform="translate(199.999969 0)"/>
     <use xlink:href="#HiraginoSans-W4-30fb" transform="translate(299.999954 0)"/>
     <use xlink:href="#HiraginoSans-W4-6e" transform="translate(399.999939 0)"/>
     <use xlink:href="#HiraginoSans-W4-68" transform="translate(463.399933 0)"/>
     <use xlink:href="#HiraginoSans-W4-64" transform="translate(526.699921 0)"/>
     <use xlink:href="#HiraginoSans-W4-73" transform="translate(592.999908 0)"/>
     <use xlink:href="#HiraginoSans-W4-20" transform="translate(648.299896 0)"/>
     <use xlink:href="#HiraginoSans-W4-30d5" transform="translate(681.599884 0)"/>
     <use xlink:href="#HiraginoSans-W4-30a3" transform="translate(781.599869 0)"/>
     <use xlink:href="#HiraginoSans-W4-30eb" transform="translate(881.599854 0)"/>
     <use xlink:href="#HiraginoSans-W4-30bf" transform="translate(981.599838 0)"/>
     <use xlink:href="#HiraginoSans-W4-30fc" transform="translate(1081.599823 0)"/>
    </g>
   </g>
   <g id="patch_6">
    <path d="M 230.4 134.400509 
Q 230.4 143.485889 230.4 150.335201 
" style="fill: none; stroke: #c00000; stroke-width: 2; stroke-linecap: round"/>
    <path d="M 232.4 146.335201 
L 230.4 150.335201 
L 228.4 146.335201 
z
" style="fill: #c00000; stroke: #c00000; stroke-width: 2; stroke-linecap: round"/>
   </g>
   <g id="text_9">
    <!-- extends -->
    <g style="fill: #c00000" transform="translate(248.256 143.488012) scale(0.09 -0.09)">
     <defs>
      <path id="HiraginoSans-W4-65" d="M 3578 1651 
C 3558 1971 3546 2106 3533 2170 
C 3405 3066 2797 3610 1933 3610 
C 934 3610 282 2880 282 1760 
C 282 621 941 -96 1978 -96 
C 2470 -96 2880 64 3187 371 
C 3341 518 3424 646 3546 915 
L 3008 1114 
C 2944 928 2899 845 2803 742 
C 2605 512 2323 390 1984 390 
C 1613 390 1312 531 1114 800 
C 947 1024 883 1235 858 1651 
L 3578 1651 
z
M 877 2118 
C 915 2349 947 2451 1037 2605 
C 1229 2944 1542 3130 1920 3130 
C 2221 3130 2464 3040 2656 2854 
C 2842 2669 2938 2451 2976 2118 
L 877 2118 
z
" transform="scale(0.015625)"/>
      <path id="HiraginoSans-W4-74" d="M 851 4480 
C 877 4262 896 4006 896 3750 
L 896 3520 
L 646 3520 
C 378 3520 250 3526 70 3558 
L 70 2995 
C 275 3021 416 3034 640 3034 
L 896 3034 
L 896 787 
C 896 461 954 269 1094 134 
C 1235 6 1466 -64 1773 -64 
C 2042 -64 2246 -26 2515 83 
L 2374 602 
C 2176 486 2048 448 1875 448 
C 1741 448 1632 486 1568 544 
C 1504 608 1478 698 1478 883 
L 1478 3034 
L 1779 3034 
C 2074 3034 2221 3027 2426 2995 
L 2426 3558 
C 2214 3526 2074 3520 1773 3520 
L 1478 3520 
L 1478 3750 
C 1478 4026 1498 4275 1523 4480 
L 851 4480 
z
" transform="scale(0.015625)"/>
     </defs>
     <use xlink:href="#HiraginoSans-W4-65"/>
     <use xlink:href="#HiraginoSans-W4-78" transform="translate(60.199997 0)"/>
     <use xlink:href="#HiraginoSans-W4-74" transform="translate(116.099991 0)"/>
     <use xlink:href="#HiraginoSans-W4-65" transform="translate(156.599976 0)"/>
     <use xlink:href="#HiraginoSans-W4-6e" transform="translate(216.799973 0)"/>
     <use xlink:href="#HiraginoSans-W4-64" transform="translate(280.199966 0)"/>
     <use xlink:href="#HiraginoSans-W4-73" transform="translate(346.499954 0)"/>
    </g>
   </g>
   <g id="patch_7">
    <path d="M 230.4 236.410109 
Q 230.4 245.495489 230.4 252.344801 
" style="fill: none; stroke: #2e75b6; stroke-width: 2; stroke-linecap: round"/>
    <path d="M 232.4 248.344801 
L 230.4 252.344801 
L 228.4 248.344801 
z
" style="fill: #2e75b6; stroke: #2e75b6; stroke-width: 2; stroke-linecap: round"/>
   </g>
   <g id="text_10">
    <!-- extends -->
    <g style="fill: #2e75b6" transform="translate(248.256 245.497612) scale(0.09 -0.09)">
     <use xlink:href="#HiraginoSans-W4-65"/>
     <use xlink:href="#HiraginoSans-W4-78" transform="translate(60.199997 0)"/>
     <use xlink:href="#HiraginoSans-W4-74" transform="translate(116.099991 0)"/>
     <use xlink:href="#HiraginoSans-W4-65" transform="translate(156.599976 0)"/>
     <use xlink:href="#HiraginoSans-W4-6e" transform="translate(216.799973 0)"/>
     <use xlink:href="#HiraginoSans-W4-64" transform="translate(280.199966 0)"/>
     <use xlink:href="#HiraginoSans-W4-73" transform="translate(346.499954 0)"/>
    </g>
   </g>
   <g id="patch_8">
    <path d="M 230.4 338.419709 
Q 230.4 347.505089 230.4 354.354401 
" style="fill: none; stroke: #538135; stroke-width: 2; stroke-linecap: round"/>
    <path d="M 232.4 350.354401 
L 230.4 354.354401 
L 228.4 350.354401 
z
" style="fill: #538135; stroke: #538135; stroke-width: 2; stroke-linecap: round"/>
   </g>
   <g id="text_11">
    <!-- extends -->
    <g style="fill: #538135" transform="translate(248.256 347.507212) scale(0.09 -0.09)">
     <use xlink:href="#HiraginoSans-W4-65"/>
     <use xlink:href="#HiraginoSans-W4-78" transform="translate(60.199997 0)"/>
     <use xlink:href="#HiraginoSans-W4-74" transform="translate(116.099991 0)"/>
     <use xlink:href="#HiraginoSans-W4-65" transform="translate(156.599976 0)"/>
     <use xlink:href="#HiraginoSans-W4-6e" transform="translate(216.799973 0)"/>
     <use xlink:href="#HiraginoSans-W4-64" transform="translate(280.199966 0)"/>
     <use xlink:href="#HiraginoSans-W4-73" transform="translate(346.499954 0)"/>
    </g>
   </g>
   <g id="text_12">
    <!-- MetricSpace の継承図（Lean 4） -->
    <g transform="translate(125.339687 18.172812) scale(0.13 -0.13)">
     <defs>
      <path id="HiraginoSans-W4-4d" d="M 5018 806 
C 5018 480 4998 211 4966 0 
L 5638 0 
C 5600 230 5587 422 5587 806 
L 5587 4122 
C 5587 4486 5600 4672 5638 4934 
L 4774 4934 
C 4736 4723 4672 4531 4557 4262 
L 3059 838 
L 1562 4262 
C 1466 4486 1389 4730 1344 4934 
L 480 4934 
C 518 4691 531 4467 531 4122 
L 531 806 
C 531 442 518 243 480 0 
L 1152 0 
C 1114 224 1101 442 1101 806 
L 1101 3059 
C 1101 3251 1082 3776 1056 4243 
C 1242 3667 1293 3533 1478 3117 
L 2534 723 
C 2669 435 2752 186 2784 0 
L 3322 0 
C 3386 250 3443 422 3578 717 
L 4666 3155 
C 4883 3648 4960 3846 5062 4237 
C 5043 3949 5018 3334 5018 3104 
L 5018 806 
z
" transform="scale(0.015625)"/>
      <path id="HiraginoSans-W4-72" d="M 2784 3520 
C 2522 3565 2394 3578 2195 3578 
C 1862 3578 1568 3488 1350 3315 
C 1242 3238 1165 3142 1056 2976 
C 1062 3027 1062 3040 1069 3085 
C 1069 3104 1069 3117 1069 3130 
C 1069 3162 1069 3181 1069 3187 
L 1069 3520 
L 442 3520 
C 474 3283 486 3104 486 2765 
L 486 755 
C 486 467 480 314 442 0 
L 1114 0 
C 1082 262 1069 448 1069 755 
L 1069 2022 
C 1101 2317 1158 2470 1312 2669 
C 1504 2912 1760 3034 2093 3034 
C 2259 3034 2381 3014 2618 2938 
L 2784 3520 
z
" transform="scale(0.015625)"/>
      <path id="HiraginoSans-W4-69" d="M 442 4934 
L 442 4294 
L 1152 4294 
L 1152 4934 
L 442 4934 
z
M 454 3520 
C 486 3296 499 3085 499 2765 
L 499 755 
C 499 461 486 282 454 0 
L 1133 0 
C 1101 269 1088 448 1088 755 
L 1088 2758 
C 1088 3104 1101 3290 1133 3520 
L 454 3520 
z
" transform="scale(0.015625)"/>
      <path id="HiraginoSans-W4-53" d="M 333 1414 
C 397 966 474 755 659 518 
C 960 128 1510 -83 2234 -83 
C 3360 -83 4013 454 4013 1382 
C 4013 1805 3872 2118 3565 2355 
C 3347 2534 3027 2662 2534 2765 
C 1811 2918 1786 2931 1619 2995 
C 1274 3136 1101 3360 1101 3680 
C 1101 4166 1536 4499 2170 4499 
C 2566 4499 2880 4378 3078 4147 
C 3194 4006 3245 3885 3290 3642 
L 3936 3725 
C 3866 4051 3795 4224 3648 4416 
C 3354 4813 2842 5024 2182 5024 
C 1152 5024 486 4486 486 3661 
C 486 3213 678 2874 1056 2643 
C 1280 2502 1536 2413 1952 2317 
C 2765 2138 2822 2125 3027 2010 
C 3258 1882 3386 1651 3386 1350 
C 3386 787 2944 448 2221 448 
C 1760 448 1389 602 1184 870 
C 1062 1043 1011 1184 992 1485 
L 333 1414 
z
" transform="scale(0.015625)"/>
      <path id="HiraginoSans-W4-70" d="M 1101 -1312 
C 1069 -1075 1056 -877 1056 -550 
L 1056 128 
C 1056 301 1050 397 1037 570 
C 1363 154 1792 -51 2349 -51 
C 3334 -51 3968 659 3968 1773 
C 3968 2906 3354 3590 2336 3590 
C 1766 3590 1344 3379 1037 2944 
C 1050 3078 1050 3117 1050 3194 
L 1050 3520 
L 442 3520 
C 474 3277 486 3078 486 2752 
L 486 -557 
C 486 -845 474 -1056 442 -1312 
L 1101 -1312 
z
M 2272 442 
C 1952 442 1626 570 1421 781 
C 1197 1005 1062 1376 1062 1766 
C 1062 2547 1555 3091 2278 3091 
C 2976 3091 3373 2611 3373 1773 
C 3373 941 2957 442 2272 442 
z
" transform="scale(0.015625)"/>
      <path id="HiraginoSans-W4-306e" d="M 3053 422 
C 3200 243 3245 160 3328 -96 
C 3821 6 4090 90 4397 237 
C 5293 666 5798 1459 5798 2451 
C 5798 3802 4832 4698 3379 4698 
C 2509 4698 1792 4403 1274 3834 
C 832 3347 589 2707 589 2042 
C 589 1107 1062 422 1709 422 
C 2189 422 2573 806 2938 1645 
C 3238 2323 3469 3264 3578 4205 
C 3891 4186 4070 4141 4294 4032 
C 4902 3738 5242 3174 5242 2477 
C 5242 1734 4870 1107 4230 768 
C 3917 602 3610 512 3053 422 
z
M 3027 4192 
C 2944 3398 2714 2483 2458 1888 
C 2195 1286 1952 992 1702 992 
C 1370 992 1114 1453 1114 2035 
C 1114 2797 1491 3501 2112 3891 
C 2394 4077 2656 4160 3027 4192 
z
" transform="scale(0.015625)"/>
      <path id="HiraginoSans-W4-7d99" d="M 666 2592 
C 461 2592 403 2592 282 2611 
L 346 2118 
C 442 2131 499 2138 614 2144 
C 1146 2176 1146 2176 1293 2189 
L 1293 141 
C 1293 -115 1280 -288 1254 -499 
L 1766 -499 
C 1741 -314 1728 -128 1728 141 
L 1728 2227 
C 1952 2253 1978 2253 2234 2291 
C 2272 2163 2285 2106 2330 1926 
L 2701 2093 
C 2541 2592 2413 2899 2182 3322 
L 1856 3168 
C 1978 2938 2016 2861 2093 2675 
C 1709 2637 1498 2618 1203 2605 
C 1446 2893 1830 3411 2099 3821 
C 2381 4243 2387 4262 2477 4378 
L 2054 4614 
C 1984 4416 1952 4358 1651 3891 
C 1440 3558 1440 3558 1395 3494 
C 1299 3635 1248 3699 1069 3910 
C 1293 4237 1459 4525 1677 4947 
C 1734 5062 1773 5120 1818 5190 
L 1357 5402 
C 1293 5114 1082 4659 800 4218 
C 710 4320 685 4346 563 4480 
L 314 4109 
C 717 3693 845 3533 1133 3123 
C 934 2848 922 2835 730 2592 
L 666 2592 
z
M 4307 2790 
C 4058 2170 3706 1677 3200 1229 
C 3366 1088 3392 1062 3507 877 
C 3968 1370 4186 1722 4454 2381 
C 4429 2150 4416 1978 4416 1747 
L 4416 1094 
C 4416 832 4410 685 4384 512 
L 4877 512 
C 4851 678 4845 813 4845 1101 
L 4845 1760 
C 4845 2042 4838 2157 4806 2394 
C 5146 1690 5402 1318 5901 851 
C 5971 1024 6048 1152 6170 1299 
C 5626 1702 5286 2118 4947 2790 
L 5478 2790 
C 5741 2790 5888 2784 6042 2758 
L 6042 3238 
C 5882 3213 5741 3206 5478 3206 
L 4845 3206 
L 4845 4730 
C 4845 4979 4851 5088 4877 5274 
L 4384 5274 
C 4410 5088 4416 4960 4416 4730 
L 4416 3206 
L 3885 3206 
C 3680 3206 3552 3213 3392 3232 
L 3392 2765 
C 3546 2784 3667 2790 3885 2790 
L 4307 2790 
z
M 582 1856 
C 531 1082 442 563 256 64 
L 659 -122 
C 832 422 922 909 992 1786 
L 582 1856 
z
M 1946 1728 
C 2048 1299 2112 864 2150 250 
L 2534 339 
C 2432 1197 2413 1318 2304 1830 
L 1946 1728 
z
M 3392 4730 
C 3590 4314 3712 3955 3834 3437 
L 4211 3622 
C 4077 4128 3974 4410 3763 4890 
L 3392 4730 
z
M 5510 4909 
C 5395 4390 5274 4058 5030 3610 
L 5382 3411 
C 5613 3834 5760 4179 5926 4723 
L 5510 4909 
z
M 3194 307 
L 3194 4602 
C 3194 4864 3200 4979 3226 5165 
L 2707 5165 
C 2733 4986 2739 4838 2739 4595 
L 2739 218 
C 2739 -64 2726 -269 2701 -474 
L 3194 -474 
L 3194 -128 
L 5440 -128 
C 5702 -128 5926 -141 6118 -166 
L 6118 346 
C 5965 320 5754 307 5491 307 
L 3194 307 
z
" transform="scale(0.015625)"/>
      <path id="HiraginoSans-W4-627f" d="M 5741 3821 
C 5517 3462 5229 3142 4870 2829 
C 4736 3283 4691 3520 4646 3898 
L 4192 3770 
C 4211 3686 4224 3654 4237 3571 
C 4435 2720 4544 2342 4723 1875 
C 5018 1146 5293 723 5920 38 
C 6048 230 6138 333 6304 474 
C 5670 1024 5318 1542 5024 2362 
C 5363 2656 5754 3046 6048 3379 
C 6086 3424 6093 3430 6118 3462 
L 5741 3821 
z
M 2982 2240 
L 2534 2240 
C 2310 2240 2202 2246 2048 2266 
L 2048 1830 
C 2214 1856 2323 1862 2534 1862 
L 2982 1862 
L 2982 1306 
L 2221 1306 
C 1984 1306 1862 1312 1728 1338 
L 1728 877 
C 1869 902 2029 909 2259 909 
L 2982 909 
L 2982 224 
C 2982 70 2938 38 2694 38 
C 2445 38 2170 64 1824 122 
C 1888 -32 1914 -134 1946 -371 
C 2214 -390 2419 -397 2662 -397 
C 3002 -397 3155 -378 3251 -307 
C 3379 -230 3430 -102 3430 128 
L 3430 909 
L 4179 909 
C 4403 909 4550 902 4691 877 
L 4691 1338 
C 4570 1312 4454 1306 4218 1306 
L 3430 1306 
L 3430 1862 
L 3936 1862 
C 4160 1862 4250 1856 4403 1830 
L 4403 2266 
C 4269 2246 4166 2240 3936 2240 
L 3430 2240 
L 3430 2739 
L 3840 2739 
C 4006 2739 4147 2733 4275 2714 
L 4275 3149 
C 4141 3130 4019 3123 3840 3123 
L 3430 3123 
L 3430 3622 
C 4000 3930 4506 4256 4858 4538 
C 5018 4672 5101 4736 5126 4755 
L 4864 5088 
C 4717 5062 4576 5056 4256 5056 
L 1946 5056 
C 1619 5056 1402 5069 1190 5094 
L 1190 4595 
C 1395 4621 1594 4634 1946 4634 
L 4288 4634 
C 3898 4333 3642 4173 3136 3910 
L 2957 3910 
C 2976 3744 2982 3616 2982 3366 
L 2982 3123 
L 2605 3123 
C 2426 3123 2304 3130 2163 3149 
L 2163 2714 
C 2291 2733 2438 2739 2605 2739 
L 2982 2739 
L 2982 2240 
z
M 1926 3635 
C 1824 3610 1728 3603 1542 3603 
L 864 3603 
C 608 3603 499 3610 352 3635 
L 352 3142 
C 493 3168 614 3174 845 3174 
L 1594 3174 
C 1459 2470 1293 1971 1050 1530 
C 806 1075 512 710 128 403 
C 256 333 358 230 506 6 
C 934 442 1222 832 1459 1293 
C 1702 1773 1824 2138 2067 3136 
C 2106 3290 2118 3328 2144 3398 
L 1926 3635 
z
" transform="scale(0.015625)"/>
      <path id="HiraginoSans-W4-56f3" d="M 4960 979 
C 4422 1350 4077 1574 3635 1830 
C 4122 2342 4493 2899 4870 3661 
C 4947 3814 4973 3859 5030 3949 
L 4550 4186 
C 4378 3552 3834 2675 3226 2048 
C 2656 2349 2349 2490 1626 2784 
L 1363 2406 
C 2016 2163 2394 1997 2886 1728 
C 2426 1338 2054 1114 1414 838 
C 1549 723 1638 621 1754 448 
C 2438 794 2848 1075 3296 1498 
C 3853 1158 4128 966 4666 550 
L 4960 979 
z
M 2662 2950 
C 2438 3450 2310 3661 1984 4083 
L 1587 3866 
C 1926 3424 2035 3238 2253 2714 
L 2662 2950 
z
M 3750 3238 
C 3558 3738 3430 3974 3149 4384 
L 2746 4198 
C 3027 3789 3168 3514 3334 3027 
L 3750 3238 
z
M 1037 -493 
L 1037 -115 
L 5357 -115 
L 5357 -493 
L 5888 -493 
C 5862 -307 5850 -109 5850 288 
L 5850 4307 
C 5850 4634 5856 4832 5888 5088 
C 5645 5062 5466 5056 5126 5056 
L 1261 5056 
C 928 5056 749 5062 512 5088 
C 538 4838 550 4621 550 4307 
L 550 301 
C 550 -102 538 -307 512 -493 
L 1037 -493 
z
M 1037 4614 
L 5357 4614 
L 5357 320 
L 1037 320 
L 1037 4614 
z
" transform="scale(0.015625)"/>
      <path id="HiraginoSans-W4-4c" d="M 3085 0 
C 3475 0 3661 -6 3878 -38 
L 3878 589 
C 3622 557 3437 544 3085 544 
L 1139 544 
L 1139 4128 
C 1139 4512 1152 4685 1190 4934 
L 480 4934 
C 518 4704 531 4493 531 4122 
L 531 768 
C 531 435 518 218 480 -13 
C 717 0 883 0 1216 0 
L 3085 0 
z
" transform="scale(0.015625)"/>
      <path id="HiraginoSans-W4-34" d="M 179 1210 
C 403 1229 589 1235 954 1235 
L 2688 1235 
L 2688 710 
C 2688 410 2675 218 2630 0 
L 3309 0 
C 3270 230 3258 390 3258 704 
L 3258 1235 
L 3494 1235 
C 3763 1235 3910 1222 4154 1190 
L 4154 1798 
C 3917 1766 3750 1754 3494 1754 
L 3258 1754 
L 3258 3853 
C 3258 4358 3264 4544 3296 4934 
L 2701 4934 
C 2560 4704 2445 4550 2214 4269 
L 621 2298 
C 467 2099 326 1939 179 1773 
L 179 1210 
z
M 2688 1747 
L 858 1747 
L 2259 3514 
C 2464 3763 2592 3936 2720 4128 
C 2694 3814 2688 3622 2688 3283 
L 2688 1747 
z
" transform="scale(0.015625)"/>
     </defs>
     <use xlink:href="#HiraginoSans-W4-4d"/>
     <use xlink:href="#HiraginoSans-W4-65" transform="translate(95.699982 0)"/>
     <use xlink:href="#HiraginoSans-W4-74" transform="translate(155.899979 0)"/>
     <use xlink:href="#HiraginoSans-W4-72" transform="translate(196.399963 0)"/>
     <use xlink:href="#HiraginoSans-W4-69" transform="translate(241.09996 0)"/>
     <use xlink:href="#HiraginoSans-W4-63" transform="translate(265.899948 0)"/>
     <use xlink:href="#HiraginoSans-W4-53" transform="translate(324.999939 0)"/>
     <use xlink:href="#HiraginoSans-W4-70" transform="translate(393.199921 0)"/>
     <use xlink:href="#HiraginoSans-W4-61" transform="translate(459.599915 0)"/>
     <use xlink:href="#HiraginoSans-W4-63" transform="translate(518.799911 0)"/>
     <use xlink:href="#HiraginoSans-W4-65" transform="translate(577.899902 0)"/>
     <use xlink:href="#HiraginoSans-W4-20" transform="translate(638.099899 0)"/>
     <use xlink:href="#HiraginoSans-W4-306e" transform="translate(671.399887 0)"/>
     <use xlink:href="#HiraginoSans-W4-7d99" transform="translate(771.399872 0)"/>
     <use xlink:href="#HiraginoSans-W4-627f" transform="translate(871.399857 0)"/>
     <use xlink:href="#HiraginoSans-W4-56f3" transform="translate(971.399841 0)"/>
     <use xlink:href="#HiraginoSans-W4-ff08" transform="translate(1071.399826 0)"/>
     <use xlink:href="#HiraginoSans-W4-4c" transform="translate(1171.399811 0)"/>
     <use xlink:href="#HiraginoSans-W4-65" transform="translate(1232.699799 0)"/>
     <use xlink:href="#HiraginoSans-W4-61" transform="translate(1292.899796 0)"/>
     <use xlink:href="#HiraginoSans-W4-6e" transform="translate(1352.099792 0)"/>
     <use xlink:href="#HiraginoSans-W4-20" transform="translate(1415.499786 0)"/>
     <use xlink:href="#HiraginoSans-W4-34" transform="translate(1448.799774 0)"/>
     <use xlink:href="#HiraginoSans-W4-ff09" transform="translate(1516.299759 0)"/>
    </g>
   </g>
  </g>
 </g>
 <defs>
  <clipPath id="p05cd57aa96">
   <rect x="7.2" y="28.172812" width="446.4" height="443.52"/>
  </clipPath>
 </defs>
</svg>
