<?xml version="1.0" encoding="utf-8" standalone="no"?>
<!DOCTYPE svg PUBLIC "-//W3C//DTD SVG 1.1//EN"
  "http://www.w3.org/Graphics/SVG/1.1/DTD/svg11.dtd">
<svg xmlns:xlink="http://www.w3.org/1999/xlink" width="795.6pt" height="480.713125pt" viewBox="0 0 795.6 480.713125" xmlns="http://www.w3.org/2000/svg" version="1.1">
 <metadata>
  <rdf:RDF xmlns:dc="http://purl.org/dc/elements/1.1/" xmlns:cc="http://creativecommons.org/ns#" xmlns:rdf="http://www.w3.org/1999/02/22-rdf-syntax-ns#">
   <cc:Work>
    <dc:type rdf:resource="http://purl.org/dc/dcmitype/StillImage"/>
    <dc:date>2026-04-02T01:10:16.929182</dc:date>
    <dc:format>image/svg+xml</dc:format>
    <dc:creator>
     <cc:Agent>
      <dc:title>Matplotlib v3.10.8, https://matplotlib.org/</dc:title>
     </cc:Agent>
    </dc:creator>
   </cc:Work>
  </rdf:RDF>
 </metadata>
 <defs>
  <style type="text/css">*{stroke-linejoin: round; stroke-linecap: butt}</style>
 </defs>
 <g id="figure_1">
  <g id="patch_1">
   <path d="M 0 480.713125 
L 795.6 480.713125 
L 795.6 0 
L 0 0 
z
" style="fill: #ffffff"/>
  </g>
  <g id="axes_1">
   <g id="patch_2">
    <path d="M 146.7 163.049125 
L 648.9 163.049125 
Q 660.06 163.049125 660.06 151.961125 
L 660.06 52.169125 
Q 660.06 41.081125 648.9 41.081125 
L 146.7 41.081125 
Q 135.54 41.081125 135.54 52.169125 
L 135.54 151.961125 
Q 135.54 163.049125 146.7 163.049125 
z
" clip-path="url(#pd53050e9c1)" style="fill: #fff2cc; stroke: #c9a800; stroke-width: 3; stroke-linejoin: miter"/>
   </g>
   <g id="patch_3">
    <path d="M 51.84 390.353125 
L 208.08 390.353125 
Q 219.24 390.353125 219.24 379.265125 
L 219.24 290.561125 
Q 219.24 279.473125 208.08 279.473125 
L 51.84 279.473125 
Q 40.68 279.473125 40.68 290.561125 
L 40.68 379.265125 
Q 40.68 390.353125 51.84 390.353125 
z
" clip-path="url(#pd53050e9c1)" style="fill: #deeaf1; stroke: #2e75b6; stroke-width: 2; stroke-linejoin: miter"/>
   </g>
   <g id="patch_4">
    <path d="M 319.68 390.353125 
L 475.92 390.353125 
Q 487.08 390.353125 487.08 379.265125 
L 487.08 290.561125 
Q 487.08 279.473125 475.92 279.473125 
L 319.68 279.473125 
Q 308.52 279.473125 308.52 290.561125 
L 308.52 379.265125 
Q 308.52 390.353125 319.68 390.353125 
z
" clip-path="url(#pd53050e9c1)" style="fill: #e2efda; stroke: #538135; stroke-width: 2; stroke-linejoin: miter"/>
   </g>
   <g id="patch_5">
    <path d="M 587.52 390.353125 
L 743.76 390.353125 
Q 754.92 390.353125 754.92 379.265125 
L 754.92 290.561125 
Q 754.92 279.473125 743.76 279.473125 
L 587.52 279.473125 
Q 576.36 279.473125 576.36 290.561125 
L 576.36 379.265125 
Q 576.36 390.353125 587.52 390.353125 
z
" clip-path="url(#pd53050e9c1)" style="fill: #ffcccc; stroke: #c00000; stroke-width: 2; stroke-linejoin: miter"/>
   </g>
   <g id="patch_6">
    <path d="M 314.1 456.881125 
L 481.5 456.881125 
Q 492.66 456.881125 492.66 445.793125 
L 492.66 379.265125 
Q 492.66 368.177125 481.5 368.177125 
L 314.1 368.177125 
Q 302.94 368.177125 302.94 379.265125 
L 302.94 445.793125 
Q 302.94 456.881125 314.1 456.881125 
z
" clip-path="url(#pd53050e9c1)" style="fill: #ead1f5; stroke: #7030a0; stroke-width: 2; stroke-linejoin: miter"/>
   </g>
   <g id="text_1">
    <!-- Banach 不動点定理 -->
    <g style="fill: #7f5f00" transform="translate(336.133281 94.766422) scale(0.13 -0.13)">
     <defs>
      <path id="HiraginoSans-W7-42" d="M 2963 -134 
C 4058 -134 4666 378 4666 1299 
C 4666 1728 4531 2054 4262 2298 
C 4096 2445 3936 2522 3642 2598 
C 3878 2688 3994 2746 4122 2867 
C 4365 3085 4486 3379 4486 3782 
C 4486 4608 3910 5069 2893 5069 
L 1299 5069 
C 819 5069 749 5069 429 5088 
C 467 4800 480 4544 480 4224 
L 480 749 
C 480 314 467 128 429 -154 
C 698 -141 883 -134 1306 -134 
L 2963 -134 
z
M 1530 3002 
L 1530 4186 
L 2746 4186 
C 3187 4186 3424 3981 3424 3603 
C 3424 3232 3174 3002 2752 3002 
L 1530 3002 
z
M 1530 2138 
L 2790 2138 
C 3290 2138 3571 1894 3571 1453 
C 3571 1011 3290 755 2803 755 
L 1530 755 
L 1530 2138 
z
" transform="scale(0.015625)"/>
      <path id="HiraginoSans-W7-61" d="M 2842 -134 
L 3878 -134 
C 3846 154 3834 346 3834 717 
L 3834 2451 
C 3834 2912 3750 3162 3533 3366 
C 3251 3635 2822 3763 2195 3763 
C 1594 3763 1133 3642 813 3392 
C 589 3219 467 3046 333 2675 
L 1344 2509 
C 1414 2688 1472 2778 1587 2861 
C 1709 2950 1939 3008 2189 3008 
C 2624 3008 2842 2854 2842 2541 
L 2842 2285 
C 2029 2259 1837 2240 1466 2163 
C 672 1984 237 1549 237 928 
C 237 589 365 294 602 96 
C 832 -109 1158 -205 1613 -205 
C 2131 -205 2458 -96 2842 198 
L 2842 -134 
z
M 2842 1357 
C 2842 1133 2765 973 2579 813 
C 2381 646 2067 538 1792 538 
C 1446 538 1254 685 1254 954 
C 1254 1197 1408 1370 1702 1459 
C 1990 1549 2259 1581 2842 1600 
L 2842 1357 
z
" transform="scale(0.015625)"/>
      <path id="HiraginoSans-W7-6e" d="M 1485 -134 
C 1446 179 1434 416 1434 762 
L 1434 2061 
C 1709 2541 2106 2835 2483 2835 
C 2637 2835 2765 2797 2861 2726 
C 3014 2611 3066 2464 3066 2131 
L 3066 762 
C 3066 403 3053 166 3014 -134 
L 4134 -134 
C 4096 128 4083 371 4083 762 
L 4083 2374 
C 4083 3245 3610 3731 2758 3731 
C 2214 3731 1811 3552 1414 3142 
C 1421 3264 1427 3347 1427 3398 
L 1427 3654 
L 371 3654 
C 410 3411 422 3168 422 2758 
L 422 762 
C 422 390 410 154 371 -134 
L 1485 -134 
z
" transform="scale(0.015625)"/>
      <path id="HiraginoSans-W7-63" d="M 3917 2541 
C 3840 2765 3789 2886 3693 3034 
C 3373 3526 2835 3789 2150 3789 
C 1587 3789 1114 3610 774 3270 
C 416 2912 211 2368 211 1760 
C 211 1152 410 602 762 243 
C 1088 -90 1581 -269 2150 -269 
C 2835 -269 3360 -32 3686 429 
C 3808 602 3878 755 3962 1011 
L 2989 1184 
C 2950 1030 2925 954 2861 870 
C 2720 659 2477 544 2189 544 
C 1606 544 1242 1018 1242 1773 
C 1242 2528 1587 2982 2170 2982 
C 2426 2982 2630 2893 2778 2707 
C 2854 2611 2893 2528 2950 2330 
L 3917 2541 
z
" transform="scale(0.015625)"/>
      <path id="HiraginoSans-W7-68" d="M 1485 -134 
C 1446 179 1434 416 1434 762 
L 1434 2061 
C 1734 2573 2099 2835 2490 2835 
C 2650 2835 2771 2803 2861 2733 
C 3014 2624 3066 2464 3066 2131 
L 3066 762 
C 3066 403 3053 166 3014 -134 
L 4134 -134 
C 4096 128 4083 371 4083 762 
L 4083 2374 
C 4083 3245 3610 3731 2758 3731 
C 2208 3731 1811 3552 1414 3142 
C 1421 3264 1427 3341 1427 3398 
L 1427 4173 
C 1427 4602 1440 4806 1478 5069 
L 371 5069 
C 410 4826 422 4582 422 4173 
L 422 762 
C 422 390 410 154 371 -134 
L 1485 -134 
z
" transform="scale(0.015625)"/>
      <path id="HiraginoSans-W7-20" transform="scale(0.015625)"/>
      <path id="HiraginoSans-W7-4e0d" d="M 3040 4307 
C 2784 3859 2566 3578 2195 3194 
C 1594 2573 986 2125 154 1702 
C 390 1427 544 1190 659 922 
C 1165 1222 1491 1453 1811 1702 
C 2208 2022 2509 2317 2726 2592 
C 2720 2298 2720 2240 2720 2061 
L 2720 314 
C 2720 0 2707 -294 2675 -550 
L 3635 -550 
C 3603 -294 3590 -19 3590 307 
L 3590 2726 
C 4198 2003 4858 1466 5786 915 
C 5946 1248 6086 1478 6291 1741 
C 5818 1952 5446 2189 4979 2560 
C 4614 2854 4365 3098 4058 3450 
L 3590 2912 
L 3590 3578 
C 3853 3942 3910 4038 4051 4307 
L 5216 4307 
C 5504 4307 5850 4294 6118 4269 
L 6118 5152 
C 5907 5120 5594 5107 5197 5107 
L 1210 5107 
C 864 5107 563 5120 282 5152 
L 282 4269 
C 570 4294 947 4307 1235 4307 
L 3040 4307 
z
" transform="scale(0.015625)"/>
      <path id="HiraginoSans-W7-52d5" d="M 1632 4365 
L 890 4365 
C 614 4365 467 4371 282 4397 
L 282 3731 
C 474 3750 614 3757 890 3757 
L 1632 3757 
L 1632 3520 
L 1101 3520 
C 819 3520 646 3526 461 3539 
C 480 3354 486 3251 486 2950 
L 486 2112 
C 486 1811 480 1677 461 1510 
C 646 1517 787 1523 1101 1523 
L 1632 1523 
L 1632 1280 
L 1005 1280 
C 710 1280 576 1286 390 1306 
L 390 653 
C 570 672 787 678 998 678 
L 1632 678 
L 1632 371 
C 1254 358 781 346 634 346 
C 442 346 358 346 230 358 
L 358 -422 
C 531 -403 646 -390 755 -384 
C 1882 -307 1914 -307 3430 -160 
C 3616 -339 3674 -410 3802 -589 
C 4064 -230 4160 -70 4314 256 
C 4397 19 4429 -154 4442 -448 
C 4538 -454 4742 -454 4973 -454 
C 5466 -454 5702 -326 5805 6 
C 5958 467 6029 1306 6054 2944 
C 6074 3898 6074 3917 6099 4173 
C 5920 4154 5773 4147 5485 4147 
L 4947 4147 
C 4947 4525 4954 4794 4954 4832 
C 4954 5120 4966 5242 4992 5382 
L 4122 5382 
C 4154 5203 4160 5120 4160 4544 
C 4160 4346 4160 4282 4160 4147 
L 4083 4147 
C 3885 4147 3789 4154 3680 4173 
L 3680 3354 
C 3827 3373 3917 3379 4141 3379 
C 4070 1926 3910 1197 3488 480 
C 2707 416 2707 416 2355 397 
L 2355 678 
L 3091 678 
C 3296 678 3392 672 3501 646 
L 3501 1299 
C 3334 1286 3213 1280 2886 1280 
L 2355 1280 
L 2355 1523 
L 2938 1523 
C 3251 1523 3392 1523 3507 1510 
C 3501 1658 3501 1658 3494 2086 
L 3494 2976 
C 3494 3296 3494 3405 3514 3533 
C 3366 3520 3290 3520 2989 3520 
L 2355 3520 
L 2355 3757 
L 3117 3757 
C 3392 3757 3456 3750 3552 3738 
L 3552 4390 
C 3392 4371 3258 4365 2950 4365 
L 2355 4365 
L 2355 4666 
C 3040 4749 3040 4749 3219 4774 
C 3277 4787 3309 4794 3322 4794 
C 3456 4813 3456 4813 3494 4819 
C 3539 4826 3546 4826 3584 4826 
L 3155 5446 
C 2752 5267 1638 5146 314 5139 
C 442 4909 499 4774 570 4557 
C 1018 4570 1184 4576 1632 4608 
L 1632 4365 
z
M 1632 3008 
L 1632 2765 
L 1184 2765 
L 1184 3008 
L 1632 3008 
z
M 2355 3008 
L 2810 3008 
L 2810 2765 
L 2355 2765 
L 2355 3008 
z
M 1632 2278 
L 1632 2035 
L 1184 2035 
L 1184 2278 
L 1632 2278 
z
M 2355 2278 
L 2810 2278 
L 2810 2035 
L 2355 2035 
L 2355 2278 
z
M 5306 3379 
C 5267 1696 5254 1440 5184 941 
C 5120 403 5062 320 4800 320 
C 4704 320 4550 333 4365 358 
C 4717 1171 4870 1971 4922 3379 
L 5306 3379 
z
" transform="scale(0.015625)"/>
      <path id="HiraginoSans-W7-70b9" d="M 3520 4064 
L 5197 4064 
C 5478 4064 5683 4051 5907 4026 
L 5907 4845 
C 5709 4819 5504 4806 5197 4806 
L 3520 4806 
L 3520 4858 
C 3520 5107 3533 5248 3558 5402 
L 2618 5402 
C 2643 5222 2656 5030 2656 4781 
L 2656 3533 
L 1670 3533 
C 1344 3533 1133 3539 941 3558 
C 960 3373 966 3238 966 3008 
L 966 1722 
C 966 1523 960 1389 947 1229 
C 1120 1242 1293 1248 1530 1248 
L 4845 1248 
C 5082 1248 5254 1242 5440 1229 
C 5427 1363 5421 1510 5421 1734 
L 5421 3008 
C 5421 3238 5427 3398 5446 3558 
C 5280 3539 5069 3533 4717 3533 
L 3520 3533 
L 3520 4064 
z
M 4595 2790 
L 4595 1997 
L 1798 1997 
L 1798 2790 
L 4595 2790 
z
M 947 -563 
C 1318 -32 1434 211 1658 941 
L 909 1190 
C 742 627 563 288 192 -154 
L 947 -563 
z
M 2912 -461 
C 2893 122 2880 275 2758 998 
L 2016 922 
C 2067 493 2093 160 2093 -218 
C 2093 -352 2093 -378 2086 -557 
L 2912 -461 
z
M 4474 -333 
C 4326 198 4224 525 4000 1075 
L 3290 915 
C 3469 403 3571 -6 3674 -570 
L 4474 -333 
z
M 6112 -186 
C 5779 499 5670 691 5344 1203 
L 4627 928 
C 4947 390 5062 147 5306 -544 
L 6112 -186 
z
" transform="scale(0.015625)"/>
      <path id="HiraginoSans-W7-5b9a" d="M 2893 608 
C 2490 787 2266 986 2016 1402 
C 2112 1715 2195 2010 2272 2330 
L 1434 2483 
C 1395 2086 1210 1498 998 1101 
C 781 698 563 403 218 70 
C 512 -141 666 -294 870 -563 
C 1235 -173 1453 147 1696 627 
C 1971 256 2291 13 2714 -160 
C 3149 -333 3795 -416 4698 -416 
C 5043 -416 5427 -410 5978 -397 
C 6016 -51 6061 134 6176 461 
C 5472 403 5062 384 4640 384 
C 4256 384 3987 397 3693 429 
L 3693 1376 
L 4870 1376 
C 5171 1376 5325 1370 5517 1344 
L 5517 2144 
C 5338 2118 5190 2112 4870 2112 
L 3693 2112 
L 3693 2816 
L 4646 2816 
C 4954 2816 5126 2810 5312 2784 
L 5312 3264 
L 6029 3264 
C 6003 3443 5997 3603 5997 3795 
L 5997 4346 
C 5997 4531 6003 4666 6022 4832 
C 5773 4813 5542 4806 5286 4806 
L 3603 4806 
L 3603 4998 
C 3603 5165 3610 5261 3635 5402 
L 2714 5402 
C 2739 5261 2746 5158 2746 4992 
L 2746 4806 
L 1126 4806 
C 870 4806 640 4813 390 4832 
C 410 4672 416 4512 416 4346 
L 416 3802 
C 416 3565 410 3424 384 3264 
L 1114 3264 
L 1114 2784 
C 1293 2810 1485 2816 1779 2816 
L 2893 2816 
L 2893 608 
z
M 5203 3571 
C 5043 3558 4883 3552 4646 3552 
L 1779 3552 
C 1536 3552 1376 3558 1222 3571 
L 1222 4051 
L 5203 4051 
L 5203 3571 
z
" transform="scale(0.015625)"/>
      <path id="HiraginoSans-W7-7406" d="M 3789 371 
L 2726 371 
C 2381 371 2240 378 2054 403 
L 2054 -403 
C 2291 -371 2470 -365 2835 -365 
L 5440 -365 
C 5805 -365 5990 -371 6202 -403 
L 6202 403 
C 6029 378 5856 371 5504 371 
L 4550 371 
L 4550 864 
L 5306 864 
C 5645 864 5805 858 5997 832 
L 5997 1619 
C 5818 1594 5670 1587 5299 1587 
L 4550 1587 
L 4550 2042 
L 5286 2042 
C 5664 2042 5760 2042 5952 2022 
C 5926 2221 5920 2438 5920 2899 
L 5920 4307 
C 5920 4710 5933 5030 5952 5216 
C 5792 5190 5600 5184 5120 5184 
L 3322 5184 
C 2899 5184 2707 5190 2432 5216 
C 2464 4998 2470 4794 2470 4333 
L 2470 2842 
C 2470 2432 2464 2170 2438 2022 
C 2618 2035 2778 2042 3200 2042 
L 3789 2042 
L 3789 1587 
L 3123 1587 
C 2720 1587 2592 1594 2438 1613 
L 2438 838 
C 2605 858 2739 864 3130 864 
L 3789 864 
L 3789 371 
z
M 3789 4448 
L 3789 3930 
L 3232 3930 
L 3232 4448 
L 3789 4448 
z
M 4550 4448 
L 5126 4448 
L 5126 3930 
L 4550 3930 
L 4550 4448 
z
M 3789 3283 
L 3789 2752 
L 3232 2752 
L 3232 3283 
L 3789 3283 
z
M 4550 3283 
L 5126 3283 
L 5126 2752 
L 4550 2752 
L 4550 3283 
z
M 915 4371 
L 915 3245 
L 787 3245 
C 582 3245 480 3251 326 3270 
L 326 2496 
C 467 2515 582 2522 768 2522 
L 915 2522 
L 915 1126 
C 467 966 397 947 179 902 
L 378 38 
C 435 70 467 83 512 102 
C 1389 461 1773 627 2298 890 
L 2285 1696 
C 2016 1562 1926 1523 1709 1434 
L 1709 2522 
L 1805 2522 
C 1952 2522 2080 2515 2208 2502 
L 2208 3270 
C 2067 3251 1971 3245 1805 3245 
L 1709 3245 
L 1709 4371 
L 1850 4371 
C 2022 4371 2157 4365 2310 4346 
L 2310 5146 
C 2150 5126 1978 5114 1722 5114 
L 845 5114 
C 589 5114 403 5126 250 5146 
L 250 4346 
C 410 4365 531 4371 710 4371 
L 915 4371 
z
" transform="scale(0.015625)"/>
     </defs>
     <use xlink:href="#HiraginoSans-W7-42"/>
     <use xlink:href="#HiraginoSans-W7-61" transform="translate(77.399994 0)"/>
     <use xlink:href="#HiraginoSans-W7-6e" transform="translate(143.799988 0)"/>
     <use xlink:href="#HiraginoSans-W7-61" transform="translate(213.999969 0)"/>
     <use xlink:href="#HiraginoSans-W7-63" transform="translate(280.399963 0)"/>
     <use xlink:href="#HiraginoSans-W7-68" transform="translate(345.199951 0)"/>
     <use xlink:href="#HiraginoSans-W7-20" transform="translate(415.399933 0)"/>
     <use xlink:href="#HiraginoSans-W7-4e0d" transform="translate(448.699921 0)"/>
     <use xlink:href="#HiraginoSans-W7-52d5" transform="translate(548.699905 0)"/>
     <use xlink:href="#HiraginoSans-W7-70b9" transform="translate(648.69989 0)"/>
     <use xlink:href="#HiraginoSans-W7-5b9a" transform="translate(748.699875 0)"/>
     <use xlink:href="#HiraginoSans-W7-7406" transform="translate(848.69986 0)"/>
    </g>
   </g>
   <g id="text_2">
    <!-- T: X→X 縮小写像, X 完備  ⟹  唯一の不動点 -->
    <g style="fill: #7f5f00" transform="translate(294.585156 127.070812) scale(0.1 -0.1)">
     <defs>
      <path id="HiraginoSans-W4-54" d="M 2419 4397 
L 3354 4397 
C 3744 4397 3949 4384 4166 4352 
L 4166 4979 
C 3955 4947 3763 4934 3354 4934 
L 851 4934 
C 499 4934 333 4947 83 4979 
L 83 4352 
C 294 4384 518 4397 858 4397 
L 1818 4397 
L 1818 755 
C 1818 435 1798 192 1766 0 
L 2470 0 
C 2432 237 2419 435 2419 755 
L 2419 4397 
z
" transform="scale(0.015625)"/>
      <path id="HiraginoSans-W4-3a" d="M 1165 3520 
L 442 3520 
L 442 2797 
L 1165 2797 
L 1165 3520 
z
M 1165 0 
L 1165 723 
L 442 723 
L 442 0 
L 1165 0 
z
" transform="scale(0.015625)"/>
      <path id="HiraginoSans-W4-20" transform="scale(0.015625)"/>
      <path id="HiraginoSans-W4-58" d="M 2381 2189 
L 3392 666 
C 3539 454 3622 307 3795 0 
L 4659 0 
C 4346 390 4186 602 4064 781 
L 2765 2611 
L 3904 4224 
C 4109 4512 4256 4704 4442 4934 
L 3603 4934 
C 3520 4749 3456 4634 3232 4294 
L 2400 3021 
L 1536 4294 
C 1363 4550 1248 4749 1165 4934 
L 326 4934 
C 506 4710 691 4467 858 4230 
L 2010 2611 
L 704 768 
C 570 589 480 467 122 0 
L 973 0 
C 1075 198 1216 435 1376 672 
L 2381 2189 
z
" transform="scale(0.015625)"/>
      <path id="HiraginoSans-W4-2192" d="M 4358 3597 
C 4518 3424 4518 3424 4826 3078 
C 4883 3008 4922 2970 5318 2579 
L 403 2579 
L 403 2298 
L 5318 2298 
C 5184 2150 5120 2093 4998 1965 
C 4826 1792 4826 1792 4666 1619 
C 4499 1446 4493 1440 4358 1299 
L 4506 1126 
C 5114 1696 5427 1939 6157 2438 
C 5216 3104 5216 3104 4506 3744 
L 4358 3597 
z
" transform="scale(0.015625)"/>
      <path id="HiraginoSans-W4-7e2e" d="M 602 2605 
L 512 2605 
C 390 2605 339 2605 243 2624 
L 294 2131 
C 410 2157 410 2157 1210 2227 
L 1210 230 
C 1210 -128 1203 -294 1171 -486 
L 1677 -486 
C 1651 -320 1645 -134 1645 230 
L 1645 2266 
C 1862 2291 1939 2298 2099 2323 
C 2118 2234 2131 2202 2150 2093 
L 2509 2266 
C 2400 2650 2259 3008 2086 3360 
L 1754 3226 
C 1862 3008 1888 2938 1978 2694 
C 1773 2669 1619 2656 1133 2624 
C 1491 3066 1882 3616 2208 4147 
C 2304 4314 2342 4365 2400 4448 
L 1965 4678 
C 1875 4422 1734 4160 1338 3552 
C 1242 3693 1203 3744 1037 3955 
C 1229 4250 1325 4422 1606 4947 
C 1690 5107 1690 5107 1728 5178 
L 1280 5382 
C 1222 5114 1030 4698 768 4275 
C 685 4371 640 4416 525 4550 
L 282 4179 
C 570 3878 890 3482 1088 3181 
C 934 2957 934 2957 666 2605 
L 602 2605 
z
M 4013 4710 
L 3046 4710 
C 2765 4710 2586 4717 2458 4730 
C 2477 4621 2483 4538 2483 4346 
L 2483 3949 
C 2483 3808 2477 3661 2458 3533 
L 2931 3533 
L 2931 4301 
L 5626 4301 
L 5626 3789 
C 5517 3782 5459 3782 5344 3782 
L 4269 3782 
C 4064 3782 3942 3789 3763 3814 
L 3763 3347 
C 3904 3373 4051 3379 4262 3379 
L 4602 3379 
C 4563 3168 4499 2938 4410 2707 
L 4333 2707 
C 4070 2707 3936 2714 3763 2726 
C 3782 2541 3789 2413 3789 2144 
L 3789 115 
C 3789 -141 3782 -269 3757 -474 
L 4211 -474 
L 4211 -166 
L 5466 -166 
L 5466 -480 
L 5933 -480 
C 5907 -288 5894 -122 5894 122 
L 5894 2131 
C 5894 2406 5901 2554 5920 2726 
C 5760 2714 5587 2707 5331 2707 
L 4858 2707 
C 4928 2906 4986 3098 5050 3379 
L 5363 3379 
C 5562 3379 5722 3373 5862 3347 
L 5862 3750 
L 6099 3750 
C 6086 3853 6080 3949 6080 4109 
L 6080 4365 
C 6080 4518 6086 4627 6099 4742 
C 5946 4717 5747 4710 5440 4710 
L 4480 4710 
L 4480 4838 
C 4480 5062 4486 5197 4518 5331 
L 3981 5331 
C 4006 5197 4013 5069 4013 4845 
L 4013 4710 
z
M 4211 2304 
L 5466 2304 
L 5466 1510 
L 4211 1510 
L 4211 2304 
z
M 4211 1114 
L 5466 1114 
L 5466 243 
L 4211 243 
L 4211 1114 
z
M 525 1862 
C 486 1139 403 640 224 102 
L 614 -83 
C 774 442 838 845 922 1792 
L 525 1862 
z
M 1875 1747 
C 1997 1235 2061 806 2106 250 
L 2490 365 
C 2419 934 2355 1312 2227 1843 
L 1875 1747 
z
M 2880 243 
C 2880 -109 2874 -282 2848 -474 
L 3334 -474 
C 3315 -288 3309 -154 3309 282 
L 3309 2822 
C 3552 3437 3552 3437 3699 3923 
L 3258 4058 
C 3162 3590 3053 3258 2874 2880 
C 2682 2490 2573 2317 2349 2048 
C 2445 1933 2509 1837 2598 1664 
C 2752 1869 2797 1939 2918 2170 
C 2886 1894 2880 1715 2880 1408 
L 2880 243 
z
" transform="scale(0.015625)"/>
      <path id="HiraginoSans-W4-5c0f" d="M 2899 5242 
C 2925 5056 2938 4851 2938 4557 
L 2938 269 
C 2938 141 2880 109 2650 109 
C 2400 109 2112 141 1715 211 
C 1798 6 1830 -109 1856 -339 
C 2214 -371 2464 -384 2726 -384 
C 3302 -384 3469 -256 3469 198 
L 3469 4550 
C 3469 4858 3482 5069 3507 5242 
L 2899 5242 
z
M 4410 3712 
C 4410 3699 4435 3616 4480 3469 
L 4595 3066 
C 4902 2042 5229 1370 5818 563 
C 5965 723 6042 794 6259 934 
C 5837 1472 5549 1971 5306 2605 
C 5082 3174 4986 3514 4941 3866 
L 4410 3712 
z
M 1363 3834 
C 1344 3571 1286 3264 1178 2880 
C 954 2099 666 1510 198 896 
C 403 787 512 710 666 576 
C 1248 1427 1498 2010 1811 3309 
C 1862 3501 1888 3603 1914 3693 
L 1363 3834 
z
" transform="scale(0.015625)"/>
      <path id="HiraginoSans-W4-5199" d="M 2323 3808 
C 2394 4102 2445 4282 2464 4358 
L 1926 4416 
C 1920 4301 1914 4205 1882 4045 
C 1734 3354 1555 2771 1242 2010 
L 1760 1971 
L 1869 2272 
L 4416 2272 
C 4378 1894 4365 1773 4333 1523 
L 1094 1523 
C 762 1523 557 1536 384 1562 
L 384 1030 
C 557 1056 762 1069 1094 1069 
L 4256 1069 
C 4166 627 4064 326 3955 186 
C 3878 90 3789 58 3590 58 
C 3290 58 2912 96 2394 186 
C 2483 -51 2502 -122 2534 -326 
C 3021 -384 3302 -403 3610 -403 
C 4096 -403 4301 -288 4474 70 
C 4582 294 4678 634 4755 1069 
L 5338 1069 
C 5638 1069 5850 1056 6061 1030 
L 6061 1562 
C 5869 1530 5696 1523 5338 1523 
L 4826 1523 
C 4870 1901 4890 2061 4902 2298 
C 4915 2432 4941 2637 4960 2720 
C 4787 2694 4608 2688 4320 2688 
L 2010 2688 
C 2099 2957 2138 3104 2214 3386 
L 4397 3386 
C 4723 3386 4909 3379 5088 3354 
L 5088 3840 
C 4909 3814 4768 3808 4397 3808 
L 2323 3808 
z
M 1011 3699 
L 1011 4595 
L 5389 4595 
L 5389 3699 
L 5907 3699 
C 5882 3853 5869 4026 5869 4237 
L 5869 4544 
C 5869 4762 5875 4915 5894 5050 
C 5741 5037 5574 5030 5280 5030 
L 1120 5030 
C 813 5030 653 5037 506 5050 
C 525 4915 531 4762 531 4531 
L 531 4243 
C 531 4026 518 3872 493 3699 
L 1011 3699 
z
" transform="scale(0.015625)"/>
      <path id="HiraginoSans-W4-50cf" d="M 2131 3117 
C 2131 2938 2125 2790 2112 2656 
C 2272 2669 2451 2675 2618 2675 
L 3334 2675 
C 2925 2368 2336 2131 1600 1965 
C 1690 1862 1747 1766 1824 1600 
C 2400 1766 2848 1952 3270 2208 
C 3392 2093 3437 2035 3539 1914 
C 2976 1530 2355 1261 1581 1050 
C 1728 838 1734 832 1811 666 
C 2650 960 3200 1222 3744 1600 
C 3821 1453 3853 1389 3904 1235 
C 3283 762 2496 378 1587 102 
C 1766 -173 1766 -173 1818 -307 
C 2758 45 3424 390 3994 845 
C 4013 710 4019 589 4019 467 
C 4019 64 3936 -32 3590 -32 
C 3411 -32 3258 -19 2995 26 
C 3072 -160 3098 -256 3123 -422 
C 3315 -442 3386 -442 3578 -442 
C 3942 -442 4115 -410 4237 -307 
C 4397 -186 4474 64 4474 435 
C 4474 864 4333 1370 4102 1779 
C 3962 2022 3821 2202 3590 2426 
C 3686 2496 3750 2541 3910 2675 
L 4186 2675 
C 4326 2099 4461 1754 4704 1299 
C 5024 723 5402 307 6016 -154 
C 6118 45 6182 154 6285 294 
C 5734 621 5389 960 5056 1510 
C 5434 1728 5677 1907 6106 2278 
L 5722 2605 
C 5498 2330 5216 2099 4864 1888 
C 4736 2170 4685 2323 4595 2675 
L 5376 2675 
C 5600 2675 5728 2669 5869 2656 
C 5856 2784 5856 2854 5856 3142 
L 5856 3558 
C 5856 3782 5862 3885 5875 4038 
C 5728 4026 5613 4019 5376 4019 
L 4442 4019 
C 4576 4160 4755 4365 4864 4499 
C 4992 4666 4998 4672 5050 4723 
L 4800 4941 
C 4666 4928 4512 4922 4294 4922 
L 3392 4922 
C 3424 4973 3424 4973 3462 5043 
C 3539 5165 3539 5165 3610 5274 
L 3091 5376 
C 2989 5101 2848 4877 2611 4595 
C 2310 4243 2016 3987 1530 3667 
C 1683 3539 1773 3430 1805 3334 
C 1984 3469 2022 3494 2131 3584 
L 2131 3117 
z
M 2643 4019 
C 2835 4198 2970 4346 3123 4544 
L 4339 4544 
C 4211 4352 4070 4186 3898 4019 
L 2643 4019 
z
M 2579 3667 
L 3686 3667 
L 3686 3021 
L 2579 3021 
L 2579 3667 
z
M 4128 3667 
L 5395 3667 
L 5395 3021 
L 4128 3021 
L 4128 3667 
z
M 915 294 
C 915 -58 909 -243 877 -486 
L 1414 -486 
C 1389 -275 1382 -64 1382 301 
L 1382 3744 
C 1549 4096 1690 4442 1837 4864 
C 1926 5107 1926 5114 1978 5248 
L 1446 5382 
C 1421 5158 1357 4915 1216 4550 
C 954 3834 589 3213 147 2714 
C 224 2624 250 2586 294 2483 
C 378 2291 378 2291 403 2234 
C 627 2522 781 2752 934 3059 
C 922 2669 915 2432 915 2144 
L 915 294 
z
" transform="scale(0.015625)"/>
      <path id="HiraginoSans-W4-2c" d="M 1165 723 
L 435 723 
L 435 0 
L 858 0 
C 851 -403 800 -499 493 -614 
L 685 -864 
C 1062 -672 1165 -493 1165 0 
L 1165 723 
z
" transform="scale(0.015625)"/>
      <path id="HiraginoSans-W4-5b8c" d="M 2886 4653 
L 1178 4653 
C 890 4653 710 4659 512 4678 
C 531 4538 538 4422 538 4224 
L 538 3776 
C 538 3578 531 3469 506 3315 
L 1011 3315 
L 1011 4211 
L 5414 4211 
L 5414 3315 
L 5914 3315 
C 5894 3456 5888 3571 5888 3776 
L 5888 4224 
C 5888 4435 5894 4550 5914 4678 
C 5709 4659 5542 4653 5248 4653 
L 3386 4653 
L 3386 4864 
C 3386 5069 3398 5222 3424 5357 
L 2848 5357 
C 2874 5216 2886 5062 2886 4864 
L 2886 4653 
z
M 2150 2029 
C 2131 1818 2118 1728 2099 1600 
C 2029 1126 1792 755 1376 461 
C 1101 269 870 160 314 -13 
C 435 -154 538 -314 614 -480 
C 1011 -320 1235 -218 1414 -115 
C 1856 147 2163 454 2374 870 
C 2547 1210 2605 1453 2650 2029 
L 3507 2029 
L 3507 173 
C 3507 -237 3686 -314 4627 -314 
C 5427 -314 5690 -269 5850 -115 
C 5990 26 6054 282 6074 838 
C 5875 883 5805 909 5600 1011 
C 5606 909 5606 870 5606 794 
C 5606 582 5587 416 5549 333 
C 5485 179 5325 141 4710 141 
C 4096 141 4006 166 4006 339 
L 4006 2029 
L 5286 2029 
C 5568 2029 5766 2016 5939 1990 
L 5939 2509 
C 5766 2483 5587 2470 5293 2470 
L 1126 2470 
C 826 2470 646 2483 474 2509 
L 474 1990 
C 653 2016 845 2029 1126 2029 
L 2150 2029 
z
M 1363 3104 
C 1523 3130 1683 3136 1939 3136 
L 4442 3136 
C 4704 3136 4858 3130 5018 3104 
L 5018 3603 
C 4838 3578 4717 3571 4442 3571 
L 1939 3571 
C 1670 3571 1542 3578 1363 3603 
L 1363 3104 
z
" transform="scale(0.015625)"/>
      <path id="HiraginoSans-W4-5099" d="M 4019 691 
L 4019 320 
C 4019 -19 4006 -186 3981 -378 
L 4467 -378 
C 4442 -211 4435 -38 4435 320 
L 4435 691 
L 5395 691 
L 5395 122 
C 5395 -13 5363 -38 5229 -38 
C 5075 -38 4934 -26 4730 6 
C 4787 -128 4813 -230 4832 -416 
C 5101 -429 5139 -429 5210 -429 
C 5696 -429 5824 -333 5824 26 
L 5824 2214 
C 5824 2579 5830 2765 5850 2925 
C 5683 2899 5536 2893 5210 2893 
L 3309 2893 
C 2970 2893 2848 2899 2656 2912 
C 2675 2720 2682 2598 2682 2240 
L 2682 218 
C 2682 -115 2669 -288 2643 -454 
L 3142 -454 
C 3117 -301 3110 -160 3110 218 
L 3110 691 
L 4019 691 
z
M 4019 1088 
L 3110 1088 
L 3110 1600 
L 4019 1600 
L 4019 1088 
z
M 4435 1088 
L 4435 1600 
L 5395 1600 
L 5395 1088 
L 4435 1088 
z
M 4019 1984 
L 3110 1984 
L 3110 2502 
L 4019 2502 
L 4019 1984 
z
M 4435 1984 
L 4435 2502 
L 5395 2502 
L 5395 1984 
L 4435 1984 
z
M 2925 4333 
L 2925 4237 
C 2925 4090 2918 3974 2899 3872 
L 3411 3872 
C 3398 3968 3392 4064 3392 4237 
L 3392 4333 
L 4416 4333 
L 4416 4237 
C 4416 4083 4410 3987 4390 3872 
L 4902 3872 
C 4890 3974 4883 4058 4883 4237 
L 4883 4333 
L 5434 4333 
C 5696 4333 5882 4326 6061 4301 
L 6061 4781 
C 5920 4755 5690 4742 5434 4742 
L 4883 4742 
L 4883 4934 
C 4883 5133 4890 5242 4909 5357 
L 4384 5357 
C 4410 5248 4416 5139 4416 4934 
L 4416 4742 
L 3392 4742 
L 3392 4934 
C 3392 5126 3398 5248 3418 5357 
L 2893 5357 
C 2912 5254 2925 5139 2925 4934 
L 2925 4742 
L 2528 4742 
C 2298 4742 2099 4755 1920 4774 
L 1920 4301 
C 2080 4326 2227 4333 2528 4333 
L 2925 4333 
z
M 896 288 
C 896 -64 883 -256 858 -493 
L 1389 -493 
C 1370 -282 1363 -70 1363 294 
L 1363 3866 
C 1568 4275 1651 4474 1798 4934 
C 1862 5139 1869 5158 1907 5248 
L 1408 5376 
C 1357 5082 1248 4730 1082 4320 
C 819 3699 512 3187 122 2746 
C 134 2726 141 2714 154 2694 
C 198 2637 218 2605 218 2605 
C 275 2515 275 2515 339 2362 
C 352 2342 365 2310 390 2266 
C 621 2566 774 2810 915 3136 
C 902 2810 896 2509 896 2208 
L 896 288 
z
M 6080 3738 
C 5901 3712 5715 3706 5395 3706 
L 2560 3706 
C 2272 3706 2074 3712 1914 3738 
C 1933 3533 1946 3309 1946 3002 
C 1946 2118 1888 1395 1792 928 
C 1709 518 1619 301 1408 -45 
C 1549 -154 1677 -269 1786 -397 
C 2080 109 2202 506 2298 1274 
C 2362 1786 2387 2336 2394 3296 
L 5440 3296 
C 5683 3296 5901 3283 6080 3270 
L 6080 3738 
z
" transform="scale(0.015625)"/>
      <path id="STIXGeneral-Regular-27f9" d="M 9722 1651 
L 9722 1587 
Q 9536 1446 9149 1158 
Q 8762 870 8528 694 
Q 8294 518 7968 246 
Q 7642 -26 7379 -288 
L 7245 -160 
Q 7450 77 7725 365 
Q 7731 378 7753 400 
Q 7776 422 7785 428 
Q 7795 435 7811 454 
Q 7827 474 7830 483 
Q 7834 493 7843 512 
Q 7853 531 7856 547 
Q 7859 563 7862 582 
Q 7866 602 7866 627 
Q 7866 672 7821 720 
Q 7776 768 7699 768 
L 352 768 
L 352 1190 
L 8621 1190 
Q 8998 1408 8998 1619 
Q 8998 1792 8627 2048 
L 352 2048 
L 352 2470 
L 7699 2470 
Q 7776 2470 7821 2518 
Q 7866 2566 7866 2611 
Q 7866 2733 7718 2880 
Q 7514 3085 7245 3398 
L 7379 3526 
Q 7642 3264 7974 2982 
Q 8307 2701 8508 2547 
Q 8710 2394 9155 2067 
Q 9600 1741 9722 1651 
z
" transform="scale(0.015625)"/>
      <path id="HiraginoSans-W4-552f" d="M 4730 2528 
L 5306 2528 
C 5562 2528 5722 2522 5907 2496 
L 5907 2982 
C 5715 2957 5574 2950 5306 2950 
L 4730 2950 
L 4730 3802 
L 5350 3802 
C 5619 3802 5779 3795 5990 3770 
L 5990 4269 
C 5792 4243 5626 4230 5350 4230 
L 4781 4230 
C 4960 4512 5005 4608 5254 5146 
L 4762 5299 
C 4659 4902 4525 4595 4301 4230 
L 3366 4230 
C 3558 4563 3635 4723 3853 5197 
L 3360 5357 
C 3213 4730 2720 3866 2189 3290 
L 2189 4237 
C 2189 4550 2189 4742 2202 4845 
C 2035 4826 1914 4819 1683 4819 
L 1043 4819 
C 781 4819 640 4826 499 4845 
C 512 4685 525 4480 525 4211 
L 525 1005 
C 525 672 512 448 486 230 
L 979 230 
L 979 973 
L 1741 973 
L 1741 422 
L 2208 422 
C 2189 608 2189 794 2189 1126 
L 2189 3226 
C 2291 3104 2362 3002 2432 2835 
C 2586 3027 2650 3104 2784 3302 
C 2784 3232 2778 3046 2778 2746 
L 2778 179 
C 2778 -102 2765 -288 2739 -486 
L 3232 -486 
L 3232 -192 
L 5440 -192 
C 5715 -192 5901 -205 6106 -230 
L 6106 275 
C 5933 250 5741 237 5446 237 
L 4730 237 
L 4730 1229 
L 5306 1229 
C 5562 1229 5734 1216 5907 1197 
L 5907 1683 
C 5709 1658 5581 1651 5306 1651 
L 4730 1651 
L 4730 2528 
z
M 3232 2528 
L 4288 2528 
L 4288 1651 
L 3232 1651 
L 3232 2528 
z
M 3232 2950 
L 3232 3802 
L 4288 3802 
L 4288 2950 
L 3232 2950 
z
M 3232 1229 
L 4288 1229 
L 4288 237 
L 3232 237 
L 3232 1229 
z
M 979 4384 
L 1741 4384 
L 1741 1408 
L 979 1408 
L 979 4384 
z
" transform="scale(0.015625)"/>
      <path id="HiraginoSans-W4-4e00" d="M 6035 2835 
C 5824 2803 5549 2790 5158 2790 
L 1254 2790 
C 864 2790 595 2803 365 2835 
L 365 2202 
C 595 2234 896 2246 1254 2246 
L 5158 2246 
C 5549 2246 5786 2234 6035 2202 
L 6035 2835 
z
" transform="scale(0.015625)"/>
      <path id="HiraginoSans-W4-306e" d="M 3053 422 
C 3200 243 3245 160 3328 -96 
C 3821 6 4090 90 4397 237 
C 5293 666 5798 1459 5798 2451 
C 5798 3802 4832 4698 3379 4698 
C 2509 4698 1792 4403 1274 3834 
C 832 3347 589 2707 589 2042 
C 589 1107 1062 422 1709 422 
C 2189 422 2573 806 2938 1645 
C 3238 2323 3469 3264 3578 4205 
C 3891 4186 4070 4141 4294 4032 
C 4902 3738 5242 3174 5242 2477 
C 5242 1734 4870 1107 4230 768 
C 3917 602 3610 512 3053 422 
z
M 3027 4192 
C 2944 3398 2714 2483 2458 1888 
C 2195 1286 1952 992 1702 992 
C 1370 992 1114 1453 1114 2035 
C 1114 2797 1491 3501 2112 3891 
C 2394 4077 2656 4160 3027 4192 
z
" transform="scale(0.015625)"/>
      <path id="HiraginoSans-W4-4e0d" d="M 3194 4454 
C 2874 3866 2662 3571 2208 3098 
C 1638 2496 1088 2086 211 1606 
C 384 1427 467 1312 550 1152 
C 1619 1818 2246 2349 2854 3117 
C 2842 2835 2842 2694 2842 2426 
L 2842 243 
C 2842 0 2822 -262 2797 -480 
L 3411 -480 
C 3379 -256 3366 -32 3366 243 
L 3366 3738 
C 3584 4070 3642 4173 3789 4454 
L 5306 4454 
C 5562 4454 5818 4442 6035 4416 
L 6035 4966 
C 5843 4941 5626 4928 5293 4928 
L 1088 4928 
C 800 4928 563 4941 352 4966 
L 352 4416 
C 563 4442 851 4454 1101 4454 
L 3194 4454 
z
M 3610 3110 
C 4294 2266 4941 1722 5888 1190 
C 6010 1408 6093 1530 6227 1670 
C 5760 1888 5350 2138 4941 2464 
C 4576 2752 4320 3008 3968 3443 
L 3610 3110 
z
" transform="scale(0.015625)"/>
      <path id="HiraginoSans-W4-52d5" d="M 1766 4205 
L 922 4205 
C 672 4205 518 4211 346 4237 
L 346 3789 
C 512 3814 653 3821 915 3821 
L 1766 3821 
L 1766 3462 
L 1178 3462 
C 909 3462 736 3469 570 3482 
C 582 3290 589 3232 589 2912 
L 589 2138 
C 589 1824 582 1696 570 1536 
C 736 1549 896 1555 1165 1555 
L 1766 1555 
L 1766 1171 
L 1069 1171 
C 794 1171 640 1178 486 1203 
L 486 749 
C 646 768 870 781 1069 781 
L 1766 781 
L 1766 320 
C 1190 275 806 250 576 250 
C 493 250 410 250 301 262 
L 390 -250 
C 518 -224 570 -218 736 -205 
C 2042 -77 2349 -38 3373 128 
C 3277 19 3238 -26 3110 -154 
C 3290 -243 3482 -378 3546 -467 
C 4058 166 4320 666 4512 1408 
C 4653 1933 4723 2560 4768 3475 
L 5478 3475 
C 5466 1862 5389 755 5261 333 
C 5203 134 5139 96 4896 96 
C 4736 96 4582 115 4250 179 
C 4314 0 4339 -147 4346 -326 
C 4582 -352 4819 -365 4966 -365 
C 5536 -365 5683 -198 5786 557 
C 5875 1216 5907 1766 5939 3277 
C 5952 3661 5958 3802 5978 3949 
C 5792 3930 5651 3923 5395 3923 
L 4781 3923 
C 4787 4653 4787 4653 4794 4768 
C 4794 5011 4800 5146 4832 5267 
L 4288 5267 
C 4326 5082 4333 4986 4333 4474 
C 4333 4256 4326 4134 4320 3923 
L 4141 3923 
C 3898 3923 3763 3930 3610 3949 
L 3610 3443 
C 3789 3469 3930 3475 4186 3475 
L 4307 3475 
C 4275 2694 4211 2144 4090 1645 
C 3942 1056 3706 550 3386 141 
L 3386 531 
C 2765 435 2541 403 2202 365 
L 2202 781 
L 2918 781 
C 3200 781 3296 774 3418 755 
L 3418 1197 
C 3277 1178 3162 1171 2835 1171 
L 2202 1171 
L 2202 1555 
L 2835 1555 
C 3123 1555 3245 1549 3418 1542 
C 3411 1619 3405 1824 3405 2138 
L 3405 2918 
C 3405 3251 3405 3360 3418 3482 
C 3270 3469 3130 3462 2867 3462 
L 2202 3462 
L 2202 3821 
L 3027 3821 
C 3322 3821 3411 3814 3520 3795 
L 3520 4237 
C 3392 4211 3238 4205 2950 4205 
L 2202 4205 
L 2202 4672 
C 2554 4730 2861 4787 3206 4870 
C 3341 4909 3373 4915 3437 4922 
L 3136 5306 
C 2688 5088 1517 4909 429 4890 
C 538 4704 570 4640 608 4506 
C 1069 4531 1363 4563 1766 4608 
L 1766 4205 
z
M 1766 3104 
L 1766 2694 
L 1018 2694 
L 1018 3104 
L 1766 3104 
z
M 2202 3104 
L 2976 3104 
L 2976 2694 
L 2202 2694 
L 2202 3104 
z
M 1766 2336 
L 1766 1914 
L 1018 1914 
L 1018 2336 
L 1766 2336 
z
M 2202 2336 
L 2976 2336 
L 2976 1914 
L 2202 1914 
L 2202 2336 
z
" transform="scale(0.015625)"/>
      <path id="HiraginoSans-W4-70b9" d="M 3341 4122 
L 5114 4122 
C 5350 4122 5542 4109 5766 4083 
L 5766 4602 
C 5587 4576 5402 4563 5114 4563 
L 3341 4563 
L 3341 4736 
C 3341 4973 3354 5165 3386 5331 
L 2790 5331 
C 2822 5152 2835 4941 2835 4704 
L 2835 3341 
L 1850 3341 
C 1555 3341 1325 3354 1126 3373 
C 1146 3206 1152 3072 1152 2874 
L 1152 1805 
C 1152 1632 1146 1498 1126 1338 
C 1318 1357 1498 1363 1773 1363 
L 4640 1363 
C 4922 1363 5088 1357 5286 1338 
C 5267 1491 5261 1606 5261 1811 
L 5261 2874 
C 5261 3085 5267 3232 5286 3373 
C 5107 3347 4915 3341 4570 3341 
L 3341 3341 
L 3341 4122 
z
M 4774 2893 
L 4774 1818 
L 1645 1818 
L 1645 2893 
L 4774 2893 
z
M 749 -474 
C 1126 -19 1331 352 1562 966 
L 1114 1146 
C 1005 806 941 659 781 403 
C 627 147 531 26 294 -205 
L 749 -474 
z
M 2803 -378 
C 2778 109 2733 435 2618 1018 
L 2176 947 
C 2278 410 2304 141 2304 -474 
L 2803 -378 
z
M 4378 -288 
C 4211 211 4070 563 3827 1069 
L 3405 941 
C 3648 397 3776 26 3885 -480 
L 4378 -288 
z
M 5984 -205 
C 5632 429 5504 640 5126 1165 
L 4704 986 
C 5069 474 5242 160 5523 -467 
L 5984 -205 
z
" transform="scale(0.015625)"/>
     </defs>
     <use xlink:href="#HiraginoSans-W4-54"/>
     <use xlink:href="#HiraginoSans-W4-3a" transform="translate(66.399994 0)"/>
     <use xlink:href="#HiraginoSans-W4-20" transform="translate(91.399979 0)"/>
     <use xlink:href="#HiraginoSans-W4-58" transform="translate(124.699966 0)"/>
     <use xlink:href="#HiraginoSans-W4-2192" transform="translate(199.399948 0)"/>
     <use xlink:href="#HiraginoSans-W4-58" transform="translate(299.399933 0)"/>
     <use xlink:href="#HiraginoSans-W4-20" transform="translate(374.099915 0)"/>
     <use xlink:href="#HiraginoSans-W4-7e2e" transform="translate(407.399902 0)"/>
     <use xlink:href="#HiraginoSans-W4-5c0f" transform="translate(507.399887 0)"/>
     <use xlink:href="#HiraginoSans-W4-5199" transform="translate(607.399872 0)"/>
     <use xlink:href="#HiraginoSans-W4-50cf" transform="translate(707.399857 0)"/>
     <use xlink:href="#HiraginoSans-W4-2c" transform="translate(807.399841 0)"/>
     <use xlink:href="#HiraginoSans-W4-20" transform="translate(832.399826 0)"/>
     <use xlink:href="#HiraginoSans-W4-58" transform="translate(865.699814 0)"/>
     <use xlink:href="#HiraginoSans-W4-20" transform="translate(940.399796 0)"/>
     <use xlink:href="#HiraginoSans-W4-5b8c" transform="translate(973.699783 0)"/>
     <use xlink:href="#HiraginoSans-W4-5099" transform="translate(1073.699768 0)"/>
     <use xlink:href="#HiraginoSans-W4-20" transform="translate(1173.699753 0)"/>
     <use xlink:href="#HiraginoSans-W4-20" transform="translate(1206.999741 0)"/>
     <use xlink:href="#STIXGeneral-Regular-27f9" transform="translate(1240.299728 0)"/>
     <use xlink:href="#HiraginoSans-W4-20" transform="translate(1397.699707 0)"/>
     <use xlink:href="#HiraginoSans-W4-20" transform="translate(1430.999695 0)"/>
     <use xlink:href="#HiraginoSans-W4-552f" transform="translate(1464.299683 0)"/>
     <use xlink:href="#HiraginoSans-W4-4e00" transform="translate(1564.299667 0)"/>
     <use xlink:href="#HiraginoSans-W4-306e" transform="translate(1664.299652 0)"/>
     <use xlink:href="#HiraginoSans-W4-4e0d" transform="translate(1764.299637 0)"/>
     <use xlink:href="#HiraginoSans-W4-52d5" transform="translate(1864.299622 0)"/>
     <use xlink:href="#HiraginoSans-W4-70b9" transform="translate(1964.299606 0)"/>
    </g>
   </g>
   <g id="text_3">
    <!-- Cauchy 列 -->
    <g style="fill: #2e75b6" transform="translate(99.527813 321.691125) scale(0.11 -0.11)">
     <defs>
      <path id="HiraginoSans-W7-43" d="M 4928 3578 
C 4838 3923 4742 4128 4557 4371 
C 4154 4902 3533 5178 2733 5178 
C 2042 5178 1472 4973 1056 4576 
C 538 4077 262 3347 262 2477 
C 262 1632 518 896 986 416 
C 1402 -13 2022 -243 2752 -243 
C 3514 -243 4134 0 4512 454 
C 4742 730 4864 998 4992 1510 
L 3878 1690 
C 3834 1408 3782 1274 3680 1120 
C 3482 838 3149 685 2746 685 
C 1888 685 1370 1363 1370 2483 
C 1370 3098 1530 3590 1824 3898 
C 2048 4134 2362 4256 2726 4256 
C 3123 4256 3430 4115 3622 3834 
C 3718 3699 3770 3578 3834 3347 
L 4928 3578 
z
" transform="scale(0.015625)"/>
      <path id="HiraginoSans-W7-75" d="M 3008 3654 
C 3046 3341 3059 3104 3059 2758 
L 3059 1459 
C 2790 986 2381 678 2010 678 
C 1856 678 1728 717 1632 787 
C 1478 902 1427 1050 1427 1389 
L 1427 2758 
C 1427 3117 1440 3354 1478 3654 
L 358 3654 
C 397 3392 410 3149 410 2758 
L 410 1146 
C 410 698 525 371 755 134 
C 986 -96 1325 -218 1734 -218 
C 2278 -218 2682 -38 3072 378 
C 3066 256 3059 173 3059 122 
L 3059 -134 
L 4122 -134 
C 4083 109 4070 352 4070 762 
L 4070 2758 
C 4070 3130 4083 3366 4122 3654 
L 3008 3654 
z
" transform="scale(0.015625)"/>
      <path id="HiraginoSans-W7-79" d="M 1619 179 
L 1459 -173 
C 1357 -384 1190 -486 947 -486 
C 787 -486 672 -454 461 -358 
L 320 -1248 
C 646 -1312 864 -1338 1088 -1338 
C 1754 -1338 2163 -1088 2400 -550 
L 3859 2835 
C 4045 3283 4045 3283 4090 3373 
C 4179 3558 4179 3558 4224 3654 
L 3059 3654 
C 3021 3437 2957 3245 2803 2854 
L 2157 1229 
L 1453 2912 
C 1344 3155 1254 3469 1222 3654 
L 51 3654 
C 128 3501 160 3437 429 2835 
L 1619 179 
z
" transform="scale(0.015625)"/>
      <path id="HiraginoSans-W7-5217" d="M 1907 3840 
C 1965 4058 1984 4141 2035 4429 
L 2784 4429 
C 3053 4429 3251 4422 3482 4403 
L 3482 5197 
C 3277 5171 3072 5158 2765 5158 
L 1062 5158 
C 742 5158 570 5165 358 5197 
L 358 4390 
C 570 4416 755 4429 960 4429 
L 1235 4429 
C 1171 4006 1069 3680 864 3302 
C 653 2912 474 2675 173 2400 
C 371 2138 474 1958 602 1606 
C 832 1850 915 1939 1069 2138 
C 1338 1939 1619 1677 1837 1434 
C 1690 1210 1581 1075 1414 915 
C 1107 614 832 416 384 166 
C 646 -96 736 -218 902 -544 
C 1357 -237 1485 -141 1651 0 
C 1984 282 2291 634 2522 986 
C 2931 1619 3168 2374 3296 3482 
C 3328 3802 3328 3802 3341 3859 
C 3162 3846 3066 3840 2797 3840 
L 1907 3840 
z
M 2451 3130 
C 2381 2675 2336 2483 2202 2157 
C 1926 2413 1792 2522 1466 2752 
C 1542 2893 1581 2970 1651 3130 
L 2451 3130 
z
M 3718 4896 
C 3744 4678 3750 4467 3750 4096 
L 3750 1734 
C 3750 1325 3744 1152 3718 979 
L 4595 979 
C 4570 1165 4563 1331 4563 1754 
L 4563 4096 
C 4563 4499 4570 4685 4595 4896 
L 3718 4896 
z
M 5082 5306 
C 5107 5030 5120 4685 5120 4403 
L 5120 493 
C 5120 333 5075 307 4762 307 
C 4486 307 4250 320 3949 358 
C 4064 102 4115 -115 4154 -486 
C 4531 -499 4634 -499 4742 -499 
C 5734 -499 5933 -358 5933 326 
L 5933 4403 
C 5933 4787 5946 5062 5971 5306 
L 5082 5306 
z
" transform="scale(0.015625)"/>
     </defs>
     <use xlink:href="#HiraginoSans-W7-43"/>
     <use xlink:href="#HiraginoSans-W7-61" transform="translate(81.699982 0)"/>
     <use xlink:href="#HiraginoSans-W7-75" transform="translate(148.099976 0)"/>
     <use xlink:href="#HiraginoSans-W7-63" transform="translate(218.299957 0)"/>
     <use xlink:href="#HiraginoSans-W7-68" transform="translate(283.099945 0)"/>
     <use xlink:href="#HiraginoSans-W7-79" transform="translate(353.299927 0)"/>
     <use xlink:href="#HiraginoSans-W7-20" transform="translate(419.999924 0)"/>
     <use xlink:href="#HiraginoSans-W7-5217" transform="translate(453.299911 0)"/>
    </g>
   </g>
   <g id="text_4">
    <!-- x_n = Tⁿ(x₀) -->
    <g style="fill: #2e75b6" transform="translate(104.006953 354.091844) scale(0.09 -0.09)">
     <defs>
      <path id="HiraginoSans-W4-78" d="M 3469 0 
C 3238 294 3078 512 3008 614 
L 2138 1824 
L 2963 2982 
C 3021 3072 3168 3270 3206 3322 
C 3315 3462 3315 3462 3354 3520 
L 2630 3520 
C 2566 3386 2483 3238 2368 3072 
L 1792 2227 
L 1203 3072 
C 1088 3238 1024 3360 947 3520 
L 211 3520 
C 474 3174 557 3072 608 3002 
L 1440 1830 
L 531 563 
C 422 410 237 160 109 0 
L 858 0 
C 966 205 1018 294 1114 435 
L 1786 1421 
L 2426 486 
C 2566 288 2624 192 2720 0 
L 3469 0 
z
" transform="scale(0.015625)"/>
      <path id="HiraginoSans-W4-5f" d="M 0 -608 
L 0 -902 
L 3213 -902 
L 3213 -608 
L 0 -608 
z
" transform="scale(0.015625)"/>
      <path id="HiraginoSans-W4-6e" d="M 1114 0 
C 1082 256 1069 474 1069 755 
L 1069 2010 
C 1139 2272 1222 2426 1395 2630 
C 1658 2944 1933 3085 2266 3085 
C 2752 3085 3002 2797 3002 2234 
L 3002 755 
C 3002 454 2989 269 2957 0 
L 3629 0 
C 3597 218 3584 416 3584 749 
L 3584 2323 
C 3584 2662 3520 2912 3392 3110 
C 3181 3418 2816 3584 2349 3584 
C 1779 3584 1376 3360 1056 2867 
C 1069 3027 1069 3059 1069 3142 
L 1069 3520 
L 442 3520 
C 480 3264 493 3078 493 2765 
L 493 755 
C 493 429 480 256 442 0 
L 1114 0 
z
" transform="scale(0.015625)"/>
      <path id="HiraginoSans-W4-3d" d="M 333 2720 
L 333 2195 
L 3923 2195 
L 3923 2720 
L 333 2720 
z
M 333 1376 
L 333 851 
L 3923 851 
L 3923 1376 
L 333 1376 
z
" transform="scale(0.015625)"/>
      <path id="HiraginoSans-W4-207f" d="M 762 2566 
C 736 2778 730 2842 730 3034 
L 730 3725 
C 819 4019 1037 4282 1344 4282 
C 1587 4282 1702 4141 1702 3853 
L 1702 3034 
C 1702 2842 1702 2771 1670 2566 
L 2163 2566 
C 2131 2746 2125 2816 2125 3027 
L 2125 3891 
C 2125 4365 1869 4634 1414 4634 
C 1107 4634 902 4525 723 4262 
L 730 4595 
L 282 4595 
C 314 4384 314 4339 314 4134 
L 314 3034 
C 314 2848 314 2752 282 2566 
L 762 2566 
z
" transform="scale(0.015625)"/>
      <path id="HiraginoSans-W4-28" d="M 2195 -749 
C 1830 -198 1683 90 1542 538 
C 1402 986 1331 1472 1331 1978 
C 1331 2483 1402 2963 1542 3411 
C 1683 3859 1830 4147 2195 4698 
L 1715 5018 
C 1350 4461 1197 4173 1037 3712 
C 838 3155 742 2579 742 1978 
C 742 1376 838 794 1037 243 
C 1197 -218 1350 -512 1715 -1062 
L 2195 -749 
z
" transform="scale(0.015625)"/>
      <path id="HiraginoSans-W4-2080" d="M 1280 -64 
C 1978 -64 2355 448 2355 1389 
C 2355 2323 1978 2842 1299 2842 
C 595 2842 218 2336 218 1395 
C 218 448 589 -64 1280 -64 
z
M 1280 2432 
C 1690 2432 1882 2093 1882 1382 
C 1882 691 1683 346 1280 346 
C 896 346 691 710 691 1408 
C 691 1741 742 2003 851 2189 
C 947 2355 1082 2432 1280 2432 
z
" transform="scale(0.015625)"/>
      <path id="HiraginoSans-W4-29" d="M 653 -1062 
C 1018 -512 1171 -218 1331 243 
C 1530 794 1626 1370 1626 1978 
C 1626 2579 1530 3155 1331 3712 
C 1171 4173 1018 4461 653 5018 
L 173 4698 
C 538 4147 685 3859 826 3411 
C 966 2963 1037 2490 1037 1978 
C 1037 1466 966 986 826 538 
C 685 90 538 -198 173 -749 
L 653 -1062 
z
" transform="scale(0.015625)"/>
     </defs>
     <use xlink:href="#HiraginoSans-W4-78"/>
     <use xlink:href="#HiraginoSans-W4-5f" transform="translate(55.899994 0)"/>
     <use xlink:href="#HiraginoSans-W4-6e" transform="translate(106.099991 0)"/>
     <use xlink:href="#HiraginoSans-W4-20" transform="translate(169.499985 0)"/>
     <use xlink:href="#HiraginoSans-W4-3d" transform="translate(202.799973 0)"/>
     <use xlink:href="#HiraginoSans-W4-20" transform="translate(269.199966 0)"/>
     <use xlink:href="#HiraginoSans-W4-54" transform="translate(302.499954 0)"/>
     <use xlink:href="#HiraginoSans-W4-207f" transform="translate(368.899948 0)"/>
     <use xlink:href="#HiraginoSans-W4-28" transform="translate(406.599945 0)"/>
     <use xlink:href="#HiraginoSans-W4-78" transform="translate(443.59993 0)"/>
     <use xlink:href="#HiraginoSans-W4-2080" transform="translate(499.499924 0)"/>
     <use xlink:href="#HiraginoSans-W4-29" transform="translate(539.699921 0)"/>
    </g>
   </g>
   <g id="text_5">
    <!-- 収束 -->
    <g style="fill: #538135" transform="translate(386.8 321.487453) scale(0.11 -0.11)">
     <defs>
      <path id="HiraginoSans-W7-53ce" d="M 1357 4013 
C 1357 4378 1363 4557 1395 4781 
L 518 4781 
C 550 4531 557 4371 557 4013 
L 557 1389 
C 435 1357 390 1350 173 1318 
L 320 435 
C 454 486 486 499 627 550 
C 1094 710 1574 890 1882 1018 
L 1882 230 
C 1882 -128 1875 -288 1843 -544 
L 2746 -544 
C 2720 -333 2707 -179 2707 147 
C 2758 77 2758 77 2778 51 
C 2976 -218 3014 -282 3136 -570 
C 3674 -192 4064 179 4461 685 
C 4845 243 5338 -192 5882 -563 
C 6022 -179 6106 -6 6298 307 
C 5728 646 5357 960 4954 1427 
C 5517 2445 5824 3494 5952 4851 
C 5971 5037 5971 5037 5984 5126 
C 5805 5107 5664 5101 5459 5101 
L 3571 5101 
C 3270 5101 3085 5114 2848 5139 
L 2848 4288 
C 2995 4307 3142 4314 3494 4314 
L 3827 4314 
L 3021 4006 
C 3085 3795 3085 3795 3200 3322 
C 3398 2515 3629 1926 3962 1370 
C 3757 1094 3584 902 3315 659 
C 3078 448 2970 365 2707 211 
L 2707 4614 
C 2707 4979 2714 5158 2746 5382 
L 1843 5382 
C 1875 5126 1882 4966 1882 4614 
L 1882 1798 
C 1638 1702 1555 1677 1357 1613 
L 1357 4013 
z
M 5030 4314 
C 4922 3450 4762 2867 4448 2189 
C 4154 2771 4019 3258 3846 4314 
L 5030 4314 
z
" transform="scale(0.015625)"/>
      <path id="HiraginoSans-W7-675f" d="M 2726 4096 
L 2726 3725 
L 1472 3725 
C 1133 3725 922 3731 781 3744 
C 800 3533 806 3411 806 3104 
L 806 2278 
C 806 1946 800 1811 781 1632 
C 954 1658 1139 1664 1491 1664 
L 2266 1664 
C 1805 1101 1088 653 115 320 
C 326 64 429 -128 557 -454 
C 1542 -32 2189 442 2752 1139 
C 2739 1037 2726 768 2726 710 
L 2726 83 
C 2726 -205 2714 -352 2682 -557 
L 3590 -557 
C 3558 -384 3552 -211 3552 90 
L 3552 704 
C 3539 902 3533 1005 3533 1011 
C 3533 1069 3533 1075 3526 1139 
C 4134 390 4787 -70 5824 -480 
C 5984 -77 6061 64 6259 339 
C 5286 602 4538 1037 3994 1664 
L 4896 1664 
C 5203 1664 5421 1658 5600 1632 
C 5594 1690 5587 1907 5574 2278 
L 5574 3110 
C 5574 3354 5581 3507 5600 3744 
C 5434 3731 5434 3731 4902 3725 
L 3552 3725 
L 3552 4096 
L 5421 4096 
C 5651 4096 5888 4083 6112 4064 
L 6112 4915 
C 5894 4883 5747 4877 5402 4877 
L 3552 4877 
C 3552 5094 3558 5222 3590 5414 
L 2682 5414 
C 2714 5229 2726 5088 2726 4877 
L 979 4877 
C 646 4877 493 4883 282 4915 
L 282 4064 
C 499 4083 736 4096 960 4096 
L 2726 4096 
z
M 2726 2995 
L 2726 2368 
L 1600 2368 
L 1600 2995 
L 2726 2995 
z
M 3552 2995 
L 4781 2995 
L 4781 2368 
L 3552 2368 
L 3552 2995 
z
" transform="scale(0.015625)"/>
     </defs>
     <use xlink:href="#HiraginoSans-W7-53ce"/>
     <use xlink:href="#HiraginoSans-W7-675f" transform="translate(99.999985 0)"/>
    </g>
   </g>
   <g id="text_6">
    <!-- Cauchy ⟹ 収束 -->
    <g style="fill: #538135" transform="translate(361.665 354.353406) scale(0.09 -0.09)">
     <defs>
      <path id="HiraginoSans-W4-43" d="M 4544 3654 
C 4390 4064 4269 4269 4026 4506 
C 3661 4858 3174 5030 2560 5030 
C 1946 5030 1453 4845 1075 4480 
C 589 4006 320 3296 320 2458 
C 320 1651 570 947 1018 493 
C 1389 109 1920 -90 2554 -90 
C 3277 -90 3878 173 4237 640 
C 4403 858 4493 1062 4608 1459 
L 3968 1594 
C 3910 1306 3853 1152 3718 966 
C 3475 634 3066 448 2573 448 
C 1581 448 947 1235 947 2477 
C 947 3718 1568 4493 2573 4493 
C 3014 4493 3386 4339 3629 4051 
C 3763 3891 3834 3763 3923 3488 
L 4544 3654 
z
" transform="scale(0.015625)"/>
      <path id="HiraginoSans-W4-61" d="M 2765 0 
L 3373 0 
C 3334 269 3322 422 3322 736 
L 3322 2515 
C 3322 2867 3238 3110 3046 3290 
C 2816 3514 2464 3622 1978 3622 
C 1485 3622 1094 3507 813 3270 
C 627 3123 531 2976 416 2656 
L 1011 2541 
C 1069 2714 1114 2797 1197 2886 
C 1370 3066 1626 3155 1971 3155 
C 2515 3155 2765 2950 2765 2515 
L 2765 2182 
C 1933 2163 1581 2118 1197 1997 
C 646 1818 333 1434 333 941 
C 333 320 774 -58 1491 -58 
C 1741 -58 1978 -19 2195 64 
C 2406 141 2522 218 2765 429 
L 2765 0 
z
M 2765 1363 
C 2765 1126 2707 973 2554 813 
C 2304 557 1920 397 1568 397 
C 1165 397 915 608 915 941 
C 915 1235 1075 1440 1395 1568 
C 1677 1683 2035 1728 2765 1747 
L 2765 1363 
z
" transform="scale(0.015625)"/>
      <path id="HiraginoSans-W4-75" d="M 2944 3520 
C 2976 3264 2989 3046 2989 2765 
L 2989 1510 
C 2918 1248 2835 1094 2662 890 
C 2400 576 2125 435 1792 435 
C 1306 435 1056 723 1056 1286 
L 1056 2765 
C 1056 3066 1069 3251 1101 3520 
L 429 3520 
C 461 3302 474 3104 474 2771 
L 474 1197 
C 474 858 538 608 666 416 
C 877 109 1242 -58 1709 -58 
C 2272 -58 2682 166 3002 653 
C 2989 493 2989 461 2989 378 
L 2989 0 
L 3616 0 
C 3578 256 3565 442 3565 755 
L 3565 2765 
C 3565 3091 3578 3264 3616 3520 
L 2944 3520 
z
" transform="scale(0.015625)"/>
      <path id="HiraginoSans-W4-63" d="M 3475 2573 
C 3405 2758 3347 2867 3251 3002 
C 2970 3405 2522 3616 1965 3616 
C 947 3616 282 2874 282 1747 
C 282 627 954 -90 1990 -90 
C 2534 -90 2970 102 3258 480 
C 3366 621 3430 742 3520 986 
L 2950 1126 
C 2899 966 2867 890 2816 806 
C 2650 550 2362 410 2010 410 
C 1312 410 870 934 870 1760 
C 870 2598 1299 3130 1984 3130 
C 2438 3130 2739 2899 2912 2413 
L 3475 2573 
z
" transform="scale(0.015625)"/>
      <path id="HiraginoSans-W4-68" d="M 1107 0 
C 1075 256 1062 474 1062 755 
L 1062 2003 
C 1139 2272 1229 2438 1402 2643 
C 1645 2931 1933 3078 2259 3078 
C 2490 3078 2682 3002 2810 2861 
C 2931 2726 2995 2522 2995 2240 
L 2995 755 
C 2995 422 2982 224 2944 0 
L 3622 0 
C 3590 230 3578 448 3578 749 
L 3578 2362 
C 3578 3130 3123 3584 2355 3584 
C 1773 3584 1357 3347 1043 2854 
C 1056 3046 1062 3066 1062 3168 
L 1062 4173 
C 1062 4512 1069 4691 1107 4934 
L 442 4934 
C 480 4691 493 4512 493 4179 
L 493 755 
C 493 422 480 250 442 0 
L 1107 0 
z
" transform="scale(0.015625)"/>
      <path id="HiraginoSans-W4-79" d="M 1600 154 
L 1325 -486 
C 1229 -710 1069 -832 858 -832 
C 730 -832 621 -800 442 -717 
L 301 -1274 
C 550 -1325 710 -1344 864 -1344 
C 1357 -1344 1664 -1146 1843 -717 
L 3283 2758 
C 3462 3181 3571 3437 3603 3520 
L 2912 3520 
C 2880 3334 2829 3168 2694 2816 
L 1901 768 
L 1011 2822 
C 902 3072 819 3341 787 3520 
L 64 3520 
C 134 3386 134 3386 422 2758 
L 1600 154 
z
" transform="scale(0.015625)"/>
      <path id="HiraginoSans-W4-53ce" d="M 1190 4026 
C 1190 4307 1203 4493 1229 4710 
L 672 4710 
C 704 4480 717 4301 717 4026 
L 717 1261 
C 499 1203 448 1190 250 1152 
L 358 640 
C 480 685 499 691 634 736 
C 1235 947 1606 1094 2035 1280 
L 2035 218 
C 2035 -58 2022 -243 1990 -467 
L 2560 -467 
C 2534 -243 2522 -64 2522 218 
L 2522 4614 
C 2522 4896 2534 5075 2560 5306 
L 1990 5306 
C 2022 5075 2035 4890 2035 4614 
L 2035 1741 
C 1754 1619 1606 1555 1190 1414 
L 1190 4026 
z
M 3322 4909 
C 3072 4909 2918 4915 2733 4947 
L 2733 4422 
C 2854 4442 2938 4448 3142 4454 
C 3238 3642 3290 3366 3437 2848 
C 3610 2259 3814 1805 4115 1325 
C 3674 736 3174 294 2554 -64 
C 2733 -250 2797 -346 2867 -512 
C 3514 -83 3962 326 4410 909 
C 4512 774 4589 685 4698 563 
C 5114 128 5427 -134 5933 -480 
C 6048 -230 6093 -160 6221 6 
C 5542 429 5158 762 4710 1338 
C 5306 2291 5658 3334 5856 4762 
C 5875 4870 5875 4870 5882 4934 
C 5696 4915 5568 4909 5395 4909 
L 3322 4909 
z
M 5306 4454 
C 5139 3341 4870 2534 4410 1760 
C 4173 2150 4006 2547 3853 3091 
C 3725 3552 3686 3782 3616 4454 
L 5306 4454 
z
" transform="scale(0.015625)"/>
      <path id="HiraginoSans-W4-675f" d="M 2880 4250 
L 2880 3667 
L 1638 3667 
C 1299 3667 1082 3680 934 3699 
C 954 3507 960 3360 960 3021 
L 960 2451 
C 960 2093 954 1965 934 1779 
C 1101 1798 1306 1811 1670 1811 
L 2592 1811 
C 2131 1158 1229 538 205 160 
C 358 -6 410 -96 499 -282 
C 1088 -32 1562 243 2016 608 
C 2406 922 2605 1126 2899 1523 
C 2880 1165 2880 1165 2880 1050 
L 2880 186 
C 2880 -134 2867 -294 2835 -493 
L 3405 -493 
C 3366 -301 3360 -160 3360 186 
L 3360 1050 
C 3360 1152 3354 1261 3341 1530 
C 3699 1056 3936 832 4410 493 
C 4832 192 5286 -45 5901 -294 
C 5997 -90 6080 38 6195 179 
C 5075 518 4198 1075 3629 1811 
L 4717 1811 
C 5062 1811 5280 1798 5440 1779 
C 5421 1952 5414 2176 5414 2451 
L 5414 3034 
C 5414 3360 5421 3482 5440 3699 
C 5274 3674 5082 3667 4723 3667 
L 3360 3667 
L 3360 4250 
L 5395 4250 
C 5626 4250 5843 4237 6042 4211 
L 6042 4749 
C 5862 4717 5709 4704 5382 4704 
L 3360 4704 
L 3360 4736 
C 3360 4979 3373 5152 3405 5338 
L 2835 5338 
C 2867 5158 2880 4992 2880 4736 
L 2880 4704 
L 973 4704 
C 678 4704 512 4717 326 4749 
L 326 4211 
C 518 4237 730 4250 966 4250 
L 2880 4250 
z
M 2880 3232 
L 2880 2240 
L 1427 2240 
L 1427 3232 
L 2880 3232 
z
M 3360 3232 
L 4947 3232 
L 4947 2240 
L 3360 2240 
L 3360 3232 
z
" transform="scale(0.015625)"/>
     </defs>
     <use xlink:href="#HiraginoSans-W4-43"/>
     <use xlink:href="#HiraginoSans-W4-61" transform="translate(76.599991 0)"/>
     <use xlink:href="#HiraginoSans-W4-75" transform="translate(135.799988 0)"/>
     <use xlink:href="#HiraginoSans-W4-63" transform="translate(199.199982 0)"/>
     <use xlink:href="#HiraginoSans-W4-68" transform="translate(258.299973 0)"/>
     <use xlink:href="#HiraginoSans-W4-79" transform="translate(321.59996 0)"/>
     <use xlink:href="#HiraginoSans-W4-20" transform="translate(378.999954 0)"/>
     <use xlink:href="#STIXGeneral-Regular-27f9" transform="translate(412.299942 0)"/>
     <use xlink:href="#HiraginoSans-W4-20" transform="translate(569.699921 0)"/>
     <use xlink:href="#HiraginoSans-W4-53ce" transform="translate(602.999908 0)"/>
     <use xlink:href="#HiraginoSans-W4-675f" transform="translate(702.999893 0)"/>
    </g>
   </g>
   <g id="text_7">
    <!-- 不動点 -->
    <g style="fill: #c00000" transform="translate(649.14 321.487453) scale(0.11 -0.11)">
     <use xlink:href="#HiraginoSans-W7-4e0d"/>
     <use xlink:href="#HiraginoSans-W7-52d5" transform="translate(99.999985 0)"/>
     <use xlink:href="#HiraginoSans-W7-70b9" transform="translate(199.999969 0)"/>
    </g>
   </g>
   <g id="text_8">
    <!-- lim Tⁿ(x₀) = x* -->
    <g style="fill: #c00000" transform="translate(635.196797 354.091844) scale(0.09 -0.09)">
     <defs>
      <path id="HiraginoSans-W4-6c" d="M 442 4934 
C 474 4704 486 4518 486 4179 
L 486 755 
C 486 429 474 250 442 0 
L 1120 0 
C 1088 262 1075 448 1075 755 
L 1075 4179 
C 1075 4512 1088 4698 1120 4934 
L 442 4934 
z
" transform="scale(0.015625)"/>
      <path id="HiraginoSans-W4-69" d="M 442 4934 
L 442 4294 
L 1152 4294 
L 1152 4934 
L 442 4934 
z
M 454 3520 
C 486 3296 499 3085 499 2765 
L 499 755 
C 499 461 486 282 454 0 
L 1133 0 
C 1101 269 1088 448 1088 755 
L 1088 2758 
C 1088 3104 1101 3290 1133 3520 
L 454 3520 
z
" transform="scale(0.015625)"/>
      <path id="HiraginoSans-W4-6d" d="M 1107 0 
C 1075 262 1062 442 1062 755 
L 1062 2016 
C 1062 2144 1178 2464 1286 2624 
C 1485 2912 1786 3091 2074 3091 
C 2528 3091 2765 2803 2765 2246 
L 2765 755 
C 2765 422 2752 230 2720 0 
L 3392 0 
C 3360 230 3347 416 3347 749 
L 3347 2016 
C 3347 2176 3456 2483 3571 2650 
C 3763 2931 4045 3091 4346 3091 
C 4525 3091 4672 3053 4781 2976 
C 4973 2842 5043 2637 5043 2246 
L 5043 755 
C 5043 403 5037 256 4998 0 
L 5670 0 
C 5638 230 5626 416 5626 749 
L 5626 2336 
C 5626 2733 5555 2995 5382 3206 
C 5184 3462 4864 3590 4442 3590 
C 3898 3590 3552 3398 3232 2925 
C 3168 3104 3130 3181 3034 3277 
C 2842 3488 2566 3590 2202 3590 
C 1690 3590 1280 3373 1050 2970 
C 1050 3008 1050 3008 1056 3066 
C 1056 3085 1062 3181 1062 3200 
L 1062 3520 
L 442 3520 
C 474 3290 486 3117 486 2765 
L 486 755 
C 486 435 474 243 442 0 
L 1107 0 
z
" transform="scale(0.015625)"/>
      <path id="HiraginoSans-W4-2a" d="M 877 4934 
L 1043 4077 
L 378 4640 
L 109 4218 
L 941 3910 
L 128 3616 
L 384 3187 
L 1050 3757 
L 877 2886 
L 1408 2886 
L 1235 3757 
L 1901 3187 
L 2157 3616 
L 1344 3910 
L 2176 4218 
L 1907 4634 
L 1242 4077 
L 1408 4934 
L 877 4934 
z
" transform="scale(0.015625)"/>
     </defs>
     <use xlink:href="#HiraginoSans-W4-6c"/>
     <use xlink:href="#HiraginoSans-W4-69" transform="translate(24.299988 0)"/>
     <use xlink:href="#HiraginoSans-W4-6d" transform="translate(49.099976 0)"/>
     <use xlink:href="#HiraginoSans-W4-20" transform="translate(144.499969 0)"/>
     <use xlink:href="#HiraginoSans-W4-54" transform="translate(177.799957 0)"/>
     <use xlink:href="#HiraginoSans-W4-207f" transform="translate(244.199951 0)"/>
     <use xlink:href="#HiraginoSans-W4-28" transform="translate(281.899948 0)"/>
     <use xlink:href="#HiraginoSans-W4-78" transform="translate(318.899933 0)"/>
     <use xlink:href="#HiraginoSans-W4-2080" transform="translate(374.799927 0)"/>
     <use xlink:href="#HiraginoSans-W4-29" transform="translate(414.999924 0)"/>
     <use xlink:href="#HiraginoSans-W4-20" transform="translate(451.999908 0)"/>
     <use xlink:href="#HiraginoSans-W4-3d" transform="translate(485.299896 0)"/>
     <use xlink:href="#HiraginoSans-W4-20" transform="translate(551.69989 0)"/>
     <use xlink:href="#HiraginoSans-W4-78" transform="translate(584.999878 0)"/>
     <use xlink:href="#HiraginoSans-W4-2a" transform="translate(640.899872 0)"/>
    </g>
   </g>
   <g id="patch_7">
    <path d="M 396.022192 152.881093 
Q 263.87816 221.262077 133.223572 288.872314 
" style="fill: none; stroke: #555555; stroke-width: 1.5; stroke-linecap: round"/>
    <path d="M 137.695277 288.81024 
L 133.223572 288.872314 
L 135.856936 285.257706 
z
" style="fill: #555555; stroke: #555555; stroke-width: 1.5; stroke-linecap: round"/>
   </g>
   <g id="patch_8">
    <path d="M 397.8 153.96179 
Q 397.8 221.263059 397.8 286.887276 
" style="fill: none; stroke: #555555; stroke-width: 1.5; stroke-linecap: round"/>
    <path d="M 399.8 282.887276 
L 397.8 286.887276 
L 395.8 282.887276 
z
" style="fill: #555555; stroke: #555555; stroke-width: 1.5; stroke-linecap: round"/>
   </g>
   <g id="patch_9">
    <path d="M 399.577808 152.881093 
Q 531.72184 221.262077 662.376428 288.872314 
" style="fill: none; stroke: #555555; stroke-width: 1.5; stroke-linecap: round"/>
    <path d="M 659.743064 285.257706 
L 662.376428 288.872314 
L 657.904723 288.81024 
z
" style="fill: #555555; stroke: #555555; stroke-width: 1.5; stroke-linecap: round"/>
   </g>
   <g id="patch_10">
    <path d="M 176.596798 334.913125 
Q 205.289859 334.913125 232.30587 334.913125 
" style="fill: none; stroke: #555555; stroke-width: 1.5; stroke-linecap: round"/>
    <path d="M 228.30587 332.913125 
L 232.30587 334.913125 
L 228.30587 336.913125 
z
" style="fill: #555555; stroke: #555555; stroke-width: 1.5; stroke-linecap: round"/>
   </g>
   <g id="patch_11">
    <path d="M 455.596798 334.913125 
Q 484.289859 334.913125 511.30587 334.913125 
" style="fill: none; stroke: #555555; stroke-width: 1.5; stroke-linecap: round"/>
    <path d="M 507.30587 332.913125 
L 511.30587 334.913125 
L 507.30587 336.913125 
z
" style="fill: #555555; stroke: #555555; stroke-width: 1.5; stroke-linecap: round"/>
   </g>
   <g id="text_9">
    <!-- 完備性 -->
    <g style="fill: #538135" transform="translate(191.79 318.281125) scale(0.09 -0.09)">
     <defs>
      <path id="HiraginoSans-W4-6027" d="M 3840 3520 
L 3840 2246 
L 3123 2246 
C 2848 2246 2675 2259 2502 2285 
L 2502 1773 
C 2675 1798 2906 1811 3174 1811 
L 3840 1811 
L 3840 224 
L 2733 224 
C 2438 224 2221 237 2022 262 
L 2022 -269 
C 2240 -237 2464 -224 2733 -224 
L 5350 -224 
C 5619 -224 5843 -237 6061 -269 
L 6061 262 
C 5862 237 5645 224 5350 224 
L 4314 224 
L 4314 1811 
L 5120 1811 
C 5414 1811 5600 1798 5786 1773 
L 5786 2285 
C 5606 2259 5427 2246 5126 2246 
L 4314 2246 
L 4314 3520 
L 5248 3520 
C 5472 3520 5702 3507 5920 3482 
L 5920 4000 
C 5766 3974 5574 3962 5248 3962 
L 4314 3962 
L 4314 4698 
C 4314 4941 4326 5158 4358 5350 
L 3795 5350 
C 3827 5146 3840 4934 3840 4698 
L 3840 3962 
L 3098 3962 
C 3149 4166 3219 4499 3245 4646 
C 3264 4742 3264 4755 3283 4813 
L 2771 4909 
C 2771 4710 2752 4576 2707 4326 
C 2566 3610 2355 3098 1997 2592 
C 2259 2458 2259 2458 2419 2349 
C 2688 2771 2810 3046 2970 3520 
L 3840 3520 
z
M 608 2278 
C 774 2854 858 3328 902 4045 
L 506 4109 
C 480 3462 403 3027 218 2432 
L 608 2278 
z
M 1613 -512 
C 1587 -294 1574 -77 1574 211 
L 1574 4704 
C 1574 4973 1587 5146 1613 5363 
L 1043 5363 
C 1075 5152 1088 4954 1088 4704 
L 1088 243 
C 1088 -19 1075 -288 1043 -512 
L 1613 -512 
z
M 2330 3296 
C 2246 3667 2138 3994 2022 4256 
L 1690 4122 
C 1843 3763 1901 3565 1965 3142 
L 2330 3296 
z
" transform="scale(0.015625)"/>
     </defs>
     <use xlink:href="#HiraginoSans-W4-5b8c"/>
     <use xlink:href="#HiraginoSans-W4-5099" transform="translate(99.999985 0)"/>
     <use xlink:href="#HiraginoSans-W4-6027" transform="translate(199.999969 0)"/>
    </g>
   </g>
   <g id="text_10">
    <!-- 不動点方程式 -->
    <g style="fill: #c00000" transform="translate(457.29 318.281125) scale(0.09 -0.09)">
     <defs>
      <path id="HiraginoSans-W4-65b9" d="M 2893 4301 
L 1120 4301 
C 800 4301 589 4314 378 4346 
L 378 3782 
C 557 3808 800 3821 1120 3821 
L 2387 3821 
C 2336 2483 2093 1645 1568 979 
C 1222 538 870 262 307 -26 
C 499 -192 570 -269 678 -461 
C 1005 -269 1133 -179 1331 -13 
C 1670 269 1946 570 2150 883 
C 2458 1350 2630 1792 2771 2502 
L 4704 2502 
C 4666 1638 4621 1139 4518 653 
C 4422 192 4371 122 4090 122 
C 3814 122 3494 154 3136 218 
C 3213 19 3232 -77 3258 -320 
C 3590 -352 3917 -371 4128 -371 
C 4698 -371 4851 -237 4992 346 
C 5101 794 5203 1702 5235 2534 
C 5242 2835 5242 2835 5267 3002 
C 5107 2976 4947 2970 4602 2970 
L 2848 2970 
C 2893 3283 2906 3405 2931 3821 
L 5331 3821 
C 5709 3821 5894 3814 6067 3782 
L 6067 4346 
C 5869 4314 5651 4301 5318 4301 
L 3411 4301 
L 3411 4755 
C 3411 5005 3424 5178 3456 5312 
L 2848 5312 
C 2880 5152 2893 4973 2893 4755 
L 2893 4301 
z
" transform="scale(0.015625)"/>
      <path id="HiraginoSans-W4-7a0b" d="M 1299 3706 
L 838 3706 
C 608 3706 506 3712 346 3738 
L 346 3251 
C 518 3277 614 3283 819 3283 
L 1229 3283 
C 1171 3046 1030 2682 877 2374 
C 666 1939 435 1600 166 1318 
C 282 1184 352 1069 435 890 
C 890 1434 1146 1926 1331 2592 
C 1318 2317 1318 2317 1299 1670 
L 1299 250 
C 1299 -77 1286 -288 1261 -486 
L 1805 -486 
C 1779 -307 1766 -109 1766 250 
L 1766 1843 
C 1766 2016 1747 2490 1734 2707 
C 1914 2278 2042 2061 2317 1722 
C 2400 1888 2451 1971 2579 2112 
C 2189 2509 1984 2803 1792 3283 
L 2093 3283 
C 2266 3283 2387 3277 2515 3258 
L 2515 3731 
C 2406 3712 2285 3706 2099 3706 
L 1766 3706 
L 1766 4685 
C 1952 4736 2150 4813 2419 4922 
C 2477 4947 2502 4960 2560 4979 
L 2253 5382 
C 1946 5158 1254 4947 365 4826 
C 461 4691 512 4582 563 4403 
C 909 4467 1011 4493 1299 4563 
L 1299 3706 
z
M 3981 2131 
L 3981 1434 
L 3277 1434 
C 2950 1434 2771 1440 2618 1466 
L 2618 973 
C 2810 998 2976 1005 3277 1005 
L 3981 1005 
L 3981 205 
L 2925 205 
C 2586 205 2394 211 2221 237 
L 2221 -269 
C 2432 -243 2630 -230 2925 -230 
L 5402 -230 
C 5696 -230 5894 -243 6106 -269 
L 6106 243 
C 5920 218 5702 205 5402 205 
L 4448 205 
L 4448 1005 
L 5190 1005 
C 5491 1005 5696 998 5856 973 
L 5856 1466 
C 5696 1440 5510 1434 5190 1434 
L 4448 1434 
L 4448 2131 
L 5299 2131 
C 5587 2131 5779 2118 5990 2099 
L 5990 2592 
C 5792 2573 5594 2560 5299 2560 
L 3238 2560 
C 2925 2560 2758 2566 2592 2592 
L 2592 2099 
C 2765 2125 2938 2131 3226 2131 
L 3981 2131 
z
M 2797 3578 
C 2797 3341 2790 3200 2771 3053 
C 2931 3066 3110 3072 3347 3072 
L 5184 3072 
C 5434 3072 5606 3066 5766 3053 
C 5747 3174 5741 3334 5741 3584 
L 5741 4550 
C 5741 4774 5747 4922 5766 5069 
C 5594 5050 5453 5043 5203 5043 
L 3341 5043 
C 3098 5043 2944 5050 2771 5069 
C 2790 4909 2797 4755 2797 4550 
L 2797 3578 
z
M 3270 4608 
L 5261 4608 
L 5261 3494 
L 3270 3494 
L 3270 4608 
z
" transform="scale(0.015625)"/>
      <path id="HiraginoSans-W4-5f0f" d="M 4243 4128 
C 4230 4435 4224 4563 4224 4659 
C 4224 4864 4243 5120 4262 5242 
L 3693 5242 
C 3725 5018 3725 5018 3725 4890 
C 3731 4531 3731 4531 3744 4128 
L 1120 4128 
C 832 4128 614 4141 435 4166 
L 435 3635 
C 659 3661 864 3674 1120 3674 
L 3763 3674 
C 3789 3104 3827 2675 3898 2266 
C 4038 1421 4307 666 4614 211 
C 4877 -160 5171 -384 5408 -384 
C 5568 -384 5715 -294 5824 -115 
C 5958 96 6048 384 6157 941 
C 5958 1024 5882 1075 5709 1229 
C 5613 531 5510 192 5395 192 
C 5331 192 5178 320 5062 467 
C 4838 762 4608 1338 4486 1888 
C 4352 2502 4294 2950 4262 3674 
L 5344 3674 
C 5626 3674 5837 3661 6029 3635 
L 6029 4166 
C 5869 4141 5690 4128 5408 4128 
L 4243 4128 
z
M 1837 2310 
L 1837 570 
C 979 416 755 384 467 384 
L 570 -147 
C 634 -134 653 -128 736 -115 
C 1370 6 1715 70 1766 83 
C 2515 230 3027 346 3731 531 
L 3731 998 
C 3014 806 2765 749 2330 659 
L 2330 2310 
L 2925 2310 
C 3162 2310 3347 2298 3514 2278 
L 3514 2778 
C 3360 2752 3187 2746 2918 2746 
L 1286 2746 
C 1018 2746 838 2752 685 2778 
L 685 2278 
C 845 2298 1043 2310 1280 2310 
L 1837 2310 
z
M 5626 4506 
C 5370 4794 5222 4928 4864 5210 
L 4499 4966 
C 4832 4710 5005 4538 5248 4230 
L 5626 4506 
z
" transform="scale(0.015625)"/>
     </defs>
     <use xlink:href="#HiraginoSans-W4-4e0d"/>
     <use xlink:href="#HiraginoSans-W4-52d5" transform="translate(99.999985 0)"/>
     <use xlink:href="#HiraginoSans-W4-70b9" transform="translate(199.999969 0)"/>
     <use xlink:href="#HiraginoSans-W4-65b9" transform="translate(299.999954 0)"/>
     <use xlink:href="#HiraginoSans-W4-7a0b" transform="translate(399.999939 0)"/>
     <use xlink:href="#HiraginoSans-W4-5f0f" transform="translate(499.999924 0)"/>
    </g>
   </g>
   <g id="text_11">
    <!-- 唯一性: x* = y* ならば -->
    <g style="fill: #4b0082" transform="translate(347.345312 412.529125) scale(0.1 -0.1)">
     <defs>
      <path id="HiraginoSans-W4-306a" d="M 2074 5229 
C 2054 4941 1971 4454 1862 4051 
C 1760 4045 1594 4045 1421 4045 
C 1062 4045 870 4058 646 4096 
L 646 3571 
C 678 3571 704 3571 717 3571 
C 755 3571 806 3571 870 3571 
C 1062 3565 1114 3565 1267 3565 
C 1536 3565 1562 3565 1728 3571 
C 1434 2586 922 1530 467 954 
L 986 653 
C 1018 710 1056 781 1114 877 
C 1357 1306 1414 1414 1568 1722 
C 1850 2310 2080 2925 2272 3590 
C 2707 3622 3072 3674 3315 3718 
C 3462 3744 3462 3744 3533 3750 
L 3514 4282 
C 3238 4192 2835 4122 2406 4083 
C 2483 4384 2522 4525 2566 4742 
C 2624 5018 2624 5037 2662 5152 
L 2074 5229 
z
M 5933 3488 
C 5408 3827 4954 4051 4211 4339 
L 3936 3904 
C 4627 3654 5133 3398 5670 3027 
L 5933 3488 
z
M 5939 640 
C 5901 672 5901 672 5843 717 
C 5786 774 5760 794 5664 870 
C 5280 1171 5050 1299 4576 1510 
C 4538 1792 4506 2182 4506 2451 
C 4506 2694 4525 2822 4595 3066 
L 4070 3110 
C 4026 2893 4006 2726 4006 2515 
C 4006 2304 4026 1958 4051 1645 
C 3782 1709 3622 1728 3405 1728 
C 2618 1728 2067 1312 2067 717 
C 2067 333 2304 6 2682 -122 
C 2886 -198 3142 -237 3379 -237 
C 3827 -237 4198 -96 4390 147 
C 4518 307 4602 563 4602 806 
C 4602 858 4602 890 4589 973 
C 5037 730 5434 422 5670 128 
L 5939 640 
z
M 4077 1152 
C 4083 1152 4096 966 4096 896 
C 4096 454 3853 243 3347 243 
C 2867 243 2579 429 2579 736 
C 2579 1062 2899 1274 3405 1274 
C 3648 1274 3821 1242 4077 1152 
z
" transform="scale(0.015625)"/>
      <path id="HiraginoSans-W4-3089" d="M 1978 4627 
C 2541 4365 2541 4365 2989 4211 
C 3379 4083 3635 4006 4282 3846 
L 4486 4371 
C 3795 4480 2707 4826 2253 5082 
L 1978 4627 
z
M 1453 3968 
C 1446 3846 1440 3789 1408 3616 
C 1293 2893 1203 2310 1139 1824 
C 1114 1606 1107 1562 1088 1446 
L 1677 1427 
C 1773 1555 1830 1613 1939 1696 
C 2406 2029 3040 2227 3674 2227 
C 4422 2227 4870 1933 4870 1440 
C 4870 819 4205 403 3213 403 
C 2662 403 2067 518 1542 723 
C 1587 506 1600 416 1600 275 
L 1600 205 
C 1600 173 1600 147 1600 122 
C 2355 -70 2662 -115 3226 -115 
C 3910 -115 4429 19 4838 307 
C 5216 570 5446 1005 5446 1446 
C 5446 2208 4768 2714 3750 2714 
C 3040 2714 2342 2522 1907 2202 
C 1811 2131 1773 2099 1683 2003 
L 1677 2010 
C 1690 2067 1696 2080 1709 2157 
C 1824 2995 1946 3642 2029 3930 
L 1453 3968 
z
" transform="scale(0.015625)"/>
      <path id="HiraginoSans-W4-3070" d="M 4109 3686 
C 3898 3674 3750 3667 3501 3667 
C 2906 3667 2618 3693 2298 3770 
L 2291 3245 
L 2688 3219 
C 2918 3206 3155 3200 3411 3200 
C 3648 3200 3808 3200 4115 3219 
C 4147 2176 4160 1773 4179 1632 
C 4013 1709 3770 1747 3514 1747 
C 2784 1747 2266 1350 2266 794 
C 2266 211 2739 -154 3501 -154 
C 4051 -154 4467 45 4621 384 
C 4672 499 4698 640 4698 826 
C 4698 883 4698 909 4691 960 
C 4749 922 4781 902 4819 877 
C 5280 595 5286 595 5485 422 
C 5568 358 5613 314 5677 243 
L 5907 781 
C 5830 826 5811 838 5741 890 
C 5344 1178 5139 1299 4691 1504 
C 4627 2592 4627 2662 4621 3258 
C 5011 3296 5293 3347 5632 3424 
C 5683 3437 5696 3437 5734 3443 
L 5709 3955 
C 5523 3872 5094 3782 4621 3725 
L 4621 4083 
C 4621 4563 4634 4851 4659 5018 
L 4090 5018 
L 4102 4736 
L 4109 3686 
z
M 4192 973 
C 4192 762 4160 621 4083 531 
C 3968 397 3738 314 3482 314 
C 3059 314 2778 506 2778 794 
C 2778 1094 3072 1286 3533 1286 
C 3776 1286 3936 1254 4192 1158 
L 4192 973 
z
M 1242 813 
L 1222 1882 
C 1222 2938 1446 4320 1722 4941 
L 1114 5024 
C 1114 4934 1101 4858 1043 4595 
C 800 3469 723 2835 723 1978 
C 723 1299 774 736 902 26 
C 934 -154 934 -166 934 -211 
L 1491 -160 
C 1478 -83 1478 -58 1478 -19 
C 1478 365 1754 1242 2054 1830 
L 1651 2010 
L 1594 1856 
C 1421 1408 1376 1280 1261 813 
L 1242 813 
z
M 4826 5280 
C 5018 4960 5120 4710 5267 4230 
L 5638 4346 
C 5498 4800 5408 5005 5197 5382 
L 4826 5280 
z
M 5581 5472 
C 5760 5165 5894 4864 6029 4442 
L 6387 4563 
C 6259 4966 6144 5229 5933 5587 
L 5581 5472 
z
" transform="scale(0.015625)"/>
     </defs>
     <use xlink:href="#HiraginoSans-W4-552f"/>
     <use xlink:href="#HiraginoSans-W4-4e00" transform="translate(99.999985 0)"/>
     <use xlink:href="#HiraginoSans-W4-6027" transform="translate(199.999969 0)"/>
     <use xlink:href="#HiraginoSans-W4-3a" transform="translate(299.999954 0)"/>
     <use xlink:href="#HiraginoSans-W4-20" transform="translate(324.999939 0)"/>
     <use xlink:href="#HiraginoSans-W4-78" transform="translate(358.299927 0)"/>
     <use xlink:href="#HiraginoSans-W4-2a" transform="translate(414.199921 0)"/>
     <use xlink:href="#HiraginoSans-W4-20" transform="translate(449.799911 0)"/>
     <use xlink:href="#HiraginoSans-W4-3d" transform="translate(483.099899 0)"/>
     <use xlink:href="#HiraginoSans-W4-20" transform="translate(549.499893 0)"/>
     <use xlink:href="#HiraginoSans-W4-79" transform="translate(582.799881 0)"/>
     <use xlink:href="#HiraginoSans-W4-2a" transform="translate(640.199875 0)"/>
     <use xlink:href="#HiraginoSans-W4-20" transform="translate(675.799866 0)"/>
     <use xlink:href="#HiraginoSans-W4-306a" transform="translate(709.099854 0)"/>
     <use xlink:href="#HiraginoSans-W4-3089" transform="translate(809.099838 0)"/>
     <use xlink:href="#HiraginoSans-W4-3070" transform="translate(909.099823 0)"/>
    </g>
   </g>
   <g id="text_12">
    <!-- d(x*,y*) ≤ c·d(x*,y*) ⟹ d=0 -->
    <g style="fill: #4b0082" transform="translate(337.374844 431.933125) scale(0.09 -0.09)">
     <defs>
      <path id="HiraginoSans-W4-64" d="M 3187 0 
L 3802 0 
C 3770 250 3757 442 3757 774 
L 3757 4173 
C 3757 4467 3770 4666 3802 4934 
L 3142 4934 
C 3174 4691 3187 4486 3187 4173 
L 3187 3398 
C 3187 3296 3187 3194 3194 3149 
C 3200 3040 3200 3040 3206 2970 
C 2918 3379 2470 3597 1901 3597 
C 909 3597 282 2886 282 1766 
C 282 1171 461 672 794 339 
C 1069 70 1446 -64 1914 -64 
C 2483 -64 2880 128 3206 563 
C 3200 480 3187 365 3187 288 
L 3187 0 
z
M 1971 3098 
C 2310 3098 2618 2976 2842 2752 
C 3059 2541 3181 2189 3181 1786 
C 3181 966 2707 429 1978 429 
C 1709 429 1459 512 1274 672 
C 1024 890 883 1280 883 1786 
C 883 2598 1293 3098 1971 3098 
z
" transform="scale(0.015625)"/>
      <path id="STIXGeneral-Regular-2264" d="M 4026 326 
L 410 2074 
L 410 2138 
L 4026 3898 
L 4026 3482 
L 1261 2106 
L 4026 730 
L 4026 326 
z
M 4026 -659 
L 410 -659 
L 410 -237 
L 4026 -237 
L 4026 -659 
z
" transform="scale(0.015625)"/>
      <path id="HiraginoSans-W4-b7" d="M 442 2125 
L 442 1402 
L 1165 1402 
L 1165 2125 
L 442 2125 
z
" transform="scale(0.015625)"/>
      <path id="HiraginoSans-W4-30" d="M 2144 -90 
C 2758 -90 3232 141 3565 602 
C 3846 998 4019 1696 4019 2464 
C 4019 3002 3936 3501 3770 3949 
C 3693 4160 3558 4371 3379 4550 
C 3078 4858 2650 5024 2157 5024 
C 1498 5024 986 4742 666 4205 
C 435 3834 288 3142 288 2458 
C 288 1939 371 1434 538 986 
C 614 768 749 563 928 384 
C 1242 70 1651 -90 2144 -90 
z
M 2144 4499 
C 2592 4499 2918 4307 3123 3923 
C 3283 3629 3398 3014 3398 2470 
C 3398 2022 3341 1619 3213 1235 
C 3155 1043 3046 870 2912 730 
C 2726 538 2458 435 2150 435 
C 1734 435 1414 614 1197 973 
C 1024 1261 902 1875 902 2451 
C 902 2906 966 3328 1088 3699 
C 1139 3866 1235 4026 1370 4173 
C 1568 4397 1818 4499 2144 4499 
z
" transform="scale(0.015625)"/>
     </defs>
     <use xlink:href="#HiraginoSans-W4-64"/>
     <use xlink:href="#HiraginoSans-W4-28" transform="translate(66.299988 0)"/>
     <use xlink:href="#HiraginoSans-W4-78" transform="translate(103.299973 0)"/>
     <use xlink:href="#HiraginoSans-W4-2a" transform="translate(159.199966 0)"/>
     <use xlink:href="#HiraginoSans-W4-2c" transform="translate(194.799957 0)"/>
     <use xlink:href="#HiraginoSans-W4-79" transform="translate(219.799942 0)"/>
     <use xlink:href="#HiraginoSans-W4-2a" transform="translate(277.199936 0)"/>
     <use xlink:href="#HiraginoSans-W4-29" transform="translate(312.799927 0)"/>
     <use xlink:href="#HiraginoSans-W4-20" transform="translate(349.799911 0)"/>
     <use xlink:href="#STIXGeneral-Regular-2264" transform="translate(383.099899 0)"/>
     <use xlink:href="#HiraginoSans-W4-20" transform="translate(451.599884 0)"/>
     <use xlink:href="#HiraginoSans-W4-63" transform="translate(484.899872 0)"/>
     <use xlink:href="#HiraginoSans-W4-b7" transform="translate(543.999863 0)"/>
     <use xlink:href="#HiraginoSans-W4-64" transform="translate(568.999847 0)"/>
     <use xlink:href="#HiraginoSans-W4-28" transform="translate(635.299835 0)"/>
     <use xlink:href="#HiraginoSans-W4-78" transform="translate(672.29982 0)"/>
     <use xlink:href="#HiraginoSans-W4-2a" transform="translate(728.199814 0)"/>
     <use xlink:href="#HiraginoSans-W4-2c" transform="translate(763.799805 0)"/>
     <use xlink:href="#HiraginoSans-W4-79" transform="translate(788.799789 0)"/>
     <use xlink:href="#HiraginoSans-W4-2a" transform="translate(846.199783 0)"/>
     <use xlink:href="#HiraginoSans-W4-29" transform="translate(881.799774 0)"/>
     <use xlink:href="#HiraginoSans-W4-20" transform="translate(918.799759 0)"/>
     <use xlink:href="#STIXGeneral-Regular-27f9" transform="translate(952.099747 0)"/>
     <use xlink:href="#HiraginoSans-W4-20" transform="translate(1109.499725 0)"/>
     <use xlink:href="#HiraginoSans-W4-64" transform="translate(1142.799713 0)"/>
     <use xlink:href="#HiraginoSans-W4-3d" transform="translate(1209.099701 0)"/>
     <use xlink:href="#HiraginoSans-W4-30" transform="translate(1275.499695 0)"/>
    </g>
   </g>
   <g id="patch_12">
    <path d="M 397.8 416.069245 
Q 397.8 398.666809 397.8 382.941423 
" style="fill: none; stroke: #7030a0; stroke-width: 1.5; stroke-linecap: round"/>
    <path d="M 395.8 386.941423 
L 397.8 382.941423 
L 399.8 386.941423 
z
" style="fill: #7030a0; stroke: #7030a0; stroke-width: 1.5; stroke-linecap: round"/>
   </g>
   <g id="text_13">
    <!-- Banach 不動点定理の証明構造 -->
    <g transform="translate(299.128438 17.993125) scale(0.14 -0.14)">
     <defs>
      <path id="HiraginoSans-W4-42" d="M 1216 4934 
C 838 4934 672 4941 486 4947 
C 525 4710 538 4518 538 4237 
L 538 794 
C 538 410 525 250 480 -13 
C 717 0 896 0 1216 0 
L 2694 0 
C 3699 0 4269 493 4269 1363 
C 4269 1773 4134 2099 3878 2330 
C 3706 2483 3558 2547 3251 2605 
C 3507 2688 3616 2746 3750 2867 
C 3981 3078 4096 3360 4096 3731 
C 4096 4506 3565 4934 2624 4934 
L 1216 4934 
z
M 1133 2848 
L 1133 4416 
L 2586 4416 
C 3181 4416 3488 4160 3488 3667 
C 3488 3142 3162 2848 2592 2848 
L 1133 2848 
z
M 1133 2336 
L 2611 2336 
C 3296 2336 3648 2022 3648 1421 
C 3648 832 3290 518 2630 518 
L 1133 518 
L 1133 2336 
z
" transform="scale(0.015625)"/>
      <path id="HiraginoSans-W4-5b9a" d="M 3008 410 
C 2445 627 2144 902 1869 1440 
C 1939 1683 2029 2003 2042 2093 
C 2099 2342 2099 2342 2125 2438 
L 1600 2541 
C 1600 2522 1600 2509 1600 2496 
C 1600 2150 1414 1466 1197 1030 
C 979 589 781 326 352 -83 
C 570 -230 621 -282 749 -448 
C 1203 38 1440 384 1696 954 
C 2163 102 3040 -262 4608 -262 
C 5216 -262 5370 -262 5850 -243 
C 5888 -19 5920 90 6003 282 
C 5440 237 4998 218 4518 218 
C 4096 218 3789 237 3482 282 
L 3482 1613 
L 4704 1613 
C 4973 1613 5139 1606 5325 1581 
L 5325 2086 
C 5165 2061 4979 2048 4704 2048 
L 3482 2048 
L 3482 3034 
L 4518 3034 
C 4800 3034 4986 3021 5158 2995 
L 5158 3507 
C 4986 3482 4794 3469 4518 3469 
L 1926 3469 
C 1651 3469 1459 3482 1293 3507 
L 1293 2995 
C 1466 3021 1651 3034 1926 3034 
L 3008 3034 
L 3008 410 
z
M 2906 4621 
L 1184 4621 
C 934 4621 736 4627 525 4646 
C 538 4531 550 4365 550 4205 
L 550 3776 
C 550 3565 544 3462 518 3302 
L 1024 3302 
L 1024 4173 
L 5402 4173 
L 5402 3302 
L 5894 3302 
C 5875 3443 5869 3584 5869 3770 
L 5869 4205 
C 5869 4378 5875 4506 5894 4646 
C 5677 4627 5485 4621 5235 4621 
L 3405 4621 
L 3405 4909 
C 3405 5062 3411 5178 3443 5312 
L 2861 5312 
C 2893 5152 2906 5062 2906 4909 
L 2906 4621 
z
" transform="scale(0.015625)"/>
      <path id="HiraginoSans-W4-7406" d="M 3936 179 
L 2656 179 
C 2342 179 2202 186 2035 211 
L 2035 -288 
C 2240 -262 2381 -256 2701 -256 
L 5517 -256 
C 5837 -256 5978 -262 6176 -288 
L 6176 211 
C 6010 186 5850 179 5536 179 
L 4390 179 
L 4390 1037 
L 5306 1037 
C 5613 1037 5760 1030 5939 1005 
L 5939 1498 
C 5760 1472 5619 1466 5306 1466 
L 4390 1466 
L 4390 2138 
L 5120 2138 
C 5485 2138 5638 2131 5869 2112 
C 5850 2291 5843 2522 5843 2944 
L 5843 4256 
C 5843 4634 5850 4896 5869 5082 
C 5696 5056 5510 5050 5050 5050 
L 3341 5050 
C 2912 5050 2707 5056 2502 5082 
C 2528 4877 2534 4672 2534 4256 
L 2534 2867 
C 2528 2259 2528 2259 2509 2112 
C 2688 2131 2893 2138 3296 2138 
L 3936 2138 
L 3936 1466 
L 3123 1466 
C 2803 1466 2656 1472 2502 1498 
L 2502 1005 
C 2669 1030 2810 1037 3130 1037 
L 3936 1037 
L 3936 179 
z
M 3936 4627 
L 3936 3795 
L 2982 3795 
L 2982 4627 
L 3936 4627 
z
M 4390 4627 
L 5389 4627 
L 5389 3795 
L 4390 3795 
L 4390 4627 
z
M 3936 3379 
L 3936 2560 
L 2982 2560 
L 2982 3379 
L 3936 3379 
z
M 4390 3379 
L 5389 3379 
L 5389 2560 
L 4390 2560 
L 4390 3379 
z
M 1107 4557 
L 1107 3123 
L 813 3123 
C 621 3123 518 3130 371 3155 
L 371 2675 
C 518 2701 634 2707 806 2707 
L 1107 2707 
L 1107 998 
C 672 838 474 774 250 730 
L 390 205 
C 467 243 493 256 646 314 
C 1517 659 1741 755 2317 1037 
L 2291 1517 
C 1952 1350 1837 1293 1574 1184 
L 1574 2707 
L 1798 2707 
C 1958 2707 2086 2701 2221 2682 
L 2221 3155 
C 2080 3130 1978 3123 1798 3123 
L 1574 3123 
L 1574 4557 
L 1856 4557 
C 2054 4557 2176 4550 2342 4531 
L 2342 5030 
C 2182 4998 2048 4992 1805 4992 
L 851 4992 
C 595 4992 448 5005 294 5030 
L 294 4525 
C 480 4550 550 4557 800 4557 
L 1107 4557 
z
" transform="scale(0.015625)"/>
      <path id="HiraginoSans-W4-8a3c" d="M 4237 262 
L 3501 262 
L 3501 2835 
C 3501 3142 3514 3315 3539 3501 
L 2995 3501 
C 3027 3290 3034 3123 3034 2835 
L 3034 262 
C 2784 262 2688 269 2554 288 
L 2554 -224 
C 2714 -205 2912 -192 3219 -192 
L 5498 -192 
C 5773 -192 5978 -205 6170 -230 
L 6170 301 
C 5978 275 5773 262 5504 262 
L 4710 262 
L 4710 2381 
L 5338 2381 
C 5613 2381 5792 2368 5965 2342 
L 5965 2867 
C 5792 2842 5619 2829 5338 2829 
L 4710 2829 
L 4710 4582 
L 5389 4582 
C 5664 4582 5869 4570 6061 4544 
L 6061 5069 
C 5882 5043 5670 5030 5382 5030 
L 3411 5030 
C 3123 5030 2912 5043 2733 5069 
L 2733 4544 
C 2925 4570 3136 4582 3411 4582 
L 4237 4582 
L 4237 262 
z
M 506 4678 
C 666 4698 794 4704 1005 4704 
L 1914 4704 
C 2118 4704 2259 4698 2413 4678 
L 2413 5146 
C 2246 5120 2144 5114 1914 5114 
L 1005 5114 
C 768 5114 672 5120 506 5146 
L 506 4678 
z
M 288 3770 
C 448 3789 576 3795 800 3795 
L 2106 3795 
C 2349 3795 2432 3789 2579 3770 
L 2579 4250 
C 2438 4230 2323 4224 2067 4224 
L 800 4224 
C 557 4224 435 4230 288 4256 
L 288 3770 
z
M 531 2874 
C 672 2893 768 2899 979 2899 
L 1939 2899 
C 2144 2899 2227 2893 2381 2874 
L 2381 3328 
C 2266 3309 2163 3302 1939 3302 
L 979 3302 
C 755 3302 659 3309 531 3328 
L 531 2874 
z
M 531 1984 
C 666 2003 768 2010 979 2010 
L 1933 2010 
C 2144 2010 2234 2003 2381 1984 
L 2381 2438 
C 2259 2419 2157 2413 1939 2413 
L 979 2413 
C 768 2413 646 2419 531 2438 
L 531 1984 
z
M 966 -493 
L 966 -160 
L 1907 -160 
L 1907 -410 
L 2355 -410 
C 2342 -282 2336 -147 2336 109 
L 2336 1043 
C 2336 1274 2342 1395 2355 1536 
C 2240 1517 2170 1517 1901 1517 
L 1005 1517 
C 819 1517 672 1523 499 1542 
C 525 1376 531 1222 531 1011 
L 531 128 
C 531 -122 518 -301 493 -493 
L 966 -493 
z
M 966 1120 
L 1907 1120 
L 1907 237 
L 966 237 
L 966 1120 
z
" transform="scale(0.015625)"/>
      <path id="HiraginoSans-W4-660e" d="M 5363 1600 
L 5363 288 
C 5363 115 5318 70 5146 70 
C 4941 70 4710 96 4390 147 
C 4461 -26 4493 -160 4518 -371 
C 4768 -384 4998 -397 5133 -397 
C 5690 -397 5850 -262 5850 198 
L 5850 4397 
C 5850 4698 5856 4890 5875 5043 
C 5702 5024 5555 5018 5242 5018 
L 3866 5018 
C 3571 5018 3405 5024 3226 5043 
C 3251 4851 3258 4486 3258 3802 
C 3258 2291 3187 1613 2970 1050 
C 2778 557 2522 224 2048 -147 
C 2227 -269 2317 -352 2445 -512 
C 2835 -173 3027 64 3226 442 
C 3411 794 3526 1152 3603 1600 
L 5363 1600 
z
M 5363 3123 
L 5363 2035 
L 3661 2035 
C 3693 2374 3712 2637 3725 3123 
L 5363 3123 
z
M 5363 3552 
L 3738 3552 
C 3738 3629 3738 3654 3738 3770 
L 3738 4576 
L 5363 4576 
L 5363 3552 
z
M 582 1389 
C 582 1107 570 883 544 685 
L 1056 685 
L 1056 1184 
L 2195 1184 
L 2195 896 
L 2675 896 
C 2662 1069 2656 1197 2656 1530 
L 2656 4294 
C 2656 4614 2662 4736 2675 4896 
C 2515 4883 2400 4877 2106 4877 
L 1325 4877 
C 909 4877 755 4883 557 4896 
C 576 4704 582 4557 582 4275 
L 582 1389 
z
M 1050 4442 
L 2195 4442 
L 2195 3302 
L 1050 3302 
L 1050 4442 
z
M 1050 2880 
L 2195 2880 
L 2195 1613 
L 1050 1613 
L 1050 2880 
z
" transform="scale(0.015625)"/>
      <path id="HiraginoSans-W4-69cb" d="M 3725 2925 
L 3725 2554 
L 3002 2554 
C 2694 2554 2483 2560 2330 2566 
C 2349 2368 2355 2234 2355 1965 
L 2355 941 
C 2163 941 2061 947 1933 973 
L 1933 525 
C 2067 550 2176 557 2355 557 
L 2355 218 
C 2355 -147 2349 -301 2323 -512 
L 2822 -512 
C 2797 -314 2797 -205 2797 218 
L 2797 557 
L 5171 557 
L 5171 134 
C 5171 -6 5126 -32 4915 -32 
C 4717 -32 4531 -19 4262 19 
C 4307 -122 4339 -269 4352 -410 
C 4538 -422 4800 -435 4934 -435 
C 5472 -435 5606 -326 5606 96 
L 5606 557 
C 5837 557 5946 550 6112 531 
L 6112 979 
C 5952 947 5862 941 5606 941 
L 5606 1939 
C 5606 2246 5613 2432 5632 2586 
C 5472 2560 5286 2554 5024 2554 
L 4141 2554 
L 4141 2925 
L 5459 2925 
C 5747 2925 5888 2918 6080 2893 
L 6080 3341 
C 5907 3315 5741 3302 5466 3302 
L 4928 3302 
L 4928 3699 
L 5242 3699 
C 5485 3699 5613 3693 5760 3674 
L 5760 4096 
C 5606 4070 5453 4064 5235 4064 
L 4928 4064 
L 4928 4442 
L 5408 4442 
C 5670 4442 5779 4435 5965 4410 
L 5965 4845 
C 5798 4819 5651 4806 5408 4806 
L 4928 4806 
C 4928 5043 4934 5178 4966 5331 
L 4461 5331 
C 4493 5210 4493 5146 4499 4806 
L 3482 4806 
C 3482 5101 3488 5197 3514 5331 
L 3014 5331 
C 3040 5197 3046 5088 3053 4806 
L 2714 4806 
C 2470 4806 2330 4813 2163 4838 
L 2163 4416 
C 2330 4435 2490 4442 2720 4442 
L 3053 4442 
L 3053 4064 
L 2886 4064 
C 2662 4064 2515 4070 2362 4090 
L 2362 3674 
C 2522 3693 2656 3699 2886 3699 
L 3053 3699 
L 3053 3302 
L 2650 3302 
C 2368 3302 2221 3309 2054 3334 
L 2054 2893 
C 2234 2918 2387 2925 2662 2925 
L 3725 2925 
z
M 3725 941 
L 2797 941 
L 2797 1402 
L 3725 1402 
L 3725 941 
z
M 4141 941 
L 4141 1402 
L 5171 1402 
L 5171 941 
L 4141 941 
z
M 3725 1766 
L 2797 1766 
L 2797 2189 
L 3725 2189 
L 3725 1766 
z
M 4141 1766 
L 4141 2189 
L 5171 2189 
L 5171 1766 
L 4141 1766 
z
M 3482 3302 
L 3482 3699 
L 4499 3699 
L 4499 3302 
L 3482 3302 
z
M 3482 4064 
L 3482 4442 
L 4499 4442 
L 4499 4064 
L 3482 4064 
z
M 1792 3686 
C 1952 3686 2061 3680 2195 3661 
L 2195 4134 
C 2074 4115 1958 4109 1786 4109 
L 1581 4109 
L 1581 4698 
C 1581 5018 1587 5197 1613 5357 
L 1101 5357 
C 1126 5222 1133 5050 1133 4691 
L 1133 4109 
L 781 4109 
C 576 4109 467 4115 346 4134 
L 346 3661 
C 448 3680 595 3686 781 3686 
L 1062 3686 
C 870 2822 570 2118 154 1536 
C 326 1370 378 1306 467 1152 
C 787 1651 973 2099 1178 2880 
C 1152 2483 1139 2163 1139 1875 
L 1139 243 
C 1139 -77 1126 -326 1101 -512 
L 1619 -512 
C 1587 -326 1581 -102 1581 243 
L 1581 2080 
C 1581 2413 1568 2797 1549 3053 
C 1696 2669 1805 2458 1990 2182 
C 2099 2368 2157 2445 2272 2560 
C 2061 2784 1971 2912 1805 3238 
C 1722 3405 1683 3482 1613 3686 
L 1792 3686 
z
" transform="scale(0.015625)"/>
      <path id="HiraginoSans-W4-9020" d="M 3782 4045 
L 3782 3264 
L 2566 3264 
C 2285 3264 2125 3270 1984 3296 
L 1984 2816 
C 2157 2829 2349 2842 2547 2842 
L 5402 2842 
C 5613 2842 5792 2829 5990 2810 
L 5990 3296 
C 5843 3270 5690 3264 5402 3264 
L 4237 3264 
L 4237 4045 
L 5133 4045 
C 5408 4045 5568 4038 5747 4019 
L 5747 4506 
C 5587 4480 5427 4467 5120 4467 
L 4237 4467 
L 4237 4672 
C 4237 5005 4243 5178 4275 5318 
L 3744 5318 
C 3770 5158 3782 5005 3782 4672 
L 3782 4467 
L 3014 4467 
C 3168 4819 3181 4845 3200 4902 
C 3219 4934 3226 4960 3226 4960 
C 3270 5050 3270 5050 3283 5088 
L 2797 5216 
C 2778 5101 2752 5024 2707 4896 
C 2528 4429 2330 4102 1971 3706 
C 2170 3616 2253 3558 2387 3443 
C 2592 3699 2662 3802 2803 4045 
L 3782 4045 
z
M 4902 646 
C 5197 646 5370 640 5562 621 
C 5542 774 5542 864 5542 1235 
L 5542 1754 
C 5542 2125 5542 2227 5568 2374 
C 5363 2355 5190 2349 4890 2349 
L 3149 2349 
C 2835 2349 2662 2355 2464 2374 
C 2483 2253 2490 2118 2490 1805 
L 2490 1242 
C 2490 845 2483 762 2464 621 
C 2650 640 2803 646 3085 646 
L 4902 646 
z
M 2950 1914 
L 5069 1914 
L 5069 1082 
L 2950 1082 
L 2950 1914 
z
M 416 4896 
C 851 4493 1107 4205 1453 3712 
L 1843 4064 
C 1504 4499 1222 4806 774 5210 
L 416 4896 
z
M 333 2304 
C 474 2330 589 2336 787 2336 
L 1190 2336 
L 1190 832 
C 826 493 442 211 192 102 
L 435 -403 
C 518 -326 589 -269 653 -218 
C 1011 51 1126 147 1408 429 
C 1600 154 1779 -13 2048 -134 
C 2432 -314 2790 -358 3930 -358 
C 4659 -358 5408 -346 6074 -320 
C 6112 -77 6118 -64 6234 230 
C 5574 141 4781 102 3610 102 
C 2880 102 2515 147 2208 282 
C 1939 397 1818 518 1664 826 
L 1664 2118 
C 1664 2445 1670 2592 1696 2803 
C 1542 2778 1395 2771 1203 2771 
L 832 2771 
C 595 2771 486 2778 333 2803 
L 333 2304 
z
" transform="scale(0.015625)"/>
     </defs>
     <use xlink:href="#HiraginoSans-W4-42"/>
     <use xlink:href="#HiraginoSans-W4-61" transform="translate(72.099991 0)"/>
     <use xlink:href="#HiraginoSans-W4-6e" transform="translate(131.299988 0)"/>
     <use xlink:href="#HiraginoSans-W4-61" transform="translate(194.699982 0)"/>
     <use xlink:href="#HiraginoSans-W4-63" transform="translate(253.899979 0)"/>
     <use xlink:href="#HiraginoSans-W4-68" transform="translate(312.999969 0)"/>
     <use xlink:href="#HiraginoSans-W4-20" transform="translate(376.299957 0)"/>
     <use xlink:href="#HiraginoSans-W4-4e0d" transform="translate(409.599945 0)"/>
     <use xlink:href="#HiraginoSans-W4-52d5" transform="translate(509.59993 0)"/>
     <use xlink:href="#HiraginoSans-W4-70b9" transform="translate(609.599915 0)"/>
     <use xlink:href="#HiraginoSans-W4-5b9a" transform="translate(709.599899 0)"/>
     <use xlink:href="#HiraginoSans-W4-7406" transform="translate(809.599884 0)"/>
     <use xlink:href="#HiraginoSans-W4-306e" transform="translate(909.599869 0)"/>
     <use xlink:href="#HiraginoSans-W4-8a3c" transform="translate(1009.599854 0)"/>
     <use xlink:href="#HiraginoSans-W4-660e" transform="translate(1109.599838 0)"/>
     <use xlink:href="#HiraginoSans-W4-69cb" transform="translate(1209.599823 0)"/>
     <use xlink:href="#HiraginoSans-W4-9020" transform="translate(1309.599808 0)"/>
    </g>
   </g>
  </g>
 </g>
 <defs>
  <clipPath id="pd53050e9c1">
   <rect x="7.2" y="29.993125" width="781.2" height="443.52"/>
  </clipPath>
 </defs>
</svg>
