<?xml version="1.0" encoding="utf-8" standalone="no"?>
<!DOCTYPE svg PUBLIC "-//W3C//DTD SVG 1.1//EN"
  "http://www.w3.org/Graphics/SVG/1.1/DTD/svg11.dtd">
<svg xmlns:xlink="http://www.w3.org/1999/xlink" width="684pt" height="367.062188pt" viewBox="0 0 684 367.062188" xmlns="http://www.w3.org/2000/svg" version="1.1">
 <metadata>
  <rdf:RDF xmlns:dc="http://purl.org/dc/elements/1.1/" xmlns:cc="http://creativecommons.org/ns#" xmlns:rdf="http://www.w3.org/1999/02/22-rdf-syntax-ns#">
   <cc:Work>
    <dc:type rdf:resource="http://purl.org/dc/dcmitype/StillImage"/>
    <dc:date>2026-04-02T01:10:17.123213</dc:date>
    <dc:format>image/svg+xml</dc:format>
    <dc:creator>
     <cc:Agent>
      <dc:title>Matplotlib v3.10.8, https://matplotlib.org/</dc:title>
     </cc:Agent>
    </dc:creator>
   </cc:Work>
  </rdf:RDF>
 </metadata>
 <defs>
  <style type="text/css">*{stroke-linejoin: round; stroke-linecap: butt}</style>
 </defs>
 <g id="figure_1">
  <g id="patch_1">
   <path d="M 0 367.062188 
L 684 367.062188 
L 684 0 
L 0 0 
z
" style="fill: #ffffff"/>
  </g>
  <g id="axes_1">
   <g id="patch_2">
    <path d="M 35.1 302.838188 
L 258.3 302.838188 
Q 275.04 302.838188 275.04 288.582188 
L 275.04 74.742188 
Q 275.04 60.486188 258.3 60.486188 
L 35.1 60.486188 
Q 18.36 60.486188 18.36 74.742188 
L 18.36 288.582188 
Q 18.36 302.838188 35.1 302.838188 
z
" clip-path="url(#p578e669e03)" style="fill: #deeaf1; stroke: #2e75b6; stroke-width: 2.5; stroke-linejoin: miter"/>
   </g>
   <g id="patch_3">
    <path d="M 425.7 302.838188 
L 648.9 302.838188 
Q 665.64 302.838188 665.64 288.582188 
L 665.64 74.742188 
Q 665.64 60.486188 648.9 60.486188 
L 425.7 60.486188 
Q 408.96 60.486188 408.96 74.742188 
L 408.96 288.582188 
Q 408.96 302.838188 425.7 302.838188 
z
" clip-path="url(#p578e669e03)" style="fill: #e2efda; stroke: #538135; stroke-width: 2.5; stroke-linejoin: miter"/>
   </g>
   <g id="patch_4">
    <path d="M 275.04 241.062188 
L 408.96 241.062188 
Q 425.7 241.062188 425.7 226.806188 
L 425.7 160.278188 
Q 425.7 146.022188 408.96 146.022188 
L 275.04 146.022188 
Q 258.3 146.022188 258.3 160.278188 
L 258.3 226.806188 
Q 258.3 241.062188 275.04 241.062188 
z
" clip-path="url(#p578e669e03)" style="fill: #fff2cc; stroke: #c9a800; stroke-width: 2.5; stroke-linejoin: miter"/>
   </g>
   <g id="text_1">
    <!-- ε-δ 定義 -->
    <g style="fill: #1f4e79" transform="translate(115.6625 102.291484) scale(0.13 -0.13)">
     <defs>
      <path id="HiraginoSans-W7-3b5" d="M 5146 3078 
C 4947 3302 4832 3398 4634 3507 
C 4339 3674 3981 3750 3526 3750 
C 2477 3750 1766 3270 1766 2554 
C 1766 2240 1952 1958 2227 1869 
C 1978 1818 1862 1773 1715 1664 
C 1453 1472 1312 1190 1312 851 
C 1312 397 1581 19 2016 -128 
C 2304 -230 2656 -282 3014 -282 
C 3488 -282 3872 -198 4224 -19 
C 4461 102 4595 205 4851 480 
L 4141 986 
C 3770 653 3430 518 2982 518 
C 2554 518 2310 672 2310 941 
C 2310 1088 2387 1222 2522 1306 
C 2618 1370 2752 1402 2938 1402 
C 3174 1402 3482 1382 3718 1350 
L 3968 2246 
C 3763 2214 3373 2195 3104 2195 
C 2848 2195 2714 2298 2714 2502 
C 2714 2784 2995 2957 3450 2957 
C 3744 2957 3974 2906 4173 2790 
C 4282 2726 4339 2675 4454 2534 
L 5146 3078 
z
" transform="scale(0.015625)"/>
      <path id="HiraginoSans-W7-2d" d="M 237 1338 
C 448 1363 602 1376 851 1376 
L 1971 1376 
C 2221 1376 2374 1363 2586 1338 
L 2586 2355 
C 2400 2330 2227 2317 1971 2317 
L 851 2317 
C 595 2317 422 2330 237 2355 
L 237 1338 
z
" transform="scale(0.015625)"/>
      <path id="HiraginoSans-W7-3b4" d="M 5363 5062 
C 4832 5133 4397 5158 3930 5158 
C 3475 5158 3238 5120 3078 5018 
C 2950 4934 2867 4787 2867 4640 
C 2867 4499 2925 4403 3123 4173 
C 3334 3936 3437 3814 3558 3635 
C 3424 3693 3296 3712 3104 3712 
C 2598 3712 2118 3526 1747 3194 
C 1306 2784 1050 2157 1050 1466 
C 1050 870 1254 403 1651 83 
C 1926 -147 2336 -269 2810 -269 
C 3469 -269 4077 -6 4467 448 
C 4806 838 5024 1498 5024 2112 
C 5024 2534 4890 2976 4646 3373 
C 4467 3654 4166 4038 4006 4186 
C 3917 4275 3898 4301 3898 4333 
C 3898 4378 3936 4397 4013 4397 
C 4352 4397 4646 4358 5101 4243 
L 5363 5062 
z
M 3258 2938 
C 3731 2938 4019 2630 4019 2131 
C 4019 1747 3885 1312 3686 1030 
C 3469 723 3168 557 2829 557 
C 2317 557 2048 870 2048 1459 
C 2048 1747 2138 2080 2285 2342 
C 2509 2726 2848 2938 3258 2938 
z
" transform="scale(0.015625)"/>
      <path id="HiraginoSans-W7-20" transform="scale(0.015625)"/>
      <path id="HiraginoSans-W7-5b9a" d="M 2893 608 
C 2490 787 2266 986 2016 1402 
C 2112 1715 2195 2010 2272 2330 
L 1434 2483 
C 1395 2086 1210 1498 998 1101 
C 781 698 563 403 218 70 
C 512 -141 666 -294 870 -563 
C 1235 -173 1453 147 1696 627 
C 1971 256 2291 13 2714 -160 
C 3149 -333 3795 -416 4698 -416 
C 5043 -416 5427 -410 5978 -397 
C 6016 -51 6061 134 6176 461 
C 5472 403 5062 384 4640 384 
C 4256 384 3987 397 3693 429 
L 3693 1376 
L 4870 1376 
C 5171 1376 5325 1370 5517 1344 
L 5517 2144 
C 5338 2118 5190 2112 4870 2112 
L 3693 2112 
L 3693 2816 
L 4646 2816 
C 4954 2816 5126 2810 5312 2784 
L 5312 3264 
L 6029 3264 
C 6003 3443 5997 3603 5997 3795 
L 5997 4346 
C 5997 4531 6003 4666 6022 4832 
C 5773 4813 5542 4806 5286 4806 
L 3603 4806 
L 3603 4998 
C 3603 5165 3610 5261 3635 5402 
L 2714 5402 
C 2739 5261 2746 5158 2746 4992 
L 2746 4806 
L 1126 4806 
C 870 4806 640 4813 390 4832 
C 410 4672 416 4512 416 4346 
L 416 3802 
C 416 3565 410 3424 384 3264 
L 1114 3264 
L 1114 2784 
C 1293 2810 1485 2816 1779 2816 
L 2893 2816 
L 2893 608 
z
M 5203 3571 
C 5043 3558 4883 3552 4646 3552 
L 1779 3552 
C 1536 3552 1376 3558 1222 3571 
L 1222 4051 
L 5203 4051 
L 5203 3571 
z
" transform="scale(0.015625)"/>
      <path id="HiraginoSans-W7-7fa9" d="M 5056 1402 
L 5466 1402 
C 5536 1402 5600 1402 5658 1402 
C 5920 1402 6016 1395 6138 1382 
L 6144 2016 
C 5971 1990 5830 1978 5466 1978 
L 5190 1978 
L 5600 2291 
C 5331 2515 5171 2624 4851 2803 
L 5466 2803 
C 5798 2803 5939 2797 6138 2771 
L 6138 3411 
C 5965 3386 5779 3379 5466 3379 
L 3526 3379 
L 3526 3597 
L 4800 3597 
C 5152 3597 5261 3590 5446 3571 
L 5446 4134 
C 5293 4115 5158 4109 4800 4109 
L 3526 4109 
L 3526 4320 
L 5165 4320 
C 5485 4320 5606 4314 5830 4294 
L 5830 4922 
C 5645 4896 5523 4890 5165 4890 
L 4461 4890 
C 4563 4998 4672 5139 4781 5299 
L 3936 5459 
C 3834 5235 3744 5069 3603 4890 
L 2752 4890 
C 2611 5107 2598 5126 2330 5453 
L 1574 5286 
C 1741 5101 1798 5030 1901 4890 
L 1222 4890 
C 883 4890 749 4896 557 4922 
L 557 4294 
C 781 4314 915 4320 1222 4320 
L 2726 4320 
L 2726 4109 
L 1568 4109 
C 1203 4109 1088 4115 922 4134 
L 922 3571 
C 1107 3590 1216 3597 1568 3597 
L 2726 3597 
L 2726 3379 
L 928 3379 
C 614 3379 429 3386 250 3411 
L 250 2771 
C 422 2797 582 2803 928 2803 
L 2669 2803 
C 2285 2656 1568 2579 448 2560 
C 595 2362 627 2310 717 2080 
C 1120 2099 1267 2106 1562 2131 
L 1562 1952 
L 896 1946 
L 794 1946 
C 576 1946 435 1952 256 1978 
L 256 1338 
C 454 1363 582 1370 896 1370 
L 1562 1376 
L 1562 1037 
C 1190 1018 998 1011 774 1011 
C 582 1011 467 1011 314 1024 
L 429 346 
C 493 358 525 365 570 365 
C 634 371 672 371 691 371 
C 749 378 845 384 979 397 
C 1312 422 1312 422 1562 442 
L 1562 205 
C 1562 90 1536 77 1338 77 
C 1171 77 954 96 685 128 
C 800 -134 851 -301 890 -531 
C 1210 -550 1280 -550 1440 -550 
C 1856 -550 2035 -518 2163 -416 
C 2285 -320 2330 -179 2330 70 
L 2330 512 
C 2618 538 2618 538 3245 614 
L 3258 1197 
C 2816 1126 2720 1120 2330 1088 
L 2330 1382 
L 3462 1389 
C 3539 1133 3654 883 3840 576 
C 3411 371 3027 250 2547 160 
C 2720 -51 2829 -224 2944 -486 
C 3533 -294 3795 -186 4243 70 
C 4666 -333 5069 -531 5453 -531 
C 5862 -531 6074 -275 6278 493 
C 6061 602 5978 672 5709 915 
C 5594 371 5523 218 5376 218 
C 5274 218 5114 307 4883 486 
C 5094 640 5408 890 5466 947 
C 5530 1018 5530 1018 5574 1056 
L 5056 1402 
z
M 4960 1402 
C 4877 1280 4710 1120 4480 954 
C 4384 1107 4339 1203 4269 1395 
L 4960 1402 
z
M 4115 1971 
C 4077 2208 4058 2374 4058 2547 
C 4058 2605 4058 2618 4064 2662 
L 3251 2662 
C 3270 2586 3277 2534 3290 2374 
C 3296 2253 3309 2150 3341 1965 
L 2330 1958 
L 2330 2214 
C 2714 2272 2912 2304 3162 2349 
L 2682 2803 
L 4698 2803 
L 4237 2483 
C 4480 2330 4717 2157 4934 1978 
L 4115 1971 
z
" transform="scale(0.015625)"/>
     </defs>
     <use xlink:href="#HiraginoSans-W7-3b5"/>
     <use xlink:href="#HiraginoSans-W7-2d" transform="translate(99.999985 0)"/>
     <use xlink:href="#HiraginoSans-W7-3b4" transform="translate(144.199982 0)"/>
     <use xlink:href="#HiraginoSans-W7-20" transform="translate(244.199966 0)"/>
     <use xlink:href="#HiraginoSans-W7-5b9a" transform="translate(277.499954 0)"/>
     <use xlink:href="#HiraginoSans-W7-7fa9" transform="translate(377.499939 0)"/>
    </g>
   </g>
   <g id="text_2">
    <!-- ∀ε &gt; 0, -->
    <g style="fill: #1f4e79" transform="translate(127.355469 144.099875) scale(0.1 -0.1)">
     <defs>
      <path id="HiraginoSans-W4-2200" d="M 3590 3610 
L 1274 3610 
L 608 5062 
L 83 4819 
L 2432 -128 
L 4781 4819 
L 4256 5062 
L 3590 3610 
z
M 2432 1088 
L 1517 3091 
L 3347 3091 
L 2432 1088 
z
" transform="scale(0.015625)"/>
      <path id="HiraginoSans-W4-3b5" d="M 4800 2976 
C 4506 3386 4096 3571 3475 3571 
C 2592 3571 1978 3136 1978 2509 
C 1978 2195 2106 1984 2387 1850 
C 2144 1773 2022 1709 1894 1587 
C 1696 1402 1594 1152 1594 858 
C 1594 570 1715 320 1946 134 
C 2157 -26 2541 -122 2982 -122 
C 3424 -122 3795 -26 4096 166 
C 4256 269 4352 365 4525 576 
L 4045 845 
C 3770 518 3418 358 2970 358 
C 2464 358 2170 570 2170 922 
C 2170 1094 2253 1274 2387 1395 
C 2541 1523 2720 1574 3027 1574 
C 3264 1574 3488 1555 3686 1523 
L 3840 2099 
C 3654 2074 3392 2054 3123 2054 
C 2886 2054 2771 2080 2675 2163 
C 2586 2234 2534 2355 2534 2483 
C 2534 2854 2893 3098 3437 3098 
C 3891 3098 4154 2976 4352 2675 
L 4800 2976 
z
" transform="scale(0.015625)"/>
      <path id="HiraginoSans-W4-20" transform="scale(0.015625)"/>
      <path id="HiraginoSans-W4-3e" d="M 2394 1786 
L 186 550 
L 186 -64 
L 3200 1677 
L 3200 1901 
L 186 3642 
L 186 3027 
L 2394 1786 
z
" transform="scale(0.015625)"/>
      <path id="HiraginoSans-W4-30" d="M 2144 -90 
C 2758 -90 3232 141 3565 602 
C 3846 998 4019 1696 4019 2464 
C 4019 3002 3936 3501 3770 3949 
C 3693 4160 3558 4371 3379 4550 
C 3078 4858 2650 5024 2157 5024 
C 1498 5024 986 4742 666 4205 
C 435 3834 288 3142 288 2458 
C 288 1939 371 1434 538 986 
C 614 768 749 563 928 384 
C 1242 70 1651 -90 2144 -90 
z
M 2144 4499 
C 2592 4499 2918 4307 3123 3923 
C 3283 3629 3398 3014 3398 2470 
C 3398 2022 3341 1619 3213 1235 
C 3155 1043 3046 870 2912 730 
C 2726 538 2458 435 2150 435 
C 1734 435 1414 614 1197 973 
C 1024 1261 902 1875 902 2451 
C 902 2906 966 3328 1088 3699 
C 1139 3866 1235 4026 1370 4173 
C 1568 4397 1818 4499 2144 4499 
z
" transform="scale(0.015625)"/>
      <path id="HiraginoSans-W4-2c" d="M 1165 723 
L 435 723 
L 435 0 
L 858 0 
C 851 -403 800 -499 493 -614 
L 685 -864 
C 1062 -672 1165 -493 1165 0 
L 1165 723 
z
" transform="scale(0.015625)"/>
     </defs>
     <use xlink:href="#HiraginoSans-W4-2200"/>
     <use xlink:href="#HiraginoSans-W4-3b5" transform="translate(75.999985 0)"/>
     <use xlink:href="#HiraginoSans-W4-20" transform="translate(175.999969 0)"/>
     <use xlink:href="#HiraginoSans-W4-3e" transform="translate(209.299957 0)"/>
     <use xlink:href="#HiraginoSans-W4-20" transform="translate(261.299942 0)"/>
     <use xlink:href="#HiraginoSans-W4-30" transform="translate(294.59993 0)"/>
     <use xlink:href="#HiraginoSans-W4-2c" transform="translate(361.899918 0)"/>
    </g>
   </g>
   <g id="text_3">
    <!-- ∃δ &gt; 0, -->
    <g style="fill: #1f4e79" transform="translate(127.355469 177.363875) scale(0.1 -0.1)">
     <defs>
      <path id="HiraginoSans-W4-2203" d="M 3475 2752 
L 678 2752 
L 678 2214 
L 3475 2214 
L 3475 538 
L 685 538 
L 685 0 
L 4070 0 
L 4070 4934 
L 685 4934 
L 685 4397 
L 3475 4397 
L 3475 2752 
z
" transform="scale(0.015625)"/>
      <path id="HiraginoSans-W4-3b4" d="M 5062 4902 
C 4634 4960 4314 4979 3891 4979 
C 3546 4979 3373 4960 3245 4896 
C 3136 4845 3059 4742 3059 4640 
C 3059 4525 3091 4474 3334 4198 
C 3584 3917 3802 3610 3923 3373 
C 3699 3501 3501 3546 3213 3546 
C 2106 3546 1261 2624 1261 1408 
C 1261 474 1843 -115 2771 -115 
C 3443 -115 4045 192 4403 717 
C 4666 1094 4800 1600 4800 2182 
C 4800 2573 4736 2848 4531 3264 
C 4378 3590 4154 3930 3885 4230 
C 3744 4390 3706 4435 3706 4467 
C 3706 4499 3750 4518 3840 4518 
C 4186 4518 4506 4480 4909 4390 
L 5062 4902 
z
M 3277 3072 
C 3859 3072 4218 2694 4218 2080 
C 4218 1645 4077 1216 3827 896 
C 3571 557 3213 378 2797 378 
C 2195 378 1850 762 1850 1414 
C 1850 1760 1939 2099 2112 2387 
C 2374 2829 2784 3072 3277 3072 
z
" transform="scale(0.015625)"/>
     </defs>
     <use xlink:href="#HiraginoSans-W4-2203"/>
     <use xlink:href="#HiraginoSans-W4-3b4" transform="translate(75.999985 0)"/>
     <use xlink:href="#HiraginoSans-W4-20" transform="translate(175.999969 0)"/>
     <use xlink:href="#HiraginoSans-W4-3e" transform="translate(209.299957 0)"/>
     <use xlink:href="#HiraginoSans-W4-20" transform="translate(261.299942 0)"/>
     <use xlink:href="#HiraginoSans-W4-30" transform="translate(294.59993 0)"/>
     <use xlink:href="#HiraginoSans-W4-2c" transform="translate(361.899918 0)"/>
    </g>
   </g>
   <g id="text_4">
    <!-- ∀y, d(x,y) &lt; δ -->
    <g style="fill: #1f4e79" transform="translate(112.254687 210.702875) scale(0.1 -0.1)">
     <defs>
      <path id="HiraginoSans-W4-79" d="M 1600 154 
L 1325 -486 
C 1229 -710 1069 -832 858 -832 
C 730 -832 621 -800 442 -717 
L 301 -1274 
C 550 -1325 710 -1344 864 -1344 
C 1357 -1344 1664 -1146 1843 -717 
L 3283 2758 
C 3462 3181 3571 3437 3603 3520 
L 2912 3520 
C 2880 3334 2829 3168 2694 2816 
L 1901 768 
L 1011 2822 
C 902 3072 819 3341 787 3520 
L 64 3520 
C 134 3386 134 3386 422 2758 
L 1600 154 
z
" transform="scale(0.015625)"/>
      <path id="HiraginoSans-W4-64" d="M 3187 0 
L 3802 0 
C 3770 250 3757 442 3757 774 
L 3757 4173 
C 3757 4467 3770 4666 3802 4934 
L 3142 4934 
C 3174 4691 3187 4486 3187 4173 
L 3187 3398 
C 3187 3296 3187 3194 3194 3149 
C 3200 3040 3200 3040 3206 2970 
C 2918 3379 2470 3597 1901 3597 
C 909 3597 282 2886 282 1766 
C 282 1171 461 672 794 339 
C 1069 70 1446 -64 1914 -64 
C 2483 -64 2880 128 3206 563 
C 3200 480 3187 365 3187 288 
L 3187 0 
z
M 1971 3098 
C 2310 3098 2618 2976 2842 2752 
C 3059 2541 3181 2189 3181 1786 
C 3181 966 2707 429 1978 429 
C 1709 429 1459 512 1274 672 
C 1024 890 883 1280 883 1786 
C 883 2598 1293 3098 1971 3098 
z
" transform="scale(0.015625)"/>
      <path id="HiraginoSans-W4-28" d="M 2195 -749 
C 1830 -198 1683 90 1542 538 
C 1402 986 1331 1472 1331 1978 
C 1331 2483 1402 2963 1542 3411 
C 1683 3859 1830 4147 2195 4698 
L 1715 5018 
C 1350 4461 1197 4173 1037 3712 
C 838 3155 742 2579 742 1978 
C 742 1376 838 794 1037 243 
C 1197 -218 1350 -512 1715 -1062 
L 2195 -749 
z
" transform="scale(0.015625)"/>
      <path id="HiraginoSans-W4-78" d="M 3469 0 
C 3238 294 3078 512 3008 614 
L 2138 1824 
L 2963 2982 
C 3021 3072 3168 3270 3206 3322 
C 3315 3462 3315 3462 3354 3520 
L 2630 3520 
C 2566 3386 2483 3238 2368 3072 
L 1792 2227 
L 1203 3072 
C 1088 3238 1024 3360 947 3520 
L 211 3520 
C 474 3174 557 3072 608 3002 
L 1440 1830 
L 531 563 
C 422 410 237 160 109 0 
L 858 0 
C 966 205 1018 294 1114 435 
L 1786 1421 
L 2426 486 
C 2566 288 2624 192 2720 0 
L 3469 0 
z
" transform="scale(0.015625)"/>
      <path id="HiraginoSans-W4-29" d="M 653 -1062 
C 1018 -512 1171 -218 1331 243 
C 1530 794 1626 1370 1626 1978 
C 1626 2579 1530 3155 1331 3712 
C 1171 4173 1018 4461 653 5018 
L 173 4698 
C 538 4147 685 3859 826 3411 
C 966 2963 1037 2490 1037 1978 
C 1037 1466 966 986 826 538 
C 685 90 538 -198 173 -749 
L 653 -1062 
z
" transform="scale(0.015625)"/>
      <path id="HiraginoSans-W4-3c" d="M 928 1786 
L 3136 3027 
L 3136 3642 
L 122 1901 
L 122 1677 
L 3136 -64 
L 3136 550 
L 928 1786 
z
" transform="scale(0.015625)"/>
     </defs>
     <use xlink:href="#HiraginoSans-W4-2200"/>
     <use xlink:href="#HiraginoSans-W4-79" transform="translate(75.999985 0)"/>
     <use xlink:href="#HiraginoSans-W4-2c" transform="translate(133.399979 0)"/>
     <use xlink:href="#HiraginoSans-W4-20" transform="translate(158.399963 0)"/>
     <use xlink:href="#HiraginoSans-W4-64" transform="translate(191.699951 0)"/>
     <use xlink:href="#HiraginoSans-W4-28" transform="translate(257.999939 0)"/>
     <use xlink:href="#HiraginoSans-W4-78" transform="translate(294.999924 0)"/>
     <use xlink:href="#HiraginoSans-W4-2c" transform="translate(350.899918 0)"/>
     <use xlink:href="#HiraginoSans-W4-79" transform="translate(375.899902 0)"/>
     <use xlink:href="#HiraginoSans-W4-29" transform="translate(433.299896 0)"/>
     <use xlink:href="#HiraginoSans-W4-20" transform="translate(470.299881 0)"/>
     <use xlink:href="#HiraginoSans-W4-3c" transform="translate(503.599869 0)"/>
     <use xlink:href="#HiraginoSans-W4-20" transform="translate(555.599854 0)"/>
     <use xlink:href="#HiraginoSans-W4-3b4" transform="translate(588.899841 0)"/>
    </g>
   </g>
   <g id="text_5">
    <!--   ⟹ d(f(x),f(y)) &lt; ε -->
    <g style="fill: #1f4e79" transform="translate(97.234375 243.9325) scale(0.1 -0.1)">
     <defs>
      <path id="STIXGeneral-Regular-27f9" d="M 9722 1651 
L 9722 1587 
Q 9536 1446 9149 1158 
Q 8762 870 8528 694 
Q 8294 518 7968 246 
Q 7642 -26 7379 -288 
L 7245 -160 
Q 7450 77 7725 365 
Q 7731 378 7753 400 
Q 7776 422 7785 428 
Q 7795 435 7811 454 
Q 7827 474 7830 483 
Q 7834 493 7843 512 
Q 7853 531 7856 547 
Q 7859 563 7862 582 
Q 7866 602 7866 627 
Q 7866 672 7821 720 
Q 7776 768 7699 768 
L 352 768 
L 352 1190 
L 8621 1190 
Q 8998 1408 8998 1619 
Q 8998 1792 8627 2048 
L 352 2048 
L 352 2470 
L 7699 2470 
Q 7776 2470 7821 2518 
Q 7866 2566 7866 2611 
Q 7866 2733 7718 2880 
Q 7514 3085 7245 3398 
L 7379 3526 
Q 7642 3264 7974 2982 
Q 8307 2701 8508 2547 
Q 8710 2394 9155 2067 
Q 9600 1741 9722 1651 
z
" transform="scale(0.015625)"/>
      <path id="HiraginoSans-W4-66" d="M 922 3034 
L 922 755 
C 922 467 909 237 877 0 
L 1549 0 
C 1517 224 1504 429 1504 755 
L 1504 3034 
L 1818 3034 
C 2131 3034 2291 3021 2509 2995 
L 2509 3558 
C 2266 3533 2080 3520 1818 3520 
L 1504 3520 
L 1504 3846 
C 1504 4198 1542 4333 1670 4429 
C 1760 4493 1882 4518 2048 4518 
C 2227 4518 2394 4474 2566 4378 
L 2714 4870 
C 2470 4960 2259 4998 2010 4998 
C 1626 4998 1318 4890 1152 4691 
C 986 4506 922 4282 922 3885 
L 922 3520 
L 659 3520 
C 416 3520 243 3533 70 3558 
L 70 2995 
C 269 3021 435 3034 659 3034 
L 922 3034 
z
" transform="scale(0.015625)"/>
     </defs>
     <use xlink:href="#HiraginoSans-W4-20"/>
     <use xlink:href="#HiraginoSans-W4-20" transform="translate(33.299988 0)"/>
     <use xlink:href="#STIXGeneral-Regular-27f9" transform="translate(66.599976 0)"/>
     <use xlink:href="#HiraginoSans-W4-20" transform="translate(223.999954 0)"/>
     <use xlink:href="#HiraginoSans-W4-64" transform="translate(257.299942 0)"/>
     <use xlink:href="#HiraginoSans-W4-28" transform="translate(323.59993 0)"/>
     <use xlink:href="#HiraginoSans-W4-66" transform="translate(360.599915 0)"/>
     <use xlink:href="#HiraginoSans-W4-28" transform="translate(403.999908 0)"/>
     <use xlink:href="#HiraginoSans-W4-78" transform="translate(440.999893 0)"/>
     <use xlink:href="#HiraginoSans-W4-29" transform="translate(496.899887 0)"/>
     <use xlink:href="#HiraginoSans-W4-2c" transform="translate(533.899872 0)"/>
     <use xlink:href="#HiraginoSans-W4-66" transform="translate(558.899857 0)"/>
     <use xlink:href="#HiraginoSans-W4-28" transform="translate(602.29985 0)"/>
     <use xlink:href="#HiraginoSans-W4-79" transform="translate(639.299835 0)"/>
     <use xlink:href="#HiraginoSans-W4-29" transform="translate(696.699829 0)"/>
     <use xlink:href="#HiraginoSans-W4-29" transform="translate(733.699814 0)"/>
     <use xlink:href="#HiraginoSans-W4-20" transform="translate(770.699799 0)"/>
     <use xlink:href="#HiraginoSans-W4-3c" transform="translate(803.999786 0)"/>
     <use xlink:href="#HiraginoSans-W4-20" transform="translate(855.999771 0)"/>
     <use xlink:href="#HiraginoSans-W4-3b5" transform="translate(889.299759 0)"/>
    </g>
   </g>
   <g id="text_6">
    <!-- フィルター定義 -->
    <g style="fill: #375623" transform="translate(491.8 102.291484) scale(0.13 -0.13)">
     <defs>
      <path id="HiraginoSans-W7-30d5" d="M 5242 4819 
C 5069 4762 4941 4749 4659 4749 
L 1728 4749 
C 1197 4749 998 4755 723 4794 
L 723 3814 
C 986 3846 1190 3853 1715 3853 
L 4518 3853 
C 4224 2688 3597 1811 2611 1184 
C 2144 890 1792 723 1235 550 
C 1600 186 1702 45 1914 -365 
C 3014 128 3738 627 4326 1318 
C 4941 2029 5318 2829 5619 4019 
C 5664 4198 5683 4237 5741 4339 
L 5242 4819 
z
" transform="scale(0.015625)"/>
      <path id="HiraginoSans-W7-30a3" d="M 4518 4211 
C 4333 3904 3898 3488 3354 3085 
C 2605 2534 1747 2131 768 1862 
C 998 1562 1069 1446 1235 1082 
C 2118 1408 2528 1587 2976 1869 
L 2976 333 
C 2976 -32 2970 -173 2938 -410 
L 3917 -410 
C 3891 -218 3878 -13 3878 333 
L 3878 2413 
C 4307 2714 4736 3098 5069 3456 
C 5203 3603 5203 3603 5286 3674 
L 4518 4211 
z
" transform="scale(0.015625)"/>
      <path id="HiraginoSans-W7-30eb" d="M 1376 5069 
C 1395 4902 1402 4781 1402 4422 
C 1402 4077 1389 3642 1376 3328 
C 1338 2650 1280 2278 1146 1856 
C 954 1235 678 826 186 390 
C 531 147 653 32 960 -358 
C 1376 64 1613 397 1837 864 
C 2176 1562 2298 2227 2342 3558 
C 2387 4819 2387 4819 2413 5011 
L 1376 5069 
z
M 3130 5114 
C 3149 4954 3155 4806 3155 4525 
C 3155 4467 3155 4410 3155 4346 
L 3130 749 
C 3123 442 3110 314 3066 134 
L 3539 -371 
C 3622 -320 3674 -301 3834 -243 
C 4486 0 4813 186 5184 506 
C 5638 902 5978 1395 6246 2061 
C 5894 2342 5792 2445 5530 2778 
C 5395 2323 5222 1978 4960 1645 
C 4717 1338 4480 1146 4083 928 
L 4115 4333 
C 4122 4768 4128 4845 4166 5107 
L 3130 5114 
z
" transform="scale(0.015625)"/>
      <path id="HiraginoSans-W7-30bf" d="M 2374 5376 
C 2310 5114 2189 4819 2003 4480 
C 1606 3750 1133 3213 403 2643 
C 787 2426 915 2330 1178 2035 
C 1818 2586 2266 3110 2656 3750 
L 4531 3770 
C 4371 3270 4179 2861 3904 2438 
C 3539 2720 3238 2918 2675 3232 
L 2093 2547 
C 2573 2285 2912 2054 3347 1690 
C 3027 1344 2765 1133 2336 858 
C 1958 627 1645 474 1114 262 
C 1421 -26 1530 -160 1747 -544 
C 2656 -128 3354 346 3917 928 
C 4595 1632 5088 2496 5510 3731 
C 5619 4051 5626 4064 5715 4166 
L 5216 4659 
C 5069 4595 4960 4582 4736 4576 
L 3046 4563 
C 3110 4678 3130 4723 3187 4838 
C 3270 5024 3290 5056 3354 5165 
L 2374 5376 
z
" transform="scale(0.015625)"/>
      <path id="HiraginoSans-W7-30fc" d="M 410 1914 
C 659 1939 1024 1952 1581 1952 
L 4813 1952 
C 5312 1952 5734 1939 5990 1920 
L 5990 2970 
C 5696 2931 5466 2925 4819 2925 
L 1581 2925 
C 928 2925 698 2938 410 2976 
L 410 1914 
z
" transform="scale(0.015625)"/>
     </defs>
     <use xlink:href="#HiraginoSans-W7-30d5"/>
     <use xlink:href="#HiraginoSans-W7-30a3" transform="translate(99.999985 0)"/>
     <use xlink:href="#HiraginoSans-W7-30eb" transform="translate(199.999969 0)"/>
     <use xlink:href="#HiraginoSans-W7-30bf" transform="translate(299.999954 0)"/>
     <use xlink:href="#HiraginoSans-W7-30fc" transform="translate(399.999939 0)"/>
     <use xlink:href="#HiraginoSans-W7-5b9a" transform="translate(499.999924 0)"/>
     <use xlink:href="#HiraginoSans-W7-7fa9" transform="translate(599.999908 0)"/>
    </g>
   </g>
   <g id="text_7">
    <!-- Filter.Tendsto f -->
    <g style="fill: #375623" transform="translate(500.558008 143.958391) scale(0.095 -0.095)">
     <defs>
      <path id="HiraginoSans-W4-46" d="M 1133 2285 
L 2598 2285 
C 2950 2285 3149 2272 3366 2240 
L 3366 2867 
C 3130 2835 2938 2822 2598 2822 
L 1133 2822 
L 1133 4390 
L 2944 4390 
C 3296 4390 3494 4378 3712 4346 
L 3712 4979 
C 3469 4947 3270 4934 2938 4934 
L 1210 4934 
C 896 4934 698 4941 480 4954 
C 518 4698 531 4493 531 4198 
L 531 794 
C 531 429 518 218 480 0 
L 1184 0 
C 1146 237 1133 429 1133 800 
L 1133 2285 
z
" transform="scale(0.015625)"/>
      <path id="HiraginoSans-W4-69" d="M 442 4934 
L 442 4294 
L 1152 4294 
L 1152 4934 
L 442 4934 
z
M 454 3520 
C 486 3296 499 3085 499 2765 
L 499 755 
C 499 461 486 282 454 0 
L 1133 0 
C 1101 269 1088 448 1088 755 
L 1088 2758 
C 1088 3104 1101 3290 1133 3520 
L 454 3520 
z
" transform="scale(0.015625)"/>
      <path id="HiraginoSans-W4-6c" d="M 442 4934 
C 474 4704 486 4518 486 4179 
L 486 755 
C 486 429 474 250 442 0 
L 1120 0 
C 1088 262 1075 448 1075 755 
L 1075 4179 
C 1075 4512 1088 4698 1120 4934 
L 442 4934 
z
" transform="scale(0.015625)"/>
      <path id="HiraginoSans-W4-74" d="M 851 4480 
C 877 4262 896 4006 896 3750 
L 896 3520 
L 646 3520 
C 378 3520 250 3526 70 3558 
L 70 2995 
C 275 3021 416 3034 640 3034 
L 896 3034 
L 896 787 
C 896 461 954 269 1094 134 
C 1235 6 1466 -64 1773 -64 
C 2042 -64 2246 -26 2515 83 
L 2374 602 
C 2176 486 2048 448 1875 448 
C 1741 448 1632 486 1568 544 
C 1504 608 1478 698 1478 883 
L 1478 3034 
L 1779 3034 
C 2074 3034 2221 3027 2426 2995 
L 2426 3558 
C 2214 3526 2074 3520 1773 3520 
L 1478 3520 
L 1478 3750 
C 1478 4026 1498 4275 1523 4480 
L 851 4480 
z
" transform="scale(0.015625)"/>
      <path id="HiraginoSans-W4-65" d="M 3578 1651 
C 3558 1971 3546 2106 3533 2170 
C 3405 3066 2797 3610 1933 3610 
C 934 3610 282 2880 282 1760 
C 282 621 941 -96 1978 -96 
C 2470 -96 2880 64 3187 371 
C 3341 518 3424 646 3546 915 
L 3008 1114 
C 2944 928 2899 845 2803 742 
C 2605 512 2323 390 1984 390 
C 1613 390 1312 531 1114 800 
C 947 1024 883 1235 858 1651 
L 3578 1651 
z
M 877 2118 
C 915 2349 947 2451 1037 2605 
C 1229 2944 1542 3130 1920 3130 
C 2221 3130 2464 3040 2656 2854 
C 2842 2669 2938 2451 2976 2118 
L 877 2118 
z
" transform="scale(0.015625)"/>
      <path id="HiraginoSans-W4-72" d="M 2784 3520 
C 2522 3565 2394 3578 2195 3578 
C 1862 3578 1568 3488 1350 3315 
C 1242 3238 1165 3142 1056 2976 
C 1062 3027 1062 3040 1069 3085 
C 1069 3104 1069 3117 1069 3130 
C 1069 3162 1069 3181 1069 3187 
L 1069 3520 
L 442 3520 
C 474 3283 486 3104 486 2765 
L 486 755 
C 486 467 480 314 442 0 
L 1114 0 
C 1082 262 1069 448 1069 755 
L 1069 2022 
C 1101 2317 1158 2470 1312 2669 
C 1504 2912 1760 3034 2093 3034 
C 2259 3034 2381 3014 2618 2938 
L 2784 3520 
z
" transform="scale(0.015625)"/>
      <path id="HiraginoSans-W4-2e" d="M 442 723 
L 442 0 
L 1165 0 
L 1165 723 
L 442 723 
z
" transform="scale(0.015625)"/>
      <path id="HiraginoSans-W4-54" d="M 2419 4397 
L 3354 4397 
C 3744 4397 3949 4384 4166 4352 
L 4166 4979 
C 3955 4947 3763 4934 3354 4934 
L 851 4934 
C 499 4934 333 4947 83 4979 
L 83 4352 
C 294 4384 518 4397 858 4397 
L 1818 4397 
L 1818 755 
C 1818 435 1798 192 1766 0 
L 2470 0 
C 2432 237 2419 435 2419 755 
L 2419 4397 
z
" transform="scale(0.015625)"/>
      <path id="HiraginoSans-W4-6e" d="M 1114 0 
C 1082 256 1069 474 1069 755 
L 1069 2010 
C 1139 2272 1222 2426 1395 2630 
C 1658 2944 1933 3085 2266 3085 
C 2752 3085 3002 2797 3002 2234 
L 3002 755 
C 3002 454 2989 269 2957 0 
L 3629 0 
C 3597 218 3584 416 3584 749 
L 3584 2323 
C 3584 2662 3520 2912 3392 3110 
C 3181 3418 2816 3584 2349 3584 
C 1779 3584 1376 3360 1056 2867 
C 1069 3027 1069 3059 1069 3142 
L 1069 3520 
L 442 3520 
C 480 3264 493 3078 493 2765 
L 493 755 
C 493 429 480 256 442 0 
L 1114 0 
z
" transform="scale(0.015625)"/>
      <path id="HiraginoSans-W4-73" d="M 262 973 
C 326 704 378 589 480 448 
C 730 109 1184 -70 1786 -70 
C 2707 -70 3270 339 3270 1011 
C 3270 1293 3136 1555 2912 1722 
C 2720 1862 2483 1946 1894 2074 
C 1510 2157 1357 2208 1210 2285 
C 1075 2355 998 2483 998 2624 
C 998 2944 1312 3162 1760 3162 
C 2042 3162 2259 3078 2400 2925 
C 2483 2835 2515 2758 2554 2598 
L 3155 2688 
C 3066 2982 2982 3136 2810 3283 
C 2573 3494 2208 3610 1754 3610 
C 1299 3610 941 3494 698 3258 
C 518 3091 416 2861 416 2618 
C 416 2310 557 2054 819 1888 
C 1043 1747 1261 1677 1760 1574 
C 2246 1466 2349 1440 2490 1350 
C 2618 1274 2682 1139 2682 973 
C 2682 621 2342 397 1818 397 
C 1504 397 1267 474 1107 614 
C 986 730 934 832 890 1069 
L 262 973 
z
" transform="scale(0.015625)"/>
      <path id="HiraginoSans-W4-6f" d="M 2054 -90 
C 3110 -90 3802 640 3802 1766 
C 3802 2893 3117 3610 2042 3610 
C 966 3610 282 2886 282 1760 
C 282 627 966 -90 2054 -90 
z
M 2054 3130 
C 2771 3130 3213 2605 3213 1754 
C 3213 909 2771 397 2042 397 
C 1318 397 870 922 870 1766 
C 870 2611 1325 3130 2054 3130 
z
" transform="scale(0.015625)"/>
     </defs>
     <use xlink:href="#HiraginoSans-W4-46"/>
     <use xlink:href="#HiraginoSans-W4-69" transform="translate(61.399994 0)"/>
     <use xlink:href="#HiraginoSans-W4-6c" transform="translate(86.199982 0)"/>
     <use xlink:href="#HiraginoSans-W4-74" transform="translate(110.499969 0)"/>
     <use xlink:href="#HiraginoSans-W4-65" transform="translate(150.999954 0)"/>
     <use xlink:href="#HiraginoSans-W4-72" transform="translate(211.199951 0)"/>
     <use xlink:href="#HiraginoSans-W4-2e" transform="translate(255.899948 0)"/>
     <use xlink:href="#HiraginoSans-W4-54" transform="translate(280.899933 0)"/>
     <use xlink:href="#HiraginoSans-W4-65" transform="translate(347.299927 0)"/>
     <use xlink:href="#HiraginoSans-W4-6e" transform="translate(407.499924 0)"/>
     <use xlink:href="#HiraginoSans-W4-64" transform="translate(470.899918 0)"/>
     <use xlink:href="#HiraginoSans-W4-73" transform="translate(537.199905 0)"/>
     <use xlink:href="#HiraginoSans-W4-74" transform="translate(592.499893 0)"/>
     <use xlink:href="#HiraginoSans-W4-6f" transform="translate(632.999878 0)"/>
     <use xlink:href="#HiraginoSans-W4-20" transform="translate(696.799866 0)"/>
     <use xlink:href="#HiraginoSans-W4-66" transform="translate(730.099854 0)"/>
    </g>
   </g>
   <g id="text_8">
    <!--   (nhds x) -->
    <g style="fill: #375623" transform="translate(514.590547 171.519991) scale(0.095 -0.095)">
     <defs>
      <path id="HiraginoSans-W4-68" d="M 1107 0 
C 1075 256 1062 474 1062 755 
L 1062 2003 
C 1139 2272 1229 2438 1402 2643 
C 1645 2931 1933 3078 2259 3078 
C 2490 3078 2682 3002 2810 2861 
C 2931 2726 2995 2522 2995 2240 
L 2995 755 
C 2995 422 2982 224 2944 0 
L 3622 0 
C 3590 230 3578 448 3578 749 
L 3578 2362 
C 3578 3130 3123 3584 2355 3584 
C 1773 3584 1357 3347 1043 2854 
C 1056 3046 1062 3066 1062 3168 
L 1062 4173 
C 1062 4512 1069 4691 1107 4934 
L 442 4934 
C 480 4691 493 4512 493 4179 
L 493 755 
C 493 422 480 250 442 0 
L 1107 0 
z
" transform="scale(0.015625)"/>
     </defs>
     <use xlink:href="#HiraginoSans-W4-20"/>
     <use xlink:href="#HiraginoSans-W4-20" transform="translate(33.299988 0)"/>
     <use xlink:href="#HiraginoSans-W4-28" transform="translate(66.599976 0)"/>
     <use xlink:href="#HiraginoSans-W4-6e" transform="translate(103.59996 0)"/>
     <use xlink:href="#HiraginoSans-W4-68" transform="translate(166.999954 0)"/>
     <use xlink:href="#HiraginoSans-W4-64" transform="translate(230.299942 0)"/>
     <use xlink:href="#HiraginoSans-W4-73" transform="translate(296.59993 0)"/>
     <use xlink:href="#HiraginoSans-W4-20" transform="translate(351.899918 0)"/>
     <use xlink:href="#HiraginoSans-W4-78" transform="translate(385.199905 0)"/>
     <use xlink:href="#HiraginoSans-W4-29" transform="translate(441.099899 0)"/>
    </g>
   </g>
   <g id="text_9">
    <!--   (nhds (f x)) -->
    <g style="fill: #375623" transform="translate(507.432148 199.081591) scale(0.095 -0.095)">
     <use xlink:href="#HiraginoSans-W4-20"/>
     <use xlink:href="#HiraginoSans-W4-20" transform="translate(33.299988 0)"/>
     <use xlink:href="#HiraginoSans-W4-28" transform="translate(66.599976 0)"/>
     <use xlink:href="#HiraginoSans-W4-6e" transform="translate(103.59996 0)"/>
     <use xlink:href="#HiraginoSans-W4-68" transform="translate(166.999954 0)"/>
     <use xlink:href="#HiraginoSans-W4-64" transform="translate(230.299942 0)"/>
     <use xlink:href="#HiraginoSans-W4-73" transform="translate(296.59993 0)"/>
     <use xlink:href="#HiraginoSans-W4-20" transform="translate(351.899918 0)"/>
     <use xlink:href="#HiraginoSans-W4-28" transform="translate(385.199905 0)"/>
     <use xlink:href="#HiraginoSans-W4-66" transform="translate(422.19989 0)"/>
     <use xlink:href="#HiraginoSans-W4-20" transform="translate(465.599884 0)"/>
     <use xlink:href="#HiraginoSans-W4-78" transform="translate(498.899872 0)"/>
     <use xlink:href="#HiraginoSans-W4-29" transform="translate(554.799866 0)"/>
     <use xlink:href="#HiraginoSans-W4-29" transform="translate(591.79985 0)"/>
    </g>
   </g>
   <g id="text_10">
    <!-- ⟺ map f (nhds x) -->
    <g style="fill: #375623" transform="translate(492.972109 254.267134) scale(0.095 -0.095)">
     <defs>
      <path id="STIXGeneral-Regular-27fa" d="M 9722 1651 
L 9722 1587 
Q 9395 1370 8800 896 
Q 8205 422 7712 -64 
L 7533 70 
Q 7558 96 7654 195 
Q 7750 294 7808 358 
Q 7866 422 7920 512 
Q 7974 602 7974 666 
Q 7974 704 7964 723 
Q 7955 742 7913 755 
Q 7872 768 7782 768 
L 2310 768 
Q 2176 768 2131 745 
Q 2086 723 2086 652 
Q 2086 582 2134 515 
Q 2182 448 2323 307 
Q 2464 166 2534 83 
L 2387 -64 
Q 1856 435 1232 931 
Q 608 1427 352 1587 
L 352 1651 
Q 1408 2406 2387 3309 
L 2534 3162 
Q 2490 3110 2355 2976 
Q 2221 2842 2147 2746 
Q 2074 2650 2074 2592 
Q 2074 2470 2291 2470 
L 7782 2470 
Q 7872 2470 7917 2512 
Q 7962 2554 7962 2605 
Q 7962 2701 7894 2793 
Q 7827 2886 7699 2998 
Q 7571 3110 7533 3155 
L 7712 3309 
Q 8250 2816 8858 2320 
Q 9466 1824 9722 1651 
z
M 1440 1190 
L 8621 1190 
Q 8998 1408 8998 1619 
Q 8998 1792 8627 2048 
L 1446 2048 
Q 1075 1837 1069 1619 
Q 1069 1446 1440 1190 
z
" transform="scale(0.015625)"/>
      <path id="HiraginoSans-W4-6d" d="M 1107 0 
C 1075 262 1062 442 1062 755 
L 1062 2016 
C 1062 2144 1178 2464 1286 2624 
C 1485 2912 1786 3091 2074 3091 
C 2528 3091 2765 2803 2765 2246 
L 2765 755 
C 2765 422 2752 230 2720 0 
L 3392 0 
C 3360 230 3347 416 3347 749 
L 3347 2016 
C 3347 2176 3456 2483 3571 2650 
C 3763 2931 4045 3091 4346 3091 
C 4525 3091 4672 3053 4781 2976 
C 4973 2842 5043 2637 5043 2246 
L 5043 755 
C 5043 403 5037 256 4998 0 
L 5670 0 
C 5638 230 5626 416 5626 749 
L 5626 2336 
C 5626 2733 5555 2995 5382 3206 
C 5184 3462 4864 3590 4442 3590 
C 3898 3590 3552 3398 3232 2925 
C 3168 3104 3130 3181 3034 3277 
C 2842 3488 2566 3590 2202 3590 
C 1690 3590 1280 3373 1050 2970 
C 1050 3008 1050 3008 1056 3066 
C 1056 3085 1062 3181 1062 3200 
L 1062 3520 
L 442 3520 
C 474 3290 486 3117 486 2765 
L 486 755 
C 486 435 474 243 442 0 
L 1107 0 
z
" transform="scale(0.015625)"/>
      <path id="HiraginoSans-W4-61" d="M 2765 0 
L 3373 0 
C 3334 269 3322 422 3322 736 
L 3322 2515 
C 3322 2867 3238 3110 3046 3290 
C 2816 3514 2464 3622 1978 3622 
C 1485 3622 1094 3507 813 3270 
C 627 3123 531 2976 416 2656 
L 1011 2541 
C 1069 2714 1114 2797 1197 2886 
C 1370 3066 1626 3155 1971 3155 
C 2515 3155 2765 2950 2765 2515 
L 2765 2182 
C 1933 2163 1581 2118 1197 1997 
C 646 1818 333 1434 333 941 
C 333 320 774 -58 1491 -58 
C 1741 -58 1978 -19 2195 64 
C 2406 141 2522 218 2765 429 
L 2765 0 
z
M 2765 1363 
C 2765 1126 2707 973 2554 813 
C 2304 557 1920 397 1568 397 
C 1165 397 915 608 915 941 
C 915 1235 1075 1440 1395 1568 
C 1677 1683 2035 1728 2765 1747 
L 2765 1363 
z
" transform="scale(0.015625)"/>
      <path id="HiraginoSans-W4-70" d="M 1101 -1312 
C 1069 -1075 1056 -877 1056 -550 
L 1056 128 
C 1056 301 1050 397 1037 570 
C 1363 154 1792 -51 2349 -51 
C 3334 -51 3968 659 3968 1773 
C 3968 2906 3354 3590 2336 3590 
C 1766 3590 1344 3379 1037 2944 
C 1050 3078 1050 3117 1050 3194 
L 1050 3520 
L 442 3520 
C 474 3277 486 3078 486 2752 
L 486 -557 
C 486 -845 474 -1056 442 -1312 
L 1101 -1312 
z
M 2272 442 
C 1952 442 1626 570 1421 781 
C 1197 1005 1062 1376 1062 1766 
C 1062 2547 1555 3091 2278 3091 
C 2976 3091 3373 2611 3373 1773 
C 3373 941 2957 442 2272 442 
z
" transform="scale(0.015625)"/>
     </defs>
     <use xlink:href="#STIXGeneral-Regular-27fa"/>
     <use xlink:href="#HiraginoSans-W4-20" transform="translate(157.399979 0)"/>
     <use xlink:href="#HiraginoSans-W4-6d" transform="translate(190.699966 0)"/>
     <use xlink:href="#HiraginoSans-W4-61" transform="translate(286.09996 0)"/>
     <use xlink:href="#HiraginoSans-W4-70" transform="translate(345.299957 0)"/>
     <use xlink:href="#HiraginoSans-W4-20" transform="translate(411.699951 0)"/>
     <use xlink:href="#HiraginoSans-W4-66" transform="translate(444.999939 0)"/>
     <use xlink:href="#HiraginoSans-W4-20" transform="translate(488.399933 0)"/>
     <use xlink:href="#HiraginoSans-W4-28" transform="translate(521.699921 0)"/>
     <use xlink:href="#HiraginoSans-W4-6e" transform="translate(558.699905 0)"/>
     <use xlink:href="#HiraginoSans-W4-68" transform="translate(622.099899 0)"/>
     <use xlink:href="#HiraginoSans-W4-64" transform="translate(685.399887 0)"/>
     <use xlink:href="#HiraginoSans-W4-73" transform="translate(751.699875 0)"/>
     <use xlink:href="#HiraginoSans-W4-20" transform="translate(806.999863 0)"/>
     <use xlink:href="#HiraginoSans-W4-78" transform="translate(840.29985 0)"/>
     <use xlink:href="#HiraginoSans-W4-29" transform="translate(896.199844 0)"/>
    </g>
   </g>
   <g id="text_11">
    <!--     ≤ nhds (f x) -->
    <g style="fill: #375623" transform="translate(502.948594 281.766391) scale(0.095 -0.095)">
     <defs>
      <path id="STIXGeneral-Regular-2264" d="M 4026 326 
L 410 2074 
L 410 2138 
L 4026 3898 
L 4026 3482 
L 1261 2106 
L 4026 730 
L 4026 326 
z
M 4026 -659 
L 410 -659 
L 410 -237 
L 4026 -237 
L 4026 -659 
z
" transform="scale(0.015625)"/>
     </defs>
     <use xlink:href="#HiraginoSans-W4-20"/>
     <use xlink:href="#HiraginoSans-W4-20" transform="translate(33.299988 0)"/>
     <use xlink:href="#HiraginoSans-W4-20" transform="translate(66.599976 0)"/>
     <use xlink:href="#HiraginoSans-W4-20" transform="translate(99.899963 0)"/>
     <use xlink:href="#STIXGeneral-Regular-2264" transform="translate(133.199951 0)"/>
     <use xlink:href="#HiraginoSans-W4-20" transform="translate(201.699936 0)"/>
     <use xlink:href="#HiraginoSans-W4-6e" transform="translate(234.999924 0)"/>
     <use xlink:href="#HiraginoSans-W4-68" transform="translate(298.399918 0)"/>
     <use xlink:href="#HiraginoSans-W4-64" transform="translate(361.699905 0)"/>
     <use xlink:href="#HiraginoSans-W4-73" transform="translate(427.999893 0)"/>
     <use xlink:href="#HiraginoSans-W4-20" transform="translate(483.299881 0)"/>
     <use xlink:href="#HiraginoSans-W4-28" transform="translate(516.599869 0)"/>
     <use xlink:href="#HiraginoSans-W4-66" transform="translate(553.599854 0)"/>
     <use xlink:href="#HiraginoSans-W4-20" transform="translate(596.999847 0)"/>
     <use xlink:href="#HiraginoSans-W4-78" transform="translate(630.299835 0)"/>
     <use xlink:href="#HiraginoSans-W4-29" transform="translate(686.199829 0)"/>
    </g>
   </g>
   <g id="text_12">
    <!-- 同値 -->
    <g style="fill: #7f5f00" transform="translate(326 198.205938) scale(0.16 -0.16)">
     <defs>
      <path id="HiraginoSans-W7-540c" d="M 480 262 
C 480 -51 467 -288 435 -531 
L 1357 -531 
C 1331 -346 1325 -154 1325 243 
L 1325 4435 
L 5101 4435 
L 5101 435 
C 5101 326 5043 294 4819 294 
C 4576 294 4256 314 3891 346 
C 4032 19 4070 -122 4122 -461 
C 4352 -467 4653 -474 4858 -474 
C 5235 -474 5504 -435 5645 -365 
C 5850 -256 5946 -64 5946 256 
L 5946 4474 
C 5946 4787 5952 5024 5971 5222 
C 5830 5203 5562 5197 5222 5197 
L 1235 5197 
C 896 5197 589 5210 454 5222 
C 467 5024 480 4832 480 4544 
L 480 262 
z
M 1562 3264 
C 1715 3283 1862 3290 2138 3290 
L 4282 3290 
C 4563 3290 4710 3283 4870 3264 
L 4870 4058 
C 4704 4038 4614 4032 4282 4032 
L 2144 4032 
C 1818 4032 1709 4038 1562 4058 
L 1562 3264 
z
M 4570 2458 
C 4570 2656 4570 2752 4589 2899 
C 4461 2886 4371 2886 4102 2886 
L 2291 2886 
C 2125 2886 2022 2893 1837 2899 
C 1856 2771 1862 2650 1862 2470 
L 1862 755 
C 1862 525 1850 371 1830 192 
L 2662 192 
L 2662 640 
L 4147 640 
C 4294 640 4390 634 4582 627 
C 4570 755 4570 890 4570 1037 
L 4570 2458 
z
M 2656 2157 
L 3782 2157 
L 3782 1370 
L 2656 1370 
L 2656 2157 
z
" transform="scale(0.015625)"/>
      <path id="HiraginoSans-W7-5024" d="M 4403 3872 
C 4442 4019 4442 4019 4480 4211 
L 5574 4211 
C 5798 4211 5984 4205 6170 4186 
L 6170 4973 
C 5952 4941 5792 4934 5472 4934 
L 4614 4934 
C 4634 5037 4634 5037 4691 5376 
L 3859 5421 
C 3846 5190 3840 5107 3814 4934 
L 2746 4934 
C 2406 4934 2221 4941 2042 4966 
L 2042 4186 
C 2253 4205 2381 4211 2643 4211 
L 3699 4211 
C 3674 4083 3674 4077 3622 3872 
L 3539 3872 
C 3270 3872 3181 3872 3034 3885 
C 3046 3757 3053 3635 3053 3379 
L 3053 1203 
C 3053 992 3046 864 3040 704 
C 3283 717 3379 717 3565 717 
L 5293 717 
C 5478 717 5587 717 5830 704 
C 5811 896 5805 1024 5805 1286 
L 5805 3258 
C 5805 3533 5811 3686 5830 3885 
C 5702 3878 5594 3872 5293 3872 
L 4403 3872 
z
M 3808 3277 
L 5050 3277 
L 5050 2995 
L 3808 2995 
L 3808 3277 
z
M 3808 2438 
L 5050 2438 
L 5050 2163 
L 3808 2163 
L 3808 2438 
z
M 3808 1606 
L 5050 1606 
L 5050 1318 
L 3808 1318 
L 3808 1606 
z
M 736 186 
C 736 -109 730 -282 698 -557 
L 1581 -557 
C 1549 -288 1542 -102 1542 179 
L 1542 3821 
C 1786 4365 1824 4474 2074 5261 
L 1210 5459 
C 1178 5190 1107 4928 960 4544 
C 736 3936 467 3482 70 3046 
C 205 2733 301 2432 371 2093 
C 493 2240 538 2304 749 2630 
C 736 2298 736 2163 736 1952 
L 736 186 
z
M 2694 -563 
L 2694 -288 
L 5395 -288 
C 5709 -288 5901 -301 6131 -326 
L 6131 474 
C 5926 448 5734 442 5408 442 
L 2694 442 
L 2694 3046 
C 2694 3392 2701 3590 2726 3795 
L 1875 3795 
C 1901 3590 1907 3386 1907 3046 
L 1907 237 
C 1907 -147 1901 -346 1875 -563 
L 2694 -563 
z
" transform="scale(0.015625)"/>
     </defs>
     <use xlink:href="#HiraginoSans-W7-540c"/>
     <use xlink:href="#HiraginoSans-W7-5024" transform="translate(99.999985 0)"/>
    </g>
   </g>
   <g id="patch_5">
    <path d="M 263.097673 193.542188 
Q 263.881938 193.542188 264.666203 193.542188 
" style="fill: none; stroke: #c9a800; stroke-width: 2.5; stroke-linecap: round"/>
    <path d="M 267.097673 195.542188 
L 263.097673 193.542188 
L 267.097673 191.542188 
" style="fill: none; stroke: #c9a800; stroke-width: 2.5; stroke-linecap: round"/>
    <path d="M 260.666203 191.542188 
L 264.666203 193.542188 
L 260.666203 195.542188 
" style="fill: none; stroke: #c9a800; stroke-width: 2.5; stroke-linecap: round"/>
   </g>
   <g id="patch_6">
    <path d="M 419.337673 193.542188 
Q 420.121938 193.542188 420.906203 193.542188 
" style="fill: none; stroke: #c9a800; stroke-width: 2.5; stroke-linecap: round"/>
    <path d="M 423.337673 195.542188 
L 419.337673 193.542188 
L 423.337673 191.542188 
" style="fill: none; stroke: #c9a800; stroke-width: 2.5; stroke-linecap: round"/>
    <path d="M 416.906203 191.542188 
L 420.906203 193.542188 
L 416.906203 195.542188 
" style="fill: none; stroke: #c9a800; stroke-width: 2.5; stroke-linecap: round"/>
   </g>
   <g id="patch_7">
    <path d="M 274.251883 193.542188 
Q 341.996275 193.542188 409.740667 193.542188 
" style="fill: none; stroke: #c9a800; stroke-width: 2.5; stroke-linecap: round"/>
    <path d="M 278.251883 195.542188 
L 274.251883 193.542188 
L 278.251883 191.542188 
" style="fill: none; stroke: #c9a800; stroke-width: 2.5; stroke-linecap: round"/>
    <path d="M 405.740667 191.542188 
L 409.740667 193.542188 
L 405.740667 195.542188 
" style="fill: none; stroke: #c9a800; stroke-width: 2.5; stroke-linecap: round"/>
   </g>
   <g id="text_13">
    <!-- Filter.Tendsto と ε-δ の対応 -->
    <g transform="translate(248.79 17.222188) scale(0.13 -0.13)">
     <defs>
      <path id="HiraginoSans-W4-3068" d="M 1971 5056 
C 2010 4954 2016 4922 2074 4646 
C 2227 3885 2355 3392 2528 2874 
C 2131 2675 1926 2547 1683 2342 
C 1318 2042 1114 1651 1114 1261 
C 1114 826 1306 467 1651 269 
C 2035 51 2541 -38 3366 -38 
C 3834 -38 4160 -19 4826 51 
C 5178 90 5178 90 5312 90 
L 5254 723 
C 4845 582 4109 493 3373 493 
C 2938 493 2522 531 2304 589 
C 1894 698 1690 915 1690 1248 
C 1690 1498 1811 1741 2022 1933 
C 2298 2170 2707 2400 3206 2592 
C 3923 2867 4710 3117 5190 3219 
L 4973 3795 
C 4858 3731 4832 3725 4550 3622 
C 3424 3238 3424 3238 3034 3078 
C 2816 3725 2592 4723 2566 5165 
L 1971 5056 
z
" transform="scale(0.015625)"/>
      <path id="HiraginoSans-W4-2d" d="M 192 1581 
C 384 1606 525 1613 781 1613 
L 1606 1613 
C 1875 1613 2010 1606 2202 1581 
L 2202 2202 
C 2022 2176 1882 2170 1606 2170 
L 781 2170 
C 512 2170 371 2176 192 2202 
L 192 1581 
z
" transform="scale(0.015625)"/>
      <path id="HiraginoSans-W4-306e" d="M 3053 422 
C 3200 243 3245 160 3328 -96 
C 3821 6 4090 90 4397 237 
C 5293 666 5798 1459 5798 2451 
C 5798 3802 4832 4698 3379 4698 
C 2509 4698 1792 4403 1274 3834 
C 832 3347 589 2707 589 2042 
C 589 1107 1062 422 1709 422 
C 2189 422 2573 806 2938 1645 
C 3238 2323 3469 3264 3578 4205 
C 3891 4186 4070 4141 4294 4032 
C 4902 3738 5242 3174 5242 2477 
C 5242 1734 4870 1107 4230 768 
C 3917 602 3610 512 3053 422 
z
M 3027 4192 
C 2944 3398 2714 2483 2458 1888 
C 2195 1286 1952 992 1702 992 
C 1370 992 1114 1453 1114 2035 
C 1114 2797 1491 3501 2112 3891 
C 2394 4077 2656 4160 3027 4192 
z
" transform="scale(0.015625)"/>
      <path id="HiraginoSans-W4-5bfe" d="M 1600 4256 
L 928 4256 
C 685 4256 518 4269 326 4294 
L 326 3789 
C 493 3814 646 3821 902 3821 
L 2195 3821 
C 2163 3251 2061 2720 1901 2240 
C 1459 2765 1280 2970 902 3354 
L 557 3034 
C 1011 2586 1325 2240 1696 1760 
C 1350 1069 915 563 262 64 
C 435 -70 512 -147 627 -326 
C 1267 218 1632 672 2003 1350 
C 2317 922 2547 563 2778 141 
L 3155 518 
C 2842 1011 2592 1370 2234 1824 
C 2490 2438 2637 3098 2688 3821 
C 2944 3821 3098 3814 3245 3795 
L 3245 4294 
C 3059 4269 2899 4256 2650 4256 
L 2080 4256 
L 2080 4666 
C 2080 4934 2093 5101 2118 5299 
L 1562 5299 
C 1594 5133 1600 5005 1600 4666 
L 1600 4256 
z
M 4877 3437 
L 4877 224 
C 4877 96 4826 70 4544 70 
C 4339 70 4013 96 3725 141 
C 3802 -26 3840 -141 3878 -365 
C 4134 -384 4320 -390 4550 -390 
C 5229 -390 5363 -294 5363 198 
L 5363 3437 
L 5498 3437 
C 5734 3437 5888 3430 6054 3405 
C 6067 3405 6093 3405 6118 3398 
L 6118 3923 
C 5958 3898 5760 3885 5498 3885 
L 5363 3885 
L 5363 4544 
C 5363 4851 5376 5056 5402 5254 
L 4832 5254 
C 4864 5082 4877 4883 4877 4544 
L 4877 3885 
L 3936 3885 
C 3654 3885 3488 3891 3328 3917 
L 3328 3398 
C 3501 3424 3674 3437 3930 3437 
L 4877 3437 
z
M 3130 2714 
C 3526 2234 3757 1869 4045 1222 
L 4474 1504 
C 4173 2093 3968 2413 3539 2950 
L 3130 2714 
z
" transform="scale(0.015625)"/>
      <path id="HiraginoSans-W4-5fdc" d="M 3078 4678 
L 1402 4678 
C 1146 4678 954 4685 755 4710 
C 774 4506 781 4320 781 3891 
C 781 1498 678 800 198 -19 
C 371 -128 467 -218 621 -390 
C 883 90 1030 512 1126 1088 
C 1235 1760 1274 2522 1274 4230 
L 5344 4230 
C 5677 4230 5869 4224 6054 4198 
L 6054 4717 
C 5882 4691 5690 4678 5344 4678 
L 3578 4678 
L 3578 4998 
C 3578 5184 3584 5280 3610 5395 
L 3040 5395 
C 3066 5267 3078 5146 3078 4998 
L 3078 4678 
z
M 1760 147 
C 2067 864 2195 1408 2304 2451 
L 1824 2573 
C 1754 1587 1638 1120 1299 422 
L 1760 147 
z
M 2720 3078 
C 2746 2931 2758 2778 2758 2496 
L 2758 64 
C 2758 -320 2931 -390 3834 -390 
C 4915 -390 4998 -288 5075 1184 
C 4915 1216 4794 1261 4589 1357 
C 4589 877 4557 474 4506 294 
C 4454 122 4320 77 3834 77 
C 3334 77 3258 102 3258 282 
L 3258 2490 
C 3258 2771 3270 2938 3296 3078 
L 2720 3078 
z
M 4672 3040 
C 4077 3514 3802 3693 3104 4064 
L 2765 3738 
C 3482 3373 3827 3130 4333 2650 
L 4672 3040 
z
M 6125 467 
C 5914 1318 5741 1779 5338 2618 
L 4896 2419 
C 5299 1638 5446 1190 5632 250 
L 6125 467 
z
" transform="scale(0.015625)"/>
     </defs>
     <use xlink:href="#HiraginoSans-W4-46"/>
     <use xlink:href="#HiraginoSans-W4-69" transform="translate(61.399994 0)"/>
     <use xlink:href="#HiraginoSans-W4-6c" transform="translate(86.199982 0)"/>
     <use xlink:href="#HiraginoSans-W4-74" transform="translate(110.499969 0)"/>
     <use xlink:href="#HiraginoSans-W4-65" transform="translate(150.999954 0)"/>
     <use xlink:href="#HiraginoSans-W4-72" transform="translate(211.199951 0)"/>
     <use xlink:href="#HiraginoSans-W4-2e" transform="translate(255.899948 0)"/>
     <use xlink:href="#HiraginoSans-W4-54" transform="translate(280.899933 0)"/>
     <use xlink:href="#HiraginoSans-W4-65" transform="translate(347.299927 0)"/>
     <use xlink:href="#HiraginoSans-W4-6e" transform="translate(407.499924 0)"/>
     <use xlink:href="#HiraginoSans-W4-64" transform="translate(470.899918 0)"/>
     <use xlink:href="#HiraginoSans-W4-73" transform="translate(537.199905 0)"/>
     <use xlink:href="#HiraginoSans-W4-74" transform="translate(592.499893 0)"/>
     <use xlink:href="#HiraginoSans-W4-6f" transform="translate(632.999878 0)"/>
     <use xlink:href="#HiraginoSans-W4-20" transform="translate(696.799866 0)"/>
     <use xlink:href="#HiraginoSans-W4-3068" transform="translate(730.099854 0)"/>
     <use xlink:href="#HiraginoSans-W4-20" transform="translate(830.099838 0)"/>
     <use xlink:href="#HiraginoSans-W4-3b5" transform="translate(863.399826 0)"/>
     <use xlink:href="#HiraginoSans-W4-2d" transform="translate(963.399811 0)"/>
     <use xlink:href="#HiraginoSans-W4-3b4" transform="translate(1000.699799 0)"/>
     <use xlink:href="#HiraginoSans-W4-20" transform="translate(1100.699783 0)"/>
     <use xlink:href="#HiraginoSans-W4-306e" transform="translate(1133.999771 0)"/>
     <use xlink:href="#HiraginoSans-W4-5bfe" transform="translate(1233.999756 0)"/>
     <use xlink:href="#HiraginoSans-W4-5fdc" transform="translate(1333.999741 0)"/>
    </g>
   </g>
  </g>
 </g>
 <defs>
  <clipPath id="p578e669e03">
   <rect x="7.2" y="27.222188" width="669.6" height="332.64"/>
  </clipPath>
 </defs>
</svg>
