<?xml version="1.0" encoding="utf-8" standalone="no"?>
<!DOCTYPE svg PUBLIC "-//W3C//DTD SVG 1.1//EN"
  "http://www.w3.org/Graphics/SVG/1.1/DTD/svg11.dtd">
<svg xmlns:xlink="http://www.w3.org/1999/xlink" width="460.8pt" height="367.062188pt" viewBox="0 0 460.8 367.062188" xmlns="http://www.w3.org/2000/svg" version="1.1">
 <metadata>
  <rdf:RDF xmlns:dc="http://purl.org/dc/elements/1.1/" xmlns:cc="http://creativecommons.org/ns#" xmlns:rdf="http://www.w3.org/1999/02/22-rdf-syntax-ns#">
   <cc:Work>
    <dc:type rdf:resource="http://purl.org/dc/dcmitype/StillImage"/>
    <dc:date>2026-04-02T01:10:15.937806</dc:date>
    <dc:format>image/svg+xml</dc:format>
    <dc:creator>
     <cc:Agent>
      <dc:title>Matplotlib v3.10.8, https://matplotlib.org/</dc:title>
     </cc:Agent>
    </dc:creator>
   </cc:Work>
  </rdf:RDF>
 </metadata>
 <defs>
  <style type="text/css">*{stroke-linejoin: round; stroke-linecap: butt}</style>
 </defs>
 <g id="figure_1">
  <g id="patch_1">
   <path d="M 0 367.062188 
L 460.8 367.062188 
L 460.8 0 
L 0 0 
z
" style="fill: #ffffff"/>
  </g>
  <g id="axes_1">
   <g id="line2d_1">
    <path d="M 85.976471 269.142188 
L 348.564706 87.702188 
" clip-path="url(#paf32648e52)" style="fill: none; stroke: #4472c4; stroke-width: 2; stroke-linecap: square"/>
   </g>
   <g id="line2d_2">
    <path d="M 348.564706 87.702188 
L 374.823529 269.142188 
" clip-path="url(#paf32648e52)" style="fill: none; stroke: #4472c4; stroke-width: 2; stroke-linecap: square"/>
   </g>
   <g id="line2d_3">
    <path d="M 85.976471 269.142188 
L 374.823529 269.142188 
" clip-path="url(#paf32648e52)" style="fill: none; stroke-dasharray: 7.4,3.2; stroke-dashoffset: 0; stroke: #c00000; stroke-width: 2"/>
   </g>
   <g id="text_1">
    <!-- d(x,y) -->
    <g style="fill: #4472c4" transform="translate(191.011765 166.326188) scale(0.11 -0.11)">
     <defs>
      <path id="HiraginoSans-W7-64" d="M 3296 -134 
L 4339 -134 
C 4301 173 4288 390 4288 800 
L 4288 4147 
C 4288 4518 4301 4774 4339 5069 
L 3245 5069 
C 3283 4794 3296 4557 3296 4141 
L 3296 3597 
C 3296 3475 3296 3398 3302 3309 
L 3309 3219 
C 3168 3373 3091 3437 2925 3526 
C 2643 3680 2349 3750 2003 3750 
C 902 3750 211 2989 211 1766 
C 211 1114 403 576 768 211 
C 1075 -90 1485 -237 2003 -237 
C 2586 -237 2963 -83 3309 294 
C 3302 192 3296 173 3296 102 
L 3296 -134 
z
M 3277 1773 
C 3277 1402 3142 1050 2918 845 
C 2746 691 2464 589 2202 589 
C 1971 589 1722 685 1562 838 
C 1350 1037 1235 1370 1235 1760 
C 1235 2458 1613 2931 2176 2931 
C 2835 2931 3277 2470 3277 1773 
z
" transform="scale(0.015625)"/>
      <path id="HiraginoSans-W7-28" d="M 2560 -640 
C 2176 -90 2016 205 1869 640 
C 1734 1043 1670 1491 1670 1978 
C 1670 2483 1741 2944 1882 3373 
C 2029 3814 2189 4102 2573 4646 
L 1798 5165 
C 1325 4512 1126 4147 947 3603 
C 781 3110 691 2560 691 2016 
C 691 1331 832 653 1101 13 
C 1280 -397 1427 -659 1798 -1171 
L 2560 -640 
z
" transform="scale(0.015625)"/>
      <path id="HiraginoSans-W7-78" d="M 4154 -134 
C 4006 51 3846 256 3680 480 
L 2701 1856 
L 3584 3098 
C 3680 3232 3840 3443 4006 3654 
L 2810 3654 
C 2746 3501 2650 3328 2522 3142 
L 2118 2534 
L 1709 3142 
C 1606 3296 1510 3475 1434 3654 
L 218 3654 
C 442 3373 563 3219 640 3104 
L 1530 1856 
L 538 454 
C 416 288 218 32 77 -134 
L 1312 -134 
C 1427 90 1498 205 1619 390 
L 2112 1139 
L 2598 416 
C 2720 237 2784 122 2906 -134 
L 4154 -134 
z
" transform="scale(0.015625)"/>
      <path id="HiraginoSans-W7-2c" d="M 1472 973 
L 365 973 
L 365 -134 
L 998 -134 
C 992 -371 954 -480 851 -570 
C 742 -666 634 -717 416 -762 
L 672 -1171 
C 973 -1069 1114 -992 1248 -838 
C 1402 -653 1472 -442 1472 -134 
L 1472 973 
z
" transform="scale(0.015625)"/>
      <path id="HiraginoSans-W7-79" d="M 1619 179 
L 1459 -173 
C 1357 -384 1190 -486 947 -486 
C 787 -486 672 -454 461 -358 
L 320 -1248 
C 646 -1312 864 -1338 1088 -1338 
C 1754 -1338 2163 -1088 2400 -550 
L 3859 2835 
C 4045 3283 4045 3283 4090 3373 
C 4179 3558 4179 3558 4224 3654 
L 3059 3654 
C 3021 3437 2957 3245 2803 2854 
L 2157 1229 
L 1453 2912 
C 1344 3155 1254 3469 1222 3654 
L 51 3654 
C 128 3501 160 3437 429 2835 
L 1619 179 
z
" transform="scale(0.015625)"/>
      <path id="HiraginoSans-W7-29" d="M 147 4646 
C 531 4102 691 3814 838 3373 
C 979 2944 1050 2490 1050 1978 
C 1050 1485 986 1043 851 640 
C 704 205 544 -90 154 -640 
L 922 -1171 
C 1286 -659 1440 -397 1619 13 
C 1894 653 2029 1325 2029 2022 
C 2029 2566 1939 3110 1773 3603 
C 1594 4147 1395 4512 922 5165 
L 147 4646 
z
" transform="scale(0.015625)"/>
     </defs>
     <use xlink:href="#HiraginoSans-W7-64"/>
     <use xlink:href="#HiraginoSans-W7-28" transform="translate(73.499985 0)"/>
     <use xlink:href="#HiraginoSans-W7-78" transform="translate(115.999969 0)"/>
     <use xlink:href="#HiraginoSans-W7-2c" transform="translate(181.999954 0)"/>
     <use xlink:href="#HiraginoSans-W7-79" transform="translate(210.699951 0)"/>
     <use xlink:href="#HiraginoSans-W7-29" transform="translate(277.399948 0)"/>
    </g>
   </g>
   <g id="text_2">
    <!-- d(y,z) -->
    <g style="fill: #4472c4" transform="translate(366.945882 178.422188) scale(0.11 -0.11)">
     <defs>
      <path id="HiraginoSans-W7-7a" d="M 3302 3674 
C 3104 3654 2982 3654 2483 3654 
L 1190 3654 
C 826 3654 602 3667 294 3699 
L 294 2746 
C 576 2778 806 2790 1190 2790 
L 1728 2790 
C 1818 2790 1882 2790 1920 2797 
L 1971 2797 
C 1907 2733 1875 2694 1818 2624 
L 685 1222 
C 544 1050 403 902 166 666 
L 166 -154 
C 365 -141 506 -134 992 -134 
L 2522 -134 
C 2944 -134 3149 -147 3424 -179 
L 3424 794 
C 3162 762 2906 749 2528 749 
L 1779 749 
C 1690 749 1549 749 1472 742 
C 1530 800 1619 896 1664 954 
L 2790 2336 
C 2912 2483 3091 2688 3302 2906 
L 3302 3674 
z
" transform="scale(0.015625)"/>
     </defs>
     <use xlink:href="#HiraginoSans-W7-64"/>
     <use xlink:href="#HiraginoSans-W7-28" transform="translate(73.499985 0)"/>
     <use xlink:href="#HiraginoSans-W7-79" transform="translate(115.999969 0)"/>
     <use xlink:href="#HiraginoSans-W7-2c" transform="translate(182.699966 0)"/>
     <use xlink:href="#HiraginoSans-W7-7a" transform="translate(211.399963 0)"/>
     <use xlink:href="#HiraginoSans-W7-29" transform="translate(267.59996 0)"/>
    </g>
   </g>
   <g id="text_3">
    <!-- d(x,z) -->
    <g style="fill: #c00000" transform="translate(230.4 293.334188) scale(0.11 -0.11)">
     <use xlink:href="#HiraginoSans-W7-64"/>
     <use xlink:href="#HiraginoSans-W7-28" transform="translate(73.499985 0)"/>
     <use xlink:href="#HiraginoSans-W7-78" transform="translate(115.999969 0)"/>
     <use xlink:href="#HiraginoSans-W7-2c" transform="translate(181.999954 0)"/>
     <use xlink:href="#HiraginoSans-W7-7a" transform="translate(210.699951 0)"/>
     <use xlink:href="#HiraginoSans-W7-29" transform="translate(266.899948 0)"/>
    </g>
   </g>
   <g id="text_4">
    <!-- x -->
    <g style="fill: #c00000" transform="translate(70.221176 287.286188) scale(0.14 -0.14)">
     <use xlink:href="#HiraginoSans-W7-78"/>
    </g>
   </g>
   <g id="text_5">
    <!-- y -->
    <g style="fill: #2e75b6" transform="translate(353.816471 81.654188) scale(0.14 -0.14)">
     <use xlink:href="#HiraginoSans-W7-79"/>
    </g>
   </g>
   <g id="text_6">
    <!-- z -->
    <g style="fill: #538135" transform="translate(380.075294 287.286188) scale(0.14 -0.14)">
     <use xlink:href="#HiraginoSans-W7-7a"/>
    </g>
   </g>
   <g id="text_7">
    <g id="patch_2">
     <path d="M 146.250979 187.652187 
L 288.290198 187.652187 
Q 294.790198 187.652187 294.790198 181.152187 
L 294.790198 168.229375 
Q 294.790198 161.729375 288.290198 161.729375 
L 146.250979 161.729375 
Q 139.750979 161.729375 139.750979 168.229375 
L 139.750979 181.152187 
Q 139.750979 187.652187 146.250979 187.652187 
z
" style="fill: #fff2cc; stroke: #c9a800; stroke-width: 2; stroke-linejoin: miter"/>
    </g>
    <!-- d(x,z) ≤ d(x,y) + d(y,z) -->
    <g transform="translate(146.250979 178.422188) scale(0.13 -0.13)">
     <defs>
      <path id="HiraginoSans-W4-64" d="M 3187 0 
L 3802 0 
C 3770 250 3757 442 3757 774 
L 3757 4173 
C 3757 4467 3770 4666 3802 4934 
L 3142 4934 
C 3174 4691 3187 4486 3187 4173 
L 3187 3398 
C 3187 3296 3187 3194 3194 3149 
C 3200 3040 3200 3040 3206 2970 
C 2918 3379 2470 3597 1901 3597 
C 909 3597 282 2886 282 1766 
C 282 1171 461 672 794 339 
C 1069 70 1446 -64 1914 -64 
C 2483 -64 2880 128 3206 563 
C 3200 480 3187 365 3187 288 
L 3187 0 
z
M 1971 3098 
C 2310 3098 2618 2976 2842 2752 
C 3059 2541 3181 2189 3181 1786 
C 3181 966 2707 429 1978 429 
C 1709 429 1459 512 1274 672 
C 1024 890 883 1280 883 1786 
C 883 2598 1293 3098 1971 3098 
z
" transform="scale(0.015625)"/>
      <path id="HiraginoSans-W4-28" d="M 2195 -749 
C 1830 -198 1683 90 1542 538 
C 1402 986 1331 1472 1331 1978 
C 1331 2483 1402 2963 1542 3411 
C 1683 3859 1830 4147 2195 4698 
L 1715 5018 
C 1350 4461 1197 4173 1037 3712 
C 838 3155 742 2579 742 1978 
C 742 1376 838 794 1037 243 
C 1197 -218 1350 -512 1715 -1062 
L 2195 -749 
z
" transform="scale(0.015625)"/>
      <path id="HiraginoSans-W4-78" d="M 3469 0 
C 3238 294 3078 512 3008 614 
L 2138 1824 
L 2963 2982 
C 3021 3072 3168 3270 3206 3322 
C 3315 3462 3315 3462 3354 3520 
L 2630 3520 
C 2566 3386 2483 3238 2368 3072 
L 1792 2227 
L 1203 3072 
C 1088 3238 1024 3360 947 3520 
L 211 3520 
C 474 3174 557 3072 608 3002 
L 1440 1830 
L 531 563 
C 422 410 237 160 109 0 
L 858 0 
C 966 205 1018 294 1114 435 
L 1786 1421 
L 2426 486 
C 2566 288 2624 192 2720 0 
L 3469 0 
z
" transform="scale(0.015625)"/>
      <path id="HiraginoSans-W4-2c" d="M 1165 723 
L 435 723 
L 435 0 
L 858 0 
C 851 -403 800 -499 493 -614 
L 685 -864 
C 1062 -672 1165 -493 1165 0 
L 1165 723 
z
" transform="scale(0.015625)"/>
      <path id="HiraginoSans-W4-7a" d="M 2944 3539 
C 2758 3520 2656 3520 2240 3520 
L 1075 3520 
C 768 3520 589 3533 320 3565 
L 320 2970 
C 563 3002 787 3014 1075 3014 
L 1882 3014 
C 1971 3014 2054 3014 2189 3027 
C 2112 2944 2067 2886 2003 2803 
L 640 998 
C 474 781 352 634 192 474 
L 192 -13 
C 371 0 512 0 922 0 
L 2317 0 
C 2656 0 2835 -6 3072 -38 
L 3072 557 
C 2848 525 2662 512 2317 512 
L 1357 512 
C 1306 512 1178 512 1133 506 
C 992 506 992 506 934 499 
C 1126 736 1126 736 1171 794 
L 2502 2554 
C 2650 2752 2784 2912 2944 3085 
L 2944 3539 
z
" transform="scale(0.015625)"/>
      <path id="HiraginoSans-W4-29" d="M 653 -1062 
C 1018 -512 1171 -218 1331 243 
C 1530 794 1626 1370 1626 1978 
C 1626 2579 1530 3155 1331 3712 
C 1171 4173 1018 4461 653 5018 
L 173 4698 
C 538 4147 685 3859 826 3411 
C 966 2963 1037 2490 1037 1978 
C 1037 1466 966 986 826 538 
C 685 90 538 -198 173 -749 
L 653 -1062 
z
" transform="scale(0.015625)"/>
      <path id="HiraginoSans-W4-20" transform="scale(0.015625)"/>
      <path id="STIXGeneral-Regular-2264" d="M 4026 326 
L 410 2074 
L 410 2138 
L 4026 3898 
L 4026 3482 
L 1261 2106 
L 4026 730 
L 4026 326 
z
M 4026 -659 
L 410 -659 
L 410 -237 
L 4026 -237 
L 4026 -659 
z
" transform="scale(0.015625)"/>
      <path id="HiraginoSans-W4-79" d="M 1600 154 
L 1325 -486 
C 1229 -710 1069 -832 858 -832 
C 730 -832 621 -800 442 -717 
L 301 -1274 
C 550 -1325 710 -1344 864 -1344 
C 1357 -1344 1664 -1146 1843 -717 
L 3283 2758 
C 3462 3181 3571 3437 3603 3520 
L 2912 3520 
C 2880 3334 2829 3168 2694 2816 
L 1901 768 
L 1011 2822 
C 902 3072 819 3341 787 3520 
L 64 3520 
C 134 3386 134 3386 422 2758 
L 1600 154 
z
" transform="scale(0.015625)"/>
      <path id="HiraginoSans-W4-2b" d="M 2387 1498 
L 3930 1498 
L 3930 2022 
L 2387 2022 
L 2387 3558 
L 1856 3558 
L 1856 2022 
L 320 2022 
L 320 1498 
L 1856 1498 
L 1856 -38 
L 2387 -38 
L 2387 1498 
z
" transform="scale(0.015625)"/>
     </defs>
     <use xlink:href="#HiraginoSans-W4-64"/>
     <use xlink:href="#HiraginoSans-W4-28" transform="translate(66.299988 0)"/>
     <use xlink:href="#HiraginoSans-W4-78" transform="translate(103.299973 0)"/>
     <use xlink:href="#HiraginoSans-W4-2c" transform="translate(159.199966 0)"/>
     <use xlink:href="#HiraginoSans-W4-7a" transform="translate(184.199951 0)"/>
     <use xlink:href="#HiraginoSans-W4-29" transform="translate(235.199936 0)"/>
     <use xlink:href="#HiraginoSans-W4-20" transform="translate(272.199921 0)"/>
     <use xlink:href="#STIXGeneral-Regular-2264" transform="translate(305.499908 0)"/>
     <use xlink:href="#HiraginoSans-W4-20" transform="translate(373.999893 0)"/>
     <use xlink:href="#HiraginoSans-W4-64" transform="translate(407.299881 0)"/>
     <use xlink:href="#HiraginoSans-W4-28" transform="translate(473.599869 0)"/>
     <use xlink:href="#HiraginoSans-W4-78" transform="translate(510.599854 0)"/>
     <use xlink:href="#HiraginoSans-W4-2c" transform="translate(566.499847 0)"/>
     <use xlink:href="#HiraginoSans-W4-79" transform="translate(591.499832 0)"/>
     <use xlink:href="#HiraginoSans-W4-29" transform="translate(648.899826 0)"/>
     <use xlink:href="#HiraginoSans-W4-20" transform="translate(685.899811 0)"/>
     <use xlink:href="#HiraginoSans-W4-2b" transform="translate(719.199799 0)"/>
     <use xlink:href="#HiraginoSans-W4-20" transform="translate(785.599792 0)"/>
     <use xlink:href="#HiraginoSans-W4-64" transform="translate(818.89978 0)"/>
     <use xlink:href="#HiraginoSans-W4-28" transform="translate(885.199768 0)"/>
     <use xlink:href="#HiraginoSans-W4-79" transform="translate(922.199753 0)"/>
     <use xlink:href="#HiraginoSans-W4-2c" transform="translate(979.599747 0)"/>
     <use xlink:href="#HiraginoSans-W4-7a" transform="translate(1004.599731 0)"/>
     <use xlink:href="#HiraginoSans-W4-29" transform="translate(1055.599716 0)"/>
    </g>
   </g>
   <g id="text_8">
    <!-- 距離の三角不等式 -->
    <g transform="translate(178.4 17.222188) scale(0.13 -0.13)">
     <defs>
      <path id="HiraginoSans-W4-8ddd" d="M 1549 422 
C 1325 365 1325 365 1082 307 
L 1082 1990 
C 1082 2202 1088 2342 1107 2515 
L 614 2515 
C 634 2330 646 2163 646 1965 
L 646 218 
C 448 186 320 166 205 166 
L 320 -365 
C 416 -333 602 -282 768 -243 
C 1638 -26 2176 128 2886 365 
L 2874 819 
C 2509 691 2387 653 1997 538 
L 1997 1754 
L 2304 1754 
C 2534 1754 2669 1747 2848 1722 
L 2848 2214 
C 2694 2182 2560 2176 2310 2176 
L 1997 2176 
L 1997 3072 
L 2208 3072 
C 2445 3072 2598 3066 2726 3053 
C 2714 3181 2714 3296 2714 3674 
L 2714 4467 
C 2714 4749 2720 4954 2733 5101 
C 2541 5075 2374 5069 2125 5069 
L 1165 5069 
C 922 5069 755 5075 570 5101 
C 582 4934 595 4730 595 4448 
L 595 3680 
C 595 3386 589 3219 570 3046 
C 762 3066 902 3072 1107 3072 
L 1549 3072 
L 1549 422 
z
M 1050 4653 
L 2266 4653 
L 2266 3482 
L 1050 3482 
L 1050 4653 
z
M 3648 1485 
L 5235 1485 
C 5440 1485 5574 1478 5779 1466 
C 5766 1606 5766 1709 5766 2022 
L 5766 3046 
C 5766 3270 5773 3411 5786 3590 
C 5626 3571 5472 3565 5216 3565 
L 3648 3565 
L 3648 4608 
L 5414 4608 
C 5658 4608 5862 4595 6054 4570 
L 6054 5107 
C 5862 5075 5677 5062 5402 5062 
L 3757 5062 
C 3488 5062 3309 5069 3142 5082 
C 3155 4922 3168 4678 3168 4448 
L 3168 186 
C 3168 -83 3155 -320 3130 -525 
L 3648 -525 
L 3648 -160 
L 5485 -160 
C 5754 -160 5946 -173 6131 -198 
L 6131 339 
C 5933 307 5734 294 5478 294 
L 3648 294 
L 3648 1485 
z
M 3648 1926 
L 3648 3123 
L 5299 3123 
L 5299 1926 
L 3648 1926 
z
" transform="scale(0.015625)"/>
      <path id="HiraginoSans-W4-96e2" d="M 5178 2630 
L 5376 2630 
C 5632 2630 5818 2618 5946 2598 
L 5946 3072 
C 5811 3046 5683 3040 5376 3040 
L 5178 3040 
L 5178 3917 
L 5434 3917 
C 5766 3917 5952 3910 6086 3891 
L 6086 4378 
C 5933 4346 5779 4339 5434 4339 
L 5197 4339 
C 5312 4570 5421 4813 5523 5062 
C 5536 5101 5555 5152 5587 5222 
L 5126 5357 
C 5030 4960 4922 4672 4755 4339 
L 4070 4339 
C 4147 4525 4198 4646 4275 4858 
C 4390 5184 4390 5184 4435 5293 
L 3949 5421 
C 3821 4666 3456 3821 3027 3302 
L 3027 3846 
C 3027 4019 3034 4134 3053 4262 
L 2605 4262 
C 2624 4141 2630 4006 2630 3846 
L 2630 2861 
L 1043 2861 
L 1043 3846 
C 1043 4006 1050 4122 1069 4269 
L 608 4269 
C 634 4096 640 3955 640 3802 
L 640 2944 
C 640 2726 634 2598 614 2496 
C 819 2509 941 2509 1152 2509 
L 1651 2509 
C 1619 2323 1613 2298 1581 2131 
L 1056 2131 
C 819 2131 653 2138 461 2157 
C 480 1958 486 1779 486 1498 
L 486 218 
C 486 -83 474 -282 454 -461 
L 954 -461 
C 934 -320 928 -173 928 211 
L 928 1760 
L 1498 1760 
C 1408 1376 1344 1146 1242 845 
C 1146 838 1082 832 1037 832 
C 1024 832 998 832 960 838 
L 1050 410 
C 1114 429 1178 442 1267 454 
C 1677 518 1990 582 2304 659 
C 2342 538 2355 486 2400 326 
L 2752 486 
C 2592 954 2509 1158 2317 1517 
L 1990 1389 
C 2093 1197 2118 1146 2189 986 
C 2074 960 1946 934 1645 890 
C 1728 1146 1760 1248 1901 1760 
L 2778 1760 
L 2778 154 
C 2778 19 2739 -6 2554 -6 
C 2368 -6 2208 6 1939 51 
C 2003 -122 2022 -224 2035 -390 
C 2285 -410 2355 -410 2470 -410 
C 3066 -410 3206 -314 3206 96 
L 3206 1587 
C 3206 1818 3213 1984 3232 2157 
C 3066 2138 2925 2131 2624 2131 
L 1997 2131 
C 2022 2266 2029 2278 2074 2509 
L 2554 2509 
C 2707 2509 2829 2509 3040 2496 
C 3034 2630 3027 2752 3027 2899 
L 3027 3264 
C 3123 3181 3200 3085 3296 2938 
C 3430 3123 3482 3200 3616 3443 
C 3597 3174 3597 3142 3597 2912 
L 3597 243 
C 3597 -102 3584 -326 3558 -474 
L 4045 -474 
L 4045 -166 
L 5504 -166 
C 5754 -166 5990 -179 6138 -205 
L 6138 288 
C 5997 262 5824 256 5536 256 
L 5178 256 
L 5178 1331 
L 5376 1331 
C 5619 1331 5811 1318 5946 1293 
L 5946 1779 
C 5798 1754 5645 1741 5376 1741 
L 5178 1741 
L 5178 2630 
z
M 4755 2630 
L 4755 1741 
L 4045 1741 
L 4045 2630 
L 4755 2630 
z
M 4755 3040 
L 4045 3040 
L 4045 3917 
L 4755 3917 
L 4755 3040 
z
M 4045 1331 
L 4755 1331 
L 4755 256 
L 4045 256 
L 4045 1331 
z
M 1606 4832 
L 864 4832 
C 646 4832 493 4838 352 4864 
L 352 4410 
C 486 4429 627 4435 851 4435 
L 2790 4435 
C 2989 4435 3149 4429 3309 4410 
L 3309 4864 
C 3162 4845 2976 4832 2784 4832 
L 2067 4832 
L 2067 4928 
C 2067 5114 2074 5216 2099 5357 
L 1568 5357 
C 1594 5248 1606 5120 1606 4922 
L 1606 4832 
z
M 2522 3309 
C 2349 3475 2298 3520 2157 3648 
C 2323 3827 2381 3898 2534 4077 
L 2234 4326 
C 2099 4115 2035 4038 1882 3878 
C 1760 3981 1677 4045 1408 4243 
L 1158 3994 
C 1389 3834 1466 3770 1626 3635 
C 1427 3475 1338 3411 1075 3258 
C 1178 3181 1216 3136 1331 2982 
C 1626 3181 1734 3258 1894 3398 
C 2035 3264 2093 3206 2272 3014 
L 2522 3309 
z
" transform="scale(0.015625)"/>
      <path id="HiraginoSans-W4-306e" d="M 3053 422 
C 3200 243 3245 160 3328 -96 
C 3821 6 4090 90 4397 237 
C 5293 666 5798 1459 5798 2451 
C 5798 3802 4832 4698 3379 4698 
C 2509 4698 1792 4403 1274 3834 
C 832 3347 589 2707 589 2042 
C 589 1107 1062 422 1709 422 
C 2189 422 2573 806 2938 1645 
C 3238 2323 3469 3264 3578 4205 
C 3891 4186 4070 4141 4294 4032 
C 4902 3738 5242 3174 5242 2477 
C 5242 1734 4870 1107 4230 768 
C 3917 602 3610 512 3053 422 
z
M 3027 4192 
C 2944 3398 2714 2483 2458 1888 
C 2195 1286 1952 992 1702 992 
C 1370 992 1114 1453 1114 2035 
C 1114 2797 1491 3501 2112 3891 
C 2394 4077 2656 4160 3027 4192 
z
" transform="scale(0.015625)"/>
      <path id="HiraginoSans-W4-4e09" d="M 883 4333 
C 1088 4358 1280 4371 1645 4371 
L 4723 4371 
C 5082 4371 5286 4358 5510 4333 
L 5510 4928 
C 5293 4896 5094 4883 4723 4883 
L 1638 4883 
C 1280 4883 1082 4896 883 4928 
L 883 4333 
z
M 1286 2259 
C 1466 2278 1670 2291 1978 2291 
L 4422 2291 
C 4717 2291 4896 2285 5107 2259 
L 5107 2842 
C 4909 2816 4717 2803 4422 2803 
L 1971 2803 
C 1651 2803 1453 2816 1286 2842 
L 1286 2259 
z
M 5971 557 
C 5747 531 5523 518 5184 518 
L 1229 518 
C 864 518 634 531 416 557 
L 416 -45 
C 653 -13 877 0 1242 0 
L 5197 0 
C 5568 0 5754 -13 5971 -45 
L 5971 557 
z
" transform="scale(0.015625)"/>
      <path id="HiraginoSans-W4-89d2" d="M 3795 3776 
C 3974 3955 4147 4147 4307 4365 
C 4474 4595 4474 4595 4550 4678 
L 4282 4928 
C 4128 4902 3955 4896 3680 4896 
L 2547 4896 
C 2611 4979 2650 5030 2701 5114 
C 2784 5242 2784 5242 2829 5299 
L 2272 5434 
C 2234 5280 2118 5082 1901 4800 
C 1504 4282 934 3789 320 3437 
C 486 3270 512 3226 602 3040 
C 838 3181 941 3258 1210 3469 
C 1222 3328 1222 3270 1222 3104 
C 1222 1222 1062 640 333 -128 
C 550 -250 634 -307 774 -454 
C 1222 83 1440 512 1568 1133 
L 5062 1133 
L 5062 256 
C 5062 102 4998 64 4736 64 
C 4544 64 4179 90 3910 122 
C 3994 -64 4026 -179 4045 -358 
C 4454 -378 4531 -378 4672 -378 
C 5350 -378 5549 -256 5549 166 
L 5549 3226 
C 5549 3475 5555 3635 5574 3802 
C 5446 3782 5286 3776 5043 3776 
L 3795 3776 
z
M 1818 3776 
C 1709 3776 1658 3776 1568 3776 
C 1837 4026 1946 4134 2221 4467 
L 3802 4467 
C 3642 4237 3456 4000 3238 3776 
L 1818 3776 
z
M 1632 1568 
C 1658 1798 1670 1914 1690 2285 
L 3091 2285 
L 3091 1568 
L 1632 1568 
z
M 5062 1568 
L 3558 1568 
L 3558 2285 
L 5062 2285 
L 5062 1568 
z
M 5062 2707 
L 3558 2707 
L 3558 3347 
L 5062 3347 
L 5062 2707 
z
M 3091 3347 
L 3091 2707 
L 1702 2707 
L 1702 3347 
L 3091 3347 
z
" transform="scale(0.015625)"/>
      <path id="HiraginoSans-W4-4e0d" d="M 3194 4454 
C 2874 3866 2662 3571 2208 3098 
C 1638 2496 1088 2086 211 1606 
C 384 1427 467 1312 550 1152 
C 1619 1818 2246 2349 2854 3117 
C 2842 2835 2842 2694 2842 2426 
L 2842 243 
C 2842 0 2822 -262 2797 -480 
L 3411 -480 
C 3379 -256 3366 -32 3366 243 
L 3366 3738 
C 3584 4070 3642 4173 3789 4454 
L 5306 4454 
C 5562 4454 5818 4442 6035 4416 
L 6035 4966 
C 5843 4941 5626 4928 5293 4928 
L 1088 4928 
C 800 4928 563 4941 352 4966 
L 352 4416 
C 563 4442 851 4454 1101 4454 
L 3194 4454 
z
M 3610 3110 
C 4294 2266 4941 1722 5888 1190 
C 6010 1408 6093 1530 6227 1670 
C 5760 1888 5350 2138 4941 2464 
C 4576 2752 4320 3008 3968 3443 
L 3610 3110 
z
" transform="scale(0.015625)"/>
      <path id="HiraginoSans-W4-7b49" d="M 1741 4442 
C 1888 4179 1971 4000 2074 3699 
L 2515 3853 
C 2381 4147 2330 4243 2208 4442 
L 2586 4442 
C 2816 4442 2970 4435 3142 4416 
L 3142 4896 
C 2976 4870 2803 4858 2509 4858 
L 1581 4858 
C 1658 4992 1677 5030 1792 5242 
L 1299 5370 
C 1229 5133 1133 4934 960 4685 
C 755 4390 582 4211 269 3962 
C 410 3872 512 3782 627 3642 
C 947 3936 1082 4090 1318 4442 
L 1741 4442 
z
M 4237 4435 
C 4397 4173 4474 4013 4602 3706 
L 5043 3866 
C 4934 4090 4877 4192 4717 4435 
L 5370 4435 
C 5645 4435 5843 4429 6042 4403 
L 6042 4890 
C 5869 4864 5664 4851 5357 4851 
L 4045 4851 
C 4096 4947 4128 5011 4250 5248 
L 3789 5382 
C 3635 4922 3354 4499 3002 4192 
C 3174 4096 3258 4032 3366 3910 
C 3526 4077 3635 4205 3802 4435 
L 4237 4435 
z
M 1613 3507 
C 1306 3507 1120 3520 947 3546 
L 947 3059 
C 1126 3085 1325 3098 1613 3098 
L 2880 3098 
L 2880 2522 
L 1082 2522 
C 774 2522 570 2534 403 2560 
L 403 2067 
C 614 2093 819 2106 1088 2106 
L 4179 2106 
L 4179 1542 
L 1101 1542 
C 826 1542 621 1555 422 1581 
L 422 1088 
C 614 1114 832 1126 1107 1126 
L 4179 1126 
L 4179 160 
C 4179 19 4128 -6 3878 -6 
C 3584 -6 3360 6 3059 45 
C 3130 -109 3162 -224 3200 -435 
C 3398 -448 3654 -454 3808 -454 
C 4486 -454 4659 -352 4659 58 
L 4659 1126 
L 5331 1126 
C 5600 1126 5818 1114 6016 1088 
L 6016 1581 
C 5818 1555 5613 1542 5331 1542 
L 4659 1542 
L 4659 2106 
L 5363 2106 
C 5638 2106 5850 2093 6042 2067 
L 6042 2560 
C 5875 2534 5670 2522 5357 2522 
L 3347 2522 
L 3347 3098 
L 4864 3098 
C 5126 3098 5331 3085 5517 3059 
L 5517 3546 
C 5350 3520 5165 3507 4858 3507 
L 3347 3507 
C 3354 3718 3360 3782 3386 3898 
L 2842 3898 
C 2867 3770 2880 3674 2880 3507 
L 1613 3507 
z
M 1542 755 
C 1984 422 2125 288 2483 -154 
L 2880 186 
C 2458 621 2368 704 1901 1062 
L 1542 755 
z
" transform="scale(0.015625)"/>
      <path id="HiraginoSans-W4-5f0f" d="M 4243 4128 
C 4230 4435 4224 4563 4224 4659 
C 4224 4864 4243 5120 4262 5242 
L 3693 5242 
C 3725 5018 3725 5018 3725 4890 
C 3731 4531 3731 4531 3744 4128 
L 1120 4128 
C 832 4128 614 4141 435 4166 
L 435 3635 
C 659 3661 864 3674 1120 3674 
L 3763 3674 
C 3789 3104 3827 2675 3898 2266 
C 4038 1421 4307 666 4614 211 
C 4877 -160 5171 -384 5408 -384 
C 5568 -384 5715 -294 5824 -115 
C 5958 96 6048 384 6157 941 
C 5958 1024 5882 1075 5709 1229 
C 5613 531 5510 192 5395 192 
C 5331 192 5178 320 5062 467 
C 4838 762 4608 1338 4486 1888 
C 4352 2502 4294 2950 4262 3674 
L 5344 3674 
C 5626 3674 5837 3661 6029 3635 
L 6029 4166 
C 5869 4141 5690 4128 5408 4128 
L 4243 4128 
z
M 1837 2310 
L 1837 570 
C 979 416 755 384 467 384 
L 570 -147 
C 634 -134 653 -128 736 -115 
C 1370 6 1715 70 1766 83 
C 2515 230 3027 346 3731 531 
L 3731 998 
C 3014 806 2765 749 2330 659 
L 2330 2310 
L 2925 2310 
C 3162 2310 3347 2298 3514 2278 
L 3514 2778 
C 3360 2752 3187 2746 2918 2746 
L 1286 2746 
C 1018 2746 838 2752 685 2778 
L 685 2278 
C 845 2298 1043 2310 1280 2310 
L 1837 2310 
z
M 5626 4506 
C 5370 4794 5222 4928 4864 5210 
L 4499 4966 
C 4832 4710 5005 4538 5248 4230 
L 5626 4506 
z
" transform="scale(0.015625)"/>
     </defs>
     <use xlink:href="#HiraginoSans-W4-8ddd"/>
     <use xlink:href="#HiraginoSans-W4-96e2" transform="translate(99.999985 0)"/>
     <use xlink:href="#HiraginoSans-W4-306e" transform="translate(199.999969 0)"/>
     <use xlink:href="#HiraginoSans-W4-4e09" transform="translate(299.999954 0)"/>
     <use xlink:href="#HiraginoSans-W4-89d2" transform="translate(399.999939 0)"/>
     <use xlink:href="#HiraginoSans-W4-4e0d" transform="translate(499.999924 0)"/>
     <use xlink:href="#HiraginoSans-W4-7b49" transform="translate(599.999908 0)"/>
     <use xlink:href="#HiraginoSans-W4-5f0f" transform="translate(699.999893 0)"/>
    </g>
   </g>
   <g id="line2d_4">
    <defs>
     <path id="m3f435fd869" d="M 0 5 
C 1.326016 5 2.597899 4.473168 3.535534 3.535534 
C 4.473168 2.597899 5 1.326016 5 0 
C 5 -1.326016 4.473168 -2.597899 3.535534 -3.535534 
C 2.597899 -4.473168 1.326016 -5 0 -5 
C -1.326016 -5 -2.597899 -4.473168 -3.535534 -3.535534 
C -4.473168 -2.597899 -5 -1.326016 -5 0 
C -5 1.326016 -4.473168 2.597899 -3.535534 3.535534 
C -2.597899 4.473168 -1.326016 5 0 5 
z
" style="stroke: #c00000"/>
    </defs>
    <g clip-path="url(#paf32648e52)">
     <use xlink:href="#m3f435fd869" x="85.976471" y="269.142188" style="fill: #c00000; stroke: #c00000"/>
    </g>
   </g>
   <g id="line2d_5">
    <defs>
     <path id="m31c70e5d9e" d="M 0 5 
C 1.326016 5 2.597899 4.473168 3.535534 3.535534 
C 4.473168 2.597899 5 1.326016 5 0 
C 5 -1.326016 4.473168 -2.597899 3.535534 -3.535534 
C 2.597899 -4.473168 1.326016 -5 0 -5 
C -1.326016 -5 -2.597899 -4.473168 -3.535534 -3.535534 
C -4.473168 -2.597899 -5 -1.326016 -5 0 
C -5 1.326016 -4.473168 2.597899 -3.535534 3.535534 
C -2.597899 4.473168 -1.326016 5 0 5 
z
" style="stroke: #2e75b6"/>
    </defs>
    <g clip-path="url(#paf32648e52)">
     <use xlink:href="#m31c70e5d9e" x="348.564706" y="87.702188" style="fill: #2e75b6; stroke: #2e75b6"/>
    </g>
   </g>
   <g id="line2d_6">
    <defs>
     <path id="m25b051dfc8" d="M 0 5 
C 1.326016 5 2.597899 4.473168 3.535534 3.535534 
C 4.473168 2.597899 5 1.326016 5 0 
C 5 -1.326016 4.473168 -2.597899 3.535534 -3.535534 
C 2.597899 -4.473168 1.326016 -5 0 -5 
C -1.326016 -5 -2.597899 -4.473168 -3.535534 -3.535534 
C -4.473168 -2.597899 -5 -1.326016 -5 0 
C -5 1.326016 -4.473168 2.597899 -3.535534 3.535534 
C -2.597899 4.473168 -1.326016 5 0 5 
z
" style="stroke: #538135"/>
    </defs>
    <g clip-path="url(#paf32648e52)">
     <use xlink:href="#m25b051dfc8" x="374.823529" y="269.142188" style="fill: #538135; stroke: #538135"/>
    </g>
   </g>
  </g>
 </g>
 <defs>
  <clipPath id="paf32648e52">
   <rect x="7.2" y="27.222188" width="446.4" height="332.64"/>
  </clipPath>
 </defs>
</svg>
