<?xml version="1.0" encoding="utf-8" standalone="no"?>
<!DOCTYPE svg PUBLIC "-//W3C//DTD SVG 1.1//EN"
  "http://www.w3.org/Graphics/SVG/1.1/DTD/svg11.dtd">
<svg xmlns:xlink="http://www.w3.org/1999/xlink" width="516.6pt" height="367.062188pt" viewBox="0 0 516.6 367.062188" xmlns="http://www.w3.org/2000/svg" version="1.1">
 <metadata>
  <rdf:RDF xmlns:dc="http://purl.org/dc/elements/1.1/" xmlns:cc="http://creativecommons.org/ns#" xmlns:rdf="http://www.w3.org/1999/02/22-rdf-syntax-ns#">
   <cc:Work>
    <dc:type rdf:resource="http://purl.org/dc/dcmitype/StillImage"/>
    <dc:date>2026-04-02T01:10:16.857029</dc:date>
    <dc:format>image/svg+xml</dc:format>
    <dc:creator>
     <cc:Agent>
      <dc:title>Matplotlib v3.10.8, https://matplotlib.org/</dc:title>
     </cc:Agent>
    </dc:creator>
   </cc:Work>
  </rdf:RDF>
 </metadata>
 <defs>
  <style type="text/css">*{stroke-linejoin: round; stroke-linecap: butt}</style>
 </defs>
 <g id="figure_1">
  <g id="patch_1">
   <path d="M 0 367.062188 
L 516.6 367.062188 
L 516.6 0 
L 0 0 
z
" style="fill: #ffffff"/>
  </g>
  <g id="axes_1">
   <g id="patch_2">
    <path d="M 37.099182 238.902188 
Q 258.301086 238.902188 477.825939 238.902188 
" style="fill: none; stroke: #333333; stroke-width: 1.5; stroke-linecap: round"/>
    <path d="M 473.825939 236.902188 
L 477.825939 238.902188 
L 473.825939 240.902188 
z
" style="fill: #333333; stroke: #333333; stroke-width: 1.5; stroke-linecap: round"/>
   </g>
   <g id="text_1">
    <!-- x_0 -->
    <g style="fill: #1f4e79" transform="translate(417.597891 263.094188) scale(0.09 -0.09)">
     <defs>
      <path id="CourierNewPSMT-78" d="M 2100 1416 
L 3303 263 
Q 3422 263 3453 252 
Q 3484 241 3507 206 
Q 3531 172 3531 131 
Q 3531 75 3490 37 
Q 3450 0 3353 0 
L 2509 0 
Q 2413 0 2372 37 
Q 2331 75 2331 131 
Q 2331 191 2372 227 
Q 2413 263 2509 263 
L 2944 263 
L 1922 1241 
L 906 263 
L 1344 263 
Q 1438 263 1478 227 
Q 1519 191 1519 131 
Q 1519 75 1478 37 
Q 1438 0 1344 0 
L 491 0 
Q 397 0 356 37 
Q 316 75 316 131 
Q 316 172 339 206 
Q 363 241 392 252 
Q 422 263 541 263 
L 1744 1416 
L 675 2441 
Q 563 2441 533 2453 
Q 503 2466 479 2500 
Q 456 2534 456 2575 
Q 456 2631 497 2668 
Q 538 2706 634 2706 
L 1350 2706 
Q 1447 2706 1486 2668 
Q 1525 2631 1525 2572 
Q 1525 2516 1486 2478 
Q 1447 2441 1350 2441 
L 1038 2441 
L 1922 1588 
L 2813 2441 
L 2500 2441 
Q 2406 2441 2364 2478 
Q 2322 2516 2322 2575 
Q 2322 2631 2362 2668 
Q 2403 2706 2500 2706 
L 3216 2706 
Q 3309 2706 3350 2668 
Q 3391 2631 3391 2572 
Q 3391 2534 3367 2500 
Q 3344 2466 3314 2453 
Q 3284 2441 3172 2441 
L 2100 1416 
z
" transform="scale(0.015625)"/>
      <path id="CourierNewPSMT-5f" d="M 3666 -1753 
L 175 -1753 
Q 81 -1753 40 -1717 
Q 0 -1681 0 -1622 
Q 0 -1563 40 -1527 
Q 81 -1491 175 -1491 
L 3666 -1491 
Q 3763 -1491 3802 -1527 
Q 3841 -1563 3841 -1622 
Q 3841 -1681 3802 -1717 
Q 3763 -1753 3666 -1753 
z
" transform="scale(0.015625)"/>
      <path id="CourierNewPSMT-30" d="M 3125 2284 
L 3125 1634 
Q 3125 788 2722 294 
Q 2406 -94 1925 -94 
Q 1694 -94 1489 -1 
Q 1284 91 1141 256 
Q 1050 359 942 587 
Q 834 816 788 1006 
Q 716 1275 716 1634 
L 716 2284 
Q 716 3134 1119 3628 
Q 1434 4016 1916 4016 
Q 2150 4016 2353 3923 
Q 2556 3831 2700 3666 
Q 2794 3559 2900 3331 
Q 3006 3103 3056 2916 
Q 3125 2647 3125 2284 
z
M 2863 2250 
Q 2863 2622 2758 2942 
Q 2653 3263 2522 3453 
Q 2444 3563 2319 3641 
Q 2141 3750 1919 3750 
Q 1478 3750 1228 3300 
Q 978 2850 978 2250 
L 978 1672 
Q 978 1300 1083 978 
Q 1188 656 1322 466 
Q 1397 359 1522 281 
Q 1700 169 1925 169 
Q 2363 169 2613 620 
Q 2863 1072 2863 1672 
L 2863 2250 
z
" transform="scale(0.015625)"/>
     </defs>
     <use xlink:href="#CourierNewPSMT-78"/>
     <use xlink:href="#CourierNewPSMT-5f" transform="translate(60.009766 0)"/>
     <use xlink:href="#CourierNewPSMT-30" transform="translate(120.019531 0)"/>
    </g>
   </g>
   <g id="text_2">
    <!-- x_1 -->
    <g style="fill: #1f4e79" transform="translate(345.057891 263.094188) scale(0.09 -0.09)">
     <defs>
      <path id="CourierNewPSMT-31" d="M 2050 3975 
L 2050 263 
L 2950 263 
Q 3044 263 3084 227 
Q 3125 191 3125 131 
Q 3125 75 3084 37 
Q 3044 0 2950 0 
L 888 0 
Q 794 0 753 37 
Q 713 75 713 131 
Q 713 191 753 227 
Q 794 263 888 263 
L 1788 263 
L 1788 3613 
L 931 3344 
Q 869 3325 841 3325 
Q 794 3325 755 3364 
Q 716 3403 716 3456 
Q 716 3503 747 3544 
Q 772 3569 850 3597 
L 2050 3975 
z
" transform="scale(0.015625)"/>
     </defs>
     <use xlink:href="#CourierNewPSMT-78"/>
     <use xlink:href="#CourierNewPSMT-5f" transform="translate(60.009766 0)"/>
     <use xlink:href="#CourierNewPSMT-31" transform="translate(120.019531 0)"/>
    </g>
   </g>
   <g id="text_3">
    <!-- x_2 -->
    <g style="fill: #1f4e79" transform="translate(294.837891 263.094188) scale(0.09 -0.09)">
     <defs>
      <path id="CourierNewPSMT-32" d="M 791 263 
L 2806 263 
L 2806 366 
Q 2806 459 2843 500 
Q 2881 541 2941 541 
Q 2997 541 3034 500 
Q 3072 459 3072 366 
L 3072 0 
L 534 0 
L 534 388 
Q 1334 1106 2091 1850 
Q 2444 2197 2575 2359 
Q 2706 2522 2754 2645 
Q 2803 2769 2803 2894 
Q 2803 3231 2531 3490 
Q 2259 3750 1875 3750 
Q 1531 3750 1265 3553 
Q 1000 3356 922 3066 
Q 903 2991 875 2969 
Q 838 2938 788 2938 
Q 734 2938 698 2973 
Q 663 3009 663 3059 
Q 663 3209 827 3465 
Q 991 3722 1280 3869 
Q 1569 4016 1872 4016 
Q 2363 4016 2716 3675 
Q 3069 3334 3069 2903 
Q 3069 2722 3009 2570 
Q 2950 2419 2808 2239 
Q 2666 2059 2297 1697 
Q 1372 784 791 281 
L 791 263 
z
" transform="scale(0.015625)"/>
     </defs>
     <use xlink:href="#CourierNewPSMT-78"/>
     <use xlink:href="#CourierNewPSMT-5f" transform="translate(60.009766 0)"/>
     <use xlink:href="#CourierNewPSMT-32" transform="translate(120.019531 0)"/>
    </g>
   </g>
   <g id="text_4">
    <!-- x_3 -->
    <g style="fill: #1f4e79" transform="translate(261.357891 263.094188) scale(0.09 -0.09)">
     <defs>
      <path id="CourierNewPSMT-33" d="M 2459 2134 
Q 2822 1972 3012 1689 
Q 3203 1406 3203 1100 
Q 3203 628 2820 267 
Q 2438 -94 1863 -94 
Q 1525 -94 1162 50 
Q 800 194 656 344 
Q 609 394 609 450 
Q 609 500 645 537 
Q 681 575 731 575 
Q 781 575 844 528 
Q 1328 169 1869 169 
Q 2325 169 2633 455 
Q 2941 741 2941 1091 
Q 2941 1325 2789 1550 
Q 2638 1775 2353 1904 
Q 2069 2034 1778 2034 
Q 1684 2034 1643 2070 
Q 1603 2106 1603 2166 
Q 1603 2222 1642 2259 
Q 1681 2297 1759 2297 
L 1984 2294 
Q 2338 2294 2567 2509 
Q 2797 2725 2797 3009 
Q 2797 3303 2556 3528 
Q 2316 3753 1928 3753 
Q 1656 3753 1428 3659 
Q 1200 3566 1063 3403 
Q 1013 3341 986 3327 
Q 959 3313 925 3313 
Q 872 3313 834 3348 
Q 797 3384 797 3434 
Q 797 3559 1069 3750 
Q 1447 4016 1928 4016 
Q 2425 4016 2744 3717 
Q 3063 3419 3063 3006 
Q 3063 2744 2909 2509 
Q 2756 2275 2459 2134 
z
" transform="scale(0.015625)"/>
     </defs>
     <use xlink:href="#CourierNewPSMT-78"/>
     <use xlink:href="#CourierNewPSMT-5f" transform="translate(60.009766 0)"/>
     <use xlink:href="#CourierNewPSMT-33" transform="translate(120.019531 0)"/>
    </g>
   </g>
   <g id="text_5">
    <!-- ... -->
    <g style="fill: #1f4e79" transform="translate(239.037891 263.094188) scale(0.09 -0.09)">
     <defs>
      <path id="CourierNewPSMT-2e" d="M 1866 753 
L 1978 753 
Q 2153 753 2278 629 
Q 2403 506 2403 331 
Q 2403 150 2276 28 
Q 2150 -94 1978 -94 
L 1866 -94 
Q 1691 -94 1566 29 
Q 1441 153 1441 328 
Q 1441 509 1567 631 
Q 1694 753 1866 753 
z
" transform="scale(0.015625)"/>
     </defs>
     <use xlink:href="#CourierNewPSMT-2e"/>
     <use xlink:href="#CourierNewPSMT-2e" transform="translate(60.009766 0)"/>
     <use xlink:href="#CourierNewPSMT-2e" transform="translate(120.019531 0)"/>
    </g>
   </g>
   <g id="patch_3">
    <path d="M 423.975493 221.768294 
Q 389.430032 241.510063 355.855279 222.323062 
" style="fill: none; stroke: #4472c4; stroke-linecap: round"/>
    <path d="M 358.335855 226.044183 
L 355.855279 222.323062 
L 360.320522 222.571274 
z
" style="fill: #4472c4; stroke: #4472c4; stroke-linecap: round"/>
   </g>
   <g id="patch_4">
    <path d="M 351.42817 221.761452 
Q 328.049734 234.821071 305.647358 222.306412 
" style="fill: none; stroke: #4472c4; stroke-linecap: round"/>
    <path d="M 308.164032 226.003215 
L 305.647358 222.306412 
L 310.114805 222.511155 
z
" style="fill: #4472c4; stroke: #4472c4; stroke-linecap: round"/>
   </g>
   <g id="patch_5">
    <path d="M 301.203062 221.746283 
Q 286.201443 229.813316 272.184557 222.277268 
" style="fill: none; stroke: #4472c4; stroke-linecap: round"/>
    <path d="M 274.76057 225.93297 
L 272.184557 222.277268 
L 276.654727 222.409879 
z
" style="fill: #4472c4; stroke: #4472c4; stroke-linecap: round"/>
   </g>
   <g id="patch_6">
    <path d="M 267.708076 221.726835 
Q 258.299035 226.486028 249.887623 222.230574 
" style="fill: none; stroke: #4472c4; stroke-linecap: round"/>
    <path d="M 252.553987 225.820908 
L 249.887623 222.230574 
L 254.359709 222.251683 
z
" style="fill: #4472c4; stroke: #4472c4; stroke-linecap: round"/>
   </g>
   <g id="patch_7">
    <path d="M 245.355381 221.65773 
Q 241.562655 223.205562 238.805285 222.081839 
" style="fill: none; stroke: #4472c4; stroke-linecap: round"/>
    <path d="M 241.754695 225.443533 
L 238.805285 222.081839 
L 243.264286 221.739328 
z
" style="fill: #4472c4; stroke: #4472c4; stroke-linecap: round"/>
   </g>
   <g id="patch_8">
    <path d="M 234.124541 221.501277 
Q 233.191587 221.688779 233.354894 221.721488 
" style="fill: none; stroke: #4472c4; stroke-linecap: round"/>
    <path d="M 236.884208 224.468112 
L 233.354894 221.721488 
L 237.669781 220.546011 
z
" style="fill: #4472c4; stroke: #4472c4; stroke-linecap: round"/>
   </g>
   <g id="text_6">
    <!-- x*（不動点） -->
    <g style="fill: #c00000" transform="translate(200.095313 281.238188) scale(0.1 -0.1)">
     <defs>
      <path id="HiraginoSans-W7-78" d="M 4154 -134 
C 4006 51 3846 256 3680 480 
L 2701 1856 
L 3584 3098 
C 3680 3232 3840 3443 4006 3654 
L 2810 3654 
C 2746 3501 2650 3328 2522 3142 
L 2118 2534 
L 1709 3142 
C 1606 3296 1510 3475 1434 3654 
L 218 3654 
C 442 3373 563 3219 640 3104 
L 1530 1856 
L 538 454 
C 416 288 218 32 77 -134 
L 1312 -134 
C 1427 90 1498 205 1619 390 
L 2112 1139 
L 2598 416 
C 2720 237 2784 122 2906 -134 
L 4154 -134 
z
" transform="scale(0.015625)"/>
      <path id="HiraginoSans-W7-2a" d="M 1139 4160 
L 442 4774 
L 96 4173 
L 986 3910 
L 109 3629 
L 454 3040 
L 1146 3674 
L 928 2752 
L 1645 2752 
L 1427 3674 
L 2112 3040 
L 2464 3629 
L 1581 3910 
L 2477 4173 
L 2131 4768 
L 1434 4160 
L 1645 5069 
L 928 5069 
L 1139 4160 
z
" transform="scale(0.015625)"/>
      <path id="HiraginoSans-W7-ff08" d="M 6240 -589 
C 5830 -26 5658 256 5491 666 
C 5274 1197 5152 1837 5152 2432 
C 5152 3027 5274 3667 5491 4198 
C 5658 4608 5830 4890 6240 5453 
L 5197 5453 
C 4845 4902 4691 4621 4538 4211 
C 4320 3648 4205 3034 4205 2432 
C 4205 1830 4320 1216 4538 653 
C 4691 243 4845 -38 5197 -589 
L 6240 -589 
z
" transform="scale(0.015625)"/>
      <path id="HiraginoSans-W7-4e0d" d="M 3040 4307 
C 2784 3859 2566 3578 2195 3194 
C 1594 2573 986 2125 154 1702 
C 390 1427 544 1190 659 922 
C 1165 1222 1491 1453 1811 1702 
C 2208 2022 2509 2317 2726 2592 
C 2720 2298 2720 2240 2720 2061 
L 2720 314 
C 2720 0 2707 -294 2675 -550 
L 3635 -550 
C 3603 -294 3590 -19 3590 307 
L 3590 2726 
C 4198 2003 4858 1466 5786 915 
C 5946 1248 6086 1478 6291 1741 
C 5818 1952 5446 2189 4979 2560 
C 4614 2854 4365 3098 4058 3450 
L 3590 2912 
L 3590 3578 
C 3853 3942 3910 4038 4051 4307 
L 5216 4307 
C 5504 4307 5850 4294 6118 4269 
L 6118 5152 
C 5907 5120 5594 5107 5197 5107 
L 1210 5107 
C 864 5107 563 5120 282 5152 
L 282 4269 
C 570 4294 947 4307 1235 4307 
L 3040 4307 
z
" transform="scale(0.015625)"/>
      <path id="HiraginoSans-W7-52d5" d="M 1632 4365 
L 890 4365 
C 614 4365 467 4371 282 4397 
L 282 3731 
C 474 3750 614 3757 890 3757 
L 1632 3757 
L 1632 3520 
L 1101 3520 
C 819 3520 646 3526 461 3539 
C 480 3354 486 3251 486 2950 
L 486 2112 
C 486 1811 480 1677 461 1510 
C 646 1517 787 1523 1101 1523 
L 1632 1523 
L 1632 1280 
L 1005 1280 
C 710 1280 576 1286 390 1306 
L 390 653 
C 570 672 787 678 998 678 
L 1632 678 
L 1632 371 
C 1254 358 781 346 634 346 
C 442 346 358 346 230 358 
L 358 -422 
C 531 -403 646 -390 755 -384 
C 1882 -307 1914 -307 3430 -160 
C 3616 -339 3674 -410 3802 -589 
C 4064 -230 4160 -70 4314 256 
C 4397 19 4429 -154 4442 -448 
C 4538 -454 4742 -454 4973 -454 
C 5466 -454 5702 -326 5805 6 
C 5958 467 6029 1306 6054 2944 
C 6074 3898 6074 3917 6099 4173 
C 5920 4154 5773 4147 5485 4147 
L 4947 4147 
C 4947 4525 4954 4794 4954 4832 
C 4954 5120 4966 5242 4992 5382 
L 4122 5382 
C 4154 5203 4160 5120 4160 4544 
C 4160 4346 4160 4282 4160 4147 
L 4083 4147 
C 3885 4147 3789 4154 3680 4173 
L 3680 3354 
C 3827 3373 3917 3379 4141 3379 
C 4070 1926 3910 1197 3488 480 
C 2707 416 2707 416 2355 397 
L 2355 678 
L 3091 678 
C 3296 678 3392 672 3501 646 
L 3501 1299 
C 3334 1286 3213 1280 2886 1280 
L 2355 1280 
L 2355 1523 
L 2938 1523 
C 3251 1523 3392 1523 3507 1510 
C 3501 1658 3501 1658 3494 2086 
L 3494 2976 
C 3494 3296 3494 3405 3514 3533 
C 3366 3520 3290 3520 2989 3520 
L 2355 3520 
L 2355 3757 
L 3117 3757 
C 3392 3757 3456 3750 3552 3738 
L 3552 4390 
C 3392 4371 3258 4365 2950 4365 
L 2355 4365 
L 2355 4666 
C 3040 4749 3040 4749 3219 4774 
C 3277 4787 3309 4794 3322 4794 
C 3456 4813 3456 4813 3494 4819 
C 3539 4826 3546 4826 3584 4826 
L 3155 5446 
C 2752 5267 1638 5146 314 5139 
C 442 4909 499 4774 570 4557 
C 1018 4570 1184 4576 1632 4608 
L 1632 4365 
z
M 1632 3008 
L 1632 2765 
L 1184 2765 
L 1184 3008 
L 1632 3008 
z
M 2355 3008 
L 2810 3008 
L 2810 2765 
L 2355 2765 
L 2355 3008 
z
M 1632 2278 
L 1632 2035 
L 1184 2035 
L 1184 2278 
L 1632 2278 
z
M 2355 2278 
L 2810 2278 
L 2810 2035 
L 2355 2035 
L 2355 2278 
z
M 5306 3379 
C 5267 1696 5254 1440 5184 941 
C 5120 403 5062 320 4800 320 
C 4704 320 4550 333 4365 358 
C 4717 1171 4870 1971 4922 3379 
L 5306 3379 
z
" transform="scale(0.015625)"/>
      <path id="HiraginoSans-W7-70b9" d="M 3520 4064 
L 5197 4064 
C 5478 4064 5683 4051 5907 4026 
L 5907 4845 
C 5709 4819 5504 4806 5197 4806 
L 3520 4806 
L 3520 4858 
C 3520 5107 3533 5248 3558 5402 
L 2618 5402 
C 2643 5222 2656 5030 2656 4781 
L 2656 3533 
L 1670 3533 
C 1344 3533 1133 3539 941 3558 
C 960 3373 966 3238 966 3008 
L 966 1722 
C 966 1523 960 1389 947 1229 
C 1120 1242 1293 1248 1530 1248 
L 4845 1248 
C 5082 1248 5254 1242 5440 1229 
C 5427 1363 5421 1510 5421 1734 
L 5421 3008 
C 5421 3238 5427 3398 5446 3558 
C 5280 3539 5069 3533 4717 3533 
L 3520 3533 
L 3520 4064 
z
M 4595 2790 
L 4595 1997 
L 1798 1997 
L 1798 2790 
L 4595 2790 
z
M 947 -563 
C 1318 -32 1434 211 1658 941 
L 909 1190 
C 742 627 563 288 192 -154 
L 947 -563 
z
M 2912 -461 
C 2893 122 2880 275 2758 998 
L 2016 922 
C 2067 493 2093 160 2093 -218 
C 2093 -352 2093 -378 2086 -557 
L 2912 -461 
z
M 4474 -333 
C 4326 198 4224 525 4000 1075 
L 3290 915 
C 3469 403 3571 -6 3674 -570 
L 4474 -333 
z
M 6112 -186 
C 5779 499 5670 691 5344 1203 
L 4627 928 
C 4947 390 5062 147 5306 -544 
L 6112 -186 
z
" transform="scale(0.015625)"/>
      <path id="HiraginoSans-W7-ff09" d="M 1203 -589 
C 1555 -38 1709 243 1862 653 
C 2080 1216 2195 1824 2195 2432 
C 2195 3040 2080 3648 1862 4211 
C 1709 4621 1555 4902 1203 5453 
L 160 5453 
C 570 4890 742 4608 909 4198 
C 1126 3667 1248 3027 1248 2432 
C 1248 1837 1126 1197 909 666 
C 742 256 570 -26 160 -589 
L 1203 -589 
z
" transform="scale(0.015625)"/>
     </defs>
     <use xlink:href="#HiraginoSans-W7-78"/>
     <use xlink:href="#HiraginoSans-W7-2a" transform="translate(65.999985 0)"/>
     <use xlink:href="#HiraginoSans-W7-ff08" transform="translate(106.099976 0)"/>
     <use xlink:href="#HiraginoSans-W7-4e0d" transform="translate(206.09996 0)"/>
     <use xlink:href="#HiraginoSans-W7-52d5" transform="translate(306.099945 0)"/>
     <use xlink:href="#HiraginoSans-W7-70b9" transform="translate(406.09993 0)"/>
     <use xlink:href="#HiraginoSans-W7-ff09" transform="translate(506.099915 0)"/>
    </g>
   </g>
   <g id="text_7">
    <g id="patch_9">
     <path d="M 280.626563 143.346188 
L 347.573438 143.346188 
Q 352.373438 143.346188 352.373438 138.546188 
L 352.373438 126.834937 
Q 352.373438 122.034937 347.573438 122.034937 
L 280.626563 122.034937 
Q 275.826563 122.034937 275.826563 126.834937 
L 275.826563 138.546188 
Q 275.826563 143.346188 280.626563 143.346188 
z
" style="fill: #deeaf1; stroke: #2e75b6; stroke-linejoin: miter"/>
    </g>
    <!-- T(xₙ) = xₙ₊₁ -->
    <g style="fill: #4472c4" transform="translate(280.626563 136.086187) scale(0.12 -0.12)">
     <defs>
      <path id="HiraginoSans-W4-54" d="M 2419 4397 
L 3354 4397 
C 3744 4397 3949 4384 4166 4352 
L 4166 4979 
C 3955 4947 3763 4934 3354 4934 
L 851 4934 
C 499 4934 333 4947 83 4979 
L 83 4352 
C 294 4384 518 4397 858 4397 
L 1818 4397 
L 1818 755 
C 1818 435 1798 192 1766 0 
L 2470 0 
C 2432 237 2419 435 2419 755 
L 2419 4397 
z
" transform="scale(0.015625)"/>
      <path id="HiraginoSans-W4-28" d="M 2195 -749 
C 1830 -198 1683 90 1542 538 
C 1402 986 1331 1472 1331 1978 
C 1331 2483 1402 2963 1542 3411 
C 1683 3859 1830 4147 2195 4698 
L 1715 5018 
C 1350 4461 1197 4173 1037 3712 
C 838 3155 742 2579 742 1978 
C 742 1376 838 794 1037 243 
C 1197 -218 1350 -512 1715 -1062 
L 2195 -749 
z
" transform="scale(0.015625)"/>
      <path id="HiraginoSans-W4-78" d="M 3469 0 
C 3238 294 3078 512 3008 614 
L 2138 1824 
L 2963 2982 
C 3021 3072 3168 3270 3206 3322 
C 3315 3462 3315 3462 3354 3520 
L 2630 3520 
C 2566 3386 2483 3238 2368 3072 
L 1792 2227 
L 1203 3072 
C 1088 3238 1024 3360 947 3520 
L 211 3520 
C 474 3174 557 3072 608 3002 
L 1440 1830 
L 531 563 
C 422 410 237 160 109 0 
L 858 0 
C 966 205 1018 294 1114 435 
L 1786 1421 
L 2426 486 
C 2566 288 2624 192 2720 0 
L 3469 0 
z
" transform="scale(0.015625)"/>
      <path id="DejaVuSans-2099" d="M 2213 1160 
L 2213 -24 
L 1850 -24 
L 1850 1147 
Q 1850 1426 1728 1565 
Q 1606 1704 1363 1704 
Q 1069 1704 900 1536 
Q 731 1369 731 1082 
L 731 -24 
L 366 -24 
L 366 1935 
L 731 1935 
L 731 1632 
Q 859 1807 1036 1894 
Q 1213 1982 1444 1982 
Q 1822 1982 2017 1772 
Q 2213 1563 2213 1160 
z
" transform="scale(0.015625)"/>
      <path id="HiraginoSans-W4-29" d="M 653 -1062 
C 1018 -512 1171 -218 1331 243 
C 1530 794 1626 1370 1626 1978 
C 1626 2579 1530 3155 1331 3712 
C 1171 4173 1018 4461 653 5018 
L 173 4698 
C 538 4147 685 3859 826 3411 
C 966 2963 1037 2490 1037 1978 
C 1037 1466 966 986 826 538 
C 685 90 538 -198 173 -749 
L 653 -1062 
z
" transform="scale(0.015625)"/>
      <path id="HiraginoSans-W4-20" transform="scale(0.015625)"/>
      <path id="HiraginoSans-W4-3d" d="M 333 2720 
L 333 2195 
L 3923 2195 
L 3923 2720 
L 333 2720 
z
M 333 1376 
L 333 851 
L 3923 851 
L 3923 1376 
L 333 1376 
z
" transform="scale(0.015625)"/>
      <path id="DejaVuSans-208a" d="M 1853 2222 
L 1853 1247 
L 2950 1247 
L 2950 951 
L 1853 951 
L 1853 -24 
L 1525 -24 
L 1525 951 
L 428 951 
L 428 1247 
L 1525 1247 
L 1525 2222 
L 1853 2222 
z
" transform="scale(0.015625)"/>
      <path id="HiraginoSans-W4-2081" d="M 563 2330 
C 659 2342 749 2349 890 2349 
L 1082 2349 
L 1082 422 
C 1082 243 1075 141 1050 0 
L 1600 0 
C 1574 154 1568 262 1568 422 
L 1568 2195 
C 1568 2400 1581 2573 1600 2790 
C 1478 2771 1427 2771 1280 2771 
L 877 2771 
C 717 2771 659 2778 563 2790 
L 563 2330 
z
" transform="scale(0.015625)"/>
     </defs>
     <use xlink:href="#HiraginoSans-W4-54"/>
     <use xlink:href="#HiraginoSans-W4-28" transform="translate(66.399994 0)"/>
     <use xlink:href="#HiraginoSans-W4-78" transform="translate(103.399979 0)"/>
     <use xlink:href="#DejaVuSans-2099" transform="translate(159.299973 0)"/>
     <use xlink:href="#HiraginoSans-W4-29" transform="translate(199.143723 0)"/>
     <use xlink:href="#HiraginoSans-W4-20" transform="translate(236.143707 0)"/>
     <use xlink:href="#HiraginoSans-W4-3d" transform="translate(269.443695 0)"/>
     <use xlink:href="#HiraginoSans-W4-20" transform="translate(335.843689 0)"/>
     <use xlink:href="#HiraginoSans-W4-78" transform="translate(369.143677 0)"/>
     <use xlink:href="#DejaVuSans-2099" transform="translate(425.043671 0)"/>
     <use xlink:href="#DejaVuSans-208a" transform="translate(464.887421 0)"/>
     <use xlink:href="#HiraginoSans-W4-2081" transform="translate(517.670624 0)"/>
    </g>
   </g>
   <g id="text_8">
    <g id="patch_10">
     <path d="M 188.208594 353.866188 
L 328.391406 353.866188 
Q 332.391406 353.866188 332.391406 349.866188 
L 332.391406 339.3365 
Q 332.391406 335.3365 328.391406 335.3365 
L 188.208594 335.3365 
Q 184.208594 335.3365 184.208594 339.3365 
L 184.208594 349.866188 
Q 184.208594 353.866188 188.208594 353.866188 
z
" style="fill: #fff2cc; stroke: #c9a800; stroke-linejoin: miter"/>
    </g>
    <!-- |T(x) - T(y)| ≤ c·|x-y|（c&lt;1） -->
    <g transform="translate(188.208594 347.766188) scale(0.1 -0.1)">
     <defs>
      <path id="HiraginoSans-W4-7c" d="M 966 4934 
L 966 -1312 
L 1530 -1312 
L 1530 4934 
L 966 4934 
z
" transform="scale(0.015625)"/>
      <path id="HiraginoSans-W4-2d" d="M 192 1581 
C 384 1606 525 1613 781 1613 
L 1606 1613 
C 1875 1613 2010 1606 2202 1581 
L 2202 2202 
C 2022 2176 1882 2170 1606 2170 
L 781 2170 
C 512 2170 371 2176 192 2202 
L 192 1581 
z
" transform="scale(0.015625)"/>
      <path id="HiraginoSans-W4-79" d="M 1600 154 
L 1325 -486 
C 1229 -710 1069 -832 858 -832 
C 730 -832 621 -800 442 -717 
L 301 -1274 
C 550 -1325 710 -1344 864 -1344 
C 1357 -1344 1664 -1146 1843 -717 
L 3283 2758 
C 3462 3181 3571 3437 3603 3520 
L 2912 3520 
C 2880 3334 2829 3168 2694 2816 
L 1901 768 
L 1011 2822 
C 902 3072 819 3341 787 3520 
L 64 3520 
C 134 3386 134 3386 422 2758 
L 1600 154 
z
" transform="scale(0.015625)"/>
      <path id="STIXGeneral-Regular-2264" d="M 4026 326 
L 410 2074 
L 410 2138 
L 4026 3898 
L 4026 3482 
L 1261 2106 
L 4026 730 
L 4026 326 
z
M 4026 -659 
L 410 -659 
L 410 -237 
L 4026 -237 
L 4026 -659 
z
" transform="scale(0.015625)"/>
      <path id="HiraginoSans-W4-63" d="M 3475 2573 
C 3405 2758 3347 2867 3251 3002 
C 2970 3405 2522 3616 1965 3616 
C 947 3616 282 2874 282 1747 
C 282 627 954 -90 1990 -90 
C 2534 -90 2970 102 3258 480 
C 3366 621 3430 742 3520 986 
L 2950 1126 
C 2899 966 2867 890 2816 806 
C 2650 550 2362 410 2010 410 
C 1312 410 870 934 870 1760 
C 870 2598 1299 3130 1984 3130 
C 2438 3130 2739 2899 2912 2413 
L 3475 2573 
z
" transform="scale(0.015625)"/>
      <path id="HiraginoSans-W4-b7" d="M 442 2125 
L 442 1402 
L 1165 1402 
L 1165 2125 
L 442 2125 
z
" transform="scale(0.015625)"/>
      <path id="HiraginoSans-W4-ff08" d="M 6170 -531 
C 5690 -26 5491 256 5280 698 
C 5024 1235 4902 1805 4902 2432 
C 4902 3059 5024 3629 5280 4166 
C 5491 4608 5690 4890 6170 5395 
L 5517 5395 
C 5139 4947 4966 4685 4774 4275 
C 4499 3686 4365 3085 4365 2432 
C 4365 1779 4499 1178 4774 589 
C 4966 179 5139 -83 5517 -531 
L 6170 -531 
z
" transform="scale(0.015625)"/>
      <path id="HiraginoSans-W4-3c" d="M 928 1786 
L 3136 3027 
L 3136 3642 
L 122 1901 
L 122 1677 
L 3136 -64 
L 3136 550 
L 928 1786 
z
" transform="scale(0.015625)"/>
      <path id="HiraginoSans-W4-31" d="M 1018 4371 
C 1222 4397 1389 4410 1606 4410 
L 1939 4410 
L 1939 755 
C 1939 454 1926 237 1888 0 
L 2598 0 
C 2560 250 2547 448 2547 755 
L 2547 3904 
C 2547 4256 2566 4582 2605 4966 
C 2387 4941 2278 4934 2035 4934 
L 1581 4934 
C 1325 4934 1197 4941 1018 4966 
L 1018 4371 
z
" transform="scale(0.015625)"/>
      <path id="HiraginoSans-W4-ff09" d="M 890 -531 
C 1261 -83 1434 179 1626 589 
C 1901 1178 2035 1773 2035 2432 
C 2035 3091 1901 3686 1626 4275 
C 1434 4685 1261 4947 890 5395 
L 230 5395 
C 710 4890 909 4608 1120 4166 
C 1376 3629 1498 3072 1498 2432 
C 1498 1792 1376 1235 1120 698 
C 909 256 710 -26 230 -531 
L 890 -531 
z
" transform="scale(0.015625)"/>
     </defs>
     <use xlink:href="#HiraginoSans-W4-7c"/>
     <use xlink:href="#HiraginoSans-W4-54" transform="translate(38.899994 0)"/>
     <use xlink:href="#HiraginoSans-W4-28" transform="translate(105.299988 0)"/>
     <use xlink:href="#HiraginoSans-W4-78" transform="translate(142.299973 0)"/>
     <use xlink:href="#HiraginoSans-W4-29" transform="translate(198.199966 0)"/>
     <use xlink:href="#HiraginoSans-W4-20" transform="translate(235.199951 0)"/>
     <use xlink:href="#HiraginoSans-W4-2d" transform="translate(268.499939 0)"/>
     <use xlink:href="#HiraginoSans-W4-20" transform="translate(305.799927 0)"/>
     <use xlink:href="#HiraginoSans-W4-54" transform="translate(339.099915 0)"/>
     <use xlink:href="#HiraginoSans-W4-28" transform="translate(405.499908 0)"/>
     <use xlink:href="#HiraginoSans-W4-79" transform="translate(442.499893 0)"/>
     <use xlink:href="#HiraginoSans-W4-29" transform="translate(499.899887 0)"/>
     <use xlink:href="#HiraginoSans-W4-7c" transform="translate(536.899872 0)"/>
     <use xlink:href="#HiraginoSans-W4-20" transform="translate(575.799866 0)"/>
     <use xlink:href="#STIXGeneral-Regular-2264" transform="translate(609.099854 0)"/>
     <use xlink:href="#HiraginoSans-W4-20" transform="translate(677.599838 0)"/>
     <use xlink:href="#HiraginoSans-W4-63" transform="translate(710.899826 0)"/>
     <use xlink:href="#HiraginoSans-W4-b7" transform="translate(769.999817 0)"/>
     <use xlink:href="#HiraginoSans-W4-7c" transform="translate(794.999802 0)"/>
     <use xlink:href="#HiraginoSans-W4-78" transform="translate(833.899796 0)"/>
     <use xlink:href="#HiraginoSans-W4-2d" transform="translate(889.799789 0)"/>
     <use xlink:href="#HiraginoSans-W4-79" transform="translate(927.099777 0)"/>
     <use xlink:href="#HiraginoSans-W4-7c" transform="translate(984.499771 0)"/>
     <use xlink:href="#HiraginoSans-W4-ff08" transform="translate(1023.399765 0)"/>
     <use xlink:href="#HiraginoSans-W4-63" transform="translate(1123.39975 0)"/>
     <use xlink:href="#HiraginoSans-W4-3c" transform="translate(1182.499741 0)"/>
     <use xlink:href="#HiraginoSans-W4-31" transform="translate(1234.499725 0)"/>
     <use xlink:href="#HiraginoSans-W4-ff09" transform="translate(1301.799713 0)"/>
    </g>
   </g>
   <g id="text_9">
    <!-- 縮小写像の反復と不動点 -->
    <g transform="translate(186.8 17.222188) scale(0.13 -0.13)">
     <defs>
      <path id="HiraginoSans-W4-7e2e" d="M 602 2605 
L 512 2605 
C 390 2605 339 2605 243 2624 
L 294 2131 
C 410 2157 410 2157 1210 2227 
L 1210 230 
C 1210 -128 1203 -294 1171 -486 
L 1677 -486 
C 1651 -320 1645 -134 1645 230 
L 1645 2266 
C 1862 2291 1939 2298 2099 2323 
C 2118 2234 2131 2202 2150 2093 
L 2509 2266 
C 2400 2650 2259 3008 2086 3360 
L 1754 3226 
C 1862 3008 1888 2938 1978 2694 
C 1773 2669 1619 2656 1133 2624 
C 1491 3066 1882 3616 2208 4147 
C 2304 4314 2342 4365 2400 4448 
L 1965 4678 
C 1875 4422 1734 4160 1338 3552 
C 1242 3693 1203 3744 1037 3955 
C 1229 4250 1325 4422 1606 4947 
C 1690 5107 1690 5107 1728 5178 
L 1280 5382 
C 1222 5114 1030 4698 768 4275 
C 685 4371 640 4416 525 4550 
L 282 4179 
C 570 3878 890 3482 1088 3181 
C 934 2957 934 2957 666 2605 
L 602 2605 
z
M 4013 4710 
L 3046 4710 
C 2765 4710 2586 4717 2458 4730 
C 2477 4621 2483 4538 2483 4346 
L 2483 3949 
C 2483 3808 2477 3661 2458 3533 
L 2931 3533 
L 2931 4301 
L 5626 4301 
L 5626 3789 
C 5517 3782 5459 3782 5344 3782 
L 4269 3782 
C 4064 3782 3942 3789 3763 3814 
L 3763 3347 
C 3904 3373 4051 3379 4262 3379 
L 4602 3379 
C 4563 3168 4499 2938 4410 2707 
L 4333 2707 
C 4070 2707 3936 2714 3763 2726 
C 3782 2541 3789 2413 3789 2144 
L 3789 115 
C 3789 -141 3782 -269 3757 -474 
L 4211 -474 
L 4211 -166 
L 5466 -166 
L 5466 -480 
L 5933 -480 
C 5907 -288 5894 -122 5894 122 
L 5894 2131 
C 5894 2406 5901 2554 5920 2726 
C 5760 2714 5587 2707 5331 2707 
L 4858 2707 
C 4928 2906 4986 3098 5050 3379 
L 5363 3379 
C 5562 3379 5722 3373 5862 3347 
L 5862 3750 
L 6099 3750 
C 6086 3853 6080 3949 6080 4109 
L 6080 4365 
C 6080 4518 6086 4627 6099 4742 
C 5946 4717 5747 4710 5440 4710 
L 4480 4710 
L 4480 4838 
C 4480 5062 4486 5197 4518 5331 
L 3981 5331 
C 4006 5197 4013 5069 4013 4845 
L 4013 4710 
z
M 4211 2304 
L 5466 2304 
L 5466 1510 
L 4211 1510 
L 4211 2304 
z
M 4211 1114 
L 5466 1114 
L 5466 243 
L 4211 243 
L 4211 1114 
z
M 525 1862 
C 486 1139 403 640 224 102 
L 614 -83 
C 774 442 838 845 922 1792 
L 525 1862 
z
M 1875 1747 
C 1997 1235 2061 806 2106 250 
L 2490 365 
C 2419 934 2355 1312 2227 1843 
L 1875 1747 
z
M 2880 243 
C 2880 -109 2874 -282 2848 -474 
L 3334 -474 
C 3315 -288 3309 -154 3309 282 
L 3309 2822 
C 3552 3437 3552 3437 3699 3923 
L 3258 4058 
C 3162 3590 3053 3258 2874 2880 
C 2682 2490 2573 2317 2349 2048 
C 2445 1933 2509 1837 2598 1664 
C 2752 1869 2797 1939 2918 2170 
C 2886 1894 2880 1715 2880 1408 
L 2880 243 
z
" transform="scale(0.015625)"/>
      <path id="HiraginoSans-W4-5c0f" d="M 2899 5242 
C 2925 5056 2938 4851 2938 4557 
L 2938 269 
C 2938 141 2880 109 2650 109 
C 2400 109 2112 141 1715 211 
C 1798 6 1830 -109 1856 -339 
C 2214 -371 2464 -384 2726 -384 
C 3302 -384 3469 -256 3469 198 
L 3469 4550 
C 3469 4858 3482 5069 3507 5242 
L 2899 5242 
z
M 4410 3712 
C 4410 3699 4435 3616 4480 3469 
L 4595 3066 
C 4902 2042 5229 1370 5818 563 
C 5965 723 6042 794 6259 934 
C 5837 1472 5549 1971 5306 2605 
C 5082 3174 4986 3514 4941 3866 
L 4410 3712 
z
M 1363 3834 
C 1344 3571 1286 3264 1178 2880 
C 954 2099 666 1510 198 896 
C 403 787 512 710 666 576 
C 1248 1427 1498 2010 1811 3309 
C 1862 3501 1888 3603 1914 3693 
L 1363 3834 
z
" transform="scale(0.015625)"/>
      <path id="HiraginoSans-W4-5199" d="M 2323 3808 
C 2394 4102 2445 4282 2464 4358 
L 1926 4416 
C 1920 4301 1914 4205 1882 4045 
C 1734 3354 1555 2771 1242 2010 
L 1760 1971 
L 1869 2272 
L 4416 2272 
C 4378 1894 4365 1773 4333 1523 
L 1094 1523 
C 762 1523 557 1536 384 1562 
L 384 1030 
C 557 1056 762 1069 1094 1069 
L 4256 1069 
C 4166 627 4064 326 3955 186 
C 3878 90 3789 58 3590 58 
C 3290 58 2912 96 2394 186 
C 2483 -51 2502 -122 2534 -326 
C 3021 -384 3302 -403 3610 -403 
C 4096 -403 4301 -288 4474 70 
C 4582 294 4678 634 4755 1069 
L 5338 1069 
C 5638 1069 5850 1056 6061 1030 
L 6061 1562 
C 5869 1530 5696 1523 5338 1523 
L 4826 1523 
C 4870 1901 4890 2061 4902 2298 
C 4915 2432 4941 2637 4960 2720 
C 4787 2694 4608 2688 4320 2688 
L 2010 2688 
C 2099 2957 2138 3104 2214 3386 
L 4397 3386 
C 4723 3386 4909 3379 5088 3354 
L 5088 3840 
C 4909 3814 4768 3808 4397 3808 
L 2323 3808 
z
M 1011 3699 
L 1011 4595 
L 5389 4595 
L 5389 3699 
L 5907 3699 
C 5882 3853 5869 4026 5869 4237 
L 5869 4544 
C 5869 4762 5875 4915 5894 5050 
C 5741 5037 5574 5030 5280 5030 
L 1120 5030 
C 813 5030 653 5037 506 5050 
C 525 4915 531 4762 531 4531 
L 531 4243 
C 531 4026 518 3872 493 3699 
L 1011 3699 
z
" transform="scale(0.015625)"/>
      <path id="HiraginoSans-W4-50cf" d="M 2131 3117 
C 2131 2938 2125 2790 2112 2656 
C 2272 2669 2451 2675 2618 2675 
L 3334 2675 
C 2925 2368 2336 2131 1600 1965 
C 1690 1862 1747 1766 1824 1600 
C 2400 1766 2848 1952 3270 2208 
C 3392 2093 3437 2035 3539 1914 
C 2976 1530 2355 1261 1581 1050 
C 1728 838 1734 832 1811 666 
C 2650 960 3200 1222 3744 1600 
C 3821 1453 3853 1389 3904 1235 
C 3283 762 2496 378 1587 102 
C 1766 -173 1766 -173 1818 -307 
C 2758 45 3424 390 3994 845 
C 4013 710 4019 589 4019 467 
C 4019 64 3936 -32 3590 -32 
C 3411 -32 3258 -19 2995 26 
C 3072 -160 3098 -256 3123 -422 
C 3315 -442 3386 -442 3578 -442 
C 3942 -442 4115 -410 4237 -307 
C 4397 -186 4474 64 4474 435 
C 4474 864 4333 1370 4102 1779 
C 3962 2022 3821 2202 3590 2426 
C 3686 2496 3750 2541 3910 2675 
L 4186 2675 
C 4326 2099 4461 1754 4704 1299 
C 5024 723 5402 307 6016 -154 
C 6118 45 6182 154 6285 294 
C 5734 621 5389 960 5056 1510 
C 5434 1728 5677 1907 6106 2278 
L 5722 2605 
C 5498 2330 5216 2099 4864 1888 
C 4736 2170 4685 2323 4595 2675 
L 5376 2675 
C 5600 2675 5728 2669 5869 2656 
C 5856 2784 5856 2854 5856 3142 
L 5856 3558 
C 5856 3782 5862 3885 5875 4038 
C 5728 4026 5613 4019 5376 4019 
L 4442 4019 
C 4576 4160 4755 4365 4864 4499 
C 4992 4666 4998 4672 5050 4723 
L 4800 4941 
C 4666 4928 4512 4922 4294 4922 
L 3392 4922 
C 3424 4973 3424 4973 3462 5043 
C 3539 5165 3539 5165 3610 5274 
L 3091 5376 
C 2989 5101 2848 4877 2611 4595 
C 2310 4243 2016 3987 1530 3667 
C 1683 3539 1773 3430 1805 3334 
C 1984 3469 2022 3494 2131 3584 
L 2131 3117 
z
M 2643 4019 
C 2835 4198 2970 4346 3123 4544 
L 4339 4544 
C 4211 4352 4070 4186 3898 4019 
L 2643 4019 
z
M 2579 3667 
L 3686 3667 
L 3686 3021 
L 2579 3021 
L 2579 3667 
z
M 4128 3667 
L 5395 3667 
L 5395 3021 
L 4128 3021 
L 4128 3667 
z
M 915 294 
C 915 -58 909 -243 877 -486 
L 1414 -486 
C 1389 -275 1382 -64 1382 301 
L 1382 3744 
C 1549 4096 1690 4442 1837 4864 
C 1926 5107 1926 5114 1978 5248 
L 1446 5382 
C 1421 5158 1357 4915 1216 4550 
C 954 3834 589 3213 147 2714 
C 224 2624 250 2586 294 2483 
C 378 2291 378 2291 403 2234 
C 627 2522 781 2752 934 3059 
C 922 2669 915 2432 915 2144 
L 915 294 
z
" transform="scale(0.015625)"/>
      <path id="HiraginoSans-W4-306e" d="M 3053 422 
C 3200 243 3245 160 3328 -96 
C 3821 6 4090 90 4397 237 
C 5293 666 5798 1459 5798 2451 
C 5798 3802 4832 4698 3379 4698 
C 2509 4698 1792 4403 1274 3834 
C 832 3347 589 2707 589 2042 
C 589 1107 1062 422 1709 422 
C 2189 422 2573 806 2938 1645 
C 3238 2323 3469 3264 3578 4205 
C 3891 4186 4070 4141 4294 4032 
C 4902 3738 5242 3174 5242 2477 
C 5242 1734 4870 1107 4230 768 
C 3917 602 3610 512 3053 422 
z
M 3027 4192 
C 2944 3398 2714 2483 2458 1888 
C 2195 1286 1952 992 1702 992 
C 1370 992 1114 1453 1114 2035 
C 1114 2797 1491 3501 2112 3891 
C 2394 4077 2656 4160 3027 4192 
z
" transform="scale(0.015625)"/>
      <path id="HiraginoSans-W4-53cd" d="M 2099 2995 
C 2266 2528 2342 2349 2496 2074 
C 2714 1683 2989 1325 3322 1005 
C 2752 550 2150 237 1350 -26 
C 1517 -186 1587 -288 1677 -486 
C 2458 -192 3091 173 3686 678 
C 4307 173 4806 -96 5811 -461 
C 5926 -218 5978 -134 6125 45 
C 5338 250 4691 557 4051 1018 
C 4570 1542 4973 2138 5280 2835 
C 5382 3078 5382 3078 5446 3181 
L 5171 3488 
C 5024 3462 4858 3456 4557 3456 
L 1658 3456 
C 1664 3661 1664 3738 1664 3846 
L 1664 4531 
L 5178 4531 
C 5549 4531 5715 4525 5914 4499 
L 5914 5043 
C 5741 5018 5549 5005 5178 5005 
L 1888 5005 
C 1568 5005 1382 5011 1146 5037 
C 1165 4845 1178 4570 1178 4160 
C 1178 2906 1114 2067 966 1421 
C 838 826 659 429 307 -83 
C 493 -205 563 -269 710 -467 
C 1318 422 1581 1395 1645 2995 
L 2099 2995 
z
M 4806 2995 
C 4486 2246 4218 1850 3680 1318 
C 3136 1818 2835 2285 2598 2995 
L 4806 2995 
z
" transform="scale(0.015625)"/>
      <path id="HiraginoSans-W4-5fa9" d="M 5254 1747 
C 5152 1722 5018 1715 4762 1715 
L 3424 1715 
C 3539 1862 3597 1933 3699 2086 
L 5024 2086 
C 5293 2086 5427 2080 5594 2061 
C 5581 2195 5574 2336 5574 2675 
L 5574 3462 
C 5574 3834 5574 3936 5594 4077 
C 5434 4058 5299 4051 4986 4051 
L 3142 4051 
C 2976 4051 2886 4051 2707 4064 
C 2803 4198 2835 4250 2938 4422 
L 5267 4422 
C 5606 4422 5862 4410 6035 4384 
L 6035 4877 
C 5875 4851 5651 4838 5254 4838 
L 3168 4838 
C 3226 4954 3251 4998 3264 5030 
C 3334 5171 3341 5190 3386 5261 
L 2874 5414 
C 2848 5280 2816 5190 2720 5005 
C 2464 4486 2253 4186 1869 3814 
C 2048 3693 2118 3629 2240 3482 
C 2400 3661 2451 3725 2554 3853 
C 2560 3712 2560 3629 2560 3469 
L 2560 2662 
C 2560 2381 2554 2195 2534 2061 
C 2675 2080 2822 2086 3104 2086 
L 3187 2086 
C 2829 1581 2368 1222 1728 947 
C 1869 819 1939 730 2022 582 
C 2419 806 2592 922 2861 1152 
C 3130 858 3302 710 3622 486 
C 3021 205 2464 58 1709 -26 
C 1818 -186 1875 -294 1926 -461 
C 2765 -326 3450 -109 4045 218 
C 4621 -102 5210 -301 6016 -448 
C 6067 -269 6144 -109 6234 32 
C 5574 102 4992 250 4467 486 
C 4806 730 5075 966 5350 1280 
C 5446 1389 5459 1408 5536 1478 
L 5254 1747 
z
M 4813 1344 
C 4544 1069 4358 922 4038 717 
C 3699 915 3456 1107 3226 1344 
L 4813 1344 
z
M 3014 3667 
L 5114 3667 
L 5114 3258 
L 3014 3258 
L 3014 3667 
z
M 3014 2886 
L 5114 2886 
L 5114 2470 
L 3014 2470 
L 3014 2886 
z
M 1574 5402 
C 1536 5299 1498 5242 1421 5133 
C 1082 4666 730 4346 256 4070 
C 403 3930 480 3834 563 3667 
C 1094 4038 1414 4346 1869 4934 
C 1965 5056 1965 5056 2016 5120 
L 1574 5402 
z
M 1453 2848 
C 1619 3078 1715 3213 1850 3450 
C 1907 3552 1907 3552 1965 3635 
L 1530 3910 
C 1498 3802 1446 3699 1331 3507 
C 998 2950 659 2560 173 2176 
C 294 2022 346 1933 422 1715 
C 685 1939 819 2086 998 2342 
C 986 2042 979 1856 979 1613 
L 979 339 
C 979 13 966 -256 941 -442 
L 1491 -442 
C 1466 -205 1453 38 1453 352 
L 1453 2848 
z
" transform="scale(0.015625)"/>
      <path id="HiraginoSans-W4-3068" d="M 1971 5056 
C 2010 4954 2016 4922 2074 4646 
C 2227 3885 2355 3392 2528 2874 
C 2131 2675 1926 2547 1683 2342 
C 1318 2042 1114 1651 1114 1261 
C 1114 826 1306 467 1651 269 
C 2035 51 2541 -38 3366 -38 
C 3834 -38 4160 -19 4826 51 
C 5178 90 5178 90 5312 90 
L 5254 723 
C 4845 582 4109 493 3373 493 
C 2938 493 2522 531 2304 589 
C 1894 698 1690 915 1690 1248 
C 1690 1498 1811 1741 2022 1933 
C 2298 2170 2707 2400 3206 2592 
C 3923 2867 4710 3117 5190 3219 
L 4973 3795 
C 4858 3731 4832 3725 4550 3622 
C 3424 3238 3424 3238 3034 3078 
C 2816 3725 2592 4723 2566 5165 
L 1971 5056 
z
" transform="scale(0.015625)"/>
      <path id="HiraginoSans-W4-4e0d" d="M 3194 4454 
C 2874 3866 2662 3571 2208 3098 
C 1638 2496 1088 2086 211 1606 
C 384 1427 467 1312 550 1152 
C 1619 1818 2246 2349 2854 3117 
C 2842 2835 2842 2694 2842 2426 
L 2842 243 
C 2842 0 2822 -262 2797 -480 
L 3411 -480 
C 3379 -256 3366 -32 3366 243 
L 3366 3738 
C 3584 4070 3642 4173 3789 4454 
L 5306 4454 
C 5562 4454 5818 4442 6035 4416 
L 6035 4966 
C 5843 4941 5626 4928 5293 4928 
L 1088 4928 
C 800 4928 563 4941 352 4966 
L 352 4416 
C 563 4442 851 4454 1101 4454 
L 3194 4454 
z
M 3610 3110 
C 4294 2266 4941 1722 5888 1190 
C 6010 1408 6093 1530 6227 1670 
C 5760 1888 5350 2138 4941 2464 
C 4576 2752 4320 3008 3968 3443 
L 3610 3110 
z
" transform="scale(0.015625)"/>
      <path id="HiraginoSans-W4-52d5" d="M 1766 4205 
L 922 4205 
C 672 4205 518 4211 346 4237 
L 346 3789 
C 512 3814 653 3821 915 3821 
L 1766 3821 
L 1766 3462 
L 1178 3462 
C 909 3462 736 3469 570 3482 
C 582 3290 589 3232 589 2912 
L 589 2138 
C 589 1824 582 1696 570 1536 
C 736 1549 896 1555 1165 1555 
L 1766 1555 
L 1766 1171 
L 1069 1171 
C 794 1171 640 1178 486 1203 
L 486 749 
C 646 768 870 781 1069 781 
L 1766 781 
L 1766 320 
C 1190 275 806 250 576 250 
C 493 250 410 250 301 262 
L 390 -250 
C 518 -224 570 -218 736 -205 
C 2042 -77 2349 -38 3373 128 
C 3277 19 3238 -26 3110 -154 
C 3290 -243 3482 -378 3546 -467 
C 4058 166 4320 666 4512 1408 
C 4653 1933 4723 2560 4768 3475 
L 5478 3475 
C 5466 1862 5389 755 5261 333 
C 5203 134 5139 96 4896 96 
C 4736 96 4582 115 4250 179 
C 4314 0 4339 -147 4346 -326 
C 4582 -352 4819 -365 4966 -365 
C 5536 -365 5683 -198 5786 557 
C 5875 1216 5907 1766 5939 3277 
C 5952 3661 5958 3802 5978 3949 
C 5792 3930 5651 3923 5395 3923 
L 4781 3923 
C 4787 4653 4787 4653 4794 4768 
C 4794 5011 4800 5146 4832 5267 
L 4288 5267 
C 4326 5082 4333 4986 4333 4474 
C 4333 4256 4326 4134 4320 3923 
L 4141 3923 
C 3898 3923 3763 3930 3610 3949 
L 3610 3443 
C 3789 3469 3930 3475 4186 3475 
L 4307 3475 
C 4275 2694 4211 2144 4090 1645 
C 3942 1056 3706 550 3386 141 
L 3386 531 
C 2765 435 2541 403 2202 365 
L 2202 781 
L 2918 781 
C 3200 781 3296 774 3418 755 
L 3418 1197 
C 3277 1178 3162 1171 2835 1171 
L 2202 1171 
L 2202 1555 
L 2835 1555 
C 3123 1555 3245 1549 3418 1542 
C 3411 1619 3405 1824 3405 2138 
L 3405 2918 
C 3405 3251 3405 3360 3418 3482 
C 3270 3469 3130 3462 2867 3462 
L 2202 3462 
L 2202 3821 
L 3027 3821 
C 3322 3821 3411 3814 3520 3795 
L 3520 4237 
C 3392 4211 3238 4205 2950 4205 
L 2202 4205 
L 2202 4672 
C 2554 4730 2861 4787 3206 4870 
C 3341 4909 3373 4915 3437 4922 
L 3136 5306 
C 2688 5088 1517 4909 429 4890 
C 538 4704 570 4640 608 4506 
C 1069 4531 1363 4563 1766 4608 
L 1766 4205 
z
M 1766 3104 
L 1766 2694 
L 1018 2694 
L 1018 3104 
L 1766 3104 
z
M 2202 3104 
L 2976 3104 
L 2976 2694 
L 2202 2694 
L 2202 3104 
z
M 1766 2336 
L 1766 1914 
L 1018 1914 
L 1018 2336 
L 1766 2336 
z
M 2202 2336 
L 2976 2336 
L 2976 1914 
L 2202 1914 
L 2202 2336 
z
" transform="scale(0.015625)"/>
      <path id="HiraginoSans-W4-70b9" d="M 3341 4122 
L 5114 4122 
C 5350 4122 5542 4109 5766 4083 
L 5766 4602 
C 5587 4576 5402 4563 5114 4563 
L 3341 4563 
L 3341 4736 
C 3341 4973 3354 5165 3386 5331 
L 2790 5331 
C 2822 5152 2835 4941 2835 4704 
L 2835 3341 
L 1850 3341 
C 1555 3341 1325 3354 1126 3373 
C 1146 3206 1152 3072 1152 2874 
L 1152 1805 
C 1152 1632 1146 1498 1126 1338 
C 1318 1357 1498 1363 1773 1363 
L 4640 1363 
C 4922 1363 5088 1357 5286 1338 
C 5267 1491 5261 1606 5261 1811 
L 5261 2874 
C 5261 3085 5267 3232 5286 3373 
C 5107 3347 4915 3341 4570 3341 
L 3341 3341 
L 3341 4122 
z
M 4774 2893 
L 4774 1818 
L 1645 1818 
L 1645 2893 
L 4774 2893 
z
M 749 -474 
C 1126 -19 1331 352 1562 966 
L 1114 1146 
C 1005 806 941 659 781 403 
C 627 147 531 26 294 -205 
L 749 -474 
z
M 2803 -378 
C 2778 109 2733 435 2618 1018 
L 2176 947 
C 2278 410 2304 141 2304 -474 
L 2803 -378 
z
M 4378 -288 
C 4211 211 4070 563 3827 1069 
L 3405 941 
C 3648 397 3776 26 3885 -480 
L 4378 -288 
z
M 5984 -205 
C 5632 429 5504 640 5126 1165 
L 4704 986 
C 5069 474 5242 160 5523 -467 
L 5984 -205 
z
" transform="scale(0.015625)"/>
     </defs>
     <use xlink:href="#HiraginoSans-W4-7e2e"/>
     <use xlink:href="#HiraginoSans-W4-5c0f" transform="translate(99.999985 0)"/>
     <use xlink:href="#HiraginoSans-W4-5199" transform="translate(199.999969 0)"/>
     <use xlink:href="#HiraginoSans-W4-50cf" transform="translate(299.999954 0)"/>
     <use xlink:href="#HiraginoSans-W4-306e" transform="translate(399.999939 0)"/>
     <use xlink:href="#HiraginoSans-W4-53cd" transform="translate(499.999924 0)"/>
     <use xlink:href="#HiraginoSans-W4-5fa9" transform="translate(599.999908 0)"/>
     <use xlink:href="#HiraginoSans-W4-3068" transform="translate(699.999893 0)"/>
     <use xlink:href="#HiraginoSans-W4-4e0d" transform="translate(799.999878 0)"/>
     <use xlink:href="#HiraginoSans-W4-52d5" transform="translate(899.999863 0)"/>
     <use xlink:href="#HiraginoSans-W4-70b9" transform="translate(999.999847 0)"/>
    </g>
   </g>
   <g id="line2d_1">
    <defs>
     <path id="m0cfc99bda7" d="M 0 4 
C 1.060812 4 2.078319 3.578535 2.828427 2.828427 
C 3.578535 2.078319 4 1.060812 4 0 
C 4 -1.060812 3.578535 -2.078319 2.828427 -2.828427 
C 2.078319 -3.578535 1.060812 -4 0 -4 
C -1.060812 -4 -2.078319 -3.578535 -2.828427 -2.828427 
C -3.578535 -2.078319 -4 -1.060812 -4 0 
C -4 1.060812 -3.578535 2.078319 -2.828427 2.828427 
C -2.078319 3.578535 -1.060812 4 0 4 
z
" style="stroke: #94c4df"/>
    </defs>
    <g clip-path="url(#pc270f39e37)">
     <use xlink:href="#m0cfc99bda7" x="425.7" y="238.902188" style="fill: #94c4df; stroke: #94c4df"/>
    </g>
   </g>
   <g id="line2d_2">
    <defs>
     <path id="maee51ffef7" d="M 0 3.65 
C 0.967991 3.65 1.896467 3.265413 2.58094 2.58094 
C 3.265413 1.896467 3.65 0.967991 3.65 0 
C 3.65 -0.967991 3.265413 -1.896467 2.58094 -2.58094 
C 1.896467 -3.265413 0.967991 -3.65 0 -3.65 
C -0.967991 -3.65 -1.896467 -3.265413 -2.58094 -2.58094 
C -3.265413 -1.896467 -3.65 -0.967991 -3.65 0 
C -3.65 0.967991 -3.265413 1.896467 -2.58094 2.58094 
C -1.896467 3.265413 -0.967991 3.65 0 3.65 
z
" style="stroke: #72b2d8"/>
    </defs>
    <g clip-path="url(#pc270f39e37)">
     <use xlink:href="#maee51ffef7" x="353.16" y="238.902188" style="fill: #72b2d8; stroke: #72b2d8"/>
    </g>
   </g>
   <g id="line2d_3">
    <defs>
     <path id="m9189237eb3" d="M 0 3.3 
C 0.87517 3.3 1.714614 2.952291 2.333452 2.333452 
C 2.952291 1.714614 3.3 0.87517 3.3 0 
C 3.3 -0.87517 2.952291 -1.714614 2.333452 -2.333452 
C 1.714614 -2.952291 0.87517 -3.3 0 -3.3 
C -0.87517 -3.3 -1.714614 -2.952291 -2.333452 -2.333452 
C -2.952291 -1.714614 -3.3 -0.87517 -3.3 0 
C -3.3 0.87517 -2.952291 1.714614 -2.333452 2.333452 
C -1.714614 2.952291 -0.87517 3.3 0 3.3 
z
" style="stroke: #549fcd"/>
    </defs>
    <g clip-path="url(#pc270f39e37)">
     <use xlink:href="#m9189237eb3" x="302.94" y="238.902188" style="fill: #549fcd; stroke: #549fcd"/>
    </g>
   </g>
   <g id="line2d_4">
    <defs>
     <path id="me7a6a6c7b8" d="M 0 2.95 
C 0.782349 2.95 1.532761 2.639169 2.085965 2.085965 
C 2.639169 1.532761 2.95 0.782349 2.95 0 
C 2.95 -0.782349 2.639169 -1.532761 2.085965 -2.085965 
C 1.532761 -2.639169 0.782349 -2.95 0 -2.95 
C -0.782349 -2.95 -1.532761 -2.639169 -2.085965 -2.085965 
C -2.639169 -1.532761 -2.95 -0.782349 -2.95 0 
C -2.95 0.782349 -2.639169 1.532761 -2.085965 2.085965 
C -1.532761 2.639169 -0.782349 2.95 0 2.95 
z
" style="stroke: #3b8bc2"/>
    </defs>
    <g clip-path="url(#pc270f39e37)">
     <use xlink:href="#me7a6a6c7b8" x="269.46" y="238.902188" style="fill: #3b8bc2; stroke: #3b8bc2"/>
    </g>
   </g>
   <g id="line2d_5">
    <defs>
     <path id="mf7acc408d2" d="M 0 2.6 
C 0.689528 2.6 1.350908 2.326048 1.838478 1.838478 
C 2.326048 1.350908 2.6 0.689528 2.6 0 
C 2.6 -0.689528 2.326048 -1.350908 1.838478 -1.838478 
C 1.350908 -2.326048 0.689528 -2.6 0 -2.6 
C -0.689528 -2.6 -1.350908 -2.326048 -1.838478 -1.838478 
C -2.326048 -1.350908 -2.6 -0.689528 -2.6 0 
C -2.6 0.689528 -2.326048 1.350908 -1.838478 1.838478 
C -1.350908 2.326048 -0.689528 2.6 0 2.6 
z
" style="stroke: #2575b7"/>
    </defs>
    <g clip-path="url(#pc270f39e37)">
     <use xlink:href="#mf7acc408d2" x="247.14" y="238.902188" style="fill: #2575b7; stroke: #2575b7"/>
    </g>
   </g>
   <g id="line2d_6">
    <defs>
     <path id="mb5d1509197" d="M 0 2.25 
C 0.596707 2.25 1.169055 2.012926 1.59099 1.59099 
C 2.012926 1.169055 2.25 0.596707 2.25 0 
C 2.25 -0.596707 2.012926 -1.169055 1.59099 -1.59099 
C 1.169055 -2.012926 0.596707 -2.25 0 -2.25 
C -0.596707 -2.25 -1.169055 -2.012926 -1.59099 -1.59099 
C -2.012926 -1.169055 -2.25 -0.596707 -2.25 0 
C -2.25 0.596707 -2.012926 1.169055 -1.59099 1.59099 
C -1.169055 2.012926 -0.596707 2.25 0 2.25 
z
" style="stroke: #135fa7"/>
    </defs>
    <g clip-path="url(#pc270f39e37)">
     <use xlink:href="#mb5d1509197" x="235.98" y="238.902188" style="fill: #135fa7; stroke: #135fa7"/>
    </g>
   </g>
   <g id="line2d_7">
    <defs>
     <path id="ma8c736654a" d="M 0 1.9 
C 0.503886 1.9 0.987202 1.699804 1.343503 1.343503 
C 1.699804 0.987202 1.9 0.503886 1.9 0 
C 1.9 -0.503886 1.699804 -0.987202 1.343503 -1.343503 
C 0.987202 -1.699804 0.503886 -1.9 0 -1.9 
C -0.503886 -1.9 -0.987202 -1.699804 -1.343503 -1.343503 
C -1.699804 -0.987202 -1.9 -0.503886 -1.9 0 
C -1.9 0.503886 -1.699804 0.987202 -1.343503 1.343503 
C -0.987202 1.699804 -0.503886 1.9 0 1.9 
z
" style="stroke: #084a91"/>
    </defs>
    <g clip-path="url(#pc270f39e37)">
     <use xlink:href="#ma8c736654a" x="230.4" y="238.902188" style="fill: #084a91; stroke: #084a91"/>
    </g>
   </g>
   <g id="line2d_8">
    <defs>
     <path id="m0c2240be4f" d="M 0 -9 
L -2.020626 -2.781153 
L -8.559509 -2.781153 
L -3.269441 1.062306 
L -5.290067 7.281153 
L -0 3.437694 
L 5.290067 7.281153 
L 3.269441 1.062306 
L 8.559509 -2.781153 
L 2.020626 -2.781153 
z
" style="stroke: #c00000; stroke-linejoin: bevel"/>
    </defs>
    <g clip-path="url(#pc270f39e37)">
     <use xlink:href="#m0c2240be4f" x="230.4" y="238.902188" style="fill: #c00000; stroke: #c00000; stroke-linejoin: bevel"/>
    </g>
   </g>
  </g>
 </g>
 <defs>
  <clipPath id="pc270f39e37">
   <rect x="7.2" y="27.222188" width="502.2" height="332.64"/>
  </clipPath>
 </defs>
</svg>
