<?xml version="1.0" encoding="utf-8" standalone="no"?>
<!DOCTYPE svg PUBLIC "-//W3C//DTD SVG 1.1//EN"
  "http://www.w3.org/Graphics/SVG/1.1/DTD/svg11.dtd">
<svg xmlns:xlink="http://www.w3.org/1999/xlink" width="572.4pt" height="256.182188pt" viewBox="0 0 572.4 256.182188" xmlns="http://www.w3.org/2000/svg" version="1.1">
 <metadata>
  <rdf:RDF xmlns:dc="http://purl.org/dc/elements/1.1/" xmlns:cc="http://creativecommons.org/ns#" xmlns:rdf="http://www.w3.org/1999/02/22-rdf-syntax-ns#">
   <cc:Work>
    <dc:type rdf:resource="http://purl.org/dc/dcmitype/StillImage"/>
    <dc:date>2026-04-02T01:10:15.705281</dc:date>
    <dc:format>image/svg+xml</dc:format>
    <dc:creator>
     <cc:Agent>
      <dc:title>Matplotlib v3.10.8, https://matplotlib.org/</dc:title>
     </cc:Agent>
    </dc:creator>
   </cc:Work>
  </rdf:RDF>
 </metadata>
 <defs>
  <style type="text/css">*{stroke-linejoin: round; stroke-linecap: butt}</style>
 </defs>
 <g id="figure_1">
  <g id="patch_1">
   <path d="M 0 256.182188 
L 572.4 256.182188 
L 572.4 0 
L 0 0 
z
" style="fill: #ffffff"/>
  </g>
  <g id="axes_1">
   <g id="patch_2">
    <path d="M 241.56 110.382188 
L 330.84 66.030188 
L 330.84 221.262188 
L 241.56 221.262188 
z
" clip-path="url(#pba498cefc8)" style="fill: #fff2cc; stroke: #c9a800; stroke-width: 2; stroke-linejoin: miter"/>
   </g>
   <g id="patch_3">
    <path d="M 37.099608 165.822188 
Q 132.748439 165.822188 227.279235 165.822188 
" style="fill: none; stroke: #333333; stroke-linecap: round"/>
    <path d="M 223.279235 163.822188 
L 227.279235 165.822188 
L 223.279235 167.822188 
z
" style="fill: #333333; stroke: #333333; stroke-linecap: round"/>
   </g>
   <g id="line2d_1">
    <defs>
     <path id="m113c839d1f" d="M 0 3 
C 0.795609 3 1.55874 2.683901 2.12132 2.12132 
C 2.683901 1.55874 3 0.795609 3 0 
C 3 -0.795609 2.683901 -1.55874 2.12132 -2.12132 
C 1.55874 -2.683901 0.795609 -3 0 -3 
C -0.795609 -3 -1.55874 -2.683901 -2.12132 -2.12132 
C -2.683901 -1.55874 -3 -0.795609 -3 0 
C -3 0.795609 -2.683901 1.55874 -2.12132 2.12132 
C -1.55874 2.683901 -0.795609 3 0 3 
z
" style="stroke: #4472c4"/>
    </defs>
    <g clip-path="url(#pba498cefc8)">
     <use xlink:href="#m113c839d1f" x="202.5" y="165.822188" style="fill: #4472c4; stroke: #4472c4"/>
    </g>
   </g>
   <g id="text_1">
    <!-- 1/1 -->
    <g style="fill: #4472c4" transform="translate(195.298125 185.226188) scale(0.08 -0.08)">
     <defs>
      <path id="CourierNewPSMT-31" d="M 2050 3975 
L 2050 263 
L 2950 263 
Q 3044 263 3084 227 
Q 3125 191 3125 131 
Q 3125 75 3084 37 
Q 3044 0 2950 0 
L 888 0 
Q 794 0 753 37 
Q 713 75 713 131 
Q 713 191 753 227 
Q 794 263 888 263 
L 1788 263 
L 1788 3613 
L 931 3344 
Q 869 3325 841 3325 
Q 794 3325 755 3364 
Q 716 3403 716 3456 
Q 716 3503 747 3544 
Q 772 3569 850 3597 
L 2050 3975 
z
" transform="scale(0.015625)"/>
      <path id="CourierNewPSMT-2f" d="M 3100 4113 
L 988 -413 
Q 934 -528 850 -528 
Q 797 -528 758 -489 
Q 719 -450 719 -403 
Q 719 -366 750 -300 
L 2859 4225 
Q 2894 4297 2925 4319 
Q 2956 4341 3000 4341 
Q 3053 4341 3092 4302 
Q 3131 4263 3131 4216 
Q 3131 4181 3100 4113 
z
" transform="scale(0.015625)"/>
     </defs>
     <use xlink:href="#CourierNewPSMT-31"/>
     <use xlink:href="#CourierNewPSMT-2f" transform="translate(60.009766 0)"/>
     <use xlink:href="#CourierNewPSMT-31" transform="translate(120.019531 0)"/>
    </g>
   </g>
   <g id="line2d_2">
    <defs>
     <path id="m0bd134c1bc" d="M 0 2.7 
C 0.716048 2.7 1.402866 2.415511 1.909188 1.909188 
C 2.415511 1.402866 2.7 0.716048 2.7 0 
C 2.7 -0.716048 2.415511 -1.402866 1.909188 -1.909188 
C 1.402866 -2.415511 0.716048 -2.7 0 -2.7 
C -0.716048 -2.7 -1.402866 -2.415511 -1.909188 -1.909188 
C -2.415511 -1.402866 -2.7 -0.716048 -2.7 0 
C -2.7 0.716048 -2.415511 1.402866 -1.909188 1.909188 
C -1.402866 2.415511 -0.716048 2.7 0 2.7 
z
" style="stroke: #4472c4"/>
    </defs>
    <g clip-path="url(#pba498cefc8)">
     <use xlink:href="#m0bd134c1bc" x="146.7" y="165.822188" style="fill: #4472c4; stroke: #4472c4"/>
    </g>
   </g>
   <g id="text_2">
    <!-- 1/2 -->
    <g style="fill: #4472c4" transform="translate(139.498125 185.226188) scale(0.08 -0.08)">
     <defs>
      <path id="CourierNewPSMT-32" d="M 791 263 
L 2806 263 
L 2806 366 
Q 2806 459 2843 500 
Q 2881 541 2941 541 
Q 2997 541 3034 500 
Q 3072 459 3072 366 
L 3072 0 
L 534 0 
L 534 388 
Q 1334 1106 2091 1850 
Q 2444 2197 2575 2359 
Q 2706 2522 2754 2645 
Q 2803 2769 2803 2894 
Q 2803 3231 2531 3490 
Q 2259 3750 1875 3750 
Q 1531 3750 1265 3553 
Q 1000 3356 922 3066 
Q 903 2991 875 2969 
Q 838 2938 788 2938 
Q 734 2938 698 2973 
Q 663 3009 663 3059 
Q 663 3209 827 3465 
Q 991 3722 1280 3869 
Q 1569 4016 1872 4016 
Q 2363 4016 2716 3675 
Q 3069 3334 3069 2903 
Q 3069 2722 3009 2570 
Q 2950 2419 2808 2239 
Q 2666 2059 2297 1697 
Q 1372 784 791 281 
L 791 263 
z
" transform="scale(0.015625)"/>
     </defs>
     <use xlink:href="#CourierNewPSMT-31"/>
     <use xlink:href="#CourierNewPSMT-2f" transform="translate(60.009766 0)"/>
     <use xlink:href="#CourierNewPSMT-32" transform="translate(120.019531 0)"/>
    </g>
   </g>
   <g id="line2d_3">
    <defs>
     <path id="m7a81acadfa" d="M 0 2.4 
C 0.636487 2.4 1.246992 2.147121 1.697056 1.697056 
C 2.147121 1.246992 2.4 0.636487 2.4 0 
C 2.4 -0.636487 2.147121 -1.246992 1.697056 -1.697056 
C 1.246992 -2.147121 0.636487 -2.4 0 -2.4 
C -0.636487 -2.4 -1.246992 -2.147121 -1.697056 -1.697056 
C -2.147121 -1.246992 -2.4 -0.636487 -2.4 0 
C -2.4 0.636487 -2.147121 1.246992 -1.697056 1.697056 
C -1.246992 2.147121 -0.636487 2.4 0 2.4 
z
" style="stroke: #4472c4"/>
    </defs>
    <g clip-path="url(#pba498cefc8)">
     <use xlink:href="#m7a81acadfa" x="107.64" y="165.822188" style="fill: #4472c4; stroke: #4472c4"/>
    </g>
   </g>
   <g id="text_3">
    <!-- 1/3 -->
    <g style="fill: #4472c4" transform="translate(100.438125 185.226188) scale(0.08 -0.08)">
     <defs>
      <path id="CourierNewPSMT-33" d="M 2459 2134 
Q 2822 1972 3012 1689 
Q 3203 1406 3203 1100 
Q 3203 628 2820 267 
Q 2438 -94 1863 -94 
Q 1525 -94 1162 50 
Q 800 194 656 344 
Q 609 394 609 450 
Q 609 500 645 537 
Q 681 575 731 575 
Q 781 575 844 528 
Q 1328 169 1869 169 
Q 2325 169 2633 455 
Q 2941 741 2941 1091 
Q 2941 1325 2789 1550 
Q 2638 1775 2353 1904 
Q 2069 2034 1778 2034 
Q 1684 2034 1643 2070 
Q 1603 2106 1603 2166 
Q 1603 2222 1642 2259 
Q 1681 2297 1759 2297 
L 1984 2294 
Q 2338 2294 2567 2509 
Q 2797 2725 2797 3009 
Q 2797 3303 2556 3528 
Q 2316 3753 1928 3753 
Q 1656 3753 1428 3659 
Q 1200 3566 1063 3403 
Q 1013 3341 986 3327 
Q 959 3313 925 3313 
Q 872 3313 834 3348 
Q 797 3384 797 3434 
Q 797 3559 1069 3750 
Q 1447 4016 1928 4016 
Q 2425 4016 2744 3717 
Q 3063 3419 3063 3006 
Q 3063 2744 2909 2509 
Q 2756 2275 2459 2134 
z
" transform="scale(0.015625)"/>
     </defs>
     <use xlink:href="#CourierNewPSMT-31"/>
     <use xlink:href="#CourierNewPSMT-2f" transform="translate(60.009766 0)"/>
     <use xlink:href="#CourierNewPSMT-33" transform="translate(120.019531 0)"/>
    </g>
   </g>
   <g id="line2d_4">
    <defs>
     <path id="m61e38762e7" d="M 0 2.1 
C 0.556927 2.1 1.091118 1.878731 1.484924 1.484924 
C 1.878731 1.091118 2.1 0.556927 2.1 0 
C 2.1 -0.556927 1.878731 -1.091118 1.484924 -1.484924 
C 1.091118 -1.878731 0.556927 -2.1 0 -2.1 
C -0.556927 -2.1 -1.091118 -1.878731 -1.484924 -1.484924 
C -1.878731 -1.091118 -2.1 -0.556927 -2.1 0 
C -2.1 0.556927 -1.878731 1.091118 -1.484924 1.484924 
C -1.091118 1.878731 -0.556927 2.1 0 2.1 
z
" style="stroke: #4472c4"/>
    </defs>
    <g clip-path="url(#pba498cefc8)">
     <use xlink:href="#m61e38762e7" x="85.32" y="165.822188" style="fill: #4472c4; stroke: #4472c4"/>
    </g>
   </g>
   <g id="text_4">
    <!-- 1/4 -->
    <g style="fill: #4472c4" transform="translate(78.118125 185.226188) scale(0.08 -0.08)">
     <defs>
      <path id="CourierNewPSMT-34" d="M 2409 1097 
L 669 1097 
L 669 1400 
L 2128 3922 
L 2675 3922 
L 2675 1359 
L 2894 1359 
Q 2991 1359 3031 1323 
Q 3072 1288 3072 1228 
Q 3072 1172 3031 1134 
Q 2991 1097 2894 1097 
L 2675 1097 
L 2675 263 
L 2894 263 
Q 2991 263 3031 227 
Q 3072 191 3072 131 
Q 3072 75 3031 37 
Q 2991 0 2894 0 
L 1919 0 
Q 1822 0 1781 37 
Q 1741 75 1741 131 
Q 1741 191 1781 227 
Q 1822 263 1919 263 
L 2409 263 
L 2409 1097 
z
M 2409 1359 
L 2409 3656 
L 2272 3656 
L 944 1359 
L 2409 1359 
z
" transform="scale(0.015625)"/>
     </defs>
     <use xlink:href="#CourierNewPSMT-31"/>
     <use xlink:href="#CourierNewPSMT-2f" transform="translate(60.009766 0)"/>
     <use xlink:href="#CourierNewPSMT-34" transform="translate(120.019531 0)"/>
    </g>
   </g>
   <g id="line2d_5">
    <defs>
     <path id="mb4e42c7cae" d="M 0 1.8 
C 0.477366 1.8 0.935244 1.610341 1.272792 1.272792 
C 1.610341 0.935244 1.8 0.477366 1.8 0 
C 1.8 -0.477366 1.610341 -0.935244 1.272792 -1.272792 
C 0.935244 -1.610341 0.477366 -1.8 0 -1.8 
C -0.477366 -1.8 -0.935244 -1.610341 -1.272792 -1.272792 
C -1.610341 -0.935244 -1.8 -0.477366 -1.8 0 
C -1.8 0.477366 -1.610341 0.935244 -1.272792 1.272792 
C -0.935244 1.610341 -0.477366 1.8 0 1.8 
z
" style="stroke: #4472c4"/>
    </defs>
    <g clip-path="url(#pba498cefc8)">
     <use xlink:href="#mb4e42c7cae" x="71.37" y="165.822188" style="fill: #4472c4; stroke: #4472c4"/>
    </g>
   </g>
   <g id="line2d_6">
    <defs>
     <path id="m02a6b80e9e" d="M 0 1.5 
C 0.397805 1.5 0.77937 1.341951 1.06066 1.06066 
C 1.341951 0.77937 1.5 0.397805 1.5 0 
C 1.5 -0.397805 1.341951 -0.77937 1.06066 -1.06066 
C 0.77937 -1.341951 0.397805 -1.5 0 -1.5 
C -0.397805 -1.5 -0.77937 -1.341951 -1.06066 -1.06066 
C -1.341951 -0.77937 -1.5 -0.397805 -1.5 0 
C -1.5 0.397805 -1.341951 0.77937 -1.06066 1.06066 
C -0.77937 1.341951 -0.397805 1.5 0 1.5 
z
" style="stroke: #4472c4"/>
    </defs>
    <g clip-path="url(#pba498cefc8)">
     <use xlink:href="#m02a6b80e9e" x="65.79" y="165.822188" style="fill: #4472c4; stroke: #4472c4"/>
    </g>
   </g>
   <g id="line2d_7">
    <defs>
     <path id="m5ec8c36ce1" d="M 0 1.2 
C 0.318244 1.2 0.623496 1.07356 0.848528 0.848528 
C 1.07356 0.623496 1.2 0.318244 1.2 0 
C 1.2 -0.318244 1.07356 -0.623496 0.848528 -0.848528 
C 0.623496 -1.07356 0.318244 -1.2 0 -1.2 
C -0.318244 -1.2 -0.623496 -1.07356 -0.848528 -0.848528 
C -1.07356 -0.623496 -1.2 -0.318244 -1.2 0 
C -1.2 0.318244 -1.07356 0.623496 -0.848528 0.848528 
C -0.623496 1.07356 -0.318244 1.2 0 1.2 
z
" style="stroke: #4472c4"/>
    </defs>
    <g clip-path="url(#pba498cefc8)">
     <use xlink:href="#m5ec8c36ce1" x="63.558" y="165.822188" style="fill: #4472c4; stroke: #4472c4"/>
    </g>
   </g>
   <g id="text_5">
    <!-- ... -->
    <g style="fill: #4472c4" transform="translate(59.625 185.226188) scale(0.09 -0.09)">
     <defs>
      <path id="HiraginoSans-W4-2e" d="M 442 723 
L 442 0 
L 1165 0 
L 1165 723 
L 442 723 
z
" transform="scale(0.015625)"/>
     </defs>
     <use xlink:href="#HiraginoSans-W4-2e"/>
     <use xlink:href="#HiraginoSans-W4-2e" transform="translate(24.999985 0)"/>
     <use xlink:href="#HiraginoSans-W4-2e" transform="translate(49.999969 0)"/>
    </g>
   </g>
   <g id="text_6">
    <!-- 1/n  →  0 -->
    <g style="fill: #4472c4" transform="translate(89.092266 82.662188) scale(0.11 -0.11)">
     <defs>
      <path id="CourierNewPS-ItalicMT-31" d="M 2894 3975 
L 2106 263 
L 3006 263 
Q 3094 263 3125 236 
Q 3156 209 3156 159 
Q 3156 94 3104 47 
Q 3053 0 2950 0 
L 888 0 
Q 800 0 769 28 
Q 738 56 738 106 
Q 738 169 789 216 
Q 841 263 944 263 
L 1844 263 
L 2553 3613 
L 1641 3344 
Q 1575 3325 1544 3325 
Q 1506 3325 1478 3354 
Q 1450 3384 1450 3428 
Q 1450 3481 1484 3525 
Q 1519 3569 1616 3597 
L 2894 3975 
z
" transform="scale(0.015625)"/>
      <path id="CourierNewPS-ItalicMT-2f" d="M 3975 4113 
L 903 -413 
Q 853 -484 818 -506 
Q 784 -528 741 -528 
Q 694 -528 664 -498 
Q 634 -469 634 -422 
Q 634 -378 688 -300 
L 3759 4225 
Q 3809 4297 3845 4319 
Q 3881 4341 3925 4341 
Q 3972 4341 4001 4311 
Q 4031 4281 4031 4234 
Q 4031 4194 3975 4113 
z
" transform="scale(0.015625)"/>
      <path id="CourierNewPS-ItalicMT-6e" d="M 1647 2706 
L 1563 2309 
Q 1906 2594 2148 2697 
Q 2391 2800 2672 2800 
Q 3059 2800 3279 2594 
Q 3500 2388 3500 2059 
Q 3500 1997 3484 1916 
L 3131 263 
L 3353 263 
Q 3441 263 3472 236 
Q 3503 209 3503 159 
Q 3503 94 3451 47 
Q 3400 0 3297 0 
L 2591 0 
Q 2503 0 2472 28 
Q 2441 56 2441 106 
Q 2441 169 2492 216 
Q 2544 263 2647 263 
L 2869 263 
L 3209 1872 
Q 3225 1944 3225 2009 
Q 3225 2238 3065 2386 
Q 2906 2534 2609 2534 
Q 2338 2534 2123 2425 
Q 1909 2316 1478 1909 
L 1128 263 
L 1425 263 
Q 1513 263 1544 236 
Q 1575 209 1575 159 
Q 1575 94 1523 47 
Q 1472 0 1369 0 
L 513 0 
Q 425 0 394 28 
Q 363 56 363 106 
Q 363 169 414 216 
Q 466 263 569 263 
L 866 263 
L 1328 2441 
L 1106 2441 
Q 1019 2441 987 2469 
Q 956 2497 956 2547 
Q 956 2609 1007 2657 
Q 1059 2706 1163 2706 
L 1647 2706 
z
" transform="scale(0.015625)"/>
      <path id="CourierNewPS-ItalicMT-20" transform="scale(0.015625)"/>
      <path id="CourierNewPS-ItalicMT-2192" d="M 2997 1775 
Q 3466 1256 3834 1100 
L 3834 1006 
Q 3631 913 3442 761 
Q 3253 609 2994 319 
L 2838 319 
Q 3028 725 3238 944 
L 6 944 
L 6 1150 
L 3238 1150 
Q 3084 1341 3023 1439 
Q 2963 1538 2841 1775 
L 2997 1775 
z
" transform="scale(0.015625)"/>
      <path id="CourierNewPS-ItalicMT-30" d="M 3613 2284 
L 3472 1634 
Q 3294 784 2788 294 
Q 2388 -94 1916 -94 
Q 1603 -94 1392 56 
Q 1181 206 1106 447 
Q 1000 791 1000 1097 
Q 1000 1334 1063 1634 
L 1203 2284 
Q 1381 3138 1891 3628 
Q 2288 4016 2759 4016 
Q 3075 4016 3284 3866 
Q 3494 3716 3569 3469 
Q 3675 3125 3675 2822 
Q 3675 2588 3613 2284 
z
M 3341 2250 
Q 3391 2491 3391 2694 
Q 3391 3122 3303 3340 
Q 3216 3559 3072 3654 
Q 2928 3750 2716 3750 
Q 2272 3750 1928 3297 
Q 1584 2844 1459 2250 
L 1334 1672 
Q 1284 1428 1284 1228 
Q 1284 803 1371 583 
Q 1459 363 1603 266 
Q 1747 169 1959 169 
Q 2403 169 2747 623 
Q 3091 1078 3216 1672 
L 3341 2250 
z
" transform="scale(0.015625)"/>
     </defs>
     <use xlink:href="#CourierNewPS-ItalicMT-31"/>
     <use xlink:href="#CourierNewPS-ItalicMT-2f" transform="translate(60.009766 0)"/>
     <use xlink:href="#CourierNewPS-ItalicMT-6e" transform="translate(120.019531 0)"/>
     <use xlink:href="#CourierNewPS-ItalicMT-20" transform="translate(180.029297 0)"/>
     <use xlink:href="#CourierNewPS-ItalicMT-20" transform="translate(240.039062 0)"/>
     <use xlink:href="#CourierNewPS-ItalicMT-2192" transform="translate(300.048828 0)"/>
     <use xlink:href="#CourierNewPS-ItalicMT-20" transform="translate(360.058594 0)"/>
     <use xlink:href="#CourierNewPS-ItalicMT-20" transform="translate(420.068359 0)"/>
     <use xlink:href="#CourierNewPS-ItalicMT-30" transform="translate(480.078125 0)"/>
    </g>
   </g>
   <g id="text_7">
    <!-- フィルター -->
    <g style="fill: #7f5f00" transform="translate(253.7 161.295484) scale(0.13 -0.13)">
     <defs>
      <path id="HiraginoSans-W7-30d5" d="M 5242 4819 
C 5069 4762 4941 4749 4659 4749 
L 1728 4749 
C 1197 4749 998 4755 723 4794 
L 723 3814 
C 986 3846 1190 3853 1715 3853 
L 4518 3853 
C 4224 2688 3597 1811 2611 1184 
C 2144 890 1792 723 1235 550 
C 1600 186 1702 45 1914 -365 
C 3014 128 3738 627 4326 1318 
C 4941 2029 5318 2829 5619 4019 
C 5664 4198 5683 4237 5741 4339 
L 5242 4819 
z
" transform="scale(0.015625)"/>
      <path id="HiraginoSans-W7-30a3" d="M 4518 4211 
C 4333 3904 3898 3488 3354 3085 
C 2605 2534 1747 2131 768 1862 
C 998 1562 1069 1446 1235 1082 
C 2118 1408 2528 1587 2976 1869 
L 2976 333 
C 2976 -32 2970 -173 2938 -410 
L 3917 -410 
C 3891 -218 3878 -13 3878 333 
L 3878 2413 
C 4307 2714 4736 3098 5069 3456 
C 5203 3603 5203 3603 5286 3674 
L 4518 4211 
z
" transform="scale(0.015625)"/>
      <path id="HiraginoSans-W7-30eb" d="M 1376 5069 
C 1395 4902 1402 4781 1402 4422 
C 1402 4077 1389 3642 1376 3328 
C 1338 2650 1280 2278 1146 1856 
C 954 1235 678 826 186 390 
C 531 147 653 32 960 -358 
C 1376 64 1613 397 1837 864 
C 2176 1562 2298 2227 2342 3558 
C 2387 4819 2387 4819 2413 5011 
L 1376 5069 
z
M 3130 5114 
C 3149 4954 3155 4806 3155 4525 
C 3155 4467 3155 4410 3155 4346 
L 3130 749 
C 3123 442 3110 314 3066 134 
L 3539 -371 
C 3622 -320 3674 -301 3834 -243 
C 4486 0 4813 186 5184 506 
C 5638 902 5978 1395 6246 2061 
C 5894 2342 5792 2445 5530 2778 
C 5395 2323 5222 1978 4960 1645 
C 4717 1338 4480 1146 4083 928 
L 4115 4333 
C 4122 4768 4128 4845 4166 5107 
L 3130 5114 
z
" transform="scale(0.015625)"/>
      <path id="HiraginoSans-W7-30bf" d="M 2374 5376 
C 2310 5114 2189 4819 2003 4480 
C 1606 3750 1133 3213 403 2643 
C 787 2426 915 2330 1178 2035 
C 1818 2586 2266 3110 2656 3750 
L 4531 3770 
C 4371 3270 4179 2861 3904 2438 
C 3539 2720 3238 2918 2675 3232 
L 2093 2547 
C 2573 2285 2912 2054 3347 1690 
C 3027 1344 2765 1133 2336 858 
C 1958 627 1645 474 1114 262 
C 1421 -26 1530 -160 1747 -544 
C 2656 -128 3354 346 3917 928 
C 4595 1632 5088 2496 5510 3731 
C 5619 4051 5626 4064 5715 4166 
L 5216 4659 
C 5069 4595 4960 4582 4736 4576 
L 3046 4563 
C 3110 4678 3130 4723 3187 4838 
C 3270 5024 3290 5056 3354 5165 
L 2374 5376 
z
" transform="scale(0.015625)"/>
      <path id="HiraginoSans-W7-30fc" d="M 410 1914 
C 659 1939 1024 1952 1581 1952 
L 4813 1952 
C 5312 1952 5734 1939 5990 1920 
L 5990 2970 
C 5696 2931 5466 2925 4819 2925 
L 1581 2925 
C 928 2925 698 2938 410 2976 
L 410 1914 
z
" transform="scale(0.015625)"/>
     </defs>
     <use xlink:href="#HiraginoSans-W7-30d5"/>
     <use xlink:href="#HiraginoSans-W7-30a3" transform="translate(99.999985 0)"/>
     <use xlink:href="#HiraginoSans-W7-30eb" transform="translate(199.999969 0)"/>
     <use xlink:href="#HiraginoSans-W7-30bf" transform="translate(299.999954 0)"/>
     <use xlink:href="#HiraginoSans-W7-30fc" transform="translate(399.999939 0)"/>
    </g>
   </g>
   <g id="text_8">
    <!-- （特定の集合族を通す） -->
    <g style="fill: #7f5f00" transform="translate(244.95 196.314188) scale(0.075 -0.075)">
     <defs>
      <path id="HiraginoSans-W4-ff08" d="M 6170 -531 
C 5690 -26 5491 256 5280 698 
C 5024 1235 4902 1805 4902 2432 
C 4902 3059 5024 3629 5280 4166 
C 5491 4608 5690 4890 6170 5395 
L 5517 5395 
C 5139 4947 4966 4685 4774 4275 
C 4499 3686 4365 3085 4365 2432 
C 4365 1779 4499 1178 4774 589 
C 4966 179 5139 -83 5517 -531 
L 6170 -531 
z
" transform="scale(0.015625)"/>
      <path id="HiraginoSans-W4-7279" d="M 1382 3565 
L 1382 2157 
C 877 1965 544 1862 294 1824 
L 442 1286 
C 525 1331 525 1331 1382 1670 
L 1382 179 
C 1382 -96 1363 -365 1338 -518 
L 1894 -518 
C 1862 -301 1850 -77 1850 179 
L 1850 1869 
C 2208 2035 2259 2054 2438 2157 
L 2438 1779 
C 2630 1805 2797 1818 3066 1818 
L 4858 1818 
L 4858 218 
C 4858 64 4819 38 4589 38 
C 4403 38 4141 64 3846 115 
C 3917 -58 3942 -173 3962 -397 
C 4211 -416 4410 -422 4589 -422 
C 5165 -422 5331 -307 5331 90 
L 5331 1818 
L 5466 1818 
C 5728 1818 5901 1805 6093 1779 
L 6093 2291 
C 5933 2259 5760 2253 5466 2253 
L 5331 2253 
L 5331 2931 
L 5459 2931 
C 5709 2931 5933 2918 6099 2893 
L 6099 3405 
C 5933 3379 5734 3366 5434 3366 
L 4397 3366 
L 4397 4160 
L 5229 4160 
C 5478 4160 5677 4147 5850 4128 
L 5850 4634 
C 5683 4608 5491 4595 5229 4595 
L 4397 4595 
L 4397 4845 
C 4397 5043 4410 5190 4435 5344 
L 3885 5344 
C 3910 5190 3923 5030 3923 4838 
L 3923 4595 
L 3270 4595 
C 3008 4595 2816 4608 2650 4634 
L 2650 4128 
C 2816 4147 3021 4160 3270 4160 
L 3923 4160 
L 3923 3366 
L 3072 3366 
C 2771 3366 2566 3379 2400 3405 
L 2400 2893 
C 2573 2918 2771 2931 3072 2931 
L 4858 2931 
L 4858 2253 
L 3104 2253 
C 2797 2253 2605 2266 2445 2291 
L 2400 2598 
C 1933 2387 1933 2387 1850 2349 
L 1850 3565 
L 1997 3565 
C 2189 3565 2349 3558 2515 3533 
L 2515 4045 
C 2368 4019 2208 4006 1965 4006 
L 1850 4006 
L 1850 4819 
C 1850 5037 1862 5190 1894 5350 
L 1338 5350 
C 1370 5184 1382 5030 1382 4819 
L 1382 4006 
L 979 4006 
C 1011 4243 1037 4416 1050 4563 
C 1056 4672 1062 4691 1075 4774 
L 595 4845 
C 602 4762 602 4723 602 4666 
C 602 4448 570 4141 518 3853 
C 448 3430 371 3162 224 2810 
C 371 2758 448 2720 640 2605 
C 774 2970 832 3155 909 3565 
L 1382 3565 
z
M 2803 1389 
C 3168 1050 3418 730 3667 320 
L 4070 621 
C 3770 1037 3539 1299 3174 1645 
L 2803 1389 
z
" transform="scale(0.015625)"/>
      <path id="HiraginoSans-W4-5b9a" d="M 3008 410 
C 2445 627 2144 902 1869 1440 
C 1939 1683 2029 2003 2042 2093 
C 2099 2342 2099 2342 2125 2438 
L 1600 2541 
C 1600 2522 1600 2509 1600 2496 
C 1600 2150 1414 1466 1197 1030 
C 979 589 781 326 352 -83 
C 570 -230 621 -282 749 -448 
C 1203 38 1440 384 1696 954 
C 2163 102 3040 -262 4608 -262 
C 5216 -262 5370 -262 5850 -243 
C 5888 -19 5920 90 6003 282 
C 5440 237 4998 218 4518 218 
C 4096 218 3789 237 3482 282 
L 3482 1613 
L 4704 1613 
C 4973 1613 5139 1606 5325 1581 
L 5325 2086 
C 5165 2061 4979 2048 4704 2048 
L 3482 2048 
L 3482 3034 
L 4518 3034 
C 4800 3034 4986 3021 5158 2995 
L 5158 3507 
C 4986 3482 4794 3469 4518 3469 
L 1926 3469 
C 1651 3469 1459 3482 1293 3507 
L 1293 2995 
C 1466 3021 1651 3034 1926 3034 
L 3008 3034 
L 3008 410 
z
M 2906 4621 
L 1184 4621 
C 934 4621 736 4627 525 4646 
C 538 4531 550 4365 550 4205 
L 550 3776 
C 550 3565 544 3462 518 3302 
L 1024 3302 
L 1024 4173 
L 5402 4173 
L 5402 3302 
L 5894 3302 
C 5875 3443 5869 3584 5869 3770 
L 5869 4205 
C 5869 4378 5875 4506 5894 4646 
C 5677 4627 5485 4621 5235 4621 
L 3405 4621 
L 3405 4909 
C 3405 5062 3411 5178 3443 5312 
L 2861 5312 
C 2893 5152 2906 5062 2906 4909 
L 2906 4621 
z
" transform="scale(0.015625)"/>
      <path id="HiraginoSans-W4-306e" d="M 3053 422 
C 3200 243 3245 160 3328 -96 
C 3821 6 4090 90 4397 237 
C 5293 666 5798 1459 5798 2451 
C 5798 3802 4832 4698 3379 4698 
C 2509 4698 1792 4403 1274 3834 
C 832 3347 589 2707 589 2042 
C 589 1107 1062 422 1709 422 
C 2189 422 2573 806 2938 1645 
C 3238 2323 3469 3264 3578 4205 
C 3891 4186 4070 4141 4294 4032 
C 4902 3738 5242 3174 5242 2477 
C 5242 1734 4870 1107 4230 768 
C 3917 602 3610 512 3053 422 
z
M 3027 4192 
C 2944 3398 2714 2483 2458 1888 
C 2195 1286 1952 992 1702 992 
C 1370 992 1114 1453 1114 2035 
C 1114 2797 1491 3501 2112 3891 
C 2394 4077 2656 4160 3027 4192 
z
" transform="scale(0.015625)"/>
      <path id="HiraginoSans-W4-96c6" d="M 3526 2778 
L 4864 2778 
C 5165 2778 5299 2771 5453 2746 
L 5453 3174 
C 5254 3149 5146 3142 4864 3142 
L 3526 3142 
L 3526 3565 
L 4864 3565 
C 5165 3565 5280 3558 5453 3533 
L 5453 3962 
C 5261 3936 5139 3930 4864 3930 
L 3526 3930 
L 3526 4352 
L 5190 4352 
C 5446 4352 5574 4346 5734 4326 
L 5734 4774 
C 5555 4749 5421 4742 5139 4742 
L 3584 4742 
C 3693 4890 3802 5056 3962 5338 
L 3450 5434 
C 3373 5184 3277 5005 3085 4742 
L 1766 4742 
C 1837 4832 1971 5030 2176 5338 
L 1645 5446 
C 1600 5306 1523 5158 1427 5005 
C 1094 4486 723 4109 205 3744 
C 339 3597 384 3539 486 3341 
C 781 3571 941 3725 1158 3974 
C 1139 3789 1133 3584 1133 3366 
L 1133 2374 
C 1133 2195 1126 2042 1114 1920 
C 1242 1933 1338 1933 1581 1933 
L 2950 1933 
L 2950 1498 
L 1069 1498 
C 704 1498 531 1504 365 1536 
L 365 1050 
C 576 1075 774 1088 1069 1088 
L 2554 1088 
C 2330 890 2093 730 1766 563 
C 1299 326 877 192 262 83 
C 403 -77 467 -186 550 -378 
C 1005 -262 1389 -122 1741 45 
C 2253 294 2598 531 2970 915 
C 2957 819 2950 557 2950 448 
L 2950 -19 
C 2950 -237 2938 -346 2912 -486 
L 3456 -486 
C 3424 -365 3418 -275 3418 -13 
L 3418 448 
C 3418 576 3411 678 3398 922 
C 3789 544 4051 358 4486 128 
C 4915 -96 5286 -243 5843 -403 
C 5946 -179 5990 -109 6125 64 
C 5197 250 4384 608 3802 1088 
L 5325 1088 
C 5626 1088 5830 1075 6048 1050 
L 6048 1536 
C 5875 1504 5696 1498 5325 1498 
L 3418 1498 
L 3418 1933 
L 5165 1933 
C 5453 1933 5581 1926 5760 1901 
L 5760 2336 
C 5587 2310 5446 2304 5165 2304 
L 3526 2304 
L 3526 2778 
z
M 3078 2778 
L 3078 2304 
L 1600 2304 
L 1600 2778 
L 3078 2778 
z
M 3078 3142 
L 1600 3142 
L 1600 3565 
L 3078 3565 
L 3078 3142 
z
M 3078 3930 
L 1600 3930 
L 1600 4352 
L 3078 4352 
L 3078 3930 
z
" transform="scale(0.015625)"/>
      <path id="HiraginoSans-W4-5408" d="M 1677 2899 
C 1824 2918 1990 2925 2189 2925 
L 4186 2925 
C 4429 2925 4595 2918 4736 2899 
L 4736 3411 
C 5178 3104 5498 2918 5958 2701 
C 6042 2899 6112 3014 6234 3187 
C 5626 3424 5056 3750 4518 4186 
C 4019 4582 3731 4890 3456 5318 
L 2893 5318 
C 2630 4883 2381 4595 1926 4211 
C 1402 3763 832 3424 198 3162 
C 358 2989 422 2893 493 2720 
C 966 2938 1203 3078 1677 3398 
L 1677 2899 
z
M 2195 3386 
C 1971 3386 1811 3392 1690 3411 
C 2355 3878 2733 4256 3187 4890 
C 3597 4320 4032 3898 4730 3411 
C 4595 3392 4435 3386 4186 3386 
L 2195 3386 
z
M 1690 -435 
L 1690 -77 
L 4698 -77 
L 4698 -435 
L 5242 -435 
C 5216 -243 5203 -58 5203 205 
L 5203 1645 
C 5203 1901 5210 2067 5235 2240 
C 5101 2221 4960 2214 4723 2214 
L 1664 2214 
C 1427 2214 1286 2221 1152 2240 
C 1178 2061 1184 1888 1184 1645 
L 1184 205 
C 1184 -51 1171 -230 1146 -435 
L 1690 -435 
z
M 1690 1766 
L 4698 1766 
L 4698 371 
L 1690 371 
L 1690 1766 
z
" transform="scale(0.015625)"/>
      <path id="HiraginoSans-W4-65cf" d="M 4147 2880 
C 4128 2330 4128 2330 4096 2042 
L 3341 2042 
C 3053 2042 2899 2048 2746 2074 
L 2746 1574 
C 2925 1600 3091 1606 3334 1606 
L 4013 1606 
C 3795 806 3322 320 2451 -13 
C 2579 -147 2656 -256 2726 -442 
C 3616 -26 4070 435 4352 1210 
C 4461 915 4563 736 4768 486 
C 5094 90 5427 -179 5939 -435 
C 6016 -224 6086 -109 6227 51 
C 5728 256 5446 435 5146 755 
C 4902 1018 4787 1203 4627 1606 
L 5446 1606 
C 5677 1606 5830 1594 6016 1568 
L 6016 2080 
C 5856 2054 5677 2042 5434 2042 
L 4557 2042 
C 4582 2278 4582 2278 4608 2880 
L 5261 2880 
C 5498 2880 5626 2874 5779 2848 
L 5779 3341 
C 5626 3309 5510 3302 5274 3302 
L 3904 3302 
C 3962 3424 4006 3520 4077 3674 
C 4115 3757 4122 3770 4154 3834 
L 3686 3955 
C 3654 3795 3616 3674 3526 3494 
C 3322 3091 3149 2854 2771 2502 
C 2944 2406 3027 2342 3130 2227 
C 3366 2464 3469 2586 3661 2880 
L 4147 2880 
z
M 1331 4352 
L 864 4352 
C 627 4352 467 4365 294 4390 
L 294 3885 
C 461 3910 589 3917 832 3917 
L 998 3917 
C 966 1510 819 838 147 -32 
C 288 -147 365 -237 499 -435 
C 864 38 1101 538 1235 1114 
C 1325 1536 1370 1914 1414 2662 
L 2054 2662 
C 2054 1914 2003 1210 1920 640 
C 1850 173 1811 115 1587 115 
C 1453 115 1299 141 1101 192 
C 1146 32 1165 -102 1178 -294 
C 1402 -320 1510 -333 1613 -333 
C 2093 -333 2202 -243 2310 243 
C 2413 685 2490 1562 2502 2381 
C 2515 2995 2515 2995 2528 3117 
C 2394 3098 2272 3091 2067 3091 
L 1440 3091 
C 1453 3392 1453 3392 1459 3917 
L 2099 3917 
C 2349 3917 2490 3910 2650 3891 
L 2650 4384 
C 2470 4365 2298 4352 2099 4352 
L 1805 4352 
L 1805 4723 
C 1805 4973 1818 5126 1843 5306 
L 1293 5306 
C 1318 5114 1331 4960 1331 4723 
L 1331 4352 
z
M 5402 4090 
C 5658 4090 5856 4083 6035 4064 
L 6035 4570 
C 5869 4544 5677 4531 5382 4531 
L 3635 4531 
C 3744 4768 3827 4954 3898 5133 
C 3917 5178 3917 5178 3949 5261 
L 3443 5357 
C 3411 5184 3392 5126 3322 4947 
C 3104 4371 2784 3878 2381 3456 
C 2547 3366 2637 3283 2746 3149 
C 3053 3507 3213 3731 3418 4090 
L 5402 4090 
z
" transform="scale(0.015625)"/>
      <path id="HiraginoSans-W4-3092" d="M 2189 4365 
C 1491 4365 1088 4390 813 4442 
L 800 3917 
C 864 3930 902 3930 934 3930 
C 966 3930 998 3930 1062 3923 
C 1197 3917 1830 3904 1958 3904 
C 1984 3904 2054 3910 2074 3910 
C 2035 3840 2035 3840 2016 3808 
C 1581 3046 1037 2362 614 2042 
L 1037 1619 
C 1152 1798 1293 1952 1549 2163 
C 2054 2598 2547 2835 2938 2835 
C 3226 2835 3373 2694 3411 2381 
C 2982 2189 2707 2042 2470 1869 
C 2016 1542 1792 1197 1792 832 
C 1792 499 1952 218 2227 64 
C 2534 -109 2944 -186 3539 -186 
C 4058 -186 4646 -141 5133 -64 
C 5267 -38 5293 -38 5395 -32 
L 5338 557 
C 4954 403 4250 301 3597 301 
C 2694 301 2330 467 2330 870 
C 2330 1088 2445 1267 2707 1472 
C 2874 1600 3085 1715 3475 1894 
C 3475 1818 3475 1798 3475 1696 
C 3475 1350 3456 973 3437 845 
L 3962 851 
C 3949 954 3949 1005 3949 1114 
C 3949 1165 3949 1254 3949 1376 
C 3955 1504 3955 1638 3955 1709 
C 3955 1850 3955 1869 3949 2080 
C 4800 2406 5299 2566 5645 2624 
L 5414 3149 
C 5312 3085 5293 3078 4966 2963 
C 4653 2854 4390 2758 3891 2566 
C 3802 3027 3507 3264 3027 3264 
C 2726 3264 2413 3174 2144 3002 
C 2080 2963 2042 2938 1926 2842 
C 1907 2829 1875 2810 1837 2778 
C 1837 2778 1830 2784 1824 2797 
C 1830 2803 1830 2803 1837 2810 
C 1837 2816 1862 2835 1901 2861 
C 1920 2874 2054 3021 2106 3098 
C 2310 3354 2438 3565 2624 3910 
C 3251 3930 4070 3987 4512 4045 
C 4883 4096 4883 4096 5005 4109 
L 4966 4621 
C 4627 4518 4032 4442 3238 4397 
C 2880 4378 2880 4378 2835 4371 
C 2874 4435 2944 4595 3027 4800 
C 3130 5050 3130 5050 3181 5126 
L 2579 5216 
C 2560 5011 2490 4813 2291 4365 
L 2189 4365 
z
" transform="scale(0.015625)"/>
      <path id="HiraginoSans-W4-901a" d="M 2810 3942 
C 2502 3942 2298 3949 2112 3974 
C 2131 3795 2138 3629 2138 3245 
L 2138 1222 
C 2138 902 2125 717 2099 544 
L 2624 544 
C 2592 698 2586 877 2586 1222 
L 2586 1658 
L 3699 1658 
L 3699 1306 
C 3699 986 3686 768 3661 608 
L 4166 608 
C 4141 787 4134 966 4134 1306 
L 4134 1658 
L 5376 1658 
L 5376 1152 
C 5376 1005 5350 973 5229 973 
C 5030 973 4915 986 4698 1018 
C 4762 870 4781 768 4806 576 
C 5075 570 5075 570 5158 570 
C 5722 570 5824 653 5824 1126 
L 5824 3200 
C 5824 3571 5830 3802 5850 3974 
C 5702 3949 5510 3942 5165 3942 
L 4422 3942 
C 4851 4179 5158 4390 5613 4762 
C 5683 4819 5715 4838 5773 4883 
L 5562 5158 
C 5446 5133 5280 5126 4896 5126 
L 2707 5126 
C 2362 5126 2189 5133 2010 5165 
L 2010 4691 
C 2195 4717 2355 4723 2656 4723 
L 4922 4723 
C 4595 4454 4403 4320 4026 4102 
C 3654 4371 3494 4480 3187 4666 
L 2835 4429 
C 3085 4294 3386 4115 3616 3942 
L 2810 3942 
z
M 4134 3558 
L 5376 3558 
L 5376 2995 
L 4134 2995 
L 4134 3558 
z
M 3699 3558 
L 3699 2995 
L 2586 2995 
L 2586 3558 
L 3699 3558 
z
M 2586 2611 
L 3699 2611 
L 3699 2042 
L 2586 2042 
L 2586 2611 
z
M 5376 2042 
L 4134 2042 
L 4134 2611 
L 5376 2611 
L 5376 2042 
z
M 301 4915 
C 736 4512 998 4211 1325 3738 
L 1709 4096 
C 1382 4531 1101 4832 659 5235 
L 301 4915 
z
M 275 2323 
C 410 2349 518 2355 691 2355 
L 1062 2355 
L 1062 870 
C 742 538 403 269 173 160 
L 429 -346 
C 512 -269 531 -250 602 -192 
C 698 -109 710 -96 832 13 
C 1018 192 1056 224 1267 461 
C 1478 186 1606 64 1818 -51 
C 2214 -269 2643 -326 3885 -326 
C 4493 -326 5325 -307 6003 -282 
C 6035 -83 6086 90 6163 275 
C 5357 179 4531 134 3507 134 
C 2739 134 2304 192 2048 333 
C 1779 480 1651 608 1523 870 
L 1523 2150 
C 1523 2477 1530 2630 1549 2835 
C 1402 2810 1261 2803 1069 2803 
L 736 2803 
C 531 2803 422 2810 275 2835 
L 275 2323 
z
" transform="scale(0.015625)"/>
      <path id="HiraginoSans-W4-3059" d="M 3507 4326 
C 2790 4307 2509 4301 1965 4282 
C 998 4243 960 4243 787 4243 
C 691 4243 640 4243 512 4250 
L 531 3699 
C 928 3763 2419 3846 3514 3866 
C 3514 3514 3520 3181 3526 3123 
L 3526 3078 
C 3366 3245 3117 3334 2816 3334 
C 2131 3334 1632 2874 1632 2246 
C 1632 1645 2093 1203 2720 1203 
C 3053 1203 3334 1318 3526 1536 
C 3597 1613 3635 1683 3699 1818 
C 3680 1562 3629 1376 3514 1171 
C 3238 672 2746 358 1920 134 
C 2074 -32 2118 -102 2246 -358 
C 2765 -166 3034 -32 3302 160 
C 3885 589 4179 1158 4179 1850 
C 4179 2157 4134 2368 4019 2643 
C 4019 3494 4019 3494 4019 3872 
C 4531 3878 4640 3878 4730 3878 
C 5434 3878 5664 3872 5907 3846 
L 5907 4384 
C 5696 4358 5210 4346 4013 4339 
C 4013 4883 4019 4979 4045 5178 
L 3469 5178 
C 3488 5043 3494 4979 3501 4806 
L 3507 4326 
z
M 2861 2906 
C 3059 2906 3238 2842 3366 2720 
C 3456 2630 3494 2534 3494 2381 
C 3494 1965 3200 1677 2784 1677 
C 2413 1677 2157 1926 2157 2285 
C 2157 2637 2458 2906 2861 2906 
z
" transform="scale(0.015625)"/>
      <path id="HiraginoSans-W4-ff09" d="M 890 -531 
C 1261 -83 1434 179 1626 589 
C 1901 1178 2035 1773 2035 2432 
C 2035 3091 1901 3686 1626 4275 
C 1434 4685 1261 4947 890 5395 
L 230 5395 
C 710 4890 909 4608 1120 4166 
C 1376 3629 1498 3072 1498 2432 
C 1498 1792 1376 1235 1120 698 
C 909 256 710 -26 230 -531 
L 890 -531 
z
" transform="scale(0.015625)"/>
     </defs>
     <use xlink:href="#HiraginoSans-W4-ff08"/>
     <use xlink:href="#HiraginoSans-W4-7279" transform="translate(99.999985 0)"/>
     <use xlink:href="#HiraginoSans-W4-5b9a" transform="translate(199.999969 0)"/>
     <use xlink:href="#HiraginoSans-W4-306e" transform="translate(299.999954 0)"/>
     <use xlink:href="#HiraginoSans-W4-96c6" transform="translate(399.999939 0)"/>
     <use xlink:href="#HiraginoSans-W4-5408" transform="translate(499.999924 0)"/>
     <use xlink:href="#HiraginoSans-W4-65cf" transform="translate(599.999908 0)"/>
     <use xlink:href="#HiraginoSans-W4-3092" transform="translate(699.999893 0)"/>
     <use xlink:href="#HiraginoSans-W4-901a" transform="translate(799.999878 0)"/>
     <use xlink:href="#HiraginoSans-W4-3059" transform="translate(899.999863 0)"/>
     <use xlink:href="#HiraginoSans-W4-ff09" transform="translate(999.999847 0)"/>
    </g>
   </g>
   <g id="patch_4">
    <path d="M 344.000034 165.822188 
Q 383.850209 165.822188 422.023334 165.822188 
" style="fill: none; stroke: #333333; stroke-width: 1.5; stroke-linecap: round"/>
    <path d="M 418.023334 163.822188 
L 422.023334 165.822188 
L 418.023334 167.822188 
z
" style="fill: #333333; stroke: #333333; stroke-width: 1.5; stroke-linecap: round"/>
   </g>
   <g id="text_9">
    <!-- 0 -->
    <g style="fill: #c00000" transform="translate(499.026875 173.98375) scale(0.28 -0.28)">
     <defs>
      <path id="HiraginoSans-W7-30" d="M 2368 -243 
C 3130 -243 3757 96 4122 698 
C 4358 1088 4512 1798 4512 2470 
C 4512 2995 4429 3494 4262 3942 
C 4173 4192 4019 4422 3821 4621 
C 3456 4986 2950 5178 2374 5178 
C 1613 5178 992 4845 627 4230 
C 384 3834 230 3136 230 2458 
C 230 1939 314 1440 480 992 
C 576 742 723 512 922 314 
C 1286 -51 1786 -243 2368 -243 
z
M 2374 4275 
C 3066 4275 3424 3654 3424 2445 
C 3424 1741 3277 1190 3008 915 
C 2848 749 2630 659 2374 659 
C 1677 659 1318 1286 1318 2502 
C 1318 3622 1709 4275 2374 4275 
z
" transform="scale(0.015625)"/>
     </defs>
     <use xlink:href="#HiraginoSans-W7-30"/>
    </g>
   </g>
   <g id="text_10">
    <!-- 収束先 -->
    <g style="fill: #c00000" transform="translate(495.9 199.086188) scale(0.09 -0.09)">
     <defs>
      <path id="HiraginoSans-W4-53ce" d="M 1190 4026 
C 1190 4307 1203 4493 1229 4710 
L 672 4710 
C 704 4480 717 4301 717 4026 
L 717 1261 
C 499 1203 448 1190 250 1152 
L 358 640 
C 480 685 499 691 634 736 
C 1235 947 1606 1094 2035 1280 
L 2035 218 
C 2035 -58 2022 -243 1990 -467 
L 2560 -467 
C 2534 -243 2522 -64 2522 218 
L 2522 4614 
C 2522 4896 2534 5075 2560 5306 
L 1990 5306 
C 2022 5075 2035 4890 2035 4614 
L 2035 1741 
C 1754 1619 1606 1555 1190 1414 
L 1190 4026 
z
M 3322 4909 
C 3072 4909 2918 4915 2733 4947 
L 2733 4422 
C 2854 4442 2938 4448 3142 4454 
C 3238 3642 3290 3366 3437 2848 
C 3610 2259 3814 1805 4115 1325 
C 3674 736 3174 294 2554 -64 
C 2733 -250 2797 -346 2867 -512 
C 3514 -83 3962 326 4410 909 
C 4512 774 4589 685 4698 563 
C 5114 128 5427 -134 5933 -480 
C 6048 -230 6093 -160 6221 6 
C 5542 429 5158 762 4710 1338 
C 5306 2291 5658 3334 5856 4762 
C 5875 4870 5875 4870 5882 4934 
C 5696 4915 5568 4909 5395 4909 
L 3322 4909 
z
M 5306 4454 
C 5139 3341 4870 2534 4410 1760 
C 4173 2150 4006 2547 3853 3091 
C 3725 3552 3686 3782 3616 4454 
L 5306 4454 
z
" transform="scale(0.015625)"/>
      <path id="HiraginoSans-W4-675f" d="M 2880 4250 
L 2880 3667 
L 1638 3667 
C 1299 3667 1082 3680 934 3699 
C 954 3507 960 3360 960 3021 
L 960 2451 
C 960 2093 954 1965 934 1779 
C 1101 1798 1306 1811 1670 1811 
L 2592 1811 
C 2131 1158 1229 538 205 160 
C 358 -6 410 -96 499 -282 
C 1088 -32 1562 243 2016 608 
C 2406 922 2605 1126 2899 1523 
C 2880 1165 2880 1165 2880 1050 
L 2880 186 
C 2880 -134 2867 -294 2835 -493 
L 3405 -493 
C 3366 -301 3360 -160 3360 186 
L 3360 1050 
C 3360 1152 3354 1261 3341 1530 
C 3699 1056 3936 832 4410 493 
C 4832 192 5286 -45 5901 -294 
C 5997 -90 6080 38 6195 179 
C 5075 518 4198 1075 3629 1811 
L 4717 1811 
C 5062 1811 5280 1798 5440 1779 
C 5421 1952 5414 2176 5414 2451 
L 5414 3034 
C 5414 3360 5421 3482 5440 3699 
C 5274 3674 5082 3667 4723 3667 
L 3360 3667 
L 3360 4250 
L 5395 4250 
C 5626 4250 5843 4237 6042 4211 
L 6042 4749 
C 5862 4717 5709 4704 5382 4704 
L 3360 4704 
L 3360 4736 
C 3360 4979 3373 5152 3405 5338 
L 2835 5338 
C 2867 5158 2880 4992 2880 4736 
L 2880 4704 
L 973 4704 
C 678 4704 512 4717 326 4749 
L 326 4211 
C 518 4237 730 4250 966 4250 
L 2880 4250 
z
M 2880 3232 
L 2880 2240 
L 1427 2240 
L 1427 3232 
L 2880 3232 
z
M 3360 3232 
L 4947 3232 
L 4947 2240 
L 3360 2240 
L 3360 3232 
z
" transform="scale(0.015625)"/>
      <path id="HiraginoSans-W4-5148" d="M 2957 3814 
L 2957 2746 
L 1075 2746 
C 781 2746 582 2758 403 2784 
L 403 2246 
C 595 2272 794 2285 1075 2285 
L 2189 2285 
C 2170 1997 2163 1875 2138 1741 
C 2067 1274 1907 928 1658 678 
C 1312 333 909 115 282 -83 
C 474 -326 506 -384 589 -550 
C 1261 -275 1600 -70 1965 282 
C 2445 749 2624 1248 2694 2285 
L 3584 2285 
L 3584 58 
C 3584 -314 3776 -410 4550 -410 
C 5408 -410 5651 -346 5811 -64 
C 5920 122 5978 416 6022 992 
C 5805 1050 5690 1094 5523 1184 
C 5523 691 5498 442 5421 269 
C 5344 96 5197 58 4653 58 
C 4160 58 4077 83 4077 243 
L 4077 2285 
L 5382 2285 
C 5670 2285 5862 2272 6061 2246 
L 6061 2784 
C 5882 2758 5683 2746 5382 2746 
L 3450 2746 
L 3450 3814 
L 4934 3814 
C 5203 3814 5389 3802 5568 3776 
L 5568 4307 
C 5395 4282 5210 4269 4934 4269 
L 3450 4269 
L 3450 4723 
C 3450 4966 3462 5126 3488 5312 
L 2918 5312 
C 2950 5101 2957 4960 2957 4723 
L 2957 4269 
L 1856 4269 
C 1946 4461 1978 4544 2074 4787 
C 2131 4947 2144 4979 2195 5088 
L 1664 5222 
C 1613 4934 1523 4672 1357 4339 
C 1114 3872 954 3667 525 3264 
C 691 3162 768 3098 922 2931 
C 1216 3238 1402 3475 1613 3814 
L 2957 3814 
z
" transform="scale(0.015625)"/>
     </defs>
     <use xlink:href="#HiraginoSans-W4-53ce"/>
     <use xlink:href="#HiraginoSans-W4-675f" transform="translate(99.999985 0)"/>
     <use xlink:href="#HiraginoSans-W4-5148" transform="translate(199.999969 0)"/>
    </g>
   </g>
   <g id="text_11">
    <!-- フィルターの望遠鏡比喩 -->
    <g transform="translate(214.7 17.222188) scale(0.13 -0.13)">
     <defs>
      <path id="HiraginoSans-W4-30d5" d="M 5222 4595 
C 5082 4550 5024 4544 4736 4544 
L 1690 4544 
C 1293 4544 1146 4550 896 4589 
L 896 3981 
C 1120 4013 1306 4019 1677 4019 
L 4838 4019 
C 4486 2643 3872 1728 2842 1043 
C 2362 723 1984 550 1408 371 
C 1613 173 1670 90 1792 -160 
C 2669 192 3226 531 3814 1069 
C 4589 1786 5082 2637 5414 3859 
C 5510 4198 5510 4198 5555 4282 
L 5222 4595 
z
" transform="scale(0.015625)"/>
      <path id="HiraginoSans-W4-30a3" d="M 4621 4000 
C 4525 3846 4454 3763 4256 3571 
C 3712 3034 3136 2618 2438 2253 
C 1939 1990 1542 1843 934 1683 
C 1082 1491 1126 1414 1210 1216 
C 1990 1466 2522 1702 3130 2080 
L 3130 269 
C 3130 -51 3123 -166 3098 -339 
L 3693 -339 
C 3667 -179 3661 -26 3661 275 
L 3661 2400 
C 4122 2746 4570 3136 4883 3469 
C 5011 3610 5011 3610 5088 3674 
L 4621 4000 
z
" transform="scale(0.015625)"/>
      <path id="HiraginoSans-W4-30eb" d="M 1664 4909 
C 1683 4755 1683 4717 1683 4403 
C 1683 3091 1600 2272 1402 1709 
C 1190 1107 864 653 346 243 
C 570 96 640 26 806 -186 
C 1376 365 1690 819 1907 1427 
C 2144 2074 2195 2541 2246 4314 
C 2259 4710 2259 4717 2285 4877 
L 1664 4909 
z
M 3277 4960 
C 3302 4832 3309 4685 3309 4435 
C 3309 4390 3309 4346 3309 4294 
L 3270 672 
C 3270 371 3264 288 3226 166 
L 3526 -166 
C 3584 -134 3603 -128 3680 -96 
C 3744 -70 3808 -45 3885 -19 
C 4256 128 4512 256 4787 442 
C 5357 826 5779 1363 6106 2118 
C 5901 2291 5837 2355 5683 2560 
C 5530 2074 5299 1670 4960 1312 
C 4646 973 4339 774 3834 570 
L 3866 4288 
C 3872 4666 3878 4768 3910 4954 
L 3277 4960 
z
" transform="scale(0.015625)"/>
      <path id="HiraginoSans-W4-30bf" d="M 2650 5299 
C 2592 5069 2470 4787 2272 4422 
C 1862 3693 1344 3110 646 2598 
C 864 2470 941 2413 1094 2234 
C 1728 2746 2176 3245 2611 3930 
L 4774 3955 
C 4563 3309 4288 2746 3942 2208 
C 3424 2630 3098 2854 2560 3162 
L 2208 2771 
C 2707 2496 3149 2176 3610 1766 
C 3290 1376 3008 1120 2522 787 
C 2099 506 1760 326 1216 109 
C 1395 -51 1459 -128 1594 -365 
C 2938 262 3802 973 4448 1984 
C 4736 2438 5069 3130 5299 3750 
C 5402 4045 5414 4064 5485 4173 
L 5158 4499 
C 5043 4454 4922 4435 4736 4435 
C 2944 4416 2944 4416 2848 4397 
C 2899 4486 2963 4595 3034 4736 
C 3174 5030 3174 5030 3245 5146 
L 2650 5299 
z
" transform="scale(0.015625)"/>
      <path id="HiraginoSans-W4-30fc" d="M 531 2131 
C 755 2157 915 2163 1421 2163 
L 5005 2163 
C 5446 2163 5632 2157 5875 2131 
L 5875 2765 
C 5651 2733 5523 2726 5011 2726 
L 1414 2726 
C 973 2726 736 2739 531 2765 
L 531 2131 
z
" transform="scale(0.015625)"/>
      <path id="HiraginoSans-W4-671b" d="M 5363 3187 
C 5286 2758 5248 2707 4966 2707 
C 4794 2707 4595 2726 4346 2771 
C 4416 2605 4442 2490 4454 2323 
C 4678 2310 4832 2304 4960 2304 
C 5261 2304 5402 2330 5510 2413 
C 5651 2515 5734 2714 5798 3072 
C 5862 3450 5933 4269 5952 4774 
C 5958 5030 5965 5069 5978 5184 
C 5830 5165 5606 5158 5325 5158 
L 4192 5158 
C 3917 5158 3693 5171 3546 5184 
C 3558 5094 3571 4954 3571 4858 
C 3571 4326 3501 3834 3366 3456 
C 3213 3008 3040 2752 2694 2438 
C 2886 2342 2976 2272 3091 2144 
C 3411 2464 3578 2733 3750 3187 
L 5363 3187 
z
M 5453 3949 
C 5434 3763 5434 3738 5414 3558 
L 3866 3558 
C 3904 3725 3917 3789 3942 3949 
L 5453 3949 
z
M 5472 4326 
L 3994 4326 
C 4006 4493 4006 4538 4013 4742 
L 5498 4742 
L 5472 4326 
z
M 2067 4749 
L 2067 4877 
C 2067 5082 2074 5203 2099 5370 
L 1562 5370 
C 1587 5222 1594 5069 1594 4870 
L 1594 4749 
L 954 4749 
C 678 4749 538 4755 378 4781 
L 378 4294 
C 506 4314 627 4326 851 4326 
L 851 3123 
C 851 2752 1062 2650 1850 2650 
C 2214 2650 2560 2662 2886 2694 
L 2880 3155 
C 2579 3110 2272 3091 1939 3091 
C 1408 3091 1318 3117 1318 3283 
L 1318 4326 
L 2611 4326 
C 2867 4326 3027 4320 3187 4294 
L 3187 4781 
C 3021 4755 2886 4749 2611 4749 
L 2067 4749 
z
M 2899 1664 
L 2899 1152 
L 1760 1152 
C 1408 1152 1280 1158 1088 1190 
L 1088 717 
C 1286 742 1459 749 1760 749 
L 2899 749 
L 2899 160 
L 1069 160 
C 730 160 544 166 358 192 
L 358 -294 
C 602 -269 838 -256 1101 -256 
L 5280 -256 
C 5562 -256 5811 -269 6035 -294 
L 6035 192 
C 5869 173 5651 160 5318 160 
L 3379 160 
L 3379 749 
L 4659 749 
C 4954 749 5120 742 5318 717 
L 5318 1190 
C 5114 1158 5018 1152 4659 1152 
L 3379 1152 
L 3379 1664 
L 5018 1664 
C 5344 1664 5523 1658 5715 1626 
L 5715 2106 
C 5536 2074 5370 2067 5018 2067 
L 1389 2067 
C 1030 2067 858 2074 678 2106 
L 678 1626 
C 851 1658 1005 1664 1389 1664 
L 2899 1664 
z
" transform="scale(0.015625)"/>
      <path id="HiraginoSans-W4-9060" d="M 5510 2061 
L 5574 2061 
C 5562 2182 5555 2317 5555 2464 
L 5555 2899 
C 5555 3053 5562 3174 5581 3302 
C 5472 3283 5325 3277 5120 3277 
L 2739 3277 
C 2534 3277 2381 3283 2278 3302 
C 2298 3187 2304 3066 2304 2899 
L 2304 2470 
C 2304 2266 2298 2157 2285 2061 
C 2445 2067 2592 2074 2746 2074 
L 3386 2074 
C 3194 1907 3123 1856 2995 1766 
C 2605 1498 2291 1344 1792 1184 
C 1933 1030 1978 966 2067 787 
C 2771 1094 3098 1312 3571 1773 
C 3552 1651 3546 1517 3546 1312 
L 3546 922 
C 3546 653 3533 493 3514 352 
L 4026 352 
C 4000 480 3994 646 3994 928 
L 3994 1286 
C 3994 1440 3987 1542 3962 1747 
C 4198 1434 4339 1299 4614 1101 
C 4992 819 5299 672 5875 480 
C 5939 659 5997 755 6112 915 
C 5619 1043 5421 1114 5062 1306 
C 5312 1478 5510 1626 5651 1747 
C 5728 1811 5779 1856 5811 1882 
L 5510 2061 
z
M 5133 2074 
C 5222 2074 5299 2074 5395 2067 
C 5299 1933 5043 1715 4736 1504 
C 4454 1696 4352 1786 4096 2074 
L 5133 2074 
z
M 2765 2899 
L 5101 2899 
L 5101 2445 
L 2765 2445 
L 2765 2899 
z
M 4096 4045 
L 4096 4493 
L 5107 4493 
C 5350 4493 5523 4486 5709 4461 
L 5709 4934 
C 5530 4909 5338 4896 5088 4896 
L 4096 4896 
C 4096 5114 4109 5235 4134 5344 
L 3603 5344 
C 3622 5229 3635 5101 3642 4896 
L 2810 4896 
C 2502 4896 2349 4902 2182 4934 
L 2182 4461 
C 2342 4486 2502 4493 2784 4493 
L 3642 4493 
L 3642 4045 
L 2470 4045 
C 2170 4045 2016 4051 1862 4083 
L 1862 3616 
C 2022 3642 2195 3648 2477 3648 
L 5408 3648 
C 5683 3648 5856 3642 6022 3616 
L 6022 4083 
C 5862 4051 5709 4045 5408 4045 
L 4096 4045 
z
M 365 4902 
C 774 4518 1005 4256 1350 3763 
L 1734 4115 
C 1350 4602 1120 4858 723 5216 
L 365 4902 
z
M 339 2362 
C 499 2387 589 2394 794 2394 
L 1197 2394 
L 1197 896 
C 826 538 506 307 198 160 
L 442 -346 
C 525 -269 576 -224 659 -160 
C 979 83 1139 224 1414 499 
C 1645 173 1818 19 2125 -109 
C 2496 -269 2829 -301 3949 -301 
C 4678 -301 5478 -288 6080 -256 
C 6125 0 6138 51 6240 282 
C 5510 192 4755 160 3501 160 
C 2701 160 2330 237 1984 486 
C 1856 576 1773 678 1670 883 
L 1670 2221 
C 1670 2534 1677 2675 1696 2861 
C 1536 2835 1402 2829 1210 2829 
L 838 2829 
C 589 2829 493 2835 339 2861 
L 339 2362 
z
" transform="scale(0.015625)"/>
      <path id="HiraginoSans-W4-93e1" d="M 1338 3328 
L 1338 2752 
L 992 2752 
C 736 2752 544 2765 390 2784 
L 390 2317 
C 563 2342 730 2349 986 2349 
L 1338 2349 
L 1338 454 
C 838 326 576 275 333 256 
L 435 -256 
C 538 -218 621 -192 736 -160 
C 1555 58 1984 198 2656 467 
L 2656 890 
C 2259 736 2099 685 1766 582 
L 1766 2349 
L 2048 2349 
C 2310 2349 2432 2342 2605 2317 
L 2605 2784 
C 2438 2758 2285 2752 2048 2752 
L 1766 2752 
L 1766 3328 
L 1965 3328 
C 2144 3328 2253 3322 2374 3309 
L 2374 3750 
C 2266 3731 2150 3725 1965 3725 
L 1229 3725 
C 1088 3725 992 3731 870 3744 
C 1216 4128 1402 4410 1619 4877 
C 1862 4397 2029 4166 2400 3802 
C 2483 3949 2560 4051 2694 4192 
C 2278 4518 2086 4774 1862 5261 
L 1338 5261 
C 1133 4666 800 4211 237 3763 
C 390 3590 397 3578 493 3366 
C 634 3494 691 3546 813 3680 
L 813 3302 
C 941 3322 1062 3328 1216 3328 
L 1338 3328 
z
M 3514 1171 
C 3462 710 3277 442 2842 186 
C 2630 64 2458 -6 2099 -109 
C 2240 -250 2310 -346 2387 -518 
C 2989 -307 3373 -64 3635 275 
C 3827 525 3898 717 3962 1171 
L 4435 1171 
L 4435 -6 
C 4435 -314 4589 -384 5274 -384 
C 6086 -384 6150 -314 6227 653 
C 6061 691 5946 742 5786 838 
C 5779 454 5754 224 5696 141 
C 5651 77 5555 58 5248 58 
C 4941 58 4890 77 4890 192 
L 4890 1171 
L 5222 1171 
C 5440 1171 5587 1165 5747 1152 
C 5728 1280 5722 1389 5722 1645 
L 5722 2650 
C 5722 2906 5728 2989 5747 3123 
C 5574 3110 5414 3104 5146 3104 
L 3488 3104 
C 3213 3104 3072 3110 2867 3123 
C 2886 2995 2893 2854 2893 2624 
L 2893 1600 
C 2893 1363 2886 1274 2874 1152 
C 3078 1165 3219 1171 3418 1171 
L 3514 1171 
z
M 3328 2733 
L 5286 2733 
L 5286 2336 
L 3328 2336 
L 3328 2733 
z
M 3328 1965 
L 5286 1965 
L 5286 1530 
L 3328 1530 
L 3328 1965 
z
M 4499 4819 
L 4499 4941 
C 4499 5120 4506 5216 4525 5350 
L 4000 5350 
C 4019 5222 4032 5107 4032 4941 
L 4032 4819 
L 3360 4819 
C 3078 4819 2886 4832 2707 4851 
L 2707 4422 
C 2848 4442 2982 4448 3206 4448 
C 3302 4256 3366 4096 3443 3846 
L 3162 3846 
C 2886 3846 2688 3853 2547 3872 
L 2547 3430 
C 2739 3450 2918 3456 3181 3456 
L 5472 3456 
C 5773 3456 5939 3450 6144 3424 
L 6144 3878 
C 5958 3853 5830 3846 5504 3846 
L 5139 3846 
C 5254 4070 5312 4192 5414 4448 
C 5670 4448 5805 4442 5990 4422 
L 5990 4851 
C 5818 4832 5619 4819 5331 4819 
L 4499 4819 
z
M 3891 3846 
C 3814 4083 3776 4186 3661 4448 
L 4941 4448 
C 4870 4224 4800 4070 4685 3846 
L 3891 3846 
z
M 1114 749 
C 1030 1286 966 1587 826 2042 
L 467 1914 
C 614 1427 685 1088 736 614 
L 1114 749 
z
M 2285 870 
C 2419 1242 2502 1536 2586 1946 
L 2214 2067 
C 2163 1619 2099 1350 1965 966 
L 2285 870 
z
" transform="scale(0.015625)"/>
      <path id="HiraginoSans-W4-6bd4" d="M 1574 2854 
L 2592 2854 
C 2867 2854 3027 2842 3181 2816 
L 3181 3360 
C 3021 3328 2880 3322 2592 3322 
L 1574 3322 
L 1574 4518 
C 1574 4819 1587 5005 1613 5184 
L 1030 5184 
C 1056 4979 1069 4819 1069 4518 
L 1069 288 
C 691 186 557 154 294 128 
L 442 -422 
C 538 -384 640 -352 794 -307 
C 1702 -38 2419 211 3174 531 
L 3168 1005 
C 2464 723 2438 710 1574 442 
L 1574 2854 
z
M 3981 2374 
C 4710 2778 5344 3206 5798 3622 
C 5869 3686 5952 3757 6029 3821 
L 5651 4237 
C 5357 3814 4813 3386 3981 2899 
L 3981 4512 
C 3981 4806 3994 4992 4019 5178 
L 3443 5178 
C 3469 5005 3482 4845 3482 4512 
L 3482 218 
C 3482 -243 3667 -333 4646 -333 
C 5389 -333 5658 -275 5805 -96 
C 5965 96 6035 454 6086 1280 
C 5894 1338 5786 1389 5600 1498 
C 5594 749 5549 390 5453 262 
C 5376 166 5203 141 4653 141 
C 4077 141 3981 166 3981 326 
L 3981 2374 
z
" transform="scale(0.015625)"/>
      <path id="HiraginoSans-W4-55a9" d="M 3168 3494 
C 3270 3514 3373 3520 3546 3520 
L 4442 3520 
C 4621 3520 4742 3514 4883 3494 
L 4883 3936 
C 4755 3917 4640 3910 4454 3910 
L 3539 3910 
C 3392 3910 3290 3917 3174 3936 
C 3533 4237 3750 4461 4032 4826 
C 4595 4090 5184 3635 6106 3213 
C 6170 3366 6266 3546 6355 3680 
C 5734 3891 5280 4160 4806 4582 
C 4531 4832 4346 5069 4269 5261 
C 4179 5254 4000 5248 3814 5248 
L 3174 5248 
C 2963 5248 2790 5254 2630 5280 
L 2630 4826 
C 2752 4838 2938 4851 3066 4851 
L 3526 4851 
C 3110 4352 2598 3987 1869 3654 
C 1984 3533 2061 3418 2144 3251 
C 2611 3507 2842 3661 3168 3923 
L 3168 3494 
z
M 1843 634 
C 1830 749 1830 845 1830 1120 
L 1830 4224 
C 1830 4544 1830 4646 1843 4755 
C 1722 4742 1587 4736 1440 4736 
L 787 4736 
C 589 4736 506 4742 390 4755 
C 403 4602 410 4493 410 4243 
L 410 1082 
C 410 826 397 557 371 358 
L 851 358 
L 851 1018 
L 1395 1018 
L 1395 634 
L 1843 634 
z
M 851 4307 
L 1395 4307 
L 1395 1446 
L 851 1446 
L 851 4307 
z
M 2240 154 
C 2240 -109 2227 -301 2202 -480 
L 2701 -480 
C 2682 -314 2669 -102 2669 141 
L 2669 2733 
L 3558 2733 
L 3558 141 
C 3558 26 3526 0 3373 0 
C 3251 0 3130 13 2989 32 
C 3046 -192 3053 -224 3066 -397 
C 3155 -397 3290 -403 3379 -403 
C 3635 -403 3738 -384 3827 -320 
C 3923 -250 3968 -141 3968 51 
L 3968 2547 
C 3968 2842 3968 2963 3987 3142 
C 3853 3123 3731 3117 3430 3117 
L 2701 3117 
C 2458 3117 2342 3123 2214 3136 
C 2234 2976 2240 2816 2240 2573 
L 2240 154 
z
M 3546 1978 
C 3309 2170 3174 2266 2906 2438 
L 2688 2125 
C 2931 1990 3091 1869 3328 1658 
L 3546 1978 
z
M 5190 -243 
C 4941 538 4768 954 4461 1536 
C 4640 1875 4768 2214 4941 2778 
C 4992 2931 4998 2963 5024 3021 
L 4557 3174 
C 4518 2688 4314 2067 4006 1523 
C 4371 928 4531 506 4762 -448 
L 5190 -243 
z
M 3533 1011 
C 3309 1197 3155 1312 2899 1485 
L 2688 1178 
C 2938 1018 3085 896 3302 672 
L 3533 1011 
z
M 5491 3174 
C 5440 2810 5203 2208 4870 1594 
C 5261 992 5498 486 5805 -346 
L 6221 -96 
C 5901 614 5670 1062 5325 1600 
C 5562 2054 5664 2285 5843 2739 
C 5933 2950 5933 2950 5946 2982 
L 5491 3174 
z
" transform="scale(0.015625)"/>
     </defs>
     <use xlink:href="#HiraginoSans-W4-30d5"/>
     <use xlink:href="#HiraginoSans-W4-30a3" transform="translate(99.999985 0)"/>
     <use xlink:href="#HiraginoSans-W4-30eb" transform="translate(199.999969 0)"/>
     <use xlink:href="#HiraginoSans-W4-30bf" transform="translate(299.999954 0)"/>
     <use xlink:href="#HiraginoSans-W4-30fc" transform="translate(399.999939 0)"/>
     <use xlink:href="#HiraginoSans-W4-306e" transform="translate(499.999924 0)"/>
     <use xlink:href="#HiraginoSans-W4-671b" transform="translate(599.999908 0)"/>
     <use xlink:href="#HiraginoSans-W4-9060" transform="translate(699.999893 0)"/>
     <use xlink:href="#HiraginoSans-W4-93e1" transform="translate(799.999878 0)"/>
     <use xlink:href="#HiraginoSans-W4-6bd4" transform="translate(899.999863 0)"/>
     <use xlink:href="#HiraginoSans-W4-55a9" transform="translate(999.999847 0)"/>
    </g>
   </g>
  </g>
 </g>
 <defs>
  <clipPath id="pba498cefc8">
   <rect x="7.2" y="27.222188" width="558" height="221.76"/>
  </clipPath>
 </defs>
</svg>
