<?xml version="1.0" encoding="utf-8" standalone="no"?>
<!DOCTYPE svg PUBLIC "-//W3C//DTD SVG 1.1//EN"
  "http://www.w3.org/Graphics/SVG/1.1/DTD/svg11.dtd">
<svg xmlns:xlink="http://www.w3.org/1999/xlink" width="460.8pt" height="534.462812pt" viewBox="0 0 460.8 534.462812" xmlns="http://www.w3.org/2000/svg" version="1.1">
 <metadata>
  <rdf:RDF xmlns:dc="http://purl.org/dc/elements/1.1/" xmlns:cc="http://creativecommons.org/ns#" xmlns:rdf="http://www.w3.org/1999/02/22-rdf-syntax-ns#">
   <cc:Work>
    <dc:type rdf:resource="http://purl.org/dc/dcmitype/StillImage"/>
    <dc:date>2026-04-02T01:10:16.538322</dc:date>
    <dc:format>image/svg+xml</dc:format>
    <dc:creator>
     <cc:Agent>
      <dc:title>Matplotlib v3.10.8, https://matplotlib.org/</dc:title>
     </cc:Agent>
    </dc:creator>
   </cc:Work>
  </rdf:RDF>
 </metadata>
 <defs>
  <style type="text/css">*{stroke-linejoin: round; stroke-linecap: butt}</style>
 </defs>
 <g id="figure_1">
  <g id="patch_1">
   <path d="M 0 534.462812 
L 460.8 534.462812 
L 460.8 0 
L 0 0 
z
" style="fill: #ffffff"/>
  </g>
  <g id="axes_1">
   <g id="patch_2">
    <path d="M 96.48 153.042812 
L 364.32 153.042812 
Q 371.016 153.042812 371.016 145.558412 
L 371.016 60.735212 
Q 371.016 53.250812 364.32 53.250812 
L 96.48 53.250812 
Q 89.784 53.250812 89.784 60.735212 
L 89.784 145.558412 
Q 89.784 153.042812 96.48 153.042812 
z
" clip-path="url(#pa040b3224e)" style="fill: #ead1f5; stroke: #7030a0; stroke-width: 2; stroke-linejoin: miter"/>
   </g>
   <g id="patch_3">
    <path d="M 96.48 262.814012 
L 364.32 262.814012 
Q 371.016 262.814012 371.016 255.329612 
L 371.016 170.506412 
Q 371.016 163.022012 364.32 163.022012 
L 96.48 163.022012 
Q 89.784 163.022012 89.784 170.506412 
L 89.784 255.329612 
Q 89.784 262.814012 96.48 262.814012 
z
" clip-path="url(#pa040b3224e)" style="fill: #e2efda; stroke: #538135; stroke-width: 2; stroke-linejoin: miter"/>
   </g>
   <g id="patch_4">
    <path d="M 96.48 372.585212 
L 364.32 372.585212 
Q 371.016 372.585212 371.016 365.100812 
L 371.016 280.277612 
Q 371.016 272.793212 364.32 272.793212 
L 96.48 272.793212 
Q 89.784 272.793212 89.784 280.277612 
L 89.784 365.100812 
Q 89.784 372.585212 96.48 372.585212 
z
" clip-path="url(#pa040b3224e)" style="fill: #deeaf1; stroke: #2e75b6; stroke-width: 2; stroke-linejoin: miter"/>
   </g>
   <g id="patch_5">
    <path d="M 96.48 482.356412 
L 364.32 482.356412 
Q 371.016 482.356412 371.016 474.872012 
L 371.016 390.048812 
Q 371.016 382.564412 364.32 382.564412 
L 96.48 382.564412 
Q 89.784 382.564412 89.784 390.048812 
L 89.784 474.872012 
Q 89.784 482.356412 96.48 482.356412 
z
" clip-path="url(#pa040b3224e)" style="fill: #ffcccc; stroke: #c00000; stroke-width: 2; stroke-linejoin: miter"/>
   </g>
   <g id="text_1">
    <!-- TopologicalSpace -->
    <g style="fill: #7030a0" transform="translate(175.973203 92.481089) scale(0.11 -0.11)">
     <defs>
      <path id="HiraginoSans-W7-54" d="M 2899 4128 
L 3667 4128 
C 4128 4128 4371 4115 4634 4083 
L 4634 5114 
C 4371 5082 4115 5069 3667 5069 
L 1005 5069 
C 634 5069 352 5082 96 5114 
L 96 4083 
C 352 4115 627 4128 1011 4128 
L 1824 4128 
L 1824 762 
C 1824 390 1811 141 1773 -134 
L 2950 -134 
C 2912 141 2899 397 2899 762 
L 2899 4128 
z
" transform="scale(0.015625)"/>
      <path id="HiraginoSans-W7-6f" d="M 2208 -262 
C 3418 -262 4211 544 4211 1773 
C 4211 3002 3437 3782 2214 3782 
C 992 3782 211 2995 211 1760 
C 211 525 986 -262 2208 -262 
z
M 2221 2976 
C 2835 2976 3194 2522 3194 1754 
C 3194 1005 2829 557 2214 557 
C 1600 557 1229 1018 1229 1773 
C 1229 2522 1606 2976 2221 2976 
z
" transform="scale(0.015625)"/>
      <path id="HiraginoSans-W7-70" d="M 1466 -1338 
C 1434 -1062 1421 -832 1421 -410 
L 1421 6 
C 1421 102 1414 134 1408 179 
C 1408 275 1408 275 1402 346 
C 1562 179 1664 102 1830 19 
C 2080 -96 2400 -166 2714 -166 
C 3226 -166 3667 0 3981 314 
C 4333 659 4512 1171 4512 1818 
C 4512 2458 4339 2950 4000 3283 
C 3686 3597 3258 3757 2720 3757 
C 2176 3757 1779 3603 1402 3245 
C 1408 3309 1414 3379 1414 3437 
L 1414 3654 
L 371 3654 
C 410 3360 422 3123 422 2726 
L 422 -416 
C 422 -787 403 -1050 371 -1338 
L 1466 -1338 
z
M 2502 646 
C 1882 646 1440 1126 1440 1798 
C 1440 2451 1888 2938 2502 2938 
C 3110 2938 3482 2515 3482 1818 
C 3482 1088 3110 646 2502 646 
z
" transform="scale(0.015625)"/>
      <path id="HiraginoSans-W7-6c" d="M 371 5069 
C 410 4819 422 4589 422 4173 
L 422 762 
C 422 339 410 147 371 -134 
L 1491 -134 
C 1459 166 1446 397 1446 762 
L 1446 4173 
C 1446 4582 1459 4813 1491 5069 
L 371 5069 
z
" transform="scale(0.015625)"/>
      <path id="HiraginoSans-W7-67" d="M 294 -659 
C 736 -1152 1229 -1344 2035 -1344 
C 2701 -1344 3258 -1197 3590 -928 
C 3974 -614 4147 -134 4147 640 
L 4147 2810 
C 4147 3174 4160 3366 4198 3654 
L 3155 3654 
L 3155 3443 
C 3155 3373 3155 3328 3162 3277 
C 2867 3590 2496 3731 1965 3731 
C 1549 3731 1203 3622 902 3405 
C 442 3066 205 2547 205 1882 
C 205 768 877 58 1926 58 
C 2464 58 2854 218 3162 563 
C 3136 128 3091 -58 2963 -243 
C 2803 -467 2470 -595 2048 -595 
C 1626 -595 1299 -442 1069 -141 
L 294 -659 
z
M 1229 1882 
C 1229 2534 1587 2963 2138 2963 
C 2707 2963 3123 2515 3123 1901 
C 3123 1498 2957 1171 2656 992 
C 2496 890 2285 832 2106 832 
C 1888 832 1651 928 1504 1075 
C 1318 1261 1229 1530 1229 1882 
z
" transform="scale(0.015625)"/>
      <path id="HiraginoSans-W7-69" d="M 384 5069 
L 384 4186 
L 1498 4186 
L 1498 5069 
L 384 5069 
z
M 371 3654 
C 410 3392 422 3149 422 2758 
L 422 762 
C 422 384 410 186 371 -134 
L 1504 -134 
C 1466 134 1453 390 1453 768 
L 1453 2752 
C 1453 3174 1466 3411 1504 3654 
L 371 3654 
z
" transform="scale(0.015625)"/>
      <path id="HiraginoSans-W7-63" d="M 3917 2541 
C 3840 2765 3789 2886 3693 3034 
C 3373 3526 2835 3789 2150 3789 
C 1587 3789 1114 3610 774 3270 
C 416 2912 211 2368 211 1760 
C 211 1152 410 602 762 243 
C 1088 -90 1581 -269 2150 -269 
C 2835 -269 3360 -32 3686 429 
C 3808 602 3878 755 3962 1011 
L 2989 1184 
C 2950 1030 2925 954 2861 870 
C 2720 659 2477 544 2189 544 
C 1606 544 1242 1018 1242 1773 
C 1242 2528 1587 2982 2170 2982 
C 2426 2982 2630 2893 2778 2707 
C 2854 2611 2893 2528 2950 2330 
L 3917 2541 
z
" transform="scale(0.015625)"/>
      <path id="HiraginoSans-W7-61" d="M 2842 -134 
L 3878 -134 
C 3846 154 3834 346 3834 717 
L 3834 2451 
C 3834 2912 3750 3162 3533 3366 
C 3251 3635 2822 3763 2195 3763 
C 1594 3763 1133 3642 813 3392 
C 589 3219 467 3046 333 2675 
L 1344 2509 
C 1414 2688 1472 2778 1587 2861 
C 1709 2950 1939 3008 2189 3008 
C 2624 3008 2842 2854 2842 2541 
L 2842 2285 
C 2029 2259 1837 2240 1466 2163 
C 672 1984 237 1549 237 928 
C 237 589 365 294 602 96 
C 832 -109 1158 -205 1613 -205 
C 2131 -205 2458 -96 2842 198 
L 2842 -134 
z
M 2842 1357 
C 2842 1133 2765 973 2579 813 
C 2381 646 2067 538 1792 538 
C 1446 538 1254 685 1254 954 
C 1254 1197 1408 1370 1702 1459 
C 1990 1549 2259 1581 2842 1600 
L 2842 1357 
z
" transform="scale(0.015625)"/>
      <path id="HiraginoSans-W7-53" d="M 269 1414 
C 339 915 429 672 640 410 
C 979 -19 1600 -250 2426 -250 
C 3706 -250 4435 346 4435 1389 
C 4435 1696 4371 1952 4243 2163 
C 4096 2406 3859 2605 3597 2720 
C 3341 2835 3034 2918 2336 3066 
C 2003 3142 1875 3187 1734 3277 
C 1594 3379 1517 3520 1517 3693 
C 1517 4058 1850 4301 2349 4301 
C 2656 4301 2912 4205 3059 4032 
C 3149 3917 3194 3821 3226 3622 
L 4352 3744 
C 4269 4122 4186 4307 4026 4525 
C 3693 4960 3117 5190 2355 5190 
C 1171 5190 422 4595 422 3654 
C 422 3181 614 2790 973 2522 
C 1216 2349 1427 2266 1971 2138 
C 2669 1978 2867 1914 3066 1786 
C 3232 1683 3315 1523 3315 1325 
C 3315 915 2963 659 2406 659 
C 2029 659 1728 781 1555 1005 
C 1446 1139 1408 1261 1382 1523 
L 269 1414 
z
" transform="scale(0.015625)"/>
      <path id="HiraginoSans-W7-65" d="M 4032 1485 
C 4019 1606 4019 1613 4019 1638 
C 3994 2118 3962 2323 3846 2637 
C 3571 3373 2963 3782 2125 3782 
C 973 3782 211 2976 211 1760 
C 211 1139 410 595 774 237 
C 1107 -96 1587 -269 2163 -269 
C 2746 -269 3232 -90 3571 250 
C 3744 416 3840 563 3981 870 
L 3053 1146 
C 2918 755 2611 544 2163 544 
C 1856 544 1606 653 1434 864 
C 1306 1024 1248 1184 1216 1485 
L 4032 1485 
z
M 1235 2227 
C 1357 2726 1664 2982 2138 2982 
C 2432 2982 2675 2874 2829 2675 
C 2925 2547 2970 2432 3008 2227 
L 1235 2227 
z
" transform="scale(0.015625)"/>
     </defs>
     <use xlink:href="#HiraginoSans-W7-54"/>
     <use xlink:href="#HiraginoSans-W7-6f" transform="translate(73.899994 0)"/>
     <use xlink:href="#HiraginoSans-W7-70" transform="translate(142.999985 0)"/>
     <use xlink:href="#HiraginoSans-W7-6f" transform="translate(216.699966 0)"/>
     <use xlink:href="#HiraginoSans-W7-6c" transform="translate(285.799957 0)"/>
     <use xlink:href="#HiraginoSans-W7-6f" transform="translate(314.899948 0)"/>
     <use xlink:href="#HiraginoSans-W7-67" transform="translate(383.999939 0)"/>
     <use xlink:href="#HiraginoSans-W7-69" transform="translate(455.299927 0)"/>
     <use xlink:href="#HiraginoSans-W7-63" transform="translate(484.499924 0)"/>
     <use xlink:href="#HiraginoSans-W7-61" transform="translate(549.299911 0)"/>
     <use xlink:href="#HiraginoSans-W7-6c" transform="translate(615.699905 0)"/>
     <use xlink:href="#HiraginoSans-W7-53" transform="translate(644.799896 0)"/>
     <use xlink:href="#HiraginoSans-W7-70" transform="translate(718.599884 0)"/>
     <use xlink:href="#HiraginoSans-W7-61" transform="translate(792.299866 0)"/>
     <use xlink:href="#HiraginoSans-W7-63" transform="translate(858.69986 0)"/>
     <use xlink:href="#HiraginoSans-W7-65" transform="translate(923.499847 0)"/>
    </g>
   </g>
   <g id="text_2">
    <!-- （開集合・nhds） -->
    <g style="fill: #7030a0" transform="translate(192.226641 119.664411) scale(0.09 -0.09)">
     <defs>
      <path id="HiraginoSans-W4-ff08" d="M 6170 -531 
C 5690 -26 5491 256 5280 698 
C 5024 1235 4902 1805 4902 2432 
C 4902 3059 5024 3629 5280 4166 
C 5491 4608 5690 4890 6170 5395 
L 5517 5395 
C 5139 4947 4966 4685 4774 4275 
C 4499 3686 4365 3085 4365 2432 
C 4365 1779 4499 1178 4774 589 
C 4966 179 5139 -83 5517 -531 
L 6170 -531 
z
" transform="scale(0.015625)"/>
      <path id="HiraginoSans-W4-958b" d="M 2342 2349 
C 2342 2022 2336 1920 2317 1613 
L 2118 1613 
C 1811 1613 1651 1619 1485 1645 
L 1485 1197 
C 1658 1222 1818 1229 2118 1229 
L 2285 1229 
C 2208 659 2016 339 1510 -38 
C 1677 -134 1766 -211 1888 -352 
C 2426 115 2630 512 2714 1229 
L 3610 1229 
L 3610 256 
C 3610 -13 3603 -160 3578 -294 
L 4077 -294 
C 4051 -173 4045 -32 4045 250 
L 4045 1229 
L 4301 1229 
C 4589 1229 4755 1222 4928 1197 
L 4928 1645 
C 4762 1619 4602 1613 4301 1613 
L 4045 1613 
L 4045 2349 
L 4218 2349 
C 4493 2349 4672 2342 4832 2323 
L 4832 2758 
C 4646 2733 4506 2726 4205 2726 
L 2227 2726 
C 1926 2726 1792 2733 1606 2758 
L 1606 2323 
C 1766 2342 1946 2349 2221 2349 
L 2342 2349 
z
M 3610 2349 
L 3610 1613 
L 2752 1613 
C 2771 1933 2771 1990 2771 2349 
L 3610 2349 
z
M 1062 3174 
L 2278 3174 
C 2554 3174 2726 3168 2912 3155 
C 2899 3322 2893 3475 2893 3744 
L 2893 4582 
C 2893 4826 2899 5005 2912 5190 
C 2733 5171 2579 5165 2259 5165 
L 1229 5165 
C 902 5165 736 5171 563 5190 
C 582 4986 589 4800 589 4480 
L 589 275 
C 589 -90 576 -288 550 -467 
L 1101 -467 
C 1075 -301 1062 -90 1062 269 
L 1062 3174 
z
M 1062 4800 
L 2451 4800 
L 2451 4358 
L 1062 4358 
L 1062 4800 
z
M 1062 4000 
L 2451 4000 
L 2451 3539 
L 1062 3539 
L 1062 4000 
z
M 5830 4480 
C 5830 4774 5837 4960 5862 5190 
C 5683 5171 5523 5165 5190 5165 
L 4090 5165 
C 3763 5165 3610 5171 3437 5190 
C 3450 4986 3456 4813 3456 4582 
L 3456 3744 
C 3456 3482 3450 3322 3437 3155 
C 3616 3168 3814 3174 4070 3174 
L 5357 3174 
L 5357 250 
C 5357 102 5312 70 5126 70 
C 4954 70 4672 96 4435 134 
C 4518 -45 4544 -154 4570 -352 
C 4851 -365 5011 -371 5152 -371 
C 5677 -371 5830 -243 5830 211 
L 5830 4480 
z
M 3898 4800 
L 5357 4800 
L 5357 4358 
L 3898 4358 
L 3898 4800 
z
M 3898 4000 
L 5357 4000 
L 5357 3539 
L 3898 3539 
L 3898 4000 
z
" transform="scale(0.015625)"/>
      <path id="HiraginoSans-W4-96c6" d="M 3526 2778 
L 4864 2778 
C 5165 2778 5299 2771 5453 2746 
L 5453 3174 
C 5254 3149 5146 3142 4864 3142 
L 3526 3142 
L 3526 3565 
L 4864 3565 
C 5165 3565 5280 3558 5453 3533 
L 5453 3962 
C 5261 3936 5139 3930 4864 3930 
L 3526 3930 
L 3526 4352 
L 5190 4352 
C 5446 4352 5574 4346 5734 4326 
L 5734 4774 
C 5555 4749 5421 4742 5139 4742 
L 3584 4742 
C 3693 4890 3802 5056 3962 5338 
L 3450 5434 
C 3373 5184 3277 5005 3085 4742 
L 1766 4742 
C 1837 4832 1971 5030 2176 5338 
L 1645 5446 
C 1600 5306 1523 5158 1427 5005 
C 1094 4486 723 4109 205 3744 
C 339 3597 384 3539 486 3341 
C 781 3571 941 3725 1158 3974 
C 1139 3789 1133 3584 1133 3366 
L 1133 2374 
C 1133 2195 1126 2042 1114 1920 
C 1242 1933 1338 1933 1581 1933 
L 2950 1933 
L 2950 1498 
L 1069 1498 
C 704 1498 531 1504 365 1536 
L 365 1050 
C 576 1075 774 1088 1069 1088 
L 2554 1088 
C 2330 890 2093 730 1766 563 
C 1299 326 877 192 262 83 
C 403 -77 467 -186 550 -378 
C 1005 -262 1389 -122 1741 45 
C 2253 294 2598 531 2970 915 
C 2957 819 2950 557 2950 448 
L 2950 -19 
C 2950 -237 2938 -346 2912 -486 
L 3456 -486 
C 3424 -365 3418 -275 3418 -13 
L 3418 448 
C 3418 576 3411 678 3398 922 
C 3789 544 4051 358 4486 128 
C 4915 -96 5286 -243 5843 -403 
C 5946 -179 5990 -109 6125 64 
C 5197 250 4384 608 3802 1088 
L 5325 1088 
C 5626 1088 5830 1075 6048 1050 
L 6048 1536 
C 5875 1504 5696 1498 5325 1498 
L 3418 1498 
L 3418 1933 
L 5165 1933 
C 5453 1933 5581 1926 5760 1901 
L 5760 2336 
C 5587 2310 5446 2304 5165 2304 
L 3526 2304 
L 3526 2778 
z
M 3078 2778 
L 3078 2304 
L 1600 2304 
L 1600 2778 
L 3078 2778 
z
M 3078 3142 
L 1600 3142 
L 1600 3565 
L 3078 3565 
L 3078 3142 
z
M 3078 3930 
L 1600 3930 
L 1600 4352 
L 3078 4352 
L 3078 3930 
z
" transform="scale(0.015625)"/>
      <path id="HiraginoSans-W4-5408" d="M 1677 2899 
C 1824 2918 1990 2925 2189 2925 
L 4186 2925 
C 4429 2925 4595 2918 4736 2899 
L 4736 3411 
C 5178 3104 5498 2918 5958 2701 
C 6042 2899 6112 3014 6234 3187 
C 5626 3424 5056 3750 4518 4186 
C 4019 4582 3731 4890 3456 5318 
L 2893 5318 
C 2630 4883 2381 4595 1926 4211 
C 1402 3763 832 3424 198 3162 
C 358 2989 422 2893 493 2720 
C 966 2938 1203 3078 1677 3398 
L 1677 2899 
z
M 2195 3386 
C 1971 3386 1811 3392 1690 3411 
C 2355 3878 2733 4256 3187 4890 
C 3597 4320 4032 3898 4730 3411 
C 4595 3392 4435 3386 4186 3386 
L 2195 3386 
z
M 1690 -435 
L 1690 -77 
L 4698 -77 
L 4698 -435 
L 5242 -435 
C 5216 -243 5203 -58 5203 205 
L 5203 1645 
C 5203 1901 5210 2067 5235 2240 
C 5101 2221 4960 2214 4723 2214 
L 1664 2214 
C 1427 2214 1286 2221 1152 2240 
C 1178 2061 1184 1888 1184 1645 
L 1184 205 
C 1184 -51 1171 -230 1146 -435 
L 1690 -435 
z
M 1690 1766 
L 4698 1766 
L 4698 371 
L 1690 371 
L 1690 1766 
z
" transform="scale(0.015625)"/>
      <path id="HiraginoSans-W4-30fb" d="M 3206 3027 
C 2880 3027 2611 2758 2611 2432 
C 2611 2112 2880 1843 3206 1843 
C 3526 1843 3795 2112 3795 2438 
C 3795 2765 3533 3027 3206 3027 
z
" transform="scale(0.015625)"/>
      <path id="HiraginoSans-W4-6e" d="M 1114 0 
C 1082 256 1069 474 1069 755 
L 1069 2010 
C 1139 2272 1222 2426 1395 2630 
C 1658 2944 1933 3085 2266 3085 
C 2752 3085 3002 2797 3002 2234 
L 3002 755 
C 3002 454 2989 269 2957 0 
L 3629 0 
C 3597 218 3584 416 3584 749 
L 3584 2323 
C 3584 2662 3520 2912 3392 3110 
C 3181 3418 2816 3584 2349 3584 
C 1779 3584 1376 3360 1056 2867 
C 1069 3027 1069 3059 1069 3142 
L 1069 3520 
L 442 3520 
C 480 3264 493 3078 493 2765 
L 493 755 
C 493 429 480 256 442 0 
L 1114 0 
z
" transform="scale(0.015625)"/>
      <path id="HiraginoSans-W4-68" d="M 1107 0 
C 1075 256 1062 474 1062 755 
L 1062 2003 
C 1139 2272 1229 2438 1402 2643 
C 1645 2931 1933 3078 2259 3078 
C 2490 3078 2682 3002 2810 2861 
C 2931 2726 2995 2522 2995 2240 
L 2995 755 
C 2995 422 2982 224 2944 0 
L 3622 0 
C 3590 230 3578 448 3578 749 
L 3578 2362 
C 3578 3130 3123 3584 2355 3584 
C 1773 3584 1357 3347 1043 2854 
C 1056 3046 1062 3066 1062 3168 
L 1062 4173 
C 1062 4512 1069 4691 1107 4934 
L 442 4934 
C 480 4691 493 4512 493 4179 
L 493 755 
C 493 422 480 250 442 0 
L 1107 0 
z
" transform="scale(0.015625)"/>
      <path id="HiraginoSans-W4-64" d="M 3187 0 
L 3802 0 
C 3770 250 3757 442 3757 774 
L 3757 4173 
C 3757 4467 3770 4666 3802 4934 
L 3142 4934 
C 3174 4691 3187 4486 3187 4173 
L 3187 3398 
C 3187 3296 3187 3194 3194 3149 
C 3200 3040 3200 3040 3206 2970 
C 2918 3379 2470 3597 1901 3597 
C 909 3597 282 2886 282 1766 
C 282 1171 461 672 794 339 
C 1069 70 1446 -64 1914 -64 
C 2483 -64 2880 128 3206 563 
C 3200 480 3187 365 3187 288 
L 3187 0 
z
M 1971 3098 
C 2310 3098 2618 2976 2842 2752 
C 3059 2541 3181 2189 3181 1786 
C 3181 966 2707 429 1978 429 
C 1709 429 1459 512 1274 672 
C 1024 890 883 1280 883 1786 
C 883 2598 1293 3098 1971 3098 
z
" transform="scale(0.015625)"/>
      <path id="HiraginoSans-W4-73" d="M 262 973 
C 326 704 378 589 480 448 
C 730 109 1184 -70 1786 -70 
C 2707 -70 3270 339 3270 1011 
C 3270 1293 3136 1555 2912 1722 
C 2720 1862 2483 1946 1894 2074 
C 1510 2157 1357 2208 1210 2285 
C 1075 2355 998 2483 998 2624 
C 998 2944 1312 3162 1760 3162 
C 2042 3162 2259 3078 2400 2925 
C 2483 2835 2515 2758 2554 2598 
L 3155 2688 
C 3066 2982 2982 3136 2810 3283 
C 2573 3494 2208 3610 1754 3610 
C 1299 3610 941 3494 698 3258 
C 518 3091 416 2861 416 2618 
C 416 2310 557 2054 819 1888 
C 1043 1747 1261 1677 1760 1574 
C 2246 1466 2349 1440 2490 1350 
C 2618 1274 2682 1139 2682 973 
C 2682 621 2342 397 1818 397 
C 1504 397 1267 474 1107 614 
C 986 730 934 832 890 1069 
L 262 973 
z
" transform="scale(0.015625)"/>
      <path id="HiraginoSans-W4-ff09" d="M 890 -531 
C 1261 -83 1434 179 1626 589 
C 1901 1178 2035 1773 2035 2432 
C 2035 3091 1901 3686 1626 4275 
C 1434 4685 1261 4947 890 5395 
L 230 5395 
C 710 4890 909 4608 1120 4166 
C 1376 3629 1498 3072 1498 2432 
C 1498 1792 1376 1235 1120 698 
C 909 256 710 -26 230 -531 
L 890 -531 
z
" transform="scale(0.015625)"/>
     </defs>
     <use xlink:href="#HiraginoSans-W4-ff08"/>
     <use xlink:href="#HiraginoSans-W4-958b" transform="translate(99.999985 0)"/>
     <use xlink:href="#HiraginoSans-W4-96c6" transform="translate(199.999969 0)"/>
     <use xlink:href="#HiraginoSans-W4-5408" transform="translate(299.999954 0)"/>
     <use xlink:href="#HiraginoSans-W4-30fb" transform="translate(399.999939 0)"/>
     <use xlink:href="#HiraginoSans-W4-6e" transform="translate(499.999924 0)"/>
     <use xlink:href="#HiraginoSans-W4-68" transform="translate(563.399918 0)"/>
     <use xlink:href="#HiraginoSans-W4-64" transform="translate(626.699905 0)"/>
     <use xlink:href="#HiraginoSans-W4-73" transform="translate(692.999893 0)"/>
     <use xlink:href="#HiraginoSans-W4-ff09" transform="translate(748.299881 0)"/>
    </g>
   </g>
   <g id="text_3">
    <!-- UniformSpace -->
    <g style="fill: #538135" transform="translate(186.009844 202.257445) scale(0.11 -0.11)">
     <defs>
      <path id="HiraginoSans-W7-55" d="M 3910 5069 
C 3949 4813 3962 4595 3962 4147 
L 3962 1920 
C 3962 1549 3891 1267 3744 1069 
C 3552 806 3194 659 2746 659 
C 2310 659 1984 781 1779 1024 
C 1600 1242 1523 1517 1523 1920 
L 1523 4147 
C 1523 4589 1536 4845 1574 5069 
L 416 5069 
C 454 4832 467 4570 467 4147 
L 467 1920 
C 467 1248 640 736 986 358 
C 1350 -38 1971 -256 2733 -256 
C 4186 -256 5018 531 5018 1914 
L 5018 4154 
C 5018 4576 5030 4813 5069 5069 
L 3910 5069 
z
" transform="scale(0.015625)"/>
      <path id="HiraginoSans-W7-6e" d="M 1485 -134 
C 1446 179 1434 416 1434 762 
L 1434 2061 
C 1709 2541 2106 2835 2483 2835 
C 2637 2835 2765 2797 2861 2726 
C 3014 2611 3066 2464 3066 2131 
L 3066 762 
C 3066 403 3053 166 3014 -134 
L 4134 -134 
C 4096 128 4083 371 4083 762 
L 4083 2374 
C 4083 3245 3610 3731 2758 3731 
C 2214 3731 1811 3552 1414 3142 
C 1421 3264 1427 3347 1427 3398 
L 1427 3654 
L 371 3654 
C 410 3411 422 3168 422 2758 
L 422 762 
C 422 390 410 154 371 -134 
L 1485 -134 
z
" transform="scale(0.015625)"/>
      <path id="HiraginoSans-W7-66" d="M 928 2829 
L 928 762 
C 928 390 915 166 877 -134 
L 2003 -134 
C 1965 160 1952 358 1952 762 
L 1952 2829 
L 2259 2829 
C 2579 2829 2739 2816 2982 2784 
L 2982 3699 
C 2682 3667 2470 3654 2240 3654 
L 1952 3654 
L 1952 3866 
C 1952 4256 2074 4397 2413 4397 
C 2637 4397 2822 4352 3021 4243 
L 3206 5037 
C 2874 5133 2637 5165 2317 5165 
C 1376 5165 928 4781 928 3974 
L 928 3654 
L 672 3654 
C 448 3654 205 3674 58 3693 
L 58 2784 
C 262 2816 416 2829 672 2829 
L 928 2829 
z
" transform="scale(0.015625)"/>
      <path id="HiraginoSans-W7-72" d="M 3277 3654 
C 3002 3712 2867 3725 2675 3725 
C 2106 3725 1696 3533 1427 3130 
L 1427 3654 
L 371 3654 
C 410 3386 422 3187 422 2758 
L 422 762 
C 422 384 410 186 371 -134 
L 1472 -134 
C 1440 141 1427 378 1427 762 
L 1427 1869 
C 1459 2170 1517 2317 1651 2477 
C 1830 2682 2080 2778 2419 2778 
C 2624 2778 2746 2758 3014 2669 
L 3277 3654 
z
" transform="scale(0.015625)"/>
      <path id="HiraginoSans-W7-6d" d="M 1472 -134 
C 1440 166 1427 390 1427 762 
L 1427 2061 
C 1536 2323 1606 2438 1728 2566 
C 1901 2746 2118 2848 2330 2848 
C 2490 2848 2637 2784 2720 2669 
C 2810 2554 2848 2406 2848 2144 
L 2848 762 
C 2848 371 2835 141 2797 -134 
L 3910 -134 
C 3878 160 3866 390 3866 762 
L 3866 2061 
C 3962 2336 4032 2451 4166 2592 
C 4326 2765 4531 2854 4762 2854 
C 4947 2854 5101 2784 5184 2662 
C 5261 2547 5293 2413 5293 2144 
L 5293 762 
C 5293 358 5280 154 5242 -134 
L 6355 -134 
C 6323 147 6310 384 6310 762 
L 6310 2342 
C 6310 2784 6227 3078 6035 3315 
C 5811 3597 5446 3744 4986 3744 
C 4442 3744 4064 3571 3706 3162 
C 3616 3315 3558 3386 3469 3462 
C 3264 3648 2982 3744 2624 3744 
C 2106 3744 1754 3590 1414 3206 
C 1421 3232 1421 3232 1421 3296 
C 1421 3302 1421 3302 1427 3411 
L 1427 3654 
L 371 3654 
C 410 3418 422 3200 422 2758 
L 422 762 
C 422 390 410 147 371 -134 
L 1472 -134 
z
" transform="scale(0.015625)"/>
     </defs>
     <use xlink:href="#HiraginoSans-W7-55"/>
     <use xlink:href="#HiraginoSans-W7-6e" transform="translate(85.699982 0)"/>
     <use xlink:href="#HiraginoSans-W7-69" transform="translate(155.899963 0)"/>
     <use xlink:href="#HiraginoSans-W7-66" transform="translate(185.09996 0)"/>
     <use xlink:href="#HiraginoSans-W7-6f" transform="translate(235.999954 0)"/>
     <use xlink:href="#HiraginoSans-W7-72" transform="translate(305.099945 0)"/>
     <use xlink:href="#HiraginoSans-W7-6d" transform="translate(357.199936 0)"/>
     <use xlink:href="#HiraginoSans-W7-53" transform="translate(462.299927 0)"/>
     <use xlink:href="#HiraginoSans-W7-70" transform="translate(536.099915 0)"/>
     <use xlink:href="#HiraginoSans-W7-61" transform="translate(609.799896 0)"/>
     <use xlink:href="#HiraginoSans-W7-63" transform="translate(676.19989 0)"/>
     <use xlink:href="#HiraginoSans-W7-65" transform="translate(740.999878 0)"/>
    </g>
   </g>
   <g id="text_4">
    <!-- （一様連続性・Cauchy） -->
    <g style="fill: #538135" transform="translate(177.345 229.737252) scale(0.09 -0.09)">
     <defs>
      <path id="HiraginoSans-W4-4e00" d="M 6035 2835 
C 5824 2803 5549 2790 5158 2790 
L 1254 2790 
C 864 2790 595 2803 365 2835 
L 365 2202 
C 595 2234 896 2246 1254 2246 
L 5158 2246 
C 5549 2246 5786 2234 6035 2202 
L 6035 2835 
z
" transform="scale(0.015625)"/>
      <path id="HiraginoSans-W4-69d8" d="M 3770 2259 
L 3770 1408 
C 3168 998 2957 870 2496 653 
C 2259 531 2131 480 1939 429 
L 2150 -70 
C 2240 -6 2330 51 2432 109 
C 3162 506 3168 512 3770 941 
L 3770 115 
C 3770 -6 3731 -26 3533 -26 
C 3373 -26 3155 -6 2925 26 
C 3002 -128 3034 -243 3053 -442 
C 3238 -461 3398 -467 3558 -467 
C 4070 -467 4218 -371 4218 -19 
L 4218 1107 
C 4218 1222 4205 1408 4179 1677 
C 4429 1114 4634 800 4973 448 
C 5229 186 5491 -19 5869 -250 
C 5971 -64 6048 51 6182 198 
C 5683 435 5363 659 5011 1037 
C 5325 1306 5498 1498 5798 1882 
L 5414 2150 
C 5190 1805 4998 1574 4749 1357 
C 4512 1677 4397 1888 4256 2259 
L 5414 2259 
C 5645 2259 5843 2246 6022 2221 
L 6022 2701 
C 5843 2675 5651 2662 5408 2662 
L 4218 2662 
L 4218 3181 
L 5139 3181 
C 5427 3181 5568 3174 5734 3149 
L 5734 3616 
C 5568 3590 5402 3584 5133 3584 
L 4218 3584 
L 4218 4070 
L 5331 4070 
C 5587 4070 5760 4058 5933 4038 
L 5933 4512 
C 5754 4486 5574 4474 5325 4474 
L 4838 4474 
C 4947 4640 5094 4896 5242 5178 
L 4768 5325 
C 4653 5005 4557 4800 4346 4474 
L 3661 4474 
C 3520 4813 3424 4998 3213 5318 
L 2797 5152 
C 2995 4883 3085 4723 3194 4474 
L 2931 4474 
C 2669 4474 2515 4480 2355 4506 
L 2355 4038 
C 2522 4064 2650 4070 2925 4070 
L 3770 4070 
L 3770 3584 
L 3066 3584 
C 2803 3584 2669 3590 2515 3616 
L 2515 3149 
C 2701 3174 2778 3181 3085 3181 
L 3770 3181 
L 3770 2662 
L 2816 2662 
C 2573 2662 2381 2669 2240 2688 
C 1978 2989 1754 3379 1658 3686 
L 1856 3686 
C 2016 3686 2131 3680 2253 3667 
L 2253 4134 
C 2125 4115 2042 4109 1862 4109 
L 1638 4109 
L 1638 4698 
C 1638 5018 1645 5184 1670 5357 
L 1139 5357 
C 1165 5203 1171 5056 1171 4698 
L 1171 4109 
L 794 4109 
C 582 4109 467 4115 358 4134 
L 358 3661 
C 474 3680 595 3686 794 3686 
L 1107 3686 
C 1043 3373 915 2989 755 2611 
C 582 2208 416 1920 179 1638 
C 307 1453 378 1325 448 1133 
C 634 1421 710 1555 832 1818 
C 1018 2202 1094 2419 1216 2944 
C 1197 2573 1178 2118 1178 1914 
L 1178 243 
C 1178 -83 1165 -326 1139 -512 
L 1677 -512 
C 1645 -326 1638 -102 1638 243 
L 1638 2093 
C 1638 2291 1632 2566 1613 3091 
C 1728 2758 1824 2554 1997 2266 
C 2080 2426 2138 2534 2234 2662 
L 2234 2227 
C 2387 2253 2547 2259 2790 2259 
L 3770 2259 
z
M 2330 1894 
C 2611 1606 2726 1459 2938 1120 
L 3290 1376 
C 3085 1677 2918 1875 2669 2138 
L 2330 1894 
z
" transform="scale(0.015625)"/>
      <path id="HiraginoSans-W4-9023" d="M 3699 4371 
L 3699 3936 
L 2746 3936 
C 2541 3936 2394 3942 2240 3962 
C 2259 3795 2266 3706 2266 3533 
L 2266 2214 
C 2266 2042 2259 1946 2240 1786 
C 2419 1805 2566 1811 2752 1811 
L 3699 1811 
L 3699 1338 
L 2605 1338 
C 2272 1338 2106 1344 1965 1370 
L 1965 915 
C 2106 928 2349 941 2605 941 
L 3699 941 
L 3699 858 
C 3699 659 3686 486 3654 288 
L 4166 288 
C 4141 467 4128 666 4128 864 
L 4128 941 
L 5389 941 
C 5696 941 5888 934 6035 909 
L 6035 1370 
C 5894 1344 5709 1338 5389 1338 
L 4128 1338 
L 4128 1811 
L 5178 1811 
C 5376 1811 5542 1805 5690 1786 
C 5670 1920 5664 2042 5664 2214 
L 5664 3514 
C 5664 3693 5670 3821 5690 3962 
C 5510 3942 5395 3936 5178 3936 
L 4128 3936 
L 4128 4371 
L 5363 4371 
C 5677 4371 5856 4365 6010 4339 
L 6010 4806 
C 5850 4787 5626 4774 5325 4774 
L 4128 4774 
C 4128 4992 4141 5146 4173 5325 
L 3654 5325 
C 3680 5133 3693 4986 3699 4774 
L 2624 4774 
C 2304 4774 2099 4787 1939 4806 
L 1939 4339 
C 2054 4365 2227 4371 2522 4371 
L 3699 4371 
z
M 3699 3558 
L 3699 3072 
L 2707 3072 
L 2707 3558 
L 3699 3558 
z
M 4128 3558 
L 5216 3558 
L 5216 3072 
L 4128 3072 
L 4128 3558 
z
M 3699 2707 
L 3699 2189 
L 2707 2189 
L 2707 2707 
L 3699 2707 
z
M 4128 2707 
L 5216 2707 
L 5216 2189 
L 4128 2189 
L 4128 2707 
z
M 390 4915 
C 845 4499 1043 4269 1414 3744 
L 1798 4096 
C 1376 4627 1165 4851 749 5235 
L 390 4915 
z
M 326 2330 
C 486 2355 582 2362 781 2362 
L 1184 2362 
L 1184 858 
C 832 525 454 243 192 128 
L 435 -378 
C 531 -294 576 -256 685 -173 
C 960 32 1133 186 1408 461 
C 1587 211 1734 70 1952 -51 
C 2355 -275 2733 -333 3789 -333 
C 4589 -333 5453 -314 6035 -294 
C 6086 -32 6086 -19 6202 256 
C 5562 173 4819 134 3578 134 
C 2694 134 2323 211 1965 467 
C 1830 557 1754 653 1658 858 
L 1658 2144 
C 1658 2470 1664 2624 1683 2829 
C 1523 2803 1389 2797 1197 2797 
L 826 2797 
C 582 2797 486 2803 326 2829 
L 326 2330 
z
" transform="scale(0.015625)"/>
      <path id="HiraginoSans-W4-7d9a" d="M 339 2086 
C 448 2106 531 2118 755 2131 
C 864 2138 1024 2150 1293 2182 
L 1293 122 
C 1293 -134 1280 -326 1254 -518 
L 1773 -518 
C 1747 -333 1734 -154 1734 122 
L 1734 2227 
C 1978 2253 2035 2259 2189 2285 
C 2221 2170 2234 2131 2259 1997 
L 2605 2144 
C 2477 2630 2387 2880 2176 3309 
L 1856 3181 
C 1971 2944 2003 2867 2074 2662 
C 1869 2630 1747 2624 1242 2586 
C 1504 2925 1907 3514 2125 3872 
C 2368 4282 2368 4282 2445 4390 
L 2016 4627 
C 1933 4358 1824 4154 1421 3514 
C 1306 3654 1235 3738 1082 3910 
C 1293 4224 1446 4493 1677 4954 
C 1728 5056 1760 5107 1798 5171 
L 1344 5363 
C 1267 5056 1082 4653 806 4205 
C 723 4294 691 4326 518 4506 
L 275 4134 
C 672 3750 877 3520 1165 3130 
C 979 2861 979 2861 762 2560 
C 685 2560 544 2554 506 2554 
C 410 2554 365 2554 275 2566 
L 339 2086 
z
M 3981 4320 
L 3981 3712 
L 3341 3712 
C 3059 3712 2874 3725 2701 3744 
L 2701 3277 
C 2880 3296 3059 3309 3341 3309 
L 5197 3309 
C 5472 3309 5664 3296 5830 3277 
L 5830 3744 
C 5651 3725 5478 3712 5190 3712 
L 4435 3712 
L 4435 4320 
L 5357 4320 
C 5658 4320 5824 4314 6010 4288 
L 6010 4768 
C 5837 4742 5632 4730 5344 4730 
L 4435 4730 
L 4435 4838 
C 4435 5062 4448 5203 4474 5357 
L 3942 5357 
C 3968 5210 3981 5062 3981 4851 
L 3981 4730 
L 3245 4730 
C 2950 4730 2758 4742 2579 4768 
L 2579 4288 
C 2765 4314 2938 4320 3238 4320 
L 3981 4320 
z
M 595 1824 
C 538 934 486 627 288 83 
L 685 -128 
C 864 435 947 883 1011 1754 
L 595 1824 
z
M 1952 1760 
C 2074 1331 2150 928 2202 397 
L 2586 525 
C 2509 1107 2502 1158 2310 1869 
L 1952 1760 
z
M 3085 1683 
L 3085 2451 
L 5510 2451 
L 5510 1683 
L 5997 1683 
C 5978 1773 5971 1907 5971 2086 
L 5971 2464 
C 5971 2643 5978 2752 5990 2886 
C 5830 2861 5645 2854 5331 2854 
L 3226 2854 
C 2912 2854 2752 2861 2624 2874 
C 2643 2758 2650 2662 2650 2438 
L 2650 2112 
C 2650 1933 2643 1837 2624 1683 
L 3085 1683 
z
M 4429 2106 
C 4448 1965 4461 1811 4461 1594 
L 4461 90 
C 4461 -96 4512 -205 4621 -262 
C 4736 -326 4845 -339 5216 -339 
C 5696 -339 5856 -282 5971 -70 
C 6067 102 6112 346 6157 870 
C 5990 902 5875 947 5709 1050 
C 5696 512 5651 243 5562 160 
C 5517 115 5408 96 5210 96 
C 4973 96 4915 128 4915 243 
L 4915 1594 
C 4915 1818 4922 1952 4954 2106 
L 4429 2106 
z
M 3488 2106 
C 3507 1997 3514 1933 3514 1818 
C 3514 1350 3405 941 3213 653 
C 2995 333 2726 147 2208 -38 
C 2362 -166 2451 -275 2528 -448 
C 3078 -192 3328 0 3571 339 
C 3814 691 3936 1101 3974 1690 
C 3994 1958 3994 1990 4013 2106 
L 3488 2106 
z
" transform="scale(0.015625)"/>
      <path id="HiraginoSans-W4-6027" d="M 3840 3520 
L 3840 2246 
L 3123 2246 
C 2848 2246 2675 2259 2502 2285 
L 2502 1773 
C 2675 1798 2906 1811 3174 1811 
L 3840 1811 
L 3840 224 
L 2733 224 
C 2438 224 2221 237 2022 262 
L 2022 -269 
C 2240 -237 2464 -224 2733 -224 
L 5350 -224 
C 5619 -224 5843 -237 6061 -269 
L 6061 262 
C 5862 237 5645 224 5350 224 
L 4314 224 
L 4314 1811 
L 5120 1811 
C 5414 1811 5600 1798 5786 1773 
L 5786 2285 
C 5606 2259 5427 2246 5126 2246 
L 4314 2246 
L 4314 3520 
L 5248 3520 
C 5472 3520 5702 3507 5920 3482 
L 5920 4000 
C 5766 3974 5574 3962 5248 3962 
L 4314 3962 
L 4314 4698 
C 4314 4941 4326 5158 4358 5350 
L 3795 5350 
C 3827 5146 3840 4934 3840 4698 
L 3840 3962 
L 3098 3962 
C 3149 4166 3219 4499 3245 4646 
C 3264 4742 3264 4755 3283 4813 
L 2771 4909 
C 2771 4710 2752 4576 2707 4326 
C 2566 3610 2355 3098 1997 2592 
C 2259 2458 2259 2458 2419 2349 
C 2688 2771 2810 3046 2970 3520 
L 3840 3520 
z
M 608 2278 
C 774 2854 858 3328 902 4045 
L 506 4109 
C 480 3462 403 3027 218 2432 
L 608 2278 
z
M 1613 -512 
C 1587 -294 1574 -77 1574 211 
L 1574 4704 
C 1574 4973 1587 5146 1613 5363 
L 1043 5363 
C 1075 5152 1088 4954 1088 4704 
L 1088 243 
C 1088 -19 1075 -288 1043 -512 
L 1613 -512 
z
M 2330 3296 
C 2246 3667 2138 3994 2022 4256 
L 1690 4122 
C 1843 3763 1901 3565 1965 3142 
L 2330 3296 
z
" transform="scale(0.015625)"/>
      <path id="HiraginoSans-W4-43" d="M 4544 3654 
C 4390 4064 4269 4269 4026 4506 
C 3661 4858 3174 5030 2560 5030 
C 1946 5030 1453 4845 1075 4480 
C 589 4006 320 3296 320 2458 
C 320 1651 570 947 1018 493 
C 1389 109 1920 -90 2554 -90 
C 3277 -90 3878 173 4237 640 
C 4403 858 4493 1062 4608 1459 
L 3968 1594 
C 3910 1306 3853 1152 3718 966 
C 3475 634 3066 448 2573 448 
C 1581 448 947 1235 947 2477 
C 947 3718 1568 4493 2573 4493 
C 3014 4493 3386 4339 3629 4051 
C 3763 3891 3834 3763 3923 3488 
L 4544 3654 
z
" transform="scale(0.015625)"/>
      <path id="HiraginoSans-W4-61" d="M 2765 0 
L 3373 0 
C 3334 269 3322 422 3322 736 
L 3322 2515 
C 3322 2867 3238 3110 3046 3290 
C 2816 3514 2464 3622 1978 3622 
C 1485 3622 1094 3507 813 3270 
C 627 3123 531 2976 416 2656 
L 1011 2541 
C 1069 2714 1114 2797 1197 2886 
C 1370 3066 1626 3155 1971 3155 
C 2515 3155 2765 2950 2765 2515 
L 2765 2182 
C 1933 2163 1581 2118 1197 1997 
C 646 1818 333 1434 333 941 
C 333 320 774 -58 1491 -58 
C 1741 -58 1978 -19 2195 64 
C 2406 141 2522 218 2765 429 
L 2765 0 
z
M 2765 1363 
C 2765 1126 2707 973 2554 813 
C 2304 557 1920 397 1568 397 
C 1165 397 915 608 915 941 
C 915 1235 1075 1440 1395 1568 
C 1677 1683 2035 1728 2765 1747 
L 2765 1363 
z
" transform="scale(0.015625)"/>
      <path id="HiraginoSans-W4-75" d="M 2944 3520 
C 2976 3264 2989 3046 2989 2765 
L 2989 1510 
C 2918 1248 2835 1094 2662 890 
C 2400 576 2125 435 1792 435 
C 1306 435 1056 723 1056 1286 
L 1056 2765 
C 1056 3066 1069 3251 1101 3520 
L 429 3520 
C 461 3302 474 3104 474 2771 
L 474 1197 
C 474 858 538 608 666 416 
C 877 109 1242 -58 1709 -58 
C 2272 -58 2682 166 3002 653 
C 2989 493 2989 461 2989 378 
L 2989 0 
L 3616 0 
C 3578 256 3565 442 3565 755 
L 3565 2765 
C 3565 3091 3578 3264 3616 3520 
L 2944 3520 
z
" transform="scale(0.015625)"/>
      <path id="HiraginoSans-W4-63" d="M 3475 2573 
C 3405 2758 3347 2867 3251 3002 
C 2970 3405 2522 3616 1965 3616 
C 947 3616 282 2874 282 1747 
C 282 627 954 -90 1990 -90 
C 2534 -90 2970 102 3258 480 
C 3366 621 3430 742 3520 986 
L 2950 1126 
C 2899 966 2867 890 2816 806 
C 2650 550 2362 410 2010 410 
C 1312 410 870 934 870 1760 
C 870 2598 1299 3130 1984 3130 
C 2438 3130 2739 2899 2912 2413 
L 3475 2573 
z
" transform="scale(0.015625)"/>
      <path id="HiraginoSans-W4-79" d="M 1600 154 
L 1325 -486 
C 1229 -710 1069 -832 858 -832 
C 730 -832 621 -800 442 -717 
L 301 -1274 
C 550 -1325 710 -1344 864 -1344 
C 1357 -1344 1664 -1146 1843 -717 
L 3283 2758 
C 3462 3181 3571 3437 3603 3520 
L 2912 3520 
C 2880 3334 2829 3168 2694 2816 
L 1901 768 
L 1011 2822 
C 902 3072 819 3341 787 3520 
L 64 3520 
C 134 3386 134 3386 422 2758 
L 1600 154 
z
" transform="scale(0.015625)"/>
     </defs>
     <use xlink:href="#HiraginoSans-W4-ff08"/>
     <use xlink:href="#HiraginoSans-W4-4e00" transform="translate(99.999985 0)"/>
     <use xlink:href="#HiraginoSans-W4-69d8" transform="translate(199.999969 0)"/>
     <use xlink:href="#HiraginoSans-W4-9023" transform="translate(299.999954 0)"/>
     <use xlink:href="#HiraginoSans-W4-7d9a" transform="translate(399.999939 0)"/>
     <use xlink:href="#HiraginoSans-W4-6027" transform="translate(499.999924 0)"/>
     <use xlink:href="#HiraginoSans-W4-30fb" transform="translate(599.999908 0)"/>
     <use xlink:href="#HiraginoSans-W4-43" transform="translate(699.999893 0)"/>
     <use xlink:href="#HiraginoSans-W4-61" transform="translate(776.599884 0)"/>
     <use xlink:href="#HiraginoSans-W4-75" transform="translate(835.799881 0)"/>
     <use xlink:href="#HiraginoSans-W4-63" transform="translate(899.199875 0)"/>
     <use xlink:href="#HiraginoSans-W4-68" transform="translate(958.299866 0)"/>
     <use xlink:href="#HiraginoSans-W4-79" transform="translate(1021.599854 0)"/>
     <use xlink:href="#HiraginoSans-W4-ff09" transform="translate(1078.999847 0)"/>
    </g>
   </g>
   <g id="text_5">
    <!-- PseudoMetricSpace -->
    <g style="fill: #2e75b6" transform="translate(168.922891 312.028645) scale(0.11 -0.11)">
     <defs>
      <path id="HiraginoSans-W7-50" d="M 1581 -134 
C 1542 122 1530 397 1530 762 
L 1530 1709 
L 2650 1709 
C 3270 1709 3744 1869 4070 2202 
C 4371 2502 4525 2925 4525 3437 
C 4525 3917 4378 4320 4109 4589 
C 3789 4909 3315 5069 2669 5069 
L 1306 5069 
C 928 5069 717 5075 429 5088 
C 467 4781 480 4538 480 4211 
L 480 749 
C 480 384 467 128 429 -134 
L 1581 -134 
z
M 1530 2611 
L 1530 4166 
L 2624 4166 
C 2912 4166 3110 4102 3245 3955 
C 3373 3827 3437 3635 3437 3405 
C 3437 2899 3142 2611 2624 2611 
L 1530 2611 
z
" transform="scale(0.015625)"/>
      <path id="HiraginoSans-W7-73" d="M 211 979 
C 275 685 339 531 461 365 
C 749 -38 1280 -243 2029 -243 
C 3117 -243 3757 224 3757 1018 
C 3757 1395 3590 1683 3270 1875 
C 3027 2022 2810 2093 2157 2234 
C 1824 2304 1690 2342 1574 2400 
C 1446 2458 1376 2547 1376 2656 
C 1376 2867 1613 2995 1997 2995 
C 2381 2995 2566 2867 2605 2566 
L 3635 2688 
C 3558 3021 3456 3206 3258 3386 
C 2982 3642 2547 3776 1984 3776 
C 992 3776 384 3328 384 2592 
C 384 2189 608 1850 986 1677 
C 1210 1574 1434 1510 2035 1389 
C 2400 1312 2528 1274 2618 1210 
C 2707 1146 2752 1062 2752 960 
C 2752 723 2490 576 2074 576 
C 1766 576 1536 653 1414 794 
C 1344 877 1312 947 1274 1107 
L 211 979 
z
" transform="scale(0.015625)"/>
      <path id="HiraginoSans-W7-75" d="M 3008 3654 
C 3046 3341 3059 3104 3059 2758 
L 3059 1459 
C 2790 986 2381 678 2010 678 
C 1856 678 1728 717 1632 787 
C 1478 902 1427 1050 1427 1389 
L 1427 2758 
C 1427 3117 1440 3354 1478 3654 
L 358 3654 
C 397 3392 410 3149 410 2758 
L 410 1146 
C 410 698 525 371 755 134 
C 986 -96 1325 -218 1734 -218 
C 2278 -218 2682 -38 3072 378 
C 3066 256 3059 173 3059 122 
L 3059 -134 
L 4122 -134 
C 4083 109 4070 352 4070 762 
L 4070 2758 
C 4070 3130 4083 3366 4122 3654 
L 3008 3654 
z
" transform="scale(0.015625)"/>
      <path id="HiraginoSans-W7-64" d="M 3296 -134 
L 4339 -134 
C 4301 173 4288 390 4288 800 
L 4288 4147 
C 4288 4518 4301 4774 4339 5069 
L 3245 5069 
C 3283 4794 3296 4557 3296 4141 
L 3296 3597 
C 3296 3475 3296 3398 3302 3309 
L 3309 3219 
C 3168 3373 3091 3437 2925 3526 
C 2643 3680 2349 3750 2003 3750 
C 902 3750 211 2989 211 1766 
C 211 1114 403 576 768 211 
C 1075 -90 1485 -237 2003 -237 
C 2586 -237 2963 -83 3309 294 
C 3302 192 3296 173 3296 102 
L 3296 -134 
z
M 3277 1773 
C 3277 1402 3142 1050 2918 845 
C 2746 691 2464 589 2202 589 
C 1971 589 1722 685 1562 838 
C 1350 1037 1235 1370 1235 1760 
C 1235 2458 1613 2931 2176 2931 
C 2835 2931 3277 2470 3277 1773 
z
" transform="scale(0.015625)"/>
      <path id="HiraginoSans-W7-4d" d="M 3686 -134 
C 3718 70 3834 429 3962 762 
L 4768 2778 
C 4806 2874 4915 3219 4947 3328 
C 5018 3610 5018 3610 5050 3731 
C 5011 3123 4998 2867 4998 2714 
L 4998 832 
C 4998 384 4986 154 4947 -134 
L 6016 -134 
C 5978 109 5965 352 5965 832 
L 5965 4096 
C 5965 4525 5978 4762 6016 5069 
L 4595 5069 
C 4557 4826 4486 4570 4358 4243 
L 3226 1261 
L 2086 4243 
C 1965 4563 1888 4832 1850 5069 
L 429 5069 
C 467 4800 480 4499 480 4096 
L 480 832 
C 480 397 467 134 429 -134 
L 1498 -134 
C 1459 122 1446 384 1446 832 
L 1446 2694 
C 1446 2854 1434 3110 1395 3731 
C 1530 3251 1619 2957 1696 2758 
L 2477 768 
C 2630 384 2720 83 2752 -134 
L 3686 -134 
z
" transform="scale(0.015625)"/>
      <path id="HiraginoSans-W7-74" d="M 813 4646 
C 851 4352 864 4141 864 3821 
L 864 3654 
L 627 3654 
C 371 3654 237 3661 51 3693 
L 51 2790 
C 250 2822 378 2829 614 2829 
L 864 2829 
L 864 768 
C 864 58 1197 -224 2022 -224 
C 2355 -224 2586 -186 2842 -96 
L 2739 742 
C 2573 646 2445 614 2272 614 
C 1971 614 1862 723 1862 1024 
L 1862 2829 
L 2144 2829 
C 2419 2829 2541 2822 2752 2790 
L 2752 3686 
C 2554 3661 2406 3654 2112 3654 
L 1862 3654 
L 1862 3821 
C 1862 4122 1882 4403 1914 4646 
L 813 4646 
z
" transform="scale(0.015625)"/>
     </defs>
     <use xlink:href="#HiraginoSans-W7-50"/>
     <use xlink:href="#HiraginoSans-W7-73" transform="translate(73.599991 0)"/>
     <use xlink:href="#HiraginoSans-W7-65" transform="translate(135.799988 0)"/>
     <use xlink:href="#HiraginoSans-W7-75" transform="translate(201.899979 0)"/>
     <use xlink:href="#HiraginoSans-W7-64" transform="translate(272.09996 0)"/>
     <use xlink:href="#HiraginoSans-W7-6f" transform="translate(345.599945 0)"/>
     <use xlink:href="#HiraginoSans-W7-4d" transform="translate(414.699936 0)"/>
     <use xlink:href="#HiraginoSans-W7-65" transform="translate(515.299927 0)"/>
     <use xlink:href="#HiraginoSans-W7-74" transform="translate(581.399918 0)"/>
     <use xlink:href="#HiraginoSans-W7-72" transform="translate(626.899902 0)"/>
     <use xlink:href="#HiraginoSans-W7-69" transform="translate(678.999893 0)"/>
     <use xlink:href="#HiraginoSans-W7-63" transform="translate(708.19989 0)"/>
     <use xlink:href="#HiraginoSans-W7-53" transform="translate(772.999878 0)"/>
     <use xlink:href="#HiraginoSans-W7-70" transform="translate(846.799866 0)"/>
     <use xlink:href="#HiraginoSans-W7-61" transform="translate(920.499847 0)"/>
     <use xlink:href="#HiraginoSans-W7-63" transform="translate(986.899841 0)"/>
     <use xlink:href="#HiraginoSans-W7-65" transform="translate(1051.699829 0)"/>
    </g>
   </g>
   <g id="text_6">
    <!-- （d ≥ 0, 三角不等式） -->
    <g style="fill: #2e75b6" transform="translate(184.185703 339.243374) scale(0.09 -0.09)">
     <defs>
      <path id="HiraginoSans-W4-20" transform="scale(0.015625)"/>
      <path id="STIXGeneral-Regular-2265" d="M 4026 2074 
L 410 326 
L 410 730 
L 3174 2106 
L 410 3482 
L 410 3898 
L 4026 2138 
L 4026 2074 
z
M 4026 -659 
L 410 -659 
L 410 -237 
L 4026 -237 
L 4026 -659 
z
" transform="scale(0.015625)"/>
      <path id="HiraginoSans-W4-30" d="M 2144 -90 
C 2758 -90 3232 141 3565 602 
C 3846 998 4019 1696 4019 2464 
C 4019 3002 3936 3501 3770 3949 
C 3693 4160 3558 4371 3379 4550 
C 3078 4858 2650 5024 2157 5024 
C 1498 5024 986 4742 666 4205 
C 435 3834 288 3142 288 2458 
C 288 1939 371 1434 538 986 
C 614 768 749 563 928 384 
C 1242 70 1651 -90 2144 -90 
z
M 2144 4499 
C 2592 4499 2918 4307 3123 3923 
C 3283 3629 3398 3014 3398 2470 
C 3398 2022 3341 1619 3213 1235 
C 3155 1043 3046 870 2912 730 
C 2726 538 2458 435 2150 435 
C 1734 435 1414 614 1197 973 
C 1024 1261 902 1875 902 2451 
C 902 2906 966 3328 1088 3699 
C 1139 3866 1235 4026 1370 4173 
C 1568 4397 1818 4499 2144 4499 
z
" transform="scale(0.015625)"/>
      <path id="HiraginoSans-W4-2c" d="M 1165 723 
L 435 723 
L 435 0 
L 858 0 
C 851 -403 800 -499 493 -614 
L 685 -864 
C 1062 -672 1165 -493 1165 0 
L 1165 723 
z
" transform="scale(0.015625)"/>
      <path id="HiraginoSans-W4-4e09" d="M 883 4333 
C 1088 4358 1280 4371 1645 4371 
L 4723 4371 
C 5082 4371 5286 4358 5510 4333 
L 5510 4928 
C 5293 4896 5094 4883 4723 4883 
L 1638 4883 
C 1280 4883 1082 4896 883 4928 
L 883 4333 
z
M 1286 2259 
C 1466 2278 1670 2291 1978 2291 
L 4422 2291 
C 4717 2291 4896 2285 5107 2259 
L 5107 2842 
C 4909 2816 4717 2803 4422 2803 
L 1971 2803 
C 1651 2803 1453 2816 1286 2842 
L 1286 2259 
z
M 5971 557 
C 5747 531 5523 518 5184 518 
L 1229 518 
C 864 518 634 531 416 557 
L 416 -45 
C 653 -13 877 0 1242 0 
L 5197 0 
C 5568 0 5754 -13 5971 -45 
L 5971 557 
z
" transform="scale(0.015625)"/>
      <path id="HiraginoSans-W4-89d2" d="M 3795 3776 
C 3974 3955 4147 4147 4307 4365 
C 4474 4595 4474 4595 4550 4678 
L 4282 4928 
C 4128 4902 3955 4896 3680 4896 
L 2547 4896 
C 2611 4979 2650 5030 2701 5114 
C 2784 5242 2784 5242 2829 5299 
L 2272 5434 
C 2234 5280 2118 5082 1901 4800 
C 1504 4282 934 3789 320 3437 
C 486 3270 512 3226 602 3040 
C 838 3181 941 3258 1210 3469 
C 1222 3328 1222 3270 1222 3104 
C 1222 1222 1062 640 333 -128 
C 550 -250 634 -307 774 -454 
C 1222 83 1440 512 1568 1133 
L 5062 1133 
L 5062 256 
C 5062 102 4998 64 4736 64 
C 4544 64 4179 90 3910 122 
C 3994 -64 4026 -179 4045 -358 
C 4454 -378 4531 -378 4672 -378 
C 5350 -378 5549 -256 5549 166 
L 5549 3226 
C 5549 3475 5555 3635 5574 3802 
C 5446 3782 5286 3776 5043 3776 
L 3795 3776 
z
M 1818 3776 
C 1709 3776 1658 3776 1568 3776 
C 1837 4026 1946 4134 2221 4467 
L 3802 4467 
C 3642 4237 3456 4000 3238 3776 
L 1818 3776 
z
M 1632 1568 
C 1658 1798 1670 1914 1690 2285 
L 3091 2285 
L 3091 1568 
L 1632 1568 
z
M 5062 1568 
L 3558 1568 
L 3558 2285 
L 5062 2285 
L 5062 1568 
z
M 5062 2707 
L 3558 2707 
L 3558 3347 
L 5062 3347 
L 5062 2707 
z
M 3091 3347 
L 3091 2707 
L 1702 2707 
L 1702 3347 
L 3091 3347 
z
" transform="scale(0.015625)"/>
      <path id="HiraginoSans-W4-4e0d" d="M 3194 4454 
C 2874 3866 2662 3571 2208 3098 
C 1638 2496 1088 2086 211 1606 
C 384 1427 467 1312 550 1152 
C 1619 1818 2246 2349 2854 3117 
C 2842 2835 2842 2694 2842 2426 
L 2842 243 
C 2842 0 2822 -262 2797 -480 
L 3411 -480 
C 3379 -256 3366 -32 3366 243 
L 3366 3738 
C 3584 4070 3642 4173 3789 4454 
L 5306 4454 
C 5562 4454 5818 4442 6035 4416 
L 6035 4966 
C 5843 4941 5626 4928 5293 4928 
L 1088 4928 
C 800 4928 563 4941 352 4966 
L 352 4416 
C 563 4442 851 4454 1101 4454 
L 3194 4454 
z
M 3610 3110 
C 4294 2266 4941 1722 5888 1190 
C 6010 1408 6093 1530 6227 1670 
C 5760 1888 5350 2138 4941 2464 
C 4576 2752 4320 3008 3968 3443 
L 3610 3110 
z
" transform="scale(0.015625)"/>
      <path id="HiraginoSans-W4-7b49" d="M 1741 4442 
C 1888 4179 1971 4000 2074 3699 
L 2515 3853 
C 2381 4147 2330 4243 2208 4442 
L 2586 4442 
C 2816 4442 2970 4435 3142 4416 
L 3142 4896 
C 2976 4870 2803 4858 2509 4858 
L 1581 4858 
C 1658 4992 1677 5030 1792 5242 
L 1299 5370 
C 1229 5133 1133 4934 960 4685 
C 755 4390 582 4211 269 3962 
C 410 3872 512 3782 627 3642 
C 947 3936 1082 4090 1318 4442 
L 1741 4442 
z
M 4237 4435 
C 4397 4173 4474 4013 4602 3706 
L 5043 3866 
C 4934 4090 4877 4192 4717 4435 
L 5370 4435 
C 5645 4435 5843 4429 6042 4403 
L 6042 4890 
C 5869 4864 5664 4851 5357 4851 
L 4045 4851 
C 4096 4947 4128 5011 4250 5248 
L 3789 5382 
C 3635 4922 3354 4499 3002 4192 
C 3174 4096 3258 4032 3366 3910 
C 3526 4077 3635 4205 3802 4435 
L 4237 4435 
z
M 1613 3507 
C 1306 3507 1120 3520 947 3546 
L 947 3059 
C 1126 3085 1325 3098 1613 3098 
L 2880 3098 
L 2880 2522 
L 1082 2522 
C 774 2522 570 2534 403 2560 
L 403 2067 
C 614 2093 819 2106 1088 2106 
L 4179 2106 
L 4179 1542 
L 1101 1542 
C 826 1542 621 1555 422 1581 
L 422 1088 
C 614 1114 832 1126 1107 1126 
L 4179 1126 
L 4179 160 
C 4179 19 4128 -6 3878 -6 
C 3584 -6 3360 6 3059 45 
C 3130 -109 3162 -224 3200 -435 
C 3398 -448 3654 -454 3808 -454 
C 4486 -454 4659 -352 4659 58 
L 4659 1126 
L 5331 1126 
C 5600 1126 5818 1114 6016 1088 
L 6016 1581 
C 5818 1555 5613 1542 5331 1542 
L 4659 1542 
L 4659 2106 
L 5363 2106 
C 5638 2106 5850 2093 6042 2067 
L 6042 2560 
C 5875 2534 5670 2522 5357 2522 
L 3347 2522 
L 3347 3098 
L 4864 3098 
C 5126 3098 5331 3085 5517 3059 
L 5517 3546 
C 5350 3520 5165 3507 4858 3507 
L 3347 3507 
C 3354 3718 3360 3782 3386 3898 
L 2842 3898 
C 2867 3770 2880 3674 2880 3507 
L 1613 3507 
z
M 1542 755 
C 1984 422 2125 288 2483 -154 
L 2880 186 
C 2458 621 2368 704 1901 1062 
L 1542 755 
z
" transform="scale(0.015625)"/>
      <path id="HiraginoSans-W4-5f0f" d="M 4243 4128 
C 4230 4435 4224 4563 4224 4659 
C 4224 4864 4243 5120 4262 5242 
L 3693 5242 
C 3725 5018 3725 5018 3725 4890 
C 3731 4531 3731 4531 3744 4128 
L 1120 4128 
C 832 4128 614 4141 435 4166 
L 435 3635 
C 659 3661 864 3674 1120 3674 
L 3763 3674 
C 3789 3104 3827 2675 3898 2266 
C 4038 1421 4307 666 4614 211 
C 4877 -160 5171 -384 5408 -384 
C 5568 -384 5715 -294 5824 -115 
C 5958 96 6048 384 6157 941 
C 5958 1024 5882 1075 5709 1229 
C 5613 531 5510 192 5395 192 
C 5331 192 5178 320 5062 467 
C 4838 762 4608 1338 4486 1888 
C 4352 2502 4294 2950 4262 3674 
L 5344 3674 
C 5626 3674 5837 3661 6029 3635 
L 6029 4166 
C 5869 4141 5690 4128 5408 4128 
L 4243 4128 
z
M 1837 2310 
L 1837 570 
C 979 416 755 384 467 384 
L 570 -147 
C 634 -134 653 -128 736 -115 
C 1370 6 1715 70 1766 83 
C 2515 230 3027 346 3731 531 
L 3731 998 
C 3014 806 2765 749 2330 659 
L 2330 2310 
L 2925 2310 
C 3162 2310 3347 2298 3514 2278 
L 3514 2778 
C 3360 2752 3187 2746 2918 2746 
L 1286 2746 
C 1018 2746 838 2752 685 2778 
L 685 2278 
C 845 2298 1043 2310 1280 2310 
L 1837 2310 
z
M 5626 4506 
C 5370 4794 5222 4928 4864 5210 
L 4499 4966 
C 4832 4710 5005 4538 5248 4230 
L 5626 4506 
z
" transform="scale(0.015625)"/>
     </defs>
     <use xlink:href="#HiraginoSans-W4-ff08"/>
     <use xlink:href="#HiraginoSans-W4-64" transform="translate(99.999985 0)"/>
     <use xlink:href="#HiraginoSans-W4-20" transform="translate(166.299973 0)"/>
     <use xlink:href="#STIXGeneral-Regular-2265" transform="translate(199.59996 0)"/>
     <use xlink:href="#HiraginoSans-W4-20" transform="translate(268.099945 0)"/>
     <use xlink:href="#HiraginoSans-W4-30" transform="translate(301.399933 0)"/>
     <use xlink:href="#HiraginoSans-W4-2c" transform="translate(368.699921 0)"/>
     <use xlink:href="#HiraginoSans-W4-20" transform="translate(393.699905 0)"/>
     <use xlink:href="#HiraginoSans-W4-4e09" transform="translate(426.999893 0)"/>
     <use xlink:href="#HiraginoSans-W4-89d2" transform="translate(526.999878 0)"/>
     <use xlink:href="#HiraginoSans-W4-4e0d" transform="translate(626.999863 0)"/>
     <use xlink:href="#HiraginoSans-W4-7b49" transform="translate(726.999847 0)"/>
     <use xlink:href="#HiraginoSans-W4-5f0f" transform="translate(826.999832 0)"/>
     <use xlink:href="#HiraginoSans-W4-ff09" transform="translate(926.999817 0)"/>
    </g>
   </g>
   <g id="text_7">
    <!-- MetricSpace -->
    <g style="fill: #c00000" transform="translate(191.730703 421.799845) scale(0.11 -0.11)">
     <use xlink:href="#HiraginoSans-W7-4d"/>
     <use xlink:href="#HiraginoSans-W7-65" transform="translate(100.599991 0)"/>
     <use xlink:href="#HiraginoSans-W7-74" transform="translate(166.699982 0)"/>
     <use xlink:href="#HiraginoSans-W7-72" transform="translate(212.199966 0)"/>
     <use xlink:href="#HiraginoSans-W7-69" transform="translate(264.299957 0)"/>
     <use xlink:href="#HiraginoSans-W7-63" transform="translate(293.499954 0)"/>
     <use xlink:href="#HiraginoSans-W7-53" transform="translate(358.299942 0)"/>
     <use xlink:href="#HiraginoSans-W7-70" transform="translate(432.09993 0)"/>
     <use xlink:href="#HiraginoSans-W7-61" transform="translate(505.799911 0)"/>
     <use xlink:href="#HiraginoSans-W7-63" transform="translate(572.199905 0)"/>
     <use xlink:href="#HiraginoSans-W7-65" transform="translate(636.999893 0)"/>
    </g>
   </g>
   <g id="text_8">
    <!-- （d=0 ↔ x=y） -->
    <g style="fill: #c00000" transform="translate(197.126719 449.279652) scale(0.09 -0.09)">
     <defs>
      <path id="HiraginoSans-W4-3d" d="M 333 2720 
L 333 2195 
L 3923 2195 
L 3923 2720 
L 333 2720 
z
M 333 1376 
L 333 851 
L 3923 851 
L 3923 1376 
L 333 1376 
z
" transform="scale(0.015625)"/>
      <path id="HiraginoSans-W4-2194" d="M 4787 1536 
L 4077 774 
L 4346 557 
C 4845 1056 5024 1222 5702 1760 
C 4998 2323 4800 2502 4346 2970 
L 4077 2746 
L 4787 1984 
L 1171 1984 
L 1875 2746 
L 1606 2970 
C 1158 2502 960 2317 256 1760 
C 934 1222 1107 1056 1606 557 
L 1875 774 
L 1171 1536 
L 4787 1536 
z
" transform="scale(0.015625)"/>
      <path id="HiraginoSans-W4-78" d="M 3469 0 
C 3238 294 3078 512 3008 614 
L 2138 1824 
L 2963 2982 
C 3021 3072 3168 3270 3206 3322 
C 3315 3462 3315 3462 3354 3520 
L 2630 3520 
C 2566 3386 2483 3238 2368 3072 
L 1792 2227 
L 1203 3072 
C 1088 3238 1024 3360 947 3520 
L 211 3520 
C 474 3174 557 3072 608 3002 
L 1440 1830 
L 531 563 
C 422 410 237 160 109 0 
L 858 0 
C 966 205 1018 294 1114 435 
L 1786 1421 
L 2426 486 
C 2566 288 2624 192 2720 0 
L 3469 0 
z
" transform="scale(0.015625)"/>
     </defs>
     <use xlink:href="#HiraginoSans-W4-ff08"/>
     <use xlink:href="#HiraginoSans-W4-64" transform="translate(99.999985 0)"/>
     <use xlink:href="#HiraginoSans-W4-3d" transform="translate(166.299973 0)"/>
     <use xlink:href="#HiraginoSans-W4-30" transform="translate(232.699966 0)"/>
     <use xlink:href="#HiraginoSans-W4-20" transform="translate(299.999954 0)"/>
     <use xlink:href="#HiraginoSans-W4-2194" transform="translate(333.299942 0)"/>
     <use xlink:href="#HiraginoSans-W4-20" transform="translate(426.399933 0)"/>
     <use xlink:href="#HiraginoSans-W4-78" transform="translate(459.699921 0)"/>
     <use xlink:href="#HiraginoSans-W4-3d" transform="translate(515.599915 0)"/>
     <use xlink:href="#HiraginoSans-W4-79" transform="translate(581.999908 0)"/>
     <use xlink:href="#HiraginoSans-W4-ff09" transform="translate(639.399902 0)"/>
    </g>
   </g>
   <g id="patch_6">
    <path d="M 230.4 388.047978 
Q 230.4 377.573012 230.4 369.334113 
" style="fill: none; stroke: #c00000; stroke-width: 2; stroke-linecap: round"/>
    <path d="M 228.4 373.334113 
L 230.4 369.334113 
L 232.4 373.334113 
z
" style="fill: #c00000; stroke: #c00000; stroke-width: 2; stroke-linecap: round"/>
   </g>
   <g id="patch_7">
    <path d="M 230.4 278.276778 
Q 230.4 267.801812 230.4 259.562913 
" style="fill: none; stroke: #2e75b6; stroke-width: 2; stroke-linecap: round"/>
    <path d="M 228.4 263.562913 
L 230.4 259.562913 
L 232.4 263.562913 
z
" style="fill: #2e75b6; stroke: #2e75b6; stroke-width: 2; stroke-linecap: round"/>
   </g>
   <g id="patch_8">
    <path d="M 230.4 168.505578 
Q 230.4 158.030612 230.4 149.791713 
" style="fill: none; stroke: #538135; stroke-width: 2; stroke-linecap: round"/>
    <path d="M 228.4 153.791713 
L 230.4 149.791713 
L 232.4 153.791713 
z
" style="fill: #538135; stroke: #538135; stroke-width: 2; stroke-linecap: round"/>
   </g>
   <g id="text_9">
    <!-- extends -->
    <g style="fill: #c00000" transform="translate(252.72 377.574812) scale(0.09 -0.09)">
     <defs>
      <path id="HiraginoSans-W4-65" d="M 3578 1651 
C 3558 1971 3546 2106 3533 2170 
C 3405 3066 2797 3610 1933 3610 
C 934 3610 282 2880 282 1760 
C 282 621 941 -96 1978 -96 
C 2470 -96 2880 64 3187 371 
C 3341 518 3424 646 3546 915 
L 3008 1114 
C 2944 928 2899 845 2803 742 
C 2605 512 2323 390 1984 390 
C 1613 390 1312 531 1114 800 
C 947 1024 883 1235 858 1651 
L 3578 1651 
z
M 877 2118 
C 915 2349 947 2451 1037 2605 
C 1229 2944 1542 3130 1920 3130 
C 2221 3130 2464 3040 2656 2854 
C 2842 2669 2938 2451 2976 2118 
L 877 2118 
z
" transform="scale(0.015625)"/>
      <path id="HiraginoSans-W4-74" d="M 851 4480 
C 877 4262 896 4006 896 3750 
L 896 3520 
L 646 3520 
C 378 3520 250 3526 70 3558 
L 70 2995 
C 275 3021 416 3034 640 3034 
L 896 3034 
L 896 787 
C 896 461 954 269 1094 134 
C 1235 6 1466 -64 1773 -64 
C 2042 -64 2246 -26 2515 83 
L 2374 602 
C 2176 486 2048 448 1875 448 
C 1741 448 1632 486 1568 544 
C 1504 608 1478 698 1478 883 
L 1478 3034 
L 1779 3034 
C 2074 3034 2221 3027 2426 2995 
L 2426 3558 
C 2214 3526 2074 3520 1773 3520 
L 1478 3520 
L 1478 3750 
C 1478 4026 1498 4275 1523 4480 
L 851 4480 
z
" transform="scale(0.015625)"/>
     </defs>
     <use xlink:href="#HiraginoSans-W4-65"/>
     <use xlink:href="#HiraginoSans-W4-78" transform="translate(60.199997 0)"/>
     <use xlink:href="#HiraginoSans-W4-74" transform="translate(116.099991 0)"/>
     <use xlink:href="#HiraginoSans-W4-65" transform="translate(156.599976 0)"/>
     <use xlink:href="#HiraginoSans-W4-6e" transform="translate(216.799973 0)"/>
     <use xlink:href="#HiraginoSans-W4-64" transform="translate(280.199966 0)"/>
     <use xlink:href="#HiraginoSans-W4-73" transform="translate(346.499954 0)"/>
    </g>
   </g>
   <g id="text_10">
    <!-- extends -->
    <g style="fill: #2e75b6" transform="translate(252.72 267.803612) scale(0.09 -0.09)">
     <use xlink:href="#HiraginoSans-W4-65"/>
     <use xlink:href="#HiraginoSans-W4-78" transform="translate(60.199997 0)"/>
     <use xlink:href="#HiraginoSans-W4-74" transform="translate(116.099991 0)"/>
     <use xlink:href="#HiraginoSans-W4-65" transform="translate(156.599976 0)"/>
     <use xlink:href="#HiraginoSans-W4-6e" transform="translate(216.799973 0)"/>
     <use xlink:href="#HiraginoSans-W4-64" transform="translate(280.199966 0)"/>
     <use xlink:href="#HiraginoSans-W4-73" transform="translate(346.499954 0)"/>
    </g>
   </g>
   <g id="text_11">
    <!-- extends -->
    <g style="fill: #538135" transform="translate(252.72 158.032412) scale(0.09 -0.09)">
     <use xlink:href="#HiraginoSans-W4-65"/>
     <use xlink:href="#HiraginoSans-W4-78" transform="translate(60.199997 0)"/>
     <use xlink:href="#HiraginoSans-W4-74" transform="translate(116.099991 0)"/>
     <use xlink:href="#HiraginoSans-W4-65" transform="translate(156.599976 0)"/>
     <use xlink:href="#HiraginoSans-W4-6e" transform="translate(216.799973 0)"/>
     <use xlink:href="#HiraginoSans-W4-64" transform="translate(280.199966 0)"/>
     <use xlink:href="#HiraginoSans-W4-73" transform="translate(346.499954 0)"/>
    </g>
   </g>
   <g id="text_12">
    <!-- UniformSpace の構造（包含関係） -->
    <g transform="translate(122.446172 18.302812) scale(0.13 -0.13)">
     <defs>
      <path id="HiraginoSans-W4-55" d="M 3872 4934 
C 3910 4710 3923 4506 3923 4160 
L 3923 1843 
C 3923 934 3430 435 2528 435 
C 1626 435 1126 941 1126 1843 
L 1126 4160 
C 1126 4518 1139 4730 1178 4934 
L 474 4934 
C 512 4717 525 4506 525 4160 
L 525 1824 
C 525 589 1235 -96 2515 -96 
C 3155 -96 3686 90 4019 429 
C 4352 768 4525 1242 4525 1824 
L 4525 4173 
C 4525 4512 4538 4710 4576 4934 
L 3872 4934 
z
" transform="scale(0.015625)"/>
      <path id="HiraginoSans-W4-69" d="M 442 4934 
L 442 4294 
L 1152 4294 
L 1152 4934 
L 442 4934 
z
M 454 3520 
C 486 3296 499 3085 499 2765 
L 499 755 
C 499 461 486 282 454 0 
L 1133 0 
C 1101 269 1088 448 1088 755 
L 1088 2758 
C 1088 3104 1101 3290 1133 3520 
L 454 3520 
z
" transform="scale(0.015625)"/>
      <path id="HiraginoSans-W4-66" d="M 922 3034 
L 922 755 
C 922 467 909 237 877 0 
L 1549 0 
C 1517 224 1504 429 1504 755 
L 1504 3034 
L 1818 3034 
C 2131 3034 2291 3021 2509 2995 
L 2509 3558 
C 2266 3533 2080 3520 1818 3520 
L 1504 3520 
L 1504 3846 
C 1504 4198 1542 4333 1670 4429 
C 1760 4493 1882 4518 2048 4518 
C 2227 4518 2394 4474 2566 4378 
L 2714 4870 
C 2470 4960 2259 4998 2010 4998 
C 1626 4998 1318 4890 1152 4691 
C 986 4506 922 4282 922 3885 
L 922 3520 
L 659 3520 
C 416 3520 243 3533 70 3558 
L 70 2995 
C 269 3021 435 3034 659 3034 
L 922 3034 
z
" transform="scale(0.015625)"/>
      <path id="HiraginoSans-W4-6f" d="M 2054 -90 
C 3110 -90 3802 640 3802 1766 
C 3802 2893 3117 3610 2042 3610 
C 966 3610 282 2886 282 1760 
C 282 627 966 -90 2054 -90 
z
M 2054 3130 
C 2771 3130 3213 2605 3213 1754 
C 3213 909 2771 397 2042 397 
C 1318 397 870 922 870 1766 
C 870 2611 1325 3130 2054 3130 
z
" transform="scale(0.015625)"/>
      <path id="HiraginoSans-W4-72" d="M 2784 3520 
C 2522 3565 2394 3578 2195 3578 
C 1862 3578 1568 3488 1350 3315 
C 1242 3238 1165 3142 1056 2976 
C 1062 3027 1062 3040 1069 3085 
C 1069 3104 1069 3117 1069 3130 
C 1069 3162 1069 3181 1069 3187 
L 1069 3520 
L 442 3520 
C 474 3283 486 3104 486 2765 
L 486 755 
C 486 467 480 314 442 0 
L 1114 0 
C 1082 262 1069 448 1069 755 
L 1069 2022 
C 1101 2317 1158 2470 1312 2669 
C 1504 2912 1760 3034 2093 3034 
C 2259 3034 2381 3014 2618 2938 
L 2784 3520 
z
" transform="scale(0.015625)"/>
      <path id="HiraginoSans-W4-6d" d="M 1107 0 
C 1075 262 1062 442 1062 755 
L 1062 2016 
C 1062 2144 1178 2464 1286 2624 
C 1485 2912 1786 3091 2074 3091 
C 2528 3091 2765 2803 2765 2246 
L 2765 755 
C 2765 422 2752 230 2720 0 
L 3392 0 
C 3360 230 3347 416 3347 749 
L 3347 2016 
C 3347 2176 3456 2483 3571 2650 
C 3763 2931 4045 3091 4346 3091 
C 4525 3091 4672 3053 4781 2976 
C 4973 2842 5043 2637 5043 2246 
L 5043 755 
C 5043 403 5037 256 4998 0 
L 5670 0 
C 5638 230 5626 416 5626 749 
L 5626 2336 
C 5626 2733 5555 2995 5382 3206 
C 5184 3462 4864 3590 4442 3590 
C 3898 3590 3552 3398 3232 2925 
C 3168 3104 3130 3181 3034 3277 
C 2842 3488 2566 3590 2202 3590 
C 1690 3590 1280 3373 1050 2970 
C 1050 3008 1050 3008 1056 3066 
C 1056 3085 1062 3181 1062 3200 
L 1062 3520 
L 442 3520 
C 474 3290 486 3117 486 2765 
L 486 755 
C 486 435 474 243 442 0 
L 1107 0 
z
" transform="scale(0.015625)"/>
      <path id="HiraginoSans-W4-53" d="M 333 1414 
C 397 966 474 755 659 518 
C 960 128 1510 -83 2234 -83 
C 3360 -83 4013 454 4013 1382 
C 4013 1805 3872 2118 3565 2355 
C 3347 2534 3027 2662 2534 2765 
C 1811 2918 1786 2931 1619 2995 
C 1274 3136 1101 3360 1101 3680 
C 1101 4166 1536 4499 2170 4499 
C 2566 4499 2880 4378 3078 4147 
C 3194 4006 3245 3885 3290 3642 
L 3936 3725 
C 3866 4051 3795 4224 3648 4416 
C 3354 4813 2842 5024 2182 5024 
C 1152 5024 486 4486 486 3661 
C 486 3213 678 2874 1056 2643 
C 1280 2502 1536 2413 1952 2317 
C 2765 2138 2822 2125 3027 2010 
C 3258 1882 3386 1651 3386 1350 
C 3386 787 2944 448 2221 448 
C 1760 448 1389 602 1184 870 
C 1062 1043 1011 1184 992 1485 
L 333 1414 
z
" transform="scale(0.015625)"/>
      <path id="HiraginoSans-W4-70" d="M 1101 -1312 
C 1069 -1075 1056 -877 1056 -550 
L 1056 128 
C 1056 301 1050 397 1037 570 
C 1363 154 1792 -51 2349 -51 
C 3334 -51 3968 659 3968 1773 
C 3968 2906 3354 3590 2336 3590 
C 1766 3590 1344 3379 1037 2944 
C 1050 3078 1050 3117 1050 3194 
L 1050 3520 
L 442 3520 
C 474 3277 486 3078 486 2752 
L 486 -557 
C 486 -845 474 -1056 442 -1312 
L 1101 -1312 
z
M 2272 442 
C 1952 442 1626 570 1421 781 
C 1197 1005 1062 1376 1062 1766 
C 1062 2547 1555 3091 2278 3091 
C 2976 3091 3373 2611 3373 1773 
C 3373 941 2957 442 2272 442 
z
" transform="scale(0.015625)"/>
      <path id="HiraginoSans-W4-306e" d="M 3053 422 
C 3200 243 3245 160 3328 -96 
C 3821 6 4090 90 4397 237 
C 5293 666 5798 1459 5798 2451 
C 5798 3802 4832 4698 3379 4698 
C 2509 4698 1792 4403 1274 3834 
C 832 3347 589 2707 589 2042 
C 589 1107 1062 422 1709 422 
C 2189 422 2573 806 2938 1645 
C 3238 2323 3469 3264 3578 4205 
C 3891 4186 4070 4141 4294 4032 
C 4902 3738 5242 3174 5242 2477 
C 5242 1734 4870 1107 4230 768 
C 3917 602 3610 512 3053 422 
z
M 3027 4192 
C 2944 3398 2714 2483 2458 1888 
C 2195 1286 1952 992 1702 992 
C 1370 992 1114 1453 1114 2035 
C 1114 2797 1491 3501 2112 3891 
C 2394 4077 2656 4160 3027 4192 
z
" transform="scale(0.015625)"/>
      <path id="HiraginoSans-W4-69cb" d="M 3725 2925 
L 3725 2554 
L 3002 2554 
C 2694 2554 2483 2560 2330 2566 
C 2349 2368 2355 2234 2355 1965 
L 2355 941 
C 2163 941 2061 947 1933 973 
L 1933 525 
C 2067 550 2176 557 2355 557 
L 2355 218 
C 2355 -147 2349 -301 2323 -512 
L 2822 -512 
C 2797 -314 2797 -205 2797 218 
L 2797 557 
L 5171 557 
L 5171 134 
C 5171 -6 5126 -32 4915 -32 
C 4717 -32 4531 -19 4262 19 
C 4307 -122 4339 -269 4352 -410 
C 4538 -422 4800 -435 4934 -435 
C 5472 -435 5606 -326 5606 96 
L 5606 557 
C 5837 557 5946 550 6112 531 
L 6112 979 
C 5952 947 5862 941 5606 941 
L 5606 1939 
C 5606 2246 5613 2432 5632 2586 
C 5472 2560 5286 2554 5024 2554 
L 4141 2554 
L 4141 2925 
L 5459 2925 
C 5747 2925 5888 2918 6080 2893 
L 6080 3341 
C 5907 3315 5741 3302 5466 3302 
L 4928 3302 
L 4928 3699 
L 5242 3699 
C 5485 3699 5613 3693 5760 3674 
L 5760 4096 
C 5606 4070 5453 4064 5235 4064 
L 4928 4064 
L 4928 4442 
L 5408 4442 
C 5670 4442 5779 4435 5965 4410 
L 5965 4845 
C 5798 4819 5651 4806 5408 4806 
L 4928 4806 
C 4928 5043 4934 5178 4966 5331 
L 4461 5331 
C 4493 5210 4493 5146 4499 4806 
L 3482 4806 
C 3482 5101 3488 5197 3514 5331 
L 3014 5331 
C 3040 5197 3046 5088 3053 4806 
L 2714 4806 
C 2470 4806 2330 4813 2163 4838 
L 2163 4416 
C 2330 4435 2490 4442 2720 4442 
L 3053 4442 
L 3053 4064 
L 2886 4064 
C 2662 4064 2515 4070 2362 4090 
L 2362 3674 
C 2522 3693 2656 3699 2886 3699 
L 3053 3699 
L 3053 3302 
L 2650 3302 
C 2368 3302 2221 3309 2054 3334 
L 2054 2893 
C 2234 2918 2387 2925 2662 2925 
L 3725 2925 
z
M 3725 941 
L 2797 941 
L 2797 1402 
L 3725 1402 
L 3725 941 
z
M 4141 941 
L 4141 1402 
L 5171 1402 
L 5171 941 
L 4141 941 
z
M 3725 1766 
L 2797 1766 
L 2797 2189 
L 3725 2189 
L 3725 1766 
z
M 4141 1766 
L 4141 2189 
L 5171 2189 
L 5171 1766 
L 4141 1766 
z
M 3482 3302 
L 3482 3699 
L 4499 3699 
L 4499 3302 
L 3482 3302 
z
M 3482 4064 
L 3482 4442 
L 4499 4442 
L 4499 4064 
L 3482 4064 
z
M 1792 3686 
C 1952 3686 2061 3680 2195 3661 
L 2195 4134 
C 2074 4115 1958 4109 1786 4109 
L 1581 4109 
L 1581 4698 
C 1581 5018 1587 5197 1613 5357 
L 1101 5357 
C 1126 5222 1133 5050 1133 4691 
L 1133 4109 
L 781 4109 
C 576 4109 467 4115 346 4134 
L 346 3661 
C 448 3680 595 3686 781 3686 
L 1062 3686 
C 870 2822 570 2118 154 1536 
C 326 1370 378 1306 467 1152 
C 787 1651 973 2099 1178 2880 
C 1152 2483 1139 2163 1139 1875 
L 1139 243 
C 1139 -77 1126 -326 1101 -512 
L 1619 -512 
C 1587 -326 1581 -102 1581 243 
L 1581 2080 
C 1581 2413 1568 2797 1549 3053 
C 1696 2669 1805 2458 1990 2182 
C 2099 2368 2157 2445 2272 2560 
C 2061 2784 1971 2912 1805 3238 
C 1722 3405 1683 3482 1613 3686 
L 1792 3686 
z
" transform="scale(0.015625)"/>
      <path id="HiraginoSans-W4-9020" d="M 3782 4045 
L 3782 3264 
L 2566 3264 
C 2285 3264 2125 3270 1984 3296 
L 1984 2816 
C 2157 2829 2349 2842 2547 2842 
L 5402 2842 
C 5613 2842 5792 2829 5990 2810 
L 5990 3296 
C 5843 3270 5690 3264 5402 3264 
L 4237 3264 
L 4237 4045 
L 5133 4045 
C 5408 4045 5568 4038 5747 4019 
L 5747 4506 
C 5587 4480 5427 4467 5120 4467 
L 4237 4467 
L 4237 4672 
C 4237 5005 4243 5178 4275 5318 
L 3744 5318 
C 3770 5158 3782 5005 3782 4672 
L 3782 4467 
L 3014 4467 
C 3168 4819 3181 4845 3200 4902 
C 3219 4934 3226 4960 3226 4960 
C 3270 5050 3270 5050 3283 5088 
L 2797 5216 
C 2778 5101 2752 5024 2707 4896 
C 2528 4429 2330 4102 1971 3706 
C 2170 3616 2253 3558 2387 3443 
C 2592 3699 2662 3802 2803 4045 
L 3782 4045 
z
M 4902 646 
C 5197 646 5370 640 5562 621 
C 5542 774 5542 864 5542 1235 
L 5542 1754 
C 5542 2125 5542 2227 5568 2374 
C 5363 2355 5190 2349 4890 2349 
L 3149 2349 
C 2835 2349 2662 2355 2464 2374 
C 2483 2253 2490 2118 2490 1805 
L 2490 1242 
C 2490 845 2483 762 2464 621 
C 2650 640 2803 646 3085 646 
L 4902 646 
z
M 2950 1914 
L 5069 1914 
L 5069 1082 
L 2950 1082 
L 2950 1914 
z
M 416 4896 
C 851 4493 1107 4205 1453 3712 
L 1843 4064 
C 1504 4499 1222 4806 774 5210 
L 416 4896 
z
M 333 2304 
C 474 2330 589 2336 787 2336 
L 1190 2336 
L 1190 832 
C 826 493 442 211 192 102 
L 435 -403 
C 518 -326 589 -269 653 -218 
C 1011 51 1126 147 1408 429 
C 1600 154 1779 -13 2048 -134 
C 2432 -314 2790 -358 3930 -358 
C 4659 -358 5408 -346 6074 -320 
C 6112 -77 6118 -64 6234 230 
C 5574 141 4781 102 3610 102 
C 2880 102 2515 147 2208 282 
C 1939 397 1818 518 1664 826 
L 1664 2118 
C 1664 2445 1670 2592 1696 2803 
C 1542 2778 1395 2771 1203 2771 
L 832 2771 
C 595 2771 486 2778 333 2803 
L 333 2304 
z
" transform="scale(0.015625)"/>
      <path id="HiraginoSans-W4-5305" d="M 5062 4211 
C 5050 3386 4979 2496 4896 2016 
C 4832 1677 4774 1613 4518 1613 
C 4371 1613 4179 1632 3994 1664 
C 4070 1504 4090 1421 4128 1152 
C 4301 1139 4371 1133 4454 1133 
C 4947 1133 5120 1203 5242 1459 
C 5382 1760 5517 2938 5562 4211 
C 5568 4474 5574 4576 5587 4704 
C 5408 4678 5203 4666 4947 4666 
L 1997 4666 
C 2067 4806 2112 4909 2170 5050 
C 2240 5222 2253 5248 2310 5357 
L 1766 5466 
C 1741 5293 1683 5120 1568 4870 
C 1261 4198 858 3648 301 3136 
C 429 3034 576 2854 627 2726 
C 1094 3200 1427 3642 1760 4211 
L 5062 4211 
z
M 1645 1715 
L 3398 1715 
C 3635 1715 3795 1709 3936 1690 
C 3923 1805 3917 1901 3917 2163 
L 3917 3066 
C 3917 3270 3923 3360 3942 3539 
C 3731 3514 3603 3507 3405 3507 
L 1958 3507 
C 1690 3507 1523 3514 1350 3539 
L 1350 3034 
C 1523 3059 1664 3066 1958 3066 
L 3450 3066 
L 3450 2157 
L 1683 2157 
C 1440 2157 1293 2163 1146 2189 
C 1165 2016 1171 1901 1171 1715 
L 1171 371 
C 1171 90 1229 -64 1357 -141 
C 1587 -282 2054 -333 3117 -333 
C 5408 -333 5632 -288 5830 218 
C 5920 429 5933 506 6016 1184 
C 5830 1203 5722 1235 5517 1331 
C 5466 493 5395 288 5120 218 
C 4883 154 4307 128 3174 128 
C 2304 128 1939 147 1773 211 
C 1677 250 1645 307 1645 461 
L 1645 1715 
z
" transform="scale(0.015625)"/>
      <path id="HiraginoSans-W4-542b" d="M 2080 3386 
C 2234 3405 2387 3411 2624 3411 
L 3827 3411 
C 4070 3411 4205 3405 4365 3386 
L 4365 3814 
C 4902 3430 5331 3181 5939 2912 
C 6035 3098 6112 3219 6246 3366 
C 5734 3546 5344 3738 4864 4045 
C 4230 4448 3853 4781 3437 5312 
L 2912 5312 
C 2304 4474 1357 3782 186 3328 
C 352 3155 390 3104 506 2893 
C 1088 3168 1536 3430 2080 3834 
L 2080 3386 
z
M 2618 3821 
C 2368 3821 2253 3827 2099 3846 
C 2502 4154 2778 4422 3181 4896 
C 3546 4474 3846 4192 4320 3846 
C 4192 3827 4058 3821 3834 3821 
L 2618 3821 
z
M 4064 1683 
L 4947 2458 
C 5107 2598 5107 2598 5120 2605 
C 5171 2650 5171 2650 5197 2669 
L 4896 2963 
C 4781 2944 4646 2938 4378 2938 
L 1651 2938 
C 1421 2938 1261 2944 1107 2970 
L 1107 2483 
C 1280 2509 1466 2515 1702 2515 
L 4378 2515 
L 3411 1683 
L 1562 1683 
C 1376 1683 1242 1690 1088 1709 
C 1107 1549 1120 1408 1120 1216 
L 1120 58 
C 1120 -134 1107 -294 1082 -486 
L 1606 -486 
L 1606 -198 
L 4819 -198 
L 4819 -486 
L 5344 -486 
C 5318 -314 5312 -141 5312 51 
L 5312 1203 
C 5312 1408 5318 1542 5338 1709 
C 5197 1690 5069 1683 4870 1683 
L 4064 1683 
z
M 1606 1254 
L 4819 1254 
L 4819 237 
L 1606 237 
L 1606 1254 
z
" transform="scale(0.015625)"/>
      <path id="HiraginoSans-W4-95a2" d="M 4365 1216 
C 4614 1216 4774 1210 4922 1184 
L 4922 1619 
C 4762 1594 4634 1587 4365 1587 
L 3322 1587 
C 3347 1766 3354 1862 3366 2112 
L 4275 2112 
C 4499 2112 4666 2106 4794 2086 
L 4794 2509 
C 4640 2483 4512 2477 4269 2477 
L 3949 2477 
C 4083 2669 4166 2803 4282 3014 
L 3853 3130 
C 3725 2848 3654 2714 3494 2477 
L 2874 2477 
C 2758 2694 2637 2874 2458 3123 
L 2054 2982 
C 2234 2771 2317 2650 2419 2477 
L 2125 2477 
C 1875 2477 1760 2483 1606 2509 
L 1606 2086 
C 1747 2106 1894 2112 2131 2112 
L 2925 2112 
C 2918 1862 2912 1773 2893 1587 
L 2022 1587 
C 1754 1587 1613 1594 1466 1619 
L 1466 1184 
C 1638 1210 1792 1216 2042 1216 
L 2803 1216 
C 2682 909 2541 723 2272 544 
C 2042 384 1811 294 1357 166 
C 1472 45 1542 -64 1632 -230 
C 2125 -58 2387 77 2650 294 
C 2886 486 3034 691 3155 973 
C 3494 499 3910 186 4499 -32 
C 4570 147 4614 230 4723 390 
C 4115 563 3750 800 3430 1216 
L 4365 1216 
z
M 1056 3245 
L 2253 3245 
C 2515 3245 2714 3238 2886 3226 
C 2874 3379 2867 3539 2867 3814 
L 2867 4576 
C 2867 4826 2874 5011 2886 5178 
C 2707 5158 2554 5152 2234 5152 
L 1222 5152 
C 902 5152 736 5158 557 5178 
C 576 4973 582 4794 582 4474 
L 582 269 
C 582 -90 570 -288 544 -467 
L 1094 -467 
C 1069 -307 1056 -96 1056 262 
L 1056 3245 
z
M 1056 4800 
L 2426 4800 
L 2426 4384 
L 1056 4384 
L 1056 4800 
z
M 1056 4038 
L 2426 4038 
L 2426 3603 
L 1056 3603 
L 1056 4038 
z
M 5830 4474 
C 5830 4762 5837 4928 5862 5178 
C 5677 5158 5517 5152 5190 5152 
L 4064 5152 
C 3744 5152 3590 5158 3411 5178 
C 3424 4973 3430 4806 3430 4576 
L 3430 3814 
C 3430 3565 3424 3405 3411 3226 
C 3590 3238 3770 3245 4045 3245 
L 5357 3245 
L 5357 205 
C 5357 64 5312 26 5126 26 
C 4928 26 4838 32 4550 77 
C 4621 -83 4640 -173 4659 -397 
C 4806 -403 4928 -410 5011 -410 
C 5357 -410 5510 -397 5606 -352 
C 5779 -275 5830 -147 5830 166 
L 5830 4474 
z
M 3872 4800 
L 5357 4800 
L 5357 4384 
L 3872 4384 
L 3872 4800 
z
M 3872 4038 
L 5357 4038 
L 5357 3603 
L 3872 3603 
L 3872 4038 
z
" transform="scale(0.015625)"/>
      <path id="HiraginoSans-W4-4fc2" d="M 1792 1805 
C 1914 1824 1914 1824 2669 1843 
L 3584 1882 
L 3584 166 
C 3584 -134 3571 -314 3546 -512 
L 4102 -512 
C 4077 -314 4064 -134 4064 173 
L 4064 1907 
C 4883 1952 4883 1952 5459 2010 
C 5542 1856 5581 1779 5696 1555 
L 6118 1792 
C 5715 2451 5517 2720 5075 3213 
L 4704 3021 
C 4966 2707 5069 2586 5210 2387 
C 4666 2336 4358 2323 3526 2298 
C 3923 2624 4563 3258 4909 3680 
C 5203 4045 5203 4045 5248 4083 
L 4768 4339 
C 4614 4019 4198 3514 3686 3014 
C 3475 3194 3392 3258 3149 3430 
C 3462 3738 3686 4000 4051 4493 
C 4538 4557 5146 4672 5459 4749 
C 5664 4800 5696 4813 5811 4838 
L 5523 5267 
C 5120 5030 3341 4768 2010 4742 
C 2118 4512 2118 4512 2170 4301 
C 2662 4326 2867 4346 3398 4410 
C 3213 4115 3072 3949 2790 3680 
C 2643 3782 2560 3834 2323 3974 
L 2042 3629 
C 2586 3309 2963 3040 3354 2701 
C 3130 2496 3085 2458 2854 2278 
C 2464 2272 2426 2272 2291 2272 
C 2022 2272 1888 2278 1741 2298 
L 1792 1805 
z
M 934 269 
C 934 -83 922 -269 896 -512 
L 1434 -512 
C 1414 -301 1408 -90 1408 275 
L 1408 3789 
C 1600 4211 1747 4595 1856 4928 
C 1914 5107 1920 5120 1971 5248 
L 1440 5382 
C 1414 5165 1325 4845 1197 4486 
C 934 3789 582 3194 166 2733 
C 237 2630 378 2374 422 2253 
C 659 2541 787 2733 954 3072 
C 941 2682 934 2432 934 2163 
L 934 269 
z
M 2650 1619 
C 2515 1235 2426 1056 2253 774 
C 2086 518 1965 378 1696 122 
C 1837 45 1850 32 2029 -109 
C 2042 -122 2074 -147 2106 -173 
C 2592 371 2778 678 3091 1427 
L 2650 1619 
z
M 4602 1434 
C 4979 691 5203 358 5690 -173 
C 5914 6 6048 109 6093 141 
C 5837 378 5734 493 5562 723 
C 5331 1030 5216 1222 5018 1645 
L 4602 1434 
z
" transform="scale(0.015625)"/>
     </defs>
     <use xlink:href="#HiraginoSans-W4-55"/>
     <use xlink:href="#HiraginoSans-W4-6e" transform="translate(78.899994 0)"/>
     <use xlink:href="#HiraginoSans-W4-69" transform="translate(142.299988 0)"/>
     <use xlink:href="#HiraginoSans-W4-66" transform="translate(167.099976 0)"/>
     <use xlink:href="#HiraginoSans-W4-6f" transform="translate(210.499969 0)"/>
     <use xlink:href="#HiraginoSans-W4-72" transform="translate(274.299957 0)"/>
     <use xlink:href="#HiraginoSans-W4-6d" transform="translate(318.999954 0)"/>
     <use xlink:href="#HiraginoSans-W4-53" transform="translate(414.399948 0)"/>
     <use xlink:href="#HiraginoSans-W4-70" transform="translate(482.59993 0)"/>
     <use xlink:href="#HiraginoSans-W4-61" transform="translate(548.999924 0)"/>
     <use xlink:href="#HiraginoSans-W4-63" transform="translate(608.199921 0)"/>
     <use xlink:href="#HiraginoSans-W4-65" transform="translate(667.299911 0)"/>
     <use xlink:href="#HiraginoSans-W4-20" transform="translate(727.499908 0)"/>
     <use xlink:href="#HiraginoSans-W4-306e" transform="translate(760.799896 0)"/>
     <use xlink:href="#HiraginoSans-W4-69cb" transform="translate(860.799881 0)"/>
     <use xlink:href="#HiraginoSans-W4-9020" transform="translate(960.799866 0)"/>
     <use xlink:href="#HiraginoSans-W4-ff08" transform="translate(1060.79985 0)"/>
     <use xlink:href="#HiraginoSans-W4-5305" transform="translate(1160.799835 0)"/>
     <use xlink:href="#HiraginoSans-W4-542b" transform="translate(1260.79982 0)"/>
     <use xlink:href="#HiraginoSans-W4-95a2" transform="translate(1360.799805 0)"/>
     <use xlink:href="#HiraginoSans-W4-4fc2" transform="translate(1460.799789 0)"/>
     <use xlink:href="#HiraginoSans-W4-ff09" transform="translate(1560.799774 0)"/>
    </g>
   </g>
  </g>
 </g>
 <defs>
  <clipPath id="pa040b3224e">
   <rect x="7.2" y="28.302812" width="446.4" height="498.96"/>
  </clipPath>
 </defs>
</svg>
