<?xml version="1.0" encoding="utf-8" standalone="no"?>
<!DOCTYPE svg PUBLIC "-//W3C//DTD SVG 1.1//EN"
  "http://www.w3.org/Graphics/SVG/1.1/DTD/svg11.dtd">
<svg xmlns:xlink="http://www.w3.org/1999/xlink" width="628.2pt" height="311.622187pt" viewBox="0 0 628.2 311.622187" xmlns="http://www.w3.org/2000/svg" version="1.1">
 <metadata>
  <rdf:RDF xmlns:dc="http://purl.org/dc/elements/1.1/" xmlns:cc="http://creativecommons.org/ns#" xmlns:rdf="http://www.w3.org/1999/02/22-rdf-syntax-ns#">
   <cc:Work>
    <dc:type rdf:resource="http://purl.org/dc/dcmitype/StillImage"/>
    <dc:date>2026-04-02T01:10:16.146612</dc:date>
    <dc:format>image/svg+xml</dc:format>
    <dc:creator>
     <cc:Agent>
      <dc:title>Matplotlib v3.10.8, https://matplotlib.org/</dc:title>
     </cc:Agent>
    </dc:creator>
   </cc:Work>
  </rdf:RDF>
 </metadata>
 <defs>
  <style type="text/css">*{stroke-linejoin: round; stroke-linecap: butt}</style>
 </defs>
 <g id="figure_1">
  <g id="patch_1">
   <path d="M 0 311.622187 
L 628.2 311.622187 
L 628.2 0 
L 0 0 
z
" style="fill: #ffffff"/>
  </g>
  <g id="axes_1">
   <g id="patch_2">
    <path d="M 23.94 265.614188 
L 213.66 265.614188 
Q 224.82 265.614188 224.82 254.526187 
L 224.82 77.118187 
Q 224.82 66.030187 213.66 66.030187 
L 23.94 66.030187 
Q 12.78 66.030187 12.78 77.118187 
L 12.78 254.526187 
Q 12.78 265.614188 23.94 265.614188 
z
" clip-path="url(#p5de5b9bfb8)" style="fill: #ffcccc; stroke: #c00000; stroke-width: 2; stroke-linejoin: miter"/>
   </g>
   <g id="patch_3">
    <path d="M 219.24 265.614188 
L 408.96 265.614188 
Q 420.12 265.614188 420.12 254.526187 
L 420.12 77.118187 
Q 420.12 66.030187 408.96 66.030187 
L 219.24 66.030187 
Q 208.08 66.030187 208.08 77.118187 
L 208.08 254.526187 
Q 208.08 265.614188 219.24 265.614188 
z
" clip-path="url(#p5de5b9bfb8)" style="fill: #deeaf1; stroke: #2e75b6; stroke-width: 2; stroke-linejoin: miter"/>
   </g>
   <g id="patch_4">
    <path d="M 414.54 265.614188 
L 604.26 265.614188 
Q 615.42 265.614188 615.42 254.526187 
L 615.42 77.118187 
Q 615.42 66.030187 604.26 66.030187 
L 414.54 66.030187 
Q 403.38 66.030187 403.38 77.118187 
L 403.38 254.526187 
Q 403.38 265.614188 414.54 265.614188 
z
" clip-path="url(#p5de5b9bfb8)" style="fill: #e2efda; stroke: #538135; stroke-width: 2; stroke-linejoin: miter"/>
   </g>
   <g id="text_1">
    <!-- ε-δ 定義 -->
    <g style="fill: #c00000" transform="translate(92.5375 119.132516) scale(0.11 -0.11)">
     <defs>
      <path id="HiraginoSans-W7-3b5" d="M 5146 3078 
C 4947 3302 4832 3398 4634 3507 
C 4339 3674 3981 3750 3526 3750 
C 2477 3750 1766 3270 1766 2554 
C 1766 2240 1952 1958 2227 1869 
C 1978 1818 1862 1773 1715 1664 
C 1453 1472 1312 1190 1312 851 
C 1312 397 1581 19 2016 -128 
C 2304 -230 2656 -282 3014 -282 
C 3488 -282 3872 -198 4224 -19 
C 4461 102 4595 205 4851 480 
L 4141 986 
C 3770 653 3430 518 2982 518 
C 2554 518 2310 672 2310 941 
C 2310 1088 2387 1222 2522 1306 
C 2618 1370 2752 1402 2938 1402 
C 3174 1402 3482 1382 3718 1350 
L 3968 2246 
C 3763 2214 3373 2195 3104 2195 
C 2848 2195 2714 2298 2714 2502 
C 2714 2784 2995 2957 3450 2957 
C 3744 2957 3974 2906 4173 2790 
C 4282 2726 4339 2675 4454 2534 
L 5146 3078 
z
" transform="scale(0.015625)"/>
      <path id="HiraginoSans-W7-2d" d="M 237 1338 
C 448 1363 602 1376 851 1376 
L 1971 1376 
C 2221 1376 2374 1363 2586 1338 
L 2586 2355 
C 2400 2330 2227 2317 1971 2317 
L 851 2317 
C 595 2317 422 2330 237 2355 
L 237 1338 
z
" transform="scale(0.015625)"/>
      <path id="HiraginoSans-W7-3b4" d="M 5363 5062 
C 4832 5133 4397 5158 3930 5158 
C 3475 5158 3238 5120 3078 5018 
C 2950 4934 2867 4787 2867 4640 
C 2867 4499 2925 4403 3123 4173 
C 3334 3936 3437 3814 3558 3635 
C 3424 3693 3296 3712 3104 3712 
C 2598 3712 2118 3526 1747 3194 
C 1306 2784 1050 2157 1050 1466 
C 1050 870 1254 403 1651 83 
C 1926 -147 2336 -269 2810 -269 
C 3469 -269 4077 -6 4467 448 
C 4806 838 5024 1498 5024 2112 
C 5024 2534 4890 2976 4646 3373 
C 4467 3654 4166 4038 4006 4186 
C 3917 4275 3898 4301 3898 4333 
C 3898 4378 3936 4397 4013 4397 
C 4352 4397 4646 4358 5101 4243 
L 5363 5062 
z
M 3258 2938 
C 3731 2938 4019 2630 4019 2131 
C 4019 1747 3885 1312 3686 1030 
C 3469 723 3168 557 2829 557 
C 2317 557 2048 870 2048 1459 
C 2048 1747 2138 2080 2285 2342 
C 2509 2726 2848 2938 3258 2938 
z
" transform="scale(0.015625)"/>
      <path id="HiraginoSans-W7-20" transform="scale(0.015625)"/>
      <path id="HiraginoSans-W7-5b9a" d="M 2893 608 
C 2490 787 2266 986 2016 1402 
C 2112 1715 2195 2010 2272 2330 
L 1434 2483 
C 1395 2086 1210 1498 998 1101 
C 781 698 563 403 218 70 
C 512 -141 666 -294 870 -563 
C 1235 -173 1453 147 1696 627 
C 1971 256 2291 13 2714 -160 
C 3149 -333 3795 -416 4698 -416 
C 5043 -416 5427 -410 5978 -397 
C 6016 -51 6061 134 6176 461 
C 5472 403 5062 384 4640 384 
C 4256 384 3987 397 3693 429 
L 3693 1376 
L 4870 1376 
C 5171 1376 5325 1370 5517 1344 
L 5517 2144 
C 5338 2118 5190 2112 4870 2112 
L 3693 2112 
L 3693 2816 
L 4646 2816 
C 4954 2816 5126 2810 5312 2784 
L 5312 3264 
L 6029 3264 
C 6003 3443 5997 3603 5997 3795 
L 5997 4346 
C 5997 4531 6003 4666 6022 4832 
C 5773 4813 5542 4806 5286 4806 
L 3603 4806 
L 3603 4998 
C 3603 5165 3610 5261 3635 5402 
L 2714 5402 
C 2739 5261 2746 5158 2746 4992 
L 2746 4806 
L 1126 4806 
C 870 4806 640 4813 390 4832 
C 410 4672 416 4512 416 4346 
L 416 3802 
C 416 3565 410 3424 384 3264 
L 1114 3264 
L 1114 2784 
C 1293 2810 1485 2816 1779 2816 
L 2893 2816 
L 2893 608 
z
M 5203 3571 
C 5043 3558 4883 3552 4646 3552 
L 1779 3552 
C 1536 3552 1376 3558 1222 3571 
L 1222 4051 
L 5203 4051 
L 5203 3571 
z
" transform="scale(0.015625)"/>
      <path id="HiraginoSans-W7-7fa9" d="M 5056 1402 
L 5466 1402 
C 5536 1402 5600 1402 5658 1402 
C 5920 1402 6016 1395 6138 1382 
L 6144 2016 
C 5971 1990 5830 1978 5466 1978 
L 5190 1978 
L 5600 2291 
C 5331 2515 5171 2624 4851 2803 
L 5466 2803 
C 5798 2803 5939 2797 6138 2771 
L 6138 3411 
C 5965 3386 5779 3379 5466 3379 
L 3526 3379 
L 3526 3597 
L 4800 3597 
C 5152 3597 5261 3590 5446 3571 
L 5446 4134 
C 5293 4115 5158 4109 4800 4109 
L 3526 4109 
L 3526 4320 
L 5165 4320 
C 5485 4320 5606 4314 5830 4294 
L 5830 4922 
C 5645 4896 5523 4890 5165 4890 
L 4461 4890 
C 4563 4998 4672 5139 4781 5299 
L 3936 5459 
C 3834 5235 3744 5069 3603 4890 
L 2752 4890 
C 2611 5107 2598 5126 2330 5453 
L 1574 5286 
C 1741 5101 1798 5030 1901 4890 
L 1222 4890 
C 883 4890 749 4896 557 4922 
L 557 4294 
C 781 4314 915 4320 1222 4320 
L 2726 4320 
L 2726 4109 
L 1568 4109 
C 1203 4109 1088 4115 922 4134 
L 922 3571 
C 1107 3590 1216 3597 1568 3597 
L 2726 3597 
L 2726 3379 
L 928 3379 
C 614 3379 429 3386 250 3411 
L 250 2771 
C 422 2797 582 2803 928 2803 
L 2669 2803 
C 2285 2656 1568 2579 448 2560 
C 595 2362 627 2310 717 2080 
C 1120 2099 1267 2106 1562 2131 
L 1562 1952 
L 896 1946 
L 794 1946 
C 576 1946 435 1952 256 1978 
L 256 1338 
C 454 1363 582 1370 896 1370 
L 1562 1376 
L 1562 1037 
C 1190 1018 998 1011 774 1011 
C 582 1011 467 1011 314 1024 
L 429 346 
C 493 358 525 365 570 365 
C 634 371 672 371 691 371 
C 749 378 845 384 979 397 
C 1312 422 1312 422 1562 442 
L 1562 205 
C 1562 90 1536 77 1338 77 
C 1171 77 954 96 685 128 
C 800 -134 851 -301 890 -531 
C 1210 -550 1280 -550 1440 -550 
C 1856 -550 2035 -518 2163 -416 
C 2285 -320 2330 -179 2330 70 
L 2330 512 
C 2618 538 2618 538 3245 614 
L 3258 1197 
C 2816 1126 2720 1120 2330 1088 
L 2330 1382 
L 3462 1389 
C 3539 1133 3654 883 3840 576 
C 3411 371 3027 250 2547 160 
C 2720 -51 2829 -224 2944 -486 
C 3533 -294 3795 -186 4243 70 
C 4666 -333 5069 -531 5453 -531 
C 5862 -531 6074 -275 6278 493 
C 6061 602 5978 672 5709 915 
C 5594 371 5523 218 5376 218 
C 5274 218 5114 307 4883 486 
C 5094 640 5408 890 5466 947 
C 5530 1018 5530 1018 5574 1056 
L 5056 1402 
z
M 4960 1402 
C 4877 1280 4710 1120 4480 954 
C 4384 1107 4339 1203 4269 1395 
L 4960 1402 
z
M 4115 1971 
C 4077 2208 4058 2374 4058 2547 
C 4058 2605 4058 2618 4064 2662 
L 3251 2662 
C 3270 2586 3277 2534 3290 2374 
C 3296 2253 3309 2150 3341 1965 
L 2330 1958 
L 2330 2214 
C 2714 2272 2912 2304 3162 2349 
L 2682 2803 
L 4698 2803 
L 4237 2483 
C 4480 2330 4717 2157 4934 1978 
L 4115 1971 
z
" transform="scale(0.015625)"/>
     </defs>
     <use xlink:href="#HiraginoSans-W7-3b5"/>
     <use xlink:href="#HiraginoSans-W7-2d" transform="translate(99.999985 0)"/>
     <use xlink:href="#HiraginoSans-W7-3b4" transform="translate(144.199982 0)"/>
     <use xlink:href="#HiraginoSans-W7-20" transform="translate(244.199966 0)"/>
     <use xlink:href="#HiraginoSans-W7-5b9a" transform="translate(277.499954 0)"/>
     <use xlink:href="#HiraginoSans-W7-7fa9" transform="translate(377.499939 0)"/>
    </g>
   </g>
   <g id="text_2">
    <!-- ∀ε&gt;0, ∃δ&gt;0, -->
    <g style="fill: #333333" transform="translate(90.159648 168.880203) scale(0.085 -0.085)">
     <defs>
      <path id="HiraginoSans-W4-2200" d="M 3590 3610 
L 1274 3610 
L 608 5062 
L 83 4819 
L 2432 -128 
L 4781 4819 
L 4256 5062 
L 3590 3610 
z
M 2432 1088 
L 1517 3091 
L 3347 3091 
L 2432 1088 
z
" transform="scale(0.015625)"/>
      <path id="HiraginoSans-W4-3b5" d="M 4800 2976 
C 4506 3386 4096 3571 3475 3571 
C 2592 3571 1978 3136 1978 2509 
C 1978 2195 2106 1984 2387 1850 
C 2144 1773 2022 1709 1894 1587 
C 1696 1402 1594 1152 1594 858 
C 1594 570 1715 320 1946 134 
C 2157 -26 2541 -122 2982 -122 
C 3424 -122 3795 -26 4096 166 
C 4256 269 4352 365 4525 576 
L 4045 845 
C 3770 518 3418 358 2970 358 
C 2464 358 2170 570 2170 922 
C 2170 1094 2253 1274 2387 1395 
C 2541 1523 2720 1574 3027 1574 
C 3264 1574 3488 1555 3686 1523 
L 3840 2099 
C 3654 2074 3392 2054 3123 2054 
C 2886 2054 2771 2080 2675 2163 
C 2586 2234 2534 2355 2534 2483 
C 2534 2854 2893 3098 3437 3098 
C 3891 3098 4154 2976 4352 2675 
L 4800 2976 
z
" transform="scale(0.015625)"/>
      <path id="HiraginoSans-W4-3e" d="M 2394 1786 
L 186 550 
L 186 -64 
L 3200 1677 
L 3200 1901 
L 186 3642 
L 186 3027 
L 2394 1786 
z
" transform="scale(0.015625)"/>
      <path id="HiraginoSans-W4-30" d="M 2144 -90 
C 2758 -90 3232 141 3565 602 
C 3846 998 4019 1696 4019 2464 
C 4019 3002 3936 3501 3770 3949 
C 3693 4160 3558 4371 3379 4550 
C 3078 4858 2650 5024 2157 5024 
C 1498 5024 986 4742 666 4205 
C 435 3834 288 3142 288 2458 
C 288 1939 371 1434 538 986 
C 614 768 749 563 928 384 
C 1242 70 1651 -90 2144 -90 
z
M 2144 4499 
C 2592 4499 2918 4307 3123 3923 
C 3283 3629 3398 3014 3398 2470 
C 3398 2022 3341 1619 3213 1235 
C 3155 1043 3046 870 2912 730 
C 2726 538 2458 435 2150 435 
C 1734 435 1414 614 1197 973 
C 1024 1261 902 1875 902 2451 
C 902 2906 966 3328 1088 3699 
C 1139 3866 1235 4026 1370 4173 
C 1568 4397 1818 4499 2144 4499 
z
" transform="scale(0.015625)"/>
      <path id="HiraginoSans-W4-2c" d="M 1165 723 
L 435 723 
L 435 0 
L 858 0 
C 851 -403 800 -499 493 -614 
L 685 -864 
C 1062 -672 1165 -493 1165 0 
L 1165 723 
z
" transform="scale(0.015625)"/>
      <path id="HiraginoSans-W4-20" transform="scale(0.015625)"/>
      <path id="HiraginoSans-W4-2203" d="M 3475 2752 
L 678 2752 
L 678 2214 
L 3475 2214 
L 3475 538 
L 685 538 
L 685 0 
L 4070 0 
L 4070 4934 
L 685 4934 
L 685 4397 
L 3475 4397 
L 3475 2752 
z
" transform="scale(0.015625)"/>
      <path id="HiraginoSans-W4-3b4" d="M 5062 4902 
C 4634 4960 4314 4979 3891 4979 
C 3546 4979 3373 4960 3245 4896 
C 3136 4845 3059 4742 3059 4640 
C 3059 4525 3091 4474 3334 4198 
C 3584 3917 3802 3610 3923 3373 
C 3699 3501 3501 3546 3213 3546 
C 2106 3546 1261 2624 1261 1408 
C 1261 474 1843 -115 2771 -115 
C 3443 -115 4045 192 4403 717 
C 4666 1094 4800 1600 4800 2182 
C 4800 2573 4736 2848 4531 3264 
C 4378 3590 4154 3930 3885 4230 
C 3744 4390 3706 4435 3706 4467 
C 3706 4499 3750 4518 3840 4518 
C 4186 4518 4506 4480 4909 4390 
L 5062 4902 
z
M 3277 3072 
C 3859 3072 4218 2694 4218 2080 
C 4218 1645 4077 1216 3827 896 
C 3571 557 3213 378 2797 378 
C 2195 378 1850 762 1850 1414 
C 1850 1760 1939 2099 2112 2387 
C 2374 2829 2784 3072 3277 3072 
z
" transform="scale(0.015625)"/>
     </defs>
     <use xlink:href="#HiraginoSans-W4-2200"/>
     <use xlink:href="#HiraginoSans-W4-3b5" transform="translate(75.999985 0)"/>
     <use xlink:href="#HiraginoSans-W4-3e" transform="translate(175.999969 0)"/>
     <use xlink:href="#HiraginoSans-W4-30" transform="translate(227.999954 0)"/>
     <use xlink:href="#HiraginoSans-W4-2c" transform="translate(295.299942 0)"/>
     <use xlink:href="#HiraginoSans-W4-20" transform="translate(320.299927 0)"/>
     <use xlink:href="#HiraginoSans-W4-2203" transform="translate(353.599915 0)"/>
     <use xlink:href="#HiraginoSans-W4-3b4" transform="translate(429.599899 0)"/>
     <use xlink:href="#HiraginoSans-W4-3e" transform="translate(529.599884 0)"/>
     <use xlink:href="#HiraginoSans-W4-30" transform="translate(581.599869 0)"/>
     <use xlink:href="#HiraginoSans-W4-2c" transform="translate(648.899857 0)"/>
    </g>
    <!-- d(x,y)&lt;δ ⟹ d(f(x),f(y))&lt;ε -->
    <g style="fill: #333333" transform="translate(62.698672 178.620141) scale(0.085 -0.085)">
     <defs>
      <path id="HiraginoSans-W4-64" d="M 3187 0 
L 3802 0 
C 3770 250 3757 442 3757 774 
L 3757 4173 
C 3757 4467 3770 4666 3802 4934 
L 3142 4934 
C 3174 4691 3187 4486 3187 4173 
L 3187 3398 
C 3187 3296 3187 3194 3194 3149 
C 3200 3040 3200 3040 3206 2970 
C 2918 3379 2470 3597 1901 3597 
C 909 3597 282 2886 282 1766 
C 282 1171 461 672 794 339 
C 1069 70 1446 -64 1914 -64 
C 2483 -64 2880 128 3206 563 
C 3200 480 3187 365 3187 288 
L 3187 0 
z
M 1971 3098 
C 2310 3098 2618 2976 2842 2752 
C 3059 2541 3181 2189 3181 1786 
C 3181 966 2707 429 1978 429 
C 1709 429 1459 512 1274 672 
C 1024 890 883 1280 883 1786 
C 883 2598 1293 3098 1971 3098 
z
" transform="scale(0.015625)"/>
      <path id="HiraginoSans-W4-28" d="M 2195 -749 
C 1830 -198 1683 90 1542 538 
C 1402 986 1331 1472 1331 1978 
C 1331 2483 1402 2963 1542 3411 
C 1683 3859 1830 4147 2195 4698 
L 1715 5018 
C 1350 4461 1197 4173 1037 3712 
C 838 3155 742 2579 742 1978 
C 742 1376 838 794 1037 243 
C 1197 -218 1350 -512 1715 -1062 
L 2195 -749 
z
" transform="scale(0.015625)"/>
      <path id="HiraginoSans-W4-78" d="M 3469 0 
C 3238 294 3078 512 3008 614 
L 2138 1824 
L 2963 2982 
C 3021 3072 3168 3270 3206 3322 
C 3315 3462 3315 3462 3354 3520 
L 2630 3520 
C 2566 3386 2483 3238 2368 3072 
L 1792 2227 
L 1203 3072 
C 1088 3238 1024 3360 947 3520 
L 211 3520 
C 474 3174 557 3072 608 3002 
L 1440 1830 
L 531 563 
C 422 410 237 160 109 0 
L 858 0 
C 966 205 1018 294 1114 435 
L 1786 1421 
L 2426 486 
C 2566 288 2624 192 2720 0 
L 3469 0 
z
" transform="scale(0.015625)"/>
      <path id="HiraginoSans-W4-79" d="M 1600 154 
L 1325 -486 
C 1229 -710 1069 -832 858 -832 
C 730 -832 621 -800 442 -717 
L 301 -1274 
C 550 -1325 710 -1344 864 -1344 
C 1357 -1344 1664 -1146 1843 -717 
L 3283 2758 
C 3462 3181 3571 3437 3603 3520 
L 2912 3520 
C 2880 3334 2829 3168 2694 2816 
L 1901 768 
L 1011 2822 
C 902 3072 819 3341 787 3520 
L 64 3520 
C 134 3386 134 3386 422 2758 
L 1600 154 
z
" transform="scale(0.015625)"/>
      <path id="HiraginoSans-W4-29" d="M 653 -1062 
C 1018 -512 1171 -218 1331 243 
C 1530 794 1626 1370 1626 1978 
C 1626 2579 1530 3155 1331 3712 
C 1171 4173 1018 4461 653 5018 
L 173 4698 
C 538 4147 685 3859 826 3411 
C 966 2963 1037 2490 1037 1978 
C 1037 1466 966 986 826 538 
C 685 90 538 -198 173 -749 
L 653 -1062 
z
" transform="scale(0.015625)"/>
      <path id="HiraginoSans-W4-3c" d="M 928 1786 
L 3136 3027 
L 3136 3642 
L 122 1901 
L 122 1677 
L 3136 -64 
L 3136 550 
L 928 1786 
z
" transform="scale(0.015625)"/>
      <path id="STIXGeneral-Regular-27f9" d="M 9722 1651 
L 9722 1587 
Q 9536 1446 9149 1158 
Q 8762 870 8528 694 
Q 8294 518 7968 246 
Q 7642 -26 7379 -288 
L 7245 -160 
Q 7450 77 7725 365 
Q 7731 378 7753 400 
Q 7776 422 7785 428 
Q 7795 435 7811 454 
Q 7827 474 7830 483 
Q 7834 493 7843 512 
Q 7853 531 7856 547 
Q 7859 563 7862 582 
Q 7866 602 7866 627 
Q 7866 672 7821 720 
Q 7776 768 7699 768 
L 352 768 
L 352 1190 
L 8621 1190 
Q 8998 1408 8998 1619 
Q 8998 1792 8627 2048 
L 352 2048 
L 352 2470 
L 7699 2470 
Q 7776 2470 7821 2518 
Q 7866 2566 7866 2611 
Q 7866 2733 7718 2880 
Q 7514 3085 7245 3398 
L 7379 3526 
Q 7642 3264 7974 2982 
Q 8307 2701 8508 2547 
Q 8710 2394 9155 2067 
Q 9600 1741 9722 1651 
z
" transform="scale(0.015625)"/>
      <path id="HiraginoSans-W4-66" d="M 922 3034 
L 922 755 
C 922 467 909 237 877 0 
L 1549 0 
C 1517 224 1504 429 1504 755 
L 1504 3034 
L 1818 3034 
C 2131 3034 2291 3021 2509 2995 
L 2509 3558 
C 2266 3533 2080 3520 1818 3520 
L 1504 3520 
L 1504 3846 
C 1504 4198 1542 4333 1670 4429 
C 1760 4493 1882 4518 2048 4518 
C 2227 4518 2394 4474 2566 4378 
L 2714 4870 
C 2470 4960 2259 4998 2010 4998 
C 1626 4998 1318 4890 1152 4691 
C 986 4506 922 4282 922 3885 
L 922 3520 
L 659 3520 
C 416 3520 243 3533 70 3558 
L 70 2995 
C 269 3021 435 3034 659 3034 
L 922 3034 
z
" transform="scale(0.015625)"/>
     </defs>
     <use xlink:href="#HiraginoSans-W4-64"/>
     <use xlink:href="#HiraginoSans-W4-28" transform="translate(66.299988 0)"/>
     <use xlink:href="#HiraginoSans-W4-78" transform="translate(103.299973 0)"/>
     <use xlink:href="#HiraginoSans-W4-2c" transform="translate(159.199966 0)"/>
     <use xlink:href="#HiraginoSans-W4-79" transform="translate(184.199951 0)"/>
     <use xlink:href="#HiraginoSans-W4-29" transform="translate(241.599945 0)"/>
     <use xlink:href="#HiraginoSans-W4-3c" transform="translate(278.59993 0)"/>
     <use xlink:href="#HiraginoSans-W4-3b4" transform="translate(330.599915 0)"/>
     <use xlink:href="#HiraginoSans-W4-20" transform="translate(430.599899 0)"/>
     <use xlink:href="#STIXGeneral-Regular-27f9" transform="translate(463.899887 0)"/>
     <use xlink:href="#HiraginoSans-W4-20" transform="translate(621.299866 0)"/>
     <use xlink:href="#HiraginoSans-W4-64" transform="translate(654.599854 0)"/>
     <use xlink:href="#HiraginoSans-W4-28" transform="translate(720.899841 0)"/>
     <use xlink:href="#HiraginoSans-W4-66" transform="translate(757.899826 0)"/>
     <use xlink:href="#HiraginoSans-W4-28" transform="translate(801.29982 0)"/>
     <use xlink:href="#HiraginoSans-W4-78" transform="translate(838.299805 0)"/>
     <use xlink:href="#HiraginoSans-W4-29" transform="translate(894.199799 0)"/>
     <use xlink:href="#HiraginoSans-W4-2c" transform="translate(931.199783 0)"/>
     <use xlink:href="#HiraginoSans-W4-66" transform="translate(956.199768 0)"/>
     <use xlink:href="#HiraginoSans-W4-28" transform="translate(999.599762 0)"/>
     <use xlink:href="#HiraginoSans-W4-79" transform="translate(1036.599747 0)"/>
     <use xlink:href="#HiraginoSans-W4-29" transform="translate(1093.999741 0)"/>
     <use xlink:href="#HiraginoSans-W4-29" transform="translate(1130.999725 0)"/>
     <use xlink:href="#HiraginoSans-W4-3c" transform="translate(1167.99971 0)"/>
     <use xlink:href="#HiraginoSans-W4-3b5" transform="translate(1219.999695 0)"/>
    </g>
   </g>
   <g id="text_3">
    <!-- 開集合による定義 -->
    <g style="fill: #2e75b6" transform="translate(270.1 119.132516) scale(0.11 -0.11)">
     <defs>
      <path id="HiraginoSans-W7-958b" d="M 1510 1005 
C 1658 1024 1818 1030 2131 1030 
C 2054 627 1901 378 1504 64 
C 1792 -134 1792 -134 2144 -461 
C 2598 -13 2797 390 2893 1030 
L 3462 1030 
L 3462 186 
C 3462 -96 3456 -198 3437 -358 
L 4237 -358 
C 4218 -230 4211 -109 4211 186 
L 4211 1030 
C 4557 1030 4691 1024 4902 1005 
L 4902 1683 
C 4704 1664 4570 1658 4211 1658 
L 4211 2189 
C 4506 2189 4640 2182 4813 2163 
L 4813 2829 
C 4640 2810 4448 2803 4122 2803 
L 2291 2803 
C 1978 2803 1792 2810 1626 2829 
L 1626 2163 
C 1792 2182 1946 2189 2208 2189 
C 2202 1862 2202 1862 2195 1658 
C 1850 1658 1709 1664 1510 1683 
L 1510 1005 
z
M 3462 2189 
L 3462 1658 
L 2938 1658 
C 2938 1734 2938 1734 2938 1869 
C 2944 2074 2944 2074 2944 2189 
L 3462 2189 
z
M 1280 3085 
L 2445 3085 
C 2643 3085 2854 3078 3002 3072 
C 2989 3219 2989 3328 2989 3635 
L 2989 4666 
C 2989 4902 2995 5062 3008 5261 
C 2842 5242 2694 5235 2355 5235 
L 1101 5235 
C 787 5235 621 5242 448 5261 
C 467 5056 474 4883 474 4531 
L 474 301 
C 474 -115 461 -326 435 -525 
L 1318 -525 
C 1293 -333 1280 -96 1280 288 
L 1280 3085 
z
M 1280 4672 
L 2240 4672 
L 2240 4390 
L 1280 4390 
L 1280 4672 
z
M 1280 3891 
L 2240 3891 
L 2240 3603 
L 1280 3603 
L 1280 3891 
z
M 5946 4544 
C 5946 4877 5952 5037 5971 5261 
C 5798 5242 5632 5235 5318 5235 
L 4013 5235 
C 3686 5235 3533 5242 3360 5261 
C 3373 5075 3379 4902 3379 4666 
L 3379 3635 
C 3379 3347 3379 3232 3366 3072 
C 3578 3078 3699 3085 3923 3085 
L 5146 3085 
L 5146 461 
C 5146 326 5114 301 4954 301 
C 4742 301 4614 314 4378 346 
C 4493 51 4538 -109 4576 -454 
C 4736 -467 4800 -467 4947 -467 
C 5754 -467 5946 -314 5946 339 
L 5946 4544 
z
M 4141 4672 
L 5146 4672 
L 5146 4390 
L 4141 4390 
L 4141 4672 
z
M 4141 3891 
L 5146 3891 
L 5146 3603 
L 4141 3603 
L 4141 3891 
z
" transform="scale(0.015625)"/>
      <path id="HiraginoSans-W7-96c6" d="M 3821 2739 
L 4986 2739 
C 5344 2739 5434 2733 5606 2714 
L 5606 3270 
C 5402 3245 5338 3245 4986 3245 
L 3821 3245 
L 3821 3501 
L 4986 3501 
C 5357 3501 5408 3501 5606 3475 
L 5606 4032 
C 5427 4013 5325 4006 4986 4006 
L 3821 4006 
L 3821 4256 
L 5318 4256 
C 5542 4256 5696 4250 5830 4230 
L 5830 4909 
C 5658 4883 5466 4877 5190 4877 
L 3930 4877 
C 4032 5037 4102 5152 4237 5402 
L 3366 5498 
C 3283 5261 3200 5094 3059 4877 
L 1997 4877 
C 2144 5082 2176 5120 2323 5382 
L 1453 5504 
C 1414 5382 1344 5235 1254 5094 
C 934 4582 608 4237 122 3898 
C 282 3642 365 3482 493 3130 
C 762 3334 845 3418 1030 3642 
C 1018 3386 1011 3283 1011 3098 
L 1011 2438 
C 1011 2208 1005 2042 986 1888 
C 1152 1901 1318 1907 1574 1907 
L 2771 1907 
L 2771 1626 
L 1030 1626 
C 640 1626 461 1632 294 1658 
L 294 928 
C 512 954 691 960 1030 960 
L 2106 960 
C 1862 781 1587 640 1210 499 
C 877 378 602 314 166 250 
C 352 -6 467 -218 576 -506 
C 1030 -390 1325 -288 1677 -128 
C 2189 109 2490 307 2790 602 
C 2778 461 2771 339 2771 205 
L 2771 -115 
C 2771 -314 2758 -422 2733 -557 
L 3635 -557 
C 3603 -429 3597 -333 3597 -109 
L 3597 205 
C 3597 288 3590 410 3578 602 
C 3885 320 4147 141 4589 -70 
C 4979 -256 5312 -371 5811 -499 
C 6022 -26 6022 -13 6227 269 
C 5472 384 4691 659 4243 960 
L 5363 960 
C 5696 960 5882 954 6099 928 
L 6099 1658 
C 5933 1632 5747 1626 5363 1626 
L 3597 1626 
L 3597 1907 
L 5254 1907 
C 5562 1907 5702 1901 5882 1882 
L 5882 2502 
C 5722 2483 5549 2477 5242 2477 
L 3821 2477 
L 3821 2739 
z
M 3021 2739 
L 3021 2477 
L 1805 2477 
L 1805 2739 
L 3021 2739 
z
M 3021 3245 
L 1805 3245 
L 1805 3501 
L 3021 3501 
L 3021 3245 
z
M 3021 4006 
L 1805 4006 
L 1805 4256 
L 3021 4256 
L 3021 4006 
z
" transform="scale(0.015625)"/>
      <path id="HiraginoSans-W7-5408" d="M 1498 2790 
C 1670 2810 1856 2816 2074 2816 
L 4333 2816 
C 4595 2816 4755 2810 4922 2790 
L 4922 3187 
C 5274 2976 5466 2880 5882 2701 
C 6010 3059 6093 3232 6278 3546 
C 5670 3750 5216 3981 4710 4339 
C 4186 4710 3904 4986 3622 5389 
L 2726 5389 
C 2458 4986 2163 4691 1696 4339 
C 1190 3968 691 3699 134 3507 
C 346 3213 422 3059 557 2720 
C 960 2893 1133 2976 1498 3194 
L 1498 2790 
z
M 2099 3584 
C 2579 3930 2835 4186 3187 4659 
C 3539 4218 3834 3949 4326 3584 
L 2099 3584 
z
M 1856 -518 
L 1856 -224 
L 4538 -224 
L 4538 -518 
L 5427 -518 
C 5395 -307 5389 -141 5389 166 
L 5389 1722 
C 5389 2010 5395 2189 5421 2368 
C 5267 2355 5107 2349 4838 2349 
L 1555 2349 
C 1286 2349 1120 2355 973 2368 
C 998 2182 1005 1997 1005 1722 
L 1005 173 
C 1005 -122 992 -301 966 -518 
L 1856 -518 
z
M 1856 1587 
L 4538 1587 
L 4538 525 
L 1856 525 
L 1856 1587 
z
" transform="scale(0.015625)"/>
      <path id="HiraginoSans-W7-306b" d="M 992 5158 
C 973 4973 966 4915 890 4518 
C 717 3584 640 2810 640 2016 
C 640 1395 685 877 806 64 
C 826 -83 832 -134 838 -250 
L 1766 -205 
C 1760 -115 1760 -83 1760 -19 
C 1760 486 1946 1165 2285 1907 
L 1722 2138 
L 1600 1830 
C 1568 1754 1568 1754 1485 1504 
C 1504 2861 1709 4301 1990 5062 
L 992 5158 
z
M 2573 3610 
C 2669 3603 2720 3603 2752 3597 
C 3149 3558 3379 3546 3782 3546 
C 4314 3546 4954 3590 5478 3661 
C 5549 3667 5555 3667 5613 3667 
L 5568 4595 
C 5158 4486 4518 4422 3814 4422 
C 3232 4422 2899 4448 2586 4531 
L 2573 3610 
z
M 2995 2656 
C 2598 2150 2400 1690 2400 1286 
C 2400 1050 2470 806 2592 634 
C 2880 230 3411 38 4224 38 
C 4666 38 5005 70 5568 160 
C 5709 179 5747 186 5850 198 
L 5786 1165 
C 5344 1005 4787 915 4230 915 
C 3642 915 3315 1094 3315 1414 
C 3315 1651 3462 1939 3763 2317 
L 2995 2656 
z
" transform="scale(0.015625)"/>
      <path id="HiraginoSans-W7-3088" d="M 2669 5293 
C 2688 5101 2694 5030 2701 4710 
C 2707 3859 2752 2394 2784 1946 
C 2573 1978 2445 1990 2278 1990 
C 1888 1990 1562 1920 1286 1779 
C 832 1555 602 1203 602 762 
C 602 6 1184 -442 2182 -442 
C 3181 -442 3725 -45 3725 685 
C 3725 717 3725 781 3725 851 
C 4070 678 4262 563 4557 339 
C 4838 122 4998 -19 5133 -186 
L 5722 672 
C 5651 717 5619 736 5530 800 
C 4678 1382 4371 1549 3706 1773 
C 3654 2592 3648 2675 3642 3072 
C 4026 3085 4403 3110 4685 3136 
C 5222 3187 5510 3219 5562 3219 
L 5491 4128 
C 5088 4006 4371 3930 3622 3930 
C 3616 4179 3616 4192 3616 4230 
C 3616 4678 3629 5037 3661 5286 
L 2669 5293 
z
M 2803 1094 
C 2803 1094 2810 992 2810 915 
C 2810 762 2797 685 2752 614 
C 2669 474 2438 384 2176 384 
C 1811 384 1568 531 1568 755 
C 1568 1005 1850 1171 2272 1171 
C 2490 1171 2592 1158 2803 1094 
z
" transform="scale(0.015625)"/>
      <path id="HiraginoSans-W7-308b" d="M 1286 4090 
C 1478 4115 1536 4115 1741 4128 
C 2682 4173 2790 4179 3315 4224 
C 2413 3322 1075 2259 474 1971 
L 986 1146 
C 1779 1856 2656 2221 3597 2221 
C 4333 2221 4806 1920 4806 1453 
C 4806 1050 4621 806 4166 621 
C 4070 883 4000 1018 3872 1171 
C 3603 1504 3200 1690 2746 1690 
C 2067 1690 1568 1274 1568 723 
C 1568 410 1709 128 1958 -58 
C 2227 -262 2701 -378 3258 -378 
C 3872 -378 4435 -243 4864 6 
C 5440 339 5741 838 5741 1459 
C 5741 1907 5587 2259 5274 2522 
C 4928 2810 4480 2957 3936 2957 
C 3565 2957 3245 2912 2880 2803 
C 3398 3168 3603 3334 4269 3930 
C 4768 4371 4774 4371 4909 4448 
L 4454 5114 
C 4346 5062 4269 5050 4019 5030 
C 3424 4986 2630 4954 2080 4954 
C 1696 4954 1485 4966 1248 4998 
L 1286 4090 
z
M 3347 390 
C 3200 358 3174 358 3078 358 
C 2662 358 2419 486 2419 710 
C 2419 864 2547 966 2739 966 
C 3040 966 3251 768 3347 390 
z
" transform="scale(0.015625)"/>
     </defs>
     <use xlink:href="#HiraginoSans-W7-958b"/>
     <use xlink:href="#HiraginoSans-W7-96c6" transform="translate(99.999985 0)"/>
     <use xlink:href="#HiraginoSans-W7-5408" transform="translate(199.999969 0)"/>
     <use xlink:href="#HiraginoSans-W7-306b" transform="translate(299.999954 0)"/>
     <use xlink:href="#HiraginoSans-W7-3088" transform="translate(399.999939 0)"/>
     <use xlink:href="#HiraginoSans-W7-308b" transform="translate(499.999924 0)"/>
     <use xlink:href="#HiraginoSans-W7-5b9a" transform="translate(599.999908 0)"/>
     <use xlink:href="#HiraginoSans-W7-7fa9" transform="translate(699.999893 0)"/>
    </g>
   </g>
   <g id="text_4">
    <!-- V 開集合 ⟹ -->
    <g style="fill: #333333" transform="translate(288.702266 168.759609) scale(0.085 -0.085)">
     <defs>
      <path id="HiraginoSans-W4-56" d="M 1037 4275 
C 954 4506 896 4730 858 4934 
L 83 4934 
C 160 4800 269 4550 410 4186 
L 1779 614 
C 1901 288 1952 141 1984 0 
L 2739 0 
C 2771 141 2829 326 2938 614 
L 4307 4186 
C 4467 4608 4538 4768 4634 4934 
L 3859 4934 
C 3834 4755 3789 4589 3674 4275 
L 2515 1030 
C 2464 896 2438 819 2362 570 
C 2291 800 2240 954 2214 1030 
L 1037 4275 
z
" transform="scale(0.015625)"/>
      <path id="HiraginoSans-W4-958b" d="M 2342 2349 
C 2342 2022 2336 1920 2317 1613 
L 2118 1613 
C 1811 1613 1651 1619 1485 1645 
L 1485 1197 
C 1658 1222 1818 1229 2118 1229 
L 2285 1229 
C 2208 659 2016 339 1510 -38 
C 1677 -134 1766 -211 1888 -352 
C 2426 115 2630 512 2714 1229 
L 3610 1229 
L 3610 256 
C 3610 -13 3603 -160 3578 -294 
L 4077 -294 
C 4051 -173 4045 -32 4045 250 
L 4045 1229 
L 4301 1229 
C 4589 1229 4755 1222 4928 1197 
L 4928 1645 
C 4762 1619 4602 1613 4301 1613 
L 4045 1613 
L 4045 2349 
L 4218 2349 
C 4493 2349 4672 2342 4832 2323 
L 4832 2758 
C 4646 2733 4506 2726 4205 2726 
L 2227 2726 
C 1926 2726 1792 2733 1606 2758 
L 1606 2323 
C 1766 2342 1946 2349 2221 2349 
L 2342 2349 
z
M 3610 2349 
L 3610 1613 
L 2752 1613 
C 2771 1933 2771 1990 2771 2349 
L 3610 2349 
z
M 1062 3174 
L 2278 3174 
C 2554 3174 2726 3168 2912 3155 
C 2899 3322 2893 3475 2893 3744 
L 2893 4582 
C 2893 4826 2899 5005 2912 5190 
C 2733 5171 2579 5165 2259 5165 
L 1229 5165 
C 902 5165 736 5171 563 5190 
C 582 4986 589 4800 589 4480 
L 589 275 
C 589 -90 576 -288 550 -467 
L 1101 -467 
C 1075 -301 1062 -90 1062 269 
L 1062 3174 
z
M 1062 4800 
L 2451 4800 
L 2451 4358 
L 1062 4358 
L 1062 4800 
z
M 1062 4000 
L 2451 4000 
L 2451 3539 
L 1062 3539 
L 1062 4000 
z
M 5830 4480 
C 5830 4774 5837 4960 5862 5190 
C 5683 5171 5523 5165 5190 5165 
L 4090 5165 
C 3763 5165 3610 5171 3437 5190 
C 3450 4986 3456 4813 3456 4582 
L 3456 3744 
C 3456 3482 3450 3322 3437 3155 
C 3616 3168 3814 3174 4070 3174 
L 5357 3174 
L 5357 250 
C 5357 102 5312 70 5126 70 
C 4954 70 4672 96 4435 134 
C 4518 -45 4544 -154 4570 -352 
C 4851 -365 5011 -371 5152 -371 
C 5677 -371 5830 -243 5830 211 
L 5830 4480 
z
M 3898 4800 
L 5357 4800 
L 5357 4358 
L 3898 4358 
L 3898 4800 
z
M 3898 4000 
L 5357 4000 
L 5357 3539 
L 3898 3539 
L 3898 4000 
z
" transform="scale(0.015625)"/>
      <path id="HiraginoSans-W4-96c6" d="M 3526 2778 
L 4864 2778 
C 5165 2778 5299 2771 5453 2746 
L 5453 3174 
C 5254 3149 5146 3142 4864 3142 
L 3526 3142 
L 3526 3565 
L 4864 3565 
C 5165 3565 5280 3558 5453 3533 
L 5453 3962 
C 5261 3936 5139 3930 4864 3930 
L 3526 3930 
L 3526 4352 
L 5190 4352 
C 5446 4352 5574 4346 5734 4326 
L 5734 4774 
C 5555 4749 5421 4742 5139 4742 
L 3584 4742 
C 3693 4890 3802 5056 3962 5338 
L 3450 5434 
C 3373 5184 3277 5005 3085 4742 
L 1766 4742 
C 1837 4832 1971 5030 2176 5338 
L 1645 5446 
C 1600 5306 1523 5158 1427 5005 
C 1094 4486 723 4109 205 3744 
C 339 3597 384 3539 486 3341 
C 781 3571 941 3725 1158 3974 
C 1139 3789 1133 3584 1133 3366 
L 1133 2374 
C 1133 2195 1126 2042 1114 1920 
C 1242 1933 1338 1933 1581 1933 
L 2950 1933 
L 2950 1498 
L 1069 1498 
C 704 1498 531 1504 365 1536 
L 365 1050 
C 576 1075 774 1088 1069 1088 
L 2554 1088 
C 2330 890 2093 730 1766 563 
C 1299 326 877 192 262 83 
C 403 -77 467 -186 550 -378 
C 1005 -262 1389 -122 1741 45 
C 2253 294 2598 531 2970 915 
C 2957 819 2950 557 2950 448 
L 2950 -19 
C 2950 -237 2938 -346 2912 -486 
L 3456 -486 
C 3424 -365 3418 -275 3418 -13 
L 3418 448 
C 3418 576 3411 678 3398 922 
C 3789 544 4051 358 4486 128 
C 4915 -96 5286 -243 5843 -403 
C 5946 -179 5990 -109 6125 64 
C 5197 250 4384 608 3802 1088 
L 5325 1088 
C 5626 1088 5830 1075 6048 1050 
L 6048 1536 
C 5875 1504 5696 1498 5325 1498 
L 3418 1498 
L 3418 1933 
L 5165 1933 
C 5453 1933 5581 1926 5760 1901 
L 5760 2336 
C 5587 2310 5446 2304 5165 2304 
L 3526 2304 
L 3526 2778 
z
M 3078 2778 
L 3078 2304 
L 1600 2304 
L 1600 2778 
L 3078 2778 
z
M 3078 3142 
L 1600 3142 
L 1600 3565 
L 3078 3565 
L 3078 3142 
z
M 3078 3930 
L 1600 3930 
L 1600 4352 
L 3078 4352 
L 3078 3930 
z
" transform="scale(0.015625)"/>
      <path id="HiraginoSans-W4-5408" d="M 1677 2899 
C 1824 2918 1990 2925 2189 2925 
L 4186 2925 
C 4429 2925 4595 2918 4736 2899 
L 4736 3411 
C 5178 3104 5498 2918 5958 2701 
C 6042 2899 6112 3014 6234 3187 
C 5626 3424 5056 3750 4518 4186 
C 4019 4582 3731 4890 3456 5318 
L 2893 5318 
C 2630 4883 2381 4595 1926 4211 
C 1402 3763 832 3424 198 3162 
C 358 2989 422 2893 493 2720 
C 966 2938 1203 3078 1677 3398 
L 1677 2899 
z
M 2195 3386 
C 1971 3386 1811 3392 1690 3411 
C 2355 3878 2733 4256 3187 4890 
C 3597 4320 4032 3898 4730 3411 
C 4595 3392 4435 3386 4186 3386 
L 2195 3386 
z
M 1690 -435 
L 1690 -77 
L 4698 -77 
L 4698 -435 
L 5242 -435 
C 5216 -243 5203 -58 5203 205 
L 5203 1645 
C 5203 1901 5210 2067 5235 2240 
C 5101 2221 4960 2214 4723 2214 
L 1664 2214 
C 1427 2214 1286 2221 1152 2240 
C 1178 2061 1184 1888 1184 1645 
L 1184 205 
C 1184 -51 1171 -230 1146 -435 
L 1690 -435 
z
M 1690 1766 
L 4698 1766 
L 4698 371 
L 1690 371 
L 1690 1766 
z
" transform="scale(0.015625)"/>
     </defs>
     <use xlink:href="#HiraginoSans-W4-56"/>
     <use xlink:href="#HiraginoSans-W4-20" transform="translate(73.599991 0)"/>
     <use xlink:href="#HiraginoSans-W4-958b" transform="translate(106.899979 0)"/>
     <use xlink:href="#HiraginoSans-W4-96c6" transform="translate(206.899963 0)"/>
     <use xlink:href="#HiraginoSans-W4-5408" transform="translate(306.899948 0)"/>
     <use xlink:href="#HiraginoSans-W4-20" transform="translate(406.899933 0)"/>
     <use xlink:href="#STIXGeneral-Regular-27f9" transform="translate(440.199921 0)"/>
    </g>
    <!-- f⁻¹(V) 開集合 -->
    <g style="fill: #333333" transform="translate(287.865547 178.783234) scale(0.085 -0.085)">
     <defs>
      <path id="DejaVuSans-207b" d="M 428 3359 
L 2950 3359 
L 2950 3063 
L 428 3063 
L 428 3359 
z
" transform="scale(0.015625)"/>
      <path id="HiraginoSans-W4-b9" d="M 563 4486 
C 666 4499 749 4506 890 4506 
L 1082 4506 
L 1082 2592 
C 1082 2413 1075 2298 1050 2170 
L 1600 2170 
C 1574 2317 1568 2432 1568 2592 
L 1568 4352 
C 1568 4563 1574 4723 1600 4954 
C 1491 4934 1434 4934 1280 4934 
L 877 4934 
C 704 4934 659 4934 563 4954 
L 563 4486 
z
" transform="scale(0.015625)"/>
     </defs>
     <use xlink:href="#HiraginoSans-W4-66"/>
     <use xlink:href="#DejaVuSans-207b" transform="translate(43.399994 0)"/>
     <use xlink:href="#HiraginoSans-W4-b9" transform="translate(96.183197 0)"/>
     <use xlink:href="#HiraginoSans-W4-28" transform="translate(136.383194 0)"/>
     <use xlink:href="#HiraginoSans-W4-56" transform="translate(173.383179 0)"/>
     <use xlink:href="#HiraginoSans-W4-29" transform="translate(246.98317 0)"/>
     <use xlink:href="#HiraginoSans-W4-20" transform="translate(283.983154 0)"/>
     <use xlink:href="#HiraginoSans-W4-958b" transform="translate(317.283142 0)"/>
     <use xlink:href="#HiraginoSans-W4-96c6" transform="translate(417.283127 0)"/>
     <use xlink:href="#HiraginoSans-W4-5408" transform="translate(517.283112 0)"/>
    </g>
   </g>
   <g id="text_5">
    <!-- フィルター（Lean） -->
    <g style="fill: #538135" transform="translate(456.105 119.132516) scale(0.11 -0.11)">
     <defs>
      <path id="HiraginoSans-W7-30d5" d="M 5242 4819 
C 5069 4762 4941 4749 4659 4749 
L 1728 4749 
C 1197 4749 998 4755 723 4794 
L 723 3814 
C 986 3846 1190 3853 1715 3853 
L 4518 3853 
C 4224 2688 3597 1811 2611 1184 
C 2144 890 1792 723 1235 550 
C 1600 186 1702 45 1914 -365 
C 3014 128 3738 627 4326 1318 
C 4941 2029 5318 2829 5619 4019 
C 5664 4198 5683 4237 5741 4339 
L 5242 4819 
z
" transform="scale(0.015625)"/>
      <path id="HiraginoSans-W7-30a3" d="M 4518 4211 
C 4333 3904 3898 3488 3354 3085 
C 2605 2534 1747 2131 768 1862 
C 998 1562 1069 1446 1235 1082 
C 2118 1408 2528 1587 2976 1869 
L 2976 333 
C 2976 -32 2970 -173 2938 -410 
L 3917 -410 
C 3891 -218 3878 -13 3878 333 
L 3878 2413 
C 4307 2714 4736 3098 5069 3456 
C 5203 3603 5203 3603 5286 3674 
L 4518 4211 
z
" transform="scale(0.015625)"/>
      <path id="HiraginoSans-W7-30eb" d="M 1376 5069 
C 1395 4902 1402 4781 1402 4422 
C 1402 4077 1389 3642 1376 3328 
C 1338 2650 1280 2278 1146 1856 
C 954 1235 678 826 186 390 
C 531 147 653 32 960 -358 
C 1376 64 1613 397 1837 864 
C 2176 1562 2298 2227 2342 3558 
C 2387 4819 2387 4819 2413 5011 
L 1376 5069 
z
M 3130 5114 
C 3149 4954 3155 4806 3155 4525 
C 3155 4467 3155 4410 3155 4346 
L 3130 749 
C 3123 442 3110 314 3066 134 
L 3539 -371 
C 3622 -320 3674 -301 3834 -243 
C 4486 0 4813 186 5184 506 
C 5638 902 5978 1395 6246 2061 
C 5894 2342 5792 2445 5530 2778 
C 5395 2323 5222 1978 4960 1645 
C 4717 1338 4480 1146 4083 928 
L 4115 4333 
C 4122 4768 4128 4845 4166 5107 
L 3130 5114 
z
" transform="scale(0.015625)"/>
      <path id="HiraginoSans-W7-30bf" d="M 2374 5376 
C 2310 5114 2189 4819 2003 4480 
C 1606 3750 1133 3213 403 2643 
C 787 2426 915 2330 1178 2035 
C 1818 2586 2266 3110 2656 3750 
L 4531 3770 
C 4371 3270 4179 2861 3904 2438 
C 3539 2720 3238 2918 2675 3232 
L 2093 2547 
C 2573 2285 2912 2054 3347 1690 
C 3027 1344 2765 1133 2336 858 
C 1958 627 1645 474 1114 262 
C 1421 -26 1530 -160 1747 -544 
C 2656 -128 3354 346 3917 928 
C 4595 1632 5088 2496 5510 3731 
C 5619 4051 5626 4064 5715 4166 
L 5216 4659 
C 5069 4595 4960 4582 4736 4576 
L 3046 4563 
C 3110 4678 3130 4723 3187 4838 
C 3270 5024 3290 5056 3354 5165 
L 2374 5376 
z
" transform="scale(0.015625)"/>
      <path id="HiraginoSans-W7-30fc" d="M 410 1914 
C 659 1939 1024 1952 1581 1952 
L 4813 1952 
C 5312 1952 5734 1939 5990 1920 
L 5990 2970 
C 5696 2931 5466 2925 4819 2925 
L 1581 2925 
C 928 2925 698 2938 410 2976 
L 410 1914 
z
" transform="scale(0.015625)"/>
      <path id="HiraginoSans-W7-ff08" d="M 6240 -589 
C 5830 -26 5658 256 5491 666 
C 5274 1197 5152 1837 5152 2432 
C 5152 3027 5274 3667 5491 4198 
C 5658 4608 5830 4890 6240 5453 
L 5197 5453 
C 4845 4902 4691 4621 4538 4211 
C 4320 3648 4205 3034 4205 2432 
C 4205 1830 4320 1216 4538 653 
C 4691 243 4845 -38 5197 -589 
L 6240 -589 
z
" transform="scale(0.015625)"/>
      <path id="HiraginoSans-W7-4c" d="M 3258 -134 
C 3661 -134 4019 -154 4205 -179 
L 4205 858 
C 3923 826 3699 813 3258 813 
L 1542 813 
L 1542 4096 
C 1542 4595 1549 4678 1594 5069 
L 429 5069 
C 467 4774 480 4525 480 4083 
L 480 736 
C 480 333 467 83 429 -154 
C 666 -141 902 -134 1299 -134 
L 3258 -134 
z
" transform="scale(0.015625)"/>
      <path id="HiraginoSans-W7-65" d="M 4032 1485 
C 4019 1606 4019 1613 4019 1638 
C 3994 2118 3962 2323 3846 2637 
C 3571 3373 2963 3782 2125 3782 
C 973 3782 211 2976 211 1760 
C 211 1139 410 595 774 237 
C 1107 -96 1587 -269 2163 -269 
C 2746 -269 3232 -90 3571 250 
C 3744 416 3840 563 3981 870 
L 3053 1146 
C 2918 755 2611 544 2163 544 
C 1856 544 1606 653 1434 864 
C 1306 1024 1248 1184 1216 1485 
L 4032 1485 
z
M 1235 2227 
C 1357 2726 1664 2982 2138 2982 
C 2432 2982 2675 2874 2829 2675 
C 2925 2547 2970 2432 3008 2227 
L 1235 2227 
z
" transform="scale(0.015625)"/>
      <path id="HiraginoSans-W7-61" d="M 2842 -134 
L 3878 -134 
C 3846 154 3834 346 3834 717 
L 3834 2451 
C 3834 2912 3750 3162 3533 3366 
C 3251 3635 2822 3763 2195 3763 
C 1594 3763 1133 3642 813 3392 
C 589 3219 467 3046 333 2675 
L 1344 2509 
C 1414 2688 1472 2778 1587 2861 
C 1709 2950 1939 3008 2189 3008 
C 2624 3008 2842 2854 2842 2541 
L 2842 2285 
C 2029 2259 1837 2240 1466 2163 
C 672 1984 237 1549 237 928 
C 237 589 365 294 602 96 
C 832 -109 1158 -205 1613 -205 
C 2131 -205 2458 -96 2842 198 
L 2842 -134 
z
M 2842 1357 
C 2842 1133 2765 973 2579 813 
C 2381 646 2067 538 1792 538 
C 1446 538 1254 685 1254 954 
C 1254 1197 1408 1370 1702 1459 
C 1990 1549 2259 1581 2842 1600 
L 2842 1357 
z
" transform="scale(0.015625)"/>
      <path id="HiraginoSans-W7-6e" d="M 1485 -134 
C 1446 179 1434 416 1434 762 
L 1434 2061 
C 1709 2541 2106 2835 2483 2835 
C 2637 2835 2765 2797 2861 2726 
C 3014 2611 3066 2464 3066 2131 
L 3066 762 
C 3066 403 3053 166 3014 -134 
L 4134 -134 
C 4096 128 4083 371 4083 762 
L 4083 2374 
C 4083 3245 3610 3731 2758 3731 
C 2214 3731 1811 3552 1414 3142 
C 1421 3264 1427 3347 1427 3398 
L 1427 3654 
L 371 3654 
C 410 3411 422 3168 422 2758 
L 422 762 
C 422 390 410 154 371 -134 
L 1485 -134 
z
" transform="scale(0.015625)"/>
      <path id="HiraginoSans-W7-ff09" d="M 1203 -589 
C 1555 -38 1709 243 1862 653 
C 2080 1216 2195 1824 2195 2432 
C 2195 3040 2080 3648 1862 4211 
C 1709 4621 1555 4902 1203 5453 
L 160 5453 
C 570 4890 742 4608 909 4198 
C 1126 3667 1248 3027 1248 2432 
C 1248 1837 1126 1197 909 666 
C 742 256 570 -26 160 -589 
L 1203 -589 
z
" transform="scale(0.015625)"/>
     </defs>
     <use xlink:href="#HiraginoSans-W7-30d5"/>
     <use xlink:href="#HiraginoSans-W7-30a3" transform="translate(99.999985 0)"/>
     <use xlink:href="#HiraginoSans-W7-30eb" transform="translate(199.999969 0)"/>
     <use xlink:href="#HiraginoSans-W7-30bf" transform="translate(299.999954 0)"/>
     <use xlink:href="#HiraginoSans-W7-30fc" transform="translate(399.999939 0)"/>
     <use xlink:href="#HiraginoSans-W7-ff08" transform="translate(499.999924 0)"/>
     <use xlink:href="#HiraginoSans-W7-4c" transform="translate(599.999908 0)"/>
     <use xlink:href="#HiraginoSans-W7-65" transform="translate(666.299896 0)"/>
     <use xlink:href="#HiraginoSans-W7-61" transform="translate(732.399887 0)"/>
     <use xlink:href="#HiraginoSans-W7-6e" transform="translate(798.799881 0)"/>
     <use xlink:href="#HiraginoSans-W7-ff09" transform="translate(868.999863 0)"/>
    </g>
   </g>
   <g id="text_6">
    <!-- Filter.Tendsto f -->
    <g style="fill: #333333" transform="translate(476.525586 168.968391) scale(0.085 -0.085)">
     <defs>
      <path id="HiraginoSans-W4-46" d="M 1133 2285 
L 2598 2285 
C 2950 2285 3149 2272 3366 2240 
L 3366 2867 
C 3130 2835 2938 2822 2598 2822 
L 1133 2822 
L 1133 4390 
L 2944 4390 
C 3296 4390 3494 4378 3712 4346 
L 3712 4979 
C 3469 4947 3270 4934 2938 4934 
L 1210 4934 
C 896 4934 698 4941 480 4954 
C 518 4698 531 4493 531 4198 
L 531 794 
C 531 429 518 218 480 0 
L 1184 0 
C 1146 237 1133 429 1133 800 
L 1133 2285 
z
" transform="scale(0.015625)"/>
      <path id="HiraginoSans-W4-69" d="M 442 4934 
L 442 4294 
L 1152 4294 
L 1152 4934 
L 442 4934 
z
M 454 3520 
C 486 3296 499 3085 499 2765 
L 499 755 
C 499 461 486 282 454 0 
L 1133 0 
C 1101 269 1088 448 1088 755 
L 1088 2758 
C 1088 3104 1101 3290 1133 3520 
L 454 3520 
z
" transform="scale(0.015625)"/>
      <path id="HiraginoSans-W4-6c" d="M 442 4934 
C 474 4704 486 4518 486 4179 
L 486 755 
C 486 429 474 250 442 0 
L 1120 0 
C 1088 262 1075 448 1075 755 
L 1075 4179 
C 1075 4512 1088 4698 1120 4934 
L 442 4934 
z
" transform="scale(0.015625)"/>
      <path id="HiraginoSans-W4-74" d="M 851 4480 
C 877 4262 896 4006 896 3750 
L 896 3520 
L 646 3520 
C 378 3520 250 3526 70 3558 
L 70 2995 
C 275 3021 416 3034 640 3034 
L 896 3034 
L 896 787 
C 896 461 954 269 1094 134 
C 1235 6 1466 -64 1773 -64 
C 2042 -64 2246 -26 2515 83 
L 2374 602 
C 2176 486 2048 448 1875 448 
C 1741 448 1632 486 1568 544 
C 1504 608 1478 698 1478 883 
L 1478 3034 
L 1779 3034 
C 2074 3034 2221 3027 2426 2995 
L 2426 3558 
C 2214 3526 2074 3520 1773 3520 
L 1478 3520 
L 1478 3750 
C 1478 4026 1498 4275 1523 4480 
L 851 4480 
z
" transform="scale(0.015625)"/>
      <path id="HiraginoSans-W4-65" d="M 3578 1651 
C 3558 1971 3546 2106 3533 2170 
C 3405 3066 2797 3610 1933 3610 
C 934 3610 282 2880 282 1760 
C 282 621 941 -96 1978 -96 
C 2470 -96 2880 64 3187 371 
C 3341 518 3424 646 3546 915 
L 3008 1114 
C 2944 928 2899 845 2803 742 
C 2605 512 2323 390 1984 390 
C 1613 390 1312 531 1114 800 
C 947 1024 883 1235 858 1651 
L 3578 1651 
z
M 877 2118 
C 915 2349 947 2451 1037 2605 
C 1229 2944 1542 3130 1920 3130 
C 2221 3130 2464 3040 2656 2854 
C 2842 2669 2938 2451 2976 2118 
L 877 2118 
z
" transform="scale(0.015625)"/>
      <path id="HiraginoSans-W4-72" d="M 2784 3520 
C 2522 3565 2394 3578 2195 3578 
C 1862 3578 1568 3488 1350 3315 
C 1242 3238 1165 3142 1056 2976 
C 1062 3027 1062 3040 1069 3085 
C 1069 3104 1069 3117 1069 3130 
C 1069 3162 1069 3181 1069 3187 
L 1069 3520 
L 442 3520 
C 474 3283 486 3104 486 2765 
L 486 755 
C 486 467 480 314 442 0 
L 1114 0 
C 1082 262 1069 448 1069 755 
L 1069 2022 
C 1101 2317 1158 2470 1312 2669 
C 1504 2912 1760 3034 2093 3034 
C 2259 3034 2381 3014 2618 2938 
L 2784 3520 
z
" transform="scale(0.015625)"/>
      <path id="HiraginoSans-W4-2e" d="M 442 723 
L 442 0 
L 1165 0 
L 1165 723 
L 442 723 
z
" transform="scale(0.015625)"/>
      <path id="HiraginoSans-W4-54" d="M 2419 4397 
L 3354 4397 
C 3744 4397 3949 4384 4166 4352 
L 4166 4979 
C 3955 4947 3763 4934 3354 4934 
L 851 4934 
C 499 4934 333 4947 83 4979 
L 83 4352 
C 294 4384 518 4397 858 4397 
L 1818 4397 
L 1818 755 
C 1818 435 1798 192 1766 0 
L 2470 0 
C 2432 237 2419 435 2419 755 
L 2419 4397 
z
" transform="scale(0.015625)"/>
      <path id="HiraginoSans-W4-6e" d="M 1114 0 
C 1082 256 1069 474 1069 755 
L 1069 2010 
C 1139 2272 1222 2426 1395 2630 
C 1658 2944 1933 3085 2266 3085 
C 2752 3085 3002 2797 3002 2234 
L 3002 755 
C 3002 454 2989 269 2957 0 
L 3629 0 
C 3597 218 3584 416 3584 749 
L 3584 2323 
C 3584 2662 3520 2912 3392 3110 
C 3181 3418 2816 3584 2349 3584 
C 1779 3584 1376 3360 1056 2867 
C 1069 3027 1069 3059 1069 3142 
L 1069 3520 
L 442 3520 
C 480 3264 493 3078 493 2765 
L 493 755 
C 493 429 480 256 442 0 
L 1114 0 
z
" transform="scale(0.015625)"/>
      <path id="HiraginoSans-W4-73" d="M 262 973 
C 326 704 378 589 480 448 
C 730 109 1184 -70 1786 -70 
C 2707 -70 3270 339 3270 1011 
C 3270 1293 3136 1555 2912 1722 
C 2720 1862 2483 1946 1894 2074 
C 1510 2157 1357 2208 1210 2285 
C 1075 2355 998 2483 998 2624 
C 998 2944 1312 3162 1760 3162 
C 2042 3162 2259 3078 2400 2925 
C 2483 2835 2515 2758 2554 2598 
L 3155 2688 
C 3066 2982 2982 3136 2810 3283 
C 2573 3494 2208 3610 1754 3610 
C 1299 3610 941 3494 698 3258 
C 518 3091 416 2861 416 2618 
C 416 2310 557 2054 819 1888 
C 1043 1747 1261 1677 1760 1574 
C 2246 1466 2349 1440 2490 1350 
C 2618 1274 2682 1139 2682 973 
C 2682 621 2342 397 1818 397 
C 1504 397 1267 474 1107 614 
C 986 730 934 832 890 1069 
L 262 973 
z
" transform="scale(0.015625)"/>
      <path id="HiraginoSans-W4-6f" d="M 2054 -90 
C 3110 -90 3802 640 3802 1766 
C 3802 2893 3117 3610 2042 3610 
C 966 3610 282 2886 282 1760 
C 282 627 966 -90 2054 -90 
z
M 2054 3130 
C 2771 3130 3213 2605 3213 1754 
C 3213 909 2771 397 2042 397 
C 1318 397 870 922 870 1766 
C 870 2611 1325 3130 2054 3130 
z
" transform="scale(0.015625)"/>
     </defs>
     <use xlink:href="#HiraginoSans-W4-46"/>
     <use xlink:href="#HiraginoSans-W4-69" transform="translate(61.399994 0)"/>
     <use xlink:href="#HiraginoSans-W4-6c" transform="translate(86.199982 0)"/>
     <use xlink:href="#HiraginoSans-W4-74" transform="translate(110.499969 0)"/>
     <use xlink:href="#HiraginoSans-W4-65" transform="translate(150.999954 0)"/>
     <use xlink:href="#HiraginoSans-W4-72" transform="translate(211.199951 0)"/>
     <use xlink:href="#HiraginoSans-W4-2e" transform="translate(255.899948 0)"/>
     <use xlink:href="#HiraginoSans-W4-54" transform="translate(280.899933 0)"/>
     <use xlink:href="#HiraginoSans-W4-65" transform="translate(347.299927 0)"/>
     <use xlink:href="#HiraginoSans-W4-6e" transform="translate(407.499924 0)"/>
     <use xlink:href="#HiraginoSans-W4-64" transform="translate(470.899918 0)"/>
     <use xlink:href="#HiraginoSans-W4-73" transform="translate(537.199905 0)"/>
     <use xlink:href="#HiraginoSans-W4-74" transform="translate(592.499893 0)"/>
     <use xlink:href="#HiraginoSans-W4-6f" transform="translate(632.999878 0)"/>
     <use xlink:href="#HiraginoSans-W4-20" transform="translate(696.799866 0)"/>
     <use xlink:href="#HiraginoSans-W4-66" transform="translate(730.099854 0)"/>
    </g>
    <!--   (nhds x) (nhds (f x)) -->
    <g style="fill: #333333" transform="translate(463.772266 178.574453) scale(0.085 -0.085)">
     <defs>
      <path id="HiraginoSans-W4-68" d="M 1107 0 
C 1075 256 1062 474 1062 755 
L 1062 2003 
C 1139 2272 1229 2438 1402 2643 
C 1645 2931 1933 3078 2259 3078 
C 2490 3078 2682 3002 2810 2861 
C 2931 2726 2995 2522 2995 2240 
L 2995 755 
C 2995 422 2982 224 2944 0 
L 3622 0 
C 3590 230 3578 448 3578 749 
L 3578 2362 
C 3578 3130 3123 3584 2355 3584 
C 1773 3584 1357 3347 1043 2854 
C 1056 3046 1062 3066 1062 3168 
L 1062 4173 
C 1062 4512 1069 4691 1107 4934 
L 442 4934 
C 480 4691 493 4512 493 4179 
L 493 755 
C 493 422 480 250 442 0 
L 1107 0 
z
" transform="scale(0.015625)"/>
     </defs>
     <use xlink:href="#HiraginoSans-W4-20"/>
     <use xlink:href="#HiraginoSans-W4-20" transform="translate(33.299988 0)"/>
     <use xlink:href="#HiraginoSans-W4-28" transform="translate(66.599976 0)"/>
     <use xlink:href="#HiraginoSans-W4-6e" transform="translate(103.59996 0)"/>
     <use xlink:href="#HiraginoSans-W4-68" transform="translate(166.999954 0)"/>
     <use xlink:href="#HiraginoSans-W4-64" transform="translate(230.299942 0)"/>
     <use xlink:href="#HiraginoSans-W4-73" transform="translate(296.59993 0)"/>
     <use xlink:href="#HiraginoSans-W4-20" transform="translate(351.899918 0)"/>
     <use xlink:href="#HiraginoSans-W4-78" transform="translate(385.199905 0)"/>
     <use xlink:href="#HiraginoSans-W4-29" transform="translate(441.099899 0)"/>
     <use xlink:href="#HiraginoSans-W4-20" transform="translate(478.099884 0)"/>
     <use xlink:href="#HiraginoSans-W4-28" transform="translate(511.399872 0)"/>
     <use xlink:href="#HiraginoSans-W4-6e" transform="translate(548.399857 0)"/>
     <use xlink:href="#HiraginoSans-W4-68" transform="translate(611.79985 0)"/>
     <use xlink:href="#HiraginoSans-W4-64" transform="translate(675.099838 0)"/>
     <use xlink:href="#HiraginoSans-W4-73" transform="translate(741.399826 0)"/>
     <use xlink:href="#HiraginoSans-W4-20" transform="translate(796.699814 0)"/>
     <use xlink:href="#HiraginoSans-W4-28" transform="translate(829.999802 0)"/>
     <use xlink:href="#HiraginoSans-W4-66" transform="translate(866.999786 0)"/>
     <use xlink:href="#HiraginoSans-W4-20" transform="translate(910.39978 0)"/>
     <use xlink:href="#HiraginoSans-W4-78" transform="translate(943.699768 0)"/>
     <use xlink:href="#HiraginoSans-W4-29" transform="translate(999.599762 0)"/>
     <use xlink:href="#HiraginoSans-W4-29" transform="translate(1036.599747 0)"/>
    </g>
   </g>
   <g id="patch_5">
    <path d="M 217.898656 165.822187 
Q 216.450387 165.822187 215.002118 165.822187 
" style="fill: none; stroke: #555555; stroke-width: 2; stroke-linecap: round"/>
    <path d="M 221.898656 167.822187 
L 217.898656 165.822187 
L 221.898656 163.822187 
" style="fill: none; stroke: #555555; stroke-width: 2; stroke-linecap: round"/>
    <path d="M 211.002118 163.822187 
L 215.002118 165.822187 
L 211.002118 167.822187 
" style="fill: none; stroke: #555555; stroke-width: 2; stroke-linecap: round"/>
   </g>
   <g id="text_7">
    <!-- 同値 -->
    <g style="fill: #555555" transform="translate(207.45 149.190187) scale(0.09 -0.09)">
     <defs>
      <path id="HiraginoSans-W4-540c" d="M 627 230 
C 627 -45 614 -262 589 -474 
L 1171 -474 
C 1146 -275 1133 -109 1133 224 
L 1133 4602 
L 5286 4602 
L 5286 224 
C 5286 109 5229 83 4992 83 
C 4698 83 4410 102 4019 154 
C 4083 -19 4115 -147 4134 -333 
C 4429 -358 4685 -365 4934 -365 
C 5645 -365 5792 -275 5792 147 
L 5792 4454 
C 5792 4730 5798 4883 5818 5075 
C 5670 5056 5459 5050 5197 5050 
L 1242 5050 
C 979 5050 742 5056 602 5075 
C 621 4896 627 4730 627 4480 
L 627 230 
z
M 1530 3501 
C 1690 3526 1811 3533 2054 3533 
L 4410 3533 
C 4659 3533 4774 3526 4928 3501 
L 4928 4000 
C 4781 3974 4691 3968 4397 3968 
L 2061 3968 
C 1779 3968 1664 3974 1530 4000 
L 1530 3501 
z
M 4474 2496 
C 4474 2688 4480 2771 4493 2893 
C 4371 2880 4250 2874 4019 2874 
L 2368 2874 
C 2202 2874 2086 2880 1939 2893 
C 1952 2765 1958 2643 1958 2490 
L 1958 922 
C 1958 678 1952 525 1933 346 
L 2426 346 
L 2426 883 
L 4090 883 
C 4230 883 4358 877 4493 864 
C 4480 973 4474 1101 4474 1248 
L 4474 2496 
z
M 2426 2445 
L 4000 2445 
L 4000 1312 
L 2426 1312 
L 2426 2445 
z
" transform="scale(0.015625)"/>
      <path id="HiraginoSans-W4-5024" d="M 3840 4282 
C 3802 4090 3782 4013 3706 3725 
L 3565 3725 
C 3322 3725 3181 3731 3034 3744 
C 3040 3686 3046 3507 3059 3200 
L 3059 1216 
C 3059 1018 3053 851 3040 698 
C 3296 717 3386 717 3597 717 
L 5126 717 
C 5338 717 5421 717 5690 698 
C 5670 877 5670 1005 5670 1248 
L 5670 3136 
C 5670 3456 5670 3571 5690 3744 
C 5555 3731 5402 3725 5133 3725 
L 4166 3725 
C 4243 4032 4243 4032 4294 4282 
L 5568 4282 
C 5773 4282 5946 4275 6144 4250 
L 6144 4742 
C 5946 4710 5818 4704 5523 4704 
L 4378 4704 
C 4416 4928 4429 4992 4474 5286 
L 3974 5318 
C 3955 5030 3942 4934 3910 4704 
L 2662 4704 
C 2362 4704 2208 4710 2035 4736 
L 2035 4256 
C 2221 4275 2368 4282 2624 4282 
L 3840 4282 
z
M 3501 3334 
L 5229 3334 
L 5229 2861 
L 3501 2861 
L 3501 3334 
z
M 3501 2477 
L 5229 2477 
L 5229 2003 
L 3501 2003 
L 3501 2477 
z
M 3501 1619 
L 5229 1619 
L 5229 1107 
L 3501 1107 
L 3501 1619 
z
M 915 288 
C 915 -38 902 -243 877 -474 
L 1414 -474 
C 1389 -256 1382 -26 1382 275 
L 1382 3814 
C 1600 4288 1651 4429 1798 4883 
C 1843 5018 1869 5088 1920 5229 
L 1395 5363 
C 1357 5062 1299 4864 1152 4461 
C 896 3770 595 3258 122 2720 
C 218 2592 320 2419 390 2253 
C 640 2573 755 2765 934 3104 
C 915 2733 915 2656 915 2355 
L 915 288 
z
M 2451 -499 
L 2451 -154 
L 5408 -154 
C 5690 -154 5869 -166 6080 -192 
L 6080 314 
C 5907 288 5734 282 5408 282 
L 2451 282 
L 2451 3098 
C 2451 3398 2458 3622 2483 3795 
L 1952 3795 
C 1978 3603 1990 3398 1990 3104 
L 1990 288 
C 1990 -96 1984 -282 1958 -499 
L 2451 -499 
z
" transform="scale(0.015625)"/>
     </defs>
     <use xlink:href="#HiraginoSans-W4-540c"/>
     <use xlink:href="#HiraginoSans-W4-5024" transform="translate(99.999985 0)"/>
    </g>
   </g>
   <g id="patch_6">
    <path d="M 413.198656 165.822187 
Q 411.750387 165.822187 410.302118 165.822187 
" style="fill: none; stroke: #555555; stroke-width: 2; stroke-linecap: round"/>
    <path d="M 417.198656 167.822187 
L 413.198656 165.822187 
L 417.198656 163.822187 
" style="fill: none; stroke: #555555; stroke-width: 2; stroke-linecap: round"/>
    <path d="M 406.302118 163.822187 
L 410.302118 165.822187 
L 406.302118 167.822187 
" style="fill: none; stroke: #555555; stroke-width: 2; stroke-linecap: round"/>
   </g>
   <g id="text_8">
    <!-- 同値 -->
    <g style="fill: #555555" transform="translate(402.75 149.190187) scale(0.09 -0.09)">
     <use xlink:href="#HiraginoSans-W4-540c"/>
     <use xlink:href="#HiraginoSans-W4-5024" transform="translate(99.999985 0)"/>
    </g>
   </g>
   <g id="text_9">
    <!-- 連続性の3つの同値条件 -->
    <g transform="translate(244.725703 17.222187) scale(0.13 -0.13)">
     <defs>
      <path id="HiraginoSans-W4-9023" d="M 3699 4371 
L 3699 3936 
L 2746 3936 
C 2541 3936 2394 3942 2240 3962 
C 2259 3795 2266 3706 2266 3533 
L 2266 2214 
C 2266 2042 2259 1946 2240 1786 
C 2419 1805 2566 1811 2752 1811 
L 3699 1811 
L 3699 1338 
L 2605 1338 
C 2272 1338 2106 1344 1965 1370 
L 1965 915 
C 2106 928 2349 941 2605 941 
L 3699 941 
L 3699 858 
C 3699 659 3686 486 3654 288 
L 4166 288 
C 4141 467 4128 666 4128 864 
L 4128 941 
L 5389 941 
C 5696 941 5888 934 6035 909 
L 6035 1370 
C 5894 1344 5709 1338 5389 1338 
L 4128 1338 
L 4128 1811 
L 5178 1811 
C 5376 1811 5542 1805 5690 1786 
C 5670 1920 5664 2042 5664 2214 
L 5664 3514 
C 5664 3693 5670 3821 5690 3962 
C 5510 3942 5395 3936 5178 3936 
L 4128 3936 
L 4128 4371 
L 5363 4371 
C 5677 4371 5856 4365 6010 4339 
L 6010 4806 
C 5850 4787 5626 4774 5325 4774 
L 4128 4774 
C 4128 4992 4141 5146 4173 5325 
L 3654 5325 
C 3680 5133 3693 4986 3699 4774 
L 2624 4774 
C 2304 4774 2099 4787 1939 4806 
L 1939 4339 
C 2054 4365 2227 4371 2522 4371 
L 3699 4371 
z
M 3699 3558 
L 3699 3072 
L 2707 3072 
L 2707 3558 
L 3699 3558 
z
M 4128 3558 
L 5216 3558 
L 5216 3072 
L 4128 3072 
L 4128 3558 
z
M 3699 2707 
L 3699 2189 
L 2707 2189 
L 2707 2707 
L 3699 2707 
z
M 4128 2707 
L 5216 2707 
L 5216 2189 
L 4128 2189 
L 4128 2707 
z
M 390 4915 
C 845 4499 1043 4269 1414 3744 
L 1798 4096 
C 1376 4627 1165 4851 749 5235 
L 390 4915 
z
M 326 2330 
C 486 2355 582 2362 781 2362 
L 1184 2362 
L 1184 858 
C 832 525 454 243 192 128 
L 435 -378 
C 531 -294 576 -256 685 -173 
C 960 32 1133 186 1408 461 
C 1587 211 1734 70 1952 -51 
C 2355 -275 2733 -333 3789 -333 
C 4589 -333 5453 -314 6035 -294 
C 6086 -32 6086 -19 6202 256 
C 5562 173 4819 134 3578 134 
C 2694 134 2323 211 1965 467 
C 1830 557 1754 653 1658 858 
L 1658 2144 
C 1658 2470 1664 2624 1683 2829 
C 1523 2803 1389 2797 1197 2797 
L 826 2797 
C 582 2797 486 2803 326 2829 
L 326 2330 
z
" transform="scale(0.015625)"/>
      <path id="HiraginoSans-W4-7d9a" d="M 339 2086 
C 448 2106 531 2118 755 2131 
C 864 2138 1024 2150 1293 2182 
L 1293 122 
C 1293 -134 1280 -326 1254 -518 
L 1773 -518 
C 1747 -333 1734 -154 1734 122 
L 1734 2227 
C 1978 2253 2035 2259 2189 2285 
C 2221 2170 2234 2131 2259 1997 
L 2605 2144 
C 2477 2630 2387 2880 2176 3309 
L 1856 3181 
C 1971 2944 2003 2867 2074 2662 
C 1869 2630 1747 2624 1242 2586 
C 1504 2925 1907 3514 2125 3872 
C 2368 4282 2368 4282 2445 4390 
L 2016 4627 
C 1933 4358 1824 4154 1421 3514 
C 1306 3654 1235 3738 1082 3910 
C 1293 4224 1446 4493 1677 4954 
C 1728 5056 1760 5107 1798 5171 
L 1344 5363 
C 1267 5056 1082 4653 806 4205 
C 723 4294 691 4326 518 4506 
L 275 4134 
C 672 3750 877 3520 1165 3130 
C 979 2861 979 2861 762 2560 
C 685 2560 544 2554 506 2554 
C 410 2554 365 2554 275 2566 
L 339 2086 
z
M 3981 4320 
L 3981 3712 
L 3341 3712 
C 3059 3712 2874 3725 2701 3744 
L 2701 3277 
C 2880 3296 3059 3309 3341 3309 
L 5197 3309 
C 5472 3309 5664 3296 5830 3277 
L 5830 3744 
C 5651 3725 5478 3712 5190 3712 
L 4435 3712 
L 4435 4320 
L 5357 4320 
C 5658 4320 5824 4314 6010 4288 
L 6010 4768 
C 5837 4742 5632 4730 5344 4730 
L 4435 4730 
L 4435 4838 
C 4435 5062 4448 5203 4474 5357 
L 3942 5357 
C 3968 5210 3981 5062 3981 4851 
L 3981 4730 
L 3245 4730 
C 2950 4730 2758 4742 2579 4768 
L 2579 4288 
C 2765 4314 2938 4320 3238 4320 
L 3981 4320 
z
M 595 1824 
C 538 934 486 627 288 83 
L 685 -128 
C 864 435 947 883 1011 1754 
L 595 1824 
z
M 1952 1760 
C 2074 1331 2150 928 2202 397 
L 2586 525 
C 2509 1107 2502 1158 2310 1869 
L 1952 1760 
z
M 3085 1683 
L 3085 2451 
L 5510 2451 
L 5510 1683 
L 5997 1683 
C 5978 1773 5971 1907 5971 2086 
L 5971 2464 
C 5971 2643 5978 2752 5990 2886 
C 5830 2861 5645 2854 5331 2854 
L 3226 2854 
C 2912 2854 2752 2861 2624 2874 
C 2643 2758 2650 2662 2650 2438 
L 2650 2112 
C 2650 1933 2643 1837 2624 1683 
L 3085 1683 
z
M 4429 2106 
C 4448 1965 4461 1811 4461 1594 
L 4461 90 
C 4461 -96 4512 -205 4621 -262 
C 4736 -326 4845 -339 5216 -339 
C 5696 -339 5856 -282 5971 -70 
C 6067 102 6112 346 6157 870 
C 5990 902 5875 947 5709 1050 
C 5696 512 5651 243 5562 160 
C 5517 115 5408 96 5210 96 
C 4973 96 4915 128 4915 243 
L 4915 1594 
C 4915 1818 4922 1952 4954 2106 
L 4429 2106 
z
M 3488 2106 
C 3507 1997 3514 1933 3514 1818 
C 3514 1350 3405 941 3213 653 
C 2995 333 2726 147 2208 -38 
C 2362 -166 2451 -275 2528 -448 
C 3078 -192 3328 0 3571 339 
C 3814 691 3936 1101 3974 1690 
C 3994 1958 3994 1990 4013 2106 
L 3488 2106 
z
" transform="scale(0.015625)"/>
      <path id="HiraginoSans-W4-6027" d="M 3840 3520 
L 3840 2246 
L 3123 2246 
C 2848 2246 2675 2259 2502 2285 
L 2502 1773 
C 2675 1798 2906 1811 3174 1811 
L 3840 1811 
L 3840 224 
L 2733 224 
C 2438 224 2221 237 2022 262 
L 2022 -269 
C 2240 -237 2464 -224 2733 -224 
L 5350 -224 
C 5619 -224 5843 -237 6061 -269 
L 6061 262 
C 5862 237 5645 224 5350 224 
L 4314 224 
L 4314 1811 
L 5120 1811 
C 5414 1811 5600 1798 5786 1773 
L 5786 2285 
C 5606 2259 5427 2246 5126 2246 
L 4314 2246 
L 4314 3520 
L 5248 3520 
C 5472 3520 5702 3507 5920 3482 
L 5920 4000 
C 5766 3974 5574 3962 5248 3962 
L 4314 3962 
L 4314 4698 
C 4314 4941 4326 5158 4358 5350 
L 3795 5350 
C 3827 5146 3840 4934 3840 4698 
L 3840 3962 
L 3098 3962 
C 3149 4166 3219 4499 3245 4646 
C 3264 4742 3264 4755 3283 4813 
L 2771 4909 
C 2771 4710 2752 4576 2707 4326 
C 2566 3610 2355 3098 1997 2592 
C 2259 2458 2259 2458 2419 2349 
C 2688 2771 2810 3046 2970 3520 
L 3840 3520 
z
M 608 2278 
C 774 2854 858 3328 902 4045 
L 506 4109 
C 480 3462 403 3027 218 2432 
L 608 2278 
z
M 1613 -512 
C 1587 -294 1574 -77 1574 211 
L 1574 4704 
C 1574 4973 1587 5146 1613 5363 
L 1043 5363 
C 1075 5152 1088 4954 1088 4704 
L 1088 243 
C 1088 -19 1075 -288 1043 -512 
L 1613 -512 
z
M 2330 3296 
C 2246 3667 2138 3994 2022 4256 
L 1690 4122 
C 1843 3763 1901 3565 1965 3142 
L 2330 3296 
z
" transform="scale(0.015625)"/>
      <path id="HiraginoSans-W4-306e" d="M 3053 422 
C 3200 243 3245 160 3328 -96 
C 3821 6 4090 90 4397 237 
C 5293 666 5798 1459 5798 2451 
C 5798 3802 4832 4698 3379 4698 
C 2509 4698 1792 4403 1274 3834 
C 832 3347 589 2707 589 2042 
C 589 1107 1062 422 1709 422 
C 2189 422 2573 806 2938 1645 
C 3238 2323 3469 3264 3578 4205 
C 3891 4186 4070 4141 4294 4032 
C 4902 3738 5242 3174 5242 2477 
C 5242 1734 4870 1107 4230 768 
C 3917 602 3610 512 3053 422 
z
M 3027 4192 
C 2944 3398 2714 2483 2458 1888 
C 2195 1286 1952 992 1702 992 
C 1370 992 1114 1453 1114 2035 
C 1114 2797 1491 3501 2112 3891 
C 2394 4077 2656 4160 3027 4192 
z
" transform="scale(0.015625)"/>
      <path id="HiraginoSans-W4-33" d="M 282 1101 
C 397 768 474 621 621 448 
C 934 90 1434 -96 2112 -96 
C 2720 -96 3213 70 3533 384 
C 3770 614 3904 954 3904 1306 
C 3904 1677 3802 1958 3597 2182 
C 3379 2419 3130 2528 2688 2586 
C 2995 2650 3130 2701 3290 2816 
C 3578 3021 3738 3366 3738 3757 
C 3738 4538 3117 5043 2157 5043 
C 1594 5043 1146 4883 845 4576 
C 666 4390 582 4237 467 3891 
L 1107 3757 
C 1171 3981 1216 4083 1306 4192 
C 1478 4416 1741 4525 2125 4525 
C 2746 4525 3110 4224 3110 3725 
C 3110 3482 3021 3264 2867 3110 
C 2669 2918 2374 2829 1965 2829 
C 1779 2829 1613 2842 1459 2861 
L 1459 2272 
C 1651 2298 1811 2310 2003 2310 
C 2829 2310 3264 1990 3264 1376 
C 3264 794 2816 429 2106 429 
C 1779 429 1510 506 1293 666 
C 1107 800 1024 928 928 1248 
L 282 1101 
z
" transform="scale(0.015625)"/>
      <path id="HiraginoSans-W4-3064" d="M 659 3110 
C 787 3168 851 3187 1139 3270 
C 2234 3578 3066 3725 3738 3725 
C 4589 3725 5107 3302 5107 2605 
C 5107 1894 4608 1325 3712 1018 
C 3219 851 2669 762 1958 742 
C 2086 518 2125 429 2189 166 
C 3226 262 3757 384 4346 672 
C 5216 1094 5702 1786 5702 2605 
C 5702 3629 4941 4262 3718 4262 
C 3181 4262 2618 4192 1882 4032 
C 698 3763 698 3763 518 3757 
L 659 3110 
z
" transform="scale(0.015625)"/>
      <path id="HiraginoSans-W4-6761" d="M 3398 2022 
L 3398 2323 
C 3398 2509 3405 2624 3424 2752 
L 2906 2752 
C 2931 2592 2938 2534 2938 2323 
L 2938 2022 
L 1126 2022 
C 800 2022 646 2029 474 2061 
L 474 1562 
C 672 1587 909 1600 1203 1600 
L 2624 1600 
C 2086 998 1299 506 358 179 
C 493 26 570 -102 646 -288 
C 1165 -58 1664 230 2029 499 
C 2362 742 2605 973 2950 1370 
C 2944 1184 2938 986 2938 838 
L 2938 115 
C 2938 -179 2925 -301 2893 -493 
L 3437 -493 
C 3405 -320 3398 -211 3398 115 
L 3398 845 
C 3398 986 3392 1184 3379 1382 
C 4032 640 4774 128 5850 -326 
C 5952 -102 6010 0 6138 166 
C 5446 397 4960 627 4410 998 
C 4122 1190 3942 1350 3706 1600 
L 5242 1600 
C 5549 1600 5773 1587 5984 1562 
L 5984 2061 
C 5786 2029 5613 2022 5267 2022 
L 3398 2022 
z
M 4653 4928 
C 4486 4902 4358 4896 4064 4896 
L 2669 4896 
C 2886 5139 3014 5286 3046 5318 
L 2515 5453 
C 2304 5094 2099 4845 1722 4531 
C 1376 4237 1018 4026 518 3821 
C 672 3674 736 3590 806 3443 
C 1331 3699 1645 3898 2022 4224 
C 2323 3904 2541 3718 2835 3507 
C 2106 3136 1408 2925 365 2746 
C 480 2586 518 2502 576 2310 
C 1677 2547 2464 2822 3238 3258 
C 3565 3066 3738 2976 3987 2886 
C 4608 2650 5133 2502 5920 2355 
C 5990 2554 6035 2650 6157 2816 
C 5158 2963 4403 3174 3667 3520 
C 4064 3789 4442 4115 4832 4531 
C 4883 4595 4896 4602 4941 4640 
L 4653 4928 
z
M 2336 4512 
L 4179 4512 
C 3853 4186 3622 4000 3238 3744 
C 2861 3968 2669 4122 2323 4499 
L 2336 4512 
z
" transform="scale(0.015625)"/>
      <path id="HiraginoSans-W4-4ef6" d="M 3840 3936 
L 3002 3936 
C 3072 4128 3104 4211 3206 4538 
C 3258 4698 3277 4762 3322 4890 
L 2803 5030 
C 2778 4787 2714 4531 2592 4192 
C 2394 3648 2170 3245 1837 2816 
C 2067 2682 2144 2630 2259 2509 
C 2515 2867 2650 3104 2822 3488 
L 3840 3488 
L 3840 2150 
L 2611 2150 
C 2323 2150 2099 2163 1933 2189 
L 1933 1651 
C 2106 1677 2336 1690 2611 1690 
L 3840 1690 
L 3840 211 
C 3840 -64 3827 -256 3795 -474 
L 4371 -474 
C 4339 -250 4333 -77 4333 211 
L 4333 1690 
L 5485 1690 
C 5715 1690 5965 1677 6163 1651 
L 6163 2189 
C 5952 2163 5773 2150 5478 2150 
L 4333 2150 
L 4333 3488 
L 5229 3488 
C 5434 3488 5651 3475 5894 3450 
L 5894 3974 
C 5722 3949 5549 3936 5229 3936 
L 4333 3936 
L 4333 4614 
C 4333 4890 4339 5062 4371 5274 
L 3795 5274 
C 3827 5069 3840 4877 3840 4621 
L 3840 3936 
z
M 1056 269 
C 1056 -58 1043 -243 1018 -493 
L 1581 -493 
C 1555 -262 1549 -51 1549 256 
L 1549 3789 
C 1766 4250 1850 4448 2022 4966 
C 2074 5107 2093 5158 2125 5254 
L 1600 5408 
C 1568 5171 1498 4915 1370 4582 
C 1088 3827 717 3219 173 2618 
C 320 2419 339 2381 442 2125 
C 730 2458 877 2675 1075 3046 
C 1062 2771 1056 2547 1056 2298 
L 1056 269 
z
" transform="scale(0.015625)"/>
     </defs>
     <use xlink:href="#HiraginoSans-W4-9023"/>
     <use xlink:href="#HiraginoSans-W4-7d9a" transform="translate(99.999985 0)"/>
     <use xlink:href="#HiraginoSans-W4-6027" transform="translate(199.999969 0)"/>
     <use xlink:href="#HiraginoSans-W4-306e" transform="translate(299.999954 0)"/>
     <use xlink:href="#HiraginoSans-W4-33" transform="translate(399.999939 0)"/>
     <use xlink:href="#HiraginoSans-W4-3064" transform="translate(467.299927 0)"/>
     <use xlink:href="#HiraginoSans-W4-306e" transform="translate(567.299911 0)"/>
     <use xlink:href="#HiraginoSans-W4-540c" transform="translate(667.299896 0)"/>
     <use xlink:href="#HiraginoSans-W4-5024" transform="translate(767.299881 0)"/>
     <use xlink:href="#HiraginoSans-W4-6761" transform="translate(867.299866 0)"/>
     <use xlink:href="#HiraginoSans-W4-4ef6" transform="translate(967.29985 0)"/>
    </g>
   </g>
  </g>
 </g>
 <defs>
  <clipPath id="p5de5b9bfb8">
   <rect x="7.2" y="27.222187" width="613.8" height="277.2"/>
  </clipPath>
 </defs>
</svg>
