<?xml version="1.0" encoding="utf-8" standalone="no"?>
<!DOCTYPE svg PUBLIC "-//W3C//DTD SVG 1.1//EN"
  "http://www.w3.org/Graphics/SVG/1.1/DTD/svg11.dtd">
<svg xmlns:xlink="http://www.w3.org/1999/xlink" width="856.8pt" height="370.8pt" viewBox="0 0 856.8 370.8" xmlns="http://www.w3.org/2000/svg" version="1.1">
 <metadata>
  <rdf:RDF xmlns:dc="http://purl.org/dc/elements/1.1/" xmlns:cc="http://creativecommons.org/ns#" xmlns:rdf="http://www.w3.org/1999/02/22-rdf-syntax-ns#">
   <cc:Work>
    <dc:type rdf:resource="http://purl.org/dc/dcmitype/StillImage"/>
    <dc:date>2026-04-02T01:10:16.443076</dc:date>
    <dc:format>image/svg+xml</dc:format>
    <dc:creator>
     <cc:Agent>
      <dc:title>Matplotlib v3.10.8, https://matplotlib.org/</dc:title>
     </cc:Agent>
    </dc:creator>
   </cc:Work>
  </rdf:RDF>
 </metadata>
 <defs>
  <style type="text/css">*{stroke-linejoin: round; stroke-linecap: butt}</style>
 </defs>
 <g id="figure_1">
  <g id="patch_1">
   <path d="M 0 370.8 
L 856.8 370.8 
L 856.8 0 
L 0 0 
z
" style="fill: #ffffff"/>
  </g>
  <g id="axes_1">
   <g id="line2d_1">
    <path d="M 90.36 132.025417 
L 145.8 165.1075 
L 190.152 191.573167 
L 217.872 208.114208 
L 234.504 218.038833 
L 245.592 223.331967 
L 251.136 225.978533 
L 253.908 227.963458 
L 256.68 229.286742 
" clip-path="url(#p0e36769abb)" style="fill: none; stroke: #2e75b6; stroke-width: 1.5; stroke-linecap: square"/>
    <defs>
     <path id="m2869dff20c" d="M 0 3 
C 0.795609 3 1.55874 2.683901 2.12132 2.12132 
C 2.683901 1.55874 3 0.795609 3 0 
C 3 -0.795609 2.683901 -1.55874 2.12132 -2.12132 
C 1.55874 -2.683901 0.795609 -3 0 -3 
C -0.795609 -3 -1.55874 -2.683901 -2.12132 -2.12132 
C -2.683901 -1.55874 -3 -0.795609 -3 0 
C -3 0.795609 -2.683901 1.55874 -2.12132 2.12132 
C -1.55874 2.683901 -0.795609 3 0 3 
z
" style="stroke: #2e75b6"/>
    </defs>
    <g clip-path="url(#p0e36769abb)">
     <use xlink:href="#m2869dff20c" x="90.36" y="132.025417" style="fill: #2e75b6; stroke: #2e75b6"/>
     <use xlink:href="#m2869dff20c" x="145.8" y="165.1075" style="fill: #2e75b6; stroke: #2e75b6"/>
     <use xlink:href="#m2869dff20c" x="190.152" y="191.573167" style="fill: #2e75b6; stroke: #2e75b6"/>
     <use xlink:href="#m2869dff20c" x="217.872" y="208.114208" style="fill: #2e75b6; stroke: #2e75b6"/>
     <use xlink:href="#m2869dff20c" x="234.504" y="218.038833" style="fill: #2e75b6; stroke: #2e75b6"/>
     <use xlink:href="#m2869dff20c" x="245.592" y="223.331967" style="fill: #2e75b6; stroke: #2e75b6"/>
     <use xlink:href="#m2869dff20c" x="251.136" y="225.978533" style="fill: #2e75b6; stroke: #2e75b6"/>
     <use xlink:href="#m2869dff20c" x="253.908" y="227.963458" style="fill: #2e75b6; stroke: #2e75b6"/>
     <use xlink:href="#m2869dff20c" x="256.68" y="229.286742" style="fill: #2e75b6; stroke: #2e75b6"/>
    </g>
   </g>
   <g id="patch_2">
    <path d="M 294.697121 201.237233 
Q 276.492572 214.668777 259.187687 227.436539 
" style="fill: none; stroke: #c00000; stroke-linecap: round"/>
    <path d="M 263.153214 226.74763 
L 259.187687 227.436539 
L 261.015875 223.850772 
" style="fill: none; stroke: #c00000; stroke-linecap: round"/>
   </g>
   <g id="text_1">
    <!-- 極限点 (収束先) -->
    <g style="fill: #c00000" transform="translate(273.312 196.204658) scale(0.09 -0.09)">
     <defs>
      <path id="HiraginoSans-W4-6975" d="M 1037 4134 
L 749 4134 
C 563 4134 422 4141 314 4160 
L 314 3680 
C 448 3699 595 3712 749 3712 
L 992 3712 
C 915 3309 781 2861 640 2515 
C 467 2074 339 1830 122 1523 
C 243 1395 314 1293 410 1101 
C 717 1632 896 2093 1075 2848 
C 1050 2477 1043 2170 1043 1914 
L 1043 250 
C 1043 -77 1030 -320 1005 -506 
L 1523 -506 
C 1498 -333 1491 -115 1491 230 
L 1491 2176 
C 1491 2413 1485 2509 1459 3053 
C 1562 2733 1664 2515 1875 2182 
C 1971 2426 1971 2426 2074 2605 
C 1792 2944 1651 3219 1498 3712 
L 1626 3712 
C 1830 3712 1946 3706 2016 3686 
L 2016 4160 
C 1888 4141 1786 4134 1613 4134 
L 1491 4134 
L 1491 4704 
C 1491 5018 1498 5178 1523 5363 
L 1005 5363 
C 1030 5216 1037 5050 1037 4698 
L 1037 4134 
z
M 5344 4640 
C 5619 4640 5850 4627 6035 4608 
L 6035 5107 
C 5862 5082 5664 5069 5338 5069 
L 2592 5069 
C 2285 5069 2086 5082 1907 5107 
L 1907 4608 
C 2086 4627 2304 4640 2586 4640 
L 3283 4640 
C 3181 4294 3040 3974 2867 3686 
C 2944 3686 2944 3686 3066 3686 
L 3270 3693 
L 3814 3693 
C 3814 2688 3776 1952 3712 1395 
C 3642 845 3622 806 3398 806 
C 3232 806 3046 832 2778 890 
C 2835 736 2861 627 2874 429 
C 3046 410 3270 397 3392 397 
C 3846 397 3974 499 4064 928 
C 4154 1325 4218 2131 4243 3142 
C 4262 3885 4262 3885 4275 4102 
C 4179 4090 4070 4083 3776 4083 
L 3558 4083 
C 3648 4282 3674 4358 3763 4640 
L 5344 4640 
z
M 5786 3802 
C 5658 3795 5555 3789 5427 3789 
L 4890 3789 
C 4646 3789 4525 3795 4403 3814 
L 4403 3366 
C 4506 3379 4595 3386 4736 3386 
L 5498 3386 
C 5421 2854 5344 2560 5184 2176 
C 5005 2586 4941 2784 4832 3309 
L 4467 3200 
C 4595 2592 4730 2195 4960 1734 
C 4723 1350 4518 1126 4134 826 
C 4250 730 4320 634 4416 467 
C 4781 794 4947 979 5184 1344 
C 5421 986 5587 800 5920 493 
C 5990 659 6080 794 6182 902 
C 5824 1184 5690 1331 5414 1734 
C 5568 2022 5677 2310 5779 2701 
C 5818 2835 5882 3136 5971 3590 
L 5786 3802 
z
M 1811 -275 
C 1997 -256 2202 -243 2470 -243 
L 5408 -243 
C 5696 -243 5894 -256 6106 -275 
L 6106 224 
C 5933 198 5715 186 5414 186 
L 2477 186 
C 2182 186 2010 198 1811 224 
L 1811 -275 
z
M 3034 1222 
C 3149 1222 3194 1222 3379 1210 
C 3366 1344 3366 1427 3366 1530 
L 3366 3091 
C 3366 3264 3366 3322 3379 3424 
C 3258 3411 3162 3405 2976 3405 
L 2470 3405 
C 2330 3405 2202 3411 2099 3424 
C 2112 3302 2118 3206 2118 3078 
L 2118 1632 
C 2118 1459 2112 1318 2099 1210 
C 2234 1216 2310 1222 2445 1222 
L 3034 1222 
z
M 2509 3021 
L 2976 3021 
L 2976 1613 
L 2509 1613 
L 2509 3021 
z
" transform="scale(0.015625)"/>
      <path id="HiraginoSans-W4-9650" d="M 3866 2355 
C 4032 1696 4186 1325 4467 896 
C 4832 346 5242 -26 5946 -448 
C 6054 -237 6112 -154 6253 -6 
C 5632 301 5222 627 4890 1075 
C 5190 1280 5440 1466 5670 1645 
C 5914 1843 6042 1939 6054 1952 
L 5683 2298 
C 5542 2099 5107 1741 4653 1440 
C 4493 1741 4416 1946 4314 2355 
L 5146 2355 
C 5370 2355 5542 2349 5734 2336 
C 5715 2522 5709 2618 5709 3008 
L 5709 4384 
C 5709 4781 5715 4928 5728 5088 
C 5581 5062 5434 5056 5120 5056 
L 3411 5056 
C 3104 5056 2950 5062 2790 5082 
C 2810 4864 2816 4672 2816 4416 
L 2816 179 
C 2413 96 2189 58 1997 45 
L 2112 -467 
C 2189 -435 2259 -416 2413 -378 
C 3366 -154 3757 -51 4448 160 
L 4429 614 
C 4013 474 3866 435 3283 288 
L 3283 2355 
L 3866 2355 
z
M 3283 4627 
L 5261 4627 
L 5261 3923 
L 3283 3923 
L 3283 4627 
z
M 3283 3507 
L 5261 3507 
L 5261 2765 
L 3283 2765 
L 3283 3507 
z
M 608 160 
C 608 -102 595 -301 570 -474 
L 1114 -474 
C 1088 -262 1082 -83 1082 160 
L 1082 4698 
L 2074 4698 
C 1811 3994 1715 3776 1376 3149 
C 1677 2822 1792 2656 1901 2406 
C 1990 2195 2042 1958 2042 1734 
C 2042 1485 1958 1414 1670 1414 
C 1555 1414 1414 1427 1286 1446 
C 1350 1293 1382 1171 1395 966 
C 1510 966 1568 966 1638 966 
C 1850 966 2016 986 2157 1024 
C 2394 1094 2522 1318 2522 1664 
C 2522 1856 2502 2003 2464 2163 
C 2381 2522 2246 2765 1888 3194 
C 2125 3635 2298 4000 2445 4358 
C 2605 4749 2605 4749 2650 4838 
L 2387 5158 
C 2317 5133 2182 5126 1965 5126 
L 1030 5126 
C 819 5126 685 5133 589 5146 
C 602 4960 608 4813 608 4634 
L 608 160 
z
" transform="scale(0.015625)"/>
      <path id="HiraginoSans-W4-70b9" d="M 3341 4122 
L 5114 4122 
C 5350 4122 5542 4109 5766 4083 
L 5766 4602 
C 5587 4576 5402 4563 5114 4563 
L 3341 4563 
L 3341 4736 
C 3341 4973 3354 5165 3386 5331 
L 2790 5331 
C 2822 5152 2835 4941 2835 4704 
L 2835 3341 
L 1850 3341 
C 1555 3341 1325 3354 1126 3373 
C 1146 3206 1152 3072 1152 2874 
L 1152 1805 
C 1152 1632 1146 1498 1126 1338 
C 1318 1357 1498 1363 1773 1363 
L 4640 1363 
C 4922 1363 5088 1357 5286 1338 
C 5267 1491 5261 1606 5261 1811 
L 5261 2874 
C 5261 3085 5267 3232 5286 3373 
C 5107 3347 4915 3341 4570 3341 
L 3341 3341 
L 3341 4122 
z
M 4774 2893 
L 4774 1818 
L 1645 1818 
L 1645 2893 
L 4774 2893 
z
M 749 -474 
C 1126 -19 1331 352 1562 966 
L 1114 1146 
C 1005 806 941 659 781 403 
C 627 147 531 26 294 -205 
L 749 -474 
z
M 2803 -378 
C 2778 109 2733 435 2618 1018 
L 2176 947 
C 2278 410 2304 141 2304 -474 
L 2803 -378 
z
M 4378 -288 
C 4211 211 4070 563 3827 1069 
L 3405 941 
C 3648 397 3776 26 3885 -480 
L 4378 -288 
z
M 5984 -205 
C 5632 429 5504 640 5126 1165 
L 4704 986 
C 5069 474 5242 160 5523 -467 
L 5984 -205 
z
" transform="scale(0.015625)"/>
      <path id="HiraginoSans-W4-20" transform="scale(0.015625)"/>
      <path id="HiraginoSans-W4-28" d="M 2195 -749 
C 1830 -198 1683 90 1542 538 
C 1402 986 1331 1472 1331 1978 
C 1331 2483 1402 2963 1542 3411 
C 1683 3859 1830 4147 2195 4698 
L 1715 5018 
C 1350 4461 1197 4173 1037 3712 
C 838 3155 742 2579 742 1978 
C 742 1376 838 794 1037 243 
C 1197 -218 1350 -512 1715 -1062 
L 2195 -749 
z
" transform="scale(0.015625)"/>
      <path id="HiraginoSans-W4-53ce" d="M 1190 4026 
C 1190 4307 1203 4493 1229 4710 
L 672 4710 
C 704 4480 717 4301 717 4026 
L 717 1261 
C 499 1203 448 1190 250 1152 
L 358 640 
C 480 685 499 691 634 736 
C 1235 947 1606 1094 2035 1280 
L 2035 218 
C 2035 -58 2022 -243 1990 -467 
L 2560 -467 
C 2534 -243 2522 -64 2522 218 
L 2522 4614 
C 2522 4896 2534 5075 2560 5306 
L 1990 5306 
C 2022 5075 2035 4890 2035 4614 
L 2035 1741 
C 1754 1619 1606 1555 1190 1414 
L 1190 4026 
z
M 3322 4909 
C 3072 4909 2918 4915 2733 4947 
L 2733 4422 
C 2854 4442 2938 4448 3142 4454 
C 3238 3642 3290 3366 3437 2848 
C 3610 2259 3814 1805 4115 1325 
C 3674 736 3174 294 2554 -64 
C 2733 -250 2797 -346 2867 -512 
C 3514 -83 3962 326 4410 909 
C 4512 774 4589 685 4698 563 
C 5114 128 5427 -134 5933 -480 
C 6048 -230 6093 -160 6221 6 
C 5542 429 5158 762 4710 1338 
C 5306 2291 5658 3334 5856 4762 
C 5875 4870 5875 4870 5882 4934 
C 5696 4915 5568 4909 5395 4909 
L 3322 4909 
z
M 5306 4454 
C 5139 3341 4870 2534 4410 1760 
C 4173 2150 4006 2547 3853 3091 
C 3725 3552 3686 3782 3616 4454 
L 5306 4454 
z
" transform="scale(0.015625)"/>
      <path id="HiraginoSans-W4-675f" d="M 2880 4250 
L 2880 3667 
L 1638 3667 
C 1299 3667 1082 3680 934 3699 
C 954 3507 960 3360 960 3021 
L 960 2451 
C 960 2093 954 1965 934 1779 
C 1101 1798 1306 1811 1670 1811 
L 2592 1811 
C 2131 1158 1229 538 205 160 
C 358 -6 410 -96 499 -282 
C 1088 -32 1562 243 2016 608 
C 2406 922 2605 1126 2899 1523 
C 2880 1165 2880 1165 2880 1050 
L 2880 186 
C 2880 -134 2867 -294 2835 -493 
L 3405 -493 
C 3366 -301 3360 -160 3360 186 
L 3360 1050 
C 3360 1152 3354 1261 3341 1530 
C 3699 1056 3936 832 4410 493 
C 4832 192 5286 -45 5901 -294 
C 5997 -90 6080 38 6195 179 
C 5075 518 4198 1075 3629 1811 
L 4717 1811 
C 5062 1811 5280 1798 5440 1779 
C 5421 1952 5414 2176 5414 2451 
L 5414 3034 
C 5414 3360 5421 3482 5440 3699 
C 5274 3674 5082 3667 4723 3667 
L 3360 3667 
L 3360 4250 
L 5395 4250 
C 5626 4250 5843 4237 6042 4211 
L 6042 4749 
C 5862 4717 5709 4704 5382 4704 
L 3360 4704 
L 3360 4736 
C 3360 4979 3373 5152 3405 5338 
L 2835 5338 
C 2867 5158 2880 4992 2880 4736 
L 2880 4704 
L 973 4704 
C 678 4704 512 4717 326 4749 
L 326 4211 
C 518 4237 730 4250 966 4250 
L 2880 4250 
z
M 2880 3232 
L 2880 2240 
L 1427 2240 
L 1427 3232 
L 2880 3232 
z
M 3360 3232 
L 4947 3232 
L 4947 2240 
L 3360 2240 
L 3360 3232 
z
" transform="scale(0.015625)"/>
      <path id="HiraginoSans-W4-5148" d="M 2957 3814 
L 2957 2746 
L 1075 2746 
C 781 2746 582 2758 403 2784 
L 403 2246 
C 595 2272 794 2285 1075 2285 
L 2189 2285 
C 2170 1997 2163 1875 2138 1741 
C 2067 1274 1907 928 1658 678 
C 1312 333 909 115 282 -83 
C 474 -326 506 -384 589 -550 
C 1261 -275 1600 -70 1965 282 
C 2445 749 2624 1248 2694 2285 
L 3584 2285 
L 3584 58 
C 3584 -314 3776 -410 4550 -410 
C 5408 -410 5651 -346 5811 -64 
C 5920 122 5978 416 6022 992 
C 5805 1050 5690 1094 5523 1184 
C 5523 691 5498 442 5421 269 
C 5344 96 5197 58 4653 58 
C 4160 58 4077 83 4077 243 
L 4077 2285 
L 5382 2285 
C 5670 2285 5862 2272 6061 2246 
L 6061 2784 
C 5882 2758 5683 2746 5382 2746 
L 3450 2746 
L 3450 3814 
L 4934 3814 
C 5203 3814 5389 3802 5568 3776 
L 5568 4307 
C 5395 4282 5210 4269 4934 4269 
L 3450 4269 
L 3450 4723 
C 3450 4966 3462 5126 3488 5312 
L 2918 5312 
C 2950 5101 2957 4960 2957 4723 
L 2957 4269 
L 1856 4269 
C 1946 4461 1978 4544 2074 4787 
C 2131 4947 2144 4979 2195 5088 
L 1664 5222 
C 1613 4934 1523 4672 1357 4339 
C 1114 3872 954 3667 525 3264 
C 691 3162 768 3098 922 2931 
C 1216 3238 1402 3475 1613 3814 
L 2957 3814 
z
" transform="scale(0.015625)"/>
      <path id="HiraginoSans-W4-29" d="M 653 -1062 
C 1018 -512 1171 -218 1331 243 
C 1530 794 1626 1370 1626 1978 
C 1626 2579 1530 3155 1331 3712 
C 1171 4173 1018 4461 653 5018 
L 173 4698 
C 538 4147 685 3859 826 3411 
C 966 2963 1037 2490 1037 1978 
C 1037 1466 966 986 826 538 
C 685 90 538 -198 173 -749 
L 653 -1062 
z
" transform="scale(0.015625)"/>
     </defs>
     <use xlink:href="#HiraginoSans-W4-6975"/>
     <use xlink:href="#HiraginoSans-W4-9650" transform="translate(99.999985 0)"/>
     <use xlink:href="#HiraginoSans-W4-70b9" transform="translate(199.999969 0)"/>
     <use xlink:href="#HiraginoSans-W4-20" transform="translate(299.999954 0)"/>
     <use xlink:href="#HiraginoSans-W4-28" transform="translate(333.299942 0)"/>
     <use xlink:href="#HiraginoSans-W4-53ce" transform="translate(370.299927 0)"/>
     <use xlink:href="#HiraginoSans-W4-675f" transform="translate(470.299911 0)"/>
     <use xlink:href="#HiraginoSans-W4-5148" transform="translate(570.299896 0)"/>
     <use xlink:href="#HiraginoSans-W4-29" transform="translate(670.299881 0)"/>
    </g>
   </g>
   <g id="text_2">
    <g id="patch_3">
     <path d="M 108.468281 321.875083 
L 238.571719 321.875083 
Q 241.271719 321.875083 241.271719 319.175083 
L 241.271719 309.481802 
Q 241.271719 306.781802 238.571719 306.781802 
L 108.468281 306.781802 
Q 105.768281 306.781802 105.768281 309.481802 
L 105.768281 319.175083 
Q 105.768281 321.875083 108.468281 321.875083 
z
" style="fill: #deeaf1; stroke: #2e75b6; stroke-linejoin: miter"/>
    </g>
    <!-- すべての Cauchy 列が収束する -->
    <g style="fill: #2e75b6" transform="translate(108.468281 317.285083) scale(0.09 -0.09)">
     <defs>
      <path id="HiraginoSans-W4-3059" d="M 3507 4326 
C 2790 4307 2509 4301 1965 4282 
C 998 4243 960 4243 787 4243 
C 691 4243 640 4243 512 4250 
L 531 3699 
C 928 3763 2419 3846 3514 3866 
C 3514 3514 3520 3181 3526 3123 
L 3526 3078 
C 3366 3245 3117 3334 2816 3334 
C 2131 3334 1632 2874 1632 2246 
C 1632 1645 2093 1203 2720 1203 
C 3053 1203 3334 1318 3526 1536 
C 3597 1613 3635 1683 3699 1818 
C 3680 1562 3629 1376 3514 1171 
C 3238 672 2746 358 1920 134 
C 2074 -32 2118 -102 2246 -358 
C 2765 -166 3034 -32 3302 160 
C 3885 589 4179 1158 4179 1850 
C 4179 2157 4134 2368 4019 2643 
C 4019 3494 4019 3494 4019 3872 
C 4531 3878 4640 3878 4730 3878 
C 5434 3878 5664 3872 5907 3846 
L 5907 4384 
C 5696 4358 5210 4346 4013 4339 
C 4013 4883 4019 4979 4045 5178 
L 3469 5178 
C 3488 5043 3494 4979 3501 4806 
L 3507 4326 
z
M 2861 2906 
C 3059 2906 3238 2842 3366 2720 
C 3456 2630 3494 2534 3494 2381 
C 3494 1965 3200 1677 2784 1677 
C 2413 1677 2157 1926 2157 2285 
C 2157 2637 2458 2906 2861 2906 
z
" transform="scale(0.015625)"/>
      <path id="HiraginoSans-W4-3079" d="M 710 1453 
C 755 1517 774 1536 826 1594 
C 1344 2170 1568 2438 2042 3072 
C 2336 3456 2381 3501 2515 3501 
C 2618 3501 2714 3430 2874 3245 
C 3456 2579 3712 2291 4045 1952 
C 4454 1536 5242 813 5645 480 
C 5741 403 5754 384 5818 320 
L 6086 973 
C 5926 1043 5798 1139 5523 1363 
C 4890 1882 4128 2630 3520 3328 
C 3270 3622 3136 3770 3072 3834 
C 2874 4026 2701 4109 2509 4109 
C 2336 4109 2170 4032 1997 3878 
C 1907 3802 1837 3718 1658 3488 
C 1011 2656 589 2189 339 2022 
L 710 1453 
z
M 4160 4307 
C 4422 4013 4627 3693 4826 3296 
L 5203 3507 
C 4979 3923 4832 4141 4531 4499 
L 4160 4307 
z
M 4902 4653 
C 5184 4320 5376 4032 5562 3661 
L 5933 3872 
C 5702 4294 5562 4493 5261 4845 
L 4902 4653 
z
" transform="scale(0.015625)"/>
      <path id="HiraginoSans-W4-3066" d="M 621 3693 
C 960 3763 1485 3814 2726 3898 
C 3418 3942 3725 3974 4134 4038 
C 3053 3552 2419 2714 2419 1786 
C 2419 1210 2688 717 3181 403 
C 3558 160 3936 38 4595 -70 
C 4698 -90 4723 -90 4800 -109 
L 4890 512 
C 4582 512 4250 570 3930 672 
C 3290 883 2970 1274 2970 1837 
C 2970 2438 3334 3021 3981 3462 
C 4486 3808 5094 4013 5613 4013 
C 5626 4013 5658 4013 5690 4013 
L 5645 4582 
C 5542 4557 5286 4531 4896 4518 
C 3840 4467 2086 4371 1190 4307 
C 992 4294 909 4288 819 4288 
C 781 4288 723 4288 589 4294 
L 621 3693 
z
" transform="scale(0.015625)"/>
      <path id="HiraginoSans-W4-306e" d="M 3053 422 
C 3200 243 3245 160 3328 -96 
C 3821 6 4090 90 4397 237 
C 5293 666 5798 1459 5798 2451 
C 5798 3802 4832 4698 3379 4698 
C 2509 4698 1792 4403 1274 3834 
C 832 3347 589 2707 589 2042 
C 589 1107 1062 422 1709 422 
C 2189 422 2573 806 2938 1645 
C 3238 2323 3469 3264 3578 4205 
C 3891 4186 4070 4141 4294 4032 
C 4902 3738 5242 3174 5242 2477 
C 5242 1734 4870 1107 4230 768 
C 3917 602 3610 512 3053 422 
z
M 3027 4192 
C 2944 3398 2714 2483 2458 1888 
C 2195 1286 1952 992 1702 992 
C 1370 992 1114 1453 1114 2035 
C 1114 2797 1491 3501 2112 3891 
C 2394 4077 2656 4160 3027 4192 
z
" transform="scale(0.015625)"/>
      <path id="HiraginoSans-W4-43" d="M 4544 3654 
C 4390 4064 4269 4269 4026 4506 
C 3661 4858 3174 5030 2560 5030 
C 1946 5030 1453 4845 1075 4480 
C 589 4006 320 3296 320 2458 
C 320 1651 570 947 1018 493 
C 1389 109 1920 -90 2554 -90 
C 3277 -90 3878 173 4237 640 
C 4403 858 4493 1062 4608 1459 
L 3968 1594 
C 3910 1306 3853 1152 3718 966 
C 3475 634 3066 448 2573 448 
C 1581 448 947 1235 947 2477 
C 947 3718 1568 4493 2573 4493 
C 3014 4493 3386 4339 3629 4051 
C 3763 3891 3834 3763 3923 3488 
L 4544 3654 
z
" transform="scale(0.015625)"/>
      <path id="HiraginoSans-W4-61" d="M 2765 0 
L 3373 0 
C 3334 269 3322 422 3322 736 
L 3322 2515 
C 3322 2867 3238 3110 3046 3290 
C 2816 3514 2464 3622 1978 3622 
C 1485 3622 1094 3507 813 3270 
C 627 3123 531 2976 416 2656 
L 1011 2541 
C 1069 2714 1114 2797 1197 2886 
C 1370 3066 1626 3155 1971 3155 
C 2515 3155 2765 2950 2765 2515 
L 2765 2182 
C 1933 2163 1581 2118 1197 1997 
C 646 1818 333 1434 333 941 
C 333 320 774 -58 1491 -58 
C 1741 -58 1978 -19 2195 64 
C 2406 141 2522 218 2765 429 
L 2765 0 
z
M 2765 1363 
C 2765 1126 2707 973 2554 813 
C 2304 557 1920 397 1568 397 
C 1165 397 915 608 915 941 
C 915 1235 1075 1440 1395 1568 
C 1677 1683 2035 1728 2765 1747 
L 2765 1363 
z
" transform="scale(0.015625)"/>
      <path id="HiraginoSans-W4-75" d="M 2944 3520 
C 2976 3264 2989 3046 2989 2765 
L 2989 1510 
C 2918 1248 2835 1094 2662 890 
C 2400 576 2125 435 1792 435 
C 1306 435 1056 723 1056 1286 
L 1056 2765 
C 1056 3066 1069 3251 1101 3520 
L 429 3520 
C 461 3302 474 3104 474 2771 
L 474 1197 
C 474 858 538 608 666 416 
C 877 109 1242 -58 1709 -58 
C 2272 -58 2682 166 3002 653 
C 2989 493 2989 461 2989 378 
L 2989 0 
L 3616 0 
C 3578 256 3565 442 3565 755 
L 3565 2765 
C 3565 3091 3578 3264 3616 3520 
L 2944 3520 
z
" transform="scale(0.015625)"/>
      <path id="HiraginoSans-W4-63" d="M 3475 2573 
C 3405 2758 3347 2867 3251 3002 
C 2970 3405 2522 3616 1965 3616 
C 947 3616 282 2874 282 1747 
C 282 627 954 -90 1990 -90 
C 2534 -90 2970 102 3258 480 
C 3366 621 3430 742 3520 986 
L 2950 1126 
C 2899 966 2867 890 2816 806 
C 2650 550 2362 410 2010 410 
C 1312 410 870 934 870 1760 
C 870 2598 1299 3130 1984 3130 
C 2438 3130 2739 2899 2912 2413 
L 3475 2573 
z
" transform="scale(0.015625)"/>
      <path id="HiraginoSans-W4-68" d="M 1107 0 
C 1075 256 1062 474 1062 755 
L 1062 2003 
C 1139 2272 1229 2438 1402 2643 
C 1645 2931 1933 3078 2259 3078 
C 2490 3078 2682 3002 2810 2861 
C 2931 2726 2995 2522 2995 2240 
L 2995 755 
C 2995 422 2982 224 2944 0 
L 3622 0 
C 3590 230 3578 448 3578 749 
L 3578 2362 
C 3578 3130 3123 3584 2355 3584 
C 1773 3584 1357 3347 1043 2854 
C 1056 3046 1062 3066 1062 3168 
L 1062 4173 
C 1062 4512 1069 4691 1107 4934 
L 442 4934 
C 480 4691 493 4512 493 4179 
L 493 755 
C 493 422 480 250 442 0 
L 1107 0 
z
" transform="scale(0.015625)"/>
      <path id="HiraginoSans-W4-79" d="M 1600 154 
L 1325 -486 
C 1229 -710 1069 -832 858 -832 
C 730 -832 621 -800 442 -717 
L 301 -1274 
C 550 -1325 710 -1344 864 -1344 
C 1357 -1344 1664 -1146 1843 -717 
L 3283 2758 
C 3462 3181 3571 3437 3603 3520 
L 2912 3520 
C 2880 3334 2829 3168 2694 2816 
L 1901 768 
L 1011 2822 
C 902 3072 819 3341 787 3520 
L 64 3520 
C 134 3386 134 3386 422 2758 
L 1600 154 
z
" transform="scale(0.015625)"/>
      <path id="HiraginoSans-W4-5217" d="M 1286 2336 
C 1638 2112 1850 1933 2163 1600 
C 1805 915 1344 454 531 -38 
C 698 -179 755 -256 870 -448 
C 1613 58 2054 493 2445 1126 
C 2822 1734 3034 2387 3181 3366 
C 3232 3693 3238 3750 3251 3795 
C 3110 3776 2982 3770 2714 3770 
L 1754 3770 
C 1843 4058 1882 4211 1939 4589 
L 2886 4589 
C 3142 4589 3341 4576 3533 4557 
L 3533 5043 
C 3354 5024 3155 5011 2880 5011 
L 1088 5011 
C 806 5011 646 5018 461 5043 
L 461 4557 
C 627 4576 813 4589 1043 4589 
L 1466 4589 
C 1318 3590 941 2842 250 2195 
C 390 2067 442 1990 563 1773 
C 1056 2291 1338 2714 1606 3360 
L 2701 3360 
C 2611 2803 2534 2509 2368 2054 
C 2138 2278 1882 2483 1530 2726 
L 1286 2336 
z
M 3846 4832 
C 3872 4640 3885 4448 3885 4090 
L 3885 1741 
C 3885 1318 3878 1171 3853 998 
L 4397 998 
C 4371 1178 4365 1312 4365 1747 
L 4365 4090 
C 4365 4474 4371 4659 4403 4832 
L 3846 4832 
z
M 5254 5235 
C 5286 5005 5299 4736 5299 4410 
L 5299 269 
C 5299 96 5280 90 4896 90 
C 4717 90 4390 115 4154 147 
C 4224 -38 4256 -173 4262 -371 
C 4595 -384 4845 -390 4986 -390 
C 5632 -390 5786 -275 5786 230 
L 5786 4410 
C 5786 4762 5798 5030 5830 5235 
L 5254 5235 
z
" transform="scale(0.015625)"/>
      <path id="HiraginoSans-W4-304c" d="M 531 3002 
C 813 3072 1082 3123 1773 3226 
C 1568 2406 1389 1888 1094 1254 
C 877 781 621 326 429 83 
L 954 -218 
L 1370 589 
C 1792 1459 2067 2234 2310 3270 
C 2496 3290 2611 3296 2746 3296 
C 3315 3296 3494 3091 3494 2438 
C 3494 1722 3398 1075 3232 685 
C 3155 499 3034 403 2880 403 
C 2656 403 2291 512 1939 685 
C 1965 531 1971 448 1971 333 
C 1971 256 1965 218 1958 109 
C 2374 -58 2656 -122 2925 -122 
C 3232 -122 3418 -45 3578 173 
C 3853 538 4026 1395 4026 2413 
C 4026 2957 3936 3251 3718 3475 
C 3514 3674 3232 3757 2797 3757 
C 2656 3757 2560 3757 2406 3744 
C 2438 3891 2509 4301 2541 4467 
C 2598 4826 2618 4934 2656 5062 
L 2054 5133 
L 2054 5043 
C 2054 4781 1978 4224 1875 3699 
C 1338 3616 698 3546 467 3546 
L 531 3002 
z
M 4262 3898 
C 4864 3270 5312 2451 5549 1530 
L 6048 1805 
C 5760 2726 5363 3424 4717 4134 
L 4262 3898 
z
M 5357 5357 
C 5638 5024 5830 4736 6016 4365 
L 6387 4576 
C 6157 4998 6016 5197 5715 5549 
L 5357 5357 
z
M 4614 5011 
C 4877 4717 5082 4397 5280 4000 
L 5658 4211 
C 5434 4627 5286 4845 4986 5203 
L 4614 5011 
z
" transform="scale(0.015625)"/>
      <path id="HiraginoSans-W4-308b" d="M 1485 4262 
C 1626 4282 1690 4288 1824 4294 
C 2758 4333 3482 4371 3718 4410 
C 3738 4410 3750 4410 3770 4416 
L 3776 4403 
C 3725 4352 3725 4352 3706 4333 
C 3686 4314 3680 4307 3654 4282 
C 2694 3334 1242 2131 678 1818 
L 1005 1331 
C 1760 2022 2746 2419 3693 2419 
C 4531 2419 5037 2067 5037 1478 
C 5037 1146 4883 858 4602 659 
C 4454 550 4314 486 4077 416 
C 3987 704 3917 851 3789 1024 
C 3533 1363 3149 1549 2720 1549 
C 2157 1549 1741 1210 1741 755 
C 1741 563 1818 352 1933 218 
C 2170 -58 2605 -198 3232 -198 
C 4646 -198 5587 480 5587 1491 
C 5587 2323 4896 2861 3821 2861 
C 3283 2861 2835 2752 2317 2490 
L 2304 2515 
C 2739 2784 3507 3430 4371 4262 
C 4563 4454 4602 4480 4698 4531 
L 4390 4947 
C 4301 4896 4243 4883 4058 4870 
C 3488 4826 2643 4787 2106 4787 
C 1779 4787 1645 4794 1459 4826 
L 1485 4262 
z
M 3578 288 
C 3373 256 3302 250 3155 250 
C 2598 250 2246 442 2246 742 
C 2246 966 2432 1107 2720 1107 
C 3155 1107 3443 826 3578 288 
z
" transform="scale(0.015625)"/>
     </defs>
     <use xlink:href="#HiraginoSans-W4-3059"/>
     <use xlink:href="#HiraginoSans-W4-3079" transform="translate(99.999985 0)"/>
     <use xlink:href="#HiraginoSans-W4-3066" transform="translate(199.999969 0)"/>
     <use xlink:href="#HiraginoSans-W4-306e" transform="translate(299.999954 0)"/>
     <use xlink:href="#HiraginoSans-W4-20" transform="translate(399.999939 0)"/>
     <use xlink:href="#HiraginoSans-W4-43" transform="translate(433.299927 0)"/>
     <use xlink:href="#HiraginoSans-W4-61" transform="translate(509.899918 0)"/>
     <use xlink:href="#HiraginoSans-W4-75" transform="translate(569.099915 0)"/>
     <use xlink:href="#HiraginoSans-W4-63" transform="translate(632.499908 0)"/>
     <use xlink:href="#HiraginoSans-W4-68" transform="translate(691.599899 0)"/>
     <use xlink:href="#HiraginoSans-W4-79" transform="translate(754.899887 0)"/>
     <use xlink:href="#HiraginoSans-W4-20" transform="translate(812.299881 0)"/>
     <use xlink:href="#HiraginoSans-W4-5217" transform="translate(845.599869 0)"/>
     <use xlink:href="#HiraginoSans-W4-304c" transform="translate(945.599854 0)"/>
     <use xlink:href="#HiraginoSans-W4-53ce" transform="translate(1045.599838 0)"/>
     <use xlink:href="#HiraginoSans-W4-675f" transform="translate(1145.599823 0)"/>
     <use xlink:href="#HiraginoSans-W4-3059" transform="translate(1245.599808 0)"/>
     <use xlink:href="#HiraginoSans-W4-308b" transform="translate(1345.599792 0)"/>
    </g>
   </g>
   <g id="text_3">
    <!-- 完備（例: ℝ） -->
    <g style="fill: #2e75b6" transform="translate(176.682188 59.86125) scale(0.12 -0.12)">
     <defs>
      <path id="HiraginoSans-W7-5b8c" d="M 2726 4845 
L 1120 4845 
C 781 4845 602 4851 384 4870 
C 403 4717 410 4576 410 4358 
L 410 3789 
C 410 3584 397 3430 378 3277 
L 1210 3277 
L 1210 4096 
L 5216 4096 
L 5216 3277 
L 6042 3277 
C 6016 3430 6010 3578 6010 3789 
L 6010 4358 
C 6010 4595 6016 4717 6035 4870 
C 5811 4851 5638 4845 5299 4845 
L 3584 4845 
L 3584 4966 
C 3584 5146 3597 5306 3616 5414 
L 2694 5414 
C 2714 5286 2726 5139 2726 4960 
L 2726 4845 
z
M 1926 1811 
C 1920 1728 1914 1702 1907 1651 
C 1843 1107 1594 749 1094 499 
C 838 371 646 307 198 192 
C 435 -96 544 -275 646 -582 
C 1178 -416 1421 -307 1734 -96 
C 2310 282 2637 813 2726 1510 
C 2739 1600 2739 1613 2758 1811 
L 3354 1811 
L 3354 134 
C 3354 -352 3546 -442 4538 -442 
C 5357 -442 5632 -403 5818 -256 
C 6054 -77 6144 224 6163 915 
C 5856 960 5690 1005 5382 1139 
C 5382 1082 5382 1043 5382 1018 
C 5382 819 5357 563 5325 486 
C 5286 365 5146 326 4742 326 
C 4269 326 4186 352 4186 506 
L 4186 1811 
L 5318 1811 
C 5645 1811 5830 1805 6016 1779 
L 6016 2586 
C 5830 2560 5664 2554 5325 2554 
L 1101 2554 
C 755 2554 582 2560 397 2586 
L 397 1779 
C 589 1805 768 1811 1101 1811 
L 1926 1811 
z
M 1338 2944 
C 1517 2963 1677 2970 1971 2970 
L 4454 2970 
C 4755 2970 4909 2963 5088 2944 
L 5088 3725 
C 4909 3706 4755 3699 4454 3699 
L 1971 3699 
C 1677 3699 1517 3706 1338 3725 
L 1338 2944 
z
" transform="scale(0.015625)"/>
      <path id="HiraginoSans-W7-5099" d="M 3949 499 
L 3949 250 
C 3949 -90 3942 -269 3917 -467 
L 4659 -467 
C 4634 -301 4627 -141 4627 250 
L 4627 499 
L 5197 499 
L 5197 230 
C 5197 115 5178 96 5069 96 
C 4973 96 4870 102 4755 122 
C 4838 -115 4864 -218 4902 -506 
C 5792 -506 5933 -429 5933 58 
L 5933 2240 
C 5933 2586 5939 2758 5958 2918 
C 5773 2899 5645 2893 5350 2893 
L 3360 2893 
C 3002 2893 2867 2899 2662 2918 
C 2682 2694 2688 2534 2688 2189 
L 2688 166 
C 2688 -160 2675 -365 2656 -538 
L 3437 -538 
C 3411 -403 3405 -269 3405 166 
L 3405 499 
L 3949 499 
z
M 3949 1075 
L 3405 1075 
L 3405 1389 
L 3949 1389 
L 3949 1075 
z
M 4627 1075 
L 4627 1389 
L 5197 1389 
L 5197 1075 
L 4627 1075 
z
M 3949 1965 
L 3405 1965 
L 3405 2278 
L 3949 2278 
L 3949 1965 
z
M 4627 1965 
L 4627 2278 
L 5197 2278 
L 5197 1965 
L 4627 1965 
z
M 2573 2272 
C 2579 2586 2579 2618 2586 3136 
L 5536 3130 
C 5779 3130 5965 3123 6144 3110 
L 6144 3866 
C 5946 3840 5805 3834 5434 3834 
L 5126 3834 
L 5126 4250 
L 5427 4250 
C 5779 4250 5901 4243 6093 4224 
L 6093 4986 
C 5971 4960 5709 4947 5427 4947 
L 5126 4947 
L 5126 5069 
C 5126 5222 5133 5306 5152 5414 
L 4307 5414 
C 4326 5325 4333 5248 4333 5062 
L 4333 4947 
L 3571 4947 
L 3571 5069 
C 3571 5216 3578 5312 3597 5414 
L 2752 5414 
C 2771 5312 2778 5242 2778 5062 
L 2778 4947 
L 2586 4947 
C 2336 4947 2112 4954 1933 4973 
L 1933 4224 
C 2112 4243 2227 4250 2586 4250 
L 2778 4250 
L 2778 3834 
L 2502 3834 
C 2170 3834 2048 3840 1811 3859 
C 1830 3661 1837 3456 1837 3226 
C 1837 1498 1766 877 1510 365 
L 1510 3917 
C 1696 4294 1779 4512 1907 4928 
C 1939 5030 1946 5062 2010 5267 
L 1190 5459 
C 1152 5178 1043 4806 883 4410 
C 659 3866 397 3430 58 3066 
C 230 2650 250 2586 358 2099 
C 499 2266 621 2445 730 2662 
C 723 2291 717 2080 717 1888 
L 717 192 
C 717 -128 710 -269 678 -563 
L 1542 -563 
C 1517 -275 1510 -179 1510 192 
C 1690 26 1850 -186 2029 -474 
C 2189 -160 2278 70 2368 442 
C 2490 922 2534 1306 2560 2061 
L 2573 2272 
z
M 3571 3834 
L 3571 4250 
L 4333 4250 
L 4333 3834 
L 3571 3834 
z
" transform="scale(0.015625)"/>
      <path id="HiraginoSans-W7-ff08" d="M 6240 -589 
C 5830 -26 5658 256 5491 666 
C 5274 1197 5152 1837 5152 2432 
C 5152 3027 5274 3667 5491 4198 
C 5658 4608 5830 4890 6240 5453 
L 5197 5453 
C 4845 4902 4691 4621 4538 4211 
C 4320 3648 4205 3034 4205 2432 
C 4205 1830 4320 1216 4538 653 
C 4691 243 4845 -38 5197 -589 
L 6240 -589 
z
" transform="scale(0.015625)"/>
      <path id="HiraginoSans-W7-4f8b" d="M 3546 4390 
C 3763 4390 3885 4384 4006 4371 
L 4006 5158 
C 3840 5133 3686 5126 3379 5126 
L 2490 5126 
C 2208 5126 2054 5133 1894 5158 
L 1114 5446 
C 960 4499 550 3558 32 2970 
C 160 2694 237 2445 320 2029 
C 474 2208 486 2221 685 2554 
C 672 2259 672 2150 672 1882 
L 672 237 
C 672 -77 666 -262 634 -518 
L 1478 -518 
C 1453 -282 1446 -77 1446 237 
L 1446 2214 
C 1587 2010 1709 1786 1830 1504 
C 2003 1715 2074 1811 2202 2016 
C 2515 1709 2573 1651 2726 1453 
C 2432 902 2067 480 1510 77 
C 1766 -147 1888 -288 2086 -563 
C 3264 435 3744 1402 3962 3200 
C 3981 3347 3987 3386 4006 3475 
L 3718 3840 
C 3603 3827 3488 3821 3264 3821 
L 2931 3821 
C 2976 4058 2989 4128 3021 4390 
L 3546 4390 
z
M 1446 3795 
C 1491 3930 1504 3955 1536 4038 
C 1626 4275 1626 4275 1645 4326 
C 1702 4499 1760 4678 1792 4806 
C 1805 4845 1843 4986 1875 5088 
L 1875 4365 
C 2029 4384 2080 4390 2278 4390 
C 2182 3558 1888 2822 1446 2323 
L 1446 3795 
z
M 3226 3098 
C 3162 2662 3130 2490 3040 2208 
C 2893 2368 2854 2400 2560 2682 
C 2624 2842 2669 2938 2726 3098 
L 3226 3098 
z
M 4915 1024 
C 4896 1165 4890 1293 4890 1523 
L 4890 4429 
C 4890 4653 4896 4794 4915 4922 
L 4122 4922 
C 4134 4762 4141 4634 4141 4429 
L 4141 1517 
C 4141 1306 4134 1171 4115 1024 
L 4915 1024 
z
M 5978 4685 
C 5978 4973 5984 5146 6010 5312 
L 5184 5312 
C 5210 5114 5216 4966 5216 4685 
L 5216 442 
C 5216 294 5171 262 4966 262 
C 4755 262 4384 288 4154 314 
C 4269 19 4314 -147 4352 -467 
C 4653 -480 4819 -480 5082 -480 
C 5504 -480 5683 -435 5818 -301 
C 5933 -179 5978 -26 5978 262 
L 5978 4685 
z
" transform="scale(0.015625)"/>
      <path id="HiraginoSans-W7-3a" d="M 1472 3654 
L 365 3654 
L 365 2547 
L 1472 2547 
L 1472 3654 
z
M 1472 -134 
L 1472 973 
L 365 973 
L 365 -134 
L 1472 -134 
z
" transform="scale(0.015625)"/>
      <path id="HiraginoSans-W7-20" transform="scale(0.015625)"/>
      <path id="STIXGeneral-Bold-211d" d="M 4851 0 
L 3226 0 
L 2163 1734 
L 1888 1734 
L 1888 0 
L 480 0 
L 480 4326 
L 2758 4326 
Q 3456 4326 3894 4016 
Q 4333 3706 4333 3040 
Q 4333 2240 3674 1914 
L 4851 0 
z
M 3373 3802 
L 3373 2253 
Q 3885 2451 3885 3027 
Q 3885 3302 3753 3520 
Q 3622 3738 3373 3802 
z
M 2925 2221 
L 2925 3840 
Q 2803 3878 2566 3878 
L 1888 3878 
L 1888 2182 
L 2573 2182 
Q 2822 2182 2925 2221 
z
M 4058 448 
L 3238 1773 
L 2675 1734 
L 3462 448 
L 4058 448 
z
M 1440 448 
L 1440 3878 
L 928 3878 
L 928 448 
L 1440 448 
z
" transform="scale(0.015625)"/>
      <path id="HiraginoSans-W7-ff09" d="M 1203 -589 
C 1555 -38 1709 243 1862 653 
C 2080 1216 2195 1824 2195 2432 
C 2195 3040 2080 3648 1862 4211 
C 1709 4621 1555 4902 1203 5453 
L 160 5453 
C 570 4890 742 4608 909 4198 
C 1126 3667 1248 3027 1248 2432 
C 1248 1837 1126 1197 909 666 
C 742 256 570 -26 160 -589 
L 1203 -589 
z
" transform="scale(0.015625)"/>
     </defs>
     <use xlink:href="#HiraginoSans-W7-5b8c"/>
     <use xlink:href="#HiraginoSans-W7-5099" transform="translate(99.999985 0)"/>
     <use xlink:href="#HiraginoSans-W7-ff08" transform="translate(199.999969 0)"/>
     <use xlink:href="#HiraginoSans-W7-4f8b" transform="translate(299.999954 0)"/>
     <use xlink:href="#HiraginoSans-W7-3a" transform="translate(399.999939 0)"/>
     <use xlink:href="#HiraginoSans-W7-20" transform="translate(428.699936 0)"/>
     <use xlink:href="#STIXGeneral-Bold-211d" transform="translate(461.999924 0)"/>
     <use xlink:href="#HiraginoSans-W7-ff09" transform="translate(540.299911 0)"/>
    </g>
   </g>
   <g id="line2d_2">
    <defs>
     <path id="m60bb18fa5a" d="M 0 -7.5 
L -1.683855 -2.317627 
L -7.132924 -2.317627 
L -2.724534 0.885255 
L -4.408389 6.067627 
L -0 2.864745 
L 4.408389 6.067627 
L 2.724534 0.885255 
L 7.132924 -2.317627 
L 1.683855 -2.317627 
z
" style="stroke: #c00000; stroke-linejoin: bevel"/>
    </defs>
    <g clip-path="url(#p0e36769abb)">
     <use xlink:href="#m60bb18fa5a" x="256.68" y="229.286742" style="fill: #c00000; stroke: #c00000; stroke-linejoin: bevel"/>
    </g>
   </g>
  </g>
  <g id="axes_2">
   <g id="line2d_3">
    <path d="M 516.96 132.025417 
L 572.4 165.1075 
L 616.752 191.573167 
L 638.928 206.129283 
L 655.56 214.730625 
L 663.876 219.362117 
L 667.7568 222.008683 
" clip-path="url(#p6e8ac575c0)" style="fill: none; stroke: #c00000; stroke-width: 1.5; stroke-linecap: square"/>
    <defs>
     <path id="m86e876999b" d="M 0 3 
C 0.795609 3 1.55874 2.683901 2.12132 2.12132 
C 2.683901 1.55874 3 0.795609 3 0 
C 3 -0.795609 2.683901 -1.55874 2.12132 -2.12132 
C 1.55874 -2.683901 0.795609 -3 0 -3 
C -0.795609 -3 -1.55874 -2.683901 -2.12132 -2.12132 
C -2.683901 -1.55874 -3 -0.795609 -3 0 
C -3 0.795609 -2.683901 1.55874 -2.12132 2.12132 
C -1.55874 2.683901 -0.795609 3 0 3 
z
" style="stroke: #c00000"/>
    </defs>
    <g clip-path="url(#p6e8ac575c0)">
     <use xlink:href="#m86e876999b" x="516.96" y="132.025417" style="fill: #c00000; stroke: #c00000"/>
     <use xlink:href="#m86e876999b" x="572.4" y="165.1075" style="fill: #c00000; stroke: #c00000"/>
     <use xlink:href="#m86e876999b" x="616.752" y="191.573167" style="fill: #c00000; stroke: #c00000"/>
     <use xlink:href="#m86e876999b" x="638.928" y="206.129283" style="fill: #c00000; stroke: #c00000"/>
     <use xlink:href="#m86e876999b" x="655.56" y="214.730625" style="fill: #c00000; stroke: #c00000"/>
     <use xlink:href="#m86e876999b" x="663.876" y="219.362117" style="fill: #c00000; stroke: #c00000"/>
     <use xlink:href="#m86e876999b" x="667.7568" y="222.008683" style="fill: #c00000; stroke: #c00000"/>
    </g>
   </g>
   <g id="patch_4">
    <path d="M 740.170448 190.116707 
Q 718.022628 209.377355 696.71845 227.904336 
" style="fill: none; stroke: #c00000; stroke-linecap: round"/>
    <path d="M 700.616108 226.900215 
L 696.71845 227.904336 
L 698.253748 224.183737 
" style="fill: none; stroke: #c00000; stroke-linecap: round"/>
   </g>
   <g id="text_4">
    <!-- √2 ∉ ℚ -->
    <g style="fill: #c00000" transform="translate(711 174.785625) scale(0.09 -0.09)">
     <defs>
      <path id="HiraginoSans-W4-221a" d="M 179 1242 
L 326 986 
L 755 1350 
L 1568 -480 
L 3853 5843 
L 3546 5843 
L 1658 627 
L 1069 1958 
L 179 1242 
z
" transform="scale(0.015625)"/>
      <path id="HiraginoSans-W4-32" d="M 3078 0 
C 3424 0 3642 -6 3917 -32 
L 3917 589 
C 3693 557 3430 544 3091 544 
L 1114 544 
C 1280 1114 1606 1478 2451 2042 
C 3181 2528 3341 2656 3546 2912 
C 3738 3142 3846 3443 3846 3744 
C 3846 4525 3200 5030 2202 5030 
C 1613 5030 1158 4858 858 4518 
C 640 4269 531 4026 442 3565 
L 1088 3469 
C 1139 3782 1190 3936 1306 4102 
C 1491 4371 1792 4506 2208 4506 
C 2816 4506 3206 4211 3206 3744 
C 3206 3360 2995 3085 2387 2675 
C 1754 2246 1600 2138 1389 1952 
C 979 1594 710 1229 544 806 
C 448 563 429 461 365 -26 
C 576 -6 678 0 1107 0 
L 3078 0 
z
" transform="scale(0.015625)"/>
      <path id="HiraginoSans-W4-2209" d="M 2470 544 
L 2470 1510 
L 3891 1510 
L 3891 2010 
L 2470 2010 
L 2470 2976 
L 3891 2976 
L 3891 3475 
L 2470 3475 
L 2470 3930 
L 1978 3930 
L 1978 3475 
C 909 3430 256 2765 256 1760 
C 256 755 909 90 1978 51 
L 1978 -429 
L 2470 -429 
L 2470 45 
L 3891 45 
L 3891 544 
L 2470 544 
z
M 1978 550 
C 1357 582 896 864 794 1510 
L 1978 1510 
L 1978 550 
z
M 794 2010 
C 896 2650 1363 2931 1978 2970 
L 1978 2010 
L 794 2010 
z
" transform="scale(0.015625)"/>
      <path id="STIXGeneral-Regular-211a" d="M 4499 -77 
L 4538 -358 
Q 4134 -416 4006 -416 
Q 3725 -416 3536 -301 
Q 3347 -186 3162 26 
Q 2835 -90 2438 -90 
Q 1504 -90 896 550 
Q 288 1190 288 2125 
Q 288 3110 883 3718 
Q 1478 4326 2464 4326 
Q 3418 4326 3997 3705 
Q 4576 3085 4576 2125 
Q 4576 1472 4281 950 
Q 3987 429 3469 154 
Q 3757 -134 4006 -134 
Q 4141 -134 4499 -77 
z
M 3782 3507 
L 3782 762 
Q 4294 1274 4294 2125 
Q 4294 2976 3782 3507 
z
M 3501 506 
L 3501 3738 
Q 3123 4045 2438 4045 
Q 2182 4045 1859 3961 
Q 1536 3878 1363 3738 
L 1363 506 
Q 1485 422 1645 358 
Q 1990 781 2458 781 
Q 2867 781 3264 371 
Q 3392 422 3501 506 
z
M 1082 762 
L 1082 3507 
Q 570 2976 570 2125 
Q 570 1306 1082 762 
z
M 2944 262 
Q 2707 499 2438 499 
Q 2176 499 1952 262 
Q 2221 192 2438 192 
Q 2675 192 2944 262 
z
" transform="scale(0.015625)"/>
     </defs>
     <use xlink:href="#HiraginoSans-W4-221a"/>
     <use xlink:href="#HiraginoSans-W4-32" transform="translate(57.099991 0)"/>
     <use xlink:href="#HiraginoSans-W4-20" transform="translate(124.399979 0)"/>
     <use xlink:href="#HiraginoSans-W4-2209" transform="translate(157.699966 0)"/>
     <use xlink:href="#HiraginoSans-W4-20" transform="translate(224.09996 0)"/>
     <use xlink:href="#STIXGeneral-Regular-211a" transform="translate(257.399948 0)"/>
    </g>
    <!-- （収束先がℚにない） -->
    <g style="fill: #c00000" transform="translate(711 184.95675) scale(0.09 -0.09)">
     <defs>
      <path id="HiraginoSans-W4-ff08" d="M 6170 -531 
C 5690 -26 5491 256 5280 698 
C 5024 1235 4902 1805 4902 2432 
C 4902 3059 5024 3629 5280 4166 
C 5491 4608 5690 4890 6170 5395 
L 5517 5395 
C 5139 4947 4966 4685 4774 4275 
C 4499 3686 4365 3085 4365 2432 
C 4365 1779 4499 1178 4774 589 
C 4966 179 5139 -83 5517 -531 
L 6170 -531 
z
" transform="scale(0.015625)"/>
      <path id="HiraginoSans-W4-306b" d="M 1382 838 
C 1382 947 1376 973 1376 1114 
C 1370 1286 1363 1594 1363 1722 
C 1363 2451 1414 3117 1510 3680 
C 1600 4179 1715 4653 1830 4954 
L 1222 5037 
C 1210 4877 1197 4813 1133 4493 
C 928 3546 851 2854 851 1958 
C 851 1312 896 838 1018 134 
C 1037 6 1043 -32 1056 -134 
L 1613 -96 
C 1606 -45 1606 0 1606 26 
C 1606 416 1824 1152 2144 1830 
L 1760 2010 
C 1555 1504 1453 1197 1389 838 
L 1382 838 
z
M 2592 3763 
C 2643 3757 2656 3757 2694 3750 
C 2790 3738 2790 3738 2810 3738 
C 3136 3706 3341 3693 3667 3693 
C 4141 3693 4640 3725 5030 3776 
C 5306 3814 5453 3834 5472 3834 
L 5440 4378 
C 5050 4269 4435 4205 3686 4205 
C 3194 4205 2899 4230 2605 4301 
L 2592 3763 
z
M 3053 2566 
C 2656 2106 2483 1734 2483 1357 
C 2483 1126 2554 902 2675 742 
C 2944 397 3424 237 4179 237 
C 4608 237 5037 275 5498 358 
C 5632 384 5645 384 5728 397 
L 5670 979 
C 5306 838 4755 755 4179 755 
C 3405 755 3008 973 3008 1408 
C 3008 1690 3155 1984 3488 2349 
L 3053 2566 
z
" transform="scale(0.015625)"/>
      <path id="HiraginoSans-W4-306a" d="M 2074 5229 
C 2054 4941 1971 4454 1862 4051 
C 1760 4045 1594 4045 1421 4045 
C 1062 4045 870 4058 646 4096 
L 646 3571 
C 678 3571 704 3571 717 3571 
C 755 3571 806 3571 870 3571 
C 1062 3565 1114 3565 1267 3565 
C 1536 3565 1562 3565 1728 3571 
C 1434 2586 922 1530 467 954 
L 986 653 
C 1018 710 1056 781 1114 877 
C 1357 1306 1414 1414 1568 1722 
C 1850 2310 2080 2925 2272 3590 
C 2707 3622 3072 3674 3315 3718 
C 3462 3744 3462 3744 3533 3750 
L 3514 4282 
C 3238 4192 2835 4122 2406 4083 
C 2483 4384 2522 4525 2566 4742 
C 2624 5018 2624 5037 2662 5152 
L 2074 5229 
z
M 5933 3488 
C 5408 3827 4954 4051 4211 4339 
L 3936 3904 
C 4627 3654 5133 3398 5670 3027 
L 5933 3488 
z
M 5939 640 
C 5901 672 5901 672 5843 717 
C 5786 774 5760 794 5664 870 
C 5280 1171 5050 1299 4576 1510 
C 4538 1792 4506 2182 4506 2451 
C 4506 2694 4525 2822 4595 3066 
L 4070 3110 
C 4026 2893 4006 2726 4006 2515 
C 4006 2304 4026 1958 4051 1645 
C 3782 1709 3622 1728 3405 1728 
C 2618 1728 2067 1312 2067 717 
C 2067 333 2304 6 2682 -122 
C 2886 -198 3142 -237 3379 -237 
C 3827 -237 4198 -96 4390 147 
C 4518 307 4602 563 4602 806 
C 4602 858 4602 890 4589 973 
C 5037 730 5434 422 5670 128 
L 5939 640 
z
M 4077 1152 
C 4083 1152 4096 966 4096 896 
C 4096 454 3853 243 3347 243 
C 2867 243 2579 429 2579 736 
C 2579 1062 2899 1274 3405 1274 
C 3648 1274 3821 1242 4077 1152 
z
" transform="scale(0.015625)"/>
      <path id="HiraginoSans-W4-3044" d="M 819 4576 
C 832 4454 832 4429 838 4192 
C 870 2592 960 1805 1178 1165 
C 1395 518 1754 134 2144 134 
C 2630 134 2931 576 3258 1741 
C 3040 1907 2970 1978 2810 2170 
C 2733 1734 2624 1389 2477 1056 
C 2387 851 2278 749 2170 749 
C 1939 749 1696 1178 1562 1837 
C 1472 2246 1408 3091 1408 3763 
C 1408 4122 1421 4358 1453 4570 
L 819 4576 
z
M 4058 4013 
C 4813 3130 5280 1984 5382 781 
L 5933 998 
C 5728 2349 5325 3290 4525 4243 
L 4058 4013 
z
" transform="scale(0.015625)"/>
      <path id="HiraginoSans-W4-ff09" d="M 890 -531 
C 1261 -83 1434 179 1626 589 
C 1901 1178 2035 1773 2035 2432 
C 2035 3091 1901 3686 1626 4275 
C 1434 4685 1261 4947 890 5395 
L 230 5395 
C 710 4890 909 4608 1120 4166 
C 1376 3629 1498 3072 1498 2432 
C 1498 1792 1376 1235 1120 698 
C 909 256 710 -26 230 -531 
L 890 -531 
z
" transform="scale(0.015625)"/>
     </defs>
     <use xlink:href="#HiraginoSans-W4-ff08"/>
     <use xlink:href="#HiraginoSans-W4-53ce" transform="translate(99.999985 0)"/>
     <use xlink:href="#HiraginoSans-W4-675f" transform="translate(199.999969 0)"/>
     <use xlink:href="#HiraginoSans-W4-5148" transform="translate(299.999954 0)"/>
     <use xlink:href="#HiraginoSans-W4-304c" transform="translate(399.999939 0)"/>
     <use xlink:href="#STIXGeneral-Regular-211a" transform="translate(499.999924 0)"/>
     <use xlink:href="#HiraginoSans-W4-306b" transform="translate(576.499908 0)"/>
     <use xlink:href="#HiraginoSans-W4-306a" transform="translate(676.499893 0)"/>
     <use xlink:href="#HiraginoSans-W4-3044" transform="translate(776.499878 0)"/>
     <use xlink:href="#HiraginoSans-W4-ff09" transform="translate(876.499863 0)"/>
    </g>
   </g>
   <g id="text_5">
    <g id="patch_5">
     <path d="M 523.688203 321.875083 
L 676.551797 321.875083 
Q 679.251797 321.875083 679.251797 319.175083 
L 679.251797 309.481802 
Q 679.251797 306.781802 676.551797 306.781802 
L 523.688203 306.781802 
Q 520.988203 306.781802 520.988203 309.481802 
L 520.988203 319.175083 
Q 520.988203 321.875083 523.688203 321.875083 
z
" style="fill: #fce4d6; stroke: #c00000; stroke-linejoin: miter"/>
    </g>
    <!-- ℚ 内の Cauchy 列が ℚ に収束しない -->
    <g style="fill: #c00000" transform="translate(523.688203 317.285083) scale(0.09 -0.09)">
     <defs>
      <path id="HiraginoSans-W4-5185" d="M 5286 3968 
L 5286 294 
C 5286 141 5242 122 4947 122 
C 4659 122 4390 147 4077 198 
C 4154 0 4179 -102 4205 -326 
C 4493 -346 4698 -352 4922 -352 
C 5651 -352 5792 -262 5792 186 
L 5792 3872 
C 5792 4128 5798 4275 5818 4454 
C 5606 4429 5434 4422 5146 4422 
L 3424 4422 
C 3430 4544 3430 4570 3437 4928 
C 3450 5152 3456 5254 3488 5395 
L 2906 5395 
C 2938 5216 2944 5094 2944 4838 
C 2944 4717 2938 4602 2931 4422 
L 1274 4422 
C 998 4422 826 4429 608 4454 
C 627 4294 634 4122 634 3866 
L 634 275 
C 634 -26 621 -243 589 -454 
L 1171 -454 
C 1146 -288 1139 -102 1139 269 
L 1139 3968 
L 2893 3968 
C 2803 3219 2611 2733 2240 2298 
C 1965 1984 1715 1792 1203 1504 
C 1357 1363 1459 1242 1542 1101 
C 2189 1504 2534 1818 2835 2285 
C 2989 2522 3098 2739 3187 3027 
C 3501 2323 4070 1702 4883 1178 
C 4979 1357 5082 1491 5216 1626 
C 4672 1926 4282 2240 3987 2598 
C 3693 2950 3507 3264 3341 3680 
C 3360 3795 3366 3840 3379 3968 
L 5286 3968 
z
" transform="scale(0.015625)"/>
      <path id="HiraginoSans-W4-3057" d="M 1440 5030 
C 1453 4890 1459 4813 1459 4672 
C 1459 4576 1459 4429 1453 4243 
C 1408 2234 1402 2035 1402 1645 
C 1402 1306 1434 992 1491 800 
C 1574 525 1747 275 1965 115 
C 2208 -58 2592 -160 3034 -160 
C 3776 -160 4390 109 4851 640 
C 5139 973 5325 1363 5574 2144 
C 5331 2266 5242 2323 5030 2509 
C 4947 2061 4870 1798 4717 1485 
C 4378 768 3789 371 3072 371 
C 2630 371 2304 506 2138 749 
C 2003 960 1958 1203 1958 1786 
C 1958 2214 1997 3763 2022 4230 
C 2042 4685 2061 4858 2093 5024 
L 1440 5030 
z
" transform="scale(0.015625)"/>
     </defs>
     <use xlink:href="#STIXGeneral-Regular-211a"/>
     <use xlink:href="#HiraginoSans-W4-20" transform="translate(76.499985 0)"/>
     <use xlink:href="#HiraginoSans-W4-5185" transform="translate(109.799973 0)"/>
     <use xlink:href="#HiraginoSans-W4-306e" transform="translate(209.799957 0)"/>
     <use xlink:href="#HiraginoSans-W4-20" transform="translate(309.799942 0)"/>
     <use xlink:href="#HiraginoSans-W4-43" transform="translate(343.09993 0)"/>
     <use xlink:href="#HiraginoSans-W4-61" transform="translate(419.699921 0)"/>
     <use xlink:href="#HiraginoSans-W4-75" transform="translate(478.899918 0)"/>
     <use xlink:href="#HiraginoSans-W4-63" transform="translate(542.299911 0)"/>
     <use xlink:href="#HiraginoSans-W4-68" transform="translate(601.399902 0)"/>
     <use xlink:href="#HiraginoSans-W4-79" transform="translate(664.69989 0)"/>
     <use xlink:href="#HiraginoSans-W4-20" transform="translate(722.099884 0)"/>
     <use xlink:href="#HiraginoSans-W4-5217" transform="translate(755.399872 0)"/>
     <use xlink:href="#HiraginoSans-W4-304c" transform="translate(855.399857 0)"/>
     <use xlink:href="#HiraginoSans-W4-20" transform="translate(955.399841 0)"/>
     <use xlink:href="#STIXGeneral-Regular-211a" transform="translate(988.699829 0)"/>
     <use xlink:href="#HiraginoSans-W4-20" transform="translate(1065.199814 0)"/>
     <use xlink:href="#HiraginoSans-W4-306b" transform="translate(1098.499802 0)"/>
     <use xlink:href="#HiraginoSans-W4-53ce" transform="translate(1198.499786 0)"/>
     <use xlink:href="#HiraginoSans-W4-675f" transform="translate(1298.499771 0)"/>
     <use xlink:href="#HiraginoSans-W4-3057" transform="translate(1398.499756 0)"/>
     <use xlink:href="#HiraginoSans-W4-306a" transform="translate(1498.499741 0)"/>
     <use xlink:href="#HiraginoSans-W4-3044" transform="translate(1598.499725 0)"/>
    </g>
   </g>
   <g id="text_6">
    <!-- 不完備（例: ℚ） -->
    <g style="fill: #c00000" transform="translate(597.197813 59.86125) scale(0.12 -0.12)">
     <defs>
      <path id="HiraginoSans-W7-4e0d" d="M 3040 4307 
C 2784 3859 2566 3578 2195 3194 
C 1594 2573 986 2125 154 1702 
C 390 1427 544 1190 659 922 
C 1165 1222 1491 1453 1811 1702 
C 2208 2022 2509 2317 2726 2592 
C 2720 2298 2720 2240 2720 2061 
L 2720 314 
C 2720 0 2707 -294 2675 -550 
L 3635 -550 
C 3603 -294 3590 -19 3590 307 
L 3590 2726 
C 4198 2003 4858 1466 5786 915 
C 5946 1248 6086 1478 6291 1741 
C 5818 1952 5446 2189 4979 2560 
C 4614 2854 4365 3098 4058 3450 
L 3590 2912 
L 3590 3578 
C 3853 3942 3910 4038 4051 4307 
L 5216 4307 
C 5504 4307 5850 4294 6118 4269 
L 6118 5152 
C 5907 5120 5594 5107 5197 5107 
L 1210 5107 
C 864 5107 563 5120 282 5152 
L 282 4269 
C 570 4294 947 4307 1235 4307 
L 3040 4307 
z
" transform="scale(0.015625)"/>
      <path id="STIXGeneral-Bold-211a" d="M 4653 173 
L 4781 -224 
Q 4461 -384 4294 -403 
Q 4237 -410 4166 -410 
Q 3738 -410 3302 13 
Q 2931 -122 2515 -122 
Q 1581 -122 934 544 
Q 288 1210 288 2144 
Q 288 3104 925 3763 
Q 1562 4422 2522 4422 
Q 3456 4422 4102 3747 
Q 4749 3072 4749 2138 
Q 4749 1562 4489 1056 
Q 4230 550 3757 237 
Q 3968 38 4160 38 
Q 4237 38 4317 57 
Q 4397 77 4505 118 
Q 4614 160 4653 173 
z
M 3789 3443 
L 3789 864 
Q 4301 1350 4301 2138 
Q 4301 2893 3789 3443 
z
M 3341 672 
L 3341 3776 
Q 2931 3974 2496 3974 
Q 2080 3974 1696 3776 
L 1696 672 
Q 2086 1075 2522 1075 
Q 2778 1075 2957 976 
Q 3136 877 3341 672 
z
M 1248 864 
L 1248 3443 
Q 736 2931 736 2144 
Q 736 1408 1248 864 
z
M 2963 384 
Q 2803 627 2522 627 
Q 2246 627 2054 390 
Q 2285 326 2541 326 
Q 2720 326 2963 384 
z
" transform="scale(0.015625)"/>
     </defs>
     <use xlink:href="#HiraginoSans-W7-4e0d"/>
     <use xlink:href="#HiraginoSans-W7-5b8c" transform="translate(99.999985 0)"/>
     <use xlink:href="#HiraginoSans-W7-5099" transform="translate(199.999969 0)"/>
     <use xlink:href="#HiraginoSans-W7-ff08" transform="translate(299.999954 0)"/>
     <use xlink:href="#HiraginoSans-W7-4f8b" transform="translate(399.999939 0)"/>
     <use xlink:href="#HiraginoSans-W7-3a" transform="translate(499.999924 0)"/>
     <use xlink:href="#HiraginoSans-W7-20" transform="translate(528.699921 0)"/>
     <use xlink:href="#STIXGeneral-Bold-211a" transform="translate(561.999908 0)"/>
     <use xlink:href="#HiraginoSans-W7-ff09" transform="translate(641.69989 0)"/>
    </g>
   </g>
   <g id="line2d_4">
    <defs>
     <path id="mac3f70ffa3" d="M -6 6 
L 6 -6 
M -6 -6 
L 6 6 
" style="stroke: #c00000; stroke-width: 3"/>
    </defs>
    <g clip-path="url(#p6e8ac575c0)">
     <use xlink:href="#mac3f70ffa3" x="694.368" y="229.948383" style="fill: #c00000; stroke: #c00000; stroke-width: 3"/>
    </g>
   </g>
  </g>
  <g id="text_7">
   <!-- Cauchy 列と完備性 -->
   <g transform="translate(361.668125 19.141562) scale(0.14 -0.14)">
    <defs>
     <path id="HiraginoSans-W7-43" d="M 4928 3578 
C 4838 3923 4742 4128 4557 4371 
C 4154 4902 3533 5178 2733 5178 
C 2042 5178 1472 4973 1056 4576 
C 538 4077 262 3347 262 2477 
C 262 1632 518 896 986 416 
C 1402 -13 2022 -243 2752 -243 
C 3514 -243 4134 0 4512 454 
C 4742 730 4864 998 4992 1510 
L 3878 1690 
C 3834 1408 3782 1274 3680 1120 
C 3482 838 3149 685 2746 685 
C 1888 685 1370 1363 1370 2483 
C 1370 3098 1530 3590 1824 3898 
C 2048 4134 2362 4256 2726 4256 
C 3123 4256 3430 4115 3622 3834 
C 3718 3699 3770 3578 3834 3347 
L 4928 3578 
z
" transform="scale(0.015625)"/>
     <path id="HiraginoSans-W7-61" d="M 2842 -134 
L 3878 -134 
C 3846 154 3834 346 3834 717 
L 3834 2451 
C 3834 2912 3750 3162 3533 3366 
C 3251 3635 2822 3763 2195 3763 
C 1594 3763 1133 3642 813 3392 
C 589 3219 467 3046 333 2675 
L 1344 2509 
C 1414 2688 1472 2778 1587 2861 
C 1709 2950 1939 3008 2189 3008 
C 2624 3008 2842 2854 2842 2541 
L 2842 2285 
C 2029 2259 1837 2240 1466 2163 
C 672 1984 237 1549 237 928 
C 237 589 365 294 602 96 
C 832 -109 1158 -205 1613 -205 
C 2131 -205 2458 -96 2842 198 
L 2842 -134 
z
M 2842 1357 
C 2842 1133 2765 973 2579 813 
C 2381 646 2067 538 1792 538 
C 1446 538 1254 685 1254 954 
C 1254 1197 1408 1370 1702 1459 
C 1990 1549 2259 1581 2842 1600 
L 2842 1357 
z
" transform="scale(0.015625)"/>
     <path id="HiraginoSans-W7-75" d="M 3008 3654 
C 3046 3341 3059 3104 3059 2758 
L 3059 1459 
C 2790 986 2381 678 2010 678 
C 1856 678 1728 717 1632 787 
C 1478 902 1427 1050 1427 1389 
L 1427 2758 
C 1427 3117 1440 3354 1478 3654 
L 358 3654 
C 397 3392 410 3149 410 2758 
L 410 1146 
C 410 698 525 371 755 134 
C 986 -96 1325 -218 1734 -218 
C 2278 -218 2682 -38 3072 378 
C 3066 256 3059 173 3059 122 
L 3059 -134 
L 4122 -134 
C 4083 109 4070 352 4070 762 
L 4070 2758 
C 4070 3130 4083 3366 4122 3654 
L 3008 3654 
z
" transform="scale(0.015625)"/>
     <path id="HiraginoSans-W7-63" d="M 3917 2541 
C 3840 2765 3789 2886 3693 3034 
C 3373 3526 2835 3789 2150 3789 
C 1587 3789 1114 3610 774 3270 
C 416 2912 211 2368 211 1760 
C 211 1152 410 602 762 243 
C 1088 -90 1581 -269 2150 -269 
C 2835 -269 3360 -32 3686 429 
C 3808 602 3878 755 3962 1011 
L 2989 1184 
C 2950 1030 2925 954 2861 870 
C 2720 659 2477 544 2189 544 
C 1606 544 1242 1018 1242 1773 
C 1242 2528 1587 2982 2170 2982 
C 2426 2982 2630 2893 2778 2707 
C 2854 2611 2893 2528 2950 2330 
L 3917 2541 
z
" transform="scale(0.015625)"/>
     <path id="HiraginoSans-W7-68" d="M 1485 -134 
C 1446 179 1434 416 1434 762 
L 1434 2061 
C 1734 2573 2099 2835 2490 2835 
C 2650 2835 2771 2803 2861 2733 
C 3014 2624 3066 2464 3066 2131 
L 3066 762 
C 3066 403 3053 166 3014 -134 
L 4134 -134 
C 4096 128 4083 371 4083 762 
L 4083 2374 
C 4083 3245 3610 3731 2758 3731 
C 2208 3731 1811 3552 1414 3142 
C 1421 3264 1427 3341 1427 3398 
L 1427 4173 
C 1427 4602 1440 4806 1478 5069 
L 371 5069 
C 410 4826 422 4582 422 4173 
L 422 762 
C 422 390 410 154 371 -134 
L 1485 -134 
z
" transform="scale(0.015625)"/>
     <path id="HiraginoSans-W7-79" d="M 1619 179 
L 1459 -173 
C 1357 -384 1190 -486 947 -486 
C 787 -486 672 -454 461 -358 
L 320 -1248 
C 646 -1312 864 -1338 1088 -1338 
C 1754 -1338 2163 -1088 2400 -550 
L 3859 2835 
C 4045 3283 4045 3283 4090 3373 
C 4179 3558 4179 3558 4224 3654 
L 3059 3654 
C 3021 3437 2957 3245 2803 2854 
L 2157 1229 
L 1453 2912 
C 1344 3155 1254 3469 1222 3654 
L 51 3654 
C 128 3501 160 3437 429 2835 
L 1619 179 
z
" transform="scale(0.015625)"/>
     <path id="HiraginoSans-W7-5217" d="M 1907 3840 
C 1965 4058 1984 4141 2035 4429 
L 2784 4429 
C 3053 4429 3251 4422 3482 4403 
L 3482 5197 
C 3277 5171 3072 5158 2765 5158 
L 1062 5158 
C 742 5158 570 5165 358 5197 
L 358 4390 
C 570 4416 755 4429 960 4429 
L 1235 4429 
C 1171 4006 1069 3680 864 3302 
C 653 2912 474 2675 173 2400 
C 371 2138 474 1958 602 1606 
C 832 1850 915 1939 1069 2138 
C 1338 1939 1619 1677 1837 1434 
C 1690 1210 1581 1075 1414 915 
C 1107 614 832 416 384 166 
C 646 -96 736 -218 902 -544 
C 1357 -237 1485 -141 1651 0 
C 1984 282 2291 634 2522 986 
C 2931 1619 3168 2374 3296 3482 
C 3328 3802 3328 3802 3341 3859 
C 3162 3846 3066 3840 2797 3840 
L 1907 3840 
z
M 2451 3130 
C 2381 2675 2336 2483 2202 2157 
C 1926 2413 1792 2522 1466 2752 
C 1542 2893 1581 2970 1651 3130 
L 2451 3130 
z
M 3718 4896 
C 3744 4678 3750 4467 3750 4096 
L 3750 1734 
C 3750 1325 3744 1152 3718 979 
L 4595 979 
C 4570 1165 4563 1331 4563 1754 
L 4563 4096 
C 4563 4499 4570 4685 4595 4896 
L 3718 4896 
z
M 5082 5306 
C 5107 5030 5120 4685 5120 4403 
L 5120 493 
C 5120 333 5075 307 4762 307 
C 4486 307 4250 320 3949 358 
C 4064 102 4115 -115 4154 -486 
C 4531 -499 4634 -499 4742 -499 
C 5734 -499 5933 -358 5933 326 
L 5933 4403 
C 5933 4787 5946 5062 5971 5306 
L 5082 5306 
z
" transform="scale(0.015625)"/>
     <path id="HiraginoSans-W7-3068" d="M 1850 5114 
C 1882 5024 1888 5005 1952 4698 
C 2106 3923 2208 3507 2362 2982 
C 1946 2778 1734 2643 1478 2426 
C 1107 2106 909 1683 909 1222 
C 909 909 1011 595 1190 371 
C 1530 -58 2240 -269 3347 -269 
C 3802 -269 4256 -237 4954 -166 
C 5318 -128 5350 -122 5491 -115 
L 5414 928 
C 4915 755 4058 646 3270 646 
C 2323 646 1901 832 1901 1254 
C 1901 1664 2349 2035 3226 2362 
C 3962 2630 4774 2854 5427 2963 
L 5107 3936 
C 5011 3891 4979 3878 4851 3840 
C 3853 3526 3584 3443 3232 3315 
C 3034 3987 2867 4838 2842 5267 
L 1850 5114 
z
" transform="scale(0.015625)"/>
     <path id="HiraginoSans-W7-6027" d="M 1773 4019 
C 1888 3750 1971 3488 2054 3085 
L 2310 3213 
C 2234 3040 2189 2957 2080 2784 
C 2464 2592 2464 2592 2803 2368 
C 2701 2374 2643 2381 2528 2394 
L 2528 1581 
C 2694 1600 2989 1613 3258 1613 
L 3789 1613 
L 3789 422 
L 2816 422 
C 2502 422 2214 435 2042 461 
L 2042 -390 
C 2259 -365 2509 -352 2816 -352 
L 5363 -352 
C 5677 -352 5920 -365 6138 -390 
L 6138 461 
C 5958 435 5690 422 5363 422 
L 4614 422 
L 4614 1613 
L 5152 1613 
C 5478 1613 5709 1600 5875 1581 
L 5875 2394 
C 5702 2368 5510 2362 5158 2362 
L 4614 2362 
L 4614 3373 
L 5274 3373 
C 5530 3373 5773 3360 5990 3334 
L 5990 4179 
C 5830 4154 5613 4141 5274 4141 
L 4614 4141 
L 4614 4717 
C 4614 5024 4627 5190 4653 5408 
L 3750 5408 
C 3776 5178 3789 5011 3789 4717 
L 3789 4141 
L 3354 4141 
C 3386 4339 3411 4506 3424 4602 
C 3443 4749 3456 4800 3475 4877 
L 2669 5024 
C 2669 4998 2669 4973 2669 4960 
C 2669 4627 2566 3994 2451 3610 
C 2355 3898 2278 4090 2170 4314 
L 1773 4122 
L 1773 4730 
C 1773 5043 1779 5197 1811 5427 
L 928 5427 
C 954 5210 966 5030 966 4730 
L 966 282 
C 966 -38 954 -314 928 -557 
L 1811 -557 
C 1779 -326 1773 -128 1773 224 
L 1773 4019 
z
M 3789 3373 
L 3789 2362 
L 3136 2362 
C 3008 2362 2931 2362 2810 2368 
C 3002 2746 3078 2938 3187 3373 
L 3789 3373 
z
M 666 2298 
C 787 2816 845 3328 858 4102 
L 333 4173 
C 333 4115 333 4070 333 4045 
C 333 3533 269 3034 134 2502 
L 666 2298 
z
" transform="scale(0.015625)"/>
    </defs>
    <use xlink:href="#HiraginoSans-W7-43"/>
    <use xlink:href="#HiraginoSans-W7-61" transform="translate(81.699982 0)"/>
    <use xlink:href="#HiraginoSans-W7-75" transform="translate(148.099976 0)"/>
    <use xlink:href="#HiraginoSans-W7-63" transform="translate(218.299957 0)"/>
    <use xlink:href="#HiraginoSans-W7-68" transform="translate(283.099945 0)"/>
    <use xlink:href="#HiraginoSans-W7-79" transform="translate(353.299927 0)"/>
    <use xlink:href="#HiraginoSans-W7-20" transform="translate(419.999924 0)"/>
    <use xlink:href="#HiraginoSans-W7-5217" transform="translate(453.299911 0)"/>
    <use xlink:href="#HiraginoSans-W7-3068" transform="translate(553.299896 0)"/>
    <use xlink:href="#HiraginoSans-W7-5b8c" transform="translate(653.299881 0)"/>
    <use xlink:href="#HiraginoSans-W7-5099" transform="translate(753.299866 0)"/>
    <use xlink:href="#HiraginoSans-W7-6027" transform="translate(853.29985 0)"/>
   </g>
  </g>
 </g>
 <defs>
  <clipPath id="p0e36769abb">
   <rect x="7.2" y="65.86125" width="415.8" height="297.73875"/>
  </clipPath>
  <clipPath id="p6e8ac575c0">
   <rect x="433.8" y="65.86125" width="415.8" height="297.73875"/>
  </clipPath>
 </defs>
</svg>
