<?xml version="1.0" encoding="utf-8" standalone="no"?>
<!DOCTYPE svg PUBLIC "-//W3C//DTD SVG 1.1//EN"
  "http://www.w3.org/Graphics/SVG/1.1/DTD/svg11.dtd">
<svg xmlns:xlink="http://www.w3.org/1999/xlink" width="368.864297pt" height="422.502187pt" viewBox="0 0 368.864297 422.502187" xmlns="http://www.w3.org/2000/svg" version="1.1">
 <metadata>
  <rdf:RDF xmlns:dc="http://purl.org/dc/elements/1.1/" xmlns:cc="http://creativecommons.org/ns#" xmlns:rdf="http://www.w3.org/1999/02/22-rdf-syntax-ns#">
   <cc:Work>
    <dc:type rdf:resource="http://purl.org/dc/dcmitype/StillImage"/>
    <dc:date>2026-04-02T01:10:16.212615</dc:date>
    <dc:format>image/svg+xml</dc:format>
    <dc:creator>
     <cc:Agent>
      <dc:title>Matplotlib v3.10.8, https://matplotlib.org/</dc:title>
     </cc:Agent>
    </dc:creator>
   </cc:Work>
  </rdf:RDF>
 </metadata>
 <defs>
  <style type="text/css">*{stroke-linejoin: round; stroke-linecap: butt}</style>
 </defs>
 <g id="figure_1">
  <g id="patch_1">
   <path d="M 0 422.502187 
L 368.864297 422.502187 
L 368.864297 0 
L 0 0 
z
" style="fill: #ffffff"/>
  </g>
  <g id="axes_1">
   <g id="patch_2">
    <path d="M 210.370762 335.801672 
C 243.508464 326.922452 272.05962 306.337103 289.736169 278.579311 
C 307.412719 250.821518 312.77145 218.157582 304.632165 187.781356 
C 296.49288 157.405129 275.520114 131.796697 246.332877 116.596018 
C 217.14564 101.395339 182.126939 97.843483 148.989238 106.722703 
C 115.851536 115.601923 87.30038 136.187272 69.623831 163.945064 
C 51.947281 191.702857 46.58855 224.366793 54.727835 254.743019 
C 62.86712 285.119246 83.839886 310.727678 113.027123 325.928357 
C 142.21436 341.129036 177.233061 344.680892 210.370762 335.801672 
z
" clip-path="url(#pf457c6b122)" style="fill: #bdd7ee; opacity: 0.45; stroke-dasharray: 5.55,2.4; stroke-dashoffset: 0; stroke: #2e75b6; stroke-width: 1.5; stroke-linejoin: miter"/>
   </g>
   <g id="patch_3">
    <path d="M 173.328581 306.192008 
C 198.667689 310.659977 224.550289 305.996808 245.276038 293.229512 
C 266.001788 280.462216 279.878521 260.633185 283.850048 238.109534 
C 287.821576 215.585882 281.56364 192.206566 266.454479 173.120608 
C 251.345318 154.034651 228.618527 140.800335 203.279419 136.332367 
C 177.940311 131.864398 152.057711 136.527567 131.331962 149.294863 
C 110.606212 162.062159 96.729479 181.89119 92.757952 204.414841 
C 88.786424 226.938493 95.04436 250.317809 110.153521 269.403767 
C 125.262682 288.489724 147.989473 301.72404 173.328581 306.192008 
z
" clip-path="url(#pf457c6b122)" style="fill: #9dc3e6; opacity: 0.45; stroke-dasharray: 5.55,2.4; stroke-dashoffset: 0; stroke: #2e75b6; stroke-width: 1.5; stroke-linejoin: miter"/>
   </g>
   <g id="patch_4">
    <path d="M 180.065695 270.645082 
C 196.014553 269.249737 210.817356 262.253722 221.213958 251.197827 
C 231.61056 240.141932 236.752125 225.928822 235.506282 211.68877 
C 234.260438 197.448717 226.728905 184.34436 214.570415 175.261779 
C 202.411925 166.179199 186.619164 161.859949 170.670305 163.255293 
C 154.721447 164.650638 139.918644 171.646653 129.522042 182.702548 
C 119.12544 193.758443 113.983875 207.971553 115.229718 222.211605 
C 116.475562 236.451658 124.007095 249.556015 136.165585 258.638596 
C 148.324075 267.721176 164.116836 272.040426 180.065695 270.645082 
z
" clip-path="url(#pf457c6b122)" style="fill: #5b9bd5; opacity: 0.45; stroke-dasharray: 5.55,2.4; stroke-dashoffset: 0; stroke: #1f4e79; stroke-width: 1.5; stroke-linejoin: miter"/>
   </g>
   <g id="text_1">
    <!-- U₁（開集合） -->
    <g style="fill: #1f4e79" transform="translate(309.04 122.086187) scale(0.085 -0.085)">
     <defs>
      <path id="HiraginoSans-W4-55" d="M 3872 4934 
C 3910 4710 3923 4506 3923 4160 
L 3923 1843 
C 3923 934 3430 435 2528 435 
C 1626 435 1126 941 1126 1843 
L 1126 4160 
C 1126 4518 1139 4730 1178 4934 
L 474 4934 
C 512 4717 525 4506 525 4160 
L 525 1824 
C 525 589 1235 -96 2515 -96 
C 3155 -96 3686 90 4019 429 
C 4352 768 4525 1242 4525 1824 
L 4525 4173 
C 4525 4512 4538 4710 4576 4934 
L 3872 4934 
z
" transform="scale(0.015625)"/>
      <path id="HiraginoSans-W4-2081" d="M 563 2330 
C 659 2342 749 2349 890 2349 
L 1082 2349 
L 1082 422 
C 1082 243 1075 141 1050 0 
L 1600 0 
C 1574 154 1568 262 1568 422 
L 1568 2195 
C 1568 2400 1581 2573 1600 2790 
C 1478 2771 1427 2771 1280 2771 
L 877 2771 
C 717 2771 659 2778 563 2790 
L 563 2330 
z
" transform="scale(0.015625)"/>
      <path id="HiraginoSans-W4-ff08" d="M 6170 -531 
C 5690 -26 5491 256 5280 698 
C 5024 1235 4902 1805 4902 2432 
C 4902 3059 5024 3629 5280 4166 
C 5491 4608 5690 4890 6170 5395 
L 5517 5395 
C 5139 4947 4966 4685 4774 4275 
C 4499 3686 4365 3085 4365 2432 
C 4365 1779 4499 1178 4774 589 
C 4966 179 5139 -83 5517 -531 
L 6170 -531 
z
" transform="scale(0.015625)"/>
      <path id="HiraginoSans-W4-958b" d="M 2342 2349 
C 2342 2022 2336 1920 2317 1613 
L 2118 1613 
C 1811 1613 1651 1619 1485 1645 
L 1485 1197 
C 1658 1222 1818 1229 2118 1229 
L 2285 1229 
C 2208 659 2016 339 1510 -38 
C 1677 -134 1766 -211 1888 -352 
C 2426 115 2630 512 2714 1229 
L 3610 1229 
L 3610 256 
C 3610 -13 3603 -160 3578 -294 
L 4077 -294 
C 4051 -173 4045 -32 4045 250 
L 4045 1229 
L 4301 1229 
C 4589 1229 4755 1222 4928 1197 
L 4928 1645 
C 4762 1619 4602 1613 4301 1613 
L 4045 1613 
L 4045 2349 
L 4218 2349 
C 4493 2349 4672 2342 4832 2323 
L 4832 2758 
C 4646 2733 4506 2726 4205 2726 
L 2227 2726 
C 1926 2726 1792 2733 1606 2758 
L 1606 2323 
C 1766 2342 1946 2349 2221 2349 
L 2342 2349 
z
M 3610 2349 
L 3610 1613 
L 2752 1613 
C 2771 1933 2771 1990 2771 2349 
L 3610 2349 
z
M 1062 3174 
L 2278 3174 
C 2554 3174 2726 3168 2912 3155 
C 2899 3322 2893 3475 2893 3744 
L 2893 4582 
C 2893 4826 2899 5005 2912 5190 
C 2733 5171 2579 5165 2259 5165 
L 1229 5165 
C 902 5165 736 5171 563 5190 
C 582 4986 589 4800 589 4480 
L 589 275 
C 589 -90 576 -288 550 -467 
L 1101 -467 
C 1075 -301 1062 -90 1062 269 
L 1062 3174 
z
M 1062 4800 
L 2451 4800 
L 2451 4358 
L 1062 4358 
L 1062 4800 
z
M 1062 4000 
L 2451 4000 
L 2451 3539 
L 1062 3539 
L 1062 4000 
z
M 5830 4480 
C 5830 4774 5837 4960 5862 5190 
C 5683 5171 5523 5165 5190 5165 
L 4090 5165 
C 3763 5165 3610 5171 3437 5190 
C 3450 4986 3456 4813 3456 4582 
L 3456 3744 
C 3456 3482 3450 3322 3437 3155 
C 3616 3168 3814 3174 4070 3174 
L 5357 3174 
L 5357 250 
C 5357 102 5312 70 5126 70 
C 4954 70 4672 96 4435 134 
C 4518 -45 4544 -154 4570 -352 
C 4851 -365 5011 -371 5152 -371 
C 5677 -371 5830 -243 5830 211 
L 5830 4480 
z
M 3898 4800 
L 5357 4800 
L 5357 4358 
L 3898 4358 
L 3898 4800 
z
M 3898 4000 
L 5357 4000 
L 5357 3539 
L 3898 3539 
L 3898 4000 
z
" transform="scale(0.015625)"/>
      <path id="HiraginoSans-W4-96c6" d="M 3526 2778 
L 4864 2778 
C 5165 2778 5299 2771 5453 2746 
L 5453 3174 
C 5254 3149 5146 3142 4864 3142 
L 3526 3142 
L 3526 3565 
L 4864 3565 
C 5165 3565 5280 3558 5453 3533 
L 5453 3962 
C 5261 3936 5139 3930 4864 3930 
L 3526 3930 
L 3526 4352 
L 5190 4352 
C 5446 4352 5574 4346 5734 4326 
L 5734 4774 
C 5555 4749 5421 4742 5139 4742 
L 3584 4742 
C 3693 4890 3802 5056 3962 5338 
L 3450 5434 
C 3373 5184 3277 5005 3085 4742 
L 1766 4742 
C 1837 4832 1971 5030 2176 5338 
L 1645 5446 
C 1600 5306 1523 5158 1427 5005 
C 1094 4486 723 4109 205 3744 
C 339 3597 384 3539 486 3341 
C 781 3571 941 3725 1158 3974 
C 1139 3789 1133 3584 1133 3366 
L 1133 2374 
C 1133 2195 1126 2042 1114 1920 
C 1242 1933 1338 1933 1581 1933 
L 2950 1933 
L 2950 1498 
L 1069 1498 
C 704 1498 531 1504 365 1536 
L 365 1050 
C 576 1075 774 1088 1069 1088 
L 2554 1088 
C 2330 890 2093 730 1766 563 
C 1299 326 877 192 262 83 
C 403 -77 467 -186 550 -378 
C 1005 -262 1389 -122 1741 45 
C 2253 294 2598 531 2970 915 
C 2957 819 2950 557 2950 448 
L 2950 -19 
C 2950 -237 2938 -346 2912 -486 
L 3456 -486 
C 3424 -365 3418 -275 3418 -13 
L 3418 448 
C 3418 576 3411 678 3398 922 
C 3789 544 4051 358 4486 128 
C 4915 -96 5286 -243 5843 -403 
C 5946 -179 5990 -109 6125 64 
C 5197 250 4384 608 3802 1088 
L 5325 1088 
C 5626 1088 5830 1075 6048 1050 
L 6048 1536 
C 5875 1504 5696 1498 5325 1498 
L 3418 1498 
L 3418 1933 
L 5165 1933 
C 5453 1933 5581 1926 5760 1901 
L 5760 2336 
C 5587 2310 5446 2304 5165 2304 
L 3526 2304 
L 3526 2778 
z
M 3078 2778 
L 3078 2304 
L 1600 2304 
L 1600 2778 
L 3078 2778 
z
M 3078 3142 
L 1600 3142 
L 1600 3565 
L 3078 3565 
L 3078 3142 
z
M 3078 3930 
L 1600 3930 
L 1600 4352 
L 3078 4352 
L 3078 3930 
z
" transform="scale(0.015625)"/>
      <path id="HiraginoSans-W4-5408" d="M 1677 2899 
C 1824 2918 1990 2925 2189 2925 
L 4186 2925 
C 4429 2925 4595 2918 4736 2899 
L 4736 3411 
C 5178 3104 5498 2918 5958 2701 
C 6042 2899 6112 3014 6234 3187 
C 5626 3424 5056 3750 4518 4186 
C 4019 4582 3731 4890 3456 5318 
L 2893 5318 
C 2630 4883 2381 4595 1926 4211 
C 1402 3763 832 3424 198 3162 
C 358 2989 422 2893 493 2720 
C 966 2938 1203 3078 1677 3398 
L 1677 2899 
z
M 2195 3386 
C 1971 3386 1811 3392 1690 3411 
C 2355 3878 2733 4256 3187 4890 
C 3597 4320 4032 3898 4730 3411 
C 4595 3392 4435 3386 4186 3386 
L 2195 3386 
z
M 1690 -435 
L 1690 -77 
L 4698 -77 
L 4698 -435 
L 5242 -435 
C 5216 -243 5203 -58 5203 205 
L 5203 1645 
C 5203 1901 5210 2067 5235 2240 
C 5101 2221 4960 2214 4723 2214 
L 1664 2214 
C 1427 2214 1286 2221 1152 2240 
C 1178 2061 1184 1888 1184 1645 
L 1184 205 
C 1184 -51 1171 -230 1146 -435 
L 1690 -435 
z
M 1690 1766 
L 4698 1766 
L 4698 371 
L 1690 371 
L 1690 1766 
z
" transform="scale(0.015625)"/>
      <path id="HiraginoSans-W4-ff09" d="M 890 -531 
C 1261 -83 1434 179 1626 589 
C 1901 1178 2035 1773 2035 2432 
C 2035 3091 1901 3686 1626 4275 
C 1434 4685 1261 4947 890 5395 
L 230 5395 
C 710 4890 909 4608 1120 4166 
C 1376 3629 1498 3072 1498 2432 
C 1498 1792 1376 1235 1120 698 
C 909 256 710 -26 230 -531 
L 890 -531 
z
" transform="scale(0.015625)"/>
     </defs>
     <use xlink:href="#HiraginoSans-W4-55"/>
     <use xlink:href="#HiraginoSans-W4-2081" transform="translate(78.899994 0)"/>
     <use xlink:href="#HiraginoSans-W4-ff08" transform="translate(119.099991 0)"/>
     <use xlink:href="#HiraginoSans-W4-958b" transform="translate(219.099976 0)"/>
     <use xlink:href="#HiraginoSans-W4-96c6" transform="translate(319.09996 0)"/>
     <use xlink:href="#HiraginoSans-W4-5408" transform="translate(419.099945 0)"/>
     <use xlink:href="#HiraginoSans-W4-ff09" transform="translate(519.09993 0)"/>
    </g>
   </g>
   <g id="text_2">
    <!-- U₂（開集合） -->
    <g style="fill: #1f4e79" transform="translate(278.856 152.270187) scale(0.085 -0.085)">
     <defs>
      <path id="HiraginoSans-W4-2082" d="M 1805 0 
C 1933 0 2074 -6 2259 -13 
L 2259 454 
C 2112 442 2003 435 1811 435 
L 826 435 
C 883 634 1069 845 1376 1056 
C 1818 1363 1830 1370 1926 1459 
C 2144 1645 2240 1837 2240 2080 
C 2240 2528 1862 2829 1286 2829 
C 954 2829 685 2720 506 2515 
C 390 2381 333 2259 275 2010 
L 768 1939 
C 826 2272 973 2406 1286 2406 
C 1568 2406 1747 2278 1747 2080 
C 1747 1869 1658 1760 1274 1498 
C 864 1222 845 1203 717 1082 
C 525 902 378 678 307 461 
C 262 320 250 224 237 -13 
C 384 0 422 0 653 0 
L 1805 0 
z
" transform="scale(0.015625)"/>
     </defs>
     <use xlink:href="#HiraginoSans-W4-55"/>
     <use xlink:href="#HiraginoSans-W4-2082" transform="translate(78.899994 0)"/>
     <use xlink:href="#HiraginoSans-W4-ff08" transform="translate(119.099991 0)"/>
     <use xlink:href="#HiraginoSans-W4-958b" transform="translate(219.099976 0)"/>
     <use xlink:href="#HiraginoSans-W4-96c6" transform="translate(319.09996 0)"/>
     <use xlink:href="#HiraginoSans-W4-5408" transform="translate(419.099945 0)"/>
     <use xlink:href="#HiraginoSans-W4-ff09" transform="translate(519.09993 0)"/>
    </g>
   </g>
   <g id="text_3">
    <!-- U₃（開集合） -->
    <g style="fill: #1f4e79" transform="translate(240.048 180.298187) scale(0.085 -0.085)">
     <defs>
      <path id="HiraginoSans-W4-2083" d="M 186 640 
C 262 422 320 326 429 218 
C 608 26 890 -77 1248 -77 
C 1882 -77 2278 237 2278 736 
C 2278 973 2195 1165 2042 1286 
C 1914 1382 1798 1427 1574 1453 
C 1971 1517 2170 1747 2170 2118 
C 2170 2579 1818 2867 1254 2867 
C 915 2867 646 2765 467 2566 
C 378 2464 333 2381 269 2182 
L 762 2086 
C 813 2336 966 2451 1248 2451 
C 1536 2451 1696 2317 1696 2080 
C 1696 1805 1498 1645 1158 1645 
C 1011 1645 928 1651 838 1670 
L 838 1229 
C 954 1242 1069 1248 1216 1248 
C 1594 1248 1811 1088 1811 800 
C 1811 512 1606 346 1254 346 
C 1082 346 954 390 838 486 
C 768 550 736 608 691 755 
L 186 640 
z
" transform="scale(0.015625)"/>
     </defs>
     <use xlink:href="#HiraginoSans-W4-55"/>
     <use xlink:href="#HiraginoSans-W4-2083" transform="translate(78.899994 0)"/>
     <use xlink:href="#HiraginoSans-W4-ff08" transform="translate(119.099991 0)"/>
     <use xlink:href="#HiraginoSans-W4-958b" transform="translate(219.099976 0)"/>
     <use xlink:href="#HiraginoSans-W4-96c6" transform="translate(319.09996 0)"/>
     <use xlink:href="#HiraginoSans-W4-5408" transform="translate(419.099945 0)"/>
     <use xlink:href="#HiraginoSans-W4-ff09" transform="translate(519.09993 0)"/>
    </g>
   </g>
   <g id="text_4">
    <!-- x -->
    <g style="fill: #c00000" transform="translate(186.148 212.638187) scale(0.14 -0.14)">
     <defs>
      <path id="HiraginoSans-W7-78" d="M 4154 -134 
C 4006 51 3846 256 3680 480 
L 2701 1856 
L 3584 3098 
C 3680 3232 3840 3443 4006 3654 
L 2810 3654 
C 2746 3501 2650 3328 2522 3142 
L 2118 2534 
L 1709 3142 
C 1606 3296 1510 3475 1434 3654 
L 218 3654 
C 442 3373 563 3219 640 3104 
L 1530 1856 
L 538 454 
C 416 288 218 32 77 -134 
L 1312 -134 
C 1427 90 1498 205 1619 390 
L 2112 1139 
L 2598 416 
C 2720 237 2784 122 2906 -134 
L 4154 -134 
z
" transform="scale(0.015625)"/>
     </defs>
     <use xlink:href="#HiraginoSans-W7-78"/>
    </g>
   </g>
   <g id="text_5">
    <!-- 距離なし — x を含む開集合のみ -->
    <g style="fill: #1f4e79" transform="translate(106.890156 385.118187) scale(0.1 -0.1)">
     <defs>
      <path id="HiraginoSans-W4-8ddd" d="M 1549 422 
C 1325 365 1325 365 1082 307 
L 1082 1990 
C 1082 2202 1088 2342 1107 2515 
L 614 2515 
C 634 2330 646 2163 646 1965 
L 646 218 
C 448 186 320 166 205 166 
L 320 -365 
C 416 -333 602 -282 768 -243 
C 1638 -26 2176 128 2886 365 
L 2874 819 
C 2509 691 2387 653 1997 538 
L 1997 1754 
L 2304 1754 
C 2534 1754 2669 1747 2848 1722 
L 2848 2214 
C 2694 2182 2560 2176 2310 2176 
L 1997 2176 
L 1997 3072 
L 2208 3072 
C 2445 3072 2598 3066 2726 3053 
C 2714 3181 2714 3296 2714 3674 
L 2714 4467 
C 2714 4749 2720 4954 2733 5101 
C 2541 5075 2374 5069 2125 5069 
L 1165 5069 
C 922 5069 755 5075 570 5101 
C 582 4934 595 4730 595 4448 
L 595 3680 
C 595 3386 589 3219 570 3046 
C 762 3066 902 3072 1107 3072 
L 1549 3072 
L 1549 422 
z
M 1050 4653 
L 2266 4653 
L 2266 3482 
L 1050 3482 
L 1050 4653 
z
M 3648 1485 
L 5235 1485 
C 5440 1485 5574 1478 5779 1466 
C 5766 1606 5766 1709 5766 2022 
L 5766 3046 
C 5766 3270 5773 3411 5786 3590 
C 5626 3571 5472 3565 5216 3565 
L 3648 3565 
L 3648 4608 
L 5414 4608 
C 5658 4608 5862 4595 6054 4570 
L 6054 5107 
C 5862 5075 5677 5062 5402 5062 
L 3757 5062 
C 3488 5062 3309 5069 3142 5082 
C 3155 4922 3168 4678 3168 4448 
L 3168 186 
C 3168 -83 3155 -320 3130 -525 
L 3648 -525 
L 3648 -160 
L 5485 -160 
C 5754 -160 5946 -173 6131 -198 
L 6131 339 
C 5933 307 5734 294 5478 294 
L 3648 294 
L 3648 1485 
z
M 3648 1926 
L 3648 3123 
L 5299 3123 
L 5299 1926 
L 3648 1926 
z
" transform="scale(0.015625)"/>
      <path id="HiraginoSans-W4-96e2" d="M 5178 2630 
L 5376 2630 
C 5632 2630 5818 2618 5946 2598 
L 5946 3072 
C 5811 3046 5683 3040 5376 3040 
L 5178 3040 
L 5178 3917 
L 5434 3917 
C 5766 3917 5952 3910 6086 3891 
L 6086 4378 
C 5933 4346 5779 4339 5434 4339 
L 5197 4339 
C 5312 4570 5421 4813 5523 5062 
C 5536 5101 5555 5152 5587 5222 
L 5126 5357 
C 5030 4960 4922 4672 4755 4339 
L 4070 4339 
C 4147 4525 4198 4646 4275 4858 
C 4390 5184 4390 5184 4435 5293 
L 3949 5421 
C 3821 4666 3456 3821 3027 3302 
L 3027 3846 
C 3027 4019 3034 4134 3053 4262 
L 2605 4262 
C 2624 4141 2630 4006 2630 3846 
L 2630 2861 
L 1043 2861 
L 1043 3846 
C 1043 4006 1050 4122 1069 4269 
L 608 4269 
C 634 4096 640 3955 640 3802 
L 640 2944 
C 640 2726 634 2598 614 2496 
C 819 2509 941 2509 1152 2509 
L 1651 2509 
C 1619 2323 1613 2298 1581 2131 
L 1056 2131 
C 819 2131 653 2138 461 2157 
C 480 1958 486 1779 486 1498 
L 486 218 
C 486 -83 474 -282 454 -461 
L 954 -461 
C 934 -320 928 -173 928 211 
L 928 1760 
L 1498 1760 
C 1408 1376 1344 1146 1242 845 
C 1146 838 1082 832 1037 832 
C 1024 832 998 832 960 838 
L 1050 410 
C 1114 429 1178 442 1267 454 
C 1677 518 1990 582 2304 659 
C 2342 538 2355 486 2400 326 
L 2752 486 
C 2592 954 2509 1158 2317 1517 
L 1990 1389 
C 2093 1197 2118 1146 2189 986 
C 2074 960 1946 934 1645 890 
C 1728 1146 1760 1248 1901 1760 
L 2778 1760 
L 2778 154 
C 2778 19 2739 -6 2554 -6 
C 2368 -6 2208 6 1939 51 
C 2003 -122 2022 -224 2035 -390 
C 2285 -410 2355 -410 2470 -410 
C 3066 -410 3206 -314 3206 96 
L 3206 1587 
C 3206 1818 3213 1984 3232 2157 
C 3066 2138 2925 2131 2624 2131 
L 1997 2131 
C 2022 2266 2029 2278 2074 2509 
L 2554 2509 
C 2707 2509 2829 2509 3040 2496 
C 3034 2630 3027 2752 3027 2899 
L 3027 3264 
C 3123 3181 3200 3085 3296 2938 
C 3430 3123 3482 3200 3616 3443 
C 3597 3174 3597 3142 3597 2912 
L 3597 243 
C 3597 -102 3584 -326 3558 -474 
L 4045 -474 
L 4045 -166 
L 5504 -166 
C 5754 -166 5990 -179 6138 -205 
L 6138 288 
C 5997 262 5824 256 5536 256 
L 5178 256 
L 5178 1331 
L 5376 1331 
C 5619 1331 5811 1318 5946 1293 
L 5946 1779 
C 5798 1754 5645 1741 5376 1741 
L 5178 1741 
L 5178 2630 
z
M 4755 2630 
L 4755 1741 
L 4045 1741 
L 4045 2630 
L 4755 2630 
z
M 4755 3040 
L 4045 3040 
L 4045 3917 
L 4755 3917 
L 4755 3040 
z
M 4045 1331 
L 4755 1331 
L 4755 256 
L 4045 256 
L 4045 1331 
z
M 1606 4832 
L 864 4832 
C 646 4832 493 4838 352 4864 
L 352 4410 
C 486 4429 627 4435 851 4435 
L 2790 4435 
C 2989 4435 3149 4429 3309 4410 
L 3309 4864 
C 3162 4845 2976 4832 2784 4832 
L 2067 4832 
L 2067 4928 
C 2067 5114 2074 5216 2099 5357 
L 1568 5357 
C 1594 5248 1606 5120 1606 4922 
L 1606 4832 
z
M 2522 3309 
C 2349 3475 2298 3520 2157 3648 
C 2323 3827 2381 3898 2534 4077 
L 2234 4326 
C 2099 4115 2035 4038 1882 3878 
C 1760 3981 1677 4045 1408 4243 
L 1158 3994 
C 1389 3834 1466 3770 1626 3635 
C 1427 3475 1338 3411 1075 3258 
C 1178 3181 1216 3136 1331 2982 
C 1626 3181 1734 3258 1894 3398 
C 2035 3264 2093 3206 2272 3014 
L 2522 3309 
z
" transform="scale(0.015625)"/>
      <path id="HiraginoSans-W4-306a" d="M 2074 5229 
C 2054 4941 1971 4454 1862 4051 
C 1760 4045 1594 4045 1421 4045 
C 1062 4045 870 4058 646 4096 
L 646 3571 
C 678 3571 704 3571 717 3571 
C 755 3571 806 3571 870 3571 
C 1062 3565 1114 3565 1267 3565 
C 1536 3565 1562 3565 1728 3571 
C 1434 2586 922 1530 467 954 
L 986 653 
C 1018 710 1056 781 1114 877 
C 1357 1306 1414 1414 1568 1722 
C 1850 2310 2080 2925 2272 3590 
C 2707 3622 3072 3674 3315 3718 
C 3462 3744 3462 3744 3533 3750 
L 3514 4282 
C 3238 4192 2835 4122 2406 4083 
C 2483 4384 2522 4525 2566 4742 
C 2624 5018 2624 5037 2662 5152 
L 2074 5229 
z
M 5933 3488 
C 5408 3827 4954 4051 4211 4339 
L 3936 3904 
C 4627 3654 5133 3398 5670 3027 
L 5933 3488 
z
M 5939 640 
C 5901 672 5901 672 5843 717 
C 5786 774 5760 794 5664 870 
C 5280 1171 5050 1299 4576 1510 
C 4538 1792 4506 2182 4506 2451 
C 4506 2694 4525 2822 4595 3066 
L 4070 3110 
C 4026 2893 4006 2726 4006 2515 
C 4006 2304 4026 1958 4051 1645 
C 3782 1709 3622 1728 3405 1728 
C 2618 1728 2067 1312 2067 717 
C 2067 333 2304 6 2682 -122 
C 2886 -198 3142 -237 3379 -237 
C 3827 -237 4198 -96 4390 147 
C 4518 307 4602 563 4602 806 
C 4602 858 4602 890 4589 973 
C 5037 730 5434 422 5670 128 
L 5939 640 
z
M 4077 1152 
C 4083 1152 4096 966 4096 896 
C 4096 454 3853 243 3347 243 
C 2867 243 2579 429 2579 736 
C 2579 1062 2899 1274 3405 1274 
C 3648 1274 3821 1242 4077 1152 
z
" transform="scale(0.015625)"/>
      <path id="HiraginoSans-W4-3057" d="M 1440 5030 
C 1453 4890 1459 4813 1459 4672 
C 1459 4576 1459 4429 1453 4243 
C 1408 2234 1402 2035 1402 1645 
C 1402 1306 1434 992 1491 800 
C 1574 525 1747 275 1965 115 
C 2208 -58 2592 -160 3034 -160 
C 3776 -160 4390 109 4851 640 
C 5139 973 5325 1363 5574 2144 
C 5331 2266 5242 2323 5030 2509 
C 4947 2061 4870 1798 4717 1485 
C 4378 768 3789 371 3072 371 
C 2630 371 2304 506 2138 749 
C 2003 960 1958 1203 1958 1786 
C 1958 2214 1997 3763 2022 4230 
C 2042 4685 2061 4858 2093 5024 
L 1440 5030 
z
" transform="scale(0.015625)"/>
      <path id="HiraginoSans-W4-20" transform="scale(0.015625)"/>
      <path id="HiraginoSans-W4-2014" d="M 0 1504 
L 6400 1504 
L 6400 2029 
L 0 2029 
L 0 1504 
z
" transform="scale(0.015625)"/>
      <path id="HiraginoSans-W4-78" d="M 3469 0 
C 3238 294 3078 512 3008 614 
L 2138 1824 
L 2963 2982 
C 3021 3072 3168 3270 3206 3322 
C 3315 3462 3315 3462 3354 3520 
L 2630 3520 
C 2566 3386 2483 3238 2368 3072 
L 1792 2227 
L 1203 3072 
C 1088 3238 1024 3360 947 3520 
L 211 3520 
C 474 3174 557 3072 608 3002 
L 1440 1830 
L 531 563 
C 422 410 237 160 109 0 
L 858 0 
C 966 205 1018 294 1114 435 
L 1786 1421 
L 2426 486 
C 2566 288 2624 192 2720 0 
L 3469 0 
z
" transform="scale(0.015625)"/>
      <path id="HiraginoSans-W4-3092" d="M 2189 4365 
C 1491 4365 1088 4390 813 4442 
L 800 3917 
C 864 3930 902 3930 934 3930 
C 966 3930 998 3930 1062 3923 
C 1197 3917 1830 3904 1958 3904 
C 1984 3904 2054 3910 2074 3910 
C 2035 3840 2035 3840 2016 3808 
C 1581 3046 1037 2362 614 2042 
L 1037 1619 
C 1152 1798 1293 1952 1549 2163 
C 2054 2598 2547 2835 2938 2835 
C 3226 2835 3373 2694 3411 2381 
C 2982 2189 2707 2042 2470 1869 
C 2016 1542 1792 1197 1792 832 
C 1792 499 1952 218 2227 64 
C 2534 -109 2944 -186 3539 -186 
C 4058 -186 4646 -141 5133 -64 
C 5267 -38 5293 -38 5395 -32 
L 5338 557 
C 4954 403 4250 301 3597 301 
C 2694 301 2330 467 2330 870 
C 2330 1088 2445 1267 2707 1472 
C 2874 1600 3085 1715 3475 1894 
C 3475 1818 3475 1798 3475 1696 
C 3475 1350 3456 973 3437 845 
L 3962 851 
C 3949 954 3949 1005 3949 1114 
C 3949 1165 3949 1254 3949 1376 
C 3955 1504 3955 1638 3955 1709 
C 3955 1850 3955 1869 3949 2080 
C 4800 2406 5299 2566 5645 2624 
L 5414 3149 
C 5312 3085 5293 3078 4966 2963 
C 4653 2854 4390 2758 3891 2566 
C 3802 3027 3507 3264 3027 3264 
C 2726 3264 2413 3174 2144 3002 
C 2080 2963 2042 2938 1926 2842 
C 1907 2829 1875 2810 1837 2778 
C 1837 2778 1830 2784 1824 2797 
C 1830 2803 1830 2803 1837 2810 
C 1837 2816 1862 2835 1901 2861 
C 1920 2874 2054 3021 2106 3098 
C 2310 3354 2438 3565 2624 3910 
C 3251 3930 4070 3987 4512 4045 
C 4883 4096 4883 4096 5005 4109 
L 4966 4621 
C 4627 4518 4032 4442 3238 4397 
C 2880 4378 2880 4378 2835 4371 
C 2874 4435 2944 4595 3027 4800 
C 3130 5050 3130 5050 3181 5126 
L 2579 5216 
C 2560 5011 2490 4813 2291 4365 
L 2189 4365 
z
" transform="scale(0.015625)"/>
      <path id="HiraginoSans-W4-542b" d="M 2080 3386 
C 2234 3405 2387 3411 2624 3411 
L 3827 3411 
C 4070 3411 4205 3405 4365 3386 
L 4365 3814 
C 4902 3430 5331 3181 5939 2912 
C 6035 3098 6112 3219 6246 3366 
C 5734 3546 5344 3738 4864 4045 
C 4230 4448 3853 4781 3437 5312 
L 2912 5312 
C 2304 4474 1357 3782 186 3328 
C 352 3155 390 3104 506 2893 
C 1088 3168 1536 3430 2080 3834 
L 2080 3386 
z
M 2618 3821 
C 2368 3821 2253 3827 2099 3846 
C 2502 4154 2778 4422 3181 4896 
C 3546 4474 3846 4192 4320 3846 
C 4192 3827 4058 3821 3834 3821 
L 2618 3821 
z
M 4064 1683 
L 4947 2458 
C 5107 2598 5107 2598 5120 2605 
C 5171 2650 5171 2650 5197 2669 
L 4896 2963 
C 4781 2944 4646 2938 4378 2938 
L 1651 2938 
C 1421 2938 1261 2944 1107 2970 
L 1107 2483 
C 1280 2509 1466 2515 1702 2515 
L 4378 2515 
L 3411 1683 
L 1562 1683 
C 1376 1683 1242 1690 1088 1709 
C 1107 1549 1120 1408 1120 1216 
L 1120 58 
C 1120 -134 1107 -294 1082 -486 
L 1606 -486 
L 1606 -198 
L 4819 -198 
L 4819 -486 
L 5344 -486 
C 5318 -314 5312 -141 5312 51 
L 5312 1203 
C 5312 1408 5318 1542 5338 1709 
C 5197 1690 5069 1683 4870 1683 
L 4064 1683 
z
M 1606 1254 
L 4819 1254 
L 4819 237 
L 1606 237 
L 1606 1254 
z
" transform="scale(0.015625)"/>
      <path id="HiraginoSans-W4-3080" d="M 672 3789 
C 710 3789 742 3789 762 3789 
C 787 3789 826 3789 877 3782 
C 1050 3776 1178 3770 1376 3770 
C 1594 3770 1594 3770 1850 3776 
C 1850 3590 1843 3526 1843 3462 
C 1837 3226 1837 3226 1837 3149 
C 1773 3162 1754 3162 1709 3162 
C 1126 3162 672 2701 672 2106 
C 672 1606 986 1235 1408 1235 
C 1549 1235 1626 1261 1722 1325 
L 1728 1318 
C 1555 1069 1485 877 1485 640 
C 1485 58 1990 -198 3162 -198 
C 3456 -198 3776 -179 4045 -141 
C 4486 -90 4742 -13 4973 128 
C 5248 288 5389 563 5389 922 
C 5389 1235 5293 1632 5101 2093 
C 4845 2112 4749 2131 4506 2202 
C 4710 1818 4858 1318 4858 998 
C 4858 749 4755 602 4499 493 
C 4243 384 3706 307 3187 307 
C 2758 307 2451 346 2259 416 
C 2093 486 2016 582 2016 736 
C 2016 922 2086 1114 2266 1402 
C 2413 1651 2445 1696 2483 1773 
C 2573 1965 2618 2144 2618 2349 
C 2618 2650 2534 2842 2336 3002 
C 2336 3066 2336 3328 2349 3795 
C 2643 3814 3002 3859 3354 3923 
C 3456 3942 3475 3949 3546 3955 
L 3520 4461 
C 3290 4371 2829 4288 2362 4250 
C 2381 4928 2381 4928 2426 5114 
L 1843 5120 
C 1862 4979 1869 4915 1869 4704 
C 1869 4646 1869 4486 1862 4230 
C 1664 4218 1587 4218 1485 4218 
C 1050 4218 845 4237 672 4282 
L 672 3789 
z
M 1715 2746 
C 1997 2726 2118 2592 2118 2304 
C 2118 1939 1875 1658 1562 1658 
C 1312 1658 1152 1843 1152 2138 
C 1152 2464 1402 2752 1690 2752 
C 1696 2752 1702 2752 1715 2746 
z
M 4083 4250 
C 4589 3923 5158 3360 5504 2854 
L 5933 3219 
C 5498 3763 5075 4160 4480 4570 
L 4083 4250 
z
" transform="scale(0.015625)"/>
      <path id="HiraginoSans-W4-306e" d="M 3053 422 
C 3200 243 3245 160 3328 -96 
C 3821 6 4090 90 4397 237 
C 5293 666 5798 1459 5798 2451 
C 5798 3802 4832 4698 3379 4698 
C 2509 4698 1792 4403 1274 3834 
C 832 3347 589 2707 589 2042 
C 589 1107 1062 422 1709 422 
C 2189 422 2573 806 2938 1645 
C 3238 2323 3469 3264 3578 4205 
C 3891 4186 4070 4141 4294 4032 
C 4902 3738 5242 3174 5242 2477 
C 5242 1734 4870 1107 4230 768 
C 3917 602 3610 512 3053 422 
z
M 3027 4192 
C 2944 3398 2714 2483 2458 1888 
C 2195 1286 1952 992 1702 992 
C 1370 992 1114 1453 1114 2035 
C 1114 2797 1491 3501 2112 3891 
C 2394 4077 2656 4160 3027 4192 
z
" transform="scale(0.015625)"/>
      <path id="HiraginoSans-W4-307f" d="M 1242 4301 
C 1382 4320 1478 4326 1722 4333 
C 2451 4365 2515 4365 2899 4397 
C 2701 3718 2618 3462 2419 2867 
C 1914 2854 1581 2778 1248 2586 
C 768 2298 480 1818 480 1299 
C 480 1069 538 819 621 659 
C 774 371 1075 179 1376 179 
C 1696 179 1946 378 2182 806 
C 2349 1114 2534 1600 2790 2355 
C 3430 2272 3917 2125 4461 1850 
C 4365 1485 4160 1120 3878 813 
C 3603 506 3334 320 2854 90 
C 3040 -45 3098 -102 3264 -314 
C 3654 -109 3974 134 4269 454 
C 4589 806 4774 1120 4941 1600 
C 5376 1357 5702 1146 5901 979 
L 6106 1574 
C 6022 1613 5978 1638 5933 1664 
C 5574 1875 5459 1939 5069 2131 
C 5152 2650 5171 2886 5184 3514 
C 5190 3744 5197 3795 5216 3917 
L 4640 3930 
C 4659 3814 4666 3750 4666 3610 
C 4666 3002 4646 2694 4589 2349 
C 3981 2618 3494 2758 2938 2822 
C 3072 3200 3117 3347 3232 3693 
C 3482 4461 3494 4493 3584 4614 
L 3194 4934 
C 3123 4890 3072 4870 2957 4858 
C 2746 4832 2195 4806 1843 4806 
C 1542 4806 1382 4819 1222 4845 
L 1242 4301 
z
M 2272 2394 
C 1856 1165 1619 723 1370 723 
C 1158 723 986 973 986 1293 
C 986 1549 1088 1805 1274 1990 
C 1517 2234 1818 2355 2272 2394 
z
" transform="scale(0.015625)"/>
     </defs>
     <use xlink:href="#HiraginoSans-W4-8ddd"/>
     <use xlink:href="#HiraginoSans-W4-96e2" transform="translate(99.999985 0)"/>
     <use xlink:href="#HiraginoSans-W4-306a" transform="translate(199.999969 0)"/>
     <use xlink:href="#HiraginoSans-W4-3057" transform="translate(299.999954 0)"/>
     <use xlink:href="#HiraginoSans-W4-20" transform="translate(399.999939 0)"/>
     <use xlink:href="#HiraginoSans-W4-2014" transform="translate(433.299927 0)"/>
     <use xlink:href="#HiraginoSans-W4-20" transform="translate(533.299911 0)"/>
     <use xlink:href="#HiraginoSans-W4-78" transform="translate(566.599899 0)"/>
     <use xlink:href="#HiraginoSans-W4-20" transform="translate(622.499893 0)"/>
     <use xlink:href="#HiraginoSans-W4-3092" transform="translate(655.799881 0)"/>
     <use xlink:href="#HiraginoSans-W4-542b" transform="translate(755.799866 0)"/>
     <use xlink:href="#HiraginoSans-W4-3080" transform="translate(855.79985 0)"/>
     <use xlink:href="#HiraginoSans-W4-958b" transform="translate(955.799835 0)"/>
     <use xlink:href="#HiraginoSans-W4-96c6" transform="translate(1055.79982 0)"/>
     <use xlink:href="#HiraginoSans-W4-5408" transform="translate(1155.799805 0)"/>
     <use xlink:href="#HiraginoSans-W4-306e" transform="translate(1255.799789 0)"/>
     <use xlink:href="#HiraginoSans-W4-307f" transform="translate(1355.799774 0)"/>
    </g>
   </g>
   <g id="text_6">
    <g id="patch_5">
     <path d="M 100.753516 413.86575 
L 258.606484 413.86575 
Q 261.306484 413.86575 261.306484 411.16575 
L 261.306484 401.777625 
Q 261.306484 399.077625 258.606484 399.077625 
L 100.753516 399.077625 
Q 98.053516 399.077625 98.053516 401.777625 
L 98.053516 411.16575 
Q 98.053516 413.86575 100.753516 413.86575 
z
" style="fill: #deeaf1; stroke: #2e75b6; stroke-linejoin: miter"/>
    </g>
    <!-- nhds x = ⨅ { P(U) | U open, x ∈ U } -->
    <g style="fill: #1f4e79" transform="translate(100.753516 408.834187) scale(0.09 -0.09)">
     <defs>
      <path id="HiraginoSans-W4-6e" d="M 1114 0 
C 1082 256 1069 474 1069 755 
L 1069 2010 
C 1139 2272 1222 2426 1395 2630 
C 1658 2944 1933 3085 2266 3085 
C 2752 3085 3002 2797 3002 2234 
L 3002 755 
C 3002 454 2989 269 2957 0 
L 3629 0 
C 3597 218 3584 416 3584 749 
L 3584 2323 
C 3584 2662 3520 2912 3392 3110 
C 3181 3418 2816 3584 2349 3584 
C 1779 3584 1376 3360 1056 2867 
C 1069 3027 1069 3059 1069 3142 
L 1069 3520 
L 442 3520 
C 480 3264 493 3078 493 2765 
L 493 755 
C 493 429 480 256 442 0 
L 1114 0 
z
" transform="scale(0.015625)"/>
      <path id="HiraginoSans-W4-68" d="M 1107 0 
C 1075 256 1062 474 1062 755 
L 1062 2003 
C 1139 2272 1229 2438 1402 2643 
C 1645 2931 1933 3078 2259 3078 
C 2490 3078 2682 3002 2810 2861 
C 2931 2726 2995 2522 2995 2240 
L 2995 755 
C 2995 422 2982 224 2944 0 
L 3622 0 
C 3590 230 3578 448 3578 749 
L 3578 2362 
C 3578 3130 3123 3584 2355 3584 
C 1773 3584 1357 3347 1043 2854 
C 1056 3046 1062 3066 1062 3168 
L 1062 4173 
C 1062 4512 1069 4691 1107 4934 
L 442 4934 
C 480 4691 493 4512 493 4179 
L 493 755 
C 493 422 480 250 442 0 
L 1107 0 
z
" transform="scale(0.015625)"/>
      <path id="HiraginoSans-W4-64" d="M 3187 0 
L 3802 0 
C 3770 250 3757 442 3757 774 
L 3757 4173 
C 3757 4467 3770 4666 3802 4934 
L 3142 4934 
C 3174 4691 3187 4486 3187 4173 
L 3187 3398 
C 3187 3296 3187 3194 3194 3149 
C 3200 3040 3200 3040 3206 2970 
C 2918 3379 2470 3597 1901 3597 
C 909 3597 282 2886 282 1766 
C 282 1171 461 672 794 339 
C 1069 70 1446 -64 1914 -64 
C 2483 -64 2880 128 3206 563 
C 3200 480 3187 365 3187 288 
L 3187 0 
z
M 1971 3098 
C 2310 3098 2618 2976 2842 2752 
C 3059 2541 3181 2189 3181 1786 
C 3181 966 2707 429 1978 429 
C 1709 429 1459 512 1274 672 
C 1024 890 883 1280 883 1786 
C 883 2598 1293 3098 1971 3098 
z
" transform="scale(0.015625)"/>
      <path id="HiraginoSans-W4-73" d="M 262 973 
C 326 704 378 589 480 448 
C 730 109 1184 -70 1786 -70 
C 2707 -70 3270 339 3270 1011 
C 3270 1293 3136 1555 2912 1722 
C 2720 1862 2483 1946 1894 2074 
C 1510 2157 1357 2208 1210 2285 
C 1075 2355 998 2483 998 2624 
C 998 2944 1312 3162 1760 3162 
C 2042 3162 2259 3078 2400 2925 
C 2483 2835 2515 2758 2554 2598 
L 3155 2688 
C 3066 2982 2982 3136 2810 3283 
C 2573 3494 2208 3610 1754 3610 
C 1299 3610 941 3494 698 3258 
C 518 3091 416 2861 416 2618 
C 416 2310 557 2054 819 1888 
C 1043 1747 1261 1677 1760 1574 
C 2246 1466 2349 1440 2490 1350 
C 2618 1274 2682 1139 2682 973 
C 2682 621 2342 397 1818 397 
C 1504 397 1267 474 1107 614 
C 986 730 934 832 890 1069 
L 262 973 
z
" transform="scale(0.015625)"/>
      <path id="HiraginoSans-W4-3d" d="M 333 2720 
L 333 2195 
L 3923 2195 
L 3923 2720 
L 333 2720 
z
M 333 1376 
L 333 851 
L 3923 851 
L 3923 1376 
L 333 1376 
z
" transform="scale(0.015625)"/>
      <path id="STIXGeneral-Regular-2a05" d="M 5312 -1658 
L 4800 -1658 
L 4800 4371 
L 1114 4371 
L 1114 -1658 
L 602 -1658 
L 602 4883 
L 5312 4883 
L 5312 -1658 
z
" transform="scale(0.015625)"/>
      <path id="HiraginoSans-W4-7b" d="M 557 1747 
C 845 1690 902 1568 902 979 
L 902 -173 
C 902 -685 1210 -979 1754 -979 
L 2195 -979 
L 2195 -480 
L 1990 -480 
C 1594 -480 1472 -371 1472 -13 
L 1472 909 
C 1472 1702 1427 1837 1139 1978 
C 1427 2125 1472 2259 1472 3046 
L 1472 3968 
C 1472 4326 1594 4435 1990 4435 
L 2195 4435 
L 2195 4934 
L 1754 4934 
C 1210 4934 902 4640 902 4128 
L 902 2976 
C 902 2387 845 2266 557 2208 
L 557 1747 
z
" transform="scale(0.015625)"/>
      <path id="HiraginoSans-W4-50" d="M 1178 0 
C 1139 230 1126 435 1126 755 
L 1126 1965 
L 2496 1965 
C 3533 1965 4128 2522 4128 3494 
C 4128 4416 3558 4934 2528 4934 
L 1210 4934 
C 909 4934 710 4941 480 4954 
C 518 4678 531 4480 531 4198 
L 531 749 
C 531 429 518 243 480 0 
L 1178 0 
z
M 1126 2490 
L 1126 4410 
L 2496 4410 
C 3162 4410 3507 4083 3507 3469 
C 3507 2842 3142 2490 2496 2490 
L 1126 2490 
z
" transform="scale(0.015625)"/>
      <path id="HiraginoSans-W4-28" d="M 2195 -749 
C 1830 -198 1683 90 1542 538 
C 1402 986 1331 1472 1331 1978 
C 1331 2483 1402 2963 1542 3411 
C 1683 3859 1830 4147 2195 4698 
L 1715 5018 
C 1350 4461 1197 4173 1037 3712 
C 838 3155 742 2579 742 1978 
C 742 1376 838 794 1037 243 
C 1197 -218 1350 -512 1715 -1062 
L 2195 -749 
z
" transform="scale(0.015625)"/>
      <path id="HiraginoSans-W4-29" d="M 653 -1062 
C 1018 -512 1171 -218 1331 243 
C 1530 794 1626 1370 1626 1978 
C 1626 2579 1530 3155 1331 3712 
C 1171 4173 1018 4461 653 5018 
L 173 4698 
C 538 4147 685 3859 826 3411 
C 966 2963 1037 2490 1037 1978 
C 1037 1466 966 986 826 538 
C 685 90 538 -198 173 -749 
L 653 -1062 
z
" transform="scale(0.015625)"/>
      <path id="HiraginoSans-W4-7c" d="M 966 4934 
L 966 -1312 
L 1530 -1312 
L 1530 4934 
L 966 4934 
z
" transform="scale(0.015625)"/>
      <path id="HiraginoSans-W4-6f" d="M 2054 -90 
C 3110 -90 3802 640 3802 1766 
C 3802 2893 3117 3610 2042 3610 
C 966 3610 282 2886 282 1760 
C 282 627 966 -90 2054 -90 
z
M 2054 3130 
C 2771 3130 3213 2605 3213 1754 
C 3213 909 2771 397 2042 397 
C 1318 397 870 922 870 1766 
C 870 2611 1325 3130 2054 3130 
z
" transform="scale(0.015625)"/>
      <path id="HiraginoSans-W4-70" d="M 1101 -1312 
C 1069 -1075 1056 -877 1056 -550 
L 1056 128 
C 1056 301 1050 397 1037 570 
C 1363 154 1792 -51 2349 -51 
C 3334 -51 3968 659 3968 1773 
C 3968 2906 3354 3590 2336 3590 
C 1766 3590 1344 3379 1037 2944 
C 1050 3078 1050 3117 1050 3194 
L 1050 3520 
L 442 3520 
C 474 3277 486 3078 486 2752 
L 486 -557 
C 486 -845 474 -1056 442 -1312 
L 1101 -1312 
z
M 2272 442 
C 1952 442 1626 570 1421 781 
C 1197 1005 1062 1376 1062 1766 
C 1062 2547 1555 3091 2278 3091 
C 2976 3091 3373 2611 3373 1773 
C 3373 941 2957 442 2272 442 
z
" transform="scale(0.015625)"/>
      <path id="HiraginoSans-W4-65" d="M 3578 1651 
C 3558 1971 3546 2106 3533 2170 
C 3405 3066 2797 3610 1933 3610 
C 934 3610 282 2880 282 1760 
C 282 621 941 -96 1978 -96 
C 2470 -96 2880 64 3187 371 
C 3341 518 3424 646 3546 915 
L 3008 1114 
C 2944 928 2899 845 2803 742 
C 2605 512 2323 390 1984 390 
C 1613 390 1312 531 1114 800 
C 947 1024 883 1235 858 1651 
L 3578 1651 
z
M 877 2118 
C 915 2349 947 2451 1037 2605 
C 1229 2944 1542 3130 1920 3130 
C 2221 3130 2464 3040 2656 2854 
C 2842 2669 2938 2451 2976 2118 
L 877 2118 
z
" transform="scale(0.015625)"/>
      <path id="HiraginoSans-W4-2c" d="M 1165 723 
L 435 723 
L 435 0 
L 858 0 
C 851 -403 800 -499 493 -614 
L 685 -864 
C 1062 -672 1165 -493 1165 0 
L 1165 723 
z
" transform="scale(0.015625)"/>
      <path id="HiraginoSans-W4-2208" d="M 3891 563 
L 2182 563 
C 1312 563 877 922 806 1504 
L 3891 1504 
L 3891 2016 
L 806 2016 
C 883 2586 1312 2963 2182 2963 
L 3891 2963 
L 3891 3475 
L 2093 3475 
C 883 3475 256 2688 256 1760 
C 256 768 883 51 2099 51 
L 3891 51 
L 3891 563 
z
" transform="scale(0.015625)"/>
      <path id="HiraginoSans-W4-7d" d="M 1779 2208 
C 1491 2266 1434 2387 1434 2976 
L 1434 4128 
C 1434 4640 1126 4934 582 4934 
L 141 4934 
L 141 4435 
L 346 4435 
C 742 4435 864 4320 864 3968 
L 864 3046 
C 864 2259 909 2118 1197 1978 
C 909 1837 864 1702 864 909 
L 864 -13 
C 864 -371 742 -480 346 -480 
L 141 -480 
L 141 -979 
L 582 -979 
C 1126 -979 1434 -685 1434 -173 
L 1434 979 
C 1434 1562 1491 1690 1779 1747 
L 1779 2208 
z
" transform="scale(0.015625)"/>
     </defs>
     <use xlink:href="#HiraginoSans-W4-6e"/>
     <use xlink:href="#HiraginoSans-W4-68" transform="translate(63.399994 0)"/>
     <use xlink:href="#HiraginoSans-W4-64" transform="translate(126.699982 0)"/>
     <use xlink:href="#HiraginoSans-W4-73" transform="translate(192.999969 0)"/>
     <use xlink:href="#HiraginoSans-W4-20" transform="translate(248.299957 0)"/>
     <use xlink:href="#HiraginoSans-W4-78" transform="translate(281.599945 0)"/>
     <use xlink:href="#HiraginoSans-W4-20" transform="translate(337.499939 0)"/>
     <use xlink:href="#HiraginoSans-W4-3d" transform="translate(370.799927 0)"/>
     <use xlink:href="#HiraginoSans-W4-20" transform="translate(437.199921 0)"/>
     <use xlink:href="#STIXGeneral-Regular-2a05" transform="translate(470.499908 0)"/>
     <use xlink:href="#HiraginoSans-W4-20" transform="translate(562.899902 0)"/>
     <use xlink:href="#HiraginoSans-W4-7b" transform="translate(596.19989 0)"/>
     <use xlink:href="#HiraginoSans-W4-20" transform="translate(632.699875 0)"/>
     <use xlink:href="#HiraginoSans-W4-50" transform="translate(665.999863 0)"/>
     <use xlink:href="#HiraginoSans-W4-28" transform="translate(733.599854 0)"/>
     <use xlink:href="#HiraginoSans-W4-55" transform="translate(770.599838 0)"/>
     <use xlink:href="#HiraginoSans-W4-29" transform="translate(849.499832 0)"/>
     <use xlink:href="#HiraginoSans-W4-20" transform="translate(886.499817 0)"/>
     <use xlink:href="#HiraginoSans-W4-7c" transform="translate(919.799805 0)"/>
     <use xlink:href="#HiraginoSans-W4-20" transform="translate(958.699799 0)"/>
     <use xlink:href="#HiraginoSans-W4-55" transform="translate(991.999786 0)"/>
     <use xlink:href="#HiraginoSans-W4-20" transform="translate(1070.89978 0)"/>
     <use xlink:href="#HiraginoSans-W4-6f" transform="translate(1104.199768 0)"/>
     <use xlink:href="#HiraginoSans-W4-70" transform="translate(1167.999756 0)"/>
     <use xlink:href="#HiraginoSans-W4-65" transform="translate(1234.39975 0)"/>
     <use xlink:href="#HiraginoSans-W4-6e" transform="translate(1294.599747 0)"/>
     <use xlink:href="#HiraginoSans-W4-2c" transform="translate(1357.999741 0)"/>
     <use xlink:href="#HiraginoSans-W4-20" transform="translate(1382.999725 0)"/>
     <use xlink:href="#HiraginoSans-W4-78" transform="translate(1416.299713 0)"/>
     <use xlink:href="#HiraginoSans-W4-20" transform="translate(1472.199707 0)"/>
     <use xlink:href="#HiraginoSans-W4-2208" transform="translate(1505.499695 0)"/>
     <use xlink:href="#HiraginoSans-W4-20" transform="translate(1571.899689 0)"/>
     <use xlink:href="#HiraginoSans-W4-55" transform="translate(1605.199677 0)"/>
     <use xlink:href="#HiraginoSans-W4-20" transform="translate(1684.09967 0)"/>
     <use xlink:href="#HiraginoSans-W4-7d" transform="translate(1717.399658 0)"/>
    </g>
   </g>
   <g id="text_7">
    <!-- nhds x の構造（位相空間版） -->
    <g transform="translate(90.578203 17.222187) scale(0.13 -0.13)">
     <defs>
      <path id="HiraginoSans-W4-69cb" d="M 3725 2925 
L 3725 2554 
L 3002 2554 
C 2694 2554 2483 2560 2330 2566 
C 2349 2368 2355 2234 2355 1965 
L 2355 941 
C 2163 941 2061 947 1933 973 
L 1933 525 
C 2067 550 2176 557 2355 557 
L 2355 218 
C 2355 -147 2349 -301 2323 -512 
L 2822 -512 
C 2797 -314 2797 -205 2797 218 
L 2797 557 
L 5171 557 
L 5171 134 
C 5171 -6 5126 -32 4915 -32 
C 4717 -32 4531 -19 4262 19 
C 4307 -122 4339 -269 4352 -410 
C 4538 -422 4800 -435 4934 -435 
C 5472 -435 5606 -326 5606 96 
L 5606 557 
C 5837 557 5946 550 6112 531 
L 6112 979 
C 5952 947 5862 941 5606 941 
L 5606 1939 
C 5606 2246 5613 2432 5632 2586 
C 5472 2560 5286 2554 5024 2554 
L 4141 2554 
L 4141 2925 
L 5459 2925 
C 5747 2925 5888 2918 6080 2893 
L 6080 3341 
C 5907 3315 5741 3302 5466 3302 
L 4928 3302 
L 4928 3699 
L 5242 3699 
C 5485 3699 5613 3693 5760 3674 
L 5760 4096 
C 5606 4070 5453 4064 5235 4064 
L 4928 4064 
L 4928 4442 
L 5408 4442 
C 5670 4442 5779 4435 5965 4410 
L 5965 4845 
C 5798 4819 5651 4806 5408 4806 
L 4928 4806 
C 4928 5043 4934 5178 4966 5331 
L 4461 5331 
C 4493 5210 4493 5146 4499 4806 
L 3482 4806 
C 3482 5101 3488 5197 3514 5331 
L 3014 5331 
C 3040 5197 3046 5088 3053 4806 
L 2714 4806 
C 2470 4806 2330 4813 2163 4838 
L 2163 4416 
C 2330 4435 2490 4442 2720 4442 
L 3053 4442 
L 3053 4064 
L 2886 4064 
C 2662 4064 2515 4070 2362 4090 
L 2362 3674 
C 2522 3693 2656 3699 2886 3699 
L 3053 3699 
L 3053 3302 
L 2650 3302 
C 2368 3302 2221 3309 2054 3334 
L 2054 2893 
C 2234 2918 2387 2925 2662 2925 
L 3725 2925 
z
M 3725 941 
L 2797 941 
L 2797 1402 
L 3725 1402 
L 3725 941 
z
M 4141 941 
L 4141 1402 
L 5171 1402 
L 5171 941 
L 4141 941 
z
M 3725 1766 
L 2797 1766 
L 2797 2189 
L 3725 2189 
L 3725 1766 
z
M 4141 1766 
L 4141 2189 
L 5171 2189 
L 5171 1766 
L 4141 1766 
z
M 3482 3302 
L 3482 3699 
L 4499 3699 
L 4499 3302 
L 3482 3302 
z
M 3482 4064 
L 3482 4442 
L 4499 4442 
L 4499 4064 
L 3482 4064 
z
M 1792 3686 
C 1952 3686 2061 3680 2195 3661 
L 2195 4134 
C 2074 4115 1958 4109 1786 4109 
L 1581 4109 
L 1581 4698 
C 1581 5018 1587 5197 1613 5357 
L 1101 5357 
C 1126 5222 1133 5050 1133 4691 
L 1133 4109 
L 781 4109 
C 576 4109 467 4115 346 4134 
L 346 3661 
C 448 3680 595 3686 781 3686 
L 1062 3686 
C 870 2822 570 2118 154 1536 
C 326 1370 378 1306 467 1152 
C 787 1651 973 2099 1178 2880 
C 1152 2483 1139 2163 1139 1875 
L 1139 243 
C 1139 -77 1126 -326 1101 -512 
L 1619 -512 
C 1587 -326 1581 -102 1581 243 
L 1581 2080 
C 1581 2413 1568 2797 1549 3053 
C 1696 2669 1805 2458 1990 2182 
C 2099 2368 2157 2445 2272 2560 
C 2061 2784 1971 2912 1805 3238 
C 1722 3405 1683 3482 1613 3686 
L 1792 3686 
z
" transform="scale(0.015625)"/>
      <path id="HiraginoSans-W4-9020" d="M 3782 4045 
L 3782 3264 
L 2566 3264 
C 2285 3264 2125 3270 1984 3296 
L 1984 2816 
C 2157 2829 2349 2842 2547 2842 
L 5402 2842 
C 5613 2842 5792 2829 5990 2810 
L 5990 3296 
C 5843 3270 5690 3264 5402 3264 
L 4237 3264 
L 4237 4045 
L 5133 4045 
C 5408 4045 5568 4038 5747 4019 
L 5747 4506 
C 5587 4480 5427 4467 5120 4467 
L 4237 4467 
L 4237 4672 
C 4237 5005 4243 5178 4275 5318 
L 3744 5318 
C 3770 5158 3782 5005 3782 4672 
L 3782 4467 
L 3014 4467 
C 3168 4819 3181 4845 3200 4902 
C 3219 4934 3226 4960 3226 4960 
C 3270 5050 3270 5050 3283 5088 
L 2797 5216 
C 2778 5101 2752 5024 2707 4896 
C 2528 4429 2330 4102 1971 3706 
C 2170 3616 2253 3558 2387 3443 
C 2592 3699 2662 3802 2803 4045 
L 3782 4045 
z
M 4902 646 
C 5197 646 5370 640 5562 621 
C 5542 774 5542 864 5542 1235 
L 5542 1754 
C 5542 2125 5542 2227 5568 2374 
C 5363 2355 5190 2349 4890 2349 
L 3149 2349 
C 2835 2349 2662 2355 2464 2374 
C 2483 2253 2490 2118 2490 1805 
L 2490 1242 
C 2490 845 2483 762 2464 621 
C 2650 640 2803 646 3085 646 
L 4902 646 
z
M 2950 1914 
L 5069 1914 
L 5069 1082 
L 2950 1082 
L 2950 1914 
z
M 416 4896 
C 851 4493 1107 4205 1453 3712 
L 1843 4064 
C 1504 4499 1222 4806 774 5210 
L 416 4896 
z
M 333 2304 
C 474 2330 589 2336 787 2336 
L 1190 2336 
L 1190 832 
C 826 493 442 211 192 102 
L 435 -403 
C 518 -326 589 -269 653 -218 
C 1011 51 1126 147 1408 429 
C 1600 154 1779 -13 2048 -134 
C 2432 -314 2790 -358 3930 -358 
C 4659 -358 5408 -346 6074 -320 
C 6112 -77 6118 -64 6234 230 
C 5574 141 4781 102 3610 102 
C 2880 102 2515 147 2208 282 
C 1939 397 1818 518 1664 826 
L 1664 2118 
C 1664 2445 1670 2592 1696 2803 
C 1542 2778 1395 2771 1203 2771 
L 832 2771 
C 595 2771 486 2778 333 2803 
L 333 2304 
z
" transform="scale(0.015625)"/>
      <path id="HiraginoSans-W4-4f4d" d="M 3667 4141 
L 2707 4141 
C 2381 4141 2202 4147 2016 4179 
L 2016 3661 
C 2163 3680 2374 3693 2720 3693 
L 5280 3693 
C 5555 3693 5754 3680 5965 3661 
L 5965 4179 
C 5779 4154 5581 4141 5280 4141 
L 4154 4141 
L 4154 4806 
C 4154 5024 4166 5152 4192 5293 
L 3622 5293 
C 3654 5139 3667 4992 3667 4794 
L 3667 4141 
z
M 2560 301 
C 2234 301 2035 314 1856 339 
L 1856 -198 
C 2061 -166 2278 -154 2573 -154 
L 5440 -154 
C 5728 -154 5965 -166 6157 -198 
L 6157 339 
C 5971 314 5773 301 5453 301 
L 4531 301 
C 4787 954 5050 1734 5229 2406 
C 5376 2957 5376 2957 5453 3206 
L 4883 3360 
C 4800 2618 4435 1306 4038 301 
L 2560 301 
z
M 992 294 
C 992 -45 979 -243 947 -467 
L 1510 -467 
C 1485 -224 1472 -6 1472 282 
L 1472 3718 
C 1696 4192 1786 4416 1971 4915 
C 2022 5069 2022 5075 2093 5261 
L 1562 5414 
C 1530 5197 1440 4864 1318 4550 
C 1037 3827 640 3187 141 2650 
C 250 2509 358 2310 410 2170 
C 672 2477 800 2662 1018 3027 
C 998 2758 992 2522 992 2253 
L 992 294 
z
M 3533 781 
C 3309 1856 3149 2426 2829 3296 
L 2342 3130 
C 2656 2330 2835 1670 3027 634 
L 3533 781 
z
" transform="scale(0.015625)"/>
      <path id="HiraginoSans-W4-76f8" d="M 2272 3686 
C 2426 3686 2560 3680 2688 3667 
L 2688 4147 
C 2566 4128 2445 4122 2272 4122 
L 1830 4122 
L 1830 4710 
C 1830 5018 1843 5222 1862 5370 
L 1318 5370 
C 1350 5216 1357 5069 1357 4710 
L 1357 4122 
L 870 4122 
C 653 4122 512 4128 403 4147 
L 403 3661 
C 518 3680 666 3686 864 3686 
L 1286 3686 
C 1075 2842 653 1971 218 1491 
C 352 1325 403 1235 499 1024 
C 902 1581 1158 2131 1395 2957 
C 1363 2349 1357 2176 1357 1920 
L 1357 250 
C 1357 -77 1344 -320 1318 -506 
L 1869 -506 
C 1843 -326 1830 -83 1830 250 
L 1830 2112 
C 1830 2310 1824 2547 1805 3098 
C 2010 2573 2176 2272 2509 1830 
C 2592 2016 2630 2086 2771 2278 
C 2330 2746 2086 3117 1869 3686 
L 2272 3686 
z
M 3405 -480 
L 3405 -38 
L 5325 -38 
L 5325 -454 
L 5837 -454 
C 5818 -288 5805 -26 5805 326 
L 5805 4429 
C 5805 4749 5811 4922 5824 5069 
C 5683 5056 5600 5050 5318 5050 
L 3418 5050 
C 3130 5050 3059 5050 2899 5062 
C 2918 4768 2925 4589 2925 4378 
L 2925 320 
C 2925 -6 2912 -250 2893 -480 
L 3405 -480 
z
M 3405 4595 
L 5325 4595 
L 5325 3533 
L 3405 3533 
L 3405 4595 
z
M 3405 3085 
L 5325 3085 
L 5325 1997 
L 3405 1997 
L 3405 3085 
z
M 3405 1549 
L 5325 1549 
L 5325 410 
L 3405 410 
L 3405 1549 
z
" transform="scale(0.015625)"/>
      <path id="HiraginoSans-W4-7a7a" d="M 2918 4634 
L 1210 4634 
C 947 4634 794 4640 550 4666 
C 570 4525 576 4397 576 4211 
L 576 3827 
C 576 3642 570 3488 544 3322 
L 1050 3322 
L 1050 4192 
L 2291 4192 
C 2259 3744 2163 3488 1958 3264 
C 1664 2944 1216 2733 461 2554 
C 608 2400 691 2278 762 2118 
C 1619 2406 2016 2624 2330 2982 
C 2598 3290 2733 3642 2771 4192 
L 3488 4192 
L 3488 2893 
C 3488 2541 3642 2477 4506 2477 
C 5197 2477 5440 2509 5587 2618 
C 5715 2720 5773 2899 5805 3251 
C 5606 3296 5523 3322 5344 3411 
C 5325 2918 5312 2906 4538 2906 
C 4288 2906 4141 2912 4064 2938 
C 3987 2957 3968 2982 3968 3072 
L 3968 4192 
L 5402 4192 
L 5402 3533 
L 5907 3533 
C 5882 3680 5875 3814 5875 3987 
L 5875 4211 
C 5875 4403 5882 4525 5901 4666 
C 5658 4640 5504 4634 5242 4634 
L 3418 4634 
L 3418 4915 
C 3418 5101 3430 5235 3456 5363 
L 2880 5363 
C 2906 5216 2918 5101 2918 4915 
L 2918 4634 
z
M 2925 1408 
L 2925 243 
L 1158 243 
C 870 243 576 256 422 282 
L 422 -250 
C 640 -218 858 -205 1158 -205 
L 5299 -205 
C 5587 -205 5805 -218 6022 -250 
L 6022 282 
C 5862 256 5600 243 5299 243 
L 3424 243 
L 3424 1408 
L 4781 1408 
C 5062 1408 5267 1395 5459 1370 
L 5459 1888 
C 5274 1862 5050 1850 4768 1850 
L 1619 1850 
C 1312 1850 1171 1856 986 1888 
L 986 1370 
C 1165 1395 1338 1408 1645 1408 
L 2925 1408 
z
" transform="scale(0.015625)"/>
      <path id="HiraginoSans-W4-9593" d="M 1075 3104 
L 2240 3104 
C 2496 3104 2694 3098 2874 3085 
C 2861 3251 2854 3405 2854 3667 
L 2854 4518 
C 2854 4768 2861 4934 2874 5126 
C 2694 5107 2541 5101 2221 5101 
L 1242 5101 
C 922 5101 755 5107 576 5126 
C 595 4922 602 4736 602 4416 
L 602 275 
C 602 -90 589 -288 563 -467 
L 1114 -467 
C 1088 -301 1075 -96 1075 269 
L 1075 3104 
z
M 1075 4730 
L 2413 4730 
L 2413 4282 
L 1075 4282 
L 1075 4730 
z
M 1075 3917 
L 2413 3917 
L 2413 3462 
L 1075 3462 
L 1075 3917 
z
M 5818 4422 
C 5818 4710 5824 4870 5850 5126 
C 5664 5107 5510 5101 5178 5101 
L 4070 5101 
C 3750 5101 3597 5107 3418 5126 
C 3430 4934 3437 4742 3437 4518 
L 3437 3667 
C 3437 3424 3430 3264 3418 3085 
C 3584 3098 3802 3104 4051 3104 
L 5350 3104 
L 5350 243 
C 5350 96 5299 64 5043 64 
C 4909 64 4646 90 4339 128 
C 4410 -38 4442 -154 4474 -365 
C 4602 -371 4960 -384 5094 -384 
C 5670 -384 5818 -262 5818 198 
L 5818 4422 
z
M 3878 4730 
L 5350 4730 
L 5350 4282 
L 3878 4282 
L 3878 4730 
z
M 3878 3917 
L 5350 3917 
L 5350 3462 
L 3878 3462 
L 3878 3917 
z
M 4416 2042 
C 4416 2285 4422 2458 4435 2630 
C 4250 2611 4096 2605 3814 2605 
L 2573 2605 
C 2291 2605 2131 2611 1946 2630 
C 1958 2445 1965 2266 1965 2042 
L 1965 576 
C 1965 314 1958 141 1933 -38 
L 2413 -38 
L 2413 384 
L 3795 384 
C 4064 384 4237 378 4435 365 
C 4422 531 4416 698 4416 941 
L 4416 2042 
z
M 2413 2221 
L 3974 2221 
L 3974 1709 
L 2413 1709 
L 2413 2221 
z
M 2413 1325 
L 3974 1325 
L 3974 768 
L 2413 768 
L 2413 1325 
z
" transform="scale(0.015625)"/>
      <path id="HiraginoSans-W4-7248" d="M 3706 3098 
C 3866 2176 4045 1645 4416 1037 
C 4051 570 3706 269 3149 -51 
C 3290 -186 3366 -301 3462 -480 
C 4013 -109 4358 211 4691 646 
C 5062 173 5376 -115 5914 -480 
C 5997 -294 6061 -186 6195 -13 
C 5626 320 5312 595 4973 1043 
C 5338 1600 5651 2330 5824 3034 
C 5856 3162 5856 3162 5901 3302 
L 5658 3552 
C 5536 3526 5370 3520 5069 3520 
L 3571 3520 
C 3578 3725 3578 3821 3578 3981 
L 3578 4608 
L 5350 4608 
C 5594 4608 5856 4595 6048 4576 
L 6048 5088 
C 5869 5062 5632 5050 5338 5050 
L 3744 5050 
C 3450 5050 3245 5062 3085 5082 
C 3104 4864 3110 4685 3110 4307 
C 3110 2957 3072 2150 2970 1453 
C 2854 659 2726 262 2432 -211 
C 2650 -339 2675 -365 2816 -531 
C 3181 128 3328 608 3443 1498 
C 3494 1939 3546 2554 3558 3098 
L 3706 3098 
z
M 5344 3098 
C 5197 2419 5018 1978 4698 1453 
C 4422 1926 4262 2374 4134 3098 
L 5344 3098 
z
M 1914 1818 
L 1914 250 
C 1914 -122 1907 -269 1882 -467 
L 2406 -467 
C 2381 -269 2374 -83 2374 250 
L 2374 1722 
C 2374 2022 2381 2150 2394 2278 
C 2246 2259 2118 2253 1856 2253 
L 1158 2253 
C 1165 2547 1171 2726 1171 3117 
L 2266 3117 
C 2598 3117 2714 3110 2848 3091 
L 2848 3584 
C 2707 3558 2707 3558 2323 3552 
L 2323 4640 
C 2323 4883 2336 5094 2355 5254 
L 1824 5254 
C 1850 5088 1862 4902 1862 4640 
L 1862 3552 
L 1171 3552 
L 1171 4422 
C 1171 4723 1184 4960 1203 5114 
L 666 5114 
C 691 4934 704 4736 704 4442 
L 704 3040 
C 704 1274 576 397 230 -186 
C 442 -307 512 -365 653 -518 
C 954 96 1082 723 1139 1818 
L 1914 1818 
z
" transform="scale(0.015625)"/>
     </defs>
     <use xlink:href="#HiraginoSans-W4-6e"/>
     <use xlink:href="#HiraginoSans-W4-68" transform="translate(63.399994 0)"/>
     <use xlink:href="#HiraginoSans-W4-64" transform="translate(126.699982 0)"/>
     <use xlink:href="#HiraginoSans-W4-73" transform="translate(192.999969 0)"/>
     <use xlink:href="#HiraginoSans-W4-20" transform="translate(248.299957 0)"/>
     <use xlink:href="#HiraginoSans-W4-78" transform="translate(281.599945 0)"/>
     <use xlink:href="#HiraginoSans-W4-20" transform="translate(337.499939 0)"/>
     <use xlink:href="#HiraginoSans-W4-306e" transform="translate(370.799927 0)"/>
     <use xlink:href="#HiraginoSans-W4-69cb" transform="translate(470.799911 0)"/>
     <use xlink:href="#HiraginoSans-W4-9020" transform="translate(570.799896 0)"/>
     <use xlink:href="#HiraginoSans-W4-ff08" transform="translate(670.799881 0)"/>
     <use xlink:href="#HiraginoSans-W4-4f4d" transform="translate(770.799866 0)"/>
     <use xlink:href="#HiraginoSans-W4-76f8" transform="translate(870.79985 0)"/>
     <use xlink:href="#HiraginoSans-W4-7a7a" transform="translate(970.799835 0)"/>
     <use xlink:href="#HiraginoSans-W4-9593" transform="translate(1070.79982 0)"/>
     <use xlink:href="#HiraginoSans-W4-7248" transform="translate(1170.799805 0)"/>
     <use xlink:href="#HiraginoSans-W4-ff09" transform="translate(1270.799789 0)"/>
    </g>
   </g>
   <g id="line2d_1">
    <defs>
     <path id="m268ecd1090" d="M 0 4 
C 1.060812 4 2.078319 3.578535 2.828427 2.828427 
C 3.578535 2.078319 4 1.060812 4 0 
C 4 -1.060812 3.578535 -2.078319 2.828427 -2.828427 
C 2.078319 -3.578535 1.060812 -4 0 -4 
C -1.060812 -4 -2.078319 -3.578535 -2.828427 -2.828427 
C -3.578535 -2.078319 -4 -1.060812 -4 0 
C -4 1.060812 -3.578535 2.078319 -2.828427 2.828427 
C -2.078319 3.578535 -1.060812 4 0 4 
z
" style="stroke: #c00000"/>
    </defs>
    <g clip-path="url(#pf457c6b122)">
     <use xlink:href="#m268ecd1090" x="179.68" y="221.262187" style="fill: #c00000; stroke: #c00000"/>
    </g>
   </g>
  </g>
 </g>
 <defs>
  <clipPath id="pf457c6b122">
   <rect x="7.2" y="27.222187" width="344.96" height="388.08"/>
  </clipPath>
 </defs>
</svg>
