<?xml version="1.0" encoding="utf-8" standalone="no"?>
<!DOCTYPE svg PUBLIC "-//W3C//DTD SVG 1.1//EN"
  "http://www.w3.org/Graphics/SVG/1.1/DTD/svg11.dtd">
<svg xmlns:xlink="http://www.w3.org/1999/xlink" width="572.4pt" height="311.622187pt" viewBox="0 0 572.4 311.622187" xmlns="http://www.w3.org/2000/svg" version="1.1">
 <metadata>
  <rdf:RDF xmlns:dc="http://purl.org/dc/elements/1.1/" xmlns:cc="http://creativecommons.org/ns#" xmlns:rdf="http://www.w3.org/1999/02/22-rdf-syntax-ns#">
   <cc:Work>
    <dc:type rdf:resource="http://purl.org/dc/dcmitype/StillImage"/>
    <dc:date>2026-04-02T01:10:15.862575</dc:date>
    <dc:format>image/svg+xml</dc:format>
    <dc:creator>
     <cc:Agent>
      <dc:title>Matplotlib v3.10.8, https://matplotlib.org/</dc:title>
     </cc:Agent>
    </dc:creator>
   </cc:Work>
  </rdf:RDF>
 </metadata>
 <defs>
  <style type="text/css">*{stroke-linejoin: round; stroke-linecap: butt}</style>
 </defs>
 <g id="figure_1">
  <g id="patch_1">
   <path d="M 0 311.622187 
L 572.4 311.622187 
L 572.4 0 
L 0 0 
z
" style="fill: #ffffff"/>
  </g>
  <g id="axes_1">
   <g id="patch_2">
    <path d="M 146.7 271.158187 
C 176.296666 271.158187 204.685114 260.059322 225.613117 240.305987 
C 246.54112 220.552653 258.3 193.757621 258.3 165.822187 
C 258.3 137.886754 246.54112 111.091722 225.613117 91.338388 
C 204.685114 71.585053 176.296666 60.486187 146.7 60.486187 
C 117.103334 60.486187 88.714886 71.585053 67.786883 91.338388 
C 46.85888 111.091722 35.1 137.886754 35.1 165.822187 
C 35.1 193.757621 46.85888 220.552653 67.786883 240.305987 
C 88.714886 260.059322 117.103334 271.158187 146.7 271.158187 
z
" clip-path="url(#pfb892889a2)" style="fill: #deeaf1; opacity: 0.7; stroke: #2e75b6; stroke-width: 2; stroke-linejoin: miter"/>
   </g>
   <g id="patch_3">
    <path d="M 425.7 271.158187 
C 455.296666 271.158187 483.685114 260.059322 504.613117 240.305987 
C 525.54112 220.552653 537.3 193.757621 537.3 165.822187 
C 537.3 137.886754 525.54112 111.091722 504.613117 91.338388 
C 483.685114 71.585053 455.296666 60.486187 425.7 60.486187 
C 396.103334 60.486187 367.714886 71.585053 346.786883 91.338388 
C 325.85888 111.091722 314.1 137.886754 314.1 165.822187 
C 314.1 193.757621 325.85888 220.552653 346.786883 240.305987 
C 367.714886 260.059322 396.103334 271.158187 425.7 271.158187 
z
" clip-path="url(#pfb892889a2)" style="fill: #e2efda; opacity: 0.7; stroke: #538135; stroke-width: 2; stroke-linejoin: miter"/>
   </g>
   <g id="patch_4">
    <path d="M 118.8 226.806187 
C 129.158833 226.806187 139.09479 220.380529 146.419591 208.944387 
C 153.744392 197.508246 157.86 181.995333 157.86 165.822187 
C 157.86 149.649042 153.744392 134.136129 146.419591 122.699988 
C 139.09479 111.263846 129.158833 104.838187 118.8 104.838187 
C 108.441167 104.838187 98.50521 111.263846 91.180409 122.699988 
C 83.855608 134.136129 79.74 149.649042 79.74 165.822187 
C 79.74 181.995333 83.855608 197.508246 91.180409 208.944387 
C 98.50521 220.380529 108.441167 226.806187 118.8 226.806187 
z
" clip-path="url(#pfb892889a2)" style="fill: #bdd7ee; opacity: 0.8; stroke: #2e75b6; stroke-width: 1.5; stroke-linejoin: miter"/>
   </g>
   <g id="patch_5">
    <path d="M 425.7 226.806187 
C 436.058833 226.806187 445.99479 220.380529 453.319591 208.944387 
C 460.644392 197.508246 464.76 181.995333 464.76 165.822187 
C 464.76 149.649042 460.644392 134.136129 453.319591 122.699988 
C 445.99479 111.263846 436.058833 104.838187 425.7 104.838187 
C 415.341167 104.838187 405.40521 111.263846 398.080409 122.699988 
C 390.755608 134.136129 386.64 149.649042 386.64 165.822187 
C 386.64 181.995333 390.755608 197.508246 398.080409 208.944387 
C 405.40521 220.380529 415.341167 226.806187 425.7 226.806187 
z
" clip-path="url(#pfb892889a2)" style="fill: #c6efce; opacity: 0.8; stroke: #538135; stroke-width: 1.5; stroke-linejoin: miter"/>
   </g>
   <g id="text_1">
    <!-- X（例: ℝ） -->
    <g style="fill: #1f4e79" transform="translate(115.134375 66.030187) scale(0.12 -0.12)">
     <defs>
      <path id="HiraginoSans-W7-58" d="M 2739 1843 
L 3546 614 
C 3725 333 3866 96 3987 -134 
L 5408 -134 
C 5114 230 4947 442 4749 723 
L 3392 2624 
L 4563 4269 
C 4800 4602 4960 4819 5165 5069 
L 3782 5069 
C 3686 4838 3597 4678 3347 4294 
L 2752 3366 
L 2138 4288 
C 1946 4570 1786 4864 1696 5069 
L 307 5069 
C 531 4800 704 4570 934 4250 
L 2093 2624 
L 736 723 
C 544 454 461 346 77 -134 
L 1491 -134 
C 1645 147 1773 352 1939 614 
L 2739 1843 
z
" transform="scale(0.015625)"/>
      <path id="HiraginoSans-W7-ff08" d="M 6240 -589 
C 5830 -26 5658 256 5491 666 
C 5274 1197 5152 1837 5152 2432 
C 5152 3027 5274 3667 5491 4198 
C 5658 4608 5830 4890 6240 5453 
L 5197 5453 
C 4845 4902 4691 4621 4538 4211 
C 4320 3648 4205 3034 4205 2432 
C 4205 1830 4320 1216 4538 653 
C 4691 243 4845 -38 5197 -589 
L 6240 -589 
z
" transform="scale(0.015625)"/>
      <path id="HiraginoSans-W7-4f8b" d="M 3546 4390 
C 3763 4390 3885 4384 4006 4371 
L 4006 5158 
C 3840 5133 3686 5126 3379 5126 
L 2490 5126 
C 2208 5126 2054 5133 1894 5158 
L 1114 5446 
C 960 4499 550 3558 32 2970 
C 160 2694 237 2445 320 2029 
C 474 2208 486 2221 685 2554 
C 672 2259 672 2150 672 1882 
L 672 237 
C 672 -77 666 -262 634 -518 
L 1478 -518 
C 1453 -282 1446 -77 1446 237 
L 1446 2214 
C 1587 2010 1709 1786 1830 1504 
C 2003 1715 2074 1811 2202 2016 
C 2515 1709 2573 1651 2726 1453 
C 2432 902 2067 480 1510 77 
C 1766 -147 1888 -288 2086 -563 
C 3264 435 3744 1402 3962 3200 
C 3981 3347 3987 3386 4006 3475 
L 3718 3840 
C 3603 3827 3488 3821 3264 3821 
L 2931 3821 
C 2976 4058 2989 4128 3021 4390 
L 3546 4390 
z
M 1446 3795 
C 1491 3930 1504 3955 1536 4038 
C 1626 4275 1626 4275 1645 4326 
C 1702 4499 1760 4678 1792 4806 
C 1805 4845 1843 4986 1875 5088 
L 1875 4365 
C 2029 4384 2080 4390 2278 4390 
C 2182 3558 1888 2822 1446 2323 
L 1446 3795 
z
M 3226 3098 
C 3162 2662 3130 2490 3040 2208 
C 2893 2368 2854 2400 2560 2682 
C 2624 2842 2669 2938 2726 3098 
L 3226 3098 
z
M 4915 1024 
C 4896 1165 4890 1293 4890 1523 
L 4890 4429 
C 4890 4653 4896 4794 4915 4922 
L 4122 4922 
C 4134 4762 4141 4634 4141 4429 
L 4141 1517 
C 4141 1306 4134 1171 4115 1024 
L 4915 1024 
z
M 5978 4685 
C 5978 4973 5984 5146 6010 5312 
L 5184 5312 
C 5210 5114 5216 4966 5216 4685 
L 5216 442 
C 5216 294 5171 262 4966 262 
C 4755 262 4384 288 4154 314 
C 4269 19 4314 -147 4352 -467 
C 4653 -480 4819 -480 5082 -480 
C 5504 -480 5683 -435 5818 -301 
C 5933 -179 5978 -26 5978 262 
L 5978 4685 
z
" transform="scale(0.015625)"/>
      <path id="HiraginoSans-W7-3a" d="M 1472 3654 
L 365 3654 
L 365 2547 
L 1472 2547 
L 1472 3654 
z
M 1472 -134 
L 1472 973 
L 365 973 
L 365 -134 
L 1472 -134 
z
" transform="scale(0.015625)"/>
      <path id="HiraginoSans-W7-20" transform="scale(0.015625)"/>
      <path id="STIXGeneral-Bold-211d" d="M 4851 0 
L 3226 0 
L 2163 1734 
L 1888 1734 
L 1888 0 
L 480 0 
L 480 4326 
L 2758 4326 
Q 3456 4326 3894 4016 
Q 4333 3706 4333 3040 
Q 4333 2240 3674 1914 
L 4851 0 
z
M 3373 3802 
L 3373 2253 
Q 3885 2451 3885 3027 
Q 3885 3302 3753 3520 
Q 3622 3738 3373 3802 
z
M 2925 2221 
L 2925 3840 
Q 2803 3878 2566 3878 
L 1888 3878 
L 1888 2182 
L 2573 2182 
Q 2822 2182 2925 2221 
z
M 4058 448 
L 3238 1773 
L 2675 1734 
L 3462 448 
L 4058 448 
z
M 1440 448 
L 1440 3878 
L 928 3878 
L 928 448 
L 1440 448 
z
" transform="scale(0.015625)"/>
      <path id="HiraginoSans-W7-ff09" d="M 1203 -589 
C 1555 -38 1709 243 1862 653 
C 2080 1216 2195 1824 2195 2432 
C 2195 3040 2080 3648 1862 4211 
C 1709 4621 1555 4902 1203 5453 
L 160 5453 
C 570 4890 742 4608 909 4198 
C 1126 3667 1248 3027 1248 2432 
C 1248 1837 1126 1197 909 666 
C 742 256 570 -26 160 -589 
L 1203 -589 
z
" transform="scale(0.015625)"/>
     </defs>
     <use xlink:href="#HiraginoSans-W7-58"/>
     <use xlink:href="#HiraginoSans-W7-ff08" transform="translate(85.799988 0)"/>
     <use xlink:href="#HiraginoSans-W7-4f8b" transform="translate(185.799973 0)"/>
     <use xlink:href="#HiraginoSans-W7-3a" transform="translate(285.799957 0)"/>
     <use xlink:href="#HiraginoSans-W7-20" transform="translate(314.499954 0)"/>
     <use xlink:href="#STIXGeneral-Bold-211d" transform="translate(347.799942 0)"/>
     <use xlink:href="#HiraginoSans-W7-ff09" transform="translate(426.09993 0)"/>
    </g>
   </g>
   <g id="text_2">
    <!-- Y（例: ℝ） -->
    <g style="fill: #375623" transform="translate(394.512188 66.030187) scale(0.12 -0.12)">
     <defs>
      <path id="HiraginoSans-W7-59" d="M 3130 -134 
C 3091 186 3078 422 3078 749 
L 3078 1971 
L 4550 4352 
C 4672 4557 4890 4877 5030 5069 
L 3667 5069 
C 3622 4896 3533 4698 3366 4416 
L 2541 2982 
L 1722 4422 
C 1562 4698 1478 4883 1421 5069 
L 58 5069 
C 211 4845 371 4608 538 4352 
L 2010 1978 
L 2010 749 
C 2010 410 1990 128 1958 -134 
L 3130 -134 
z
" transform="scale(0.015625)"/>
     </defs>
     <use xlink:href="#HiraginoSans-W7-59"/>
     <use xlink:href="#HiraginoSans-W7-ff08" transform="translate(79.499985 0)"/>
     <use xlink:href="#HiraginoSans-W7-4f8b" transform="translate(179.499969 0)"/>
     <use xlink:href="#HiraginoSans-W7-3a" transform="translate(279.499954 0)"/>
     <use xlink:href="#HiraginoSans-W7-20" transform="translate(308.199951 0)"/>
     <use xlink:href="#STIXGeneral-Bold-211d" transform="translate(341.499939 0)"/>
     <use xlink:href="#HiraginoSans-W7-ff09" transform="translate(419.799927 0)"/>
    </g>
   </g>
   <g id="text_3">
    <!-- 𝓕 -->
    <g style="fill: #1f4e79" transform="translate(109.421719 170.915625) scale(0.18 -0.18)">
     <defs>
      <path id="STIXGeneral-Regular-1d4d5" d="M 6394 4474 
L 6560 4205 
Q 6278 3962 5904 3805 
Q 5530 3648 5165 3648 
Q 4640 3648 3907 3885 
Q 3174 4122 2880 4122 
Q 2330 4122 1974 3843 
Q 1619 3565 1619 3149 
Q 1619 2822 1801 2662 
Q 1984 2502 2208 2502 
Q 2483 2502 2723 2720 
Q 2963 2938 3078 3424 
L 3366 3366 
Q 3322 2822 2970 2486 
Q 2618 2150 2138 2150 
Q 1843 2150 1568 2291 
Q 1331 2419 1184 2649 
Q 1037 2880 1037 3168 
Q 1037 3814 1792 4211 
Q 2285 4474 3258 4474 
Q 3616 4474 4377 4352 
Q 5139 4230 5472 4230 
Q 5658 4230 5926 4297 
Q 6195 4365 6394 4474 
z
M 4595 3571 
L 4819 3341 
Q 4787 3309 4761 3273 
Q 4736 3238 4707 3190 
Q 4678 3142 4659 3110 
Q 4640 3078 4614 3017 
Q 4589 2957 4573 2921 
Q 4557 2886 4525 2803 
Q 4493 2720 4477 2681 
Q 4461 2643 4419 2531 
Q 4378 2419 4358 2368 
Q 4794 2451 5216 2451 
Q 5472 2810 5722 2810 
Q 5862 2810 5945 2726 
Q 6029 2643 6029 2528 
Q 6029 2330 5859 2189 
Q 5690 2048 5389 2010 
Q 5389 1696 5440 1542 
L 4992 1376 
Q 4966 1472 4966 1594 
Q 4966 1722 5005 1914 
Q 4570 1914 4154 1824 
Q 3885 1152 3446 697 
Q 3008 243 2537 54 
Q 2067 -134 1555 -134 
Q 1011 -134 713 93 
Q 416 320 416 691 
Q 416 934 573 1110 
Q 730 1286 954 1286 
Q 1152 1286 1270 1158 
Q 1389 1030 1389 858 
Q 1389 704 1293 579 
Q 1197 454 1018 422 
L 1018 416 
Q 1165 218 1530 218 
Q 1997 218 2349 528 
Q 2701 838 3002 1408 
Q 3002 1414 3008 1421 
Q 3021 1446 3027 1459 
Q 2445 1184 2131 915 
L 1907 1146 
Q 2496 1702 3360 2067 
Q 3731 2720 4000 3030 
Q 4269 3341 4595 3571 
z
" transform="scale(0.015625)"/>
     </defs>
     <use xlink:href="#STIXGeneral-Regular-1d4d5"/>
    </g>
   </g>
   <g id="text_4">
    <!-- （フィルター） -->
    <g style="fill: #1f4e79" transform="translate(90.8 232.350187) scale(0.08 -0.08)">
     <defs>
      <path id="HiraginoSans-W4-ff08" d="M 6170 -531 
C 5690 -26 5491 256 5280 698 
C 5024 1235 4902 1805 4902 2432 
C 4902 3059 5024 3629 5280 4166 
C 5491 4608 5690 4890 6170 5395 
L 5517 5395 
C 5139 4947 4966 4685 4774 4275 
C 4499 3686 4365 3085 4365 2432 
C 4365 1779 4499 1178 4774 589 
C 4966 179 5139 -83 5517 -531 
L 6170 -531 
z
" transform="scale(0.015625)"/>
      <path id="HiraginoSans-W4-30d5" d="M 5222 4595 
C 5082 4550 5024 4544 4736 4544 
L 1690 4544 
C 1293 4544 1146 4550 896 4589 
L 896 3981 
C 1120 4013 1306 4019 1677 4019 
L 4838 4019 
C 4486 2643 3872 1728 2842 1043 
C 2362 723 1984 550 1408 371 
C 1613 173 1670 90 1792 -160 
C 2669 192 3226 531 3814 1069 
C 4589 1786 5082 2637 5414 3859 
C 5510 4198 5510 4198 5555 4282 
L 5222 4595 
z
" transform="scale(0.015625)"/>
      <path id="HiraginoSans-W4-30a3" d="M 4621 4000 
C 4525 3846 4454 3763 4256 3571 
C 3712 3034 3136 2618 2438 2253 
C 1939 1990 1542 1843 934 1683 
C 1082 1491 1126 1414 1210 1216 
C 1990 1466 2522 1702 3130 2080 
L 3130 269 
C 3130 -51 3123 -166 3098 -339 
L 3693 -339 
C 3667 -179 3661 -26 3661 275 
L 3661 2400 
C 4122 2746 4570 3136 4883 3469 
C 5011 3610 5011 3610 5088 3674 
L 4621 4000 
z
" transform="scale(0.015625)"/>
      <path id="HiraginoSans-W4-30eb" d="M 1664 4909 
C 1683 4755 1683 4717 1683 4403 
C 1683 3091 1600 2272 1402 1709 
C 1190 1107 864 653 346 243 
C 570 96 640 26 806 -186 
C 1376 365 1690 819 1907 1427 
C 2144 2074 2195 2541 2246 4314 
C 2259 4710 2259 4717 2285 4877 
L 1664 4909 
z
M 3277 4960 
C 3302 4832 3309 4685 3309 4435 
C 3309 4390 3309 4346 3309 4294 
L 3270 672 
C 3270 371 3264 288 3226 166 
L 3526 -166 
C 3584 -134 3603 -128 3680 -96 
C 3744 -70 3808 -45 3885 -19 
C 4256 128 4512 256 4787 442 
C 5357 826 5779 1363 6106 2118 
C 5901 2291 5837 2355 5683 2560 
C 5530 2074 5299 1670 4960 1312 
C 4646 973 4339 774 3834 570 
L 3866 4288 
C 3872 4666 3878 4768 3910 4954 
L 3277 4960 
z
" transform="scale(0.015625)"/>
      <path id="HiraginoSans-W4-30bf" d="M 2650 5299 
C 2592 5069 2470 4787 2272 4422 
C 1862 3693 1344 3110 646 2598 
C 864 2470 941 2413 1094 2234 
C 1728 2746 2176 3245 2611 3930 
L 4774 3955 
C 4563 3309 4288 2746 3942 2208 
C 3424 2630 3098 2854 2560 3162 
L 2208 2771 
C 2707 2496 3149 2176 3610 1766 
C 3290 1376 3008 1120 2522 787 
C 2099 506 1760 326 1216 109 
C 1395 -51 1459 -128 1594 -365 
C 2938 262 3802 973 4448 1984 
C 4736 2438 5069 3130 5299 3750 
C 5402 4045 5414 4064 5485 4173 
L 5158 4499 
C 5043 4454 4922 4435 4736 4435 
C 2944 4416 2944 4416 2848 4397 
C 2899 4486 2963 4595 3034 4736 
C 3174 5030 3174 5030 3245 5146 
L 2650 5299 
z
" transform="scale(0.015625)"/>
      <path id="HiraginoSans-W4-30fc" d="M 531 2131 
C 755 2157 915 2163 1421 2163 
L 5005 2163 
C 5446 2163 5632 2157 5875 2131 
L 5875 2765 
C 5651 2733 5523 2726 5011 2726 
L 1414 2726 
C 973 2726 736 2739 531 2765 
L 531 2131 
z
" transform="scale(0.015625)"/>
      <path id="HiraginoSans-W4-ff09" d="M 890 -531 
C 1261 -83 1434 179 1626 589 
C 1901 1178 2035 1773 2035 2432 
C 2035 3091 1901 3686 1626 4275 
C 1434 4685 1261 4947 890 5395 
L 230 5395 
C 710 4890 909 4608 1120 4166 
C 1376 3629 1498 3072 1498 2432 
C 1498 1792 1376 1235 1120 698 
C 909 256 710 -26 230 -531 
L 890 -531 
z
" transform="scale(0.015625)"/>
     </defs>
     <use xlink:href="#HiraginoSans-W4-ff08"/>
     <use xlink:href="#HiraginoSans-W4-30d5" transform="translate(99.999985 0)"/>
     <use xlink:href="#HiraginoSans-W4-30a3" transform="translate(199.999969 0)"/>
     <use xlink:href="#HiraginoSans-W4-30eb" transform="translate(299.999954 0)"/>
     <use xlink:href="#HiraginoSans-W4-30bf" transform="translate(399.999939 0)"/>
     <use xlink:href="#HiraginoSans-W4-30fc" transform="translate(499.999924 0)"/>
     <use xlink:href="#HiraginoSans-W4-ff09" transform="translate(599.999908 0)"/>
    </g>
   </g>
   <g id="text_5">
    <!-- 𝓖 -->
    <g style="fill: #375623" transform="translate(418.193438 170.915625) scale(0.18 -0.18)">
     <defs>
      <path id="STIXGeneral-Regular-1d4d6" d="M 2701 4365 
L 2611 4058 
Q 2387 4122 2074 4122 
Q 1626 4122 1366 3958 
Q 1107 3795 1107 3507 
Q 1107 3078 1818 2925 
Q 2272 3590 2960 3993 
Q 3648 4397 4256 4397 
Q 5114 4397 5114 3853 
Q 5114 3584 4854 3325 
Q 4595 3066 4154 2867 
Q 3386 2522 2496 2502 
Q 2304 2157 2304 1786 
Q 2304 1389 2598 1389 
Q 3014 1389 3308 1568 
Q 3603 1747 4275 2355 
L 4525 2150 
Q 4435 2067 4358 1932 
Q 4282 1798 4237 1689 
Q 4192 1581 4102 1338 
Q 3840 608 3238 237 
Q 2637 -134 1741 -134 
Q 1190 -134 864 96 
Q 538 326 538 691 
Q 538 934 691 1110 
Q 845 1286 1069 1286 
Q 1267 1286 1388 1158 
Q 1510 1030 1510 858 
Q 1510 704 1414 579 
Q 1318 454 1139 422 
L 1139 416 
Q 1286 218 1690 218 
Q 2618 218 3155 1146 
L 3142 1158 
Q 2861 1037 2490 1037 
Q 2035 1037 1740 1267 
Q 1446 1498 1446 1894 
Q 1446 2240 1619 2566 
Q 1107 2682 816 2918 
Q 525 3155 525 3507 
Q 525 3923 953 4198 
Q 1382 4474 2029 4474 
Q 2406 4474 2701 4365 
z
M 2714 2861 
L 2714 2854 
Q 3456 2899 3993 3171 
Q 4531 3443 4531 3795 
Q 4531 4045 4256 4045 
Q 3904 4045 3469 3702 
Q 3034 3360 2714 2861 
z
" transform="scale(0.015625)"/>
     </defs>
     <use xlink:href="#STIXGeneral-Regular-1d4d6"/>
    </g>
   </g>
   <g id="text_6">
    <!-- （フィルター） -->
    <g style="fill: #375623" transform="translate(397.7 232.350187) scale(0.08 -0.08)">
     <use xlink:href="#HiraginoSans-W4-ff08"/>
     <use xlink:href="#HiraginoSans-W4-30d5" transform="translate(99.999985 0)"/>
     <use xlink:href="#HiraginoSans-W4-30a3" transform="translate(199.999969 0)"/>
     <use xlink:href="#HiraginoSans-W4-30eb" transform="translate(299.999954 0)"/>
     <use xlink:href="#HiraginoSans-W4-30bf" transform="translate(399.999939 0)"/>
     <use xlink:href="#HiraginoSans-W4-30fc" transform="translate(499.999924 0)"/>
     <use xlink:href="#HiraginoSans-W4-ff09" transform="translate(599.999908 0)"/>
    </g>
   </g>
   <g id="patch_6">
    <path d="M 243.562588 165.822187 
Q 286.201151 165.822187 326.603647 165.822187 
" style="fill: none; stroke: #333333; stroke-width: 2; stroke-linecap: round"/>
    <path d="M 322.603647 163.822187 
L 326.603647 165.822187 
L 322.603647 167.822187 
z
" style="fill: #333333; stroke: #333333; stroke-width: 2; stroke-linecap: round"/>
   </g>
   <g id="text_7">
    <!-- f -->
    <g style="fill: #333333" transform="translate(282.636562 143.646187) scale(0.14 -0.14)">
     <defs>
      <path id="HiraginoSans-W7-66" d="M 928 2829 
L 928 762 
C 928 390 915 166 877 -134 
L 2003 -134 
C 1965 160 1952 358 1952 762 
L 1952 2829 
L 2259 2829 
C 2579 2829 2739 2816 2982 2784 
L 2982 3699 
C 2682 3667 2470 3654 2240 3654 
L 1952 3654 
L 1952 3866 
C 1952 4256 2074 4397 2413 4397 
C 2637 4397 2822 4352 3021 4243 
L 3206 5037 
C 2874 5133 2637 5165 2317 5165 
C 1376 5165 928 4781 928 3974 
L 928 3654 
L 672 3654 
C 448 3654 205 3674 58 3693 
L 58 2784 
C 262 2816 416 2829 672 2829 
L 928 2829 
z
" transform="scale(0.015625)"/>
     </defs>
     <use xlink:href="#HiraginoSans-W7-66"/>
    </g>
   </g>
   <g id="text_8">
    <g id="patch_7">
     <path d="M 187.598437 288.296187 
L 384.801562 288.296187 
Q 388.801562 288.296187 388.801562 284.296187 
L 388.801562 274.436812 
Q 388.801562 270.436812 384.801562 270.436812 
L 187.598437 270.436812 
Q 183.598437 270.436812 183.598437 274.436812 
L 183.598437 284.296187 
Q 183.598437 288.296187 187.598437 288.296187 
z
" style="fill: #fff2cc; stroke: #c9a800; stroke-linejoin: miter"/>
    </g>
    <!-- Filter.Tendsto f 𝓕 𝓖  ⟺  map f 𝓕 ≤ 𝓖 -->
    <g transform="translate(187.598437 282.246188) scale(0.1 -0.1)">
     <defs>
      <path id="HiraginoSans-W4-46" d="M 1133 2285 
L 2598 2285 
C 2950 2285 3149 2272 3366 2240 
L 3366 2867 
C 3130 2835 2938 2822 2598 2822 
L 1133 2822 
L 1133 4390 
L 2944 4390 
C 3296 4390 3494 4378 3712 4346 
L 3712 4979 
C 3469 4947 3270 4934 2938 4934 
L 1210 4934 
C 896 4934 698 4941 480 4954 
C 518 4698 531 4493 531 4198 
L 531 794 
C 531 429 518 218 480 0 
L 1184 0 
C 1146 237 1133 429 1133 800 
L 1133 2285 
z
" transform="scale(0.015625)"/>
      <path id="HiraginoSans-W4-69" d="M 442 4934 
L 442 4294 
L 1152 4294 
L 1152 4934 
L 442 4934 
z
M 454 3520 
C 486 3296 499 3085 499 2765 
L 499 755 
C 499 461 486 282 454 0 
L 1133 0 
C 1101 269 1088 448 1088 755 
L 1088 2758 
C 1088 3104 1101 3290 1133 3520 
L 454 3520 
z
" transform="scale(0.015625)"/>
      <path id="HiraginoSans-W4-6c" d="M 442 4934 
C 474 4704 486 4518 486 4179 
L 486 755 
C 486 429 474 250 442 0 
L 1120 0 
C 1088 262 1075 448 1075 755 
L 1075 4179 
C 1075 4512 1088 4698 1120 4934 
L 442 4934 
z
" transform="scale(0.015625)"/>
      <path id="HiraginoSans-W4-74" d="M 851 4480 
C 877 4262 896 4006 896 3750 
L 896 3520 
L 646 3520 
C 378 3520 250 3526 70 3558 
L 70 2995 
C 275 3021 416 3034 640 3034 
L 896 3034 
L 896 787 
C 896 461 954 269 1094 134 
C 1235 6 1466 -64 1773 -64 
C 2042 -64 2246 -26 2515 83 
L 2374 602 
C 2176 486 2048 448 1875 448 
C 1741 448 1632 486 1568 544 
C 1504 608 1478 698 1478 883 
L 1478 3034 
L 1779 3034 
C 2074 3034 2221 3027 2426 2995 
L 2426 3558 
C 2214 3526 2074 3520 1773 3520 
L 1478 3520 
L 1478 3750 
C 1478 4026 1498 4275 1523 4480 
L 851 4480 
z
" transform="scale(0.015625)"/>
      <path id="HiraginoSans-W4-65" d="M 3578 1651 
C 3558 1971 3546 2106 3533 2170 
C 3405 3066 2797 3610 1933 3610 
C 934 3610 282 2880 282 1760 
C 282 621 941 -96 1978 -96 
C 2470 -96 2880 64 3187 371 
C 3341 518 3424 646 3546 915 
L 3008 1114 
C 2944 928 2899 845 2803 742 
C 2605 512 2323 390 1984 390 
C 1613 390 1312 531 1114 800 
C 947 1024 883 1235 858 1651 
L 3578 1651 
z
M 877 2118 
C 915 2349 947 2451 1037 2605 
C 1229 2944 1542 3130 1920 3130 
C 2221 3130 2464 3040 2656 2854 
C 2842 2669 2938 2451 2976 2118 
L 877 2118 
z
" transform="scale(0.015625)"/>
      <path id="HiraginoSans-W4-72" d="M 2784 3520 
C 2522 3565 2394 3578 2195 3578 
C 1862 3578 1568 3488 1350 3315 
C 1242 3238 1165 3142 1056 2976 
C 1062 3027 1062 3040 1069 3085 
C 1069 3104 1069 3117 1069 3130 
C 1069 3162 1069 3181 1069 3187 
L 1069 3520 
L 442 3520 
C 474 3283 486 3104 486 2765 
L 486 755 
C 486 467 480 314 442 0 
L 1114 0 
C 1082 262 1069 448 1069 755 
L 1069 2022 
C 1101 2317 1158 2470 1312 2669 
C 1504 2912 1760 3034 2093 3034 
C 2259 3034 2381 3014 2618 2938 
L 2784 3520 
z
" transform="scale(0.015625)"/>
      <path id="HiraginoSans-W4-2e" d="M 442 723 
L 442 0 
L 1165 0 
L 1165 723 
L 442 723 
z
" transform="scale(0.015625)"/>
      <path id="HiraginoSans-W4-54" d="M 2419 4397 
L 3354 4397 
C 3744 4397 3949 4384 4166 4352 
L 4166 4979 
C 3955 4947 3763 4934 3354 4934 
L 851 4934 
C 499 4934 333 4947 83 4979 
L 83 4352 
C 294 4384 518 4397 858 4397 
L 1818 4397 
L 1818 755 
C 1818 435 1798 192 1766 0 
L 2470 0 
C 2432 237 2419 435 2419 755 
L 2419 4397 
z
" transform="scale(0.015625)"/>
      <path id="HiraginoSans-W4-6e" d="M 1114 0 
C 1082 256 1069 474 1069 755 
L 1069 2010 
C 1139 2272 1222 2426 1395 2630 
C 1658 2944 1933 3085 2266 3085 
C 2752 3085 3002 2797 3002 2234 
L 3002 755 
C 3002 454 2989 269 2957 0 
L 3629 0 
C 3597 218 3584 416 3584 749 
L 3584 2323 
C 3584 2662 3520 2912 3392 3110 
C 3181 3418 2816 3584 2349 3584 
C 1779 3584 1376 3360 1056 2867 
C 1069 3027 1069 3059 1069 3142 
L 1069 3520 
L 442 3520 
C 480 3264 493 3078 493 2765 
L 493 755 
C 493 429 480 256 442 0 
L 1114 0 
z
" transform="scale(0.015625)"/>
      <path id="HiraginoSans-W4-64" d="M 3187 0 
L 3802 0 
C 3770 250 3757 442 3757 774 
L 3757 4173 
C 3757 4467 3770 4666 3802 4934 
L 3142 4934 
C 3174 4691 3187 4486 3187 4173 
L 3187 3398 
C 3187 3296 3187 3194 3194 3149 
C 3200 3040 3200 3040 3206 2970 
C 2918 3379 2470 3597 1901 3597 
C 909 3597 282 2886 282 1766 
C 282 1171 461 672 794 339 
C 1069 70 1446 -64 1914 -64 
C 2483 -64 2880 128 3206 563 
C 3200 480 3187 365 3187 288 
L 3187 0 
z
M 1971 3098 
C 2310 3098 2618 2976 2842 2752 
C 3059 2541 3181 2189 3181 1786 
C 3181 966 2707 429 1978 429 
C 1709 429 1459 512 1274 672 
C 1024 890 883 1280 883 1786 
C 883 2598 1293 3098 1971 3098 
z
" transform="scale(0.015625)"/>
      <path id="HiraginoSans-W4-73" d="M 262 973 
C 326 704 378 589 480 448 
C 730 109 1184 -70 1786 -70 
C 2707 -70 3270 339 3270 1011 
C 3270 1293 3136 1555 2912 1722 
C 2720 1862 2483 1946 1894 2074 
C 1510 2157 1357 2208 1210 2285 
C 1075 2355 998 2483 998 2624 
C 998 2944 1312 3162 1760 3162 
C 2042 3162 2259 3078 2400 2925 
C 2483 2835 2515 2758 2554 2598 
L 3155 2688 
C 3066 2982 2982 3136 2810 3283 
C 2573 3494 2208 3610 1754 3610 
C 1299 3610 941 3494 698 3258 
C 518 3091 416 2861 416 2618 
C 416 2310 557 2054 819 1888 
C 1043 1747 1261 1677 1760 1574 
C 2246 1466 2349 1440 2490 1350 
C 2618 1274 2682 1139 2682 973 
C 2682 621 2342 397 1818 397 
C 1504 397 1267 474 1107 614 
C 986 730 934 832 890 1069 
L 262 973 
z
" transform="scale(0.015625)"/>
      <path id="HiraginoSans-W4-6f" d="M 2054 -90 
C 3110 -90 3802 640 3802 1766 
C 3802 2893 3117 3610 2042 3610 
C 966 3610 282 2886 282 1760 
C 282 627 966 -90 2054 -90 
z
M 2054 3130 
C 2771 3130 3213 2605 3213 1754 
C 3213 909 2771 397 2042 397 
C 1318 397 870 922 870 1766 
C 870 2611 1325 3130 2054 3130 
z
" transform="scale(0.015625)"/>
      <path id="HiraginoSans-W4-20" transform="scale(0.015625)"/>
      <path id="HiraginoSans-W4-66" d="M 922 3034 
L 922 755 
C 922 467 909 237 877 0 
L 1549 0 
C 1517 224 1504 429 1504 755 
L 1504 3034 
L 1818 3034 
C 2131 3034 2291 3021 2509 2995 
L 2509 3558 
C 2266 3533 2080 3520 1818 3520 
L 1504 3520 
L 1504 3846 
C 1504 4198 1542 4333 1670 4429 
C 1760 4493 1882 4518 2048 4518 
C 2227 4518 2394 4474 2566 4378 
L 2714 4870 
C 2470 4960 2259 4998 2010 4998 
C 1626 4998 1318 4890 1152 4691 
C 986 4506 922 4282 922 3885 
L 922 3520 
L 659 3520 
C 416 3520 243 3533 70 3558 
L 70 2995 
C 269 3021 435 3034 659 3034 
L 922 3034 
z
" transform="scale(0.015625)"/>
      <path id="STIXGeneral-Regular-27fa" d="M 9722 1651 
L 9722 1587 
Q 9395 1370 8800 896 
Q 8205 422 7712 -64 
L 7533 70 
Q 7558 96 7654 195 
Q 7750 294 7808 358 
Q 7866 422 7920 512 
Q 7974 602 7974 666 
Q 7974 704 7964 723 
Q 7955 742 7913 755 
Q 7872 768 7782 768 
L 2310 768 
Q 2176 768 2131 745 
Q 2086 723 2086 652 
Q 2086 582 2134 515 
Q 2182 448 2323 307 
Q 2464 166 2534 83 
L 2387 -64 
Q 1856 435 1232 931 
Q 608 1427 352 1587 
L 352 1651 
Q 1408 2406 2387 3309 
L 2534 3162 
Q 2490 3110 2355 2976 
Q 2221 2842 2147 2746 
Q 2074 2650 2074 2592 
Q 2074 2470 2291 2470 
L 7782 2470 
Q 7872 2470 7917 2512 
Q 7962 2554 7962 2605 
Q 7962 2701 7894 2793 
Q 7827 2886 7699 2998 
Q 7571 3110 7533 3155 
L 7712 3309 
Q 8250 2816 8858 2320 
Q 9466 1824 9722 1651 
z
M 1440 1190 
L 8621 1190 
Q 8998 1408 8998 1619 
Q 8998 1792 8627 2048 
L 1446 2048 
Q 1075 1837 1069 1619 
Q 1069 1446 1440 1190 
z
" transform="scale(0.015625)"/>
      <path id="HiraginoSans-W4-6d" d="M 1107 0 
C 1075 262 1062 442 1062 755 
L 1062 2016 
C 1062 2144 1178 2464 1286 2624 
C 1485 2912 1786 3091 2074 3091 
C 2528 3091 2765 2803 2765 2246 
L 2765 755 
C 2765 422 2752 230 2720 0 
L 3392 0 
C 3360 230 3347 416 3347 749 
L 3347 2016 
C 3347 2176 3456 2483 3571 2650 
C 3763 2931 4045 3091 4346 3091 
C 4525 3091 4672 3053 4781 2976 
C 4973 2842 5043 2637 5043 2246 
L 5043 755 
C 5043 403 5037 256 4998 0 
L 5670 0 
C 5638 230 5626 416 5626 749 
L 5626 2336 
C 5626 2733 5555 2995 5382 3206 
C 5184 3462 4864 3590 4442 3590 
C 3898 3590 3552 3398 3232 2925 
C 3168 3104 3130 3181 3034 3277 
C 2842 3488 2566 3590 2202 3590 
C 1690 3590 1280 3373 1050 2970 
C 1050 3008 1050 3008 1056 3066 
C 1056 3085 1062 3181 1062 3200 
L 1062 3520 
L 442 3520 
C 474 3290 486 3117 486 2765 
L 486 755 
C 486 435 474 243 442 0 
L 1107 0 
z
" transform="scale(0.015625)"/>
      <path id="HiraginoSans-W4-61" d="M 2765 0 
L 3373 0 
C 3334 269 3322 422 3322 736 
L 3322 2515 
C 3322 2867 3238 3110 3046 3290 
C 2816 3514 2464 3622 1978 3622 
C 1485 3622 1094 3507 813 3270 
C 627 3123 531 2976 416 2656 
L 1011 2541 
C 1069 2714 1114 2797 1197 2886 
C 1370 3066 1626 3155 1971 3155 
C 2515 3155 2765 2950 2765 2515 
L 2765 2182 
C 1933 2163 1581 2118 1197 1997 
C 646 1818 333 1434 333 941 
C 333 320 774 -58 1491 -58 
C 1741 -58 1978 -19 2195 64 
C 2406 141 2522 218 2765 429 
L 2765 0 
z
M 2765 1363 
C 2765 1126 2707 973 2554 813 
C 2304 557 1920 397 1568 397 
C 1165 397 915 608 915 941 
C 915 1235 1075 1440 1395 1568 
C 1677 1683 2035 1728 2765 1747 
L 2765 1363 
z
" transform="scale(0.015625)"/>
      <path id="HiraginoSans-W4-70" d="M 1101 -1312 
C 1069 -1075 1056 -877 1056 -550 
L 1056 128 
C 1056 301 1050 397 1037 570 
C 1363 154 1792 -51 2349 -51 
C 3334 -51 3968 659 3968 1773 
C 3968 2906 3354 3590 2336 3590 
C 1766 3590 1344 3379 1037 2944 
C 1050 3078 1050 3117 1050 3194 
L 1050 3520 
L 442 3520 
C 474 3277 486 3078 486 2752 
L 486 -557 
C 486 -845 474 -1056 442 -1312 
L 1101 -1312 
z
M 2272 442 
C 1952 442 1626 570 1421 781 
C 1197 1005 1062 1376 1062 1766 
C 1062 2547 1555 3091 2278 3091 
C 2976 3091 3373 2611 3373 1773 
C 3373 941 2957 442 2272 442 
z
" transform="scale(0.015625)"/>
      <path id="STIXGeneral-Regular-2264" d="M 4026 326 
L 410 2074 
L 410 2138 
L 4026 3898 
L 4026 3482 
L 1261 2106 
L 4026 730 
L 4026 326 
z
M 4026 -659 
L 410 -659 
L 410 -237 
L 4026 -237 
L 4026 -659 
z
" transform="scale(0.015625)"/>
     </defs>
     <use xlink:href="#HiraginoSans-W4-46"/>
     <use xlink:href="#HiraginoSans-W4-69" transform="translate(61.399994 0)"/>
     <use xlink:href="#HiraginoSans-W4-6c" transform="translate(86.199982 0)"/>
     <use xlink:href="#HiraginoSans-W4-74" transform="translate(110.499969 0)"/>
     <use xlink:href="#HiraginoSans-W4-65" transform="translate(150.999954 0)"/>
     <use xlink:href="#HiraginoSans-W4-72" transform="translate(211.199951 0)"/>
     <use xlink:href="#HiraginoSans-W4-2e" transform="translate(255.899948 0)"/>
     <use xlink:href="#HiraginoSans-W4-54" transform="translate(280.899933 0)"/>
     <use xlink:href="#HiraginoSans-W4-65" transform="translate(347.299927 0)"/>
     <use xlink:href="#HiraginoSans-W4-6e" transform="translate(407.499924 0)"/>
     <use xlink:href="#HiraginoSans-W4-64" transform="translate(470.899918 0)"/>
     <use xlink:href="#HiraginoSans-W4-73" transform="translate(537.199905 0)"/>
     <use xlink:href="#HiraginoSans-W4-74" transform="translate(592.499893 0)"/>
     <use xlink:href="#HiraginoSans-W4-6f" transform="translate(632.999878 0)"/>
     <use xlink:href="#HiraginoSans-W4-20" transform="translate(696.799866 0)"/>
     <use xlink:href="#HiraginoSans-W4-66" transform="translate(730.099854 0)"/>
     <use xlink:href="#HiraginoSans-W4-20" transform="translate(773.499847 0)"/>
     <use xlink:href="#STIXGeneral-Regular-1d4d5" transform="translate(806.799835 0)"/>
     <use xlink:href="#HiraginoSans-W4-20" transform="translate(910.999817 0)"/>
     <use xlink:href="#STIXGeneral-Regular-1d4d6" transform="translate(944.299805 0)"/>
     <use xlink:href="#HiraginoSans-W4-20" transform="translate(1027.699799 0)"/>
     <use xlink:href="#HiraginoSans-W4-20" transform="translate(1060.999786 0)"/>
     <use xlink:href="#STIXGeneral-Regular-27fa" transform="translate(1094.299774 0)"/>
     <use xlink:href="#HiraginoSans-W4-20" transform="translate(1251.699753 0)"/>
     <use xlink:href="#HiraginoSans-W4-20" transform="translate(1284.999741 0)"/>
     <use xlink:href="#HiraginoSans-W4-6d" transform="translate(1318.299728 0)"/>
     <use xlink:href="#HiraginoSans-W4-61" transform="translate(1413.699722 0)"/>
     <use xlink:href="#HiraginoSans-W4-70" transform="translate(1472.899719 0)"/>
     <use xlink:href="#HiraginoSans-W4-20" transform="translate(1539.299713 0)"/>
     <use xlink:href="#HiraginoSans-W4-66" transform="translate(1572.599701 0)"/>
     <use xlink:href="#HiraginoSans-W4-20" transform="translate(1615.999695 0)"/>
     <use xlink:href="#STIXGeneral-Regular-1d4d5" transform="translate(1649.299683 0)"/>
     <use xlink:href="#HiraginoSans-W4-20" transform="translate(1753.499664 0)"/>
     <use xlink:href="#STIXGeneral-Regular-2264" transform="translate(1786.799652 0)"/>
     <use xlink:href="#HiraginoSans-W4-20" transform="translate(1855.299637 0)"/>
     <use xlink:href="#STIXGeneral-Regular-1d4d6" transform="translate(1888.599625 0)"/>
    </g>
   </g>
   <g id="text_9">
    <!-- Filter.Tendsto の概念図 -->
    <g transform="translate(212.742891 17.222187) scale(0.13 -0.13)">
     <defs>
      <path id="HiraginoSans-W4-306e" d="M 3053 422 
C 3200 243 3245 160 3328 -96 
C 3821 6 4090 90 4397 237 
C 5293 666 5798 1459 5798 2451 
C 5798 3802 4832 4698 3379 4698 
C 2509 4698 1792 4403 1274 3834 
C 832 3347 589 2707 589 2042 
C 589 1107 1062 422 1709 422 
C 2189 422 2573 806 2938 1645 
C 3238 2323 3469 3264 3578 4205 
C 3891 4186 4070 4141 4294 4032 
C 4902 3738 5242 3174 5242 2477 
C 5242 1734 4870 1107 4230 768 
C 3917 602 3610 512 3053 422 
z
M 3027 4192 
C 2944 3398 2714 2483 2458 1888 
C 2195 1286 1952 992 1702 992 
C 1370 992 1114 1453 1114 2035 
C 1114 2797 1491 3501 2112 3891 
C 2394 4077 2656 4160 3027 4192 
z
" transform="scale(0.015625)"/>
      <path id="HiraginoSans-W4-6982" d="M 4704 2323 
C 4237 1165 3661 442 2765 -128 
C 2912 -237 3014 -333 3130 -480 
C 3853 45 4397 717 4826 1594 
L 4826 102 
C 4826 -269 4934 -352 5395 -352 
C 5747 -352 5901 -301 5990 -160 
C 6080 0 6131 314 6163 928 
C 5997 973 5894 1018 5760 1107 
C 5760 659 5741 410 5702 243 
C 5677 122 5613 83 5453 83 
C 5267 83 5242 102 5242 262 
L 5242 1453 
C 5242 1632 5248 1734 5274 1869 
L 4954 1869 
C 5030 2048 5056 2118 5139 2323 
L 5453 2323 
C 5741 2323 5888 2317 6074 2291 
L 6074 2778 
C 5914 2752 5747 2746 5466 2746 
L 5280 2746 
C 5459 3302 5549 3821 5619 4627 
C 5779 4627 5862 4621 6029 4602 
L 6029 5075 
C 5850 5050 5709 5043 5504 5043 
L 4467 5043 
C 4205 5043 4090 5050 3917 5075 
L 3917 4608 
C 4026 4621 4058 4621 4211 4627 
L 4211 2746 
C 4064 2752 4006 2758 3891 2771 
L 3891 2298 
C 4058 2317 4243 2323 4493 2323 
L 4704 2323 
z
M 4634 2746 
L 4634 4627 
L 5190 4627 
C 5152 3917 5043 3315 4858 2746 
L 4634 2746 
z
M 2566 2291 
L 3232 2291 
C 3507 2291 3629 2285 3750 2272 
C 3731 2394 3725 2509 3725 2835 
L 3725 4474 
C 3725 4774 3731 4947 3750 5082 
C 3622 5069 3456 5062 3245 5062 
L 2624 5062 
C 2419 5062 2253 5069 2125 5082 
C 2144 4922 2150 4730 2150 4435 
L 2150 723 
C 1946 627 1869 602 1658 525 
L 1856 58 
C 2029 166 2054 186 2406 371 
C 2810 589 3098 768 3456 1018 
C 3494 934 3501 909 3539 819 
L 3904 1018 
C 3654 1536 3597 1638 3309 2074 
L 2970 1926 
C 3142 1645 3206 1542 3302 1350 
C 3046 1178 2906 1094 2566 928 
L 2566 2291 
z
M 2566 3898 
L 2566 4646 
L 3322 4646 
L 3322 3898 
L 2566 3898 
z
M 2566 3501 
L 3322 3501 
L 3322 2694 
L 2566 2694 
L 2566 3501 
z
M 1613 3699 
C 1786 3699 1901 3693 2016 3674 
L 2016 4134 
C 1888 4115 1792 4109 1606 4109 
L 1466 4109 
L 1466 4691 
C 1466 4998 1472 5184 1498 5350 
L 998 5350 
C 1018 5197 1030 5018 1030 4691 
L 1030 4109 
L 723 4109 
C 518 4109 390 4115 282 4134 
L 282 3674 
C 397 3693 525 3699 723 3699 
L 992 3699 
C 845 2931 499 2099 90 1517 
C 218 1382 269 1299 358 1101 
C 499 1331 589 1491 717 1786 
C 851 2080 896 2214 1069 2861 
C 1043 2374 1030 2067 1030 1952 
L 1030 243 
C 1030 -64 1018 -307 992 -512 
L 1504 -512 
C 1478 -326 1466 -90 1466 243 
L 1466 2112 
C 1466 2240 1459 2515 1459 2611 
C 1446 2867 1446 2867 1446 3014 
C 1581 2643 1670 2458 1843 2189 
C 1946 2362 1997 2419 2112 2547 
C 1779 2950 1619 3258 1478 3699 
L 1613 3699 
z
" transform="scale(0.015625)"/>
      <path id="HiraginoSans-W4-5ff5" d="M 1984 3482 
C 2182 3501 2291 3507 2522 3507 
L 3891 3507 
C 4115 3507 4250 3501 4422 3482 
L 4422 3917 
C 4902 3622 5363 3386 5926 3149 
C 6003 3373 6022 3418 6163 3642 
C 5555 3846 5018 4096 4499 4422 
C 4032 4717 3725 4979 3418 5338 
L 2893 5338 
C 2355 4608 1376 3962 275 3597 
C 410 3405 422 3379 506 3130 
C 1069 3354 1478 3571 1984 3910 
L 1984 3482 
z
M 2522 3917 
C 2291 3917 2157 3923 2029 3942 
C 2522 4282 2810 4531 3155 4947 
C 3546 4531 3853 4282 4384 3942 
C 4243 3923 4122 3917 3891 3917 
L 2522 3917 
z
M 960 2566 
C 1120 2592 1267 2598 1594 2598 
L 4467 2598 
L 3974 2067 
C 3866 1952 3725 1824 3571 1715 
L 3994 1408 
C 4109 1555 4160 1619 4352 1818 
L 5005 2522 
C 5094 2618 5133 2656 5216 2726 
L 4902 3046 
C 4762 3027 4634 3021 4378 3021 
L 1504 3021 
C 1229 3021 1107 3027 960 3053 
L 960 2566 
z
M 1056 1491 
C 864 845 685 493 275 -6 
L 698 -320 
C 1088 218 1248 550 1485 1312 
L 1056 1491 
z
M 2349 992 
C 2349 1235 2355 1331 2387 1491 
L 1830 1491 
C 1862 1299 1869 1184 1869 915 
L 1869 198 
C 1869 -83 1926 -211 2086 -288 
C 2259 -371 2541 -403 3123 -403 
C 4070 -403 4403 -352 4570 -186 
C 4704 -51 4755 141 4806 736 
C 4614 762 4538 787 4339 870 
C 4320 454 4301 307 4256 211 
C 4179 70 3974 38 3213 38 
C 2758 38 2560 51 2458 90 
C 2374 115 2349 166 2349 307 
L 2349 992 
z
M 3936 973 
C 3526 1382 3258 1619 2822 1920 
L 2490 1651 
C 2931 1344 3200 1094 3578 646 
L 3936 973 
z
M 4755 1280 
C 5197 698 5370 403 5664 -262 
L 6093 58 
C 5760 659 5542 998 5146 1504 
L 4755 1280 
z
" transform="scale(0.015625)"/>
      <path id="HiraginoSans-W4-56f3" d="M 4960 979 
C 4422 1350 4077 1574 3635 1830 
C 4122 2342 4493 2899 4870 3661 
C 4947 3814 4973 3859 5030 3949 
L 4550 4186 
C 4378 3552 3834 2675 3226 2048 
C 2656 2349 2349 2490 1626 2784 
L 1363 2406 
C 2016 2163 2394 1997 2886 1728 
C 2426 1338 2054 1114 1414 838 
C 1549 723 1638 621 1754 448 
C 2438 794 2848 1075 3296 1498 
C 3853 1158 4128 966 4666 550 
L 4960 979 
z
M 2662 2950 
C 2438 3450 2310 3661 1984 4083 
L 1587 3866 
C 1926 3424 2035 3238 2253 2714 
L 2662 2950 
z
M 3750 3238 
C 3558 3738 3430 3974 3149 4384 
L 2746 4198 
C 3027 3789 3168 3514 3334 3027 
L 3750 3238 
z
M 1037 -493 
L 1037 -115 
L 5357 -115 
L 5357 -493 
L 5888 -493 
C 5862 -307 5850 -109 5850 288 
L 5850 4307 
C 5850 4634 5856 4832 5888 5088 
C 5645 5062 5466 5056 5126 5056 
L 1261 5056 
C 928 5056 749 5062 512 5088 
C 538 4838 550 4621 550 4307 
L 550 301 
C 550 -102 538 -307 512 -493 
L 1037 -493 
z
M 1037 4614 
L 5357 4614 
L 5357 320 
L 1037 320 
L 1037 4614 
z
" transform="scale(0.015625)"/>
     </defs>
     <use xlink:href="#HiraginoSans-W4-46"/>
     <use xlink:href="#HiraginoSans-W4-69" transform="translate(61.399994 0)"/>
     <use xlink:href="#HiraginoSans-W4-6c" transform="translate(86.199982 0)"/>
     <use xlink:href="#HiraginoSans-W4-74" transform="translate(110.499969 0)"/>
     <use xlink:href="#HiraginoSans-W4-65" transform="translate(150.999954 0)"/>
     <use xlink:href="#HiraginoSans-W4-72" transform="translate(211.199951 0)"/>
     <use xlink:href="#HiraginoSans-W4-2e" transform="translate(255.899948 0)"/>
     <use xlink:href="#HiraginoSans-W4-54" transform="translate(280.899933 0)"/>
     <use xlink:href="#HiraginoSans-W4-65" transform="translate(347.299927 0)"/>
     <use xlink:href="#HiraginoSans-W4-6e" transform="translate(407.499924 0)"/>
     <use xlink:href="#HiraginoSans-W4-64" transform="translate(470.899918 0)"/>
     <use xlink:href="#HiraginoSans-W4-73" transform="translate(537.199905 0)"/>
     <use xlink:href="#HiraginoSans-W4-74" transform="translate(592.499893 0)"/>
     <use xlink:href="#HiraginoSans-W4-6f" transform="translate(632.999878 0)"/>
     <use xlink:href="#HiraginoSans-W4-20" transform="translate(696.799866 0)"/>
     <use xlink:href="#HiraginoSans-W4-306e" transform="translate(730.099854 0)"/>
     <use xlink:href="#HiraginoSans-W4-6982" transform="translate(830.099838 0)"/>
     <use xlink:href="#HiraginoSans-W4-5ff5" transform="translate(930.099823 0)"/>
     <use xlink:href="#HiraginoSans-W4-56f3" transform="translate(1030.099808 0)"/>
    </g>
   </g>
  </g>
 </g>
 <defs>
  <clipPath id="pfb892889a2">
   <rect x="7.2" y="27.222187" width="558" height="277.2"/>
  </clipPath>
 </defs>
</svg>
