<?xml version="1.0" encoding="utf-8" standalone="no"?>
<!DOCTYPE svg PUBLIC "-//W3C//DTD SVG 1.1//EN"
  "http://www.w3.org/Graphics/SVG/1.1/DTD/svg11.dtd">
<svg xmlns:xlink="http://www.w3.org/1999/xlink" width="572.4pt" height="311.622187pt" viewBox="0 0 572.4 311.622187" xmlns="http://www.w3.org/2000/svg" version="1.1">
 <metadata>
  <rdf:RDF xmlns:dc="http://purl.org/dc/elements/1.1/" xmlns:cc="http://creativecommons.org/ns#" xmlns:rdf="http://www.w3.org/1999/02/22-rdf-syntax-ns#">
   <cc:Work>
    <dc:type rdf:resource="http://purl.org/dc/dcmitype/StillImage"/>
    <dc:date>2026-04-02T01:10:16.275928</dc:date>
    <dc:format>image/svg+xml</dc:format>
    <dc:creator>
     <cc:Agent>
      <dc:title>Matplotlib v3.10.8, https://matplotlib.org/</dc:title>
     </cc:Agent>
    </dc:creator>
   </cc:Work>
  </rdf:RDF>
 </metadata>
 <defs>
  <style type="text/css">*{stroke-linejoin: round; stroke-linecap: butt}</style>
 </defs>
 <g id="figure_1">
  <g id="patch_1">
   <path d="M 0 311.622187 
L 572.4 311.622187 
L 572.4 0 
L 0 0 
z
" style="fill: #ffffff"/>
  </g>
  <g id="axes_1">
   <g id="patch_2">
    <path d="M 174.6 262.842188 
C 211.595832 262.842188 247.081392 252.619548 273.241396 234.425687 
C 299.4014 216.231827 314.1 191.552192 314.1 165.822187 
C 314.1 140.092183 299.4014 115.412548 273.241396 97.218688 
C 247.081392 79.024827 211.595832 68.802187 174.6 68.802187 
C 137.604168 68.802187 102.118608 79.024827 75.958604 97.218688 
C 49.7986 115.412548 35.1 140.092183 35.1 165.822187 
C 35.1 191.552192 49.7986 216.231827 75.958604 234.425687 
C 102.118608 252.619548 137.604168 262.842188 174.6 262.842188 
z
" clip-path="url(#p6da820b100)" style="fill: #deeaf1; opacity: 0.7; stroke-dasharray: 9.25,4; stroke-dashoffset: 0; stroke: #2e75b6; stroke-width: 2.5; stroke-linejoin: miter"/>
   </g>
   <g id="patch_3">
    <path d="M 330.84 282.246188 
L 542.88 282.246188 
Q 548.46 282.246188 548.46 276.702187 
L 548.46 54.942187 
Q 548.46 49.398187 542.88 49.398187 
L 330.84 49.398187 
Q 325.26 49.398187 325.26 54.942187 
L 325.26 276.702187 
Q 325.26 282.246188 330.84 282.246188 
z
" clip-path="url(#p6da820b100)" style="fill: #fce4d6; opacity: 0.7; stroke: #c00000; stroke-width: 2.5; stroke-linejoin: miter"/>
   </g>
   <g id="text_1">
    <!-- U（開集合） -->
    <g style="fill: #1f4e79" transform="translate(139.457813 169.32) scale(0.12 -0.12)">
     <defs>
      <path id="HiraginoSans-W7-55" d="M 3910 5069 
C 3949 4813 3962 4595 3962 4147 
L 3962 1920 
C 3962 1549 3891 1267 3744 1069 
C 3552 806 3194 659 2746 659 
C 2310 659 1984 781 1779 1024 
C 1600 1242 1523 1517 1523 1920 
L 1523 4147 
C 1523 4589 1536 4845 1574 5069 
L 416 5069 
C 454 4832 467 4570 467 4147 
L 467 1920 
C 467 1248 640 736 986 358 
C 1350 -38 1971 -256 2733 -256 
C 4186 -256 5018 531 5018 1914 
L 5018 4154 
C 5018 4576 5030 4813 5069 5069 
L 3910 5069 
z
" transform="scale(0.015625)"/>
      <path id="HiraginoSans-W7-ff08" d="M 6240 -589 
C 5830 -26 5658 256 5491 666 
C 5274 1197 5152 1837 5152 2432 
C 5152 3027 5274 3667 5491 4198 
C 5658 4608 5830 4890 6240 5453 
L 5197 5453 
C 4845 4902 4691 4621 4538 4211 
C 4320 3648 4205 3034 4205 2432 
C 4205 1830 4320 1216 4538 653 
C 4691 243 4845 -38 5197 -589 
L 6240 -589 
z
" transform="scale(0.015625)"/>
      <path id="HiraginoSans-W7-958b" d="M 1510 1005 
C 1658 1024 1818 1030 2131 1030 
C 2054 627 1901 378 1504 64 
C 1792 -134 1792 -134 2144 -461 
C 2598 -13 2797 390 2893 1030 
L 3462 1030 
L 3462 186 
C 3462 -96 3456 -198 3437 -358 
L 4237 -358 
C 4218 -230 4211 -109 4211 186 
L 4211 1030 
C 4557 1030 4691 1024 4902 1005 
L 4902 1683 
C 4704 1664 4570 1658 4211 1658 
L 4211 2189 
C 4506 2189 4640 2182 4813 2163 
L 4813 2829 
C 4640 2810 4448 2803 4122 2803 
L 2291 2803 
C 1978 2803 1792 2810 1626 2829 
L 1626 2163 
C 1792 2182 1946 2189 2208 2189 
C 2202 1862 2202 1862 2195 1658 
C 1850 1658 1709 1664 1510 1683 
L 1510 1005 
z
M 3462 2189 
L 3462 1658 
L 2938 1658 
C 2938 1734 2938 1734 2938 1869 
C 2944 2074 2944 2074 2944 2189 
L 3462 2189 
z
M 1280 3085 
L 2445 3085 
C 2643 3085 2854 3078 3002 3072 
C 2989 3219 2989 3328 2989 3635 
L 2989 4666 
C 2989 4902 2995 5062 3008 5261 
C 2842 5242 2694 5235 2355 5235 
L 1101 5235 
C 787 5235 621 5242 448 5261 
C 467 5056 474 4883 474 4531 
L 474 301 
C 474 -115 461 -326 435 -525 
L 1318 -525 
C 1293 -333 1280 -96 1280 288 
L 1280 3085 
z
M 1280 4672 
L 2240 4672 
L 2240 4390 
L 1280 4390 
L 1280 4672 
z
M 1280 3891 
L 2240 3891 
L 2240 3603 
L 1280 3603 
L 1280 3891 
z
M 5946 4544 
C 5946 4877 5952 5037 5971 5261 
C 5798 5242 5632 5235 5318 5235 
L 4013 5235 
C 3686 5235 3533 5242 3360 5261 
C 3373 5075 3379 4902 3379 4666 
L 3379 3635 
C 3379 3347 3379 3232 3366 3072 
C 3578 3078 3699 3085 3923 3085 
L 5146 3085 
L 5146 461 
C 5146 326 5114 301 4954 301 
C 4742 301 4614 314 4378 346 
C 4493 51 4538 -109 4576 -454 
C 4736 -467 4800 -467 4947 -467 
C 5754 -467 5946 -314 5946 339 
L 5946 4544 
z
M 4141 4672 
L 5146 4672 
L 5146 4390 
L 4141 4390 
L 4141 4672 
z
M 4141 3891 
L 5146 3891 
L 5146 3603 
L 4141 3603 
L 4141 3891 
z
" transform="scale(0.015625)"/>
      <path id="HiraginoSans-W7-96c6" d="M 3821 2739 
L 4986 2739 
C 5344 2739 5434 2733 5606 2714 
L 5606 3270 
C 5402 3245 5338 3245 4986 3245 
L 3821 3245 
L 3821 3501 
L 4986 3501 
C 5357 3501 5408 3501 5606 3475 
L 5606 4032 
C 5427 4013 5325 4006 4986 4006 
L 3821 4006 
L 3821 4256 
L 5318 4256 
C 5542 4256 5696 4250 5830 4230 
L 5830 4909 
C 5658 4883 5466 4877 5190 4877 
L 3930 4877 
C 4032 5037 4102 5152 4237 5402 
L 3366 5498 
C 3283 5261 3200 5094 3059 4877 
L 1997 4877 
C 2144 5082 2176 5120 2323 5382 
L 1453 5504 
C 1414 5382 1344 5235 1254 5094 
C 934 4582 608 4237 122 3898 
C 282 3642 365 3482 493 3130 
C 762 3334 845 3418 1030 3642 
C 1018 3386 1011 3283 1011 3098 
L 1011 2438 
C 1011 2208 1005 2042 986 1888 
C 1152 1901 1318 1907 1574 1907 
L 2771 1907 
L 2771 1626 
L 1030 1626 
C 640 1626 461 1632 294 1658 
L 294 928 
C 512 954 691 960 1030 960 
L 2106 960 
C 1862 781 1587 640 1210 499 
C 877 378 602 314 166 250 
C 352 -6 467 -218 576 -506 
C 1030 -390 1325 -288 1677 -128 
C 2189 109 2490 307 2790 602 
C 2778 461 2771 339 2771 205 
L 2771 -115 
C 2771 -314 2758 -422 2733 -557 
L 3635 -557 
C 3603 -429 3597 -333 3597 -109 
L 3597 205 
C 3597 288 3590 410 3578 602 
C 3885 320 4147 141 4589 -70 
C 4979 -256 5312 -371 5811 -499 
C 6022 -26 6022 -13 6227 269 
C 5472 384 4691 659 4243 960 
L 5363 960 
C 5696 960 5882 954 6099 928 
L 6099 1658 
C 5933 1632 5747 1626 5363 1626 
L 3597 1626 
L 3597 1907 
L 5254 1907 
C 5562 1907 5702 1901 5882 1882 
L 5882 2502 
C 5722 2483 5549 2477 5242 2477 
L 3821 2477 
L 3821 2739 
z
M 3021 2739 
L 3021 2477 
L 1805 2477 
L 1805 2739 
L 3021 2739 
z
M 3021 3245 
L 1805 3245 
L 1805 3501 
L 3021 3501 
L 3021 3245 
z
M 3021 4006 
L 1805 4006 
L 1805 4256 
L 3021 4256 
L 3021 4006 
z
" transform="scale(0.015625)"/>
      <path id="HiraginoSans-W7-5408" d="M 1498 2790 
C 1670 2810 1856 2816 2074 2816 
L 4333 2816 
C 4595 2816 4755 2810 4922 2790 
L 4922 3187 
C 5274 2976 5466 2880 5882 2701 
C 6010 3059 6093 3232 6278 3546 
C 5670 3750 5216 3981 4710 4339 
C 4186 4710 3904 4986 3622 5389 
L 2726 5389 
C 2458 4986 2163 4691 1696 4339 
C 1190 3968 691 3699 134 3507 
C 346 3213 422 3059 557 2720 
C 960 2893 1133 2976 1498 3194 
L 1498 2790 
z
M 2099 3584 
C 2579 3930 2835 4186 3187 4659 
C 3539 4218 3834 3949 4326 3584 
L 2099 3584 
z
M 1856 -518 
L 1856 -224 
L 4538 -224 
L 4538 -518 
L 5427 -518 
C 5395 -307 5389 -141 5389 166 
L 5389 1722 
C 5389 2010 5395 2189 5421 2368 
C 5267 2355 5107 2349 4838 2349 
L 1555 2349 
C 1286 2349 1120 2355 973 2368 
C 998 2182 1005 1997 1005 1722 
L 1005 173 
C 1005 -122 992 -301 966 -518 
L 1856 -518 
z
M 1856 1587 
L 4538 1587 
L 4538 525 
L 1856 525 
L 1856 1587 
z
" transform="scale(0.015625)"/>
      <path id="HiraginoSans-W7-ff09" d="M 1203 -589 
C 1555 -38 1709 243 1862 653 
C 2080 1216 2195 1824 2195 2432 
C 2195 3040 2080 3648 1862 4211 
C 1709 4621 1555 4902 1203 5453 
L 160 5453 
C 570 4890 742 4608 909 4198 
C 1126 3667 1248 3027 1248 2432 
C 1248 1837 1126 1197 909 666 
C 742 256 570 -26 160 -589 
L 1203 -589 
z
" transform="scale(0.015625)"/>
     </defs>
     <use xlink:href="#HiraginoSans-W7-55"/>
     <use xlink:href="#HiraginoSans-W7-ff08" transform="translate(85.699982 0)"/>
     <use xlink:href="#HiraginoSans-W7-958b" transform="translate(185.699966 0)"/>
     <use xlink:href="#HiraginoSans-W7-96c6" transform="translate(285.699951 0)"/>
     <use xlink:href="#HiraginoSans-W7-5408" transform="translate(385.699936 0)"/>
     <use xlink:href="#HiraginoSans-W7-ff09" transform="translate(485.699921 0)"/>
    </g>
   </g>
   <g id="text_2">
    <!-- （点線 = 境界を含まない） -->
    <g style="fill: #1f4e79" transform="translate(119.115 221.262187) scale(0.09 -0.09)">
     <defs>
      <path id="HiraginoSans-W4-ff08" d="M 6170 -531 
C 5690 -26 5491 256 5280 698 
C 5024 1235 4902 1805 4902 2432 
C 4902 3059 5024 3629 5280 4166 
C 5491 4608 5690 4890 6170 5395 
L 5517 5395 
C 5139 4947 4966 4685 4774 4275 
C 4499 3686 4365 3085 4365 2432 
C 4365 1779 4499 1178 4774 589 
C 4966 179 5139 -83 5517 -531 
L 6170 -531 
z
" transform="scale(0.015625)"/>
      <path id="HiraginoSans-W4-70b9" d="M 3341 4122 
L 5114 4122 
C 5350 4122 5542 4109 5766 4083 
L 5766 4602 
C 5587 4576 5402 4563 5114 4563 
L 3341 4563 
L 3341 4736 
C 3341 4973 3354 5165 3386 5331 
L 2790 5331 
C 2822 5152 2835 4941 2835 4704 
L 2835 3341 
L 1850 3341 
C 1555 3341 1325 3354 1126 3373 
C 1146 3206 1152 3072 1152 2874 
L 1152 1805 
C 1152 1632 1146 1498 1126 1338 
C 1318 1357 1498 1363 1773 1363 
L 4640 1363 
C 4922 1363 5088 1357 5286 1338 
C 5267 1491 5261 1606 5261 1811 
L 5261 2874 
C 5261 3085 5267 3232 5286 3373 
C 5107 3347 4915 3341 4570 3341 
L 3341 3341 
L 3341 4122 
z
M 4774 2893 
L 4774 1818 
L 1645 1818 
L 1645 2893 
L 4774 2893 
z
M 749 -474 
C 1126 -19 1331 352 1562 966 
L 1114 1146 
C 1005 806 941 659 781 403 
C 627 147 531 26 294 -205 
L 749 -474 
z
M 2803 -378 
C 2778 109 2733 435 2618 1018 
L 2176 947 
C 2278 410 2304 141 2304 -474 
L 2803 -378 
z
M 4378 -288 
C 4211 211 4070 563 3827 1069 
L 3405 941 
C 3648 397 3776 26 3885 -480 
L 4378 -288 
z
M 5984 -205 
C 5632 429 5504 640 5126 1165 
L 4704 986 
C 5069 474 5242 160 5523 -467 
L 5984 -205 
z
" transform="scale(0.015625)"/>
      <path id="HiraginoSans-W4-7dda" d="M 397 2125 
C 506 2144 570 2157 678 2163 
C 1222 2195 1222 2195 1370 2208 
L 1370 160 
C 1370 -102 1357 -288 1331 -493 
L 1850 -493 
C 1818 -307 1811 -134 1811 154 
L 1811 2246 
C 2003 2266 2074 2272 2170 2285 
C 2291 2304 2291 2304 2362 2310 
C 2381 2227 2400 2163 2432 2022 
L 2797 2195 
C 2650 2701 2579 2886 2362 3360 
L 2016 3213 
C 2131 2976 2170 2886 2240 2688 
C 1939 2650 1728 2630 1338 2605 
C 1709 3098 1920 3392 2125 3712 
C 2400 4147 2400 4147 2573 4403 
L 2138 4627 
C 2054 4390 1850 4026 1510 3507 
C 1370 3680 1312 3744 1165 3917 
C 1421 4288 1594 4589 1779 4954 
C 1850 5094 1882 5152 1926 5216 
L 1466 5395 
C 1408 5126 1216 4730 883 4211 
C 768 4326 742 4352 595 4499 
L 333 4128 
C 698 3808 934 3558 1267 3155 
C 1088 2899 1088 2899 845 2586 
C 691 2579 691 2579 582 2579 
C 480 2579 422 2586 333 2598 
L 397 2125 
z
M 3475 4826 
C 3181 4826 3027 4832 2867 4851 
C 2880 4685 2893 4486 2893 4243 
L 2893 3181 
C 2893 2938 2880 2739 2867 2579 
C 3040 2598 3226 2605 3482 2605 
L 4070 2605 
L 4070 186 
C 4070 77 4026 51 3859 51 
C 3693 51 3501 70 3264 102 
C 3334 -51 3366 -154 3398 -371 
C 3501 -384 3744 -390 3866 -390 
C 4358 -390 4525 -269 4525 96 
L 4525 832 
C 4518 1094 4506 1427 4461 1907 
C 4678 1280 4851 954 5190 512 
C 5427 211 5613 26 5952 -243 
C 6054 -32 6138 77 6266 198 
C 5805 506 5491 819 5158 1286 
C 5466 1549 5696 1766 6035 2131 
L 5702 2438 
C 5427 2093 5235 1888 4941 1632 
C 4723 2016 4640 2221 4544 2605 
L 5158 2605 
C 5414 2605 5581 2598 5760 2579 
C 5741 2752 5734 2899 5734 3174 
L 5734 4237 
C 5734 4525 5741 4672 5760 4851 
C 5600 4832 5446 4826 5152 4826 
L 4365 4826 
C 4448 4992 4506 5126 4582 5318 
L 4064 5408 
C 4032 5235 3987 5094 3872 4826 
L 3475 4826 
z
M 3334 4435 
L 5286 4435 
L 5286 3917 
L 3334 3917 
L 3334 4435 
z
M 3334 3526 
L 5286 3526 
L 5286 2989 
L 3334 2989 
L 3334 3526 
z
M 666 1818 
C 602 966 531 576 346 64 
L 742 -141 
C 928 422 947 538 1075 1754 
L 666 1818 
z
M 2029 1741 
C 2138 1325 2208 941 2253 480 
L 2630 602 
C 2566 1050 2502 1370 2374 1843 
L 2029 1741 
z
M 3750 2067 
C 3674 2054 3590 2048 3430 2048 
L 3072 2048 
C 2861 2048 2771 2054 2643 2080 
L 2643 1613 
C 2778 1632 2874 1638 3059 1638 
L 3437 1638 
C 3174 998 2829 563 2240 147 
C 2394 26 2483 -77 2560 -211 
C 2848 32 3027 211 3213 442 
C 3430 710 3654 1101 3782 1414 
C 3878 1677 3878 1677 3955 1837 
L 3750 2067 
z
" transform="scale(0.015625)"/>
      <path id="HiraginoSans-W4-20" transform="scale(0.015625)"/>
      <path id="HiraginoSans-W4-3d" d="M 333 2720 
L 333 2195 
L 3923 2195 
L 3923 2720 
L 333 2720 
z
M 333 1376 
L 333 851 
L 3923 851 
L 3923 1376 
L 333 1376 
z
" transform="scale(0.015625)"/>
      <path id="HiraginoSans-W4-5883" d="M 3142 1094 
C 3104 749 3027 582 2835 397 
C 2573 141 2202 0 1504 -102 
C 1645 -243 1709 -352 1786 -544 
C 2502 -390 2925 -179 3232 166 
C 3443 410 3526 627 3590 1094 
L 4192 1094 
L 4192 26 
C 4192 -320 4358 -403 5075 -403 
C 5619 -403 5798 -378 5926 -269 
C 6074 -147 6131 51 6176 614 
C 5978 659 5888 698 5722 794 
C 5715 442 5690 205 5645 128 
C 5600 58 5491 32 5171 32 
C 4710 32 4653 51 4653 173 
L 4653 1094 
L 5158 1094 
C 5382 1094 5523 1088 5683 1075 
C 5664 1197 5658 1338 5658 1562 
L 5658 2579 
C 5658 2822 5664 2970 5683 3091 
C 5523 3072 5357 3066 5082 3066 
L 3014 3066 
C 2733 3066 2554 3072 2394 3091 
C 2413 2963 2419 2810 2419 2592 
L 2419 1523 
C 2419 1306 2413 1184 2394 1075 
C 2643 1088 2752 1094 2944 1094 
L 3142 1094 
z
M 2867 2682 
L 5210 2682 
L 5210 2285 
L 2867 2285 
L 2867 2682 
z
M 2867 1907 
L 5210 1907 
L 5210 1466 
L 2867 1466 
L 2867 1907 
z
M 1018 3648 
L 838 3648 
C 614 3648 461 3654 288 3680 
L 288 3181 
C 467 3200 634 3213 826 3213 
L 1018 3213 
L 1018 1261 
C 589 1094 403 1030 224 1005 
L 346 474 
C 429 518 525 563 614 595 
C 1338 890 1709 1056 2182 1293 
L 2157 1766 
C 1837 1613 1734 1562 1485 1453 
L 1485 3213 
L 1549 3213 
C 1760 3213 1888 3206 2042 3187 
L 2042 3667 
C 1882 3654 1779 3648 1549 3648 
L 1485 3648 
L 1485 4557 
C 1485 4877 1498 5069 1523 5267 
L 979 5267 
C 1005 5082 1018 4858 1018 4563 
L 1018 3648 
z
M 4262 4787 
L 4262 4954 
C 4262 5126 4269 5235 4294 5363 
L 3750 5363 
C 3776 5235 3782 5120 3782 4954 
L 3782 4787 
L 2918 4787 
C 2637 4787 2464 4794 2272 4819 
L 2272 4378 
C 2445 4397 2586 4403 2835 4403 
L 2880 4403 
C 2989 4198 3046 4045 3123 3814 
L 2758 3814 
C 2490 3814 2355 3821 2163 3840 
L 2163 3386 
C 2342 3405 2483 3411 2771 3411 
L 5414 3411 
C 5715 3411 5862 3405 6067 3379 
L 6067 3846 
C 5882 3821 5754 3814 5434 3814 
L 4928 3814 
C 5037 4006 5094 4134 5210 4403 
L 5248 4403 
C 5530 4403 5715 4397 5901 4378 
L 5901 4819 
C 5722 4800 5523 4787 5248 4787 
L 4262 4787 
z
M 3590 3814 
C 3514 4038 3437 4237 3354 4403 
L 4730 4403 
C 4653 4198 4570 4013 4454 3814 
L 3590 3814 
z
" transform="scale(0.015625)"/>
      <path id="HiraginoSans-W4-754c" d="M 2227 2566 
C 1798 2035 1139 1658 243 1414 
C 390 1229 422 1178 518 966 
C 1235 1235 1658 1466 2125 1837 
C 2144 1715 2144 1664 2144 1549 
C 2144 627 1798 262 557 -109 
C 794 -397 794 -397 877 -544 
C 1536 -314 1901 -102 2182 205 
C 2470 525 2605 915 2637 1555 
C 2643 1709 2650 1766 2662 1837 
L 2131 1843 
C 2432 2093 2586 2259 2810 2566 
L 3584 2566 
C 3840 2246 3987 2093 4294 1850 
L 3872 1850 
C 3898 1709 3904 1613 3904 1350 
L 3904 173 
C 3904 -128 3891 -314 3866 -493 
L 4442 -493 
C 4416 -294 4403 -102 4403 173 
L 4403 1402 
C 4403 1562 4410 1632 4422 1754 
C 4838 1440 5274 1222 5952 979 
C 6029 1184 6086 1286 6208 1459 
C 5306 1677 4634 2042 4160 2566 
L 4902 2566 
C 5146 2566 5331 2560 5530 2541 
C 5510 2720 5504 2867 5504 3155 
L 5504 4493 
C 5504 4800 5510 4947 5530 5133 
C 5338 5107 5158 5101 4896 5101 
L 1542 5101 
C 1280 5101 1094 5107 909 5133 
C 928 4941 934 4781 934 4493 
L 934 3155 
C 934 2886 928 2720 909 2541 
C 1107 2560 1286 2566 1530 2566 
L 2227 2566 
z
M 1408 4691 
L 2957 4691 
L 2957 4026 
L 1408 4026 
L 1408 4691 
z
M 1408 3629 
L 2957 3629 
L 2957 2950 
L 1408 2950 
L 1408 3629 
z
M 3411 4691 
L 5030 4691 
L 5030 4026 
L 3411 4026 
L 3411 4691 
z
M 3411 3629 
L 5030 3629 
L 5030 2950 
L 3411 2950 
L 3411 3629 
z
" transform="scale(0.015625)"/>
      <path id="HiraginoSans-W4-3092" d="M 2189 4365 
C 1491 4365 1088 4390 813 4442 
L 800 3917 
C 864 3930 902 3930 934 3930 
C 966 3930 998 3930 1062 3923 
C 1197 3917 1830 3904 1958 3904 
C 1984 3904 2054 3910 2074 3910 
C 2035 3840 2035 3840 2016 3808 
C 1581 3046 1037 2362 614 2042 
L 1037 1619 
C 1152 1798 1293 1952 1549 2163 
C 2054 2598 2547 2835 2938 2835 
C 3226 2835 3373 2694 3411 2381 
C 2982 2189 2707 2042 2470 1869 
C 2016 1542 1792 1197 1792 832 
C 1792 499 1952 218 2227 64 
C 2534 -109 2944 -186 3539 -186 
C 4058 -186 4646 -141 5133 -64 
C 5267 -38 5293 -38 5395 -32 
L 5338 557 
C 4954 403 4250 301 3597 301 
C 2694 301 2330 467 2330 870 
C 2330 1088 2445 1267 2707 1472 
C 2874 1600 3085 1715 3475 1894 
C 3475 1818 3475 1798 3475 1696 
C 3475 1350 3456 973 3437 845 
L 3962 851 
C 3949 954 3949 1005 3949 1114 
C 3949 1165 3949 1254 3949 1376 
C 3955 1504 3955 1638 3955 1709 
C 3955 1850 3955 1869 3949 2080 
C 4800 2406 5299 2566 5645 2624 
L 5414 3149 
C 5312 3085 5293 3078 4966 2963 
C 4653 2854 4390 2758 3891 2566 
C 3802 3027 3507 3264 3027 3264 
C 2726 3264 2413 3174 2144 3002 
C 2080 2963 2042 2938 1926 2842 
C 1907 2829 1875 2810 1837 2778 
C 1837 2778 1830 2784 1824 2797 
C 1830 2803 1830 2803 1837 2810 
C 1837 2816 1862 2835 1901 2861 
C 1920 2874 2054 3021 2106 3098 
C 2310 3354 2438 3565 2624 3910 
C 3251 3930 4070 3987 4512 4045 
C 4883 4096 4883 4096 5005 4109 
L 4966 4621 
C 4627 4518 4032 4442 3238 4397 
C 2880 4378 2880 4378 2835 4371 
C 2874 4435 2944 4595 3027 4800 
C 3130 5050 3130 5050 3181 5126 
L 2579 5216 
C 2560 5011 2490 4813 2291 4365 
L 2189 4365 
z
" transform="scale(0.015625)"/>
      <path id="HiraginoSans-W4-542b" d="M 2080 3386 
C 2234 3405 2387 3411 2624 3411 
L 3827 3411 
C 4070 3411 4205 3405 4365 3386 
L 4365 3814 
C 4902 3430 5331 3181 5939 2912 
C 6035 3098 6112 3219 6246 3366 
C 5734 3546 5344 3738 4864 4045 
C 4230 4448 3853 4781 3437 5312 
L 2912 5312 
C 2304 4474 1357 3782 186 3328 
C 352 3155 390 3104 506 2893 
C 1088 3168 1536 3430 2080 3834 
L 2080 3386 
z
M 2618 3821 
C 2368 3821 2253 3827 2099 3846 
C 2502 4154 2778 4422 3181 4896 
C 3546 4474 3846 4192 4320 3846 
C 4192 3827 4058 3821 3834 3821 
L 2618 3821 
z
M 4064 1683 
L 4947 2458 
C 5107 2598 5107 2598 5120 2605 
C 5171 2650 5171 2650 5197 2669 
L 4896 2963 
C 4781 2944 4646 2938 4378 2938 
L 1651 2938 
C 1421 2938 1261 2944 1107 2970 
L 1107 2483 
C 1280 2509 1466 2515 1702 2515 
L 4378 2515 
L 3411 1683 
L 1562 1683 
C 1376 1683 1242 1690 1088 1709 
C 1107 1549 1120 1408 1120 1216 
L 1120 58 
C 1120 -134 1107 -294 1082 -486 
L 1606 -486 
L 1606 -198 
L 4819 -198 
L 4819 -486 
L 5344 -486 
C 5318 -314 5312 -141 5312 51 
L 5312 1203 
C 5312 1408 5318 1542 5338 1709 
C 5197 1690 5069 1683 4870 1683 
L 4064 1683 
z
M 1606 1254 
L 4819 1254 
L 4819 237 
L 1606 237 
L 1606 1254 
z
" transform="scale(0.015625)"/>
      <path id="HiraginoSans-W4-307e" d="M 5651 563 
C 5562 614 5536 640 5427 710 
C 4749 1197 4256 1453 3648 1638 
C 3635 1901 3635 1901 3616 2554 
C 3949 2573 4518 2624 4768 2662 
C 5261 2733 5280 2739 5389 2746 
L 5363 3264 
C 4998 3149 4371 3059 3610 3014 
C 3603 3366 3597 3462 3597 3808 
C 4179 3840 4499 3872 5050 3949 
C 5389 4000 5389 4000 5510 4006 
L 5485 4525 
C 5107 4403 4442 4314 3597 4269 
C 3603 4755 3616 4986 3642 5133 
L 3066 5133 
C 3091 4986 3091 4986 3098 4250 
C 2906 4243 2682 4237 2560 4237 
C 1850 4237 1203 4288 896 4365 
L 890 3846 
C 928 3853 960 3853 979 3853 
C 1005 3853 1050 3853 1107 3846 
C 1562 3814 2266 3782 2650 3782 
C 2771 3782 2880 3782 3098 3789 
C 3098 3686 3104 3622 3110 2989 
C 2893 2982 2701 2976 2554 2976 
C 1914 2976 1363 3014 1075 3078 
L 1069 2579 
C 1094 2579 1114 2579 1126 2579 
C 1165 2579 1216 2579 1293 2573 
C 1702 2534 2016 2522 2394 2522 
C 2554 2522 2778 2528 3117 2534 
C 3136 1875 3136 1875 3149 1722 
C 2963 1747 2803 1760 2586 1760 
C 1600 1760 1005 1382 1005 755 
C 1005 192 1510 -160 2317 -160 
C 2925 -160 3354 0 3520 294 
C 3616 461 3674 704 3674 954 
C 3674 1011 3674 1043 3667 1120 
C 3898 1024 3898 1024 4038 954 
C 4576 685 5043 352 5344 32 
L 5651 563 
z
M 3155 1242 
C 3155 1242 3162 1075 3162 1024 
C 3162 755 3123 595 3034 499 
C 2918 371 2682 301 2355 301 
C 1843 301 1536 474 1536 768 
C 1536 870 1574 973 1638 1037 
C 1798 1203 2138 1306 2528 1306 
C 2790 1306 2912 1293 3155 1242 
z
" transform="scale(0.015625)"/>
      <path id="HiraginoSans-W4-306a" d="M 2074 5229 
C 2054 4941 1971 4454 1862 4051 
C 1760 4045 1594 4045 1421 4045 
C 1062 4045 870 4058 646 4096 
L 646 3571 
C 678 3571 704 3571 717 3571 
C 755 3571 806 3571 870 3571 
C 1062 3565 1114 3565 1267 3565 
C 1536 3565 1562 3565 1728 3571 
C 1434 2586 922 1530 467 954 
L 986 653 
C 1018 710 1056 781 1114 877 
C 1357 1306 1414 1414 1568 1722 
C 1850 2310 2080 2925 2272 3590 
C 2707 3622 3072 3674 3315 3718 
C 3462 3744 3462 3744 3533 3750 
L 3514 4282 
C 3238 4192 2835 4122 2406 4083 
C 2483 4384 2522 4525 2566 4742 
C 2624 5018 2624 5037 2662 5152 
L 2074 5229 
z
M 5933 3488 
C 5408 3827 4954 4051 4211 4339 
L 3936 3904 
C 4627 3654 5133 3398 5670 3027 
L 5933 3488 
z
M 5939 640 
C 5901 672 5901 672 5843 717 
C 5786 774 5760 794 5664 870 
C 5280 1171 5050 1299 4576 1510 
C 4538 1792 4506 2182 4506 2451 
C 4506 2694 4525 2822 4595 3066 
L 4070 3110 
C 4026 2893 4006 2726 4006 2515 
C 4006 2304 4026 1958 4051 1645 
C 3782 1709 3622 1728 3405 1728 
C 2618 1728 2067 1312 2067 717 
C 2067 333 2304 6 2682 -122 
C 2886 -198 3142 -237 3379 -237 
C 3827 -237 4198 -96 4390 147 
C 4518 307 4602 563 4602 806 
C 4602 858 4602 890 4589 973 
C 5037 730 5434 422 5670 128 
L 5939 640 
z
M 4077 1152 
C 4083 1152 4096 966 4096 896 
C 4096 454 3853 243 3347 243 
C 2867 243 2579 429 2579 736 
C 2579 1062 2899 1274 3405 1274 
C 3648 1274 3821 1242 4077 1152 
z
" transform="scale(0.015625)"/>
      <path id="HiraginoSans-W4-3044" d="M 819 4576 
C 832 4454 832 4429 838 4192 
C 870 2592 960 1805 1178 1165 
C 1395 518 1754 134 2144 134 
C 2630 134 2931 576 3258 1741 
C 3040 1907 2970 1978 2810 2170 
C 2733 1734 2624 1389 2477 1056 
C 2387 851 2278 749 2170 749 
C 1939 749 1696 1178 1562 1837 
C 1472 2246 1408 3091 1408 3763 
C 1408 4122 1421 4358 1453 4570 
L 819 4576 
z
M 4058 4013 
C 4813 3130 5280 1984 5382 781 
L 5933 998 
C 5728 2349 5325 3290 4525 4243 
L 4058 4013 
z
" transform="scale(0.015625)"/>
      <path id="HiraginoSans-W4-ff09" d="M 890 -531 
C 1261 -83 1434 179 1626 589 
C 1901 1178 2035 1773 2035 2432 
C 2035 3091 1901 3686 1626 4275 
C 1434 4685 1261 4947 890 5395 
L 230 5395 
C 710 4890 909 4608 1120 4166 
C 1376 3629 1498 3072 1498 2432 
C 1498 1792 1376 1235 1120 698 
C 909 256 710 -26 230 -531 
L 890 -531 
z
" transform="scale(0.015625)"/>
     </defs>
     <use xlink:href="#HiraginoSans-W4-ff08"/>
     <use xlink:href="#HiraginoSans-W4-70b9" transform="translate(99.999985 0)"/>
     <use xlink:href="#HiraginoSans-W4-7dda" transform="translate(199.999969 0)"/>
     <use xlink:href="#HiraginoSans-W4-20" transform="translate(299.999954 0)"/>
     <use xlink:href="#HiraginoSans-W4-3d" transform="translate(333.299942 0)"/>
     <use xlink:href="#HiraginoSans-W4-20" transform="translate(399.699936 0)"/>
     <use xlink:href="#HiraginoSans-W4-5883" transform="translate(432.999924 0)"/>
     <use xlink:href="#HiraginoSans-W4-754c" transform="translate(532.999908 0)"/>
     <use xlink:href="#HiraginoSans-W4-3092" transform="translate(632.999893 0)"/>
     <use xlink:href="#HiraginoSans-W4-542b" transform="translate(732.999878 0)"/>
     <use xlink:href="#HiraginoSans-W4-307e" transform="translate(832.999863 0)"/>
     <use xlink:href="#HiraginoSans-W4-306a" transform="translate(932.999847 0)"/>
     <use xlink:href="#HiraginoSans-W4-3044" transform="translate(1032.999832 0)"/>
     <use xlink:href="#HiraginoSans-W4-ff09" transform="translate(1132.999817 0)"/>
    </g>
   </g>
   <g id="text_3">
    <!-- Uᶜ（閉集合） -->
    <g style="fill: #c00000" transform="translate(399.23625 169.32) scale(0.12 -0.12)">
     <defs>
      <path id="DejaVuSans-Bold-1d9c" d="M 2288 3988 
L 2288 3475 
Q 2144 3563 2000 3606 
Q 1853 3647 1700 3647 
Q 1403 3647 1241 3494 
Q 1075 3341 1075 3066 
Q 1075 2791 1241 2638 
Q 1403 2484 1700 2484 
Q 1866 2484 2013 2528 
Q 2163 2572 2288 2659 
L 2288 2144 
Q 2122 2091 1953 2063 
Q 1781 2038 1609 2038 
Q 1013 2038 678 2309 
Q 341 2581 341 3065 
Q 341 3550 678 3822 
Q 1013 4094 1609 4094 
Q 1784 4094 1953 4069 
Q 2122 4041 2288 3988 
z
" transform="scale(0.015625)"/>
      <path id="HiraginoSans-W7-9589" d="M 2733 1754 
C 2381 1306 1901 928 1312 621 
C 1549 365 1638 237 1792 -38 
C 2528 448 3021 934 3379 1517 
L 3386 570 
C 3386 397 3341 358 3162 358 
C 2970 358 2797 378 2586 422 
C 2694 122 2733 -32 2765 -346 
C 2950 -358 3130 -365 3245 -365 
C 3974 -365 4147 -224 4147 358 
L 4141 1754 
L 4294 1754 
C 4518 1754 4698 1747 4864 1728 
L 4864 2490 
C 4691 2470 4531 2464 4243 2464 
L 4134 2464 
L 4134 2586 
C 4134 2714 4147 2835 4166 2931 
L 3341 2931 
C 3366 2797 3373 2714 3373 2509 
L 3373 2464 
L 2195 2464 
C 1907 2464 1741 2470 1574 2490 
L 1574 1728 
C 1741 1747 1920 1754 2150 1754 
L 2733 1754 
z
M 1293 3059 
L 2445 3059 
C 2656 3059 2842 3053 3002 3046 
C 2989 3181 2989 3296 2989 3610 
L 2989 4646 
C 2989 4890 2995 5050 3008 5235 
C 2842 5216 2694 5210 2355 5210 
L 1114 5210 
C 800 5210 653 5216 461 5235 
C 480 5030 486 4858 486 4512 
L 486 288 
C 486 -128 474 -339 448 -538 
L 1331 -538 
C 1306 -339 1293 -109 1293 275 
L 1293 3059 
z
M 1293 4634 
L 2240 4634 
L 2240 4384 
L 1293 4384 
L 1293 4634 
z
M 1293 3866 
L 2240 3866 
L 2240 3610 
L 1293 3610 
L 1293 3866 
z
M 5958 4518 
C 5958 4845 5965 5024 5984 5235 
C 5792 5216 5651 5210 5331 5210 
L 4045 5210 
C 3718 5210 3584 5216 3392 5235 
C 3405 5024 3411 4870 3411 4646 
L 3411 3610 
C 3411 3302 3411 3232 3398 3040 
C 3552 3046 3738 3053 3955 3053 
L 5152 3053 
L 5152 448 
C 5152 307 5114 282 4928 282 
C 4742 282 4570 294 4358 326 
C 4467 70 4512 -115 4563 -480 
C 4883 -486 4909 -486 4941 -486 
C 5779 -486 5958 -352 5958 301 
L 5958 4518 
z
M 4173 4634 
L 5152 4634 
L 5152 4384 
L 4173 4384 
L 4173 4634 
z
M 4173 3866 
L 5152 3866 
L 5152 3610 
L 4173 3610 
L 4173 3866 
z
" transform="scale(0.015625)"/>
     </defs>
     <use xlink:href="#HiraginoSans-W7-55"/>
     <use xlink:href="#DejaVuSans-Bold-1d9c" transform="translate(85.699982 0)"/>
     <use xlink:href="#HiraginoSans-W7-ff08" transform="translate(127.057404 0)"/>
     <use xlink:href="#HiraginoSans-W7-9589" transform="translate(227.057388 0)"/>
     <use xlink:href="#HiraginoSans-W7-96c6" transform="translate(327.057373 0)"/>
     <use xlink:href="#HiraginoSans-W7-5408" transform="translate(427.057358 0)"/>
     <use xlink:href="#HiraginoSans-W7-ff09" transform="translate(527.057343 0)"/>
    </g>
   </g>
   <g id="patch_4">
    <path d="M 277.040374 110.382187 
Q 322.471255 110.382187 366.225084 110.382187 
" style="fill: none; stroke: #555555; stroke-width: 1.5; stroke-linecap: round"/>
    <path d="M 362.225084 108.382187 
L 366.225084 110.382187 
L 362.225084 112.382187 
z
" style="fill: #555555; stroke: #555555; stroke-width: 1.5; stroke-linecap: round"/>
   </g>
   <g id="text_4">
    <!-- 補集合 -->
    <g style="fill: #555555" transform="translate(308.97 93.750187) scale(0.09 -0.09)">
     <defs>
      <path id="HiraginoSans-W4-88dc" d="M 2131 3027 
C 1978 2707 1882 2534 1722 2310 
C 1613 2438 1574 2496 1491 2618 
C 1741 2976 1869 3206 2106 3725 
C 2227 3987 2227 3994 2253 4032 
L 2048 4288 
C 1984 4275 1926 4269 1741 4269 
L 1504 4269 
L 1504 4870 
C 1504 5037 1517 5210 1536 5350 
L 1011 5350 
C 1037 5216 1043 5069 1043 4858 
L 1043 4269 
L 851 4269 
C 595 4269 480 4275 358 4301 
L 358 3808 
C 506 3827 672 3840 877 3840 
L 1677 3840 
C 1350 3014 877 2362 211 1830 
C 333 1651 378 1562 435 1376 
C 717 1638 864 1786 1062 2029 
C 1056 1952 1050 1638 1050 1555 
L 1050 173 
C 1050 -83 1037 -326 1005 -512 
L 1542 -512 
C 1517 -346 1504 -96 1504 173 
L 1504 1632 
C 1504 1786 1504 1786 1498 2016 
C 1690 1760 1843 1587 2118 1331 
C 2208 1510 2234 1549 2368 1709 
C 2176 1850 2118 1894 1965 2048 
C 2131 2259 2253 2445 2451 2771 
L 2131 3027 
z
M 2944 960 
L 3872 960 
L 3872 141 
C 3872 -154 3866 -301 3846 -429 
L 4346 -429 
C 4326 -269 4320 -134 4320 141 
L 4320 960 
L 5370 960 
L 5370 218 
C 5370 90 5344 64 5210 64 
C 5030 64 4979 70 4672 109 
C 4755 -77 4774 -160 4794 -378 
C 4966 -384 5056 -390 5190 -390 
C 5498 -390 5600 -371 5690 -301 
C 5779 -224 5818 -109 5818 96 
L 5818 2970 
C 5818 3277 5824 3450 5843 3597 
C 5709 3578 5517 3571 5248 3571 
L 4320 3571 
L 4320 4160 
L 5434 4160 
C 5683 4160 5862 4154 6010 4134 
L 6010 4634 
C 5843 4608 5664 4595 5440 4595 
L 4320 4595 
L 4320 4774 
C 4320 5024 4326 5171 4358 5350 
L 3834 5350 
C 3859 5171 3872 5011 3872 4781 
L 3872 4595 
L 2848 4595 
C 2598 4595 2445 4608 2298 4627 
L 2298 4134 
C 2464 4154 2611 4160 2816 4160 
L 3872 4160 
L 3872 3571 
L 3091 3571 
C 2829 3571 2643 3578 2477 3597 
C 2490 3450 2496 3328 2496 2982 
L 2496 154 
C 2496 -128 2483 -320 2458 -512 
L 2970 -512 
C 2950 -365 2944 -166 2944 160 
L 2944 960 
z
M 2944 1363 
L 2944 2080 
L 3872 2080 
L 3872 1363 
L 2944 1363 
z
M 2944 2477 
L 2944 3168 
L 3872 3168 
L 3872 2477 
L 2944 2477 
z
M 4320 1363 
L 4320 2080 
L 5370 2080 
L 5370 1363 
L 4320 1363 
z
M 4320 2477 
L 4320 3168 
L 5370 3168 
L 5370 2477 
L 4320 2477 
z
M 4582 5133 
C 4883 4979 5075 4845 5350 4614 
L 5664 4896 
C 5344 5146 5299 5171 4890 5395 
L 4582 5133 
z
" transform="scale(0.015625)"/>
      <path id="HiraginoSans-W4-96c6" d="M 3526 2778 
L 4864 2778 
C 5165 2778 5299 2771 5453 2746 
L 5453 3174 
C 5254 3149 5146 3142 4864 3142 
L 3526 3142 
L 3526 3565 
L 4864 3565 
C 5165 3565 5280 3558 5453 3533 
L 5453 3962 
C 5261 3936 5139 3930 4864 3930 
L 3526 3930 
L 3526 4352 
L 5190 4352 
C 5446 4352 5574 4346 5734 4326 
L 5734 4774 
C 5555 4749 5421 4742 5139 4742 
L 3584 4742 
C 3693 4890 3802 5056 3962 5338 
L 3450 5434 
C 3373 5184 3277 5005 3085 4742 
L 1766 4742 
C 1837 4832 1971 5030 2176 5338 
L 1645 5446 
C 1600 5306 1523 5158 1427 5005 
C 1094 4486 723 4109 205 3744 
C 339 3597 384 3539 486 3341 
C 781 3571 941 3725 1158 3974 
C 1139 3789 1133 3584 1133 3366 
L 1133 2374 
C 1133 2195 1126 2042 1114 1920 
C 1242 1933 1338 1933 1581 1933 
L 2950 1933 
L 2950 1498 
L 1069 1498 
C 704 1498 531 1504 365 1536 
L 365 1050 
C 576 1075 774 1088 1069 1088 
L 2554 1088 
C 2330 890 2093 730 1766 563 
C 1299 326 877 192 262 83 
C 403 -77 467 -186 550 -378 
C 1005 -262 1389 -122 1741 45 
C 2253 294 2598 531 2970 915 
C 2957 819 2950 557 2950 448 
L 2950 -19 
C 2950 -237 2938 -346 2912 -486 
L 3456 -486 
C 3424 -365 3418 -275 3418 -13 
L 3418 448 
C 3418 576 3411 678 3398 922 
C 3789 544 4051 358 4486 128 
C 4915 -96 5286 -243 5843 -403 
C 5946 -179 5990 -109 6125 64 
C 5197 250 4384 608 3802 1088 
L 5325 1088 
C 5626 1088 5830 1075 6048 1050 
L 6048 1536 
C 5875 1504 5696 1498 5325 1498 
L 3418 1498 
L 3418 1933 
L 5165 1933 
C 5453 1933 5581 1926 5760 1901 
L 5760 2336 
C 5587 2310 5446 2304 5165 2304 
L 3526 2304 
L 3526 2778 
z
M 3078 2778 
L 3078 2304 
L 1600 2304 
L 1600 2778 
L 3078 2778 
z
M 3078 3142 
L 1600 3142 
L 1600 3565 
L 3078 3565 
L 3078 3142 
z
M 3078 3930 
L 1600 3930 
L 1600 4352 
L 3078 4352 
L 3078 3930 
z
" transform="scale(0.015625)"/>
      <path id="HiraginoSans-W4-5408" d="M 1677 2899 
C 1824 2918 1990 2925 2189 2925 
L 4186 2925 
C 4429 2925 4595 2918 4736 2899 
L 4736 3411 
C 5178 3104 5498 2918 5958 2701 
C 6042 2899 6112 3014 6234 3187 
C 5626 3424 5056 3750 4518 4186 
C 4019 4582 3731 4890 3456 5318 
L 2893 5318 
C 2630 4883 2381 4595 1926 4211 
C 1402 3763 832 3424 198 3162 
C 358 2989 422 2893 493 2720 
C 966 2938 1203 3078 1677 3398 
L 1677 2899 
z
M 2195 3386 
C 1971 3386 1811 3392 1690 3411 
C 2355 3878 2733 4256 3187 4890 
C 3597 4320 4032 3898 4730 3411 
C 4595 3392 4435 3386 4186 3386 
L 2195 3386 
z
M 1690 -435 
L 1690 -77 
L 4698 -77 
L 4698 -435 
L 5242 -435 
C 5216 -243 5203 -58 5203 205 
L 5203 1645 
C 5203 1901 5210 2067 5235 2240 
C 5101 2221 4960 2214 4723 2214 
L 1664 2214 
C 1427 2214 1286 2221 1152 2240 
C 1178 2061 1184 1888 1184 1645 
L 1184 205 
C 1184 -51 1171 -230 1146 -435 
L 1690 -435 
z
M 1690 1766 
L 4698 1766 
L 4698 371 
L 1690 371 
L 1690 1766 
z
" transform="scale(0.015625)"/>
     </defs>
     <use xlink:href="#HiraginoSans-W4-88dc"/>
     <use xlink:href="#HiraginoSans-W4-96c6" transform="translate(99.999985 0)"/>
     <use xlink:href="#HiraginoSans-W4-5408" transform="translate(199.999969 0)"/>
    </g>
   </g>
   <g id="text_5">
    <g id="patch_5">
     <path d="M 223.885 299.989187 
L 348.515 299.989187 
Q 352.915 299.989187 352.915 295.589187 
L 352.915 284.853875 
Q 352.915 280.453875 348.515 280.453875 
L 223.885 280.453875 
Q 219.485 280.453875 219.485 284.853875 
L 219.485 295.589187 
Q 219.485 299.989187 223.885 299.989187 
z
" style="fill: #fff2cc; stroke: #c9a800; stroke-linejoin: miter"/>
    </g>
    <!-- 開集合の補集合 = 閉集合 -->
    <g transform="translate(223.885 293.334187) scale(0.11 -0.11)">
     <defs>
      <path id="HiraginoSans-W4-958b" d="M 2342 2349 
C 2342 2022 2336 1920 2317 1613 
L 2118 1613 
C 1811 1613 1651 1619 1485 1645 
L 1485 1197 
C 1658 1222 1818 1229 2118 1229 
L 2285 1229 
C 2208 659 2016 339 1510 -38 
C 1677 -134 1766 -211 1888 -352 
C 2426 115 2630 512 2714 1229 
L 3610 1229 
L 3610 256 
C 3610 -13 3603 -160 3578 -294 
L 4077 -294 
C 4051 -173 4045 -32 4045 250 
L 4045 1229 
L 4301 1229 
C 4589 1229 4755 1222 4928 1197 
L 4928 1645 
C 4762 1619 4602 1613 4301 1613 
L 4045 1613 
L 4045 2349 
L 4218 2349 
C 4493 2349 4672 2342 4832 2323 
L 4832 2758 
C 4646 2733 4506 2726 4205 2726 
L 2227 2726 
C 1926 2726 1792 2733 1606 2758 
L 1606 2323 
C 1766 2342 1946 2349 2221 2349 
L 2342 2349 
z
M 3610 2349 
L 3610 1613 
L 2752 1613 
C 2771 1933 2771 1990 2771 2349 
L 3610 2349 
z
M 1062 3174 
L 2278 3174 
C 2554 3174 2726 3168 2912 3155 
C 2899 3322 2893 3475 2893 3744 
L 2893 4582 
C 2893 4826 2899 5005 2912 5190 
C 2733 5171 2579 5165 2259 5165 
L 1229 5165 
C 902 5165 736 5171 563 5190 
C 582 4986 589 4800 589 4480 
L 589 275 
C 589 -90 576 -288 550 -467 
L 1101 -467 
C 1075 -301 1062 -90 1062 269 
L 1062 3174 
z
M 1062 4800 
L 2451 4800 
L 2451 4358 
L 1062 4358 
L 1062 4800 
z
M 1062 4000 
L 2451 4000 
L 2451 3539 
L 1062 3539 
L 1062 4000 
z
M 5830 4480 
C 5830 4774 5837 4960 5862 5190 
C 5683 5171 5523 5165 5190 5165 
L 4090 5165 
C 3763 5165 3610 5171 3437 5190 
C 3450 4986 3456 4813 3456 4582 
L 3456 3744 
C 3456 3482 3450 3322 3437 3155 
C 3616 3168 3814 3174 4070 3174 
L 5357 3174 
L 5357 250 
C 5357 102 5312 70 5126 70 
C 4954 70 4672 96 4435 134 
C 4518 -45 4544 -154 4570 -352 
C 4851 -365 5011 -371 5152 -371 
C 5677 -371 5830 -243 5830 211 
L 5830 4480 
z
M 3898 4800 
L 5357 4800 
L 5357 4358 
L 3898 4358 
L 3898 4800 
z
M 3898 4000 
L 5357 4000 
L 5357 3539 
L 3898 3539 
L 3898 4000 
z
" transform="scale(0.015625)"/>
      <path id="HiraginoSans-W4-306e" d="M 3053 422 
C 3200 243 3245 160 3328 -96 
C 3821 6 4090 90 4397 237 
C 5293 666 5798 1459 5798 2451 
C 5798 3802 4832 4698 3379 4698 
C 2509 4698 1792 4403 1274 3834 
C 832 3347 589 2707 589 2042 
C 589 1107 1062 422 1709 422 
C 2189 422 2573 806 2938 1645 
C 3238 2323 3469 3264 3578 4205 
C 3891 4186 4070 4141 4294 4032 
C 4902 3738 5242 3174 5242 2477 
C 5242 1734 4870 1107 4230 768 
C 3917 602 3610 512 3053 422 
z
M 3027 4192 
C 2944 3398 2714 2483 2458 1888 
C 2195 1286 1952 992 1702 992 
C 1370 992 1114 1453 1114 2035 
C 1114 2797 1491 3501 2112 3891 
C 2394 4077 2656 4160 3027 4192 
z
" transform="scale(0.015625)"/>
      <path id="HiraginoSans-W4-9589" d="M 3162 2016 
C 2746 1434 2144 966 1331 570 
C 1485 416 1549 339 1638 186 
C 2445 634 3066 1184 3507 1837 
L 3526 410 
C 3526 250 3475 205 3277 205 
C 3066 205 2861 230 2618 282 
C 2688 83 2714 -6 2733 -198 
C 2957 -218 3117 -224 3270 -224 
C 3814 -224 3968 -109 3962 320 
L 3942 2016 
L 4307 2016 
C 4525 2016 4698 2010 4890 1984 
L 4890 2451 
C 4710 2426 4544 2419 4288 2419 
L 3942 2419 
L 3942 2470 
C 3942 2483 3942 2502 3942 2522 
C 3942 2682 3949 2797 3968 2918 
L 3462 2918 
C 3488 2765 3501 2675 3501 2470 
L 3501 2419 
L 2112 2419 
C 1856 2419 1683 2426 1504 2451 
L 1504 1984 
C 1696 2010 1862 2016 2093 2016 
L 3162 2016 
z
M 1062 3130 
L 2246 3130 
C 2509 3130 2707 3123 2880 3110 
C 2867 3283 2861 3418 2861 3693 
L 2861 4544 
C 2861 4806 2867 4973 2880 5152 
C 2701 5133 2547 5126 2227 5126 
L 1229 5126 
C 909 5126 742 5133 563 5152 
C 582 4947 589 4762 589 4442 
L 589 269 
C 589 -96 576 -294 550 -474 
L 1101 -474 
C 1075 -307 1062 -102 1062 262 
L 1062 3130 
z
M 1062 4755 
L 2419 4755 
L 2419 4307 
L 1062 4307 
L 1062 4755 
z
M 1062 3949 
L 2419 3949 
L 2419 3488 
L 1062 3488 
L 1062 3949 
z
M 5824 4442 
C 5824 4742 5830 4915 5856 5152 
C 5670 5133 5510 5126 5184 5126 
L 4128 5126 
C 3808 5126 3654 5133 3475 5152 
C 3488 4947 3494 4774 3494 4544 
L 3494 3693 
C 3494 3443 3488 3334 3475 3110 
C 3610 3123 3853 3130 4109 3130 
L 5350 3130 
L 5350 243 
C 5350 90 5306 64 5056 64 
C 4922 64 4736 83 4435 122 
C 4512 -51 4538 -160 4570 -365 
C 4768 -384 4928 -390 5101 -390 
C 5690 -390 5824 -282 5824 186 
L 5824 4442 
z
M 3936 4755 
L 5350 4755 
L 5350 4307 
L 3936 4307 
L 3936 4755 
z
M 3936 3949 
L 5350 3949 
L 5350 3488 
L 3936 3488 
L 3936 3949 
z
" transform="scale(0.015625)"/>
     </defs>
     <use xlink:href="#HiraginoSans-W4-958b"/>
     <use xlink:href="#HiraginoSans-W4-96c6" transform="translate(99.999985 0)"/>
     <use xlink:href="#HiraginoSans-W4-5408" transform="translate(199.999969 0)"/>
     <use xlink:href="#HiraginoSans-W4-306e" transform="translate(299.999954 0)"/>
     <use xlink:href="#HiraginoSans-W4-88dc" transform="translate(399.999939 0)"/>
     <use xlink:href="#HiraginoSans-W4-96c6" transform="translate(499.999924 0)"/>
     <use xlink:href="#HiraginoSans-W4-5408" transform="translate(599.999908 0)"/>
     <use xlink:href="#HiraginoSans-W4-20" transform="translate(699.999893 0)"/>
     <use xlink:href="#HiraginoSans-W4-3d" transform="translate(733.299881 0)"/>
     <use xlink:href="#HiraginoSans-W4-20" transform="translate(799.699875 0)"/>
     <use xlink:href="#HiraginoSans-W4-9589" transform="translate(832.999863 0)"/>
     <use xlink:href="#HiraginoSans-W4-96c6" transform="translate(932.999847 0)"/>
     <use xlink:href="#HiraginoSans-W4-5408" transform="translate(1032.999832 0)"/>
    </g>
   </g>
   <g id="text_6">
    <!-- 開集合と閉集合の関係 -->
    <g transform="translate(221.2 17.222187) scale(0.13 -0.13)">
     <defs>
      <path id="HiraginoSans-W4-3068" d="M 1971 5056 
C 2010 4954 2016 4922 2074 4646 
C 2227 3885 2355 3392 2528 2874 
C 2131 2675 1926 2547 1683 2342 
C 1318 2042 1114 1651 1114 1261 
C 1114 826 1306 467 1651 269 
C 2035 51 2541 -38 3366 -38 
C 3834 -38 4160 -19 4826 51 
C 5178 90 5178 90 5312 90 
L 5254 723 
C 4845 582 4109 493 3373 493 
C 2938 493 2522 531 2304 589 
C 1894 698 1690 915 1690 1248 
C 1690 1498 1811 1741 2022 1933 
C 2298 2170 2707 2400 3206 2592 
C 3923 2867 4710 3117 5190 3219 
L 4973 3795 
C 4858 3731 4832 3725 4550 3622 
C 3424 3238 3424 3238 3034 3078 
C 2816 3725 2592 4723 2566 5165 
L 1971 5056 
z
" transform="scale(0.015625)"/>
      <path id="HiraginoSans-W4-95a2" d="M 4365 1216 
C 4614 1216 4774 1210 4922 1184 
L 4922 1619 
C 4762 1594 4634 1587 4365 1587 
L 3322 1587 
C 3347 1766 3354 1862 3366 2112 
L 4275 2112 
C 4499 2112 4666 2106 4794 2086 
L 4794 2509 
C 4640 2483 4512 2477 4269 2477 
L 3949 2477 
C 4083 2669 4166 2803 4282 3014 
L 3853 3130 
C 3725 2848 3654 2714 3494 2477 
L 2874 2477 
C 2758 2694 2637 2874 2458 3123 
L 2054 2982 
C 2234 2771 2317 2650 2419 2477 
L 2125 2477 
C 1875 2477 1760 2483 1606 2509 
L 1606 2086 
C 1747 2106 1894 2112 2131 2112 
L 2925 2112 
C 2918 1862 2912 1773 2893 1587 
L 2022 1587 
C 1754 1587 1613 1594 1466 1619 
L 1466 1184 
C 1638 1210 1792 1216 2042 1216 
L 2803 1216 
C 2682 909 2541 723 2272 544 
C 2042 384 1811 294 1357 166 
C 1472 45 1542 -64 1632 -230 
C 2125 -58 2387 77 2650 294 
C 2886 486 3034 691 3155 973 
C 3494 499 3910 186 4499 -32 
C 4570 147 4614 230 4723 390 
C 4115 563 3750 800 3430 1216 
L 4365 1216 
z
M 1056 3245 
L 2253 3245 
C 2515 3245 2714 3238 2886 3226 
C 2874 3379 2867 3539 2867 3814 
L 2867 4576 
C 2867 4826 2874 5011 2886 5178 
C 2707 5158 2554 5152 2234 5152 
L 1222 5152 
C 902 5152 736 5158 557 5178 
C 576 4973 582 4794 582 4474 
L 582 269 
C 582 -90 570 -288 544 -467 
L 1094 -467 
C 1069 -307 1056 -96 1056 262 
L 1056 3245 
z
M 1056 4800 
L 2426 4800 
L 2426 4384 
L 1056 4384 
L 1056 4800 
z
M 1056 4038 
L 2426 4038 
L 2426 3603 
L 1056 3603 
L 1056 4038 
z
M 5830 4474 
C 5830 4762 5837 4928 5862 5178 
C 5677 5158 5517 5152 5190 5152 
L 4064 5152 
C 3744 5152 3590 5158 3411 5178 
C 3424 4973 3430 4806 3430 4576 
L 3430 3814 
C 3430 3565 3424 3405 3411 3226 
C 3590 3238 3770 3245 4045 3245 
L 5357 3245 
L 5357 205 
C 5357 64 5312 26 5126 26 
C 4928 26 4838 32 4550 77 
C 4621 -83 4640 -173 4659 -397 
C 4806 -403 4928 -410 5011 -410 
C 5357 -410 5510 -397 5606 -352 
C 5779 -275 5830 -147 5830 166 
L 5830 4474 
z
M 3872 4800 
L 5357 4800 
L 5357 4384 
L 3872 4384 
L 3872 4800 
z
M 3872 4038 
L 5357 4038 
L 5357 3603 
L 3872 3603 
L 3872 4038 
z
" transform="scale(0.015625)"/>
      <path id="HiraginoSans-W4-4fc2" d="M 1792 1805 
C 1914 1824 1914 1824 2669 1843 
L 3584 1882 
L 3584 166 
C 3584 -134 3571 -314 3546 -512 
L 4102 -512 
C 4077 -314 4064 -134 4064 173 
L 4064 1907 
C 4883 1952 4883 1952 5459 2010 
C 5542 1856 5581 1779 5696 1555 
L 6118 1792 
C 5715 2451 5517 2720 5075 3213 
L 4704 3021 
C 4966 2707 5069 2586 5210 2387 
C 4666 2336 4358 2323 3526 2298 
C 3923 2624 4563 3258 4909 3680 
C 5203 4045 5203 4045 5248 4083 
L 4768 4339 
C 4614 4019 4198 3514 3686 3014 
C 3475 3194 3392 3258 3149 3430 
C 3462 3738 3686 4000 4051 4493 
C 4538 4557 5146 4672 5459 4749 
C 5664 4800 5696 4813 5811 4838 
L 5523 5267 
C 5120 5030 3341 4768 2010 4742 
C 2118 4512 2118 4512 2170 4301 
C 2662 4326 2867 4346 3398 4410 
C 3213 4115 3072 3949 2790 3680 
C 2643 3782 2560 3834 2323 3974 
L 2042 3629 
C 2586 3309 2963 3040 3354 2701 
C 3130 2496 3085 2458 2854 2278 
C 2464 2272 2426 2272 2291 2272 
C 2022 2272 1888 2278 1741 2298 
L 1792 1805 
z
M 934 269 
C 934 -83 922 -269 896 -512 
L 1434 -512 
C 1414 -301 1408 -90 1408 275 
L 1408 3789 
C 1600 4211 1747 4595 1856 4928 
C 1914 5107 1920 5120 1971 5248 
L 1440 5382 
C 1414 5165 1325 4845 1197 4486 
C 934 3789 582 3194 166 2733 
C 237 2630 378 2374 422 2253 
C 659 2541 787 2733 954 3072 
C 941 2682 934 2432 934 2163 
L 934 269 
z
M 2650 1619 
C 2515 1235 2426 1056 2253 774 
C 2086 518 1965 378 1696 122 
C 1837 45 1850 32 2029 -109 
C 2042 -122 2074 -147 2106 -173 
C 2592 371 2778 678 3091 1427 
L 2650 1619 
z
M 4602 1434 
C 4979 691 5203 358 5690 -173 
C 5914 6 6048 109 6093 141 
C 5837 378 5734 493 5562 723 
C 5331 1030 5216 1222 5018 1645 
L 4602 1434 
z
" transform="scale(0.015625)"/>
     </defs>
     <use xlink:href="#HiraginoSans-W4-958b"/>
     <use xlink:href="#HiraginoSans-W4-96c6" transform="translate(99.999985 0)"/>
     <use xlink:href="#HiraginoSans-W4-5408" transform="translate(199.999969 0)"/>
     <use xlink:href="#HiraginoSans-W4-3068" transform="translate(299.999954 0)"/>
     <use xlink:href="#HiraginoSans-W4-9589" transform="translate(399.999939 0)"/>
     <use xlink:href="#HiraginoSans-W4-96c6" transform="translate(499.999924 0)"/>
     <use xlink:href="#HiraginoSans-W4-5408" transform="translate(599.999908 0)"/>
     <use xlink:href="#HiraginoSans-W4-306e" transform="translate(699.999893 0)"/>
     <use xlink:href="#HiraginoSans-W4-95a2" transform="translate(799.999878 0)"/>
     <use xlink:href="#HiraginoSans-W4-4fc2" transform="translate(899.999863 0)"/>
    </g>
   </g>
  </g>
 </g>
 <defs>
  <clipPath id="p6da820b100">
   <rect x="7.2" y="27.222187" width="558" height="277.2"/>
  </clipPath>
 </defs>
</svg>
