<?xml version="1.0" encoding="utf-8" standalone="no"?>
<!DOCTYPE svg PUBLIC "-//W3C//DTD SVG 1.1//EN"
  "http://www.w3.org/Graphics/SVG/1.1/DTD/svg11.dtd">
<svg xmlns:xlink="http://www.w3.org/1999/xlink" width="853.296051pt" height="440.456932pt" viewBox="0 0 853.296051 440.456932" xmlns="http://www.w3.org/2000/svg" version="1.1">
 <metadata>
  <rdf:RDF xmlns:dc="http://purl.org/dc/elements/1.1/" xmlns:cc="http://creativecommons.org/ns#" xmlns:rdf="http://www.w3.org/1999/02/22-rdf-syntax-ns#">
   <cc:Work>
    <dc:type rdf:resource="http://purl.org/dc/dcmitype/StillImage"/>
    <dc:date>2026-04-02T01:10:16.644604</dc:date>
    <dc:format>image/svg+xml</dc:format>
    <dc:creator>
     <cc:Agent>
      <dc:title>Matplotlib v3.10.8, https://matplotlib.org/</dc:title>
     </cc:Agent>
    </dc:creator>
   </cc:Work>
  </rdf:RDF>
 </metadata>
 <defs>
  <style type="text/css">*{stroke-linejoin: round; stroke-linecap: butt}</style>
 </defs>
 <g id="figure_1">
  <g id="patch_1">
   <path d="M 0 440.456932 
L 853.296051 440.456932 
L 853.296051 0 
L 0 0 
z
" style="fill: #ffffff"/>
  </g>
  <g id="axes_1">
   <g id="patch_2">
    <path d="M 36.8 402.738182 
L 404.476364 402.738182 
L 404.476364 35.061818 
L 36.8 35.061818 
z
" style="fill: #ffffff"/>
   </g>
   <g id="patch_3">
    <path d="M 343.19697 218.9 
L 343.16991 216.324739 
L 343.088745 213.750616 
L 342.953508 211.178767 
L 342.764261 208.610326 
L 342.521086 206.04643 
L 342.224091 203.488209 
L 341.873407 200.936794 
L 341.469189 198.393311 
L 341.011615 195.858883 
L 340.500888 193.334629 
L 339.937233 190.821664 
L 339.320899 188.321098 
L 338.652157 185.834035 
L 337.931305 183.361572 
L 337.158658 180.904803 
L 336.33456 178.464811 
L 335.459374 176.042674 
L 334.533485 173.639461 
L 333.557304 171.256235 
L 332.531261 168.894046 
L 331.455809 166.553939 
L 330.331423 164.236946 
L 329.158599 161.944091 
L 327.937856 159.676386 
L 326.669732 157.434833 
L 325.354788 155.220421 
L 323.993604 153.034128 
L 322.586782 150.876919 
L 321.134941 148.749748 
L 319.638724 146.653553 
L 318.098791 144.58926 
L 316.515822 142.55778 
L 314.890517 140.560011 
L 313.223592 138.596835 
L 311.515784 136.669119 
L 309.767847 134.777713 
L 307.980553 132.923453 
L 306.154691 131.107158 
L 304.291068 129.32963 
L 302.390505 127.591654 
L 300.453843 125.893997 
L 298.481937 124.237408 
L 296.475657 122.62262 
L 294.43589 121.050346 
L 292.363535 119.521279 
L 290.259509 118.036095 
L 288.124739 116.59545 
L 285.96017 115.199979 
L 283.766756 113.850299 
L 281.545466 112.547007 
L 279.297282 111.290677 
L 277.023195 110.081864 
L 274.72421 108.921102 
L 272.401343 107.808904 
L 270.055618 106.74576 
L 267.688072 105.732141 
L 265.29975 104.768493 
L 262.891706 103.855243 
L 260.465005 102.992793 
L 258.020717 102.181524 
L 255.559923 101.421796 
L 253.083707 100.713942 
L 250.593165 100.058276 
L 248.089395 99.455087 
L 245.573504 98.904641 
L 243.046602 98.407182 
L 240.509805 97.962929 
L 237.964234 97.572079 
L 235.411011 97.234804 
L 232.851266 96.951252 
L 230.286127 96.72155 
L 227.716728 96.545798 
L 225.144204 96.424075 
L 222.569689 96.356433 
L 219.994322 96.342903 
L 217.419239 96.383491 
L 214.845578 96.478179 
L 212.274474 96.626925 
L 209.707064 96.829663 
L 207.14448 97.086304 
L 204.587855 97.396735 
L 202.038318 97.760818 
L 199.496993 98.178392 
L 196.965004 98.649274 
L 194.443468 99.173255 
L 191.933499 99.750104 
L 189.436205 100.379567 
L 186.952689 101.061364 
L 184.484048 101.795196 
L 182.031371 102.580738 
L 179.595742 103.417644 
L 177.178237 104.305543 
L 174.779922 105.244043 
L 172.401856 106.232732 
L 170.045091 107.27117 
L 167.710666 108.358901 
L 165.399612 109.495444 
L 163.11295 110.680297 
L 160.851689 111.912936 
L 158.616829 113.192818 
L 156.409355 114.519378 
L 154.230243 115.892028 
L 152.080455 117.310165 
L 149.960941 118.77316 
L 147.872635 120.280369 
L 145.81646 121.831125 
L 143.793325 123.424744 
L 141.804122 125.060523 
L 139.84973 126.737738 
L 137.931012 128.45565 
L 136.048815 130.213499 
L 134.20397 132.010509 
L 132.397293 133.845888 
L 130.62958 135.718824 
L 128.901612 137.628491 
L 127.214152 139.574045 
L 125.567946 141.554626 
L 123.963721 143.569362 
L 122.402184 145.617361 
L 120.884025 147.69772 
L 119.409915 149.80952 
L 117.980504 151.951828 
L 116.596424 154.123699 
L 115.258286 156.324173 
L 113.966681 158.552279 
L 112.722179 160.807032 
L 111.52533 163.087438 
L 110.376662 165.392489 
L 109.276682 167.721168 
L 108.225876 170.072445 
L 107.224709 172.445284 
L 106.273622 174.838635 
L 105.373034 177.251443 
L 104.523345 179.682642 
L 103.724929 182.131158 
L 102.978138 184.59591 
L 102.283303 187.07581 
L 101.64073 189.569762 
L 101.050702 192.076666 
L 100.513482 194.595414 
L 100.029305 197.124895 
L 99.598385 199.663991 
L 99.220913 202.211581 
L 98.897056 204.76654 
L 98.626956 207.327739 
L 98.410733 209.894049 
L 98.248482 212.464336 
L 98.140274 215.037465 
L 98.086159 217.612299 
L 98.086159 220.187701 
L 98.140274 222.762535 
L 98.248482 225.335664 
L 98.410733 227.905951 
L 98.626956 230.472261 
L 98.897056 233.03346 
L 99.220913 235.588419 
L 99.598385 238.136009 
L 100.029305 240.675105 
L 100.513482 243.204586 
L 101.050702 245.723334 
L 101.64073 248.230238 
L 102.283303 250.72419 
L 102.978138 253.20409 
L 103.724929 255.668842 
L 104.523345 258.117358 
L 105.373034 260.548557 
L 106.273622 262.961365 
L 107.224709 265.354716 
L 108.225876 267.727555 
L 109.276682 270.078832 
L 110.376662 272.407511 
L 111.52533 274.712562 
L 112.722179 276.992968 
L 113.966681 279.247721 
L 115.258286 281.475827 
L 116.596424 283.676301 
L 117.980504 285.848172 
L 119.409915 287.99048 
L 120.884025 290.10228 
L 122.402184 292.182639 
L 123.963721 294.230638 
L 125.567946 296.245374 
L 127.214152 298.225955 
L 128.901612 300.171509 
L 130.62958 302.081176 
L 132.397293 303.954112 
L 134.20397 305.789491 
L 136.048815 307.586501 
L 137.931012 309.34435 
L 139.84973 311.062262 
L 141.804122 312.739477 
L 143.793325 314.375256 
L 145.81646 315.968875 
L 147.872635 317.519631 
L 149.960941 319.02684 
L 152.080455 320.489835 
L 154.230243 321.907972 
L 156.409355 323.280622 
L 158.616829 324.607182 
L 160.851689 325.887064 
L 163.11295 327.119703 
L 165.399612 328.304556 
L 167.710666 329.441099 
L 170.045091 330.52883 
L 172.401856 331.567268 
L 174.779922 332.555957 
L 177.178237 333.494457 
L 179.595742 334.382356 
L 182.031371 335.219262 
L 184.484048 336.004804 
L 186.952689 336.738636 
L 189.436205 337.420433 
L 191.933499 338.049896 
L 194.443468 338.626745 
L 196.965004 339.150726 
L 199.496993 339.621608 
L 202.038318 340.039182 
L 204.587855 340.403265 
L 207.14448 340.713696 
L 209.707064 340.970337 
L 212.274474 341.173075 
L 214.845578 341.321821 
L 217.419239 341.416509 
L 219.994322 341.457097 
L 222.569689 341.443567 
L 225.144204 341.375925 
L 227.716728 341.254202 
L 230.286127 341.07845 
L 232.851266 340.848748 
L 235.411011 340.565196 
L 237.964234 340.227921 
L 240.509805 339.837071 
L 243.046602 339.392818 
L 245.573504 338.895359 
L 248.089395 338.344913 
L 250.593165 337.741724 
L 253.083707 337.086058 
L 255.559923 336.378204 
L 258.020717 335.618476 
L 260.465005 334.807207 
L 262.891706 333.944757 
L 265.29975 333.031507 
L 267.688072 332.067859 
L 270.055618 331.05424 
L 272.401343 329.991096 
L 274.72421 328.878898 
L 277.023195 327.718136 
L 279.297282 326.509323 
L 281.545466 325.252993 
L 283.766756 323.949701 
L 285.96017 322.600021 
L 288.124739 321.20455 
L 290.259509 319.763905 
L 292.363535 318.278721 
L 294.43589 316.749654 
L 296.475657 315.17738 
L 298.481937 313.562592 
L 300.453843 311.906003 
L 302.390505 310.208346 
L 304.291068 308.47037 
L 306.154691 306.692842 
L 307.980553 304.876547 
L 309.767847 303.022287 
L 311.515784 301.130881 
L 313.223592 299.203165 
L 314.890517 297.239989 
L 316.515822 295.24222 
L 318.098791 293.21074 
L 319.638724 291.146447 
L 321.134941 289.050252 
L 322.586782 286.923081 
L 323.993604 284.765872 
L 325.354788 282.579579 
L 326.669732 280.365167 
L 327.937856 278.123614 
L 329.158599 275.855909 
L 330.331423 273.563054 
L 331.455809 271.246061 
L 332.531261 268.905954 
L 333.557304 266.543765 
L 334.533485 264.160539 
L 335.459374 261.757326 
L 336.33456 259.335189 
L 337.158658 256.895197 
L 337.931305 254.438428 
L 338.652157 251.965965 
L 339.320899 249.478902 
L 339.937233 246.978336 
L 340.500888 244.465371 
L 341.011615 241.941117 
L 341.469189 239.406689 
L 341.873407 236.863206 
L 342.224091 234.311791 
L 342.521086 231.75357 
L 342.764261 229.189674 
L 342.953508 226.621233 
L 343.088745 224.049384 
L 343.16991 221.475261 
L 343.19697 218.9 
z
" clip-path="url(#p015f44022c)" style="fill: #bdd7ee; opacity: 0.6; stroke: #bdd7ee; stroke-linejoin: miter"/>
   </g>
   <g id="matplotlib.axis_1">
    <g id="xtick_1">
     <g id="line2d_1">
      <defs>
       <path id="md3cb1ee5da" d="M 0 0 
L 0 3.5 
" style="stroke: #000000; stroke-width: 0.8"/>
      </defs>
      <g>
       <use xlink:href="#md3cb1ee5da" x="36.8" y="402.738182" style="stroke: #000000; stroke-width: 0.8"/>
      </g>
     </g>
     <g id="text_1">
      <!-- −1.5 -->
      <g transform="translate(25.5 417.447557) scale(0.1 -0.1)">
       <defs>
        <path id="HiraginoSans-W4-2212" d="M 320 1498 
L 3930 1498 
L 3930 2022 
L 320 2022 
L 320 1498 
z
" transform="scale(0.015625)"/>
        <path id="HiraginoSans-W4-31" d="M 1018 4371 
C 1222 4397 1389 4410 1606 4410 
L 1939 4410 
L 1939 755 
C 1939 454 1926 237 1888 0 
L 2598 0 
C 2560 250 2547 448 2547 755 
L 2547 3904 
C 2547 4256 2566 4582 2605 4966 
C 2387 4941 2278 4934 2035 4934 
L 1581 4934 
C 1325 4934 1197 4941 1018 4966 
L 1018 4371 
z
" transform="scale(0.015625)"/>
        <path id="HiraginoSans-W4-2e" d="M 442 723 
L 442 0 
L 1165 0 
L 1165 723 
L 442 723 
z
" transform="scale(0.015625)"/>
        <path id="HiraginoSans-W4-35" d="M 1331 4416 
L 2835 4416 
C 3155 4416 3366 4403 3622 4365 
L 3622 4986 
C 3360 4947 3206 4934 2829 4934 
L 1446 4934 
C 1082 4934 954 4941 762 4966 
C 774 4768 774 4762 774 4742 
C 774 4563 774 4518 749 4307 
L 608 2822 
C 589 2566 570 2445 518 2157 
L 1088 2106 
C 1146 2240 1178 2291 1261 2374 
C 1485 2605 1811 2739 2131 2739 
C 2842 2739 3264 2317 3264 1613 
C 3264 902 2803 435 2106 435 
C 1747 435 1440 563 1235 794 
C 1146 902 1101 986 1037 1171 
L 410 1005 
C 557 685 646 544 813 378 
C 1133 64 1562 -96 2099 -96 
C 3194 -96 3885 576 3885 1638 
C 3885 2605 3245 3238 2272 3238 
C 1830 3238 1472 3098 1158 2803 
C 1197 2982 1197 2982 1203 3091 
L 1331 4416 
z
" transform="scale(0.015625)"/>
       </defs>
       <use xlink:href="#HiraginoSans-W4-2212"/>
       <use xlink:href="#HiraginoSans-W4-31" transform="translate(66.399994 0)"/>
       <use xlink:href="#HiraginoSans-W4-2e" transform="translate(133.699982 0)"/>
       <use xlink:href="#HiraginoSans-W4-35" transform="translate(158.699966 0)"/>
      </g>
     </g>
    </g>
    <g id="xtick_2">
     <g id="line2d_2">
      <g>
       <use xlink:href="#md3cb1ee5da" x="98.079394" y="402.738182" style="stroke: #000000; stroke-width: 0.8"/>
      </g>
     </g>
     <g id="text_2">
      <!-- −1.0 -->
      <g transform="translate(86.779394 417.447557) scale(0.1 -0.1)">
       <defs>
        <path id="HiraginoSans-W4-30" d="M 2144 -90 
C 2758 -90 3232 141 3565 602 
C 3846 998 4019 1696 4019 2464 
C 4019 3002 3936 3501 3770 3949 
C 3693 4160 3558 4371 3379 4550 
C 3078 4858 2650 5024 2157 5024 
C 1498 5024 986 4742 666 4205 
C 435 3834 288 3142 288 2458 
C 288 1939 371 1434 538 986 
C 614 768 749 563 928 384 
C 1242 70 1651 -90 2144 -90 
z
M 2144 4499 
C 2592 4499 2918 4307 3123 3923 
C 3283 3629 3398 3014 3398 2470 
C 3398 2022 3341 1619 3213 1235 
C 3155 1043 3046 870 2912 730 
C 2726 538 2458 435 2150 435 
C 1734 435 1414 614 1197 973 
C 1024 1261 902 1875 902 2451 
C 902 2906 966 3328 1088 3699 
C 1139 3866 1235 4026 1370 4173 
C 1568 4397 1818 4499 2144 4499 
z
" transform="scale(0.015625)"/>
       </defs>
       <use xlink:href="#HiraginoSans-W4-2212"/>
       <use xlink:href="#HiraginoSans-W4-31" transform="translate(66.399994 0)"/>
       <use xlink:href="#HiraginoSans-W4-2e" transform="translate(133.699982 0)"/>
       <use xlink:href="#HiraginoSans-W4-30" transform="translate(158.699966 0)"/>
      </g>
     </g>
    </g>
    <g id="xtick_3">
     <g id="line2d_3">
      <g>
       <use xlink:href="#md3cb1ee5da" x="159.358788" y="402.738182" style="stroke: #000000; stroke-width: 0.8"/>
      </g>
     </g>
     <g id="text_3">
      <!-- −0.5 -->
      <g transform="translate(148.058788 417.447557) scale(0.1 -0.1)">
       <use xlink:href="#HiraginoSans-W4-2212"/>
       <use xlink:href="#HiraginoSans-W4-30" transform="translate(66.399994 0)"/>
       <use xlink:href="#HiraginoSans-W4-2e" transform="translate(133.699982 0)"/>
       <use xlink:href="#HiraginoSans-W4-35" transform="translate(158.699966 0)"/>
      </g>
     </g>
    </g>
    <g id="xtick_4">
     <g id="line2d_4">
      <g>
       <use xlink:href="#md3cb1ee5da" x="220.638182" y="402.738182" style="stroke: #000000; stroke-width: 0.8"/>
      </g>
     </g>
     <g id="text_4">
      <!-- 0.0 -->
      <g transform="translate(212.658494 417.447557) scale(0.1 -0.1)">
       <use xlink:href="#HiraginoSans-W4-30"/>
       <use xlink:href="#HiraginoSans-W4-2e" transform="translate(67.299988 0)"/>
       <use xlink:href="#HiraginoSans-W4-30" transform="translate(92.299973 0)"/>
      </g>
     </g>
    </g>
    <g id="xtick_5">
     <g id="line2d_5">
      <g>
       <use xlink:href="#md3cb1ee5da" x="281.917576" y="402.738182" style="stroke: #000000; stroke-width: 0.8"/>
      </g>
     </g>
     <g id="text_5">
      <!-- 0.5 -->
      <g transform="translate(273.937888 417.447557) scale(0.1 -0.1)">
       <use xlink:href="#HiraginoSans-W4-30"/>
       <use xlink:href="#HiraginoSans-W4-2e" transform="translate(67.299988 0)"/>
       <use xlink:href="#HiraginoSans-W4-35" transform="translate(92.299973 0)"/>
      </g>
     </g>
    </g>
    <g id="xtick_6">
     <g id="line2d_6">
      <g>
       <use xlink:href="#md3cb1ee5da" x="343.19697" y="402.738182" style="stroke: #000000; stroke-width: 0.8"/>
      </g>
     </g>
     <g id="text_6">
      <!-- 1.0 -->
      <g transform="translate(335.217282 417.447557) scale(0.1 -0.1)">
       <use xlink:href="#HiraginoSans-W4-31"/>
       <use xlink:href="#HiraginoSans-W4-2e" transform="translate(67.299988 0)"/>
       <use xlink:href="#HiraginoSans-W4-30" transform="translate(92.299973 0)"/>
      </g>
     </g>
    </g>
    <g id="xtick_7">
     <g id="line2d_7">
      <g>
       <use xlink:href="#md3cb1ee5da" x="404.476364" y="402.738182" style="stroke: #000000; stroke-width: 0.8"/>
      </g>
     </g>
     <g id="text_7">
      <!-- 1.5 -->
      <g transform="translate(396.496676 417.447557) scale(0.1 -0.1)">
       <use xlink:href="#HiraginoSans-W4-31"/>
       <use xlink:href="#HiraginoSans-W4-2e" transform="translate(67.299988 0)"/>
       <use xlink:href="#HiraginoSans-W4-35" transform="translate(92.299973 0)"/>
      </g>
     </g>
    </g>
   </g>
   <g id="matplotlib.axis_2">
    <g id="ytick_1">
     <g id="line2d_8">
      <defs>
       <path id="m212f7a6279" d="M 0 0 
L -3.5 0 
" style="stroke: #000000; stroke-width: 0.8"/>
      </defs>
      <g>
       <use xlink:href="#m212f7a6279" x="36.8" y="402.738182" style="stroke: #000000; stroke-width: 0.8"/>
      </g>
     </g>
     <g id="text_8">
      <!-- −1.5 -->
      <g transform="translate(7.2 406.592869) scale(0.1 -0.1)">
       <use xlink:href="#HiraginoSans-W4-2212"/>
       <use xlink:href="#HiraginoSans-W4-31" transform="translate(66.399994 0)"/>
       <use xlink:href="#HiraginoSans-W4-2e" transform="translate(133.699982 0)"/>
       <use xlink:href="#HiraginoSans-W4-35" transform="translate(158.699966 0)"/>
      </g>
     </g>
    </g>
    <g id="ytick_2">
     <g id="line2d_9">
      <g>
       <use xlink:href="#m212f7a6279" x="36.8" y="341.458788" style="stroke: #000000; stroke-width: 0.8"/>
      </g>
     </g>
     <g id="text_9">
      <!-- −1.0 -->
      <g transform="translate(7.2 345.313475) scale(0.1 -0.1)">
       <use xlink:href="#HiraginoSans-W4-2212"/>
       <use xlink:href="#HiraginoSans-W4-31" transform="translate(66.399994 0)"/>
       <use xlink:href="#HiraginoSans-W4-2e" transform="translate(133.699982 0)"/>
       <use xlink:href="#HiraginoSans-W4-30" transform="translate(158.699966 0)"/>
      </g>
     </g>
    </g>
    <g id="ytick_3">
     <g id="line2d_10">
      <g>
       <use xlink:href="#m212f7a6279" x="36.8" y="280.179394" style="stroke: #000000; stroke-width: 0.8"/>
      </g>
     </g>
     <g id="text_10">
      <!-- −0.5 -->
      <g transform="translate(7.2 284.034081) scale(0.1 -0.1)">
       <use xlink:href="#HiraginoSans-W4-2212"/>
       <use xlink:href="#HiraginoSans-W4-30" transform="translate(66.399994 0)"/>
       <use xlink:href="#HiraginoSans-W4-2e" transform="translate(133.699982 0)"/>
       <use xlink:href="#HiraginoSans-W4-35" transform="translate(158.699966 0)"/>
      </g>
     </g>
    </g>
    <g id="ytick_4">
     <g id="line2d_11">
      <g>
       <use xlink:href="#m212f7a6279" x="36.8" y="218.9" style="stroke: #000000; stroke-width: 0.8"/>
      </g>
     </g>
     <g id="text_11">
      <!-- 0.0 -->
      <g transform="translate(13.840625 222.754687) scale(0.1 -0.1)">
       <use xlink:href="#HiraginoSans-W4-30"/>
       <use xlink:href="#HiraginoSans-W4-2e" transform="translate(67.299988 0)"/>
       <use xlink:href="#HiraginoSans-W4-30" transform="translate(92.299973 0)"/>
      </g>
     </g>
    </g>
    <g id="ytick_5">
     <g id="line2d_12">
      <g>
       <use xlink:href="#m212f7a6279" x="36.8" y="157.620606" style="stroke: #000000; stroke-width: 0.8"/>
      </g>
     </g>
     <g id="text_12">
      <!-- 0.5 -->
      <g transform="translate(13.840625 161.475294) scale(0.1 -0.1)">
       <use xlink:href="#HiraginoSans-W4-30"/>
       <use xlink:href="#HiraginoSans-W4-2e" transform="translate(67.299988 0)"/>
       <use xlink:href="#HiraginoSans-W4-35" transform="translate(92.299973 0)"/>
      </g>
     </g>
    </g>
    <g id="ytick_6">
     <g id="line2d_13">
      <g>
       <use xlink:href="#m212f7a6279" x="36.8" y="96.341212" style="stroke: #000000; stroke-width: 0.8"/>
      </g>
     </g>
     <g id="text_13">
      <!-- 1.0 -->
      <g transform="translate(13.840625 100.1959) scale(0.1 -0.1)">
       <use xlink:href="#HiraginoSans-W4-31"/>
       <use xlink:href="#HiraginoSans-W4-2e" transform="translate(67.299988 0)"/>
       <use xlink:href="#HiraginoSans-W4-30" transform="translate(92.299973 0)"/>
      </g>
     </g>
    </g>
    <g id="ytick_7">
     <g id="line2d_14">
      <g>
       <use xlink:href="#m212f7a6279" x="36.8" y="35.061818" style="stroke: #000000; stroke-width: 0.8"/>
      </g>
     </g>
     <g id="text_14">
      <!-- 1.5 -->
      <g transform="translate(13.840625 38.916506) scale(0.1 -0.1)">
       <use xlink:href="#HiraginoSans-W4-31"/>
       <use xlink:href="#HiraginoSans-W4-2e" transform="translate(67.299988 0)"/>
       <use xlink:href="#HiraginoSans-W4-35" transform="translate(92.299973 0)"/>
      </g>
     </g>
    </g>
   </g>
   <g id="line2d_15">
    <path d="M 343.19697 218.9 
L 343.088745 213.750616 
L 342.764261 208.610326 
L 342.224091 203.488209 
L 341.469189 198.393311 
L 340.500888 193.334629 
L 339.320899 188.321098 
L 337.931305 183.361572 
L 336.33456 178.464811 
L 334.533485 173.639461 
L 332.531261 168.894046 
L 330.331423 164.236946 
L 327.937856 159.676386 
L 325.354788 155.220421 
L 322.586782 150.876919 
L 319.638724 146.653553 
L 316.515822 142.55778 
L 313.223592 138.596835 
L 309.767847 134.777713 
L 306.154691 131.107158 
L 302.390505 127.591654 
L 298.481937 124.237408 
L 294.43589 121.050346 
L 290.259509 118.036095 
L 285.96017 115.199979 
L 281.545466 112.547007 
L 277.023195 110.081864 
L 272.401343 107.808904 
L 267.688072 105.732141 
L 262.891706 103.855243 
L 258.020717 102.181524 
L 253.083707 100.713942 
L 248.089395 99.455087 
L 243.046602 98.407182 
L 237.964234 97.572079 
L 232.851266 96.951252 
L 227.716728 96.545798 
L 222.569689 96.356433 
L 217.419239 96.383491 
L 212.274474 96.626925 
L 207.14448 97.086304 
L 202.038318 97.760818 
L 196.965004 98.649274 
L 191.933499 99.750104 
L 186.952689 101.061364 
L 182.031371 102.580738 
L 177.178237 104.305543 
L 172.401856 106.232732 
L 167.710666 108.358901 
L 163.11295 110.680297 
L 158.616829 113.192818 
L 154.230243 115.892028 
L 149.960941 118.77316 
L 145.81646 121.831125 
L 141.804122 125.060523 
L 137.931012 128.45565 
L 134.20397 132.010509 
L 130.62958 135.718824 
L 127.214152 139.574045 
L 123.963721 143.569362 
L 120.884025 147.69772 
L 117.980504 151.951828 
L 115.258286 156.324173 
L 112.722179 160.807032 
L 110.376662 165.392489 
L 108.225876 170.072445 
L 106.273622 174.838635 
L 104.523345 179.682642 
L 102.978138 184.59591 
L 101.64073 189.569762 
L 100.513482 194.595414 
L 99.598385 199.663991 
L 98.897056 204.76654 
L 98.410733 209.894049 
L 98.140274 215.037465 
L 98.086159 220.187701 
L 98.248482 225.335664 
L 98.626956 230.472261 
L 99.220913 235.588419 
L 100.029305 240.675105 
L 101.050702 245.723334 
L 102.283303 250.72419 
L 103.724929 255.668842 
L 105.373034 260.548557 
L 107.224709 265.354716 
L 109.276682 270.078832 
L 111.52533 274.712562 
L 113.966681 279.247721 
L 116.596424 283.676301 
L 119.409915 287.99048 
L 122.402184 292.182639 
L 125.567946 296.245374 
L 128.901612 300.171509 
L 132.397293 303.954112 
L 136.048815 307.586501 
L 139.84973 311.062262 
L 143.793325 314.375256 
L 147.872635 317.519631 
L 152.080455 320.489835 
L 156.409355 323.280622 
L 160.851689 325.887064 
L 165.399612 328.304556 
L 170.045091 330.52883 
L 174.779922 332.555957 
L 179.595742 334.382356 
L 184.484048 336.004804 
L 189.436205 337.420433 
L 194.443468 338.626745 
L 199.496993 339.621608 
L 204.587855 340.403265 
L 209.707064 340.970337 
L 214.845578 341.321821 
L 219.994322 341.457097 
L 225.144204 341.375925 
L 230.286127 341.07845 
L 235.411011 340.565196 
L 240.509805 339.837071 
L 245.573504 338.895359 
L 250.593165 337.741724 
L 255.559923 336.378204 
L 260.465005 334.807207 
L 265.29975 333.031507 
L 270.055618 331.05424 
L 274.72421 328.878898 
L 279.297282 326.509323 
L 283.766756 323.949701 
L 288.124739 321.20455 
L 292.363535 318.278721 
L 296.475657 315.17738 
L 300.453843 311.906003 
L 304.291068 308.47037 
L 307.980553 304.876547 
L 311.515784 301.130881 
L 314.890517 297.239989 
L 318.098791 293.21074 
L 321.134941 289.050252 
L 323.993604 284.765872 
L 326.669732 280.365167 
L 329.158599 275.855909 
L 331.455809 271.246061 
L 333.557304 266.543765 
L 335.459374 261.757326 
L 337.158658 256.895197 
L 338.652157 251.965965 
L 339.937233 246.978336 
L 341.011615 241.941117 
L 341.873407 236.863206 
L 342.521086 231.75357 
L 342.953508 226.621233 
L 343.16991 221.475261 
L 343.19697 218.9 
L 343.19697 218.9 
" clip-path="url(#p015f44022c)" style="fill: none; stroke: #2e75b6; stroke-width: 2; stroke-linecap: square"/>
   </g>
   <g id="line2d_16">
    <defs>
     <path id="mbe558e7d2a" d="M 0 3 
C 0.795609 3 1.55874 2.683901 2.12132 2.12132 
C 2.683901 1.55874 3 0.795609 3 0 
C 3 -0.795609 2.683901 -1.55874 2.12132 -2.12132 
C 1.55874 -2.683901 0.795609 -3 0 -3 
C -0.795609 -3 -1.55874 -2.683901 -2.12132 -2.12132 
C -2.683901 -1.55874 -3 -0.795609 -3 0 
C -3 0.795609 -2.683901 1.55874 -2.12132 2.12132 
C -1.55874 2.683901 -0.795609 3 0 3 
z
" style="stroke: #c00000"/>
    </defs>
    <g clip-path="url(#p015f44022c)">
     <use xlink:href="#mbe558e7d2a" x="220.638182" y="218.9" style="fill: #c00000; stroke: #c00000"/>
    </g>
   </g>
   <g id="line2d_17">
    <path d="M 36.8 218.9 
L 404.476364 218.9 
" clip-path="url(#p015f44022c)" style="fill: none; stroke: #dddddd; stroke-width: 0.5; stroke-linecap: square"/>
   </g>
   <g id="line2d_18">
    <path d="M 220.638182 402.738182 
L 220.638182 35.061818 
" clip-path="url(#p015f44022c)" style="fill: none; stroke: #dddddd; stroke-width: 0.5; stroke-linecap: square"/>
   </g>
   <g id="patch_4">
    <path d="M 36.8 402.738182 
L 36.8 35.061818 
" style="fill: none; stroke: #000000; stroke-width: 0.8; stroke-linejoin: miter; stroke-linecap: square"/>
   </g>
   <g id="patch_5">
    <path d="M 36.8 402.738182 
L 404.476364 402.738182 
" style="fill: none; stroke: #000000; stroke-width: 0.8; stroke-linejoin: miter; stroke-linecap: square"/>
   </g>
   <g id="patch_6">
    <path d="M 223.757221 218.9 
Q 281.919194 218.9 340.081167 218.9 
" style="fill: none; stroke: #333333; stroke-linecap: round"/>
    <path d="M 227.757221 220.9 
L 223.757221 218.9 
L 227.757221 216.9 
" style="fill: none; stroke: #333333; stroke-linecap: round"/>
    <path d="M 336.081167 216.9 
L 340.081167 218.9 
L 336.081167 220.9 
" style="fill: none; stroke: #333333; stroke-linecap: round"/>
   </g>
   <g id="text_15">
    <!-- r=1 -->
    <g transform="translate(272.997263 206.644121) scale(0.1 -0.1)">
     <defs>
      <path id="HiraginoSans-W4-72" d="M 2784 3520 
C 2522 3565 2394 3578 2195 3578 
C 1862 3578 1568 3488 1350 3315 
C 1242 3238 1165 3142 1056 2976 
C 1062 3027 1062 3040 1069 3085 
C 1069 3104 1069 3117 1069 3130 
C 1069 3162 1069 3181 1069 3187 
L 1069 3520 
L 442 3520 
C 474 3283 486 3104 486 2765 
L 486 755 
C 486 467 480 314 442 0 
L 1114 0 
C 1082 262 1069 448 1069 755 
L 1069 2022 
C 1101 2317 1158 2470 1312 2669 
C 1504 2912 1760 3034 2093 3034 
C 2259 3034 2381 3014 2618 2938 
L 2784 3520 
z
" transform="scale(0.015625)"/>
      <path id="HiraginoSans-W4-3d" d="M 333 2720 
L 333 2195 
L 3923 2195 
L 3923 2720 
L 333 2720 
z
M 333 1376 
L 333 851 
L 3923 851 
L 3923 1376 
L 333 1376 
z
" transform="scale(0.015625)"/>
     </defs>
     <use xlink:href="#HiraginoSans-W4-72"/>
     <use xlink:href="#HiraginoSans-W4-3d" transform="translate(44.699997 0)"/>
     <use xlink:href="#HiraginoSans-W4-31" transform="translate(111.099991 0)"/>
    </g>
   </g>
   <g id="text_16">
    <!-- 2D: ℓ² 単位球（円） -->
    <g style="fill: #2e75b6" transform="translate(166.947869 29.061818) scale(0.11 -0.11)">
     <defs>
      <path id="HiraginoSans-W4-32" d="M 3078 0 
C 3424 0 3642 -6 3917 -32 
L 3917 589 
C 3693 557 3430 544 3091 544 
L 1114 544 
C 1280 1114 1606 1478 2451 2042 
C 3181 2528 3341 2656 3546 2912 
C 3738 3142 3846 3443 3846 3744 
C 3846 4525 3200 5030 2202 5030 
C 1613 5030 1158 4858 858 4518 
C 640 4269 531 4026 442 3565 
L 1088 3469 
C 1139 3782 1190 3936 1306 4102 
C 1491 4371 1792 4506 2208 4506 
C 2816 4506 3206 4211 3206 3744 
C 3206 3360 2995 3085 2387 2675 
C 1754 2246 1600 2138 1389 1952 
C 979 1594 710 1229 544 806 
C 448 563 429 461 365 -26 
C 576 -6 678 0 1107 0 
L 3078 0 
z
" transform="scale(0.015625)"/>
      <path id="HiraginoSans-W4-44" d="M 531 768 
C 531 429 518 237 480 -13 
C 710 0 870 0 1210 0 
L 2317 0 
C 2989 0 3520 192 3910 570 
C 4371 1018 4614 1683 4614 2515 
C 4614 3309 4390 3942 3949 4365 
C 3565 4749 3021 4934 2310 4934 
L 1210 4934 
C 883 4934 698 4941 480 4954 
C 518 4672 531 4493 531 4192 
L 531 768 
z
M 1126 538 
L 1126 4397 
L 2310 4397 
C 2848 4397 3226 4262 3507 3974 
C 3834 3642 3994 3155 3994 2502 
C 3994 1856 3814 1325 3475 979 
C 3187 678 2803 538 2291 538 
L 1126 538 
z
" transform="scale(0.015625)"/>
      <path id="HiraginoSans-W4-3a" d="M 1165 3520 
L 442 3520 
L 442 2797 
L 1165 2797 
L 1165 3520 
z
M 1165 0 
L 1165 723 
L 442 723 
L 442 0 
L 1165 0 
z
" transform="scale(0.015625)"/>
      <path id="HiraginoSans-W4-20" transform="scale(0.015625)"/>
      <path id="HiraginoSans-W4-2113" d="M 3942 1312 
C 3712 864 3558 653 3341 486 
C 3206 384 3072 333 2950 333 
C 2810 333 2701 397 2643 518 
C 2598 602 2579 678 2554 870 
C 3328 1395 3776 1875 4160 2573 
C 4474 3136 4653 3763 4653 4256 
C 4653 4723 4448 5005 4102 5005 
C 3622 5005 3091 4557 2656 3776 
C 2234 3034 2003 2144 2003 1280 
C 2003 1254 2003 1210 2003 1152 
C 1664 986 1440 890 1094 774 
L 1357 269 
C 1600 365 1651 390 2080 589 
C 2150 314 2227 166 2362 45 
C 2502 -90 2707 -160 2944 -160 
C 3251 -160 3501 -58 3757 160 
C 3987 358 4122 538 4378 966 
L 3942 1312 
z
M 2541 1498 
C 2598 2022 2618 2150 2720 2502 
C 2854 2963 3053 3418 3296 3808 
C 3565 4224 3866 4525 4032 4525 
C 4102 4525 4141 4435 4141 4275 
C 4141 3949 3994 3456 3744 2963 
C 3443 2362 3066 1901 2541 1498 
z
" transform="scale(0.015625)"/>
      <path id="HiraginoSans-W4-b2" d="M 1805 2170 
C 1952 2170 2003 2170 2259 2150 
L 2259 2624 
C 2125 2611 1984 2605 1811 2605 
L 826 2605 
C 902 2861 1037 2995 1632 3405 
C 2099 3725 2240 3923 2240 4250 
C 2240 4704 1862 4998 1286 4998 
C 954 4998 685 4890 506 4685 
C 390 4550 333 4429 275 4179 
L 768 4102 
C 826 4442 979 4576 1286 4576 
C 1568 4576 1747 4448 1747 4250 
C 1747 4038 1658 3923 1274 3667 
C 864 3392 845 3373 717 3251 
C 518 3066 378 2854 307 2630 
C 262 2490 250 2387 237 2150 
C 371 2170 410 2170 653 2170 
L 1805 2170 
z
" transform="scale(0.015625)"/>
      <path id="HiraginoSans-W4-5358" d="M 2912 1651 
L 2912 1094 
L 1030 1094 
C 736 1094 557 1107 365 1133 
L 365 608 
C 550 634 768 646 1062 646 
L 2912 646 
L 2912 109 
C 2912 -198 2906 -326 2874 -499 
L 3437 -499 
C 3398 -314 3392 -186 3392 109 
L 3392 646 
L 5338 646 
C 5632 646 5850 634 6042 608 
L 6042 1133 
C 5862 1107 5677 1094 5376 1094 
L 3392 1094 
L 3392 1651 
L 4787 1651 
C 5030 1651 5203 1645 5434 1626 
C 5414 1792 5408 1958 5408 2266 
L 5408 3456 
C 5408 3776 5414 3942 5434 4115 
C 5286 4096 5107 4090 4787 4090 
L 4653 4090 
C 4883 4378 5043 4621 5318 5088 
L 4787 5267 
C 4614 4838 4435 4531 4115 4090 
L 1658 4090 
L 2106 4294 
C 1869 4698 1766 4845 1453 5210 
L 1011 5011 
C 1325 4659 1434 4499 1645 4090 
C 1293 4090 1133 4096 973 4115 
C 992 3936 998 3770 998 3456 
L 998 2246 
C 998 1965 992 1850 973 1626 
C 1171 1645 1350 1651 1619 1651 
L 2912 1651 
z
M 3392 3098 
L 3392 3680 
L 4934 3680 
L 4934 3098 
L 3392 3098 
z
M 2912 3098 
L 1472 3098 
L 1472 3680 
L 2912 3680 
L 2912 3098 
z
M 3392 2067 
L 3392 2694 
L 4934 2694 
L 4934 2067 
L 3392 2067 
z
M 2912 2067 
L 1472 2067 
L 1472 2694 
L 2912 2694 
L 2912 2067 
z
M 3603 4397 
C 3398 4832 3328 4960 3053 5357 
L 2592 5210 
C 2880 4794 2957 4659 3130 4205 
L 3603 4397 
z
" transform="scale(0.015625)"/>
      <path id="HiraginoSans-W4-4f4d" d="M 3667 4141 
L 2707 4141 
C 2381 4141 2202 4147 2016 4179 
L 2016 3661 
C 2163 3680 2374 3693 2720 3693 
L 5280 3693 
C 5555 3693 5754 3680 5965 3661 
L 5965 4179 
C 5779 4154 5581 4141 5280 4141 
L 4154 4141 
L 4154 4806 
C 4154 5024 4166 5152 4192 5293 
L 3622 5293 
C 3654 5139 3667 4992 3667 4794 
L 3667 4141 
z
M 2560 301 
C 2234 301 2035 314 1856 339 
L 1856 -198 
C 2061 -166 2278 -154 2573 -154 
L 5440 -154 
C 5728 -154 5965 -166 6157 -198 
L 6157 339 
C 5971 314 5773 301 5453 301 
L 4531 301 
C 4787 954 5050 1734 5229 2406 
C 5376 2957 5376 2957 5453 3206 
L 4883 3360 
C 4800 2618 4435 1306 4038 301 
L 2560 301 
z
M 992 294 
C 992 -45 979 -243 947 -467 
L 1510 -467 
C 1485 -224 1472 -6 1472 282 
L 1472 3718 
C 1696 4192 1786 4416 1971 4915 
C 2022 5069 2022 5075 2093 5261 
L 1562 5414 
C 1530 5197 1440 4864 1318 4550 
C 1037 3827 640 3187 141 2650 
C 250 2509 358 2310 410 2170 
C 672 2477 800 2662 1018 3027 
C 998 2758 992 2522 992 2253 
L 992 294 
z
M 3533 781 
C 3309 1856 3149 2426 2829 3296 
L 2342 3130 
C 2656 2330 2835 1670 3027 634 
L 3533 781 
z
" transform="scale(0.015625)"/>
      <path id="HiraginoSans-W4-7403" d="M 1088 4499 
L 1088 3123 
L 813 3123 
C 621 3123 518 3130 371 3155 
L 371 2669 
C 518 2694 627 2701 806 2701 
L 1088 2701 
L 1088 1171 
C 691 998 506 928 237 851 
L 397 320 
C 531 397 582 416 826 525 
C 1414 787 1875 1030 2330 1312 
L 2310 1798 
C 1971 1600 1843 1536 1555 1395 
L 1555 2701 
L 1766 2701 
C 1926 2701 2029 2694 2182 2675 
L 2182 3149 
C 2035 3130 1965 3123 1766 3123 
L 1555 3123 
L 1555 4499 
L 1850 4499 
C 2061 4499 2202 4493 2362 4474 
L 2362 4973 
C 2202 4947 2061 4934 1824 4934 
L 851 4934 
C 602 4934 454 4947 294 4973 
L 294 4467 
C 474 4493 570 4499 832 4499 
L 1088 4499 
z
M 3808 3731 
L 3808 147 
C 3808 19 3763 -13 3571 -13 
C 3360 -13 3110 13 2797 58 
C 2874 -115 2906 -230 2931 -435 
C 3232 -461 3360 -467 3514 -467 
C 4122 -467 4282 -371 4282 6 
L 4275 1562 
C 4275 1837 4256 2253 4224 2784 
C 4371 2093 4531 1702 4864 1178 
C 5171 698 5485 352 5926 6 
C 6029 211 6106 326 6240 474 
C 5677 864 5280 1312 4909 1965 
C 4589 2528 4301 3328 4275 3731 
L 5478 3731 
C 5702 3731 5894 3718 6080 3693 
L 6080 4198 
C 5901 4173 5709 4160 5459 4160 
L 4275 4160 
L 4275 4685 
C 4275 4922 4288 5101 4314 5293 
L 3763 5293 
C 3795 5075 3808 4877 3808 4646 
L 3808 4160 
L 2854 4160 
C 2598 4160 2413 4173 2234 4198 
L 2234 3693 
C 2426 3718 2605 3731 2842 3731 
L 3808 3731 
z
M 3456 2310 
C 3226 2784 3098 3002 2765 3450 
L 2381 3232 
C 2675 2854 2835 2566 3053 2061 
L 3456 2310 
z
M 5773 4627 
C 5472 4883 5248 5050 4864 5286 
L 4544 4998 
C 4915 4768 5126 4608 5459 4307 
L 5773 4627 
z
M 5171 2061 
C 5472 2451 5690 2778 5939 3206 
L 5523 3475 
C 5312 3014 5120 2707 4826 2362 
L 5171 2061 
z
M 3482 1709 
C 2848 1229 2272 870 1882 723 
L 2150 230 
C 2214 282 2310 352 2400 403 
C 2822 666 3104 864 3661 1299 
L 3482 1709 
z
" transform="scale(0.015625)"/>
      <path id="HiraginoSans-W4-ff08" d="M 6170 -531 
C 5690 -26 5491 256 5280 698 
C 5024 1235 4902 1805 4902 2432 
C 4902 3059 5024 3629 5280 4166 
C 5491 4608 5690 4890 6170 5395 
L 5517 5395 
C 5139 4947 4966 4685 4774 4275 
C 4499 3686 4365 3085 4365 2432 
C 4365 1779 4499 1178 4774 589 
C 4966 179 5139 -83 5517 -531 
L 6170 -531 
z
" transform="scale(0.015625)"/>
      <path id="HiraginoSans-W4-5186" d="M 1165 2150 
L 5242 2150 
L 5242 282 
C 5242 154 5190 128 4915 128 
C 4666 128 4352 154 3917 205 
C 3987 13 4013 -102 4038 -294 
C 4333 -314 4691 -326 4941 -326 
C 5587 -326 5747 -224 5747 211 
L 5747 4384 
C 5747 4678 5754 4819 5773 5005 
C 5619 4986 5459 4979 5152 4979 
L 1261 4979 
C 973 4979 819 4986 634 5005 
C 653 4832 659 4672 659 4422 
L 659 282 
C 659 -58 646 -256 621 -435 
L 1197 -435 
C 1171 -288 1165 -147 1165 262 
L 1165 2150 
z
M 2906 2618 
L 1165 2618 
L 1165 4506 
L 2906 4506 
L 2906 2618 
z
M 3398 2618 
L 3398 4506 
L 5242 4506 
L 5242 2618 
L 3398 2618 
z
" transform="scale(0.015625)"/>
      <path id="HiraginoSans-W4-ff09" d="M 890 -531 
C 1261 -83 1434 179 1626 589 
C 1901 1178 2035 1773 2035 2432 
C 2035 3091 1901 3686 1626 4275 
C 1434 4685 1261 4947 890 5395 
L 230 5395 
C 710 4890 909 4608 1120 4166 
C 1376 3629 1498 3072 1498 2432 
C 1498 1792 1376 1235 1120 698 
C 909 256 710 -26 230 -531 
L 890 -531 
z
" transform="scale(0.015625)"/>
     </defs>
     <use xlink:href="#HiraginoSans-W4-32"/>
     <use xlink:href="#HiraginoSans-W4-44" transform="translate(67.299988 0)"/>
     <use xlink:href="#HiraginoSans-W4-3a" transform="translate(144.399979 0)"/>
     <use xlink:href="#HiraginoSans-W4-20" transform="translate(169.399963 0)"/>
     <use xlink:href="#HiraginoSans-W4-2113" transform="translate(202.699951 0)"/>
     <use xlink:href="#HiraginoSans-W4-b2" transform="translate(302.699936 0)"/>
     <use xlink:href="#HiraginoSans-W4-20" transform="translate(342.899933 0)"/>
     <use xlink:href="#HiraginoSans-W4-5358" transform="translate(376.199921 0)"/>
     <use xlink:href="#HiraginoSans-W4-4f4d" transform="translate(476.199905 0)"/>
     <use xlink:href="#HiraginoSans-W4-7403" transform="translate(576.19989 0)"/>
     <use xlink:href="#HiraginoSans-W4-ff08" transform="translate(676.199875 0)"/>
     <use xlink:href="#HiraginoSans-W4-5186" transform="translate(776.19986 0)"/>
     <use xlink:href="#HiraginoSans-W4-ff09" transform="translate(876.199844 0)"/>
    </g>
   </g>
  </g>
  <g id="axes_2">
   <g id="patch_7">
    <path d="M 470.44 402.738182 
L 838.116364 402.738182 
L 838.116364 35.061818 
L 470.44 35.061818 
z
" style="fill: #ffffff"/>
   </g>
   <g id="patch_8">
    <path d="M 776.83697 218.9 
L 776.80991 216.324739 
L 776.728745 213.750616 
L 776.593508 211.178767 
L 776.404261 208.610326 
L 776.161086 206.04643 
L 775.864091 203.488209 
L 775.513407 200.936794 
L 775.109189 198.393311 
L 774.651615 195.858883 
L 774.140888 193.334629 
L 773.577233 190.821664 
L 772.960899 188.321098 
L 772.292157 185.834035 
L 771.571305 183.361572 
L 770.798658 180.904803 
L 769.97456 178.464811 
L 769.099374 176.042674 
L 768.173485 173.639461 
L 767.197304 171.256235 
L 766.171261 168.894046 
L 765.095809 166.553939 
L 763.971423 164.236946 
L 762.798599 161.944091 
L 761.577856 159.676386 
L 760.309732 157.434833 
L 758.994788 155.220421 
L 757.633604 153.034128 
L 756.226782 150.876919 
L 754.774941 148.749748 
L 753.278724 146.653553 
L 751.738791 144.58926 
L 750.155822 142.55778 
L 748.530517 140.560011 
L 746.863592 138.596835 
L 745.155784 136.669119 
L 743.407847 134.777713 
L 741.620553 132.923453 
L 739.794691 131.107158 
L 737.931068 129.32963 
L 736.030505 127.591654 
L 734.093843 125.893997 
L 732.121937 124.237408 
L 730.115657 122.62262 
L 728.07589 121.050346 
L 726.003535 119.521279 
L 723.899509 118.036095 
L 721.764739 116.59545 
L 719.60017 115.199979 
L 717.406756 113.850299 
L 715.185466 112.547007 
L 712.937282 111.290677 
L 710.663195 110.081864 
L 708.36421 108.921102 
L 706.041343 107.808904 
L 703.695618 106.74576 
L 701.328072 105.732141 
L 698.93975 104.768493 
L 696.531706 103.855243 
L 694.105005 102.992793 
L 691.660717 102.181524 
L 689.199923 101.421796 
L 686.723707 100.713942 
L 684.233165 100.058276 
L 681.729395 99.455087 
L 679.213504 98.904641 
L 676.686602 98.407182 
L 674.149805 97.962929 
L 671.604234 97.572079 
L 669.051011 97.234804 
L 666.491266 96.951252 
L 663.926127 96.72155 
L 661.356728 96.545798 
L 658.784204 96.424075 
L 656.209689 96.356433 
L 653.634322 96.342903 
L 651.059239 96.383491 
L 648.485578 96.478179 
L 645.914474 96.626925 
L 643.347064 96.829663 
L 640.78448 97.086304 
L 638.227855 97.396735 
L 635.678318 97.760818 
L 633.136993 98.178392 
L 630.605004 98.649274 
L 628.083468 99.173255 
L 625.573499 99.750104 
L 623.076205 100.379567 
L 620.592689 101.061364 
L 618.124048 101.795196 
L 615.671371 102.580738 
L 613.235742 103.417644 
L 610.818237 104.305543 
L 608.419922 105.244043 
L 606.041856 106.232732 
L 603.685091 107.27117 
L 601.350666 108.358901 
L 599.039612 109.495444 
L 596.75295 110.680297 
L 594.491689 111.912936 
L 592.256829 113.192818 
L 590.049355 114.519378 
L 587.870243 115.892028 
L 585.720455 117.310165 
L 583.600941 118.77316 
L 581.512635 120.280369 
L 579.45646 121.831125 
L 577.433325 123.424744 
L 575.444122 125.060523 
L 573.48973 126.737738 
L 571.571012 128.45565 
L 569.688815 130.213499 
L 567.84397 132.010509 
L 566.037293 133.845888 
L 564.26958 135.718824 
L 562.541612 137.628491 
L 560.854152 139.574045 
L 559.207946 141.554626 
L 557.603721 143.569362 
L 556.042184 145.617361 
L 554.524025 147.69772 
L 553.049915 149.80952 
L 551.620504 151.951828 
L 550.236424 154.123699 
L 548.898286 156.324173 
L 547.606681 158.552279 
L 546.362179 160.807032 
L 545.16533 163.087438 
L 544.016662 165.392489 
L 542.916682 167.721168 
L 541.865876 170.072445 
L 540.864709 172.445284 
L 539.913622 174.838635 
L 539.013034 177.251443 
L 538.163345 179.682642 
L 537.364929 182.131158 
L 536.618138 184.59591 
L 535.923303 187.07581 
L 535.28073 189.569762 
L 534.690702 192.076666 
L 534.153482 194.595414 
L 533.669305 197.124895 
L 533.238385 199.663991 
L 532.860913 202.211581 
L 532.537056 204.76654 
L 532.266956 207.327739 
L 532.050733 209.894049 
L 531.888482 212.464336 
L 531.780274 215.037465 
L 531.726159 217.612299 
L 531.726159 220.187701 
L 531.780274 222.762535 
L 531.888482 225.335664 
L 532.050733 227.905951 
L 532.266956 230.472261 
L 532.537056 233.03346 
L 532.860913 235.588419 
L 533.238385 238.136009 
L 533.669305 240.675105 
L 534.153482 243.204586 
L 534.690702 245.723334 
L 535.28073 248.230238 
L 535.923303 250.72419 
L 536.618138 253.20409 
L 537.364929 255.668842 
L 538.163345 258.117358 
L 539.013034 260.548557 
L 539.913622 262.961365 
L 540.864709 265.354716 
L 541.865876 267.727555 
L 542.916682 270.078832 
L 544.016662 272.407511 
L 545.16533 274.712562 
L 546.362179 276.992968 
L 547.606681 279.247721 
L 548.898286 281.475827 
L 550.236424 283.676301 
L 551.620504 285.848172 
L 553.049915 287.99048 
L 554.524025 290.10228 
L 556.042184 292.182639 
L 557.603721 294.230638 
L 559.207946 296.245374 
L 560.854152 298.225955 
L 562.541612 300.171509 
L 564.26958 302.081176 
L 566.037293 303.954112 
L 567.84397 305.789491 
L 569.688815 307.586501 
L 571.571012 309.34435 
L 573.48973 311.062262 
L 575.444122 312.739477 
L 577.433325 314.375256 
L 579.45646 315.968875 
L 581.512635 317.519631 
L 583.600941 319.02684 
L 585.720455 320.489835 
L 587.870243 321.907972 
L 590.049355 323.280622 
L 592.256829 324.607182 
L 594.491689 325.887064 
L 596.75295 327.119703 
L 599.039612 328.304556 
L 601.350666 329.441099 
L 603.685091 330.52883 
L 606.041856 331.567268 
L 608.419922 332.555957 
L 610.818237 333.494457 
L 613.235742 334.382356 
L 615.671371 335.219262 
L 618.124048 336.004804 
L 620.592689 336.738636 
L 623.076205 337.420433 
L 625.573499 338.049896 
L 628.083468 338.626745 
L 630.605004 339.150726 
L 633.136993 339.621608 
L 635.678318 340.039182 
L 638.227855 340.403265 
L 640.78448 340.713696 
L 643.347064 340.970337 
L 645.914474 341.173075 
L 648.485578 341.321821 
L 651.059239 341.416509 
L 653.634322 341.457097 
L 656.209689 341.443567 
L 658.784204 341.375925 
L 661.356728 341.254202 
L 663.926127 341.07845 
L 666.491266 340.848748 
L 669.051011 340.565196 
L 671.604234 340.227921 
L 674.149805 339.837071 
L 676.686602 339.392818 
L 679.213504 338.895359 
L 681.729395 338.344913 
L 684.233165 337.741724 
L 686.723707 337.086058 
L 689.199923 336.378204 
L 691.660717 335.618476 
L 694.105005 334.807207 
L 696.531706 333.944757 
L 698.93975 333.031507 
L 701.328072 332.067859 
L 703.695618 331.05424 
L 706.041343 329.991096 
L 708.36421 328.878898 
L 710.663195 327.718136 
L 712.937282 326.509323 
L 715.185466 325.252993 
L 717.406756 323.949701 
L 719.60017 322.600021 
L 721.764739 321.20455 
L 723.899509 319.763905 
L 726.003535 318.278721 
L 728.07589 316.749654 
L 730.115657 315.17738 
L 732.121937 313.562592 
L 734.093843 311.906003 
L 736.030505 310.208346 
L 737.931068 308.47037 
L 739.794691 306.692842 
L 741.620553 304.876547 
L 743.407847 303.022287 
L 745.155784 301.130881 
L 746.863592 299.203165 
L 748.530517 297.239989 
L 750.155822 295.24222 
L 751.738791 293.21074 
L 753.278724 291.146447 
L 754.774941 289.050252 
L 756.226782 286.923081 
L 757.633604 284.765872 
L 758.994788 282.579579 
L 760.309732 280.365167 
L 761.577856 278.123614 
L 762.798599 275.855909 
L 763.971423 273.563054 
L 765.095809 271.246061 
L 766.171261 268.905954 
L 767.197304 266.543765 
L 768.173485 264.160539 
L 769.099374 261.757326 
L 769.97456 259.335189 
L 770.798658 256.895197 
L 771.571305 254.438428 
L 772.292157 251.965965 
L 772.960899 249.478902 
L 773.577233 246.978336 
L 774.140888 244.465371 
L 774.651615 241.941117 
L 775.109189 239.406689 
L 775.513407 236.863206 
L 775.864091 234.311791 
L 776.161086 231.75357 
L 776.404261 229.189674 
L 776.593508 226.621233 
L 776.728745 224.049384 
L 776.80991 221.475261 
L 776.83697 218.9 
z
" clip-path="url(#p2b984b896d)" style="fill: #c6efce; opacity: 0.6; stroke: #c6efce; stroke-linejoin: miter"/>
   </g>
   <g id="matplotlib.axis_3">
    <g id="xtick_8">
     <g id="line2d_19">
      <g>
       <use xlink:href="#md3cb1ee5da" x="470.44" y="402.738182" style="stroke: #000000; stroke-width: 0.8"/>
      </g>
     </g>
     <g id="text_17">
      <!-- −1.5 -->
      <g transform="translate(459.14 417.447557) scale(0.1 -0.1)">
       <use xlink:href="#HiraginoSans-W4-2212"/>
       <use xlink:href="#HiraginoSans-W4-31" transform="translate(66.399994 0)"/>
       <use xlink:href="#HiraginoSans-W4-2e" transform="translate(133.699982 0)"/>
       <use xlink:href="#HiraginoSans-W4-35" transform="translate(158.699966 0)"/>
      </g>
     </g>
    </g>
    <g id="xtick_9">
     <g id="line2d_20">
      <g>
       <use xlink:href="#md3cb1ee5da" x="531.719394" y="402.738182" style="stroke: #000000; stroke-width: 0.8"/>
      </g>
     </g>
     <g id="text_18">
      <!-- −1.0 -->
      <g transform="translate(520.419394 417.447557) scale(0.1 -0.1)">
       <use xlink:href="#HiraginoSans-W4-2212"/>
       <use xlink:href="#HiraginoSans-W4-31" transform="translate(66.399994 0)"/>
       <use xlink:href="#HiraginoSans-W4-2e" transform="translate(133.699982 0)"/>
       <use xlink:href="#HiraginoSans-W4-30" transform="translate(158.699966 0)"/>
      </g>
     </g>
    </g>
    <g id="xtick_10">
     <g id="line2d_21">
      <g>
       <use xlink:href="#md3cb1ee5da" x="592.998788" y="402.738182" style="stroke: #000000; stroke-width: 0.8"/>
      </g>
     </g>
     <g id="text_19">
      <!-- −0.5 -->
      <g transform="translate(581.698788 417.447557) scale(0.1 -0.1)">
       <use xlink:href="#HiraginoSans-W4-2212"/>
       <use xlink:href="#HiraginoSans-W4-30" transform="translate(66.399994 0)"/>
       <use xlink:href="#HiraginoSans-W4-2e" transform="translate(133.699982 0)"/>
       <use xlink:href="#HiraginoSans-W4-35" transform="translate(158.699966 0)"/>
      </g>
     </g>
    </g>
    <g id="xtick_11">
     <g id="line2d_22">
      <g>
       <use xlink:href="#md3cb1ee5da" x="654.278182" y="402.738182" style="stroke: #000000; stroke-width: 0.8"/>
      </g>
     </g>
     <g id="text_20">
      <!-- 0.0 -->
      <g transform="translate(646.298494 417.447557) scale(0.1 -0.1)">
       <use xlink:href="#HiraginoSans-W4-30"/>
       <use xlink:href="#HiraginoSans-W4-2e" transform="translate(67.299988 0)"/>
       <use xlink:href="#HiraginoSans-W4-30" transform="translate(92.299973 0)"/>
      </g>
     </g>
    </g>
    <g id="xtick_12">
     <g id="line2d_23">
      <g>
       <use xlink:href="#md3cb1ee5da" x="715.557576" y="402.738182" style="stroke: #000000; stroke-width: 0.8"/>
      </g>
     </g>
     <g id="text_21">
      <!-- 0.5 -->
      <g transform="translate(707.577888 417.447557) scale(0.1 -0.1)">
       <use xlink:href="#HiraginoSans-W4-30"/>
       <use xlink:href="#HiraginoSans-W4-2e" transform="translate(67.299988 0)"/>
       <use xlink:href="#HiraginoSans-W4-35" transform="translate(92.299973 0)"/>
      </g>
     </g>
    </g>
    <g id="xtick_13">
     <g id="line2d_24">
      <g>
       <use xlink:href="#md3cb1ee5da" x="776.83697" y="402.738182" style="stroke: #000000; stroke-width: 0.8"/>
      </g>
     </g>
     <g id="text_22">
      <!-- 1.0 -->
      <g transform="translate(768.857282 417.447557) scale(0.1 -0.1)">
       <use xlink:href="#HiraginoSans-W4-31"/>
       <use xlink:href="#HiraginoSans-W4-2e" transform="translate(67.299988 0)"/>
       <use xlink:href="#HiraginoSans-W4-30" transform="translate(92.299973 0)"/>
      </g>
     </g>
    </g>
    <g id="xtick_14">
     <g id="line2d_25">
      <g>
       <use xlink:href="#md3cb1ee5da" x="838.116364" y="402.738182" style="stroke: #000000; stroke-width: 0.8"/>
      </g>
     </g>
     <g id="text_23">
      <!-- 1.5 -->
      <g transform="translate(830.136676 417.447557) scale(0.1 -0.1)">
       <use xlink:href="#HiraginoSans-W4-31"/>
       <use xlink:href="#HiraginoSans-W4-2e" transform="translate(67.299988 0)"/>
       <use xlink:href="#HiraginoSans-W4-35" transform="translate(92.299973 0)"/>
      </g>
     </g>
    </g>
    <g id="text_24">
     <!-- x₁ -->
     <g transform="translate(649.472713 431.206932) scale(0.1 -0.1)">
      <defs>
       <path id="HiraginoSans-W4-78" d="M 3469 0 
C 3238 294 3078 512 3008 614 
L 2138 1824 
L 2963 2982 
C 3021 3072 3168 3270 3206 3322 
C 3315 3462 3315 3462 3354 3520 
L 2630 3520 
C 2566 3386 2483 3238 2368 3072 
L 1792 2227 
L 1203 3072 
C 1088 3238 1024 3360 947 3520 
L 211 3520 
C 474 3174 557 3072 608 3002 
L 1440 1830 
L 531 563 
C 422 410 237 160 109 0 
L 858 0 
C 966 205 1018 294 1114 435 
L 1786 1421 
L 2426 486 
C 2566 288 2624 192 2720 0 
L 3469 0 
z
" transform="scale(0.015625)"/>
       <path id="HiraginoSans-W4-2081" d="M 563 2330 
C 659 2342 749 2349 890 2349 
L 1082 2349 
L 1082 422 
C 1082 243 1075 141 1050 0 
L 1600 0 
C 1574 154 1568 262 1568 422 
L 1568 2195 
C 1568 2400 1581 2573 1600 2790 
C 1478 2771 1427 2771 1280 2771 
L 877 2771 
C 717 2771 659 2778 563 2790 
L 563 2330 
z
" transform="scale(0.015625)"/>
      </defs>
      <use xlink:href="#HiraginoSans-W4-78"/>
      <use xlink:href="#HiraginoSans-W4-2081" transform="translate(55.899994 0)"/>
     </g>
    </g>
   </g>
   <g id="matplotlib.axis_4">
    <g id="ytick_8">
     <g id="line2d_26">
      <g>
       <use xlink:href="#m212f7a6279" x="470.44" y="402.738182" style="stroke: #000000; stroke-width: 0.8"/>
      </g>
     </g>
     <g id="text_25">
      <!-- −1.5 -->
      <g transform="translate(440.84 406.592869) scale(0.1 -0.1)">
       <use xlink:href="#HiraginoSans-W4-2212"/>
       <use xlink:href="#HiraginoSans-W4-31" transform="translate(66.399994 0)"/>
       <use xlink:href="#HiraginoSans-W4-2e" transform="translate(133.699982 0)"/>
       <use xlink:href="#HiraginoSans-W4-35" transform="translate(158.699966 0)"/>
      </g>
     </g>
    </g>
    <g id="ytick_9">
     <g id="line2d_27">
      <g>
       <use xlink:href="#m212f7a6279" x="470.44" y="341.458788" style="stroke: #000000; stroke-width: 0.8"/>
      </g>
     </g>
     <g id="text_26">
      <!-- −1.0 -->
      <g transform="translate(440.84 345.313475) scale(0.1 -0.1)">
       <use xlink:href="#HiraginoSans-W4-2212"/>
       <use xlink:href="#HiraginoSans-W4-31" transform="translate(66.399994 0)"/>
       <use xlink:href="#HiraginoSans-W4-2e" transform="translate(133.699982 0)"/>
       <use xlink:href="#HiraginoSans-W4-30" transform="translate(158.699966 0)"/>
      </g>
     </g>
    </g>
    <g id="ytick_10">
     <g id="line2d_28">
      <g>
       <use xlink:href="#m212f7a6279" x="470.44" y="280.179394" style="stroke: #000000; stroke-width: 0.8"/>
      </g>
     </g>
     <g id="text_27">
      <!-- −0.5 -->
      <g transform="translate(440.84 284.034081) scale(0.1 -0.1)">
       <use xlink:href="#HiraginoSans-W4-2212"/>
       <use xlink:href="#HiraginoSans-W4-30" transform="translate(66.399994 0)"/>
       <use xlink:href="#HiraginoSans-W4-2e" transform="translate(133.699982 0)"/>
       <use xlink:href="#HiraginoSans-W4-35" transform="translate(158.699966 0)"/>
      </g>
     </g>
    </g>
    <g id="ytick_11">
     <g id="line2d_29">
      <g>
       <use xlink:href="#m212f7a6279" x="470.44" y="218.9" style="stroke: #000000; stroke-width: 0.8"/>
      </g>
     </g>
     <g id="text_28">
      <!-- 0.0 -->
      <g transform="translate(447.480625 222.754687) scale(0.1 -0.1)">
       <use xlink:href="#HiraginoSans-W4-30"/>
       <use xlink:href="#HiraginoSans-W4-2e" transform="translate(67.299988 0)"/>
       <use xlink:href="#HiraginoSans-W4-30" transform="translate(92.299973 0)"/>
      </g>
     </g>
    </g>
    <g id="ytick_12">
     <g id="line2d_30">
      <g>
       <use xlink:href="#m212f7a6279" x="470.44" y="157.620606" style="stroke: #000000; stroke-width: 0.8"/>
      </g>
     </g>
     <g id="text_29">
      <!-- 0.5 -->
      <g transform="translate(447.480625 161.475294) scale(0.1 -0.1)">
       <use xlink:href="#HiraginoSans-W4-30"/>
       <use xlink:href="#HiraginoSans-W4-2e" transform="translate(67.299988 0)"/>
       <use xlink:href="#HiraginoSans-W4-35" transform="translate(92.299973 0)"/>
      </g>
     </g>
    </g>
    <g id="ytick_13">
     <g id="line2d_31">
      <g>
       <use xlink:href="#m212f7a6279" x="470.44" y="96.341212" style="stroke: #000000; stroke-width: 0.8"/>
      </g>
     </g>
     <g id="text_30">
      <!-- 1.0 -->
      <g transform="translate(447.480625 100.1959) scale(0.1 -0.1)">
       <use xlink:href="#HiraginoSans-W4-31"/>
       <use xlink:href="#HiraginoSans-W4-2e" transform="translate(67.299988 0)"/>
       <use xlink:href="#HiraginoSans-W4-30" transform="translate(92.299973 0)"/>
      </g>
     </g>
    </g>
    <g id="ytick_14">
     <g id="line2d_32">
      <g>
       <use xlink:href="#m212f7a6279" x="470.44" y="35.061818" style="stroke: #000000; stroke-width: 0.8"/>
      </g>
     </g>
     <g id="text_31">
      <!-- 1.5 -->
      <g transform="translate(447.480625 38.916506) scale(0.1 -0.1)">
       <use xlink:href="#HiraginoSans-W4-31"/>
       <use xlink:href="#HiraginoSans-W4-2e" transform="translate(67.299988 0)"/>
       <use xlink:href="#HiraginoSans-W4-35" transform="translate(92.299973 0)"/>
      </g>
     </g>
    </g>
    <g id="text_32">
     <!-- x₂ -->
     <g transform="translate(434.79 223.705469) rotate(-90) scale(0.1 -0.1)">
      <defs>
       <path id="HiraginoSans-W4-2082" d="M 1805 0 
C 1933 0 2074 -6 2259 -13 
L 2259 454 
C 2112 442 2003 435 1811 435 
L 826 435 
C 883 634 1069 845 1376 1056 
C 1818 1363 1830 1370 1926 1459 
C 2144 1645 2240 1837 2240 2080 
C 2240 2528 1862 2829 1286 2829 
C 954 2829 685 2720 506 2515 
C 390 2381 333 2259 275 2010 
L 768 1939 
C 826 2272 973 2406 1286 2406 
C 1568 2406 1747 2278 1747 2080 
C 1747 1869 1658 1760 1274 1498 
C 864 1222 845 1203 717 1082 
C 525 902 378 678 307 461 
C 262 320 250 224 237 -13 
C 384 0 422 0 653 0 
L 1805 0 
z
" transform="scale(0.015625)"/>
      </defs>
      <use xlink:href="#HiraginoSans-W4-78"/>
      <use xlink:href="#HiraginoSans-W4-2082" transform="translate(55.899994 0)"/>
     </g>
    </g>
   </g>
   <g id="line2d_33">
    <path d="M 776.83697 218.9 
L 776.728745 213.750616 
L 776.404261 208.610326 
L 775.864091 203.488209 
L 775.109189 198.393311 
L 774.140888 193.334629 
L 772.960899 188.321098 
L 771.571305 183.361572 
L 769.97456 178.464811 
L 768.173485 173.639461 
L 766.171261 168.894046 
L 763.971423 164.236946 
L 761.577856 159.676386 
L 758.994788 155.220421 
L 756.226782 150.876919 
L 753.278724 146.653553 
L 750.155822 142.55778 
L 746.863592 138.596835 
L 743.407847 134.777713 
L 739.794691 131.107158 
L 736.030505 127.591654 
L 732.121937 124.237408 
L 728.07589 121.050346 
L 723.899509 118.036095 
L 719.60017 115.199979 
L 715.185466 112.547007 
L 710.663195 110.081864 
L 706.041343 107.808904 
L 701.328072 105.732141 
L 696.531706 103.855243 
L 691.660717 102.181524 
L 686.723707 100.713942 
L 681.729395 99.455087 
L 676.686602 98.407182 
L 671.604234 97.572079 
L 666.491266 96.951252 
L 661.356728 96.545798 
L 656.209689 96.356433 
L 651.059239 96.383491 
L 645.914474 96.626925 
L 640.78448 97.086304 
L 635.678318 97.760818 
L 630.605004 98.649274 
L 625.573499 99.750104 
L 620.592689 101.061364 
L 615.671371 102.580738 
L 610.818237 104.305543 
L 606.041856 106.232732 
L 601.350666 108.358901 
L 596.75295 110.680297 
L 592.256829 113.192818 
L 587.870243 115.892028 
L 583.600941 118.77316 
L 579.45646 121.831125 
L 575.444122 125.060523 
L 571.571012 128.45565 
L 567.84397 132.010509 
L 564.26958 135.718824 
L 560.854152 139.574045 
L 557.603721 143.569362 
L 554.524025 147.69772 
L 551.620504 151.951828 
L 548.898286 156.324173 
L 546.362179 160.807032 
L 544.016662 165.392489 
L 541.865876 170.072445 
L 539.913622 174.838635 
L 538.163345 179.682642 
L 536.618138 184.59591 
L 535.28073 189.569762 
L 534.153482 194.595414 
L 533.238385 199.663991 
L 532.537056 204.76654 
L 532.050733 209.894049 
L 531.780274 215.037465 
L 531.726159 220.187701 
L 531.888482 225.335664 
L 532.266956 230.472261 
L 532.860913 235.588419 
L 533.669305 240.675105 
L 534.690702 245.723334 
L 535.923303 250.72419 
L 537.364929 255.668842 
L 539.013034 260.548557 
L 540.864709 265.354716 
L 542.916682 270.078832 
L 545.16533 274.712562 
L 547.606681 279.247721 
L 550.236424 283.676301 
L 553.049915 287.99048 
L 556.042184 292.182639 
L 559.207946 296.245374 
L 562.541612 300.171509 
L 566.037293 303.954112 
L 569.688815 307.586501 
L 573.48973 311.062262 
L 577.433325 314.375256 
L 581.512635 317.519631 
L 585.720455 320.489835 
L 590.049355 323.280622 
L 594.491689 325.887064 
L 599.039612 328.304556 
L 603.685091 330.52883 
L 608.419922 332.555957 
L 613.235742 334.382356 
L 618.124048 336.004804 
L 623.076205 337.420433 
L 628.083468 338.626745 
L 633.136993 339.621608 
L 638.227855 340.403265 
L 643.347064 340.970337 
L 648.485578 341.321821 
L 653.634322 341.457097 
L 658.784204 341.375925 
L 663.926127 341.07845 
L 669.051011 340.565196 
L 674.149805 339.837071 
L 679.213504 338.895359 
L 684.233165 337.741724 
L 689.199923 336.378204 
L 694.105005 334.807207 
L 698.93975 333.031507 
L 703.695618 331.05424 
L 708.36421 328.878898 
L 712.937282 326.509323 
L 717.406756 323.949701 
L 721.764739 321.20455 
L 726.003535 318.278721 
L 730.115657 315.17738 
L 734.093843 311.906003 
L 737.931068 308.47037 
L 741.620553 304.876547 
L 745.155784 301.130881 
L 748.530517 297.239989 
L 751.738791 293.21074 
L 754.774941 289.050252 
L 757.633604 284.765872 
L 760.309732 280.365167 
L 762.798599 275.855909 
L 765.095809 271.246061 
L 767.197304 266.543765 
L 769.099374 261.757326 
L 770.798658 256.895197 
L 772.292157 251.965965 
L 773.577233 246.978336 
L 774.651615 241.941117 
L 775.513407 236.863206 
L 776.161086 231.75357 
L 776.593508 226.621233 
L 776.80991 221.475261 
L 776.83697 218.9 
L 776.83697 218.9 
" clip-path="url(#p2b984b896d)" style="fill: none; stroke: #538135; stroke-width: 2; stroke-linecap: square"/>
   </g>
   <g id="line2d_34">
    <g clip-path="url(#p2b984b896d)">
     <use xlink:href="#mbe558e7d2a" x="654.278182" y="218.9" style="fill: #c00000; stroke: #c00000"/>
    </g>
   </g>
   <g id="line2d_35">
    <path d="M 470.44 218.9 
L 838.116364 218.9 
" clip-path="url(#p2b984b896d)" style="fill: none; stroke: #dddddd; stroke-width: 0.5; stroke-linecap: square"/>
   </g>
   <g id="line2d_36">
    <path d="M 654.278182 402.738182 
L 654.278182 35.061818 
" clip-path="url(#p2b984b896d)" style="fill: none; stroke: #dddddd; stroke-width: 0.5; stroke-linecap: square"/>
   </g>
   <g id="patch_9">
    <path d="M 470.44 402.738182 
L 470.44 35.061818 
" style="fill: none; stroke: #000000; stroke-width: 0.8; stroke-linejoin: miter; stroke-linecap: square"/>
   </g>
   <g id="patch_10">
    <path d="M 470.44 402.738182 
L 838.116364 402.738182 
" style="fill: none; stroke: #000000; stroke-width: 0.8; stroke-linejoin: miter; stroke-linecap: square"/>
   </g>
   <g id="text_33">
    <!-- {(x₁,x₂) | x₁²+x₂² ≤ 1}（x₃=0 断面） -->
    <g style="fill: #375623" transform="translate(578.936932 390.482303) scale(0.09 -0.09)">
     <defs>
      <path id="HiraginoSans-W4-7b" d="M 557 1747 
C 845 1690 902 1568 902 979 
L 902 -173 
C 902 -685 1210 -979 1754 -979 
L 2195 -979 
L 2195 -480 
L 1990 -480 
C 1594 -480 1472 -371 1472 -13 
L 1472 909 
C 1472 1702 1427 1837 1139 1978 
C 1427 2125 1472 2259 1472 3046 
L 1472 3968 
C 1472 4326 1594 4435 1990 4435 
L 2195 4435 
L 2195 4934 
L 1754 4934 
C 1210 4934 902 4640 902 4128 
L 902 2976 
C 902 2387 845 2266 557 2208 
L 557 1747 
z
" transform="scale(0.015625)"/>
      <path id="HiraginoSans-W4-28" d="M 2195 -749 
C 1830 -198 1683 90 1542 538 
C 1402 986 1331 1472 1331 1978 
C 1331 2483 1402 2963 1542 3411 
C 1683 3859 1830 4147 2195 4698 
L 1715 5018 
C 1350 4461 1197 4173 1037 3712 
C 838 3155 742 2579 742 1978 
C 742 1376 838 794 1037 243 
C 1197 -218 1350 -512 1715 -1062 
L 2195 -749 
z
" transform="scale(0.015625)"/>
      <path id="HiraginoSans-W4-2c" d="M 1165 723 
L 435 723 
L 435 0 
L 858 0 
C 851 -403 800 -499 493 -614 
L 685 -864 
C 1062 -672 1165 -493 1165 0 
L 1165 723 
z
" transform="scale(0.015625)"/>
      <path id="HiraginoSans-W4-29" d="M 653 -1062 
C 1018 -512 1171 -218 1331 243 
C 1530 794 1626 1370 1626 1978 
C 1626 2579 1530 3155 1331 3712 
C 1171 4173 1018 4461 653 5018 
L 173 4698 
C 538 4147 685 3859 826 3411 
C 966 2963 1037 2490 1037 1978 
C 1037 1466 966 986 826 538 
C 685 90 538 -198 173 -749 
L 653 -1062 
z
" transform="scale(0.015625)"/>
      <path id="HiraginoSans-W4-7c" d="M 966 4934 
L 966 -1312 
L 1530 -1312 
L 1530 4934 
L 966 4934 
z
" transform="scale(0.015625)"/>
      <path id="HiraginoSans-W4-2b" d="M 2387 1498 
L 3930 1498 
L 3930 2022 
L 2387 2022 
L 2387 3558 
L 1856 3558 
L 1856 2022 
L 320 2022 
L 320 1498 
L 1856 1498 
L 1856 -38 
L 2387 -38 
L 2387 1498 
z
" transform="scale(0.015625)"/>
      <path id="STIXGeneral-Regular-2264" d="M 4026 326 
L 410 2074 
L 410 2138 
L 4026 3898 
L 4026 3482 
L 1261 2106 
L 4026 730 
L 4026 326 
z
M 4026 -659 
L 410 -659 
L 410 -237 
L 4026 -237 
L 4026 -659 
z
" transform="scale(0.015625)"/>
      <path id="HiraginoSans-W4-7d" d="M 1779 2208 
C 1491 2266 1434 2387 1434 2976 
L 1434 4128 
C 1434 4640 1126 4934 582 4934 
L 141 4934 
L 141 4435 
L 346 4435 
C 742 4435 864 4320 864 3968 
L 864 3046 
C 864 2259 909 2118 1197 1978 
C 909 1837 864 1702 864 909 
L 864 -13 
C 864 -371 742 -480 346 -480 
L 141 -480 
L 141 -979 
L 582 -979 
C 1126 -979 1434 -685 1434 -173 
L 1434 979 
C 1434 1562 1491 1690 1779 1747 
L 1779 2208 
z
" transform="scale(0.015625)"/>
      <path id="HiraginoSans-W4-2083" d="M 186 640 
C 262 422 320 326 429 218 
C 608 26 890 -77 1248 -77 
C 1882 -77 2278 237 2278 736 
C 2278 973 2195 1165 2042 1286 
C 1914 1382 1798 1427 1574 1453 
C 1971 1517 2170 1747 2170 2118 
C 2170 2579 1818 2867 1254 2867 
C 915 2867 646 2765 467 2566 
C 378 2464 333 2381 269 2182 
L 762 2086 
C 813 2336 966 2451 1248 2451 
C 1536 2451 1696 2317 1696 2080 
C 1696 1805 1498 1645 1158 1645 
C 1011 1645 928 1651 838 1670 
L 838 1229 
C 954 1242 1069 1248 1216 1248 
C 1594 1248 1811 1088 1811 800 
C 1811 512 1606 346 1254 346 
C 1082 346 954 390 838 486 
C 768 550 736 608 691 755 
L 186 640 
z
" transform="scale(0.015625)"/>
      <path id="HiraginoSans-W4-65ad" d="M 4186 3443 
C 4186 3494 4186 3494 4186 3603 
L 4186 4365 
C 4838 4486 5325 4634 5830 4864 
C 5901 4896 5946 4915 5952 4915 
C 6042 4947 6042 4947 6074 4960 
L 5683 5389 
C 5274 5082 4346 4787 3686 4755 
C 3712 4563 3725 4358 3725 4051 
C 3725 1792 3590 922 3123 166 
L 3123 653 
C 2957 627 2778 621 2490 621 
L 960 621 
L 960 4621 
C 960 4838 966 4979 998 5158 
L 461 5158 
C 486 4954 499 4787 499 4525 
L 499 326 
C 499 58 486 -122 461 -339 
L 960 -339 
L 960 186 
L 2490 186 
C 2784 186 2963 179 3117 154 
C 3034 32 2995 -19 2880 -154 
C 3078 -275 3181 -352 3302 -480 
C 3718 115 3885 518 4019 1261 
C 4109 1760 4160 2278 4179 2982 
L 5018 2982 
L 5018 224 
C 5018 -96 5005 -288 4979 -461 
L 5530 -461 
C 5504 -294 5491 -96 5491 218 
L 5491 2982 
L 5645 2982 
C 5907 2982 6022 2976 6189 2950 
L 6189 3482 
C 6022 3456 5856 3443 5619 3443 
L 4186 3443 
z
M 2509 3405 
L 2509 4736 
C 2509 5024 2515 5171 2541 5306 
L 2054 5306 
C 2080 5165 2086 5018 2086 4736 
L 2086 3405 
L 1549 3405 
C 1357 3405 1261 3411 1114 3430 
L 1114 2950 
C 1229 2963 1376 2976 1530 2976 
L 1946 2976 
C 1830 2688 1811 2637 1728 2490 
C 1536 2118 1350 1875 973 1510 
C 1114 1376 1203 1267 1280 1146 
C 1715 1645 1888 1933 2112 2547 
C 2099 2349 2086 2086 2086 1914 
L 2086 1312 
C 2086 1050 2080 960 2061 806 
L 2534 806 
C 2515 947 2509 1024 2509 1306 
L 2509 1933 
C 2509 2099 2496 2323 2483 2547 
C 2675 2106 2822 1869 3200 1427 
C 3264 1562 3341 1683 3450 1818 
C 3034 2214 2861 2445 2598 2976 
L 2976 2976 
C 3155 2976 3322 2963 3424 2944 
L 3424 3430 
C 3322 3411 3194 3405 3002 3405 
L 2509 3405 
z
M 1101 4870 
C 1312 4403 1408 4102 1510 3597 
L 1875 3750 
C 1760 4243 1702 4422 1472 5030 
L 1101 4870 
z
M 3040 5056 
C 2931 4461 2867 4237 2669 3782 
L 2989 3616 
C 3155 3968 3232 4186 3366 4666 
C 3379 4717 3405 4800 3430 4902 
L 3040 5056 
z
" transform="scale(0.015625)"/>
      <path id="HiraginoSans-W4-9762" d="M 1325 3821 
C 1005 3821 787 3827 576 3853 
C 602 3584 614 3366 614 3046 
L 614 275 
C 614 -115 608 -307 576 -531 
L 1101 -531 
L 1101 -186 
L 5325 -186 
L 5325 -531 
L 5850 -531 
C 5824 -333 5811 -90 5811 262 
L 5811 3040 
C 5811 3398 5824 3616 5850 3853 
C 5619 3827 5434 3821 5088 3821 
L 3066 3821 
C 3200 4070 3322 4378 3405 4659 
L 5350 4659 
C 5632 4659 5856 4646 6054 4621 
L 6054 5139 
C 5856 5114 5626 5101 5350 5101 
L 1075 5101 
C 787 5101 582 5114 371 5139 
L 371 4621 
C 589 4646 787 4659 1082 4659 
L 2874 4659 
C 2771 4320 2688 4122 2528 3821 
L 1325 3821 
z
M 3859 3398 
L 3859 2650 
L 2528 2650 
L 2528 3398 
L 3859 3398 
z
M 4320 3398 
L 5325 3398 
L 5325 250 
L 4320 250 
L 4320 3398 
z
M 3859 250 
L 2528 250 
L 2528 1069 
L 3859 1069 
L 3859 250 
z
M 2067 250 
L 1101 250 
L 1101 3398 
L 2067 3398 
L 2067 250 
z
M 2528 2234 
L 3859 2234 
L 3859 1485 
L 2528 1485 
L 2528 2234 
z
" transform="scale(0.015625)"/>
     </defs>
     <use xlink:href="#HiraginoSans-W4-7b"/>
     <use xlink:href="#HiraginoSans-W4-28" transform="translate(36.499985 0)"/>
     <use xlink:href="#HiraginoSans-W4-78" transform="translate(73.499969 0)"/>
     <use xlink:href="#HiraginoSans-W4-2081" transform="translate(129.399963 0)"/>
     <use xlink:href="#HiraginoSans-W4-2c" transform="translate(169.59996 0)"/>
     <use xlink:href="#HiraginoSans-W4-78" transform="translate(194.599945 0)"/>
     <use xlink:href="#HiraginoSans-W4-2082" transform="translate(250.499939 0)"/>
     <use xlink:href="#HiraginoSans-W4-29" transform="translate(290.699936 0)"/>
     <use xlink:href="#HiraginoSans-W4-20" transform="translate(327.699921 0)"/>
     <use xlink:href="#HiraginoSans-W4-7c" transform="translate(360.999908 0)"/>
     <use xlink:href="#HiraginoSans-W4-20" transform="translate(399.899902 0)"/>
     <use xlink:href="#HiraginoSans-W4-78" transform="translate(433.19989 0)"/>
     <use xlink:href="#HiraginoSans-W4-2081" transform="translate(489.099884 0)"/>
     <use xlink:href="#HiraginoSans-W4-b2" transform="translate(529.299881 0)"/>
     <use xlink:href="#HiraginoSans-W4-2b" transform="translate(569.499878 0)"/>
     <use xlink:href="#HiraginoSans-W4-78" transform="translate(635.899872 0)"/>
     <use xlink:href="#HiraginoSans-W4-2082" transform="translate(691.799866 0)"/>
     <use xlink:href="#HiraginoSans-W4-b2" transform="translate(731.999863 0)"/>
     <use xlink:href="#HiraginoSans-W4-20" transform="translate(772.19986 0)"/>
     <use xlink:href="#STIXGeneral-Regular-2264" transform="translate(805.499847 0)"/>
     <use xlink:href="#HiraginoSans-W4-20" transform="translate(873.999832 0)"/>
     <use xlink:href="#HiraginoSans-W4-31" transform="translate(907.29982 0)"/>
     <use xlink:href="#HiraginoSans-W4-7d" transform="translate(974.599808 0)"/>
     <use xlink:href="#HiraginoSans-W4-ff08" transform="translate(1011.099792 0)"/>
     <use xlink:href="#HiraginoSans-W4-78" transform="translate(1111.099777 0)"/>
     <use xlink:href="#HiraginoSans-W4-2083" transform="translate(1166.999771 0)"/>
     <use xlink:href="#HiraginoSans-W4-3d" transform="translate(1207.199768 0)"/>
     <use xlink:href="#HiraginoSans-W4-30" transform="translate(1273.599762 0)"/>
     <use xlink:href="#HiraginoSans-W4-20" transform="translate(1340.89975 0)"/>
     <use xlink:href="#HiraginoSans-W4-65ad" transform="translate(1374.199738 0)"/>
     <use xlink:href="#HiraginoSans-W4-9762" transform="translate(1474.199722 0)"/>
     <use xlink:href="#HiraginoSans-W4-ff09" transform="translate(1574.199707 0)"/>
    </g>
   </g>
   <g id="text_34">
    <!-- 3D 断面（赤道面） -->
    <g style="fill: #538135" transform="translate(606.005369 29.061818) scale(0.11 -0.11)">
     <defs>
      <path id="HiraginoSans-W4-33" d="M 282 1101 
C 397 768 474 621 621 448 
C 934 90 1434 -96 2112 -96 
C 2720 -96 3213 70 3533 384 
C 3770 614 3904 954 3904 1306 
C 3904 1677 3802 1958 3597 2182 
C 3379 2419 3130 2528 2688 2586 
C 2995 2650 3130 2701 3290 2816 
C 3578 3021 3738 3366 3738 3757 
C 3738 4538 3117 5043 2157 5043 
C 1594 5043 1146 4883 845 4576 
C 666 4390 582 4237 467 3891 
L 1107 3757 
C 1171 3981 1216 4083 1306 4192 
C 1478 4416 1741 4525 2125 4525 
C 2746 4525 3110 4224 3110 3725 
C 3110 3482 3021 3264 2867 3110 
C 2669 2918 2374 2829 1965 2829 
C 1779 2829 1613 2842 1459 2861 
L 1459 2272 
C 1651 2298 1811 2310 2003 2310 
C 2829 2310 3264 1990 3264 1376 
C 3264 794 2816 429 2106 429 
C 1779 429 1510 506 1293 666 
C 1107 800 1024 928 928 1248 
L 282 1101 
z
" transform="scale(0.015625)"/>
      <path id="HiraginoSans-W4-8d64" d="M 2342 2854 
C 2310 2010 2246 1632 2080 1229 
C 1824 640 1434 294 627 -64 
C 794 -198 890 -314 986 -486 
C 1408 -269 1606 -134 1850 83 
C 2157 365 2381 672 2541 1056 
C 2720 1491 2790 1920 2829 2854 
L 3661 2854 
L 3661 250 
C 3661 115 3603 83 3328 83 
C 3130 83 2899 102 2650 141 
C 2726 -70 2739 -134 2771 -365 
C 3021 -384 3232 -390 3398 -390 
C 3712 -390 3853 -365 3974 -282 
C 4096 -198 4147 -77 4147 128 
L 4147 2854 
L 5357 2854 
C 5638 2854 5843 2842 6048 2816 
L 6048 3341 
C 5882 3315 5658 3302 5357 3302 
L 3405 3302 
L 3405 4141 
L 4915 4141 
C 5190 4141 5357 4134 5542 4109 
L 5542 4621 
C 5370 4595 5210 4589 4915 4589 
L 3405 4589 
L 3405 4794 
C 3405 5056 3418 5242 3450 5357 
L 2874 5357 
C 2906 5197 2912 5075 2912 4794 
L 2912 4589 
L 1523 4589 
C 1222 4589 1062 4595 890 4621 
L 890 4109 
C 1075 4134 1248 4141 1523 4141 
L 2912 4141 
L 2912 3302 
L 1088 3302 
C 781 3302 563 3315 397 3341 
L 397 2816 
C 602 2842 806 2854 1088 2854 
L 2342 2854 
z
M 1203 2515 
C 1082 2074 992 1856 787 1542 
C 646 1325 544 1197 301 954 
C 486 864 589 787 736 646 
C 998 941 1120 1107 1286 1395 
C 1459 1702 1542 1907 1683 2342 
L 1203 2515 
z
M 4640 2349 
C 4922 1510 5126 1107 5619 390 
C 5786 531 5894 602 6086 710 
C 5581 1306 5370 1702 5107 2522 
L 4640 2349 
z
" transform="scale(0.015625)"/>
      <path id="HiraginoSans-W4-9053" d="M 2662 4608 
C 2342 4608 2150 4621 2010 4646 
L 2010 4173 
C 2202 4192 2342 4198 2650 4198 
L 3693 4198 
C 3635 4045 3571 3904 3469 3725 
L 3027 3725 
C 2726 3725 2522 3731 2368 3744 
C 2387 3603 2400 3347 2400 3130 
L 2400 1293 
C 2400 1088 2394 883 2381 678 
C 2547 691 2784 698 2995 698 
L 5094 698 
C 5274 698 5427 691 5568 678 
C 5549 864 5542 1069 5542 1331 
L 5542 3117 
C 5542 3360 5549 3565 5568 3750 
C 5453 3731 5261 3725 4966 3725 
L 3962 3725 
C 4064 3910 4102 4000 4186 4198 
L 5344 4198 
C 5581 4198 5766 4192 5978 4166 
L 5978 4646 
C 5818 4621 5645 4608 5344 4608 
L 4806 4608 
C 4928 4749 5069 4954 5229 5216 
L 4762 5363 
C 4640 5101 4480 4845 4294 4608 
L 3642 4608 
C 3424 4979 3334 5120 3142 5363 
L 2720 5197 
C 2906 4973 3046 4781 3142 4608 
L 2662 4608 
z
M 2848 3328 
L 5094 3328 
L 5094 2861 
L 2848 2861 
L 2848 3328 
z
M 2848 2470 
L 5094 2470 
L 5094 1990 
L 2848 1990 
L 2848 2470 
z
M 2842 1600 
L 5088 1600 
L 5088 1094 
L 2842 1094 
L 2842 1600 
z
M 371 4864 
C 781 4499 1037 4205 1389 3706 
L 1766 4045 
C 1446 4467 1178 4762 730 5178 
L 371 4864 
z
M 352 2317 
C 512 2342 595 2349 806 2349 
L 1203 2349 
L 1203 877 
C 806 506 467 256 211 154 
L 461 -352 
C 531 -288 550 -275 621 -218 
C 1030 96 1184 237 1414 486 
C 1670 160 1824 26 2112 -96 
C 2464 -250 2931 -307 3853 -307 
C 4346 -307 5318 -288 6022 -262 
C 6061 -45 6099 77 6195 282 
C 5594 198 4800 154 3936 154 
C 2963 154 2528 205 2214 352 
C 1939 480 1798 621 1670 877 
L 1670 2138 
C 1670 2458 1677 2611 1696 2816 
C 1549 2790 1408 2784 1216 2784 
L 845 2784 
C 595 2784 499 2790 352 2816 
L 352 2317 
z
" transform="scale(0.015625)"/>
     </defs>
     <use xlink:href="#HiraginoSans-W4-33"/>
     <use xlink:href="#HiraginoSans-W4-44" transform="translate(67.299988 0)"/>
     <use xlink:href="#HiraginoSans-W4-20" transform="translate(144.399979 0)"/>
     <use xlink:href="#HiraginoSans-W4-65ad" transform="translate(177.699966 0)"/>
     <use xlink:href="#HiraginoSans-W4-9762" transform="translate(277.699951 0)"/>
     <use xlink:href="#HiraginoSans-W4-ff08" transform="translate(377.699936 0)"/>
     <use xlink:href="#HiraginoSans-W4-8d64" transform="translate(477.699921 0)"/>
     <use xlink:href="#HiraginoSans-W4-9053" transform="translate(577.699905 0)"/>
     <use xlink:href="#HiraginoSans-W4-9762" transform="translate(677.69989 0)"/>
     <use xlink:href="#HiraginoSans-W4-ff09" transform="translate(777.699875 0)"/>
    </g>
   </g>
  </g>
  <g id="text_35">
   <!-- ℓ² 空間の単位球 -->
   <g transform="translate(372.144901 18.288437) scale(0.14 -0.14)">
    <defs>
     <path id="HiraginoSans-W7-2113" d="M 3910 1357 
C 3558 768 3264 486 2995 486 
C 2899 486 2803 538 2752 627 
C 2720 678 2707 730 2688 851 
C 3386 1261 3770 1606 4147 2138 
C 4595 2784 4877 3622 4877 4314 
C 4877 4858 4608 5178 4147 5178 
C 3277 5178 2374 4166 1971 2739 
C 1830 2266 1792 1946 1792 1312 
C 1491 1190 1222 1094 794 973 
L 1158 211 
C 1466 314 1658 390 1907 493 
C 2003 160 2099 0 2310 -147 
C 2470 -269 2701 -333 2944 -333 
C 3296 -333 3616 -211 3930 45 
C 4147 224 4282 378 4525 742 
L 3910 1357 
z
M 2643 1728 
C 2701 2170 2714 2246 2810 2560 
C 2938 2950 3098 3315 3302 3648 
C 3565 4083 3853 4390 4000 4390 
C 4038 4390 4058 4358 4058 4294 
C 4058 3853 3770 3072 3405 2528 
C 3168 2176 2982 1978 2643 1728 
z
" transform="scale(0.015625)"/>
     <path id="HiraginoSans-W7-b2" d="M 1952 2118 
C 2144 2118 2298 2112 2515 2093 
L 2515 2784 
C 2355 2771 2214 2765 1984 2765 
L 1171 2765 
C 1274 2938 1350 3008 1792 3315 
C 2054 3501 2118 3552 2214 3648 
C 2400 3827 2490 4032 2490 4282 
C 2490 4800 2061 5133 1389 5133 
C 986 5133 678 5011 474 4774 
C 333 4614 269 4467 211 4173 
L 966 4096 
C 1005 4390 1126 4506 1389 4506 
C 1594 4506 1734 4410 1734 4262 
C 1734 4096 1638 3987 1318 3770 
C 928 3494 922 3494 813 3398 
C 653 3258 518 3098 416 2931 
C 301 2726 211 2432 198 2202 
C 192 2138 192 2138 192 2106 
C 358 2118 397 2118 698 2118 
L 1952 2118 
z
" transform="scale(0.015625)"/>
     <path id="HiraginoSans-W7-20" transform="scale(0.015625)"/>
     <path id="HiraginoSans-W7-7a7a" d="M 2726 4851 
L 1094 4851 
C 768 4851 582 4858 358 4877 
C 378 4723 384 4608 384 4390 
L 384 3795 
C 384 3603 371 3450 352 3277 
L 1197 3277 
L 1197 4109 
L 2080 4109 
C 2029 3648 1914 3437 1581 3206 
C 1274 2989 954 2880 333 2765 
C 538 2534 685 2310 813 2048 
C 1178 2150 1344 2208 1536 2291 
C 1901 2451 2202 2643 2400 2854 
C 2688 3168 2848 3578 2880 4109 
L 3392 4109 
L 3392 2918 
C 3392 2445 3558 2355 4461 2355 
C 5702 2355 5850 2445 5901 3264 
C 5555 3309 5357 3366 5114 3488 
C 5114 3206 5094 3142 5018 3110 
C 4973 3091 4755 3072 4608 3072 
C 4608 3072 4602 3072 4589 3072 
C 4525 3078 4461 3078 4390 3078 
C 4224 3085 4186 3117 4186 3232 
L 4186 4109 
L 5203 4109 
L 5203 3514 
L 6042 3514 
C 6016 3674 6010 3814 6010 4006 
L 6010 4390 
C 6010 4608 6016 4736 6035 4877 
C 5818 4858 5619 4851 5299 4851 
L 3584 4851 
L 3584 5030 
C 3584 5190 3597 5306 3616 5421 
L 2694 5421 
C 2720 5293 2726 5190 2726 5024 
L 2726 4851 
z
M 2739 1222 
L 2739 422 
L 1133 422 
C 819 422 454 442 294 461 
L 294 -378 
C 499 -352 774 -339 1133 -339 
L 5274 -339 
C 5626 -339 5901 -352 6106 -378 
L 6106 461 
C 5926 435 5651 422 5274 422 
L 3584 422 
L 3584 1222 
L 4813 1222 
C 5158 1222 5408 1210 5606 1184 
L 5606 2022 
C 5408 1990 5120 1978 4806 1978 
L 1491 1978 
C 1178 1978 1005 1990 794 2016 
L 794 1184 
C 986 1210 1222 1222 1574 1222 
L 2739 1222 
z
" transform="scale(0.015625)"/>
     <path id="HiraginoSans-W7-9593" d="M 4525 2125 
C 4525 2368 4531 2528 4544 2682 
C 4346 2669 4230 2662 3968 2662 
L 2419 2662 
C 2163 2662 2035 2669 1843 2682 
C 1856 2522 1862 2349 1862 2125 
L 1862 493 
C 1862 243 1856 13 1837 -173 
L 2605 -173 
L 2605 147 
L 3955 147 
C 4070 147 4128 147 4250 141 
C 4314 -45 4346 -192 4384 -467 
C 4730 -480 4749 -480 4845 -480 
C 5242 -480 5478 -454 5619 -390 
C 5850 -288 5933 -96 5933 333 
L 5933 4512 
C 5933 4832 5939 4998 5958 5229 
C 5766 5210 5626 5203 5306 5203 
L 4000 5203 
C 3667 5203 3533 5210 3341 5229 
C 3354 5024 3360 4864 3360 4640 
L 3360 3565 
C 3360 3251 3360 3187 3347 2995 
C 3494 3002 3706 3008 3904 3008 
L 5133 3008 
L 5133 454 
C 5133 320 5088 294 4864 294 
C 4781 294 4698 301 4531 314 
C 4525 442 4525 538 4525 678 
L 4525 2125 
z
M 4122 4614 
L 5133 4614 
L 5133 4352 
L 4122 4352 
L 4122 4614 
z
M 4122 3834 
L 5133 3834 
L 5133 3571 
L 4122 3571 
L 4122 3834 
z
M 2605 2029 
L 3789 2029 
L 3789 1702 
L 2605 1702 
L 2605 2029 
z
M 2605 1101 
L 3789 1101 
L 3789 781 
L 2605 781 
L 2605 1101 
z
M 1280 3008 
L 2419 3008 
C 2618 3008 2829 3002 2976 2995 
C 2963 3142 2963 3251 2963 3565 
L 2963 4640 
C 2963 4896 2970 5043 2982 5229 
C 2816 5210 2669 5203 2330 5203 
L 1101 5203 
C 787 5203 640 5210 448 5229 
C 467 5024 474 4851 474 4506 
L 474 294 
C 474 -122 461 -333 435 -531 
L 1318 -531 
C 1293 -352 1280 -109 1280 288 
L 1280 3008 
z
M 1280 4614 
L 2214 4614 
L 2214 4352 
L 1280 4352 
L 1280 4614 
z
M 1280 3834 
L 2214 3834 
L 2214 3571 
L 1280 3571 
L 1280 3834 
z
" transform="scale(0.015625)"/>
     <path id="HiraginoSans-W7-306e" d="M 3776 4038 
C 4032 4006 4186 3955 4371 3834 
C 4806 3546 5056 3066 5056 2496 
C 5056 1818 4723 1222 4173 922 
C 3872 762 3475 659 2906 614 
C 3155 282 3245 109 3379 -294 
C 3834 -218 4090 -154 4397 -32 
C 5421 371 6003 1274 6003 2438 
C 6003 3936 4979 4896 3373 4896 
C 2458 4896 1670 4576 1120 3974 
C 653 3469 403 2803 403 2074 
C 403 973 966 198 1760 198 
C 2310 198 2733 576 3091 1389 
C 3424 2131 3648 2982 3776 4038 
z
M 2842 4026 
C 2765 3341 2566 2534 2330 1965 
C 2125 1446 1926 1197 1741 1197 
C 1491 1197 1286 1587 1286 2067 
C 1286 2707 1587 3328 2074 3706 
C 2323 3898 2534 3987 2842 4026 
z
" transform="scale(0.015625)"/>
     <path id="HiraginoSans-W7-5358" d="M 2746 1549 
L 2746 1203 
L 1005 1203 
C 672 1203 474 1210 275 1235 
L 275 403 
C 486 429 742 442 1082 442 
L 2746 442 
L 2746 102 
C 2746 -218 2739 -371 2707 -570 
L 3603 -570 
C 3571 -352 3565 -230 3565 102 
L 3565 442 
L 5286 442 
C 5626 442 5920 429 6106 403 
L 6106 1235 
C 5920 1216 5722 1203 5376 1203 
L 3565 1203 
L 3565 1549 
L 4896 1549 
C 5178 1549 5382 1542 5606 1530 
C 5581 1728 5574 1888 5574 2202 
L 5574 3597 
C 5574 3942 5581 4128 5606 4294 
C 5504 4282 5299 4275 4986 4269 
C 5184 4531 5312 4730 5549 5114 
L 4678 5389 
C 4531 5005 4320 4627 4064 4269 
L 3034 4269 
L 3750 4518 
C 3565 4954 3494 5088 3258 5453 
L 2458 5254 
C 2726 4806 2797 4672 2931 4269 
L 1670 4269 
L 2176 4467 
C 1984 4819 1856 5005 1568 5357 
L 794 5069 
C 1050 4762 1184 4557 1325 4269 
C 1120 4269 941 4275 781 4294 
C 806 4115 813 3923 813 3597 
L 813 2189 
C 813 1901 806 1741 781 1530 
C 1005 1542 1190 1549 1485 1549 
L 2746 1549 
z
M 3565 3232 
L 3565 3590 
L 4755 3590 
L 4755 3232 
L 3565 3232 
z
M 2746 3232 
L 1632 3232 
L 1632 3590 
L 2746 3590 
L 2746 3232 
z
M 3565 2227 
L 3565 2586 
L 4755 2586 
L 4755 2227 
L 3565 2227 
z
M 2746 2227 
L 1632 2227 
L 1632 2586 
L 2746 2586 
L 2746 2227 
z
" transform="scale(0.015625)"/>
     <path id="HiraginoSans-W7-4f4d" d="M 3571 4416 
L 2797 4416 
C 2400 4416 2214 4422 2029 4448 
L 2029 3590 
C 2208 3616 2458 3629 2816 3629 
L 5254 3629 
C 5581 3629 5811 3616 6022 3590 
L 6022 4454 
C 5824 4429 5600 4416 5267 4416 
L 4403 4416 
L 4403 4877 
C 4403 5126 4416 5248 4442 5382 
L 3533 5382 
C 3565 5222 3571 5107 3571 4883 
L 3571 4416 
z
M 2643 480 
C 2298 480 2080 493 1882 518 
L 1882 -352 
C 2093 -326 2330 -314 2669 -314 
L 5382 -314 
C 5728 -314 5952 -326 6176 -352 
L 6176 518 
C 5978 493 5760 480 5414 480 
L 4845 480 
C 5165 1395 5286 1818 5632 3206 
L 4717 3450 
C 4614 2598 4326 1421 3994 480 
L 2643 480 
z
M 800 192 
C 800 -122 794 -282 762 -550 
L 1670 -550 
C 1645 -314 1632 -90 1632 186 
L 1632 3821 
C 1824 4224 2016 4723 2189 5280 
L 1318 5491 
C 1286 5254 1210 4973 1088 4653 
C 838 3994 506 3437 96 3008 
C 237 2682 333 2374 403 2042 
C 557 2221 576 2253 813 2592 
C 806 2227 800 2086 800 1914 
L 800 192 
z
M 3738 934 
C 3526 1958 3360 2541 3034 3398 
L 2234 3123 
C 2534 2336 2726 1638 2906 672 
L 3738 934 
z
" transform="scale(0.015625)"/>
     <path id="HiraginoSans-W7-7403" d="M 5939 4736 
C 5677 4992 5466 5165 5114 5408 
L 4557 4941 
C 4877 4698 5062 4544 5306 4301 
L 4448 4301 
L 4448 4806 
C 4448 5043 4461 5203 4486 5376 
L 3616 5376 
C 3642 5152 3654 4941 3654 4717 
L 3654 4301 
L 2816 4301 
C 2662 4301 2528 4307 2381 4314 
L 2381 5094 
C 2195 5075 2035 5062 1798 5062 
L 832 5062 
C 595 5062 422 5075 237 5094 
L 237 4294 
C 416 4314 538 4320 787 4320 
L 922 4320 
L 922 3238 
L 774 3238 
C 570 3238 474 3245 314 3264 
L 314 2483 
C 448 2502 582 2509 755 2509 
L 922 2509 
L 922 1235 
C 550 1101 307 1030 141 1005 
L 358 128 
C 454 173 499 192 525 198 
C 1043 403 1382 550 1773 742 
L 2144 -6 
C 2202 51 2253 90 2285 109 
C 2848 531 3264 858 3610 1171 
L 3322 1824 
C 2938 1523 2650 1312 2323 1114 
L 2323 1862 
C 2048 1702 1958 1658 1715 1549 
L 1715 2509 
L 1818 2509 
C 1952 2509 2074 2502 2214 2490 
L 2214 3021 
C 2496 2656 2669 2374 2886 1907 
L 3552 2355 
C 3302 2822 3136 3078 2822 3469 
L 2214 3104 
L 2214 3264 
C 2067 3238 2016 3238 1818 3238 
L 1715 3238 
L 1715 4320 
L 1862 4320 
C 2010 4320 2048 4320 2189 4314 
L 2189 3533 
C 2362 3552 2547 3565 2765 3565 
L 3654 3565 
L 3654 371 
C 3654 250 3616 218 3456 218 
C 3270 218 3027 237 2714 282 
C 2835 26 2899 -198 2938 -518 
C 3347 -544 3354 -544 3501 -544 
C 3763 -544 4006 -518 4147 -467 
C 4371 -397 4461 -250 4461 45 
L 4461 998 
C 4461 1242 4461 1261 4422 1920 
C 4576 1408 4698 1152 4979 730 
C 5254 326 5472 77 5818 -198 
C 5965 128 6106 371 6304 634 
C 5856 947 5555 1267 5216 1779 
C 5574 2170 5715 2362 6131 3027 
L 5453 3488 
C 5286 3104 5101 2816 4819 2483 
C 4614 2931 4493 3290 4454 3565 
L 5555 3565 
C 5741 3565 5926 3552 6118 3533 
L 6118 4333 
C 5920 4314 5722 4301 5466 4301 
L 5939 4736 
z
" transform="scale(0.015625)"/>
    </defs>
    <use xlink:href="#HiraginoSans-W7-2113"/>
    <use xlink:href="#HiraginoSans-W7-b2" transform="translate(99.999985 0)"/>
    <use xlink:href="#HiraginoSans-W7-20" transform="translate(143.999969 0)"/>
    <use xlink:href="#HiraginoSans-W7-7a7a" transform="translate(177.299957 0)"/>
    <use xlink:href="#HiraginoSans-W7-9593" transform="translate(277.299942 0)"/>
    <use xlink:href="#HiraginoSans-W7-306e" transform="translate(377.299927 0)"/>
    <use xlink:href="#HiraginoSans-W7-5358" transform="translate(477.299911 0)"/>
    <use xlink:href="#HiraginoSans-W7-4f4d" transform="translate(577.299896 0)"/>
    <use xlink:href="#HiraginoSans-W7-7403" transform="translate(677.299881 0)"/>
   </g>
  </g>
 </g>
 <defs>
  <clipPath id="p015f44022c">
   <rect x="36.8" y="35.061818" width="367.676364" height="367.676364"/>
  </clipPath>
  <clipPath id="p2b984b896d">
   <rect x="470.44" y="35.061818" width="367.676364" height="367.676364"/>
  </clipPath>
 </defs>
</svg>
