<?xml version="1.0" encoding="utf-8" standalone="no"?>
<!DOCTYPE svg PUBLIC "-//W3C//DTD SVG 1.1//EN"
  "http://www.w3.org/Graphics/SVG/1.1/DTD/svg11.dtd">
<svg xmlns:xlink="http://www.w3.org/1999/xlink" width="402.48pt" height="429.858187pt" viewBox="0 0 402.48 429.858187" xmlns="http://www.w3.org/2000/svg" version="1.1">
 <metadata>
  <rdf:RDF xmlns:dc="http://purl.org/dc/elements/1.1/" xmlns:cc="http://creativecommons.org/ns#" xmlns:rdf="http://www.w3.org/1999/02/22-rdf-syntax-ns#">
   <cc:Work>
    <dc:type rdf:resource="http://purl.org/dc/dcmitype/StillImage"/>
    <dc:date>2026-04-02T01:10:15.993121</dc:date>
    <dc:format>image/svg+xml</dc:format>
    <dc:creator>
     <cc:Agent>
      <dc:title>Matplotlib v3.10.8, https://matplotlib.org/</dc:title>
     </cc:Agent>
    </dc:creator>
   </cc:Work>
  </rdf:RDF>
 </metadata>
 <defs>
  <style type="text/css">*{stroke-linejoin: round; stroke-linecap: butt}</style>
 </defs>
 <g id="figure_1">
  <g id="patch_1">
   <path d="M 0 429.858187 
L 402.48 429.858187 
L 402.48 0 
L 0 0 
z
" style="fill: #ffffff"/>
  </g>
  <g id="axes_1">
   <g id="patch_2">
    <path d="M 201.24 367.247187 
C 239.835007 367.247187 276.854459 351.913229 304.14525 324.622437 
C 331.436041 297.331646 346.77 260.312195 346.77 221.717187 
C 346.77 183.12218 331.436041 146.102729 304.14525 118.811938 
C 276.854459 91.521146 239.835007 76.187187 201.24 76.187187 
C 162.644993 76.187187 125.625541 91.521146 98.33475 118.811938 
C 71.043959 146.102729 55.71 183.12218 55.71 221.717187 
C 55.71 260.312195 71.043959 297.331646 98.33475 324.622437 
C 125.625541 351.913229 162.644993 367.247187 201.24 367.247187 
z
" clip-path="url(#p1a93bcd661)" style="fill: #fff2cc; opacity: 0.4; stroke-dasharray: 5.55,2.4; stroke-dashoffset: 0; stroke: #c9a800; stroke-width: 1.5; stroke-linejoin: miter"/>
   </g>
   <g id="patch_3">
    <path d="M 201.24 318.737187 
C 226.970005 318.737187 251.649639 308.514548 269.8435 290.320687 
C 288.037361 272.126827 298.26 247.447192 298.26 221.717187 
C 298.26 195.987183 288.037361 171.307548 269.8435 153.113688 
C 251.649639 134.919827 226.970005 124.697187 201.24 124.697187 
C 175.509995 124.697187 150.830361 134.919827 132.6365 153.113688 
C 114.442639 171.307548 104.22 195.987183 104.22 221.717187 
C 104.22 247.447192 114.442639 272.126827 132.6365 290.320687 
C 150.830361 308.514548 175.509995 318.737187 201.24 318.737187 
z
" clip-path="url(#p1a93bcd661)" style="fill: #bdd7ee; opacity: 0.6; stroke-dasharray: 9.25,4; stroke-dashoffset: 0; stroke: #2e75b6; stroke-width: 2.5; stroke-linejoin: miter"/>
   </g>
   <g id="text_1">
    <!-- x -->
    <g style="fill: #c00000" transform="translate(208.5165 212.015187) scale(0.14 -0.14)">
     <defs>
      <path id="HiraginoSans-W7-78" d="M 4154 -134 
C 4006 51 3846 256 3680 480 
L 2701 1856 
L 3584 3098 
C 3680 3232 3840 3443 4006 3654 
L 2810 3654 
C 2746 3501 2650 3328 2522 3142 
L 2118 2534 
L 1709 3142 
C 1606 3296 1510 3475 1434 3654 
L 218 3654 
C 442 3373 563 3219 640 3104 
L 1530 1856 
L 538 454 
C 416 288 218 32 77 -134 
L 1312 -134 
C 1427 90 1498 205 1619 390 
L 2112 1139 
L 2598 416 
C 2720 237 2784 122 2906 -134 
L 4154 -134 
z
" transform="scale(0.015625)"/>
     </defs>
     <use xlink:href="#HiraginoSans-W7-78"/>
    </g>
   </g>
   <g id="patch_4">
    <path d="M 204.915601 221.717187 
Q 249.750286 221.717187 294.58497 221.717187 
" style="fill: none; stroke: #333333; stroke-width: 1.5; stroke-linecap: round"/>
    <path d="M 208.915601 223.717187 
L 204.915601 221.717187 
L 208.915601 219.717187 
" style="fill: none; stroke: #333333; stroke-width: 1.5; stroke-linecap: round"/>
    <path d="M 290.58497 219.717187 
L 294.58497 221.717187 
L 290.58497 223.717187 
" style="fill: none; stroke: #333333; stroke-width: 1.5; stroke-linecap: round"/>
   </g>
   <g id="text_2">
    <!-- ε -->
    <g style="fill: #333333" transform="translate(242.75 209.589687) scale(0.14 -0.14)">
     <defs>
      <path id="HiraginoSans-W7-3b5" d="M 5146 3078 
C 4947 3302 4832 3398 4634 3507 
C 4339 3674 3981 3750 3526 3750 
C 2477 3750 1766 3270 1766 2554 
C 1766 2240 1952 1958 2227 1869 
C 1978 1818 1862 1773 1715 1664 
C 1453 1472 1312 1190 1312 851 
C 1312 397 1581 19 2016 -128 
C 2304 -230 2656 -282 3014 -282 
C 3488 -282 3872 -198 4224 -19 
C 4461 102 4595 205 4851 480 
L 4141 986 
C 3770 653 3430 518 2982 518 
C 2554 518 2310 672 2310 941 
C 2310 1088 2387 1222 2522 1306 
C 2618 1370 2752 1402 2938 1402 
C 3174 1402 3482 1382 3718 1350 
L 3968 2246 
C 3763 2214 3373 2195 3104 2195 
C 2848 2195 2714 2298 2714 2502 
C 2714 2784 2995 2957 3450 2957 
C 3744 2957 3974 2906 4173 2790 
C 4282 2726 4339 2675 4454 2534 
L 5146 3078 
z
" transform="scale(0.015625)"/>
     </defs>
     <use xlink:href="#HiraginoSans-W7-3b5"/>
    </g>
   </g>
   <g id="text_3">
    <!-- （境界を含まない） -->
    <g style="fill: #2e75b6" transform="translate(303.111 209.589687) scale(0.09 -0.09)">
     <defs>
      <path id="HiraginoSans-W4-ff08" d="M 6170 -531 
C 5690 -26 5491 256 5280 698 
C 5024 1235 4902 1805 4902 2432 
C 4902 3059 5024 3629 5280 4166 
C 5491 4608 5690 4890 6170 5395 
L 5517 5395 
C 5139 4947 4966 4685 4774 4275 
C 4499 3686 4365 3085 4365 2432 
C 4365 1779 4499 1178 4774 589 
C 4966 179 5139 -83 5517 -531 
L 6170 -531 
z
" transform="scale(0.015625)"/>
      <path id="HiraginoSans-W4-5883" d="M 3142 1094 
C 3104 749 3027 582 2835 397 
C 2573 141 2202 0 1504 -102 
C 1645 -243 1709 -352 1786 -544 
C 2502 -390 2925 -179 3232 166 
C 3443 410 3526 627 3590 1094 
L 4192 1094 
L 4192 26 
C 4192 -320 4358 -403 5075 -403 
C 5619 -403 5798 -378 5926 -269 
C 6074 -147 6131 51 6176 614 
C 5978 659 5888 698 5722 794 
C 5715 442 5690 205 5645 128 
C 5600 58 5491 32 5171 32 
C 4710 32 4653 51 4653 173 
L 4653 1094 
L 5158 1094 
C 5382 1094 5523 1088 5683 1075 
C 5664 1197 5658 1338 5658 1562 
L 5658 2579 
C 5658 2822 5664 2970 5683 3091 
C 5523 3072 5357 3066 5082 3066 
L 3014 3066 
C 2733 3066 2554 3072 2394 3091 
C 2413 2963 2419 2810 2419 2592 
L 2419 1523 
C 2419 1306 2413 1184 2394 1075 
C 2643 1088 2752 1094 2944 1094 
L 3142 1094 
z
M 2867 2682 
L 5210 2682 
L 5210 2285 
L 2867 2285 
L 2867 2682 
z
M 2867 1907 
L 5210 1907 
L 5210 1466 
L 2867 1466 
L 2867 1907 
z
M 1018 3648 
L 838 3648 
C 614 3648 461 3654 288 3680 
L 288 3181 
C 467 3200 634 3213 826 3213 
L 1018 3213 
L 1018 1261 
C 589 1094 403 1030 224 1005 
L 346 474 
C 429 518 525 563 614 595 
C 1338 890 1709 1056 2182 1293 
L 2157 1766 
C 1837 1613 1734 1562 1485 1453 
L 1485 3213 
L 1549 3213 
C 1760 3213 1888 3206 2042 3187 
L 2042 3667 
C 1882 3654 1779 3648 1549 3648 
L 1485 3648 
L 1485 4557 
C 1485 4877 1498 5069 1523 5267 
L 979 5267 
C 1005 5082 1018 4858 1018 4563 
L 1018 3648 
z
M 4262 4787 
L 4262 4954 
C 4262 5126 4269 5235 4294 5363 
L 3750 5363 
C 3776 5235 3782 5120 3782 4954 
L 3782 4787 
L 2918 4787 
C 2637 4787 2464 4794 2272 4819 
L 2272 4378 
C 2445 4397 2586 4403 2835 4403 
L 2880 4403 
C 2989 4198 3046 4045 3123 3814 
L 2758 3814 
C 2490 3814 2355 3821 2163 3840 
L 2163 3386 
C 2342 3405 2483 3411 2771 3411 
L 5414 3411 
C 5715 3411 5862 3405 6067 3379 
L 6067 3846 
C 5882 3821 5754 3814 5434 3814 
L 4928 3814 
C 5037 4006 5094 4134 5210 4403 
L 5248 4403 
C 5530 4403 5715 4397 5901 4378 
L 5901 4819 
C 5722 4800 5523 4787 5248 4787 
L 4262 4787 
z
M 3590 3814 
C 3514 4038 3437 4237 3354 4403 
L 4730 4403 
C 4653 4198 4570 4013 4454 3814 
L 3590 3814 
z
" transform="scale(0.015625)"/>
      <path id="HiraginoSans-W4-754c" d="M 2227 2566 
C 1798 2035 1139 1658 243 1414 
C 390 1229 422 1178 518 966 
C 1235 1235 1658 1466 2125 1837 
C 2144 1715 2144 1664 2144 1549 
C 2144 627 1798 262 557 -109 
C 794 -397 794 -397 877 -544 
C 1536 -314 1901 -102 2182 205 
C 2470 525 2605 915 2637 1555 
C 2643 1709 2650 1766 2662 1837 
L 2131 1843 
C 2432 2093 2586 2259 2810 2566 
L 3584 2566 
C 3840 2246 3987 2093 4294 1850 
L 3872 1850 
C 3898 1709 3904 1613 3904 1350 
L 3904 173 
C 3904 -128 3891 -314 3866 -493 
L 4442 -493 
C 4416 -294 4403 -102 4403 173 
L 4403 1402 
C 4403 1562 4410 1632 4422 1754 
C 4838 1440 5274 1222 5952 979 
C 6029 1184 6086 1286 6208 1459 
C 5306 1677 4634 2042 4160 2566 
L 4902 2566 
C 5146 2566 5331 2560 5530 2541 
C 5510 2720 5504 2867 5504 3155 
L 5504 4493 
C 5504 4800 5510 4947 5530 5133 
C 5338 5107 5158 5101 4896 5101 
L 1542 5101 
C 1280 5101 1094 5107 909 5133 
C 928 4941 934 4781 934 4493 
L 934 3155 
C 934 2886 928 2720 909 2541 
C 1107 2560 1286 2566 1530 2566 
L 2227 2566 
z
M 1408 4691 
L 2957 4691 
L 2957 4026 
L 1408 4026 
L 1408 4691 
z
M 1408 3629 
L 2957 3629 
L 2957 2950 
L 1408 2950 
L 1408 3629 
z
M 3411 4691 
L 5030 4691 
L 5030 4026 
L 3411 4026 
L 3411 4691 
z
M 3411 3629 
L 5030 3629 
L 5030 2950 
L 3411 2950 
L 3411 3629 
z
" transform="scale(0.015625)"/>
      <path id="HiraginoSans-W4-3092" d="M 2189 4365 
C 1491 4365 1088 4390 813 4442 
L 800 3917 
C 864 3930 902 3930 934 3930 
C 966 3930 998 3930 1062 3923 
C 1197 3917 1830 3904 1958 3904 
C 1984 3904 2054 3910 2074 3910 
C 2035 3840 2035 3840 2016 3808 
C 1581 3046 1037 2362 614 2042 
L 1037 1619 
C 1152 1798 1293 1952 1549 2163 
C 2054 2598 2547 2835 2938 2835 
C 3226 2835 3373 2694 3411 2381 
C 2982 2189 2707 2042 2470 1869 
C 2016 1542 1792 1197 1792 832 
C 1792 499 1952 218 2227 64 
C 2534 -109 2944 -186 3539 -186 
C 4058 -186 4646 -141 5133 -64 
C 5267 -38 5293 -38 5395 -32 
L 5338 557 
C 4954 403 4250 301 3597 301 
C 2694 301 2330 467 2330 870 
C 2330 1088 2445 1267 2707 1472 
C 2874 1600 3085 1715 3475 1894 
C 3475 1818 3475 1798 3475 1696 
C 3475 1350 3456 973 3437 845 
L 3962 851 
C 3949 954 3949 1005 3949 1114 
C 3949 1165 3949 1254 3949 1376 
C 3955 1504 3955 1638 3955 1709 
C 3955 1850 3955 1869 3949 2080 
C 4800 2406 5299 2566 5645 2624 
L 5414 3149 
C 5312 3085 5293 3078 4966 2963 
C 4653 2854 4390 2758 3891 2566 
C 3802 3027 3507 3264 3027 3264 
C 2726 3264 2413 3174 2144 3002 
C 2080 2963 2042 2938 1926 2842 
C 1907 2829 1875 2810 1837 2778 
C 1837 2778 1830 2784 1824 2797 
C 1830 2803 1830 2803 1837 2810 
C 1837 2816 1862 2835 1901 2861 
C 1920 2874 2054 3021 2106 3098 
C 2310 3354 2438 3565 2624 3910 
C 3251 3930 4070 3987 4512 4045 
C 4883 4096 4883 4096 5005 4109 
L 4966 4621 
C 4627 4518 4032 4442 3238 4397 
C 2880 4378 2880 4378 2835 4371 
C 2874 4435 2944 4595 3027 4800 
C 3130 5050 3130 5050 3181 5126 
L 2579 5216 
C 2560 5011 2490 4813 2291 4365 
L 2189 4365 
z
" transform="scale(0.015625)"/>
      <path id="HiraginoSans-W4-542b" d="M 2080 3386 
C 2234 3405 2387 3411 2624 3411 
L 3827 3411 
C 4070 3411 4205 3405 4365 3386 
L 4365 3814 
C 4902 3430 5331 3181 5939 2912 
C 6035 3098 6112 3219 6246 3366 
C 5734 3546 5344 3738 4864 4045 
C 4230 4448 3853 4781 3437 5312 
L 2912 5312 
C 2304 4474 1357 3782 186 3328 
C 352 3155 390 3104 506 2893 
C 1088 3168 1536 3430 2080 3834 
L 2080 3386 
z
M 2618 3821 
C 2368 3821 2253 3827 2099 3846 
C 2502 4154 2778 4422 3181 4896 
C 3546 4474 3846 4192 4320 3846 
C 4192 3827 4058 3821 3834 3821 
L 2618 3821 
z
M 4064 1683 
L 4947 2458 
C 5107 2598 5107 2598 5120 2605 
C 5171 2650 5171 2650 5197 2669 
L 4896 2963 
C 4781 2944 4646 2938 4378 2938 
L 1651 2938 
C 1421 2938 1261 2944 1107 2970 
L 1107 2483 
C 1280 2509 1466 2515 1702 2515 
L 4378 2515 
L 3411 1683 
L 1562 1683 
C 1376 1683 1242 1690 1088 1709 
C 1107 1549 1120 1408 1120 1216 
L 1120 58 
C 1120 -134 1107 -294 1082 -486 
L 1606 -486 
L 1606 -198 
L 4819 -198 
L 4819 -486 
L 5344 -486 
C 5318 -314 5312 -141 5312 51 
L 5312 1203 
C 5312 1408 5318 1542 5338 1709 
C 5197 1690 5069 1683 4870 1683 
L 4064 1683 
z
M 1606 1254 
L 4819 1254 
L 4819 237 
L 1606 237 
L 1606 1254 
z
" transform="scale(0.015625)"/>
      <path id="HiraginoSans-W4-307e" d="M 5651 563 
C 5562 614 5536 640 5427 710 
C 4749 1197 4256 1453 3648 1638 
C 3635 1901 3635 1901 3616 2554 
C 3949 2573 4518 2624 4768 2662 
C 5261 2733 5280 2739 5389 2746 
L 5363 3264 
C 4998 3149 4371 3059 3610 3014 
C 3603 3366 3597 3462 3597 3808 
C 4179 3840 4499 3872 5050 3949 
C 5389 4000 5389 4000 5510 4006 
L 5485 4525 
C 5107 4403 4442 4314 3597 4269 
C 3603 4755 3616 4986 3642 5133 
L 3066 5133 
C 3091 4986 3091 4986 3098 4250 
C 2906 4243 2682 4237 2560 4237 
C 1850 4237 1203 4288 896 4365 
L 890 3846 
C 928 3853 960 3853 979 3853 
C 1005 3853 1050 3853 1107 3846 
C 1562 3814 2266 3782 2650 3782 
C 2771 3782 2880 3782 3098 3789 
C 3098 3686 3104 3622 3110 2989 
C 2893 2982 2701 2976 2554 2976 
C 1914 2976 1363 3014 1075 3078 
L 1069 2579 
C 1094 2579 1114 2579 1126 2579 
C 1165 2579 1216 2579 1293 2573 
C 1702 2534 2016 2522 2394 2522 
C 2554 2522 2778 2528 3117 2534 
C 3136 1875 3136 1875 3149 1722 
C 2963 1747 2803 1760 2586 1760 
C 1600 1760 1005 1382 1005 755 
C 1005 192 1510 -160 2317 -160 
C 2925 -160 3354 0 3520 294 
C 3616 461 3674 704 3674 954 
C 3674 1011 3674 1043 3667 1120 
C 3898 1024 3898 1024 4038 954 
C 4576 685 5043 352 5344 32 
L 5651 563 
z
M 3155 1242 
C 3155 1242 3162 1075 3162 1024 
C 3162 755 3123 595 3034 499 
C 2918 371 2682 301 2355 301 
C 1843 301 1536 474 1536 768 
C 1536 870 1574 973 1638 1037 
C 1798 1203 2138 1306 2528 1306 
C 2790 1306 2912 1293 3155 1242 
z
" transform="scale(0.015625)"/>
      <path id="HiraginoSans-W4-306a" d="M 2074 5229 
C 2054 4941 1971 4454 1862 4051 
C 1760 4045 1594 4045 1421 4045 
C 1062 4045 870 4058 646 4096 
L 646 3571 
C 678 3571 704 3571 717 3571 
C 755 3571 806 3571 870 3571 
C 1062 3565 1114 3565 1267 3565 
C 1536 3565 1562 3565 1728 3571 
C 1434 2586 922 1530 467 954 
L 986 653 
C 1018 710 1056 781 1114 877 
C 1357 1306 1414 1414 1568 1722 
C 1850 2310 2080 2925 2272 3590 
C 2707 3622 3072 3674 3315 3718 
C 3462 3744 3462 3744 3533 3750 
L 3514 4282 
C 3238 4192 2835 4122 2406 4083 
C 2483 4384 2522 4525 2566 4742 
C 2624 5018 2624 5037 2662 5152 
L 2074 5229 
z
M 5933 3488 
C 5408 3827 4954 4051 4211 4339 
L 3936 3904 
C 4627 3654 5133 3398 5670 3027 
L 5933 3488 
z
M 5939 640 
C 5901 672 5901 672 5843 717 
C 5786 774 5760 794 5664 870 
C 5280 1171 5050 1299 4576 1510 
C 4538 1792 4506 2182 4506 2451 
C 4506 2694 4525 2822 4595 3066 
L 4070 3110 
C 4026 2893 4006 2726 4006 2515 
C 4006 2304 4026 1958 4051 1645 
C 3782 1709 3622 1728 3405 1728 
C 2618 1728 2067 1312 2067 717 
C 2067 333 2304 6 2682 -122 
C 2886 -198 3142 -237 3379 -237 
C 3827 -237 4198 -96 4390 147 
C 4518 307 4602 563 4602 806 
C 4602 858 4602 890 4589 973 
C 5037 730 5434 422 5670 128 
L 5939 640 
z
M 4077 1152 
C 4083 1152 4096 966 4096 896 
C 4096 454 3853 243 3347 243 
C 2867 243 2579 429 2579 736 
C 2579 1062 2899 1274 3405 1274 
C 3648 1274 3821 1242 4077 1152 
z
" transform="scale(0.015625)"/>
      <path id="HiraginoSans-W4-3044" d="M 819 4576 
C 832 4454 832 4429 838 4192 
C 870 2592 960 1805 1178 1165 
C 1395 518 1754 134 2144 134 
C 2630 134 2931 576 3258 1741 
C 3040 1907 2970 1978 2810 2170 
C 2733 1734 2624 1389 2477 1056 
C 2387 851 2278 749 2170 749 
C 1939 749 1696 1178 1562 1837 
C 1472 2246 1408 3091 1408 3763 
C 1408 4122 1421 4358 1453 4570 
L 819 4576 
z
M 4058 4013 
C 4813 3130 5280 1984 5382 781 
L 5933 998 
C 5728 2349 5325 3290 4525 4243 
L 4058 4013 
z
" transform="scale(0.015625)"/>
      <path id="HiraginoSans-W4-ff09" d="M 890 -531 
C 1261 -83 1434 179 1626 589 
C 1901 1178 2035 1773 2035 2432 
C 2035 3091 1901 3686 1626 4275 
C 1434 4685 1261 4947 890 5395 
L 230 5395 
C 710 4890 909 4608 1120 4166 
C 1376 3629 1498 3072 1498 2432 
C 1498 1792 1376 1235 1120 698 
C 909 256 710 -26 230 -531 
L 890 -531 
z
" transform="scale(0.015625)"/>
     </defs>
     <use xlink:href="#HiraginoSans-W4-ff08"/>
     <use xlink:href="#HiraginoSans-W4-5883" transform="translate(99.999985 0)"/>
     <use xlink:href="#HiraginoSans-W4-754c" transform="translate(199.999969 0)"/>
     <use xlink:href="#HiraginoSans-W4-3092" transform="translate(299.999954 0)"/>
     <use xlink:href="#HiraginoSans-W4-542b" transform="translate(399.999939 0)"/>
     <use xlink:href="#HiraginoSans-W4-307e" transform="translate(499.999924 0)"/>
     <use xlink:href="#HiraginoSans-W4-306a" transform="translate(599.999908 0)"/>
     <use xlink:href="#HiraginoSans-W4-3044" transform="translate(699.999893 0)"/>
     <use xlink:href="#HiraginoSans-W4-ff09" transform="translate(799.999878 0)"/>
    </g>
   </g>
   <g id="text_4">
    <g id="patch_5">
     <path d="M 133.787656 397.112187 
L 268.692344 397.112187 
Q 271.992344 397.112187 271.992344 393.812187 
L 271.992344 382.8775 
Q 271.992344 379.5775 268.692344 379.5775 
L 133.787656 379.5775 
Q 130.487656 379.5775 130.487656 382.8775 
L 130.487656 393.812187 
Q 130.487656 397.112187 133.787656 397.112187 
z
" style="fill: #deeaf1; stroke: #2e75b6; stroke-linejoin: miter"/>
    </g>
    <!-- B(x, ε) = {y | d(x,y) &lt; ε} -->
    <g transform="translate(133.787656 391.502187) scale(0.11 -0.11)">
     <defs>
      <path id="HiraginoSans-W4-42" d="M 1216 4934 
C 838 4934 672 4941 486 4947 
C 525 4710 538 4518 538 4237 
L 538 794 
C 538 410 525 250 480 -13 
C 717 0 896 0 1216 0 
L 2694 0 
C 3699 0 4269 493 4269 1363 
C 4269 1773 4134 2099 3878 2330 
C 3706 2483 3558 2547 3251 2605 
C 3507 2688 3616 2746 3750 2867 
C 3981 3078 4096 3360 4096 3731 
C 4096 4506 3565 4934 2624 4934 
L 1216 4934 
z
M 1133 2848 
L 1133 4416 
L 2586 4416 
C 3181 4416 3488 4160 3488 3667 
C 3488 3142 3162 2848 2592 2848 
L 1133 2848 
z
M 1133 2336 
L 2611 2336 
C 3296 2336 3648 2022 3648 1421 
C 3648 832 3290 518 2630 518 
L 1133 518 
L 1133 2336 
z
" transform="scale(0.015625)"/>
      <path id="HiraginoSans-W4-28" d="M 2195 -749 
C 1830 -198 1683 90 1542 538 
C 1402 986 1331 1472 1331 1978 
C 1331 2483 1402 2963 1542 3411 
C 1683 3859 1830 4147 2195 4698 
L 1715 5018 
C 1350 4461 1197 4173 1037 3712 
C 838 3155 742 2579 742 1978 
C 742 1376 838 794 1037 243 
C 1197 -218 1350 -512 1715 -1062 
L 2195 -749 
z
" transform="scale(0.015625)"/>
      <path id="HiraginoSans-W4-78" d="M 3469 0 
C 3238 294 3078 512 3008 614 
L 2138 1824 
L 2963 2982 
C 3021 3072 3168 3270 3206 3322 
C 3315 3462 3315 3462 3354 3520 
L 2630 3520 
C 2566 3386 2483 3238 2368 3072 
L 1792 2227 
L 1203 3072 
C 1088 3238 1024 3360 947 3520 
L 211 3520 
C 474 3174 557 3072 608 3002 
L 1440 1830 
L 531 563 
C 422 410 237 160 109 0 
L 858 0 
C 966 205 1018 294 1114 435 
L 1786 1421 
L 2426 486 
C 2566 288 2624 192 2720 0 
L 3469 0 
z
" transform="scale(0.015625)"/>
      <path id="HiraginoSans-W4-2c" d="M 1165 723 
L 435 723 
L 435 0 
L 858 0 
C 851 -403 800 -499 493 -614 
L 685 -864 
C 1062 -672 1165 -493 1165 0 
L 1165 723 
z
" transform="scale(0.015625)"/>
      <path id="HiraginoSans-W4-20" transform="scale(0.015625)"/>
      <path id="HiraginoSans-W4-3b5" d="M 4800 2976 
C 4506 3386 4096 3571 3475 3571 
C 2592 3571 1978 3136 1978 2509 
C 1978 2195 2106 1984 2387 1850 
C 2144 1773 2022 1709 1894 1587 
C 1696 1402 1594 1152 1594 858 
C 1594 570 1715 320 1946 134 
C 2157 -26 2541 -122 2982 -122 
C 3424 -122 3795 -26 4096 166 
C 4256 269 4352 365 4525 576 
L 4045 845 
C 3770 518 3418 358 2970 358 
C 2464 358 2170 570 2170 922 
C 2170 1094 2253 1274 2387 1395 
C 2541 1523 2720 1574 3027 1574 
C 3264 1574 3488 1555 3686 1523 
L 3840 2099 
C 3654 2074 3392 2054 3123 2054 
C 2886 2054 2771 2080 2675 2163 
C 2586 2234 2534 2355 2534 2483 
C 2534 2854 2893 3098 3437 3098 
C 3891 3098 4154 2976 4352 2675 
L 4800 2976 
z
" transform="scale(0.015625)"/>
      <path id="HiraginoSans-W4-29" d="M 653 -1062 
C 1018 -512 1171 -218 1331 243 
C 1530 794 1626 1370 1626 1978 
C 1626 2579 1530 3155 1331 3712 
C 1171 4173 1018 4461 653 5018 
L 173 4698 
C 538 4147 685 3859 826 3411 
C 966 2963 1037 2490 1037 1978 
C 1037 1466 966 986 826 538 
C 685 90 538 -198 173 -749 
L 653 -1062 
z
" transform="scale(0.015625)"/>
      <path id="HiraginoSans-W4-3d" d="M 333 2720 
L 333 2195 
L 3923 2195 
L 3923 2720 
L 333 2720 
z
M 333 1376 
L 333 851 
L 3923 851 
L 3923 1376 
L 333 1376 
z
" transform="scale(0.015625)"/>
      <path id="HiraginoSans-W4-7b" d="M 557 1747 
C 845 1690 902 1568 902 979 
L 902 -173 
C 902 -685 1210 -979 1754 -979 
L 2195 -979 
L 2195 -480 
L 1990 -480 
C 1594 -480 1472 -371 1472 -13 
L 1472 909 
C 1472 1702 1427 1837 1139 1978 
C 1427 2125 1472 2259 1472 3046 
L 1472 3968 
C 1472 4326 1594 4435 1990 4435 
L 2195 4435 
L 2195 4934 
L 1754 4934 
C 1210 4934 902 4640 902 4128 
L 902 2976 
C 902 2387 845 2266 557 2208 
L 557 1747 
z
" transform="scale(0.015625)"/>
      <path id="HiraginoSans-W4-79" d="M 1600 154 
L 1325 -486 
C 1229 -710 1069 -832 858 -832 
C 730 -832 621 -800 442 -717 
L 301 -1274 
C 550 -1325 710 -1344 864 -1344 
C 1357 -1344 1664 -1146 1843 -717 
L 3283 2758 
C 3462 3181 3571 3437 3603 3520 
L 2912 3520 
C 2880 3334 2829 3168 2694 2816 
L 1901 768 
L 1011 2822 
C 902 3072 819 3341 787 3520 
L 64 3520 
C 134 3386 134 3386 422 2758 
L 1600 154 
z
" transform="scale(0.015625)"/>
      <path id="HiraginoSans-W4-7c" d="M 966 4934 
L 966 -1312 
L 1530 -1312 
L 1530 4934 
L 966 4934 
z
" transform="scale(0.015625)"/>
      <path id="HiraginoSans-W4-64" d="M 3187 0 
L 3802 0 
C 3770 250 3757 442 3757 774 
L 3757 4173 
C 3757 4467 3770 4666 3802 4934 
L 3142 4934 
C 3174 4691 3187 4486 3187 4173 
L 3187 3398 
C 3187 3296 3187 3194 3194 3149 
C 3200 3040 3200 3040 3206 2970 
C 2918 3379 2470 3597 1901 3597 
C 909 3597 282 2886 282 1766 
C 282 1171 461 672 794 339 
C 1069 70 1446 -64 1914 -64 
C 2483 -64 2880 128 3206 563 
C 3200 480 3187 365 3187 288 
L 3187 0 
z
M 1971 3098 
C 2310 3098 2618 2976 2842 2752 
C 3059 2541 3181 2189 3181 1786 
C 3181 966 2707 429 1978 429 
C 1709 429 1459 512 1274 672 
C 1024 890 883 1280 883 1786 
C 883 2598 1293 3098 1971 3098 
z
" transform="scale(0.015625)"/>
      <path id="HiraginoSans-W4-3c" d="M 928 1786 
L 3136 3027 
L 3136 3642 
L 122 1901 
L 122 1677 
L 3136 -64 
L 3136 550 
L 928 1786 
z
" transform="scale(0.015625)"/>
      <path id="HiraginoSans-W4-7d" d="M 1779 2208 
C 1491 2266 1434 2387 1434 2976 
L 1434 4128 
C 1434 4640 1126 4934 582 4934 
L 141 4934 
L 141 4435 
L 346 4435 
C 742 4435 864 4320 864 3968 
L 864 3046 
C 864 2259 909 2118 1197 1978 
C 909 1837 864 1702 864 909 
L 864 -13 
C 864 -371 742 -480 346 -480 
L 141 -480 
L 141 -979 
L 582 -979 
C 1126 -979 1434 -685 1434 -173 
L 1434 979 
C 1434 1562 1491 1690 1779 1747 
L 1779 2208 
z
" transform="scale(0.015625)"/>
     </defs>
     <use xlink:href="#HiraginoSans-W4-42"/>
     <use xlink:href="#HiraginoSans-W4-28" transform="translate(72.099991 0)"/>
     <use xlink:href="#HiraginoSans-W4-78" transform="translate(109.099976 0)"/>
     <use xlink:href="#HiraginoSans-W4-2c" transform="translate(164.999969 0)"/>
     <use xlink:href="#HiraginoSans-W4-20" transform="translate(189.999954 0)"/>
     <use xlink:href="#HiraginoSans-W4-3b5" transform="translate(223.299942 0)"/>
     <use xlink:href="#HiraginoSans-W4-29" transform="translate(323.299927 0)"/>
     <use xlink:href="#HiraginoSans-W4-20" transform="translate(360.299911 0)"/>
     <use xlink:href="#HiraginoSans-W4-3d" transform="translate(393.599899 0)"/>
     <use xlink:href="#HiraginoSans-W4-20" transform="translate(459.999893 0)"/>
     <use xlink:href="#HiraginoSans-W4-7b" transform="translate(493.299881 0)"/>
     <use xlink:href="#HiraginoSans-W4-79" transform="translate(529.799866 0)"/>
     <use xlink:href="#HiraginoSans-W4-20" transform="translate(587.19986 0)"/>
     <use xlink:href="#HiraginoSans-W4-7c" transform="translate(620.499847 0)"/>
     <use xlink:href="#HiraginoSans-W4-20" transform="translate(659.399841 0)"/>
     <use xlink:href="#HiraginoSans-W4-64" transform="translate(692.699829 0)"/>
     <use xlink:href="#HiraginoSans-W4-28" transform="translate(758.999817 0)"/>
     <use xlink:href="#HiraginoSans-W4-78" transform="translate(795.999802 0)"/>
     <use xlink:href="#HiraginoSans-W4-2c" transform="translate(851.899796 0)"/>
     <use xlink:href="#HiraginoSans-W4-79" transform="translate(876.89978 0)"/>
     <use xlink:href="#HiraginoSans-W4-29" transform="translate(934.299774 0)"/>
     <use xlink:href="#HiraginoSans-W4-20" transform="translate(971.299759 0)"/>
     <use xlink:href="#HiraginoSans-W4-3c" transform="translate(1004.599747 0)"/>
     <use xlink:href="#HiraginoSans-W4-20" transform="translate(1056.599731 0)"/>
     <use xlink:href="#HiraginoSans-W4-3b5" transform="translate(1089.899719 0)"/>
     <use xlink:href="#HiraginoSans-W4-7d" transform="translate(1189.899704 0)"/>
    </g>
   </g>
   <g id="text_5">
    <!-- （境界を含まない = 開集合） -->
    <g style="fill: #1f4e79" transform="translate(134.59 420.608187) scale(0.1 -0.1)">
     <defs>
      <path id="HiraginoSans-W4-958b" d="M 2342 2349 
C 2342 2022 2336 1920 2317 1613 
L 2118 1613 
C 1811 1613 1651 1619 1485 1645 
L 1485 1197 
C 1658 1222 1818 1229 2118 1229 
L 2285 1229 
C 2208 659 2016 339 1510 -38 
C 1677 -134 1766 -211 1888 -352 
C 2426 115 2630 512 2714 1229 
L 3610 1229 
L 3610 256 
C 3610 -13 3603 -160 3578 -294 
L 4077 -294 
C 4051 -173 4045 -32 4045 250 
L 4045 1229 
L 4301 1229 
C 4589 1229 4755 1222 4928 1197 
L 4928 1645 
C 4762 1619 4602 1613 4301 1613 
L 4045 1613 
L 4045 2349 
L 4218 2349 
C 4493 2349 4672 2342 4832 2323 
L 4832 2758 
C 4646 2733 4506 2726 4205 2726 
L 2227 2726 
C 1926 2726 1792 2733 1606 2758 
L 1606 2323 
C 1766 2342 1946 2349 2221 2349 
L 2342 2349 
z
M 3610 2349 
L 3610 1613 
L 2752 1613 
C 2771 1933 2771 1990 2771 2349 
L 3610 2349 
z
M 1062 3174 
L 2278 3174 
C 2554 3174 2726 3168 2912 3155 
C 2899 3322 2893 3475 2893 3744 
L 2893 4582 
C 2893 4826 2899 5005 2912 5190 
C 2733 5171 2579 5165 2259 5165 
L 1229 5165 
C 902 5165 736 5171 563 5190 
C 582 4986 589 4800 589 4480 
L 589 275 
C 589 -90 576 -288 550 -467 
L 1101 -467 
C 1075 -301 1062 -90 1062 269 
L 1062 3174 
z
M 1062 4800 
L 2451 4800 
L 2451 4358 
L 1062 4358 
L 1062 4800 
z
M 1062 4000 
L 2451 4000 
L 2451 3539 
L 1062 3539 
L 1062 4000 
z
M 5830 4480 
C 5830 4774 5837 4960 5862 5190 
C 5683 5171 5523 5165 5190 5165 
L 4090 5165 
C 3763 5165 3610 5171 3437 5190 
C 3450 4986 3456 4813 3456 4582 
L 3456 3744 
C 3456 3482 3450 3322 3437 3155 
C 3616 3168 3814 3174 4070 3174 
L 5357 3174 
L 5357 250 
C 5357 102 5312 70 5126 70 
C 4954 70 4672 96 4435 134 
C 4518 -45 4544 -154 4570 -352 
C 4851 -365 5011 -371 5152 -371 
C 5677 -371 5830 -243 5830 211 
L 5830 4480 
z
M 3898 4800 
L 5357 4800 
L 5357 4358 
L 3898 4358 
L 3898 4800 
z
M 3898 4000 
L 5357 4000 
L 5357 3539 
L 3898 3539 
L 3898 4000 
z
" transform="scale(0.015625)"/>
      <path id="HiraginoSans-W4-96c6" d="M 3526 2778 
L 4864 2778 
C 5165 2778 5299 2771 5453 2746 
L 5453 3174 
C 5254 3149 5146 3142 4864 3142 
L 3526 3142 
L 3526 3565 
L 4864 3565 
C 5165 3565 5280 3558 5453 3533 
L 5453 3962 
C 5261 3936 5139 3930 4864 3930 
L 3526 3930 
L 3526 4352 
L 5190 4352 
C 5446 4352 5574 4346 5734 4326 
L 5734 4774 
C 5555 4749 5421 4742 5139 4742 
L 3584 4742 
C 3693 4890 3802 5056 3962 5338 
L 3450 5434 
C 3373 5184 3277 5005 3085 4742 
L 1766 4742 
C 1837 4832 1971 5030 2176 5338 
L 1645 5446 
C 1600 5306 1523 5158 1427 5005 
C 1094 4486 723 4109 205 3744 
C 339 3597 384 3539 486 3341 
C 781 3571 941 3725 1158 3974 
C 1139 3789 1133 3584 1133 3366 
L 1133 2374 
C 1133 2195 1126 2042 1114 1920 
C 1242 1933 1338 1933 1581 1933 
L 2950 1933 
L 2950 1498 
L 1069 1498 
C 704 1498 531 1504 365 1536 
L 365 1050 
C 576 1075 774 1088 1069 1088 
L 2554 1088 
C 2330 890 2093 730 1766 563 
C 1299 326 877 192 262 83 
C 403 -77 467 -186 550 -378 
C 1005 -262 1389 -122 1741 45 
C 2253 294 2598 531 2970 915 
C 2957 819 2950 557 2950 448 
L 2950 -19 
C 2950 -237 2938 -346 2912 -486 
L 3456 -486 
C 3424 -365 3418 -275 3418 -13 
L 3418 448 
C 3418 576 3411 678 3398 922 
C 3789 544 4051 358 4486 128 
C 4915 -96 5286 -243 5843 -403 
C 5946 -179 5990 -109 6125 64 
C 5197 250 4384 608 3802 1088 
L 5325 1088 
C 5626 1088 5830 1075 6048 1050 
L 6048 1536 
C 5875 1504 5696 1498 5325 1498 
L 3418 1498 
L 3418 1933 
L 5165 1933 
C 5453 1933 5581 1926 5760 1901 
L 5760 2336 
C 5587 2310 5446 2304 5165 2304 
L 3526 2304 
L 3526 2778 
z
M 3078 2778 
L 3078 2304 
L 1600 2304 
L 1600 2778 
L 3078 2778 
z
M 3078 3142 
L 1600 3142 
L 1600 3565 
L 3078 3565 
L 3078 3142 
z
M 3078 3930 
L 1600 3930 
L 1600 4352 
L 3078 4352 
L 3078 3930 
z
" transform="scale(0.015625)"/>
      <path id="HiraginoSans-W4-5408" d="M 1677 2899 
C 1824 2918 1990 2925 2189 2925 
L 4186 2925 
C 4429 2925 4595 2918 4736 2899 
L 4736 3411 
C 5178 3104 5498 2918 5958 2701 
C 6042 2899 6112 3014 6234 3187 
C 5626 3424 5056 3750 4518 4186 
C 4019 4582 3731 4890 3456 5318 
L 2893 5318 
C 2630 4883 2381 4595 1926 4211 
C 1402 3763 832 3424 198 3162 
C 358 2989 422 2893 493 2720 
C 966 2938 1203 3078 1677 3398 
L 1677 2899 
z
M 2195 3386 
C 1971 3386 1811 3392 1690 3411 
C 2355 3878 2733 4256 3187 4890 
C 3597 4320 4032 3898 4730 3411 
C 4595 3392 4435 3386 4186 3386 
L 2195 3386 
z
M 1690 -435 
L 1690 -77 
L 4698 -77 
L 4698 -435 
L 5242 -435 
C 5216 -243 5203 -58 5203 205 
L 5203 1645 
C 5203 1901 5210 2067 5235 2240 
C 5101 2221 4960 2214 4723 2214 
L 1664 2214 
C 1427 2214 1286 2221 1152 2240 
C 1178 2061 1184 1888 1184 1645 
L 1184 205 
C 1184 -51 1171 -230 1146 -435 
L 1690 -435 
z
M 1690 1766 
L 4698 1766 
L 4698 371 
L 1690 371 
L 1690 1766 
z
" transform="scale(0.015625)"/>
     </defs>
     <use xlink:href="#HiraginoSans-W4-ff08"/>
     <use xlink:href="#HiraginoSans-W4-5883" transform="translate(99.999985 0)"/>
     <use xlink:href="#HiraginoSans-W4-754c" transform="translate(199.999969 0)"/>
     <use xlink:href="#HiraginoSans-W4-3092" transform="translate(299.999954 0)"/>
     <use xlink:href="#HiraginoSans-W4-542b" transform="translate(399.999939 0)"/>
     <use xlink:href="#HiraginoSans-W4-307e" transform="translate(499.999924 0)"/>
     <use xlink:href="#HiraginoSans-W4-306a" transform="translate(599.999908 0)"/>
     <use xlink:href="#HiraginoSans-W4-3044" transform="translate(699.999893 0)"/>
     <use xlink:href="#HiraginoSans-W4-20" transform="translate(799.999878 0)"/>
     <use xlink:href="#HiraginoSans-W4-3d" transform="translate(833.299866 0)"/>
     <use xlink:href="#HiraginoSans-W4-20" transform="translate(899.69986 0)"/>
     <use xlink:href="#HiraginoSans-W4-958b" transform="translate(932.999847 0)"/>
     <use xlink:href="#HiraginoSans-W4-96c6" transform="translate(1032.999832 0)"/>
     <use xlink:href="#HiraginoSans-W4-5408" transform="translate(1132.999817 0)"/>
     <use xlink:href="#HiraginoSans-W4-ff09" transform="translate(1232.999802 0)"/>
    </g>
   </g>
   <g id="text_6">
    <!-- ε-近傍と開球 B(x, ε) -->
    <g transform="translate(134.232109 17.677188) scale(0.13 -0.13)">
     <defs>
      <path id="HiraginoSans-W4-2d" d="M 192 1581 
C 384 1606 525 1613 781 1613 
L 1606 1613 
C 1875 1613 2010 1606 2202 1581 
L 2202 2202 
C 2022 2176 1882 2170 1606 2170 
L 781 2170 
C 512 2170 371 2176 192 2202 
L 192 1581 
z
" transform="scale(0.015625)"/>
      <path id="HiraginoSans-W4-8fd1" d="M 4506 3034 
L 4506 1094 
C 4506 774 4493 602 4467 442 
L 5030 442 
C 5005 595 4992 794 4992 1094 
L 4992 3034 
L 5466 3034 
C 5709 3034 5869 3027 6054 3002 
L 6054 3520 
C 5882 3494 5734 3488 5459 3488 
L 3219 3488 
C 3219 3539 3219 3539 3219 3642 
L 3219 4269 
C 3936 4352 4480 4461 5082 4627 
C 5357 4698 5357 4698 5843 4883 
L 5440 5318 
C 5280 5203 5075 5120 4659 5005 
C 4045 4832 3232 4691 2848 4691 
C 2842 4691 2822 4691 2790 4691 
C 2771 4691 2746 4691 2714 4691 
C 2733 4518 2739 4288 2739 3949 
C 2739 2125 2611 1485 2138 902 
C 2310 794 2381 723 2534 544 
C 2989 1158 3162 1786 3206 3034 
L 4506 3034 
z
M 512 4838 
C 954 4435 1165 4198 1555 3648 
L 1939 4000 
C 1562 4499 1299 4781 877 5165 
L 512 4838 
z
M 346 2285 
C 506 2310 614 2317 813 2317 
L 1318 2317 
L 1318 890 
C 960 544 557 243 307 141 
C 301 134 282 128 262 122 
L 506 -403 
C 595 -320 608 -314 730 -224 
C 1050 19 1274 205 1542 480 
C 1709 250 1856 109 2048 -6 
C 2464 -243 2906 -320 3923 -320 
C 4531 -320 5472 -301 6106 -275 
C 6144 -51 6170 38 6272 269 
C 5696 192 4954 154 3898 154 
C 2944 154 2541 211 2253 397 
C 2016 550 1888 685 1786 902 
L 1786 2118 
C 1786 2438 1792 2598 1818 2803 
C 1645 2778 1523 2771 1331 2771 
L 845 2771 
C 602 2771 512 2778 346 2803 
L 346 2285 
z
" transform="scale(0.015625)"/>
      <path id="HiraginoSans-W4-508d" d="M 5286 2061 
C 5562 2061 5805 2048 5952 2029 
L 5952 2515 
C 5792 2490 5626 2483 5306 2483 
L 4070 2483 
L 4070 2598 
C 4070 2797 4083 2906 4109 3002 
L 3571 3002 
C 3590 2899 3603 2758 3603 2598 
L 3603 2483 
L 2483 2483 
C 2163 2483 1990 2496 1843 2522 
L 1843 2029 
C 1990 2048 2240 2061 2528 2061 
L 3136 2061 
C 3072 1357 2938 986 2605 627 
C 2349 339 2061 141 1645 -38 
C 1798 -186 1869 -282 1958 -454 
C 2726 -64 3162 397 3430 1107 
L 4979 1107 
C 4954 730 4934 518 4896 320 
C 4851 128 4787 83 4531 83 
C 4262 83 4006 102 3712 147 
C 3776 -19 3808 -141 3821 -339 
C 4013 -358 4262 -371 4467 -371 
C 4947 -371 5165 -294 5267 -96 
C 5363 77 5434 531 5466 1165 
C 5478 1357 5485 1414 5504 1542 
C 5382 1530 5203 1523 4922 1523 
L 3558 1523 
C 3597 1715 3610 1798 3629 2061 
L 5286 2061 
z
M 4096 4794 
C 4096 5056 4109 5210 4128 5363 
L 3571 5363 
C 3597 5203 3610 5043 3610 4794 
L 2694 4794 
C 2400 4794 2170 4806 2003 4832 
L 2003 4346 
C 2170 4371 2394 4384 2682 4384 
L 2733 4384 
C 2835 4166 2925 3878 2976 3610 
L 2419 3610 
C 2170 3610 1971 3622 1798 3642 
C 1811 3514 1818 3437 1818 3334 
L 1818 3008 
C 1811 2854 1805 2752 1798 2688 
L 2285 2688 
L 2285 3200 
L 5504 3200 
L 5504 2682 
L 5997 2682 
C 5984 2765 5978 2899 5978 3027 
L 5978 3290 
C 5978 3430 5978 3507 5997 3642 
C 5805 3622 5594 3610 5331 3610 
L 4762 3610 
C 4883 3885 4973 4128 5050 4384 
L 5171 4384 
C 5453 4384 5670 4371 5850 4346 
L 5850 4832 
C 5690 4806 5427 4794 5139 4794 
L 4096 4794 
z
M 3450 3610 
C 3379 3942 3315 4141 3219 4384 
L 4557 4384 
C 4486 4096 4416 3898 4275 3610 
L 3450 3610 
z
M 1376 3808 
C 1581 4256 1677 4499 1798 4890 
C 1869 5133 1894 5190 1926 5274 
L 1402 5408 
C 1363 5082 1139 4416 890 3891 
C 646 3398 474 3123 115 2694 
C 237 2554 301 2458 397 2234 
C 653 2566 774 2758 922 3066 
C 909 2874 902 2624 902 2310 
L 902 282 
C 902 -58 890 -282 864 -512 
L 1408 -512 
C 1382 -282 1376 -38 1376 269 
L 1376 3808 
z
" transform="scale(0.015625)"/>
      <path id="HiraginoSans-W4-3068" d="M 1971 5056 
C 2010 4954 2016 4922 2074 4646 
C 2227 3885 2355 3392 2528 2874 
C 2131 2675 1926 2547 1683 2342 
C 1318 2042 1114 1651 1114 1261 
C 1114 826 1306 467 1651 269 
C 2035 51 2541 -38 3366 -38 
C 3834 -38 4160 -19 4826 51 
C 5178 90 5178 90 5312 90 
L 5254 723 
C 4845 582 4109 493 3373 493 
C 2938 493 2522 531 2304 589 
C 1894 698 1690 915 1690 1248 
C 1690 1498 1811 1741 2022 1933 
C 2298 2170 2707 2400 3206 2592 
C 3923 2867 4710 3117 5190 3219 
L 4973 3795 
C 4858 3731 4832 3725 4550 3622 
C 3424 3238 3424 3238 3034 3078 
C 2816 3725 2592 4723 2566 5165 
L 1971 5056 
z
" transform="scale(0.015625)"/>
      <path id="HiraginoSans-W4-7403" d="M 1088 4499 
L 1088 3123 
L 813 3123 
C 621 3123 518 3130 371 3155 
L 371 2669 
C 518 2694 627 2701 806 2701 
L 1088 2701 
L 1088 1171 
C 691 998 506 928 237 851 
L 397 320 
C 531 397 582 416 826 525 
C 1414 787 1875 1030 2330 1312 
L 2310 1798 
C 1971 1600 1843 1536 1555 1395 
L 1555 2701 
L 1766 2701 
C 1926 2701 2029 2694 2182 2675 
L 2182 3149 
C 2035 3130 1965 3123 1766 3123 
L 1555 3123 
L 1555 4499 
L 1850 4499 
C 2061 4499 2202 4493 2362 4474 
L 2362 4973 
C 2202 4947 2061 4934 1824 4934 
L 851 4934 
C 602 4934 454 4947 294 4973 
L 294 4467 
C 474 4493 570 4499 832 4499 
L 1088 4499 
z
M 3808 3731 
L 3808 147 
C 3808 19 3763 -13 3571 -13 
C 3360 -13 3110 13 2797 58 
C 2874 -115 2906 -230 2931 -435 
C 3232 -461 3360 -467 3514 -467 
C 4122 -467 4282 -371 4282 6 
L 4275 1562 
C 4275 1837 4256 2253 4224 2784 
C 4371 2093 4531 1702 4864 1178 
C 5171 698 5485 352 5926 6 
C 6029 211 6106 326 6240 474 
C 5677 864 5280 1312 4909 1965 
C 4589 2528 4301 3328 4275 3731 
L 5478 3731 
C 5702 3731 5894 3718 6080 3693 
L 6080 4198 
C 5901 4173 5709 4160 5459 4160 
L 4275 4160 
L 4275 4685 
C 4275 4922 4288 5101 4314 5293 
L 3763 5293 
C 3795 5075 3808 4877 3808 4646 
L 3808 4160 
L 2854 4160 
C 2598 4160 2413 4173 2234 4198 
L 2234 3693 
C 2426 3718 2605 3731 2842 3731 
L 3808 3731 
z
M 3456 2310 
C 3226 2784 3098 3002 2765 3450 
L 2381 3232 
C 2675 2854 2835 2566 3053 2061 
L 3456 2310 
z
M 5773 4627 
C 5472 4883 5248 5050 4864 5286 
L 4544 4998 
C 4915 4768 5126 4608 5459 4307 
L 5773 4627 
z
M 5171 2061 
C 5472 2451 5690 2778 5939 3206 
L 5523 3475 
C 5312 3014 5120 2707 4826 2362 
L 5171 2061 
z
M 3482 1709 
C 2848 1229 2272 870 1882 723 
L 2150 230 
C 2214 282 2310 352 2400 403 
C 2822 666 3104 864 3661 1299 
L 3482 1709 
z
" transform="scale(0.015625)"/>
     </defs>
     <use xlink:href="#HiraginoSans-W4-3b5"/>
     <use xlink:href="#HiraginoSans-W4-2d" transform="translate(99.999985 0)"/>
     <use xlink:href="#HiraginoSans-W4-8fd1" transform="translate(137.299973 0)"/>
     <use xlink:href="#HiraginoSans-W4-508d" transform="translate(237.299957 0)"/>
     <use xlink:href="#HiraginoSans-W4-3068" transform="translate(337.299942 0)"/>
     <use xlink:href="#HiraginoSans-W4-958b" transform="translate(437.299927 0)"/>
     <use xlink:href="#HiraginoSans-W4-7403" transform="translate(537.299911 0)"/>
     <use xlink:href="#HiraginoSans-W4-20" transform="translate(637.299896 0)"/>
     <use xlink:href="#HiraginoSans-W4-42" transform="translate(670.599884 0)"/>
     <use xlink:href="#HiraginoSans-W4-28" transform="translate(742.699875 0)"/>
     <use xlink:href="#HiraginoSans-W4-78" transform="translate(779.69986 0)"/>
     <use xlink:href="#HiraginoSans-W4-2c" transform="translate(835.599854 0)"/>
     <use xlink:href="#HiraginoSans-W4-20" transform="translate(860.599838 0)"/>
     <use xlink:href="#HiraginoSans-W4-3b5" transform="translate(893.899826 0)"/>
     <use xlink:href="#HiraginoSans-W4-29" transform="translate(993.899811 0)"/>
    </g>
   </g>
   <g id="line2d_1">
    <defs>
     <path id="mc1ef747b8f" d="M 0 4 
C 1.060812 4 2.078319 3.578535 2.828427 2.828427 
C 3.578535 2.078319 4 1.060812 4 0 
C 4 -1.060812 3.578535 -2.078319 2.828427 -2.828427 
C 2.078319 -3.578535 1.060812 -4 0 -4 
C -1.060812 -4 -2.078319 -3.578535 -2.828427 -2.828427 
C -3.578535 -2.078319 -4 -1.060812 -4 0 
C -4 1.060812 -3.578535 2.078319 -2.828427 2.828427 
C -2.078319 3.578535 -1.060812 4 0 4 
z
" style="stroke: #c00000"/>
    </defs>
    <g clip-path="url(#p1a93bcd661)">
     <use xlink:href="#mc1ef747b8f" x="201.24" y="221.717187" style="fill: #c00000; stroke: #c00000"/>
    </g>
   </g>
   <g id="line2d_2">
    <defs>
     <path id="m71a5772fb9" d="M 0 5 
C 1.326016 5 2.597899 4.473168 3.535534 3.535534 
C 4.473168 2.597899 5 1.326016 5 0 
C 5 -1.326016 4.473168 -2.597899 3.535534 -3.535534 
C 2.597899 -4.473168 1.326016 -5 0 -5 
C -1.326016 -5 -2.597899 -4.473168 -3.535534 -3.535534 
C -4.473168 -2.597899 -5 -1.326016 -5 0 
C -5 1.326016 -4.473168 2.597899 -3.535534 3.535534 
C -2.597899 4.473168 -1.326016 5 0 5 
z
" style="stroke: #2e75b6; stroke-width: 2"/>
    </defs>
    <g clip-path="url(#p1a93bcd661)">
     <use xlink:href="#m71a5772fb9" x="298.26" y="221.717187" style="fill: #ffffff; stroke: #2e75b6; stroke-width: 2"/>
    </g>
   </g>
  </g>
 </g>
 <defs>
  <clipPath id="p1a93bcd661">
   <rect x="7.2" y="27.677188" width="388.08" height="388.08"/>
  </clipPath>
 </defs>
</svg>
