<?xml version="1.0" encoding="utf-8" standalone="no"?>
<!DOCTYPE svg PUBLIC "-//W3C//DTD SVG 1.1//EN"
  "http://www.w3.org/Graphics/SVG/1.1/DTD/svg11.dtd">
<svg xmlns:xlink="http://www.w3.org/1999/xlink" width="572.4pt" height="367.062188pt" viewBox="0 0 572.4 367.062188" xmlns="http://www.w3.org/2000/svg" version="1.1">
 <metadata>
  <rdf:RDF xmlns:dc="http://purl.org/dc/elements/1.1/" xmlns:cc="http://creativecommons.org/ns#" xmlns:rdf="http://www.w3.org/1999/02/22-rdf-syntax-ns#">
   <cc:Work>
    <dc:type rdf:resource="http://purl.org/dc/dcmitype/StillImage"/>
    <dc:date>2026-04-02T01:10:16.344017</dc:date>
    <dc:format>image/svg+xml</dc:format>
    <dc:creator>
     <cc:Agent>
      <dc:title>Matplotlib v3.10.8, https://matplotlib.org/</dc:title>
     </cc:Agent>
    </dc:creator>
   </cc:Work>
  </rdf:RDF>
 </metadata>
 <defs>
  <style type="text/css">*{stroke-linejoin: round; stroke-linecap: butt}</style>
 </defs>
 <g id="figure_1">
  <g id="patch_1">
   <path d="M 0 367.062188 
L 572.4 367.062188 
L 572.4 0 
L 0 0 
z
" style="fill: #ffffff"/>
  </g>
  <g id="axes_1">
   <g id="patch_2">
    <path d="M 286.2 269.574188 
C 338.610763 269.574188 388.881972 259.059473 425.941978 240.345787 
C 463.001983 221.632102 483.825 196.247335 483.825 169.782188 
C 483.825 143.31704 463.001983 117.932273 425.941978 99.218588 
C 388.881972 80.504902 338.610763 69.990188 286.2 69.990188 
C 233.789237 69.990188 183.518028 80.504902 146.458022 99.218588 
C 109.398017 117.932273 88.575 143.31704 88.575 169.782188 
C 88.575 196.247335 109.398017 221.632102 146.458022 240.345787 
C 183.518028 259.059473 233.789237 269.574188 286.2 269.574188 
z
" clip-path="url(#p077cd50f55)" style="fill: #fff2cc; opacity: 0.5; stroke: #c9a800; stroke-width: 2.5; stroke-linejoin: miter"/>
   </g>
   <g id="patch_3">
    <path d="M 169.95 245.814188 
C 192.147499 245.814188 213.438835 236.801575 229.134838 220.761273 
C 244.83084 204.720971 253.65 182.9626 253.65 160.278188 
C 253.65 137.593775 244.83084 115.835404 229.134838 99.795102 
C 213.438835 83.7548 192.147499 74.742188 169.95 74.742188 
C 147.752501 74.742188 126.461165 83.7548 110.765162 99.795102 
C 95.06916 115.835404 86.25 137.593775 86.25 160.278188 
C 86.25 182.9626 95.06916 204.720971 110.765162 220.761273 
C 126.461165 236.801575 147.752501 245.814188 169.95 245.814188 
z
" clip-path="url(#p077cd50f55)" style="fill: #deeaf1; opacity: 0.55; stroke-dasharray: 5.55,2.4; stroke-dashoffset: 0; stroke: #2e75b6; stroke-width: 1.5; stroke-linejoin: miter"/>
   </g>
   <g id="patch_4">
    <path d="M 276.9 302.838188 
C 301.563888 302.838188 325.220928 292.824174 342.660931 275.001616 
C 360.100933 257.179058 369.9 233.00309 369.9 207.798188 
C 369.9 182.593285 360.100933 158.417317 342.660931 140.594759 
C 325.220928 122.772201 301.563888 112.758188 276.9 112.758188 
C 252.236112 112.758188 228.579072 122.772201 211.139069 140.594759 
C 193.699067 158.417317 183.9 182.593285 183.9 207.798188 
C 183.9 233.00309 193.699067 257.179058 211.139069 275.001616 
C 228.579072 292.824174 252.236112 302.838188 276.9 302.838188 
z
" clip-path="url(#p077cd50f55)" style="fill: #e2efda; opacity: 0.55; stroke-dasharray: 5.55,2.4; stroke-dashoffset: 0; stroke: #538135; stroke-width: 1.5; stroke-linejoin: miter"/>
   </g>
   <g id="patch_5">
    <path d="M 388.5 226.806188 
C 409.464305 226.806188 429.572789 218.294276 444.396791 203.145102 
C 459.220793 187.995928 467.55 167.446355 467.55 146.022188 
C 467.55 124.59802 459.220793 104.048447 444.396791 88.899273 
C 429.572789 73.750099 409.464305 65.238188 388.5 65.238188 
C 367.535695 65.238188 347.427211 73.750099 332.603209 88.899273 
C 317.779207 104.048447 309.45 124.59802 309.45 146.022188 
C 309.45 167.446355 317.779207 187.995928 332.603209 203.145102 
C 347.427211 218.294276 367.535695 226.806188 388.5 226.806188 
z
" clip-path="url(#p077cd50f55)" style="fill: #ead1f5; opacity: 0.55; stroke-dasharray: 5.55,2.4; stroke-dashoffset: 0; stroke: #7030a0; stroke-width: 1.5; stroke-linejoin: miter"/>
   </g>
   <g id="patch_6">
    <path d="M 309.45 179.286188 
C 326.714722 179.286188 343.27465 172.276378 355.482651 159.800587 
C 367.690653 147.324797 374.55 130.401619 374.55 112.758188 
C 374.55 95.114756 367.690653 78.191578 355.482651 65.715788 
C 343.27465 53.239997 326.714722 46.230188 309.45 46.230188 
C 292.185278 46.230188 275.62535 53.239997 263.417349 65.715788 
C 251.209347 78.191578 244.35 95.114756 244.35 112.758188 
C 244.35 130.401619 251.209347 147.324797 263.417349 159.800587 
C 275.62535 172.276378 292.185278 179.286188 309.45 179.286188 
z
" clip-path="url(#p077cd50f55)" style="fill: #fce4d6; opacity: 0.55; stroke-dasharray: 5.55,2.4; stroke-dashoffset: 0; stroke: #c00000; stroke-width: 1.5; stroke-linejoin: miter"/>
   </g>
   <g id="text_1">
    <!-- K（コンパクト集合） -->
    <g style="fill: #7f5f00" transform="translate(227.292187 65.238188) scale(0.12 -0.12)">
     <defs>
      <path id="HiraginoSans-W7-4b" d="M 2925 2976 
L 4282 4378 
C 4486 4589 4800 4909 4966 5069 
L 3507 5069 
C 3386 4864 3226 4653 2982 4403 
L 1530 2867 
L 1530 4186 
C 1530 4570 1549 4826 1587 5069 
L 429 5069 
C 467 4774 480 4550 480 4186 
L 480 749 
C 480 390 467 173 429 -134 
L 1587 -134 
C 1542 166 1530 365 1530 749 
L 1530 1638 
L 2195 2304 
L 3334 602 
C 3488 378 3654 77 3757 -134 
L 5171 -134 
C 4960 109 4915 166 4512 742 
L 2925 2976 
z
" transform="scale(0.015625)"/>
      <path id="HiraginoSans-W7-ff08" d="M 6240 -589 
C 5830 -26 5658 256 5491 666 
C 5274 1197 5152 1837 5152 2432 
C 5152 3027 5274 3667 5491 4198 
C 5658 4608 5830 4890 6240 5453 
L 5197 5453 
C 4845 4902 4691 4621 4538 4211 
C 4320 3648 4205 3034 4205 2432 
C 4205 1830 4320 1216 4538 653 
C 4691 243 4845 -38 5197 -589 
L 6240 -589 
z
" transform="scale(0.015625)"/>
      <path id="HiraginoSans-W7-30b3" d="M 4512 224 
L 4512 -160 
L 5536 -160 
C 5504 102 5504 160 5504 787 
L 5504 4013 
C 5504 4288 5504 4288 5523 4710 
C 5350 4698 5069 4691 4723 4691 
L 1914 4691 
C 1389 4691 1171 4704 909 4742 
L 909 3750 
C 1165 3776 1363 3782 1901 3782 
L 4512 3782 
L 4512 1139 
L 1811 1139 
C 1274 1139 1146 1146 819 1190 
L 819 192 
C 1158 218 1318 224 1792 224 
L 4512 224 
z
" transform="scale(0.015625)"/>
      <path id="HiraginoSans-W7-30f3" d="M 678 4083 
C 1293 3744 1830 3322 2362 2758 
L 3008 3597 
C 2496 4070 2131 4339 1306 4838 
L 678 4083 
z
M 986 -179 
C 1120 -134 1158 -122 1306 -90 
C 1427 -64 1427 -64 1587 -32 
C 2202 102 2938 365 3450 634 
C 4563 1222 5318 2067 5952 3437 
C 5555 3718 5440 3827 5139 4179 
C 4954 3680 4781 3334 4493 2906 
C 3994 2157 3424 1677 2611 1338 
C 2022 1082 1293 909 704 870 
L 986 -179 
z
" transform="scale(0.015625)"/>
      <path id="HiraginoSans-W7-30d1" d="M 1683 4800 
C 1683 4768 1683 4742 1683 4730 
C 1683 4557 1670 4358 1632 4083 
C 1523 3277 1331 2534 1056 1894 
C 819 1338 582 979 141 499 
C 557 262 685 166 1018 -154 
C 1555 506 1869 1088 2150 1914 
C 2362 2541 2502 3162 2637 4083 
C 2694 4506 2694 4506 2720 4614 
L 1683 4800 
z
M 3616 4621 
C 3642 4525 3667 4390 3699 4141 
C 3814 3341 4013 2522 4282 1824 
C 4576 1024 4883 474 5376 -160 
C 5696 179 5830 288 6227 531 
C 5875 947 5690 1216 5485 1594 
C 5203 2112 4960 2752 4813 3366 
C 4666 3968 4582 4435 4557 4800 
L 3616 4621 
z
M 5478 4934 
C 5088 4934 4768 4614 4768 4224 
C 4768 3834 5088 3514 5478 3514 
C 5869 3514 6189 3834 6189 4224 
C 6189 4621 5875 4934 5478 4934 
z
M 5478 4538 
C 5651 4538 5792 4397 5792 4224 
C 5792 4051 5651 3910 5478 3910 
C 5306 3910 5165 4051 5165 4224 
C 5165 4397 5306 4538 5478 4538 
z
" transform="scale(0.015625)"/>
      <path id="HiraginoSans-W7-30af" d="M 2419 5357 
C 2387 5133 2298 4890 2112 4544 
C 1690 3738 1184 3162 435 2643 
C 813 2413 928 2317 1197 1990 
C 1786 2451 2285 3002 2675 3622 
L 4493 3642 
C 3968 2029 2970 1024 1242 352 
C 1581 45 1690 -83 1901 -474 
C 2918 -6 3648 512 4224 1171 
C 4781 1805 5229 2669 5536 3667 
C 5613 3923 5638 3981 5702 4083 
L 5235 4544 
C 5114 4499 4986 4480 4774 4474 
L 3110 4454 
C 3181 4595 3206 4653 3264 4781 
C 3354 4986 3418 5114 3450 5158 
L 2419 5357 
z
" transform="scale(0.015625)"/>
      <path id="HiraginoSans-W7-30c8" d="M 2675 -339 
C 2650 -96 2637 141 2637 550 
L 2637 2394 
C 2733 2342 2758 2330 2880 2278 
C 3616 1958 4454 1504 5024 1114 
L 5549 2035 
C 4506 2643 3629 3040 2637 3379 
L 2637 4352 
C 2637 4819 2643 4966 2675 5210 
L 1632 5210 
C 1664 4986 1670 4806 1670 4352 
L 1670 563 
C 1670 128 1664 -96 1632 -339 
L 2675 -339 
z
" transform="scale(0.015625)"/>
      <path id="HiraginoSans-W7-96c6" d="M 3821 2739 
L 4986 2739 
C 5344 2739 5434 2733 5606 2714 
L 5606 3270 
C 5402 3245 5338 3245 4986 3245 
L 3821 3245 
L 3821 3501 
L 4986 3501 
C 5357 3501 5408 3501 5606 3475 
L 5606 4032 
C 5427 4013 5325 4006 4986 4006 
L 3821 4006 
L 3821 4256 
L 5318 4256 
C 5542 4256 5696 4250 5830 4230 
L 5830 4909 
C 5658 4883 5466 4877 5190 4877 
L 3930 4877 
C 4032 5037 4102 5152 4237 5402 
L 3366 5498 
C 3283 5261 3200 5094 3059 4877 
L 1997 4877 
C 2144 5082 2176 5120 2323 5382 
L 1453 5504 
C 1414 5382 1344 5235 1254 5094 
C 934 4582 608 4237 122 3898 
C 282 3642 365 3482 493 3130 
C 762 3334 845 3418 1030 3642 
C 1018 3386 1011 3283 1011 3098 
L 1011 2438 
C 1011 2208 1005 2042 986 1888 
C 1152 1901 1318 1907 1574 1907 
L 2771 1907 
L 2771 1626 
L 1030 1626 
C 640 1626 461 1632 294 1658 
L 294 928 
C 512 954 691 960 1030 960 
L 2106 960 
C 1862 781 1587 640 1210 499 
C 877 378 602 314 166 250 
C 352 -6 467 -218 576 -506 
C 1030 -390 1325 -288 1677 -128 
C 2189 109 2490 307 2790 602 
C 2778 461 2771 339 2771 205 
L 2771 -115 
C 2771 -314 2758 -422 2733 -557 
L 3635 -557 
C 3603 -429 3597 -333 3597 -109 
L 3597 205 
C 3597 288 3590 410 3578 602 
C 3885 320 4147 141 4589 -70 
C 4979 -256 5312 -371 5811 -499 
C 6022 -26 6022 -13 6227 269 
C 5472 384 4691 659 4243 960 
L 5363 960 
C 5696 960 5882 954 6099 928 
L 6099 1658 
C 5933 1632 5747 1626 5363 1626 
L 3597 1626 
L 3597 1907 
L 5254 1907 
C 5562 1907 5702 1901 5882 1882 
L 5882 2502 
C 5722 2483 5549 2477 5242 2477 
L 3821 2477 
L 3821 2739 
z
M 3021 2739 
L 3021 2477 
L 1805 2477 
L 1805 2739 
L 3021 2739 
z
M 3021 3245 
L 1805 3245 
L 1805 3501 
L 3021 3501 
L 3021 3245 
z
M 3021 4006 
L 1805 4006 
L 1805 4256 
L 3021 4256 
L 3021 4006 
z
" transform="scale(0.015625)"/>
      <path id="HiraginoSans-W7-5408" d="M 1498 2790 
C 1670 2810 1856 2816 2074 2816 
L 4333 2816 
C 4595 2816 4755 2810 4922 2790 
L 4922 3187 
C 5274 2976 5466 2880 5882 2701 
C 6010 3059 6093 3232 6278 3546 
C 5670 3750 5216 3981 4710 4339 
C 4186 4710 3904 4986 3622 5389 
L 2726 5389 
C 2458 4986 2163 4691 1696 4339 
C 1190 3968 691 3699 134 3507 
C 346 3213 422 3059 557 2720 
C 960 2893 1133 2976 1498 3194 
L 1498 2790 
z
M 2099 3584 
C 2579 3930 2835 4186 3187 4659 
C 3539 4218 3834 3949 4326 3584 
L 2099 3584 
z
M 1856 -518 
L 1856 -224 
L 4538 -224 
L 4538 -518 
L 5427 -518 
C 5395 -307 5389 -141 5389 166 
L 5389 1722 
C 5389 2010 5395 2189 5421 2368 
C 5267 2355 5107 2349 4838 2349 
L 1555 2349 
C 1286 2349 1120 2355 973 2368 
C 998 2182 1005 1997 1005 1722 
L 1005 173 
C 1005 -122 992 -301 966 -518 
L 1856 -518 
z
M 1856 1587 
L 4538 1587 
L 4538 525 
L 1856 525 
L 1856 1587 
z
" transform="scale(0.015625)"/>
      <path id="HiraginoSans-W7-ff09" d="M 1203 -589 
C 1555 -38 1709 243 1862 653 
C 2080 1216 2195 1824 2195 2432 
C 2195 3040 2080 3648 1862 4211 
C 1709 4621 1555 4902 1203 5453 
L 160 5453 
C 570 4890 742 4608 909 4198 
C 1126 3667 1248 3027 1248 2432 
C 1248 1837 1126 1197 909 666 
C 742 256 570 -26 160 -589 
L 1203 -589 
z
" transform="scale(0.015625)"/>
     </defs>
     <use xlink:href="#HiraginoSans-W7-4b"/>
     <use xlink:href="#HiraginoSans-W7-ff08" transform="translate(81.799988 0)"/>
     <use xlink:href="#HiraginoSans-W7-30b3" transform="translate(181.799973 0)"/>
     <use xlink:href="#HiraginoSans-W7-30f3" transform="translate(281.799957 0)"/>
     <use xlink:href="#HiraginoSans-W7-30d1" transform="translate(381.799942 0)"/>
     <use xlink:href="#HiraginoSans-W7-30af" transform="translate(481.799927 0)"/>
     <use xlink:href="#HiraginoSans-W7-30c8" transform="translate(581.799911 0)"/>
     <use xlink:href="#HiraginoSans-W7-96c6" transform="translate(681.799896 0)"/>
     <use xlink:href="#HiraginoSans-W7-5408" transform="translate(781.799881 0)"/>
     <use xlink:href="#HiraginoSans-W7-ff09" transform="translate(881.799866 0)"/>
    </g>
   </g>
   <g id="text_2">
    <!-- U₁ -->
    <g style="fill: #1f4e79" transform="translate(162.8275 163.484516) scale(0.11 -0.11)">
     <defs>
      <path id="HiraginoSans-W7-55" d="M 3910 5069 
C 3949 4813 3962 4595 3962 4147 
L 3962 1920 
C 3962 1549 3891 1267 3744 1069 
C 3552 806 3194 659 2746 659 
C 2310 659 1984 781 1779 1024 
C 1600 1242 1523 1517 1523 1920 
L 1523 4147 
C 1523 4589 1536 4845 1574 5069 
L 416 5069 
C 454 4832 467 4570 467 4147 
L 467 1920 
C 467 1248 640 736 986 358 
C 1350 -38 1971 -256 2733 -256 
C 4186 -256 5018 531 5018 1914 
L 5018 4154 
C 5018 4576 5030 4813 5069 5069 
L 3910 5069 
z
" transform="scale(0.015625)"/>
      <path id="DejaVuSans-Bold-2081" d="M 441 466 
L 1088 466 
L 1088 2094 
L 384 1932 
L 384 2432 
L 1100 2585 
L 1806 2585 
L 1806 466 
L 2444 466 
L 2444 -24 
L 441 -24 
L 441 466 
z
" transform="scale(0.015625)"/>
     </defs>
     <use xlink:href="#HiraginoSans-W7-55"/>
     <use xlink:href="#DejaVuSans-Bold-2081" transform="translate(85.699982 0)"/>
    </g>
   </g>
   <g id="text_3">
    <!-- U₂ -->
    <g style="fill: #375623" transform="translate(269.7775 211.004516) scale(0.11 -0.11)">
     <defs>
      <path id="DejaVuSans-Bold-2082" d="M 1288 501 
L 2444 501 
L 2444 -24 
L 341 -24 
L 341 454 
L 1319 1285 
Q 1509 1451 1590 1576 
Q 1672 1701 1672 1826 
Q 1672 1982 1558 2079 
Q 1444 2176 1259 2176 
Q 1066 2176 844 2105 
Q 622 2035 359 1888 
L 359 2469 
Q 631 2554 886 2596 
Q 1141 2638 1375 2638 
Q 1869 2638 2150 2436 
Q 2431 2235 2431 1888 
Q 2431 1663 2320 1474 
Q 2209 1285 1894 1016 
L 1288 501 
z
" transform="scale(0.015625)"/>
     </defs>
     <use xlink:href="#HiraginoSans-W7-55"/>
     <use xlink:href="#DejaVuSans-Bold-2082" transform="translate(85.699982 0)"/>
    </g>
   </g>
   <g id="text_4">
    <!-- U₃ -->
    <g style="fill: #4b0082" transform="translate(381.3775 149.228516) scale(0.11 -0.11)">
     <defs>
      <path id="DejaVuSans-Bold-2083" d="M 1850 1388 
Q 2138 1332 2297 1160 
Q 2456 988 2456 735 
Q 2456 332 2147 130 
Q 1838 -71 1209 -71 
Q 956 -71 725 -35 
Q 494 1 281 69 
L 281 613 
Q 488 501 688 443 
Q 888 385 1075 385 
Q 1372 385 1534 485 
Q 1697 585 1697 769 
Q 1697 969 1530 1064 
Q 1363 1160 1006 1160 
L 775 1160 
L 775 1588 
L 1038 1588 
Q 1344 1588 1484 1661 
Q 1625 1735 1625 1894 
Q 1625 2035 1503 2105 
Q 1381 2176 1131 2176 
Q 969 2176 776 2135 
Q 584 2094 366 2010 
L 366 2529 
Q 569 2582 805 2610 
Q 1041 2638 1313 2638 
Q 1834 2638 2111 2463 
Q 2388 2288 2388 1960 
Q 2388 1744 2247 1594 
Q 2106 1444 1850 1388 
z
" transform="scale(0.015625)"/>
     </defs>
     <use xlink:href="#HiraginoSans-W7-55"/>
     <use xlink:href="#DejaVuSans-Bold-2083" transform="translate(85.699982 0)"/>
    </g>
   </g>
   <g id="text_5">
    <!-- U₄ -->
    <g style="fill: #c00000" transform="translate(302.3275 115.964516) scale(0.11 -0.11)">
     <defs>
      <path id="DejaVuSans-Bold-2084" d="M 1397 1976 
L 650 966 
L 1397 966 
L 1397 1976 
z
M 1341 2585 
L 2116 2585 
L 2116 966 
L 2544 966 
L 2544 482 
L 2116 482 
L 2116 -24 
L 1397 -24 
L 1397 482 
L 175 482 
L 175 1007 
L 1341 2585 
z
" transform="scale(0.015625)"/>
     </defs>
     <use xlink:href="#HiraginoSans-W7-55"/>
     <use xlink:href="#DejaVuSans-Bold-2084" transform="translate(85.699982 0)"/>
    </g>
   </g>
   <g id="text_6">
    <g id="patch_7">
     <path d="M 160 346.904188 
L 412.4 346.904188 
Q 416.4 346.904188 416.4 342.904188 
L 416.4 333.144813 
Q 416.4 329.144813 412.4 329.144813 
L 160 329.144813 
Q 156 329.144813 156 333.144813 
L 156 342.904188 
Q 156 346.904188 160 346.904188 
z
" style="fill: #fff2cc; stroke: #c9a800; stroke-linejoin: miter"/>
    </g>
    <!-- コンパクト ⟺ 任意の開被覆から有限部分被覆が取れる -->
    <g transform="translate(160 340.854188) scale(0.1 -0.1)">
     <defs>
      <path id="HiraginoSans-W4-30b3" d="M 4736 416 
L 4736 32 
L 5350 32 
C 5325 192 5318 378 5318 666 
L 5318 3987 
C 5318 4230 5318 4339 5331 4493 
C 5171 4486 5075 4480 4998 4480 
L 1894 4480 
C 1440 4480 1338 4486 1101 4525 
L 1101 3917 
C 1331 3942 1466 3949 1888 3949 
L 4742 3949 
L 4742 947 
L 1760 947 
C 1338 947 1229 954 1005 992 
L 1005 390 
C 1197 410 1325 416 1754 416 
L 4736 416 
z
" transform="scale(0.015625)"/>
      <path id="HiraginoSans-W4-30f3" d="M 934 4160 
C 1504 3821 2016 3405 2496 2893 
L 2886 3373 
C 2419 3827 2022 4134 1312 4589 
L 934 4160 
z
M 1030 -19 
C 1171 26 1222 38 1427 83 
C 2458 314 3174 595 3827 1043 
C 4685 1626 5280 2368 5805 3507 
C 5581 3654 5510 3725 5331 3949 
C 4806 2573 3962 1645 2739 1101 
C 2144 838 1376 640 864 621 
L 1030 -19 
z
" transform="scale(0.015625)"/>
      <path id="HiraginoSans-W4-30d1" d="M 1920 4698 
C 1914 3981 1722 3040 1440 2304 
C 1133 1498 813 986 294 480 
C 518 352 582 301 794 83 
C 1709 1088 2195 2266 2470 4128 
C 2515 4448 2528 4499 2554 4582 
L 1920 4698 
z
M 3776 4582 
C 3808 4480 3827 4384 3859 4147 
C 3981 3322 4218 2483 4512 1798 
C 4826 1088 5152 557 5587 70 
C 5773 288 5850 352 6074 499 
C 5402 1171 4941 2022 4621 3174 
C 4467 3738 4352 4352 4339 4698 
L 3776 4582 
z
M 5581 5158 
C 5178 5158 4851 4832 4851 4429 
C 4851 4026 5178 3699 5581 3699 
C 5984 3699 6310 4026 6310 4429 
C 6310 4832 5984 5158 5581 5158 
z
M 5581 4877 
C 5824 4877 6029 4672 6029 4429 
C 6029 4186 5824 3981 5581 3981 
C 5338 3981 5133 4186 5133 4429 
C 5133 4672 5338 4877 5581 4877 
z
" transform="scale(0.015625)"/>
      <path id="HiraginoSans-W4-30af" d="M 2669 5229 
C 2637 5005 2522 4730 2285 4320 
C 1830 3520 1357 2995 666 2534 
C 890 2400 960 2336 1101 2144 
C 1709 2611 2208 3155 2618 3795 
L 4710 3827 
C 4480 3027 4096 2304 3616 1741 
C 3008 1024 2342 557 1376 166 
C 1574 0 1638 -77 1760 -301 
C 2707 128 3411 634 4000 1306 
C 4550 1939 5005 2790 5286 3731 
C 5363 3968 5370 3981 5427 4064 
L 5114 4371 
C 5011 4333 4973 4326 4742 4320 
C 4550 4314 4006 4307 3110 4294 
C 3072 4294 3072 4294 3034 4294 
C 2925 4288 2925 4288 2874 4275 
C 2950 4403 3002 4506 3155 4832 
C 3232 5005 3238 5005 3296 5082 
L 2669 5229 
z
" transform="scale(0.015625)"/>
      <path id="HiraginoSans-W4-30c8" d="M 2483 -224 
C 2458 -26 2451 179 2451 518 
L 2451 2189 
C 2451 2445 2445 2554 2426 2714 
C 2515 2656 2541 2650 2637 2605 
C 3546 2221 4429 1747 4992 1350 
L 5312 1907 
C 4224 2534 3354 2938 2451 3258 
L 2451 4397 
C 2451 4755 2458 4934 2483 5120 
L 1837 5120 
C 1869 4954 1875 4800 1875 4416 
L 1875 518 
C 1875 154 1869 -13 1837 -224 
L 2483 -224 
z
" transform="scale(0.015625)"/>
      <path id="HiraginoSans-W4-20" transform="scale(0.015625)"/>
      <path id="STIXGeneral-Regular-27fa" d="M 9722 1651 
L 9722 1587 
Q 9395 1370 8800 896 
Q 8205 422 7712 -64 
L 7533 70 
Q 7558 96 7654 195 
Q 7750 294 7808 358 
Q 7866 422 7920 512 
Q 7974 602 7974 666 
Q 7974 704 7964 723 
Q 7955 742 7913 755 
Q 7872 768 7782 768 
L 2310 768 
Q 2176 768 2131 745 
Q 2086 723 2086 652 
Q 2086 582 2134 515 
Q 2182 448 2323 307 
Q 2464 166 2534 83 
L 2387 -64 
Q 1856 435 1232 931 
Q 608 1427 352 1587 
L 352 1651 
Q 1408 2406 2387 3309 
L 2534 3162 
Q 2490 3110 2355 2976 
Q 2221 2842 2147 2746 
Q 2074 2650 2074 2592 
Q 2074 2470 2291 2470 
L 7782 2470 
Q 7872 2470 7917 2512 
Q 7962 2554 7962 2605 
Q 7962 2701 7894 2793 
Q 7827 2886 7699 2998 
Q 7571 3110 7533 3155 
L 7712 3309 
Q 8250 2816 8858 2320 
Q 9466 1824 9722 1651 
z
M 1440 1190 
L 8621 1190 
Q 8998 1408 8998 1619 
Q 8998 1792 8627 2048 
L 1446 2048 
Q 1075 1837 1069 1619 
Q 1069 1446 1440 1190 
z
" transform="scale(0.015625)"/>
      <path id="HiraginoSans-W4-4efb" d="M 3680 2675 
L 2522 2675 
C 2221 2675 2022 2688 1843 2714 
L 1843 2182 
C 2035 2208 2234 2221 2522 2221 
L 3680 2221 
L 3680 320 
L 2778 320 
C 2470 320 2266 333 2074 358 
L 2074 -173 
C 2304 -141 2509 -128 2778 -128 
L 5190 -128 
C 5459 -128 5670 -141 5894 -173 
L 5894 358 
C 5702 333 5498 320 5190 320 
L 4173 320 
L 4173 2221 
L 5459 2221 
C 5747 2221 5939 2208 6138 2182 
L 6138 2720 
C 5933 2688 5728 2675 5459 2675 
L 4173 2675 
L 4173 4218 
C 4749 4371 4979 4454 5824 4800 
L 5459 5222 
C 5261 5088 4909 4928 4480 4781 
C 3795 4557 2989 4390 2010 4288 
C 2138 4102 2163 4045 2234 3827 
C 2720 3898 2816 3917 3680 4096 
L 3680 2675 
z
M 1024 352 
C 1024 13 1011 -192 979 -435 
L 1555 -435 
C 1523 -192 1510 45 1510 339 
L 1510 3770 
C 1747 4218 1856 4474 2048 4992 
C 2093 5094 2099 5126 2131 5203 
L 1613 5376 
C 1581 5152 1466 4806 1306 4442 
C 1005 3744 627 3174 160 2707 
C 262 2573 358 2406 435 2227 
C 704 2534 890 2797 1050 3104 
C 1030 2778 1024 2534 1024 2323 
L 1024 352 
z
" transform="scale(0.015625)"/>
      <path id="HiraginoSans-W4-610f" d="M 2906 4883 
L 1446 4883 
C 1146 4883 960 4896 800 4922 
L 800 4461 
C 986 4480 1152 4486 1434 4486 
L 1811 4486 
C 1958 4186 1984 4128 2048 3936 
L 1133 3936 
C 768 3936 557 3949 378 3974 
L 378 3501 
C 550 3526 742 3533 1120 3533 
L 5299 3533 
C 5683 3533 5882 3526 6048 3501 
L 6048 3974 
C 5869 3942 5690 3936 5306 3936 
L 4307 3936 
C 4403 4090 4486 4262 4589 4486 
L 4960 4486 
C 5254 4486 5421 4480 5632 4461 
L 5632 4922 
C 5459 4896 5274 4883 4966 4883 
L 3411 4883 
L 3411 4986 
C 3411 5139 3424 5274 3450 5414 
L 2867 5414 
C 2893 5261 2906 5133 2906 4986 
L 2906 4883 
z
M 2547 3936 
C 2470 4141 2413 4288 2317 4486 
L 4077 4486 
C 3994 4294 3917 4141 3802 3936 
L 2547 3936 
z
M 4614 1280 
C 4806 1280 5126 1274 5261 1261 
C 5242 1414 5235 1574 5235 1798 
L 5235 2643 
C 5235 2906 5242 3066 5261 3200 
C 5101 3187 4909 3181 4544 3181 
L 1830 3181 
C 1478 3181 1325 3187 1126 3200 
C 1146 3040 1152 2899 1152 2637 
L 1152 1766 
C 1152 1523 1146 1402 1126 1261 
C 1318 1274 1510 1280 1811 1280 
L 4614 1280 
z
M 1613 2810 
L 4774 2810 
L 4774 2419 
L 1613 2419 
L 1613 2810 
z
M 1613 2054 
L 4774 2054 
L 4774 1651 
L 1613 1651 
L 1613 2054 
z
M 723 -378 
C 1114 70 1280 346 1491 877 
L 1056 1069 
C 877 582 717 333 307 -90 
L 723 -378 
z
M 4346 691 
C 4346 378 4314 179 4256 122 
C 4154 26 3949 6 3130 6 
C 2797 6 2566 19 2470 45 
C 2374 70 2349 102 2349 186 
L 2349 557 
C 2349 787 2355 896 2381 1043 
L 1830 1043 
C 1856 909 1869 749 1869 557 
L 1869 19 
C 1869 -346 2048 -403 3245 -403 
C 4717 -403 4774 -365 4813 634 
C 4582 672 4531 691 4346 787 
L 4346 691 
z
M 3891 550 
C 3584 870 3379 1043 3078 1242 
L 2752 998 
C 3091 742 3226 614 3514 262 
L 3891 550 
z
M 6106 6 
C 5798 442 5574 710 5178 1114 
L 4781 890 
C 5152 512 5382 218 5702 -282 
L 6106 6 
z
" transform="scale(0.015625)"/>
      <path id="HiraginoSans-W4-306e" d="M 3053 422 
C 3200 243 3245 160 3328 -96 
C 3821 6 4090 90 4397 237 
C 5293 666 5798 1459 5798 2451 
C 5798 3802 4832 4698 3379 4698 
C 2509 4698 1792 4403 1274 3834 
C 832 3347 589 2707 589 2042 
C 589 1107 1062 422 1709 422 
C 2189 422 2573 806 2938 1645 
C 3238 2323 3469 3264 3578 4205 
C 3891 4186 4070 4141 4294 4032 
C 4902 3738 5242 3174 5242 2477 
C 5242 1734 4870 1107 4230 768 
C 3917 602 3610 512 3053 422 
z
M 3027 4192 
C 2944 3398 2714 2483 2458 1888 
C 2195 1286 1952 992 1702 992 
C 1370 992 1114 1453 1114 2035 
C 1114 2797 1491 3501 2112 3891 
C 2394 4077 2656 4160 3027 4192 
z
" transform="scale(0.015625)"/>
      <path id="HiraginoSans-W4-958b" d="M 2342 2349 
C 2342 2022 2336 1920 2317 1613 
L 2118 1613 
C 1811 1613 1651 1619 1485 1645 
L 1485 1197 
C 1658 1222 1818 1229 2118 1229 
L 2285 1229 
C 2208 659 2016 339 1510 -38 
C 1677 -134 1766 -211 1888 -352 
C 2426 115 2630 512 2714 1229 
L 3610 1229 
L 3610 256 
C 3610 -13 3603 -160 3578 -294 
L 4077 -294 
C 4051 -173 4045 -32 4045 250 
L 4045 1229 
L 4301 1229 
C 4589 1229 4755 1222 4928 1197 
L 4928 1645 
C 4762 1619 4602 1613 4301 1613 
L 4045 1613 
L 4045 2349 
L 4218 2349 
C 4493 2349 4672 2342 4832 2323 
L 4832 2758 
C 4646 2733 4506 2726 4205 2726 
L 2227 2726 
C 1926 2726 1792 2733 1606 2758 
L 1606 2323 
C 1766 2342 1946 2349 2221 2349 
L 2342 2349 
z
M 3610 2349 
L 3610 1613 
L 2752 1613 
C 2771 1933 2771 1990 2771 2349 
L 3610 2349 
z
M 1062 3174 
L 2278 3174 
C 2554 3174 2726 3168 2912 3155 
C 2899 3322 2893 3475 2893 3744 
L 2893 4582 
C 2893 4826 2899 5005 2912 5190 
C 2733 5171 2579 5165 2259 5165 
L 1229 5165 
C 902 5165 736 5171 563 5190 
C 582 4986 589 4800 589 4480 
L 589 275 
C 589 -90 576 -288 550 -467 
L 1101 -467 
C 1075 -301 1062 -90 1062 269 
L 1062 3174 
z
M 1062 4800 
L 2451 4800 
L 2451 4358 
L 1062 4358 
L 1062 4800 
z
M 1062 4000 
L 2451 4000 
L 2451 3539 
L 1062 3539 
L 1062 4000 
z
M 5830 4480 
C 5830 4774 5837 4960 5862 5190 
C 5683 5171 5523 5165 5190 5165 
L 4090 5165 
C 3763 5165 3610 5171 3437 5190 
C 3450 4986 3456 4813 3456 4582 
L 3456 3744 
C 3456 3482 3450 3322 3437 3155 
C 3616 3168 3814 3174 4070 3174 
L 5357 3174 
L 5357 250 
C 5357 102 5312 70 5126 70 
C 4954 70 4672 96 4435 134 
C 4518 -45 4544 -154 4570 -352 
C 4851 -365 5011 -371 5152 -371 
C 5677 -371 5830 -243 5830 211 
L 5830 4480 
z
M 3898 4800 
L 5357 4800 
L 5357 4358 
L 3898 4358 
L 3898 4800 
z
M 3898 4000 
L 5357 4000 
L 5357 3539 
L 3898 3539 
L 3898 4000 
z
" transform="scale(0.015625)"/>
      <path id="HiraginoSans-W4-88ab" d="M 3373 2400 
C 3558 1779 3770 1402 4198 890 
C 3738 480 3296 218 2605 -58 
C 2746 -192 2797 -256 2906 -461 
C 3610 -147 4019 109 4512 557 
C 4954 134 5395 -166 5958 -429 
C 6035 -224 6099 -102 6208 51 
C 5651 282 5267 512 4832 890 
C 5178 1280 5491 1798 5696 2304 
C 5786 2515 5786 2515 5824 2598 
L 5600 2842 
C 5485 2816 5338 2810 5050 2810 
L 4518 2810 
L 4518 3981 
L 5530 3981 
C 5446 3731 5357 3552 5197 3296 
C 5357 3251 5466 3200 5619 3104 
C 5747 3328 5850 3546 5914 3731 
C 6029 4045 6093 4205 6093 4211 
L 5830 4442 
C 5709 4416 5549 4410 5190 4410 
L 4518 4410 
L 4518 4717 
C 4518 5005 4525 5146 4557 5293 
L 4026 5293 
C 4058 5120 4064 4998 4064 4717 
L 4064 4410 
L 3322 4410 
C 3014 4410 2886 4416 2694 4435 
C 2720 4218 2726 4051 2726 3674 
C 2726 2554 2656 1779 2490 1171 
C 2349 634 2163 269 1798 -179 
C 1971 -269 2042 -326 2202 -480 
C 2528 -58 2739 358 2880 858 
C 3014 1344 3098 1824 3136 2400 
L 3373 2400 
z
M 3162 2810 
C 3174 3098 3181 3270 3181 3488 
L 3181 3981 
L 4064 3981 
L 4064 2810 
L 3162 2810 
z
M 5229 2400 
C 5056 1946 4838 1581 4512 1210 
C 4166 1594 4000 1882 3814 2400 
L 5229 2400 
z
M 1574 2074 
C 1766 1824 1933 1658 2253 1389 
C 2323 1542 2381 1638 2483 1773 
C 2278 1914 2214 1965 2061 2106 
C 2240 2310 2266 2355 2464 2675 
C 2483 2701 2509 2746 2547 2797 
L 2221 3034 
C 2086 2739 1984 2573 1811 2355 
C 1715 2458 1683 2502 1587 2637 
C 1869 3034 2067 3379 2272 3846 
C 2323 3962 2336 3994 2381 4070 
L 2176 4301 
C 2074 4288 1965 4282 1728 4282 
L 1581 4282 
L 1581 4851 
C 1581 5094 1587 5235 1613 5363 
L 1088 5363 
C 1107 5242 1114 5062 1114 4838 
L 1114 4282 
L 902 4282 
C 685 4282 544 4288 378 4314 
L 378 3821 
C 518 3846 678 3853 877 3853 
L 1786 3853 
C 1613 3424 1459 3155 1158 2758 
C 858 2349 570 2061 186 1779 
C 288 1619 346 1491 403 1312 
C 710 1581 915 1786 1120 2022 
L 1120 179 
C 1120 -83 1107 -333 1082 -499 
L 1606 -499 
C 1587 -320 1574 -102 1574 160 
L 1574 2074 
z
" transform="scale(0.015625)"/>
      <path id="HiraginoSans-W4-8986" d="M 5286 1101 
C 5178 1082 5030 1075 4794 1075 
L 3475 1075 
C 3584 1171 3629 1216 3725 1325 
L 5050 1325 
C 5267 1325 5421 1318 5594 1306 
C 5581 1414 5574 1510 5574 1747 
L 5574 2234 
C 5574 2464 5581 2566 5594 2675 
C 5427 2662 5293 2656 5050 2656 
L 3123 2656 
C 2976 2656 2931 2656 2733 2662 
C 2803 2752 2829 2790 2906 2906 
L 5363 2906 
C 5574 2906 5856 2893 6010 2874 
L 6010 3270 
C 5843 3245 5664 3238 5357 3238 
L 3110 3238 
C 3149 3309 3149 3309 3187 3379 
L 2758 3488 
C 2586 3059 2387 2810 1952 2470 
C 2106 2368 2163 2317 2272 2176 
C 2419 2317 2470 2362 2573 2477 
C 2579 2406 2579 2336 2579 2246 
L 2579 1728 
C 2579 1549 2573 1440 2560 1306 
C 2733 1318 2874 1325 3098 1325 
L 3219 1325 
C 2893 1005 2426 768 1786 595 
C 1914 467 1952 422 2042 262 
C 2413 384 2611 474 2867 627 
C 3162 397 3251 339 3552 173 
C 3040 19 2470 -70 1824 -90 
C 1939 -237 1997 -346 2054 -506 
C 2848 -416 3475 -275 4032 -51 
C 4602 -269 5165 -403 5933 -493 
C 5997 -301 6042 -218 6163 -45 
C 5466 -13 5005 51 4531 179 
C 4870 358 5171 570 5440 806 
C 5491 845 5498 851 5536 883 
L 5286 1101 
z
M 4755 768 
C 4506 576 4346 480 4032 346 
C 3699 480 3507 589 3238 768 
L 4755 768 
z
M 3008 2368 
L 5139 2368 
L 5139 2125 
L 3008 2125 
L 3008 2368 
z
M 3008 1850 
L 5139 1850 
L 5139 1606 
L 3008 1606 
L 3008 1850 
z
M 2234 4826 
L 2234 4538 
L 1242 4538 
C 1037 4538 902 4544 717 4563 
C 736 4403 742 4307 742 4160 
L 742 3878 
C 742 3731 736 3635 717 3482 
C 883 3501 1030 3507 1248 3507 
L 5171 3507 
C 5389 3507 5530 3501 5702 3482 
C 5683 3603 5677 3718 5677 3878 
L 5677 4154 
C 5677 4307 5683 4416 5702 4563 
C 5523 4544 5382 4538 5178 4538 
L 4134 4538 
L 4134 4826 
L 5427 4826 
C 5715 4826 5888 4813 6074 4787 
L 6074 5222 
C 5901 5197 5722 5184 5427 5184 
L 1050 5184 
C 749 5184 563 5197 390 5222 
L 390 4787 
C 576 4813 749 4826 1037 4826 
L 2234 4826 
z
M 2669 4826 
L 3699 4826 
L 3699 4538 
L 2669 4538 
L 2669 4826 
z
M 2234 4218 
L 2234 3827 
L 1203 3827 
L 1203 4218 
L 2234 4218 
z
M 2669 4218 
L 3699 4218 
L 3699 3827 
L 2669 3827 
L 2669 4218 
z
M 4134 4218 
L 5216 4218 
L 5216 3827 
L 4134 3827 
L 4134 4218 
z
M 1677 2554 
C 1466 2246 1312 2080 973 1805 
C 710 1587 525 1472 198 1318 
C 326 1146 371 1069 435 890 
C 762 1088 902 1190 1101 1382 
C 1075 1062 1069 902 1069 698 
L 1069 160 
C 1069 -147 1056 -365 1030 -538 
L 1562 -538 
C 1536 -314 1523 -115 1523 186 
L 1523 1715 
C 1696 1875 1862 2061 2029 2266 
L 1677 2554 
z
M 1587 3494 
C 1242 3034 845 2726 275 2483 
C 390 2349 448 2253 518 2086 
C 1082 2374 1504 2714 1978 3238 
L 1587 3494 
z
" transform="scale(0.015625)"/>
      <path id="HiraginoSans-W4-304b" d="M 582 3027 
C 864 3104 1133 3155 1824 3251 
C 1619 2438 1440 1920 1146 1286 
C 928 806 672 358 480 115 
L 1005 -186 
C 1197 173 1331 442 1421 621 
C 1843 1485 2118 2266 2362 3296 
C 2547 3315 2662 3322 2797 3322 
C 3366 3322 3546 3117 3546 2464 
C 3546 1754 3450 1101 3290 717 
C 3206 525 3085 429 2931 429 
C 2707 429 2342 544 1990 717 
C 2016 563 2022 480 2022 358 
C 2022 282 2022 250 2010 141 
C 2426 -26 2707 -96 2976 -96 
C 3283 -96 3469 -13 3629 198 
C 3904 563 4077 1421 4077 2438 
C 4077 2982 3994 3277 3770 3501 
C 3571 3699 3283 3789 2848 3789 
C 2707 3789 2611 3782 2458 3770 
C 2490 3923 2560 4326 2592 4499 
C 2650 4858 2669 4966 2707 5094 
L 2106 5158 
C 2106 5120 2106 5088 2106 5075 
C 2106 4813 2029 4256 1926 3731 
C 1389 3648 749 3578 518 3571 
L 582 3027 
z
M 4346 3942 
C 4954 3309 5395 2496 5632 1574 
L 6138 1843 
C 5850 2765 5446 3462 4806 4173 
L 4346 3942 
z
" transform="scale(0.015625)"/>
      <path id="HiraginoSans-W4-3089" d="M 1978 4627 
C 2541 4365 2541 4365 2989 4211 
C 3379 4083 3635 4006 4282 3846 
L 4486 4371 
C 3795 4480 2707 4826 2253 5082 
L 1978 4627 
z
M 1453 3968 
C 1446 3846 1440 3789 1408 3616 
C 1293 2893 1203 2310 1139 1824 
C 1114 1606 1107 1562 1088 1446 
L 1677 1427 
C 1773 1555 1830 1613 1939 1696 
C 2406 2029 3040 2227 3674 2227 
C 4422 2227 4870 1933 4870 1440 
C 4870 819 4205 403 3213 403 
C 2662 403 2067 518 1542 723 
C 1587 506 1600 416 1600 275 
L 1600 205 
C 1600 173 1600 147 1600 122 
C 2355 -70 2662 -115 3226 -115 
C 3910 -115 4429 19 4838 307 
C 5216 570 5446 1005 5446 1446 
C 5446 2208 4768 2714 3750 2714 
C 3040 2714 2342 2522 1907 2202 
C 1811 2131 1773 2099 1683 2003 
L 1677 2010 
C 1690 2067 1696 2080 1709 2157 
C 1824 2995 1946 3642 2029 3930 
L 1453 3968 
z
" transform="scale(0.015625)"/>
      <path id="HiraginoSans-W4-6709" d="M 1619 307 
C 1619 19 1606 -224 1581 -448 
L 2125 -448 
C 2099 -230 2093 -26 2093 307 
L 2093 941 
L 4717 941 
L 4717 256 
C 4717 90 4672 64 4403 64 
C 4154 64 3955 77 3616 122 
C 3686 -51 3712 -154 3731 -365 
C 3994 -378 4256 -384 4435 -384 
C 4749 -384 4896 -358 5005 -294 
C 5139 -205 5197 -64 5197 179 
L 5197 2739 
C 5197 3078 5203 3283 5222 3482 
C 5037 3462 4864 3456 4538 3456 
L 2259 3456 
C 2387 3654 2483 3814 2650 4134 
L 5338 4134 
C 5613 4134 5856 4122 6054 4096 
L 6054 4621 
C 5856 4595 5638 4582 5338 4582 
L 2854 4582 
C 2912 4710 2938 4787 2995 4941 
C 3085 5197 3091 5222 3130 5293 
L 2573 5370 
C 2534 5101 2477 4902 2349 4582 
L 1088 4582 
C 774 4582 563 4595 358 4621 
L 358 4096 
C 570 4122 787 4134 1088 4134 
L 2131 4134 
C 1914 3718 1709 3424 1402 3091 
C 1011 2669 640 2355 192 2074 
C 352 1926 416 1843 518 1658 
C 1005 2022 1267 2253 1619 2650 
L 1619 307 
z
M 4717 1990 
L 4717 1363 
L 2093 1363 
L 2093 1990 
L 4717 1990 
z
M 4717 2413 
L 2093 2413 
L 2093 3021 
L 4717 3021 
L 4717 2413 
z
" transform="scale(0.015625)"/>
      <path id="HiraginoSans-W4-9650" d="M 3866 2355 
C 4032 1696 4186 1325 4467 896 
C 4832 346 5242 -26 5946 -448 
C 6054 -237 6112 -154 6253 -6 
C 5632 301 5222 627 4890 1075 
C 5190 1280 5440 1466 5670 1645 
C 5914 1843 6042 1939 6054 1952 
L 5683 2298 
C 5542 2099 5107 1741 4653 1440 
C 4493 1741 4416 1946 4314 2355 
L 5146 2355 
C 5370 2355 5542 2349 5734 2336 
C 5715 2522 5709 2618 5709 3008 
L 5709 4384 
C 5709 4781 5715 4928 5728 5088 
C 5581 5062 5434 5056 5120 5056 
L 3411 5056 
C 3104 5056 2950 5062 2790 5082 
C 2810 4864 2816 4672 2816 4416 
L 2816 179 
C 2413 96 2189 58 1997 45 
L 2112 -467 
C 2189 -435 2259 -416 2413 -378 
C 3366 -154 3757 -51 4448 160 
L 4429 614 
C 4013 474 3866 435 3283 288 
L 3283 2355 
L 3866 2355 
z
M 3283 4627 
L 5261 4627 
L 5261 3923 
L 3283 3923 
L 3283 4627 
z
M 3283 3507 
L 5261 3507 
L 5261 2765 
L 3283 2765 
L 3283 3507 
z
M 608 160 
C 608 -102 595 -301 570 -474 
L 1114 -474 
C 1088 -262 1082 -83 1082 160 
L 1082 4698 
L 2074 4698 
C 1811 3994 1715 3776 1376 3149 
C 1677 2822 1792 2656 1901 2406 
C 1990 2195 2042 1958 2042 1734 
C 2042 1485 1958 1414 1670 1414 
C 1555 1414 1414 1427 1286 1446 
C 1350 1293 1382 1171 1395 966 
C 1510 966 1568 966 1638 966 
C 1850 966 2016 986 2157 1024 
C 2394 1094 2522 1318 2522 1664 
C 2522 1856 2502 2003 2464 2163 
C 2381 2522 2246 2765 1888 3194 
C 2125 3635 2298 4000 2445 4358 
C 2605 4749 2605 4749 2650 4838 
L 2387 5158 
C 2317 5133 2182 5126 1965 5126 
L 1030 5126 
C 819 5126 685 5133 589 5146 
C 602 4960 608 4813 608 4634 
L 608 160 
z
" transform="scale(0.015625)"/>
      <path id="HiraginoSans-W4-90e8" d="M 2298 4646 
L 2298 4864 
C 2298 5069 2310 5203 2336 5344 
L 1773 5344 
C 1798 5229 1811 5062 1811 4864 
L 1811 4646 
L 1069 4646 
C 768 4646 614 4653 467 4678 
L 467 4179 
C 621 4205 768 4211 1030 4211 
L 2982 4211 
C 3258 4211 3418 4205 3552 4179 
L 3552 4678 
C 3405 4653 3251 4646 2963 4646 
L 2298 4646 
z
M 2733 2912 
C 2944 3322 3034 3546 3168 3981 
L 2701 4122 
C 2592 3648 2496 3373 2278 2912 
L 928 2912 
C 621 2912 467 2918 307 2944 
L 307 2438 
C 467 2464 627 2470 928 2470 
L 3072 2470 
C 3328 2470 3501 2464 3635 2438 
L 3635 2944 
C 3507 2918 3341 2912 3053 2912 
L 2733 2912 
z
M 890 3974 
C 1075 3603 1171 3366 1267 2963 
L 1709 3110 
C 1581 3552 1498 3776 1312 4128 
L 890 3974 
z
M 1203 -70 
L 2746 -70 
L 2746 -454 
L 3245 -454 
C 3226 -307 3219 -186 3219 38 
L 3219 1466 
C 3219 1779 3219 1843 3238 1984 
C 3136 1971 3014 1965 2771 1965 
L 1222 1965 
C 986 1965 858 1971 710 1984 
C 723 1850 730 1734 730 1446 
L 730 128 
C 730 -160 723 -301 704 -461 
L 1203 -461 
L 1203 -70 
z
M 1203 1530 
L 2752 1530 
L 2752 365 
L 1203 365 
L 1203 1530 
z
M 5907 5171 
C 5786 5152 5658 5146 5408 5146 
L 4358 5146 
C 4128 5146 4000 5152 3840 5165 
C 3859 4960 3866 4787 3866 4595 
L 3866 198 
C 3866 -102 3853 -326 3827 -518 
L 4390 -518 
C 4358 -326 4346 -134 4346 205 
L 4346 4704 
L 5510 4704 
C 5286 4064 5075 3597 4691 2950 
C 5107 2573 5267 2374 5427 2048 
C 5562 1760 5632 1478 5632 1184 
C 5632 890 5517 787 5171 787 
C 4979 787 4819 800 4582 838 
C 4653 685 4678 557 4685 339 
C 4864 320 5011 314 5171 314 
C 5459 314 5664 352 5786 422 
C 6003 544 6118 800 6118 1152 
C 6118 1446 6054 1754 5933 2042 
C 5786 2387 5632 2605 5242 3021 
C 5485 3443 5709 3898 5882 4288 
C 6086 4774 6086 4774 6131 4858 
L 5907 5171 
z
" transform="scale(0.015625)"/>
      <path id="HiraginoSans-W4-5206" d="M 2458 2598 
C 2413 2054 2323 1722 2112 1331 
C 1811 762 1274 301 518 -32 
C 685 -198 755 -294 851 -467 
C 2003 115 2630 870 2880 1952 
C 2925 2163 2944 2272 2970 2598 
L 4390 2598 
C 4390 1715 4333 954 4243 538 
C 4173 205 4128 166 3853 166 
C 3622 166 3328 198 2982 269 
C 3059 51 3085 -70 3110 -269 
C 3488 -301 3706 -314 3898 -314 
C 4326 -314 4499 -243 4614 -26 
C 4781 288 4890 1299 4902 2618 
C 4902 2925 4902 2963 4922 3085 
C 4736 3059 4544 3053 4250 3053 
L 2067 3053 
C 1824 3053 1619 3066 1440 3085 
L 1440 2560 
C 1619 2586 1824 2598 2067 2598 
L 2458 2598 
z
M 2189 5299 
C 2157 5114 2080 4922 1926 4634 
C 1517 3885 973 3296 192 2771 
C 358 2624 467 2496 557 2342 
C 1446 3002 2099 3795 2573 4774 
C 2656 4954 2694 5018 2752 5101 
L 2189 5299 
z
M 3629 5082 
C 3667 5018 3718 4922 3770 4819 
C 4294 3763 4909 3034 5882 2317 
C 6003 2528 6099 2656 6234 2790 
C 5389 3341 4838 3923 4384 4742 
C 4243 4986 4186 5114 4134 5286 
L 3629 5082 
z
" transform="scale(0.015625)"/>
      <path id="HiraginoSans-W4-304c" d="M 531 3002 
C 813 3072 1082 3123 1773 3226 
C 1568 2406 1389 1888 1094 1254 
C 877 781 621 326 429 83 
L 954 -218 
L 1370 589 
C 1792 1459 2067 2234 2310 3270 
C 2496 3290 2611 3296 2746 3296 
C 3315 3296 3494 3091 3494 2438 
C 3494 1722 3398 1075 3232 685 
C 3155 499 3034 403 2880 403 
C 2656 403 2291 512 1939 685 
C 1965 531 1971 448 1971 333 
C 1971 256 1965 218 1958 109 
C 2374 -58 2656 -122 2925 -122 
C 3232 -122 3418 -45 3578 173 
C 3853 538 4026 1395 4026 2413 
C 4026 2957 3936 3251 3718 3475 
C 3514 3674 3232 3757 2797 3757 
C 2656 3757 2560 3757 2406 3744 
C 2438 3891 2509 4301 2541 4467 
C 2598 4826 2618 4934 2656 5062 
L 2054 5133 
L 2054 5043 
C 2054 4781 1978 4224 1875 3699 
C 1338 3616 698 3546 467 3546 
L 531 3002 
z
M 4262 3898 
C 4864 3270 5312 2451 5549 1530 
L 6048 1805 
C 5760 2726 5363 3424 4717 4134 
L 4262 3898 
z
M 5357 5357 
C 5638 5024 5830 4736 6016 4365 
L 6387 4576 
C 6157 4998 6016 5197 5715 5549 
L 5357 5357 
z
M 4614 5011 
C 4877 4717 5082 4397 5280 4000 
L 5658 4211 
C 5434 4627 5286 4845 4986 5203 
L 4614 5011 
z
" transform="scale(0.015625)"/>
      <path id="HiraginoSans-W4-53d6" d="M 845 966 
C 538 915 422 896 288 896 
L 429 365 
C 538 403 659 429 1043 512 
C 1446 595 2067 755 2458 877 
L 2458 166 
C 2458 -77 2445 -307 2419 -506 
L 2963 -506 
C 2938 -339 2925 -128 2925 166 
L 2925 4666 
C 3021 4666 3098 4666 3206 4659 
L 3206 4205 
C 3328 4224 3392 4230 3552 4237 
C 3686 3251 3693 3232 3827 2746 
C 3974 2240 4141 1830 4390 1382 
C 3987 826 3616 486 2995 115 
C 3123 -38 3213 -173 3290 -365 
C 3917 64 4275 410 4666 941 
C 5037 416 5363 102 6010 -358 
C 6086 -173 6176 -13 6298 160 
C 5658 544 5331 845 4954 1382 
C 5466 2240 5792 3219 5939 4339 
C 5965 4538 5984 4646 5997 4710 
C 5824 4691 5664 4685 5504 4685 
L 3763 4685 
C 3610 4685 3494 4691 3373 4698 
L 3373 5126 
C 3219 5107 3091 5101 2861 5101 
L 870 5101 
C 672 5101 512 5114 352 5133 
L 352 4634 
C 518 4659 640 4666 845 4666 
L 845 966 
z
M 1318 4666 
L 2458 4666 
L 2458 3789 
L 1318 3789 
L 1318 4666 
z
M 1318 3379 
L 2458 3379 
L 2458 2515 
L 1318 2515 
L 1318 3379 
z
M 1318 2099 
L 2458 2099 
L 2458 1325 
C 1946 1184 1786 1146 1318 1056 
L 1318 2099 
z
M 5434 4237 
C 5280 3219 5062 2522 4678 1837 
C 4512 2150 4378 2483 4269 2874 
C 4141 3309 4096 3565 4013 4237 
L 5434 4237 
z
" transform="scale(0.015625)"/>
      <path id="HiraginoSans-W4-308c" d="M 678 742 
C 730 819 755 851 838 947 
C 947 1069 1030 1165 1101 1235 
C 1280 1434 1280 1434 1389 1568 
C 1453 1645 1472 1664 1510 1728 
L 1523 1722 
C 1504 1581 1498 1478 1498 1331 
C 1498 -19 1498 -32 1453 -301 
L 2048 -301 
C 2029 -102 2022 384 2022 1491 
C 2022 1638 2022 1811 2029 2138 
C 2957 3091 3738 3635 4160 3635 
C 4371 3635 4486 3520 4486 3309 
C 4486 3149 4448 2906 4339 2419 
C 4096 1293 4083 1203 4083 877 
C 4083 518 4179 282 4397 128 
C 4518 38 4698 -13 4883 -13 
C 5216 -13 5510 141 5773 448 
C 5926 627 5997 742 6182 1082 
C 6010 1299 5958 1382 5843 1606 
C 5766 1363 5632 1094 5478 877 
C 5331 666 5126 531 4973 531 
C 4742 531 4621 678 4621 941 
C 4621 1133 4666 1408 4755 1818 
C 5030 3053 5043 3117 5043 3392 
C 5043 3859 4730 4166 4256 4166 
C 3872 4166 3418 3955 2835 3494 
C 2368 3130 2118 2899 2029 2765 
L 2016 2771 
C 2029 2899 2029 2906 2035 3162 
C 2035 3181 2042 3232 2042 3309 
C 2042 3341 2048 3386 2048 3450 
C 2221 3686 2291 3776 2381 3846 
L 2195 4070 
C 2144 4051 2131 4045 2080 4038 
C 2106 4730 2125 4992 2157 5146 
L 1568 5158 
C 1574 5037 1581 4966 1581 4883 
C 1581 4742 1574 4448 1562 3994 
C 1114 3962 838 3949 742 3949 
C 666 3949 627 3949 525 3962 
L 550 3437 
C 704 3469 806 3475 1549 3526 
C 1536 3162 1536 3162 1530 2976 
C 1523 2675 1517 2477 1517 2381 
C 1382 2240 1024 1875 781 1638 
C 595 1453 506 1382 384 1299 
L 678 742 
z
" transform="scale(0.015625)"/>
      <path id="HiraginoSans-W4-308b" d="M 1485 4262 
C 1626 4282 1690 4288 1824 4294 
C 2758 4333 3482 4371 3718 4410 
C 3738 4410 3750 4410 3770 4416 
L 3776 4403 
C 3725 4352 3725 4352 3706 4333 
C 3686 4314 3680 4307 3654 4282 
C 2694 3334 1242 2131 678 1818 
L 1005 1331 
C 1760 2022 2746 2419 3693 2419 
C 4531 2419 5037 2067 5037 1478 
C 5037 1146 4883 858 4602 659 
C 4454 550 4314 486 4077 416 
C 3987 704 3917 851 3789 1024 
C 3533 1363 3149 1549 2720 1549 
C 2157 1549 1741 1210 1741 755 
C 1741 563 1818 352 1933 218 
C 2170 -58 2605 -198 3232 -198 
C 4646 -198 5587 480 5587 1491 
C 5587 2323 4896 2861 3821 2861 
C 3283 2861 2835 2752 2317 2490 
L 2304 2515 
C 2739 2784 3507 3430 4371 4262 
C 4563 4454 4602 4480 4698 4531 
L 4390 4947 
C 4301 4896 4243 4883 4058 4870 
C 3488 4826 2643 4787 2106 4787 
C 1779 4787 1645 4794 1459 4826 
L 1485 4262 
z
M 3578 288 
C 3373 256 3302 250 3155 250 
C 2598 250 2246 442 2246 742 
C 2246 966 2432 1107 2720 1107 
C 3155 1107 3443 826 3578 288 
z
" transform="scale(0.015625)"/>
     </defs>
     <use xlink:href="#HiraginoSans-W4-30b3"/>
     <use xlink:href="#HiraginoSans-W4-30f3" transform="translate(99.999985 0)"/>
     <use xlink:href="#HiraginoSans-W4-30d1" transform="translate(199.999969 0)"/>
     <use xlink:href="#HiraginoSans-W4-30af" transform="translate(299.999954 0)"/>
     <use xlink:href="#HiraginoSans-W4-30c8" transform="translate(399.999939 0)"/>
     <use xlink:href="#HiraginoSans-W4-20" transform="translate(499.999924 0)"/>
     <use xlink:href="#STIXGeneral-Regular-27fa" transform="translate(533.299911 0)"/>
     <use xlink:href="#HiraginoSans-W4-20" transform="translate(690.69989 0)"/>
     <use xlink:href="#HiraginoSans-W4-4efb" transform="translate(723.999878 0)"/>
     <use xlink:href="#HiraginoSans-W4-610f" transform="translate(823.999863 0)"/>
     <use xlink:href="#HiraginoSans-W4-306e" transform="translate(923.999847 0)"/>
     <use xlink:href="#HiraginoSans-W4-958b" transform="translate(1023.999832 0)"/>
     <use xlink:href="#HiraginoSans-W4-88ab" transform="translate(1123.999817 0)"/>
     <use xlink:href="#HiraginoSans-W4-8986" transform="translate(1223.999802 0)"/>
     <use xlink:href="#HiraginoSans-W4-304b" transform="translate(1323.999786 0)"/>
     <use xlink:href="#HiraginoSans-W4-3089" transform="translate(1423.999771 0)"/>
     <use xlink:href="#HiraginoSans-W4-6709" transform="translate(1523.999756 0)"/>
     <use xlink:href="#HiraginoSans-W4-9650" transform="translate(1623.999741 0)"/>
     <use xlink:href="#HiraginoSans-W4-90e8" transform="translate(1723.999725 0)"/>
     <use xlink:href="#HiraginoSans-W4-5206" transform="translate(1823.99971 0)"/>
     <use xlink:href="#HiraginoSans-W4-88ab" transform="translate(1923.999695 0)"/>
     <use xlink:href="#HiraginoSans-W4-8986" transform="translate(2023.99968 0)"/>
     <use xlink:href="#HiraginoSans-W4-304c" transform="translate(2123.999664 0)"/>
     <use xlink:href="#HiraginoSans-W4-53d6" transform="translate(2223.999649 0)"/>
     <use xlink:href="#HiraginoSans-W4-308c" transform="translate(2323.999634 0)"/>
     <use xlink:href="#HiraginoSans-W4-308b" transform="translate(2423.999619 0)"/>
    </g>
   </g>
   <g id="text_7">
    <!-- 開被覆とコンパクト性 -->
    <g transform="translate(221.2 17.222188) scale(0.13 -0.13)">
     <defs>
      <path id="HiraginoSans-W4-3068" d="M 1971 5056 
C 2010 4954 2016 4922 2074 4646 
C 2227 3885 2355 3392 2528 2874 
C 2131 2675 1926 2547 1683 2342 
C 1318 2042 1114 1651 1114 1261 
C 1114 826 1306 467 1651 269 
C 2035 51 2541 -38 3366 -38 
C 3834 -38 4160 -19 4826 51 
C 5178 90 5178 90 5312 90 
L 5254 723 
C 4845 582 4109 493 3373 493 
C 2938 493 2522 531 2304 589 
C 1894 698 1690 915 1690 1248 
C 1690 1498 1811 1741 2022 1933 
C 2298 2170 2707 2400 3206 2592 
C 3923 2867 4710 3117 5190 3219 
L 4973 3795 
C 4858 3731 4832 3725 4550 3622 
C 3424 3238 3424 3238 3034 3078 
C 2816 3725 2592 4723 2566 5165 
L 1971 5056 
z
" transform="scale(0.015625)"/>
      <path id="HiraginoSans-W4-6027" d="M 3840 3520 
L 3840 2246 
L 3123 2246 
C 2848 2246 2675 2259 2502 2285 
L 2502 1773 
C 2675 1798 2906 1811 3174 1811 
L 3840 1811 
L 3840 224 
L 2733 224 
C 2438 224 2221 237 2022 262 
L 2022 -269 
C 2240 -237 2464 -224 2733 -224 
L 5350 -224 
C 5619 -224 5843 -237 6061 -269 
L 6061 262 
C 5862 237 5645 224 5350 224 
L 4314 224 
L 4314 1811 
L 5120 1811 
C 5414 1811 5600 1798 5786 1773 
L 5786 2285 
C 5606 2259 5427 2246 5126 2246 
L 4314 2246 
L 4314 3520 
L 5248 3520 
C 5472 3520 5702 3507 5920 3482 
L 5920 4000 
C 5766 3974 5574 3962 5248 3962 
L 4314 3962 
L 4314 4698 
C 4314 4941 4326 5158 4358 5350 
L 3795 5350 
C 3827 5146 3840 4934 3840 4698 
L 3840 3962 
L 3098 3962 
C 3149 4166 3219 4499 3245 4646 
C 3264 4742 3264 4755 3283 4813 
L 2771 4909 
C 2771 4710 2752 4576 2707 4326 
C 2566 3610 2355 3098 1997 2592 
C 2259 2458 2259 2458 2419 2349 
C 2688 2771 2810 3046 2970 3520 
L 3840 3520 
z
M 608 2278 
C 774 2854 858 3328 902 4045 
L 506 4109 
C 480 3462 403 3027 218 2432 
L 608 2278 
z
M 1613 -512 
C 1587 -294 1574 -77 1574 211 
L 1574 4704 
C 1574 4973 1587 5146 1613 5363 
L 1043 5363 
C 1075 5152 1088 4954 1088 4704 
L 1088 243 
C 1088 -19 1075 -288 1043 -512 
L 1613 -512 
z
M 2330 3296 
C 2246 3667 2138 3994 2022 4256 
L 1690 4122 
C 1843 3763 1901 3565 1965 3142 
L 2330 3296 
z
" transform="scale(0.015625)"/>
     </defs>
     <use xlink:href="#HiraginoSans-W4-958b"/>
     <use xlink:href="#HiraginoSans-W4-88ab" transform="translate(99.999985 0)"/>
     <use xlink:href="#HiraginoSans-W4-8986" transform="translate(199.999969 0)"/>
     <use xlink:href="#HiraginoSans-W4-3068" transform="translate(299.999954 0)"/>
     <use xlink:href="#HiraginoSans-W4-30b3" transform="translate(399.999939 0)"/>
     <use xlink:href="#HiraginoSans-W4-30f3" transform="translate(499.999924 0)"/>
     <use xlink:href="#HiraginoSans-W4-30d1" transform="translate(599.999908 0)"/>
     <use xlink:href="#HiraginoSans-W4-30af" transform="translate(699.999893 0)"/>
     <use xlink:href="#HiraginoSans-W4-30c8" transform="translate(799.999878 0)"/>
     <use xlink:href="#HiraginoSans-W4-6027" transform="translate(899.999863 0)"/>
    </g>
   </g>
  </g>
 </g>
 <defs>
  <clipPath id="p077cd50f55">
   <rect x="7.2" y="27.222188" width="558" height="332.64"/>
  </clipPath>
 </defs>
</svg>
